<?xml version="1.0" encoding="utf-8" standalone="no"?>
<!DOCTYPE svg PUBLIC "-//W3C//DTD SVG 1.1//EN"
  "http://www.w3.org/Graphics/SVG/1.1/DTD/svg11.dtd">
<!-- Created with matplotlib (https://matplotlib.org/) -->
<svg height="268.854017pt" version="1.1" viewBox="0 0 467.776727 268.854017" width="467.776727pt" xmlns="http://www.w3.org/2000/svg" xmlns:xlink="http://www.w3.org/1999/xlink">
 <defs>
  <style type="text/css">
*{stroke-linecap:butt;stroke-linejoin:round;}
  </style>
 </defs>
 <g id="figure_1">
  <g id="patch_1">
   <path d="M 0 268.854017 
L 467.776727 268.854017 
L 467.776727 0 
L 0 0 
z
" style="fill:#ffffff;"/>
  </g>
  <g id="axes_1">
   <g id="patch_2">
    <path d="M 118.715625 218.014125 
L 453.515625 218.014125 
L 453.515625 22.318125 
L 118.715625 22.318125 
z
" style="fill:#ffffff;"/>
   </g>
   <g id="matplotlib.axis_1">
    <g id="xtick_1">
     <g id="line2d_1">
      <path clip-path="url(#p2b3a470281)" d="M 136.336678 218.014125 
L 136.336678 22.318125 
" style="fill:none;stroke:#b0b0b0;stroke-linecap:square;stroke-opacity:0.5;stroke-width:0.8;"/>
     </g>
     <g id="line2d_2">
      <defs>
       <path d="M 0 0 
L 0 3.5 
" id="m37f6859201" style="stroke:#000000;stroke-width:0.8;"/>
      </defs>
      <g>
       <use style="stroke:#000000;stroke-width:0.8;" x="136.336678" xlink:href="#m37f6859201" y="218.014125"/>
      </g>
     </g>
     <g id="text_1">
      <!-- Feb. -->
      <defs>
       <path d="M 9.8125 72.90625 
L 51.703125 72.90625 
L 51.703125 64.59375 
L 19.671875 64.59375 
L 19.671875 43.109375 
L 48.578125 43.109375 
L 48.578125 34.8125 
L 19.671875 34.8125 
L 19.671875 0 
L 9.8125 0 
z
" id="DejaVuSans-70"/>
       <path d="M 56.203125 29.59375 
L 56.203125 25.203125 
L 14.890625 25.203125 
Q 15.484375 15.921875 20.484375 11.0625 
Q 25.484375 6.203125 34.421875 6.203125 
Q 39.59375 6.203125 44.453125 7.46875 
Q 49.3125 8.734375 54.109375 11.28125 
L 54.109375 2.78125 
Q 49.265625 0.734375 44.1875 -0.34375 
Q 39.109375 -1.421875 33.890625 -1.421875 
Q 20.796875 -1.421875 13.15625 6.1875 
Q 5.515625 13.8125 5.515625 26.8125 
Q 5.515625 40.234375 12.765625 48.109375 
Q 20.015625 56 32.328125 56 
Q 43.359375 56 49.78125 48.890625 
Q 56.203125 41.796875 56.203125 29.59375 
z
M 47.21875 32.234375 
Q 47.125 39.59375 43.09375 43.984375 
Q 39.0625 48.390625 32.421875 48.390625 
Q 24.90625 48.390625 20.390625 44.140625 
Q 15.875 39.890625 15.1875 32.171875 
z
" id="DejaVuSans-101"/>
       <path d="M 48.6875 27.296875 
Q 48.6875 37.203125 44.609375 42.84375 
Q 40.53125 48.484375 33.40625 48.484375 
Q 26.265625 48.484375 22.1875 42.84375 
Q 18.109375 37.203125 18.109375 27.296875 
Q 18.109375 17.390625 22.1875 11.75 
Q 26.265625 6.109375 33.40625 6.109375 
Q 40.53125 6.109375 44.609375 11.75 
Q 48.6875 17.390625 48.6875 27.296875 
z
M 18.109375 46.390625 
Q 20.953125 51.265625 25.265625 53.625 
Q 29.59375 56 35.59375 56 
Q 45.5625 56 51.78125 48.09375 
Q 58.015625 40.1875 58.015625 27.296875 
Q 58.015625 14.40625 51.78125 6.484375 
Q 45.5625 -1.421875 35.59375 -1.421875 
Q 29.59375 -1.421875 25.265625 0.953125 
Q 20.953125 3.328125 18.109375 8.203125 
L 18.109375 0 
L 9.078125 0 
L 9.078125 75.984375 
L 18.109375 75.984375 
z
" id="DejaVuSans-98"/>
       <path d="M 10.6875 12.40625 
L 21 12.40625 
L 21 0 
L 10.6875 0 
z
" id="DejaVuSans-46"/>
      </defs>
      <g transform="translate(125.624959 232.612562)scale(0.1 -0.1)">
       <use xlink:href="#DejaVuSans-70"/>
       <use x="57.441406" xlink:href="#DejaVuSans-101"/>
       <use x="118.964844" xlink:href="#DejaVuSans-98"/>
       <use x="182.441406" xlink:href="#DejaVuSans-46"/>
      </g>
      <!-- 16 -->
      <defs>
       <path d="M 12.40625 8.296875 
L 28.515625 8.296875 
L 28.515625 63.921875 
L 10.984375 60.40625 
L 10.984375 69.390625 
L 28.421875 72.90625 
L 38.28125 72.90625 
L 38.28125 8.296875 
L 54.390625 8.296875 
L 54.390625 0 
L 12.40625 0 
z
" id="DejaVuSans-49"/>
       <path d="M 33.015625 40.375 
Q 26.375 40.375 22.484375 35.828125 
Q 18.609375 31.296875 18.609375 23.390625 
Q 18.609375 15.53125 22.484375 10.953125 
Q 26.375 6.390625 33.015625 6.390625 
Q 39.65625 6.390625 43.53125 10.953125 
Q 47.40625 15.53125 47.40625 23.390625 
Q 47.40625 31.296875 43.53125 35.828125 
Q 39.65625 40.375 33.015625 40.375 
z
M 52.59375 71.296875 
L 52.59375 62.3125 
Q 48.875 64.0625 45.09375 64.984375 
Q 41.3125 65.921875 37.59375 65.921875 
Q 27.828125 65.921875 22.671875 59.328125 
Q 17.53125 52.734375 16.796875 39.40625 
Q 19.671875 43.65625 24.015625 45.921875 
Q 28.375 48.1875 33.59375 48.1875 
Q 44.578125 48.1875 50.953125 41.515625 
Q 57.328125 34.859375 57.328125 23.390625 
Q 57.328125 12.15625 50.6875 5.359375 
Q 44.046875 -1.421875 33.015625 -1.421875 
Q 20.359375 -1.421875 13.671875 8.265625 
Q 6.984375 17.96875 6.984375 36.375 
Q 6.984375 53.65625 15.1875 63.9375 
Q 23.390625 74.21875 37.203125 74.21875 
Q 40.921875 74.21875 44.703125 73.484375 
Q 48.484375 72.75 52.59375 71.296875 
z
" id="DejaVuSans-54"/>
      </defs>
      <g transform="translate(129.974178 243.810375)scale(0.1 -0.1)">
       <use xlink:href="#DejaVuSans-49"/>
       <use x="63.623047" xlink:href="#DejaVuSans-54"/>
      </g>
     </g>
    </g>
    <g id="xtick_2">
     <g id="line2d_3">
      <path clip-path="url(#p2b3a470281)" d="M 177.452467 218.014125 
L 177.452467 22.318125 
" style="fill:none;stroke:#b0b0b0;stroke-linecap:square;stroke-opacity:0.5;stroke-width:0.8;"/>
     </g>
     <g id="line2d_4">
      <g>
       <use style="stroke:#000000;stroke-width:0.8;" x="177.452467" xlink:href="#m37f6859201" y="218.014125"/>
      </g>
     </g>
     <g id="text_2">
      <!-- Feb. -->
      <g transform="translate(166.740748 232.612562)scale(0.1 -0.1)">
       <use xlink:href="#DejaVuSans-70"/>
       <use x="57.441406" xlink:href="#DejaVuSans-101"/>
       <use x="118.964844" xlink:href="#DejaVuSans-98"/>
       <use x="182.441406" xlink:href="#DejaVuSans-46"/>
      </g>
      <!-- 23 -->
      <defs>
       <path d="M 19.1875 8.296875 
L 53.609375 8.296875 
L 53.609375 0 
L 7.328125 0 
L 7.328125 8.296875 
Q 12.9375 14.109375 22.625 23.890625 
Q 32.328125 33.6875 34.8125 36.53125 
Q 39.546875 41.84375 41.421875 45.53125 
Q 43.3125 49.21875 43.3125 52.78125 
Q 43.3125 58.59375 39.234375 62.25 
Q 35.15625 65.921875 28.609375 65.921875 
Q 23.96875 65.921875 18.8125 64.3125 
Q 13.671875 62.703125 7.8125 59.421875 
L 7.8125 69.390625 
Q 13.765625 71.78125 18.9375 73 
Q 24.125 74.21875 28.421875 74.21875 
Q 39.75 74.21875 46.484375 68.546875 
Q 53.21875 62.890625 53.21875 53.421875 
Q 53.21875 48.921875 51.53125 44.890625 
Q 49.859375 40.875 45.40625 35.40625 
Q 44.1875 33.984375 37.640625 27.21875 
Q 31.109375 20.453125 19.1875 8.296875 
z
" id="DejaVuSans-50"/>
       <path d="M 40.578125 39.3125 
Q 47.65625 37.796875 51.625 33 
Q 55.609375 28.21875 55.609375 21.1875 
Q 55.609375 10.40625 48.1875 4.484375 
Q 40.765625 -1.421875 27.09375 -1.421875 
Q 22.515625 -1.421875 17.65625 -0.515625 
Q 12.796875 0.390625 7.625 2.203125 
L 7.625 11.71875 
Q 11.71875 9.328125 16.59375 8.109375 
Q 21.484375 6.890625 26.8125 6.890625 
Q 36.078125 6.890625 40.9375 10.546875 
Q 45.796875 14.203125 45.796875 21.1875 
Q 45.796875 27.640625 41.28125 31.265625 
Q 36.765625 34.90625 28.71875 34.90625 
L 20.21875 34.90625 
L 20.21875 43.015625 
L 29.109375 43.015625 
Q 36.375 43.015625 40.234375 45.921875 
Q 44.09375 48.828125 44.09375 54.296875 
Q 44.09375 59.90625 40.109375 62.90625 
Q 36.140625 65.921875 28.71875 65.921875 
Q 24.65625 65.921875 20.015625 65.03125 
Q 15.375 64.15625 9.8125 62.3125 
L 9.8125 71.09375 
Q 15.4375 72.65625 20.34375 73.4375 
Q 25.25 74.21875 29.59375 74.21875 
Q 40.828125 74.21875 47.359375 69.109375 
Q 53.90625 64.015625 53.90625 55.328125 
Q 53.90625 49.265625 50.4375 45.09375 
Q 46.96875 40.921875 40.578125 39.3125 
z
" id="DejaVuSans-51"/>
      </defs>
      <g transform="translate(171.089967 243.810375)scale(0.1 -0.1)">
       <use xlink:href="#DejaVuSans-50"/>
       <use x="63.623047" xlink:href="#DejaVuSans-51"/>
      </g>
     </g>
    </g>
    <g id="xtick_3">
     <g id="line2d_5">
      <path clip-path="url(#p2b3a470281)" d="M 218.568257 218.014125 
L 218.568257 22.318125 
" style="fill:none;stroke:#b0b0b0;stroke-linecap:square;stroke-opacity:0.5;stroke-width:0.8;"/>
     </g>
     <g id="line2d_6">
      <g>
       <use style="stroke:#000000;stroke-width:0.8;" x="218.568257" xlink:href="#m37f6859201" y="218.014125"/>
      </g>
     </g>
     <g id="text_3">
      <!-- Mar. -->
      <defs>
       <path d="M 9.8125 72.90625 
L 24.515625 72.90625 
L 43.109375 23.296875 
L 61.8125 72.90625 
L 76.515625 72.90625 
L 76.515625 0 
L 66.890625 0 
L 66.890625 64.015625 
L 48.09375 14.015625 
L 38.1875 14.015625 
L 19.390625 64.015625 
L 19.390625 0 
L 9.8125 0 
z
" id="DejaVuSans-77"/>
       <path d="M 34.28125 27.484375 
Q 23.390625 27.484375 19.1875 25 
Q 14.984375 22.515625 14.984375 16.5 
Q 14.984375 11.71875 18.140625 8.90625 
Q 21.296875 6.109375 26.703125 6.109375 
Q 34.1875 6.109375 38.703125 11.40625 
Q 43.21875 16.703125 43.21875 25.484375 
L 43.21875 27.484375 
z
M 52.203125 31.203125 
L 52.203125 0 
L 43.21875 0 
L 43.21875 8.296875 
Q 40.140625 3.328125 35.546875 0.953125 
Q 30.953125 -1.421875 24.3125 -1.421875 
Q 15.921875 -1.421875 10.953125 3.296875 
Q 6 8.015625 6 15.921875 
Q 6 25.140625 12.171875 29.828125 
Q 18.359375 34.515625 30.609375 34.515625 
L 43.21875 34.515625 
L 43.21875 35.40625 
Q 43.21875 41.609375 39.140625 45 
Q 35.0625 48.390625 27.6875 48.390625 
Q 23 48.390625 18.546875 47.265625 
Q 14.109375 46.140625 10.015625 43.890625 
L 10.015625 52.203125 
Q 14.9375 54.109375 19.578125 55.046875 
Q 24.21875 56 28.609375 56 
Q 40.484375 56 46.34375 49.84375 
Q 52.203125 43.703125 52.203125 31.203125 
z
" id="DejaVuSans-97"/>
       <path d="M 41.109375 46.296875 
Q 39.59375 47.171875 37.8125 47.578125 
Q 36.03125 48 33.890625 48 
Q 26.265625 48 22.1875 43.046875 
Q 18.109375 38.09375 18.109375 28.8125 
L 18.109375 0 
L 9.078125 0 
L 9.078125 54.6875 
L 18.109375 54.6875 
L 18.109375 46.1875 
Q 20.953125 51.171875 25.484375 53.578125 
Q 30.03125 56 36.53125 56 
Q 37.453125 56 38.578125 55.875 
Q 39.703125 55.765625 41.0625 55.515625 
z
" id="DejaVuSans-114"/>
      </defs>
      <g transform="translate(207.552632 232.612562)scale(0.1 -0.1)">
       <use xlink:href="#DejaVuSans-77"/>
       <use x="86.279297" xlink:href="#DejaVuSans-97"/>
       <use x="147.558594" xlink:href="#DejaVuSans-114"/>
       <use x="188.53125" xlink:href="#DejaVuSans-46"/>
      </g>
      <!-- 01 -->
      <defs>
       <path d="M 31.78125 66.40625 
Q 24.171875 66.40625 20.328125 58.90625 
Q 16.5 51.421875 16.5 36.375 
Q 16.5 21.390625 20.328125 13.890625 
Q 24.171875 6.390625 31.78125 6.390625 
Q 39.453125 6.390625 43.28125 13.890625 
Q 47.125 21.390625 47.125 36.375 
Q 47.125 51.421875 43.28125 58.90625 
Q 39.453125 66.40625 31.78125 66.40625 
z
M 31.78125 74.21875 
Q 44.046875 74.21875 50.515625 64.515625 
Q 56.984375 54.828125 56.984375 36.375 
Q 56.984375 17.96875 50.515625 8.265625 
Q 44.046875 -1.421875 31.78125 -1.421875 
Q 19.53125 -1.421875 13.0625 8.265625 
Q 6.59375 17.96875 6.59375 36.375 
Q 6.59375 54.828125 13.0625 64.515625 
Q 19.53125 74.21875 31.78125 74.21875 
z
" id="DejaVuSans-48"/>
      </defs>
      <g transform="translate(212.205757 243.810375)scale(0.1 -0.1)">
       <use xlink:href="#DejaVuSans-48"/>
       <use x="63.623047" xlink:href="#DejaVuSans-49"/>
      </g>
     </g>
    </g>
    <g id="xtick_4">
     <g id="line2d_7">
      <path clip-path="url(#p2b3a470281)" d="M 259.684046 218.014125 
L 259.684046 22.318125 
" style="fill:none;stroke:#b0b0b0;stroke-linecap:square;stroke-opacity:0.5;stroke-width:0.8;"/>
     </g>
     <g id="line2d_8">
      <g>
       <use style="stroke:#000000;stroke-width:0.8;" x="259.684046" xlink:href="#m37f6859201" y="218.014125"/>
      </g>
     </g>
     <g id="text_4">
      <!-- Mar. -->
      <g transform="translate(248.668421 232.612562)scale(0.1 -0.1)">
       <use xlink:href="#DejaVuSans-77"/>
       <use x="86.279297" xlink:href="#DejaVuSans-97"/>
       <use x="147.558594" xlink:href="#DejaVuSans-114"/>
       <use x="188.53125" xlink:href="#DejaVuSans-46"/>
      </g>
      <!-- 08 -->
      <defs>
       <path d="M 31.78125 34.625 
Q 24.75 34.625 20.71875 30.859375 
Q 16.703125 27.09375 16.703125 20.515625 
Q 16.703125 13.921875 20.71875 10.15625 
Q 24.75 6.390625 31.78125 6.390625 
Q 38.8125 6.390625 42.859375 10.171875 
Q 46.921875 13.96875 46.921875 20.515625 
Q 46.921875 27.09375 42.890625 30.859375 
Q 38.875 34.625 31.78125 34.625 
z
M 21.921875 38.8125 
Q 15.578125 40.375 12.03125 44.71875 
Q 8.5 49.078125 8.5 55.328125 
Q 8.5 64.0625 14.71875 69.140625 
Q 20.953125 74.21875 31.78125 74.21875 
Q 42.671875 74.21875 48.875 69.140625 
Q 55.078125 64.0625 55.078125 55.328125 
Q 55.078125 49.078125 51.53125 44.71875 
Q 48 40.375 41.703125 38.8125 
Q 48.828125 37.15625 52.796875 32.3125 
Q 56.78125 27.484375 56.78125 20.515625 
Q 56.78125 9.90625 50.3125 4.234375 
Q 43.84375 -1.421875 31.78125 -1.421875 
Q 19.734375 -1.421875 13.25 4.234375 
Q 6.78125 9.90625 6.78125 20.515625 
Q 6.78125 27.484375 10.78125 32.3125 
Q 14.796875 37.15625 21.921875 38.8125 
z
M 18.3125 54.390625 
Q 18.3125 48.734375 21.84375 45.5625 
Q 25.390625 42.390625 31.78125 42.390625 
Q 38.140625 42.390625 41.71875 45.5625 
Q 45.3125 48.734375 45.3125 54.390625 
Q 45.3125 60.0625 41.71875 63.234375 
Q 38.140625 66.40625 31.78125 66.40625 
Q 25.390625 66.40625 21.84375 63.234375 
Q 18.3125 60.0625 18.3125 54.390625 
z
" id="DejaVuSans-56"/>
      </defs>
      <g transform="translate(253.321546 243.810375)scale(0.1 -0.1)">
       <use xlink:href="#DejaVuSans-48"/>
       <use x="63.623047" xlink:href="#DejaVuSans-56"/>
      </g>
     </g>
    </g>
    <g id="xtick_5">
     <g id="line2d_9">
      <path clip-path="url(#p2b3a470281)" d="M 300.799836 218.014125 
L 300.799836 22.318125 
" style="fill:none;stroke:#b0b0b0;stroke-linecap:square;stroke-opacity:0.5;stroke-width:0.8;"/>
     </g>
     <g id="line2d_10">
      <g>
       <use style="stroke:#000000;stroke-width:0.8;" x="300.799836" xlink:href="#m37f6859201" y="218.014125"/>
      </g>
     </g>
     <g id="text_5">
      <!-- Mar. -->
      <g transform="translate(289.784211 232.612562)scale(0.1 -0.1)">
       <use xlink:href="#DejaVuSans-77"/>
       <use x="86.279297" xlink:href="#DejaVuSans-97"/>
       <use x="147.558594" xlink:href="#DejaVuSans-114"/>
       <use x="188.53125" xlink:href="#DejaVuSans-46"/>
      </g>
      <!-- 15 -->
      <defs>
       <path d="M 10.796875 72.90625 
L 49.515625 72.90625 
L 49.515625 64.59375 
L 19.828125 64.59375 
L 19.828125 46.734375 
Q 21.96875 47.46875 24.109375 47.828125 
Q 26.265625 48.1875 28.421875 48.1875 
Q 40.625 48.1875 47.75 41.5 
Q 54.890625 34.8125 54.890625 23.390625 
Q 54.890625 11.625 47.5625 5.09375 
Q 40.234375 -1.421875 26.90625 -1.421875 
Q 22.3125 -1.421875 17.546875 -0.640625 
Q 12.796875 0.140625 7.71875 1.703125 
L 7.71875 11.625 
Q 12.109375 9.234375 16.796875 8.0625 
Q 21.484375 6.890625 26.703125 6.890625 
Q 35.15625 6.890625 40.078125 11.328125 
Q 45.015625 15.765625 45.015625 23.390625 
Q 45.015625 31 40.078125 35.4375 
Q 35.15625 39.890625 26.703125 39.890625 
Q 22.75 39.890625 18.8125 39.015625 
Q 14.890625 38.140625 10.796875 36.28125 
z
" id="DejaVuSans-53"/>
      </defs>
      <g transform="translate(294.437336 243.810375)scale(0.1 -0.1)">
       <use xlink:href="#DejaVuSans-49"/>
       <use x="63.623047" xlink:href="#DejaVuSans-53"/>
      </g>
     </g>
    </g>
    <g id="xtick_6">
     <g id="line2d_11">
      <path clip-path="url(#p2b3a470281)" d="M 341.915625 218.014125 
L 341.915625 22.318125 
" style="fill:none;stroke:#b0b0b0;stroke-linecap:square;stroke-opacity:0.5;stroke-width:0.8;"/>
     </g>
     <g id="line2d_12">
      <g>
       <use style="stroke:#000000;stroke-width:0.8;" x="341.915625" xlink:href="#m37f6859201" y="218.014125"/>
      </g>
     </g>
     <g id="text_6">
      <!-- Mar. -->
      <g transform="translate(330.9 232.612562)scale(0.1 -0.1)">
       <use xlink:href="#DejaVuSans-77"/>
       <use x="86.279297" xlink:href="#DejaVuSans-97"/>
       <use x="147.558594" xlink:href="#DejaVuSans-114"/>
       <use x="188.53125" xlink:href="#DejaVuSans-46"/>
      </g>
      <!-- 22 -->
      <g transform="translate(335.553125 243.810375)scale(0.1 -0.1)">
       <use xlink:href="#DejaVuSans-50"/>
       <use x="63.623047" xlink:href="#DejaVuSans-50"/>
      </g>
     </g>
    </g>
    <g id="xtick_7">
     <g id="line2d_13">
      <path clip-path="url(#p2b3a470281)" d="M 383.031414 218.014125 
L 383.031414 22.318125 
" style="fill:none;stroke:#b0b0b0;stroke-linecap:square;stroke-opacity:0.5;stroke-width:0.8;"/>
     </g>
     <g id="line2d_14">
      <g>
       <use style="stroke:#000000;stroke-width:0.8;" x="383.031414" xlink:href="#m37f6859201" y="218.014125"/>
      </g>
     </g>
     <g id="text_7">
      <!-- Mar. -->
      <g transform="translate(372.015789 232.612562)scale(0.1 -0.1)">
       <use xlink:href="#DejaVuSans-77"/>
       <use x="86.279297" xlink:href="#DejaVuSans-97"/>
       <use x="147.558594" xlink:href="#DejaVuSans-114"/>
       <use x="188.53125" xlink:href="#DejaVuSans-46"/>
      </g>
      <!-- 29 -->
      <defs>
       <path d="M 10.984375 1.515625 
L 10.984375 10.5 
Q 14.703125 8.734375 18.5 7.8125 
Q 22.3125 6.890625 25.984375 6.890625 
Q 35.75 6.890625 40.890625 13.453125 
Q 46.046875 20.015625 46.78125 33.40625 
Q 43.953125 29.203125 39.59375 26.953125 
Q 35.25 24.703125 29.984375 24.703125 
Q 19.046875 24.703125 12.671875 31.3125 
Q 6.296875 37.9375 6.296875 49.421875 
Q 6.296875 60.640625 12.9375 67.421875 
Q 19.578125 74.21875 30.609375 74.21875 
Q 43.265625 74.21875 49.921875 64.515625 
Q 56.59375 54.828125 56.59375 36.375 
Q 56.59375 19.140625 48.40625 8.859375 
Q 40.234375 -1.421875 26.421875 -1.421875 
Q 22.703125 -1.421875 18.890625 -0.6875 
Q 15.09375 0.046875 10.984375 1.515625 
z
M 30.609375 32.421875 
Q 37.25 32.421875 41.125 36.953125 
Q 45.015625 41.5 45.015625 49.421875 
Q 45.015625 57.28125 41.125 61.84375 
Q 37.25 66.40625 30.609375 66.40625 
Q 23.96875 66.40625 20.09375 61.84375 
Q 16.21875 57.28125 16.21875 49.421875 
Q 16.21875 41.5 20.09375 36.953125 
Q 23.96875 32.421875 30.609375 32.421875 
z
" id="DejaVuSans-57"/>
      </defs>
      <g transform="translate(376.668914 243.810375)scale(0.1 -0.1)">
       <use xlink:href="#DejaVuSans-50"/>
       <use x="63.623047" xlink:href="#DejaVuSans-57"/>
      </g>
     </g>
    </g>
    <g id="xtick_8">
     <g id="line2d_15">
      <path clip-path="url(#p2b3a470281)" d="M 424.147204 218.014125 
L 424.147204 22.318125 
" style="fill:none;stroke:#b0b0b0;stroke-linecap:square;stroke-opacity:0.5;stroke-width:0.8;"/>
     </g>
     <g id="line2d_16">
      <g>
       <use style="stroke:#000000;stroke-width:0.8;" x="424.147204" xlink:href="#m37f6859201" y="218.014125"/>
      </g>
     </g>
     <g id="text_8">
      <!-- Apr. -->
      <defs>
       <path d="M 34.1875 63.1875 
L 20.796875 26.90625 
L 47.609375 26.90625 
z
M 28.609375 72.90625 
L 39.796875 72.90625 
L 67.578125 0 
L 57.328125 0 
L 50.6875 18.703125 
L 17.828125 18.703125 
L 11.1875 0 
L 0.78125 0 
z
" id="DejaVuSans-65"/>
       <path d="M 18.109375 8.203125 
L 18.109375 -20.796875 
L 9.078125 -20.796875 
L 9.078125 54.6875 
L 18.109375 54.6875 
L 18.109375 46.390625 
Q 20.953125 51.265625 25.265625 53.625 
Q 29.59375 56 35.59375 56 
Q 45.5625 56 51.78125 48.09375 
Q 58.015625 40.1875 58.015625 27.296875 
Q 58.015625 14.40625 51.78125 6.484375 
Q 45.5625 -1.421875 35.59375 -1.421875 
Q 29.59375 -1.421875 25.265625 0.953125 
Q 20.953125 3.328125 18.109375 8.203125 
z
M 48.6875 27.296875 
Q 48.6875 37.203125 44.609375 42.84375 
Q 40.53125 48.484375 33.40625 48.484375 
Q 26.265625 48.484375 22.1875 42.84375 
Q 18.109375 37.203125 18.109375 27.296875 
Q 18.109375 17.390625 22.1875 11.75 
Q 26.265625 6.109375 33.40625 6.109375 
Q 40.53125 6.109375 44.609375 11.75 
Q 48.6875 17.390625 48.6875 27.296875 
z
" id="DejaVuSans-112"/>
      </defs>
      <g transform="translate(413.915173 232.612562)scale(0.1 -0.1)">
       <use xlink:href="#DejaVuSans-65"/>
       <use x="68.408203" xlink:href="#DejaVuSans-112"/>
       <use x="131.884766" xlink:href="#DejaVuSans-114"/>
       <use x="172.857422" xlink:href="#DejaVuSans-46"/>
      </g>
      <!-- 05 -->
      <g transform="translate(417.784704 243.810375)scale(0.1 -0.1)">
       <use xlink:href="#DejaVuSans-48"/>
       <use x="63.623047" xlink:href="#DejaVuSans-53"/>
      </g>
     </g>
    </g>
   </g>
   <g id="matplotlib.axis_2">
    <g id="ytick_1">
     <g id="line2d_17">
      <path clip-path="url(#p2b3a470281)" d="M 118.715625 218.014125 
L 453.515625 218.014125 
" style="fill:none;stroke:#b0b0b0;stroke-linecap:square;stroke-opacity:0.5;stroke-width:0.8;"/>
     </g>
     <g id="line2d_18">
      <defs>
       <path d="M 0 0 
L -3.5 0 
" id="m5d742b167e" style="stroke:#000000;stroke-width:0.8;"/>
      </defs>
      <g>
       <use style="stroke:#000000;stroke-width:0.8;" x="118.715625" xlink:href="#m5d742b167e" y="218.014125"/>
      </g>
     </g>
     <g id="text_9">
      <!-- 1 in 100 million -->
      <defs>
       <path id="DejaVuSans-32"/>
       <path d="M 9.421875 54.6875 
L 18.40625 54.6875 
L 18.40625 0 
L 9.421875 0 
z
M 9.421875 75.984375 
L 18.40625 75.984375 
L 18.40625 64.59375 
L 9.421875 64.59375 
z
" id="DejaVuSans-105"/>
       <path d="M 54.890625 33.015625 
L 54.890625 0 
L 45.90625 0 
L 45.90625 32.71875 
Q 45.90625 40.484375 42.875 44.328125 
Q 39.84375 48.1875 33.796875 48.1875 
Q 26.515625 48.1875 22.3125 43.546875 
Q 18.109375 38.921875 18.109375 30.90625 
L 18.109375 0 
L 9.078125 0 
L 9.078125 54.6875 
L 18.109375 54.6875 
L 18.109375 46.1875 
Q 21.34375 51.125 25.703125 53.5625 
Q 30.078125 56 35.796875 56 
Q 45.21875 56 50.046875 50.171875 
Q 54.890625 44.34375 54.890625 33.015625 
z
" id="DejaVuSans-110"/>
       <path d="M 52 44.1875 
Q 55.375 50.25 60.0625 53.125 
Q 64.75 56 71.09375 56 
Q 79.640625 56 84.28125 50.015625 
Q 88.921875 44.046875 88.921875 33.015625 
L 88.921875 0 
L 79.890625 0 
L 79.890625 32.71875 
Q 79.890625 40.578125 77.09375 44.375 
Q 74.3125 48.1875 68.609375 48.1875 
Q 61.625 48.1875 57.5625 43.546875 
Q 53.515625 38.921875 53.515625 30.90625 
L 53.515625 0 
L 44.484375 0 
L 44.484375 32.71875 
Q 44.484375 40.625 41.703125 44.40625 
Q 38.921875 48.1875 33.109375 48.1875 
Q 26.21875 48.1875 22.15625 43.53125 
Q 18.109375 38.875 18.109375 30.90625 
L 18.109375 0 
L 9.078125 0 
L 9.078125 54.6875 
L 18.109375 54.6875 
L 18.109375 46.1875 
Q 21.1875 51.21875 25.484375 53.609375 
Q 29.78125 56 35.6875 56 
Q 41.65625 56 45.828125 52.96875 
Q 50 49.953125 52 44.1875 
z
" id="DejaVuSans-109"/>
       <path d="M 9.421875 75.984375 
L 18.40625 75.984375 
L 18.40625 0 
L 9.421875 0 
z
" id="DejaVuSans-108"/>
       <path d="M 30.609375 48.390625 
Q 23.390625 48.390625 19.1875 42.75 
Q 14.984375 37.109375 14.984375 27.296875 
Q 14.984375 17.484375 19.15625 11.84375 
Q 23.34375 6.203125 30.609375 6.203125 
Q 37.796875 6.203125 41.984375 11.859375 
Q 46.1875 17.53125 46.1875 27.296875 
Q 46.1875 37.015625 41.984375 42.703125 
Q 37.796875 48.390625 30.609375 48.390625 
z
M 30.609375 56 
Q 42.328125 56 49.015625 48.375 
Q 55.71875 40.765625 55.71875 27.296875 
Q 55.71875 13.875 49.015625 6.21875 
Q 42.328125 -1.421875 30.609375 -1.421875 
Q 18.84375 -1.421875 12.171875 6.21875 
Q 5.515625 13.875 5.515625 27.296875 
Q 5.515625 40.765625 12.171875 48.375 
Q 18.84375 56 30.609375 56 
z
" id="DejaVuSans-111"/>
      </defs>
      <g transform="translate(34.30625 221.813344)scale(0.1 -0.1)">
       <use xlink:href="#DejaVuSans-49"/>
       <use x="63.623047" xlink:href="#DejaVuSans-32"/>
       <use x="95.410156" xlink:href="#DejaVuSans-105"/>
       <use x="123.193359" xlink:href="#DejaVuSans-110"/>
       <use x="186.572266" xlink:href="#DejaVuSans-32"/>
       <use x="218.359375" xlink:href="#DejaVuSans-49"/>
       <use x="281.982422" xlink:href="#DejaVuSans-48"/>
       <use x="345.605469" xlink:href="#DejaVuSans-48"/>
       <use x="409.228516" xlink:href="#DejaVuSans-32"/>
       <use x="441.015625" xlink:href="#DejaVuSans-109"/>
       <use x="538.427734" xlink:href="#DejaVuSans-105"/>
       <use x="566.210938" xlink:href="#DejaVuSans-108"/>
       <use x="593.994141" xlink:href="#DejaVuSans-108"/>
       <use x="621.777344" xlink:href="#DejaVuSans-105"/>
       <use x="649.560547" xlink:href="#DejaVuSans-111"/>
       <use x="710.742188" xlink:href="#DejaVuSans-110"/>
      </g>
     </g>
    </g>
    <g id="ytick_2">
     <g id="line2d_19">
      <path clip-path="url(#p2b3a470281)" d="M 118.715625 193.552125 
L 453.515625 193.552125 
" style="fill:none;stroke:#b0b0b0;stroke-linecap:square;stroke-opacity:0.5;stroke-width:0.8;"/>
     </g>
     <g id="line2d_20">
      <g>
       <use style="stroke:#000000;stroke-width:0.8;" x="118.715625" xlink:href="#m5d742b167e" y="193.552125"/>
      </g>
     </g>
     <g id="text_10">
      <!-- 1 in 10 million -->
      <g transform="translate(40.66875 197.351344)scale(0.1 -0.1)">
       <use xlink:href="#DejaVuSans-49"/>
       <use x="63.623047" xlink:href="#DejaVuSans-32"/>
       <use x="95.410156" xlink:href="#DejaVuSans-105"/>
       <use x="123.193359" xlink:href="#DejaVuSans-110"/>
       <use x="186.572266" xlink:href="#DejaVuSans-32"/>
       <use x="218.359375" xlink:href="#DejaVuSans-49"/>
       <use x="281.982422" xlink:href="#DejaVuSans-48"/>
       <use x="345.605469" xlink:href="#DejaVuSans-32"/>
       <use x="377.392578" xlink:href="#DejaVuSans-109"/>
       <use x="474.804688" xlink:href="#DejaVuSans-105"/>
       <use x="502.587891" xlink:href="#DejaVuSans-108"/>
       <use x="530.371094" xlink:href="#DejaVuSans-108"/>
       <use x="558.154297" xlink:href="#DejaVuSans-105"/>
       <use x="585.9375" xlink:href="#DejaVuSans-111"/>
       <use x="647.119141" xlink:href="#DejaVuSans-110"/>
      </g>
     </g>
    </g>
    <g id="ytick_3">
     <g id="line2d_21">
      <path clip-path="url(#p2b3a470281)" d="M 118.715625 169.090125 
L 453.515625 169.090125 
" style="fill:none;stroke:#b0b0b0;stroke-linecap:square;stroke-opacity:0.5;stroke-width:0.8;"/>
     </g>
     <g id="line2d_22">
      <g>
       <use style="stroke:#000000;stroke-width:0.8;" x="118.715625" xlink:href="#m5d742b167e" y="169.090125"/>
      </g>
     </g>
     <g id="text_11">
      <!-- 1 in a million -->
      <g transform="translate(47.265625 172.889344)scale(0.1 -0.1)">
       <use xlink:href="#DejaVuSans-49"/>
       <use x="63.623047" xlink:href="#DejaVuSans-32"/>
       <use x="95.410156" xlink:href="#DejaVuSans-105"/>
       <use x="123.193359" xlink:href="#DejaVuSans-110"/>
       <use x="186.572266" xlink:href="#DejaVuSans-32"/>
       <use x="218.359375" xlink:href="#DejaVuSans-97"/>
       <use x="279.638672" xlink:href="#DejaVuSans-32"/>
       <use x="311.425781" xlink:href="#DejaVuSans-109"/>
       <use x="408.837891" xlink:href="#DejaVuSans-105"/>
       <use x="436.621094" xlink:href="#DejaVuSans-108"/>
       <use x="464.404297" xlink:href="#DejaVuSans-108"/>
       <use x="492.1875" xlink:href="#DejaVuSans-105"/>
       <use x="519.970703" xlink:href="#DejaVuSans-111"/>
       <use x="581.152344" xlink:href="#DejaVuSans-110"/>
      </g>
     </g>
    </g>
    <g id="ytick_4">
     <g id="line2d_23">
      <path clip-path="url(#p2b3a470281)" d="M 118.715625 144.628125 
L 453.515625 144.628125 
" style="fill:none;stroke:#b0b0b0;stroke-linecap:square;stroke-opacity:0.5;stroke-width:0.8;"/>
     </g>
     <g id="line2d_24">
      <g>
       <use style="stroke:#000000;stroke-width:0.8;" x="118.715625" xlink:href="#m5d742b167e" y="144.628125"/>
      </g>
     </g>
     <g id="text_12">
      <!-- 1 in 100 thousand -->
      <defs>
       <path d="M 18.3125 70.21875 
L 18.3125 54.6875 
L 36.8125 54.6875 
L 36.8125 47.703125 
L 18.3125 47.703125 
L 18.3125 18.015625 
Q 18.3125 11.328125 20.140625 9.421875 
Q 21.96875 7.515625 27.59375 7.515625 
L 36.8125 7.515625 
L 36.8125 0 
L 27.59375 0 
Q 17.1875 0 13.234375 3.875 
Q 9.28125 7.765625 9.28125 18.015625 
L 9.28125 47.703125 
L 2.6875 47.703125 
L 2.6875 54.6875 
L 9.28125 54.6875 
L 9.28125 70.21875 
z
" id="DejaVuSans-116"/>
       <path d="M 54.890625 33.015625 
L 54.890625 0 
L 45.90625 0 
L 45.90625 32.71875 
Q 45.90625 40.484375 42.875 44.328125 
Q 39.84375 48.1875 33.796875 48.1875 
Q 26.515625 48.1875 22.3125 43.546875 
Q 18.109375 38.921875 18.109375 30.90625 
L 18.109375 0 
L 9.078125 0 
L 9.078125 75.984375 
L 18.109375 75.984375 
L 18.109375 46.1875 
Q 21.34375 51.125 25.703125 53.5625 
Q 30.078125 56 35.796875 56 
Q 45.21875 56 50.046875 50.171875 
Q 54.890625 44.34375 54.890625 33.015625 
z
" id="DejaVuSans-104"/>
       <path d="M 8.5 21.578125 
L 8.5 54.6875 
L 17.484375 54.6875 
L 17.484375 21.921875 
Q 17.484375 14.15625 20.5 10.265625 
Q 23.53125 6.390625 29.59375 6.390625 
Q 36.859375 6.390625 41.078125 11.03125 
Q 45.3125 15.671875 45.3125 23.6875 
L 45.3125 54.6875 
L 54.296875 54.6875 
L 54.296875 0 
L 45.3125 0 
L 45.3125 8.40625 
Q 42.046875 3.421875 37.71875 1 
Q 33.40625 -1.421875 27.6875 -1.421875 
Q 18.265625 -1.421875 13.375 4.4375 
Q 8.5 10.296875 8.5 21.578125 
z
M 31.109375 56 
z
" id="DejaVuSans-117"/>
       <path d="M 44.28125 53.078125 
L 44.28125 44.578125 
Q 40.484375 46.53125 36.375 47.5 
Q 32.28125 48.484375 27.875 48.484375 
Q 21.1875 48.484375 17.84375 46.4375 
Q 14.5 44.390625 14.5 40.28125 
Q 14.5 37.15625 16.890625 35.375 
Q 19.28125 33.59375 26.515625 31.984375 
L 29.59375 31.296875 
Q 39.15625 29.25 43.1875 25.515625 
Q 47.21875 21.78125 47.21875 15.09375 
Q 47.21875 7.46875 41.1875 3.015625 
Q 35.15625 -1.421875 24.609375 -1.421875 
Q 20.21875 -1.421875 15.453125 -0.5625 
Q 10.6875 0.296875 5.421875 2 
L 5.421875 11.28125 
Q 10.40625 8.6875 15.234375 7.390625 
Q 20.0625 6.109375 24.8125 6.109375 
Q 31.15625 6.109375 34.5625 8.28125 
Q 37.984375 10.453125 37.984375 14.40625 
Q 37.984375 18.0625 35.515625 20.015625 
Q 33.0625 21.96875 24.703125 23.78125 
L 21.578125 24.515625 
Q 13.234375 26.265625 9.515625 29.90625 
Q 5.8125 33.546875 5.8125 39.890625 
Q 5.8125 47.609375 11.28125 51.796875 
Q 16.75 56 26.8125 56 
Q 31.78125 56 36.171875 55.265625 
Q 40.578125 54.546875 44.28125 53.078125 
z
" id="DejaVuSans-115"/>
       <path d="M 45.40625 46.390625 
L 45.40625 75.984375 
L 54.390625 75.984375 
L 54.390625 0 
L 45.40625 0 
L 45.40625 8.203125 
Q 42.578125 3.328125 38.25 0.953125 
Q 33.9375 -1.421875 27.875 -1.421875 
Q 17.96875 -1.421875 11.734375 6.484375 
Q 5.515625 14.40625 5.515625 27.296875 
Q 5.515625 40.1875 11.734375 48.09375 
Q 17.96875 56 27.875 56 
Q 33.9375 56 38.25 53.625 
Q 42.578125 51.265625 45.40625 46.390625 
z
M 14.796875 27.296875 
Q 14.796875 17.390625 18.875 11.75 
Q 22.953125 6.109375 30.078125 6.109375 
Q 37.203125 6.109375 41.296875 11.75 
Q 45.40625 17.390625 45.40625 27.296875 
Q 45.40625 37.203125 41.296875 42.84375 
Q 37.203125 48.484375 30.078125 48.484375 
Q 22.953125 48.484375 18.875 42.84375 
Q 14.796875 37.203125 14.796875 27.296875 
z
" id="DejaVuSans-100"/>
      </defs>
      <g transform="translate(20.878125 148.427344)scale(0.1 -0.1)">
       <use xlink:href="#DejaVuSans-49"/>
       <use x="63.623047" xlink:href="#DejaVuSans-32"/>
       <use x="95.410156" xlink:href="#DejaVuSans-105"/>
       <use x="123.193359" xlink:href="#DejaVuSans-110"/>
       <use x="186.572266" xlink:href="#DejaVuSans-32"/>
       <use x="218.359375" xlink:href="#DejaVuSans-49"/>
       <use x="281.982422" xlink:href="#DejaVuSans-48"/>
       <use x="345.605469" xlink:href="#DejaVuSans-48"/>
       <use x="409.228516" xlink:href="#DejaVuSans-32"/>
       <use x="441.015625" xlink:href="#DejaVuSans-116"/>
       <use x="480.224609" xlink:href="#DejaVuSans-104"/>
       <use x="543.603516" xlink:href="#DejaVuSans-111"/>
       <use x="604.785156" xlink:href="#DejaVuSans-117"/>
       <use x="668.164062" xlink:href="#DejaVuSans-115"/>
       <use x="720.263672" xlink:href="#DejaVuSans-97"/>
       <use x="781.542969" xlink:href="#DejaVuSans-110"/>
       <use x="844.921875" xlink:href="#DejaVuSans-100"/>
      </g>
     </g>
    </g>
    <g id="ytick_5">
     <g id="line2d_25">
      <path clip-path="url(#p2b3a470281)" d="M 118.715625 120.166125 
L 453.515625 120.166125 
" style="fill:none;stroke:#b0b0b0;stroke-linecap:square;stroke-opacity:0.5;stroke-width:0.8;"/>
     </g>
     <g id="line2d_26">
      <g>
       <use style="stroke:#000000;stroke-width:0.8;" x="118.715625" xlink:href="#m5d742b167e" y="120.166125"/>
      </g>
     </g>
     <g id="text_13">
      <!-- 1 in 10 thousand -->
      <g transform="translate(27.240625 123.965344)scale(0.1 -0.1)">
       <use xlink:href="#DejaVuSans-49"/>
       <use x="63.623047" xlink:href="#DejaVuSans-32"/>
       <use x="95.410156" xlink:href="#DejaVuSans-105"/>
       <use x="123.193359" xlink:href="#DejaVuSans-110"/>
       <use x="186.572266" xlink:href="#DejaVuSans-32"/>
       <use x="218.359375" xlink:href="#DejaVuSans-49"/>
       <use x="281.982422" xlink:href="#DejaVuSans-48"/>
       <use x="345.605469" xlink:href="#DejaVuSans-32"/>
       <use x="377.392578" xlink:href="#DejaVuSans-116"/>
       <use x="416.601562" xlink:href="#DejaVuSans-104"/>
       <use x="479.980469" xlink:href="#DejaVuSans-111"/>
       <use x="541.162109" xlink:href="#DejaVuSans-117"/>
       <use x="604.541016" xlink:href="#DejaVuSans-115"/>
       <use x="656.640625" xlink:href="#DejaVuSans-97"/>
       <use x="717.919922" xlink:href="#DejaVuSans-110"/>
       <use x="781.298828" xlink:href="#DejaVuSans-100"/>
      </g>
     </g>
    </g>
    <g id="ytick_6">
     <g id="line2d_27">
      <path clip-path="url(#p2b3a470281)" d="M 118.715625 95.704125 
L 453.515625 95.704125 
" style="fill:none;stroke:#b0b0b0;stroke-linecap:square;stroke-opacity:0.5;stroke-width:0.8;"/>
     </g>
     <g id="line2d_28">
      <g>
       <use style="stroke:#000000;stroke-width:0.8;" x="118.715625" xlink:href="#m5d742b167e" y="95.704125"/>
      </g>
     </g>
     <g id="text_14">
      <!-- 1 in a thousand -->
      <g transform="translate(33.8375 99.503344)scale(0.1 -0.1)">
       <use xlink:href="#DejaVuSans-49"/>
       <use x="63.623047" xlink:href="#DejaVuSans-32"/>
       <use x="95.410156" xlink:href="#DejaVuSans-105"/>
       <use x="123.193359" xlink:href="#DejaVuSans-110"/>
       <use x="186.572266" xlink:href="#DejaVuSans-32"/>
       <use x="218.359375" xlink:href="#DejaVuSans-97"/>
       <use x="279.638672" xlink:href="#DejaVuSans-32"/>
       <use x="311.425781" xlink:href="#DejaVuSans-116"/>
       <use x="350.634766" xlink:href="#DejaVuSans-104"/>
       <use x="414.013672" xlink:href="#DejaVuSans-111"/>
       <use x="475.195312" xlink:href="#DejaVuSans-117"/>
       <use x="538.574219" xlink:href="#DejaVuSans-115"/>
       <use x="590.673828" xlink:href="#DejaVuSans-97"/>
       <use x="651.953125" xlink:href="#DejaVuSans-110"/>
       <use x="715.332031" xlink:href="#DejaVuSans-100"/>
      </g>
     </g>
    </g>
    <g id="ytick_7">
     <g id="line2d_29">
      <path clip-path="url(#p2b3a470281)" d="M 118.715625 71.242125 
L 453.515625 71.242125 
" style="fill:none;stroke:#b0b0b0;stroke-linecap:square;stroke-opacity:0.5;stroke-width:0.8;"/>
     </g>
     <g id="line2d_30">
      <g>
       <use style="stroke:#000000;stroke-width:0.8;" x="118.715625" xlink:href="#m5d742b167e" y="71.242125"/>
      </g>
     </g>
     <g id="text_15">
      <!-- 1 in 100 -->
      <g transform="translate(70.79375 75.041344)scale(0.1 -0.1)">
       <use xlink:href="#DejaVuSans-49"/>
       <use x="63.623047" xlink:href="#DejaVuSans-32"/>
       <use x="95.410156" xlink:href="#DejaVuSans-105"/>
       <use x="123.193359" xlink:href="#DejaVuSans-110"/>
       <use x="186.572266" xlink:href="#DejaVuSans-32"/>
       <use x="218.359375" xlink:href="#DejaVuSans-49"/>
       <use x="281.982422" xlink:href="#DejaVuSans-48"/>
       <use x="345.605469" xlink:href="#DejaVuSans-48"/>
      </g>
     </g>
    </g>
    <g id="ytick_8">
     <g id="line2d_31">
      <path clip-path="url(#p2b3a470281)" d="M 118.715625 46.780125 
L 453.515625 46.780125 
" style="fill:none;stroke:#b0b0b0;stroke-linecap:square;stroke-opacity:0.5;stroke-width:0.8;"/>
     </g>
     <g id="line2d_32">
      <g>
       <use style="stroke:#000000;stroke-width:0.8;" x="118.715625" xlink:href="#m5d742b167e" y="46.780125"/>
      </g>
     </g>
     <g id="text_16">
      <!-- 1 in 10 -->
      <g transform="translate(77.15625 50.579344)scale(0.1 -0.1)">
       <use xlink:href="#DejaVuSans-49"/>
       <use x="63.623047" xlink:href="#DejaVuSans-32"/>
       <use x="95.410156" xlink:href="#DejaVuSans-105"/>
       <use x="123.193359" xlink:href="#DejaVuSans-110"/>
       <use x="186.572266" xlink:href="#DejaVuSans-32"/>
       <use x="218.359375" xlink:href="#DejaVuSans-49"/>
       <use x="281.982422" xlink:href="#DejaVuSans-48"/>
      </g>
     </g>
    </g>
    <g id="ytick_9">
     <g id="line2d_33">
      <path clip-path="url(#p2b3a470281)" d="M 118.715625 22.318125 
L 453.515625 22.318125 
" style="fill:none;stroke:#b0b0b0;stroke-linecap:square;stroke-opacity:0.5;stroke-width:0.8;"/>
     </g>
     <g id="line2d_34">
      <g>
       <use style="stroke:#000000;stroke-width:0.8;" x="118.715625" xlink:href="#m5d742b167e" y="22.318125"/>
      </g>
     </g>
     <g id="text_17">
      <!-- 1 in 1 -->
      <g transform="translate(83.51875 26.117344)scale(0.1 -0.1)">
       <use xlink:href="#DejaVuSans-49"/>
       <use x="63.623047" xlink:href="#DejaVuSans-32"/>
       <use x="95.410156" xlink:href="#DejaVuSans-105"/>
       <use x="123.193359" xlink:href="#DejaVuSans-110"/>
       <use x="186.572266" xlink:href="#DejaVuSans-32"/>
       <use x="218.359375" xlink:href="#DejaVuSans-49"/>
      </g>
     </g>
    </g>
    <g id="text_18">
     <!-- Fraction of population -->
     <defs>
      <path d="M 48.78125 52.59375 
L 48.78125 44.1875 
Q 44.96875 46.296875 41.140625 47.34375 
Q 37.3125 48.390625 33.40625 48.390625 
Q 24.65625 48.390625 19.8125 42.84375 
Q 14.984375 37.3125 14.984375 27.296875 
Q 14.984375 17.28125 19.8125 11.734375 
Q 24.65625 6.203125 33.40625 6.203125 
Q 37.3125 6.203125 41.140625 7.25 
Q 44.96875 8.296875 48.78125 10.40625 
L 48.78125 2.09375 
Q 45.015625 0.34375 40.984375 -0.53125 
Q 36.96875 -1.421875 32.421875 -1.421875 
Q 20.0625 -1.421875 12.78125 6.34375 
Q 5.515625 14.109375 5.515625 27.296875 
Q 5.515625 40.671875 12.859375 48.328125 
Q 20.21875 56 33.015625 56 
Q 37.15625 56 41.109375 55.140625 
Q 45.0625 54.296875 48.78125 52.59375 
z
" id="DejaVuSans-99"/>
      <path d="M 37.109375 75.984375 
L 37.109375 68.5 
L 28.515625 68.5 
Q 23.6875 68.5 21.796875 66.546875 
Q 19.921875 64.59375 19.921875 59.515625 
L 19.921875 54.6875 
L 34.71875 54.6875 
L 34.71875 47.703125 
L 19.921875 47.703125 
L 19.921875 0 
L 10.890625 0 
L 10.890625 47.703125 
L 2.296875 47.703125 
L 2.296875 54.6875 
L 10.890625 54.6875 
L 10.890625 58.5 
Q 10.890625 67.625 15.140625 71.796875 
Q 19.390625 75.984375 28.609375 75.984375 
z
" id="DejaVuSans-102"/>
     </defs>
     <g transform="translate(14.798437 175.087219)rotate(-90)scale(0.1 -0.1)">
      <use xlink:href="#DejaVuSans-70"/>
      <use x="57.410156" xlink:href="#DejaVuSans-114"/>
      <use x="98.523438" xlink:href="#DejaVuSans-97"/>
      <use x="159.802734" xlink:href="#DejaVuSans-99"/>
      <use x="214.783203" xlink:href="#DejaVuSans-116"/>
      <use x="253.992188" xlink:href="#DejaVuSans-105"/>
      <use x="281.775391" xlink:href="#DejaVuSans-111"/>
      <use x="342.957031" xlink:href="#DejaVuSans-110"/>
      <use x="406.335938" xlink:href="#DejaVuSans-32"/>
      <use x="438.123047" xlink:href="#DejaVuSans-111"/>
      <use x="499.304688" xlink:href="#DejaVuSans-102"/>
      <use x="534.509766" xlink:href="#DejaVuSans-32"/>
      <use x="566.296875" xlink:href="#DejaVuSans-112"/>
      <use x="629.773438" xlink:href="#DejaVuSans-111"/>
      <use x="690.955078" xlink:href="#DejaVuSans-112"/>
      <use x="754.431641" xlink:href="#DejaVuSans-117"/>
      <use x="817.810547" xlink:href="#DejaVuSans-108"/>
      <use x="845.59375" xlink:href="#DejaVuSans-97"/>
      <use x="906.873047" xlink:href="#DejaVuSans-116"/>
      <use x="946.082031" xlink:href="#DejaVuSans-105"/>
      <use x="973.865234" xlink:href="#DejaVuSans-111"/>
      <use x="1035.046875" xlink:href="#DejaVuSans-110"/>
     </g>
    </g>
   </g>
   <g id="line2d_35">
    <path clip-path="url(#p2b3a470281)" d="M 130.462993 190.503073 
L 136.336678 190.503073 
L 142.210362 190.503073 
L 148.084046 190.503073 
L 153.95773 190.503073 
L 159.831414 190.503073 
L 165.705099 190.503073 
L 171.578783 190.503073 
L 177.452467 186.596471 
L 183.326151 186.596471 
L 189.199836 186.596471 
L 195.07352 186.596471 
L 200.947204 184.39057 
L 206.820888 182.019957 
L 212.694572 180.535167 
L 218.568257 175.775481 
L 224.441941 174.925131 
L 230.315625 172.075171 
L 236.189309 166.401233 
L 242.062993 163.344982 
L 247.936678 159.666243 
L 253.810362 157.090335 
L 259.684046 154.059529 
L 265.55773 152.531627 
L 271.431414 150.655545 
L 277.305099 148.709371 
L 283.178783 146.065171 
L 289.052467 142.856958 
L 294.926151 139.067747 
L 300.799836 136.953685 
L 306.67352 135.851946 
L 312.547204 133.364926 
L 318.420888 130.202966 
L 324.294572 127.876135 
L 330.168257 125.777409 
L 336.041941 123.323372 
L 341.915625 122.001274 
L 347.789309 120.33189 
L 353.662993 118.266602 
L 359.536678 116.510297 
L 365.410362 114.367996 
L 371.284046 112.018911 
L 377.15773 110.305038 
L 383.031414 108.890947 
L 388.905099 107.553538 
L 394.778783 106.199793 
L 400.652467 104.514334 
L 406.526151 103.085198 
" style="fill:none;stroke:#1f77b4;stroke-linecap:square;stroke-width:1.5;"/>
    <defs>
     <path d="M 0 3 
C 0.795609 3 1.55874 2.683901 2.12132 2.12132 
C 2.683901 1.55874 3 0.795609 3 0 
C 3 -0.795609 2.683901 -1.55874 2.12132 -2.12132 
C 1.55874 -2.683901 0.795609 -3 0 -3 
C -0.795609 -3 -1.55874 -2.683901 -2.12132 -2.12132 
C -2.683901 -1.55874 -3 -0.795609 -3 0 
C -3 0.795609 -2.683901 1.55874 -2.12132 2.12132 
C -1.55874 2.683901 -0.795609 3 0 3 
z
" id="m3722058a86" style="stroke:#1f77b4;"/>
    </defs>
    <g clip-path="url(#p2b3a470281)">
     <use style="fill:#1f77b4;stroke:#1f77b4;" x="130.462993" xlink:href="#m3722058a86" y="190.503073"/>
     <use style="fill:#1f77b4;stroke:#1f77b4;" x="136.336678" xlink:href="#m3722058a86" y="190.503073"/>
     <use style="fill:#1f77b4;stroke:#1f77b4;" x="142.210362" xlink:href="#m3722058a86" y="190.503073"/>
     <use style="fill:#1f77b4;stroke:#1f77b4;" x="148.084046" xlink:href="#m3722058a86" y="190.503073"/>
     <use style="fill:#1f77b4;stroke:#1f77b4;" x="153.95773" xlink:href="#m3722058a86" y="190.503073"/>
     <use style="fill:#1f77b4;stroke:#1f77b4;" x="159.831414" xlink:href="#m3722058a86" y="190.503073"/>
     <use style="fill:#1f77b4;stroke:#1f77b4;" x="165.705099" xlink:href="#m3722058a86" y="190.503073"/>
     <use style="fill:#1f77b4;stroke:#1f77b4;" x="171.578783" xlink:href="#m3722058a86" y="190.503073"/>
     <use style="fill:#1f77b4;stroke:#1f77b4;" x="177.452467" xlink:href="#m3722058a86" y="186.596471"/>
     <use style="fill:#1f77b4;stroke:#1f77b4;" x="183.326151" xlink:href="#m3722058a86" y="186.596471"/>
     <use style="fill:#1f77b4;stroke:#1f77b4;" x="189.199836" xlink:href="#m3722058a86" y="186.596471"/>
     <use style="fill:#1f77b4;stroke:#1f77b4;" x="195.07352" xlink:href="#m3722058a86" y="186.596471"/>
     <use style="fill:#1f77b4;stroke:#1f77b4;" x="200.947204" xlink:href="#m3722058a86" y="184.39057"/>
     <use style="fill:#1f77b4;stroke:#1f77b4;" x="206.820888" xlink:href="#m3722058a86" y="182.019957"/>
     <use style="fill:#1f77b4;stroke:#1f77b4;" x="212.694572" xlink:href="#m3722058a86" y="180.535167"/>
     <use style="fill:#1f77b4;stroke:#1f77b4;" x="218.568257" xlink:href="#m3722058a86" y="175.775481"/>
     <use style="fill:#1f77b4;stroke:#1f77b4;" x="224.441941" xlink:href="#m3722058a86" y="174.925131"/>
     <use style="fill:#1f77b4;stroke:#1f77b4;" x="230.315625" xlink:href="#m3722058a86" y="172.075171"/>
     <use style="fill:#1f77b4;stroke:#1f77b4;" x="236.189309" xlink:href="#m3722058a86" y="166.401233"/>
     <use style="fill:#1f77b4;stroke:#1f77b4;" x="242.062993" xlink:href="#m3722058a86" y="163.344982"/>
     <use style="fill:#1f77b4;stroke:#1f77b4;" x="247.936678" xlink:href="#m3722058a86" y="159.666243"/>
     <use style="fill:#1f77b4;stroke:#1f77b4;" x="253.810362" xlink:href="#m3722058a86" y="157.090335"/>
     <use style="fill:#1f77b4;stroke:#1f77b4;" x="259.684046" xlink:href="#m3722058a86" y="154.059529"/>
     <use style="fill:#1f77b4;stroke:#1f77b4;" x="265.55773" xlink:href="#m3722058a86" y="152.531627"/>
     <use style="fill:#1f77b4;stroke:#1f77b4;" x="271.431414" xlink:href="#m3722058a86" y="150.655545"/>
     <use style="fill:#1f77b4;stroke:#1f77b4;" x="277.305099" xlink:href="#m3722058a86" y="148.709371"/>
     <use style="fill:#1f77b4;stroke:#1f77b4;" x="283.178783" xlink:href="#m3722058a86" y="146.065171"/>
     <use style="fill:#1f77b4;stroke:#1f77b4;" x="289.052467" xlink:href="#m3722058a86" y="142.856958"/>
     <use style="fill:#1f77b4;stroke:#1f77b4;" x="294.926151" xlink:href="#m3722058a86" y="139.067747"/>
     <use style="fill:#1f77b4;stroke:#1f77b4;" x="300.799836" xlink:href="#m3722058a86" y="136.953685"/>
     <use style="fill:#1f77b4;stroke:#1f77b4;" x="306.67352" xlink:href="#m3722058a86" y="135.851946"/>
     <use style="fill:#1f77b4;stroke:#1f77b4;" x="312.547204" xlink:href="#m3722058a86" y="133.364926"/>
     <use style="fill:#1f77b4;stroke:#1f77b4;" x="318.420888" xlink:href="#m3722058a86" y="130.202966"/>
     <use style="fill:#1f77b4;stroke:#1f77b4;" x="324.294572" xlink:href="#m3722058a86" y="127.876135"/>
     <use style="fill:#1f77b4;stroke:#1f77b4;" x="330.168257" xlink:href="#m3722058a86" y="125.777409"/>
     <use style="fill:#1f77b4;stroke:#1f77b4;" x="336.041941" xlink:href="#m3722058a86" y="123.323372"/>
     <use style="fill:#1f77b4;stroke:#1f77b4;" x="341.915625" xlink:href="#m3722058a86" y="122.001274"/>
     <use style="fill:#1f77b4;stroke:#1f77b4;" x="347.789309" xlink:href="#m3722058a86" y="120.33189"/>
     <use style="fill:#1f77b4;stroke:#1f77b4;" x="353.662993" xlink:href="#m3722058a86" y="118.266602"/>
     <use style="fill:#1f77b4;stroke:#1f77b4;" x="359.536678" xlink:href="#m3722058a86" y="116.510297"/>
     <use style="fill:#1f77b4;stroke:#1f77b4;" x="365.410362" xlink:href="#m3722058a86" y="114.367996"/>
     <use style="fill:#1f77b4;stroke:#1f77b4;" x="371.284046" xlink:href="#m3722058a86" y="112.018911"/>
     <use style="fill:#1f77b4;stroke:#1f77b4;" x="377.15773" xlink:href="#m3722058a86" y="110.305038"/>
     <use style="fill:#1f77b4;stroke:#1f77b4;" x="383.031414" xlink:href="#m3722058a86" y="108.890947"/>
     <use style="fill:#1f77b4;stroke:#1f77b4;" x="388.905099" xlink:href="#m3722058a86" y="107.553538"/>
     <use style="fill:#1f77b4;stroke:#1f77b4;" x="394.778783" xlink:href="#m3722058a86" y="106.199793"/>
     <use style="fill:#1f77b4;stroke:#1f77b4;" x="400.652467" xlink:href="#m3722058a86" y="104.514334"/>
     <use style="fill:#1f77b4;stroke:#1f77b4;" x="406.526151" xlink:href="#m3722058a86" y="103.085198"/>
    </g>
   </g>
   <g id="line2d_36">
    <path clip-path="url(#p2b3a470281)" d="M 130.462993 201.871642 
L 136.336678 201.871642 
L 142.210362 201.871642 
L 148.084046 201.871642 
L 153.95773 201.871642 
L 159.831414 201.871642 
L 165.705099 192.870194 
L 171.578783 192.870194 
L 177.452467 192.870194 
L 183.326151 188.46195 
L 189.199836 187.688975 
L 195.07352 187.14405 
L 200.947204 187.14405 
L 206.820888 186.625718 
L 212.694572 185.814353 
L 218.568257 184.773438 
L 224.441941 181.717186 
L 230.315625 179.431905 
L 236.189309 176.857636 
L 242.062993 173.292662 
L 247.936678 169.393458 
L 253.810362 166.098462 
L 259.684046 163.781715 
L 265.55773 160.983864 
L 271.431414 157.31912 
L 277.305099 154.459735 
L 283.178783 152.064653 
L 289.052467 148.961254 
L 294.926151 146.431246 
L 300.799836 143.60862 
L 306.67352 141.052046 
L 312.547204 137.627778 
L 318.420888 133.682473 
L 324.294572 129.387643 
L 330.168257 125.771067 
L 336.041941 123.407807 
L 341.915625 119.920404 
L 347.789309 117.106056 
L 353.662993 114.710285 
L 359.536678 112.395439 
L 365.410362 110.003511 
L 371.284046 107.901653 
L 377.15773 106.082121 
L 383.031414 104.494941 
L 388.905099 103.089418 
L 394.778783 101.594829 
L 400.652467 100.198928 
L 406.526151 98.81674 
" style="fill:none;stroke:#ff7f0e;stroke-linecap:square;stroke-width:1.5;"/>
    <defs>
     <path d="M 0 3 
C 0.795609 3 1.55874 2.683901 2.12132 2.12132 
C 2.683901 1.55874 3 0.795609 3 0 
C 3 -0.795609 2.683901 -1.55874 2.12132 -2.12132 
C 1.55874 -2.683901 0.795609 -3 0 -3 
C -0.795609 -3 -1.55874 -2.683901 -2.12132 -2.12132 
C -2.683901 -1.55874 -3 -0.795609 -3 0 
C -3 0.795609 -2.683901 1.55874 -2.12132 2.12132 
C -1.55874 2.683901 -0.795609 3 0 3 
z
" id="md5464862ec" style="stroke:#ff7f0e;"/>
    </defs>
    <g clip-path="url(#p2b3a470281)">
     <use style="fill:#ff7f0e;stroke:#ff7f0e;" x="130.462993" xlink:href="#md5464862ec" y="201.871642"/>
     <use style="fill:#ff7f0e;stroke:#ff7f0e;" x="136.336678" xlink:href="#md5464862ec" y="201.871642"/>
     <use style="fill:#ff7f0e;stroke:#ff7f0e;" x="142.210362" xlink:href="#md5464862ec" y="201.871642"/>
     <use style="fill:#ff7f0e;stroke:#ff7f0e;" x="148.084046" xlink:href="#md5464862ec" y="201.871642"/>
     <use style="fill:#ff7f0e;stroke:#ff7f0e;" x="153.95773" xlink:href="#md5464862ec" y="201.871642"/>
     <use style="fill:#ff7f0e;stroke:#ff7f0e;" x="159.831414" xlink:href="#md5464862ec" y="201.871642"/>
     <use style="fill:#ff7f0e;stroke:#ff7f0e;" x="165.705099" xlink:href="#md5464862ec" y="192.870194"/>
     <use style="fill:#ff7f0e;stroke:#ff7f0e;" x="171.578783" xlink:href="#md5464862ec" y="192.870194"/>
     <use style="fill:#ff7f0e;stroke:#ff7f0e;" x="177.452467" xlink:href="#md5464862ec" y="192.870194"/>
     <use style="fill:#ff7f0e;stroke:#ff7f0e;" x="183.326151" xlink:href="#md5464862ec" y="188.46195"/>
     <use style="fill:#ff7f0e;stroke:#ff7f0e;" x="189.199836" xlink:href="#md5464862ec" y="187.688975"/>
     <use style="fill:#ff7f0e;stroke:#ff7f0e;" x="195.07352" xlink:href="#md5464862ec" y="187.14405"/>
     <use style="fill:#ff7f0e;stroke:#ff7f0e;" x="200.947204" xlink:href="#md5464862ec" y="187.14405"/>
     <use style="fill:#ff7f0e;stroke:#ff7f0e;" x="206.820888" xlink:href="#md5464862ec" y="186.625718"/>
     <use style="fill:#ff7f0e;stroke:#ff7f0e;" x="212.694572" xlink:href="#md5464862ec" y="185.814353"/>
     <use style="fill:#ff7f0e;stroke:#ff7f0e;" x="218.568257" xlink:href="#md5464862ec" y="184.773438"/>
     <use style="fill:#ff7f0e;stroke:#ff7f0e;" x="224.441941" xlink:href="#md5464862ec" y="181.717186"/>
     <use style="fill:#ff7f0e;stroke:#ff7f0e;" x="230.315625" xlink:href="#md5464862ec" y="179.431905"/>
     <use style="fill:#ff7f0e;stroke:#ff7f0e;" x="236.189309" xlink:href="#md5464862ec" y="176.857636"/>
     <use style="fill:#ff7f0e;stroke:#ff7f0e;" x="242.062993" xlink:href="#md5464862ec" y="173.292662"/>
     <use style="fill:#ff7f0e;stroke:#ff7f0e;" x="247.936678" xlink:href="#md5464862ec" y="169.393458"/>
     <use style="fill:#ff7f0e;stroke:#ff7f0e;" x="253.810362" xlink:href="#md5464862ec" y="166.098462"/>
     <use style="fill:#ff7f0e;stroke:#ff7f0e;" x="259.684046" xlink:href="#md5464862ec" y="163.781715"/>
     <use style="fill:#ff7f0e;stroke:#ff7f0e;" x="265.55773" xlink:href="#md5464862ec" y="160.983864"/>
     <use style="fill:#ff7f0e;stroke:#ff7f0e;" x="271.431414" xlink:href="#md5464862ec" y="157.31912"/>
     <use style="fill:#ff7f0e;stroke:#ff7f0e;" x="277.305099" xlink:href="#md5464862ec" y="154.459735"/>
     <use style="fill:#ff7f0e;stroke:#ff7f0e;" x="283.178783" xlink:href="#md5464862ec" y="152.064653"/>
     <use style="fill:#ff7f0e;stroke:#ff7f0e;" x="289.052467" xlink:href="#md5464862ec" y="148.961254"/>
     <use style="fill:#ff7f0e;stroke:#ff7f0e;" x="294.926151" xlink:href="#md5464862ec" y="146.431246"/>
     <use style="fill:#ff7f0e;stroke:#ff7f0e;" x="300.799836" xlink:href="#md5464862ec" y="143.60862"/>
     <use style="fill:#ff7f0e;stroke:#ff7f0e;" x="306.67352" xlink:href="#md5464862ec" y="141.052046"/>
     <use style="fill:#ff7f0e;stroke:#ff7f0e;" x="312.547204" xlink:href="#md5464862ec" y="137.627778"/>
     <use style="fill:#ff7f0e;stroke:#ff7f0e;" x="318.420888" xlink:href="#md5464862ec" y="133.682473"/>
     <use style="fill:#ff7f0e;stroke:#ff7f0e;" x="324.294572" xlink:href="#md5464862ec" y="129.387643"/>
     <use style="fill:#ff7f0e;stroke:#ff7f0e;" x="330.168257" xlink:href="#md5464862ec" y="125.771067"/>
     <use style="fill:#ff7f0e;stroke:#ff7f0e;" x="336.041941" xlink:href="#md5464862ec" y="123.407807"/>
     <use style="fill:#ff7f0e;stroke:#ff7f0e;" x="341.915625" xlink:href="#md5464862ec" y="119.920404"/>
     <use style="fill:#ff7f0e;stroke:#ff7f0e;" x="347.789309" xlink:href="#md5464862ec" y="117.106056"/>
     <use style="fill:#ff7f0e;stroke:#ff7f0e;" x="353.662993" xlink:href="#md5464862ec" y="114.710285"/>
     <use style="fill:#ff7f0e;stroke:#ff7f0e;" x="359.536678" xlink:href="#md5464862ec" y="112.395439"/>
     <use style="fill:#ff7f0e;stroke:#ff7f0e;" x="365.410362" xlink:href="#md5464862ec" y="110.003511"/>
     <use style="fill:#ff7f0e;stroke:#ff7f0e;" x="371.284046" xlink:href="#md5464862ec" y="107.901653"/>
     <use style="fill:#ff7f0e;stroke:#ff7f0e;" x="377.15773" xlink:href="#md5464862ec" y="106.082121"/>
     <use style="fill:#ff7f0e;stroke:#ff7f0e;" x="383.031414" xlink:href="#md5464862ec" y="104.494941"/>
     <use style="fill:#ff7f0e;stroke:#ff7f0e;" x="388.905099" xlink:href="#md5464862ec" y="103.089418"/>
     <use style="fill:#ff7f0e;stroke:#ff7f0e;" x="394.778783" xlink:href="#md5464862ec" y="101.594829"/>
     <use style="fill:#ff7f0e;stroke:#ff7f0e;" x="400.652467" xlink:href="#md5464862ec" y="100.198928"/>
     <use style="fill:#ff7f0e;stroke:#ff7f0e;" x="406.526151" xlink:href="#md5464862ec" y="98.81674"/>
    </g>
   </g>
   <g id="line2d_37">
    <path clip-path="url(#p2b3a470281)" d="M 130.462993 200.971998 
L 136.336678 200.971998 
L 142.210362 200.971998 
L 148.084046 200.971998 
L 153.95773 200.971998 
L 159.831414 197.915746 
L 165.705099 180.29921 
L 171.578783 166.223584 
L 177.452467 158.927241 
L 183.326151 154.917042 
L 189.199836 151.263226 
L 195.07352 147.27848 
L 200.947204 143.752443 
L 206.820888 140.507303 
L 212.694572 137.977753 
L 218.568257 133.613849 
L 224.441941 131.704016 
L 230.315625 129.514434 
L 236.189309 127.275412 
L 242.062993 124.913745 
L 247.936678 122.962137 
L 253.810362 120.431411 
L 259.684046 118.030143 
L 265.55773 115.713542 
L 271.431414 114.638212 
L 277.305099 112.45707 
L 283.178783 110.408062 
L 289.052467 108.753451 
L 294.926151 106.83408 
L 300.799836 105.168989 
L 306.67352 103.864549 
L 312.547204 102.603642 
L 318.420888 101.2721 
L 324.294572 99.796354 
L 330.168257 98.349734 
L 336.041941 96.96287 
L 341.915625 95.913936 
L 347.789309 95.086688 
L 353.662993 94.248348 
L 359.536678 93.47692 
L 365.410362 92.62602 
L 371.284046 91.874296 
L 377.15773 91.164795 
L 383.031414 90.581733 
L 388.905099 90.15018 
L 394.778783 89.735173 
L 400.652467 89.265498 
L 406.526151 88.826215 
" style="fill:none;stroke:#2ca02c;stroke-linecap:square;stroke-width:1.5;"/>
    <defs>
     <path d="M 0 3 
C 0.795609 3 1.55874 2.683901 2.12132 2.12132 
C 2.683901 1.55874 3 0.795609 3 0 
C 3 -0.795609 2.683901 -1.55874 2.12132 -2.12132 
C 1.55874 -2.683901 0.795609 -3 0 -3 
C -0.795609 -3 -1.55874 -2.683901 -2.12132 -2.12132 
C -2.683901 -1.55874 -3 -0.795609 -3 0 
C -3 0.795609 -2.683901 1.55874 -2.12132 2.12132 
C -1.55874 2.683901 -0.795609 3 0 3 
z
" id="m212c691eb1" style="stroke:#2ca02c;"/>
    </defs>
    <g clip-path="url(#p2b3a470281)">
     <use style="fill:#2ca02c;stroke:#2ca02c;" x="130.462993" xlink:href="#m212c691eb1" y="200.971998"/>
     <use style="fill:#2ca02c;stroke:#2ca02c;" x="136.336678" xlink:href="#m212c691eb1" y="200.971998"/>
     <use style="fill:#2ca02c;stroke:#2ca02c;" x="142.210362" xlink:href="#m212c691eb1" y="200.971998"/>
     <use style="fill:#2ca02c;stroke:#2ca02c;" x="148.084046" xlink:href="#m212c691eb1" y="200.971998"/>
     <use style="fill:#2ca02c;stroke:#2ca02c;" x="153.95773" xlink:href="#m212c691eb1" y="200.971998"/>
     <use style="fill:#2ca02c;stroke:#2ca02c;" x="159.831414" xlink:href="#m212c691eb1" y="197.915746"/>
     <use style="fill:#2ca02c;stroke:#2ca02c;" x="165.705099" xlink:href="#m212c691eb1" y="180.29921"/>
     <use style="fill:#2ca02c;stroke:#2ca02c;" x="171.578783" xlink:href="#m212c691eb1" y="166.223584"/>
     <use style="fill:#2ca02c;stroke:#2ca02c;" x="177.452467" xlink:href="#m212c691eb1" y="158.927241"/>
     <use style="fill:#2ca02c;stroke:#2ca02c;" x="183.326151" xlink:href="#m212c691eb1" y="154.917042"/>
     <use style="fill:#2ca02c;stroke:#2ca02c;" x="189.199836" xlink:href="#m212c691eb1" y="151.263226"/>
     <use style="fill:#2ca02c;stroke:#2ca02c;" x="195.07352" xlink:href="#m212c691eb1" y="147.27848"/>
     <use style="fill:#2ca02c;stroke:#2ca02c;" x="200.947204" xlink:href="#m212c691eb1" y="143.752443"/>
     <use style="fill:#2ca02c;stroke:#2ca02c;" x="206.820888" xlink:href="#m212c691eb1" y="140.507303"/>
     <use style="fill:#2ca02c;stroke:#2ca02c;" x="212.694572" xlink:href="#m212c691eb1" y="137.977753"/>
     <use style="fill:#2ca02c;stroke:#2ca02c;" x="218.568257" xlink:href="#m212c691eb1" y="133.613849"/>
     <use style="fill:#2ca02c;stroke:#2ca02c;" x="224.441941" xlink:href="#m212c691eb1" y="131.704016"/>
     <use style="fill:#2ca02c;stroke:#2ca02c;" x="230.315625" xlink:href="#m212c691eb1" y="129.514434"/>
     <use style="fill:#2ca02c;stroke:#2ca02c;" x="236.189309" xlink:href="#m212c691eb1" y="127.275412"/>
     <use style="fill:#2ca02c;stroke:#2ca02c;" x="242.062993" xlink:href="#m212c691eb1" y="124.913745"/>
     <use style="fill:#2ca02c;stroke:#2ca02c;" x="247.936678" xlink:href="#m212c691eb1" y="122.962137"/>
     <use style="fill:#2ca02c;stroke:#2ca02c;" x="253.810362" xlink:href="#m212c691eb1" y="120.431411"/>
     <use style="fill:#2ca02c;stroke:#2ca02c;" x="259.684046" xlink:href="#m212c691eb1" y="118.030143"/>
     <use style="fill:#2ca02c;stroke:#2ca02c;" x="265.55773" xlink:href="#m212c691eb1" y="115.713542"/>
     <use style="fill:#2ca02c;stroke:#2ca02c;" x="271.431414" xlink:href="#m212c691eb1" y="114.638212"/>
     <use style="fill:#2ca02c;stroke:#2ca02c;" x="277.305099" xlink:href="#m212c691eb1" y="112.45707"/>
     <use style="fill:#2ca02c;stroke:#2ca02c;" x="283.178783" xlink:href="#m212c691eb1" y="110.408062"/>
     <use style="fill:#2ca02c;stroke:#2ca02c;" x="289.052467" xlink:href="#m212c691eb1" y="108.753451"/>
     <use style="fill:#2ca02c;stroke:#2ca02c;" x="294.926151" xlink:href="#m212c691eb1" y="106.83408"/>
     <use style="fill:#2ca02c;stroke:#2ca02c;" x="300.799836" xlink:href="#m212c691eb1" y="105.168989"/>
     <use style="fill:#2ca02c;stroke:#2ca02c;" x="306.67352" xlink:href="#m212c691eb1" y="103.864549"/>
     <use style="fill:#2ca02c;stroke:#2ca02c;" x="312.547204" xlink:href="#m212c691eb1" y="102.603642"/>
     <use style="fill:#2ca02c;stroke:#2ca02c;" x="318.420888" xlink:href="#m212c691eb1" y="101.2721"/>
     <use style="fill:#2ca02c;stroke:#2ca02c;" x="324.294572" xlink:href="#m212c691eb1" y="99.796354"/>
     <use style="fill:#2ca02c;stroke:#2ca02c;" x="330.168257" xlink:href="#m212c691eb1" y="98.349734"/>
     <use style="fill:#2ca02c;stroke:#2ca02c;" x="336.041941" xlink:href="#m212c691eb1" y="96.96287"/>
     <use style="fill:#2ca02c;stroke:#2ca02c;" x="341.915625" xlink:href="#m212c691eb1" y="95.913936"/>
     <use style="fill:#2ca02c;stroke:#2ca02c;" x="347.789309" xlink:href="#m212c691eb1" y="95.086688"/>
     <use style="fill:#2ca02c;stroke:#2ca02c;" x="353.662993" xlink:href="#m212c691eb1" y="94.248348"/>
     <use style="fill:#2ca02c;stroke:#2ca02c;" x="359.536678" xlink:href="#m212c691eb1" y="93.47692"/>
     <use style="fill:#2ca02c;stroke:#2ca02c;" x="365.410362" xlink:href="#m212c691eb1" y="92.62602"/>
     <use style="fill:#2ca02c;stroke:#2ca02c;" x="371.284046" xlink:href="#m212c691eb1" y="91.874296"/>
     <use style="fill:#2ca02c;stroke:#2ca02c;" x="377.15773" xlink:href="#m212c691eb1" y="91.164795"/>
     <use style="fill:#2ca02c;stroke:#2ca02c;" x="383.031414" xlink:href="#m212c691eb1" y="90.581733"/>
     <use style="fill:#2ca02c;stroke:#2ca02c;" x="388.905099" xlink:href="#m212c691eb1" y="90.15018"/>
     <use style="fill:#2ca02c;stroke:#2ca02c;" x="394.778783" xlink:href="#m212c691eb1" y="89.735173"/>
     <use style="fill:#2ca02c;stroke:#2ca02c;" x="400.652467" xlink:href="#m212c691eb1" y="89.265498"/>
     <use style="fill:#2ca02c;stroke:#2ca02c;" x="406.526151" xlink:href="#m212c691eb1" y="88.826215"/>
    </g>
   </g>
   <g id="line2d_38">
    <path clip-path="url(#p2b3a470281)" d="M 130.462993 175.60702 
L 136.336678 175.23422 
L 142.210362 174.87406 
L 148.084046 174.52571 
L 153.95773 167.870424 
L 159.831414 160.974709 
L 165.705099 154.251982 
L 171.578783 146.440282 
L 177.452467 143.012911 
L 183.326151 139.562582 
L 189.199836 137.868599 
L 195.07352 135.157708 
L 200.947204 131.579514 
L 206.820888 128.603271 
L 212.694572 125.431727 
L 218.568257 123.619183 
L 224.441941 122.039373 
L 230.315625 120.135167 
L 236.189309 119.27946 
L 242.062993 118.094947 
L 247.936678 117.58499 
L 253.810362 116.886569 
L 259.684046 116.483894 
L 265.55773 116.24686 
L 271.431414 116.197253 
L 277.305099 115.86045 
L 283.178783 115.705416 
L 289.052467 115.557937 
L 294.926151 115.416417 
L 300.799836 115.317032 
L 306.67352 115.221147 
L 312.547204 115.113343 
L 318.420888 114.995251 
L 324.294572 114.805023 
L 330.168257 114.697656 
L 336.041941 114.518672 
L 341.915625 114.401003 
L 347.789309 114.324856 
L 353.662993 114.235134 
L 359.536678 114.118222 
L 365.410362 113.997983 
L 371.284046 113.893878 
L 377.15773 113.728956 
L 383.031414 113.611911 
L 388.905099 113.52579 
L 394.778783 113.389215 
L 400.652467 113.280131 
L 406.526151 113.184928 
" style="fill:none;stroke:#d62728;stroke-linecap:square;stroke-width:1.5;"/>
    <defs>
     <path d="M 0 3 
C 0.795609 3 1.55874 2.683901 2.12132 2.12132 
C 2.683901 1.55874 3 0.795609 3 0 
C 3 -0.795609 2.683901 -1.55874 2.12132 -2.12132 
C 1.55874 -2.683901 0.795609 -3 0 -3 
C -0.795609 -3 -1.55874 -2.683901 -2.12132 -2.12132 
C -2.683901 -1.55874 -3 -0.795609 -3 0 
C -3 0.795609 -2.683901 1.55874 -2.12132 2.12132 
C -1.55874 2.683901 -0.795609 3 0 3 
z
" id="m5cf613c0cf" style="stroke:#d62728;"/>
    </defs>
    <g clip-path="url(#p2b3a470281)">
     <use style="fill:#d62728;stroke:#d62728;" x="130.462993" xlink:href="#m5cf613c0cf" y="175.60702"/>
     <use style="fill:#d62728;stroke:#d62728;" x="136.336678" xlink:href="#m5cf613c0cf" y="175.23422"/>
     <use style="fill:#d62728;stroke:#d62728;" x="142.210362" xlink:href="#m5cf613c0cf" y="174.87406"/>
     <use style="fill:#d62728;stroke:#d62728;" x="148.084046" xlink:href="#m5cf613c0cf" y="174.52571"/>
     <use style="fill:#d62728;stroke:#d62728;" x="153.95773" xlink:href="#m5cf613c0cf" y="167.870424"/>
     <use style="fill:#d62728;stroke:#d62728;" x="159.831414" xlink:href="#m5cf613c0cf" y="160.974709"/>
     <use style="fill:#d62728;stroke:#d62728;" x="165.705099" xlink:href="#m5cf613c0cf" y="154.251982"/>
     <use style="fill:#d62728;stroke:#d62728;" x="171.578783" xlink:href="#m5cf613c0cf" y="146.440282"/>
     <use style="fill:#d62728;stroke:#d62728;" x="177.452467" xlink:href="#m5cf613c0cf" y="143.012911"/>
     <use style="fill:#d62728;stroke:#d62728;" x="183.326151" xlink:href="#m5cf613c0cf" y="139.562582"/>
     <use style="fill:#d62728;stroke:#d62728;" x="189.199836" xlink:href="#m5cf613c0cf" y="137.868599"/>
     <use style="fill:#d62728;stroke:#d62728;" x="195.07352" xlink:href="#m5cf613c0cf" y="135.157708"/>
     <use style="fill:#d62728;stroke:#d62728;" x="200.947204" xlink:href="#m5cf613c0cf" y="131.579514"/>
     <use style="fill:#d62728;stroke:#d62728;" x="206.820888" xlink:href="#m5cf613c0cf" y="128.603271"/>
     <use style="fill:#d62728;stroke:#d62728;" x="212.694572" xlink:href="#m5cf613c0cf" y="125.431727"/>
     <use style="fill:#d62728;stroke:#d62728;" x="218.568257" xlink:href="#m5cf613c0cf" y="123.619183"/>
     <use style="fill:#d62728;stroke:#d62728;" x="224.441941" xlink:href="#m5cf613c0cf" y="122.039373"/>
     <use style="fill:#d62728;stroke:#d62728;" x="230.315625" xlink:href="#m5cf613c0cf" y="120.135167"/>
     <use style="fill:#d62728;stroke:#d62728;" x="236.189309" xlink:href="#m5cf613c0cf" y="119.27946"/>
     <use style="fill:#d62728;stroke:#d62728;" x="242.062993" xlink:href="#m5cf613c0cf" y="118.094947"/>
     <use style="fill:#d62728;stroke:#d62728;" x="247.936678" xlink:href="#m5cf613c0cf" y="117.58499"/>
     <use style="fill:#d62728;stroke:#d62728;" x="253.810362" xlink:href="#m5cf613c0cf" y="116.886569"/>
     <use style="fill:#d62728;stroke:#d62728;" x="259.684046" xlink:href="#m5cf613c0cf" y="116.483894"/>
     <use style="fill:#d62728;stroke:#d62728;" x="265.55773" xlink:href="#m5cf613c0cf" y="116.24686"/>
     <use style="fill:#d62728;stroke:#d62728;" x="271.431414" xlink:href="#m5cf613c0cf" y="116.197253"/>
     <use style="fill:#d62728;stroke:#d62728;" x="277.305099" xlink:href="#m5cf613c0cf" y="115.86045"/>
     <use style="fill:#d62728;stroke:#d62728;" x="283.178783" xlink:href="#m5cf613c0cf" y="115.705416"/>
     <use style="fill:#d62728;stroke:#d62728;" x="289.052467" xlink:href="#m5cf613c0cf" y="115.557937"/>
     <use style="fill:#d62728;stroke:#d62728;" x="294.926151" xlink:href="#m5cf613c0cf" y="115.416417"/>
     <use style="fill:#d62728;stroke:#d62728;" x="300.799836" xlink:href="#m5cf613c0cf" y="115.317032"/>
     <use style="fill:#d62728;stroke:#d62728;" x="306.67352" xlink:href="#m5cf613c0cf" y="115.221147"/>
     <use style="fill:#d62728;stroke:#d62728;" x="312.547204" xlink:href="#m5cf613c0cf" y="115.113343"/>
     <use style="fill:#d62728;stroke:#d62728;" x="318.420888" xlink:href="#m5cf613c0cf" y="114.995251"/>
     <use style="fill:#d62728;stroke:#d62728;" x="324.294572" xlink:href="#m5cf613c0cf" y="114.805023"/>
     <use style="fill:#d62728;stroke:#d62728;" x="330.168257" xlink:href="#m5cf613c0cf" y="114.697656"/>
     <use style="fill:#d62728;stroke:#d62728;" x="336.041941" xlink:href="#m5cf613c0cf" y="114.518672"/>
     <use style="fill:#d62728;stroke:#d62728;" x="341.915625" xlink:href="#m5cf613c0cf" y="114.401003"/>
     <use style="fill:#d62728;stroke:#d62728;" x="347.789309" xlink:href="#m5cf613c0cf" y="114.324856"/>
     <use style="fill:#d62728;stroke:#d62728;" x="353.662993" xlink:href="#m5cf613c0cf" y="114.235134"/>
     <use style="fill:#d62728;stroke:#d62728;" x="359.536678" xlink:href="#m5cf613c0cf" y="114.118222"/>
     <use style="fill:#d62728;stroke:#d62728;" x="365.410362" xlink:href="#m5cf613c0cf" y="113.997983"/>
     <use style="fill:#d62728;stroke:#d62728;" x="371.284046" xlink:href="#m5cf613c0cf" y="113.893878"/>
     <use style="fill:#d62728;stroke:#d62728;" x="377.15773" xlink:href="#m5cf613c0cf" y="113.728956"/>
     <use style="fill:#d62728;stroke:#d62728;" x="383.031414" xlink:href="#m5cf613c0cf" y="113.611911"/>
     <use style="fill:#d62728;stroke:#d62728;" x="388.905099" xlink:href="#m5cf613c0cf" y="113.52579"/>
     <use style="fill:#d62728;stroke:#d62728;" x="394.778783" xlink:href="#m5cf613c0cf" y="113.389215"/>
     <use style="fill:#d62728;stroke:#d62728;" x="400.652467" xlink:href="#m5cf613c0cf" y="113.280131"/>
     <use style="fill:#d62728;stroke:#d62728;" x="406.526151" xlink:href="#m5cf613c0cf" y="113.184928"/>
    </g>
   </g>
   <g id="line2d_39">
    <path clip-path="url(#p2b3a470281)" d="M 212.694572 187.685711 
L 218.568257 184.617463 
L 224.441941 181.549214 
L 230.315625 178.480966 
L 236.189309 175.412718 
L 242.062993 172.34447 
L 247.936678 169.276222 
L 253.810362 166.207973 
L 259.684046 163.139725 
L 265.55773 160.071477 
L 271.431414 157.003229 
L 277.305099 153.93498 
L 283.178783 150.866732 
L 289.052467 147.798484 
L 294.926151 144.730236 
L 300.799836 141.661987 
L 306.67352 138.593739 
L 312.547204 135.525491 
L 318.420888 132.457243 
L 324.294572 129.388995 
L 330.168257 126.320746 
L 336.041941 123.252498 
L 341.915625 120.18425 
L 347.789309 117.116002 
L 353.662993 114.047753 
L 359.536678 110.979505 
L 365.410362 107.911257 
L 371.284046 104.843009 
L 377.15773 101.77476 
L 383.031414 98.706512 
L 388.905099 95.638264 
L 394.778783 92.570016 
L 400.652467 89.501768 
L 406.526151 86.433519 
L 412.399836 83.365271 
L 418.27352 80.297023 
" style="fill:none;stroke:#ff7f0e;stroke-dasharray:9.6,2.4,1.5,2.4;stroke-dashoffset:0;stroke-width:1.5;"/>
   </g>
   <g id="line2d_40">
    <path clip-path="url(#p2b3a470281)" d="M 116.072467 85.801083 
L 432.664046 85.801083 
" style="fill:none;stroke:#1f77b4;stroke-dasharray:5.55,2.4;stroke-dashoffset:0;stroke-width:1.5;"/>
   </g>
   <g id="line2d_41">
    <path clip-path="url(#p2b3a470281)" d="M 116.072467 84.880185 
L 432.664046 84.880185 
" style="fill:none;stroke:#ff7f0e;stroke-dasharray:5.55,2.4;stroke-dashoffset:0;stroke-width:1.5;"/>
   </g>
   <g id="line2d_42">
    <path clip-path="url(#p2b3a470281)" d="M 116.072467 83.413753 
L 432.664046 83.413753 
" style="fill:none;stroke:#2ca02c;stroke-dasharray:5.55,2.4;stroke-dashoffset:0;stroke-width:1.5;"/>
   </g>
   <g id="line2d_43">
    <path clip-path="url(#p2b3a470281)" d="M 116.072467 69.068809 
L 432.664046 69.068809 
" style="fill:none;stroke:#d62728;stroke-dasharray:5.55,2.4;stroke-dashoffset:0;stroke-width:1.5;"/>
   </g>
   <g id="patch_3">
    <path d="M 118.715625 218.014125 
L 118.715625 22.318125 
" style="fill:none;stroke:#000000;stroke-linecap:square;stroke-linejoin:miter;stroke-width:0.8;"/>
   </g>
   <g id="patch_4">
    <path d="M 453.515625 218.014125 
L 453.515625 22.318125 
" style="fill:none;stroke:#000000;stroke-linecap:square;stroke-linejoin:miter;stroke-width:0.8;"/>
   </g>
   <g id="patch_5">
    <path d="M 118.715625 218.014125 
L 453.515625 218.014125 
" style="fill:none;stroke:#000000;stroke-linecap:square;stroke-linejoin:miter;stroke-width:0.8;"/>
   </g>
   <g id="patch_6">
    <path d="M 118.715625 22.318125 
L 453.515625 22.318125 
" style="fill:none;stroke:#000000;stroke-linecap:square;stroke-linejoin:miter;stroke-width:0.8;"/>
   </g>
   <g id="text_19">
    <!--  Scott Sievert -->
    <defs>
     <path d="M 50 72.515625 
Q 57.421875 72.515625 63.84375 69.828125 
Q 70.265625 67.140625 75.59375 61.8125 
Q 80.90625 56.5 83.546875 50.09375 
Q 86.1875 43.703125 86.1875 36.1875 
Q 86.1875 28.765625 83.546875 22.390625 
Q 80.90625 16.015625 75.59375 10.6875 
Q 70.265625 5.375 63.84375 2.6875 
Q 57.421875 0 50 0 
Q 42.578125 0 36.15625 2.6875 
Q 29.734375 5.375 24.421875 10.6875 
Q 19.09375 16.015625 16.453125 22.390625 
Q 13.8125 28.765625 13.8125 36.1875 
Q 13.8125 43.703125 16.453125 50.09375 
Q 19.09375 56.5 24.421875 61.8125 
Q 29.734375 67.140625 36.15625 69.828125 
Q 42.578125 72.515625 50 72.515625 
z
M 50 67.484375 
Q 43.609375 67.484375 38.078125 65.1875 
Q 32.5625 62.890625 27.984375 58.296875 
Q 23.390625 53.71875 21.046875 48.125 
Q 18.703125 42.53125 18.703125 36.1875 
Q 18.703125 29.890625 21.046875 24.34375 
Q 23.390625 18.796875 27.984375 14.203125 
Q 32.5625 9.625 38.078125 7.296875 
Q 43.609375 4.984375 50 4.984375 
Q 56.453125 4.984375 61.984375 7.296875 
Q 67.53125 9.625 72.125 14.203125 
Q 76.65625 18.75 78.921875 24.265625 
Q 81.203125 29.78125 81.203125 36.1875 
Q 81.203125 42.671875 78.90625 48.21875 
Q 76.609375 53.765625 72.125 58.296875 
Q 67.53125 62.890625 61.984375 65.1875 
Q 56.453125 67.484375 50 67.484375 
z
M 64.59375 55.515625 
L 64.59375 49.21875 
Q 61.375 50.828125 58.203125 51.609375 
Q 55.03125 52.390625 51.8125 52.390625 
Q 44.53125 52.390625 40.453125 48.109375 
Q 36.375 43.84375 36.375 36.1875 
Q 36.375 28.421875 40.546875 24.171875 
Q 44.734375 19.921875 52.296875 19.921875 
Q 55.421875 19.921875 58.390625 20.671875 
Q 61.375 21.4375 64.59375 23.09375 
L 64.59375 16.890625 
Q 61.328125 15.484375 57.984375 14.796875 
Q 54.640625 14.109375 51.21875 14.109375 
Q 40.671875 14.109375 34.546875 20.0625 
Q 28.421875 26.03125 28.421875 36.1875 
Q 28.421875 46.390625 34.546875 52.296875 
Q 40.671875 58.203125 51.21875 58.203125 
Q 54.78125 58.203125 58.09375 57.515625 
Q 61.421875 56.84375 64.59375 55.515625 
z
" id="DejaVuSans-169"/>
     <path d="M 53.515625 70.515625 
L 53.515625 60.890625 
Q 47.90625 63.578125 42.921875 64.890625 
Q 37.9375 66.21875 33.296875 66.21875 
Q 25.25 66.21875 20.875 63.09375 
Q 16.5 59.96875 16.5 54.203125 
Q 16.5 49.359375 19.40625 46.890625 
Q 22.3125 44.4375 30.421875 42.921875 
L 36.375 41.703125 
Q 47.40625 39.59375 52.65625 34.296875 
Q 57.90625 29 57.90625 20.125 
Q 57.90625 9.515625 50.796875 4.046875 
Q 43.703125 -1.421875 29.984375 -1.421875 
Q 24.8125 -1.421875 18.96875 -0.25 
Q 13.140625 0.921875 6.890625 3.21875 
L 6.890625 13.375 
Q 12.890625 10.015625 18.65625 8.296875 
Q 24.421875 6.59375 29.984375 6.59375 
Q 38.421875 6.59375 43.015625 9.90625 
Q 47.609375 13.234375 47.609375 19.390625 
Q 47.609375 24.75 44.3125 27.78125 
Q 41.015625 30.8125 33.5 32.328125 
L 27.484375 33.5 
Q 16.453125 35.6875 11.515625 40.375 
Q 6.59375 45.0625 6.59375 53.421875 
Q 6.59375 63.09375 13.40625 68.65625 
Q 20.21875 74.21875 32.171875 74.21875 
Q 37.3125 74.21875 42.625 73.28125 
Q 47.953125 72.359375 53.515625 70.515625 
z
" id="DejaVuSans-83"/>
     <path d="M 2.984375 54.6875 
L 12.5 54.6875 
L 29.59375 8.796875 
L 46.6875 54.6875 
L 56.203125 54.6875 
L 35.6875 0 
L 23.484375 0 
z
" id="DejaVuSans-118"/>
    </defs>
    <g style="fill:#888888;" transform="translate(383.031414 259.574329)scale(0.1 -0.1)">
     <use xlink:href="#DejaVuSans-169"/>
     <use x="100" xlink:href="#DejaVuSans-32"/>
     <use x="131.787109" xlink:href="#DejaVuSans-83"/>
     <use x="195.263672" xlink:href="#DejaVuSans-99"/>
     <use x="250.244141" xlink:href="#DejaVuSans-111"/>
     <use x="311.425781" xlink:href="#DejaVuSans-116"/>
     <use x="350.634766" xlink:href="#DejaVuSans-116"/>
     <use x="389.84375" xlink:href="#DejaVuSans-32"/>
     <use x="421.630859" xlink:href="#DejaVuSans-83"/>
     <use x="485.107422" xlink:href="#DejaVuSans-105"/>
     <use x="512.890625" xlink:href="#DejaVuSans-101"/>
     <use x="574.414062" xlink:href="#DejaVuSans-118"/>
     <use x="633.59375" xlink:href="#DejaVuSans-101"/>
     <use x="695.117188" xlink:href="#DejaVuSans-114"/>
     <use x="736.230469" xlink:href="#DejaVuSans-116"/>
    </g>
   </g>
   <g id="text_20">
    <!-- Total COVID-19 infections -->
    <defs>
     <path d="M -0.296875 72.90625 
L 61.375 72.90625 
L 61.375 64.59375 
L 35.5 64.59375 
L 35.5 0 
L 25.59375 0 
L 25.59375 64.59375 
L -0.296875 64.59375 
z
" id="DejaVuSans-84"/>
     <path d="M 64.40625 67.28125 
L 64.40625 56.890625 
Q 59.421875 61.53125 53.78125 63.8125 
Q 48.140625 66.109375 41.796875 66.109375 
Q 29.296875 66.109375 22.65625 58.46875 
Q 16.015625 50.828125 16.015625 36.375 
Q 16.015625 21.96875 22.65625 14.328125 
Q 29.296875 6.6875 41.796875 6.6875 
Q 48.140625 6.6875 53.78125 8.984375 
Q 59.421875 11.28125 64.40625 15.921875 
L 64.40625 5.609375 
Q 59.234375 2.09375 53.4375 0.328125 
Q 47.65625 -1.421875 41.21875 -1.421875 
Q 24.65625 -1.421875 15.125 8.703125 
Q 5.609375 18.84375 5.609375 36.375 
Q 5.609375 53.953125 15.125 64.078125 
Q 24.65625 74.21875 41.21875 74.21875 
Q 47.75 74.21875 53.53125 72.484375 
Q 59.328125 70.75 64.40625 67.28125 
z
" id="DejaVuSans-67"/>
     <path d="M 39.40625 66.21875 
Q 28.65625 66.21875 22.328125 58.203125 
Q 16.015625 50.203125 16.015625 36.375 
Q 16.015625 22.609375 22.328125 14.59375 
Q 28.65625 6.59375 39.40625 6.59375 
Q 50.140625 6.59375 56.421875 14.59375 
Q 62.703125 22.609375 62.703125 36.375 
Q 62.703125 50.203125 56.421875 58.203125 
Q 50.140625 66.21875 39.40625 66.21875 
z
M 39.40625 74.21875 
Q 54.734375 74.21875 63.90625 63.9375 
Q 73.09375 53.65625 73.09375 36.375 
Q 73.09375 19.140625 63.90625 8.859375 
Q 54.734375 -1.421875 39.40625 -1.421875 
Q 24.03125 -1.421875 14.8125 8.828125 
Q 5.609375 19.09375 5.609375 36.375 
Q 5.609375 53.65625 14.8125 63.9375 
Q 24.03125 74.21875 39.40625 74.21875 
z
" id="DejaVuSans-79"/>
     <path d="M 28.609375 0 
L 0.78125 72.90625 
L 11.078125 72.90625 
L 34.1875 11.53125 
L 57.328125 72.90625 
L 67.578125 72.90625 
L 39.796875 0 
z
" id="DejaVuSans-86"/>
     <path d="M 9.8125 72.90625 
L 19.671875 72.90625 
L 19.671875 0 
L 9.8125 0 
z
" id="DejaVuSans-73"/>
     <path d="M 19.671875 64.796875 
L 19.671875 8.109375 
L 31.59375 8.109375 
Q 46.6875 8.109375 53.6875 14.9375 
Q 60.6875 21.78125 60.6875 36.53125 
Q 60.6875 51.171875 53.6875 57.984375 
Q 46.6875 64.796875 31.59375 64.796875 
z
M 9.8125 72.90625 
L 30.078125 72.90625 
Q 51.265625 72.90625 61.171875 64.09375 
Q 71.09375 55.28125 71.09375 36.53125 
Q 71.09375 17.671875 61.125 8.828125 
Q 51.171875 0 30.078125 0 
L 9.8125 0 
z
" id="DejaVuSans-68"/>
     <path d="M 4.890625 31.390625 
L 31.203125 31.390625 
L 31.203125 23.390625 
L 4.890625 23.390625 
z
" id="DejaVuSans-45"/>
    </defs>
    <g transform="translate(208.889063 16.318125)scale(0.12 -0.12)">
     <use xlink:href="#DejaVuSans-84"/>
     <use x="60.818359" xlink:href="#DejaVuSans-111"/>
     <use x="122" xlink:href="#DejaVuSans-116"/>
     <use x="161.208984" xlink:href="#DejaVuSans-97"/>
     <use x="222.488281" xlink:href="#DejaVuSans-108"/>
     <use x="250.271484" xlink:href="#DejaVuSans-32"/>
     <use x="282.058594" xlink:href="#DejaVuSans-67"/>
     <use x="351.882812" xlink:href="#DejaVuSans-79"/>
     <use x="430.578125" xlink:href="#DejaVuSans-86"/>
     <use x="498.986328" xlink:href="#DejaVuSans-73"/>
     <use x="528.478516" xlink:href="#DejaVuSans-68"/>
     <use x="605.480469" xlink:href="#DejaVuSans-45"/>
     <use x="641.564453" xlink:href="#DejaVuSans-49"/>
     <use x="705.1875" xlink:href="#DejaVuSans-57"/>
     <use x="768.810547" xlink:href="#DejaVuSans-32"/>
     <use x="800.597656" xlink:href="#DejaVuSans-105"/>
     <use x="828.380859" xlink:href="#DejaVuSans-110"/>
     <use x="891.759766" xlink:href="#DejaVuSans-102"/>
     <use x="926.964844" xlink:href="#DejaVuSans-101"/>
     <use x="988.488281" xlink:href="#DejaVuSans-99"/>
     <use x="1043.46875" xlink:href="#DejaVuSans-116"/>
     <use x="1082.677734" xlink:href="#DejaVuSans-105"/>
     <use x="1110.460938" xlink:href="#DejaVuSans-111"/>
     <use x="1171.642578" xlink:href="#DejaVuSans-110"/>
     <use x="1235.021484" xlink:href="#DejaVuSans-115"/>
    </g>
   </g>
   <g id="legend_1">
    <g id="patch_7">
     <path d="M 353.217188 213.014125 
L 446.515625 213.014125 
Q 448.515625 213.014125 448.515625 211.014125 
L 448.515625 138.6235 
Q 448.515625 136.6235 446.515625 136.6235 
L 353.217188 136.6235 
Q 351.217188 136.6235 351.217188 138.6235 
L 351.217188 211.014125 
Q 351.217188 213.014125 353.217188 213.014125 
z
" style="fill:#ffffff;opacity:0.8;stroke:#cccccc;stroke-linejoin:miter;"/>
    </g>
    <g id="text_21">
     <!-- Country -->
     <defs>
      <path d="M 32.171875 -5.078125 
Q 28.375 -14.84375 24.75 -17.8125 
Q 21.140625 -20.796875 15.09375 -20.796875 
L 7.90625 -20.796875 
L 7.90625 -13.28125 
L 13.1875 -13.28125 
Q 16.890625 -13.28125 18.9375 -11.515625 
Q 21 -9.765625 23.484375 -3.21875 
L 25.09375 0.875 
L 2.984375 54.6875 
L 12.5 54.6875 
L 29.59375 11.921875 
L 46.6875 54.6875 
L 56.203125 54.6875 
z
" id="DejaVuSans-121"/>
     </defs>
     <g transform="translate(380.003125 148.221937)scale(0.1 -0.1)">
      <use xlink:href="#DejaVuSans-67"/>
      <use x="69.824219" xlink:href="#DejaVuSans-111"/>
      <use x="131.005859" xlink:href="#DejaVuSans-117"/>
      <use x="194.384766" xlink:href="#DejaVuSans-110"/>
      <use x="257.763672" xlink:href="#DejaVuSans-116"/>
      <use x="296.972656" xlink:href="#DejaVuSans-114"/>
      <use x="338.085938" xlink:href="#DejaVuSans-121"/>
     </g>
    </g>
    <g id="line2d_44">
     <path d="M 355.217188 159.400062 
L 375.217188 159.400062 
" style="fill:none;stroke:#1f77b4;stroke-linecap:square;stroke-width:1.5;"/>
    </g>
    <g id="line2d_45">
     <g>
      <use style="fill:#1f77b4;stroke:#1f77b4;" x="365.217188" xlink:href="#m3722058a86" y="159.400062"/>
     </g>
    </g>
    <g id="text_22">
     <!-- UK -->
     <defs>
      <path d="M 8.6875 72.90625 
L 18.609375 72.90625 
L 18.609375 28.609375 
Q 18.609375 16.890625 22.84375 11.734375 
Q 27.09375 6.59375 36.625 6.59375 
Q 46.09375 6.59375 50.34375 11.734375 
Q 54.59375 16.890625 54.59375 28.609375 
L 54.59375 72.90625 
L 64.5 72.90625 
L 64.5 27.390625 
Q 64.5 13.140625 57.4375 5.859375 
Q 50.390625 -1.421875 36.625 -1.421875 
Q 22.796875 -1.421875 15.734375 5.859375 
Q 8.6875 13.140625 8.6875 27.390625 
z
" id="DejaVuSans-85"/>
      <path d="M 9.8125 72.90625 
L 19.671875 72.90625 
L 19.671875 42.09375 
L 52.390625 72.90625 
L 65.09375 72.90625 
L 28.90625 38.921875 
L 67.671875 0 
L 54.6875 0 
L 19.671875 35.109375 
L 19.671875 0 
L 9.8125 0 
z
" id="DejaVuSans-75"/>
     </defs>
     <g transform="translate(383.217188 162.900062)scale(0.1 -0.1)">
      <use xlink:href="#DejaVuSans-85"/>
      <use x="73.193359" xlink:href="#DejaVuSans-75"/>
     </g>
    </g>
    <g id="line2d_46">
     <path d="M 355.217188 174.078187 
L 375.217188 174.078187 
" style="fill:none;stroke:#ff7f0e;stroke-linecap:square;stroke-width:1.5;"/>
    </g>
    <g id="line2d_47">
     <g>
      <use style="fill:#ff7f0e;stroke:#ff7f0e;" x="365.217188" xlink:href="#md5464862ec" y="174.078187"/>
     </g>
    </g>
    <g id="text_23">
     <!-- US -->
     <g transform="translate(383.217188 177.578187)scale(0.1 -0.1)">
      <use xlink:href="#DejaVuSans-85"/>
      <use x="73.193359" xlink:href="#DejaVuSans-83"/>
     </g>
    </g>
    <g id="line2d_48">
     <path d="M 355.217188 188.756312 
L 375.217188 188.756312 
" style="fill:none;stroke:#2ca02c;stroke-linecap:square;stroke-width:1.5;"/>
    </g>
    <g id="line2d_49">
     <g>
      <use style="fill:#2ca02c;stroke:#2ca02c;" x="365.217188" xlink:href="#m212c691eb1" y="188.756312"/>
     </g>
    </g>
    <g id="text_24">
     <!-- Italy -->
     <g transform="translate(383.217188 192.256312)scale(0.1 -0.1)">
      <use xlink:href="#DejaVuSans-73"/>
      <use x="29.492188" xlink:href="#DejaVuSans-116"/>
      <use x="68.701172" xlink:href="#DejaVuSans-97"/>
      <use x="129.980469" xlink:href="#DejaVuSans-108"/>
      <use x="157.763672" xlink:href="#DejaVuSans-121"/>
     </g>
    </g>
    <g id="line2d_50">
     <path d="M 355.217188 203.434438 
L 375.217188 203.434438 
" style="fill:none;stroke:#d62728;stroke-linecap:square;stroke-width:1.5;"/>
    </g>
    <g id="line2d_51">
     <g>
      <use style="fill:#d62728;stroke:#d62728;" x="365.217188" xlink:href="#m5cf613c0cf" y="203.434438"/>
     </g>
    </g>
    <g id="text_25">
     <!-- South Korea -->
     <g transform="translate(383.217188 206.934438)scale(0.1 -0.1)">
      <use xlink:href="#DejaVuSans-83"/>
      <use x="63.476562" xlink:href="#DejaVuSans-111"/>
      <use x="124.658203" xlink:href="#DejaVuSans-117"/>
      <use x="188.037109" xlink:href="#DejaVuSans-116"/>
      <use x="227.246094" xlink:href="#DejaVuSans-104"/>
      <use x="290.625" xlink:href="#DejaVuSans-32"/>
      <use x="322.412109" xlink:href="#DejaVuSans-75"/>
      <use x="387.910156" xlink:href="#DejaVuSans-111"/>
      <use x="449.091797" xlink:href="#DejaVuSans-114"/>
      <use x="490.173828" xlink:href="#DejaVuSans-101"/>
      <use x="551.697266" xlink:href="#DejaVuSans-97"/>
     </g>
    </g>
   </g>
   <g id="legend_2">
    <g id="patch_8">
     <path d="M 125.715625 59.69625 
L 288.123438 59.69625 
Q 290.123438 59.69625 290.123438 57.69625 
L 290.123438 29.318125 
Q 290.123438 27.318125 288.123438 27.318125 
L 125.715625 27.318125 
Q 123.715625 27.318125 123.715625 29.318125 
L 123.715625 57.69625 
Q 123.715625 59.69625 125.715625 59.69625 
z
" style="fill:#ffffff;opacity:0.8;stroke:#cccccc;stroke-linejoin:miter;"/>
    </g>
    <g id="line2d_52">
     <path d="M 127.715625 35.418125 
L 147.715625 35.418125 
" style="fill:none;stroke:#ff7f0e;stroke-dasharray:9.6,2.4,1.5,2.4;stroke-dashoffset:0;stroke-width:1.5;"/>
    </g>
    <g id="line2d_53"/>
    <g id="text_26">
     <!-- 2$\times$ every 2.4 days -->
     <defs>
      <path d="M 70.125 53.71875 
L 47.796875 31.296875 
L 70.125 8.984375 
L 64.3125 3.078125 
L 41.890625 25.484375 
L 19.484375 3.078125 
L 13.71875 8.984375 
L 35.984375 31.296875 
L 13.71875 53.71875 
L 19.484375 59.625 
L 41.890625 37.203125 
L 64.3125 59.625 
z
" id="DejaVuSans-215"/>
      <path d="M 37.796875 64.3125 
L 12.890625 25.390625 
L 37.796875 25.390625 
z
M 35.203125 72.90625 
L 47.609375 72.90625 
L 47.609375 25.390625 
L 58.015625 25.390625 
L 58.015625 17.1875 
L 47.609375 17.1875 
L 47.609375 0 
L 37.796875 0 
L 37.796875 17.1875 
L 4.890625 17.1875 
L 4.890625 26.703125 
z
" id="DejaVuSans-52"/>
     </defs>
     <g transform="translate(155.715625 38.918125)scale(0.1 -0.1)">
      <use transform="translate(0 0.015625)" xlink:href="#DejaVuSans-50"/>
      <use transform="translate(63.623047 0.015625)" xlink:href="#DejaVuSans-215"/>
      <use transform="translate(147.412109 0.015625)" xlink:href="#DejaVuSans-32"/>
      <use transform="translate(179.199219 0.015625)" xlink:href="#DejaVuSans-101"/>
      <use transform="translate(240.722656 0.015625)" xlink:href="#DejaVuSans-118"/>
      <use transform="translate(299.902344 0.015625)" xlink:href="#DejaVuSans-101"/>
      <use transform="translate(361.425781 0.015625)" xlink:href="#DejaVuSans-114"/>
      <use transform="translate(402.539062 0.015625)" xlink:href="#DejaVuSans-121"/>
      <use transform="translate(461.71875 0.015625)" xlink:href="#DejaVuSans-32"/>
      <use transform="translate(493.505859 0.015625)" xlink:href="#DejaVuSans-50"/>
      <use transform="translate(557.128906 0.015625)" xlink:href="#DejaVuSans-46"/>
      <use transform="translate(588.916016 0.015625)" xlink:href="#DejaVuSans-52"/>
      <use transform="translate(652.539062 0.015625)" xlink:href="#DejaVuSans-32"/>
      <use transform="translate(684.326172 0.015625)" xlink:href="#DejaVuSans-100"/>
      <use transform="translate(747.802734 0.015625)" xlink:href="#DejaVuSans-97"/>
      <use transform="translate(809.082031 0.015625)" xlink:href="#DejaVuSans-121"/>
      <use transform="translate(868.261719 0.015625)" xlink:href="#DejaVuSans-115"/>
     </g>
    </g>
    <g id="line2d_54">
     <path d="M 127.715625 50.116562 
L 147.715625 50.116562 
" style="fill:none;stroke:#d62728;stroke-dasharray:5.55,2.4;stroke-dashoffset:0;stroke-width:1.5;"/>
    </g>
    <g id="line2d_55"/>
    <g id="text_27">
     <!-- Hospital beds (all dashed) -->
     <defs>
      <path d="M 9.8125 72.90625 
L 19.671875 72.90625 
L 19.671875 43.015625 
L 55.515625 43.015625 
L 55.515625 72.90625 
L 65.375 72.90625 
L 65.375 0 
L 55.515625 0 
L 55.515625 34.71875 
L 19.671875 34.71875 
L 19.671875 0 
L 9.8125 0 
z
" id="DejaVuSans-72"/>
      <path d="M 31 75.875 
Q 24.46875 64.65625 21.28125 53.65625 
Q 18.109375 42.671875 18.109375 31.390625 
Q 18.109375 20.125 21.3125 9.0625 
Q 24.515625 -2 31 -13.1875 
L 23.1875 -13.1875 
Q 15.875 -1.703125 12.234375 9.375 
Q 8.59375 20.453125 8.59375 31.390625 
Q 8.59375 42.28125 12.203125 53.3125 
Q 15.828125 64.359375 23.1875 75.875 
z
" id="DejaVuSans-40"/>
      <path d="M 8.015625 75.875 
L 15.828125 75.875 
Q 23.140625 64.359375 26.78125 53.3125 
Q 30.421875 42.28125 30.421875 31.390625 
Q 30.421875 20.453125 26.78125 9.375 
Q 23.140625 -1.703125 15.828125 -13.1875 
L 8.015625 -13.1875 
Q 14.5 -2 17.703125 9.0625 
Q 20.90625 20.125 20.90625 31.390625 
Q 20.90625 42.671875 17.703125 53.65625 
Q 14.5 64.65625 8.015625 75.875 
z
" id="DejaVuSans-41"/>
     </defs>
     <g transform="translate(155.715625 53.616562)scale(0.1 -0.1)">
      <use xlink:href="#DejaVuSans-72"/>
      <use x="75.195312" xlink:href="#DejaVuSans-111"/>
      <use x="136.376953" xlink:href="#DejaVuSans-115"/>
      <use x="188.476562" xlink:href="#DejaVuSans-112"/>
      <use x="251.953125" xlink:href="#DejaVuSans-105"/>
      <use x="279.736328" xlink:href="#DejaVuSans-116"/>
      <use x="318.945312" xlink:href="#DejaVuSans-97"/>
      <use x="380.224609" xlink:href="#DejaVuSans-108"/>
      <use x="408.007812" xlink:href="#DejaVuSans-32"/>
      <use x="439.794922" xlink:href="#DejaVuSans-98"/>
      <use x="503.271484" xlink:href="#DejaVuSans-101"/>
      <use x="564.794922" xlink:href="#DejaVuSans-100"/>
      <use x="628.271484" xlink:href="#DejaVuSans-115"/>
      <use x="680.371094" xlink:href="#DejaVuSans-32"/>
      <use x="712.158203" xlink:href="#DejaVuSans-40"/>
      <use x="751.171875" xlink:href="#DejaVuSans-97"/>
      <use x="812.451172" xlink:href="#DejaVuSans-108"/>
      <use x="840.234375" xlink:href="#DejaVuSans-108"/>
      <use x="868.017578" xlink:href="#DejaVuSans-32"/>
      <use x="899.804688" xlink:href="#DejaVuSans-100"/>
      <use x="963.28125" xlink:href="#DejaVuSans-97"/>
      <use x="1024.560547" xlink:href="#DejaVuSans-115"/>
      <use x="1076.660156" xlink:href="#DejaVuSans-104"/>
      <use x="1140.039062" xlink:href="#DejaVuSans-101"/>
      <use x="1201.5625" xlink:href="#DejaVuSans-100"/>
      <use x="1265.039062" xlink:href="#DejaVuSans-41"/>
     </g>
    </g>
   </g>
  </g>
 </g>
 <defs>
  <clipPath id="p2b3a470281">
   <rect height="195.696" width="334.8" x="118.715625" y="22.318125"/>
  </clipPath>
 </defs>
</svg>
