<?xml version="1.0" encoding="utf-8" standalone="no"?>
<!DOCTYPE svg PUBLIC "-//W3C//DTD SVG 1.1//EN"
  "http://www.w3.org/Graphics/SVG/1.1/DTD/svg11.dtd">
<!-- Created with matplotlib (https://matplotlib.org/) -->
<svg height="269.245725pt" version="1.1" viewBox="0 0 403.514694 269.245725" width="403.514694pt" xmlns="http://www.w3.org/2000/svg" xmlns:xlink="http://www.w3.org/1999/xlink">
 <defs>
  <style type="text/css">
*{stroke-linecap:butt;stroke-linejoin:round;}
  </style>
 </defs>
 <g id="figure_1">
  <g id="patch_1">
   <path d="M 0 269.245725 
L 403.514694 269.245725 
L 403.514694 0 
L 0 0 
z
" style="fill:#ffffff;"/>
  </g>
  <g id="axes_1">
   <g id="patch_2">
    <path d="M 58.163438 185.398125 
L 392.963437 185.398125 
L 392.963437 22.318125 
L 58.163438 22.318125 
z
" style="fill:#ffffff;"/>
   </g>
   <g id="matplotlib.axis_1">
    <g id="xtick_1">
     <g id="line2d_1">
      <path clip-path="url(#p95f8923f77)" d="M 58.163437 185.398125 
L 58.163437 22.318125 
" style="fill:none;stroke:#b0b0b0;stroke-linecap:square;stroke-opacity:0.8;stroke-width:0.8;"/>
     </g>
     <g id="line2d_2">
      <defs>
       <path d="M 0 0 
L 0 3.5 
" id="m631742c66f" style="stroke:#000000;stroke-width:0.8;"/>
      </defs>
      <g>
       <use style="stroke:#000000;stroke-width:0.8;" x="58.163437" xlink:href="#m631742c66f" y="185.398125"/>
      </g>
     </g>
     <g id="text_1">
      <!-- Feb. -->
      <defs>
       <path d="M 9.8125 72.90625 
L 51.703125 72.90625 
L 51.703125 64.59375 
L 19.671875 64.59375 
L 19.671875 43.109375 
L 48.578125 43.109375 
L 48.578125 34.8125 
L 19.671875 34.8125 
L 19.671875 0 
L 9.8125 0 
z
" id="DejaVuSans-70"/>
       <path d="M 56.203125 29.59375 
L 56.203125 25.203125 
L 14.890625 25.203125 
Q 15.484375 15.921875 20.484375 11.0625 
Q 25.484375 6.203125 34.421875 6.203125 
Q 39.59375 6.203125 44.453125 7.46875 
Q 49.3125 8.734375 54.109375 11.28125 
L 54.109375 2.78125 
Q 49.265625 0.734375 44.1875 -0.34375 
Q 39.109375 -1.421875 33.890625 -1.421875 
Q 20.796875 -1.421875 13.15625 6.1875 
Q 5.515625 13.8125 5.515625 26.8125 
Q 5.515625 40.234375 12.765625 48.109375 
Q 20.015625 56 32.328125 56 
Q 43.359375 56 49.78125 48.890625 
Q 56.203125 41.796875 56.203125 29.59375 
z
M 47.21875 32.234375 
Q 47.125 39.59375 43.09375 43.984375 
Q 39.0625 48.390625 32.421875 48.390625 
Q 24.90625 48.390625 20.390625 44.140625 
Q 15.875 39.890625 15.1875 32.171875 
z
" id="DejaVuSans-101"/>
       <path d="M 48.6875 27.296875 
Q 48.6875 37.203125 44.609375 42.84375 
Q 40.53125 48.484375 33.40625 48.484375 
Q 26.265625 48.484375 22.1875 42.84375 
Q 18.109375 37.203125 18.109375 27.296875 
Q 18.109375 17.390625 22.1875 11.75 
Q 26.265625 6.109375 33.40625 6.109375 
Q 40.53125 6.109375 44.609375 11.75 
Q 48.6875 17.390625 48.6875 27.296875 
z
M 18.109375 46.390625 
Q 20.953125 51.265625 25.265625 53.625 
Q 29.59375 56 35.59375 56 
Q 45.5625 56 51.78125 48.09375 
Q 58.015625 40.1875 58.015625 27.296875 
Q 58.015625 14.40625 51.78125 6.484375 
Q 45.5625 -1.421875 35.59375 -1.421875 
Q 29.59375 -1.421875 25.265625 0.953125 
Q 20.953125 3.328125 18.109375 8.203125 
L 18.109375 0 
L 9.078125 0 
L 9.078125 75.984375 
L 18.109375 75.984375 
z
" id="DejaVuSans-98"/>
       <path d="M 10.6875 12.40625 
L 21 12.40625 
L 21 0 
L 10.6875 0 
z
" id="DejaVuSans-46"/>
      </defs>
      <g transform="translate(47.451719 199.996562)scale(0.1 -0.1)">
       <use xlink:href="#DejaVuSans-70"/>
       <use x="57.441406" xlink:href="#DejaVuSans-101"/>
       <use x="118.964844" xlink:href="#DejaVuSans-98"/>
       <use x="182.441406" xlink:href="#DejaVuSans-46"/>
      </g>
      <!-- 16 -->
      <defs>
       <path d="M 12.40625 8.296875 
L 28.515625 8.296875 
L 28.515625 63.921875 
L 10.984375 60.40625 
L 10.984375 69.390625 
L 28.421875 72.90625 
L 38.28125 72.90625 
L 38.28125 8.296875 
L 54.390625 8.296875 
L 54.390625 0 
L 12.40625 0 
z
" id="DejaVuSans-49"/>
       <path d="M 33.015625 40.375 
Q 26.375 40.375 22.484375 35.828125 
Q 18.609375 31.296875 18.609375 23.390625 
Q 18.609375 15.53125 22.484375 10.953125 
Q 26.375 6.390625 33.015625 6.390625 
Q 39.65625 6.390625 43.53125 10.953125 
Q 47.40625 15.53125 47.40625 23.390625 
Q 47.40625 31.296875 43.53125 35.828125 
Q 39.65625 40.375 33.015625 40.375 
z
M 52.59375 71.296875 
L 52.59375 62.3125 
Q 48.875 64.0625 45.09375 64.984375 
Q 41.3125 65.921875 37.59375 65.921875 
Q 27.828125 65.921875 22.671875 59.328125 
Q 17.53125 52.734375 16.796875 39.40625 
Q 19.671875 43.65625 24.015625 45.921875 
Q 28.375 48.1875 33.59375 48.1875 
Q 44.578125 48.1875 50.953125 41.515625 
Q 57.328125 34.859375 57.328125 23.390625 
Q 57.328125 12.15625 50.6875 5.359375 
Q 44.046875 -1.421875 33.015625 -1.421875 
Q 20.359375 -1.421875 13.671875 8.265625 
Q 6.984375 17.96875 6.984375 36.375 
Q 6.984375 53.65625 15.1875 63.9375 
Q 23.390625 74.21875 37.203125 74.21875 
Q 40.921875 74.21875 44.703125 73.484375 
Q 48.484375 72.75 52.59375 71.296875 
z
" id="DejaVuSans-54"/>
      </defs>
      <g transform="translate(51.800937 211.194375)scale(0.1 -0.1)">
       <use xlink:href="#DejaVuSans-49"/>
       <use x="63.623047" xlink:href="#DejaVuSans-54"/>
      </g>
     </g>
    </g>
    <g id="xtick_2">
     <g id="line2d_3">
      <path clip-path="url(#p95f8923f77)" d="M 87.84106 185.398125 
L 87.84106 22.318125 
" style="fill:none;stroke:#b0b0b0;stroke-linecap:square;stroke-opacity:0.8;stroke-width:0.8;"/>
     </g>
     <g id="line2d_4">
      <g>
       <use style="stroke:#000000;stroke-width:0.8;" x="87.84106" xlink:href="#m631742c66f" y="185.398125"/>
      </g>
     </g>
     <g id="text_2">
      <!-- Feb. -->
      <g transform="translate(77.129341 199.996562)scale(0.1 -0.1)">
       <use xlink:href="#DejaVuSans-70"/>
       <use x="57.441406" xlink:href="#DejaVuSans-101"/>
       <use x="118.964844" xlink:href="#DejaVuSans-98"/>
       <use x="182.441406" xlink:href="#DejaVuSans-46"/>
      </g>
      <!-- 23 -->
      <defs>
       <path d="M 19.1875 8.296875 
L 53.609375 8.296875 
L 53.609375 0 
L 7.328125 0 
L 7.328125 8.296875 
Q 12.9375 14.109375 22.625 23.890625 
Q 32.328125 33.6875 34.8125 36.53125 
Q 39.546875 41.84375 41.421875 45.53125 
Q 43.3125 49.21875 43.3125 52.78125 
Q 43.3125 58.59375 39.234375 62.25 
Q 35.15625 65.921875 28.609375 65.921875 
Q 23.96875 65.921875 18.8125 64.3125 
Q 13.671875 62.703125 7.8125 59.421875 
L 7.8125 69.390625 
Q 13.765625 71.78125 18.9375 73 
Q 24.125 74.21875 28.421875 74.21875 
Q 39.75 74.21875 46.484375 68.546875 
Q 53.21875 62.890625 53.21875 53.421875 
Q 53.21875 48.921875 51.53125 44.890625 
Q 49.859375 40.875 45.40625 35.40625 
Q 44.1875 33.984375 37.640625 27.21875 
Q 31.109375 20.453125 19.1875 8.296875 
z
" id="DejaVuSans-50"/>
       <path d="M 40.578125 39.3125 
Q 47.65625 37.796875 51.625 33 
Q 55.609375 28.21875 55.609375 21.1875 
Q 55.609375 10.40625 48.1875 4.484375 
Q 40.765625 -1.421875 27.09375 -1.421875 
Q 22.515625 -1.421875 17.65625 -0.515625 
Q 12.796875 0.390625 7.625 2.203125 
L 7.625 11.71875 
Q 11.71875 9.328125 16.59375 8.109375 
Q 21.484375 6.890625 26.8125 6.890625 
Q 36.078125 6.890625 40.9375 10.546875 
Q 45.796875 14.203125 45.796875 21.1875 
Q 45.796875 27.640625 41.28125 31.265625 
Q 36.765625 34.90625 28.71875 34.90625 
L 20.21875 34.90625 
L 20.21875 43.015625 
L 29.109375 43.015625 
Q 36.375 43.015625 40.234375 45.921875 
Q 44.09375 48.828125 44.09375 54.296875 
Q 44.09375 59.90625 40.109375 62.90625 
Q 36.140625 65.921875 28.71875 65.921875 
Q 24.65625 65.921875 20.015625 65.03125 
Q 15.375 64.15625 9.8125 62.3125 
L 9.8125 71.09375 
Q 15.4375 72.65625 20.34375 73.4375 
Q 25.25 74.21875 29.59375 74.21875 
Q 40.828125 74.21875 47.359375 69.109375 
Q 53.90625 64.015625 53.90625 55.328125 
Q 53.90625 49.265625 50.4375 45.09375 
Q 46.96875 40.921875 40.578125 39.3125 
z
" id="DejaVuSans-51"/>
      </defs>
      <g transform="translate(81.47856 211.194375)scale(0.1 -0.1)">
       <use xlink:href="#DejaVuSans-50"/>
       <use x="63.623047" xlink:href="#DejaVuSans-51"/>
      </g>
     </g>
    </g>
    <g id="xtick_3">
     <g id="line2d_5">
      <path clip-path="url(#p95f8923f77)" d="M 117.518682 185.398125 
L 117.518682 22.318125 
" style="fill:none;stroke:#b0b0b0;stroke-linecap:square;stroke-opacity:0.8;stroke-width:0.8;"/>
     </g>
     <g id="line2d_6">
      <g>
       <use style="stroke:#000000;stroke-width:0.8;" x="117.518682" xlink:href="#m631742c66f" y="185.398125"/>
      </g>
     </g>
     <g id="text_3">
      <!-- Mar. -->
      <defs>
       <path d="M 9.8125 72.90625 
L 24.515625 72.90625 
L 43.109375 23.296875 
L 61.8125 72.90625 
L 76.515625 72.90625 
L 76.515625 0 
L 66.890625 0 
L 66.890625 64.015625 
L 48.09375 14.015625 
L 38.1875 14.015625 
L 19.390625 64.015625 
L 19.390625 0 
L 9.8125 0 
z
" id="DejaVuSans-77"/>
       <path d="M 34.28125 27.484375 
Q 23.390625 27.484375 19.1875 25 
Q 14.984375 22.515625 14.984375 16.5 
Q 14.984375 11.71875 18.140625 8.90625 
Q 21.296875 6.109375 26.703125 6.109375 
Q 34.1875 6.109375 38.703125 11.40625 
Q 43.21875 16.703125 43.21875 25.484375 
L 43.21875 27.484375 
z
M 52.203125 31.203125 
L 52.203125 0 
L 43.21875 0 
L 43.21875 8.296875 
Q 40.140625 3.328125 35.546875 0.953125 
Q 30.953125 -1.421875 24.3125 -1.421875 
Q 15.921875 -1.421875 10.953125 3.296875 
Q 6 8.015625 6 15.921875 
Q 6 25.140625 12.171875 29.828125 
Q 18.359375 34.515625 30.609375 34.515625 
L 43.21875 34.515625 
L 43.21875 35.40625 
Q 43.21875 41.609375 39.140625 45 
Q 35.0625 48.390625 27.6875 48.390625 
Q 23 48.390625 18.546875 47.265625 
Q 14.109375 46.140625 10.015625 43.890625 
L 10.015625 52.203125 
Q 14.9375 54.109375 19.578125 55.046875 
Q 24.21875 56 28.609375 56 
Q 40.484375 56 46.34375 49.84375 
Q 52.203125 43.703125 52.203125 31.203125 
z
" id="DejaVuSans-97"/>
       <path d="M 41.109375 46.296875 
Q 39.59375 47.171875 37.8125 47.578125 
Q 36.03125 48 33.890625 48 
Q 26.265625 48 22.1875 43.046875 
Q 18.109375 38.09375 18.109375 28.8125 
L 18.109375 0 
L 9.078125 0 
L 9.078125 54.6875 
L 18.109375 54.6875 
L 18.109375 46.1875 
Q 20.953125 51.171875 25.484375 53.578125 
Q 30.03125 56 36.53125 56 
Q 37.453125 56 38.578125 55.875 
Q 39.703125 55.765625 41.0625 55.515625 
z
" id="DejaVuSans-114"/>
      </defs>
      <g transform="translate(106.503057 199.996562)scale(0.1 -0.1)">
       <use xlink:href="#DejaVuSans-77"/>
       <use x="86.279297" xlink:href="#DejaVuSans-97"/>
       <use x="147.558594" xlink:href="#DejaVuSans-114"/>
       <use x="188.53125" xlink:href="#DejaVuSans-46"/>
      </g>
      <!-- 01 -->
      <defs>
       <path d="M 31.78125 66.40625 
Q 24.171875 66.40625 20.328125 58.90625 
Q 16.5 51.421875 16.5 36.375 
Q 16.5 21.390625 20.328125 13.890625 
Q 24.171875 6.390625 31.78125 6.390625 
Q 39.453125 6.390625 43.28125 13.890625 
Q 47.125 21.390625 47.125 36.375 
Q 47.125 51.421875 43.28125 58.90625 
Q 39.453125 66.40625 31.78125 66.40625 
z
M 31.78125 74.21875 
Q 44.046875 74.21875 50.515625 64.515625 
Q 56.984375 54.828125 56.984375 36.375 
Q 56.984375 17.96875 50.515625 8.265625 
Q 44.046875 -1.421875 31.78125 -1.421875 
Q 19.53125 -1.421875 13.0625 8.265625 
Q 6.59375 17.96875 6.59375 36.375 
Q 6.59375 54.828125 13.0625 64.515625 
Q 19.53125 74.21875 31.78125 74.21875 
z
" id="DejaVuSans-48"/>
      </defs>
      <g transform="translate(111.156182 211.194375)scale(0.1 -0.1)">
       <use xlink:href="#DejaVuSans-48"/>
       <use x="63.623047" xlink:href="#DejaVuSans-49"/>
      </g>
     </g>
    </g>
    <g id="xtick_4">
     <g id="line2d_7">
      <path clip-path="url(#p95f8923f77)" d="M 147.196304 185.398125 
L 147.196304 22.318125 
" style="fill:none;stroke:#b0b0b0;stroke-linecap:square;stroke-opacity:0.8;stroke-width:0.8;"/>
     </g>
     <g id="line2d_8">
      <g>
       <use style="stroke:#000000;stroke-width:0.8;" x="147.196304" xlink:href="#m631742c66f" y="185.398125"/>
      </g>
     </g>
     <g id="text_4">
      <!-- Mar. -->
      <g transform="translate(136.180679 199.996562)scale(0.1 -0.1)">
       <use xlink:href="#DejaVuSans-77"/>
       <use x="86.279297" xlink:href="#DejaVuSans-97"/>
       <use x="147.558594" xlink:href="#DejaVuSans-114"/>
       <use x="188.53125" xlink:href="#DejaVuSans-46"/>
      </g>
      <!-- 08 -->
      <defs>
       <path d="M 31.78125 34.625 
Q 24.75 34.625 20.71875 30.859375 
Q 16.703125 27.09375 16.703125 20.515625 
Q 16.703125 13.921875 20.71875 10.15625 
Q 24.75 6.390625 31.78125 6.390625 
Q 38.8125 6.390625 42.859375 10.171875 
Q 46.921875 13.96875 46.921875 20.515625 
Q 46.921875 27.09375 42.890625 30.859375 
Q 38.875 34.625 31.78125 34.625 
z
M 21.921875 38.8125 
Q 15.578125 40.375 12.03125 44.71875 
Q 8.5 49.078125 8.5 55.328125 
Q 8.5 64.0625 14.71875 69.140625 
Q 20.953125 74.21875 31.78125 74.21875 
Q 42.671875 74.21875 48.875 69.140625 
Q 55.078125 64.0625 55.078125 55.328125 
Q 55.078125 49.078125 51.53125 44.71875 
Q 48 40.375 41.703125 38.8125 
Q 48.828125 37.15625 52.796875 32.3125 
Q 56.78125 27.484375 56.78125 20.515625 
Q 56.78125 9.90625 50.3125 4.234375 
Q 43.84375 -1.421875 31.78125 -1.421875 
Q 19.734375 -1.421875 13.25 4.234375 
Q 6.78125 9.90625 6.78125 20.515625 
Q 6.78125 27.484375 10.78125 32.3125 
Q 14.796875 37.15625 21.921875 38.8125 
z
M 18.3125 54.390625 
Q 18.3125 48.734375 21.84375 45.5625 
Q 25.390625 42.390625 31.78125 42.390625 
Q 38.140625 42.390625 41.71875 45.5625 
Q 45.3125 48.734375 45.3125 54.390625 
Q 45.3125 60.0625 41.71875 63.234375 
Q 38.140625 66.40625 31.78125 66.40625 
Q 25.390625 66.40625 21.84375 63.234375 
Q 18.3125 60.0625 18.3125 54.390625 
z
" id="DejaVuSans-56"/>
      </defs>
      <g transform="translate(140.833804 211.194375)scale(0.1 -0.1)">
       <use xlink:href="#DejaVuSans-48"/>
       <use x="63.623047" xlink:href="#DejaVuSans-56"/>
      </g>
     </g>
    </g>
    <g id="xtick_5">
     <g id="line2d_9">
      <path clip-path="url(#p95f8923f77)" d="M 176.873926 185.398125 
L 176.873926 22.318125 
" style="fill:none;stroke:#b0b0b0;stroke-linecap:square;stroke-opacity:0.8;stroke-width:0.8;"/>
     </g>
     <g id="line2d_10">
      <g>
       <use style="stroke:#000000;stroke-width:0.8;" x="176.873926" xlink:href="#m631742c66f" y="185.398125"/>
      </g>
     </g>
     <g id="text_5">
      <!-- Mar. -->
      <g transform="translate(165.858301 199.996562)scale(0.1 -0.1)">
       <use xlink:href="#DejaVuSans-77"/>
       <use x="86.279297" xlink:href="#DejaVuSans-97"/>
       <use x="147.558594" xlink:href="#DejaVuSans-114"/>
       <use x="188.53125" xlink:href="#DejaVuSans-46"/>
      </g>
      <!-- 15 -->
      <defs>
       <path d="M 10.796875 72.90625 
L 49.515625 72.90625 
L 49.515625 64.59375 
L 19.828125 64.59375 
L 19.828125 46.734375 
Q 21.96875 47.46875 24.109375 47.828125 
Q 26.265625 48.1875 28.421875 48.1875 
Q 40.625 48.1875 47.75 41.5 
Q 54.890625 34.8125 54.890625 23.390625 
Q 54.890625 11.625 47.5625 5.09375 
Q 40.234375 -1.421875 26.90625 -1.421875 
Q 22.3125 -1.421875 17.546875 -0.640625 
Q 12.796875 0.140625 7.71875 1.703125 
L 7.71875 11.625 
Q 12.109375 9.234375 16.796875 8.0625 
Q 21.484375 6.890625 26.703125 6.890625 
Q 35.15625 6.890625 40.078125 11.328125 
Q 45.015625 15.765625 45.015625 23.390625 
Q 45.015625 31 40.078125 35.4375 
Q 35.15625 39.890625 26.703125 39.890625 
Q 22.75 39.890625 18.8125 39.015625 
Q 14.890625 38.140625 10.796875 36.28125 
z
" id="DejaVuSans-53"/>
      </defs>
      <g transform="translate(170.511426 211.194375)scale(0.1 -0.1)">
       <use xlink:href="#DejaVuSans-49"/>
       <use x="63.623047" xlink:href="#DejaVuSans-53"/>
      </g>
     </g>
    </g>
    <g id="xtick_6">
     <g id="line2d_11">
      <path clip-path="url(#p95f8923f77)" d="M 206.551549 185.398125 
L 206.551549 22.318125 
" style="fill:none;stroke:#b0b0b0;stroke-linecap:square;stroke-opacity:0.8;stroke-width:0.8;"/>
     </g>
     <g id="line2d_12">
      <g>
       <use style="stroke:#000000;stroke-width:0.8;" x="206.551549" xlink:href="#m631742c66f" y="185.398125"/>
      </g>
     </g>
     <g id="text_6">
      <!-- Mar. -->
      <g transform="translate(195.535924 199.996562)scale(0.1 -0.1)">
       <use xlink:href="#DejaVuSans-77"/>
       <use x="86.279297" xlink:href="#DejaVuSans-97"/>
       <use x="147.558594" xlink:href="#DejaVuSans-114"/>
       <use x="188.53125" xlink:href="#DejaVuSans-46"/>
      </g>
      <!-- 22 -->
      <g transform="translate(200.189049 211.194375)scale(0.1 -0.1)">
       <use xlink:href="#DejaVuSans-50"/>
       <use x="63.623047" xlink:href="#DejaVuSans-50"/>
      </g>
     </g>
    </g>
    <g id="xtick_7">
     <g id="line2d_13">
      <path clip-path="url(#p95f8923f77)" d="M 236.229171 185.398125 
L 236.229171 22.318125 
" style="fill:none;stroke:#b0b0b0;stroke-linecap:square;stroke-opacity:0.8;stroke-width:0.8;"/>
     </g>
     <g id="line2d_14">
      <g>
       <use style="stroke:#000000;stroke-width:0.8;" x="236.229171" xlink:href="#m631742c66f" y="185.398125"/>
      </g>
     </g>
     <g id="text_7">
      <!-- Mar. -->
      <g transform="translate(225.213546 199.996562)scale(0.1 -0.1)">
       <use xlink:href="#DejaVuSans-77"/>
       <use x="86.279297" xlink:href="#DejaVuSans-97"/>
       <use x="147.558594" xlink:href="#DejaVuSans-114"/>
       <use x="188.53125" xlink:href="#DejaVuSans-46"/>
      </g>
      <!-- 29 -->
      <defs>
       <path d="M 10.984375 1.515625 
L 10.984375 10.5 
Q 14.703125 8.734375 18.5 7.8125 
Q 22.3125 6.890625 25.984375 6.890625 
Q 35.75 6.890625 40.890625 13.453125 
Q 46.046875 20.015625 46.78125 33.40625 
Q 43.953125 29.203125 39.59375 26.953125 
Q 35.25 24.703125 29.984375 24.703125 
Q 19.046875 24.703125 12.671875 31.3125 
Q 6.296875 37.9375 6.296875 49.421875 
Q 6.296875 60.640625 12.9375 67.421875 
Q 19.578125 74.21875 30.609375 74.21875 
Q 43.265625 74.21875 49.921875 64.515625 
Q 56.59375 54.828125 56.59375 36.375 
Q 56.59375 19.140625 48.40625 8.859375 
Q 40.234375 -1.421875 26.421875 -1.421875 
Q 22.703125 -1.421875 18.890625 -0.6875 
Q 15.09375 0.046875 10.984375 1.515625 
z
M 30.609375 32.421875 
Q 37.25 32.421875 41.125 36.953125 
Q 45.015625 41.5 45.015625 49.421875 
Q 45.015625 57.28125 41.125 61.84375 
Q 37.25 66.40625 30.609375 66.40625 
Q 23.96875 66.40625 20.09375 61.84375 
Q 16.21875 57.28125 16.21875 49.421875 
Q 16.21875 41.5 20.09375 36.953125 
Q 23.96875 32.421875 30.609375 32.421875 
z
" id="DejaVuSans-57"/>
      </defs>
      <g transform="translate(229.866671 211.194375)scale(0.1 -0.1)">
       <use xlink:href="#DejaVuSans-50"/>
       <use x="63.623047" xlink:href="#DejaVuSans-57"/>
      </g>
     </g>
    </g>
    <g id="xtick_8">
     <g id="line2d_15">
      <path clip-path="url(#p95f8923f77)" d="M 265.906793 185.398125 
L 265.906793 22.318125 
" style="fill:none;stroke:#b0b0b0;stroke-linecap:square;stroke-opacity:0.8;stroke-width:0.8;"/>
     </g>
     <g id="line2d_16">
      <g>
       <use style="stroke:#000000;stroke-width:0.8;" x="265.906793" xlink:href="#m631742c66f" y="185.398125"/>
      </g>
     </g>
     <g id="text_8">
      <!-- Apr. -->
      <defs>
       <path d="M 34.1875 63.1875 
L 20.796875 26.90625 
L 47.609375 26.90625 
z
M 28.609375 72.90625 
L 39.796875 72.90625 
L 67.578125 0 
L 57.328125 0 
L 50.6875 18.703125 
L 17.828125 18.703125 
L 11.1875 0 
L 0.78125 0 
z
" id="DejaVuSans-65"/>
       <path d="M 18.109375 8.203125 
L 18.109375 -20.796875 
L 9.078125 -20.796875 
L 9.078125 54.6875 
L 18.109375 54.6875 
L 18.109375 46.390625 
Q 20.953125 51.265625 25.265625 53.625 
Q 29.59375 56 35.59375 56 
Q 45.5625 56 51.78125 48.09375 
Q 58.015625 40.1875 58.015625 27.296875 
Q 58.015625 14.40625 51.78125 6.484375 
Q 45.5625 -1.421875 35.59375 -1.421875 
Q 29.59375 -1.421875 25.265625 0.953125 
Q 20.953125 3.328125 18.109375 8.203125 
z
M 48.6875 27.296875 
Q 48.6875 37.203125 44.609375 42.84375 
Q 40.53125 48.484375 33.40625 48.484375 
Q 26.265625 48.484375 22.1875 42.84375 
Q 18.109375 37.203125 18.109375 27.296875 
Q 18.109375 17.390625 22.1875 11.75 
Q 26.265625 6.109375 33.40625 6.109375 
Q 40.53125 6.109375 44.609375 11.75 
Q 48.6875 17.390625 48.6875 27.296875 
z
" id="DejaVuSans-112"/>
      </defs>
      <g transform="translate(255.674762 199.996562)scale(0.1 -0.1)">
       <use xlink:href="#DejaVuSans-65"/>
       <use x="68.408203" xlink:href="#DejaVuSans-112"/>
       <use x="131.884766" xlink:href="#DejaVuSans-114"/>
       <use x="172.857422" xlink:href="#DejaVuSans-46"/>
      </g>
      <!-- 05 -->
      <g transform="translate(259.544293 211.194375)scale(0.1 -0.1)">
       <use xlink:href="#DejaVuSans-48"/>
       <use x="63.623047" xlink:href="#DejaVuSans-53"/>
      </g>
     </g>
    </g>
    <g id="xtick_9">
     <g id="line2d_17">
      <path clip-path="url(#p95f8923f77)" d="M 295.584415 185.398125 
L 295.584415 22.318125 
" style="fill:none;stroke:#b0b0b0;stroke-linecap:square;stroke-opacity:0.8;stroke-width:0.8;"/>
     </g>
     <g id="line2d_18">
      <g>
       <use style="stroke:#000000;stroke-width:0.8;" x="295.584415" xlink:href="#m631742c66f" y="185.398125"/>
      </g>
     </g>
     <g id="text_9">
      <!-- Apr. -->
      <g transform="translate(285.352384 199.996562)scale(0.1 -0.1)">
       <use xlink:href="#DejaVuSans-65"/>
       <use x="68.408203" xlink:href="#DejaVuSans-112"/>
       <use x="131.884766" xlink:href="#DejaVuSans-114"/>
       <use x="172.857422" xlink:href="#DejaVuSans-46"/>
      </g>
      <!-- 12 -->
      <g transform="translate(289.221915 211.194375)scale(0.1 -0.1)">
       <use xlink:href="#DejaVuSans-49"/>
       <use x="63.623047" xlink:href="#DejaVuSans-50"/>
      </g>
     </g>
    </g>
   </g>
   <g id="matplotlib.axis_2">
    <g id="ytick_1">
     <g id="line2d_19">
      <path clip-path="url(#p95f8923f77)" d="M 58.163438 185.398125 
L 392.963437 185.398125 
" style="fill:none;stroke:#b0b0b0;stroke-linecap:square;stroke-opacity:0.8;stroke-width:0.8;"/>
     </g>
     <g id="line2d_20">
      <defs>
       <path d="M 0 0 
L -3.5 0 
" id="mee8c5dd3ea" style="stroke:#000000;stroke-width:0.8;"/>
      </defs>
      <g>
       <use style="stroke:#000000;stroke-width:0.8;" x="58.163438" xlink:href="#mee8c5dd3ea" y="185.398125"/>
      </g>
     </g>
     <g id="text_10">
      <!-- 0.1 -->
      <g transform="translate(35.260313 189.197344)scale(0.1 -0.1)">
       <use xlink:href="#DejaVuSans-48"/>
       <use x="63.623047" xlink:href="#DejaVuSans-46"/>
       <use x="95.410156" xlink:href="#DejaVuSans-49"/>
      </g>
     </g>
    </g>
    <g id="ytick_2">
     <g id="line2d_21">
      <path clip-path="url(#p95f8923f77)" d="M 58.163438 138.497258 
L 392.963437 138.497258 
" style="fill:none;stroke:#b0b0b0;stroke-linecap:square;stroke-opacity:0.8;stroke-width:0.8;"/>
     </g>
     <g id="line2d_22">
      <g>
       <use style="stroke:#000000;stroke-width:0.8;" x="58.163438" xlink:href="#mee8c5dd3ea" y="138.497258"/>
      </g>
     </g>
     <g id="text_11">
      <!-- 1 -->
      <g transform="translate(44.800938 142.296477)scale(0.1 -0.1)">
       <use xlink:href="#DejaVuSans-49"/>
      </g>
     </g>
    </g>
    <g id="ytick_3">
     <g id="line2d_23">
      <path clip-path="url(#p95f8923f77)" d="M 58.163438 91.596392 
L 392.963437 91.596392 
" style="fill:none;stroke:#b0b0b0;stroke-linecap:square;stroke-opacity:0.8;stroke-width:0.8;"/>
     </g>
     <g id="line2d_24">
      <g>
       <use style="stroke:#000000;stroke-width:0.8;" x="58.163438" xlink:href="#mee8c5dd3ea" y="91.596392"/>
      </g>
     </g>
     <g id="text_12">
      <!-- 10 -->
      <g transform="translate(38.438438 95.395611)scale(0.1 -0.1)">
       <use xlink:href="#DejaVuSans-49"/>
       <use x="63.623047" xlink:href="#DejaVuSans-48"/>
      </g>
     </g>
    </g>
    <g id="ytick_4">
     <g id="line2d_25">
      <path clip-path="url(#p95f8923f77)" d="M 58.163438 44.695525 
L 392.963437 44.695525 
" style="fill:none;stroke:#b0b0b0;stroke-linecap:square;stroke-opacity:0.8;stroke-width:0.8;"/>
     </g>
     <g id="line2d_26">
      <g>
       <use style="stroke:#000000;stroke-width:0.8;" x="58.163438" xlink:href="#mee8c5dd3ea" y="44.695525"/>
      </g>
     </g>
     <g id="text_13">
      <!-- 100 -->
      <g transform="translate(32.075938 48.494744)scale(0.1 -0.1)">
       <use xlink:href="#DejaVuSans-49"/>
       <use x="63.623047" xlink:href="#DejaVuSans-48"/>
       <use x="127.246094" xlink:href="#DejaVuSans-48"/>
      </g>
     </g>
    </g>
    <g id="ytick_5">
     <g id="line2d_27">
      <path clip-path="url(#p95f8923f77)" d="M 58.163438 171.279557 
L 392.963437 171.279557 
" style="fill:none;stroke:#b0b0b0;stroke-linecap:square;stroke-opacity:0.3;stroke-width:0.8;"/>
     </g>
     <g id="line2d_28">
      <defs>
       <path d="M 0 0 
L -2 0 
" id="md6c0ad747f" style="stroke:#000000;stroke-width:0.6;"/>
      </defs>
      <g>
       <use style="stroke:#000000;stroke-width:0.6;" x="58.163438" xlink:href="#md6c0ad747f" y="171.279557"/>
      </g>
     </g>
     <g id="text_14">
      <!-- 0.2 -->
      <g transform="translate(36.860313 175.078776)scale(0.1 -0.1)">
       <use xlink:href="#DejaVuSans-48"/>
       <use x="63.623047" xlink:href="#DejaVuSans-46"/>
       <use x="95.410156" xlink:href="#DejaVuSans-50"/>
      </g>
     </g>
    </g>
    <g id="ytick_6">
     <g id="line2d_29">
      <path clip-path="url(#p95f8923f77)" d="M 58.163438 152.615826 
L 392.963437 152.615826 
" style="fill:none;stroke:#b0b0b0;stroke-linecap:square;stroke-opacity:0.3;stroke-width:0.8;"/>
     </g>
     <g id="line2d_30">
      <g>
       <use style="stroke:#000000;stroke-width:0.6;" x="58.163438" xlink:href="#md6c0ad747f" y="152.615826"/>
      </g>
     </g>
     <g id="text_15">
      <!-- 0.5 -->
      <g transform="translate(36.860313 156.415045)scale(0.1 -0.1)">
       <use xlink:href="#DejaVuSans-48"/>
       <use x="63.623047" xlink:href="#DejaVuSans-46"/>
       <use x="95.410156" xlink:href="#DejaVuSans-53"/>
      </g>
     </g>
    </g>
    <g id="ytick_7">
     <g id="line2d_31">
      <path clip-path="url(#p95f8923f77)" d="M 58.163438 124.378691 
L 392.963437 124.378691 
" style="fill:none;stroke:#b0b0b0;stroke-linecap:square;stroke-opacity:0.3;stroke-width:0.8;"/>
     </g>
     <g id="line2d_32">
      <g>
       <use style="stroke:#000000;stroke-width:0.6;" x="58.163438" xlink:href="#md6c0ad747f" y="124.378691"/>
      </g>
     </g>
     <g id="text_16">
      <!-- 2 -->
      <g transform="translate(46.400938 128.17791)scale(0.1 -0.1)">
       <use xlink:href="#DejaVuSans-50"/>
      </g>
     </g>
    </g>
    <g id="ytick_8">
     <g id="line2d_33">
      <path clip-path="url(#p95f8923f77)" d="M 58.163438 105.71496 
L 392.963437 105.71496 
" style="fill:none;stroke:#b0b0b0;stroke-linecap:square;stroke-opacity:0.3;stroke-width:0.8;"/>
     </g>
     <g id="line2d_34">
      <g>
       <use style="stroke:#000000;stroke-width:0.6;" x="58.163438" xlink:href="#md6c0ad747f" y="105.71496"/>
      </g>
     </g>
     <g id="text_17">
      <!-- 5 -->
      <g transform="translate(46.400938 109.514178)scale(0.1 -0.1)">
       <use xlink:href="#DejaVuSans-53"/>
      </g>
     </g>
    </g>
    <g id="ytick_9">
     <g id="line2d_35">
      <path clip-path="url(#p95f8923f77)" d="M 58.163438 77.477824 
L 392.963437 77.477824 
" style="fill:none;stroke:#b0b0b0;stroke-linecap:square;stroke-opacity:0.3;stroke-width:0.8;"/>
     </g>
     <g id="line2d_36">
      <g>
       <use style="stroke:#000000;stroke-width:0.6;" x="58.163438" xlink:href="#md6c0ad747f" y="77.477824"/>
      </g>
     </g>
     <g id="text_18">
      <!-- 20 -->
      <g transform="translate(40.038438 81.277043)scale(0.1 -0.1)">
       <use xlink:href="#DejaVuSans-50"/>
       <use x="63.623047" xlink:href="#DejaVuSans-48"/>
      </g>
     </g>
    </g>
    <g id="ytick_10">
     <g id="line2d_37">
      <path clip-path="url(#p95f8923f77)" d="M 58.163438 58.814093 
L 392.963437 58.814093 
" style="fill:none;stroke:#b0b0b0;stroke-linecap:square;stroke-opacity:0.3;stroke-width:0.8;"/>
     </g>
     <g id="line2d_38">
      <g>
       <use style="stroke:#000000;stroke-width:0.6;" x="58.163438" xlink:href="#md6c0ad747f" y="58.814093"/>
      </g>
     </g>
     <g id="text_19">
      <!-- 50 -->
      <g transform="translate(40.038438 62.613312)scale(0.1 -0.1)">
       <use xlink:href="#DejaVuSans-53"/>
       <use x="63.623047" xlink:href="#DejaVuSans-48"/>
      </g>
     </g>
    </g>
    <g id="ytick_11">
     <g id="line2d_39">
      <path clip-path="url(#p95f8923f77)" d="M 58.163438 30.576958 
L 392.963437 30.576958 
" style="fill:none;stroke:#b0b0b0;stroke-linecap:square;stroke-opacity:0.3;stroke-width:0.8;"/>
     </g>
     <g id="line2d_40">
      <g>
       <use style="stroke:#000000;stroke-width:0.6;" x="58.163438" xlink:href="#md6c0ad747f" y="30.576958"/>
      </g>
     </g>
     <g id="text_20">
      <!-- 200 -->
      <g transform="translate(33.675938 34.376176)scale(0.1 -0.1)">
       <use xlink:href="#DejaVuSans-50"/>
       <use x="63.623047" xlink:href="#DejaVuSans-48"/>
       <use x="127.246094" xlink:href="#DejaVuSans-48"/>
      </g>
     </g>
    </g>
    <g id="text_21">
     <!-- New cases in country -->
     <defs>
      <path d="M 9.8125 72.90625 
L 23.09375 72.90625 
L 55.421875 11.921875 
L 55.421875 72.90625 
L 64.984375 72.90625 
L 64.984375 0 
L 51.703125 0 
L 19.390625 60.984375 
L 19.390625 0 
L 9.8125 0 
z
" id="DejaVuSans-78"/>
      <path d="M 4.203125 54.6875 
L 13.1875 54.6875 
L 24.421875 12.015625 
L 35.59375 54.6875 
L 46.1875 54.6875 
L 57.421875 12.015625 
L 68.609375 54.6875 
L 77.59375 54.6875 
L 63.28125 0 
L 52.6875 0 
L 40.921875 44.828125 
L 29.109375 0 
L 18.5 0 
z
" id="DejaVuSans-119"/>
      <path id="DejaVuSans-32"/>
      <path d="M 48.78125 52.59375 
L 48.78125 44.1875 
Q 44.96875 46.296875 41.140625 47.34375 
Q 37.3125 48.390625 33.40625 48.390625 
Q 24.65625 48.390625 19.8125 42.84375 
Q 14.984375 37.3125 14.984375 27.296875 
Q 14.984375 17.28125 19.8125 11.734375 
Q 24.65625 6.203125 33.40625 6.203125 
Q 37.3125 6.203125 41.140625 7.25 
Q 44.96875 8.296875 48.78125 10.40625 
L 48.78125 2.09375 
Q 45.015625 0.34375 40.984375 -0.53125 
Q 36.96875 -1.421875 32.421875 -1.421875 
Q 20.0625 -1.421875 12.78125 6.34375 
Q 5.515625 14.109375 5.515625 27.296875 
Q 5.515625 40.671875 12.859375 48.328125 
Q 20.21875 56 33.015625 56 
Q 37.15625 56 41.109375 55.140625 
Q 45.0625 54.296875 48.78125 52.59375 
z
" id="DejaVuSans-99"/>
      <path d="M 44.28125 53.078125 
L 44.28125 44.578125 
Q 40.484375 46.53125 36.375 47.5 
Q 32.28125 48.484375 27.875 48.484375 
Q 21.1875 48.484375 17.84375 46.4375 
Q 14.5 44.390625 14.5 40.28125 
Q 14.5 37.15625 16.890625 35.375 
Q 19.28125 33.59375 26.515625 31.984375 
L 29.59375 31.296875 
Q 39.15625 29.25 43.1875 25.515625 
Q 47.21875 21.78125 47.21875 15.09375 
Q 47.21875 7.46875 41.1875 3.015625 
Q 35.15625 -1.421875 24.609375 -1.421875 
Q 20.21875 -1.421875 15.453125 -0.5625 
Q 10.6875 0.296875 5.421875 2 
L 5.421875 11.28125 
Q 10.40625 8.6875 15.234375 7.390625 
Q 20.0625 6.109375 24.8125 6.109375 
Q 31.15625 6.109375 34.5625 8.28125 
Q 37.984375 10.453125 37.984375 14.40625 
Q 37.984375 18.0625 35.515625 20.015625 
Q 33.0625 21.96875 24.703125 23.78125 
L 21.578125 24.515625 
Q 13.234375 26.265625 9.515625 29.90625 
Q 5.8125 33.546875 5.8125 39.890625 
Q 5.8125 47.609375 11.28125 51.796875 
Q 16.75 56 26.8125 56 
Q 31.78125 56 36.171875 55.265625 
Q 40.578125 54.546875 44.28125 53.078125 
z
" id="DejaVuSans-115"/>
      <path d="M 9.421875 54.6875 
L 18.40625 54.6875 
L 18.40625 0 
L 9.421875 0 
z
M 9.421875 75.984375 
L 18.40625 75.984375 
L 18.40625 64.59375 
L 9.421875 64.59375 
z
" id="DejaVuSans-105"/>
      <path d="M 54.890625 33.015625 
L 54.890625 0 
L 45.90625 0 
L 45.90625 32.71875 
Q 45.90625 40.484375 42.875 44.328125 
Q 39.84375 48.1875 33.796875 48.1875 
Q 26.515625 48.1875 22.3125 43.546875 
Q 18.109375 38.921875 18.109375 30.90625 
L 18.109375 0 
L 9.078125 0 
L 9.078125 54.6875 
L 18.109375 54.6875 
L 18.109375 46.1875 
Q 21.34375 51.125 25.703125 53.5625 
Q 30.078125 56 35.796875 56 
Q 45.21875 56 50.046875 50.171875 
Q 54.890625 44.34375 54.890625 33.015625 
z
" id="DejaVuSans-110"/>
      <path d="M 30.609375 48.390625 
Q 23.390625 48.390625 19.1875 42.75 
Q 14.984375 37.109375 14.984375 27.296875 
Q 14.984375 17.484375 19.15625 11.84375 
Q 23.34375 6.203125 30.609375 6.203125 
Q 37.796875 6.203125 41.984375 11.859375 
Q 46.1875 17.53125 46.1875 27.296875 
Q 46.1875 37.015625 41.984375 42.703125 
Q 37.796875 48.390625 30.609375 48.390625 
z
M 30.609375 56 
Q 42.328125 56 49.015625 48.375 
Q 55.71875 40.765625 55.71875 27.296875 
Q 55.71875 13.875 49.015625 6.21875 
Q 42.328125 -1.421875 30.609375 -1.421875 
Q 18.84375 -1.421875 12.171875 6.21875 
Q 5.515625 13.875 5.515625 27.296875 
Q 5.515625 40.765625 12.171875 48.375 
Q 18.84375 56 30.609375 56 
z
" id="DejaVuSans-111"/>
      <path d="M 8.5 21.578125 
L 8.5 54.6875 
L 17.484375 54.6875 
L 17.484375 21.921875 
Q 17.484375 14.15625 20.5 10.265625 
Q 23.53125 6.390625 29.59375 6.390625 
Q 36.859375 6.390625 41.078125 11.03125 
Q 45.3125 15.671875 45.3125 23.6875 
L 45.3125 54.6875 
L 54.296875 54.6875 
L 54.296875 0 
L 45.3125 0 
L 45.3125 8.40625 
Q 42.046875 3.421875 37.71875 1 
Q 33.40625 -1.421875 27.6875 -1.421875 
Q 18.265625 -1.421875 13.375 4.4375 
Q 8.5 10.296875 8.5 21.578125 
z
M 31.109375 56 
z
" id="DejaVuSans-117"/>
      <path d="M 18.3125 70.21875 
L 18.3125 54.6875 
L 36.8125 54.6875 
L 36.8125 47.703125 
L 18.3125 47.703125 
L 18.3125 18.015625 
Q 18.3125 11.328125 20.140625 9.421875 
Q 21.96875 7.515625 27.59375 7.515625 
L 36.8125 7.515625 
L 36.8125 0 
L 27.59375 0 
Q 17.1875 0 13.234375 3.875 
Q 9.28125 7.765625 9.28125 18.015625 
L 9.28125 47.703125 
L 2.6875 47.703125 
L 2.6875 54.6875 
L 9.28125 54.6875 
L 9.28125 70.21875 
z
" id="DejaVuSans-116"/>
      <path d="M 32.171875 -5.078125 
Q 28.375 -14.84375 24.75 -17.8125 
Q 21.140625 -20.796875 15.09375 -20.796875 
L 7.90625 -20.796875 
L 7.90625 -13.28125 
L 13.1875 -13.28125 
Q 16.890625 -13.28125 18.9375 -11.515625 
Q 21 -9.765625 23.484375 -3.21875 
L 25.09375 0.875 
L 2.984375 54.6875 
L 12.5 54.6875 
L 29.59375 11.921875 
L 46.6875 54.6875 
L 56.203125 54.6875 
z
" id="DejaVuSans-121"/>
     </defs>
     <g transform="translate(14.798438 157.309687)rotate(-90)scale(0.1 -0.1)">
      <use xlink:href="#DejaVuSans-78"/>
      <use x="74.804688" xlink:href="#DejaVuSans-101"/>
      <use x="136.328125" xlink:href="#DejaVuSans-119"/>
      <use x="218.115234" xlink:href="#DejaVuSans-32"/>
      <use x="249.902344" xlink:href="#DejaVuSans-99"/>
      <use x="304.882812" xlink:href="#DejaVuSans-97"/>
      <use x="366.162109" xlink:href="#DejaVuSans-115"/>
      <use x="418.261719" xlink:href="#DejaVuSans-101"/>
      <use x="479.785156" xlink:href="#DejaVuSans-115"/>
      <use x="531.884766" xlink:href="#DejaVuSans-32"/>
      <use x="563.671875" xlink:href="#DejaVuSans-105"/>
      <use x="591.455078" xlink:href="#DejaVuSans-110"/>
      <use x="654.833984" xlink:href="#DejaVuSans-32"/>
      <use x="686.621094" xlink:href="#DejaVuSans-99"/>
      <use x="741.601562" xlink:href="#DejaVuSans-111"/>
      <use x="802.783203" xlink:href="#DejaVuSans-117"/>
      <use x="866.162109" xlink:href="#DejaVuSans-110"/>
      <use x="929.541016" xlink:href="#DejaVuSans-116"/>
      <use x="968.75" xlink:href="#DejaVuSans-114"/>
      <use x="1009.863281" xlink:href="#DejaVuSans-121"/>
     </g>
     <!-- (per million) -->
     <defs>
      <path d="M 31 75.875 
Q 24.46875 64.65625 21.28125 53.65625 
Q 18.109375 42.671875 18.109375 31.390625 
Q 18.109375 20.125 21.3125 9.0625 
Q 24.515625 -2 31 -13.1875 
L 23.1875 -13.1875 
Q 15.875 -1.703125 12.234375 9.375 
Q 8.59375 20.453125 8.59375 31.390625 
Q 8.59375 42.28125 12.203125 53.3125 
Q 15.828125 64.359375 23.1875 75.875 
z
" id="DejaVuSans-40"/>
      <path d="M 52 44.1875 
Q 55.375 50.25 60.0625 53.125 
Q 64.75 56 71.09375 56 
Q 79.640625 56 84.28125 50.015625 
Q 88.921875 44.046875 88.921875 33.015625 
L 88.921875 0 
L 79.890625 0 
L 79.890625 32.71875 
Q 79.890625 40.578125 77.09375 44.375 
Q 74.3125 48.1875 68.609375 48.1875 
Q 61.625 48.1875 57.5625 43.546875 
Q 53.515625 38.921875 53.515625 30.90625 
L 53.515625 0 
L 44.484375 0 
L 44.484375 32.71875 
Q 44.484375 40.625 41.703125 44.40625 
Q 38.921875 48.1875 33.109375 48.1875 
Q 26.21875 48.1875 22.15625 43.53125 
Q 18.109375 38.875 18.109375 30.90625 
L 18.109375 0 
L 9.078125 0 
L 9.078125 54.6875 
L 18.109375 54.6875 
L 18.109375 46.1875 
Q 21.1875 51.21875 25.484375 53.609375 
Q 29.78125 56 35.6875 56 
Q 41.65625 56 45.828125 52.96875 
Q 50 49.953125 52 44.1875 
z
" id="DejaVuSans-109"/>
      <path d="M 9.421875 75.984375 
L 18.40625 75.984375 
L 18.40625 0 
L 9.421875 0 
z
" id="DejaVuSans-108"/>
      <path d="M 8.015625 75.875 
L 15.828125 75.875 
Q 23.140625 64.359375 26.78125 53.3125 
Q 30.421875 42.28125 30.421875 31.390625 
Q 30.421875 20.453125 26.78125 9.375 
Q 23.140625 -1.703125 15.828125 -13.1875 
L 8.015625 -13.1875 
Q 14.5 -2 17.703125 9.0625 
Q 20.90625 20.125 20.90625 31.390625 
Q 20.90625 42.671875 17.703125 53.65625 
Q 14.5 64.65625 8.015625 75.875 
z
" id="DejaVuSans-41"/>
     </defs>
     <g transform="translate(25.99625 134.309687)rotate(-90)scale(0.1 -0.1)">
      <use xlink:href="#DejaVuSans-40"/>
      <use x="39.013672" xlink:href="#DejaVuSans-112"/>
      <use x="102.490234" xlink:href="#DejaVuSans-101"/>
      <use x="164.013672" xlink:href="#DejaVuSans-114"/>
      <use x="205.126953" xlink:href="#DejaVuSans-32"/>
      <use x="236.914062" xlink:href="#DejaVuSans-109"/>
      <use x="334.326172" xlink:href="#DejaVuSans-105"/>
      <use x="362.109375" xlink:href="#DejaVuSans-108"/>
      <use x="389.892578" xlink:href="#DejaVuSans-108"/>
      <use x="417.675781" xlink:href="#DejaVuSans-105"/>
      <use x="445.458984" xlink:href="#DejaVuSans-111"/>
      <use x="506.640625" xlink:href="#DejaVuSans-110"/>
      <use x="570.019531" xlink:href="#DejaVuSans-41"/>
     </g>
    </g>
   </g>
   <g id="line2d_41">
    <path clip-path="url(#p95f8923f77)" d="M 58.163437 218.865034 
L 62.403098 218.865034 
L 66.642758 218.865034 
L 70.882418 151.732833 
L 75.122079 137.995001 
L 79.361739 125.474805 
L 83.601399 108.36538 
L 87.84106 114.740041 
L 92.08072 108.009584 
L 96.32038 117.635963 
L 100.560041 103.802278 
L 104.799701 92.078326 
L 109.039361 89.576412 
L 113.279022 82.379266 
L 117.518682 89.048237 
L 121.758342 88.601309 
L 125.998003 81.448799 
L 130.237663 95.117601 
L 134.477323 86.533604 
L 138.716984 102.083823 
L 142.956644 94.517798 
L 147.196304 104.681643 
L 151.435965 114.863115 
L 155.675625 146.446905 
L 159.915285 107.062027 
L 164.154946 122.394414 
L 168.394606 123.121948 
L 172.634266 123.685176 
L 176.873926 130.653247 
L 181.113587 131.196446 
L 185.353247 128.614668 
L 189.592907 126.541478 
L 193.832568 116.534679 
L 198.072228 127.8999 
L 202.311888 117.215973 
L 206.551549 125.474805 
L 210.791209 134.153628 
L 215.030869 130.653247 
L 219.27053 125.063301 
L 223.51019 124.264422 
L 227.74985 126.984295 
L 231.989511 117.355009 
L 236.229171 124.069504 
L 240.468831 130.124157 
L 244.708492 120.518137 
L 248.948152 124.860625 
L 253.187812 127.436953 
L 257.427473 128.13538 
L 261.667133 126.323628 
L 265.906793 129.355433 
L 270.146454 140.442195 
L 274.386114 140.442195 
L 278.625774 137.995001 
L 282.865435 144.242725 
L 287.105095 151.732833 
L 291.344755 149.586767 
L 295.584415 148.272196 
L 299.824076 153.300436 
L 304.063736 151.732833 
L 308.303396 151.732833 
L 312.543057 155.904247 
L 316.782717 155.904247 
L 321.022377 159.991666 
L 325.262038 176.509331 
L 329.501698 166.620125 
L 333.741358 174.110233 
L 337.981019 170.022815 
L 342.220679 176.509331 
L 346.460339 182.369066 
L 350.7 171.964167 
L 354.93966 171.964167 
L 359.17932 171.964167 
L 363.418981 165.110636 
L 367.658641 174.110233 
L 371.898301 190.627899 
L 376.137962 174.110233 
" style="fill:none;stroke:#d62728;stroke-linecap:square;stroke-width:1.5;"/>
    <defs>
     <path d="M 0 3 
C 0.795609 3 1.55874 2.683901 2.12132 2.12132 
C 2.683901 1.55874 3 0.795609 3 0 
C 3 -0.795609 2.683901 -1.55874 2.12132 -2.12132 
C 1.55874 -2.683901 0.795609 -3 0 -3 
C -0.795609 -3 -1.55874 -2.683901 -2.12132 -2.12132 
C -2.683901 -1.55874 -3 -0.795609 -3 0 
C -3 0.795609 -2.683901 1.55874 -2.12132 2.12132 
C -1.55874 2.683901 -0.795609 3 0 3 
z
" id="m9e2174f997" style="stroke:#d62728;"/>
    </defs>
    <g clip-path="url(#p95f8923f77)">
     <use style="fill:#d62728;stroke:#d62728;" x="58.163437" xlink:href="#m9e2174f997" y="218.865034"/>
     <use style="fill:#d62728;stroke:#d62728;" x="62.403098" xlink:href="#m9e2174f997" y="218.865034"/>
     <use style="fill:#d62728;stroke:#d62728;" x="66.642758" xlink:href="#m9e2174f997" y="218.865034"/>
     <use style="fill:#d62728;stroke:#d62728;" x="70.882418" xlink:href="#m9e2174f997" y="151.732833"/>
     <use style="fill:#d62728;stroke:#d62728;" x="75.122079" xlink:href="#m9e2174f997" y="137.995001"/>
     <use style="fill:#d62728;stroke:#d62728;" x="79.361739" xlink:href="#m9e2174f997" y="125.474805"/>
     <use style="fill:#d62728;stroke:#d62728;" x="83.601399" xlink:href="#m9e2174f997" y="108.36538"/>
     <use style="fill:#d62728;stroke:#d62728;" x="87.84106" xlink:href="#m9e2174f997" y="114.740041"/>
     <use style="fill:#d62728;stroke:#d62728;" x="92.08072" xlink:href="#m9e2174f997" y="108.009584"/>
     <use style="fill:#d62728;stroke:#d62728;" x="96.32038" xlink:href="#m9e2174f997" y="117.635963"/>
     <use style="fill:#d62728;stroke:#d62728;" x="100.560041" xlink:href="#m9e2174f997" y="103.802278"/>
     <use style="fill:#d62728;stroke:#d62728;" x="104.799701" xlink:href="#m9e2174f997" y="92.078326"/>
     <use style="fill:#d62728;stroke:#d62728;" x="109.039361" xlink:href="#m9e2174f997" y="89.576412"/>
     <use style="fill:#d62728;stroke:#d62728;" x="113.279022" xlink:href="#m9e2174f997" y="82.379266"/>
     <use style="fill:#d62728;stroke:#d62728;" x="117.518682" xlink:href="#m9e2174f997" y="89.048237"/>
     <use style="fill:#d62728;stroke:#d62728;" x="121.758342" xlink:href="#m9e2174f997" y="88.601309"/>
     <use style="fill:#d62728;stroke:#d62728;" x="125.998003" xlink:href="#m9e2174f997" y="81.448799"/>
     <use style="fill:#d62728;stroke:#d62728;" x="130.237663" xlink:href="#m9e2174f997" y="95.117601"/>
     <use style="fill:#d62728;stroke:#d62728;" x="134.477323" xlink:href="#m9e2174f997" y="86.533604"/>
     <use style="fill:#d62728;stroke:#d62728;" x="138.716984" xlink:href="#m9e2174f997" y="102.083823"/>
     <use style="fill:#d62728;stroke:#d62728;" x="142.956644" xlink:href="#m9e2174f997" y="94.517798"/>
     <use style="fill:#d62728;stroke:#d62728;" x="147.196304" xlink:href="#m9e2174f997" y="104.681643"/>
     <use style="fill:#d62728;stroke:#d62728;" x="151.435965" xlink:href="#m9e2174f997" y="114.863115"/>
     <use style="fill:#d62728;stroke:#d62728;" x="155.675625" xlink:href="#m9e2174f997" y="146.446905"/>
     <use style="fill:#d62728;stroke:#d62728;" x="159.915285" xlink:href="#m9e2174f997" y="107.062027"/>
     <use style="fill:#d62728;stroke:#d62728;" x="164.154946" xlink:href="#m9e2174f997" y="122.394414"/>
     <use style="fill:#d62728;stroke:#d62728;" x="168.394606" xlink:href="#m9e2174f997" y="123.121948"/>
     <use style="fill:#d62728;stroke:#d62728;" x="172.634266" xlink:href="#m9e2174f997" y="123.685176"/>
     <use style="fill:#d62728;stroke:#d62728;" x="176.873926" xlink:href="#m9e2174f997" y="130.653247"/>
     <use style="fill:#d62728;stroke:#d62728;" x="181.113587" xlink:href="#m9e2174f997" y="131.196446"/>
     <use style="fill:#d62728;stroke:#d62728;" x="185.353247" xlink:href="#m9e2174f997" y="128.614668"/>
     <use style="fill:#d62728;stroke:#d62728;" x="189.592907" xlink:href="#m9e2174f997" y="126.541478"/>
     <use style="fill:#d62728;stroke:#d62728;" x="193.832568" xlink:href="#m9e2174f997" y="116.534679"/>
     <use style="fill:#d62728;stroke:#d62728;" x="198.072228" xlink:href="#m9e2174f997" y="127.8999"/>
     <use style="fill:#d62728;stroke:#d62728;" x="202.311888" xlink:href="#m9e2174f997" y="117.215973"/>
     <use style="fill:#d62728;stroke:#d62728;" x="206.551549" xlink:href="#m9e2174f997" y="125.474805"/>
     <use style="fill:#d62728;stroke:#d62728;" x="210.791209" xlink:href="#m9e2174f997" y="134.153628"/>
     <use style="fill:#d62728;stroke:#d62728;" x="215.030869" xlink:href="#m9e2174f997" y="130.653247"/>
     <use style="fill:#d62728;stroke:#d62728;" x="219.27053" xlink:href="#m9e2174f997" y="125.063301"/>
     <use style="fill:#d62728;stroke:#d62728;" x="223.51019" xlink:href="#m9e2174f997" y="124.264422"/>
     <use style="fill:#d62728;stroke:#d62728;" x="227.74985" xlink:href="#m9e2174f997" y="126.984295"/>
     <use style="fill:#d62728;stroke:#d62728;" x="231.989511" xlink:href="#m9e2174f997" y="117.355009"/>
     <use style="fill:#d62728;stroke:#d62728;" x="236.229171" xlink:href="#m9e2174f997" y="124.069504"/>
     <use style="fill:#d62728;stroke:#d62728;" x="240.468831" xlink:href="#m9e2174f997" y="130.124157"/>
     <use style="fill:#d62728;stroke:#d62728;" x="244.708492" xlink:href="#m9e2174f997" y="120.518137"/>
     <use style="fill:#d62728;stroke:#d62728;" x="248.948152" xlink:href="#m9e2174f997" y="124.860625"/>
     <use style="fill:#d62728;stroke:#d62728;" x="253.187812" xlink:href="#m9e2174f997" y="127.436953"/>
     <use style="fill:#d62728;stroke:#d62728;" x="257.427473" xlink:href="#m9e2174f997" y="128.13538"/>
     <use style="fill:#d62728;stroke:#d62728;" x="261.667133" xlink:href="#m9e2174f997" y="126.323628"/>
     <use style="fill:#d62728;stroke:#d62728;" x="265.906793" xlink:href="#m9e2174f997" y="129.355433"/>
     <use style="fill:#d62728;stroke:#d62728;" x="270.146454" xlink:href="#m9e2174f997" y="140.442195"/>
     <use style="fill:#d62728;stroke:#d62728;" x="274.386114" xlink:href="#m9e2174f997" y="140.442195"/>
     <use style="fill:#d62728;stroke:#d62728;" x="278.625774" xlink:href="#m9e2174f997" y="137.995001"/>
     <use style="fill:#d62728;stroke:#d62728;" x="282.865435" xlink:href="#m9e2174f997" y="144.242725"/>
     <use style="fill:#d62728;stroke:#d62728;" x="287.105095" xlink:href="#m9e2174f997" y="151.732833"/>
     <use style="fill:#d62728;stroke:#d62728;" x="291.344755" xlink:href="#m9e2174f997" y="149.586767"/>
     <use style="fill:#d62728;stroke:#d62728;" x="295.584415" xlink:href="#m9e2174f997" y="148.272196"/>
     <use style="fill:#d62728;stroke:#d62728;" x="299.824076" xlink:href="#m9e2174f997" y="153.300436"/>
     <use style="fill:#d62728;stroke:#d62728;" x="304.063736" xlink:href="#m9e2174f997" y="151.732833"/>
     <use style="fill:#d62728;stroke:#d62728;" x="308.303396" xlink:href="#m9e2174f997" y="151.732833"/>
     <use style="fill:#d62728;stroke:#d62728;" x="312.543057" xlink:href="#m9e2174f997" y="155.904247"/>
     <use style="fill:#d62728;stroke:#d62728;" x="316.782717" xlink:href="#m9e2174f997" y="155.904247"/>
     <use style="fill:#d62728;stroke:#d62728;" x="321.022377" xlink:href="#m9e2174f997" y="159.991666"/>
     <use style="fill:#d62728;stroke:#d62728;" x="325.262038" xlink:href="#m9e2174f997" y="176.509331"/>
     <use style="fill:#d62728;stroke:#d62728;" x="329.501698" xlink:href="#m9e2174f997" y="166.620125"/>
     <use style="fill:#d62728;stroke:#d62728;" x="333.741358" xlink:href="#m9e2174f997" y="174.110233"/>
     <use style="fill:#d62728;stroke:#d62728;" x="337.981019" xlink:href="#m9e2174f997" y="170.022815"/>
     <use style="fill:#d62728;stroke:#d62728;" x="342.220679" xlink:href="#m9e2174f997" y="176.509331"/>
     <use style="fill:#d62728;stroke:#d62728;" x="346.460339" xlink:href="#m9e2174f997" y="182.369066"/>
     <use style="fill:#d62728;stroke:#d62728;" x="350.7" xlink:href="#m9e2174f997" y="171.964167"/>
     <use style="fill:#d62728;stroke:#d62728;" x="354.93966" xlink:href="#m9e2174f997" y="171.964167"/>
     <use style="fill:#d62728;stroke:#d62728;" x="359.17932" xlink:href="#m9e2174f997" y="171.964167"/>
     <use style="fill:#d62728;stroke:#d62728;" x="363.418981" xlink:href="#m9e2174f997" y="165.110636"/>
     <use style="fill:#d62728;stroke:#d62728;" x="367.658641" xlink:href="#m9e2174f997" y="174.110233"/>
     <use style="fill:#d62728;stroke:#d62728;" x="371.898301" xlink:href="#m9e2174f997" y="190.627899"/>
     <use style="fill:#d62728;stroke:#d62728;" x="376.137962" xlink:href="#m9e2174f997" y="174.110233"/>
    </g>
   </g>
   <g id="line2d_42">
    <path clip-path="url(#p95f8923f77)" d="M 75.11771 270.245725 
L 75.122079 222.001609 
L 79.361739 164.292488 
L 83.601399 139.295308 
L 87.84106 133.260733 
L 92.08072 134.891106 
L 96.32038 129.460203 
L 100.560041 120.352548 
L 104.799701 115.66929 
L 109.039361 110.883332 
L 113.279022 110.452687 
L 117.518682 92.641767 
L 121.758342 103.57482 
L 125.998003 96.851997 
L 130.237663 92.150083 
L 134.477323 86.649163 
L 138.716984 86.412161 
L 142.956644 76.80279 
L 147.196304 73.149101 
L 151.435965 69.360484 
L 155.675625 81.772963 
L 159.915285 64.218857 
L 164.154946 61.440726 
L 168.394606 62.2559 
L 172.634266 55.799213 
L 176.873926 55.264599 
L 181.113587 57.39806 
L 185.353247 55.630995 
L 189.592907 52.034158 
L 193.832568 47.245469 
L 198.072228 44.850624 
L 202.311888 42.994829 
L 206.551549 46.354356 
L 210.791209 49.394937 
L 215.030869 47.526794 
L 219.27053 47.678699 
L 223.51019 44.125299 
L 227.74985 45.114335 
L 231.989511 44.891498 
L 236.229171 47.651351 
L 240.468831 52.808842 
L 244.708492 52.79376 
L 248.948152 49.424732 
L 253.187812 49.916193 
L 257.427473 50.281621 
L 261.667133 49.326999 
L 265.906793 51.51314 
L 270.146454 55.213599 
L 274.386114 58.658521 
L 278.625774 53.914597 
L 282.865435 52.048688 
L 287.105095 53.312933 
L 291.344755 49.803057 
L 295.584415 52.598698 
L 299.824076 57.908423 
L 304.063736 59.112611 
L 308.303396 61.318161 
L 312.543057 54.181838 
L 316.782717 55.822525 
L 321.022377 55.834191 
L 325.262038 58.604972 
L 329.501698 64.7271 
L 333.741358 60.850066 
L 337.981019 56.55271 
L 342.220679 61.47918 
L 346.460339 58.779524 
L 350.7 63.835022 
L 354.93966 64.122218 
L 359.17932 70.028751 
L 363.418981 66.274128 
L 367.658641 66.322892 
L 371.898301 68.527629 
L 376.137962 67.540051 
" style="fill:none;stroke:#2ca02c;stroke-linecap:square;stroke-width:1.5;"/>
    <defs>
     <path d="M 0 3 
C 0.795609 3 1.55874 2.683901 2.12132 2.12132 
C 2.683901 1.55874 3 0.795609 3 0 
C 3 -0.795609 2.683901 -1.55874 2.12132 -2.12132 
C 1.55874 -2.683901 0.795609 -3 0 -3 
C -0.795609 -3 -1.55874 -2.683901 -2.12132 -2.12132 
C -2.683901 -1.55874 -3 -0.795609 -3 0 
C -3 0.795609 -2.683901 1.55874 -2.12132 2.12132 
C -1.55874 2.683901 -0.795609 3 0 3 
z
" id="m2ae0ebbd87" style="stroke:#2ca02c;"/>
    </defs>
    <g clip-path="url(#p95f8923f77)">
     <use style="fill:#2ca02c;stroke:#2ca02c;" x="73.386574" xlink:href="#m2ae0ebbd87" y="19386.6922"/>
     <use style="fill:#2ca02c;stroke:#2ca02c;" x="75.122079" xlink:href="#m2ae0ebbd87" y="222.001609"/>
     <use style="fill:#2ca02c;stroke:#2ca02c;" x="79.361739" xlink:href="#m2ae0ebbd87" y="164.292488"/>
     <use style="fill:#2ca02c;stroke:#2ca02c;" x="83.601399" xlink:href="#m2ae0ebbd87" y="139.295308"/>
     <use style="fill:#2ca02c;stroke:#2ca02c;" x="87.84106" xlink:href="#m2ae0ebbd87" y="133.260733"/>
     <use style="fill:#2ca02c;stroke:#2ca02c;" x="92.08072" xlink:href="#m2ae0ebbd87" y="134.891106"/>
     <use style="fill:#2ca02c;stroke:#2ca02c;" x="96.32038" xlink:href="#m2ae0ebbd87" y="129.460203"/>
     <use style="fill:#2ca02c;stroke:#2ca02c;" x="100.560041" xlink:href="#m2ae0ebbd87" y="120.352548"/>
     <use style="fill:#2ca02c;stroke:#2ca02c;" x="104.799701" xlink:href="#m2ae0ebbd87" y="115.66929"/>
     <use style="fill:#2ca02c;stroke:#2ca02c;" x="109.039361" xlink:href="#m2ae0ebbd87" y="110.883332"/>
     <use style="fill:#2ca02c;stroke:#2ca02c;" x="113.279022" xlink:href="#m2ae0ebbd87" y="110.452687"/>
     <use style="fill:#2ca02c;stroke:#2ca02c;" x="117.518682" xlink:href="#m2ae0ebbd87" y="92.641767"/>
     <use style="fill:#2ca02c;stroke:#2ca02c;" x="121.758342" xlink:href="#m2ae0ebbd87" y="103.57482"/>
     <use style="fill:#2ca02c;stroke:#2ca02c;" x="125.998003" xlink:href="#m2ae0ebbd87" y="96.851997"/>
     <use style="fill:#2ca02c;stroke:#2ca02c;" x="130.237663" xlink:href="#m2ae0ebbd87" y="92.150083"/>
     <use style="fill:#2ca02c;stroke:#2ca02c;" x="134.477323" xlink:href="#m2ae0ebbd87" y="86.649163"/>
     <use style="fill:#2ca02c;stroke:#2ca02c;" x="138.716984" xlink:href="#m2ae0ebbd87" y="86.412161"/>
     <use style="fill:#2ca02c;stroke:#2ca02c;" x="142.956644" xlink:href="#m2ae0ebbd87" y="76.80279"/>
     <use style="fill:#2ca02c;stroke:#2ca02c;" x="147.196304" xlink:href="#m2ae0ebbd87" y="73.149101"/>
     <use style="fill:#2ca02c;stroke:#2ca02c;" x="151.435965" xlink:href="#m2ae0ebbd87" y="69.360484"/>
     <use style="fill:#2ca02c;stroke:#2ca02c;" x="155.675625" xlink:href="#m2ae0ebbd87" y="81.772963"/>
     <use style="fill:#2ca02c;stroke:#2ca02c;" x="159.915285" xlink:href="#m2ae0ebbd87" y="64.218857"/>
     <use style="fill:#2ca02c;stroke:#2ca02c;" x="164.154946" xlink:href="#m2ae0ebbd87" y="61.440726"/>
     <use style="fill:#2ca02c;stroke:#2ca02c;" x="168.394606" xlink:href="#m2ae0ebbd87" y="62.2559"/>
     <use style="fill:#2ca02c;stroke:#2ca02c;" x="172.634266" xlink:href="#m2ae0ebbd87" y="55.799213"/>
     <use style="fill:#2ca02c;stroke:#2ca02c;" x="176.873926" xlink:href="#m2ae0ebbd87" y="55.264599"/>
     <use style="fill:#2ca02c;stroke:#2ca02c;" x="181.113587" xlink:href="#m2ae0ebbd87" y="57.39806"/>
     <use style="fill:#2ca02c;stroke:#2ca02c;" x="185.353247" xlink:href="#m2ae0ebbd87" y="55.630995"/>
     <use style="fill:#2ca02c;stroke:#2ca02c;" x="189.592907" xlink:href="#m2ae0ebbd87" y="52.034158"/>
     <use style="fill:#2ca02c;stroke:#2ca02c;" x="193.832568" xlink:href="#m2ae0ebbd87" y="47.245469"/>
     <use style="fill:#2ca02c;stroke:#2ca02c;" x="198.072228" xlink:href="#m2ae0ebbd87" y="44.850624"/>
     <use style="fill:#2ca02c;stroke:#2ca02c;" x="202.311888" xlink:href="#m2ae0ebbd87" y="42.994829"/>
     <use style="fill:#2ca02c;stroke:#2ca02c;" x="206.551549" xlink:href="#m2ae0ebbd87" y="46.354356"/>
     <use style="fill:#2ca02c;stroke:#2ca02c;" x="210.791209" xlink:href="#m2ae0ebbd87" y="49.394937"/>
     <use style="fill:#2ca02c;stroke:#2ca02c;" x="215.030869" xlink:href="#m2ae0ebbd87" y="47.526794"/>
     <use style="fill:#2ca02c;stroke:#2ca02c;" x="219.27053" xlink:href="#m2ae0ebbd87" y="47.678699"/>
     <use style="fill:#2ca02c;stroke:#2ca02c;" x="223.51019" xlink:href="#m2ae0ebbd87" y="44.125299"/>
     <use style="fill:#2ca02c;stroke:#2ca02c;" x="227.74985" xlink:href="#m2ae0ebbd87" y="45.114335"/>
     <use style="fill:#2ca02c;stroke:#2ca02c;" x="231.989511" xlink:href="#m2ae0ebbd87" y="44.891498"/>
     <use style="fill:#2ca02c;stroke:#2ca02c;" x="236.229171" xlink:href="#m2ae0ebbd87" y="47.651351"/>
     <use style="fill:#2ca02c;stroke:#2ca02c;" x="240.468831" xlink:href="#m2ae0ebbd87" y="52.808842"/>
     <use style="fill:#2ca02c;stroke:#2ca02c;" x="244.708492" xlink:href="#m2ae0ebbd87" y="52.79376"/>
     <use style="fill:#2ca02c;stroke:#2ca02c;" x="248.948152" xlink:href="#m2ae0ebbd87" y="49.424732"/>
     <use style="fill:#2ca02c;stroke:#2ca02c;" x="253.187812" xlink:href="#m2ae0ebbd87" y="49.916193"/>
     <use style="fill:#2ca02c;stroke:#2ca02c;" x="257.427473" xlink:href="#m2ae0ebbd87" y="50.281621"/>
     <use style="fill:#2ca02c;stroke:#2ca02c;" x="261.667133" xlink:href="#m2ae0ebbd87" y="49.326999"/>
     <use style="fill:#2ca02c;stroke:#2ca02c;" x="265.906793" xlink:href="#m2ae0ebbd87" y="51.51314"/>
     <use style="fill:#2ca02c;stroke:#2ca02c;" x="270.146454" xlink:href="#m2ae0ebbd87" y="55.213599"/>
     <use style="fill:#2ca02c;stroke:#2ca02c;" x="274.386114" xlink:href="#m2ae0ebbd87" y="58.658521"/>
     <use style="fill:#2ca02c;stroke:#2ca02c;" x="278.625774" xlink:href="#m2ae0ebbd87" y="53.914597"/>
     <use style="fill:#2ca02c;stroke:#2ca02c;" x="282.865435" xlink:href="#m2ae0ebbd87" y="52.048688"/>
     <use style="fill:#2ca02c;stroke:#2ca02c;" x="287.105095" xlink:href="#m2ae0ebbd87" y="53.312933"/>
     <use style="fill:#2ca02c;stroke:#2ca02c;" x="291.344755" xlink:href="#m2ae0ebbd87" y="49.803057"/>
     <use style="fill:#2ca02c;stroke:#2ca02c;" x="295.584415" xlink:href="#m2ae0ebbd87" y="52.598698"/>
     <use style="fill:#2ca02c;stroke:#2ca02c;" x="299.824076" xlink:href="#m2ae0ebbd87" y="57.908423"/>
     <use style="fill:#2ca02c;stroke:#2ca02c;" x="304.063736" xlink:href="#m2ae0ebbd87" y="59.112611"/>
     <use style="fill:#2ca02c;stroke:#2ca02c;" x="308.303396" xlink:href="#m2ae0ebbd87" y="61.318161"/>
     <use style="fill:#2ca02c;stroke:#2ca02c;" x="312.543057" xlink:href="#m2ae0ebbd87" y="54.181838"/>
     <use style="fill:#2ca02c;stroke:#2ca02c;" x="316.782717" xlink:href="#m2ae0ebbd87" y="55.822525"/>
     <use style="fill:#2ca02c;stroke:#2ca02c;" x="321.022377" xlink:href="#m2ae0ebbd87" y="55.834191"/>
     <use style="fill:#2ca02c;stroke:#2ca02c;" x="325.262038" xlink:href="#m2ae0ebbd87" y="58.604972"/>
     <use style="fill:#2ca02c;stroke:#2ca02c;" x="329.501698" xlink:href="#m2ae0ebbd87" y="64.7271"/>
     <use style="fill:#2ca02c;stroke:#2ca02c;" x="333.741358" xlink:href="#m2ae0ebbd87" y="60.850066"/>
     <use style="fill:#2ca02c;stroke:#2ca02c;" x="337.981019" xlink:href="#m2ae0ebbd87" y="56.55271"/>
     <use style="fill:#2ca02c;stroke:#2ca02c;" x="342.220679" xlink:href="#m2ae0ebbd87" y="61.47918"/>
     <use style="fill:#2ca02c;stroke:#2ca02c;" x="346.460339" xlink:href="#m2ae0ebbd87" y="58.779524"/>
     <use style="fill:#2ca02c;stroke:#2ca02c;" x="350.7" xlink:href="#m2ae0ebbd87" y="63.835022"/>
     <use style="fill:#2ca02c;stroke:#2ca02c;" x="354.93966" xlink:href="#m2ae0ebbd87" y="64.122218"/>
     <use style="fill:#2ca02c;stroke:#2ca02c;" x="359.17932" xlink:href="#m2ae0ebbd87" y="70.028751"/>
     <use style="fill:#2ca02c;stroke:#2ca02c;" x="363.418981" xlink:href="#m2ae0ebbd87" y="66.274128"/>
     <use style="fill:#2ca02c;stroke:#2ca02c;" x="367.658641" xlink:href="#m2ae0ebbd87" y="66.322892"/>
     <use style="fill:#2ca02c;stroke:#2ca02c;" x="371.898301" xlink:href="#m2ae0ebbd87" y="68.527629"/>
     <use style="fill:#2ca02c;stroke:#2ca02c;" x="376.137962" xlink:href="#m2ae0ebbd87" y="67.540051"/>
    </g>
   </g>
   <g id="line2d_43">
    <path clip-path="url(#p95f8923f77)" d="M 87.834346 270.245725 
L 87.84106 196.069858 
L 87.847773 270.245725 
M 104.793517 270.245725 
L 104.799701 201.929593 
L 109.039361 196.069858 
L 113.279022 201.929593 
L 117.518682 172.062085 
L 121.758342 201.929593 
L 125.998003 173.692458 
L 130.237663 151.315058 
L 134.477323 155.71926 
L 138.716984 145.455323 
L 142.956644 146.769894 
L 147.196304 138.063378 
L 151.435965 147.695907 
L 155.675625 140.24227 
L 159.915285 135.828944 
L 164.154946 125.161218 
L 168.394606 115.587814 
L 172.634266 105.458973 
L 176.873926 111.760217 
L 181.113587 121.976639 
L 185.353247 101.914754 
L 189.592907 91.580041 
L 193.832568 92.599465 
L 198.072228 90.466074 
L 202.311888 82.903678 
L 206.551549 91.914212 
L 210.791209 84.287905 
L 215.030869 76.361776 
L 219.27053 76.008019 
L 223.51019 68.212671 
L 227.74985 62.023156 
L 231.989511 64.569283 
L 236.229171 65.493994 
L 240.468831 63.993477 
L 244.708492 61.165979 
L 248.948152 53.780804 
L 253.187812 54.161185 
L 257.427473 53.195747 
L 261.667133 56.763468 
L 265.906793 47.440412 
L 270.146454 56.401323 
L 274.386114 57.321855 
L 278.625774 48.9141 
L 282.865435 53.686809 
L 287.105095 39.584659 
L 291.344755 49.894362 
L 295.584415 49.681398 
L 299.824076 53.696189 
L 304.063736 49.82054 
L 308.303396 52.507198 
L 312.543057 52.44534 
L 316.782717 48.517365 
L 321.022377 48.788367 
L 325.262038 47.624119 
L 329.501698 52.186699 
L 333.741358 53.889438 
L 337.981019 53.191171 
L 342.220679 52.595893 
L 346.460339 49.307368 
L 350.7 51.179632 
L 354.93966 53.13633 
L 359.17932 53.851587 
L 363.418981 55.387638 
L 367.658641 54.983882 
L 371.898301 47.000081 
L 376.137962 46.437252 
" style="fill:none;stroke:#1f77b4;stroke-linecap:square;stroke-width:1.5;"/>
    <defs>
     <path d="M 0 3 
C 0.795609 3 1.55874 2.683901 2.12132 2.12132 
C 2.683901 1.55874 3 0.795609 3 0 
C 3 -0.795609 2.683901 -1.55874 2.12132 -2.12132 
C 1.55874 -2.683901 0.795609 -3 0 -3 
C -0.795609 -3 -1.55874 -2.683901 -2.12132 -2.12132 
C -2.683901 -1.55874 -3 -0.795609 -3 0 
C -3 0.795609 -2.683901 1.55874 -2.12132 2.12132 
C -1.55874 2.683901 -0.795609 3 0 3 
z
" id="md5b336b301" style="stroke:#1f77b4;"/>
    </defs>
    <g clip-path="url(#p95f8923f77)">
     <use style="fill:#1f77b4;stroke:#1f77b4;" x="86.104168" xlink:href="#md5b336b301" y="19386.6922"/>
     <use style="fill:#1f77b4;stroke:#1f77b4;" x="87.84106" xlink:href="#md5b336b301" y="196.069858"/>
     <use style="fill:#1f77b4;stroke:#1f77b4;" x="89.577951" xlink:href="#md5b336b301" y="19386.6922"/>
     <use style="fill:#1f77b4;stroke:#1f77b4;" x="103.063123" xlink:href="#md5b336b301" y="19386.6922"/>
     <use style="fill:#1f77b4;stroke:#1f77b4;" x="104.799701" xlink:href="#md5b336b301" y="201.929593"/>
     <use style="fill:#1f77b4;stroke:#1f77b4;" x="109.039361" xlink:href="#md5b336b301" y="196.069858"/>
     <use style="fill:#1f77b4;stroke:#1f77b4;" x="113.279022" xlink:href="#md5b336b301" y="201.929593"/>
     <use style="fill:#1f77b4;stroke:#1f77b4;" x="117.518682" xlink:href="#md5b336b301" y="172.062085"/>
     <use style="fill:#1f77b4;stroke:#1f77b4;" x="121.758342" xlink:href="#md5b336b301" y="201.929593"/>
     <use style="fill:#1f77b4;stroke:#1f77b4;" x="125.998003" xlink:href="#md5b336b301" y="173.692458"/>
     <use style="fill:#1f77b4;stroke:#1f77b4;" x="130.237663" xlink:href="#md5b336b301" y="151.315058"/>
     <use style="fill:#1f77b4;stroke:#1f77b4;" x="134.477323" xlink:href="#md5b336b301" y="155.71926"/>
     <use style="fill:#1f77b4;stroke:#1f77b4;" x="138.716984" xlink:href="#md5b336b301" y="145.455323"/>
     <use style="fill:#1f77b4;stroke:#1f77b4;" x="142.956644" xlink:href="#md5b336b301" y="146.769894"/>
     <use style="fill:#1f77b4;stroke:#1f77b4;" x="147.196304" xlink:href="#md5b336b301" y="138.063378"/>
     <use style="fill:#1f77b4;stroke:#1f77b4;" x="151.435965" xlink:href="#md5b336b301" y="147.695907"/>
     <use style="fill:#1f77b4;stroke:#1f77b4;" x="155.675625" xlink:href="#md5b336b301" y="140.24227"/>
     <use style="fill:#1f77b4;stroke:#1f77b4;" x="159.915285" xlink:href="#md5b336b301" y="135.828944"/>
     <use style="fill:#1f77b4;stroke:#1f77b4;" x="164.154946" xlink:href="#md5b336b301" y="125.161218"/>
     <use style="fill:#1f77b4;stroke:#1f77b4;" x="168.394606" xlink:href="#md5b336b301" y="115.587814"/>
     <use style="fill:#1f77b4;stroke:#1f77b4;" x="172.634266" xlink:href="#md5b336b301" y="105.458973"/>
     <use style="fill:#1f77b4;stroke:#1f77b4;" x="176.873926" xlink:href="#md5b336b301" y="111.760217"/>
     <use style="fill:#1f77b4;stroke:#1f77b4;" x="181.113587" xlink:href="#md5b336b301" y="121.976639"/>
     <use style="fill:#1f77b4;stroke:#1f77b4;" x="185.353247" xlink:href="#md5b336b301" y="101.914754"/>
     <use style="fill:#1f77b4;stroke:#1f77b4;" x="189.592907" xlink:href="#md5b336b301" y="91.580041"/>
     <use style="fill:#1f77b4;stroke:#1f77b4;" x="193.832568" xlink:href="#md5b336b301" y="92.599465"/>
     <use style="fill:#1f77b4;stroke:#1f77b4;" x="198.072228" xlink:href="#md5b336b301" y="90.466074"/>
     <use style="fill:#1f77b4;stroke:#1f77b4;" x="202.311888" xlink:href="#md5b336b301" y="82.903678"/>
     <use style="fill:#1f77b4;stroke:#1f77b4;" x="206.551549" xlink:href="#md5b336b301" y="91.914212"/>
     <use style="fill:#1f77b4;stroke:#1f77b4;" x="210.791209" xlink:href="#md5b336b301" y="84.287905"/>
     <use style="fill:#1f77b4;stroke:#1f77b4;" x="215.030869" xlink:href="#md5b336b301" y="76.361776"/>
     <use style="fill:#1f77b4;stroke:#1f77b4;" x="219.27053" xlink:href="#md5b336b301" y="76.008019"/>
     <use style="fill:#1f77b4;stroke:#1f77b4;" x="223.51019" xlink:href="#md5b336b301" y="68.212671"/>
     <use style="fill:#1f77b4;stroke:#1f77b4;" x="227.74985" xlink:href="#md5b336b301" y="62.023156"/>
     <use style="fill:#1f77b4;stroke:#1f77b4;" x="231.989511" xlink:href="#md5b336b301" y="64.569283"/>
     <use style="fill:#1f77b4;stroke:#1f77b4;" x="236.229171" xlink:href="#md5b336b301" y="65.493994"/>
     <use style="fill:#1f77b4;stroke:#1f77b4;" x="240.468831" xlink:href="#md5b336b301" y="63.993477"/>
     <use style="fill:#1f77b4;stroke:#1f77b4;" x="244.708492" xlink:href="#md5b336b301" y="61.165979"/>
     <use style="fill:#1f77b4;stroke:#1f77b4;" x="248.948152" xlink:href="#md5b336b301" y="53.780804"/>
     <use style="fill:#1f77b4;stroke:#1f77b4;" x="253.187812" xlink:href="#md5b336b301" y="54.161185"/>
     <use style="fill:#1f77b4;stroke:#1f77b4;" x="257.427473" xlink:href="#md5b336b301" y="53.195747"/>
     <use style="fill:#1f77b4;stroke:#1f77b4;" x="261.667133" xlink:href="#md5b336b301" y="56.763468"/>
     <use style="fill:#1f77b4;stroke:#1f77b4;" x="265.906793" xlink:href="#md5b336b301" y="47.440412"/>
     <use style="fill:#1f77b4;stroke:#1f77b4;" x="270.146454" xlink:href="#md5b336b301" y="56.401323"/>
     <use style="fill:#1f77b4;stroke:#1f77b4;" x="274.386114" xlink:href="#md5b336b301" y="57.321855"/>
     <use style="fill:#1f77b4;stroke:#1f77b4;" x="278.625774" xlink:href="#md5b336b301" y="48.9141"/>
     <use style="fill:#1f77b4;stroke:#1f77b4;" x="282.865435" xlink:href="#md5b336b301" y="53.686809"/>
     <use style="fill:#1f77b4;stroke:#1f77b4;" x="287.105095" xlink:href="#md5b336b301" y="39.584659"/>
     <use style="fill:#1f77b4;stroke:#1f77b4;" x="291.344755" xlink:href="#md5b336b301" y="49.894362"/>
     <use style="fill:#1f77b4;stroke:#1f77b4;" x="295.584415" xlink:href="#md5b336b301" y="49.681398"/>
     <use style="fill:#1f77b4;stroke:#1f77b4;" x="299.824076" xlink:href="#md5b336b301" y="53.696189"/>
     <use style="fill:#1f77b4;stroke:#1f77b4;" x="304.063736" xlink:href="#md5b336b301" y="49.82054"/>
     <use style="fill:#1f77b4;stroke:#1f77b4;" x="308.303396" xlink:href="#md5b336b301" y="52.507198"/>
     <use style="fill:#1f77b4;stroke:#1f77b4;" x="312.543057" xlink:href="#md5b336b301" y="52.44534"/>
     <use style="fill:#1f77b4;stroke:#1f77b4;" x="316.782717" xlink:href="#md5b336b301" y="48.517365"/>
     <use style="fill:#1f77b4;stroke:#1f77b4;" x="321.022377" xlink:href="#md5b336b301" y="48.788367"/>
     <use style="fill:#1f77b4;stroke:#1f77b4;" x="325.262038" xlink:href="#md5b336b301" y="47.624119"/>
     <use style="fill:#1f77b4;stroke:#1f77b4;" x="329.501698" xlink:href="#md5b336b301" y="52.186699"/>
     <use style="fill:#1f77b4;stroke:#1f77b4;" x="333.741358" xlink:href="#md5b336b301" y="53.889438"/>
     <use style="fill:#1f77b4;stroke:#1f77b4;" x="337.981019" xlink:href="#md5b336b301" y="53.191171"/>
     <use style="fill:#1f77b4;stroke:#1f77b4;" x="342.220679" xlink:href="#md5b336b301" y="52.595893"/>
     <use style="fill:#1f77b4;stroke:#1f77b4;" x="346.460339" xlink:href="#md5b336b301" y="49.307368"/>
     <use style="fill:#1f77b4;stroke:#1f77b4;" x="350.7" xlink:href="#md5b336b301" y="51.179632"/>
     <use style="fill:#1f77b4;stroke:#1f77b4;" x="354.93966" xlink:href="#md5b336b301" y="53.13633"/>
     <use style="fill:#1f77b4;stroke:#1f77b4;" x="359.17932" xlink:href="#md5b336b301" y="53.851587"/>
     <use style="fill:#1f77b4;stroke:#1f77b4;" x="363.418981" xlink:href="#md5b336b301" y="55.387638"/>
     <use style="fill:#1f77b4;stroke:#1f77b4;" x="367.658641" xlink:href="#md5b336b301" y="54.983882"/>
     <use style="fill:#1f77b4;stroke:#1f77b4;" x="371.898301" xlink:href="#md5b336b301" y="47.000081"/>
     <use style="fill:#1f77b4;stroke:#1f77b4;" x="376.137962" xlink:href="#md5b336b301" y="46.437252"/>
    </g>
   </g>
   <g id="line2d_44">
    <path clip-path="url(#p95f8923f77)" d="M 79.354973 270.245725 
L 79.361739 195.489357 
L 79.368505 270.245725 
M 92.074148 270.245725 
L 92.08072 197.635423 
L 96.32038 228.271655 
L 100.560041 234.131391 
L 100.563312 270.245725 
M 109.03609 270.245725 
L 109.039361 234.131391 
L 113.279022 223.726492 
L 117.518682 216.87296 
L 121.758342 190.944193 
L 125.998003 191.775688 
L 130.237663 184.681102 
L 134.477323 172.11816 
L 138.716984 163.118562 
L 142.956644 159.683922 
L 147.196304 161.520191 
L 151.435965 152.755275 
L 155.675625 141.020191 
L 159.915285 139.859846 
L 164.154946 138.450122 
L 168.394606 127.872605 
L 172.634266 126.622594 
L 176.873926 119.212584 
L 181.113587 116.072722 
L 185.353247 104.372608 
L 189.592907 93.702201 
L 193.832568 84.806581 
L 198.072228 80.523655 
L 202.311888 83.573038 
L 206.551549 70.118036 
L 210.791209 68.206577 
L 215.030869 66.580595 
L 219.27053 62.781999 
L 223.51019 57.536914 
L 227.74985 56.005954 
L 231.989511 55.228421 
L 236.229171 54.592149 
L 240.468831 51.766255 
L 244.708492 50.098699 
L 248.948152 48.717792 
L 253.187812 46.249427 
L 257.427473 44.729654 
L 261.667133 43.671109 
L 265.906793 49.637143 
L 270.146454 45.468923 
L 274.386114 44.052323 
L 278.625774 44.995557 
L 282.865435 44.010879 
L 287.105095 43.925254 
L 291.344755 46.299719 
L 295.584415 48.104166 
L 299.824076 48.685309 
L 304.063736 48.478785 
L 308.303396 46.177223 
L 312.543057 46.541508 
L 316.782717 44.980448 
L 321.022377 47.163046 
L 325.262038 49.354381 
L 329.501698 47.838151 
L 333.741358 49.377014 
L 337.981019 46.422281 
L 342.220679 45.28413 
L 346.460339 41.20583 
L 350.7 43.145666 
L 354.93966 49.04781 
L 359.17932 51.767134 
L 363.418981 49.911056 
L 367.658641 47.623513 
L 371.898301 45.972703 
L 376.137962 42.810295 
" style="fill:none;stroke:#ff7f0e;stroke-linecap:square;stroke-width:1.5;"/>
    <defs>
     <path d="M 0 3 
C 0.795609 3 1.55874 2.683901 2.12132 2.12132 
C 2.683901 1.55874 3 0.795609 3 0 
C 3 -0.795609 2.683901 -1.55874 2.12132 -2.12132 
C 1.55874 -2.683901 0.795609 -3 0 -3 
C -0.795609 -3 -1.55874 -2.683901 -2.12132 -2.12132 
C -2.683901 -1.55874 -3 -0.795609 -3 0 
C -3 0.795609 -2.683901 1.55874 -2.12132 2.12132 
C -1.55874 2.683901 -0.795609 3 0 3 
z
" id="m5e7004e461" style="stroke:#ff7f0e;"/>
    </defs>
    <g clip-path="url(#p95f8923f77)">
     <use style="fill:#ff7f0e;stroke:#ff7f0e;" x="77.624817" xlink:href="#m5e7004e461" y="19386.6922"/>
     <use style="fill:#ff7f0e;stroke:#ff7f0e;" x="79.361739" xlink:href="#m5e7004e461" y="195.489357"/>
     <use style="fill:#ff7f0e;stroke:#ff7f0e;" x="81.098662" xlink:href="#m5e7004e461" y="19386.6922"/>
     <use style="fill:#ff7f0e;stroke:#ff7f0e;" x="90.343912" xlink:href="#m5e7004e461" y="19386.6922"/>
     <use style="fill:#ff7f0e;stroke:#ff7f0e;" x="92.08072" xlink:href="#m5e7004e461" y="197.635423"/>
     <use style="fill:#ff7f0e;stroke:#ff7f0e;" x="96.32038" xlink:href="#m5e7004e461" y="228.271655"/>
     <use style="fill:#ff7f0e;stroke:#ff7f0e;" x="100.560041" xlink:href="#m5e7004e461" y="234.131391"/>
     <use style="fill:#ff7f0e;stroke:#ff7f0e;" x="102.294897" xlink:href="#m5e7004e461" y="19386.6922"/>
     <use style="fill:#ff7f0e;stroke:#ff7f0e;" x="107.304505" xlink:href="#m5e7004e461" y="19386.6922"/>
     <use style="fill:#ff7f0e;stroke:#ff7f0e;" x="109.039361" xlink:href="#m5e7004e461" y="234.131391"/>
     <use style="fill:#ff7f0e;stroke:#ff7f0e;" x="113.279022" xlink:href="#m5e7004e461" y="223.726492"/>
     <use style="fill:#ff7f0e;stroke:#ff7f0e;" x="117.518682" xlink:href="#m5e7004e461" y="216.87296"/>
     <use style="fill:#ff7f0e;stroke:#ff7f0e;" x="121.758342" xlink:href="#m5e7004e461" y="190.944193"/>
     <use style="fill:#ff7f0e;stroke:#ff7f0e;" x="125.998003" xlink:href="#m5e7004e461" y="191.775688"/>
     <use style="fill:#ff7f0e;stroke:#ff7f0e;" x="130.237663" xlink:href="#m5e7004e461" y="184.681102"/>
     <use style="fill:#ff7f0e;stroke:#ff7f0e;" x="134.477323" xlink:href="#m5e7004e461" y="172.11816"/>
     <use style="fill:#ff7f0e;stroke:#ff7f0e;" x="138.716984" xlink:href="#m5e7004e461" y="163.118562"/>
     <use style="fill:#ff7f0e;stroke:#ff7f0e;" x="142.956644" xlink:href="#m5e7004e461" y="159.683922"/>
     <use style="fill:#ff7f0e;stroke:#ff7f0e;" x="147.196304" xlink:href="#m5e7004e461" y="161.520191"/>
     <use style="fill:#ff7f0e;stroke:#ff7f0e;" x="151.435965" xlink:href="#m5e7004e461" y="152.755275"/>
     <use style="fill:#ff7f0e;stroke:#ff7f0e;" x="155.675625" xlink:href="#m5e7004e461" y="141.020191"/>
     <use style="fill:#ff7f0e;stroke:#ff7f0e;" x="159.915285" xlink:href="#m5e7004e461" y="139.859846"/>
     <use style="fill:#ff7f0e;stroke:#ff7f0e;" x="164.154946" xlink:href="#m5e7004e461" y="138.450122"/>
     <use style="fill:#ff7f0e;stroke:#ff7f0e;" x="168.394606" xlink:href="#m5e7004e461" y="127.872605"/>
     <use style="fill:#ff7f0e;stroke:#ff7f0e;" x="172.634266" xlink:href="#m5e7004e461" y="126.622594"/>
     <use style="fill:#ff7f0e;stroke:#ff7f0e;" x="176.873926" xlink:href="#m5e7004e461" y="119.212584"/>
     <use style="fill:#ff7f0e;stroke:#ff7f0e;" x="181.113587" xlink:href="#m5e7004e461" y="116.072722"/>
     <use style="fill:#ff7f0e;stroke:#ff7f0e;" x="185.353247" xlink:href="#m5e7004e461" y="104.372608"/>
     <use style="fill:#ff7f0e;stroke:#ff7f0e;" x="189.592907" xlink:href="#m5e7004e461" y="93.702201"/>
     <use style="fill:#ff7f0e;stroke:#ff7f0e;" x="193.832568" xlink:href="#m5e7004e461" y="84.806581"/>
     <use style="fill:#ff7f0e;stroke:#ff7f0e;" x="198.072228" xlink:href="#m5e7004e461" y="80.523655"/>
     <use style="fill:#ff7f0e;stroke:#ff7f0e;" x="202.311888" xlink:href="#m5e7004e461" y="83.573038"/>
     <use style="fill:#ff7f0e;stroke:#ff7f0e;" x="206.551549" xlink:href="#m5e7004e461" y="70.118036"/>
     <use style="fill:#ff7f0e;stroke:#ff7f0e;" x="210.791209" xlink:href="#m5e7004e461" y="68.206577"/>
     <use style="fill:#ff7f0e;stroke:#ff7f0e;" x="215.030869" xlink:href="#m5e7004e461" y="66.580595"/>
     <use style="fill:#ff7f0e;stroke:#ff7f0e;" x="219.27053" xlink:href="#m5e7004e461" y="62.781999"/>
     <use style="fill:#ff7f0e;stroke:#ff7f0e;" x="223.51019" xlink:href="#m5e7004e461" y="57.536914"/>
     <use style="fill:#ff7f0e;stroke:#ff7f0e;" x="227.74985" xlink:href="#m5e7004e461" y="56.005954"/>
     <use style="fill:#ff7f0e;stroke:#ff7f0e;" x="231.989511" xlink:href="#m5e7004e461" y="55.228421"/>
     <use style="fill:#ff7f0e;stroke:#ff7f0e;" x="236.229171" xlink:href="#m5e7004e461" y="54.592149"/>
     <use style="fill:#ff7f0e;stroke:#ff7f0e;" x="240.468831" xlink:href="#m5e7004e461" y="51.766255"/>
     <use style="fill:#ff7f0e;stroke:#ff7f0e;" x="244.708492" xlink:href="#m5e7004e461" y="50.098699"/>
     <use style="fill:#ff7f0e;stroke:#ff7f0e;" x="248.948152" xlink:href="#m5e7004e461" y="48.717792"/>
     <use style="fill:#ff7f0e;stroke:#ff7f0e;" x="253.187812" xlink:href="#m5e7004e461" y="46.249427"/>
     <use style="fill:#ff7f0e;stroke:#ff7f0e;" x="257.427473" xlink:href="#m5e7004e461" y="44.729654"/>
     <use style="fill:#ff7f0e;stroke:#ff7f0e;" x="261.667133" xlink:href="#m5e7004e461" y="43.671109"/>
     <use style="fill:#ff7f0e;stroke:#ff7f0e;" x="265.906793" xlink:href="#m5e7004e461" y="49.637143"/>
     <use style="fill:#ff7f0e;stroke:#ff7f0e;" x="270.146454" xlink:href="#m5e7004e461" y="45.468923"/>
     <use style="fill:#ff7f0e;stroke:#ff7f0e;" x="274.386114" xlink:href="#m5e7004e461" y="44.052323"/>
     <use style="fill:#ff7f0e;stroke:#ff7f0e;" x="278.625774" xlink:href="#m5e7004e461" y="44.995557"/>
     <use style="fill:#ff7f0e;stroke:#ff7f0e;" x="282.865435" xlink:href="#m5e7004e461" y="44.010879"/>
     <use style="fill:#ff7f0e;stroke:#ff7f0e;" x="287.105095" xlink:href="#m5e7004e461" y="43.925254"/>
     <use style="fill:#ff7f0e;stroke:#ff7f0e;" x="291.344755" xlink:href="#m5e7004e461" y="46.299719"/>
     <use style="fill:#ff7f0e;stroke:#ff7f0e;" x="295.584415" xlink:href="#m5e7004e461" y="48.104166"/>
     <use style="fill:#ff7f0e;stroke:#ff7f0e;" x="299.824076" xlink:href="#m5e7004e461" y="48.685309"/>
     <use style="fill:#ff7f0e;stroke:#ff7f0e;" x="304.063736" xlink:href="#m5e7004e461" y="48.478785"/>
     <use style="fill:#ff7f0e;stroke:#ff7f0e;" x="308.303396" xlink:href="#m5e7004e461" y="46.177223"/>
     <use style="fill:#ff7f0e;stroke:#ff7f0e;" x="312.543057" xlink:href="#m5e7004e461" y="46.541508"/>
     <use style="fill:#ff7f0e;stroke:#ff7f0e;" x="316.782717" xlink:href="#m5e7004e461" y="44.980448"/>
     <use style="fill:#ff7f0e;stroke:#ff7f0e;" x="321.022377" xlink:href="#m5e7004e461" y="47.163046"/>
     <use style="fill:#ff7f0e;stroke:#ff7f0e;" x="325.262038" xlink:href="#m5e7004e461" y="49.354381"/>
     <use style="fill:#ff7f0e;stroke:#ff7f0e;" x="329.501698" xlink:href="#m5e7004e461" y="47.838151"/>
     <use style="fill:#ff7f0e;stroke:#ff7f0e;" x="333.741358" xlink:href="#m5e7004e461" y="49.377014"/>
     <use style="fill:#ff7f0e;stroke:#ff7f0e;" x="337.981019" xlink:href="#m5e7004e461" y="46.422281"/>
     <use style="fill:#ff7f0e;stroke:#ff7f0e;" x="342.220679" xlink:href="#m5e7004e461" y="45.28413"/>
     <use style="fill:#ff7f0e;stroke:#ff7f0e;" x="346.460339" xlink:href="#m5e7004e461" y="41.20583"/>
     <use style="fill:#ff7f0e;stroke:#ff7f0e;" x="350.7" xlink:href="#m5e7004e461" y="43.145666"/>
     <use style="fill:#ff7f0e;stroke:#ff7f0e;" x="354.93966" xlink:href="#m5e7004e461" y="49.04781"/>
     <use style="fill:#ff7f0e;stroke:#ff7f0e;" x="359.17932" xlink:href="#m5e7004e461" y="51.767134"/>
     <use style="fill:#ff7f0e;stroke:#ff7f0e;" x="363.418981" xlink:href="#m5e7004e461" y="49.911056"/>
     <use style="fill:#ff7f0e;stroke:#ff7f0e;" x="367.658641" xlink:href="#m5e7004e461" y="47.623513"/>
     <use style="fill:#ff7f0e;stroke:#ff7f0e;" x="371.898301" xlink:href="#m5e7004e461" y="45.972703"/>
     <use style="fill:#ff7f0e;stroke:#ff7f0e;" x="376.137962" xlink:href="#m5e7004e461" y="42.810295"/>
    </g>
   </g>
   <g id="line2d_45">
    <path clip-path="url(#p95f8923f77)" d="M 155.675625 185.398125 
L 155.675625 22.318125 
" style="fill:none;stroke:#2ca02c;stroke-linecap:square;stroke-opacity:0.5;stroke-width:4;"/>
   </g>
   <g id="patch_3">
    <path d="M 58.163438 185.398125 
L 58.163438 22.318125 
" style="fill:none;stroke:#000000;stroke-linecap:square;stroke-linejoin:miter;stroke-width:0.8;"/>
   </g>
   <g id="patch_4">
    <path d="M 392.963437 185.398125 
L 392.963437 22.318125 
" style="fill:none;stroke:#000000;stroke-linecap:square;stroke-linejoin:miter;stroke-width:0.8;"/>
   </g>
   <g id="patch_5">
    <path d="M 58.163437 185.398125 
L 392.963437 185.398125 
" style="fill:none;stroke:#000000;stroke-linecap:square;stroke-linejoin:miter;stroke-width:0.8;"/>
   </g>
   <g id="patch_6">
    <path d="M 58.163437 22.318125 
L 392.963437 22.318125 
" style="fill:none;stroke:#000000;stroke-linecap:square;stroke-linejoin:miter;stroke-width:0.8;"/>
   </g>
   <g id="text_22">
    <!--  Scott Sievert -->
    <defs>
     <path d="M 50 72.515625 
Q 57.421875 72.515625 63.84375 69.828125 
Q 70.265625 67.140625 75.59375 61.8125 
Q 80.90625 56.5 83.546875 50.09375 
Q 86.1875 43.703125 86.1875 36.1875 
Q 86.1875 28.765625 83.546875 22.390625 
Q 80.90625 16.015625 75.59375 10.6875 
Q 70.265625 5.375 63.84375 2.6875 
Q 57.421875 0 50 0 
Q 42.578125 0 36.15625 2.6875 
Q 29.734375 5.375 24.421875 10.6875 
Q 19.09375 16.015625 16.453125 22.390625 
Q 13.8125 28.765625 13.8125 36.1875 
Q 13.8125 43.703125 16.453125 50.09375 
Q 19.09375 56.5 24.421875 61.8125 
Q 29.734375 67.140625 36.15625 69.828125 
Q 42.578125 72.515625 50 72.515625 
z
M 50 67.484375 
Q 43.609375 67.484375 38.078125 65.1875 
Q 32.5625 62.890625 27.984375 58.296875 
Q 23.390625 53.71875 21.046875 48.125 
Q 18.703125 42.53125 18.703125 36.1875 
Q 18.703125 29.890625 21.046875 24.34375 
Q 23.390625 18.796875 27.984375 14.203125 
Q 32.5625 9.625 38.078125 7.296875 
Q 43.609375 4.984375 50 4.984375 
Q 56.453125 4.984375 61.984375 7.296875 
Q 67.53125 9.625 72.125 14.203125 
Q 76.65625 18.75 78.921875 24.265625 
Q 81.203125 29.78125 81.203125 36.1875 
Q 81.203125 42.671875 78.90625 48.21875 
Q 76.609375 53.765625 72.125 58.296875 
Q 67.53125 62.890625 61.984375 65.1875 
Q 56.453125 67.484375 50 67.484375 
z
M 64.59375 55.515625 
L 64.59375 49.21875 
Q 61.375 50.828125 58.203125 51.609375 
Q 55.03125 52.390625 51.8125 52.390625 
Q 44.53125 52.390625 40.453125 48.109375 
Q 36.375 43.84375 36.375 36.1875 
Q 36.375 28.421875 40.546875 24.171875 
Q 44.734375 19.921875 52.296875 19.921875 
Q 55.421875 19.921875 58.390625 20.671875 
Q 61.375 21.4375 64.59375 23.09375 
L 64.59375 16.890625 
Q 61.328125 15.484375 57.984375 14.796875 
Q 54.640625 14.109375 51.21875 14.109375 
Q 40.671875 14.109375 34.546875 20.0625 
Q 28.421875 26.03125 28.421875 36.1875 
Q 28.421875 46.390625 34.546875 52.296875 
Q 40.671875 58.203125 51.21875 58.203125 
Q 54.78125 58.203125 58.09375 57.515625 
Q 61.421875 56.84375 64.59375 55.515625 
z
" id="DejaVuSans-169"/>
     <path d="M 53.515625 70.515625 
L 53.515625 60.890625 
Q 47.90625 63.578125 42.921875 64.890625 
Q 37.9375 66.21875 33.296875 66.21875 
Q 25.25 66.21875 20.875 63.09375 
Q 16.5 59.96875 16.5 54.203125 
Q 16.5 49.359375 19.40625 46.890625 
Q 22.3125 44.4375 30.421875 42.921875 
L 36.375 41.703125 
Q 47.40625 39.59375 52.65625 34.296875 
Q 57.90625 29 57.90625 20.125 
Q 57.90625 9.515625 50.796875 4.046875 
Q 43.703125 -1.421875 29.984375 -1.421875 
Q 24.8125 -1.421875 18.96875 -0.25 
Q 13.140625 0.921875 6.890625 3.21875 
L 6.890625 13.375 
Q 12.890625 10.015625 18.65625 8.296875 
Q 24.421875 6.59375 29.984375 6.59375 
Q 38.421875 6.59375 43.015625 9.90625 
Q 47.609375 13.234375 47.609375 19.390625 
Q 47.609375 24.75 44.3125 27.78125 
Q 41.015625 30.8125 33.5 32.328125 
L 27.484375 33.5 
Q 16.453125 35.6875 11.515625 40.375 
Q 6.59375 45.0625 6.59375 53.421875 
Q 6.59375 63.09375 13.40625 68.65625 
Q 20.21875 74.21875 32.171875 74.21875 
Q 37.3125 74.21875 42.625 73.28125 
Q 47.953125 72.359375 53.515625 70.515625 
z
" id="DejaVuSans-83"/>
     <path d="M 2.984375 54.6875 
L 12.5 54.6875 
L 29.59375 8.796875 
L 46.6875 54.6875 
L 56.203125 54.6875 
L 35.6875 0 
L 23.484375 0 
z
" id="DejaVuSans-118"/>
    </defs>
    <g style="fill:#888888;" transform="translate(318.769382 224.040159)scale(0.1 -0.1)">
     <use xlink:href="#DejaVuSans-169"/>
     <use x="100" xlink:href="#DejaVuSans-32"/>
     <use x="131.787109" xlink:href="#DejaVuSans-83"/>
     <use x="195.263672" xlink:href="#DejaVuSans-99"/>
     <use x="250.244141" xlink:href="#DejaVuSans-111"/>
     <use x="311.425781" xlink:href="#DejaVuSans-116"/>
     <use x="350.634766" xlink:href="#DejaVuSans-116"/>
     <use x="389.84375" xlink:href="#DejaVuSans-32"/>
     <use x="421.630859" xlink:href="#DejaVuSans-83"/>
     <use x="485.107422" xlink:href="#DejaVuSans-105"/>
     <use x="512.890625" xlink:href="#DejaVuSans-101"/>
     <use x="574.414062" xlink:href="#DejaVuSans-118"/>
     <use x="633.59375" xlink:href="#DejaVuSans-101"/>
     <use x="695.117188" xlink:href="#DejaVuSans-114"/>
     <use x="736.230469" xlink:href="#DejaVuSans-116"/>
    </g>
   </g>
   <g id="text_23">
    <!-- New cases -->
    <g transform="translate(193.65 16.318125)scale(0.12 -0.12)">
     <use xlink:href="#DejaVuSans-78"/>
     <use x="74.804688" xlink:href="#DejaVuSans-101"/>
     <use x="136.328125" xlink:href="#DejaVuSans-119"/>
     <use x="218.115234" xlink:href="#DejaVuSans-32"/>
     <use x="249.902344" xlink:href="#DejaVuSans-99"/>
     <use x="304.882812" xlink:href="#DejaVuSans-97"/>
     <use x="366.162109" xlink:href="#DejaVuSans-115"/>
     <use x="418.261719" xlink:href="#DejaVuSans-101"/>
     <use x="479.785156" xlink:href="#DejaVuSans-115"/>
    </g>
   </g>
   <g id="legend_1">
    <g id="patch_7">
     <path d="M 70.207438 262.045725 
L 287.560563 262.045725 
Q 289.560563 262.045725 289.560563 260.045725 
L 289.560563 217.01135 
Q 289.560563 215.01135 287.560563 215.01135 
L 70.207438 215.01135 
Q 68.207438 215.01135 68.207438 217.01135 
L 68.207438 260.045725 
Q 68.207438 262.045725 70.207438 262.045725 
z
" style="fill:#ffffff;opacity:0.8;stroke:#cccccc;stroke-linejoin:miter;"/>
    </g>
    <g id="line2d_46">
     <path d="M 72.207438 223.109787 
L 92.207438 223.109787 
" style="fill:none;stroke:#d62728;stroke-linecap:square;stroke-width:1.5;"/>
    </g>
    <g id="line2d_47">
     <g>
      <use style="fill:#d62728;stroke:#d62728;" x="82.207438" xlink:href="#m9e2174f997" y="223.109787"/>
     </g>
    </g>
    <g id="text_24">
     <!-- South Korea -->
     <defs>
      <path d="M 54.890625 33.015625 
L 54.890625 0 
L 45.90625 0 
L 45.90625 32.71875 
Q 45.90625 40.484375 42.875 44.328125 
Q 39.84375 48.1875 33.796875 48.1875 
Q 26.515625 48.1875 22.3125 43.546875 
Q 18.109375 38.921875 18.109375 30.90625 
L 18.109375 0 
L 9.078125 0 
L 9.078125 75.984375 
L 18.109375 75.984375 
L 18.109375 46.1875 
Q 21.34375 51.125 25.703125 53.5625 
Q 30.078125 56 35.796875 56 
Q 45.21875 56 50.046875 50.171875 
Q 54.890625 44.34375 54.890625 33.015625 
z
" id="DejaVuSans-104"/>
      <path d="M 9.8125 72.90625 
L 19.671875 72.90625 
L 19.671875 42.09375 
L 52.390625 72.90625 
L 65.09375 72.90625 
L 28.90625 38.921875 
L 67.671875 0 
L 54.6875 0 
L 19.671875 35.109375 
L 19.671875 0 
L 9.8125 0 
z
" id="DejaVuSans-75"/>
     </defs>
     <g transform="translate(100.207438 226.609787)scale(0.1 -0.1)">
      <use xlink:href="#DejaVuSans-83"/>
      <use x="63.476562" xlink:href="#DejaVuSans-111"/>
      <use x="124.658203" xlink:href="#DejaVuSans-117"/>
      <use x="188.037109" xlink:href="#DejaVuSans-116"/>
      <use x="227.246094" xlink:href="#DejaVuSans-104"/>
      <use x="290.625" xlink:href="#DejaVuSans-32"/>
      <use x="322.412109" xlink:href="#DejaVuSans-75"/>
      <use x="387.910156" xlink:href="#DejaVuSans-111"/>
      <use x="449.091797" xlink:href="#DejaVuSans-114"/>
      <use x="490.173828" xlink:href="#DejaVuSans-101"/>
      <use x="551.697266" xlink:href="#DejaVuSans-97"/>
     </g>
    </g>
    <g id="line2d_48">
     <path d="M 72.207438 237.787913 
L 92.207438 237.787913 
" style="fill:none;stroke:#2ca02c;stroke-linecap:square;stroke-width:1.5;"/>
    </g>
    <g id="line2d_49">
     <g>
      <use style="fill:#2ca02c;stroke:#2ca02c;" x="82.207438" xlink:href="#m2ae0ebbd87" y="237.787913"/>
     </g>
    </g>
    <g id="text_25">
     <!-- Italy -->
     <defs>
      <path d="M 9.8125 72.90625 
L 19.671875 72.90625 
L 19.671875 0 
L 9.8125 0 
z
" id="DejaVuSans-73"/>
     </defs>
     <g transform="translate(100.207438 241.287913)scale(0.1 -0.1)">
      <use xlink:href="#DejaVuSans-73"/>
      <use x="29.492188" xlink:href="#DejaVuSans-116"/>
      <use x="68.701172" xlink:href="#DejaVuSans-97"/>
      <use x="129.980469" xlink:href="#DejaVuSans-108"/>
      <use x="157.763672" xlink:href="#DejaVuSans-121"/>
     </g>
    </g>
    <g id="line2d_50">
     <path d="M 72.207438 252.466037 
L 92.207438 252.466037 
" style="fill:none;stroke:#1f77b4;stroke-linecap:square;stroke-width:1.5;"/>
    </g>
    <g id="line2d_51">
     <g>
      <use style="fill:#1f77b4;stroke:#1f77b4;" x="82.207438" xlink:href="#md5b336b301" y="252.466037"/>
     </g>
    </g>
    <g id="text_26">
     <!-- UK -->
     <defs>
      <path d="M 8.6875 72.90625 
L 18.609375 72.90625 
L 18.609375 28.609375 
Q 18.609375 16.890625 22.84375 11.734375 
Q 27.09375 6.59375 36.625 6.59375 
Q 46.09375 6.59375 50.34375 11.734375 
Q 54.59375 16.890625 54.59375 28.609375 
L 54.59375 72.90625 
L 64.5 72.90625 
L 64.5 27.390625 
Q 64.5 13.140625 57.4375 5.859375 
Q 50.390625 -1.421875 36.625 -1.421875 
Q 22.796875 -1.421875 15.734375 5.859375 
Q 8.6875 13.140625 8.6875 27.390625 
z
" id="DejaVuSans-85"/>
     </defs>
     <g transform="translate(100.207438 255.966037)scale(0.1 -0.1)">
      <use xlink:href="#DejaVuSans-85"/>
      <use x="73.193359" xlink:href="#DejaVuSans-75"/>
     </g>
    </g>
    <g id="line2d_52">
     <path d="M 181.505875 223.109787 
L 201.505875 223.109787 
" style="fill:none;stroke:#ff7f0e;stroke-linecap:square;stroke-width:1.5;"/>
    </g>
    <g id="line2d_53">
     <g>
      <use style="fill:#ff7f0e;stroke:#ff7f0e;" x="191.505875" xlink:href="#m5e7004e461" y="223.109787"/>
     </g>
    </g>
    <g id="text_27">
     <!-- US -->
     <g transform="translate(209.505875 226.609787)scale(0.1 -0.1)">
      <use xlink:href="#DejaVuSans-85"/>
      <use x="73.193359" xlink:href="#DejaVuSans-83"/>
     </g>
    </g>
    <g id="line2d_54">
     <path d="M 181.505875 244.426662 
L 201.505875 244.426662 
" style="fill:none;stroke:#2ca02c;stroke-linecap:square;stroke-opacity:0.5;stroke-width:4;"/>
    </g>
    <g id="line2d_55"/>
    <g id="text_28">
     <!-- Italian health -->
     <g transform="translate(209.505875 241.287913)scale(0.1 -0.1)">
      <use xlink:href="#DejaVuSans-73"/>
      <use x="29.492188" xlink:href="#DejaVuSans-116"/>
      <use x="68.701172" xlink:href="#DejaVuSans-97"/>
      <use x="129.980469" xlink:href="#DejaVuSans-108"/>
      <use x="157.763672" xlink:href="#DejaVuSans-105"/>
      <use x="185.546875" xlink:href="#DejaVuSans-97"/>
      <use x="246.826172" xlink:href="#DejaVuSans-110"/>
      <use x="310.205078" xlink:href="#DejaVuSans-32"/>
      <use x="341.992188" xlink:href="#DejaVuSans-104"/>
      <use x="405.371094" xlink:href="#DejaVuSans-101"/>
      <use x="466.894531" xlink:href="#DejaVuSans-97"/>
      <use x="528.173828" xlink:href="#DejaVuSans-108"/>
      <use x="555.957031" xlink:href="#DejaVuSans-116"/>
      <use x="595.166016" xlink:href="#DejaVuSans-104"/>
     </g>
     <!-- care saturation -->
     <g transform="translate(209.505875 252.485725)scale(0.1 -0.1)">
      <use xlink:href="#DejaVuSans-99"/>
      <use x="54.980469" xlink:href="#DejaVuSans-97"/>
      <use x="116.259766" xlink:href="#DejaVuSans-114"/>
      <use x="157.341797" xlink:href="#DejaVuSans-101"/>
      <use x="218.865234" xlink:href="#DejaVuSans-32"/>
      <use x="250.652344" xlink:href="#DejaVuSans-115"/>
      <use x="302.751953" xlink:href="#DejaVuSans-97"/>
      <use x="364.03125" xlink:href="#DejaVuSans-116"/>
      <use x="403.240234" xlink:href="#DejaVuSans-117"/>
      <use x="466.619141" xlink:href="#DejaVuSans-114"/>
      <use x="507.732422" xlink:href="#DejaVuSans-97"/>
      <use x="569.011719" xlink:href="#DejaVuSans-116"/>
      <use x="608.220703" xlink:href="#DejaVuSans-105"/>
      <use x="636.003906" xlink:href="#DejaVuSans-111"/>
      <use x="697.185547" xlink:href="#DejaVuSans-110"/>
     </g>
    </g>
   </g>
  </g>
 </g>
 <defs>
  <clipPath id="p95f8923f77">
   <rect height="163.08" width="334.8" x="58.163438" y="22.318125"/>
  </clipPath>
 </defs>
</svg>
