<?xml version="1.0" encoding="utf-8" standalone="no"?>
<!DOCTYPE svg PUBLIC "-//W3C//DTD SVG 1.1//EN"
  "http://www.w3.org/Graphics/SVG/1.1/DTD/svg11.dtd">
<!-- Created with matplotlib (https://matplotlib.org/) -->
<svg height="269.245725pt" version="1.1" viewBox="0 0 416.862559 269.245725" width="416.862559pt" xmlns="http://www.w3.org/2000/svg" xmlns:xlink="http://www.w3.org/1999/xlink">
 <defs>
  <style type="text/css">
*{stroke-linecap:butt;stroke-linejoin:round;}
  </style>
 </defs>
 <g id="figure_1">
  <g id="patch_1">
   <path d="M 0 269.245725 
L 416.862559 269.245725 
L 416.862559 0 
L 0 0 
z
" style="fill:#ffffff;"/>
  </g>
  <g id="axes_1">
   <g id="patch_2">
    <path d="M 58.163438 185.398125 
L 392.963437 185.398125 
L 392.963437 22.318125 
L 58.163438 22.318125 
z
" style="fill:#ffffff;"/>
   </g>
   <g id="matplotlib.axis_1">
    <g id="xtick_1">
     <g id="line2d_1">
      <path clip-path="url(#p3f16664a77)" d="M 58.163438 185.398125 
L 58.163438 22.318125 
" style="fill:none;stroke:#b0b0b0;stroke-linecap:square;stroke-opacity:0.8;stroke-width:0.8;"/>
     </g>
     <g id="line2d_2">
      <defs>
       <path d="M 0 0 
L 0 3.5 
" id="m7fadd2384a" style="stroke:#000000;stroke-width:0.8;"/>
      </defs>
      <g>
       <use style="stroke:#000000;stroke-width:0.8;" x="58.163438" xlink:href="#m7fadd2384a" y="185.398125"/>
      </g>
     </g>
     <g id="text_1">
      <!-- Feb. 16 -->
      <defs>
       <path d="M 9.8125 72.90625 
L 51.703125 72.90625 
L 51.703125 64.59375 
L 19.671875 64.59375 
L 19.671875 43.109375 
L 48.578125 43.109375 
L 48.578125 34.8125 
L 19.671875 34.8125 
L 19.671875 0 
L 9.8125 0 
z
" id="DejaVuSans-70"/>
       <path d="M 56.203125 29.59375 
L 56.203125 25.203125 
L 14.890625 25.203125 
Q 15.484375 15.921875 20.484375 11.0625 
Q 25.484375 6.203125 34.421875 6.203125 
Q 39.59375 6.203125 44.453125 7.46875 
Q 49.3125 8.734375 54.109375 11.28125 
L 54.109375 2.78125 
Q 49.265625 0.734375 44.1875 -0.34375 
Q 39.109375 -1.421875 33.890625 -1.421875 
Q 20.796875 -1.421875 13.15625 6.1875 
Q 5.515625 13.8125 5.515625 26.8125 
Q 5.515625 40.234375 12.765625 48.109375 
Q 20.015625 56 32.328125 56 
Q 43.359375 56 49.78125 48.890625 
Q 56.203125 41.796875 56.203125 29.59375 
z
M 47.21875 32.234375 
Q 47.125 39.59375 43.09375 43.984375 
Q 39.0625 48.390625 32.421875 48.390625 
Q 24.90625 48.390625 20.390625 44.140625 
Q 15.875 39.890625 15.1875 32.171875 
z
" id="DejaVuSans-101"/>
       <path d="M 48.6875 27.296875 
Q 48.6875 37.203125 44.609375 42.84375 
Q 40.53125 48.484375 33.40625 48.484375 
Q 26.265625 48.484375 22.1875 42.84375 
Q 18.109375 37.203125 18.109375 27.296875 
Q 18.109375 17.390625 22.1875 11.75 
Q 26.265625 6.109375 33.40625 6.109375 
Q 40.53125 6.109375 44.609375 11.75 
Q 48.6875 17.390625 48.6875 27.296875 
z
M 18.109375 46.390625 
Q 20.953125 51.265625 25.265625 53.625 
Q 29.59375 56 35.59375 56 
Q 45.5625 56 51.78125 48.09375 
Q 58.015625 40.1875 58.015625 27.296875 
Q 58.015625 14.40625 51.78125 6.484375 
Q 45.5625 -1.421875 35.59375 -1.421875 
Q 29.59375 -1.421875 25.265625 0.953125 
Q 20.953125 3.328125 18.109375 8.203125 
L 18.109375 0 
L 9.078125 0 
L 9.078125 75.984375 
L 18.109375 75.984375 
z
" id="DejaVuSans-98"/>
       <path d="M 10.6875 12.40625 
L 21 12.40625 
L 21 0 
L 10.6875 0 
z
" id="DejaVuSans-46"/>
       <path id="DejaVuSans-32"/>
       <path d="M 12.40625 8.296875 
L 28.515625 8.296875 
L 28.515625 63.921875 
L 10.984375 60.40625 
L 10.984375 69.390625 
L 28.421875 72.90625 
L 38.28125 72.90625 
L 38.28125 8.296875 
L 54.390625 8.296875 
L 54.390625 0 
L 12.40625 0 
z
" id="DejaVuSans-49"/>
       <path d="M 33.015625 40.375 
Q 26.375 40.375 22.484375 35.828125 
Q 18.609375 31.296875 18.609375 23.390625 
Q 18.609375 15.53125 22.484375 10.953125 
Q 26.375 6.390625 33.015625 6.390625 
Q 39.65625 6.390625 43.53125 10.953125 
Q 47.40625 15.53125 47.40625 23.390625 
Q 47.40625 31.296875 43.53125 35.828125 
Q 39.65625 40.375 33.015625 40.375 
z
M 52.59375 71.296875 
L 52.59375 62.3125 
Q 48.875 64.0625 45.09375 64.984375 
Q 41.3125 65.921875 37.59375 65.921875 
Q 27.828125 65.921875 22.671875 59.328125 
Q 17.53125 52.734375 16.796875 39.40625 
Q 19.671875 43.65625 24.015625 45.921875 
Q 28.375 48.1875 33.59375 48.1875 
Q 44.578125 48.1875 50.953125 41.515625 
Q 57.328125 34.859375 57.328125 23.390625 
Q 57.328125 12.15625 50.6875 5.359375 
Q 44.046875 -1.421875 33.015625 -1.421875 
Q 20.359375 -1.421875 13.671875 8.265625 
Q 6.984375 17.96875 6.984375 36.375 
Q 6.984375 53.65625 15.1875 63.9375 
Q 23.390625 74.21875 37.203125 74.21875 
Q 40.921875 74.21875 44.703125 73.484375 
Q 48.484375 72.75 52.59375 71.296875 
z
" id="DejaVuSans-54"/>
      </defs>
      <g transform="translate(39.500156 199.996562)scale(0.1 -0.1)">
       <use xlink:href="#DejaVuSans-70"/>
       <use x="57.441406" xlink:href="#DejaVuSans-101"/>
       <use x="118.964844" xlink:href="#DejaVuSans-98"/>
       <use x="182.441406" xlink:href="#DejaVuSans-46"/>
       <use x="214.228516" xlink:href="#DejaVuSans-32"/>
       <use x="246.015625" xlink:href="#DejaVuSans-49"/>
       <use x="309.638672" xlink:href="#DejaVuSans-54"/>
      </g>
     </g>
    </g>
    <g id="xtick_2">
     <g id="line2d_3">
      <path clip-path="url(#p3f16664a77)" d="M 98.727565 185.398125 
L 98.727565 22.318125 
" style="fill:none;stroke:#b0b0b0;stroke-linecap:square;stroke-opacity:0.8;stroke-width:0.8;"/>
     </g>
     <g id="line2d_4">
      <g>
       <use style="stroke:#000000;stroke-width:0.8;" x="98.727565" xlink:href="#m7fadd2384a" y="185.398125"/>
      </g>
     </g>
     <g id="text_2">
      <!-- Feb. 23 -->
      <defs>
       <path d="M 19.1875 8.296875 
L 53.609375 8.296875 
L 53.609375 0 
L 7.328125 0 
L 7.328125 8.296875 
Q 12.9375 14.109375 22.625 23.890625 
Q 32.328125 33.6875 34.8125 36.53125 
Q 39.546875 41.84375 41.421875 45.53125 
Q 43.3125 49.21875 43.3125 52.78125 
Q 43.3125 58.59375 39.234375 62.25 
Q 35.15625 65.921875 28.609375 65.921875 
Q 23.96875 65.921875 18.8125 64.3125 
Q 13.671875 62.703125 7.8125 59.421875 
L 7.8125 69.390625 
Q 13.765625 71.78125 18.9375 73 
Q 24.125 74.21875 28.421875 74.21875 
Q 39.75 74.21875 46.484375 68.546875 
Q 53.21875 62.890625 53.21875 53.421875 
Q 53.21875 48.921875 51.53125 44.890625 
Q 49.859375 40.875 45.40625 35.40625 
Q 44.1875 33.984375 37.640625 27.21875 
Q 31.109375 20.453125 19.1875 8.296875 
z
" id="DejaVuSans-50"/>
       <path d="M 40.578125 39.3125 
Q 47.65625 37.796875 51.625 33 
Q 55.609375 28.21875 55.609375 21.1875 
Q 55.609375 10.40625 48.1875 4.484375 
Q 40.765625 -1.421875 27.09375 -1.421875 
Q 22.515625 -1.421875 17.65625 -0.515625 
Q 12.796875 0.390625 7.625 2.203125 
L 7.625 11.71875 
Q 11.71875 9.328125 16.59375 8.109375 
Q 21.484375 6.890625 26.8125 6.890625 
Q 36.078125 6.890625 40.9375 10.546875 
Q 45.796875 14.203125 45.796875 21.1875 
Q 45.796875 27.640625 41.28125 31.265625 
Q 36.765625 34.90625 28.71875 34.90625 
L 20.21875 34.90625 
L 20.21875 43.015625 
L 29.109375 43.015625 
Q 36.375 43.015625 40.234375 45.921875 
Q 44.09375 48.828125 44.09375 54.296875 
Q 44.09375 59.90625 40.109375 62.90625 
Q 36.140625 65.921875 28.71875 65.921875 
Q 24.65625 65.921875 20.015625 65.03125 
Q 15.375 64.15625 9.8125 62.3125 
L 9.8125 71.09375 
Q 15.4375 72.65625 20.34375 73.4375 
Q 25.25 74.21875 29.59375 74.21875 
Q 40.828125 74.21875 47.359375 69.109375 
Q 53.90625 64.015625 53.90625 55.328125 
Q 53.90625 49.265625 50.4375 45.09375 
Q 46.96875 40.921875 40.578125 39.3125 
z
" id="DejaVuSans-51"/>
      </defs>
      <g transform="translate(80.064284 199.996562)scale(0.1 -0.1)">
       <use xlink:href="#DejaVuSans-70"/>
       <use x="57.441406" xlink:href="#DejaVuSans-101"/>
       <use x="118.964844" xlink:href="#DejaVuSans-98"/>
       <use x="182.441406" xlink:href="#DejaVuSans-46"/>
       <use x="214.228516" xlink:href="#DejaVuSans-32"/>
       <use x="246.015625" xlink:href="#DejaVuSans-50"/>
       <use x="309.638672" xlink:href="#DejaVuSans-51"/>
      </g>
     </g>
    </g>
    <g id="xtick_3">
     <g id="line2d_5">
      <path clip-path="url(#p3f16664a77)" d="M 139.291692 185.398125 
L 139.291692 22.318125 
" style="fill:none;stroke:#b0b0b0;stroke-linecap:square;stroke-opacity:0.8;stroke-width:0.8;"/>
     </g>
     <g id="line2d_6">
      <g>
       <use style="stroke:#000000;stroke-width:0.8;" x="139.291692" xlink:href="#m7fadd2384a" y="185.398125"/>
      </g>
     </g>
     <g id="text_3">
      <!-- Mar. 01 -->
      <defs>
       <path d="M 9.8125 72.90625 
L 24.515625 72.90625 
L 43.109375 23.296875 
L 61.8125 72.90625 
L 76.515625 72.90625 
L 76.515625 0 
L 66.890625 0 
L 66.890625 64.015625 
L 48.09375 14.015625 
L 38.1875 14.015625 
L 19.390625 64.015625 
L 19.390625 0 
L 9.8125 0 
z
" id="DejaVuSans-77"/>
       <path d="M 34.28125 27.484375 
Q 23.390625 27.484375 19.1875 25 
Q 14.984375 22.515625 14.984375 16.5 
Q 14.984375 11.71875 18.140625 8.90625 
Q 21.296875 6.109375 26.703125 6.109375 
Q 34.1875 6.109375 38.703125 11.40625 
Q 43.21875 16.703125 43.21875 25.484375 
L 43.21875 27.484375 
z
M 52.203125 31.203125 
L 52.203125 0 
L 43.21875 0 
L 43.21875 8.296875 
Q 40.140625 3.328125 35.546875 0.953125 
Q 30.953125 -1.421875 24.3125 -1.421875 
Q 15.921875 -1.421875 10.953125 3.296875 
Q 6 8.015625 6 15.921875 
Q 6 25.140625 12.171875 29.828125 
Q 18.359375 34.515625 30.609375 34.515625 
L 43.21875 34.515625 
L 43.21875 35.40625 
Q 43.21875 41.609375 39.140625 45 
Q 35.0625 48.390625 27.6875 48.390625 
Q 23 48.390625 18.546875 47.265625 
Q 14.109375 46.140625 10.015625 43.890625 
L 10.015625 52.203125 
Q 14.9375 54.109375 19.578125 55.046875 
Q 24.21875 56 28.609375 56 
Q 40.484375 56 46.34375 49.84375 
Q 52.203125 43.703125 52.203125 31.203125 
z
" id="DejaVuSans-97"/>
       <path d="M 41.109375 46.296875 
Q 39.59375 47.171875 37.8125 47.578125 
Q 36.03125 48 33.890625 48 
Q 26.265625 48 22.1875 43.046875 
Q 18.109375 38.09375 18.109375 28.8125 
L 18.109375 0 
L 9.078125 0 
L 9.078125 54.6875 
L 18.109375 54.6875 
L 18.109375 46.1875 
Q 20.953125 51.171875 25.484375 53.578125 
Q 30.03125 56 36.53125 56 
Q 37.453125 56 38.578125 55.875 
Q 39.703125 55.765625 41.0625 55.515625 
z
" id="DejaVuSans-114"/>
       <path d="M 31.78125 66.40625 
Q 24.171875 66.40625 20.328125 58.90625 
Q 16.5 51.421875 16.5 36.375 
Q 16.5 21.390625 20.328125 13.890625 
Q 24.171875 6.390625 31.78125 6.390625 
Q 39.453125 6.390625 43.28125 13.890625 
Q 47.125 21.390625 47.125 36.375 
Q 47.125 51.421875 43.28125 58.90625 
Q 39.453125 66.40625 31.78125 66.40625 
z
M 31.78125 74.21875 
Q 44.046875 74.21875 50.515625 64.515625 
Q 56.984375 54.828125 56.984375 36.375 
Q 56.984375 17.96875 50.515625 8.265625 
Q 44.046875 -1.421875 31.78125 -1.421875 
Q 19.53125 -1.421875 13.0625 8.265625 
Q 6.59375 17.96875 6.59375 36.375 
Q 6.59375 54.828125 13.0625 64.515625 
Q 19.53125 74.21875 31.78125 74.21875 
z
" id="DejaVuSans-48"/>
      </defs>
      <g transform="translate(120.324505 199.996562)scale(0.1 -0.1)">
       <use xlink:href="#DejaVuSans-77"/>
       <use x="86.279297" xlink:href="#DejaVuSans-97"/>
       <use x="147.558594" xlink:href="#DejaVuSans-114"/>
       <use x="188.53125" xlink:href="#DejaVuSans-46"/>
       <use x="220.318359" xlink:href="#DejaVuSans-32"/>
       <use x="252.105469" xlink:href="#DejaVuSans-48"/>
       <use x="315.728516" xlink:href="#DejaVuSans-49"/>
      </g>
     </g>
    </g>
    <g id="xtick_4">
     <g id="line2d_7">
      <path clip-path="url(#p3f16664a77)" d="M 179.85582 185.398125 
L 179.85582 22.318125 
" style="fill:none;stroke:#b0b0b0;stroke-linecap:square;stroke-opacity:0.8;stroke-width:0.8;"/>
     </g>
     <g id="line2d_8">
      <g>
       <use style="stroke:#000000;stroke-width:0.8;" x="179.85582" xlink:href="#m7fadd2384a" y="185.398125"/>
      </g>
     </g>
     <g id="text_4">
      <!-- Mar. 08 -->
      <defs>
       <path d="M 31.78125 34.625 
Q 24.75 34.625 20.71875 30.859375 
Q 16.703125 27.09375 16.703125 20.515625 
Q 16.703125 13.921875 20.71875 10.15625 
Q 24.75 6.390625 31.78125 6.390625 
Q 38.8125 6.390625 42.859375 10.171875 
Q 46.921875 13.96875 46.921875 20.515625 
Q 46.921875 27.09375 42.890625 30.859375 
Q 38.875 34.625 31.78125 34.625 
z
M 21.921875 38.8125 
Q 15.578125 40.375 12.03125 44.71875 
Q 8.5 49.078125 8.5 55.328125 
Q 8.5 64.0625 14.71875 69.140625 
Q 20.953125 74.21875 31.78125 74.21875 
Q 42.671875 74.21875 48.875 69.140625 
Q 55.078125 64.0625 55.078125 55.328125 
Q 55.078125 49.078125 51.53125 44.71875 
Q 48 40.375 41.703125 38.8125 
Q 48.828125 37.15625 52.796875 32.3125 
Q 56.78125 27.484375 56.78125 20.515625 
Q 56.78125 9.90625 50.3125 4.234375 
Q 43.84375 -1.421875 31.78125 -1.421875 
Q 19.734375 -1.421875 13.25 4.234375 
Q 6.78125 9.90625 6.78125 20.515625 
Q 6.78125 27.484375 10.78125 32.3125 
Q 14.796875 37.15625 21.921875 38.8125 
z
M 18.3125 54.390625 
Q 18.3125 48.734375 21.84375 45.5625 
Q 25.390625 42.390625 31.78125 42.390625 
Q 38.140625 42.390625 41.71875 45.5625 
Q 45.3125 48.734375 45.3125 54.390625 
Q 45.3125 60.0625 41.71875 63.234375 
Q 38.140625 66.40625 31.78125 66.40625 
Q 25.390625 66.40625 21.84375 63.234375 
Q 18.3125 60.0625 18.3125 54.390625 
z
" id="DejaVuSans-56"/>
      </defs>
      <g transform="translate(160.888632 199.996562)scale(0.1 -0.1)">
       <use xlink:href="#DejaVuSans-77"/>
       <use x="86.279297" xlink:href="#DejaVuSans-97"/>
       <use x="147.558594" xlink:href="#DejaVuSans-114"/>
       <use x="188.53125" xlink:href="#DejaVuSans-46"/>
       <use x="220.318359" xlink:href="#DejaVuSans-32"/>
       <use x="252.105469" xlink:href="#DejaVuSans-48"/>
       <use x="315.728516" xlink:href="#DejaVuSans-56"/>
      </g>
     </g>
    </g>
    <g id="xtick_5">
     <g id="line2d_9">
      <path clip-path="url(#p3f16664a77)" d="M 220.419947 185.398125 
L 220.419947 22.318125 
" style="fill:none;stroke:#b0b0b0;stroke-linecap:square;stroke-opacity:0.8;stroke-width:0.8;"/>
     </g>
     <g id="line2d_10">
      <g>
       <use style="stroke:#000000;stroke-width:0.8;" x="220.419947" xlink:href="#m7fadd2384a" y="185.398125"/>
      </g>
     </g>
     <g id="text_5">
      <!-- Mar. 15 -->
      <defs>
       <path d="M 10.796875 72.90625 
L 49.515625 72.90625 
L 49.515625 64.59375 
L 19.828125 64.59375 
L 19.828125 46.734375 
Q 21.96875 47.46875 24.109375 47.828125 
Q 26.265625 48.1875 28.421875 48.1875 
Q 40.625 48.1875 47.75 41.5 
Q 54.890625 34.8125 54.890625 23.390625 
Q 54.890625 11.625 47.5625 5.09375 
Q 40.234375 -1.421875 26.90625 -1.421875 
Q 22.3125 -1.421875 17.546875 -0.640625 
Q 12.796875 0.140625 7.71875 1.703125 
L 7.71875 11.625 
Q 12.109375 9.234375 16.796875 8.0625 
Q 21.484375 6.890625 26.703125 6.890625 
Q 35.15625 6.890625 40.078125 11.328125 
Q 45.015625 15.765625 45.015625 23.390625 
Q 45.015625 31 40.078125 35.4375 
Q 35.15625 39.890625 26.703125 39.890625 
Q 22.75 39.890625 18.8125 39.015625 
Q 14.890625 38.140625 10.796875 36.28125 
z
" id="DejaVuSans-53"/>
      </defs>
      <g transform="translate(201.45276 199.996562)scale(0.1 -0.1)">
       <use xlink:href="#DejaVuSans-77"/>
       <use x="86.279297" xlink:href="#DejaVuSans-97"/>
       <use x="147.558594" xlink:href="#DejaVuSans-114"/>
       <use x="188.53125" xlink:href="#DejaVuSans-46"/>
       <use x="220.318359" xlink:href="#DejaVuSans-32"/>
       <use x="252.105469" xlink:href="#DejaVuSans-49"/>
       <use x="315.728516" xlink:href="#DejaVuSans-53"/>
      </g>
     </g>
    </g>
    <g id="xtick_6">
     <g id="line2d_11">
      <path clip-path="url(#p3f16664a77)" d="M 260.984075 185.398125 
L 260.984075 22.318125 
" style="fill:none;stroke:#b0b0b0;stroke-linecap:square;stroke-opacity:0.8;stroke-width:0.8;"/>
     </g>
     <g id="line2d_12">
      <g>
       <use style="stroke:#000000;stroke-width:0.8;" x="260.984075" xlink:href="#m7fadd2384a" y="185.398125"/>
      </g>
     </g>
     <g id="text_6">
      <!-- Mar. 22 -->
      <g transform="translate(242.016887 199.996562)scale(0.1 -0.1)">
       <use xlink:href="#DejaVuSans-77"/>
       <use x="86.279297" xlink:href="#DejaVuSans-97"/>
       <use x="147.558594" xlink:href="#DejaVuSans-114"/>
       <use x="188.53125" xlink:href="#DejaVuSans-46"/>
       <use x="220.318359" xlink:href="#DejaVuSans-32"/>
       <use x="252.105469" xlink:href="#DejaVuSans-50"/>
       <use x="315.728516" xlink:href="#DejaVuSans-50"/>
      </g>
     </g>
    </g>
    <g id="xtick_7">
     <g id="line2d_13">
      <path clip-path="url(#p3f16664a77)" d="M 301.548202 185.398125 
L 301.548202 22.318125 
" style="fill:none;stroke:#b0b0b0;stroke-linecap:square;stroke-opacity:0.8;stroke-width:0.8;"/>
     </g>
     <g id="line2d_14">
      <g>
       <use style="stroke:#000000;stroke-width:0.8;" x="301.548202" xlink:href="#m7fadd2384a" y="185.398125"/>
      </g>
     </g>
     <g id="text_7">
      <!-- Mar. 29 -->
      <defs>
       <path d="M 10.984375 1.515625 
L 10.984375 10.5 
Q 14.703125 8.734375 18.5 7.8125 
Q 22.3125 6.890625 25.984375 6.890625 
Q 35.75 6.890625 40.890625 13.453125 
Q 46.046875 20.015625 46.78125 33.40625 
Q 43.953125 29.203125 39.59375 26.953125 
Q 35.25 24.703125 29.984375 24.703125 
Q 19.046875 24.703125 12.671875 31.3125 
Q 6.296875 37.9375 6.296875 49.421875 
Q 6.296875 60.640625 12.9375 67.421875 
Q 19.578125 74.21875 30.609375 74.21875 
Q 43.265625 74.21875 49.921875 64.515625 
Q 56.59375 54.828125 56.59375 36.375 
Q 56.59375 19.140625 48.40625 8.859375 
Q 40.234375 -1.421875 26.421875 -1.421875 
Q 22.703125 -1.421875 18.890625 -0.6875 
Q 15.09375 0.046875 10.984375 1.515625 
z
M 30.609375 32.421875 
Q 37.25 32.421875 41.125 36.953125 
Q 45.015625 41.5 45.015625 49.421875 
Q 45.015625 57.28125 41.125 61.84375 
Q 37.25 66.40625 30.609375 66.40625 
Q 23.96875 66.40625 20.09375 61.84375 
Q 16.21875 57.28125 16.21875 49.421875 
Q 16.21875 41.5 20.09375 36.953125 
Q 23.96875 32.421875 30.609375 32.421875 
z
" id="DejaVuSans-57"/>
      </defs>
      <g transform="translate(282.581014 199.996562)scale(0.1 -0.1)">
       <use xlink:href="#DejaVuSans-77"/>
       <use x="86.279297" xlink:href="#DejaVuSans-97"/>
       <use x="147.558594" xlink:href="#DejaVuSans-114"/>
       <use x="188.53125" xlink:href="#DejaVuSans-46"/>
       <use x="220.318359" xlink:href="#DejaVuSans-32"/>
       <use x="252.105469" xlink:href="#DejaVuSans-50"/>
       <use x="315.728516" xlink:href="#DejaVuSans-57"/>
      </g>
     </g>
    </g>
    <g id="xtick_8">
     <g id="line2d_15">
      <path clip-path="url(#p3f16664a77)" d="M 342.112329 185.398125 
L 342.112329 22.318125 
" style="fill:none;stroke:#b0b0b0;stroke-linecap:square;stroke-opacity:0.8;stroke-width:0.8;"/>
     </g>
     <g id="line2d_16">
      <g>
       <use style="stroke:#000000;stroke-width:0.8;" x="342.112329" xlink:href="#m7fadd2384a" y="185.398125"/>
      </g>
     </g>
     <g id="text_8">
      <!-- Apr. 05 -->
      <defs>
       <path d="M 34.1875 63.1875 
L 20.796875 26.90625 
L 47.609375 26.90625 
z
M 28.609375 72.90625 
L 39.796875 72.90625 
L 67.578125 0 
L 57.328125 0 
L 50.6875 18.703125 
L 17.828125 18.703125 
L 11.1875 0 
L 0.78125 0 
z
" id="DejaVuSans-65"/>
       <path d="M 18.109375 8.203125 
L 18.109375 -20.796875 
L 9.078125 -20.796875 
L 9.078125 54.6875 
L 18.109375 54.6875 
L 18.109375 46.390625 
Q 20.953125 51.265625 25.265625 53.625 
Q 29.59375 56 35.59375 56 
Q 45.5625 56 51.78125 48.09375 
Q 58.015625 40.1875 58.015625 27.296875 
Q 58.015625 14.40625 51.78125 6.484375 
Q 45.5625 -1.421875 35.59375 -1.421875 
Q 29.59375 -1.421875 25.265625 0.953125 
Q 20.953125 3.328125 18.109375 8.203125 
z
M 48.6875 27.296875 
Q 48.6875 37.203125 44.609375 42.84375 
Q 40.53125 48.484375 33.40625 48.484375 
Q 26.265625 48.484375 22.1875 42.84375 
Q 18.109375 37.203125 18.109375 27.296875 
Q 18.109375 17.390625 22.1875 11.75 
Q 26.265625 6.109375 33.40625 6.109375 
Q 40.53125 6.109375 44.609375 11.75 
Q 48.6875 17.390625 48.6875 27.296875 
z
" id="DejaVuSans-112"/>
      </defs>
      <g transform="translate(323.928736 199.996562)scale(0.1 -0.1)">
       <use xlink:href="#DejaVuSans-65"/>
       <use x="68.408203" xlink:href="#DejaVuSans-112"/>
       <use x="131.884766" xlink:href="#DejaVuSans-114"/>
       <use x="172.857422" xlink:href="#DejaVuSans-46"/>
       <use x="204.644531" xlink:href="#DejaVuSans-32"/>
       <use x="236.431641" xlink:href="#DejaVuSans-48"/>
       <use x="300.054688" xlink:href="#DejaVuSans-53"/>
      </g>
     </g>
    </g>
    <g id="xtick_9">
     <g id="line2d_17">
      <path clip-path="url(#p3f16664a77)" d="M 382.676457 185.398125 
L 382.676457 22.318125 
" style="fill:none;stroke:#b0b0b0;stroke-linecap:square;stroke-opacity:0.8;stroke-width:0.8;"/>
     </g>
     <g id="line2d_18">
      <g>
       <use style="stroke:#000000;stroke-width:0.8;" x="382.676457" xlink:href="#m7fadd2384a" y="185.398125"/>
      </g>
     </g>
     <g id="text_9">
      <!-- Apr. 12 -->
      <g transform="translate(364.492863 199.996562)scale(0.1 -0.1)">
       <use xlink:href="#DejaVuSans-65"/>
       <use x="68.408203" xlink:href="#DejaVuSans-112"/>
       <use x="131.884766" xlink:href="#DejaVuSans-114"/>
       <use x="172.857422" xlink:href="#DejaVuSans-46"/>
       <use x="204.644531" xlink:href="#DejaVuSans-32"/>
       <use x="236.431641" xlink:href="#DejaVuSans-49"/>
       <use x="300.054688" xlink:href="#DejaVuSans-50"/>
      </g>
     </g>
    </g>
   </g>
   <g id="matplotlib.axis_2">
    <g id="ytick_1">
     <g id="line2d_19">
      <path clip-path="url(#p3f16664a77)" d="M 58.163438 185.398125 
L 392.963437 185.398125 
" style="fill:none;stroke:#b0b0b0;stroke-linecap:square;stroke-opacity:0.8;stroke-width:0.8;"/>
     </g>
     <g id="line2d_20">
      <defs>
       <path d="M 0 0 
L -3.5 0 
" id="m615b0744a8" style="stroke:#000000;stroke-width:0.8;"/>
      </defs>
      <g>
       <use style="stroke:#000000;stroke-width:0.8;" x="58.163438" xlink:href="#m615b0744a8" y="185.398125"/>
      </g>
     </g>
     <g id="text_10">
      <!-- 0.1 -->
      <g transform="translate(35.260313 189.197344)scale(0.1 -0.1)">
       <use xlink:href="#DejaVuSans-48"/>
       <use x="63.623047" xlink:href="#DejaVuSans-46"/>
       <use x="95.410156" xlink:href="#DejaVuSans-49"/>
      </g>
     </g>
    </g>
    <g id="ytick_2">
     <g id="line2d_21">
      <path clip-path="url(#p3f16664a77)" d="M 58.163438 138.497258 
L 392.963437 138.497258 
" style="fill:none;stroke:#b0b0b0;stroke-linecap:square;stroke-opacity:0.8;stroke-width:0.8;"/>
     </g>
     <g id="line2d_22">
      <g>
       <use style="stroke:#000000;stroke-width:0.8;" x="58.163438" xlink:href="#m615b0744a8" y="138.497258"/>
      </g>
     </g>
     <g id="text_11">
      <!-- 1 -->
      <g transform="translate(44.800938 142.296477)scale(0.1 -0.1)">
       <use xlink:href="#DejaVuSans-49"/>
      </g>
     </g>
    </g>
    <g id="ytick_3">
     <g id="line2d_23">
      <path clip-path="url(#p3f16664a77)" d="M 58.163438 91.596392 
L 392.963437 91.596392 
" style="fill:none;stroke:#b0b0b0;stroke-linecap:square;stroke-opacity:0.8;stroke-width:0.8;"/>
     </g>
     <g id="line2d_24">
      <g>
       <use style="stroke:#000000;stroke-width:0.8;" x="58.163438" xlink:href="#m615b0744a8" y="91.596392"/>
      </g>
     </g>
     <g id="text_12">
      <!-- 10 -->
      <g transform="translate(38.438438 95.395611)scale(0.1 -0.1)">
       <use xlink:href="#DejaVuSans-49"/>
       <use x="63.623047" xlink:href="#DejaVuSans-48"/>
      </g>
     </g>
    </g>
    <g id="ytick_4">
     <g id="line2d_25">
      <path clip-path="url(#p3f16664a77)" d="M 58.163438 44.695525 
L 392.963437 44.695525 
" style="fill:none;stroke:#b0b0b0;stroke-linecap:square;stroke-opacity:0.8;stroke-width:0.8;"/>
     </g>
     <g id="line2d_26">
      <g>
       <use style="stroke:#000000;stroke-width:0.8;" x="58.163438" xlink:href="#m615b0744a8" y="44.695525"/>
      </g>
     </g>
     <g id="text_13">
      <!-- 100 -->
      <g transform="translate(32.075938 48.494744)scale(0.1 -0.1)">
       <use xlink:href="#DejaVuSans-49"/>
       <use x="63.623047" xlink:href="#DejaVuSans-48"/>
       <use x="127.246094" xlink:href="#DejaVuSans-48"/>
      </g>
     </g>
    </g>
    <g id="ytick_5">
     <g id="line2d_27">
      <path clip-path="url(#p3f16664a77)" d="M 58.163438 171.279557 
L 392.963437 171.279557 
" style="fill:none;stroke:#b0b0b0;stroke-linecap:square;stroke-opacity:0.3;stroke-width:0.8;"/>
     </g>
     <g id="line2d_28">
      <defs>
       <path d="M 0 0 
L -2 0 
" id="m5b6cd566ea" style="stroke:#000000;stroke-width:0.6;"/>
      </defs>
      <g>
       <use style="stroke:#000000;stroke-width:0.6;" x="58.163438" xlink:href="#m5b6cd566ea" y="171.279557"/>
      </g>
     </g>
     <g id="text_14">
      <!-- 0.2 -->
      <g transform="translate(36.860313 175.078776)scale(0.1 -0.1)">
       <use xlink:href="#DejaVuSans-48"/>
       <use x="63.623047" xlink:href="#DejaVuSans-46"/>
       <use x="95.410156" xlink:href="#DejaVuSans-50"/>
      </g>
     </g>
    </g>
    <g id="ytick_6">
     <g id="line2d_29">
      <path clip-path="url(#p3f16664a77)" d="M 58.163438 152.615826 
L 392.963437 152.615826 
" style="fill:none;stroke:#b0b0b0;stroke-linecap:square;stroke-opacity:0.3;stroke-width:0.8;"/>
     </g>
     <g id="line2d_30">
      <g>
       <use style="stroke:#000000;stroke-width:0.6;" x="58.163438" xlink:href="#m5b6cd566ea" y="152.615826"/>
      </g>
     </g>
     <g id="text_15">
      <!-- 0.5 -->
      <g transform="translate(36.860313 156.415045)scale(0.1 -0.1)">
       <use xlink:href="#DejaVuSans-48"/>
       <use x="63.623047" xlink:href="#DejaVuSans-46"/>
       <use x="95.410156" xlink:href="#DejaVuSans-53"/>
      </g>
     </g>
    </g>
    <g id="ytick_7">
     <g id="line2d_31">
      <path clip-path="url(#p3f16664a77)" d="M 58.163438 124.378691 
L 392.963437 124.378691 
" style="fill:none;stroke:#b0b0b0;stroke-linecap:square;stroke-opacity:0.3;stroke-width:0.8;"/>
     </g>
     <g id="line2d_32">
      <g>
       <use style="stroke:#000000;stroke-width:0.6;" x="58.163438" xlink:href="#m5b6cd566ea" y="124.378691"/>
      </g>
     </g>
     <g id="text_16">
      <!-- 2 -->
      <g transform="translate(46.400938 128.17791)scale(0.1 -0.1)">
       <use xlink:href="#DejaVuSans-50"/>
      </g>
     </g>
    </g>
    <g id="ytick_8">
     <g id="line2d_33">
      <path clip-path="url(#p3f16664a77)" d="M 58.163438 105.71496 
L 392.963437 105.71496 
" style="fill:none;stroke:#b0b0b0;stroke-linecap:square;stroke-opacity:0.3;stroke-width:0.8;"/>
     </g>
     <g id="line2d_34">
      <g>
       <use style="stroke:#000000;stroke-width:0.6;" x="58.163438" xlink:href="#m5b6cd566ea" y="105.71496"/>
      </g>
     </g>
     <g id="text_17">
      <!-- 5 -->
      <g transform="translate(46.400938 109.514178)scale(0.1 -0.1)">
       <use xlink:href="#DejaVuSans-53"/>
      </g>
     </g>
    </g>
    <g id="ytick_9">
     <g id="line2d_35">
      <path clip-path="url(#p3f16664a77)" d="M 58.163438 77.477824 
L 392.963437 77.477824 
" style="fill:none;stroke:#b0b0b0;stroke-linecap:square;stroke-opacity:0.3;stroke-width:0.8;"/>
     </g>
     <g id="line2d_36">
      <g>
       <use style="stroke:#000000;stroke-width:0.6;" x="58.163438" xlink:href="#m5b6cd566ea" y="77.477824"/>
      </g>
     </g>
     <g id="text_18">
      <!-- 20 -->
      <g transform="translate(40.038438 81.277043)scale(0.1 -0.1)">
       <use xlink:href="#DejaVuSans-50"/>
       <use x="63.623047" xlink:href="#DejaVuSans-48"/>
      </g>
     </g>
    </g>
    <g id="ytick_10">
     <g id="line2d_37">
      <path clip-path="url(#p3f16664a77)" d="M 58.163438 58.814093 
L 392.963437 58.814093 
" style="fill:none;stroke:#b0b0b0;stroke-linecap:square;stroke-opacity:0.3;stroke-width:0.8;"/>
     </g>
     <g id="line2d_38">
      <g>
       <use style="stroke:#000000;stroke-width:0.6;" x="58.163438" xlink:href="#m5b6cd566ea" y="58.814093"/>
      </g>
     </g>
     <g id="text_19">
      <!-- 50 -->
      <g transform="translate(40.038438 62.613312)scale(0.1 -0.1)">
       <use xlink:href="#DejaVuSans-53"/>
       <use x="63.623047" xlink:href="#DejaVuSans-48"/>
      </g>
     </g>
    </g>
    <g id="ytick_11">
     <g id="line2d_39">
      <path clip-path="url(#p3f16664a77)" d="M 58.163438 30.576958 
L 392.963437 30.576958 
" style="fill:none;stroke:#b0b0b0;stroke-linecap:square;stroke-opacity:0.3;stroke-width:0.8;"/>
     </g>
     <g id="line2d_40">
      <g>
       <use style="stroke:#000000;stroke-width:0.6;" x="58.163438" xlink:href="#m5b6cd566ea" y="30.576958"/>
      </g>
     </g>
     <g id="text_20">
      <!-- 200 -->
      <g transform="translate(33.675938 34.376176)scale(0.1 -0.1)">
       <use xlink:href="#DejaVuSans-50"/>
       <use x="63.623047" xlink:href="#DejaVuSans-48"/>
       <use x="127.246094" xlink:href="#DejaVuSans-48"/>
      </g>
     </g>
    </g>
    <g id="text_21">
     <!-- New cases in country -->
     <defs>
      <path d="M 9.8125 72.90625 
L 23.09375 72.90625 
L 55.421875 11.921875 
L 55.421875 72.90625 
L 64.984375 72.90625 
L 64.984375 0 
L 51.703125 0 
L 19.390625 60.984375 
L 19.390625 0 
L 9.8125 0 
z
" id="DejaVuSans-78"/>
      <path d="M 4.203125 54.6875 
L 13.1875 54.6875 
L 24.421875 12.015625 
L 35.59375 54.6875 
L 46.1875 54.6875 
L 57.421875 12.015625 
L 68.609375 54.6875 
L 77.59375 54.6875 
L 63.28125 0 
L 52.6875 0 
L 40.921875 44.828125 
L 29.109375 0 
L 18.5 0 
z
" id="DejaVuSans-119"/>
      <path d="M 48.78125 52.59375 
L 48.78125 44.1875 
Q 44.96875 46.296875 41.140625 47.34375 
Q 37.3125 48.390625 33.40625 48.390625 
Q 24.65625 48.390625 19.8125 42.84375 
Q 14.984375 37.3125 14.984375 27.296875 
Q 14.984375 17.28125 19.8125 11.734375 
Q 24.65625 6.203125 33.40625 6.203125 
Q 37.3125 6.203125 41.140625 7.25 
Q 44.96875 8.296875 48.78125 10.40625 
L 48.78125 2.09375 
Q 45.015625 0.34375 40.984375 -0.53125 
Q 36.96875 -1.421875 32.421875 -1.421875 
Q 20.0625 -1.421875 12.78125 6.34375 
Q 5.515625 14.109375 5.515625 27.296875 
Q 5.515625 40.671875 12.859375 48.328125 
Q 20.21875 56 33.015625 56 
Q 37.15625 56 41.109375 55.140625 
Q 45.0625 54.296875 48.78125 52.59375 
z
" id="DejaVuSans-99"/>
      <path d="M 44.28125 53.078125 
L 44.28125 44.578125 
Q 40.484375 46.53125 36.375 47.5 
Q 32.28125 48.484375 27.875 48.484375 
Q 21.1875 48.484375 17.84375 46.4375 
Q 14.5 44.390625 14.5 40.28125 
Q 14.5 37.15625 16.890625 35.375 
Q 19.28125 33.59375 26.515625 31.984375 
L 29.59375 31.296875 
Q 39.15625 29.25 43.1875 25.515625 
Q 47.21875 21.78125 47.21875 15.09375 
Q 47.21875 7.46875 41.1875 3.015625 
Q 35.15625 -1.421875 24.609375 -1.421875 
Q 20.21875 -1.421875 15.453125 -0.5625 
Q 10.6875 0.296875 5.421875 2 
L 5.421875 11.28125 
Q 10.40625 8.6875 15.234375 7.390625 
Q 20.0625 6.109375 24.8125 6.109375 
Q 31.15625 6.109375 34.5625 8.28125 
Q 37.984375 10.453125 37.984375 14.40625 
Q 37.984375 18.0625 35.515625 20.015625 
Q 33.0625 21.96875 24.703125 23.78125 
L 21.578125 24.515625 
Q 13.234375 26.265625 9.515625 29.90625 
Q 5.8125 33.546875 5.8125 39.890625 
Q 5.8125 47.609375 11.28125 51.796875 
Q 16.75 56 26.8125 56 
Q 31.78125 56 36.171875 55.265625 
Q 40.578125 54.546875 44.28125 53.078125 
z
" id="DejaVuSans-115"/>
      <path d="M 9.421875 54.6875 
L 18.40625 54.6875 
L 18.40625 0 
L 9.421875 0 
z
M 9.421875 75.984375 
L 18.40625 75.984375 
L 18.40625 64.59375 
L 9.421875 64.59375 
z
" id="DejaVuSans-105"/>
      <path d="M 54.890625 33.015625 
L 54.890625 0 
L 45.90625 0 
L 45.90625 32.71875 
Q 45.90625 40.484375 42.875 44.328125 
Q 39.84375 48.1875 33.796875 48.1875 
Q 26.515625 48.1875 22.3125 43.546875 
Q 18.109375 38.921875 18.109375 30.90625 
L 18.109375 0 
L 9.078125 0 
L 9.078125 54.6875 
L 18.109375 54.6875 
L 18.109375 46.1875 
Q 21.34375 51.125 25.703125 53.5625 
Q 30.078125 56 35.796875 56 
Q 45.21875 56 50.046875 50.171875 
Q 54.890625 44.34375 54.890625 33.015625 
z
" id="DejaVuSans-110"/>
      <path d="M 30.609375 48.390625 
Q 23.390625 48.390625 19.1875 42.75 
Q 14.984375 37.109375 14.984375 27.296875 
Q 14.984375 17.484375 19.15625 11.84375 
Q 23.34375 6.203125 30.609375 6.203125 
Q 37.796875 6.203125 41.984375 11.859375 
Q 46.1875 17.53125 46.1875 27.296875 
Q 46.1875 37.015625 41.984375 42.703125 
Q 37.796875 48.390625 30.609375 48.390625 
z
M 30.609375 56 
Q 42.328125 56 49.015625 48.375 
Q 55.71875 40.765625 55.71875 27.296875 
Q 55.71875 13.875 49.015625 6.21875 
Q 42.328125 -1.421875 30.609375 -1.421875 
Q 18.84375 -1.421875 12.171875 6.21875 
Q 5.515625 13.875 5.515625 27.296875 
Q 5.515625 40.765625 12.171875 48.375 
Q 18.84375 56 30.609375 56 
z
" id="DejaVuSans-111"/>
      <path d="M 8.5 21.578125 
L 8.5 54.6875 
L 17.484375 54.6875 
L 17.484375 21.921875 
Q 17.484375 14.15625 20.5 10.265625 
Q 23.53125 6.390625 29.59375 6.390625 
Q 36.859375 6.390625 41.078125 11.03125 
Q 45.3125 15.671875 45.3125 23.6875 
L 45.3125 54.6875 
L 54.296875 54.6875 
L 54.296875 0 
L 45.3125 0 
L 45.3125 8.40625 
Q 42.046875 3.421875 37.71875 1 
Q 33.40625 -1.421875 27.6875 -1.421875 
Q 18.265625 -1.421875 13.375 4.4375 
Q 8.5 10.296875 8.5 21.578125 
z
M 31.109375 56 
z
" id="DejaVuSans-117"/>
      <path d="M 18.3125 70.21875 
L 18.3125 54.6875 
L 36.8125 54.6875 
L 36.8125 47.703125 
L 18.3125 47.703125 
L 18.3125 18.015625 
Q 18.3125 11.328125 20.140625 9.421875 
Q 21.96875 7.515625 27.59375 7.515625 
L 36.8125 7.515625 
L 36.8125 0 
L 27.59375 0 
Q 17.1875 0 13.234375 3.875 
Q 9.28125 7.765625 9.28125 18.015625 
L 9.28125 47.703125 
L 2.6875 47.703125 
L 2.6875 54.6875 
L 9.28125 54.6875 
L 9.28125 70.21875 
z
" id="DejaVuSans-116"/>
      <path d="M 32.171875 -5.078125 
Q 28.375 -14.84375 24.75 -17.8125 
Q 21.140625 -20.796875 15.09375 -20.796875 
L 7.90625 -20.796875 
L 7.90625 -13.28125 
L 13.1875 -13.28125 
Q 16.890625 -13.28125 18.9375 -11.515625 
Q 21 -9.765625 23.484375 -3.21875 
L 25.09375 0.875 
L 2.984375 54.6875 
L 12.5 54.6875 
L 29.59375 11.921875 
L 46.6875 54.6875 
L 56.203125 54.6875 
z
" id="DejaVuSans-121"/>
     </defs>
     <g transform="translate(14.798438 157.309687)rotate(-90)scale(0.1 -0.1)">
      <use xlink:href="#DejaVuSans-78"/>
      <use x="74.804688" xlink:href="#DejaVuSans-101"/>
      <use x="136.328125" xlink:href="#DejaVuSans-119"/>
      <use x="218.115234" xlink:href="#DejaVuSans-32"/>
      <use x="249.902344" xlink:href="#DejaVuSans-99"/>
      <use x="304.882812" xlink:href="#DejaVuSans-97"/>
      <use x="366.162109" xlink:href="#DejaVuSans-115"/>
      <use x="418.261719" xlink:href="#DejaVuSans-101"/>
      <use x="479.785156" xlink:href="#DejaVuSans-115"/>
      <use x="531.884766" xlink:href="#DejaVuSans-32"/>
      <use x="563.671875" xlink:href="#DejaVuSans-105"/>
      <use x="591.455078" xlink:href="#DejaVuSans-110"/>
      <use x="654.833984" xlink:href="#DejaVuSans-32"/>
      <use x="686.621094" xlink:href="#DejaVuSans-99"/>
      <use x="741.601562" xlink:href="#DejaVuSans-111"/>
      <use x="802.783203" xlink:href="#DejaVuSans-117"/>
      <use x="866.162109" xlink:href="#DejaVuSans-110"/>
      <use x="929.541016" xlink:href="#DejaVuSans-116"/>
      <use x="968.75" xlink:href="#DejaVuSans-114"/>
      <use x="1009.863281" xlink:href="#DejaVuSans-121"/>
     </g>
     <!-- (per million) -->
     <defs>
      <path d="M 31 75.875 
Q 24.46875 64.65625 21.28125 53.65625 
Q 18.109375 42.671875 18.109375 31.390625 
Q 18.109375 20.125 21.3125 9.0625 
Q 24.515625 -2 31 -13.1875 
L 23.1875 -13.1875 
Q 15.875 -1.703125 12.234375 9.375 
Q 8.59375 20.453125 8.59375 31.390625 
Q 8.59375 42.28125 12.203125 53.3125 
Q 15.828125 64.359375 23.1875 75.875 
z
" id="DejaVuSans-40"/>
      <path d="M 52 44.1875 
Q 55.375 50.25 60.0625 53.125 
Q 64.75 56 71.09375 56 
Q 79.640625 56 84.28125 50.015625 
Q 88.921875 44.046875 88.921875 33.015625 
L 88.921875 0 
L 79.890625 0 
L 79.890625 32.71875 
Q 79.890625 40.578125 77.09375 44.375 
Q 74.3125 48.1875 68.609375 48.1875 
Q 61.625 48.1875 57.5625 43.546875 
Q 53.515625 38.921875 53.515625 30.90625 
L 53.515625 0 
L 44.484375 0 
L 44.484375 32.71875 
Q 44.484375 40.625 41.703125 44.40625 
Q 38.921875 48.1875 33.109375 48.1875 
Q 26.21875 48.1875 22.15625 43.53125 
Q 18.109375 38.875 18.109375 30.90625 
L 18.109375 0 
L 9.078125 0 
L 9.078125 54.6875 
L 18.109375 54.6875 
L 18.109375 46.1875 
Q 21.1875 51.21875 25.484375 53.609375 
Q 29.78125 56 35.6875 56 
Q 41.65625 56 45.828125 52.96875 
Q 50 49.953125 52 44.1875 
z
" id="DejaVuSans-109"/>
      <path d="M 9.421875 75.984375 
L 18.40625 75.984375 
L 18.40625 0 
L 9.421875 0 
z
" id="DejaVuSans-108"/>
      <path d="M 8.015625 75.875 
L 15.828125 75.875 
Q 23.140625 64.359375 26.78125 53.3125 
Q 30.421875 42.28125 30.421875 31.390625 
Q 30.421875 20.453125 26.78125 9.375 
Q 23.140625 -1.703125 15.828125 -13.1875 
L 8.015625 -13.1875 
Q 14.5 -2 17.703125 9.0625 
Q 20.90625 20.125 20.90625 31.390625 
Q 20.90625 42.671875 17.703125 53.65625 
Q 14.5 64.65625 8.015625 75.875 
z
" id="DejaVuSans-41"/>
     </defs>
     <g transform="translate(25.99625 134.309687)rotate(-90)scale(0.1 -0.1)">
      <use xlink:href="#DejaVuSans-40"/>
      <use x="39.013672" xlink:href="#DejaVuSans-112"/>
      <use x="102.490234" xlink:href="#DejaVuSans-101"/>
      <use x="164.013672" xlink:href="#DejaVuSans-114"/>
      <use x="205.126953" xlink:href="#DejaVuSans-32"/>
      <use x="236.914062" xlink:href="#DejaVuSans-109"/>
      <use x="334.326172" xlink:href="#DejaVuSans-105"/>
      <use x="362.109375" xlink:href="#DejaVuSans-108"/>
      <use x="389.892578" xlink:href="#DejaVuSans-108"/>
      <use x="417.675781" xlink:href="#DejaVuSans-105"/>
      <use x="445.458984" xlink:href="#DejaVuSans-111"/>
      <use x="506.640625" xlink:href="#DejaVuSans-110"/>
      <use x="570.019531" xlink:href="#DejaVuSans-41"/>
     </g>
    </g>
   </g>
   <g id="line2d_41">
    <path clip-path="url(#p3f16664a77)" d="M 58.163438 218.865034 
L 63.958313 218.865034 
L 69.753188 218.865034 
L 75.548064 151.732833 
L 81.342939 137.995001 
L 87.137814 125.474805 
L 92.93269 108.36538 
L 98.727565 114.740041 
L 104.52244 108.009584 
L 110.317316 117.635963 
L 116.112191 103.802278 
L 121.907066 92.078326 
L 127.701942 89.576412 
L 133.496817 82.379266 
L 139.291692 89.048237 
L 145.086568 88.601309 
L 150.881443 81.448799 
L 156.676318 95.117601 
L 162.471194 86.533604 
L 168.266069 102.083823 
L 174.060944 94.517798 
L 179.85582 104.681643 
L 185.650695 114.863115 
L 191.44557 146.446905 
L 197.240446 107.062027 
L 203.035321 122.394414 
L 208.830196 123.121948 
L 214.625072 123.685176 
L 220.419947 130.653247 
L 226.214822 131.196446 
L 232.009698 128.614668 
L 237.804573 126.541478 
L 243.599448 116.534679 
L 249.394324 127.8999 
L 255.189199 117.215973 
L 260.984075 125.474805 
L 266.77895 134.153628 
L 272.573825 130.653247 
L 278.368701 125.063301 
L 284.163576 124.264422 
L 289.958451 126.984295 
L 295.753327 117.355009 
L 301.548202 124.069504 
L 307.343077 130.124157 
L 313.137953 120.518137 
L 318.932828 124.860625 
L 324.727703 127.436953 
L 330.522579 128.13538 
L 336.317454 126.323628 
L 342.112329 129.355433 
L 347.907205 140.442195 
L 353.70208 140.442195 
L 359.496955 137.995001 
L 365.291831 144.242725 
" style="fill:none;stroke:#d62728;stroke-linecap:square;stroke-width:1.5;"/>
    <defs>
     <path d="M 0 3 
C 0.795609 3 1.55874 2.683901 2.12132 2.12132 
C 2.683901 1.55874 3 0.795609 3 0 
C 3 -0.795609 2.683901 -1.55874 2.12132 -2.12132 
C 1.55874 -2.683901 0.795609 -3 0 -3 
C -0.795609 -3 -1.55874 -2.683901 -2.12132 -2.12132 
C -2.683901 -1.55874 -3 -0.795609 -3 0 
C -3 0.795609 -2.683901 1.55874 -2.12132 2.12132 
C -1.55874 2.683901 -0.795609 3 0 3 
z
" id="m85a467c5fa" style="stroke:#d62728;"/>
    </defs>
    <g clip-path="url(#p3f16664a77)">
     <use style="fill:#d62728;stroke:#d62728;" x="58.163438" xlink:href="#m85a467c5fa" y="218.865034"/>
     <use style="fill:#d62728;stroke:#d62728;" x="63.958313" xlink:href="#m85a467c5fa" y="218.865034"/>
     <use style="fill:#d62728;stroke:#d62728;" x="69.753188" xlink:href="#m85a467c5fa" y="218.865034"/>
     <use style="fill:#d62728;stroke:#d62728;" x="75.548064" xlink:href="#m85a467c5fa" y="151.732833"/>
     <use style="fill:#d62728;stroke:#d62728;" x="81.342939" xlink:href="#m85a467c5fa" y="137.995001"/>
     <use style="fill:#d62728;stroke:#d62728;" x="87.137814" xlink:href="#m85a467c5fa" y="125.474805"/>
     <use style="fill:#d62728;stroke:#d62728;" x="92.93269" xlink:href="#m85a467c5fa" y="108.36538"/>
     <use style="fill:#d62728;stroke:#d62728;" x="98.727565" xlink:href="#m85a467c5fa" y="114.740041"/>
     <use style="fill:#d62728;stroke:#d62728;" x="104.52244" xlink:href="#m85a467c5fa" y="108.009584"/>
     <use style="fill:#d62728;stroke:#d62728;" x="110.317316" xlink:href="#m85a467c5fa" y="117.635963"/>
     <use style="fill:#d62728;stroke:#d62728;" x="116.112191" xlink:href="#m85a467c5fa" y="103.802278"/>
     <use style="fill:#d62728;stroke:#d62728;" x="121.907066" xlink:href="#m85a467c5fa" y="92.078326"/>
     <use style="fill:#d62728;stroke:#d62728;" x="127.701942" xlink:href="#m85a467c5fa" y="89.576412"/>
     <use style="fill:#d62728;stroke:#d62728;" x="133.496817" xlink:href="#m85a467c5fa" y="82.379266"/>
     <use style="fill:#d62728;stroke:#d62728;" x="139.291692" xlink:href="#m85a467c5fa" y="89.048237"/>
     <use style="fill:#d62728;stroke:#d62728;" x="145.086568" xlink:href="#m85a467c5fa" y="88.601309"/>
     <use style="fill:#d62728;stroke:#d62728;" x="150.881443" xlink:href="#m85a467c5fa" y="81.448799"/>
     <use style="fill:#d62728;stroke:#d62728;" x="156.676318" xlink:href="#m85a467c5fa" y="95.117601"/>
     <use style="fill:#d62728;stroke:#d62728;" x="162.471194" xlink:href="#m85a467c5fa" y="86.533604"/>
     <use style="fill:#d62728;stroke:#d62728;" x="168.266069" xlink:href="#m85a467c5fa" y="102.083823"/>
     <use style="fill:#d62728;stroke:#d62728;" x="174.060944" xlink:href="#m85a467c5fa" y="94.517798"/>
     <use style="fill:#d62728;stroke:#d62728;" x="179.85582" xlink:href="#m85a467c5fa" y="104.681643"/>
     <use style="fill:#d62728;stroke:#d62728;" x="185.650695" xlink:href="#m85a467c5fa" y="114.863115"/>
     <use style="fill:#d62728;stroke:#d62728;" x="191.44557" xlink:href="#m85a467c5fa" y="146.446905"/>
     <use style="fill:#d62728;stroke:#d62728;" x="197.240446" xlink:href="#m85a467c5fa" y="107.062027"/>
     <use style="fill:#d62728;stroke:#d62728;" x="203.035321" xlink:href="#m85a467c5fa" y="122.394414"/>
     <use style="fill:#d62728;stroke:#d62728;" x="208.830196" xlink:href="#m85a467c5fa" y="123.121948"/>
     <use style="fill:#d62728;stroke:#d62728;" x="214.625072" xlink:href="#m85a467c5fa" y="123.685176"/>
     <use style="fill:#d62728;stroke:#d62728;" x="220.419947" xlink:href="#m85a467c5fa" y="130.653247"/>
     <use style="fill:#d62728;stroke:#d62728;" x="226.214822" xlink:href="#m85a467c5fa" y="131.196446"/>
     <use style="fill:#d62728;stroke:#d62728;" x="232.009698" xlink:href="#m85a467c5fa" y="128.614668"/>
     <use style="fill:#d62728;stroke:#d62728;" x="237.804573" xlink:href="#m85a467c5fa" y="126.541478"/>
     <use style="fill:#d62728;stroke:#d62728;" x="243.599448" xlink:href="#m85a467c5fa" y="116.534679"/>
     <use style="fill:#d62728;stroke:#d62728;" x="249.394324" xlink:href="#m85a467c5fa" y="127.8999"/>
     <use style="fill:#d62728;stroke:#d62728;" x="255.189199" xlink:href="#m85a467c5fa" y="117.215973"/>
     <use style="fill:#d62728;stroke:#d62728;" x="260.984075" xlink:href="#m85a467c5fa" y="125.474805"/>
     <use style="fill:#d62728;stroke:#d62728;" x="266.77895" xlink:href="#m85a467c5fa" y="134.153628"/>
     <use style="fill:#d62728;stroke:#d62728;" x="272.573825" xlink:href="#m85a467c5fa" y="130.653247"/>
     <use style="fill:#d62728;stroke:#d62728;" x="278.368701" xlink:href="#m85a467c5fa" y="125.063301"/>
     <use style="fill:#d62728;stroke:#d62728;" x="284.163576" xlink:href="#m85a467c5fa" y="124.264422"/>
     <use style="fill:#d62728;stroke:#d62728;" x="289.958451" xlink:href="#m85a467c5fa" y="126.984295"/>
     <use style="fill:#d62728;stroke:#d62728;" x="295.753327" xlink:href="#m85a467c5fa" y="117.355009"/>
     <use style="fill:#d62728;stroke:#d62728;" x="301.548202" xlink:href="#m85a467c5fa" y="124.069504"/>
     <use style="fill:#d62728;stroke:#d62728;" x="307.343077" xlink:href="#m85a467c5fa" y="130.124157"/>
     <use style="fill:#d62728;stroke:#d62728;" x="313.137953" xlink:href="#m85a467c5fa" y="120.518137"/>
     <use style="fill:#d62728;stroke:#d62728;" x="318.932828" xlink:href="#m85a467c5fa" y="124.860625"/>
     <use style="fill:#d62728;stroke:#d62728;" x="324.727703" xlink:href="#m85a467c5fa" y="127.436953"/>
     <use style="fill:#d62728;stroke:#d62728;" x="330.522579" xlink:href="#m85a467c5fa" y="128.13538"/>
     <use style="fill:#d62728;stroke:#d62728;" x="336.317454" xlink:href="#m85a467c5fa" y="126.323628"/>
     <use style="fill:#d62728;stroke:#d62728;" x="342.112329" xlink:href="#m85a467c5fa" y="129.355433"/>
     <use style="fill:#d62728;stroke:#d62728;" x="347.907205" xlink:href="#m85a467c5fa" y="140.442195"/>
     <use style="fill:#d62728;stroke:#d62728;" x="353.70208" xlink:href="#m85a467c5fa" y="140.442195"/>
     <use style="fill:#d62728;stroke:#d62728;" x="359.496955" xlink:href="#m85a467c5fa" y="137.995001"/>
     <use style="fill:#d62728;stroke:#d62728;" x="365.291831" xlink:href="#m85a467c5fa" y="144.242725"/>
    </g>
   </g>
   <g id="line2d_42">
    <path clip-path="url(#p3f16664a77)" d="M 81.336967 270.245725 
L 81.342939 222.001609 
L 87.137814 164.292488 
L 92.93269 139.295308 
L 98.727565 133.260733 
L 104.52244 134.891106 
L 110.317316 129.460203 
L 116.112191 120.352548 
L 121.907066 115.66929 
L 127.701942 110.883332 
L 133.496817 110.452687 
L 139.291692 92.641767 
L 145.086568 103.57482 
L 150.881443 96.851997 
L 156.676318 92.150083 
L 162.471194 86.649163 
L 168.266069 86.412161 
L 174.060944 76.80279 
L 179.85582 73.149101 
L 185.650695 69.360484 
L 191.44557 81.772963 
L 197.240446 64.218857 
L 203.035321 61.440726 
L 208.830196 62.2559 
L 214.625072 55.799213 
L 220.419947 55.264599 
L 226.214822 57.39806 
L 232.009698 55.630995 
L 237.804573 52.034158 
L 243.599448 47.245469 
L 249.394324 44.850624 
L 255.189199 42.994829 
L 260.984075 46.354356 
L 266.77895 49.394937 
L 272.573825 47.526794 
L 278.368701 47.678699 
L 284.163576 44.125299 
L 289.958451 45.114335 
L 295.753327 44.891498 
L 301.548202 47.651351 
L 307.343077 52.808842 
L 313.137953 52.79376 
L 318.932828 49.424732 
L 324.727703 49.916193 
L 330.522579 50.281621 
L 336.317454 49.326999 
L 342.112329 51.51314 
L 347.907205 55.213599 
L 353.70208 58.658521 
L 359.496955 53.914597 
L 365.291831 52.048688 
" style="fill:none;stroke:#2ca02c;stroke-linecap:square;stroke-width:1.5;"/>
    <defs>
     <path d="M 0 3 
C 0.795609 3 1.55874 2.683901 2.12132 2.12132 
C 2.683901 1.55874 3 0.795609 3 0 
C 3 -0.795609 2.683901 -1.55874 2.12132 -2.12132 
C 1.55874 -2.683901 0.795609 -3 0 -3 
C -0.795609 -3 -1.55874 -2.683901 -2.12132 -2.12132 
C -2.683901 -1.55874 -3 -0.795609 -3 0 
C -3 0.795609 -2.683901 1.55874 -2.12132 2.12132 
C -1.55874 2.683901 -0.795609 3 0 3 
z
" id="m75dfe3a37a" style="stroke:#2ca02c;"/>
    </defs>
    <g clip-path="url(#p3f16664a77)">
     <use style="fill:#2ca02c;stroke:#2ca02c;" x="78.970806" xlink:href="#m75dfe3a37a" y="19386.6922"/>
     <use style="fill:#2ca02c;stroke:#2ca02c;" x="81.342939" xlink:href="#m75dfe3a37a" y="222.001609"/>
     <use style="fill:#2ca02c;stroke:#2ca02c;" x="87.137814" xlink:href="#m75dfe3a37a" y="164.292488"/>
     <use style="fill:#2ca02c;stroke:#2ca02c;" x="92.93269" xlink:href="#m75dfe3a37a" y="139.295308"/>
     <use style="fill:#2ca02c;stroke:#2ca02c;" x="98.727565" xlink:href="#m75dfe3a37a" y="133.260733"/>
     <use style="fill:#2ca02c;stroke:#2ca02c;" x="104.52244" xlink:href="#m75dfe3a37a" y="134.891106"/>
     <use style="fill:#2ca02c;stroke:#2ca02c;" x="110.317316" xlink:href="#m75dfe3a37a" y="129.460203"/>
     <use style="fill:#2ca02c;stroke:#2ca02c;" x="116.112191" xlink:href="#m75dfe3a37a" y="120.352548"/>
     <use style="fill:#2ca02c;stroke:#2ca02c;" x="121.907066" xlink:href="#m75dfe3a37a" y="115.66929"/>
     <use style="fill:#2ca02c;stroke:#2ca02c;" x="127.701942" xlink:href="#m75dfe3a37a" y="110.883332"/>
     <use style="fill:#2ca02c;stroke:#2ca02c;" x="133.496817" xlink:href="#m75dfe3a37a" y="110.452687"/>
     <use style="fill:#2ca02c;stroke:#2ca02c;" x="139.291692" xlink:href="#m75dfe3a37a" y="92.641767"/>
     <use style="fill:#2ca02c;stroke:#2ca02c;" x="145.086568" xlink:href="#m75dfe3a37a" y="103.57482"/>
     <use style="fill:#2ca02c;stroke:#2ca02c;" x="150.881443" xlink:href="#m75dfe3a37a" y="96.851997"/>
     <use style="fill:#2ca02c;stroke:#2ca02c;" x="156.676318" xlink:href="#m75dfe3a37a" y="92.150083"/>
     <use style="fill:#2ca02c;stroke:#2ca02c;" x="162.471194" xlink:href="#m75dfe3a37a" y="86.649163"/>
     <use style="fill:#2ca02c;stroke:#2ca02c;" x="168.266069" xlink:href="#m75dfe3a37a" y="86.412161"/>
     <use style="fill:#2ca02c;stroke:#2ca02c;" x="174.060944" xlink:href="#m75dfe3a37a" y="76.80279"/>
     <use style="fill:#2ca02c;stroke:#2ca02c;" x="179.85582" xlink:href="#m75dfe3a37a" y="73.149101"/>
     <use style="fill:#2ca02c;stroke:#2ca02c;" x="185.650695" xlink:href="#m75dfe3a37a" y="69.360484"/>
     <use style="fill:#2ca02c;stroke:#2ca02c;" x="191.44557" xlink:href="#m75dfe3a37a" y="81.772963"/>
     <use style="fill:#2ca02c;stroke:#2ca02c;" x="197.240446" xlink:href="#m75dfe3a37a" y="64.218857"/>
     <use style="fill:#2ca02c;stroke:#2ca02c;" x="203.035321" xlink:href="#m75dfe3a37a" y="61.440726"/>
     <use style="fill:#2ca02c;stroke:#2ca02c;" x="208.830196" xlink:href="#m75dfe3a37a" y="62.2559"/>
     <use style="fill:#2ca02c;stroke:#2ca02c;" x="214.625072" xlink:href="#m75dfe3a37a" y="55.799213"/>
     <use style="fill:#2ca02c;stroke:#2ca02c;" x="220.419947" xlink:href="#m75dfe3a37a" y="55.264599"/>
     <use style="fill:#2ca02c;stroke:#2ca02c;" x="226.214822" xlink:href="#m75dfe3a37a" y="57.39806"/>
     <use style="fill:#2ca02c;stroke:#2ca02c;" x="232.009698" xlink:href="#m75dfe3a37a" y="55.630995"/>
     <use style="fill:#2ca02c;stroke:#2ca02c;" x="237.804573" xlink:href="#m75dfe3a37a" y="52.034158"/>
     <use style="fill:#2ca02c;stroke:#2ca02c;" x="243.599448" xlink:href="#m75dfe3a37a" y="47.245469"/>
     <use style="fill:#2ca02c;stroke:#2ca02c;" x="249.394324" xlink:href="#m75dfe3a37a" y="44.850624"/>
     <use style="fill:#2ca02c;stroke:#2ca02c;" x="255.189199" xlink:href="#m75dfe3a37a" y="42.994829"/>
     <use style="fill:#2ca02c;stroke:#2ca02c;" x="260.984075" xlink:href="#m75dfe3a37a" y="46.354356"/>
     <use style="fill:#2ca02c;stroke:#2ca02c;" x="266.77895" xlink:href="#m75dfe3a37a" y="49.394937"/>
     <use style="fill:#2ca02c;stroke:#2ca02c;" x="272.573825" xlink:href="#m75dfe3a37a" y="47.526794"/>
     <use style="fill:#2ca02c;stroke:#2ca02c;" x="278.368701" xlink:href="#m75dfe3a37a" y="47.678699"/>
     <use style="fill:#2ca02c;stroke:#2ca02c;" x="284.163576" xlink:href="#m75dfe3a37a" y="44.125299"/>
     <use style="fill:#2ca02c;stroke:#2ca02c;" x="289.958451" xlink:href="#m75dfe3a37a" y="45.114335"/>
     <use style="fill:#2ca02c;stroke:#2ca02c;" x="295.753327" xlink:href="#m75dfe3a37a" y="44.891498"/>
     <use style="fill:#2ca02c;stroke:#2ca02c;" x="301.548202" xlink:href="#m75dfe3a37a" y="47.651351"/>
     <use style="fill:#2ca02c;stroke:#2ca02c;" x="307.343077" xlink:href="#m75dfe3a37a" y="52.808842"/>
     <use style="fill:#2ca02c;stroke:#2ca02c;" x="313.137953" xlink:href="#m75dfe3a37a" y="52.79376"/>
     <use style="fill:#2ca02c;stroke:#2ca02c;" x="318.932828" xlink:href="#m75dfe3a37a" y="49.424732"/>
     <use style="fill:#2ca02c;stroke:#2ca02c;" x="324.727703" xlink:href="#m75dfe3a37a" y="49.916193"/>
     <use style="fill:#2ca02c;stroke:#2ca02c;" x="330.522579" xlink:href="#m75dfe3a37a" y="50.281621"/>
     <use style="fill:#2ca02c;stroke:#2ca02c;" x="336.317454" xlink:href="#m75dfe3a37a" y="49.326999"/>
     <use style="fill:#2ca02c;stroke:#2ca02c;" x="342.112329" xlink:href="#m75dfe3a37a" y="51.51314"/>
     <use style="fill:#2ca02c;stroke:#2ca02c;" x="347.907205" xlink:href="#m75dfe3a37a" y="55.213599"/>
     <use style="fill:#2ca02c;stroke:#2ca02c;" x="353.70208" xlink:href="#m75dfe3a37a" y="58.658521"/>
     <use style="fill:#2ca02c;stroke:#2ca02c;" x="359.496955" xlink:href="#m75dfe3a37a" y="53.914597"/>
     <use style="fill:#2ca02c;stroke:#2ca02c;" x="365.291831" xlink:href="#m75dfe3a37a" y="52.048688"/>
    </g>
   </g>
   <g id="line2d_43">
    <path clip-path="url(#p3f16664a77)" d="M 98.718389 270.245725 
L 98.727565 196.069858 
L 98.736741 270.245725 
M 121.898614 270.245725 
L 121.907066 201.929593 
L 127.701942 196.069858 
L 133.496817 201.929593 
L 139.291692 172.062085 
L 145.086568 201.929593 
L 150.881443 173.692458 
L 156.676318 151.315058 
L 162.471194 155.71926 
L 168.266069 145.455323 
L 174.060944 146.769894 
L 179.85582 138.063378 
L 185.650695 147.695907 
L 191.44557 140.24227 
L 197.240446 135.828944 
L 203.035321 125.161218 
L 208.830196 115.587814 
L 214.625072 105.458973 
L 220.419947 111.760217 
L 226.214822 121.976639 
L 232.009698 101.914754 
L 237.804573 91.580041 
L 243.599448 92.599465 
L 249.394324 90.466074 
L 255.189199 82.903678 
L 260.984075 91.914212 
L 266.77895 84.287905 
L 272.573825 76.361776 
L 278.368701 76.008019 
L 284.163576 68.212671 
L 289.958451 62.023156 
L 295.753327 64.569283 
L 301.548202 65.493994 
L 307.343077 63.993477 
L 313.137953 61.165979 
L 318.932828 53.780804 
L 324.727703 54.161185 
L 330.522579 53.195747 
L 336.317454 56.763468 
L 342.112329 47.440412 
L 347.907205 56.401323 
L 353.70208 57.321855 
L 359.496955 48.9141 
L 365.291831 53.686809 
" style="fill:none;stroke:#1f77b4;stroke-linecap:square;stroke-width:1.5;"/>
    <defs>
     <path d="M 0 3 
C 0.795609 3 1.55874 2.683901 2.12132 2.12132 
C 2.683901 1.55874 3 0.795609 3 0 
C 3 -0.795609 2.683901 -1.55874 2.12132 -2.12132 
C 1.55874 -2.683901 0.795609 -3 0 -3 
C -0.795609 -3 -1.55874 -2.683901 -2.12132 -2.12132 
C -2.683901 -1.55874 -3 -0.795609 -3 0 
C -3 0.795609 -2.683901 1.55874 -2.12132 2.12132 
C -1.55874 2.683901 -0.795609 3 0 3 
z
" id="maeaac6cf70" style="stroke:#1f77b4;"/>
    </defs>
    <g clip-path="url(#p3f16664a77)">
     <use style="fill:#1f77b4;stroke:#1f77b4;" x="96.353537" xlink:href="#maeaac6cf70" y="19386.6922"/>
     <use style="fill:#1f77b4;stroke:#1f77b4;" x="98.727565" xlink:href="#maeaac6cf70" y="196.069858"/>
     <use style="fill:#1f77b4;stroke:#1f77b4;" x="101.101592" xlink:href="#maeaac6cf70" y="19386.6922"/>
     <use style="fill:#1f77b4;stroke:#1f77b4;" x="119.533467" xlink:href="#maeaac6cf70" y="19386.6922"/>
     <use style="fill:#1f77b4;stroke:#1f77b4;" x="121.907066" xlink:href="#maeaac6cf70" y="201.929593"/>
     <use style="fill:#1f77b4;stroke:#1f77b4;" x="127.701942" xlink:href="#maeaac6cf70" y="196.069858"/>
     <use style="fill:#1f77b4;stroke:#1f77b4;" x="133.496817" xlink:href="#maeaac6cf70" y="201.929593"/>
     <use style="fill:#1f77b4;stroke:#1f77b4;" x="139.291692" xlink:href="#maeaac6cf70" y="172.062085"/>
     <use style="fill:#1f77b4;stroke:#1f77b4;" x="145.086568" xlink:href="#maeaac6cf70" y="201.929593"/>
     <use style="fill:#1f77b4;stroke:#1f77b4;" x="150.881443" xlink:href="#maeaac6cf70" y="173.692458"/>
     <use style="fill:#1f77b4;stroke:#1f77b4;" x="156.676318" xlink:href="#maeaac6cf70" y="151.315058"/>
     <use style="fill:#1f77b4;stroke:#1f77b4;" x="162.471194" xlink:href="#maeaac6cf70" y="155.71926"/>
     <use style="fill:#1f77b4;stroke:#1f77b4;" x="168.266069" xlink:href="#maeaac6cf70" y="145.455323"/>
     <use style="fill:#1f77b4;stroke:#1f77b4;" x="174.060944" xlink:href="#maeaac6cf70" y="146.769894"/>
     <use style="fill:#1f77b4;stroke:#1f77b4;" x="179.85582" xlink:href="#maeaac6cf70" y="138.063378"/>
     <use style="fill:#1f77b4;stroke:#1f77b4;" x="185.650695" xlink:href="#maeaac6cf70" y="147.695907"/>
     <use style="fill:#1f77b4;stroke:#1f77b4;" x="191.44557" xlink:href="#maeaac6cf70" y="140.24227"/>
     <use style="fill:#1f77b4;stroke:#1f77b4;" x="197.240446" xlink:href="#maeaac6cf70" y="135.828944"/>
     <use style="fill:#1f77b4;stroke:#1f77b4;" x="203.035321" xlink:href="#maeaac6cf70" y="125.161218"/>
     <use style="fill:#1f77b4;stroke:#1f77b4;" x="208.830196" xlink:href="#maeaac6cf70" y="115.587814"/>
     <use style="fill:#1f77b4;stroke:#1f77b4;" x="214.625072" xlink:href="#maeaac6cf70" y="105.458973"/>
     <use style="fill:#1f77b4;stroke:#1f77b4;" x="220.419947" xlink:href="#maeaac6cf70" y="111.760217"/>
     <use style="fill:#1f77b4;stroke:#1f77b4;" x="226.214822" xlink:href="#maeaac6cf70" y="121.976639"/>
     <use style="fill:#1f77b4;stroke:#1f77b4;" x="232.009698" xlink:href="#maeaac6cf70" y="101.914754"/>
     <use style="fill:#1f77b4;stroke:#1f77b4;" x="237.804573" xlink:href="#maeaac6cf70" y="91.580041"/>
     <use style="fill:#1f77b4;stroke:#1f77b4;" x="243.599448" xlink:href="#maeaac6cf70" y="92.599465"/>
     <use style="fill:#1f77b4;stroke:#1f77b4;" x="249.394324" xlink:href="#maeaac6cf70" y="90.466074"/>
     <use style="fill:#1f77b4;stroke:#1f77b4;" x="255.189199" xlink:href="#maeaac6cf70" y="82.903678"/>
     <use style="fill:#1f77b4;stroke:#1f77b4;" x="260.984075" xlink:href="#maeaac6cf70" y="91.914212"/>
     <use style="fill:#1f77b4;stroke:#1f77b4;" x="266.77895" xlink:href="#maeaac6cf70" y="84.287905"/>
     <use style="fill:#1f77b4;stroke:#1f77b4;" x="272.573825" xlink:href="#maeaac6cf70" y="76.361776"/>
     <use style="fill:#1f77b4;stroke:#1f77b4;" x="278.368701" xlink:href="#maeaac6cf70" y="76.008019"/>
     <use style="fill:#1f77b4;stroke:#1f77b4;" x="284.163576" xlink:href="#maeaac6cf70" y="68.212671"/>
     <use style="fill:#1f77b4;stroke:#1f77b4;" x="289.958451" xlink:href="#maeaac6cf70" y="62.023156"/>
     <use style="fill:#1f77b4;stroke:#1f77b4;" x="295.753327" xlink:href="#maeaac6cf70" y="64.569283"/>
     <use style="fill:#1f77b4;stroke:#1f77b4;" x="301.548202" xlink:href="#maeaac6cf70" y="65.493994"/>
     <use style="fill:#1f77b4;stroke:#1f77b4;" x="307.343077" xlink:href="#maeaac6cf70" y="63.993477"/>
     <use style="fill:#1f77b4;stroke:#1f77b4;" x="313.137953" xlink:href="#maeaac6cf70" y="61.165979"/>
     <use style="fill:#1f77b4;stroke:#1f77b4;" x="318.932828" xlink:href="#maeaac6cf70" y="53.780804"/>
     <use style="fill:#1f77b4;stroke:#1f77b4;" x="324.727703" xlink:href="#maeaac6cf70" y="54.161185"/>
     <use style="fill:#1f77b4;stroke:#1f77b4;" x="330.522579" xlink:href="#maeaac6cf70" y="53.195747"/>
     <use style="fill:#1f77b4;stroke:#1f77b4;" x="336.317454" xlink:href="#maeaac6cf70" y="56.763468"/>
     <use style="fill:#1f77b4;stroke:#1f77b4;" x="342.112329" xlink:href="#maeaac6cf70" y="47.440412"/>
     <use style="fill:#1f77b4;stroke:#1f77b4;" x="347.907205" xlink:href="#maeaac6cf70" y="56.401323"/>
     <use style="fill:#1f77b4;stroke:#1f77b4;" x="353.70208" xlink:href="#maeaac6cf70" y="57.321855"/>
     <use style="fill:#1f77b4;stroke:#1f77b4;" x="359.496955" xlink:href="#maeaac6cf70" y="48.9141"/>
     <use style="fill:#1f77b4;stroke:#1f77b4;" x="365.291831" xlink:href="#maeaac6cf70" y="53.686809"/>
    </g>
   </g>
   <g id="line2d_44">
    <path clip-path="url(#p3f16664a77)" d="M 87.128566 270.245725 
L 87.137814 195.489357 
L 87.147062 270.245725 
M 104.513457 270.245725 
L 104.52244 197.635423 
L 110.317316 228.271655 
L 116.112191 234.131391 
L 116.116662 270.245725 
M 127.69747 270.245725 
L 127.701942 234.131391 
L 133.496817 223.726492 
L 139.291692 216.87296 
L 145.086568 190.944193 
L 150.881443 191.775688 
L 156.676318 184.681102 
L 162.471194 172.11816 
L 168.266069 163.118562 
L 174.060944 159.683922 
L 179.85582 161.520191 
L 185.650695 152.755275 
L 191.44557 141.020191 
L 197.240446 139.859846 
L 203.035321 138.450122 
L 208.830196 127.872605 
L 214.625072 126.657265 
L 220.419947 119.284942 
L 226.214822 116.155438 
L 232.009698 104.430788 
L 237.804573 93.778037 
L 243.599448 84.860007 
L 249.394324 80.599463 
L 255.189199 83.749575 
L 260.984075 70.165652 
L 266.77895 68.281506 
L 272.573825 66.658885 
L 278.368701 62.866624 
L 284.163576 57.637409 
L 289.958451 56.108934 
L 295.753327 55.35265 
L 301.548202 54.875554 
L 307.343077 54.054578 
L 313.137953 50.311783 
L 318.932828 48.963464 
L 324.727703 46.455405 
L 330.522579 44.961579 
L 336.317454 43.86142 
L 342.112329 49.985745 
L 347.907205 45.722518 
L 353.70208 44.304604 
L 359.496955 45.254769 
L 365.291831 44.258391 
" style="fill:none;stroke:#ff7f0e;stroke-linecap:square;stroke-width:1.5;"/>
    <defs>
     <path d="M 0 3 
C 0.795609 3 1.55874 2.683901 2.12132 2.12132 
C 2.683901 1.55874 3 0.795609 3 0 
C 3 -0.795609 2.683901 -1.55874 2.12132 -2.12132 
C 1.55874 -2.683901 0.795609 -3 0 -3 
C -0.795609 -3 -1.55874 -2.683901 -2.12132 -2.12132 
C -2.683901 -1.55874 -3 -0.795609 -3 0 
C -3 0.795609 -2.683901 1.55874 -2.12132 2.12132 
C -1.55874 2.683901 -0.795609 3 0 3 
z
" id="m7db720cb02" style="stroke:#ff7f0e;"/>
    </defs>
    <g clip-path="url(#p3f16664a77)">
     <use style="fill:#ff7f0e;stroke:#ff7f0e;" x="84.763744" xlink:href="#m7db720cb02" y="19386.6922"/>
     <use style="fill:#ff7f0e;stroke:#ff7f0e;" x="87.137814" xlink:href="#m7db720cb02" y="195.489357"/>
     <use style="fill:#ff7f0e;stroke:#ff7f0e;" x="89.511884" xlink:href="#m7db720cb02" y="19386.6922"/>
     <use style="fill:#ff7f0e;stroke:#ff7f0e;" x="102.148527" xlink:href="#m7db720cb02" y="19386.6922"/>
     <use style="fill:#ff7f0e;stroke:#ff7f0e;" x="104.52244" xlink:href="#m7db720cb02" y="197.635423"/>
     <use style="fill:#ff7f0e;stroke:#ff7f0e;" x="110.317316" xlink:href="#m7db720cb02" y="228.271655"/>
     <use style="fill:#ff7f0e;stroke:#ff7f0e;" x="116.112191" xlink:href="#m7db720cb02" y="234.131391"/>
     <use style="fill:#ff7f0e;stroke:#ff7f0e;" x="118.483437" xlink:href="#m7db720cb02" y="19386.6922"/>
     <use style="fill:#ff7f0e;stroke:#ff7f0e;" x="125.330696" xlink:href="#m7db720cb02" y="19386.6922"/>
     <use style="fill:#ff7f0e;stroke:#ff7f0e;" x="127.701942" xlink:href="#m7db720cb02" y="234.131391"/>
     <use style="fill:#ff7f0e;stroke:#ff7f0e;" x="133.496817" xlink:href="#m7db720cb02" y="223.726492"/>
     <use style="fill:#ff7f0e;stroke:#ff7f0e;" x="139.291692" xlink:href="#m7db720cb02" y="216.87296"/>
     <use style="fill:#ff7f0e;stroke:#ff7f0e;" x="145.086568" xlink:href="#m7db720cb02" y="190.944193"/>
     <use style="fill:#ff7f0e;stroke:#ff7f0e;" x="150.881443" xlink:href="#m7db720cb02" y="191.775688"/>
     <use style="fill:#ff7f0e;stroke:#ff7f0e;" x="156.676318" xlink:href="#m7db720cb02" y="184.681102"/>
     <use style="fill:#ff7f0e;stroke:#ff7f0e;" x="162.471194" xlink:href="#m7db720cb02" y="172.11816"/>
     <use style="fill:#ff7f0e;stroke:#ff7f0e;" x="168.266069" xlink:href="#m7db720cb02" y="163.118562"/>
     <use style="fill:#ff7f0e;stroke:#ff7f0e;" x="174.060944" xlink:href="#m7db720cb02" y="159.683922"/>
     <use style="fill:#ff7f0e;stroke:#ff7f0e;" x="179.85582" xlink:href="#m7db720cb02" y="161.520191"/>
     <use style="fill:#ff7f0e;stroke:#ff7f0e;" x="185.650695" xlink:href="#m7db720cb02" y="152.755275"/>
     <use style="fill:#ff7f0e;stroke:#ff7f0e;" x="191.44557" xlink:href="#m7db720cb02" y="141.020191"/>
     <use style="fill:#ff7f0e;stroke:#ff7f0e;" x="197.240446" xlink:href="#m7db720cb02" y="139.859846"/>
     <use style="fill:#ff7f0e;stroke:#ff7f0e;" x="203.035321" xlink:href="#m7db720cb02" y="138.450122"/>
     <use style="fill:#ff7f0e;stroke:#ff7f0e;" x="208.830196" xlink:href="#m7db720cb02" y="127.872605"/>
     <use style="fill:#ff7f0e;stroke:#ff7f0e;" x="214.625072" xlink:href="#m7db720cb02" y="126.657265"/>
     <use style="fill:#ff7f0e;stroke:#ff7f0e;" x="220.419947" xlink:href="#m7db720cb02" y="119.284942"/>
     <use style="fill:#ff7f0e;stroke:#ff7f0e;" x="226.214822" xlink:href="#m7db720cb02" y="116.155438"/>
     <use style="fill:#ff7f0e;stroke:#ff7f0e;" x="232.009698" xlink:href="#m7db720cb02" y="104.430788"/>
     <use style="fill:#ff7f0e;stroke:#ff7f0e;" x="237.804573" xlink:href="#m7db720cb02" y="93.778037"/>
     <use style="fill:#ff7f0e;stroke:#ff7f0e;" x="243.599448" xlink:href="#m7db720cb02" y="84.860007"/>
     <use style="fill:#ff7f0e;stroke:#ff7f0e;" x="249.394324" xlink:href="#m7db720cb02" y="80.599463"/>
     <use style="fill:#ff7f0e;stroke:#ff7f0e;" x="255.189199" xlink:href="#m7db720cb02" y="83.749575"/>
     <use style="fill:#ff7f0e;stroke:#ff7f0e;" x="260.984075" xlink:href="#m7db720cb02" y="70.165652"/>
     <use style="fill:#ff7f0e;stroke:#ff7f0e;" x="266.77895" xlink:href="#m7db720cb02" y="68.281506"/>
     <use style="fill:#ff7f0e;stroke:#ff7f0e;" x="272.573825" xlink:href="#m7db720cb02" y="66.658885"/>
     <use style="fill:#ff7f0e;stroke:#ff7f0e;" x="278.368701" xlink:href="#m7db720cb02" y="62.866624"/>
     <use style="fill:#ff7f0e;stroke:#ff7f0e;" x="284.163576" xlink:href="#m7db720cb02" y="57.637409"/>
     <use style="fill:#ff7f0e;stroke:#ff7f0e;" x="289.958451" xlink:href="#m7db720cb02" y="56.108934"/>
     <use style="fill:#ff7f0e;stroke:#ff7f0e;" x="295.753327" xlink:href="#m7db720cb02" y="55.35265"/>
     <use style="fill:#ff7f0e;stroke:#ff7f0e;" x="301.548202" xlink:href="#m7db720cb02" y="54.875554"/>
     <use style="fill:#ff7f0e;stroke:#ff7f0e;" x="307.343077" xlink:href="#m7db720cb02" y="54.054578"/>
     <use style="fill:#ff7f0e;stroke:#ff7f0e;" x="313.137953" xlink:href="#m7db720cb02" y="50.311783"/>
     <use style="fill:#ff7f0e;stroke:#ff7f0e;" x="318.932828" xlink:href="#m7db720cb02" y="48.963464"/>
     <use style="fill:#ff7f0e;stroke:#ff7f0e;" x="324.727703" xlink:href="#m7db720cb02" y="46.455405"/>
     <use style="fill:#ff7f0e;stroke:#ff7f0e;" x="330.522579" xlink:href="#m7db720cb02" y="44.961579"/>
     <use style="fill:#ff7f0e;stroke:#ff7f0e;" x="336.317454" xlink:href="#m7db720cb02" y="43.86142"/>
     <use style="fill:#ff7f0e;stroke:#ff7f0e;" x="342.112329" xlink:href="#m7db720cb02" y="49.985745"/>
     <use style="fill:#ff7f0e;stroke:#ff7f0e;" x="347.907205" xlink:href="#m7db720cb02" y="45.722518"/>
     <use style="fill:#ff7f0e;stroke:#ff7f0e;" x="353.70208" xlink:href="#m7db720cb02" y="44.304604"/>
     <use style="fill:#ff7f0e;stroke:#ff7f0e;" x="359.496955" xlink:href="#m7db720cb02" y="45.254769"/>
     <use style="fill:#ff7f0e;stroke:#ff7f0e;" x="365.291831" xlink:href="#m7db720cb02" y="44.258391"/>
    </g>
   </g>
   <g id="line2d_45">
    <path clip-path="url(#p3f16664a77)" d="M 191.44557 185.398125 
L 191.44557 22.318125 
" style="fill:none;stroke:#2ca02c;stroke-linecap:square;stroke-opacity:0.5;stroke-width:4;"/>
   </g>
   <g id="patch_3">
    <path d="M 58.163438 185.398125 
L 58.163438 22.318125 
" style="fill:none;stroke:#000000;stroke-linecap:square;stroke-linejoin:miter;stroke-width:0.8;"/>
   </g>
   <g id="patch_4">
    <path d="M 392.963437 185.398125 
L 392.963437 22.318125 
" style="fill:none;stroke:#000000;stroke-linecap:square;stroke-linejoin:miter;stroke-width:0.8;"/>
   </g>
   <g id="patch_5">
    <path d="M 58.163438 185.398125 
L 392.963438 185.398125 
" style="fill:none;stroke:#000000;stroke-linecap:square;stroke-linejoin:miter;stroke-width:0.8;"/>
   </g>
   <g id="patch_6">
    <path d="M 58.163438 22.318125 
L 392.963438 22.318125 
" style="fill:none;stroke:#000000;stroke-linecap:square;stroke-linejoin:miter;stroke-width:0.8;"/>
   </g>
   <g id="text_22">
    <!--  Scott Sievert -->
    <defs>
     <path d="M 50 72.515625 
Q 57.421875 72.515625 63.84375 69.828125 
Q 70.265625 67.140625 75.59375 61.8125 
Q 80.90625 56.5 83.546875 50.09375 
Q 86.1875 43.703125 86.1875 36.1875 
Q 86.1875 28.765625 83.546875 22.390625 
Q 80.90625 16.015625 75.59375 10.6875 
Q 70.265625 5.375 63.84375 2.6875 
Q 57.421875 0 50 0 
Q 42.578125 0 36.15625 2.6875 
Q 29.734375 5.375 24.421875 10.6875 
Q 19.09375 16.015625 16.453125 22.390625 
Q 13.8125 28.765625 13.8125 36.1875 
Q 13.8125 43.703125 16.453125 50.09375 
Q 19.09375 56.5 24.421875 61.8125 
Q 29.734375 67.140625 36.15625 69.828125 
Q 42.578125 72.515625 50 72.515625 
z
M 50 67.484375 
Q 43.609375 67.484375 38.078125 65.1875 
Q 32.5625 62.890625 27.984375 58.296875 
Q 23.390625 53.71875 21.046875 48.125 
Q 18.703125 42.53125 18.703125 36.1875 
Q 18.703125 29.890625 21.046875 24.34375 
Q 23.390625 18.796875 27.984375 14.203125 
Q 32.5625 9.625 38.078125 7.296875 
Q 43.609375 4.984375 50 4.984375 
Q 56.453125 4.984375 61.984375 7.296875 
Q 67.53125 9.625 72.125 14.203125 
Q 76.65625 18.75 78.921875 24.265625 
Q 81.203125 29.78125 81.203125 36.1875 
Q 81.203125 42.671875 78.90625 48.21875 
Q 76.609375 53.765625 72.125 58.296875 
Q 67.53125 62.890625 61.984375 65.1875 
Q 56.453125 67.484375 50 67.484375 
z
M 64.59375 55.515625 
L 64.59375 49.21875 
Q 61.375 50.828125 58.203125 51.609375 
Q 55.03125 52.390625 51.8125 52.390625 
Q 44.53125 52.390625 40.453125 48.109375 
Q 36.375 43.84375 36.375 36.1875 
Q 36.375 28.421875 40.546875 24.171875 
Q 44.734375 19.921875 52.296875 19.921875 
Q 55.421875 19.921875 58.390625 20.671875 
Q 61.375 21.4375 64.59375 23.09375 
L 64.59375 16.890625 
Q 61.328125 15.484375 57.984375 14.796875 
Q 54.640625 14.109375 51.21875 14.109375 
Q 40.671875 14.109375 34.546875 20.0625 
Q 28.421875 26.03125 28.421875 36.1875 
Q 28.421875 46.390625 34.546875 52.296875 
Q 40.671875 58.203125 51.21875 58.203125 
Q 54.78125 58.203125 58.09375 57.515625 
Q 61.421875 56.84375 64.59375 55.515625 
z
" id="DejaVuSans-169"/>
     <path d="M 53.515625 70.515625 
L 53.515625 60.890625 
Q 47.90625 63.578125 42.921875 64.890625 
Q 37.9375 66.21875 33.296875 66.21875 
Q 25.25 66.21875 20.875 63.09375 
Q 16.5 59.96875 16.5 54.203125 
Q 16.5 49.359375 19.40625 46.890625 
Q 22.3125 44.4375 30.421875 42.921875 
L 36.375 41.703125 
Q 47.40625 39.59375 52.65625 34.296875 
Q 57.90625 29 57.90625 20.125 
Q 57.90625 9.515625 50.796875 4.046875 
Q 43.703125 -1.421875 29.984375 -1.421875 
Q 24.8125 -1.421875 18.96875 -0.25 
Q 13.140625 0.921875 6.890625 3.21875 
L 6.890625 13.375 
Q 12.890625 10.015625 18.65625 8.296875 
Q 24.421875 6.59375 29.984375 6.59375 
Q 38.421875 6.59375 43.015625 9.90625 
Q 47.609375 13.234375 47.609375 19.390625 
Q 47.609375 24.75 44.3125 27.78125 
Q 41.015625 30.8125 33.5 32.328125 
L 27.484375 33.5 
Q 16.453125 35.6875 11.515625 40.375 
Q 6.59375 45.0625 6.59375 53.421875 
Q 6.59375 63.09375 13.40625 68.65625 
Q 20.21875 74.21875 32.171875 74.21875 
Q 37.3125 74.21875 42.625 73.28125 
Q 47.953125 72.359375 53.515625 70.515625 
z
" id="DejaVuSans-83"/>
     <path d="M 2.984375 54.6875 
L 12.5 54.6875 
L 29.59375 8.796875 
L 46.6875 54.6875 
L 56.203125 54.6875 
L 35.6875 0 
L 23.484375 0 
z
" id="DejaVuSans-118"/>
    </defs>
    <g style="fill:#888888;" transform="translate(332.117246 209.921591)scale(0.1 -0.1)">
     <use xlink:href="#DejaVuSans-169"/>
     <use x="100" xlink:href="#DejaVuSans-32"/>
     <use x="131.787109" xlink:href="#DejaVuSans-83"/>
     <use x="195.263672" xlink:href="#DejaVuSans-99"/>
     <use x="250.244141" xlink:href="#DejaVuSans-111"/>
     <use x="311.425781" xlink:href="#DejaVuSans-116"/>
     <use x="350.634766" xlink:href="#DejaVuSans-116"/>
     <use x="389.84375" xlink:href="#DejaVuSans-32"/>
     <use x="421.630859" xlink:href="#DejaVuSans-83"/>
     <use x="485.107422" xlink:href="#DejaVuSans-105"/>
     <use x="512.890625" xlink:href="#DejaVuSans-101"/>
     <use x="574.414062" xlink:href="#DejaVuSans-118"/>
     <use x="633.59375" xlink:href="#DejaVuSans-101"/>
     <use x="695.117188" xlink:href="#DejaVuSans-114"/>
     <use x="736.230469" xlink:href="#DejaVuSans-116"/>
    </g>
   </g>
   <g id="text_23">
    <!-- New cases -->
    <g transform="translate(193.65 16.318125)scale(0.12 -0.12)">
     <use xlink:href="#DejaVuSans-78"/>
     <use x="74.804688" xlink:href="#DejaVuSans-101"/>
     <use x="136.328125" xlink:href="#DejaVuSans-119"/>
     <use x="218.115234" xlink:href="#DejaVuSans-32"/>
     <use x="249.902344" xlink:href="#DejaVuSans-99"/>
     <use x="304.882812" xlink:href="#DejaVuSans-97"/>
     <use x="366.162109" xlink:href="#DejaVuSans-115"/>
     <use x="418.261719" xlink:href="#DejaVuSans-101"/>
     <use x="479.785156" xlink:href="#DejaVuSans-115"/>
    </g>
   </g>
   <g id="legend_1">
    <g id="patch_7">
     <path d="M 70.207438 262.045725 
L 287.560563 262.045725 
Q 289.560563 262.045725 289.560563 260.045725 
L 289.560563 217.01135 
Q 289.560563 215.01135 287.560563 215.01135 
L 70.207438 215.01135 
Q 68.207438 215.01135 68.207438 217.01135 
L 68.207438 260.045725 
Q 68.207438 262.045725 70.207438 262.045725 
z
" style="fill:#ffffff;opacity:0.8;stroke:#cccccc;stroke-linejoin:miter;"/>
    </g>
    <g id="line2d_46">
     <path d="M 72.207438 223.109787 
L 92.207438 223.109787 
" style="fill:none;stroke:#d62728;stroke-linecap:square;stroke-width:1.5;"/>
    </g>
    <g id="line2d_47">
     <g>
      <use style="fill:#d62728;stroke:#d62728;" x="82.207438" xlink:href="#m85a467c5fa" y="223.109787"/>
     </g>
    </g>
    <g id="text_24">
     <!-- South Korea -->
     <defs>
      <path d="M 54.890625 33.015625 
L 54.890625 0 
L 45.90625 0 
L 45.90625 32.71875 
Q 45.90625 40.484375 42.875 44.328125 
Q 39.84375 48.1875 33.796875 48.1875 
Q 26.515625 48.1875 22.3125 43.546875 
Q 18.109375 38.921875 18.109375 30.90625 
L 18.109375 0 
L 9.078125 0 
L 9.078125 75.984375 
L 18.109375 75.984375 
L 18.109375 46.1875 
Q 21.34375 51.125 25.703125 53.5625 
Q 30.078125 56 35.796875 56 
Q 45.21875 56 50.046875 50.171875 
Q 54.890625 44.34375 54.890625 33.015625 
z
" id="DejaVuSans-104"/>
      <path d="M 9.8125 72.90625 
L 19.671875 72.90625 
L 19.671875 42.09375 
L 52.390625 72.90625 
L 65.09375 72.90625 
L 28.90625 38.921875 
L 67.671875 0 
L 54.6875 0 
L 19.671875 35.109375 
L 19.671875 0 
L 9.8125 0 
z
" id="DejaVuSans-75"/>
     </defs>
     <g transform="translate(100.207438 226.609787)scale(0.1 -0.1)">
      <use xlink:href="#DejaVuSans-83"/>
      <use x="63.476562" xlink:href="#DejaVuSans-111"/>
      <use x="124.658203" xlink:href="#DejaVuSans-117"/>
      <use x="188.037109" xlink:href="#DejaVuSans-116"/>
      <use x="227.246094" xlink:href="#DejaVuSans-104"/>
      <use x="290.625" xlink:href="#DejaVuSans-32"/>
      <use x="322.412109" xlink:href="#DejaVuSans-75"/>
      <use x="387.910156" xlink:href="#DejaVuSans-111"/>
      <use x="449.091797" xlink:href="#DejaVuSans-114"/>
      <use x="490.173828" xlink:href="#DejaVuSans-101"/>
      <use x="551.697266" xlink:href="#DejaVuSans-97"/>
     </g>
    </g>
    <g id="line2d_48">
     <path d="M 72.207438 237.787913 
L 92.207438 237.787913 
" style="fill:none;stroke:#2ca02c;stroke-linecap:square;stroke-width:1.5;"/>
    </g>
    <g id="line2d_49">
     <g>
      <use style="fill:#2ca02c;stroke:#2ca02c;" x="82.207438" xlink:href="#m75dfe3a37a" y="237.787913"/>
     </g>
    </g>
    <g id="text_25">
     <!-- Italy -->
     <defs>
      <path d="M 9.8125 72.90625 
L 19.671875 72.90625 
L 19.671875 0 
L 9.8125 0 
z
" id="DejaVuSans-73"/>
     </defs>
     <g transform="translate(100.207438 241.287913)scale(0.1 -0.1)">
      <use xlink:href="#DejaVuSans-73"/>
      <use x="29.492188" xlink:href="#DejaVuSans-116"/>
      <use x="68.701172" xlink:href="#DejaVuSans-97"/>
      <use x="129.980469" xlink:href="#DejaVuSans-108"/>
      <use x="157.763672" xlink:href="#DejaVuSans-121"/>
     </g>
    </g>
    <g id="line2d_50">
     <path d="M 72.207438 252.466037 
L 92.207438 252.466037 
" style="fill:none;stroke:#1f77b4;stroke-linecap:square;stroke-width:1.5;"/>
    </g>
    <g id="line2d_51">
     <g>
      <use style="fill:#1f77b4;stroke:#1f77b4;" x="82.207438" xlink:href="#maeaac6cf70" y="252.466037"/>
     </g>
    </g>
    <g id="text_26">
     <!-- UK -->
     <defs>
      <path d="M 8.6875 72.90625 
L 18.609375 72.90625 
L 18.609375 28.609375 
Q 18.609375 16.890625 22.84375 11.734375 
Q 27.09375 6.59375 36.625 6.59375 
Q 46.09375 6.59375 50.34375 11.734375 
Q 54.59375 16.890625 54.59375 28.609375 
L 54.59375 72.90625 
L 64.5 72.90625 
L 64.5 27.390625 
Q 64.5 13.140625 57.4375 5.859375 
Q 50.390625 -1.421875 36.625 -1.421875 
Q 22.796875 -1.421875 15.734375 5.859375 
Q 8.6875 13.140625 8.6875 27.390625 
z
" id="DejaVuSans-85"/>
     </defs>
     <g transform="translate(100.207438 255.966037)scale(0.1 -0.1)">
      <use xlink:href="#DejaVuSans-85"/>
      <use x="73.193359" xlink:href="#DejaVuSans-75"/>
     </g>
    </g>
    <g id="line2d_52">
     <path d="M 181.505875 223.109787 
L 201.505875 223.109787 
" style="fill:none;stroke:#ff7f0e;stroke-linecap:square;stroke-width:1.5;"/>
    </g>
    <g id="line2d_53">
     <g>
      <use style="fill:#ff7f0e;stroke:#ff7f0e;" x="191.505875" xlink:href="#m7db720cb02" y="223.109787"/>
     </g>
    </g>
    <g id="text_27">
     <!-- US -->
     <g transform="translate(209.505875 226.609787)scale(0.1 -0.1)">
      <use xlink:href="#DejaVuSans-85"/>
      <use x="73.193359" xlink:href="#DejaVuSans-83"/>
     </g>
    </g>
    <g id="line2d_54">
     <path d="M 181.505875 244.426662 
L 201.505875 244.426662 
" style="fill:none;stroke:#2ca02c;stroke-linecap:square;stroke-opacity:0.5;stroke-width:4;"/>
    </g>
    <g id="line2d_55"/>
    <g id="text_28">
     <!-- Italian health -->
     <g transform="translate(209.505875 241.287913)scale(0.1 -0.1)">
      <use xlink:href="#DejaVuSans-73"/>
      <use x="29.492188" xlink:href="#DejaVuSans-116"/>
      <use x="68.701172" xlink:href="#DejaVuSans-97"/>
      <use x="129.980469" xlink:href="#DejaVuSans-108"/>
      <use x="157.763672" xlink:href="#DejaVuSans-105"/>
      <use x="185.546875" xlink:href="#DejaVuSans-97"/>
      <use x="246.826172" xlink:href="#DejaVuSans-110"/>
      <use x="310.205078" xlink:href="#DejaVuSans-32"/>
      <use x="341.992188" xlink:href="#DejaVuSans-104"/>
      <use x="405.371094" xlink:href="#DejaVuSans-101"/>
      <use x="466.894531" xlink:href="#DejaVuSans-97"/>
      <use x="528.173828" xlink:href="#DejaVuSans-108"/>
      <use x="555.957031" xlink:href="#DejaVuSans-116"/>
      <use x="595.166016" xlink:href="#DejaVuSans-104"/>
     </g>
     <!-- care saturation -->
     <g transform="translate(209.505875 252.485725)scale(0.1 -0.1)">
      <use xlink:href="#DejaVuSans-99"/>
      <use x="54.980469" xlink:href="#DejaVuSans-97"/>
      <use x="116.259766" xlink:href="#DejaVuSans-114"/>
      <use x="157.341797" xlink:href="#DejaVuSans-101"/>
      <use x="218.865234" xlink:href="#DejaVuSans-32"/>
      <use x="250.652344" xlink:href="#DejaVuSans-115"/>
      <use x="302.751953" xlink:href="#DejaVuSans-97"/>
      <use x="364.03125" xlink:href="#DejaVuSans-116"/>
      <use x="403.240234" xlink:href="#DejaVuSans-117"/>
      <use x="466.619141" xlink:href="#DejaVuSans-114"/>
      <use x="507.732422" xlink:href="#DejaVuSans-97"/>
      <use x="569.011719" xlink:href="#DejaVuSans-116"/>
      <use x="608.220703" xlink:href="#DejaVuSans-105"/>
      <use x="636.003906" xlink:href="#DejaVuSans-111"/>
      <use x="697.185547" xlink:href="#DejaVuSans-110"/>
     </g>
    </g>
   </g>
  </g>
 </g>
 <defs>
  <clipPath id="p3f16664a77">
   <rect height="163.08" width="334.8" x="58.163438" y="22.318125"/>
  </clipPath>
 </defs>
</svg>
