<?xml version="1.0" encoding="utf-8" standalone="no"?>
<!DOCTYPE svg PUBLIC "-//W3C//DTD SVG 1.1//EN"
  "http://www.w3.org/Graphics/SVG/1.1/DTD/svg11.dtd">
<!-- Created with matplotlib (https://matplotlib.org/) -->
<svg height="220.474063pt" version="1.1" viewBox="0 0 319.956059 220.474063" width="319.956059pt" xmlns="http://www.w3.org/2000/svg" xmlns:xlink="http://www.w3.org/1999/xlink">
 <defs>
  <style type="text/css">
*{stroke-linecap:butt;stroke-linejoin:round;}
  </style>
 </defs>
 <g id="figure_1">
  <g id="patch_1">
   <path d="M 0 220.474063 
L 319.956059 220.474063 
L 319.956059 0 
L 0 0 
z
" style="fill:#ffffff;"/>
  </g>
  <g id="axes_1">
   <g id="patch_2">
    <path d="M 53.328125 185.398125 
L 304.428125 185.398125 
L 304.428125 22.318125 
L 53.328125 22.318125 
z
" style="fill:#ffffff;"/>
   </g>
   <g id="matplotlib.axis_1">
    <g id="xtick_1">
     <g id="line2d_1">
      <path clip-path="url(#p95fe5dac66)" d="M 57.485036 185.398125 
L 57.485036 22.318125 
" style="fill:none;stroke:#b0b0b0;stroke-linecap:square;stroke-opacity:0.6;stroke-width:0.8;"/>
     </g>
     <g id="line2d_2">
      <defs>
       <path d="M 0 0 
L 0 3.5 
" id="m4f28896f16" style="stroke:#000000;stroke-width:0.8;"/>
      </defs>
      <g>
       <use style="stroke:#000000;stroke-width:0.8;" x="57.485036" xlink:href="#m4f28896f16" y="185.398125"/>
      </g>
     </g>
     <g id="text_1">
      <!-- Mar. -->
      <defs>
       <path d="M 9.8125 72.90625 
L 24.515625 72.90625 
L 43.109375 23.296875 
L 61.8125 72.90625 
L 76.515625 72.90625 
L 76.515625 0 
L 66.890625 0 
L 66.890625 64.015625 
L 48.09375 14.015625 
L 38.1875 14.015625 
L 19.390625 64.015625 
L 19.390625 0 
L 9.8125 0 
z
" id="DejaVuSans-77"/>
       <path d="M 34.28125 27.484375 
Q 23.390625 27.484375 19.1875 25 
Q 14.984375 22.515625 14.984375 16.5 
Q 14.984375 11.71875 18.140625 8.90625 
Q 21.296875 6.109375 26.703125 6.109375 
Q 34.1875 6.109375 38.703125 11.40625 
Q 43.21875 16.703125 43.21875 25.484375 
L 43.21875 27.484375 
z
M 52.203125 31.203125 
L 52.203125 0 
L 43.21875 0 
L 43.21875 8.296875 
Q 40.140625 3.328125 35.546875 0.953125 
Q 30.953125 -1.421875 24.3125 -1.421875 
Q 15.921875 -1.421875 10.953125 3.296875 
Q 6 8.015625 6 15.921875 
Q 6 25.140625 12.171875 29.828125 
Q 18.359375 34.515625 30.609375 34.515625 
L 43.21875 34.515625 
L 43.21875 35.40625 
Q 43.21875 41.609375 39.140625 45 
Q 35.0625 48.390625 27.6875 48.390625 
Q 23 48.390625 18.546875 47.265625 
Q 14.109375 46.140625 10.015625 43.890625 
L 10.015625 52.203125 
Q 14.9375 54.109375 19.578125 55.046875 
Q 24.21875 56 28.609375 56 
Q 40.484375 56 46.34375 49.84375 
Q 52.203125 43.703125 52.203125 31.203125 
z
" id="DejaVuSans-97"/>
       <path d="M 41.109375 46.296875 
Q 39.59375 47.171875 37.8125 47.578125 
Q 36.03125 48 33.890625 48 
Q 26.265625 48 22.1875 43.046875 
Q 18.109375 38.09375 18.109375 28.8125 
L 18.109375 0 
L 9.078125 0 
L 9.078125 54.6875 
L 18.109375 54.6875 
L 18.109375 46.1875 
Q 20.953125 51.171875 25.484375 53.578125 
Q 30.03125 56 36.53125 56 
Q 37.453125 56 38.578125 55.875 
Q 39.703125 55.765625 41.0625 55.515625 
z
" id="DejaVuSans-114"/>
       <path d="M 10.6875 12.40625 
L 21 12.40625 
L 21 0 
L 10.6875 0 
z
" id="DejaVuSans-46"/>
      </defs>
      <g transform="translate(46.469411 199.996563)scale(0.1 -0.1)">
       <use xlink:href="#DejaVuSans-77"/>
       <use x="86.279297" xlink:href="#DejaVuSans-97"/>
       <use x="147.558594" xlink:href="#DejaVuSans-114"/>
       <use x="188.53125" xlink:href="#DejaVuSans-46"/>
      </g>
      <!-- 01 -->
      <defs>
       <path d="M 31.78125 66.40625 
Q 24.171875 66.40625 20.328125 58.90625 
Q 16.5 51.421875 16.5 36.375 
Q 16.5 21.390625 20.328125 13.890625 
Q 24.171875 6.390625 31.78125 6.390625 
Q 39.453125 6.390625 43.28125 13.890625 
Q 47.125 21.390625 47.125 36.375 
Q 47.125 51.421875 43.28125 58.90625 
Q 39.453125 66.40625 31.78125 66.40625 
z
M 31.78125 74.21875 
Q 44.046875 74.21875 50.515625 64.515625 
Q 56.984375 54.828125 56.984375 36.375 
Q 56.984375 17.96875 50.515625 8.265625 
Q 44.046875 -1.421875 31.78125 -1.421875 
Q 19.53125 -1.421875 13.0625 8.265625 
Q 6.59375 17.96875 6.59375 36.375 
Q 6.59375 54.828125 13.0625 64.515625 
Q 19.53125 74.21875 31.78125 74.21875 
z
" id="DejaVuSans-48"/>
       <path d="M 12.40625 8.296875 
L 28.515625 8.296875 
L 28.515625 63.921875 
L 10.984375 60.40625 
L 10.984375 69.390625 
L 28.421875 72.90625 
L 38.28125 72.90625 
L 38.28125 8.296875 
L 54.390625 8.296875 
L 54.390625 0 
L 12.40625 0 
z
" id="DejaVuSans-49"/>
      </defs>
      <g transform="translate(51.122536 211.194375)scale(0.1 -0.1)">
       <use xlink:href="#DejaVuSans-48"/>
       <use x="63.623047" xlink:href="#DejaVuSans-49"/>
      </g>
     </g>
    </g>
    <g id="xtick_2">
     <g id="line2d_3">
      <path clip-path="url(#p95fe5dac66)" d="M 88.11491 185.398125 
L 88.11491 22.318125 
" style="fill:none;stroke:#b0b0b0;stroke-linecap:square;stroke-opacity:0.6;stroke-width:0.8;"/>
     </g>
     <g id="line2d_4">
      <g>
       <use style="stroke:#000000;stroke-width:0.8;" x="88.11491" xlink:href="#m4f28896f16" y="185.398125"/>
      </g>
     </g>
     <g id="text_2">
      <!-- Mar. -->
      <g transform="translate(77.099285 199.996563)scale(0.1 -0.1)">
       <use xlink:href="#DejaVuSans-77"/>
       <use x="86.279297" xlink:href="#DejaVuSans-97"/>
       <use x="147.558594" xlink:href="#DejaVuSans-114"/>
       <use x="188.53125" xlink:href="#DejaVuSans-46"/>
      </g>
      <!-- 08 -->
      <defs>
       <path d="M 31.78125 34.625 
Q 24.75 34.625 20.71875 30.859375 
Q 16.703125 27.09375 16.703125 20.515625 
Q 16.703125 13.921875 20.71875 10.15625 
Q 24.75 6.390625 31.78125 6.390625 
Q 38.8125 6.390625 42.859375 10.171875 
Q 46.921875 13.96875 46.921875 20.515625 
Q 46.921875 27.09375 42.890625 30.859375 
Q 38.875 34.625 31.78125 34.625 
z
M 21.921875 38.8125 
Q 15.578125 40.375 12.03125 44.71875 
Q 8.5 49.078125 8.5 55.328125 
Q 8.5 64.0625 14.71875 69.140625 
Q 20.953125 74.21875 31.78125 74.21875 
Q 42.671875 74.21875 48.875 69.140625 
Q 55.078125 64.0625 55.078125 55.328125 
Q 55.078125 49.078125 51.53125 44.71875 
Q 48 40.375 41.703125 38.8125 
Q 48.828125 37.15625 52.796875 32.3125 
Q 56.78125 27.484375 56.78125 20.515625 
Q 56.78125 9.90625 50.3125 4.234375 
Q 43.84375 -1.421875 31.78125 -1.421875 
Q 19.734375 -1.421875 13.25 4.234375 
Q 6.78125 9.90625 6.78125 20.515625 
Q 6.78125 27.484375 10.78125 32.3125 
Q 14.796875 37.15625 21.921875 38.8125 
z
M 18.3125 54.390625 
Q 18.3125 48.734375 21.84375 45.5625 
Q 25.390625 42.390625 31.78125 42.390625 
Q 38.140625 42.390625 41.71875 45.5625 
Q 45.3125 48.734375 45.3125 54.390625 
Q 45.3125 60.0625 41.71875 63.234375 
Q 38.140625 66.40625 31.78125 66.40625 
Q 25.390625 66.40625 21.84375 63.234375 
Q 18.3125 60.0625 18.3125 54.390625 
z
" id="DejaVuSans-56"/>
      </defs>
      <g transform="translate(81.75241 211.194375)scale(0.1 -0.1)">
       <use xlink:href="#DejaVuSans-48"/>
       <use x="63.623047" xlink:href="#DejaVuSans-56"/>
      </g>
     </g>
    </g>
    <g id="xtick_3">
     <g id="line2d_5">
      <path clip-path="url(#p95fe5dac66)" d="M 118.744784 185.398125 
L 118.744784 22.318125 
" style="fill:none;stroke:#b0b0b0;stroke-linecap:square;stroke-opacity:0.6;stroke-width:0.8;"/>
     </g>
     <g id="line2d_6">
      <g>
       <use style="stroke:#000000;stroke-width:0.8;" x="118.744784" xlink:href="#m4f28896f16" y="185.398125"/>
      </g>
     </g>
     <g id="text_3">
      <!-- Mar. -->
      <g transform="translate(107.729159 199.996563)scale(0.1 -0.1)">
       <use xlink:href="#DejaVuSans-77"/>
       <use x="86.279297" xlink:href="#DejaVuSans-97"/>
       <use x="147.558594" xlink:href="#DejaVuSans-114"/>
       <use x="188.53125" xlink:href="#DejaVuSans-46"/>
      </g>
      <!-- 15 -->
      <defs>
       <path d="M 10.796875 72.90625 
L 49.515625 72.90625 
L 49.515625 64.59375 
L 19.828125 64.59375 
L 19.828125 46.734375 
Q 21.96875 47.46875 24.109375 47.828125 
Q 26.265625 48.1875 28.421875 48.1875 
Q 40.625 48.1875 47.75 41.5 
Q 54.890625 34.8125 54.890625 23.390625 
Q 54.890625 11.625 47.5625 5.09375 
Q 40.234375 -1.421875 26.90625 -1.421875 
Q 22.3125 -1.421875 17.546875 -0.640625 
Q 12.796875 0.140625 7.71875 1.703125 
L 7.71875 11.625 
Q 12.109375 9.234375 16.796875 8.0625 
Q 21.484375 6.890625 26.703125 6.890625 
Q 35.15625 6.890625 40.078125 11.328125 
Q 45.015625 15.765625 45.015625 23.390625 
Q 45.015625 31 40.078125 35.4375 
Q 35.15625 39.890625 26.703125 39.890625 
Q 22.75 39.890625 18.8125 39.015625 
Q 14.890625 38.140625 10.796875 36.28125 
z
" id="DejaVuSans-53"/>
      </defs>
      <g transform="translate(112.382284 211.194375)scale(0.1 -0.1)">
       <use xlink:href="#DejaVuSans-49"/>
       <use x="63.623047" xlink:href="#DejaVuSans-53"/>
      </g>
     </g>
    </g>
    <g id="xtick_4">
     <g id="line2d_7">
      <path clip-path="url(#p95fe5dac66)" d="M 149.374658 185.398125 
L 149.374658 22.318125 
" style="fill:none;stroke:#b0b0b0;stroke-linecap:square;stroke-opacity:0.6;stroke-width:0.8;"/>
     </g>
     <g id="line2d_8">
      <g>
       <use style="stroke:#000000;stroke-width:0.8;" x="149.374658" xlink:href="#m4f28896f16" y="185.398125"/>
      </g>
     </g>
     <g id="text_4">
      <!-- Mar. -->
      <g transform="translate(138.359033 199.996563)scale(0.1 -0.1)">
       <use xlink:href="#DejaVuSans-77"/>
       <use x="86.279297" xlink:href="#DejaVuSans-97"/>
       <use x="147.558594" xlink:href="#DejaVuSans-114"/>
       <use x="188.53125" xlink:href="#DejaVuSans-46"/>
      </g>
      <!-- 22 -->
      <defs>
       <path d="M 19.1875 8.296875 
L 53.609375 8.296875 
L 53.609375 0 
L 7.328125 0 
L 7.328125 8.296875 
Q 12.9375 14.109375 22.625 23.890625 
Q 32.328125 33.6875 34.8125 36.53125 
Q 39.546875 41.84375 41.421875 45.53125 
Q 43.3125 49.21875 43.3125 52.78125 
Q 43.3125 58.59375 39.234375 62.25 
Q 35.15625 65.921875 28.609375 65.921875 
Q 23.96875 65.921875 18.8125 64.3125 
Q 13.671875 62.703125 7.8125 59.421875 
L 7.8125 69.390625 
Q 13.765625 71.78125 18.9375 73 
Q 24.125 74.21875 28.421875 74.21875 
Q 39.75 74.21875 46.484375 68.546875 
Q 53.21875 62.890625 53.21875 53.421875 
Q 53.21875 48.921875 51.53125 44.890625 
Q 49.859375 40.875 45.40625 35.40625 
Q 44.1875 33.984375 37.640625 27.21875 
Q 31.109375 20.453125 19.1875 8.296875 
z
" id="DejaVuSans-50"/>
      </defs>
      <g transform="translate(143.012158 211.194375)scale(0.1 -0.1)">
       <use xlink:href="#DejaVuSans-50"/>
       <use x="63.623047" xlink:href="#DejaVuSans-50"/>
      </g>
     </g>
    </g>
    <g id="xtick_5">
     <g id="line2d_9">
      <path clip-path="url(#p95fe5dac66)" d="M 180.004532 185.398125 
L 180.004532 22.318125 
" style="fill:none;stroke:#b0b0b0;stroke-linecap:square;stroke-opacity:0.6;stroke-width:0.8;"/>
     </g>
     <g id="line2d_10">
      <g>
       <use style="stroke:#000000;stroke-width:0.8;" x="180.004532" xlink:href="#m4f28896f16" y="185.398125"/>
      </g>
     </g>
     <g id="text_5">
      <!-- Mar. -->
      <g transform="translate(168.988907 199.996563)scale(0.1 -0.1)">
       <use xlink:href="#DejaVuSans-77"/>
       <use x="86.279297" xlink:href="#DejaVuSans-97"/>
       <use x="147.558594" xlink:href="#DejaVuSans-114"/>
       <use x="188.53125" xlink:href="#DejaVuSans-46"/>
      </g>
      <!-- 29 -->
      <defs>
       <path d="M 10.984375 1.515625 
L 10.984375 10.5 
Q 14.703125 8.734375 18.5 7.8125 
Q 22.3125 6.890625 25.984375 6.890625 
Q 35.75 6.890625 40.890625 13.453125 
Q 46.046875 20.015625 46.78125 33.40625 
Q 43.953125 29.203125 39.59375 26.953125 
Q 35.25 24.703125 29.984375 24.703125 
Q 19.046875 24.703125 12.671875 31.3125 
Q 6.296875 37.9375 6.296875 49.421875 
Q 6.296875 60.640625 12.9375 67.421875 
Q 19.578125 74.21875 30.609375 74.21875 
Q 43.265625 74.21875 49.921875 64.515625 
Q 56.59375 54.828125 56.59375 36.375 
Q 56.59375 19.140625 48.40625 8.859375 
Q 40.234375 -1.421875 26.421875 -1.421875 
Q 22.703125 -1.421875 18.890625 -0.6875 
Q 15.09375 0.046875 10.984375 1.515625 
z
M 30.609375 32.421875 
Q 37.25 32.421875 41.125 36.953125 
Q 45.015625 41.5 45.015625 49.421875 
Q 45.015625 57.28125 41.125 61.84375 
Q 37.25 66.40625 30.609375 66.40625 
Q 23.96875 66.40625 20.09375 61.84375 
Q 16.21875 57.28125 16.21875 49.421875 
Q 16.21875 41.5 20.09375 36.953125 
Q 23.96875 32.421875 30.609375 32.421875 
z
" id="DejaVuSans-57"/>
      </defs>
      <g transform="translate(173.642032 211.194375)scale(0.1 -0.1)">
       <use xlink:href="#DejaVuSans-50"/>
       <use x="63.623047" xlink:href="#DejaVuSans-57"/>
      </g>
     </g>
    </g>
    <g id="xtick_6">
     <g id="line2d_11">
      <path clip-path="url(#p95fe5dac66)" d="M 210.634406 185.398125 
L 210.634406 22.318125 
" style="fill:none;stroke:#b0b0b0;stroke-linecap:square;stroke-opacity:0.6;stroke-width:0.8;"/>
     </g>
     <g id="line2d_12">
      <g>
       <use style="stroke:#000000;stroke-width:0.8;" x="210.634406" xlink:href="#m4f28896f16" y="185.398125"/>
      </g>
     </g>
     <g id="text_6">
      <!-- Apr. -->
      <defs>
       <path d="M 34.1875 63.1875 
L 20.796875 26.90625 
L 47.609375 26.90625 
z
M 28.609375 72.90625 
L 39.796875 72.90625 
L 67.578125 0 
L 57.328125 0 
L 50.6875 18.703125 
L 17.828125 18.703125 
L 11.1875 0 
L 0.78125 0 
z
" id="DejaVuSans-65"/>
       <path d="M 18.109375 8.203125 
L 18.109375 -20.796875 
L 9.078125 -20.796875 
L 9.078125 54.6875 
L 18.109375 54.6875 
L 18.109375 46.390625 
Q 20.953125 51.265625 25.265625 53.625 
Q 29.59375 56 35.59375 56 
Q 45.5625 56 51.78125 48.09375 
Q 58.015625 40.1875 58.015625 27.296875 
Q 58.015625 14.40625 51.78125 6.484375 
Q 45.5625 -1.421875 35.59375 -1.421875 
Q 29.59375 -1.421875 25.265625 0.953125 
Q 20.953125 3.328125 18.109375 8.203125 
z
M 48.6875 27.296875 
Q 48.6875 37.203125 44.609375 42.84375 
Q 40.53125 48.484375 33.40625 48.484375 
Q 26.265625 48.484375 22.1875 42.84375 
Q 18.109375 37.203125 18.109375 27.296875 
Q 18.109375 17.390625 22.1875 11.75 
Q 26.265625 6.109375 33.40625 6.109375 
Q 40.53125 6.109375 44.609375 11.75 
Q 48.6875 17.390625 48.6875 27.296875 
z
" id="DejaVuSans-112"/>
      </defs>
      <g transform="translate(200.402375 199.996563)scale(0.1 -0.1)">
       <use xlink:href="#DejaVuSans-65"/>
       <use x="68.408203" xlink:href="#DejaVuSans-112"/>
       <use x="131.884766" xlink:href="#DejaVuSans-114"/>
       <use x="172.857422" xlink:href="#DejaVuSans-46"/>
      </g>
      <!-- 05 -->
      <g transform="translate(204.271906 211.194375)scale(0.1 -0.1)">
       <use xlink:href="#DejaVuSans-48"/>
       <use x="63.623047" xlink:href="#DejaVuSans-53"/>
      </g>
     </g>
    </g>
    <g id="xtick_7">
     <g id="line2d_13">
      <path clip-path="url(#p95fe5dac66)" d="M 241.26428 185.398125 
L 241.26428 22.318125 
" style="fill:none;stroke:#b0b0b0;stroke-linecap:square;stroke-opacity:0.6;stroke-width:0.8;"/>
     </g>
     <g id="line2d_14">
      <g>
       <use style="stroke:#000000;stroke-width:0.8;" x="241.26428" xlink:href="#m4f28896f16" y="185.398125"/>
      </g>
     </g>
     <g id="text_7">
      <!-- Apr. -->
      <g transform="translate(231.032249 199.996563)scale(0.1 -0.1)">
       <use xlink:href="#DejaVuSans-65"/>
       <use x="68.408203" xlink:href="#DejaVuSans-112"/>
       <use x="131.884766" xlink:href="#DejaVuSans-114"/>
       <use x="172.857422" xlink:href="#DejaVuSans-46"/>
      </g>
      <!-- 12 -->
      <g transform="translate(234.90178 211.194375)scale(0.1 -0.1)">
       <use xlink:href="#DejaVuSans-49"/>
       <use x="63.623047" xlink:href="#DejaVuSans-50"/>
      </g>
     </g>
    </g>
    <g id="xtick_8">
     <g id="line2d_15">
      <path clip-path="url(#p95fe5dac66)" d="M 271.894154 185.398125 
L 271.894154 22.318125 
" style="fill:none;stroke:#b0b0b0;stroke-linecap:square;stroke-opacity:0.6;stroke-width:0.8;"/>
     </g>
     <g id="line2d_16">
      <g>
       <use style="stroke:#000000;stroke-width:0.8;" x="271.894154" xlink:href="#m4f28896f16" y="185.398125"/>
      </g>
     </g>
     <g id="text_8">
      <!-- Apr. -->
      <g transform="translate(261.662122 199.996563)scale(0.1 -0.1)">
       <use xlink:href="#DejaVuSans-65"/>
       <use x="68.408203" xlink:href="#DejaVuSans-112"/>
       <use x="131.884766" xlink:href="#DejaVuSans-114"/>
       <use x="172.857422" xlink:href="#DejaVuSans-46"/>
      </g>
      <!-- 19 -->
      <g transform="translate(265.531654 211.194375)scale(0.1 -0.1)">
       <use xlink:href="#DejaVuSans-49"/>
       <use x="63.623047" xlink:href="#DejaVuSans-57"/>
      </g>
     </g>
    </g>
    <g id="xtick_9">
     <g id="line2d_17">
      <path clip-path="url(#p95fe5dac66)" d="M 302.524028 185.398125 
L 302.524028 22.318125 
" style="fill:none;stroke:#b0b0b0;stroke-linecap:square;stroke-opacity:0.6;stroke-width:0.8;"/>
     </g>
     <g id="line2d_18">
      <g>
       <use style="stroke:#000000;stroke-width:0.8;" x="302.524028" xlink:href="#m4f28896f16" y="185.398125"/>
      </g>
     </g>
     <g id="text_9">
      <!-- Apr. -->
      <g transform="translate(292.291996 199.996563)scale(0.1 -0.1)">
       <use xlink:href="#DejaVuSans-65"/>
       <use x="68.408203" xlink:href="#DejaVuSans-112"/>
       <use x="131.884766" xlink:href="#DejaVuSans-114"/>
       <use x="172.857422" xlink:href="#DejaVuSans-46"/>
      </g>
      <!-- 26 -->
      <defs>
       <path d="M 33.015625 40.375 
Q 26.375 40.375 22.484375 35.828125 
Q 18.609375 31.296875 18.609375 23.390625 
Q 18.609375 15.53125 22.484375 10.953125 
Q 26.375 6.390625 33.015625 6.390625 
Q 39.65625 6.390625 43.53125 10.953125 
Q 47.40625 15.53125 47.40625 23.390625 
Q 47.40625 31.296875 43.53125 35.828125 
Q 39.65625 40.375 33.015625 40.375 
z
M 52.59375 71.296875 
L 52.59375 62.3125 
Q 48.875 64.0625 45.09375 64.984375 
Q 41.3125 65.921875 37.59375 65.921875 
Q 27.828125 65.921875 22.671875 59.328125 
Q 17.53125 52.734375 16.796875 39.40625 
Q 19.671875 43.65625 24.015625 45.921875 
Q 28.375 48.1875 33.59375 48.1875 
Q 44.578125 48.1875 50.953125 41.515625 
Q 57.328125 34.859375 57.328125 23.390625 
Q 57.328125 12.15625 50.6875 5.359375 
Q 44.046875 -1.421875 33.015625 -1.421875 
Q 20.359375 -1.421875 13.671875 8.265625 
Q 6.984375 17.96875 6.984375 36.375 
Q 6.984375 53.65625 15.1875 63.9375 
Q 23.390625 74.21875 37.203125 74.21875 
Q 40.921875 74.21875 44.703125 73.484375 
Q 48.484375 72.75 52.59375 71.296875 
z
" id="DejaVuSans-54"/>
      </defs>
      <g transform="translate(296.161528 211.194375)scale(0.1 -0.1)">
       <use xlink:href="#DejaVuSans-50"/>
       <use x="63.623047" xlink:href="#DejaVuSans-54"/>
      </g>
     </g>
    </g>
   </g>
   <g id="matplotlib.axis_2">
    <g id="ytick_1">
     <g id="line2d_19">
      <path clip-path="url(#p95fe5dac66)" d="M 53.328125 185.398125 
L 304.428125 185.398125 
" style="fill:none;stroke:#b0b0b0;stroke-linecap:square;stroke-opacity:0.6;stroke-width:0.8;"/>
     </g>
     <g id="line2d_20">
      <defs>
       <path d="M 0 0 
L -3.5 0 
" id="m610f415f90" style="stroke:#000000;stroke-width:0.8;"/>
      </defs>
      <g>
       <use style="stroke:#000000;stroke-width:0.8;" x="53.328125" xlink:href="#m610f415f90" y="185.398125"/>
      </g>
     </g>
     <g id="text_10">
      <!-- 10 -->
      <g transform="translate(33.603125 189.197344)scale(0.1 -0.1)">
       <use xlink:href="#DejaVuSans-49"/>
       <use x="63.623047" xlink:href="#DejaVuSans-48"/>
      </g>
     </g>
    </g>
    <g id="ytick_2">
     <g id="line2d_21">
      <path clip-path="url(#p95fe5dac66)" d="M 53.328125 168.937855 
L 304.428125 168.937855 
" style="fill:none;stroke:#b0b0b0;stroke-linecap:square;stroke-opacity:0.6;stroke-width:0.8;"/>
     </g>
     <g id="line2d_22">
      <g>
       <use style="stroke:#000000;stroke-width:0.8;" x="53.328125" xlink:href="#m610f415f90" y="168.937855"/>
      </g>
     </g>
     <g id="text_11">
      <!-- 20 -->
      <g transform="translate(33.603125 172.737074)scale(0.1 -0.1)">
       <use xlink:href="#DejaVuSans-50"/>
       <use x="63.623047" xlink:href="#DejaVuSans-48"/>
      </g>
     </g>
    </g>
    <g id="ytick_3">
     <g id="line2d_23">
      <path clip-path="url(#p95fe5dac66)" d="M 53.328125 147.178561 
L 304.428125 147.178561 
" style="fill:none;stroke:#b0b0b0;stroke-linecap:square;stroke-opacity:0.6;stroke-width:0.8;"/>
     </g>
     <g id="line2d_24">
      <g>
       <use style="stroke:#000000;stroke-width:0.8;" x="53.328125" xlink:href="#m610f415f90" y="147.178561"/>
      </g>
     </g>
     <g id="text_12">
      <!-- 50 -->
      <g transform="translate(33.603125 150.97778)scale(0.1 -0.1)">
       <use xlink:href="#DejaVuSans-53"/>
       <use x="63.623047" xlink:href="#DejaVuSans-48"/>
      </g>
     </g>
    </g>
    <g id="ytick_4">
     <g id="line2d_25">
      <path clip-path="url(#p95fe5dac66)" d="M 53.328125 130.718291 
L 304.428125 130.718291 
" style="fill:none;stroke:#b0b0b0;stroke-linecap:square;stroke-opacity:0.6;stroke-width:0.8;"/>
     </g>
     <g id="line2d_26">
      <g>
       <use style="stroke:#000000;stroke-width:0.8;" x="53.328125" xlink:href="#m610f415f90" y="130.718291"/>
      </g>
     </g>
     <g id="text_13">
      <!-- 100 -->
      <g transform="translate(27.240625 134.51751)scale(0.1 -0.1)">
       <use xlink:href="#DejaVuSans-49"/>
       <use x="63.623047" xlink:href="#DejaVuSans-48"/>
       <use x="127.246094" xlink:href="#DejaVuSans-48"/>
      </g>
     </g>
    </g>
    <g id="ytick_5">
     <g id="line2d_27">
      <path clip-path="url(#p95fe5dac66)" d="M 53.328125 114.258021 
L 304.428125 114.258021 
" style="fill:none;stroke:#b0b0b0;stroke-linecap:square;stroke-opacity:0.6;stroke-width:0.8;"/>
     </g>
     <g id="line2d_28">
      <g>
       <use style="stroke:#000000;stroke-width:0.8;" x="53.328125" xlink:href="#m610f415f90" y="114.258021"/>
      </g>
     </g>
     <g id="text_14">
      <!-- 200 -->
      <g transform="translate(27.240625 118.05724)scale(0.1 -0.1)">
       <use xlink:href="#DejaVuSans-50"/>
       <use x="63.623047" xlink:href="#DejaVuSans-48"/>
       <use x="127.246094" xlink:href="#DejaVuSans-48"/>
      </g>
     </g>
    </g>
    <g id="ytick_6">
     <g id="line2d_29">
      <path clip-path="url(#p95fe5dac66)" d="M 53.328125 92.498727 
L 304.428125 92.498727 
" style="fill:none;stroke:#b0b0b0;stroke-linecap:square;stroke-opacity:0.6;stroke-width:0.8;"/>
     </g>
     <g id="line2d_30">
      <g>
       <use style="stroke:#000000;stroke-width:0.8;" x="53.328125" xlink:href="#m610f415f90" y="92.498727"/>
      </g>
     </g>
     <g id="text_15">
      <!-- 500 -->
      <g transform="translate(27.240625 96.297946)scale(0.1 -0.1)">
       <use xlink:href="#DejaVuSans-53"/>
       <use x="63.623047" xlink:href="#DejaVuSans-48"/>
       <use x="127.246094" xlink:href="#DejaVuSans-48"/>
      </g>
     </g>
    </g>
    <g id="ytick_7">
     <g id="line2d_31">
      <path clip-path="url(#p95fe5dac66)" d="M 53.328125 76.038457 
L 304.428125 76.038457 
" style="fill:none;stroke:#b0b0b0;stroke-linecap:square;stroke-opacity:0.6;stroke-width:0.8;"/>
     </g>
     <g id="line2d_32">
      <g>
       <use style="stroke:#000000;stroke-width:0.8;" x="53.328125" xlink:href="#m610f415f90" y="76.038457"/>
      </g>
     </g>
     <g id="text_16">
      <!-- 1000 -->
      <g transform="translate(20.878125 79.837676)scale(0.1 -0.1)">
       <use xlink:href="#DejaVuSans-49"/>
       <use x="63.623047" xlink:href="#DejaVuSans-48"/>
       <use x="127.246094" xlink:href="#DejaVuSans-48"/>
       <use x="190.869141" xlink:href="#DejaVuSans-48"/>
      </g>
     </g>
    </g>
    <g id="ytick_8">
     <g id="line2d_33">
      <path clip-path="url(#p95fe5dac66)" d="M 53.328125 59.578187 
L 304.428125 59.578187 
" style="fill:none;stroke:#b0b0b0;stroke-linecap:square;stroke-opacity:0.6;stroke-width:0.8;"/>
     </g>
     <g id="line2d_34">
      <g>
       <use style="stroke:#000000;stroke-width:0.8;" x="53.328125" xlink:href="#m610f415f90" y="59.578187"/>
      </g>
     </g>
     <g id="text_17">
      <!-- 2000 -->
      <g transform="translate(20.878125 63.377406)scale(0.1 -0.1)">
       <use xlink:href="#DejaVuSans-50"/>
       <use x="63.623047" xlink:href="#DejaVuSans-48"/>
       <use x="127.246094" xlink:href="#DejaVuSans-48"/>
       <use x="190.869141" xlink:href="#DejaVuSans-48"/>
      </g>
     </g>
    </g>
    <g id="ytick_9">
     <g id="line2d_35">
      <path clip-path="url(#p95fe5dac66)" d="M 53.328125 37.818893 
L 304.428125 37.818893 
" style="fill:none;stroke:#b0b0b0;stroke-linecap:square;stroke-opacity:0.6;stroke-width:0.8;"/>
     </g>
     <g id="line2d_36">
      <g>
       <use style="stroke:#000000;stroke-width:0.8;" x="53.328125" xlink:href="#m610f415f90" y="37.818893"/>
      </g>
     </g>
     <g id="text_18">
      <!-- 5000 -->
      <g transform="translate(20.878125 41.618112)scale(0.1 -0.1)">
       <use xlink:href="#DejaVuSans-53"/>
       <use x="63.623047" xlink:href="#DejaVuSans-48"/>
       <use x="127.246094" xlink:href="#DejaVuSans-48"/>
       <use x="190.869141" xlink:href="#DejaVuSans-48"/>
      </g>
     </g>
    </g>
    <g id="ytick_10">
     <g id="line2d_37">
      <defs>
       <path d="M 0 0 
L -2 0 
" id="mfb58ff41c6" style="stroke:#000000;stroke-width:0.6;"/>
      </defs>
      <g>
       <use style="stroke:#000000;stroke-width:0.6;" x="53.328125" xlink:href="#mfb58ff41c6" y="159.309214"/>
      </g>
     </g>
    </g>
    <g id="ytick_11">
     <g id="line2d_38">
      <g>
       <use style="stroke:#000000;stroke-width:0.6;" x="53.328125" xlink:href="#mfb58ff41c6" y="152.477585"/>
      </g>
     </g>
    </g>
    <g id="ytick_12">
     <g id="line2d_39">
      <g>
       <use style="stroke:#000000;stroke-width:0.6;" x="53.328125" xlink:href="#mfb58ff41c6" y="142.848944"/>
      </g>
     </g>
    </g>
    <g id="ytick_13">
     <g id="line2d_40">
      <g>
       <use style="stroke:#000000;stroke-width:0.6;" x="53.328125" xlink:href="#mfb58ff41c6" y="139.188304"/>
      </g>
     </g>
    </g>
    <g id="ytick_14">
     <g id="line2d_41">
      <g>
       <use style="stroke:#000000;stroke-width:0.6;" x="53.328125" xlink:href="#mfb58ff41c6" y="136.017314"/>
      </g>
     </g>
    </g>
    <g id="ytick_15">
     <g id="line2d_42">
      <g>
       <use style="stroke:#000000;stroke-width:0.6;" x="53.328125" xlink:href="#mfb58ff41c6" y="133.220303"/>
      </g>
     </g>
    </g>
    <g id="ytick_16">
     <g id="line2d_43">
      <g>
       <use style="stroke:#000000;stroke-width:0.6;" x="53.328125" xlink:href="#mfb58ff41c6" y="104.62938"/>
      </g>
     </g>
    </g>
    <g id="ytick_17">
     <g id="line2d_44">
      <g>
       <use style="stroke:#000000;stroke-width:0.6;" x="53.328125" xlink:href="#mfb58ff41c6" y="97.797751"/>
      </g>
     </g>
    </g>
    <g id="ytick_18">
     <g id="line2d_45">
      <g>
       <use style="stroke:#000000;stroke-width:0.6;" x="53.328125" xlink:href="#mfb58ff41c6" y="88.16911"/>
      </g>
     </g>
    </g>
    <g id="ytick_19">
     <g id="line2d_46">
      <g>
       <use style="stroke:#000000;stroke-width:0.6;" x="53.328125" xlink:href="#mfb58ff41c6" y="84.50847"/>
      </g>
     </g>
    </g>
    <g id="ytick_20">
     <g id="line2d_47">
      <g>
       <use style="stroke:#000000;stroke-width:0.6;" x="53.328125" xlink:href="#mfb58ff41c6" y="81.33748"/>
      </g>
     </g>
    </g>
    <g id="ytick_21">
     <g id="line2d_48">
      <g>
       <use style="stroke:#000000;stroke-width:0.6;" x="53.328125" xlink:href="#mfb58ff41c6" y="78.540469"/>
      </g>
     </g>
    </g>
    <g id="ytick_22">
     <g id="line2d_49">
      <g>
       <use style="stroke:#000000;stroke-width:0.6;" x="53.328125" xlink:href="#mfb58ff41c6" y="49.949546"/>
      </g>
     </g>
    </g>
    <g id="ytick_23">
     <g id="line2d_50">
      <g>
       <use style="stroke:#000000;stroke-width:0.6;" x="53.328125" xlink:href="#mfb58ff41c6" y="43.117917"/>
      </g>
     </g>
    </g>
    <g id="ytick_24">
     <g id="line2d_51">
      <g>
       <use style="stroke:#000000;stroke-width:0.6;" x="53.328125" xlink:href="#mfb58ff41c6" y="33.489276"/>
      </g>
     </g>
    </g>
    <g id="ytick_25">
     <g id="line2d_52">
      <g>
       <use style="stroke:#000000;stroke-width:0.6;" x="53.328125" xlink:href="#mfb58ff41c6" y="29.828636"/>
      </g>
     </g>
    </g>
    <g id="ytick_26">
     <g id="line2d_53">
      <g>
       <use style="stroke:#000000;stroke-width:0.6;" x="53.328125" xlink:href="#mfb58ff41c6" y="26.657646"/>
      </g>
     </g>
    </g>
    <g id="ytick_27">
     <g id="line2d_54">
      <g>
       <use style="stroke:#000000;stroke-width:0.6;" x="53.328125" xlink:href="#mfb58ff41c6" y="23.860635"/>
      </g>
     </g>
    </g>
    <g id="text_19">
     <!-- Daily observations -->
     <defs>
      <path d="M 19.671875 64.796875 
L 19.671875 8.109375 
L 31.59375 8.109375 
Q 46.6875 8.109375 53.6875 14.9375 
Q 60.6875 21.78125 60.6875 36.53125 
Q 60.6875 51.171875 53.6875 57.984375 
Q 46.6875 64.796875 31.59375 64.796875 
z
M 9.8125 72.90625 
L 30.078125 72.90625 
Q 51.265625 72.90625 61.171875 64.09375 
Q 71.09375 55.28125 71.09375 36.53125 
Q 71.09375 17.671875 61.125 8.828125 
Q 51.171875 0 30.078125 0 
L 9.8125 0 
z
" id="DejaVuSans-68"/>
      <path d="M 9.421875 54.6875 
L 18.40625 54.6875 
L 18.40625 0 
L 9.421875 0 
z
M 9.421875 75.984375 
L 18.40625 75.984375 
L 18.40625 64.59375 
L 9.421875 64.59375 
z
" id="DejaVuSans-105"/>
      <path d="M 9.421875 75.984375 
L 18.40625 75.984375 
L 18.40625 0 
L 9.421875 0 
z
" id="DejaVuSans-108"/>
      <path d="M 32.171875 -5.078125 
Q 28.375 -14.84375 24.75 -17.8125 
Q 21.140625 -20.796875 15.09375 -20.796875 
L 7.90625 -20.796875 
L 7.90625 -13.28125 
L 13.1875 -13.28125 
Q 16.890625 -13.28125 18.9375 -11.515625 
Q 21 -9.765625 23.484375 -3.21875 
L 25.09375 0.875 
L 2.984375 54.6875 
L 12.5 54.6875 
L 29.59375 11.921875 
L 46.6875 54.6875 
L 56.203125 54.6875 
z
" id="DejaVuSans-121"/>
      <path id="DejaVuSans-32"/>
      <path d="M 30.609375 48.390625 
Q 23.390625 48.390625 19.1875 42.75 
Q 14.984375 37.109375 14.984375 27.296875 
Q 14.984375 17.484375 19.15625 11.84375 
Q 23.34375 6.203125 30.609375 6.203125 
Q 37.796875 6.203125 41.984375 11.859375 
Q 46.1875 17.53125 46.1875 27.296875 
Q 46.1875 37.015625 41.984375 42.703125 
Q 37.796875 48.390625 30.609375 48.390625 
z
M 30.609375 56 
Q 42.328125 56 49.015625 48.375 
Q 55.71875 40.765625 55.71875 27.296875 
Q 55.71875 13.875 49.015625 6.21875 
Q 42.328125 -1.421875 30.609375 -1.421875 
Q 18.84375 -1.421875 12.171875 6.21875 
Q 5.515625 13.875 5.515625 27.296875 
Q 5.515625 40.765625 12.171875 48.375 
Q 18.84375 56 30.609375 56 
z
" id="DejaVuSans-111"/>
      <path d="M 48.6875 27.296875 
Q 48.6875 37.203125 44.609375 42.84375 
Q 40.53125 48.484375 33.40625 48.484375 
Q 26.265625 48.484375 22.1875 42.84375 
Q 18.109375 37.203125 18.109375 27.296875 
Q 18.109375 17.390625 22.1875 11.75 
Q 26.265625 6.109375 33.40625 6.109375 
Q 40.53125 6.109375 44.609375 11.75 
Q 48.6875 17.390625 48.6875 27.296875 
z
M 18.109375 46.390625 
Q 20.953125 51.265625 25.265625 53.625 
Q 29.59375 56 35.59375 56 
Q 45.5625 56 51.78125 48.09375 
Q 58.015625 40.1875 58.015625 27.296875 
Q 58.015625 14.40625 51.78125 6.484375 
Q 45.5625 -1.421875 35.59375 -1.421875 
Q 29.59375 -1.421875 25.265625 0.953125 
Q 20.953125 3.328125 18.109375 8.203125 
L 18.109375 0 
L 9.078125 0 
L 9.078125 75.984375 
L 18.109375 75.984375 
z
" id="DejaVuSans-98"/>
      <path d="M 44.28125 53.078125 
L 44.28125 44.578125 
Q 40.484375 46.53125 36.375 47.5 
Q 32.28125 48.484375 27.875 48.484375 
Q 21.1875 48.484375 17.84375 46.4375 
Q 14.5 44.390625 14.5 40.28125 
Q 14.5 37.15625 16.890625 35.375 
Q 19.28125 33.59375 26.515625 31.984375 
L 29.59375 31.296875 
Q 39.15625 29.25 43.1875 25.515625 
Q 47.21875 21.78125 47.21875 15.09375 
Q 47.21875 7.46875 41.1875 3.015625 
Q 35.15625 -1.421875 24.609375 -1.421875 
Q 20.21875 -1.421875 15.453125 -0.5625 
Q 10.6875 0.296875 5.421875 2 
L 5.421875 11.28125 
Q 10.40625 8.6875 15.234375 7.390625 
Q 20.0625 6.109375 24.8125 6.109375 
Q 31.15625 6.109375 34.5625 8.28125 
Q 37.984375 10.453125 37.984375 14.40625 
Q 37.984375 18.0625 35.515625 20.015625 
Q 33.0625 21.96875 24.703125 23.78125 
L 21.578125 24.515625 
Q 13.234375 26.265625 9.515625 29.90625 
Q 5.8125 33.546875 5.8125 39.890625 
Q 5.8125 47.609375 11.28125 51.796875 
Q 16.75 56 26.8125 56 
Q 31.78125 56 36.171875 55.265625 
Q 40.578125 54.546875 44.28125 53.078125 
z
" id="DejaVuSans-115"/>
      <path d="M 56.203125 29.59375 
L 56.203125 25.203125 
L 14.890625 25.203125 
Q 15.484375 15.921875 20.484375 11.0625 
Q 25.484375 6.203125 34.421875 6.203125 
Q 39.59375 6.203125 44.453125 7.46875 
Q 49.3125 8.734375 54.109375 11.28125 
L 54.109375 2.78125 
Q 49.265625 0.734375 44.1875 -0.34375 
Q 39.109375 -1.421875 33.890625 -1.421875 
Q 20.796875 -1.421875 13.15625 6.1875 
Q 5.515625 13.8125 5.515625 26.8125 
Q 5.515625 40.234375 12.765625 48.109375 
Q 20.015625 56 32.328125 56 
Q 43.359375 56 49.78125 48.890625 
Q 56.203125 41.796875 56.203125 29.59375 
z
M 47.21875 32.234375 
Q 47.125 39.59375 43.09375 43.984375 
Q 39.0625 48.390625 32.421875 48.390625 
Q 24.90625 48.390625 20.390625 44.140625 
Q 15.875 39.890625 15.1875 32.171875 
z
" id="DejaVuSans-101"/>
      <path d="M 2.984375 54.6875 
L 12.5 54.6875 
L 29.59375 8.796875 
L 46.6875 54.6875 
L 56.203125 54.6875 
L 35.6875 0 
L 23.484375 0 
z
" id="DejaVuSans-118"/>
      <path d="M 18.3125 70.21875 
L 18.3125 54.6875 
L 36.8125 54.6875 
L 36.8125 47.703125 
L 18.3125 47.703125 
L 18.3125 18.015625 
Q 18.3125 11.328125 20.140625 9.421875 
Q 21.96875 7.515625 27.59375 7.515625 
L 36.8125 7.515625 
L 36.8125 0 
L 27.59375 0 
Q 17.1875 0 13.234375 3.875 
Q 9.28125 7.765625 9.28125 18.015625 
L 9.28125 47.703125 
L 2.6875 47.703125 
L 2.6875 54.6875 
L 9.28125 54.6875 
L 9.28125 70.21875 
z
" id="DejaVuSans-116"/>
      <path d="M 54.890625 33.015625 
L 54.890625 0 
L 45.90625 0 
L 45.90625 32.71875 
Q 45.90625 40.484375 42.875 44.328125 
Q 39.84375 48.1875 33.796875 48.1875 
Q 26.515625 48.1875 22.3125 43.546875 
Q 18.109375 38.921875 18.109375 30.90625 
L 18.109375 0 
L 9.078125 0 
L 9.078125 54.6875 
L 18.109375 54.6875 
L 18.109375 46.1875 
Q 21.34375 51.125 25.703125 53.5625 
Q 30.078125 56 35.796875 56 
Q 45.21875 56 50.046875 50.171875 
Q 54.890625 44.34375 54.890625 33.015625 
z
" id="DejaVuSans-110"/>
     </defs>
     <g transform="translate(14.798438 150.274531)rotate(-90)scale(0.1 -0.1)">
      <use xlink:href="#DejaVuSans-68"/>
      <use x="77.001953" xlink:href="#DejaVuSans-97"/>
      <use x="138.28125" xlink:href="#DejaVuSans-105"/>
      <use x="166.064453" xlink:href="#DejaVuSans-108"/>
      <use x="193.847656" xlink:href="#DejaVuSans-121"/>
      <use x="253.027344" xlink:href="#DejaVuSans-32"/>
      <use x="284.814453" xlink:href="#DejaVuSans-111"/>
      <use x="345.996094" xlink:href="#DejaVuSans-98"/>
      <use x="409.472656" xlink:href="#DejaVuSans-115"/>
      <use x="461.572266" xlink:href="#DejaVuSans-101"/>
      <use x="523.095703" xlink:href="#DejaVuSans-114"/>
      <use x="564.208984" xlink:href="#DejaVuSans-118"/>
      <use x="623.388672" xlink:href="#DejaVuSans-97"/>
      <use x="684.667969" xlink:href="#DejaVuSans-116"/>
      <use x="723.876953" xlink:href="#DejaVuSans-105"/>
      <use x="751.660156" xlink:href="#DejaVuSans-111"/>
      <use x="812.841797" xlink:href="#DejaVuSans-110"/>
      <use x="876.220703" xlink:href="#DejaVuSans-115"/>
     </g>
    </g>
   </g>
   <g id="line2d_55">
    <path clip-path="url(#p95fe5dac66)" d="M 66.667503 221.474063 
L 70.612125 201.858395 
L 74.987822 213.989048 
L 79.363518 193.868138 
L 83.739214 193.868138 
L 88.11491 167.779227 
L 92.490607 144.067013 
L 96.866303 139.188304 
L 101.241999 120.619394 
L 105.617695 100.631896 
L 109.993392 87.467172 
L 114.369088 86.56241 
L 118.744784 75.405787 
L 123.120481 58.26177 
L 127.496177 54.797723 
L 131.871873 50.364772 
L 136.247569 45.123818 
L 140.623266 43.22502 
L 144.998962 53.347783 
L 149.374658 53.855516 
L 153.750354 46.329651 
L 158.126051 40.919425 
L 162.501747 39.132142 
L 166.877443 38.20192 
L 171.253139 37.880716 
L 175.628836 47.082277 
L 180.004532 46.740986 
L 184.380228 33.481361 
L 188.755925 37.052488 
L 193.131621 37.733557 
L 197.507317 34.975488 
L 201.883013 35.516721 
L 206.25871 44.669528 
L 210.634406 45.560635 
L 215.010102 32.687641 
L 219.385798 33.844164 
L 223.761495 35.991288 
L 228.137191 38.483529 
L 232.512887 41.807118 
L 236.888584 45.905283 
L 241.26428 52.398845 
L 245.639976 48.387275 
L 250.015672 42.822917 
L 254.391369 44.398561 
L 258.767065 46.706435 
L 263.142761 46.356853 
L 267.518457 58.669651 
L 271.894154 56.435413 
L 276.26985 45.033549 
L 280.645546 50.10839 
L 285.021243 47.019222 
L 289.396939 52.355007 
L 293.772635 55.890423 
L 298.148331 70.587936 
L 302.524028 77.007863 
L 306.899724 58.093866 
L 311.27542 55.327859 
L 315.651116 61.519576 
L 320.026813 85.442565 
L 320.956059 107.794989 
" style="fill:none;stroke:#1f77b4;stroke-linecap:square;stroke-width:1.5;"/>
    <defs>
     <path d="M 0 3 
C 0.795609 3 1.55874 2.683901 2.12132 2.12132 
C 2.683901 1.55874 3 0.795609 3 0 
C 3 -0.795609 2.683901 -1.55874 2.12132 -2.12132 
C 1.55874 -2.683901 0.795609 -3 0 -3 
C -0.795609 -3 -1.55874 -2.683901 -2.12132 -2.12132 
C -2.683901 -1.55874 -3 -0.795609 -3 0 
C -3 0.795609 -2.683901 1.55874 -2.12132 2.12132 
C -1.55874 2.683901 -0.795609 3 0 3 
z
" id="me4a5408dc2" style="stroke:#1f77b4;"/>
    </defs>
    <g clip-path="url(#p95fe5dac66)">
     <use style="fill:#1f77b4;stroke:#1f77b4;" x="66.236429" xlink:href="#me4a5408dc2" y="223.617689"/>
     <use style="fill:#1f77b4;stroke:#1f77b4;" x="70.612125" xlink:href="#me4a5408dc2" y="201.858395"/>
     <use style="fill:#1f77b4;stroke:#1f77b4;" x="74.987822" xlink:href="#me4a5408dc2" y="213.989048"/>
     <use style="fill:#1f77b4;stroke:#1f77b4;" x="79.363518" xlink:href="#me4a5408dc2" y="193.868138"/>
     <use style="fill:#1f77b4;stroke:#1f77b4;" x="83.739214" xlink:href="#me4a5408dc2" y="193.868138"/>
     <use style="fill:#1f77b4;stroke:#1f77b4;" x="88.11491" xlink:href="#me4a5408dc2" y="167.779227"/>
     <use style="fill:#1f77b4;stroke:#1f77b4;" x="92.490607" xlink:href="#me4a5408dc2" y="144.067013"/>
     <use style="fill:#1f77b4;stroke:#1f77b4;" x="96.866303" xlink:href="#me4a5408dc2" y="139.188304"/>
     <use style="fill:#1f77b4;stroke:#1f77b4;" x="101.241999" xlink:href="#me4a5408dc2" y="120.619394"/>
     <use style="fill:#1f77b4;stroke:#1f77b4;" x="105.617695" xlink:href="#me4a5408dc2" y="100.631896"/>
     <use style="fill:#1f77b4;stroke:#1f77b4;" x="109.993392" xlink:href="#me4a5408dc2" y="87.467172"/>
     <use style="fill:#1f77b4;stroke:#1f77b4;" x="114.369088" xlink:href="#me4a5408dc2" y="86.56241"/>
     <use style="fill:#1f77b4;stroke:#1f77b4;" x="118.744784" xlink:href="#me4a5408dc2" y="75.405787"/>
     <use style="fill:#1f77b4;stroke:#1f77b4;" x="123.120481" xlink:href="#me4a5408dc2" y="58.26177"/>
     <use style="fill:#1f77b4;stroke:#1f77b4;" x="127.496177" xlink:href="#me4a5408dc2" y="54.797723"/>
     <use style="fill:#1f77b4;stroke:#1f77b4;" x="131.871873" xlink:href="#me4a5408dc2" y="50.364772"/>
     <use style="fill:#1f77b4;stroke:#1f77b4;" x="136.247569" xlink:href="#me4a5408dc2" y="45.123818"/>
     <use style="fill:#1f77b4;stroke:#1f77b4;" x="140.623266" xlink:href="#me4a5408dc2" y="43.22502"/>
     <use style="fill:#1f77b4;stroke:#1f77b4;" x="144.998962" xlink:href="#me4a5408dc2" y="53.347783"/>
     <use style="fill:#1f77b4;stroke:#1f77b4;" x="149.374658" xlink:href="#me4a5408dc2" y="53.855516"/>
     <use style="fill:#1f77b4;stroke:#1f77b4;" x="153.750354" xlink:href="#me4a5408dc2" y="46.329651"/>
     <use style="fill:#1f77b4;stroke:#1f77b4;" x="158.126051" xlink:href="#me4a5408dc2" y="40.919425"/>
     <use style="fill:#1f77b4;stroke:#1f77b4;" x="162.501747" xlink:href="#me4a5408dc2" y="39.132142"/>
     <use style="fill:#1f77b4;stroke:#1f77b4;" x="166.877443" xlink:href="#me4a5408dc2" y="38.20192"/>
     <use style="fill:#1f77b4;stroke:#1f77b4;" x="171.253139" xlink:href="#me4a5408dc2" y="37.880716"/>
     <use style="fill:#1f77b4;stroke:#1f77b4;" x="175.628836" xlink:href="#me4a5408dc2" y="47.082277"/>
     <use style="fill:#1f77b4;stroke:#1f77b4;" x="180.004532" xlink:href="#me4a5408dc2" y="46.740986"/>
     <use style="fill:#1f77b4;stroke:#1f77b4;" x="184.380228" xlink:href="#me4a5408dc2" y="33.481361"/>
     <use style="fill:#1f77b4;stroke:#1f77b4;" x="188.755925" xlink:href="#me4a5408dc2" y="37.052488"/>
     <use style="fill:#1f77b4;stroke:#1f77b4;" x="193.131621" xlink:href="#me4a5408dc2" y="37.733557"/>
     <use style="fill:#1f77b4;stroke:#1f77b4;" x="197.507317" xlink:href="#me4a5408dc2" y="34.975488"/>
     <use style="fill:#1f77b4;stroke:#1f77b4;" x="201.883013" xlink:href="#me4a5408dc2" y="35.516721"/>
     <use style="fill:#1f77b4;stroke:#1f77b4;" x="206.25871" xlink:href="#me4a5408dc2" y="44.669528"/>
     <use style="fill:#1f77b4;stroke:#1f77b4;" x="210.634406" xlink:href="#me4a5408dc2" y="45.560635"/>
     <use style="fill:#1f77b4;stroke:#1f77b4;" x="215.010102" xlink:href="#me4a5408dc2" y="32.687641"/>
     <use style="fill:#1f77b4;stroke:#1f77b4;" x="219.385798" xlink:href="#me4a5408dc2" y="33.844164"/>
     <use style="fill:#1f77b4;stroke:#1f77b4;" x="223.761495" xlink:href="#me4a5408dc2" y="35.991288"/>
     <use style="fill:#1f77b4;stroke:#1f77b4;" x="228.137191" xlink:href="#me4a5408dc2" y="38.483529"/>
     <use style="fill:#1f77b4;stroke:#1f77b4;" x="232.512887" xlink:href="#me4a5408dc2" y="41.807118"/>
     <use style="fill:#1f77b4;stroke:#1f77b4;" x="236.888584" xlink:href="#me4a5408dc2" y="45.905283"/>
     <use style="fill:#1f77b4;stroke:#1f77b4;" x="241.26428" xlink:href="#me4a5408dc2" y="52.398845"/>
     <use style="fill:#1f77b4;stroke:#1f77b4;" x="245.639976" xlink:href="#me4a5408dc2" y="48.387275"/>
     <use style="fill:#1f77b4;stroke:#1f77b4;" x="250.015672" xlink:href="#me4a5408dc2" y="42.822917"/>
     <use style="fill:#1f77b4;stroke:#1f77b4;" x="254.391369" xlink:href="#me4a5408dc2" y="44.398561"/>
     <use style="fill:#1f77b4;stroke:#1f77b4;" x="258.767065" xlink:href="#me4a5408dc2" y="46.706435"/>
     <use style="fill:#1f77b4;stroke:#1f77b4;" x="263.142761" xlink:href="#me4a5408dc2" y="46.356853"/>
     <use style="fill:#1f77b4;stroke:#1f77b4;" x="267.518457" xlink:href="#me4a5408dc2" y="58.669651"/>
     <use style="fill:#1f77b4;stroke:#1f77b4;" x="271.894154" xlink:href="#me4a5408dc2" y="56.435413"/>
     <use style="fill:#1f77b4;stroke:#1f77b4;" x="276.26985" xlink:href="#me4a5408dc2" y="45.033549"/>
     <use style="fill:#1f77b4;stroke:#1f77b4;" x="280.645546" xlink:href="#me4a5408dc2" y="50.10839"/>
     <use style="fill:#1f77b4;stroke:#1f77b4;" x="285.021243" xlink:href="#me4a5408dc2" y="47.019222"/>
     <use style="fill:#1f77b4;stroke:#1f77b4;" x="289.396939" xlink:href="#me4a5408dc2" y="52.355007"/>
     <use style="fill:#1f77b4;stroke:#1f77b4;" x="293.772635" xlink:href="#me4a5408dc2" y="55.890423"/>
     <use style="fill:#1f77b4;stroke:#1f77b4;" x="298.148331" xlink:href="#me4a5408dc2" y="70.587936"/>
     <use style="fill:#1f77b4;stroke:#1f77b4;" x="302.524028" xlink:href="#me4a5408dc2" y="77.007863"/>
     <use style="fill:#1f77b4;stroke:#1f77b4;" x="306.899724" xlink:href="#me4a5408dc2" y="58.093866"/>
     <use style="fill:#1f77b4;stroke:#1f77b4;" x="311.27542" xlink:href="#me4a5408dc2" y="55.327859"/>
     <use style="fill:#1f77b4;stroke:#1f77b4;" x="315.651116" xlink:href="#me4a5408dc2" y="61.519576"/>
     <use style="fill:#1f77b4;stroke:#1f77b4;" x="320.026813" xlink:href="#me4a5408dc2" y="85.442565"/>
     <use style="fill:#1f77b4;stroke:#1f77b4;" x="324.402509" xlink:href="#me4a5408dc2" y="190.697148"/>
    </g>
   </g>
   <g id="line2d_56">
    <path clip-path="url(#p95fe5dac66)" d="M 66.236429 193.868138 
L 70.612125 190.697148 
L 74.987822 179.167721 
L 79.363518 181.068508 
L 83.739214 185.398125 
L 88.11491 177.407868 
L 92.490607 154.979597 
L 96.866303 149.158637 
L 101.241999 139.188304 
L 105.617695 138.191774 
L 109.993392 123.591662 
L 114.369088 120.775114 
L 118.744784 115.981368 
L 123.120481 104.708669 
L 127.496177 101.727059 
L 131.871873 95.588438 
L 136.247569 90.980968 
L 140.623266 87.352174 
L 144.998962 85.762277 
L 149.374658 84.815771 
L 153.750354 75.521684 
L 158.126051 73.031292 
L 162.501747 70.682509 
L 166.877443 68.26974 
L 171.253139 69.052971 
L 175.628836 70.306457 
L 180.004532 68.894244 
L 184.380228 64.348822 
L 188.755925 66.728575 
L 193.131621 67.231264 
L 197.507317 64.847545 
L 201.883013 65.011165 
L 206.25871 68.982295 
L 210.634406 69.123858 
L 215.010102 63.690329 
L 219.385798 66.220595 
L 223.761495 67.728085 
L 228.137191 69.973028 
L 232.512887 71.316316 
L 236.888584 76.229198 
L 241.26428 77.812928 
L 245.639976 73.818328 
L 250.015672 76.81079 
L 254.391369 79.814152 
L 258.767065 84.919094 
L 263.142761 83.806533 
L 267.518457 91.658858 
L 271.894154 93.716797 
L 276.26985 90.936456 
L 280.645546 91.249806 
L 285.021243 95.805804 
L 289.396939 99.97221 
L 293.772635 100.968741 
L 298.148331 107.396726 
L 302.524028 110.027557 
L 306.899724 104.004419 
L 311.27542 108.210994 
L 315.651116 136.017314 
L 320.026813 179.167721 
L 320.030194 221.474063 
" style="fill:none;stroke:#ff7f0e;stroke-linecap:square;stroke-width:1.5;"/>
    <defs>
     <path d="M 0 3 
C 0.795609 3 1.55874 2.683901 2.12132 2.12132 
C 2.683901 1.55874 3 0.795609 3 0 
C 3 -0.795609 2.683901 -1.55874 2.12132 -2.12132 
C 1.55874 -2.683901 0.795609 -3 0 -3 
C -0.795609 -3 -1.55874 -2.683901 -2.12132 -2.12132 
C -2.683901 -1.55874 -3 -0.795609 -3 0 
C -3 0.795609 -2.683901 1.55874 -2.12132 2.12132 
C -1.55874 2.683901 -0.795609 3 0 3 
z
" id="me9d69609f3" style="stroke:#ff7f0e;"/>
    </defs>
    <g clip-path="url(#p95fe5dac66)">
     <use style="fill:#ff7f0e;stroke:#ff7f0e;" x="66.236429" xlink:href="#me9d69609f3" y="193.868138"/>
     <use style="fill:#ff7f0e;stroke:#ff7f0e;" x="70.612125" xlink:href="#me9d69609f3" y="190.697148"/>
     <use style="fill:#ff7f0e;stroke:#ff7f0e;" x="74.987822" xlink:href="#me9d69609f3" y="179.167721"/>
     <use style="fill:#ff7f0e;stroke:#ff7f0e;" x="79.363518" xlink:href="#me9d69609f3" y="181.068508"/>
     <use style="fill:#ff7f0e;stroke:#ff7f0e;" x="83.739214" xlink:href="#me9d69609f3" y="185.398125"/>
     <use style="fill:#ff7f0e;stroke:#ff7f0e;" x="88.11491" xlink:href="#me9d69609f3" y="177.407868"/>
     <use style="fill:#ff7f0e;stroke:#ff7f0e;" x="92.490607" xlink:href="#me9d69609f3" y="154.979597"/>
     <use style="fill:#ff7f0e;stroke:#ff7f0e;" x="96.866303" xlink:href="#me9d69609f3" y="149.158637"/>
     <use style="fill:#ff7f0e;stroke:#ff7f0e;" x="101.241999" xlink:href="#me9d69609f3" y="139.188304"/>
     <use style="fill:#ff7f0e;stroke:#ff7f0e;" x="105.617695" xlink:href="#me9d69609f3" y="138.191774"/>
     <use style="fill:#ff7f0e;stroke:#ff7f0e;" x="109.993392" xlink:href="#me9d69609f3" y="123.591662"/>
     <use style="fill:#ff7f0e;stroke:#ff7f0e;" x="114.369088" xlink:href="#me9d69609f3" y="120.775114"/>
     <use style="fill:#ff7f0e;stroke:#ff7f0e;" x="118.744784" xlink:href="#me9d69609f3" y="115.981368"/>
     <use style="fill:#ff7f0e;stroke:#ff7f0e;" x="123.120481" xlink:href="#me9d69609f3" y="104.708669"/>
     <use style="fill:#ff7f0e;stroke:#ff7f0e;" x="127.496177" xlink:href="#me9d69609f3" y="101.727059"/>
     <use style="fill:#ff7f0e;stroke:#ff7f0e;" x="131.871873" xlink:href="#me9d69609f3" y="95.588438"/>
     <use style="fill:#ff7f0e;stroke:#ff7f0e;" x="136.247569" xlink:href="#me9d69609f3" y="90.980968"/>
     <use style="fill:#ff7f0e;stroke:#ff7f0e;" x="140.623266" xlink:href="#me9d69609f3" y="87.352174"/>
     <use style="fill:#ff7f0e;stroke:#ff7f0e;" x="144.998962" xlink:href="#me9d69609f3" y="85.762277"/>
     <use style="fill:#ff7f0e;stroke:#ff7f0e;" x="149.374658" xlink:href="#me9d69609f3" y="84.815771"/>
     <use style="fill:#ff7f0e;stroke:#ff7f0e;" x="153.750354" xlink:href="#me9d69609f3" y="75.521684"/>
     <use style="fill:#ff7f0e;stroke:#ff7f0e;" x="158.126051" xlink:href="#me9d69609f3" y="73.031292"/>
     <use style="fill:#ff7f0e;stroke:#ff7f0e;" x="162.501747" xlink:href="#me9d69609f3" y="70.682509"/>
     <use style="fill:#ff7f0e;stroke:#ff7f0e;" x="166.877443" xlink:href="#me9d69609f3" y="68.26974"/>
     <use style="fill:#ff7f0e;stroke:#ff7f0e;" x="171.253139" xlink:href="#me9d69609f3" y="69.052971"/>
     <use style="fill:#ff7f0e;stroke:#ff7f0e;" x="175.628836" xlink:href="#me9d69609f3" y="70.306457"/>
     <use style="fill:#ff7f0e;stroke:#ff7f0e;" x="180.004532" xlink:href="#me9d69609f3" y="68.894244"/>
     <use style="fill:#ff7f0e;stroke:#ff7f0e;" x="184.380228" xlink:href="#me9d69609f3" y="64.348822"/>
     <use style="fill:#ff7f0e;stroke:#ff7f0e;" x="188.755925" xlink:href="#me9d69609f3" y="66.728575"/>
     <use style="fill:#ff7f0e;stroke:#ff7f0e;" x="193.131621" xlink:href="#me9d69609f3" y="67.231264"/>
     <use style="fill:#ff7f0e;stroke:#ff7f0e;" x="197.507317" xlink:href="#me9d69609f3" y="64.847545"/>
     <use style="fill:#ff7f0e;stroke:#ff7f0e;" x="201.883013" xlink:href="#me9d69609f3" y="65.011165"/>
     <use style="fill:#ff7f0e;stroke:#ff7f0e;" x="206.25871" xlink:href="#me9d69609f3" y="68.982295"/>
     <use style="fill:#ff7f0e;stroke:#ff7f0e;" x="210.634406" xlink:href="#me9d69609f3" y="69.123858"/>
     <use style="fill:#ff7f0e;stroke:#ff7f0e;" x="215.010102" xlink:href="#me9d69609f3" y="63.690329"/>
     <use style="fill:#ff7f0e;stroke:#ff7f0e;" x="219.385798" xlink:href="#me9d69609f3" y="66.220595"/>
     <use style="fill:#ff7f0e;stroke:#ff7f0e;" x="223.761495" xlink:href="#me9d69609f3" y="67.728085"/>
     <use style="fill:#ff7f0e;stroke:#ff7f0e;" x="228.137191" xlink:href="#me9d69609f3" y="69.973028"/>
     <use style="fill:#ff7f0e;stroke:#ff7f0e;" x="232.512887" xlink:href="#me9d69609f3" y="71.316316"/>
     <use style="fill:#ff7f0e;stroke:#ff7f0e;" x="236.888584" xlink:href="#me9d69609f3" y="76.229198"/>
     <use style="fill:#ff7f0e;stroke:#ff7f0e;" x="241.26428" xlink:href="#me9d69609f3" y="77.812928"/>
     <use style="fill:#ff7f0e;stroke:#ff7f0e;" x="245.639976" xlink:href="#me9d69609f3" y="73.818328"/>
     <use style="fill:#ff7f0e;stroke:#ff7f0e;" x="250.015672" xlink:href="#me9d69609f3" y="76.81079"/>
     <use style="fill:#ff7f0e;stroke:#ff7f0e;" x="254.391369" xlink:href="#me9d69609f3" y="79.814152"/>
     <use style="fill:#ff7f0e;stroke:#ff7f0e;" x="258.767065" xlink:href="#me9d69609f3" y="84.919094"/>
     <use style="fill:#ff7f0e;stroke:#ff7f0e;" x="263.142761" xlink:href="#me9d69609f3" y="83.806533"/>
     <use style="fill:#ff7f0e;stroke:#ff7f0e;" x="267.518457" xlink:href="#me9d69609f3" y="91.658858"/>
     <use style="fill:#ff7f0e;stroke:#ff7f0e;" x="271.894154" xlink:href="#me9d69609f3" y="93.716797"/>
     <use style="fill:#ff7f0e;stroke:#ff7f0e;" x="276.26985" xlink:href="#me9d69609f3" y="90.936456"/>
     <use style="fill:#ff7f0e;stroke:#ff7f0e;" x="280.645546" xlink:href="#me9d69609f3" y="91.249806"/>
     <use style="fill:#ff7f0e;stroke:#ff7f0e;" x="285.021243" xlink:href="#me9d69609f3" y="95.805804"/>
     <use style="fill:#ff7f0e;stroke:#ff7f0e;" x="289.396939" xlink:href="#me9d69609f3" y="99.97221"/>
     <use style="fill:#ff7f0e;stroke:#ff7f0e;" x="293.772635" xlink:href="#me9d69609f3" y="100.968741"/>
     <use style="fill:#ff7f0e;stroke:#ff7f0e;" x="298.148331" xlink:href="#me9d69609f3" y="107.396726"/>
     <use style="fill:#ff7f0e;stroke:#ff7f0e;" x="302.524028" xlink:href="#me9d69609f3" y="110.027557"/>
     <use style="fill:#ff7f0e;stroke:#ff7f0e;" x="306.899724" xlink:href="#me9d69609f3" y="104.004419"/>
     <use style="fill:#ff7f0e;stroke:#ff7f0e;" x="311.27542" xlink:href="#me9d69609f3" y="108.210994"/>
     <use style="fill:#ff7f0e;stroke:#ff7f0e;" x="315.651116" xlink:href="#me9d69609f3" y="136.017314"/>
     <use style="fill:#ff7f0e;stroke:#ff7f0e;" x="320.026813" xlink:href="#me9d69609f3" y="179.167721"/>
     <use style="fill:#ff7f0e;stroke:#ff7f0e;" x="321.281468" xlink:href="#me9d69609f3" y="15875.1325"/>
    </g>
   </g>
   <g id="line2d_57">
    <path clip-path="url(#p95fe5dac66)" d="M 114.728622 221.474063 
L 118.744784 197.528778 
L 123.120481 187.900137 
L 127.496177 193.868138 
L 131.871873 167.779227 
L 136.247569 164.608237 
L 140.623266 149.680573 
L 144.998962 151.891205 
L 149.374658 148.147967 
L 153.750354 135.143087 
L 158.126051 132.441638 
L 162.501747 126.191601 
L 166.877443 116.109385 
L 171.253139 113.212745 
L 175.628836 107.575277 
L 180.004532 106.098744 
L 184.380228 103.622009 
L 188.755925 99.842444 
L 193.131621 96.752475 
L 197.507317 94.738337 
L 201.883013 94.375778 
L 206.25871 93.867254 
L 210.634406 91.115007 
L 215.010102 90.40872 
L 219.385798 89.387179 
L 223.761495 91.889191 
L 228.137191 91.658858 
L 232.512887 92.785417 
L 236.888584 92.881754 
L 241.26428 91.613059 
L 245.639976 91.842946 
L 250.015672 93.968092 
L 254.391369 96.923524 
L 258.767065 99.457347 
L 263.142761 101.938147 
L 267.518457 101.867576 
L 271.894154 102.438105 
L 276.26985 103.927443 
L 280.645546 107.665058 
L 285.021243 107.307952 
L 289.396939 107.307952 
L 293.772635 110.63133 
L 298.148331 115.854037 
L 302.524028 116.367509 
L 306.899724 118.970665 
L 311.27542 127.399343 
L 315.651116 136.924959 
L 320.026813 151.891205 
L 320.956059 163.627833 
" style="fill:none;stroke:#2ca02c;stroke-linecap:square;stroke-width:1.5;"/>
    <defs>
     <path d="M 0 3 
C 0.795609 3 1.55874 2.683901 2.12132 2.12132 
C 2.683901 1.55874 3 0.795609 3 0 
C 3 -0.795609 2.683901 -1.55874 2.12132 -2.12132 
C 1.55874 -2.683901 0.795609 -3 0 -3 
C -0.795609 -3 -1.55874 -2.683901 -2.12132 -2.12132 
C -2.683901 -1.55874 -3 -0.795609 -3 0 
C -3 0.795609 -2.683901 1.55874 -2.12132 2.12132 
C -1.55874 2.683901 -0.795609 3 0 3 
z
" id="m37760de960" style="stroke:#2ca02c;"/>
    </defs>
    <g clip-path="url(#p95fe5dac66)">
     <use style="fill:#2ca02c;stroke:#2ca02c;" x="99.99082" xlink:href="#m37760de960" y="15875.1325"/>
     <use style="fill:#2ca02c;stroke:#2ca02c;" x="101.241999" xlink:href="#m37760de960" y="240.077959"/>
     <use style="fill:#2ca02c;stroke:#2ca02c;" x="105.617695" xlink:href="#m37760de960" y="240.077959"/>
     <use style="fill:#2ca02c;stroke:#2ca02c;" x="106.868874" xlink:href="#m37760de960" y="15875.1325"/>
     <use style="fill:#2ca02c;stroke:#2ca02c;" x="113.116969" xlink:href="#m37760de960" y="15875.1325"/>
     <use style="fill:#2ca02c;stroke:#2ca02c;" x="114.369088" xlink:href="#m37760de960" y="223.617689"/>
     <use style="fill:#2ca02c;stroke:#2ca02c;" x="118.744784" xlink:href="#m37760de960" y="197.528778"/>
     <use style="fill:#2ca02c;stroke:#2ca02c;" x="123.120481" xlink:href="#m37760de960" y="187.900137"/>
     <use style="fill:#2ca02c;stroke:#2ca02c;" x="127.496177" xlink:href="#m37760de960" y="193.868138"/>
     <use style="fill:#2ca02c;stroke:#2ca02c;" x="131.871873" xlink:href="#m37760de960" y="167.779227"/>
     <use style="fill:#2ca02c;stroke:#2ca02c;" x="136.247569" xlink:href="#m37760de960" y="164.608237"/>
     <use style="fill:#2ca02c;stroke:#2ca02c;" x="140.623266" xlink:href="#m37760de960" y="149.680573"/>
     <use style="fill:#2ca02c;stroke:#2ca02c;" x="144.998962" xlink:href="#m37760de960" y="151.891205"/>
     <use style="fill:#2ca02c;stroke:#2ca02c;" x="149.374658" xlink:href="#m37760de960" y="148.147967"/>
     <use style="fill:#2ca02c;stroke:#2ca02c;" x="153.750354" xlink:href="#m37760de960" y="135.143087"/>
     <use style="fill:#2ca02c;stroke:#2ca02c;" x="158.126051" xlink:href="#m37760de960" y="132.441638"/>
     <use style="fill:#2ca02c;stroke:#2ca02c;" x="162.501747" xlink:href="#m37760de960" y="126.191601"/>
     <use style="fill:#2ca02c;stroke:#2ca02c;" x="166.877443" xlink:href="#m37760de960" y="116.109385"/>
     <use style="fill:#2ca02c;stroke:#2ca02c;" x="171.253139" xlink:href="#m37760de960" y="113.212745"/>
     <use style="fill:#2ca02c;stroke:#2ca02c;" x="175.628836" xlink:href="#m37760de960" y="107.575277"/>
     <use style="fill:#2ca02c;stroke:#2ca02c;" x="180.004532" xlink:href="#m37760de960" y="106.098744"/>
     <use style="fill:#2ca02c;stroke:#2ca02c;" x="184.380228" xlink:href="#m37760de960" y="103.622009"/>
     <use style="fill:#2ca02c;stroke:#2ca02c;" x="188.755925" xlink:href="#m37760de960" y="99.842444"/>
     <use style="fill:#2ca02c;stroke:#2ca02c;" x="193.131621" xlink:href="#m37760de960" y="96.752475"/>
     <use style="fill:#2ca02c;stroke:#2ca02c;" x="197.507317" xlink:href="#m37760de960" y="94.738337"/>
     <use style="fill:#2ca02c;stroke:#2ca02c;" x="201.883013" xlink:href="#m37760de960" y="94.375778"/>
     <use style="fill:#2ca02c;stroke:#2ca02c;" x="206.25871" xlink:href="#m37760de960" y="93.867254"/>
     <use style="fill:#2ca02c;stroke:#2ca02c;" x="210.634406" xlink:href="#m37760de960" y="91.115007"/>
     <use style="fill:#2ca02c;stroke:#2ca02c;" x="215.010102" xlink:href="#m37760de960" y="90.40872"/>
     <use style="fill:#2ca02c;stroke:#2ca02c;" x="219.385798" xlink:href="#m37760de960" y="89.387179"/>
     <use style="fill:#2ca02c;stroke:#2ca02c;" x="223.761495" xlink:href="#m37760de960" y="91.889191"/>
     <use style="fill:#2ca02c;stroke:#2ca02c;" x="228.137191" xlink:href="#m37760de960" y="91.658858"/>
     <use style="fill:#2ca02c;stroke:#2ca02c;" x="232.512887" xlink:href="#m37760de960" y="92.785417"/>
     <use style="fill:#2ca02c;stroke:#2ca02c;" x="236.888584" xlink:href="#m37760de960" y="92.881754"/>
     <use style="fill:#2ca02c;stroke:#2ca02c;" x="241.26428" xlink:href="#m37760de960" y="91.613059"/>
     <use style="fill:#2ca02c;stroke:#2ca02c;" x="245.639976" xlink:href="#m37760de960" y="91.842946"/>
     <use style="fill:#2ca02c;stroke:#2ca02c;" x="250.015672" xlink:href="#m37760de960" y="93.968092"/>
     <use style="fill:#2ca02c;stroke:#2ca02c;" x="254.391369" xlink:href="#m37760de960" y="96.923524"/>
     <use style="fill:#2ca02c;stroke:#2ca02c;" x="258.767065" xlink:href="#m37760de960" y="99.457347"/>
     <use style="fill:#2ca02c;stroke:#2ca02c;" x="263.142761" xlink:href="#m37760de960" y="101.938147"/>
     <use style="fill:#2ca02c;stroke:#2ca02c;" x="267.518457" xlink:href="#m37760de960" y="101.867576"/>
     <use style="fill:#2ca02c;stroke:#2ca02c;" x="271.894154" xlink:href="#m37760de960" y="102.438105"/>
     <use style="fill:#2ca02c;stroke:#2ca02c;" x="276.26985" xlink:href="#m37760de960" y="103.927443"/>
     <use style="fill:#2ca02c;stroke:#2ca02c;" x="280.645546" xlink:href="#m37760de960" y="107.665058"/>
     <use style="fill:#2ca02c;stroke:#2ca02c;" x="285.021243" xlink:href="#m37760de960" y="107.307952"/>
     <use style="fill:#2ca02c;stroke:#2ca02c;" x="289.396939" xlink:href="#m37760de960" y="107.307952"/>
     <use style="fill:#2ca02c;stroke:#2ca02c;" x="293.772635" xlink:href="#m37760de960" y="110.63133"/>
     <use style="fill:#2ca02c;stroke:#2ca02c;" x="298.148331" xlink:href="#m37760de960" y="115.854037"/>
     <use style="fill:#2ca02c;stroke:#2ca02c;" x="302.524028" xlink:href="#m37760de960" y="116.367509"/>
     <use style="fill:#2ca02c;stroke:#2ca02c;" x="306.899724" xlink:href="#m37760de960" y="118.970665"/>
     <use style="fill:#2ca02c;stroke:#2ca02c;" x="311.27542" xlink:href="#m37760de960" y="127.399343"/>
     <use style="fill:#2ca02c;stroke:#2ca02c;" x="315.651116" xlink:href="#m37760de960" y="136.924959"/>
     <use style="fill:#2ca02c;stroke:#2ca02c;" x="320.026813" xlink:href="#m37760de960" y="151.891205"/>
     <use style="fill:#2ca02c;stroke:#2ca02c;" x="324.402509" xlink:href="#m37760de960" y="207.157419"/>
    </g>
   </g>
   <g id="patch_3">
    <path d="M 53.328125 185.398125 
L 53.328125 22.318125 
" style="fill:none;stroke:#000000;stroke-linecap:square;stroke-linejoin:miter;stroke-width:0.8;"/>
   </g>
   <g id="patch_4">
    <path d="M 304.428125 185.398125 
L 304.428125 22.318125 
" style="fill:none;stroke:#000000;stroke-linecap:square;stroke-linejoin:miter;stroke-width:0.8;"/>
   </g>
   <g id="patch_5">
    <path d="M 53.328125 185.398125 
L 304.428125 185.398125 
" style="fill:none;stroke:#000000;stroke-linecap:square;stroke-linejoin:miter;stroke-width:0.8;"/>
   </g>
   <g id="patch_6">
    <path d="M 53.328125 22.318125 
L 304.428125 22.318125 
" style="fill:none;stroke:#000000;stroke-linecap:square;stroke-linejoin:miter;stroke-width:0.8;"/>
   </g>
   <g id="text_20">
    <!-- COVID-19 in NYC -->
    <defs>
     <path d="M 64.40625 67.28125 
L 64.40625 56.890625 
Q 59.421875 61.53125 53.78125 63.8125 
Q 48.140625 66.109375 41.796875 66.109375 
Q 29.296875 66.109375 22.65625 58.46875 
Q 16.015625 50.828125 16.015625 36.375 
Q 16.015625 21.96875 22.65625 14.328125 
Q 29.296875 6.6875 41.796875 6.6875 
Q 48.140625 6.6875 53.78125 8.984375 
Q 59.421875 11.28125 64.40625 15.921875 
L 64.40625 5.609375 
Q 59.234375 2.09375 53.4375 0.328125 
Q 47.65625 -1.421875 41.21875 -1.421875 
Q 24.65625 -1.421875 15.125 8.703125 
Q 5.609375 18.84375 5.609375 36.375 
Q 5.609375 53.953125 15.125 64.078125 
Q 24.65625 74.21875 41.21875 74.21875 
Q 47.75 74.21875 53.53125 72.484375 
Q 59.328125 70.75 64.40625 67.28125 
z
" id="DejaVuSans-67"/>
     <path d="M 39.40625 66.21875 
Q 28.65625 66.21875 22.328125 58.203125 
Q 16.015625 50.203125 16.015625 36.375 
Q 16.015625 22.609375 22.328125 14.59375 
Q 28.65625 6.59375 39.40625 6.59375 
Q 50.140625 6.59375 56.421875 14.59375 
Q 62.703125 22.609375 62.703125 36.375 
Q 62.703125 50.203125 56.421875 58.203125 
Q 50.140625 66.21875 39.40625 66.21875 
z
M 39.40625 74.21875 
Q 54.734375 74.21875 63.90625 63.9375 
Q 73.09375 53.65625 73.09375 36.375 
Q 73.09375 19.140625 63.90625 8.859375 
Q 54.734375 -1.421875 39.40625 -1.421875 
Q 24.03125 -1.421875 14.8125 8.828125 
Q 5.609375 19.09375 5.609375 36.375 
Q 5.609375 53.65625 14.8125 63.9375 
Q 24.03125 74.21875 39.40625 74.21875 
z
" id="DejaVuSans-79"/>
     <path d="M 28.609375 0 
L 0.78125 72.90625 
L 11.078125 72.90625 
L 34.1875 11.53125 
L 57.328125 72.90625 
L 67.578125 72.90625 
L 39.796875 0 
z
" id="DejaVuSans-86"/>
     <path d="M 9.8125 72.90625 
L 19.671875 72.90625 
L 19.671875 0 
L 9.8125 0 
z
" id="DejaVuSans-73"/>
     <path d="M 4.890625 31.390625 
L 31.203125 31.390625 
L 31.203125 23.390625 
L 4.890625 23.390625 
z
" id="DejaVuSans-45"/>
     <path d="M 9.8125 72.90625 
L 23.09375 72.90625 
L 55.421875 11.921875 
L 55.421875 72.90625 
L 64.984375 72.90625 
L 64.984375 0 
L 51.703125 0 
L 19.390625 60.984375 
L 19.390625 0 
L 9.8125 0 
z
" id="DejaVuSans-78"/>
     <path d="M -0.203125 72.90625 
L 10.40625 72.90625 
L 30.609375 42.921875 
L 50.6875 72.90625 
L 61.28125 72.90625 
L 35.5 34.71875 
L 35.5 0 
L 25.59375 0 
L 25.59375 34.71875 
z
" id="DejaVuSans-89"/>
    </defs>
    <g transform="translate(128.050625 16.318125)scale(0.12 -0.12)">
     <use xlink:href="#DejaVuSans-67"/>
     <use x="69.824219" xlink:href="#DejaVuSans-79"/>
     <use x="148.519531" xlink:href="#DejaVuSans-86"/>
     <use x="216.927734" xlink:href="#DejaVuSans-73"/>
     <use x="246.419922" xlink:href="#DejaVuSans-68"/>
     <use x="323.421875" xlink:href="#DejaVuSans-45"/>
     <use x="359.505859" xlink:href="#DejaVuSans-49"/>
     <use x="423.128906" xlink:href="#DejaVuSans-57"/>
     <use x="486.751953" xlink:href="#DejaVuSans-32"/>
     <use x="518.539062" xlink:href="#DejaVuSans-105"/>
     <use x="546.322266" xlink:href="#DejaVuSans-110"/>
     <use x="609.701172" xlink:href="#DejaVuSans-32"/>
     <use x="641.488281" xlink:href="#DejaVuSans-78"/>
     <use x="716.292969" xlink:href="#DejaVuSans-89"/>
     <use x="777.298828" xlink:href="#DejaVuSans-67"/>
    </g>
   </g>
   <g id="legend_1">
    <g id="patch_7">
     <path d="M 186.107813 180.398125 
L 297.428125 180.398125 
Q 299.428125 180.398125 299.428125 178.398125 
L 299.428125 135.36375 
Q 299.428125 133.36375 297.428125 133.36375 
L 186.107813 133.36375 
Q 184.107813 133.36375 184.107813 135.36375 
L 184.107813 178.398125 
Q 184.107813 180.398125 186.107813 180.398125 
z
" style="fill:#ffffff;opacity:0.8;stroke:#cccccc;stroke-linejoin:miter;"/>
    </g>
    <g id="line2d_58">
     <path d="M 188.107813 141.462187 
L 208.107813 141.462187 
" style="fill:none;stroke:#1f77b4;stroke-linecap:square;stroke-width:1.5;"/>
    </g>
    <g id="line2d_59">
     <g>
      <use style="fill:#1f77b4;stroke:#1f77b4;" x="198.107813" xlink:href="#me4a5408dc2" y="141.462187"/>
     </g>
    </g>
    <g id="text_21">
     <!-- Cases -->
     <g transform="translate(216.107813 144.962187)scale(0.1 -0.1)">
      <use xlink:href="#DejaVuSans-67"/>
      <use x="69.824219" xlink:href="#DejaVuSans-97"/>
      <use x="131.103516" xlink:href="#DejaVuSans-115"/>
      <use x="183.203125" xlink:href="#DejaVuSans-101"/>
      <use x="244.726562" xlink:href="#DejaVuSans-115"/>
     </g>
    </g>
    <g id="line2d_60">
     <path d="M 188.107813 156.140312 
L 208.107813 156.140312 
" style="fill:none;stroke:#ff7f0e;stroke-linecap:square;stroke-width:1.5;"/>
    </g>
    <g id="line2d_61">
     <g>
      <use style="fill:#ff7f0e;stroke:#ff7f0e;" x="198.107813" xlink:href="#me9d69609f3" y="156.140312"/>
     </g>
    </g>
    <g id="text_22">
     <!-- Hospitalizations -->
     <defs>
      <path d="M 9.8125 72.90625 
L 19.671875 72.90625 
L 19.671875 43.015625 
L 55.515625 43.015625 
L 55.515625 72.90625 
L 65.375 72.90625 
L 65.375 0 
L 55.515625 0 
L 55.515625 34.71875 
L 19.671875 34.71875 
L 19.671875 0 
L 9.8125 0 
z
" id="DejaVuSans-72"/>
      <path d="M 5.515625 54.6875 
L 48.1875 54.6875 
L 48.1875 46.484375 
L 14.40625 7.171875 
L 48.1875 7.171875 
L 48.1875 0 
L 4.296875 0 
L 4.296875 8.203125 
L 38.09375 47.515625 
L 5.515625 47.515625 
z
" id="DejaVuSans-122"/>
     </defs>
     <g transform="translate(216.107813 159.640312)scale(0.1 -0.1)">
      <use xlink:href="#DejaVuSans-72"/>
      <use x="75.195312" xlink:href="#DejaVuSans-111"/>
      <use x="136.376953" xlink:href="#DejaVuSans-115"/>
      <use x="188.476562" xlink:href="#DejaVuSans-112"/>
      <use x="251.953125" xlink:href="#DejaVuSans-105"/>
      <use x="279.736328" xlink:href="#DejaVuSans-116"/>
      <use x="318.945312" xlink:href="#DejaVuSans-97"/>
      <use x="380.224609" xlink:href="#DejaVuSans-108"/>
      <use x="408.007812" xlink:href="#DejaVuSans-105"/>
      <use x="435.791016" xlink:href="#DejaVuSans-122"/>
      <use x="488.28125" xlink:href="#DejaVuSans-97"/>
      <use x="549.560547" xlink:href="#DejaVuSans-116"/>
      <use x="588.769531" xlink:href="#DejaVuSans-105"/>
      <use x="616.552734" xlink:href="#DejaVuSans-111"/>
      <use x="677.734375" xlink:href="#DejaVuSans-110"/>
      <use x="741.113281" xlink:href="#DejaVuSans-115"/>
     </g>
    </g>
    <g id="line2d_62">
     <path d="M 188.107813 170.818438 
L 208.107813 170.818438 
" style="fill:none;stroke:#2ca02c;stroke-linecap:square;stroke-width:1.5;"/>
    </g>
    <g id="line2d_63">
     <g>
      <use style="fill:#2ca02c;stroke:#2ca02c;" x="198.107813" xlink:href="#m37760de960" y="170.818438"/>
     </g>
    </g>
    <g id="text_23">
     <!-- Deaths -->
     <defs>
      <path d="M 54.890625 33.015625 
L 54.890625 0 
L 45.90625 0 
L 45.90625 32.71875 
Q 45.90625 40.484375 42.875 44.328125 
Q 39.84375 48.1875 33.796875 48.1875 
Q 26.515625 48.1875 22.3125 43.546875 
Q 18.109375 38.921875 18.109375 30.90625 
L 18.109375 0 
L 9.078125 0 
L 9.078125 75.984375 
L 18.109375 75.984375 
L 18.109375 46.1875 
Q 21.34375 51.125 25.703125 53.5625 
Q 30.078125 56 35.796875 56 
Q 45.21875 56 50.046875 50.171875 
Q 54.890625 44.34375 54.890625 33.015625 
z
" id="DejaVuSans-104"/>
     </defs>
     <g transform="translate(216.107813 174.318438)scale(0.1 -0.1)">
      <use xlink:href="#DejaVuSans-68"/>
      <use x="77.001953" xlink:href="#DejaVuSans-101"/>
      <use x="138.525391" xlink:href="#DejaVuSans-97"/>
      <use x="199.804688" xlink:href="#DejaVuSans-116"/>
      <use x="239.013672" xlink:href="#DejaVuSans-104"/>
      <use x="302.392578" xlink:href="#DejaVuSans-115"/>
     </g>
    </g>
   </g>
  </g>
 </g>
 <defs>
  <clipPath id="p95fe5dac66">
   <rect height="163.08" width="251.1" x="53.328125" y="22.318125"/>
  </clipPath>
 </defs>
</svg>
