<?xml version="1.0" encoding="utf-8" standalone="no"?>
<!DOCTYPE svg PUBLIC "-//W3C//DTD SVG 1.1//EN"
  "http://www.w3.org/Graphics/SVG/1.1/DTD/svg11.dtd">
<!-- Created with matplotlib (https://matplotlib.org/) -->
<svg height="220.474063pt" version="1.1" viewBox="0 0 314.528017 220.474063" width="314.528017pt" xmlns="http://www.w3.org/2000/svg" xmlns:xlink="http://www.w3.org/1999/xlink">
 <defs>
  <style type="text/css">
*{stroke-linecap:butt;stroke-linejoin:round;}
  </style>
 </defs>
 <g id="figure_1">
  <g id="patch_1">
   <path d="M 0 220.474063 
L 314.528017 220.474063 
L 314.528017 0 
L 0 0 
z
" style="fill:#ffffff;"/>
  </g>
  <g id="axes_1">
   <g id="patch_2">
    <path d="M 53.328125 185.398125 
L 304.428125 185.398125 
L 304.428125 22.318125 
L 53.328125 22.318125 
z
" style="fill:#ffffff;"/>
   </g>
   <g id="matplotlib.axis_1">
    <g id="xtick_1">
     <g id="line2d_1">
      <path clip-path="url(#pce643575ca)" d="M 69.316345 185.398125 
L 69.316345 22.318125 
" style="fill:none;stroke:#b0b0b0;stroke-linecap:square;stroke-opacity:0.6;stroke-width:0.8;"/>
     </g>
     <g id="line2d_2">
      <defs>
       <path d="M 0 0 
L 0 3.5 
" id="meb2bc2141e" style="stroke:#000000;stroke-width:0.8;"/>
      </defs>
      <g>
       <use style="stroke:#000000;stroke-width:0.8;" x="69.316345" xlink:href="#meb2bc2141e" y="185.398125"/>
      </g>
     </g>
     <g id="text_1">
      <!-- Mar. -->
      <defs>
       <path d="M 9.8125 72.90625 
L 24.515625 72.90625 
L 43.109375 23.296875 
L 61.8125 72.90625 
L 76.515625 72.90625 
L 76.515625 0 
L 66.890625 0 
L 66.890625 64.015625 
L 48.09375 14.015625 
L 38.1875 14.015625 
L 19.390625 64.015625 
L 19.390625 0 
L 9.8125 0 
z
" id="DejaVuSans-77"/>
       <path d="M 34.28125 27.484375 
Q 23.390625 27.484375 19.1875 25 
Q 14.984375 22.515625 14.984375 16.5 
Q 14.984375 11.71875 18.140625 8.90625 
Q 21.296875 6.109375 26.703125 6.109375 
Q 34.1875 6.109375 38.703125 11.40625 
Q 43.21875 16.703125 43.21875 25.484375 
L 43.21875 27.484375 
z
M 52.203125 31.203125 
L 52.203125 0 
L 43.21875 0 
L 43.21875 8.296875 
Q 40.140625 3.328125 35.546875 0.953125 
Q 30.953125 -1.421875 24.3125 -1.421875 
Q 15.921875 -1.421875 10.953125 3.296875 
Q 6 8.015625 6 15.921875 
Q 6 25.140625 12.171875 29.828125 
Q 18.359375 34.515625 30.609375 34.515625 
L 43.21875 34.515625 
L 43.21875 35.40625 
Q 43.21875 41.609375 39.140625 45 
Q 35.0625 48.390625 27.6875 48.390625 
Q 23 48.390625 18.546875 47.265625 
Q 14.109375 46.140625 10.015625 43.890625 
L 10.015625 52.203125 
Q 14.9375 54.109375 19.578125 55.046875 
Q 24.21875 56 28.609375 56 
Q 40.484375 56 46.34375 49.84375 
Q 52.203125 43.703125 52.203125 31.203125 
z
" id="DejaVuSans-97"/>
       <path d="M 41.109375 46.296875 
Q 39.59375 47.171875 37.8125 47.578125 
Q 36.03125 48 33.890625 48 
Q 26.265625 48 22.1875 43.046875 
Q 18.109375 38.09375 18.109375 28.8125 
L 18.109375 0 
L 9.078125 0 
L 9.078125 54.6875 
L 18.109375 54.6875 
L 18.109375 46.1875 
Q 20.953125 51.171875 25.484375 53.578125 
Q 30.03125 56 36.53125 56 
Q 37.453125 56 38.578125 55.875 
Q 39.703125 55.765625 41.0625 55.515625 
z
" id="DejaVuSans-114"/>
       <path d="M 10.6875 12.40625 
L 21 12.40625 
L 21 0 
L 10.6875 0 
z
" id="DejaVuSans-46"/>
      </defs>
      <g transform="translate(58.30072 199.996563)scale(0.1 -0.1)">
       <use xlink:href="#DejaVuSans-77"/>
       <use x="86.279297" xlink:href="#DejaVuSans-97"/>
       <use x="147.558594" xlink:href="#DejaVuSans-114"/>
       <use x="188.53125" xlink:href="#DejaVuSans-46"/>
      </g>
      <!-- 01 -->
      <defs>
       <path d="M 31.78125 66.40625 
Q 24.171875 66.40625 20.328125 58.90625 
Q 16.5 51.421875 16.5 36.375 
Q 16.5 21.390625 20.328125 13.890625 
Q 24.171875 6.390625 31.78125 6.390625 
Q 39.453125 6.390625 43.28125 13.890625 
Q 47.125 21.390625 47.125 36.375 
Q 47.125 51.421875 43.28125 58.90625 
Q 39.453125 66.40625 31.78125 66.40625 
z
M 31.78125 74.21875 
Q 44.046875 74.21875 50.515625 64.515625 
Q 56.984375 54.828125 56.984375 36.375 
Q 56.984375 17.96875 50.515625 8.265625 
Q 44.046875 -1.421875 31.78125 -1.421875 
Q 19.53125 -1.421875 13.0625 8.265625 
Q 6.59375 17.96875 6.59375 36.375 
Q 6.59375 54.828125 13.0625 64.515625 
Q 19.53125 74.21875 31.78125 74.21875 
z
" id="DejaVuSans-48"/>
       <path d="M 12.40625 8.296875 
L 28.515625 8.296875 
L 28.515625 63.921875 
L 10.984375 60.40625 
L 10.984375 69.390625 
L 28.421875 72.90625 
L 38.28125 72.90625 
L 38.28125 8.296875 
L 54.390625 8.296875 
L 54.390625 0 
L 12.40625 0 
z
" id="DejaVuSans-49"/>
      </defs>
      <g transform="translate(62.953845 211.194375)scale(0.1 -0.1)">
       <use xlink:href="#DejaVuSans-48"/>
       <use x="63.623047" xlink:href="#DejaVuSans-49"/>
      </g>
     </g>
    </g>
    <g id="xtick_2">
     <g id="line2d_3">
      <path clip-path="url(#pce643575ca)" d="M 91.92595 185.398125 
L 91.92595 22.318125 
" style="fill:none;stroke:#b0b0b0;stroke-linecap:square;stroke-opacity:0.6;stroke-width:0.8;"/>
     </g>
     <g id="line2d_4">
      <g>
       <use style="stroke:#000000;stroke-width:0.8;" x="91.92595" xlink:href="#meb2bc2141e" y="185.398125"/>
      </g>
     </g>
     <g id="text_2">
      <!-- Mar. -->
      <g transform="translate(80.910325 199.996563)scale(0.1 -0.1)">
       <use xlink:href="#DejaVuSans-77"/>
       <use x="86.279297" xlink:href="#DejaVuSans-97"/>
       <use x="147.558594" xlink:href="#DejaVuSans-114"/>
       <use x="188.53125" xlink:href="#DejaVuSans-46"/>
      </g>
      <!-- 08 -->
      <defs>
       <path d="M 31.78125 34.625 
Q 24.75 34.625 20.71875 30.859375 
Q 16.703125 27.09375 16.703125 20.515625 
Q 16.703125 13.921875 20.71875 10.15625 
Q 24.75 6.390625 31.78125 6.390625 
Q 38.8125 6.390625 42.859375 10.171875 
Q 46.921875 13.96875 46.921875 20.515625 
Q 46.921875 27.09375 42.890625 30.859375 
Q 38.875 34.625 31.78125 34.625 
z
M 21.921875 38.8125 
Q 15.578125 40.375 12.03125 44.71875 
Q 8.5 49.078125 8.5 55.328125 
Q 8.5 64.0625 14.71875 69.140625 
Q 20.953125 74.21875 31.78125 74.21875 
Q 42.671875 74.21875 48.875 69.140625 
Q 55.078125 64.0625 55.078125 55.328125 
Q 55.078125 49.078125 51.53125 44.71875 
Q 48 40.375 41.703125 38.8125 
Q 48.828125 37.15625 52.796875 32.3125 
Q 56.78125 27.484375 56.78125 20.515625 
Q 56.78125 9.90625 50.3125 4.234375 
Q 43.84375 -1.421875 31.78125 -1.421875 
Q 19.734375 -1.421875 13.25 4.234375 
Q 6.78125 9.90625 6.78125 20.515625 
Q 6.78125 27.484375 10.78125 32.3125 
Q 14.796875 37.15625 21.921875 38.8125 
z
M 18.3125 54.390625 
Q 18.3125 48.734375 21.84375 45.5625 
Q 25.390625 42.390625 31.78125 42.390625 
Q 38.140625 42.390625 41.71875 45.5625 
Q 45.3125 48.734375 45.3125 54.390625 
Q 45.3125 60.0625 41.71875 63.234375 
Q 38.140625 66.40625 31.78125 66.40625 
Q 25.390625 66.40625 21.84375 63.234375 
Q 18.3125 60.0625 18.3125 54.390625 
z
" id="DejaVuSans-56"/>
      </defs>
      <g transform="translate(85.56345 211.194375)scale(0.1 -0.1)">
       <use xlink:href="#DejaVuSans-48"/>
       <use x="63.623047" xlink:href="#DejaVuSans-56"/>
      </g>
     </g>
    </g>
    <g id="xtick_3">
     <g id="line2d_5">
      <path clip-path="url(#pce643575ca)" d="M 114.535555 185.398125 
L 114.535555 22.318125 
" style="fill:none;stroke:#b0b0b0;stroke-linecap:square;stroke-opacity:0.6;stroke-width:0.8;"/>
     </g>
     <g id="line2d_6">
      <g>
       <use style="stroke:#000000;stroke-width:0.8;" x="114.535555" xlink:href="#meb2bc2141e" y="185.398125"/>
      </g>
     </g>
     <g id="text_3">
      <!-- Mar. -->
      <g transform="translate(103.51993 199.996563)scale(0.1 -0.1)">
       <use xlink:href="#DejaVuSans-77"/>
       <use x="86.279297" xlink:href="#DejaVuSans-97"/>
       <use x="147.558594" xlink:href="#DejaVuSans-114"/>
       <use x="188.53125" xlink:href="#DejaVuSans-46"/>
      </g>
      <!-- 15 -->
      <defs>
       <path d="M 10.796875 72.90625 
L 49.515625 72.90625 
L 49.515625 64.59375 
L 19.828125 64.59375 
L 19.828125 46.734375 
Q 21.96875 47.46875 24.109375 47.828125 
Q 26.265625 48.1875 28.421875 48.1875 
Q 40.625 48.1875 47.75 41.5 
Q 54.890625 34.8125 54.890625 23.390625 
Q 54.890625 11.625 47.5625 5.09375 
Q 40.234375 -1.421875 26.90625 -1.421875 
Q 22.3125 -1.421875 17.546875 -0.640625 
Q 12.796875 0.140625 7.71875 1.703125 
L 7.71875 11.625 
Q 12.109375 9.234375 16.796875 8.0625 
Q 21.484375 6.890625 26.703125 6.890625 
Q 35.15625 6.890625 40.078125 11.328125 
Q 45.015625 15.765625 45.015625 23.390625 
Q 45.015625 31 40.078125 35.4375 
Q 35.15625 39.890625 26.703125 39.890625 
Q 22.75 39.890625 18.8125 39.015625 
Q 14.890625 38.140625 10.796875 36.28125 
z
" id="DejaVuSans-53"/>
      </defs>
      <g transform="translate(108.173055 211.194375)scale(0.1 -0.1)">
       <use xlink:href="#DejaVuSans-49"/>
       <use x="63.623047" xlink:href="#DejaVuSans-53"/>
      </g>
     </g>
    </g>
    <g id="xtick_4">
     <g id="line2d_7">
      <path clip-path="url(#pce643575ca)" d="M 137.14516 185.398125 
L 137.14516 22.318125 
" style="fill:none;stroke:#b0b0b0;stroke-linecap:square;stroke-opacity:0.6;stroke-width:0.8;"/>
     </g>
     <g id="line2d_8">
      <g>
       <use style="stroke:#000000;stroke-width:0.8;" x="137.14516" xlink:href="#meb2bc2141e" y="185.398125"/>
      </g>
     </g>
     <g id="text_4">
      <!-- Mar. -->
      <g transform="translate(126.129535 199.996563)scale(0.1 -0.1)">
       <use xlink:href="#DejaVuSans-77"/>
       <use x="86.279297" xlink:href="#DejaVuSans-97"/>
       <use x="147.558594" xlink:href="#DejaVuSans-114"/>
       <use x="188.53125" xlink:href="#DejaVuSans-46"/>
      </g>
      <!-- 22 -->
      <defs>
       <path d="M 19.1875 8.296875 
L 53.609375 8.296875 
L 53.609375 0 
L 7.328125 0 
L 7.328125 8.296875 
Q 12.9375 14.109375 22.625 23.890625 
Q 32.328125 33.6875 34.8125 36.53125 
Q 39.546875 41.84375 41.421875 45.53125 
Q 43.3125 49.21875 43.3125 52.78125 
Q 43.3125 58.59375 39.234375 62.25 
Q 35.15625 65.921875 28.609375 65.921875 
Q 23.96875 65.921875 18.8125 64.3125 
Q 13.671875 62.703125 7.8125 59.421875 
L 7.8125 69.390625 
Q 13.765625 71.78125 18.9375 73 
Q 24.125 74.21875 28.421875 74.21875 
Q 39.75 74.21875 46.484375 68.546875 
Q 53.21875 62.890625 53.21875 53.421875 
Q 53.21875 48.921875 51.53125 44.890625 
Q 49.859375 40.875 45.40625 35.40625 
Q 44.1875 33.984375 37.640625 27.21875 
Q 31.109375 20.453125 19.1875 8.296875 
z
" id="DejaVuSans-50"/>
      </defs>
      <g transform="translate(130.78266 211.194375)scale(0.1 -0.1)">
       <use xlink:href="#DejaVuSans-50"/>
       <use x="63.623047" xlink:href="#DejaVuSans-50"/>
      </g>
     </g>
    </g>
    <g id="xtick_5">
     <g id="line2d_9">
      <path clip-path="url(#pce643575ca)" d="M 159.754764 185.398125 
L 159.754764 22.318125 
" style="fill:none;stroke:#b0b0b0;stroke-linecap:square;stroke-opacity:0.6;stroke-width:0.8;"/>
     </g>
     <g id="line2d_10">
      <g>
       <use style="stroke:#000000;stroke-width:0.8;" x="159.754764" xlink:href="#meb2bc2141e" y="185.398125"/>
      </g>
     </g>
     <g id="text_5">
      <!-- Mar. -->
      <g transform="translate(148.739139 199.996563)scale(0.1 -0.1)">
       <use xlink:href="#DejaVuSans-77"/>
       <use x="86.279297" xlink:href="#DejaVuSans-97"/>
       <use x="147.558594" xlink:href="#DejaVuSans-114"/>
       <use x="188.53125" xlink:href="#DejaVuSans-46"/>
      </g>
      <!-- 29 -->
      <defs>
       <path d="M 10.984375 1.515625 
L 10.984375 10.5 
Q 14.703125 8.734375 18.5 7.8125 
Q 22.3125 6.890625 25.984375 6.890625 
Q 35.75 6.890625 40.890625 13.453125 
Q 46.046875 20.015625 46.78125 33.40625 
Q 43.953125 29.203125 39.59375 26.953125 
Q 35.25 24.703125 29.984375 24.703125 
Q 19.046875 24.703125 12.671875 31.3125 
Q 6.296875 37.9375 6.296875 49.421875 
Q 6.296875 60.640625 12.9375 67.421875 
Q 19.578125 74.21875 30.609375 74.21875 
Q 43.265625 74.21875 49.921875 64.515625 
Q 56.59375 54.828125 56.59375 36.375 
Q 56.59375 19.140625 48.40625 8.859375 
Q 40.234375 -1.421875 26.421875 -1.421875 
Q 22.703125 -1.421875 18.890625 -0.6875 
Q 15.09375 0.046875 10.984375 1.515625 
z
M 30.609375 32.421875 
Q 37.25 32.421875 41.125 36.953125 
Q 45.015625 41.5 45.015625 49.421875 
Q 45.015625 57.28125 41.125 61.84375 
Q 37.25 66.40625 30.609375 66.40625 
Q 23.96875 66.40625 20.09375 61.84375 
Q 16.21875 57.28125 16.21875 49.421875 
Q 16.21875 41.5 20.09375 36.953125 
Q 23.96875 32.421875 30.609375 32.421875 
z
" id="DejaVuSans-57"/>
      </defs>
      <g transform="translate(153.392264 211.194375)scale(0.1 -0.1)">
       <use xlink:href="#DejaVuSans-50"/>
       <use x="63.623047" xlink:href="#DejaVuSans-57"/>
      </g>
     </g>
    </g>
    <g id="xtick_6">
     <g id="line2d_11">
      <path clip-path="url(#pce643575ca)" d="M 182.364369 185.398125 
L 182.364369 22.318125 
" style="fill:none;stroke:#b0b0b0;stroke-linecap:square;stroke-opacity:0.6;stroke-width:0.8;"/>
     </g>
     <g id="line2d_12">
      <g>
       <use style="stroke:#000000;stroke-width:0.8;" x="182.364369" xlink:href="#meb2bc2141e" y="185.398125"/>
      </g>
     </g>
     <g id="text_6">
      <!-- Apr. -->
      <defs>
       <path d="M 34.1875 63.1875 
L 20.796875 26.90625 
L 47.609375 26.90625 
z
M 28.609375 72.90625 
L 39.796875 72.90625 
L 67.578125 0 
L 57.328125 0 
L 50.6875 18.703125 
L 17.828125 18.703125 
L 11.1875 0 
L 0.78125 0 
z
" id="DejaVuSans-65"/>
       <path d="M 18.109375 8.203125 
L 18.109375 -20.796875 
L 9.078125 -20.796875 
L 9.078125 54.6875 
L 18.109375 54.6875 
L 18.109375 46.390625 
Q 20.953125 51.265625 25.265625 53.625 
Q 29.59375 56 35.59375 56 
Q 45.5625 56 51.78125 48.09375 
Q 58.015625 40.1875 58.015625 27.296875 
Q 58.015625 14.40625 51.78125 6.484375 
Q 45.5625 -1.421875 35.59375 -1.421875 
Q 29.59375 -1.421875 25.265625 0.953125 
Q 20.953125 3.328125 18.109375 8.203125 
z
M 48.6875 27.296875 
Q 48.6875 37.203125 44.609375 42.84375 
Q 40.53125 48.484375 33.40625 48.484375 
Q 26.265625 48.484375 22.1875 42.84375 
Q 18.109375 37.203125 18.109375 27.296875 
Q 18.109375 17.390625 22.1875 11.75 
Q 26.265625 6.109375 33.40625 6.109375 
Q 40.53125 6.109375 44.609375 11.75 
Q 48.6875 17.390625 48.6875 27.296875 
z
" id="DejaVuSans-112"/>
      </defs>
      <g transform="translate(172.132338 199.996563)scale(0.1 -0.1)">
       <use xlink:href="#DejaVuSans-65"/>
       <use x="68.408203" xlink:href="#DejaVuSans-112"/>
       <use x="131.884766" xlink:href="#DejaVuSans-114"/>
       <use x="172.857422" xlink:href="#DejaVuSans-46"/>
      </g>
      <!-- 05 -->
      <g transform="translate(176.001869 211.194375)scale(0.1 -0.1)">
       <use xlink:href="#DejaVuSans-48"/>
       <use x="63.623047" xlink:href="#DejaVuSans-53"/>
      </g>
     </g>
    </g>
    <g id="xtick_7">
     <g id="line2d_13">
      <path clip-path="url(#pce643575ca)" d="M 204.973974 185.398125 
L 204.973974 22.318125 
" style="fill:none;stroke:#b0b0b0;stroke-linecap:square;stroke-opacity:0.6;stroke-width:0.8;"/>
     </g>
     <g id="line2d_14">
      <g>
       <use style="stroke:#000000;stroke-width:0.8;" x="204.973974" xlink:href="#meb2bc2141e" y="185.398125"/>
      </g>
     </g>
     <g id="text_7">
      <!-- Apr. -->
      <g transform="translate(194.741942 199.996563)scale(0.1 -0.1)">
       <use xlink:href="#DejaVuSans-65"/>
       <use x="68.408203" xlink:href="#DejaVuSans-112"/>
       <use x="131.884766" xlink:href="#DejaVuSans-114"/>
       <use x="172.857422" xlink:href="#DejaVuSans-46"/>
      </g>
      <!-- 12 -->
      <g transform="translate(198.611474 211.194375)scale(0.1 -0.1)">
       <use xlink:href="#DejaVuSans-49"/>
       <use x="63.623047" xlink:href="#DejaVuSans-50"/>
      </g>
     </g>
    </g>
    <g id="xtick_8">
     <g id="line2d_15">
      <path clip-path="url(#pce643575ca)" d="M 227.583578 185.398125 
L 227.583578 22.318125 
" style="fill:none;stroke:#b0b0b0;stroke-linecap:square;stroke-opacity:0.6;stroke-width:0.8;"/>
     </g>
     <g id="line2d_16">
      <g>
       <use style="stroke:#000000;stroke-width:0.8;" x="227.583578" xlink:href="#meb2bc2141e" y="185.398125"/>
      </g>
     </g>
     <g id="text_8">
      <!-- Apr. -->
      <g transform="translate(217.351547 199.996563)scale(0.1 -0.1)">
       <use xlink:href="#DejaVuSans-65"/>
       <use x="68.408203" xlink:href="#DejaVuSans-112"/>
       <use x="131.884766" xlink:href="#DejaVuSans-114"/>
       <use x="172.857422" xlink:href="#DejaVuSans-46"/>
      </g>
      <!-- 19 -->
      <g transform="translate(221.221078 211.194375)scale(0.1 -0.1)">
       <use xlink:href="#DejaVuSans-49"/>
       <use x="63.623047" xlink:href="#DejaVuSans-57"/>
      </g>
     </g>
    </g>
    <g id="xtick_9">
     <g id="line2d_17">
      <path clip-path="url(#pce643575ca)" d="M 250.193183 185.398125 
L 250.193183 22.318125 
" style="fill:none;stroke:#b0b0b0;stroke-linecap:square;stroke-opacity:0.6;stroke-width:0.8;"/>
     </g>
     <g id="line2d_18">
      <g>
       <use style="stroke:#000000;stroke-width:0.8;" x="250.193183" xlink:href="#meb2bc2141e" y="185.398125"/>
      </g>
     </g>
     <g id="text_9">
      <!-- Apr. -->
      <g transform="translate(239.961152 199.996563)scale(0.1 -0.1)">
       <use xlink:href="#DejaVuSans-65"/>
       <use x="68.408203" xlink:href="#DejaVuSans-112"/>
       <use x="131.884766" xlink:href="#DejaVuSans-114"/>
       <use x="172.857422" xlink:href="#DejaVuSans-46"/>
      </g>
      <!-- 26 -->
      <defs>
       <path d="M 33.015625 40.375 
Q 26.375 40.375 22.484375 35.828125 
Q 18.609375 31.296875 18.609375 23.390625 
Q 18.609375 15.53125 22.484375 10.953125 
Q 26.375 6.390625 33.015625 6.390625 
Q 39.65625 6.390625 43.53125 10.953125 
Q 47.40625 15.53125 47.40625 23.390625 
Q 47.40625 31.296875 43.53125 35.828125 
Q 39.65625 40.375 33.015625 40.375 
z
M 52.59375 71.296875 
L 52.59375 62.3125 
Q 48.875 64.0625 45.09375 64.984375 
Q 41.3125 65.921875 37.59375 65.921875 
Q 27.828125 65.921875 22.671875 59.328125 
Q 17.53125 52.734375 16.796875 39.40625 
Q 19.671875 43.65625 24.015625 45.921875 
Q 28.375 48.1875 33.59375 48.1875 
Q 44.578125 48.1875 50.953125 41.515625 
Q 57.328125 34.859375 57.328125 23.390625 
Q 57.328125 12.15625 50.6875 5.359375 
Q 44.046875 -1.421875 33.015625 -1.421875 
Q 20.359375 -1.421875 13.671875 8.265625 
Q 6.984375 17.96875 6.984375 36.375 
Q 6.984375 53.65625 15.1875 63.9375 
Q 23.390625 74.21875 37.203125 74.21875 
Q 40.921875 74.21875 44.703125 73.484375 
Q 48.484375 72.75 52.59375 71.296875 
z
" id="DejaVuSans-54"/>
      </defs>
      <g transform="translate(243.830683 211.194375)scale(0.1 -0.1)">
       <use xlink:href="#DejaVuSans-50"/>
       <use x="63.623047" xlink:href="#DejaVuSans-54"/>
      </g>
     </g>
    </g>
    <g id="xtick_10">
     <g id="line2d_19">
      <path clip-path="url(#pce643575ca)" d="M 272.802788 185.398125 
L 272.802788 22.318125 
" style="fill:none;stroke:#b0b0b0;stroke-linecap:square;stroke-opacity:0.6;stroke-width:0.8;"/>
     </g>
     <g id="line2d_20">
      <g>
       <use style="stroke:#000000;stroke-width:0.8;" x="272.802788" xlink:href="#meb2bc2141e" y="185.398125"/>
      </g>
     </g>
     <g id="text_10">
      <!-- May. -->
      <defs>
       <path d="M 32.171875 -5.078125 
Q 28.375 -14.84375 24.75 -17.8125 
Q 21.140625 -20.796875 15.09375 -20.796875 
L 7.90625 -20.796875 
L 7.90625 -13.28125 
L 13.1875 -13.28125 
Q 16.890625 -13.28125 18.9375 -11.515625 
Q 21 -9.765625 23.484375 -3.21875 
L 25.09375 0.875 
L 2.984375 54.6875 
L 12.5 54.6875 
L 29.59375 11.921875 
L 46.6875 54.6875 
L 56.203125 54.6875 
z
" id="DejaVuSans-121"/>
      </defs>
      <g transform="translate(260.887163 199.996563)scale(0.1 -0.1)">
       <use xlink:href="#DejaVuSans-77"/>
       <use x="86.279297" xlink:href="#DejaVuSans-97"/>
       <use x="147.558594" xlink:href="#DejaVuSans-121"/>
       <use x="206.519531" xlink:href="#DejaVuSans-46"/>
      </g>
      <!-- 03 -->
      <defs>
       <path d="M 40.578125 39.3125 
Q 47.65625 37.796875 51.625 33 
Q 55.609375 28.21875 55.609375 21.1875 
Q 55.609375 10.40625 48.1875 4.484375 
Q 40.765625 -1.421875 27.09375 -1.421875 
Q 22.515625 -1.421875 17.65625 -0.515625 
Q 12.796875 0.390625 7.625 2.203125 
L 7.625 11.71875 
Q 11.71875 9.328125 16.59375 8.109375 
Q 21.484375 6.890625 26.8125 6.890625 
Q 36.078125 6.890625 40.9375 10.546875 
Q 45.796875 14.203125 45.796875 21.1875 
Q 45.796875 27.640625 41.28125 31.265625 
Q 36.765625 34.90625 28.71875 34.90625 
L 20.21875 34.90625 
L 20.21875 43.015625 
L 29.109375 43.015625 
Q 36.375 43.015625 40.234375 45.921875 
Q 44.09375 48.828125 44.09375 54.296875 
Q 44.09375 59.90625 40.109375 62.90625 
Q 36.140625 65.921875 28.71875 65.921875 
Q 24.65625 65.921875 20.015625 65.03125 
Q 15.375 64.15625 9.8125 62.3125 
L 9.8125 71.09375 
Q 15.4375 72.65625 20.34375 73.4375 
Q 25.25 74.21875 29.59375 74.21875 
Q 40.828125 74.21875 47.359375 69.109375 
Q 53.90625 64.015625 53.90625 55.328125 
Q 53.90625 49.265625 50.4375 45.09375 
Q 46.96875 40.921875 40.578125 39.3125 
z
" id="DejaVuSans-51"/>
      </defs>
      <g transform="translate(266.440288 211.194375)scale(0.1 -0.1)">
       <use xlink:href="#DejaVuSans-48"/>
       <use x="63.623047" xlink:href="#DejaVuSans-51"/>
      </g>
     </g>
    </g>
    <g id="xtick_11">
     <g id="line2d_21">
      <path clip-path="url(#pce643575ca)" d="M 295.412392 185.398125 
L 295.412392 22.318125 
" style="fill:none;stroke:#b0b0b0;stroke-linecap:square;stroke-opacity:0.6;stroke-width:0.8;"/>
     </g>
     <g id="line2d_22">
      <g>
       <use style="stroke:#000000;stroke-width:0.8;" x="295.412392" xlink:href="#meb2bc2141e" y="185.398125"/>
      </g>
     </g>
     <g id="text_11">
      <!-- May. -->
      <g transform="translate(283.496767 199.996563)scale(0.1 -0.1)">
       <use xlink:href="#DejaVuSans-77"/>
       <use x="86.279297" xlink:href="#DejaVuSans-97"/>
       <use x="147.558594" xlink:href="#DejaVuSans-121"/>
       <use x="206.519531" xlink:href="#DejaVuSans-46"/>
      </g>
      <!-- 10 -->
      <g transform="translate(289.049892 211.194375)scale(0.1 -0.1)">
       <use xlink:href="#DejaVuSans-49"/>
       <use x="63.623047" xlink:href="#DejaVuSans-48"/>
      </g>
     </g>
    </g>
   </g>
   <g id="matplotlib.axis_2">
    <g id="ytick_1">
     <g id="line2d_23">
      <path clip-path="url(#pce643575ca)" d="M 53.328125 185.398125 
L 304.428125 185.398125 
" style="fill:none;stroke:#b0b0b0;stroke-linecap:square;stroke-opacity:0.6;stroke-width:0.8;"/>
     </g>
     <g id="line2d_24">
      <defs>
       <path d="M 0 0 
L -3.5 0 
" id="m435f1783b9" style="stroke:#000000;stroke-width:0.8;"/>
      </defs>
      <g>
       <use style="stroke:#000000;stroke-width:0.8;" x="53.328125" xlink:href="#m435f1783b9" y="185.398125"/>
      </g>
     </g>
     <g id="text_12">
      <!-- 10 -->
      <g transform="translate(33.603125 189.197344)scale(0.1 -0.1)">
       <use xlink:href="#DejaVuSans-49"/>
       <use x="63.623047" xlink:href="#DejaVuSans-48"/>
      </g>
     </g>
    </g>
    <g id="ytick_2">
     <g id="line2d_25">
      <path clip-path="url(#pce643575ca)" d="M 53.328125 168.996563 
L 304.428125 168.996563 
" style="fill:none;stroke:#b0b0b0;stroke-linecap:square;stroke-opacity:0.6;stroke-width:0.8;"/>
     </g>
     <g id="line2d_26">
      <g>
       <use style="stroke:#000000;stroke-width:0.8;" x="53.328125" xlink:href="#m435f1783b9" y="168.996563"/>
      </g>
     </g>
     <g id="text_13">
      <!-- 20 -->
      <g transform="translate(33.603125 172.795782)scale(0.1 -0.1)">
       <use xlink:href="#DejaVuSans-50"/>
       <use x="63.623047" xlink:href="#DejaVuSans-48"/>
      </g>
     </g>
    </g>
    <g id="ytick_3">
     <g id="line2d_27">
      <path clip-path="url(#pce643575ca)" d="M 53.328125 147.314877 
L 304.428125 147.314877 
" style="fill:none;stroke:#b0b0b0;stroke-linecap:square;stroke-opacity:0.6;stroke-width:0.8;"/>
     </g>
     <g id="line2d_28">
      <g>
       <use style="stroke:#000000;stroke-width:0.8;" x="53.328125" xlink:href="#m435f1783b9" y="147.314877"/>
      </g>
     </g>
     <g id="text_14">
      <!-- 50 -->
      <g transform="translate(33.603125 151.114096)scale(0.1 -0.1)">
       <use xlink:href="#DejaVuSans-53"/>
       <use x="63.623047" xlink:href="#DejaVuSans-48"/>
      </g>
     </g>
    </g>
    <g id="ytick_4">
     <g id="line2d_29">
      <path clip-path="url(#pce643575ca)" d="M 53.328125 130.913315 
L 304.428125 130.913315 
" style="fill:none;stroke:#b0b0b0;stroke-linecap:square;stroke-opacity:0.6;stroke-width:0.8;"/>
     </g>
     <g id="line2d_30">
      <g>
       <use style="stroke:#000000;stroke-width:0.8;" x="53.328125" xlink:href="#m435f1783b9" y="130.913315"/>
      </g>
     </g>
     <g id="text_15">
      <!-- 100 -->
      <g transform="translate(27.240625 134.712534)scale(0.1 -0.1)">
       <use xlink:href="#DejaVuSans-49"/>
       <use x="63.623047" xlink:href="#DejaVuSans-48"/>
       <use x="127.246094" xlink:href="#DejaVuSans-48"/>
      </g>
     </g>
    </g>
    <g id="ytick_5">
     <g id="line2d_31">
      <path clip-path="url(#pce643575ca)" d="M 53.328125 114.511753 
L 304.428125 114.511753 
" style="fill:none;stroke:#b0b0b0;stroke-linecap:square;stroke-opacity:0.6;stroke-width:0.8;"/>
     </g>
     <g id="line2d_32">
      <g>
       <use style="stroke:#000000;stroke-width:0.8;" x="53.328125" xlink:href="#m435f1783b9" y="114.511753"/>
      </g>
     </g>
     <g id="text_16">
      <!-- 200 -->
      <g transform="translate(27.240625 118.310971)scale(0.1 -0.1)">
       <use xlink:href="#DejaVuSans-50"/>
       <use x="63.623047" xlink:href="#DejaVuSans-48"/>
       <use x="127.246094" xlink:href="#DejaVuSans-48"/>
      </g>
     </g>
    </g>
    <g id="ytick_6">
     <g id="line2d_33">
      <path clip-path="url(#pce643575ca)" d="M 53.328125 92.830067 
L 304.428125 92.830067 
" style="fill:none;stroke:#b0b0b0;stroke-linecap:square;stroke-opacity:0.6;stroke-width:0.8;"/>
     </g>
     <g id="line2d_34">
      <g>
       <use style="stroke:#000000;stroke-width:0.8;" x="53.328125" xlink:href="#m435f1783b9" y="92.830067"/>
      </g>
     </g>
     <g id="text_17">
      <!-- 500 -->
      <g transform="translate(27.240625 96.629286)scale(0.1 -0.1)">
       <use xlink:href="#DejaVuSans-53"/>
       <use x="63.623047" xlink:href="#DejaVuSans-48"/>
       <use x="127.246094" xlink:href="#DejaVuSans-48"/>
      </g>
     </g>
    </g>
    <g id="ytick_7">
     <g id="line2d_35">
      <path clip-path="url(#pce643575ca)" d="M 53.328125 76.428505 
L 304.428125 76.428505 
" style="fill:none;stroke:#b0b0b0;stroke-linecap:square;stroke-opacity:0.6;stroke-width:0.8;"/>
     </g>
     <g id="line2d_36">
      <g>
       <use style="stroke:#000000;stroke-width:0.8;" x="53.328125" xlink:href="#m435f1783b9" y="76.428505"/>
      </g>
     </g>
     <g id="text_18">
      <!-- 1000 -->
      <g transform="translate(20.878125 80.227723)scale(0.1 -0.1)">
       <use xlink:href="#DejaVuSans-49"/>
       <use x="63.623047" xlink:href="#DejaVuSans-48"/>
       <use x="127.246094" xlink:href="#DejaVuSans-48"/>
       <use x="190.869141" xlink:href="#DejaVuSans-48"/>
      </g>
     </g>
    </g>
    <g id="ytick_8">
     <g id="line2d_37">
      <path clip-path="url(#pce643575ca)" d="M 53.328125 60.026942 
L 304.428125 60.026942 
" style="fill:none;stroke:#b0b0b0;stroke-linecap:square;stroke-opacity:0.6;stroke-width:0.8;"/>
     </g>
     <g id="line2d_38">
      <g>
       <use style="stroke:#000000;stroke-width:0.8;" x="53.328125" xlink:href="#m435f1783b9" y="60.026942"/>
      </g>
     </g>
     <g id="text_19">
      <!-- 2000 -->
      <g transform="translate(20.878125 63.826161)scale(0.1 -0.1)">
       <use xlink:href="#DejaVuSans-50"/>
       <use x="63.623047" xlink:href="#DejaVuSans-48"/>
       <use x="127.246094" xlink:href="#DejaVuSans-48"/>
       <use x="190.869141" xlink:href="#DejaVuSans-48"/>
      </g>
     </g>
    </g>
    <g id="ytick_9">
     <g id="line2d_39">
      <path clip-path="url(#pce643575ca)" d="M 53.328125 38.345257 
L 304.428125 38.345257 
" style="fill:none;stroke:#b0b0b0;stroke-linecap:square;stroke-opacity:0.6;stroke-width:0.8;"/>
     </g>
     <g id="line2d_40">
      <g>
       <use style="stroke:#000000;stroke-width:0.8;" x="53.328125" xlink:href="#m435f1783b9" y="38.345257"/>
      </g>
     </g>
     <g id="text_20">
      <!-- 5000 -->
      <g transform="translate(20.878125 42.144475)scale(0.1 -0.1)">
       <use xlink:href="#DejaVuSans-53"/>
       <use x="63.623047" xlink:href="#DejaVuSans-48"/>
       <use x="127.246094" xlink:href="#DejaVuSans-48"/>
       <use x="190.869141" xlink:href="#DejaVuSans-48"/>
      </g>
     </g>
    </g>
    <g id="ytick_10">
     <g id="line2d_41">
      <defs>
       <path d="M 0 0 
L -2 0 
" id="md840d3acf7" style="stroke:#000000;stroke-width:0.6;"/>
      </defs>
      <g>
       <use style="stroke:#000000;stroke-width:0.6;" x="53.328125" xlink:href="#md840d3acf7" y="159.402264"/>
      </g>
     </g>
    </g>
    <g id="ytick_11">
     <g id="line2d_42">
      <g>
       <use style="stroke:#000000;stroke-width:0.6;" x="53.328125" xlink:href="#md840d3acf7" y="152.595001"/>
      </g>
     </g>
    </g>
    <g id="ytick_12">
     <g id="line2d_43">
      <g>
       <use style="stroke:#000000;stroke-width:0.6;" x="53.328125" xlink:href="#md840d3acf7" y="143.000702"/>
      </g>
     </g>
    </g>
    <g id="ytick_13">
     <g id="line2d_44">
      <g>
       <use style="stroke:#000000;stroke-width:0.6;" x="53.328125" xlink:href="#md840d3acf7" y="139.353119"/>
      </g>
     </g>
    </g>
    <g id="ytick_14">
     <g id="line2d_45">
      <g>
       <use style="stroke:#000000;stroke-width:0.6;" x="53.328125" xlink:href="#md840d3acf7" y="136.193438"/>
      </g>
     </g>
    </g>
    <g id="ytick_15">
     <g id="line2d_46">
      <g>
       <use style="stroke:#000000;stroke-width:0.6;" x="53.328125" xlink:href="#md840d3acf7" y="133.406403"/>
      </g>
     </g>
    </g>
    <g id="ytick_16">
     <g id="line2d_47">
      <g>
       <use style="stroke:#000000;stroke-width:0.6;" x="53.328125" xlink:href="#md840d3acf7" y="104.917454"/>
      </g>
     </g>
    </g>
    <g id="ytick_17">
     <g id="line2d_48">
      <g>
       <use style="stroke:#000000;stroke-width:0.6;" x="53.328125" xlink:href="#md840d3acf7" y="98.11019"/>
      </g>
     </g>
    </g>
    <g id="ytick_18">
     <g id="line2d_49">
      <g>
       <use style="stroke:#000000;stroke-width:0.6;" x="53.328125" xlink:href="#md840d3acf7" y="88.515892"/>
      </g>
     </g>
    </g>
    <g id="ytick_19">
     <g id="line2d_50">
      <g>
       <use style="stroke:#000000;stroke-width:0.6;" x="53.328125" xlink:href="#md840d3acf7" y="84.868308"/>
      </g>
     </g>
    </g>
    <g id="ytick_20">
     <g id="line2d_51">
      <g>
       <use style="stroke:#000000;stroke-width:0.6;" x="53.328125" xlink:href="#md840d3acf7" y="81.708628"/>
      </g>
     </g>
    </g>
    <g id="ytick_21">
     <g id="line2d_52">
      <g>
       <use style="stroke:#000000;stroke-width:0.6;" x="53.328125" xlink:href="#md840d3acf7" y="78.921593"/>
      </g>
     </g>
    </g>
    <g id="ytick_22">
     <g id="line2d_53">
      <g>
       <use style="stroke:#000000;stroke-width:0.6;" x="53.328125" xlink:href="#md840d3acf7" y="50.432644"/>
      </g>
     </g>
    </g>
    <g id="ytick_23">
     <g id="line2d_54">
      <g>
       <use style="stroke:#000000;stroke-width:0.6;" x="53.328125" xlink:href="#md840d3acf7" y="43.62538"/>
      </g>
     </g>
    </g>
    <g id="ytick_24">
     <g id="line2d_55">
      <g>
       <use style="stroke:#000000;stroke-width:0.6;" x="53.328125" xlink:href="#md840d3acf7" y="34.031081"/>
      </g>
     </g>
    </g>
    <g id="ytick_25">
     <g id="line2d_56">
      <g>
       <use style="stroke:#000000;stroke-width:0.6;" x="53.328125" xlink:href="#md840d3acf7" y="30.383498"/>
      </g>
     </g>
    </g>
    <g id="ytick_26">
     <g id="line2d_57">
      <g>
       <use style="stroke:#000000;stroke-width:0.6;" x="53.328125" xlink:href="#md840d3acf7" y="27.223818"/>
      </g>
     </g>
    </g>
    <g id="ytick_27">
     <g id="line2d_58">
      <g>
       <use style="stroke:#000000;stroke-width:0.6;" x="53.328125" xlink:href="#md840d3acf7" y="24.436783"/>
      </g>
     </g>
    </g>
    <g id="text_21">
     <!-- Daily observations -->
     <defs>
      <path d="M 19.671875 64.796875 
L 19.671875 8.109375 
L 31.59375 8.109375 
Q 46.6875 8.109375 53.6875 14.9375 
Q 60.6875 21.78125 60.6875 36.53125 
Q 60.6875 51.171875 53.6875 57.984375 
Q 46.6875 64.796875 31.59375 64.796875 
z
M 9.8125 72.90625 
L 30.078125 72.90625 
Q 51.265625 72.90625 61.171875 64.09375 
Q 71.09375 55.28125 71.09375 36.53125 
Q 71.09375 17.671875 61.125 8.828125 
Q 51.171875 0 30.078125 0 
L 9.8125 0 
z
" id="DejaVuSans-68"/>
      <path d="M 9.421875 54.6875 
L 18.40625 54.6875 
L 18.40625 0 
L 9.421875 0 
z
M 9.421875 75.984375 
L 18.40625 75.984375 
L 18.40625 64.59375 
L 9.421875 64.59375 
z
" id="DejaVuSans-105"/>
      <path d="M 9.421875 75.984375 
L 18.40625 75.984375 
L 18.40625 0 
L 9.421875 0 
z
" id="DejaVuSans-108"/>
      <path id="DejaVuSans-32"/>
      <path d="M 30.609375 48.390625 
Q 23.390625 48.390625 19.1875 42.75 
Q 14.984375 37.109375 14.984375 27.296875 
Q 14.984375 17.484375 19.15625 11.84375 
Q 23.34375 6.203125 30.609375 6.203125 
Q 37.796875 6.203125 41.984375 11.859375 
Q 46.1875 17.53125 46.1875 27.296875 
Q 46.1875 37.015625 41.984375 42.703125 
Q 37.796875 48.390625 30.609375 48.390625 
z
M 30.609375 56 
Q 42.328125 56 49.015625 48.375 
Q 55.71875 40.765625 55.71875 27.296875 
Q 55.71875 13.875 49.015625 6.21875 
Q 42.328125 -1.421875 30.609375 -1.421875 
Q 18.84375 -1.421875 12.171875 6.21875 
Q 5.515625 13.875 5.515625 27.296875 
Q 5.515625 40.765625 12.171875 48.375 
Q 18.84375 56 30.609375 56 
z
" id="DejaVuSans-111"/>
      <path d="M 48.6875 27.296875 
Q 48.6875 37.203125 44.609375 42.84375 
Q 40.53125 48.484375 33.40625 48.484375 
Q 26.265625 48.484375 22.1875 42.84375 
Q 18.109375 37.203125 18.109375 27.296875 
Q 18.109375 17.390625 22.1875 11.75 
Q 26.265625 6.109375 33.40625 6.109375 
Q 40.53125 6.109375 44.609375 11.75 
Q 48.6875 17.390625 48.6875 27.296875 
z
M 18.109375 46.390625 
Q 20.953125 51.265625 25.265625 53.625 
Q 29.59375 56 35.59375 56 
Q 45.5625 56 51.78125 48.09375 
Q 58.015625 40.1875 58.015625 27.296875 
Q 58.015625 14.40625 51.78125 6.484375 
Q 45.5625 -1.421875 35.59375 -1.421875 
Q 29.59375 -1.421875 25.265625 0.953125 
Q 20.953125 3.328125 18.109375 8.203125 
L 18.109375 0 
L 9.078125 0 
L 9.078125 75.984375 
L 18.109375 75.984375 
z
" id="DejaVuSans-98"/>
      <path d="M 44.28125 53.078125 
L 44.28125 44.578125 
Q 40.484375 46.53125 36.375 47.5 
Q 32.28125 48.484375 27.875 48.484375 
Q 21.1875 48.484375 17.84375 46.4375 
Q 14.5 44.390625 14.5 40.28125 
Q 14.5 37.15625 16.890625 35.375 
Q 19.28125 33.59375 26.515625 31.984375 
L 29.59375 31.296875 
Q 39.15625 29.25 43.1875 25.515625 
Q 47.21875 21.78125 47.21875 15.09375 
Q 47.21875 7.46875 41.1875 3.015625 
Q 35.15625 -1.421875 24.609375 -1.421875 
Q 20.21875 -1.421875 15.453125 -0.5625 
Q 10.6875 0.296875 5.421875 2 
L 5.421875 11.28125 
Q 10.40625 8.6875 15.234375 7.390625 
Q 20.0625 6.109375 24.8125 6.109375 
Q 31.15625 6.109375 34.5625 8.28125 
Q 37.984375 10.453125 37.984375 14.40625 
Q 37.984375 18.0625 35.515625 20.015625 
Q 33.0625 21.96875 24.703125 23.78125 
L 21.578125 24.515625 
Q 13.234375 26.265625 9.515625 29.90625 
Q 5.8125 33.546875 5.8125 39.890625 
Q 5.8125 47.609375 11.28125 51.796875 
Q 16.75 56 26.8125 56 
Q 31.78125 56 36.171875 55.265625 
Q 40.578125 54.546875 44.28125 53.078125 
z
" id="DejaVuSans-115"/>
      <path d="M 56.203125 29.59375 
L 56.203125 25.203125 
L 14.890625 25.203125 
Q 15.484375 15.921875 20.484375 11.0625 
Q 25.484375 6.203125 34.421875 6.203125 
Q 39.59375 6.203125 44.453125 7.46875 
Q 49.3125 8.734375 54.109375 11.28125 
L 54.109375 2.78125 
Q 49.265625 0.734375 44.1875 -0.34375 
Q 39.109375 -1.421875 33.890625 -1.421875 
Q 20.796875 -1.421875 13.15625 6.1875 
Q 5.515625 13.8125 5.515625 26.8125 
Q 5.515625 40.234375 12.765625 48.109375 
Q 20.015625 56 32.328125 56 
Q 43.359375 56 49.78125 48.890625 
Q 56.203125 41.796875 56.203125 29.59375 
z
M 47.21875 32.234375 
Q 47.125 39.59375 43.09375 43.984375 
Q 39.0625 48.390625 32.421875 48.390625 
Q 24.90625 48.390625 20.390625 44.140625 
Q 15.875 39.890625 15.1875 32.171875 
z
" id="DejaVuSans-101"/>
      <path d="M 2.984375 54.6875 
L 12.5 54.6875 
L 29.59375 8.796875 
L 46.6875 54.6875 
L 56.203125 54.6875 
L 35.6875 0 
L 23.484375 0 
z
" id="DejaVuSans-118"/>
      <path d="M 18.3125 70.21875 
L 18.3125 54.6875 
L 36.8125 54.6875 
L 36.8125 47.703125 
L 18.3125 47.703125 
L 18.3125 18.015625 
Q 18.3125 11.328125 20.140625 9.421875 
Q 21.96875 7.515625 27.59375 7.515625 
L 36.8125 7.515625 
L 36.8125 0 
L 27.59375 0 
Q 17.1875 0 13.234375 3.875 
Q 9.28125 7.765625 9.28125 18.015625 
L 9.28125 47.703125 
L 2.6875 47.703125 
L 2.6875 54.6875 
L 9.28125 54.6875 
L 9.28125 70.21875 
z
" id="DejaVuSans-116"/>
      <path d="M 54.890625 33.015625 
L 54.890625 0 
L 45.90625 0 
L 45.90625 32.71875 
Q 45.90625 40.484375 42.875 44.328125 
Q 39.84375 48.1875 33.796875 48.1875 
Q 26.515625 48.1875 22.3125 43.546875 
Q 18.109375 38.921875 18.109375 30.90625 
L 18.109375 0 
L 9.078125 0 
L 9.078125 54.6875 
L 18.109375 54.6875 
L 18.109375 46.1875 
Q 21.34375 51.125 25.703125 53.5625 
Q 30.078125 56 35.796875 56 
Q 45.21875 56 50.046875 50.171875 
Q 54.890625 44.34375 54.890625 33.015625 
z
" id="DejaVuSans-110"/>
     </defs>
     <g transform="translate(14.798438 150.274531)rotate(-90)scale(0.1 -0.1)">
      <use xlink:href="#DejaVuSans-68"/>
      <use x="77.001953" xlink:href="#DejaVuSans-97"/>
      <use x="138.28125" xlink:href="#DejaVuSans-105"/>
      <use x="166.064453" xlink:href="#DejaVuSans-108"/>
      <use x="193.847656" xlink:href="#DejaVuSans-121"/>
      <use x="253.027344" xlink:href="#DejaVuSans-32"/>
      <use x="284.814453" xlink:href="#DejaVuSans-111"/>
      <use x="345.996094" xlink:href="#DejaVuSans-98"/>
      <use x="409.472656" xlink:href="#DejaVuSans-115"/>
      <use x="461.572266" xlink:href="#DejaVuSans-101"/>
      <use x="523.095703" xlink:href="#DejaVuSans-114"/>
      <use x="564.208984" xlink:href="#DejaVuSans-118"/>
      <use x="623.388672" xlink:href="#DejaVuSans-97"/>
      <use x="684.667969" xlink:href="#DejaVuSans-116"/>
      <use x="723.876953" xlink:href="#DejaVuSans-105"/>
      <use x="751.660156" xlink:href="#DejaVuSans-111"/>
      <use x="812.841797" xlink:href="#DejaVuSans-110"/>
      <use x="876.220703" xlink:href="#DejaVuSans-115"/>
     </g>
    </g>
   </g>
   <g id="line2d_59">
    <path clip-path="url(#pce643575ca)" d="M 76.075264 221.474063 
L 79.006176 201.799687 
L 82.23612 213.887074 
L 85.466063 193.837929 
L 88.696007 193.837929 
L 91.92595 167.842068 
L 95.155894 144.214427 
L 98.385837 139.353119 
L 101.615781 120.696284 
L 104.845724 100.934227 
L 108.075668 87.740004 
L 111.305611 86.878093 
L 114.535555 75.660251 
L 117.765498 58.614696 
L 120.995442 55.186263 
L 124.225385 50.614755 
L 127.455329 45.419035 
L 130.685272 43.566298 
L 133.915216 53.502352 
L 137.14516 54.047385 
L 140.375103 46.389504 
L 143.605047 40.864651 
L 146.83499 39.144187 
L 150.064934 38.24137 
L 153.294877 37.909178 
L 156.524821 47.084417 
L 159.754764 46.630073 
L 162.984708 33.632201 
L 166.214651 36.393075 
L 169.444595 36.384361 
L 172.674538 35.025804 
L 175.904482 35.465855 
L 179.134425 44.535935 
L 182.364369 45.032933 
L 185.594312 32.678354 
L 188.824256 33.838623 
L 192.054199 35.858795 
L 195.284143 38.208411 
L 198.514087 41.20932 
L 201.74403 45.425417 
L 204.973974 51.513898 
L 208.203917 48.270771 
L 211.433861 42.925946 
L 214.663804 44.419416 
L 217.893748 46.66368 
L 221.123691 46.329742 
L 224.353635 58.173014 
L 227.583578 56.241169 
L 230.813522 45.032933 
L 234.043465 49.964065 
L 237.273409 47.063886 
L 240.503352 51.787936 
L 243.733296 55.070836 
L 246.963239 65.470307 
L 250.193183 76.239958 
L 253.423126 56.678716 
L 256.65307 52.794638 
L 259.883014 56.342205 
L 263.112957 59.96786 
L 266.342901 61.68062 
L 269.572844 75.319124 
L 272.802788 82.398895 
L 276.032731 66.150092 
L 279.262675 66.692655 
L 282.492618 68.449851 
L 285.722562 71.319367 
L 288.952505 74.476323 
L 292.182449 85.834257 
L 295.412392 94.751696 
L 298.642336 71.549287 
L 301.872279 70.698368 
L 305.102223 70.129488 
L 308.332166 75.251485 
L 311.56211 83.109904 
L 314.792053 100.341812 
L 315.528017 103.932892 
" style="fill:none;stroke:#1f77b4;stroke-linecap:square;stroke-width:1.5;"/>
    <defs>
     <path d="M 0 1.5 
C 0.397805 1.5 0.77937 1.341951 1.06066 1.06066 
C 1.341951 0.77937 1.5 0.397805 1.5 0 
C 1.5 -0.397805 1.341951 -0.77937 1.06066 -1.06066 
C 0.77937 -1.341951 0.397805 -1.5 0 -1.5 
C -0.397805 -1.5 -0.77937 -1.341951 -1.06066 -1.06066 
C -1.341951 -0.77937 -1.5 -0.397805 -1.5 0 
C -1.5 0.397805 -1.341951 0.77937 -1.06066 1.06066 
C -0.77937 1.341951 -0.397805 1.5 0 1.5 
z
" id="me26c396b53" style="stroke:#1f77b4;"/>
    </defs>
    <g clip-path="url(#pce643575ca)">
     <use style="fill:#1f77b4;stroke:#1f77b4;" x="66.086402" xlink:href="#me26c396b53" y="239.882935"/>
     <use style="fill:#1f77b4;stroke:#1f77b4;" x="69.316345" xlink:href="#me26c396b53" y="239.882935"/>
     <use style="fill:#1f77b4;stroke:#1f77b4;" x="70.243227" xlink:href="#me26c396b53" y="15875.1325"/>
     <use style="fill:#1f77b4;stroke:#1f77b4;" x="74.848658" xlink:href="#me26c396b53" y="15875.1325"/>
     <use style="fill:#1f77b4;stroke:#1f77b4;" x="75.776233" xlink:href="#me26c396b53" y="223.481373"/>
     <use style="fill:#1f77b4;stroke:#1f77b4;" x="79.006176" xlink:href="#me26c396b53" y="201.799687"/>
     <use style="fill:#1f77b4;stroke:#1f77b4;" x="82.23612" xlink:href="#me26c396b53" y="213.887074"/>
     <use style="fill:#1f77b4;stroke:#1f77b4;" x="85.466063" xlink:href="#me26c396b53" y="193.837929"/>
     <use style="fill:#1f77b4;stroke:#1f77b4;" x="88.696007" xlink:href="#me26c396b53" y="193.837929"/>
     <use style="fill:#1f77b4;stroke:#1f77b4;" x="91.92595" xlink:href="#me26c396b53" y="167.842068"/>
     <use style="fill:#1f77b4;stroke:#1f77b4;" x="95.155894" xlink:href="#me26c396b53" y="144.214427"/>
     <use style="fill:#1f77b4;stroke:#1f77b4;" x="98.385837" xlink:href="#me26c396b53" y="139.353119"/>
     <use style="fill:#1f77b4;stroke:#1f77b4;" x="101.615781" xlink:href="#me26c396b53" y="120.696284"/>
     <use style="fill:#1f77b4;stroke:#1f77b4;" x="104.845724" xlink:href="#me26c396b53" y="100.934227"/>
     <use style="fill:#1f77b4;stroke:#1f77b4;" x="108.075668" xlink:href="#me26c396b53" y="87.740004"/>
     <use style="fill:#1f77b4;stroke:#1f77b4;" x="111.305611" xlink:href="#me26c396b53" y="86.878093"/>
     <use style="fill:#1f77b4;stroke:#1f77b4;" x="114.535555" xlink:href="#me26c396b53" y="75.660251"/>
     <use style="fill:#1f77b4;stroke:#1f77b4;" x="117.765498" xlink:href="#me26c396b53" y="58.614696"/>
     <use style="fill:#1f77b4;stroke:#1f77b4;" x="120.995442" xlink:href="#me26c396b53" y="55.186263"/>
     <use style="fill:#1f77b4;stroke:#1f77b4;" x="124.225385" xlink:href="#me26c396b53" y="50.614755"/>
     <use style="fill:#1f77b4;stroke:#1f77b4;" x="127.455329" xlink:href="#me26c396b53" y="45.419035"/>
     <use style="fill:#1f77b4;stroke:#1f77b4;" x="130.685272" xlink:href="#me26c396b53" y="43.566298"/>
     <use style="fill:#1f77b4;stroke:#1f77b4;" x="133.915216" xlink:href="#me26c396b53" y="53.502352"/>
     <use style="fill:#1f77b4;stroke:#1f77b4;" x="137.14516" xlink:href="#me26c396b53" y="54.047385"/>
     <use style="fill:#1f77b4;stroke:#1f77b4;" x="140.375103" xlink:href="#me26c396b53" y="46.389504"/>
     <use style="fill:#1f77b4;stroke:#1f77b4;" x="143.605047" xlink:href="#me26c396b53" y="40.864651"/>
     <use style="fill:#1f77b4;stroke:#1f77b4;" x="146.83499" xlink:href="#me26c396b53" y="39.144187"/>
     <use style="fill:#1f77b4;stroke:#1f77b4;" x="150.064934" xlink:href="#me26c396b53" y="38.24137"/>
     <use style="fill:#1f77b4;stroke:#1f77b4;" x="153.294877" xlink:href="#me26c396b53" y="37.909178"/>
     <use style="fill:#1f77b4;stroke:#1f77b4;" x="156.524821" xlink:href="#me26c396b53" y="47.084417"/>
     <use style="fill:#1f77b4;stroke:#1f77b4;" x="159.754764" xlink:href="#me26c396b53" y="46.630073"/>
     <use style="fill:#1f77b4;stroke:#1f77b4;" x="162.984708" xlink:href="#me26c396b53" y="33.632201"/>
     <use style="fill:#1f77b4;stroke:#1f77b4;" x="166.214651" xlink:href="#me26c396b53" y="36.393075"/>
     <use style="fill:#1f77b4;stroke:#1f77b4;" x="169.444595" xlink:href="#me26c396b53" y="36.384361"/>
     <use style="fill:#1f77b4;stroke:#1f77b4;" x="172.674538" xlink:href="#me26c396b53" y="35.025804"/>
     <use style="fill:#1f77b4;stroke:#1f77b4;" x="175.904482" xlink:href="#me26c396b53" y="35.465855"/>
     <use style="fill:#1f77b4;stroke:#1f77b4;" x="179.134425" xlink:href="#me26c396b53" y="44.535935"/>
     <use style="fill:#1f77b4;stroke:#1f77b4;" x="182.364369" xlink:href="#me26c396b53" y="45.032933"/>
     <use style="fill:#1f77b4;stroke:#1f77b4;" x="185.594312" xlink:href="#me26c396b53" y="32.678354"/>
     <use style="fill:#1f77b4;stroke:#1f77b4;" x="188.824256" xlink:href="#me26c396b53" y="33.838623"/>
     <use style="fill:#1f77b4;stroke:#1f77b4;" x="192.054199" xlink:href="#me26c396b53" y="35.858795"/>
     <use style="fill:#1f77b4;stroke:#1f77b4;" x="195.284143" xlink:href="#me26c396b53" y="38.208411"/>
     <use style="fill:#1f77b4;stroke:#1f77b4;" x="198.514087" xlink:href="#me26c396b53" y="41.20932"/>
     <use style="fill:#1f77b4;stroke:#1f77b4;" x="201.74403" xlink:href="#me26c396b53" y="45.425417"/>
     <use style="fill:#1f77b4;stroke:#1f77b4;" x="204.973974" xlink:href="#me26c396b53" y="51.513898"/>
     <use style="fill:#1f77b4;stroke:#1f77b4;" x="208.203917" xlink:href="#me26c396b53" y="48.270771"/>
     <use style="fill:#1f77b4;stroke:#1f77b4;" x="211.433861" xlink:href="#me26c396b53" y="42.925946"/>
     <use style="fill:#1f77b4;stroke:#1f77b4;" x="214.663804" xlink:href="#me26c396b53" y="44.419416"/>
     <use style="fill:#1f77b4;stroke:#1f77b4;" x="217.893748" xlink:href="#me26c396b53" y="46.66368"/>
     <use style="fill:#1f77b4;stroke:#1f77b4;" x="221.123691" xlink:href="#me26c396b53" y="46.329742"/>
     <use style="fill:#1f77b4;stroke:#1f77b4;" x="224.353635" xlink:href="#me26c396b53" y="58.173014"/>
     <use style="fill:#1f77b4;stroke:#1f77b4;" x="227.583578" xlink:href="#me26c396b53" y="56.241169"/>
     <use style="fill:#1f77b4;stroke:#1f77b4;" x="230.813522" xlink:href="#me26c396b53" y="45.032933"/>
     <use style="fill:#1f77b4;stroke:#1f77b4;" x="234.043465" xlink:href="#me26c396b53" y="49.964065"/>
     <use style="fill:#1f77b4;stroke:#1f77b4;" x="237.273409" xlink:href="#me26c396b53" y="47.063886"/>
     <use style="fill:#1f77b4;stroke:#1f77b4;" x="240.503352" xlink:href="#me26c396b53" y="51.787936"/>
     <use style="fill:#1f77b4;stroke:#1f77b4;" x="243.733296" xlink:href="#me26c396b53" y="55.070836"/>
     <use style="fill:#1f77b4;stroke:#1f77b4;" x="246.963239" xlink:href="#me26c396b53" y="65.470307"/>
     <use style="fill:#1f77b4;stroke:#1f77b4;" x="250.193183" xlink:href="#me26c396b53" y="76.239958"/>
     <use style="fill:#1f77b4;stroke:#1f77b4;" x="253.423126" xlink:href="#me26c396b53" y="56.678716"/>
     <use style="fill:#1f77b4;stroke:#1f77b4;" x="256.65307" xlink:href="#me26c396b53" y="52.794638"/>
     <use style="fill:#1f77b4;stroke:#1f77b4;" x="259.883014" xlink:href="#me26c396b53" y="56.342205"/>
     <use style="fill:#1f77b4;stroke:#1f77b4;" x="263.112957" xlink:href="#me26c396b53" y="59.96786"/>
     <use style="fill:#1f77b4;stroke:#1f77b4;" x="266.342901" xlink:href="#me26c396b53" y="61.68062"/>
     <use style="fill:#1f77b4;stroke:#1f77b4;" x="269.572844" xlink:href="#me26c396b53" y="75.319124"/>
     <use style="fill:#1f77b4;stroke:#1f77b4;" x="272.802788" xlink:href="#me26c396b53" y="82.398895"/>
     <use style="fill:#1f77b4;stroke:#1f77b4;" x="276.032731" xlink:href="#me26c396b53" y="66.150092"/>
     <use style="fill:#1f77b4;stroke:#1f77b4;" x="279.262675" xlink:href="#me26c396b53" y="66.692655"/>
     <use style="fill:#1f77b4;stroke:#1f77b4;" x="282.492618" xlink:href="#me26c396b53" y="68.449851"/>
     <use style="fill:#1f77b4;stroke:#1f77b4;" x="285.722562" xlink:href="#me26c396b53" y="71.319367"/>
     <use style="fill:#1f77b4;stroke:#1f77b4;" x="288.952505" xlink:href="#me26c396b53" y="74.476323"/>
     <use style="fill:#1f77b4;stroke:#1f77b4;" x="292.182449" xlink:href="#me26c396b53" y="85.834257"/>
     <use style="fill:#1f77b4;stroke:#1f77b4;" x="295.412392" xlink:href="#me26c396b53" y="94.751696"/>
     <use style="fill:#1f77b4;stroke:#1f77b4;" x="298.642336" xlink:href="#me26c396b53" y="71.549287"/>
     <use style="fill:#1f77b4;stroke:#1f77b4;" x="301.872279" xlink:href="#me26c396b53" y="70.698368"/>
     <use style="fill:#1f77b4;stroke:#1f77b4;" x="305.102223" xlink:href="#me26c396b53" y="70.129488"/>
     <use style="fill:#1f77b4;stroke:#1f77b4;" x="308.332166" xlink:href="#me26c396b53" y="75.251485"/>
     <use style="fill:#1f77b4;stroke:#1f77b4;" x="311.56211" xlink:href="#me26c396b53" y="83.109904"/>
     <use style="fill:#1f77b4;stroke:#1f77b4;" x="314.792053" xlink:href="#me26c396b53" y="100.341812"/>
     <use style="fill:#1f77b4;stroke:#1f77b4;" x="318.021997" xlink:href="#me26c396b53" y="116.102076"/>
     <use style="fill:#1f77b4;stroke:#1f77b4;" x="321.251941" xlink:href="#me26c396b53" y="147.792923"/>
    </g>
   </g>
   <g id="line2d_60">
    <path clip-path="url(#pce643575ca)" d="M 66.086402 177.436367 
L 69.316345 207.079811 
L 72.546289 165.689453 
L 75.776233 166.74129 
L 79.006176 166.74129 
L 82.23612 167.842068 
L 85.466063 165.689453 
L 88.696007 174.276686 
L 91.92595 172.842159 
L 95.155894 146.386819 
L 98.385837 140.745429 
L 101.615781 134.482154 
L 104.845724 133.144937 
L 108.075668 121.797062 
L 111.305611 119.791876 
L 114.535555 115.601265 
L 117.765498 104.448875 
L 120.995442 100.867666 
L 124.225385 94.496435 
L 127.455329 90.488905 
L 130.685272 86.153306 
L 133.915216 85.277468 
L 137.14516 83.972776 
L 140.375103 75.432288 
L 143.605047 73.080278 
L 146.83499 70.311508 
L 150.064934 68.047931 
L 153.294877 68.772951 
L 156.524821 69.485572 
L 159.754764 68.670442 
L 162.984708 63.928281 
L 166.214651 64.809507 
L 169.444595 66.134772 
L 172.674538 65.262741 
L 175.904482 65.233236 
L 179.134425 69.591682 
L 182.364369 69.80534 
L 185.594312 63.998143 
L 188.824256 65.890984 
L 192.054199 66.56754 
L 195.284143 68.602348 
L 198.514087 70.111363 
L 201.74403 74.695219 
L 204.973974 77.149244 
L 208.203917 72.055247 
L 211.433861 75.005115 
L 214.663804 77.027586 
L 217.893748 80.052437 
L 221.123691 79.000599 
L 224.353635 86.549189 
L 227.583578 88.793577 
L 230.813522 84.234604 
L 234.043465 86.332432 
L 237.273409 88.358665 
L 240.503352 91.811174 
L 243.733296 89.812789 
L 246.963239 97.699679 
L 250.193183 99.574314 
L 253.423126 95.113751 
L 256.65307 95.428556 
L 259.883014 97.583686 
L 263.112957 102.306348 
L 266.342901 100.934227 
L 269.572844 106.465636 
L 272.802788 108.94937 
L 276.032731 105.719648 
L 279.262675 108.122248 
L 282.492618 108.94937 
L 285.722562 111.411303 
L 288.952505 110.695753 
L 292.182449 119.207589 
L 295.412392 123.464121 
L 298.642336 110.595275 
L 301.872279 114.989798 
L 305.102223 117.004841 
L 308.332166 124.705133 
L 311.56211 129.092228 
L 314.792053 146.386819 
L 315.528017 158.029992 
" style="fill:none;stroke:#ff7f0e;stroke-linecap:square;stroke-width:1.5;"/>
    <defs>
     <path d="M 0 1.5 
C 0.397805 1.5 0.77937 1.341951 1.06066 1.06066 
C 1.341951 0.77937 1.5 0.397805 1.5 0 
C 1.5 -0.397805 1.341951 -0.77937 1.06066 -1.06066 
C 0.77937 -1.341951 0.397805 -1.5 0 -1.5 
C -0.397805 -1.5 -0.77937 -1.341951 -1.06066 -1.06066 
C -1.341951 -0.77937 -1.5 -0.397805 -1.5 0 
C -1.5 0.397805 -1.341951 0.77937 -1.06066 1.06066 
C -0.77937 1.341951 -0.397805 1.5 0 1.5 
z
" id="m72d24387b6" style="stroke:#ff7f0e;"/>
    </defs>
    <g clip-path="url(#pce643575ca)">
     <use style="fill:#ff7f0e;stroke:#ff7f0e;" x="66.086402" xlink:href="#m72d24387b6" y="177.436367"/>
     <use style="fill:#ff7f0e;stroke:#ff7f0e;" x="69.316345" xlink:href="#m72d24387b6" y="207.079811"/>
     <use style="fill:#ff7f0e;stroke:#ff7f0e;" x="72.546289" xlink:href="#m72d24387b6" y="165.689453"/>
     <use style="fill:#ff7f0e;stroke:#ff7f0e;" x="75.776233" xlink:href="#m72d24387b6" y="166.74129"/>
     <use style="fill:#ff7f0e;stroke:#ff7f0e;" x="79.006176" xlink:href="#m72d24387b6" y="166.74129"/>
     <use style="fill:#ff7f0e;stroke:#ff7f0e;" x="82.23612" xlink:href="#m72d24387b6" y="167.842068"/>
     <use style="fill:#ff7f0e;stroke:#ff7f0e;" x="85.466063" xlink:href="#m72d24387b6" y="165.689453"/>
     <use style="fill:#ff7f0e;stroke:#ff7f0e;" x="88.696007" xlink:href="#m72d24387b6" y="174.276686"/>
     <use style="fill:#ff7f0e;stroke:#ff7f0e;" x="91.92595" xlink:href="#m72d24387b6" y="172.842159"/>
     <use style="fill:#ff7f0e;stroke:#ff7f0e;" x="95.155894" xlink:href="#m72d24387b6" y="146.386819"/>
     <use style="fill:#ff7f0e;stroke:#ff7f0e;" x="98.385837" xlink:href="#m72d24387b6" y="140.745429"/>
     <use style="fill:#ff7f0e;stroke:#ff7f0e;" x="101.615781" xlink:href="#m72d24387b6" y="134.482154"/>
     <use style="fill:#ff7f0e;stroke:#ff7f0e;" x="104.845724" xlink:href="#m72d24387b6" y="133.144937"/>
     <use style="fill:#ff7f0e;stroke:#ff7f0e;" x="108.075668" xlink:href="#m72d24387b6" y="121.797062"/>
     <use style="fill:#ff7f0e;stroke:#ff7f0e;" x="111.305611" xlink:href="#m72d24387b6" y="119.791876"/>
     <use style="fill:#ff7f0e;stroke:#ff7f0e;" x="114.535555" xlink:href="#m72d24387b6" y="115.601265"/>
     <use style="fill:#ff7f0e;stroke:#ff7f0e;" x="117.765498" xlink:href="#m72d24387b6" y="104.448875"/>
     <use style="fill:#ff7f0e;stroke:#ff7f0e;" x="120.995442" xlink:href="#m72d24387b6" y="100.867666"/>
     <use style="fill:#ff7f0e;stroke:#ff7f0e;" x="124.225385" xlink:href="#m72d24387b6" y="94.496435"/>
     <use style="fill:#ff7f0e;stroke:#ff7f0e;" x="127.455329" xlink:href="#m72d24387b6" y="90.488905"/>
     <use style="fill:#ff7f0e;stroke:#ff7f0e;" x="130.685272" xlink:href="#m72d24387b6" y="86.153306"/>
     <use style="fill:#ff7f0e;stroke:#ff7f0e;" x="133.915216" xlink:href="#m72d24387b6" y="85.277468"/>
     <use style="fill:#ff7f0e;stroke:#ff7f0e;" x="137.14516" xlink:href="#m72d24387b6" y="83.972776"/>
     <use style="fill:#ff7f0e;stroke:#ff7f0e;" x="140.375103" xlink:href="#m72d24387b6" y="75.432288"/>
     <use style="fill:#ff7f0e;stroke:#ff7f0e;" x="143.605047" xlink:href="#m72d24387b6" y="73.080278"/>
     <use style="fill:#ff7f0e;stroke:#ff7f0e;" x="146.83499" xlink:href="#m72d24387b6" y="70.311508"/>
     <use style="fill:#ff7f0e;stroke:#ff7f0e;" x="150.064934" xlink:href="#m72d24387b6" y="68.047931"/>
     <use style="fill:#ff7f0e;stroke:#ff7f0e;" x="153.294877" xlink:href="#m72d24387b6" y="68.772951"/>
     <use style="fill:#ff7f0e;stroke:#ff7f0e;" x="156.524821" xlink:href="#m72d24387b6" y="69.485572"/>
     <use style="fill:#ff7f0e;stroke:#ff7f0e;" x="159.754764" xlink:href="#m72d24387b6" y="68.670442"/>
     <use style="fill:#ff7f0e;stroke:#ff7f0e;" x="162.984708" xlink:href="#m72d24387b6" y="63.928281"/>
     <use style="fill:#ff7f0e;stroke:#ff7f0e;" x="166.214651" xlink:href="#m72d24387b6" y="64.809507"/>
     <use style="fill:#ff7f0e;stroke:#ff7f0e;" x="169.444595" xlink:href="#m72d24387b6" y="66.134772"/>
     <use style="fill:#ff7f0e;stroke:#ff7f0e;" x="172.674538" xlink:href="#m72d24387b6" y="65.262741"/>
     <use style="fill:#ff7f0e;stroke:#ff7f0e;" x="175.904482" xlink:href="#m72d24387b6" y="65.233236"/>
     <use style="fill:#ff7f0e;stroke:#ff7f0e;" x="179.134425" xlink:href="#m72d24387b6" y="69.591682"/>
     <use style="fill:#ff7f0e;stroke:#ff7f0e;" x="182.364369" xlink:href="#m72d24387b6" y="69.80534"/>
     <use style="fill:#ff7f0e;stroke:#ff7f0e;" x="185.594312" xlink:href="#m72d24387b6" y="63.998143"/>
     <use style="fill:#ff7f0e;stroke:#ff7f0e;" x="188.824256" xlink:href="#m72d24387b6" y="65.890984"/>
     <use style="fill:#ff7f0e;stroke:#ff7f0e;" x="192.054199" xlink:href="#m72d24387b6" y="66.56754"/>
     <use style="fill:#ff7f0e;stroke:#ff7f0e;" x="195.284143" xlink:href="#m72d24387b6" y="68.602348"/>
     <use style="fill:#ff7f0e;stroke:#ff7f0e;" x="198.514087" xlink:href="#m72d24387b6" y="70.111363"/>
     <use style="fill:#ff7f0e;stroke:#ff7f0e;" x="201.74403" xlink:href="#m72d24387b6" y="74.695219"/>
     <use style="fill:#ff7f0e;stroke:#ff7f0e;" x="204.973974" xlink:href="#m72d24387b6" y="77.149244"/>
     <use style="fill:#ff7f0e;stroke:#ff7f0e;" x="208.203917" xlink:href="#m72d24387b6" y="72.055247"/>
     <use style="fill:#ff7f0e;stroke:#ff7f0e;" x="211.433861" xlink:href="#m72d24387b6" y="75.005115"/>
     <use style="fill:#ff7f0e;stroke:#ff7f0e;" x="214.663804" xlink:href="#m72d24387b6" y="77.027586"/>
     <use style="fill:#ff7f0e;stroke:#ff7f0e;" x="217.893748" xlink:href="#m72d24387b6" y="80.052437"/>
     <use style="fill:#ff7f0e;stroke:#ff7f0e;" x="221.123691" xlink:href="#m72d24387b6" y="79.000599"/>
     <use style="fill:#ff7f0e;stroke:#ff7f0e;" x="224.353635" xlink:href="#m72d24387b6" y="86.549189"/>
     <use style="fill:#ff7f0e;stroke:#ff7f0e;" x="227.583578" xlink:href="#m72d24387b6" y="88.793577"/>
     <use style="fill:#ff7f0e;stroke:#ff7f0e;" x="230.813522" xlink:href="#m72d24387b6" y="84.234604"/>
     <use style="fill:#ff7f0e;stroke:#ff7f0e;" x="234.043465" xlink:href="#m72d24387b6" y="86.332432"/>
     <use style="fill:#ff7f0e;stroke:#ff7f0e;" x="237.273409" xlink:href="#m72d24387b6" y="88.358665"/>
     <use style="fill:#ff7f0e;stroke:#ff7f0e;" x="240.503352" xlink:href="#m72d24387b6" y="91.811174"/>
     <use style="fill:#ff7f0e;stroke:#ff7f0e;" x="243.733296" xlink:href="#m72d24387b6" y="89.812789"/>
     <use style="fill:#ff7f0e;stroke:#ff7f0e;" x="246.963239" xlink:href="#m72d24387b6" y="97.699679"/>
     <use style="fill:#ff7f0e;stroke:#ff7f0e;" x="250.193183" xlink:href="#m72d24387b6" y="99.574314"/>
     <use style="fill:#ff7f0e;stroke:#ff7f0e;" x="253.423126" xlink:href="#m72d24387b6" y="95.113751"/>
     <use style="fill:#ff7f0e;stroke:#ff7f0e;" x="256.65307" xlink:href="#m72d24387b6" y="95.428556"/>
     <use style="fill:#ff7f0e;stroke:#ff7f0e;" x="259.883014" xlink:href="#m72d24387b6" y="97.583686"/>
     <use style="fill:#ff7f0e;stroke:#ff7f0e;" x="263.112957" xlink:href="#m72d24387b6" y="102.306348"/>
     <use style="fill:#ff7f0e;stroke:#ff7f0e;" x="266.342901" xlink:href="#m72d24387b6" y="100.934227"/>
     <use style="fill:#ff7f0e;stroke:#ff7f0e;" x="269.572844" xlink:href="#m72d24387b6" y="106.465636"/>
     <use style="fill:#ff7f0e;stroke:#ff7f0e;" x="272.802788" xlink:href="#m72d24387b6" y="108.94937"/>
     <use style="fill:#ff7f0e;stroke:#ff7f0e;" x="276.032731" xlink:href="#m72d24387b6" y="105.719648"/>
     <use style="fill:#ff7f0e;stroke:#ff7f0e;" x="279.262675" xlink:href="#m72d24387b6" y="108.122248"/>
     <use style="fill:#ff7f0e;stroke:#ff7f0e;" x="282.492618" xlink:href="#m72d24387b6" y="108.94937"/>
     <use style="fill:#ff7f0e;stroke:#ff7f0e;" x="285.722562" xlink:href="#m72d24387b6" y="111.411303"/>
     <use style="fill:#ff7f0e;stroke:#ff7f0e;" x="288.952505" xlink:href="#m72d24387b6" y="110.695753"/>
     <use style="fill:#ff7f0e;stroke:#ff7f0e;" x="292.182449" xlink:href="#m72d24387b6" y="119.207589"/>
     <use style="fill:#ff7f0e;stroke:#ff7f0e;" x="295.412392" xlink:href="#m72d24387b6" y="123.464121"/>
     <use style="fill:#ff7f0e;stroke:#ff7f0e;" x="298.642336" xlink:href="#m72d24387b6" y="110.595275"/>
     <use style="fill:#ff7f0e;stroke:#ff7f0e;" x="301.872279" xlink:href="#m72d24387b6" y="114.989798"/>
     <use style="fill:#ff7f0e;stroke:#ff7f0e;" x="305.102223" xlink:href="#m72d24387b6" y="117.004841"/>
     <use style="fill:#ff7f0e;stroke:#ff7f0e;" x="308.332166" xlink:href="#m72d24387b6" y="124.705133"/>
     <use style="fill:#ff7f0e;stroke:#ff7f0e;" x="311.56211" xlink:href="#m72d24387b6" y="129.092228"/>
     <use style="fill:#ff7f0e;stroke:#ff7f0e;" x="314.792053" xlink:href="#m72d24387b6" y="146.386819"/>
     <use style="fill:#ff7f0e;stroke:#ff7f0e;" x="318.021997" xlink:href="#m72d24387b6" y="197.485512"/>
     <use style="fill:#ff7f0e;stroke:#ff7f0e;" x="318.950669" xlink:href="#m72d24387b6" y="15875.1325"/>
    </g>
   </g>
   <g id="line2d_61">
    <path clip-path="url(#pce643575ca)" d="M 111.604642 221.474063 
L 114.535555 201.799687 
L 117.765498 187.891213 
L 120.995442 190.678249 
L 124.225385 168.996563 
L 127.455329 164.682388 
L 130.685272 149.28789 
L 133.915216 150.339728 
L 137.14516 147.314877 
L 140.375103 135.609151 
L 143.605047 132.12704 
L 146.83499 126.40277 
L 150.064934 116.102076 
L 153.294877 113.021614 
L 156.524821 107.942305 
L 159.754764 105.883402 
L 162.984708 103.242884 
L 166.214651 99.827391 
L 169.444595 96.509221 
L 172.674538 93.502068 
L 175.904482 93.74677 
L 179.134425 93.404891 
L 182.364369 90.106215 
L 185.594312 90.022007 
L 188.824256 88.993937 
L 192.054199 90.877886 
L 195.284143 91.317721 
L 198.514087 92.176624 
L 201.74403 91.856547 
L 204.973974 90.574794 
L 208.203917 90.574794 
L 211.433861 92.877439 
L 214.663804 96.016805 
L 217.893748 98.169421 
L 221.123691 100.603279 
L 224.353635 100.537641 
L 227.583578 99.827391 
L 230.813522 101.886294 
L 234.043465 104.682005 
L 237.273409 105.395499 
L 240.503352 104.448875 
L 243.733296 105.155269 
L 246.963239 110.495222 
L 250.193183 111.515314 
L 253.423126 109.326469 
L 256.65307 113.357258 
L 259.883014 112.149167 
L 263.112957 114.393735 
L 266.342901 115.232492 
L 269.572844 117.004841 
L 272.802788 119.207589 
L 276.032731 122.951557 
L 279.262675 124.523811 
L 282.492618 125.072 
L 285.722562 127.401333 
L 288.952505 128.23168 
L 292.182449 133.670791 
L 295.412392 136.79252 
L 298.642336 133.144937 
L 301.872279 138.686527 
L 305.102223 144.214427 
L 308.332166 151.440506 
L 311.56211 152.010713 
L 314.792053 159.402264 
L 315.528017 160.834841 
" style="fill:none;stroke:#2ca02c;stroke-linecap:square;stroke-width:1.5;"/>
    <defs>
     <path d="M 0 1.5 
C 0.397805 1.5 0.77937 1.341951 1.06066 1.06066 
C 1.341951 0.77937 1.5 0.397805 1.5 0 
C 1.5 -0.397805 1.341951 -0.77937 1.06066 -1.06066 
C 0.77937 -1.341951 0.397805 -1.5 0 -1.5 
C -0.397805 -1.5 -0.77937 -1.341951 -1.06066 -1.06066 
C -1.341951 -0.77937 -1.5 -0.397805 -1.5 0 
C -1.5 0.397805 -1.341951 0.77937 -1.06066 1.06066 
C -0.77937 1.341951 -0.397805 1.5 0 1.5 
z
" id="m72eb44fb01" style="stroke:#2ca02c;"/>
    </defs>
    <g clip-path="url(#pce643575ca)">
     <use style="fill:#2ca02c;stroke:#2ca02c;" x="100.688899" xlink:href="#m72eb44fb01" y="15875.1325"/>
     <use style="fill:#2ca02c;stroke:#2ca02c;" x="101.615781" xlink:href="#m72eb44fb01" y="239.882935"/>
     <use style="fill:#2ca02c;stroke:#2ca02c;" x="102.542662" xlink:href="#m72eb44fb01" y="15875.1325"/>
     <use style="fill:#2ca02c;stroke:#2ca02c;" x="110.378037" xlink:href="#m72eb44fb01" y="15875.1325"/>
     <use style="fill:#2ca02c;stroke:#2ca02c;" x="111.305611" xlink:href="#m72eb44fb01" y="223.481373"/>
     <use style="fill:#2ca02c;stroke:#2ca02c;" x="114.535555" xlink:href="#m72eb44fb01" y="201.799687"/>
     <use style="fill:#2ca02c;stroke:#2ca02c;" x="117.765498" xlink:href="#m72eb44fb01" y="187.891213"/>
     <use style="fill:#2ca02c;stroke:#2ca02c;" x="120.995442" xlink:href="#m72eb44fb01" y="190.678249"/>
     <use style="fill:#2ca02c;stroke:#2ca02c;" x="124.225385" xlink:href="#m72eb44fb01" y="168.996563"/>
     <use style="fill:#2ca02c;stroke:#2ca02c;" x="127.455329" xlink:href="#m72eb44fb01" y="164.682388"/>
     <use style="fill:#2ca02c;stroke:#2ca02c;" x="130.685272" xlink:href="#m72eb44fb01" y="149.28789"/>
     <use style="fill:#2ca02c;stroke:#2ca02c;" x="133.915216" xlink:href="#m72eb44fb01" y="150.339728"/>
     <use style="fill:#2ca02c;stroke:#2ca02c;" x="137.14516" xlink:href="#m72eb44fb01" y="147.314877"/>
     <use style="fill:#2ca02c;stroke:#2ca02c;" x="140.375103" xlink:href="#m72eb44fb01" y="135.609151"/>
     <use style="fill:#2ca02c;stroke:#2ca02c;" x="143.605047" xlink:href="#m72eb44fb01" y="132.12704"/>
     <use style="fill:#2ca02c;stroke:#2ca02c;" x="146.83499" xlink:href="#m72eb44fb01" y="126.40277"/>
     <use style="fill:#2ca02c;stroke:#2ca02c;" x="150.064934" xlink:href="#m72eb44fb01" y="116.102076"/>
     <use style="fill:#2ca02c;stroke:#2ca02c;" x="153.294877" xlink:href="#m72eb44fb01" y="113.021614"/>
     <use style="fill:#2ca02c;stroke:#2ca02c;" x="156.524821" xlink:href="#m72eb44fb01" y="107.942305"/>
     <use style="fill:#2ca02c;stroke:#2ca02c;" x="159.754764" xlink:href="#m72eb44fb01" y="105.883402"/>
     <use style="fill:#2ca02c;stroke:#2ca02c;" x="162.984708" xlink:href="#m72eb44fb01" y="103.242884"/>
     <use style="fill:#2ca02c;stroke:#2ca02c;" x="166.214651" xlink:href="#m72eb44fb01" y="99.827391"/>
     <use style="fill:#2ca02c;stroke:#2ca02c;" x="169.444595" xlink:href="#m72eb44fb01" y="96.509221"/>
     <use style="fill:#2ca02c;stroke:#2ca02c;" x="172.674538" xlink:href="#m72eb44fb01" y="93.502068"/>
     <use style="fill:#2ca02c;stroke:#2ca02c;" x="175.904482" xlink:href="#m72eb44fb01" y="93.74677"/>
     <use style="fill:#2ca02c;stroke:#2ca02c;" x="179.134425" xlink:href="#m72eb44fb01" y="93.404891"/>
     <use style="fill:#2ca02c;stroke:#2ca02c;" x="182.364369" xlink:href="#m72eb44fb01" y="90.106215"/>
     <use style="fill:#2ca02c;stroke:#2ca02c;" x="185.594312" xlink:href="#m72eb44fb01" y="90.022007"/>
     <use style="fill:#2ca02c;stroke:#2ca02c;" x="188.824256" xlink:href="#m72eb44fb01" y="88.993937"/>
     <use style="fill:#2ca02c;stroke:#2ca02c;" x="192.054199" xlink:href="#m72eb44fb01" y="90.877886"/>
     <use style="fill:#2ca02c;stroke:#2ca02c;" x="195.284143" xlink:href="#m72eb44fb01" y="91.317721"/>
     <use style="fill:#2ca02c;stroke:#2ca02c;" x="198.514087" xlink:href="#m72eb44fb01" y="92.176624"/>
     <use style="fill:#2ca02c;stroke:#2ca02c;" x="201.74403" xlink:href="#m72eb44fb01" y="91.856547"/>
     <use style="fill:#2ca02c;stroke:#2ca02c;" x="204.973974" xlink:href="#m72eb44fb01" y="90.574794"/>
     <use style="fill:#2ca02c;stroke:#2ca02c;" x="208.203917" xlink:href="#m72eb44fb01" y="90.574794"/>
     <use style="fill:#2ca02c;stroke:#2ca02c;" x="211.433861" xlink:href="#m72eb44fb01" y="92.877439"/>
     <use style="fill:#2ca02c;stroke:#2ca02c;" x="214.663804" xlink:href="#m72eb44fb01" y="96.016805"/>
     <use style="fill:#2ca02c;stroke:#2ca02c;" x="217.893748" xlink:href="#m72eb44fb01" y="98.169421"/>
     <use style="fill:#2ca02c;stroke:#2ca02c;" x="221.123691" xlink:href="#m72eb44fb01" y="100.603279"/>
     <use style="fill:#2ca02c;stroke:#2ca02c;" x="224.353635" xlink:href="#m72eb44fb01" y="100.537641"/>
     <use style="fill:#2ca02c;stroke:#2ca02c;" x="227.583578" xlink:href="#m72eb44fb01" y="99.827391"/>
     <use style="fill:#2ca02c;stroke:#2ca02c;" x="230.813522" xlink:href="#m72eb44fb01" y="101.886294"/>
     <use style="fill:#2ca02c;stroke:#2ca02c;" x="234.043465" xlink:href="#m72eb44fb01" y="104.682005"/>
     <use style="fill:#2ca02c;stroke:#2ca02c;" x="237.273409" xlink:href="#m72eb44fb01" y="105.395499"/>
     <use style="fill:#2ca02c;stroke:#2ca02c;" x="240.503352" xlink:href="#m72eb44fb01" y="104.448875"/>
     <use style="fill:#2ca02c;stroke:#2ca02c;" x="243.733296" xlink:href="#m72eb44fb01" y="105.155269"/>
     <use style="fill:#2ca02c;stroke:#2ca02c;" x="246.963239" xlink:href="#m72eb44fb01" y="110.495222"/>
     <use style="fill:#2ca02c;stroke:#2ca02c;" x="250.193183" xlink:href="#m72eb44fb01" y="111.515314"/>
     <use style="fill:#2ca02c;stroke:#2ca02c;" x="253.423126" xlink:href="#m72eb44fb01" y="109.326469"/>
     <use style="fill:#2ca02c;stroke:#2ca02c;" x="256.65307" xlink:href="#m72eb44fb01" y="113.357258"/>
     <use style="fill:#2ca02c;stroke:#2ca02c;" x="259.883014" xlink:href="#m72eb44fb01" y="112.149167"/>
     <use style="fill:#2ca02c;stroke:#2ca02c;" x="263.112957" xlink:href="#m72eb44fb01" y="114.393735"/>
     <use style="fill:#2ca02c;stroke:#2ca02c;" x="266.342901" xlink:href="#m72eb44fb01" y="115.232492"/>
     <use style="fill:#2ca02c;stroke:#2ca02c;" x="269.572844" xlink:href="#m72eb44fb01" y="117.004841"/>
     <use style="fill:#2ca02c;stroke:#2ca02c;" x="272.802788" xlink:href="#m72eb44fb01" y="119.207589"/>
     <use style="fill:#2ca02c;stroke:#2ca02c;" x="276.032731" xlink:href="#m72eb44fb01" y="122.951557"/>
     <use style="fill:#2ca02c;stroke:#2ca02c;" x="279.262675" xlink:href="#m72eb44fb01" y="124.523811"/>
     <use style="fill:#2ca02c;stroke:#2ca02c;" x="282.492618" xlink:href="#m72eb44fb01" y="125.072"/>
     <use style="fill:#2ca02c;stroke:#2ca02c;" x="285.722562" xlink:href="#m72eb44fb01" y="127.401333"/>
     <use style="fill:#2ca02c;stroke:#2ca02c;" x="288.952505" xlink:href="#m72eb44fb01" y="128.23168"/>
     <use style="fill:#2ca02c;stroke:#2ca02c;" x="292.182449" xlink:href="#m72eb44fb01" y="133.670791"/>
     <use style="fill:#2ca02c;stroke:#2ca02c;" x="295.412392" xlink:href="#m72eb44fb01" y="136.79252"/>
     <use style="fill:#2ca02c;stroke:#2ca02c;" x="298.642336" xlink:href="#m72eb44fb01" y="133.144937"/>
     <use style="fill:#2ca02c;stroke:#2ca02c;" x="301.872279" xlink:href="#m72eb44fb01" y="138.686527"/>
     <use style="fill:#2ca02c;stroke:#2ca02c;" x="305.102223" xlink:href="#m72eb44fb01" y="144.214427"/>
     <use style="fill:#2ca02c;stroke:#2ca02c;" x="308.332166" xlink:href="#m72eb44fb01" y="151.440506"/>
     <use style="fill:#2ca02c;stroke:#2ca02c;" x="311.56211" xlink:href="#m72eb44fb01" y="152.010713"/>
     <use style="fill:#2ca02c;stroke:#2ca02c;" x="314.792053" xlink:href="#m72eb44fb01" y="159.402264"/>
     <use style="fill:#2ca02c;stroke:#2ca02c;" x="318.021997" xlink:href="#m72eb44fb01" y="165.689453"/>
     <use style="fill:#2ca02c;stroke:#2ca02c;" x="318.952011" xlink:href="#m72eb44fb01" y="15875.1325"/>
    </g>
   </g>
   <g id="patch_3">
    <path d="M 53.328125 185.398125 
L 53.328125 22.318125 
" style="fill:none;stroke:#000000;stroke-linecap:square;stroke-linejoin:miter;stroke-width:0.8;"/>
   </g>
   <g id="patch_4">
    <path d="M 304.428125 185.398125 
L 304.428125 22.318125 
" style="fill:none;stroke:#000000;stroke-linecap:square;stroke-linejoin:miter;stroke-width:0.8;"/>
   </g>
   <g id="patch_5">
    <path d="M 53.328125 185.398125 
L 304.428125 185.398125 
" style="fill:none;stroke:#000000;stroke-linecap:square;stroke-linejoin:miter;stroke-width:0.8;"/>
   </g>
   <g id="patch_6">
    <path d="M 53.328125 22.318125 
L 304.428125 22.318125 
" style="fill:none;stroke:#000000;stroke-linecap:square;stroke-linejoin:miter;stroke-width:0.8;"/>
   </g>
   <g id="text_22">
    <!-- COVID-19 in NYC -->
    <defs>
     <path d="M 64.40625 67.28125 
L 64.40625 56.890625 
Q 59.421875 61.53125 53.78125 63.8125 
Q 48.140625 66.109375 41.796875 66.109375 
Q 29.296875 66.109375 22.65625 58.46875 
Q 16.015625 50.828125 16.015625 36.375 
Q 16.015625 21.96875 22.65625 14.328125 
Q 29.296875 6.6875 41.796875 6.6875 
Q 48.140625 6.6875 53.78125 8.984375 
Q 59.421875 11.28125 64.40625 15.921875 
L 64.40625 5.609375 
Q 59.234375 2.09375 53.4375 0.328125 
Q 47.65625 -1.421875 41.21875 -1.421875 
Q 24.65625 -1.421875 15.125 8.703125 
Q 5.609375 18.84375 5.609375 36.375 
Q 5.609375 53.953125 15.125 64.078125 
Q 24.65625 74.21875 41.21875 74.21875 
Q 47.75 74.21875 53.53125 72.484375 
Q 59.328125 70.75 64.40625 67.28125 
z
" id="DejaVuSans-67"/>
     <path d="M 39.40625 66.21875 
Q 28.65625 66.21875 22.328125 58.203125 
Q 16.015625 50.203125 16.015625 36.375 
Q 16.015625 22.609375 22.328125 14.59375 
Q 28.65625 6.59375 39.40625 6.59375 
Q 50.140625 6.59375 56.421875 14.59375 
Q 62.703125 22.609375 62.703125 36.375 
Q 62.703125 50.203125 56.421875 58.203125 
Q 50.140625 66.21875 39.40625 66.21875 
z
M 39.40625 74.21875 
Q 54.734375 74.21875 63.90625 63.9375 
Q 73.09375 53.65625 73.09375 36.375 
Q 73.09375 19.140625 63.90625 8.859375 
Q 54.734375 -1.421875 39.40625 -1.421875 
Q 24.03125 -1.421875 14.8125 8.828125 
Q 5.609375 19.09375 5.609375 36.375 
Q 5.609375 53.65625 14.8125 63.9375 
Q 24.03125 74.21875 39.40625 74.21875 
z
" id="DejaVuSans-79"/>
     <path d="M 28.609375 0 
L 0.78125 72.90625 
L 11.078125 72.90625 
L 34.1875 11.53125 
L 57.328125 72.90625 
L 67.578125 72.90625 
L 39.796875 0 
z
" id="DejaVuSans-86"/>
     <path d="M 9.8125 72.90625 
L 19.671875 72.90625 
L 19.671875 0 
L 9.8125 0 
z
" id="DejaVuSans-73"/>
     <path d="M 4.890625 31.390625 
L 31.203125 31.390625 
L 31.203125 23.390625 
L 4.890625 23.390625 
z
" id="DejaVuSans-45"/>
     <path d="M 9.8125 72.90625 
L 23.09375 72.90625 
L 55.421875 11.921875 
L 55.421875 72.90625 
L 64.984375 72.90625 
L 64.984375 0 
L 51.703125 0 
L 19.390625 60.984375 
L 19.390625 0 
L 9.8125 0 
z
" id="DejaVuSans-78"/>
     <path d="M -0.203125 72.90625 
L 10.40625 72.90625 
L 30.609375 42.921875 
L 50.6875 72.90625 
L 61.28125 72.90625 
L 35.5 34.71875 
L 35.5 0 
L 25.59375 0 
L 25.59375 34.71875 
z
" id="DejaVuSans-89"/>
    </defs>
    <g transform="translate(128.050625 16.318125)scale(0.12 -0.12)">
     <use xlink:href="#DejaVuSans-67"/>
     <use x="69.824219" xlink:href="#DejaVuSans-79"/>
     <use x="148.519531" xlink:href="#DejaVuSans-86"/>
     <use x="216.927734" xlink:href="#DejaVuSans-73"/>
     <use x="246.419922" xlink:href="#DejaVuSans-68"/>
     <use x="323.421875" xlink:href="#DejaVuSans-45"/>
     <use x="359.505859" xlink:href="#DejaVuSans-49"/>
     <use x="423.128906" xlink:href="#DejaVuSans-57"/>
     <use x="486.751953" xlink:href="#DejaVuSans-32"/>
     <use x="518.539062" xlink:href="#DejaVuSans-105"/>
     <use x="546.322266" xlink:href="#DejaVuSans-110"/>
     <use x="609.701172" xlink:href="#DejaVuSans-32"/>
     <use x="641.488281" xlink:href="#DejaVuSans-78"/>
     <use x="716.292969" xlink:href="#DejaVuSans-89"/>
     <use x="777.298828" xlink:href="#DejaVuSans-67"/>
    </g>
   </g>
   <g id="legend_1">
    <g id="patch_7">
     <path d="M 186.107813 180.398125 
L 297.428125 180.398125 
Q 299.428125 180.398125 299.428125 178.398125 
L 299.428125 135.36375 
Q 299.428125 133.36375 297.428125 133.36375 
L 186.107813 133.36375 
Q 184.107813 133.36375 184.107813 135.36375 
L 184.107813 178.398125 
Q 184.107813 180.398125 186.107813 180.398125 
z
" style="fill:#ffffff;opacity:0.8;stroke:#cccccc;stroke-linejoin:miter;"/>
    </g>
    <g id="line2d_62">
     <path d="M 188.107813 141.462187 
L 208.107813 141.462187 
" style="fill:none;stroke:#1f77b4;stroke-linecap:square;stroke-width:1.5;"/>
    </g>
    <g id="line2d_63">
     <g>
      <use style="fill:#1f77b4;stroke:#1f77b4;" x="198.107813" xlink:href="#me26c396b53" y="141.462187"/>
     </g>
    </g>
    <g id="text_23">
     <!-- Cases -->
     <g transform="translate(216.107813 144.962187)scale(0.1 -0.1)">
      <use xlink:href="#DejaVuSans-67"/>
      <use x="69.824219" xlink:href="#DejaVuSans-97"/>
      <use x="131.103516" xlink:href="#DejaVuSans-115"/>
      <use x="183.203125" xlink:href="#DejaVuSans-101"/>
      <use x="244.726562" xlink:href="#DejaVuSans-115"/>
     </g>
    </g>
    <g id="line2d_64">
     <path d="M 188.107813 156.140312 
L 208.107813 156.140312 
" style="fill:none;stroke:#ff7f0e;stroke-linecap:square;stroke-width:1.5;"/>
    </g>
    <g id="line2d_65">
     <g>
      <use style="fill:#ff7f0e;stroke:#ff7f0e;" x="198.107813" xlink:href="#m72d24387b6" y="156.140312"/>
     </g>
    </g>
    <g id="text_24">
     <!-- Hospitalizations -->
     <defs>
      <path d="M 9.8125 72.90625 
L 19.671875 72.90625 
L 19.671875 43.015625 
L 55.515625 43.015625 
L 55.515625 72.90625 
L 65.375 72.90625 
L 65.375 0 
L 55.515625 0 
L 55.515625 34.71875 
L 19.671875 34.71875 
L 19.671875 0 
L 9.8125 0 
z
" id="DejaVuSans-72"/>
      <path d="M 5.515625 54.6875 
L 48.1875 54.6875 
L 48.1875 46.484375 
L 14.40625 7.171875 
L 48.1875 7.171875 
L 48.1875 0 
L 4.296875 0 
L 4.296875 8.203125 
L 38.09375 47.515625 
L 5.515625 47.515625 
z
" id="DejaVuSans-122"/>
     </defs>
     <g transform="translate(216.107813 159.640312)scale(0.1 -0.1)">
      <use xlink:href="#DejaVuSans-72"/>
      <use x="75.195312" xlink:href="#DejaVuSans-111"/>
      <use x="136.376953" xlink:href="#DejaVuSans-115"/>
      <use x="188.476562" xlink:href="#DejaVuSans-112"/>
      <use x="251.953125" xlink:href="#DejaVuSans-105"/>
      <use x="279.736328" xlink:href="#DejaVuSans-116"/>
      <use x="318.945312" xlink:href="#DejaVuSans-97"/>
      <use x="380.224609" xlink:href="#DejaVuSans-108"/>
      <use x="408.007812" xlink:href="#DejaVuSans-105"/>
      <use x="435.791016" xlink:href="#DejaVuSans-122"/>
      <use x="488.28125" xlink:href="#DejaVuSans-97"/>
      <use x="549.560547" xlink:href="#DejaVuSans-116"/>
      <use x="588.769531" xlink:href="#DejaVuSans-105"/>
      <use x="616.552734" xlink:href="#DejaVuSans-111"/>
      <use x="677.734375" xlink:href="#DejaVuSans-110"/>
      <use x="741.113281" xlink:href="#DejaVuSans-115"/>
     </g>
    </g>
    <g id="line2d_66">
     <path d="M 188.107813 170.818438 
L 208.107813 170.818438 
" style="fill:none;stroke:#2ca02c;stroke-linecap:square;stroke-width:1.5;"/>
    </g>
    <g id="line2d_67">
     <g>
      <use style="fill:#2ca02c;stroke:#2ca02c;" x="198.107813" xlink:href="#m72eb44fb01" y="170.818438"/>
     </g>
    </g>
    <g id="text_25">
     <!-- Deaths -->
     <defs>
      <path d="M 54.890625 33.015625 
L 54.890625 0 
L 45.90625 0 
L 45.90625 32.71875 
Q 45.90625 40.484375 42.875 44.328125 
Q 39.84375 48.1875 33.796875 48.1875 
Q 26.515625 48.1875 22.3125 43.546875 
Q 18.109375 38.921875 18.109375 30.90625 
L 18.109375 0 
L 9.078125 0 
L 9.078125 75.984375 
L 18.109375 75.984375 
L 18.109375 46.1875 
Q 21.34375 51.125 25.703125 53.5625 
Q 30.078125 56 35.796875 56 
Q 45.21875 56 50.046875 50.171875 
Q 54.890625 44.34375 54.890625 33.015625 
z
" id="DejaVuSans-104"/>
     </defs>
     <g transform="translate(216.107813 174.318438)scale(0.1 -0.1)">
      <use xlink:href="#DejaVuSans-68"/>
      <use x="77.001953" xlink:href="#DejaVuSans-101"/>
      <use x="138.525391" xlink:href="#DejaVuSans-97"/>
      <use x="199.804688" xlink:href="#DejaVuSans-116"/>
      <use x="239.013672" xlink:href="#DejaVuSans-104"/>
      <use x="302.392578" xlink:href="#DejaVuSans-115"/>
     </g>
    </g>
   </g>
  </g>
 </g>
 <defs>
  <clipPath id="pce643575ca">
   <rect height="163.08" width="251.1" x="53.328125" y="22.318125"/>
  </clipPath>
 </defs>
</svg>
