<?xml version="1.0" encoding="utf-8" standalone="no"?>
<!DOCTYPE svg PUBLIC "-//W3C//DTD SVG 1.1//EN"
  "http://www.w3.org/Graphics/SVG/1.1/DTD/svg11.dtd">
<!-- Created with matplotlib (https://matplotlib.org/) -->
<svg height="220.474063pt" version="1.1" viewBox="0 0 311.628125 220.474063" width="311.628125pt" xmlns="http://www.w3.org/2000/svg" xmlns:xlink="http://www.w3.org/1999/xlink">
 <defs>
  <style type="text/css">
*{stroke-linecap:butt;stroke-linejoin:round;}
  </style>
 </defs>
 <g id="figure_1">
  <g id="patch_1">
   <path d="M 0 220.474063 
L 311.628125 220.474063 
L 311.628125 0 
L 0 0 
z
" style="fill:#ffffff;"/>
  </g>
  <g id="axes_1">
   <g id="patch_2">
    <path d="M 53.328125 185.398125 
L 304.428125 185.398125 
L 304.428125 22.318125 
L 53.328125 22.318125 
z
" style="fill:#ffffff;"/>
   </g>
   <g id="matplotlib.axis_1">
    <g id="xtick_1">
     <g id="line2d_1">
      <path clip-path="url(#p043040f551)" d="M 56.915811 185.398125 
L 56.915811 22.318125 
" style="fill:none;stroke:#b0b0b0;stroke-linecap:square;stroke-opacity:0.6;stroke-width:0.8;"/>
     </g>
     <g id="line2d_2">
      <defs>
       <path d="M 0 0 
L 0 3.5 
" id="m677c17399b" style="stroke:#000000;stroke-width:0.8;"/>
      </defs>
      <g>
       <use style="stroke:#000000;stroke-width:0.8;" x="56.915811" xlink:href="#m677c17399b" y="185.398125"/>
      </g>
     </g>
     <g id="text_1">
      <!-- Mar. -->
      <defs>
       <path d="M 9.8125 72.90625 
L 24.515625 72.90625 
L 43.109375 23.296875 
L 61.8125 72.90625 
L 76.515625 72.90625 
L 76.515625 0 
L 66.890625 0 
L 66.890625 64.015625 
L 48.09375 14.015625 
L 38.1875 14.015625 
L 19.390625 64.015625 
L 19.390625 0 
L 9.8125 0 
z
" id="DejaVuSans-77"/>
       <path d="M 34.28125 27.484375 
Q 23.390625 27.484375 19.1875 25 
Q 14.984375 22.515625 14.984375 16.5 
Q 14.984375 11.71875 18.140625 8.90625 
Q 21.296875 6.109375 26.703125 6.109375 
Q 34.1875 6.109375 38.703125 11.40625 
Q 43.21875 16.703125 43.21875 25.484375 
L 43.21875 27.484375 
z
M 52.203125 31.203125 
L 52.203125 0 
L 43.21875 0 
L 43.21875 8.296875 
Q 40.140625 3.328125 35.546875 0.953125 
Q 30.953125 -1.421875 24.3125 -1.421875 
Q 15.921875 -1.421875 10.953125 3.296875 
Q 6 8.015625 6 15.921875 
Q 6 25.140625 12.171875 29.828125 
Q 18.359375 34.515625 30.609375 34.515625 
L 43.21875 34.515625 
L 43.21875 35.40625 
Q 43.21875 41.609375 39.140625 45 
Q 35.0625 48.390625 27.6875 48.390625 
Q 23 48.390625 18.546875 47.265625 
Q 14.109375 46.140625 10.015625 43.890625 
L 10.015625 52.203125 
Q 14.9375 54.109375 19.578125 55.046875 
Q 24.21875 56 28.609375 56 
Q 40.484375 56 46.34375 49.84375 
Q 52.203125 43.703125 52.203125 31.203125 
z
" id="DejaVuSans-97"/>
       <path d="M 41.109375 46.296875 
Q 39.59375 47.171875 37.8125 47.578125 
Q 36.03125 48 33.890625 48 
Q 26.265625 48 22.1875 43.046875 
Q 18.109375 38.09375 18.109375 28.8125 
L 18.109375 0 
L 9.078125 0 
L 9.078125 54.6875 
L 18.109375 54.6875 
L 18.109375 46.1875 
Q 20.953125 51.171875 25.484375 53.578125 
Q 30.03125 56 36.53125 56 
Q 37.453125 56 38.578125 55.875 
Q 39.703125 55.765625 41.0625 55.515625 
z
" id="DejaVuSans-114"/>
       <path d="M 10.6875 12.40625 
L 21 12.40625 
L 21 0 
L 10.6875 0 
z
" id="DejaVuSans-46"/>
      </defs>
      <g transform="translate(45.900186 199.996563)scale(0.1 -0.1)">
       <use xlink:href="#DejaVuSans-77"/>
       <use x="86.279297" xlink:href="#DejaVuSans-97"/>
       <use x="147.558594" xlink:href="#DejaVuSans-114"/>
       <use x="188.53125" xlink:href="#DejaVuSans-46"/>
      </g>
      <!-- 01 -->
      <defs>
       <path d="M 31.78125 66.40625 
Q 24.171875 66.40625 20.328125 58.90625 
Q 16.5 51.421875 16.5 36.375 
Q 16.5 21.390625 20.328125 13.890625 
Q 24.171875 6.390625 31.78125 6.390625 
Q 39.453125 6.390625 43.28125 13.890625 
Q 47.125 21.390625 47.125 36.375 
Q 47.125 51.421875 43.28125 58.90625 
Q 39.453125 66.40625 31.78125 66.40625 
z
M 31.78125 74.21875 
Q 44.046875 74.21875 50.515625 64.515625 
Q 56.984375 54.828125 56.984375 36.375 
Q 56.984375 17.96875 50.515625 8.265625 
Q 44.046875 -1.421875 31.78125 -1.421875 
Q 19.53125 -1.421875 13.0625 8.265625 
Q 6.59375 17.96875 6.59375 36.375 
Q 6.59375 54.828125 13.0625 64.515625 
Q 19.53125 74.21875 31.78125 74.21875 
z
" id="DejaVuSans-48"/>
       <path d="M 12.40625 8.296875 
L 28.515625 8.296875 
L 28.515625 63.921875 
L 10.984375 60.40625 
L 10.984375 69.390625 
L 28.421875 72.90625 
L 38.28125 72.90625 
L 38.28125 8.296875 
L 54.390625 8.296875 
L 54.390625 0 
L 12.40625 0 
z
" id="DejaVuSans-49"/>
      </defs>
      <g transform="translate(50.553311 211.194375)scale(0.1 -0.1)">
       <use xlink:href="#DejaVuSans-48"/>
       <use x="63.623047" xlink:href="#DejaVuSans-49"/>
      </g>
     </g>
    </g>
    <g id="xtick_2">
     <g id="line2d_3">
      <path clip-path="url(#p043040f551)" d="M 90.400879 185.398125 
L 90.400879 22.318125 
" style="fill:none;stroke:#b0b0b0;stroke-linecap:square;stroke-opacity:0.6;stroke-width:0.8;"/>
     </g>
     <g id="line2d_4">
      <g>
       <use style="stroke:#000000;stroke-width:0.8;" x="90.400879" xlink:href="#m677c17399b" y="185.398125"/>
      </g>
     </g>
     <g id="text_2">
      <!-- Mar. -->
      <g transform="translate(79.385254 199.996563)scale(0.1 -0.1)">
       <use xlink:href="#DejaVuSans-77"/>
       <use x="86.279297" xlink:href="#DejaVuSans-97"/>
       <use x="147.558594" xlink:href="#DejaVuSans-114"/>
       <use x="188.53125" xlink:href="#DejaVuSans-46"/>
      </g>
      <!-- 08 -->
      <defs>
       <path d="M 31.78125 34.625 
Q 24.75 34.625 20.71875 30.859375 
Q 16.703125 27.09375 16.703125 20.515625 
Q 16.703125 13.921875 20.71875 10.15625 
Q 24.75 6.390625 31.78125 6.390625 
Q 38.8125 6.390625 42.859375 10.171875 
Q 46.921875 13.96875 46.921875 20.515625 
Q 46.921875 27.09375 42.890625 30.859375 
Q 38.875 34.625 31.78125 34.625 
z
M 21.921875 38.8125 
Q 15.578125 40.375 12.03125 44.71875 
Q 8.5 49.078125 8.5 55.328125 
Q 8.5 64.0625 14.71875 69.140625 
Q 20.953125 74.21875 31.78125 74.21875 
Q 42.671875 74.21875 48.875 69.140625 
Q 55.078125 64.0625 55.078125 55.328125 
Q 55.078125 49.078125 51.53125 44.71875 
Q 48 40.375 41.703125 38.8125 
Q 48.828125 37.15625 52.796875 32.3125 
Q 56.78125 27.484375 56.78125 20.515625 
Q 56.78125 9.90625 50.3125 4.234375 
Q 43.84375 -1.421875 31.78125 -1.421875 
Q 19.734375 -1.421875 13.25 4.234375 
Q 6.78125 9.90625 6.78125 20.515625 
Q 6.78125 27.484375 10.78125 32.3125 
Q 14.796875 37.15625 21.921875 38.8125 
z
M 18.3125 54.390625 
Q 18.3125 48.734375 21.84375 45.5625 
Q 25.390625 42.390625 31.78125 42.390625 
Q 38.140625 42.390625 41.71875 45.5625 
Q 45.3125 48.734375 45.3125 54.390625 
Q 45.3125 60.0625 41.71875 63.234375 
Q 38.140625 66.40625 31.78125 66.40625 
Q 25.390625 66.40625 21.84375 63.234375 
Q 18.3125 60.0625 18.3125 54.390625 
z
" id="DejaVuSans-56"/>
      </defs>
      <g transform="translate(84.038379 211.194375)scale(0.1 -0.1)">
       <use xlink:href="#DejaVuSans-48"/>
       <use x="63.623047" xlink:href="#DejaVuSans-56"/>
      </g>
     </g>
    </g>
    <g id="xtick_3">
     <g id="line2d_5">
      <path clip-path="url(#p043040f551)" d="M 123.885948 185.398125 
L 123.885948 22.318125 
" style="fill:none;stroke:#b0b0b0;stroke-linecap:square;stroke-opacity:0.6;stroke-width:0.8;"/>
     </g>
     <g id="line2d_6">
      <g>
       <use style="stroke:#000000;stroke-width:0.8;" x="123.885948" xlink:href="#m677c17399b" y="185.398125"/>
      </g>
     </g>
     <g id="text_3">
      <!-- Mar. -->
      <g transform="translate(112.870323 199.996563)scale(0.1 -0.1)">
       <use xlink:href="#DejaVuSans-77"/>
       <use x="86.279297" xlink:href="#DejaVuSans-97"/>
       <use x="147.558594" xlink:href="#DejaVuSans-114"/>
       <use x="188.53125" xlink:href="#DejaVuSans-46"/>
      </g>
      <!-- 15 -->
      <defs>
       <path d="M 10.796875 72.90625 
L 49.515625 72.90625 
L 49.515625 64.59375 
L 19.828125 64.59375 
L 19.828125 46.734375 
Q 21.96875 47.46875 24.109375 47.828125 
Q 26.265625 48.1875 28.421875 48.1875 
Q 40.625 48.1875 47.75 41.5 
Q 54.890625 34.8125 54.890625 23.390625 
Q 54.890625 11.625 47.5625 5.09375 
Q 40.234375 -1.421875 26.90625 -1.421875 
Q 22.3125 -1.421875 17.546875 -0.640625 
Q 12.796875 0.140625 7.71875 1.703125 
L 7.71875 11.625 
Q 12.109375 9.234375 16.796875 8.0625 
Q 21.484375 6.890625 26.703125 6.890625 
Q 35.15625 6.890625 40.078125 11.328125 
Q 45.015625 15.765625 45.015625 23.390625 
Q 45.015625 31 40.078125 35.4375 
Q 35.15625 39.890625 26.703125 39.890625 
Q 22.75 39.890625 18.8125 39.015625 
Q 14.890625 38.140625 10.796875 36.28125 
z
" id="DejaVuSans-53"/>
      </defs>
      <g transform="translate(117.523448 211.194375)scale(0.1 -0.1)">
       <use xlink:href="#DejaVuSans-49"/>
       <use x="63.623047" xlink:href="#DejaVuSans-53"/>
      </g>
     </g>
    </g>
    <g id="xtick_4">
     <g id="line2d_7">
      <path clip-path="url(#p043040f551)" d="M 157.371016 185.398125 
L 157.371016 22.318125 
" style="fill:none;stroke:#b0b0b0;stroke-linecap:square;stroke-opacity:0.6;stroke-width:0.8;"/>
     </g>
     <g id="line2d_8">
      <g>
       <use style="stroke:#000000;stroke-width:0.8;" x="157.371016" xlink:href="#m677c17399b" y="185.398125"/>
      </g>
     </g>
     <g id="text_4">
      <!-- Mar. -->
      <g transform="translate(146.355391 199.996563)scale(0.1 -0.1)">
       <use xlink:href="#DejaVuSans-77"/>
       <use x="86.279297" xlink:href="#DejaVuSans-97"/>
       <use x="147.558594" xlink:href="#DejaVuSans-114"/>
       <use x="188.53125" xlink:href="#DejaVuSans-46"/>
      </g>
      <!-- 22 -->
      <defs>
       <path d="M 19.1875 8.296875 
L 53.609375 8.296875 
L 53.609375 0 
L 7.328125 0 
L 7.328125 8.296875 
Q 12.9375 14.109375 22.625 23.890625 
Q 32.328125 33.6875 34.8125 36.53125 
Q 39.546875 41.84375 41.421875 45.53125 
Q 43.3125 49.21875 43.3125 52.78125 
Q 43.3125 58.59375 39.234375 62.25 
Q 35.15625 65.921875 28.609375 65.921875 
Q 23.96875 65.921875 18.8125 64.3125 
Q 13.671875 62.703125 7.8125 59.421875 
L 7.8125 69.390625 
Q 13.765625 71.78125 18.9375 73 
Q 24.125 74.21875 28.421875 74.21875 
Q 39.75 74.21875 46.484375 68.546875 
Q 53.21875 62.890625 53.21875 53.421875 
Q 53.21875 48.921875 51.53125 44.890625 
Q 49.859375 40.875 45.40625 35.40625 
Q 44.1875 33.984375 37.640625 27.21875 
Q 31.109375 20.453125 19.1875 8.296875 
z
" id="DejaVuSans-50"/>
      </defs>
      <g transform="translate(151.008516 211.194375)scale(0.1 -0.1)">
       <use xlink:href="#DejaVuSans-50"/>
       <use x="63.623047" xlink:href="#DejaVuSans-50"/>
      </g>
     </g>
    </g>
    <g id="xtick_5">
     <g id="line2d_9">
      <path clip-path="url(#p043040f551)" d="M 190.856084 185.398125 
L 190.856084 22.318125 
" style="fill:none;stroke:#b0b0b0;stroke-linecap:square;stroke-opacity:0.6;stroke-width:0.8;"/>
     </g>
     <g id="line2d_10">
      <g>
       <use style="stroke:#000000;stroke-width:0.8;" x="190.856084" xlink:href="#m677c17399b" y="185.398125"/>
      </g>
     </g>
     <g id="text_5">
      <!-- Mar. -->
      <g transform="translate(179.840459 199.996563)scale(0.1 -0.1)">
       <use xlink:href="#DejaVuSans-77"/>
       <use x="86.279297" xlink:href="#DejaVuSans-97"/>
       <use x="147.558594" xlink:href="#DejaVuSans-114"/>
       <use x="188.53125" xlink:href="#DejaVuSans-46"/>
      </g>
      <!-- 29 -->
      <defs>
       <path d="M 10.984375 1.515625 
L 10.984375 10.5 
Q 14.703125 8.734375 18.5 7.8125 
Q 22.3125 6.890625 25.984375 6.890625 
Q 35.75 6.890625 40.890625 13.453125 
Q 46.046875 20.015625 46.78125 33.40625 
Q 43.953125 29.203125 39.59375 26.953125 
Q 35.25 24.703125 29.984375 24.703125 
Q 19.046875 24.703125 12.671875 31.3125 
Q 6.296875 37.9375 6.296875 49.421875 
Q 6.296875 60.640625 12.9375 67.421875 
Q 19.578125 74.21875 30.609375 74.21875 
Q 43.265625 74.21875 49.921875 64.515625 
Q 56.59375 54.828125 56.59375 36.375 
Q 56.59375 19.140625 48.40625 8.859375 
Q 40.234375 -1.421875 26.421875 -1.421875 
Q 22.703125 -1.421875 18.890625 -0.6875 
Q 15.09375 0.046875 10.984375 1.515625 
z
M 30.609375 32.421875 
Q 37.25 32.421875 41.125 36.953125 
Q 45.015625 41.5 45.015625 49.421875 
Q 45.015625 57.28125 41.125 61.84375 
Q 37.25 66.40625 30.609375 66.40625 
Q 23.96875 66.40625 20.09375 61.84375 
Q 16.21875 57.28125 16.21875 49.421875 
Q 16.21875 41.5 20.09375 36.953125 
Q 23.96875 32.421875 30.609375 32.421875 
z
" id="DejaVuSans-57"/>
      </defs>
      <g transform="translate(184.493584 211.194375)scale(0.1 -0.1)">
       <use xlink:href="#DejaVuSans-50"/>
       <use x="63.623047" xlink:href="#DejaVuSans-57"/>
      </g>
     </g>
    </g>
    <g id="xtick_6">
     <g id="line2d_11">
      <path clip-path="url(#p043040f551)" d="M 224.341153 185.398125 
L 224.341153 22.318125 
" style="fill:none;stroke:#b0b0b0;stroke-linecap:square;stroke-opacity:0.6;stroke-width:0.8;"/>
     </g>
     <g id="line2d_12">
      <g>
       <use style="stroke:#000000;stroke-width:0.8;" x="224.341153" xlink:href="#m677c17399b" y="185.398125"/>
      </g>
     </g>
     <g id="text_6">
      <!-- Apr. -->
      <defs>
       <path d="M 34.1875 63.1875 
L 20.796875 26.90625 
L 47.609375 26.90625 
z
M 28.609375 72.90625 
L 39.796875 72.90625 
L 67.578125 0 
L 57.328125 0 
L 50.6875 18.703125 
L 17.828125 18.703125 
L 11.1875 0 
L 0.78125 0 
z
" id="DejaVuSans-65"/>
       <path d="M 18.109375 8.203125 
L 18.109375 -20.796875 
L 9.078125 -20.796875 
L 9.078125 54.6875 
L 18.109375 54.6875 
L 18.109375 46.390625 
Q 20.953125 51.265625 25.265625 53.625 
Q 29.59375 56 35.59375 56 
Q 45.5625 56 51.78125 48.09375 
Q 58.015625 40.1875 58.015625 27.296875 
Q 58.015625 14.40625 51.78125 6.484375 
Q 45.5625 -1.421875 35.59375 -1.421875 
Q 29.59375 -1.421875 25.265625 0.953125 
Q 20.953125 3.328125 18.109375 8.203125 
z
M 48.6875 27.296875 
Q 48.6875 37.203125 44.609375 42.84375 
Q 40.53125 48.484375 33.40625 48.484375 
Q 26.265625 48.484375 22.1875 42.84375 
Q 18.109375 37.203125 18.109375 27.296875 
Q 18.109375 17.390625 22.1875 11.75 
Q 26.265625 6.109375 33.40625 6.109375 
Q 40.53125 6.109375 44.609375 11.75 
Q 48.6875 17.390625 48.6875 27.296875 
z
" id="DejaVuSans-112"/>
      </defs>
      <g transform="translate(214.109122 199.996563)scale(0.1 -0.1)">
       <use xlink:href="#DejaVuSans-65"/>
       <use x="68.408203" xlink:href="#DejaVuSans-112"/>
       <use x="131.884766" xlink:href="#DejaVuSans-114"/>
       <use x="172.857422" xlink:href="#DejaVuSans-46"/>
      </g>
      <!-- 05 -->
      <g transform="translate(217.978653 211.194375)scale(0.1 -0.1)">
       <use xlink:href="#DejaVuSans-48"/>
       <use x="63.623047" xlink:href="#DejaVuSans-53"/>
      </g>
     </g>
    </g>
    <g id="xtick_7">
     <g id="line2d_13">
      <path clip-path="url(#p043040f551)" d="M 257.826221 185.398125 
L 257.826221 22.318125 
" style="fill:none;stroke:#b0b0b0;stroke-linecap:square;stroke-opacity:0.6;stroke-width:0.8;"/>
     </g>
     <g id="line2d_14">
      <g>
       <use style="stroke:#000000;stroke-width:0.8;" x="257.826221" xlink:href="#m677c17399b" y="185.398125"/>
      </g>
     </g>
     <g id="text_7">
      <!-- Apr. -->
      <g transform="translate(247.59419 199.996563)scale(0.1 -0.1)">
       <use xlink:href="#DejaVuSans-65"/>
       <use x="68.408203" xlink:href="#DejaVuSans-112"/>
       <use x="131.884766" xlink:href="#DejaVuSans-114"/>
       <use x="172.857422" xlink:href="#DejaVuSans-46"/>
      </g>
      <!-- 12 -->
      <g transform="translate(251.463721 211.194375)scale(0.1 -0.1)">
       <use xlink:href="#DejaVuSans-49"/>
       <use x="63.623047" xlink:href="#DejaVuSans-50"/>
      </g>
     </g>
    </g>
    <g id="xtick_8">
     <g id="line2d_15">
      <path clip-path="url(#p043040f551)" d="M 291.31129 185.398125 
L 291.31129 22.318125 
" style="fill:none;stroke:#b0b0b0;stroke-linecap:square;stroke-opacity:0.6;stroke-width:0.8;"/>
     </g>
     <g id="line2d_16">
      <g>
       <use style="stroke:#000000;stroke-width:0.8;" x="291.31129" xlink:href="#m677c17399b" y="185.398125"/>
      </g>
     </g>
     <g id="text_8">
      <!-- Apr. -->
      <g transform="translate(281.079258 199.996563)scale(0.1 -0.1)">
       <use xlink:href="#DejaVuSans-65"/>
       <use x="68.408203" xlink:href="#DejaVuSans-112"/>
       <use x="131.884766" xlink:href="#DejaVuSans-114"/>
       <use x="172.857422" xlink:href="#DejaVuSans-46"/>
      </g>
      <!-- 19 -->
      <g transform="translate(284.94879 211.194375)scale(0.1 -0.1)">
       <use xlink:href="#DejaVuSans-49"/>
       <use x="63.623047" xlink:href="#DejaVuSans-57"/>
      </g>
     </g>
    </g>
   </g>
   <g id="matplotlib.axis_2">
    <g id="ytick_1">
     <g id="line2d_17">
      <path clip-path="url(#p043040f551)" d="M 53.328125 185.398125 
L 304.428125 185.398125 
" style="fill:none;stroke:#b0b0b0;stroke-linecap:square;stroke-opacity:0.6;stroke-width:0.8;"/>
     </g>
     <g id="line2d_18">
      <defs>
       <path d="M 0 0 
L -3.5 0 
" id="m06f3c4bea2" style="stroke:#000000;stroke-width:0.8;"/>
      </defs>
      <g>
       <use style="stroke:#000000;stroke-width:0.8;" x="53.328125" xlink:href="#m06f3c4bea2" y="185.398125"/>
      </g>
     </g>
     <g id="text_9">
      <!-- 10 -->
      <g transform="translate(33.603125 189.197344)scale(0.1 -0.1)">
       <use xlink:href="#DejaVuSans-49"/>
       <use x="63.623047" xlink:href="#DejaVuSans-48"/>
      </g>
     </g>
    </g>
    <g id="ytick_2">
     <g id="line2d_19">
      <path clip-path="url(#p043040f551)" d="M 53.328125 168.936232 
L 304.428125 168.936232 
" style="fill:none;stroke:#b0b0b0;stroke-linecap:square;stroke-opacity:0.6;stroke-width:0.8;"/>
     </g>
     <g id="line2d_20">
      <g>
       <use style="stroke:#000000;stroke-width:0.8;" x="53.328125" xlink:href="#m06f3c4bea2" y="168.936232"/>
      </g>
     </g>
     <g id="text_10">
      <!-- 20 -->
      <g transform="translate(33.603125 172.735451)scale(0.1 -0.1)">
       <use xlink:href="#DejaVuSans-50"/>
       <use x="63.623047" xlink:href="#DejaVuSans-48"/>
      </g>
     </g>
    </g>
    <g id="ytick_3">
     <g id="line2d_21">
      <path clip-path="url(#p043040f551)" d="M 53.328125 147.174793 
L 304.428125 147.174793 
" style="fill:none;stroke:#b0b0b0;stroke-linecap:square;stroke-opacity:0.6;stroke-width:0.8;"/>
     </g>
     <g id="line2d_22">
      <g>
       <use style="stroke:#000000;stroke-width:0.8;" x="53.328125" xlink:href="#m06f3c4bea2" y="147.174793"/>
      </g>
     </g>
     <g id="text_11">
      <!-- 50 -->
      <g transform="translate(33.603125 150.974012)scale(0.1 -0.1)">
       <use xlink:href="#DejaVuSans-53"/>
       <use x="63.623047" xlink:href="#DejaVuSans-48"/>
      </g>
     </g>
    </g>
    <g id="ytick_4">
     <g id="line2d_23">
      <path clip-path="url(#p043040f551)" d="M 53.328125 130.7129 
L 304.428125 130.7129 
" style="fill:none;stroke:#b0b0b0;stroke-linecap:square;stroke-opacity:0.6;stroke-width:0.8;"/>
     </g>
     <g id="line2d_24">
      <g>
       <use style="stroke:#000000;stroke-width:0.8;" x="53.328125" xlink:href="#m06f3c4bea2" y="130.7129"/>
      </g>
     </g>
     <g id="text_12">
      <!-- 100 -->
      <g transform="translate(27.240625 134.512119)scale(0.1 -0.1)">
       <use xlink:href="#DejaVuSans-49"/>
       <use x="63.623047" xlink:href="#DejaVuSans-48"/>
       <use x="127.246094" xlink:href="#DejaVuSans-48"/>
      </g>
     </g>
    </g>
    <g id="ytick_5">
     <g id="line2d_25">
      <path clip-path="url(#p043040f551)" d="M 53.328125 114.251007 
L 304.428125 114.251007 
" style="fill:none;stroke:#b0b0b0;stroke-linecap:square;stroke-opacity:0.6;stroke-width:0.8;"/>
     </g>
     <g id="line2d_26">
      <g>
       <use style="stroke:#000000;stroke-width:0.8;" x="53.328125" xlink:href="#m06f3c4bea2" y="114.251007"/>
      </g>
     </g>
     <g id="text_13">
      <!-- 200 -->
      <g transform="translate(27.240625 118.050226)scale(0.1 -0.1)">
       <use xlink:href="#DejaVuSans-50"/>
       <use x="63.623047" xlink:href="#DejaVuSans-48"/>
       <use x="127.246094" xlink:href="#DejaVuSans-48"/>
      </g>
     </g>
    </g>
    <g id="ytick_6">
     <g id="line2d_27">
      <path clip-path="url(#p043040f551)" d="M 53.328125 92.489568 
L 304.428125 92.489568 
" style="fill:none;stroke:#b0b0b0;stroke-linecap:square;stroke-opacity:0.6;stroke-width:0.8;"/>
     </g>
     <g id="line2d_28">
      <g>
       <use style="stroke:#000000;stroke-width:0.8;" x="53.328125" xlink:href="#m06f3c4bea2" y="92.489568"/>
      </g>
     </g>
     <g id="text_14">
      <!-- 500 -->
      <g transform="translate(27.240625 96.288787)scale(0.1 -0.1)">
       <use xlink:href="#DejaVuSans-53"/>
       <use x="63.623047" xlink:href="#DejaVuSans-48"/>
       <use x="127.246094" xlink:href="#DejaVuSans-48"/>
      </g>
     </g>
    </g>
    <g id="ytick_7">
     <g id="line2d_29">
      <path clip-path="url(#p043040f551)" d="M 53.328125 76.027675 
L 304.428125 76.027675 
" style="fill:none;stroke:#b0b0b0;stroke-linecap:square;stroke-opacity:0.6;stroke-width:0.8;"/>
     </g>
     <g id="line2d_30">
      <g>
       <use style="stroke:#000000;stroke-width:0.8;" x="53.328125" xlink:href="#m06f3c4bea2" y="76.027675"/>
      </g>
     </g>
     <g id="text_15">
      <!-- 1000 -->
      <g transform="translate(20.878125 79.826894)scale(0.1 -0.1)">
       <use xlink:href="#DejaVuSans-49"/>
       <use x="63.623047" xlink:href="#DejaVuSans-48"/>
       <use x="127.246094" xlink:href="#DejaVuSans-48"/>
       <use x="190.869141" xlink:href="#DejaVuSans-48"/>
      </g>
     </g>
    </g>
    <g id="ytick_8">
     <g id="line2d_31">
      <path clip-path="url(#p043040f551)" d="M 53.328125 59.565782 
L 304.428125 59.565782 
" style="fill:none;stroke:#b0b0b0;stroke-linecap:square;stroke-opacity:0.6;stroke-width:0.8;"/>
     </g>
     <g id="line2d_32">
      <g>
       <use style="stroke:#000000;stroke-width:0.8;" x="53.328125" xlink:href="#m06f3c4bea2" y="59.565782"/>
      </g>
     </g>
     <g id="text_16">
      <!-- 2000 -->
      <g transform="translate(20.878125 63.365001)scale(0.1 -0.1)">
       <use xlink:href="#DejaVuSans-50"/>
       <use x="63.623047" xlink:href="#DejaVuSans-48"/>
       <use x="127.246094" xlink:href="#DejaVuSans-48"/>
       <use x="190.869141" xlink:href="#DejaVuSans-48"/>
      </g>
     </g>
    </g>
    <g id="ytick_9">
     <g id="line2d_33">
      <path clip-path="url(#p043040f551)" d="M 53.328125 37.804343 
L 304.428125 37.804343 
" style="fill:none;stroke:#b0b0b0;stroke-linecap:square;stroke-opacity:0.6;stroke-width:0.8;"/>
     </g>
     <g id="line2d_34">
      <g>
       <use style="stroke:#000000;stroke-width:0.8;" x="53.328125" xlink:href="#m06f3c4bea2" y="37.804343"/>
      </g>
     </g>
     <g id="text_17">
      <!-- 5000 -->
      <g transform="translate(20.878125 41.603562)scale(0.1 -0.1)">
       <use xlink:href="#DejaVuSans-53"/>
       <use x="63.623047" xlink:href="#DejaVuSans-48"/>
       <use x="127.246094" xlink:href="#DejaVuSans-48"/>
       <use x="190.869141" xlink:href="#DejaVuSans-48"/>
      </g>
     </g>
    </g>
    <g id="ytick_10">
     <g id="line2d_35">
      <defs>
       <path d="M 0 0 
L -2 0 
" id="m2382b0ea88" style="stroke:#000000;stroke-width:0.6;"/>
      </defs>
      <g>
       <use style="stroke:#000000;stroke-width:0.6;" x="53.328125" xlink:href="#m2382b0ea88" y="159.306642"/>
      </g>
     </g>
    </g>
    <g id="ytick_11">
     <g id="line2d_36">
      <g>
       <use style="stroke:#000000;stroke-width:0.6;" x="53.328125" xlink:href="#m2382b0ea88" y="152.474339"/>
      </g>
     </g>
    </g>
    <g id="ytick_12">
     <g id="line2d_37">
      <g>
       <use style="stroke:#000000;stroke-width:0.6;" x="53.328125" xlink:href="#m2382b0ea88" y="142.844749"/>
      </g>
     </g>
    </g>
    <g id="ytick_13">
     <g id="line2d_38">
      <g>
       <use style="stroke:#000000;stroke-width:0.6;" x="53.328125" xlink:href="#m2382b0ea88" y="139.183749"/>
      </g>
     </g>
    </g>
    <g id="ytick_14">
     <g id="line2d_39">
      <g>
       <use style="stroke:#000000;stroke-width:0.6;" x="53.328125" xlink:href="#m2382b0ea88" y="136.012446"/>
      </g>
     </g>
    </g>
    <g id="ytick_15">
     <g id="line2d_40">
      <g>
       <use style="stroke:#000000;stroke-width:0.6;" x="53.328125" xlink:href="#m2382b0ea88" y="133.215159"/>
      </g>
     </g>
    </g>
    <g id="ytick_16">
     <g id="line2d_41">
      <g>
       <use style="stroke:#000000;stroke-width:0.6;" x="53.328125" xlink:href="#m2382b0ea88" y="104.621417"/>
      </g>
     </g>
    </g>
    <g id="ytick_17">
     <g id="line2d_42">
      <g>
       <use style="stroke:#000000;stroke-width:0.6;" x="53.328125" xlink:href="#m2382b0ea88" y="97.789114"/>
      </g>
     </g>
    </g>
    <g id="ytick_18">
     <g id="line2d_43">
      <g>
       <use style="stroke:#000000;stroke-width:0.6;" x="53.328125" xlink:href="#m2382b0ea88" y="88.159524"/>
      </g>
     </g>
    </g>
    <g id="ytick_19">
     <g id="line2d_44">
      <g>
       <use style="stroke:#000000;stroke-width:0.6;" x="53.328125" xlink:href="#m2382b0ea88" y="84.498524"/>
      </g>
     </g>
    </g>
    <g id="ytick_20">
     <g id="line2d_45">
      <g>
       <use style="stroke:#000000;stroke-width:0.6;" x="53.328125" xlink:href="#m2382b0ea88" y="81.327221"/>
      </g>
     </g>
    </g>
    <g id="ytick_21">
     <g id="line2d_46">
      <g>
       <use style="stroke:#000000;stroke-width:0.6;" x="53.328125" xlink:href="#m2382b0ea88" y="78.529934"/>
      </g>
     </g>
    </g>
    <g id="ytick_22">
     <g id="line2d_47">
      <g>
       <use style="stroke:#000000;stroke-width:0.6;" x="53.328125" xlink:href="#m2382b0ea88" y="49.936192"/>
      </g>
     </g>
    </g>
    <g id="ytick_23">
     <g id="line2d_48">
      <g>
       <use style="stroke:#000000;stroke-width:0.6;" x="53.328125" xlink:href="#m2382b0ea88" y="43.103889"/>
      </g>
     </g>
    </g>
    <g id="ytick_24">
     <g id="line2d_49">
      <g>
       <use style="stroke:#000000;stroke-width:0.6;" x="53.328125" xlink:href="#m2382b0ea88" y="33.474299"/>
      </g>
     </g>
    </g>
    <g id="ytick_25">
     <g id="line2d_50">
      <g>
       <use style="stroke:#000000;stroke-width:0.6;" x="53.328125" xlink:href="#m2382b0ea88" y="29.813299"/>
      </g>
     </g>
    </g>
    <g id="ytick_26">
     <g id="line2d_51">
      <g>
       <use style="stroke:#000000;stroke-width:0.6;" x="53.328125" xlink:href="#m2382b0ea88" y="26.641996"/>
      </g>
     </g>
    </g>
    <g id="ytick_27">
     <g id="line2d_52">
      <g>
       <use style="stroke:#000000;stroke-width:0.6;" x="53.328125" xlink:href="#m2382b0ea88" y="23.844709"/>
      </g>
     </g>
    </g>
    <g id="text_18">
     <!-- Number recorded per day -->
     <defs>
      <path d="M 9.8125 72.90625 
L 23.09375 72.90625 
L 55.421875 11.921875 
L 55.421875 72.90625 
L 64.984375 72.90625 
L 64.984375 0 
L 51.703125 0 
L 19.390625 60.984375 
L 19.390625 0 
L 9.8125 0 
z
" id="DejaVuSans-78"/>
      <path d="M 8.5 21.578125 
L 8.5 54.6875 
L 17.484375 54.6875 
L 17.484375 21.921875 
Q 17.484375 14.15625 20.5 10.265625 
Q 23.53125 6.390625 29.59375 6.390625 
Q 36.859375 6.390625 41.078125 11.03125 
Q 45.3125 15.671875 45.3125 23.6875 
L 45.3125 54.6875 
L 54.296875 54.6875 
L 54.296875 0 
L 45.3125 0 
L 45.3125 8.40625 
Q 42.046875 3.421875 37.71875 1 
Q 33.40625 -1.421875 27.6875 -1.421875 
Q 18.265625 -1.421875 13.375 4.4375 
Q 8.5 10.296875 8.5 21.578125 
z
M 31.109375 56 
z
" id="DejaVuSans-117"/>
      <path d="M 52 44.1875 
Q 55.375 50.25 60.0625 53.125 
Q 64.75 56 71.09375 56 
Q 79.640625 56 84.28125 50.015625 
Q 88.921875 44.046875 88.921875 33.015625 
L 88.921875 0 
L 79.890625 0 
L 79.890625 32.71875 
Q 79.890625 40.578125 77.09375 44.375 
Q 74.3125 48.1875 68.609375 48.1875 
Q 61.625 48.1875 57.5625 43.546875 
Q 53.515625 38.921875 53.515625 30.90625 
L 53.515625 0 
L 44.484375 0 
L 44.484375 32.71875 
Q 44.484375 40.625 41.703125 44.40625 
Q 38.921875 48.1875 33.109375 48.1875 
Q 26.21875 48.1875 22.15625 43.53125 
Q 18.109375 38.875 18.109375 30.90625 
L 18.109375 0 
L 9.078125 0 
L 9.078125 54.6875 
L 18.109375 54.6875 
L 18.109375 46.1875 
Q 21.1875 51.21875 25.484375 53.609375 
Q 29.78125 56 35.6875 56 
Q 41.65625 56 45.828125 52.96875 
Q 50 49.953125 52 44.1875 
z
" id="DejaVuSans-109"/>
      <path d="M 48.6875 27.296875 
Q 48.6875 37.203125 44.609375 42.84375 
Q 40.53125 48.484375 33.40625 48.484375 
Q 26.265625 48.484375 22.1875 42.84375 
Q 18.109375 37.203125 18.109375 27.296875 
Q 18.109375 17.390625 22.1875 11.75 
Q 26.265625 6.109375 33.40625 6.109375 
Q 40.53125 6.109375 44.609375 11.75 
Q 48.6875 17.390625 48.6875 27.296875 
z
M 18.109375 46.390625 
Q 20.953125 51.265625 25.265625 53.625 
Q 29.59375 56 35.59375 56 
Q 45.5625 56 51.78125 48.09375 
Q 58.015625 40.1875 58.015625 27.296875 
Q 58.015625 14.40625 51.78125 6.484375 
Q 45.5625 -1.421875 35.59375 -1.421875 
Q 29.59375 -1.421875 25.265625 0.953125 
Q 20.953125 3.328125 18.109375 8.203125 
L 18.109375 0 
L 9.078125 0 
L 9.078125 75.984375 
L 18.109375 75.984375 
z
" id="DejaVuSans-98"/>
      <path d="M 56.203125 29.59375 
L 56.203125 25.203125 
L 14.890625 25.203125 
Q 15.484375 15.921875 20.484375 11.0625 
Q 25.484375 6.203125 34.421875 6.203125 
Q 39.59375 6.203125 44.453125 7.46875 
Q 49.3125 8.734375 54.109375 11.28125 
L 54.109375 2.78125 
Q 49.265625 0.734375 44.1875 -0.34375 
Q 39.109375 -1.421875 33.890625 -1.421875 
Q 20.796875 -1.421875 13.15625 6.1875 
Q 5.515625 13.8125 5.515625 26.8125 
Q 5.515625 40.234375 12.765625 48.109375 
Q 20.015625 56 32.328125 56 
Q 43.359375 56 49.78125 48.890625 
Q 56.203125 41.796875 56.203125 29.59375 
z
M 47.21875 32.234375 
Q 47.125 39.59375 43.09375 43.984375 
Q 39.0625 48.390625 32.421875 48.390625 
Q 24.90625 48.390625 20.390625 44.140625 
Q 15.875 39.890625 15.1875 32.171875 
z
" id="DejaVuSans-101"/>
      <path id="DejaVuSans-32"/>
      <path d="M 48.78125 52.59375 
L 48.78125 44.1875 
Q 44.96875 46.296875 41.140625 47.34375 
Q 37.3125 48.390625 33.40625 48.390625 
Q 24.65625 48.390625 19.8125 42.84375 
Q 14.984375 37.3125 14.984375 27.296875 
Q 14.984375 17.28125 19.8125 11.734375 
Q 24.65625 6.203125 33.40625 6.203125 
Q 37.3125 6.203125 41.140625 7.25 
Q 44.96875 8.296875 48.78125 10.40625 
L 48.78125 2.09375 
Q 45.015625 0.34375 40.984375 -0.53125 
Q 36.96875 -1.421875 32.421875 -1.421875 
Q 20.0625 -1.421875 12.78125 6.34375 
Q 5.515625 14.109375 5.515625 27.296875 
Q 5.515625 40.671875 12.859375 48.328125 
Q 20.21875 56 33.015625 56 
Q 37.15625 56 41.109375 55.140625 
Q 45.0625 54.296875 48.78125 52.59375 
z
" id="DejaVuSans-99"/>
      <path d="M 30.609375 48.390625 
Q 23.390625 48.390625 19.1875 42.75 
Q 14.984375 37.109375 14.984375 27.296875 
Q 14.984375 17.484375 19.15625 11.84375 
Q 23.34375 6.203125 30.609375 6.203125 
Q 37.796875 6.203125 41.984375 11.859375 
Q 46.1875 17.53125 46.1875 27.296875 
Q 46.1875 37.015625 41.984375 42.703125 
Q 37.796875 48.390625 30.609375 48.390625 
z
M 30.609375 56 
Q 42.328125 56 49.015625 48.375 
Q 55.71875 40.765625 55.71875 27.296875 
Q 55.71875 13.875 49.015625 6.21875 
Q 42.328125 -1.421875 30.609375 -1.421875 
Q 18.84375 -1.421875 12.171875 6.21875 
Q 5.515625 13.875 5.515625 27.296875 
Q 5.515625 40.765625 12.171875 48.375 
Q 18.84375 56 30.609375 56 
z
" id="DejaVuSans-111"/>
      <path d="M 45.40625 46.390625 
L 45.40625 75.984375 
L 54.390625 75.984375 
L 54.390625 0 
L 45.40625 0 
L 45.40625 8.203125 
Q 42.578125 3.328125 38.25 0.953125 
Q 33.9375 -1.421875 27.875 -1.421875 
Q 17.96875 -1.421875 11.734375 6.484375 
Q 5.515625 14.40625 5.515625 27.296875 
Q 5.515625 40.1875 11.734375 48.09375 
Q 17.96875 56 27.875 56 
Q 33.9375 56 38.25 53.625 
Q 42.578125 51.265625 45.40625 46.390625 
z
M 14.796875 27.296875 
Q 14.796875 17.390625 18.875 11.75 
Q 22.953125 6.109375 30.078125 6.109375 
Q 37.203125 6.109375 41.296875 11.75 
Q 45.40625 17.390625 45.40625 27.296875 
Q 45.40625 37.203125 41.296875 42.84375 
Q 37.203125 48.484375 30.078125 48.484375 
Q 22.953125 48.484375 18.875 42.84375 
Q 14.796875 37.203125 14.796875 27.296875 
z
" id="DejaVuSans-100"/>
      <path d="M 32.171875 -5.078125 
Q 28.375 -14.84375 24.75 -17.8125 
Q 21.140625 -20.796875 15.09375 -20.796875 
L 7.90625 -20.796875 
L 7.90625 -13.28125 
L 13.1875 -13.28125 
Q 16.890625 -13.28125 18.9375 -11.515625 
Q 21 -9.765625 23.484375 -3.21875 
L 25.09375 0.875 
L 2.984375 54.6875 
L 12.5 54.6875 
L 29.59375 11.921875 
L 46.6875 54.6875 
L 56.203125 54.6875 
z
" id="DejaVuSans-121"/>
     </defs>
     <g transform="translate(14.798438 168.633906)rotate(-90)scale(0.1 -0.1)">
      <use xlink:href="#DejaVuSans-78"/>
      <use x="74.804688" xlink:href="#DejaVuSans-117"/>
      <use x="138.183594" xlink:href="#DejaVuSans-109"/>
      <use x="235.595703" xlink:href="#DejaVuSans-98"/>
      <use x="299.072266" xlink:href="#DejaVuSans-101"/>
      <use x="360.595703" xlink:href="#DejaVuSans-114"/>
      <use x="401.708984" xlink:href="#DejaVuSans-32"/>
      <use x="433.496094" xlink:href="#DejaVuSans-114"/>
      <use x="474.578125" xlink:href="#DejaVuSans-101"/>
      <use x="536.101562" xlink:href="#DejaVuSans-99"/>
      <use x="591.082031" xlink:href="#DejaVuSans-111"/>
      <use x="652.263672" xlink:href="#DejaVuSans-114"/>
      <use x="693.361328" xlink:href="#DejaVuSans-100"/>
      <use x="756.837891" xlink:href="#DejaVuSans-101"/>
      <use x="818.361328" xlink:href="#DejaVuSans-100"/>
      <use x="881.837891" xlink:href="#DejaVuSans-32"/>
      <use x="913.625" xlink:href="#DejaVuSans-112"/>
      <use x="977.101562" xlink:href="#DejaVuSans-101"/>
      <use x="1038.625" xlink:href="#DejaVuSans-114"/>
      <use x="1079.738281" xlink:href="#DejaVuSans-32"/>
      <use x="1111.525391" xlink:href="#DejaVuSans-100"/>
      <use x="1175.001953" xlink:href="#DejaVuSans-97"/>
      <use x="1236.28125" xlink:href="#DejaVuSans-121"/>
     </g>
    </g>
   </g>
   <g id="line2d_53">
    <path clip-path="url(#p043040f551)" d="M 66.955012 221.474063 
L 71.266554 201.860018 
L 76.050136 213.991867 
L 80.833717 193.868974 
L 85.617298 193.868974 
L 90.400879 167.77749 
L 95.18446 144.062939 
L 99.968042 139.183749 
L 104.751623 120.613008 
L 109.535204 100.623539 
L 114.318785 87.495978 
L 119.102366 86.663905 
L 123.885948 75.441238 
L 128.669529 58.271716 
L 133.45311 54.852911 
L 138.236691 50.367577 
L 143.020272 45.161731 
L 147.803854 43.258765 
L 152.587435 53.37133 
L 157.371016 53.870559 
L 162.154597 46.309144 
L 166.938178 40.948519 
L 171.72176 39.183071 
L 176.505341 38.293843 
L 181.288922 37.918615 
L 186.072503 47.195267 
L 190.856084 46.789641 
L 195.639666 33.50995 
L 200.423247 37.088506 
L 205.206828 37.775861 
L 209.990409 34.985955 
L 214.77399 35.601305 
L 219.557572 44.68102 
L 224.341153 45.632551 
L 229.124734 32.687898 
L 233.908315 33.893595 
L 238.691896 36.033801 
L 243.475478 38.552231 
L 248.259059 41.888668 
L 253.04264 45.978488 
L 257.826221 52.420865 
L 262.609802 48.38118 
L 267.393384 42.8911 
L 272.176965 44.535531 
L 276.960546 46.893882 
L 281.744127 46.644469 
L 286.527708 58.875307 
L 291.31129 56.673687 
L 296.094871 45.3829 
L 300.878452 50.831592 
L 305.662033 47.831484 
L 310.445614 54.697621 
L 312.628125 57.148695 
" style="fill:none;stroke:#1f77b4;stroke-linecap:square;stroke-width:1.5;"/>
    <defs>
     <path d="M 0 3 
C 0.795609 3 1.55874 2.683901 2.12132 2.12132 
C 2.683901 1.55874 3 0.795609 3 0 
C 3 -0.795609 2.683901 -1.55874 2.12132 -2.12132 
C 1.55874 -2.683901 0.795609 -3 0 -3 
C -0.795609 -3 -1.55874 -2.683901 -2.12132 -2.12132 
C -2.683901 -1.55874 -3 -0.795609 -3 0 
C -3 0.795609 -2.683901 1.55874 -2.12132 2.12132 
C -1.55874 2.683901 -0.795609 3 0 3 
z
" id="m5e00a955d2" style="stroke:#1f77b4;"/>
    </defs>
    <g clip-path="url(#p043040f551)">
     <use style="fill:#1f77b4;stroke:#1f77b4;" x="66.482973" xlink:href="#m5e00a955d2" y="223.621457"/>
     <use style="fill:#1f77b4;stroke:#1f77b4;" x="71.266554" xlink:href="#m5e00a955d2" y="201.860018"/>
     <use style="fill:#1f77b4;stroke:#1f77b4;" x="76.050136" xlink:href="#m5e00a955d2" y="213.991867"/>
     <use style="fill:#1f77b4;stroke:#1f77b4;" x="80.833717" xlink:href="#m5e00a955d2" y="193.868974"/>
     <use style="fill:#1f77b4;stroke:#1f77b4;" x="85.617298" xlink:href="#m5e00a955d2" y="193.868974"/>
     <use style="fill:#1f77b4;stroke:#1f77b4;" x="90.400879" xlink:href="#m5e00a955d2" y="167.77749"/>
     <use style="fill:#1f77b4;stroke:#1f77b4;" x="95.18446" xlink:href="#m5e00a955d2" y="144.062939"/>
     <use style="fill:#1f77b4;stroke:#1f77b4;" x="99.968042" xlink:href="#m5e00a955d2" y="139.183749"/>
     <use style="fill:#1f77b4;stroke:#1f77b4;" x="104.751623" xlink:href="#m5e00a955d2" y="120.613008"/>
     <use style="fill:#1f77b4;stroke:#1f77b4;" x="109.535204" xlink:href="#m5e00a955d2" y="100.623539"/>
     <use style="fill:#1f77b4;stroke:#1f77b4;" x="114.318785" xlink:href="#m5e00a955d2" y="87.495978"/>
     <use style="fill:#1f77b4;stroke:#1f77b4;" x="119.102366" xlink:href="#m5e00a955d2" y="86.663905"/>
     <use style="fill:#1f77b4;stroke:#1f77b4;" x="123.885948" xlink:href="#m5e00a955d2" y="75.441238"/>
     <use style="fill:#1f77b4;stroke:#1f77b4;" x="128.669529" xlink:href="#m5e00a955d2" y="58.271716"/>
     <use style="fill:#1f77b4;stroke:#1f77b4;" x="133.45311" xlink:href="#m5e00a955d2" y="54.852911"/>
     <use style="fill:#1f77b4;stroke:#1f77b4;" x="138.236691" xlink:href="#m5e00a955d2" y="50.367577"/>
     <use style="fill:#1f77b4;stroke:#1f77b4;" x="143.020272" xlink:href="#m5e00a955d2" y="45.161731"/>
     <use style="fill:#1f77b4;stroke:#1f77b4;" x="147.803854" xlink:href="#m5e00a955d2" y="43.258765"/>
     <use style="fill:#1f77b4;stroke:#1f77b4;" x="152.587435" xlink:href="#m5e00a955d2" y="53.37133"/>
     <use style="fill:#1f77b4;stroke:#1f77b4;" x="157.371016" xlink:href="#m5e00a955d2" y="53.870559"/>
     <use style="fill:#1f77b4;stroke:#1f77b4;" x="162.154597" xlink:href="#m5e00a955d2" y="46.309144"/>
     <use style="fill:#1f77b4;stroke:#1f77b4;" x="166.938178" xlink:href="#m5e00a955d2" y="40.948519"/>
     <use style="fill:#1f77b4;stroke:#1f77b4;" x="171.72176" xlink:href="#m5e00a955d2" y="39.183071"/>
     <use style="fill:#1f77b4;stroke:#1f77b4;" x="176.505341" xlink:href="#m5e00a955d2" y="38.293843"/>
     <use style="fill:#1f77b4;stroke:#1f77b4;" x="181.288922" xlink:href="#m5e00a955d2" y="37.918615"/>
     <use style="fill:#1f77b4;stroke:#1f77b4;" x="186.072503" xlink:href="#m5e00a955d2" y="47.195267"/>
     <use style="fill:#1f77b4;stroke:#1f77b4;" x="190.856084" xlink:href="#m5e00a955d2" y="46.789641"/>
     <use style="fill:#1f77b4;stroke:#1f77b4;" x="195.639666" xlink:href="#m5e00a955d2" y="33.50995"/>
     <use style="fill:#1f77b4;stroke:#1f77b4;" x="200.423247" xlink:href="#m5e00a955d2" y="37.088506"/>
     <use style="fill:#1f77b4;stroke:#1f77b4;" x="205.206828" xlink:href="#m5e00a955d2" y="37.775861"/>
     <use style="fill:#1f77b4;stroke:#1f77b4;" x="209.990409" xlink:href="#m5e00a955d2" y="34.985955"/>
     <use style="fill:#1f77b4;stroke:#1f77b4;" x="214.77399" xlink:href="#m5e00a955d2" y="35.601305"/>
     <use style="fill:#1f77b4;stroke:#1f77b4;" x="219.557572" xlink:href="#m5e00a955d2" y="44.68102"/>
     <use style="fill:#1f77b4;stroke:#1f77b4;" x="224.341153" xlink:href="#m5e00a955d2" y="45.632551"/>
     <use style="fill:#1f77b4;stroke:#1f77b4;" x="229.124734" xlink:href="#m5e00a955d2" y="32.687898"/>
     <use style="fill:#1f77b4;stroke:#1f77b4;" x="233.908315" xlink:href="#m5e00a955d2" y="33.893595"/>
     <use style="fill:#1f77b4;stroke:#1f77b4;" x="238.691896" xlink:href="#m5e00a955d2" y="36.033801"/>
     <use style="fill:#1f77b4;stroke:#1f77b4;" x="243.475478" xlink:href="#m5e00a955d2" y="38.552231"/>
     <use style="fill:#1f77b4;stroke:#1f77b4;" x="248.259059" xlink:href="#m5e00a955d2" y="41.888668"/>
     <use style="fill:#1f77b4;stroke:#1f77b4;" x="253.04264" xlink:href="#m5e00a955d2" y="45.978488"/>
     <use style="fill:#1f77b4;stroke:#1f77b4;" x="257.826221" xlink:href="#m5e00a955d2" y="52.420865"/>
     <use style="fill:#1f77b4;stroke:#1f77b4;" x="262.609802" xlink:href="#m5e00a955d2" y="48.38118"/>
     <use style="fill:#1f77b4;stroke:#1f77b4;" x="267.393384" xlink:href="#m5e00a955d2" y="42.8911"/>
     <use style="fill:#1f77b4;stroke:#1f77b4;" x="272.176965" xlink:href="#m5e00a955d2" y="44.535531"/>
     <use style="fill:#1f77b4;stroke:#1f77b4;" x="276.960546" xlink:href="#m5e00a955d2" y="46.893882"/>
     <use style="fill:#1f77b4;stroke:#1f77b4;" x="281.744127" xlink:href="#m5e00a955d2" y="46.644469"/>
     <use style="fill:#1f77b4;stroke:#1f77b4;" x="286.527708" xlink:href="#m5e00a955d2" y="58.875307"/>
     <use style="fill:#1f77b4;stroke:#1f77b4;" x="291.31129" xlink:href="#m5e00a955d2" y="56.673687"/>
     <use style="fill:#1f77b4;stroke:#1f77b4;" x="296.094871" xlink:href="#m5e00a955d2" y="45.3829"/>
     <use style="fill:#1f77b4;stroke:#1f77b4;" x="300.878452" xlink:href="#m5e00a955d2" y="50.831592"/>
     <use style="fill:#1f77b4;stroke:#1f77b4;" x="305.662033" xlink:href="#m5e00a955d2" y="47.831484"/>
     <use style="fill:#1f77b4;stroke:#1f77b4;" x="310.445614" xlink:href="#m5e00a955d2" y="54.697621"/>
     <use style="fill:#1f77b4;stroke:#1f77b4;" x="315.229196" xlink:href="#m5e00a955d2" y="60.069833"/>
     <use style="fill:#1f77b4;stroke:#1f77b4;" x="320.012777" xlink:href="#m5e00a955d2" y="74.868934"/>
     <use style="fill:#1f77b4;stroke:#1f77b4;" x="324.796358" xlink:href="#m5e00a955d2" y="100.690533"/>
     <use style="fill:#1f77b4;stroke:#1f77b4;" x="329.579939" xlink:href="#m5e00a955d2" y="161.808901"/>
    </g>
   </g>
   <g id="line2d_54">
    <path clip-path="url(#p043040f551)" d="M 66.482973 193.868974 
L 71.266554 185.398125 
L 76.050136 177.407081 
L 80.833717 183.134557 
L 85.617298 185.398125 
L 90.400879 175.768535 
L 95.18446 154.976598 
L 99.968042 149.155064 
L 104.751623 139.183749 
L 109.535204 137.545203 
L 114.318785 123.410295 
L 119.102366 120.925506 
L 123.885948 115.720516 
L 128.669529 104.700714 
L 133.45311 101.71881 
L 138.236691 95.417838 
L 143.020272 90.83836 
L 147.803854 87.228052 
L 152.587435 85.681027 
L 157.371016 84.634624 
L 162.154597 75.348738 
L 166.938178 72.894997 
L 171.72176 70.48241 
L 176.505341 68.223971 
L 181.288922 68.865185 
L 186.072503 70.202012 
L 190.856084 68.620523 
L 195.639666 64.105747 
L 200.423247 66.240281 
L 205.206828 66.861739 
L 209.990409 64.322375 
L 214.77399 64.278891 
L 219.557572 68.121602 
L 224.341153 67.968872 
L 229.124734 62.941529 
L 233.908315 65.360283 
L 238.691896 66.493274 
L 243.475478 70.614405 
L 248.259059 72.21786 
L 253.04264 77.320982 
L 257.826221 78.372129 
L 262.609802 75.348738 
L 267.393384 78.033775 
L 272.176965 83.372116 
L 276.960546 89.461192 
L 281.744127 89.08783 
L 286.527708 97.494086 
L 291.31129 98.573794 
L 296.094871 96.686986 
L 300.878452 97.260673 
L 305.662033 101.85934 
L 310.445614 107.035877 
L 312.628125 107.319445 
" style="fill:none;stroke:#ff7f0e;stroke-linecap:square;stroke-width:1.5;"/>
    <defs>
     <path d="M 0 3 
C 0.795609 3 1.55874 2.683901 2.12132 2.12132 
C 2.683901 1.55874 3 0.795609 3 0 
C 3 -0.795609 2.683901 -1.55874 2.12132 -2.12132 
C 1.55874 -2.683901 0.795609 -3 0 -3 
C -0.795609 -3 -1.55874 -2.683901 -2.12132 -2.12132 
C -2.683901 -1.55874 -3 -0.795609 -3 0 
C -3 0.795609 -2.683901 1.55874 -2.12132 2.12132 
C -1.55874 2.683901 -0.795609 3 0 3 
z
" id="m69d5a95684" style="stroke:#ff7f0e;"/>
    </defs>
    <g clip-path="url(#p043040f551)">
     <use style="fill:#ff7f0e;stroke:#ff7f0e;" x="66.482973" xlink:href="#m69d5a95684" y="193.868974"/>
     <use style="fill:#ff7f0e;stroke:#ff7f0e;" x="71.266554" xlink:href="#m69d5a95684" y="185.398125"/>
     <use style="fill:#ff7f0e;stroke:#ff7f0e;" x="76.050136" xlink:href="#m69d5a95684" y="177.407081"/>
     <use style="fill:#ff7f0e;stroke:#ff7f0e;" x="80.833717" xlink:href="#m69d5a95684" y="183.134557"/>
     <use style="fill:#ff7f0e;stroke:#ff7f0e;" x="85.617298" xlink:href="#m69d5a95684" y="185.398125"/>
     <use style="fill:#ff7f0e;stroke:#ff7f0e;" x="90.400879" xlink:href="#m69d5a95684" y="175.768535"/>
     <use style="fill:#ff7f0e;stroke:#ff7f0e;" x="95.18446" xlink:href="#m69d5a95684" y="154.976598"/>
     <use style="fill:#ff7f0e;stroke:#ff7f0e;" x="99.968042" xlink:href="#m69d5a95684" y="149.155064"/>
     <use style="fill:#ff7f0e;stroke:#ff7f0e;" x="104.751623" xlink:href="#m69d5a95684" y="139.183749"/>
     <use style="fill:#ff7f0e;stroke:#ff7f0e;" x="109.535204" xlink:href="#m69d5a95684" y="137.545203"/>
     <use style="fill:#ff7f0e;stroke:#ff7f0e;" x="114.318785" xlink:href="#m69d5a95684" y="123.410295"/>
     <use style="fill:#ff7f0e;stroke:#ff7f0e;" x="119.102366" xlink:href="#m69d5a95684" y="120.925506"/>
     <use style="fill:#ff7f0e;stroke:#ff7f0e;" x="123.885948" xlink:href="#m69d5a95684" y="115.720516"/>
     <use style="fill:#ff7f0e;stroke:#ff7f0e;" x="128.669529" xlink:href="#m69d5a95684" y="104.700714"/>
     <use style="fill:#ff7f0e;stroke:#ff7f0e;" x="133.45311" xlink:href="#m69d5a95684" y="101.71881"/>
     <use style="fill:#ff7f0e;stroke:#ff7f0e;" x="138.236691" xlink:href="#m69d5a95684" y="95.417838"/>
     <use style="fill:#ff7f0e;stroke:#ff7f0e;" x="143.020272" xlink:href="#m69d5a95684" y="90.83836"/>
     <use style="fill:#ff7f0e;stroke:#ff7f0e;" x="147.803854" xlink:href="#m69d5a95684" y="87.228052"/>
     <use style="fill:#ff7f0e;stroke:#ff7f0e;" x="152.587435" xlink:href="#m69d5a95684" y="85.681027"/>
     <use style="fill:#ff7f0e;stroke:#ff7f0e;" x="157.371016" xlink:href="#m69d5a95684" y="84.634624"/>
     <use style="fill:#ff7f0e;stroke:#ff7f0e;" x="162.154597" xlink:href="#m69d5a95684" y="75.348738"/>
     <use style="fill:#ff7f0e;stroke:#ff7f0e;" x="166.938178" xlink:href="#m69d5a95684" y="72.894997"/>
     <use style="fill:#ff7f0e;stroke:#ff7f0e;" x="171.72176" xlink:href="#m69d5a95684" y="70.48241"/>
     <use style="fill:#ff7f0e;stroke:#ff7f0e;" x="176.505341" xlink:href="#m69d5a95684" y="68.223971"/>
     <use style="fill:#ff7f0e;stroke:#ff7f0e;" x="181.288922" xlink:href="#m69d5a95684" y="68.865185"/>
     <use style="fill:#ff7f0e;stroke:#ff7f0e;" x="186.072503" xlink:href="#m69d5a95684" y="70.202012"/>
     <use style="fill:#ff7f0e;stroke:#ff7f0e;" x="190.856084" xlink:href="#m69d5a95684" y="68.620523"/>
     <use style="fill:#ff7f0e;stroke:#ff7f0e;" x="195.639666" xlink:href="#m69d5a95684" y="64.105747"/>
     <use style="fill:#ff7f0e;stroke:#ff7f0e;" x="200.423247" xlink:href="#m69d5a95684" y="66.240281"/>
     <use style="fill:#ff7f0e;stroke:#ff7f0e;" x="205.206828" xlink:href="#m69d5a95684" y="66.861739"/>
     <use style="fill:#ff7f0e;stroke:#ff7f0e;" x="209.990409" xlink:href="#m69d5a95684" y="64.322375"/>
     <use style="fill:#ff7f0e;stroke:#ff7f0e;" x="214.77399" xlink:href="#m69d5a95684" y="64.278891"/>
     <use style="fill:#ff7f0e;stroke:#ff7f0e;" x="219.557572" xlink:href="#m69d5a95684" y="68.121602"/>
     <use style="fill:#ff7f0e;stroke:#ff7f0e;" x="224.341153" xlink:href="#m69d5a95684" y="67.968872"/>
     <use style="fill:#ff7f0e;stroke:#ff7f0e;" x="229.124734" xlink:href="#m69d5a95684" y="62.941529"/>
     <use style="fill:#ff7f0e;stroke:#ff7f0e;" x="233.908315" xlink:href="#m69d5a95684" y="65.360283"/>
     <use style="fill:#ff7f0e;stroke:#ff7f0e;" x="238.691896" xlink:href="#m69d5a95684" y="66.493274"/>
     <use style="fill:#ff7f0e;stroke:#ff7f0e;" x="243.475478" xlink:href="#m69d5a95684" y="70.614405"/>
     <use style="fill:#ff7f0e;stroke:#ff7f0e;" x="248.259059" xlink:href="#m69d5a95684" y="72.21786"/>
     <use style="fill:#ff7f0e;stroke:#ff7f0e;" x="253.04264" xlink:href="#m69d5a95684" y="77.320982"/>
     <use style="fill:#ff7f0e;stroke:#ff7f0e;" x="257.826221" xlink:href="#m69d5a95684" y="78.372129"/>
     <use style="fill:#ff7f0e;stroke:#ff7f0e;" x="262.609802" xlink:href="#m69d5a95684" y="75.348738"/>
     <use style="fill:#ff7f0e;stroke:#ff7f0e;" x="267.393384" xlink:href="#m69d5a95684" y="78.033775"/>
     <use style="fill:#ff7f0e;stroke:#ff7f0e;" x="272.176965" xlink:href="#m69d5a95684" y="83.372116"/>
     <use style="fill:#ff7f0e;stroke:#ff7f0e;" x="276.960546" xlink:href="#m69d5a95684" y="89.461192"/>
     <use style="fill:#ff7f0e;stroke:#ff7f0e;" x="281.744127" xlink:href="#m69d5a95684" y="89.08783"/>
     <use style="fill:#ff7f0e;stroke:#ff7f0e;" x="286.527708" xlink:href="#m69d5a95684" y="97.494086"/>
     <use style="fill:#ff7f0e;stroke:#ff7f0e;" x="291.31129" xlink:href="#m69d5a95684" y="98.573794"/>
     <use style="fill:#ff7f0e;stroke:#ff7f0e;" x="296.094871" xlink:href="#m69d5a95684" y="96.686986"/>
     <use style="fill:#ff7f0e;stroke:#ff7f0e;" x="300.878452" xlink:href="#m69d5a95684" y="97.260673"/>
     <use style="fill:#ff7f0e;stroke:#ff7f0e;" x="305.662033" xlink:href="#m69d5a95684" y="101.85934"/>
     <use style="fill:#ff7f0e;stroke:#ff7f0e;" x="310.445614" xlink:href="#m69d5a95684" y="107.035877"/>
     <use style="fill:#ff7f0e;stroke:#ff7f0e;" x="315.229196" xlink:href="#m69d5a95684" y="107.657395"/>
     <use style="fill:#ff7f0e;stroke:#ff7f0e;" x="320.012777" xlink:href="#m69d5a95684" y="132.182409"/>
     <use style="fill:#ff7f0e;stroke:#ff7f0e;" x="324.796358" xlink:href="#m69d5a95684" y="174.235778"/>
     <use style="fill:#ff7f0e;stroke:#ff7f0e;" x="329.579939" xlink:href="#m69d5a95684" y="240.08335"/>
    </g>
   </g>
   <g id="line2d_55">
    <path clip-path="url(#p043040f551)" d="M 119.496067 221.474063 
L 123.885948 197.529974 
L 128.669529 187.900384 
L 133.45311 193.868974 
L 138.236691 167.77749 
L 143.020272 163.636686 
L 147.803854 149.155064 
L 152.587435 151.887902 
L 157.371016 148.144295 
L 162.154597 135.717417 
L 166.938178 132.693171 
L 171.72176 126.185764 
L 176.505341 116.102554 
L 181.288922 113.433991 
L 186.072503 107.838 
L 190.856084 106.515794 
L 195.639666 104.228854 
L 200.423247 100.028945 
L 205.206828 97.087108 
L 209.990409 95.203877 
L 214.77399 94.781653 
L 219.557572 93.959078 
L 224.341153 91.376107 
L 229.124734 90.705804 
L 233.908315 89.968318 
L 238.691896 92.442117 
L 243.475478 92.253253 
L 248.259059 93.558233 
L 253.04264 93.5086 
L 257.826221 92.776286 
L 262.609802 93.115224 
L 267.393384 94.781653 
L 272.176965 98.512505 
L 276.960546 101.71881 
L 281.744127 103.91941 
L 286.527708 104.542384 
L 291.31129 105.182139 
L 296.094871 106.687893 
L 300.878452 111.3484 
L 305.662033 112.204331 
L 310.445614 113.89741 
L 312.628125 117.543327 
" style="fill:none;stroke:#2ca02c;stroke-linecap:square;stroke-width:1.5;"/>
    <defs>
     <path d="M 0 3 
C 0.795609 3 1.55874 2.683901 2.12132 2.12132 
C 2.683901 1.55874 3 0.795609 3 0 
C 3 -0.795609 2.683901 -1.55874 2.12132 -2.12132 
C 1.55874 -2.683901 0.795609 -3 0 -3 
C -0.795609 -3 -1.55874 -2.683901 -2.12132 -2.12132 
C -2.683901 -1.55874 -3 -0.795609 -3 0 
C -3 0.795609 -2.683901 1.55874 -2.12132 2.12132 
C -1.55874 2.683901 -0.795609 3 0 3 
z
" id="mcfa2ab6b99" style="stroke:#2ca02c;"/>
    </defs>
    <g clip-path="url(#p043040f551)">
     <use style="fill:#2ca02c;stroke:#2ca02c;" x="103.383949" xlink:href="#mcfa2ab6b99" y="15875.1325"/>
     <use style="fill:#2ca02c;stroke:#2ca02c;" x="104.751623" xlink:href="#mcfa2ab6b99" y="240.08335"/>
     <use style="fill:#2ca02c;stroke:#2ca02c;" x="109.535204" xlink:href="#mcfa2ab6b99" y="240.08335"/>
     <use style="fill:#2ca02c;stroke:#2ca02c;" x="110.902877" xlink:href="#mcfa2ab6b99" y="15875.1325"/>
     <use style="fill:#2ca02c;stroke:#2ca02c;" x="117.733665" xlink:href="#mcfa2ab6b99" y="15875.1325"/>
     <use style="fill:#2ca02c;stroke:#2ca02c;" x="119.102366" xlink:href="#mcfa2ab6b99" y="223.621457"/>
     <use style="fill:#2ca02c;stroke:#2ca02c;" x="123.885948" xlink:href="#mcfa2ab6b99" y="197.529974"/>
     <use style="fill:#2ca02c;stroke:#2ca02c;" x="128.669529" xlink:href="#mcfa2ab6b99" y="187.900384"/>
     <use style="fill:#2ca02c;stroke:#2ca02c;" x="133.45311" xlink:href="#mcfa2ab6b99" y="193.868974"/>
     <use style="fill:#2ca02c;stroke:#2ca02c;" x="138.236691" xlink:href="#mcfa2ab6b99" y="167.77749"/>
     <use style="fill:#2ca02c;stroke:#2ca02c;" x="143.020272" xlink:href="#mcfa2ab6b99" y="163.636686"/>
     <use style="fill:#2ca02c;stroke:#2ca02c;" x="147.803854" xlink:href="#mcfa2ab6b99" y="149.155064"/>
     <use style="fill:#2ca02c;stroke:#2ca02c;" x="152.587435" xlink:href="#mcfa2ab6b99" y="151.887902"/>
     <use style="fill:#2ca02c;stroke:#2ca02c;" x="157.371016" xlink:href="#mcfa2ab6b99" y="148.144295"/>
     <use style="fill:#2ca02c;stroke:#2ca02c;" x="162.154597" xlink:href="#mcfa2ab6b99" y="135.717417"/>
     <use style="fill:#2ca02c;stroke:#2ca02c;" x="166.938178" xlink:href="#mcfa2ab6b99" y="132.693171"/>
     <use style="fill:#2ca02c;stroke:#2ca02c;" x="171.72176" xlink:href="#mcfa2ab6b99" y="126.185764"/>
     <use style="fill:#2ca02c;stroke:#2ca02c;" x="176.505341" xlink:href="#mcfa2ab6b99" y="116.102554"/>
     <use style="fill:#2ca02c;stroke:#2ca02c;" x="181.288922" xlink:href="#mcfa2ab6b99" y="113.433991"/>
     <use style="fill:#2ca02c;stroke:#2ca02c;" x="186.072503" xlink:href="#mcfa2ab6b99" y="107.838"/>
     <use style="fill:#2ca02c;stroke:#2ca02c;" x="190.856084" xlink:href="#mcfa2ab6b99" y="106.515794"/>
     <use style="fill:#2ca02c;stroke:#2ca02c;" x="195.639666" xlink:href="#mcfa2ab6b99" y="104.228854"/>
     <use style="fill:#2ca02c;stroke:#2ca02c;" x="200.423247" xlink:href="#mcfa2ab6b99" y="100.028945"/>
     <use style="fill:#2ca02c;stroke:#2ca02c;" x="205.206828" xlink:href="#mcfa2ab6b99" y="97.087108"/>
     <use style="fill:#2ca02c;stroke:#2ca02c;" x="209.990409" xlink:href="#mcfa2ab6b99" y="95.203877"/>
     <use style="fill:#2ca02c;stroke:#2ca02c;" x="214.77399" xlink:href="#mcfa2ab6b99" y="94.781653"/>
     <use style="fill:#2ca02c;stroke:#2ca02c;" x="219.557572" xlink:href="#mcfa2ab6b99" y="93.959078"/>
     <use style="fill:#2ca02c;stroke:#2ca02c;" x="224.341153" xlink:href="#mcfa2ab6b99" y="91.376107"/>
     <use style="fill:#2ca02c;stroke:#2ca02c;" x="229.124734" xlink:href="#mcfa2ab6b99" y="90.705804"/>
     <use style="fill:#2ca02c;stroke:#2ca02c;" x="233.908315" xlink:href="#mcfa2ab6b99" y="89.968318"/>
     <use style="fill:#2ca02c;stroke:#2ca02c;" x="238.691896" xlink:href="#mcfa2ab6b99" y="92.442117"/>
     <use style="fill:#2ca02c;stroke:#2ca02c;" x="243.475478" xlink:href="#mcfa2ab6b99" y="92.253253"/>
     <use style="fill:#2ca02c;stroke:#2ca02c;" x="248.259059" xlink:href="#mcfa2ab6b99" y="93.558233"/>
     <use style="fill:#2ca02c;stroke:#2ca02c;" x="253.04264" xlink:href="#mcfa2ab6b99" y="93.5086"/>
     <use style="fill:#2ca02c;stroke:#2ca02c;" x="257.826221" xlink:href="#mcfa2ab6b99" y="92.776286"/>
     <use style="fill:#2ca02c;stroke:#2ca02c;" x="262.609802" xlink:href="#mcfa2ab6b99" y="93.115224"/>
     <use style="fill:#2ca02c;stroke:#2ca02c;" x="267.393384" xlink:href="#mcfa2ab6b99" y="94.781653"/>
     <use style="fill:#2ca02c;stroke:#2ca02c;" x="272.176965" xlink:href="#mcfa2ab6b99" y="98.512505"/>
     <use style="fill:#2ca02c;stroke:#2ca02c;" x="276.960546" xlink:href="#mcfa2ab6b99" y="101.71881"/>
     <use style="fill:#2ca02c;stroke:#2ca02c;" x="281.744127" xlink:href="#mcfa2ab6b99" y="103.91941"/>
     <use style="fill:#2ca02c;stroke:#2ca02c;" x="286.527708" xlink:href="#mcfa2ab6b99" y="104.542384"/>
     <use style="fill:#2ca02c;stroke:#2ca02c;" x="291.31129" xlink:href="#mcfa2ab6b99" y="105.182139"/>
     <use style="fill:#2ca02c;stroke:#2ca02c;" x="296.094871" xlink:href="#mcfa2ab6b99" y="106.687893"/>
     <use style="fill:#2ca02c;stroke:#2ca02c;" x="300.878452" xlink:href="#mcfa2ab6b99" y="111.3484"/>
     <use style="fill:#2ca02c;stroke:#2ca02c;" x="305.662033" xlink:href="#mcfa2ab6b99" y="112.204331"/>
     <use style="fill:#2ca02c;stroke:#2ca02c;" x="310.445614" xlink:href="#mcfa2ab6b99" y="113.89741"/>
     <use style="fill:#2ca02c;stroke:#2ca02c;" x="315.229196" xlink:href="#mcfa2ab6b99" y="121.888455"/>
     <use style="fill:#2ca02c;stroke:#2ca02c;" x="320.012777" xlink:href="#mcfa2ab6b99" y="136.012446"/>
     <use style="fill:#2ca02c;stroke:#2ca02c;" x="324.796358" xlink:href="#mcfa2ab6b99" y="139.872188"/>
     <use style="fill:#2ca02c;stroke:#2ca02c;" x="329.579939" xlink:href="#mcfa2ab6b99" y="185.398125"/>
    </g>
   </g>
   <g id="patch_3">
    <path d="M 53.328125 185.398125 
L 53.328125 22.318125 
" style="fill:none;stroke:#000000;stroke-linecap:square;stroke-linejoin:miter;stroke-width:0.8;"/>
   </g>
   <g id="patch_4">
    <path d="M 304.428125 185.398125 
L 304.428125 22.318125 
" style="fill:none;stroke:#000000;stroke-linecap:square;stroke-linejoin:miter;stroke-width:0.8;"/>
   </g>
   <g id="patch_5">
    <path d="M 53.328125 185.398125 
L 304.428125 185.398125 
" style="fill:none;stroke:#000000;stroke-linecap:square;stroke-linejoin:miter;stroke-width:0.8;"/>
   </g>
   <g id="patch_6">
    <path d="M 53.328125 22.318125 
L 304.428125 22.318125 
" style="fill:none;stroke:#000000;stroke-linecap:square;stroke-linejoin:miter;stroke-width:0.8;"/>
   </g>
   <g id="text_19">
    <!-- COVID-19 in NYC -->
    <defs>
     <path d="M 64.40625 67.28125 
L 64.40625 56.890625 
Q 59.421875 61.53125 53.78125 63.8125 
Q 48.140625 66.109375 41.796875 66.109375 
Q 29.296875 66.109375 22.65625 58.46875 
Q 16.015625 50.828125 16.015625 36.375 
Q 16.015625 21.96875 22.65625 14.328125 
Q 29.296875 6.6875 41.796875 6.6875 
Q 48.140625 6.6875 53.78125 8.984375 
Q 59.421875 11.28125 64.40625 15.921875 
L 64.40625 5.609375 
Q 59.234375 2.09375 53.4375 0.328125 
Q 47.65625 -1.421875 41.21875 -1.421875 
Q 24.65625 -1.421875 15.125 8.703125 
Q 5.609375 18.84375 5.609375 36.375 
Q 5.609375 53.953125 15.125 64.078125 
Q 24.65625 74.21875 41.21875 74.21875 
Q 47.75 74.21875 53.53125 72.484375 
Q 59.328125 70.75 64.40625 67.28125 
z
" id="DejaVuSans-67"/>
     <path d="M 39.40625 66.21875 
Q 28.65625 66.21875 22.328125 58.203125 
Q 16.015625 50.203125 16.015625 36.375 
Q 16.015625 22.609375 22.328125 14.59375 
Q 28.65625 6.59375 39.40625 6.59375 
Q 50.140625 6.59375 56.421875 14.59375 
Q 62.703125 22.609375 62.703125 36.375 
Q 62.703125 50.203125 56.421875 58.203125 
Q 50.140625 66.21875 39.40625 66.21875 
z
M 39.40625 74.21875 
Q 54.734375 74.21875 63.90625 63.9375 
Q 73.09375 53.65625 73.09375 36.375 
Q 73.09375 19.140625 63.90625 8.859375 
Q 54.734375 -1.421875 39.40625 -1.421875 
Q 24.03125 -1.421875 14.8125 8.828125 
Q 5.609375 19.09375 5.609375 36.375 
Q 5.609375 53.65625 14.8125 63.9375 
Q 24.03125 74.21875 39.40625 74.21875 
z
" id="DejaVuSans-79"/>
     <path d="M 28.609375 0 
L 0.78125 72.90625 
L 11.078125 72.90625 
L 34.1875 11.53125 
L 57.328125 72.90625 
L 67.578125 72.90625 
L 39.796875 0 
z
" id="DejaVuSans-86"/>
     <path d="M 9.8125 72.90625 
L 19.671875 72.90625 
L 19.671875 0 
L 9.8125 0 
z
" id="DejaVuSans-73"/>
     <path d="M 19.671875 64.796875 
L 19.671875 8.109375 
L 31.59375 8.109375 
Q 46.6875 8.109375 53.6875 14.9375 
Q 60.6875 21.78125 60.6875 36.53125 
Q 60.6875 51.171875 53.6875 57.984375 
Q 46.6875 64.796875 31.59375 64.796875 
z
M 9.8125 72.90625 
L 30.078125 72.90625 
Q 51.265625 72.90625 61.171875 64.09375 
Q 71.09375 55.28125 71.09375 36.53125 
Q 71.09375 17.671875 61.125 8.828125 
Q 51.171875 0 30.078125 0 
L 9.8125 0 
z
" id="DejaVuSans-68"/>
     <path d="M 4.890625 31.390625 
L 31.203125 31.390625 
L 31.203125 23.390625 
L 4.890625 23.390625 
z
" id="DejaVuSans-45"/>
     <path d="M 9.421875 54.6875 
L 18.40625 54.6875 
L 18.40625 0 
L 9.421875 0 
z
M 9.421875 75.984375 
L 18.40625 75.984375 
L 18.40625 64.59375 
L 9.421875 64.59375 
z
" id="DejaVuSans-105"/>
     <path d="M 54.890625 33.015625 
L 54.890625 0 
L 45.90625 0 
L 45.90625 32.71875 
Q 45.90625 40.484375 42.875 44.328125 
Q 39.84375 48.1875 33.796875 48.1875 
Q 26.515625 48.1875 22.3125 43.546875 
Q 18.109375 38.921875 18.109375 30.90625 
L 18.109375 0 
L 9.078125 0 
L 9.078125 54.6875 
L 18.109375 54.6875 
L 18.109375 46.1875 
Q 21.34375 51.125 25.703125 53.5625 
Q 30.078125 56 35.796875 56 
Q 45.21875 56 50.046875 50.171875 
Q 54.890625 44.34375 54.890625 33.015625 
z
" id="DejaVuSans-110"/>
     <path d="M -0.203125 72.90625 
L 10.40625 72.90625 
L 30.609375 42.921875 
L 50.6875 72.90625 
L 61.28125 72.90625 
L 35.5 34.71875 
L 35.5 0 
L 25.59375 0 
L 25.59375 34.71875 
z
" id="DejaVuSans-89"/>
    </defs>
    <g transform="translate(128.050625 16.318125)scale(0.12 -0.12)">
     <use xlink:href="#DejaVuSans-67"/>
     <use x="69.824219" xlink:href="#DejaVuSans-79"/>
     <use x="148.519531" xlink:href="#DejaVuSans-86"/>
     <use x="216.927734" xlink:href="#DejaVuSans-73"/>
     <use x="246.419922" xlink:href="#DejaVuSans-68"/>
     <use x="323.421875" xlink:href="#DejaVuSans-45"/>
     <use x="359.505859" xlink:href="#DejaVuSans-49"/>
     <use x="423.128906" xlink:href="#DejaVuSans-57"/>
     <use x="486.751953" xlink:href="#DejaVuSans-32"/>
     <use x="518.539062" xlink:href="#DejaVuSans-105"/>
     <use x="546.322266" xlink:href="#DejaVuSans-110"/>
     <use x="609.701172" xlink:href="#DejaVuSans-32"/>
     <use x="641.488281" xlink:href="#DejaVuSans-78"/>
     <use x="716.292969" xlink:href="#DejaVuSans-89"/>
     <use x="777.298828" xlink:href="#DejaVuSans-67"/>
    </g>
   </g>
   <g id="legend_1">
    <g id="patch_7">
     <path d="M 186.107813 180.398125 
L 297.428125 180.398125 
Q 299.428125 180.398125 299.428125 178.398125 
L 299.428125 135.36375 
Q 299.428125 133.36375 297.428125 133.36375 
L 186.107813 133.36375 
Q 184.107813 133.36375 184.107813 135.36375 
L 184.107813 178.398125 
Q 184.107813 180.398125 186.107813 180.398125 
z
" style="fill:#ffffff;opacity:0.8;stroke:#cccccc;stroke-linejoin:miter;"/>
    </g>
    <g id="line2d_56">
     <path d="M 188.107813 141.462187 
L 208.107813 141.462187 
" style="fill:none;stroke:#1f77b4;stroke-linecap:square;stroke-width:1.5;"/>
    </g>
    <g id="line2d_57">
     <g>
      <use style="fill:#1f77b4;stroke:#1f77b4;" x="198.107813" xlink:href="#m5e00a955d2" y="141.462187"/>
     </g>
    </g>
    <g id="text_20">
     <!-- Cases -->
     <defs>
      <path d="M 44.28125 53.078125 
L 44.28125 44.578125 
Q 40.484375 46.53125 36.375 47.5 
Q 32.28125 48.484375 27.875 48.484375 
Q 21.1875 48.484375 17.84375 46.4375 
Q 14.5 44.390625 14.5 40.28125 
Q 14.5 37.15625 16.890625 35.375 
Q 19.28125 33.59375 26.515625 31.984375 
L 29.59375 31.296875 
Q 39.15625 29.25 43.1875 25.515625 
Q 47.21875 21.78125 47.21875 15.09375 
Q 47.21875 7.46875 41.1875 3.015625 
Q 35.15625 -1.421875 24.609375 -1.421875 
Q 20.21875 -1.421875 15.453125 -0.5625 
Q 10.6875 0.296875 5.421875 2 
L 5.421875 11.28125 
Q 10.40625 8.6875 15.234375 7.390625 
Q 20.0625 6.109375 24.8125 6.109375 
Q 31.15625 6.109375 34.5625 8.28125 
Q 37.984375 10.453125 37.984375 14.40625 
Q 37.984375 18.0625 35.515625 20.015625 
Q 33.0625 21.96875 24.703125 23.78125 
L 21.578125 24.515625 
Q 13.234375 26.265625 9.515625 29.90625 
Q 5.8125 33.546875 5.8125 39.890625 
Q 5.8125 47.609375 11.28125 51.796875 
Q 16.75 56 26.8125 56 
Q 31.78125 56 36.171875 55.265625 
Q 40.578125 54.546875 44.28125 53.078125 
z
" id="DejaVuSans-115"/>
     </defs>
     <g transform="translate(216.107813 144.962187)scale(0.1 -0.1)">
      <use xlink:href="#DejaVuSans-67"/>
      <use x="69.824219" xlink:href="#DejaVuSans-97"/>
      <use x="131.103516" xlink:href="#DejaVuSans-115"/>
      <use x="183.203125" xlink:href="#DejaVuSans-101"/>
      <use x="244.726562" xlink:href="#DejaVuSans-115"/>
     </g>
    </g>
    <g id="line2d_58">
     <path d="M 188.107813 156.140312 
L 208.107813 156.140312 
" style="fill:none;stroke:#ff7f0e;stroke-linecap:square;stroke-width:1.5;"/>
    </g>
    <g id="line2d_59">
     <g>
      <use style="fill:#ff7f0e;stroke:#ff7f0e;" x="198.107813" xlink:href="#m69d5a95684" y="156.140312"/>
     </g>
    </g>
    <g id="text_21">
     <!-- Hospitalizations -->
     <defs>
      <path d="M 9.8125 72.90625 
L 19.671875 72.90625 
L 19.671875 43.015625 
L 55.515625 43.015625 
L 55.515625 72.90625 
L 65.375 72.90625 
L 65.375 0 
L 55.515625 0 
L 55.515625 34.71875 
L 19.671875 34.71875 
L 19.671875 0 
L 9.8125 0 
z
" id="DejaVuSans-72"/>
      <path d="M 18.3125 70.21875 
L 18.3125 54.6875 
L 36.8125 54.6875 
L 36.8125 47.703125 
L 18.3125 47.703125 
L 18.3125 18.015625 
Q 18.3125 11.328125 20.140625 9.421875 
Q 21.96875 7.515625 27.59375 7.515625 
L 36.8125 7.515625 
L 36.8125 0 
L 27.59375 0 
Q 17.1875 0 13.234375 3.875 
Q 9.28125 7.765625 9.28125 18.015625 
L 9.28125 47.703125 
L 2.6875 47.703125 
L 2.6875 54.6875 
L 9.28125 54.6875 
L 9.28125 70.21875 
z
" id="DejaVuSans-116"/>
      <path d="M 9.421875 75.984375 
L 18.40625 75.984375 
L 18.40625 0 
L 9.421875 0 
z
" id="DejaVuSans-108"/>
      <path d="M 5.515625 54.6875 
L 48.1875 54.6875 
L 48.1875 46.484375 
L 14.40625 7.171875 
L 48.1875 7.171875 
L 48.1875 0 
L 4.296875 0 
L 4.296875 8.203125 
L 38.09375 47.515625 
L 5.515625 47.515625 
z
" id="DejaVuSans-122"/>
     </defs>
     <g transform="translate(216.107813 159.640312)scale(0.1 -0.1)">
      <use xlink:href="#DejaVuSans-72"/>
      <use x="75.195312" xlink:href="#DejaVuSans-111"/>
      <use x="136.376953" xlink:href="#DejaVuSans-115"/>
      <use x="188.476562" xlink:href="#DejaVuSans-112"/>
      <use x="251.953125" xlink:href="#DejaVuSans-105"/>
      <use x="279.736328" xlink:href="#DejaVuSans-116"/>
      <use x="318.945312" xlink:href="#DejaVuSans-97"/>
      <use x="380.224609" xlink:href="#DejaVuSans-108"/>
      <use x="408.007812" xlink:href="#DejaVuSans-105"/>
      <use x="435.791016" xlink:href="#DejaVuSans-122"/>
      <use x="488.28125" xlink:href="#DejaVuSans-97"/>
      <use x="549.560547" xlink:href="#DejaVuSans-116"/>
      <use x="588.769531" xlink:href="#DejaVuSans-105"/>
      <use x="616.552734" xlink:href="#DejaVuSans-111"/>
      <use x="677.734375" xlink:href="#DejaVuSans-110"/>
      <use x="741.113281" xlink:href="#DejaVuSans-115"/>
     </g>
    </g>
    <g id="line2d_60">
     <path d="M 188.107813 170.818438 
L 208.107813 170.818438 
" style="fill:none;stroke:#2ca02c;stroke-linecap:square;stroke-width:1.5;"/>
    </g>
    <g id="line2d_61">
     <g>
      <use style="fill:#2ca02c;stroke:#2ca02c;" x="198.107813" xlink:href="#mcfa2ab6b99" y="170.818438"/>
     </g>
    </g>
    <g id="text_22">
     <!-- Deaths -->
     <defs>
      <path d="M 54.890625 33.015625 
L 54.890625 0 
L 45.90625 0 
L 45.90625 32.71875 
Q 45.90625 40.484375 42.875 44.328125 
Q 39.84375 48.1875 33.796875 48.1875 
Q 26.515625 48.1875 22.3125 43.546875 
Q 18.109375 38.921875 18.109375 30.90625 
L 18.109375 0 
L 9.078125 0 
L 9.078125 75.984375 
L 18.109375 75.984375 
L 18.109375 46.1875 
Q 21.34375 51.125 25.703125 53.5625 
Q 30.078125 56 35.796875 56 
Q 45.21875 56 50.046875 50.171875 
Q 54.890625 44.34375 54.890625 33.015625 
z
" id="DejaVuSans-104"/>
     </defs>
     <g transform="translate(216.107813 174.318438)scale(0.1 -0.1)">
      <use xlink:href="#DejaVuSans-68"/>
      <use x="77.001953" xlink:href="#DejaVuSans-101"/>
      <use x="138.525391" xlink:href="#DejaVuSans-97"/>
      <use x="199.804688" xlink:href="#DejaVuSans-116"/>
      <use x="239.013672" xlink:href="#DejaVuSans-104"/>
      <use x="302.392578" xlink:href="#DejaVuSans-115"/>
     </g>
    </g>
   </g>
  </g>
 </g>
 <defs>
  <clipPath id="p043040f551">
   <rect height="163.08" width="251.1" x="53.328125" y="22.318125"/>
  </clipPath>
 </defs>
</svg>
