<?xml version="1.0" encoding="utf-8" standalone="no"?>
<!DOCTYPE svg PUBLIC "-//W3C//DTD SVG 1.1//EN"
  "http://www.w3.org/Graphics/SVG/1.1/DTD/svg11.dtd">
<!-- Created with matplotlib (https://matplotlib.org/) -->
<svg height="220.474063pt" version="1.1" viewBox="0 0 311.628125 220.474063" width="311.628125pt" xmlns="http://www.w3.org/2000/svg" xmlns:xlink="http://www.w3.org/1999/xlink">
 <defs>
  <style type="text/css">
*{stroke-linecap:butt;stroke-linejoin:round;}
  </style>
 </defs>
 <g id="figure_1">
  <g id="patch_1">
   <path d="M 0 220.474063 
L 311.628125 220.474063 
L 311.628125 0 
L 0 0 
z
" style="fill:#ffffff;"/>
  </g>
  <g id="axes_1">
   <g id="patch_2">
    <path d="M 53.328125 185.398125 
L 304.428125 185.398125 
L 304.428125 22.318125 
L 53.328125 22.318125 
z
" style="fill:#ffffff;"/>
   </g>
   <g id="matplotlib.axis_1">
    <g id="xtick_1">
     <g id="line2d_1">
      <path clip-path="url(#pa2876806cb)" d="M 70.018305 185.398125 
L 70.018305 22.318125 
" style="fill:none;stroke:#b0b0b0;stroke-linecap:square;stroke-opacity:0.6;stroke-width:0.8;"/>
     </g>
     <g id="line2d_2">
      <defs>
       <path d="M 0 0 
L 0 3.5 
" id="m8bff015f8b" style="stroke:#000000;stroke-width:0.8;"/>
      </defs>
      <g>
       <use style="stroke:#000000;stroke-width:0.8;" x="70.018305" xlink:href="#m8bff015f8b" y="185.398125"/>
      </g>
     </g>
     <g id="text_1">
      <!-- Mar. -->
      <defs>
       <path d="M 9.8125 72.90625 
L 24.515625 72.90625 
L 43.109375 23.296875 
L 61.8125 72.90625 
L 76.515625 72.90625 
L 76.515625 0 
L 66.890625 0 
L 66.890625 64.015625 
L 48.09375 14.015625 
L 38.1875 14.015625 
L 19.390625 64.015625 
L 19.390625 0 
L 9.8125 0 
z
" id="DejaVuSans-77"/>
       <path d="M 34.28125 27.484375 
Q 23.390625 27.484375 19.1875 25 
Q 14.984375 22.515625 14.984375 16.5 
Q 14.984375 11.71875 18.140625 8.90625 
Q 21.296875 6.109375 26.703125 6.109375 
Q 34.1875 6.109375 38.703125 11.40625 
Q 43.21875 16.703125 43.21875 25.484375 
L 43.21875 27.484375 
z
M 52.203125 31.203125 
L 52.203125 0 
L 43.21875 0 
L 43.21875 8.296875 
Q 40.140625 3.328125 35.546875 0.953125 
Q 30.953125 -1.421875 24.3125 -1.421875 
Q 15.921875 -1.421875 10.953125 3.296875 
Q 6 8.015625 6 15.921875 
Q 6 25.140625 12.171875 29.828125 
Q 18.359375 34.515625 30.609375 34.515625 
L 43.21875 34.515625 
L 43.21875 35.40625 
Q 43.21875 41.609375 39.140625 45 
Q 35.0625 48.390625 27.6875 48.390625 
Q 23 48.390625 18.546875 47.265625 
Q 14.109375 46.140625 10.015625 43.890625 
L 10.015625 52.203125 
Q 14.9375 54.109375 19.578125 55.046875 
Q 24.21875 56 28.609375 56 
Q 40.484375 56 46.34375 49.84375 
Q 52.203125 43.703125 52.203125 31.203125 
z
" id="DejaVuSans-97"/>
       <path d="M 41.109375 46.296875 
Q 39.59375 47.171875 37.8125 47.578125 
Q 36.03125 48 33.890625 48 
Q 26.265625 48 22.1875 43.046875 
Q 18.109375 38.09375 18.109375 28.8125 
L 18.109375 0 
L 9.078125 0 
L 9.078125 54.6875 
L 18.109375 54.6875 
L 18.109375 46.1875 
Q 20.953125 51.171875 25.484375 53.578125 
Q 30.03125 56 36.53125 56 
Q 37.453125 56 38.578125 55.875 
Q 39.703125 55.765625 41.0625 55.515625 
z
" id="DejaVuSans-114"/>
       <path d="M 10.6875 12.40625 
L 21 12.40625 
L 21 0 
L 10.6875 0 
z
" id="DejaVuSans-46"/>
      </defs>
      <g transform="translate(59.00268 199.996563)scale(0.1 -0.1)">
       <use xlink:href="#DejaVuSans-77"/>
       <use x="86.279297" xlink:href="#DejaVuSans-97"/>
       <use x="147.558594" xlink:href="#DejaVuSans-114"/>
       <use x="188.53125" xlink:href="#DejaVuSans-46"/>
      </g>
      <!-- 01 -->
      <defs>
       <path d="M 31.78125 66.40625 
Q 24.171875 66.40625 20.328125 58.90625 
Q 16.5 51.421875 16.5 36.375 
Q 16.5 21.390625 20.328125 13.890625 
Q 24.171875 6.390625 31.78125 6.390625 
Q 39.453125 6.390625 43.28125 13.890625 
Q 47.125 21.390625 47.125 36.375 
Q 47.125 51.421875 43.28125 58.90625 
Q 39.453125 66.40625 31.78125 66.40625 
z
M 31.78125 74.21875 
Q 44.046875 74.21875 50.515625 64.515625 
Q 56.984375 54.828125 56.984375 36.375 
Q 56.984375 17.96875 50.515625 8.265625 
Q 44.046875 -1.421875 31.78125 -1.421875 
Q 19.53125 -1.421875 13.0625 8.265625 
Q 6.59375 17.96875 6.59375 36.375 
Q 6.59375 54.828125 13.0625 64.515625 
Q 19.53125 74.21875 31.78125 74.21875 
z
" id="DejaVuSans-48"/>
       <path d="M 12.40625 8.296875 
L 28.515625 8.296875 
L 28.515625 63.921875 
L 10.984375 60.40625 
L 10.984375 69.390625 
L 28.421875 72.90625 
L 38.28125 72.90625 
L 38.28125 8.296875 
L 54.390625 8.296875 
L 54.390625 0 
L 12.40625 0 
z
" id="DejaVuSans-49"/>
      </defs>
      <g transform="translate(63.655805 211.194375)scale(0.1 -0.1)">
       <use xlink:href="#DejaVuSans-48"/>
       <use x="63.623047" xlink:href="#DejaVuSans-49"/>
      </g>
     </g>
    </g>
    <g id="xtick_2">
     <g id="line2d_3">
      <path clip-path="url(#pa2876806cb)" d="M 96.272522 185.398125 
L 96.272522 22.318125 
" style="fill:none;stroke:#b0b0b0;stroke-linecap:square;stroke-opacity:0.6;stroke-width:0.8;"/>
     </g>
     <g id="line2d_4">
      <g>
       <use style="stroke:#000000;stroke-width:0.8;" x="96.272522" xlink:href="#m8bff015f8b" y="185.398125"/>
      </g>
     </g>
     <g id="text_2">
      <!-- Mar. -->
      <g transform="translate(85.256897 199.996563)scale(0.1 -0.1)">
       <use xlink:href="#DejaVuSans-77"/>
       <use x="86.279297" xlink:href="#DejaVuSans-97"/>
       <use x="147.558594" xlink:href="#DejaVuSans-114"/>
       <use x="188.53125" xlink:href="#DejaVuSans-46"/>
      </g>
      <!-- 08 -->
      <defs>
       <path d="M 31.78125 34.625 
Q 24.75 34.625 20.71875 30.859375 
Q 16.703125 27.09375 16.703125 20.515625 
Q 16.703125 13.921875 20.71875 10.15625 
Q 24.75 6.390625 31.78125 6.390625 
Q 38.8125 6.390625 42.859375 10.171875 
Q 46.921875 13.96875 46.921875 20.515625 
Q 46.921875 27.09375 42.890625 30.859375 
Q 38.875 34.625 31.78125 34.625 
z
M 21.921875 38.8125 
Q 15.578125 40.375 12.03125 44.71875 
Q 8.5 49.078125 8.5 55.328125 
Q 8.5 64.0625 14.71875 69.140625 
Q 20.953125 74.21875 31.78125 74.21875 
Q 42.671875 74.21875 48.875 69.140625 
Q 55.078125 64.0625 55.078125 55.328125 
Q 55.078125 49.078125 51.53125 44.71875 
Q 48 40.375 41.703125 38.8125 
Q 48.828125 37.15625 52.796875 32.3125 
Q 56.78125 27.484375 56.78125 20.515625 
Q 56.78125 9.90625 50.3125 4.234375 
Q 43.84375 -1.421875 31.78125 -1.421875 
Q 19.734375 -1.421875 13.25 4.234375 
Q 6.78125 9.90625 6.78125 20.515625 
Q 6.78125 27.484375 10.78125 32.3125 
Q 14.796875 37.15625 21.921875 38.8125 
z
M 18.3125 54.390625 
Q 18.3125 48.734375 21.84375 45.5625 
Q 25.390625 42.390625 31.78125 42.390625 
Q 38.140625 42.390625 41.71875 45.5625 
Q 45.3125 48.734375 45.3125 54.390625 
Q 45.3125 60.0625 41.71875 63.234375 
Q 38.140625 66.40625 31.78125 66.40625 
Q 25.390625 66.40625 21.84375 63.234375 
Q 18.3125 60.0625 18.3125 54.390625 
z
" id="DejaVuSans-56"/>
      </defs>
      <g transform="translate(89.910022 211.194375)scale(0.1 -0.1)">
       <use xlink:href="#DejaVuSans-48"/>
       <use x="63.623047" xlink:href="#DejaVuSans-56"/>
      </g>
     </g>
    </g>
    <g id="xtick_3">
     <g id="line2d_5">
      <path clip-path="url(#pa2876806cb)" d="M 122.526738 185.398125 
L 122.526738 22.318125 
" style="fill:none;stroke:#b0b0b0;stroke-linecap:square;stroke-opacity:0.6;stroke-width:0.8;"/>
     </g>
     <g id="line2d_6">
      <g>
       <use style="stroke:#000000;stroke-width:0.8;" x="122.526738" xlink:href="#m8bff015f8b" y="185.398125"/>
      </g>
     </g>
     <g id="text_3">
      <!-- Mar. -->
      <g transform="translate(111.511113 199.996563)scale(0.1 -0.1)">
       <use xlink:href="#DejaVuSans-77"/>
       <use x="86.279297" xlink:href="#DejaVuSans-97"/>
       <use x="147.558594" xlink:href="#DejaVuSans-114"/>
       <use x="188.53125" xlink:href="#DejaVuSans-46"/>
      </g>
      <!-- 15 -->
      <defs>
       <path d="M 10.796875 72.90625 
L 49.515625 72.90625 
L 49.515625 64.59375 
L 19.828125 64.59375 
L 19.828125 46.734375 
Q 21.96875 47.46875 24.109375 47.828125 
Q 26.265625 48.1875 28.421875 48.1875 
Q 40.625 48.1875 47.75 41.5 
Q 54.890625 34.8125 54.890625 23.390625 
Q 54.890625 11.625 47.5625 5.09375 
Q 40.234375 -1.421875 26.90625 -1.421875 
Q 22.3125 -1.421875 17.546875 -0.640625 
Q 12.796875 0.140625 7.71875 1.703125 
L 7.71875 11.625 
Q 12.109375 9.234375 16.796875 8.0625 
Q 21.484375 6.890625 26.703125 6.890625 
Q 35.15625 6.890625 40.078125 11.328125 
Q 45.015625 15.765625 45.015625 23.390625 
Q 45.015625 31 40.078125 35.4375 
Q 35.15625 39.890625 26.703125 39.890625 
Q 22.75 39.890625 18.8125 39.015625 
Q 14.890625 38.140625 10.796875 36.28125 
z
" id="DejaVuSans-53"/>
      </defs>
      <g transform="translate(116.164238 211.194375)scale(0.1 -0.1)">
       <use xlink:href="#DejaVuSans-49"/>
       <use x="63.623047" xlink:href="#DejaVuSans-53"/>
      </g>
     </g>
    </g>
    <g id="xtick_4">
     <g id="line2d_7">
      <path clip-path="url(#pa2876806cb)" d="M 148.780954 185.398125 
L 148.780954 22.318125 
" style="fill:none;stroke:#b0b0b0;stroke-linecap:square;stroke-opacity:0.6;stroke-width:0.8;"/>
     </g>
     <g id="line2d_8">
      <g>
       <use style="stroke:#000000;stroke-width:0.8;" x="148.780954" xlink:href="#m8bff015f8b" y="185.398125"/>
      </g>
     </g>
     <g id="text_4">
      <!-- Mar. -->
      <g transform="translate(137.765329 199.996563)scale(0.1 -0.1)">
       <use xlink:href="#DejaVuSans-77"/>
       <use x="86.279297" xlink:href="#DejaVuSans-97"/>
       <use x="147.558594" xlink:href="#DejaVuSans-114"/>
       <use x="188.53125" xlink:href="#DejaVuSans-46"/>
      </g>
      <!-- 22 -->
      <defs>
       <path d="M 19.1875 8.296875 
L 53.609375 8.296875 
L 53.609375 0 
L 7.328125 0 
L 7.328125 8.296875 
Q 12.9375 14.109375 22.625 23.890625 
Q 32.328125 33.6875 34.8125 36.53125 
Q 39.546875 41.84375 41.421875 45.53125 
Q 43.3125 49.21875 43.3125 52.78125 
Q 43.3125 58.59375 39.234375 62.25 
Q 35.15625 65.921875 28.609375 65.921875 
Q 23.96875 65.921875 18.8125 64.3125 
Q 13.671875 62.703125 7.8125 59.421875 
L 7.8125 69.390625 
Q 13.765625 71.78125 18.9375 73 
Q 24.125 74.21875 28.421875 74.21875 
Q 39.75 74.21875 46.484375 68.546875 
Q 53.21875 62.890625 53.21875 53.421875 
Q 53.21875 48.921875 51.53125 44.890625 
Q 49.859375 40.875 45.40625 35.40625 
Q 44.1875 33.984375 37.640625 27.21875 
Q 31.109375 20.453125 19.1875 8.296875 
z
" id="DejaVuSans-50"/>
      </defs>
      <g transform="translate(142.418454 211.194375)scale(0.1 -0.1)">
       <use xlink:href="#DejaVuSans-50"/>
       <use x="63.623047" xlink:href="#DejaVuSans-50"/>
      </g>
     </g>
    </g>
    <g id="xtick_5">
     <g id="line2d_9">
      <path clip-path="url(#pa2876806cb)" d="M 175.035171 185.398125 
L 175.035171 22.318125 
" style="fill:none;stroke:#b0b0b0;stroke-linecap:square;stroke-opacity:0.6;stroke-width:0.8;"/>
     </g>
     <g id="line2d_10">
      <g>
       <use style="stroke:#000000;stroke-width:0.8;" x="175.035171" xlink:href="#m8bff015f8b" y="185.398125"/>
      </g>
     </g>
     <g id="text_5">
      <!-- Mar. -->
      <g transform="translate(164.019546 199.996563)scale(0.1 -0.1)">
       <use xlink:href="#DejaVuSans-77"/>
       <use x="86.279297" xlink:href="#DejaVuSans-97"/>
       <use x="147.558594" xlink:href="#DejaVuSans-114"/>
       <use x="188.53125" xlink:href="#DejaVuSans-46"/>
      </g>
      <!-- 29 -->
      <defs>
       <path d="M 10.984375 1.515625 
L 10.984375 10.5 
Q 14.703125 8.734375 18.5 7.8125 
Q 22.3125 6.890625 25.984375 6.890625 
Q 35.75 6.890625 40.890625 13.453125 
Q 46.046875 20.015625 46.78125 33.40625 
Q 43.953125 29.203125 39.59375 26.953125 
Q 35.25 24.703125 29.984375 24.703125 
Q 19.046875 24.703125 12.671875 31.3125 
Q 6.296875 37.9375 6.296875 49.421875 
Q 6.296875 60.640625 12.9375 67.421875 
Q 19.578125 74.21875 30.609375 74.21875 
Q 43.265625 74.21875 49.921875 64.515625 
Q 56.59375 54.828125 56.59375 36.375 
Q 56.59375 19.140625 48.40625 8.859375 
Q 40.234375 -1.421875 26.421875 -1.421875 
Q 22.703125 -1.421875 18.890625 -0.6875 
Q 15.09375 0.046875 10.984375 1.515625 
z
M 30.609375 32.421875 
Q 37.25 32.421875 41.125 36.953125 
Q 45.015625 41.5 45.015625 49.421875 
Q 45.015625 57.28125 41.125 61.84375 
Q 37.25 66.40625 30.609375 66.40625 
Q 23.96875 66.40625 20.09375 61.84375 
Q 16.21875 57.28125 16.21875 49.421875 
Q 16.21875 41.5 20.09375 36.953125 
Q 23.96875 32.421875 30.609375 32.421875 
z
" id="DejaVuSans-57"/>
      </defs>
      <g transform="translate(168.672671 211.194375)scale(0.1 -0.1)">
       <use xlink:href="#DejaVuSans-50"/>
       <use x="63.623047" xlink:href="#DejaVuSans-57"/>
      </g>
     </g>
    </g>
    <g id="xtick_6">
     <g id="line2d_11">
      <path clip-path="url(#pa2876806cb)" d="M 201.289387 185.398125 
L 201.289387 22.318125 
" style="fill:none;stroke:#b0b0b0;stroke-linecap:square;stroke-opacity:0.6;stroke-width:0.8;"/>
     </g>
     <g id="line2d_12">
      <g>
       <use style="stroke:#000000;stroke-width:0.8;" x="201.289387" xlink:href="#m8bff015f8b" y="185.398125"/>
      </g>
     </g>
     <g id="text_6">
      <!-- Apr. -->
      <defs>
       <path d="M 34.1875 63.1875 
L 20.796875 26.90625 
L 47.609375 26.90625 
z
M 28.609375 72.90625 
L 39.796875 72.90625 
L 67.578125 0 
L 57.328125 0 
L 50.6875 18.703125 
L 17.828125 18.703125 
L 11.1875 0 
L 0.78125 0 
z
" id="DejaVuSans-65"/>
       <path d="M 18.109375 8.203125 
L 18.109375 -20.796875 
L 9.078125 -20.796875 
L 9.078125 54.6875 
L 18.109375 54.6875 
L 18.109375 46.390625 
Q 20.953125 51.265625 25.265625 53.625 
Q 29.59375 56 35.59375 56 
Q 45.5625 56 51.78125 48.09375 
Q 58.015625 40.1875 58.015625 27.296875 
Q 58.015625 14.40625 51.78125 6.484375 
Q 45.5625 -1.421875 35.59375 -1.421875 
Q 29.59375 -1.421875 25.265625 0.953125 
Q 20.953125 3.328125 18.109375 8.203125 
z
M 48.6875 27.296875 
Q 48.6875 37.203125 44.609375 42.84375 
Q 40.53125 48.484375 33.40625 48.484375 
Q 26.265625 48.484375 22.1875 42.84375 
Q 18.109375 37.203125 18.109375 27.296875 
Q 18.109375 17.390625 22.1875 11.75 
Q 26.265625 6.109375 33.40625 6.109375 
Q 40.53125 6.109375 44.609375 11.75 
Q 48.6875 17.390625 48.6875 27.296875 
z
" id="DejaVuSans-112"/>
      </defs>
      <g transform="translate(191.057356 199.996563)scale(0.1 -0.1)">
       <use xlink:href="#DejaVuSans-65"/>
       <use x="68.408203" xlink:href="#DejaVuSans-112"/>
       <use x="131.884766" xlink:href="#DejaVuSans-114"/>
       <use x="172.857422" xlink:href="#DejaVuSans-46"/>
      </g>
      <!-- 05 -->
      <g transform="translate(194.926887 211.194375)scale(0.1 -0.1)">
       <use xlink:href="#DejaVuSans-48"/>
       <use x="63.623047" xlink:href="#DejaVuSans-53"/>
      </g>
     </g>
    </g>
    <g id="xtick_7">
     <g id="line2d_13">
      <path clip-path="url(#pa2876806cb)" d="M 227.543603 185.398125 
L 227.543603 22.318125 
" style="fill:none;stroke:#b0b0b0;stroke-linecap:square;stroke-opacity:0.6;stroke-width:0.8;"/>
     </g>
     <g id="line2d_14">
      <g>
       <use style="stroke:#000000;stroke-width:0.8;" x="227.543603" xlink:href="#m8bff015f8b" y="185.398125"/>
      </g>
     </g>
     <g id="text_7">
      <!-- Apr. -->
      <g transform="translate(217.311572 199.996563)scale(0.1 -0.1)">
       <use xlink:href="#DejaVuSans-65"/>
       <use x="68.408203" xlink:href="#DejaVuSans-112"/>
       <use x="131.884766" xlink:href="#DejaVuSans-114"/>
       <use x="172.857422" xlink:href="#DejaVuSans-46"/>
      </g>
      <!-- 12 -->
      <g transform="translate(221.181103 211.194375)scale(0.1 -0.1)">
       <use xlink:href="#DejaVuSans-49"/>
       <use x="63.623047" xlink:href="#DejaVuSans-50"/>
      </g>
     </g>
    </g>
    <g id="xtick_8">
     <g id="line2d_15">
      <path clip-path="url(#pa2876806cb)" d="M 253.797819 185.398125 
L 253.797819 22.318125 
" style="fill:none;stroke:#b0b0b0;stroke-linecap:square;stroke-opacity:0.6;stroke-width:0.8;"/>
     </g>
     <g id="line2d_16">
      <g>
       <use style="stroke:#000000;stroke-width:0.8;" x="253.797819" xlink:href="#m8bff015f8b" y="185.398125"/>
      </g>
     </g>
     <g id="text_8">
      <!-- Apr. -->
      <g transform="translate(243.565788 199.996563)scale(0.1 -0.1)">
       <use xlink:href="#DejaVuSans-65"/>
       <use x="68.408203" xlink:href="#DejaVuSans-112"/>
       <use x="131.884766" xlink:href="#DejaVuSans-114"/>
       <use x="172.857422" xlink:href="#DejaVuSans-46"/>
      </g>
      <!-- 19 -->
      <g transform="translate(247.435319 211.194375)scale(0.1 -0.1)">
       <use xlink:href="#DejaVuSans-49"/>
       <use x="63.623047" xlink:href="#DejaVuSans-57"/>
      </g>
     </g>
    </g>
    <g id="xtick_9">
     <g id="line2d_17">
      <path clip-path="url(#pa2876806cb)" d="M 280.052036 185.398125 
L 280.052036 22.318125 
" style="fill:none;stroke:#b0b0b0;stroke-linecap:square;stroke-opacity:0.6;stroke-width:0.8;"/>
     </g>
     <g id="line2d_18">
      <g>
       <use style="stroke:#000000;stroke-width:0.8;" x="280.052036" xlink:href="#m8bff015f8b" y="185.398125"/>
      </g>
     </g>
     <g id="text_9">
      <!-- Apr. -->
      <g transform="translate(269.820005 199.996563)scale(0.1 -0.1)">
       <use xlink:href="#DejaVuSans-65"/>
       <use x="68.408203" xlink:href="#DejaVuSans-112"/>
       <use x="131.884766" xlink:href="#DejaVuSans-114"/>
       <use x="172.857422" xlink:href="#DejaVuSans-46"/>
      </g>
      <!-- 26 -->
      <defs>
       <path d="M 33.015625 40.375 
Q 26.375 40.375 22.484375 35.828125 
Q 18.609375 31.296875 18.609375 23.390625 
Q 18.609375 15.53125 22.484375 10.953125 
Q 26.375 6.390625 33.015625 6.390625 
Q 39.65625 6.390625 43.53125 10.953125 
Q 47.40625 15.53125 47.40625 23.390625 
Q 47.40625 31.296875 43.53125 35.828125 
Q 39.65625 40.375 33.015625 40.375 
z
M 52.59375 71.296875 
L 52.59375 62.3125 
Q 48.875 64.0625 45.09375 64.984375 
Q 41.3125 65.921875 37.59375 65.921875 
Q 27.828125 65.921875 22.671875 59.328125 
Q 17.53125 52.734375 16.796875 39.40625 
Q 19.671875 43.65625 24.015625 45.921875 
Q 28.375 48.1875 33.59375 48.1875 
Q 44.578125 48.1875 50.953125 41.515625 
Q 57.328125 34.859375 57.328125 23.390625 
Q 57.328125 12.15625 50.6875 5.359375 
Q 44.046875 -1.421875 33.015625 -1.421875 
Q 20.359375 -1.421875 13.671875 8.265625 
Q 6.984375 17.96875 6.984375 36.375 
Q 6.984375 53.65625 15.1875 63.9375 
Q 23.390625 74.21875 37.203125 74.21875 
Q 40.921875 74.21875 44.703125 73.484375 
Q 48.484375 72.75 52.59375 71.296875 
z
" id="DejaVuSans-54"/>
      </defs>
      <g transform="translate(273.689536 211.194375)scale(0.1 -0.1)">
       <use xlink:href="#DejaVuSans-50"/>
       <use x="63.623047" xlink:href="#DejaVuSans-54"/>
      </g>
     </g>
    </g>
   </g>
   <g id="matplotlib.axis_2">
    <g id="ytick_1">
     <g id="line2d_19">
      <path clip-path="url(#pa2876806cb)" d="M 53.328125 185.398125 
L 304.428125 185.398125 
" style="fill:none;stroke:#b0b0b0;stroke-linecap:square;stroke-opacity:0.6;stroke-width:0.8;"/>
     </g>
     <g id="line2d_20">
      <defs>
       <path d="M 0 0 
L -3.5 0 
" id="mce5682d0ac" style="stroke:#000000;stroke-width:0.8;"/>
      </defs>
      <g>
       <use style="stroke:#000000;stroke-width:0.8;" x="53.328125" xlink:href="#mce5682d0ac" y="185.398125"/>
      </g>
     </g>
     <g id="text_10">
      <!-- 10 -->
      <g transform="translate(33.603125 189.197344)scale(0.1 -0.1)">
       <use xlink:href="#DejaVuSans-49"/>
       <use x="63.623047" xlink:href="#DejaVuSans-48"/>
      </g>
     </g>
    </g>
    <g id="ytick_2">
     <g id="line2d_21">
      <path clip-path="url(#pa2876806cb)" d="M 53.328125 168.940691 
L 304.428125 168.940691 
" style="fill:none;stroke:#b0b0b0;stroke-linecap:square;stroke-opacity:0.6;stroke-width:0.8;"/>
     </g>
     <g id="line2d_22">
      <g>
       <use style="stroke:#000000;stroke-width:0.8;" x="53.328125" xlink:href="#mce5682d0ac" y="168.940691"/>
      </g>
     </g>
     <g id="text_11">
      <!-- 20 -->
      <g transform="translate(33.603125 172.73991)scale(0.1 -0.1)">
       <use xlink:href="#DejaVuSans-50"/>
       <use x="63.623047" xlink:href="#DejaVuSans-48"/>
      </g>
     </g>
    </g>
    <g id="ytick_3">
     <g id="line2d_23">
      <path clip-path="url(#pa2876806cb)" d="M 53.328125 147.185148 
L 304.428125 147.185148 
" style="fill:none;stroke:#b0b0b0;stroke-linecap:square;stroke-opacity:0.6;stroke-width:0.8;"/>
     </g>
     <g id="line2d_24">
      <g>
       <use style="stroke:#000000;stroke-width:0.8;" x="53.328125" xlink:href="#mce5682d0ac" y="147.185148"/>
      </g>
     </g>
     <g id="text_12">
      <!-- 50 -->
      <g transform="translate(33.603125 150.984366)scale(0.1 -0.1)">
       <use xlink:href="#DejaVuSans-53"/>
       <use x="63.623047" xlink:href="#DejaVuSans-48"/>
      </g>
     </g>
    </g>
    <g id="ytick_4">
     <g id="line2d_25">
      <path clip-path="url(#pa2876806cb)" d="M 53.328125 130.727714 
L 304.428125 130.727714 
" style="fill:none;stroke:#b0b0b0;stroke-linecap:square;stroke-opacity:0.6;stroke-width:0.8;"/>
     </g>
     <g id="line2d_26">
      <g>
       <use style="stroke:#000000;stroke-width:0.8;" x="53.328125" xlink:href="#mce5682d0ac" y="130.727714"/>
      </g>
     </g>
     <g id="text_13">
      <!-- 100 -->
      <g transform="translate(27.240625 134.526933)scale(0.1 -0.1)">
       <use xlink:href="#DejaVuSans-49"/>
       <use x="63.623047" xlink:href="#DejaVuSans-48"/>
       <use x="127.246094" xlink:href="#DejaVuSans-48"/>
      </g>
     </g>
    </g>
    <g id="ytick_5">
     <g id="line2d_27">
      <path clip-path="url(#pa2876806cb)" d="M 53.328125 114.270281 
L 304.428125 114.270281 
" style="fill:none;stroke:#b0b0b0;stroke-linecap:square;stroke-opacity:0.6;stroke-width:0.8;"/>
     </g>
     <g id="line2d_28">
      <g>
       <use style="stroke:#000000;stroke-width:0.8;" x="53.328125" xlink:href="#mce5682d0ac" y="114.270281"/>
      </g>
     </g>
     <g id="text_14">
      <!-- 200 -->
      <g transform="translate(27.240625 118.069499)scale(0.1 -0.1)">
       <use xlink:href="#DejaVuSans-50"/>
       <use x="63.623047" xlink:href="#DejaVuSans-48"/>
       <use x="127.246094" xlink:href="#DejaVuSans-48"/>
      </g>
     </g>
    </g>
    <g id="ytick_6">
     <g id="line2d_29">
      <path clip-path="url(#pa2876806cb)" d="M 53.328125 92.514737 
L 304.428125 92.514737 
" style="fill:none;stroke:#b0b0b0;stroke-linecap:square;stroke-opacity:0.6;stroke-width:0.8;"/>
     </g>
     <g id="line2d_30">
      <g>
       <use style="stroke:#000000;stroke-width:0.8;" x="53.328125" xlink:href="#mce5682d0ac" y="92.514737"/>
      </g>
     </g>
     <g id="text_15">
      <!-- 500 -->
      <g transform="translate(27.240625 96.313955)scale(0.1 -0.1)">
       <use xlink:href="#DejaVuSans-53"/>
       <use x="63.623047" xlink:href="#DejaVuSans-48"/>
       <use x="127.246094" xlink:href="#DejaVuSans-48"/>
      </g>
     </g>
    </g>
    <g id="ytick_7">
     <g id="line2d_31">
      <path clip-path="url(#pa2876806cb)" d="M 53.328125 76.057303 
L 304.428125 76.057303 
" style="fill:none;stroke:#b0b0b0;stroke-linecap:square;stroke-opacity:0.6;stroke-width:0.8;"/>
     </g>
     <g id="line2d_32">
      <g>
       <use style="stroke:#000000;stroke-width:0.8;" x="53.328125" xlink:href="#mce5682d0ac" y="76.057303"/>
      </g>
     </g>
     <g id="text_16">
      <!-- 1000 -->
      <g transform="translate(20.878125 79.856522)scale(0.1 -0.1)">
       <use xlink:href="#DejaVuSans-49"/>
       <use x="63.623047" xlink:href="#DejaVuSans-48"/>
       <use x="127.246094" xlink:href="#DejaVuSans-48"/>
       <use x="190.869141" xlink:href="#DejaVuSans-48"/>
      </g>
     </g>
    </g>
    <g id="ytick_8">
     <g id="line2d_33">
      <path clip-path="url(#pa2876806cb)" d="M 53.328125 59.59987 
L 304.428125 59.59987 
" style="fill:none;stroke:#b0b0b0;stroke-linecap:square;stroke-opacity:0.6;stroke-width:0.8;"/>
     </g>
     <g id="line2d_34">
      <g>
       <use style="stroke:#000000;stroke-width:0.8;" x="53.328125" xlink:href="#mce5682d0ac" y="59.59987"/>
      </g>
     </g>
     <g id="text_17">
      <!-- 2000 -->
      <g transform="translate(20.878125 63.399088)scale(0.1 -0.1)">
       <use xlink:href="#DejaVuSans-50"/>
       <use x="63.623047" xlink:href="#DejaVuSans-48"/>
       <use x="127.246094" xlink:href="#DejaVuSans-48"/>
       <use x="190.869141" xlink:href="#DejaVuSans-48"/>
      </g>
     </g>
    </g>
    <g id="ytick_9">
     <g id="line2d_35">
      <path clip-path="url(#pa2876806cb)" d="M 53.328125 37.844326 
L 304.428125 37.844326 
" style="fill:none;stroke:#b0b0b0;stroke-linecap:square;stroke-opacity:0.6;stroke-width:0.8;"/>
     </g>
     <g id="line2d_36">
      <g>
       <use style="stroke:#000000;stroke-width:0.8;" x="53.328125" xlink:href="#mce5682d0ac" y="37.844326"/>
      </g>
     </g>
     <g id="text_18">
      <!-- 5000 -->
      <g transform="translate(20.878125 41.643545)scale(0.1 -0.1)">
       <use xlink:href="#DejaVuSans-53"/>
       <use x="63.623047" xlink:href="#DejaVuSans-48"/>
       <use x="127.246094" xlink:href="#DejaVuSans-48"/>
       <use x="190.869141" xlink:href="#DejaVuSans-48"/>
      </g>
     </g>
    </g>
    <g id="ytick_10">
     <g id="line2d_37">
      <defs>
       <path d="M 0 0 
L -2 0 
" id="m62b00a7639" style="stroke:#000000;stroke-width:0.6;"/>
      </defs>
      <g>
       <use style="stroke:#000000;stroke-width:0.6;" x="53.328125" xlink:href="#m62b00a7639" y="159.31371"/>
      </g>
     </g>
    </g>
    <g id="ytick_11">
     <g id="line2d_38">
      <g>
       <use style="stroke:#000000;stroke-width:0.6;" x="53.328125" xlink:href="#m62b00a7639" y="152.483258"/>
      </g>
     </g>
    </g>
    <g id="ytick_12">
     <g id="line2d_39">
      <g>
       <use style="stroke:#000000;stroke-width:0.6;" x="53.328125" xlink:href="#m62b00a7639" y="142.856276"/>
      </g>
     </g>
    </g>
    <g id="ytick_13">
     <g id="line2d_40">
      <g>
       <use style="stroke:#000000;stroke-width:0.6;" x="53.328125" xlink:href="#m62b00a7639" y="139.196268"/>
      </g>
     </g>
    </g>
    <g id="ytick_14">
     <g id="line2d_41">
      <g>
       <use style="stroke:#000000;stroke-width:0.6;" x="53.328125" xlink:href="#m62b00a7639" y="136.025824"/>
      </g>
     </g>
    </g>
    <g id="ytick_15">
     <g id="line2d_42">
      <g>
       <use style="stroke:#000000;stroke-width:0.6;" x="53.328125" xlink:href="#m62b00a7639" y="133.229295"/>
      </g>
     </g>
    </g>
    <g id="ytick_16">
     <g id="line2d_43">
      <g>
       <use style="stroke:#000000;stroke-width:0.6;" x="53.328125" xlink:href="#m62b00a7639" y="104.643299"/>
      </g>
     </g>
    </g>
    <g id="ytick_17">
     <g id="line2d_44">
      <g>
       <use style="stroke:#000000;stroke-width:0.6;" x="53.328125" xlink:href="#m62b00a7639" y="97.812847"/>
      </g>
     </g>
    </g>
    <g id="ytick_18">
     <g id="line2d_45">
      <g>
       <use style="stroke:#000000;stroke-width:0.6;" x="53.328125" xlink:href="#m62b00a7639" y="88.185865"/>
      </g>
     </g>
    </g>
    <g id="ytick_19">
     <g id="line2d_46">
      <g>
       <use style="stroke:#000000;stroke-width:0.6;" x="53.328125" xlink:href="#m62b00a7639" y="84.525857"/>
      </g>
     </g>
    </g>
    <g id="ytick_20">
     <g id="line2d_47">
      <g>
       <use style="stroke:#000000;stroke-width:0.6;" x="53.328125" xlink:href="#m62b00a7639" y="81.355413"/>
      </g>
     </g>
    </g>
    <g id="ytick_21">
     <g id="line2d_48">
      <g>
       <use style="stroke:#000000;stroke-width:0.6;" x="53.328125" xlink:href="#m62b00a7639" y="78.558884"/>
      </g>
     </g>
    </g>
    <g id="ytick_22">
     <g id="line2d_49">
      <g>
       <use style="stroke:#000000;stroke-width:0.6;" x="53.328125" xlink:href="#m62b00a7639" y="49.972888"/>
      </g>
     </g>
    </g>
    <g id="ytick_23">
     <g id="line2d_50">
      <g>
       <use style="stroke:#000000;stroke-width:0.6;" x="53.328125" xlink:href="#m62b00a7639" y="43.142436"/>
      </g>
     </g>
    </g>
    <g id="ytick_24">
     <g id="line2d_51">
      <g>
       <use style="stroke:#000000;stroke-width:0.6;" x="53.328125" xlink:href="#m62b00a7639" y="33.515455"/>
      </g>
     </g>
    </g>
    <g id="ytick_25">
     <g id="line2d_52">
      <g>
       <use style="stroke:#000000;stroke-width:0.6;" x="53.328125" xlink:href="#m62b00a7639" y="29.855446"/>
      </g>
     </g>
    </g>
    <g id="ytick_26">
     <g id="line2d_53">
      <g>
       <use style="stroke:#000000;stroke-width:0.6;" x="53.328125" xlink:href="#m62b00a7639" y="26.685002"/>
      </g>
     </g>
    </g>
    <g id="ytick_27">
     <g id="line2d_54">
      <g>
       <use style="stroke:#000000;stroke-width:0.6;" x="53.328125" xlink:href="#m62b00a7639" y="23.888473"/>
      </g>
     </g>
    </g>
    <g id="text_19">
     <!-- Daily observations -->
     <defs>
      <path d="M 19.671875 64.796875 
L 19.671875 8.109375 
L 31.59375 8.109375 
Q 46.6875 8.109375 53.6875 14.9375 
Q 60.6875 21.78125 60.6875 36.53125 
Q 60.6875 51.171875 53.6875 57.984375 
Q 46.6875 64.796875 31.59375 64.796875 
z
M 9.8125 72.90625 
L 30.078125 72.90625 
Q 51.265625 72.90625 61.171875 64.09375 
Q 71.09375 55.28125 71.09375 36.53125 
Q 71.09375 17.671875 61.125 8.828125 
Q 51.171875 0 30.078125 0 
L 9.8125 0 
z
" id="DejaVuSans-68"/>
      <path d="M 9.421875 54.6875 
L 18.40625 54.6875 
L 18.40625 0 
L 9.421875 0 
z
M 9.421875 75.984375 
L 18.40625 75.984375 
L 18.40625 64.59375 
L 9.421875 64.59375 
z
" id="DejaVuSans-105"/>
      <path d="M 9.421875 75.984375 
L 18.40625 75.984375 
L 18.40625 0 
L 9.421875 0 
z
" id="DejaVuSans-108"/>
      <path d="M 32.171875 -5.078125 
Q 28.375 -14.84375 24.75 -17.8125 
Q 21.140625 -20.796875 15.09375 -20.796875 
L 7.90625 -20.796875 
L 7.90625 -13.28125 
L 13.1875 -13.28125 
Q 16.890625 -13.28125 18.9375 -11.515625 
Q 21 -9.765625 23.484375 -3.21875 
L 25.09375 0.875 
L 2.984375 54.6875 
L 12.5 54.6875 
L 29.59375 11.921875 
L 46.6875 54.6875 
L 56.203125 54.6875 
z
" id="DejaVuSans-121"/>
      <path id="DejaVuSans-32"/>
      <path d="M 30.609375 48.390625 
Q 23.390625 48.390625 19.1875 42.75 
Q 14.984375 37.109375 14.984375 27.296875 
Q 14.984375 17.484375 19.15625 11.84375 
Q 23.34375 6.203125 30.609375 6.203125 
Q 37.796875 6.203125 41.984375 11.859375 
Q 46.1875 17.53125 46.1875 27.296875 
Q 46.1875 37.015625 41.984375 42.703125 
Q 37.796875 48.390625 30.609375 48.390625 
z
M 30.609375 56 
Q 42.328125 56 49.015625 48.375 
Q 55.71875 40.765625 55.71875 27.296875 
Q 55.71875 13.875 49.015625 6.21875 
Q 42.328125 -1.421875 30.609375 -1.421875 
Q 18.84375 -1.421875 12.171875 6.21875 
Q 5.515625 13.875 5.515625 27.296875 
Q 5.515625 40.765625 12.171875 48.375 
Q 18.84375 56 30.609375 56 
z
" id="DejaVuSans-111"/>
      <path d="M 48.6875 27.296875 
Q 48.6875 37.203125 44.609375 42.84375 
Q 40.53125 48.484375 33.40625 48.484375 
Q 26.265625 48.484375 22.1875 42.84375 
Q 18.109375 37.203125 18.109375 27.296875 
Q 18.109375 17.390625 22.1875 11.75 
Q 26.265625 6.109375 33.40625 6.109375 
Q 40.53125 6.109375 44.609375 11.75 
Q 48.6875 17.390625 48.6875 27.296875 
z
M 18.109375 46.390625 
Q 20.953125 51.265625 25.265625 53.625 
Q 29.59375 56 35.59375 56 
Q 45.5625 56 51.78125 48.09375 
Q 58.015625 40.1875 58.015625 27.296875 
Q 58.015625 14.40625 51.78125 6.484375 
Q 45.5625 -1.421875 35.59375 -1.421875 
Q 29.59375 -1.421875 25.265625 0.953125 
Q 20.953125 3.328125 18.109375 8.203125 
L 18.109375 0 
L 9.078125 0 
L 9.078125 75.984375 
L 18.109375 75.984375 
z
" id="DejaVuSans-98"/>
      <path d="M 44.28125 53.078125 
L 44.28125 44.578125 
Q 40.484375 46.53125 36.375 47.5 
Q 32.28125 48.484375 27.875 48.484375 
Q 21.1875 48.484375 17.84375 46.4375 
Q 14.5 44.390625 14.5 40.28125 
Q 14.5 37.15625 16.890625 35.375 
Q 19.28125 33.59375 26.515625 31.984375 
L 29.59375 31.296875 
Q 39.15625 29.25 43.1875 25.515625 
Q 47.21875 21.78125 47.21875 15.09375 
Q 47.21875 7.46875 41.1875 3.015625 
Q 35.15625 -1.421875 24.609375 -1.421875 
Q 20.21875 -1.421875 15.453125 -0.5625 
Q 10.6875 0.296875 5.421875 2 
L 5.421875 11.28125 
Q 10.40625 8.6875 15.234375 7.390625 
Q 20.0625 6.109375 24.8125 6.109375 
Q 31.15625 6.109375 34.5625 8.28125 
Q 37.984375 10.453125 37.984375 14.40625 
Q 37.984375 18.0625 35.515625 20.015625 
Q 33.0625 21.96875 24.703125 23.78125 
L 21.578125 24.515625 
Q 13.234375 26.265625 9.515625 29.90625 
Q 5.8125 33.546875 5.8125 39.890625 
Q 5.8125 47.609375 11.28125 51.796875 
Q 16.75 56 26.8125 56 
Q 31.78125 56 36.171875 55.265625 
Q 40.578125 54.546875 44.28125 53.078125 
z
" id="DejaVuSans-115"/>
      <path d="M 56.203125 29.59375 
L 56.203125 25.203125 
L 14.890625 25.203125 
Q 15.484375 15.921875 20.484375 11.0625 
Q 25.484375 6.203125 34.421875 6.203125 
Q 39.59375 6.203125 44.453125 7.46875 
Q 49.3125 8.734375 54.109375 11.28125 
L 54.109375 2.78125 
Q 49.265625 0.734375 44.1875 -0.34375 
Q 39.109375 -1.421875 33.890625 -1.421875 
Q 20.796875 -1.421875 13.15625 6.1875 
Q 5.515625 13.8125 5.515625 26.8125 
Q 5.515625 40.234375 12.765625 48.109375 
Q 20.015625 56 32.328125 56 
Q 43.359375 56 49.78125 48.890625 
Q 56.203125 41.796875 56.203125 29.59375 
z
M 47.21875 32.234375 
Q 47.125 39.59375 43.09375 43.984375 
Q 39.0625 48.390625 32.421875 48.390625 
Q 24.90625 48.390625 20.390625 44.140625 
Q 15.875 39.890625 15.1875 32.171875 
z
" id="DejaVuSans-101"/>
      <path d="M 2.984375 54.6875 
L 12.5 54.6875 
L 29.59375 8.796875 
L 46.6875 54.6875 
L 56.203125 54.6875 
L 35.6875 0 
L 23.484375 0 
z
" id="DejaVuSans-118"/>
      <path d="M 18.3125 70.21875 
L 18.3125 54.6875 
L 36.8125 54.6875 
L 36.8125 47.703125 
L 18.3125 47.703125 
L 18.3125 18.015625 
Q 18.3125 11.328125 20.140625 9.421875 
Q 21.96875 7.515625 27.59375 7.515625 
L 36.8125 7.515625 
L 36.8125 0 
L 27.59375 0 
Q 17.1875 0 13.234375 3.875 
Q 9.28125 7.765625 9.28125 18.015625 
L 9.28125 47.703125 
L 2.6875 47.703125 
L 2.6875 54.6875 
L 9.28125 54.6875 
L 9.28125 70.21875 
z
" id="DejaVuSans-116"/>
      <path d="M 54.890625 33.015625 
L 54.890625 0 
L 45.90625 0 
L 45.90625 32.71875 
Q 45.90625 40.484375 42.875 44.328125 
Q 39.84375 48.1875 33.796875 48.1875 
Q 26.515625 48.1875 22.3125 43.546875 
Q 18.109375 38.921875 18.109375 30.90625 
L 18.109375 0 
L 9.078125 0 
L 9.078125 54.6875 
L 18.109375 54.6875 
L 18.109375 46.1875 
Q 21.34375 51.125 25.703125 53.5625 
Q 30.078125 56 35.796875 56 
Q 45.21875 56 50.046875 50.171875 
Q 54.890625 44.34375 54.890625 33.015625 
z
" id="DejaVuSans-110"/>
     </defs>
     <g transform="translate(14.798438 150.274531)rotate(-90)scale(0.1 -0.1)">
      <use xlink:href="#DejaVuSans-68"/>
      <use x="77.001953" xlink:href="#DejaVuSans-97"/>
      <use x="138.28125" xlink:href="#DejaVuSans-105"/>
      <use x="166.064453" xlink:href="#DejaVuSans-108"/>
      <use x="193.847656" xlink:href="#DejaVuSans-121"/>
      <use x="253.027344" xlink:href="#DejaVuSans-32"/>
      <use x="284.814453" xlink:href="#DejaVuSans-111"/>
      <use x="345.996094" xlink:href="#DejaVuSans-98"/>
      <use x="409.472656" xlink:href="#DejaVuSans-115"/>
      <use x="461.572266" xlink:href="#DejaVuSans-101"/>
      <use x="523.095703" xlink:href="#DejaVuSans-114"/>
      <use x="564.208984" xlink:href="#DejaVuSans-118"/>
      <use x="623.388672" xlink:href="#DejaVuSans-97"/>
      <use x="684.667969" xlink:href="#DejaVuSans-116"/>
      <use x="723.876953" xlink:href="#DejaVuSans-105"/>
      <use x="751.660156" xlink:href="#DejaVuSans-111"/>
      <use x="812.841797" xlink:href="#DejaVuSans-110"/>
      <use x="876.220703" xlink:href="#DejaVuSans-115"/>
     </g>
    </g>
   </g>
   <g id="line2d_55">
    <path clip-path="url(#pa2876806cb)" d="M 77.88793 221.474063 
L 81.270112 201.855559 
L 85.020715 213.984121 
L 88.771317 193.866679 
L 92.521919 193.866679 
L 96.272522 167.782264 
L 100.023124 144.074136 
L 103.773726 139.196268 
L 107.524329 120.630558 
L 111.274931 100.646504 
L 115.025533 87.484049 
L 118.776136 86.579442 
L 122.526738 75.401635 
L 126.27734 58.261228 
L 130.027943 54.810524 
L 133.778545 50.363893 
L 137.529147 45.128623 
L 141.27975 43.213772 
L 145.030352 53.34316 
L 148.780954 53.859534 
L 152.531557 46.258672 
L 156.282159 40.917284 
L 160.032761 39.112224 
L 163.783364 38.174262 
L 167.533966 37.877589 
L 171.284568 47.113128 
L 175.035171 46.744148 
L 178.785773 33.456171 
L 182.536375 37.055075 
L 186.286978 37.711736 
L 190.03758 34.959321 
L 193.788182 35.499491 
L 197.538785 44.662118 
L 201.289387 45.532161 
L 205.039989 32.687192 
L 208.790592 33.810106 
L 212.541194 35.981886 
L 216.291796 38.450319 
L 220.042399 41.753355 
L 223.793001 45.862665 
L 227.543603 52.316707 
L 231.294205 48.366465 
L 235.044808 42.806485 
L 238.79541 44.360296 
L 242.546012 46.620127 
L 246.296615 46.306097 
L 250.047217 58.657238 
L 253.797819 56.436847 
L 257.548422 44.903812 
L 261.299024 49.925449 
L 265.049626 46.841058 
L 268.800229 51.730003 
L 272.550831 55.261107 
L 276.301433 66.147101 
L 280.052036 76.128639 
L 283.802638 56.94092 
L 287.55324 52.882466 
L 291.303843 56.46804 
L 295.054445 60.103784 
L 298.805047 62.824645 
L 302.55565 75.844572 
L 306.306252 83.594637 
L 310.056854 67.681528 
L 312.628125 69.533082 
" style="fill:none;stroke:#1f77b4;stroke-linecap:square;stroke-width:1.5;"/>
    <defs>
     <path d="M 0 3 
C 0.795609 3 1.55874 2.683901 2.12132 2.12132 
C 2.683901 1.55874 3 0.795609 3 0 
C 3 -0.795609 2.683901 -1.55874 2.12132 -2.12132 
C 1.55874 -2.683901 0.795609 -3 0 -3 
C -0.795609 -3 -1.55874 -2.683901 -2.12132 -2.12132 
C -2.683901 -1.55874 -3 -0.795609 -3 0 
C -3 0.795609 -2.683901 1.55874 -2.12132 2.12132 
C -1.55874 2.683901 -0.795609 3 0 3 
z
" id="m2958188aec" style="stroke:#1f77b4;"/>
    </defs>
    <g clip-path="url(#pa2876806cb)">
     <use style="fill:#1f77b4;stroke:#1f77b4;" x="66.267703" xlink:href="#m2958188aec" y="240.068536"/>
     <use style="fill:#1f77b4;stroke:#1f77b4;" x="70.018305" xlink:href="#m2958188aec" y="240.068536"/>
     <use style="fill:#1f77b4;stroke:#1f77b4;" x="71.090931" xlink:href="#m2958188aec" y="15875.1325"/>
     <use style="fill:#1f77b4;stroke:#1f77b4;" x="76.446078" xlink:href="#m2958188aec" y="15875.1325"/>
     <use style="fill:#1f77b4;stroke:#1f77b4;" x="77.51951" xlink:href="#m2958188aec" y="223.611102"/>
     <use style="fill:#1f77b4;stroke:#1f77b4;" x="81.270112" xlink:href="#m2958188aec" y="201.855559"/>
     <use style="fill:#1f77b4;stroke:#1f77b4;" x="85.020715" xlink:href="#m2958188aec" y="213.984121"/>
     <use style="fill:#1f77b4;stroke:#1f77b4;" x="88.771317" xlink:href="#m2958188aec" y="193.866679"/>
     <use style="fill:#1f77b4;stroke:#1f77b4;" x="92.521919" xlink:href="#m2958188aec" y="193.866679"/>
     <use style="fill:#1f77b4;stroke:#1f77b4;" x="96.272522" xlink:href="#m2958188aec" y="167.782264"/>
     <use style="fill:#1f77b4;stroke:#1f77b4;" x="100.023124" xlink:href="#m2958188aec" y="144.074136"/>
     <use style="fill:#1f77b4;stroke:#1f77b4;" x="103.773726" xlink:href="#m2958188aec" y="139.196268"/>
     <use style="fill:#1f77b4;stroke:#1f77b4;" x="107.524329" xlink:href="#m2958188aec" y="120.630558"/>
     <use style="fill:#1f77b4;stroke:#1f77b4;" x="111.274931" xlink:href="#m2958188aec" y="100.646504"/>
     <use style="fill:#1f77b4;stroke:#1f77b4;" x="115.025533" xlink:href="#m2958188aec" y="87.484049"/>
     <use style="fill:#1f77b4;stroke:#1f77b4;" x="118.776136" xlink:href="#m2958188aec" y="86.579442"/>
     <use style="fill:#1f77b4;stroke:#1f77b4;" x="122.526738" xlink:href="#m2958188aec" y="75.401635"/>
     <use style="fill:#1f77b4;stroke:#1f77b4;" x="126.27734" xlink:href="#m2958188aec" y="58.261228"/>
     <use style="fill:#1f77b4;stroke:#1f77b4;" x="130.027943" xlink:href="#m2958188aec" y="54.810524"/>
     <use style="fill:#1f77b4;stroke:#1f77b4;" x="133.778545" xlink:href="#m2958188aec" y="50.363893"/>
     <use style="fill:#1f77b4;stroke:#1f77b4;" x="137.529147" xlink:href="#m2958188aec" y="45.128623"/>
     <use style="fill:#1f77b4;stroke:#1f77b4;" x="141.27975" xlink:href="#m2958188aec" y="43.213772"/>
     <use style="fill:#1f77b4;stroke:#1f77b4;" x="145.030352" xlink:href="#m2958188aec" y="53.34316"/>
     <use style="fill:#1f77b4;stroke:#1f77b4;" x="148.780954" xlink:href="#m2958188aec" y="53.859534"/>
     <use style="fill:#1f77b4;stroke:#1f77b4;" x="152.531557" xlink:href="#m2958188aec" y="46.258672"/>
     <use style="fill:#1f77b4;stroke:#1f77b4;" x="156.282159" xlink:href="#m2958188aec" y="40.917284"/>
     <use style="fill:#1f77b4;stroke:#1f77b4;" x="160.032761" xlink:href="#m2958188aec" y="39.112224"/>
     <use style="fill:#1f77b4;stroke:#1f77b4;" x="163.783364" xlink:href="#m2958188aec" y="38.174262"/>
     <use style="fill:#1f77b4;stroke:#1f77b4;" x="167.533966" xlink:href="#m2958188aec" y="37.877589"/>
     <use style="fill:#1f77b4;stroke:#1f77b4;" x="171.284568" xlink:href="#m2958188aec" y="47.113128"/>
     <use style="fill:#1f77b4;stroke:#1f77b4;" x="175.035171" xlink:href="#m2958188aec" y="46.744148"/>
     <use style="fill:#1f77b4;stroke:#1f77b4;" x="178.785773" xlink:href="#m2958188aec" y="33.456171"/>
     <use style="fill:#1f77b4;stroke:#1f77b4;" x="182.536375" xlink:href="#m2958188aec" y="37.055075"/>
     <use style="fill:#1f77b4;stroke:#1f77b4;" x="186.286978" xlink:href="#m2958188aec" y="37.711736"/>
     <use style="fill:#1f77b4;stroke:#1f77b4;" x="190.03758" xlink:href="#m2958188aec" y="34.959321"/>
     <use style="fill:#1f77b4;stroke:#1f77b4;" x="193.788182" xlink:href="#m2958188aec" y="35.499491"/>
     <use style="fill:#1f77b4;stroke:#1f77b4;" x="197.538785" xlink:href="#m2958188aec" y="44.662118"/>
     <use style="fill:#1f77b4;stroke:#1f77b4;" x="201.289387" xlink:href="#m2958188aec" y="45.532161"/>
     <use style="fill:#1f77b4;stroke:#1f77b4;" x="205.039989" xlink:href="#m2958188aec" y="32.687192"/>
     <use style="fill:#1f77b4;stroke:#1f77b4;" x="208.790592" xlink:href="#m2958188aec" y="33.810106"/>
     <use style="fill:#1f77b4;stroke:#1f77b4;" x="212.541194" xlink:href="#m2958188aec" y="35.981886"/>
     <use style="fill:#1f77b4;stroke:#1f77b4;" x="216.291796" xlink:href="#m2958188aec" y="38.450319"/>
     <use style="fill:#1f77b4;stroke:#1f77b4;" x="220.042399" xlink:href="#m2958188aec" y="41.753355"/>
     <use style="fill:#1f77b4;stroke:#1f77b4;" x="223.793001" xlink:href="#m2958188aec" y="45.862665"/>
     <use style="fill:#1f77b4;stroke:#1f77b4;" x="227.543603" xlink:href="#m2958188aec" y="52.316707"/>
     <use style="fill:#1f77b4;stroke:#1f77b4;" x="231.294205" xlink:href="#m2958188aec" y="48.366465"/>
     <use style="fill:#1f77b4;stroke:#1f77b4;" x="235.044808" xlink:href="#m2958188aec" y="42.806485"/>
     <use style="fill:#1f77b4;stroke:#1f77b4;" x="238.79541" xlink:href="#m2958188aec" y="44.360296"/>
     <use style="fill:#1f77b4;stroke:#1f77b4;" x="242.546012" xlink:href="#m2958188aec" y="46.620127"/>
     <use style="fill:#1f77b4;stroke:#1f77b4;" x="246.296615" xlink:href="#m2958188aec" y="46.306097"/>
     <use style="fill:#1f77b4;stroke:#1f77b4;" x="250.047217" xlink:href="#m2958188aec" y="58.657238"/>
     <use style="fill:#1f77b4;stroke:#1f77b4;" x="253.797819" xlink:href="#m2958188aec" y="56.436847"/>
     <use style="fill:#1f77b4;stroke:#1f77b4;" x="257.548422" xlink:href="#m2958188aec" y="44.903812"/>
     <use style="fill:#1f77b4;stroke:#1f77b4;" x="261.299024" xlink:href="#m2958188aec" y="49.925449"/>
     <use style="fill:#1f77b4;stroke:#1f77b4;" x="265.049626" xlink:href="#m2958188aec" y="46.841058"/>
     <use style="fill:#1f77b4;stroke:#1f77b4;" x="268.800229" xlink:href="#m2958188aec" y="51.730003"/>
     <use style="fill:#1f77b4;stroke:#1f77b4;" x="272.550831" xlink:href="#m2958188aec" y="55.261107"/>
     <use style="fill:#1f77b4;stroke:#1f77b4;" x="276.301433" xlink:href="#m2958188aec" y="66.147101"/>
     <use style="fill:#1f77b4;stroke:#1f77b4;" x="280.052036" xlink:href="#m2958188aec" y="76.128639"/>
     <use style="fill:#1f77b4;stroke:#1f77b4;" x="283.802638" xlink:href="#m2958188aec" y="56.94092"/>
     <use style="fill:#1f77b4;stroke:#1f77b4;" x="287.55324" xlink:href="#m2958188aec" y="52.882466"/>
     <use style="fill:#1f77b4;stroke:#1f77b4;" x="291.303843" xlink:href="#m2958188aec" y="56.46804"/>
     <use style="fill:#1f77b4;stroke:#1f77b4;" x="295.054445" xlink:href="#m2958188aec" y="60.103784"/>
     <use style="fill:#1f77b4;stroke:#1f77b4;" x="298.805047" xlink:href="#m2958188aec" y="62.824645"/>
     <use style="fill:#1f77b4;stroke:#1f77b4;" x="302.55565" xlink:href="#m2958188aec" y="75.844572"/>
     <use style="fill:#1f77b4;stroke:#1f77b4;" x="306.306252" xlink:href="#m2958188aec" y="83.594637"/>
     <use style="fill:#1f77b4;stroke:#1f77b4;" x="310.056854" xlink:href="#m2958188aec" y="67.681528"/>
     <use style="fill:#1f77b4;stroke:#1f77b4;" x="313.807457" xlink:href="#m2958188aec" y="70.382311"/>
     <use style="fill:#1f77b4;stroke:#1f77b4;" x="317.558059" xlink:href="#m2958188aec" y="75.240508"/>
     <use style="fill:#1f77b4;stroke:#1f77b4;" x="321.308661" xlink:href="#m2958188aec" y="92.278485"/>
     <use style="fill:#1f77b4;stroke:#1f77b4;" x="325.059264" xlink:href="#m2958188aec" y="183.13517"/>
    </g>
   </g>
   <g id="line2d_56">
    <path clip-path="url(#pa2876806cb)" d="M 66.267703 197.526687 
L 68.378967 221.474063 
M 71.293958 221.474063 
L 73.768908 185.398125 
L 77.51951 193.866679 
L 81.270112 190.696235 
L 85.020715 179.168795 
L 88.771317 179.168795 
L 92.521919 185.398125 
L 96.272522 177.409245 
L 100.023124 154.984839 
L 103.773726 149.164882 
L 107.524329 139.196268 
L 111.274931 138.199909 
L 115.025533 123.602313 
L 118.776136 120.78625 
L 122.526738 115.866022 
L 126.27734 104.643299 
L 130.027943 101.811621 
L 133.778545 95.549892 
L 137.529147 91.131255 
L 141.27975 87.292726 
L 145.030352 85.815232 
L 148.780954 84.970945 
L 152.531557 75.587128 
L 156.282159 73.029747 
L 160.032761 70.778195 
L 163.783364 68.289925 
L 167.533966 69.108432 
L 171.284568 70.401014 
L 175.035171 68.914322 
L 178.785773 64.413261 
L 182.536375 66.765073 
L 186.286978 67.202522 
L 190.03758 64.823898 
L 193.788182 65.09168 
L 197.538785 69.055335 
L 201.289387 69.143895 
L 205.039989 63.753689 
L 208.790592 66.319778 
L 212.541194 67.781851 
L 216.291796 70.029731 
L 220.042399 71.472599 
L 223.793001 76.248011 
L 227.543603 77.95974 
L 231.294205 73.880844 
L 235.044808 76.977129 
L 238.79541 79.999947 
L 242.546012 85.005531 
L 246.296615 83.95613 
L 250.047217 91.675013 
L 253.797819 93.933385 
L 257.548422 90.997239 
L 261.299024 91.720893 
L 265.049626 96.095733 
L 268.800229 99.986932 
L 272.550831 100.579716 
L 276.301433 107.23298 
L 280.052036 109.355131 
L 283.802638 103.259817 
L 287.55324 104.643299 
L 291.303843 107.14488 
L 295.054445 115.48814 
L 298.805047 109.74437 
L 302.55565 116.640321 
L 306.306252 118.982113 
L 310.056854 117.713636 
L 312.628125 122.617369 
" style="fill:none;stroke:#ff7f0e;stroke-linecap:square;stroke-width:1.5;"/>
    <defs>
     <path d="M 0 3 
C 0.795609 3 1.55874 2.683901 2.12132 2.12132 
C 2.683901 1.55874 3 0.795609 3 0 
C 3 -0.795609 2.683901 -1.55874 2.12132 -2.12132 
C 1.55874 -2.683901 0.795609 -3 0 -3 
C -0.795609 -3 -1.55874 -2.683901 -2.12132 -2.12132 
C -2.683901 -1.55874 -3 -0.795609 -3 0 
C -3 0.795609 -2.683901 1.55874 -2.12132 2.12132 
C -1.55874 2.683901 -0.795609 3 0 3 
z
" id="m89e61ef8e7" style="stroke:#ff7f0e;"/>
    </defs>
    <g clip-path="url(#pa2876806cb)">
     <use style="fill:#ff7f0e;stroke:#ff7f0e;" x="66.267703" xlink:href="#m89e61ef8e7" y="197.526687"/>
     <use style="fill:#ff7f0e;stroke:#ff7f0e;" x="70.018305" xlink:href="#m89e61ef8e7" y="240.068536"/>
     <use style="fill:#ff7f0e;stroke:#ff7f0e;" x="73.768908" xlink:href="#m89e61ef8e7" y="185.398125"/>
     <use style="fill:#ff7f0e;stroke:#ff7f0e;" x="77.51951" xlink:href="#m89e61ef8e7" y="193.866679"/>
     <use style="fill:#ff7f0e;stroke:#ff7f0e;" x="81.270112" xlink:href="#m89e61ef8e7" y="190.696235"/>
     <use style="fill:#ff7f0e;stroke:#ff7f0e;" x="85.020715" xlink:href="#m89e61ef8e7" y="179.168795"/>
     <use style="fill:#ff7f0e;stroke:#ff7f0e;" x="88.771317" xlink:href="#m89e61ef8e7" y="179.168795"/>
     <use style="fill:#ff7f0e;stroke:#ff7f0e;" x="92.521919" xlink:href="#m89e61ef8e7" y="185.398125"/>
     <use style="fill:#ff7f0e;stroke:#ff7f0e;" x="96.272522" xlink:href="#m89e61ef8e7" y="177.409245"/>
     <use style="fill:#ff7f0e;stroke:#ff7f0e;" x="100.023124" xlink:href="#m89e61ef8e7" y="154.984839"/>
     <use style="fill:#ff7f0e;stroke:#ff7f0e;" x="103.773726" xlink:href="#m89e61ef8e7" y="149.164882"/>
     <use style="fill:#ff7f0e;stroke:#ff7f0e;" x="107.524329" xlink:href="#m89e61ef8e7" y="139.196268"/>
     <use style="fill:#ff7f0e;stroke:#ff7f0e;" x="111.274931" xlink:href="#m89e61ef8e7" y="138.199909"/>
     <use style="fill:#ff7f0e;stroke:#ff7f0e;" x="115.025533" xlink:href="#m89e61ef8e7" y="123.602313"/>
     <use style="fill:#ff7f0e;stroke:#ff7f0e;" x="118.776136" xlink:href="#m89e61ef8e7" y="120.78625"/>
     <use style="fill:#ff7f0e;stroke:#ff7f0e;" x="122.526738" xlink:href="#m89e61ef8e7" y="115.866022"/>
     <use style="fill:#ff7f0e;stroke:#ff7f0e;" x="126.27734" xlink:href="#m89e61ef8e7" y="104.643299"/>
     <use style="fill:#ff7f0e;stroke:#ff7f0e;" x="130.027943" xlink:href="#m89e61ef8e7" y="101.811621"/>
     <use style="fill:#ff7f0e;stroke:#ff7f0e;" x="133.778545" xlink:href="#m89e61ef8e7" y="95.549892"/>
     <use style="fill:#ff7f0e;stroke:#ff7f0e;" x="137.529147" xlink:href="#m89e61ef8e7" y="91.131255"/>
     <use style="fill:#ff7f0e;stroke:#ff7f0e;" x="141.27975" xlink:href="#m89e61ef8e7" y="87.292726"/>
     <use style="fill:#ff7f0e;stroke:#ff7f0e;" x="145.030352" xlink:href="#m89e61ef8e7" y="85.815232"/>
     <use style="fill:#ff7f0e;stroke:#ff7f0e;" x="148.780954" xlink:href="#m89e61ef8e7" y="84.970945"/>
     <use style="fill:#ff7f0e;stroke:#ff7f0e;" x="152.531557" xlink:href="#m89e61ef8e7" y="75.587128"/>
     <use style="fill:#ff7f0e;stroke:#ff7f0e;" x="156.282159" xlink:href="#m89e61ef8e7" y="73.029747"/>
     <use style="fill:#ff7f0e;stroke:#ff7f0e;" x="160.032761" xlink:href="#m89e61ef8e7" y="70.778195"/>
     <use style="fill:#ff7f0e;stroke:#ff7f0e;" x="163.783364" xlink:href="#m89e61ef8e7" y="68.289925"/>
     <use style="fill:#ff7f0e;stroke:#ff7f0e;" x="167.533966" xlink:href="#m89e61ef8e7" y="69.108432"/>
     <use style="fill:#ff7f0e;stroke:#ff7f0e;" x="171.284568" xlink:href="#m89e61ef8e7" y="70.401014"/>
     <use style="fill:#ff7f0e;stroke:#ff7f0e;" x="175.035171" xlink:href="#m89e61ef8e7" y="68.914322"/>
     <use style="fill:#ff7f0e;stroke:#ff7f0e;" x="178.785773" xlink:href="#m89e61ef8e7" y="64.413261"/>
     <use style="fill:#ff7f0e;stroke:#ff7f0e;" x="182.536375" xlink:href="#m89e61ef8e7" y="66.765073"/>
     <use style="fill:#ff7f0e;stroke:#ff7f0e;" x="186.286978" xlink:href="#m89e61ef8e7" y="67.202522"/>
     <use style="fill:#ff7f0e;stroke:#ff7f0e;" x="190.03758" xlink:href="#m89e61ef8e7" y="64.823898"/>
     <use style="fill:#ff7f0e;stroke:#ff7f0e;" x="193.788182" xlink:href="#m89e61ef8e7" y="65.09168"/>
     <use style="fill:#ff7f0e;stroke:#ff7f0e;" x="197.538785" xlink:href="#m89e61ef8e7" y="69.055335"/>
     <use style="fill:#ff7f0e;stroke:#ff7f0e;" x="201.289387" xlink:href="#m89e61ef8e7" y="69.143895"/>
     <use style="fill:#ff7f0e;stroke:#ff7f0e;" x="205.039989" xlink:href="#m89e61ef8e7" y="63.753689"/>
     <use style="fill:#ff7f0e;stroke:#ff7f0e;" x="208.790592" xlink:href="#m89e61ef8e7" y="66.319778"/>
     <use style="fill:#ff7f0e;stroke:#ff7f0e;" x="212.541194" xlink:href="#m89e61ef8e7" y="67.781851"/>
     <use style="fill:#ff7f0e;stroke:#ff7f0e;" x="216.291796" xlink:href="#m89e61ef8e7" y="70.029731"/>
     <use style="fill:#ff7f0e;stroke:#ff7f0e;" x="220.042399" xlink:href="#m89e61ef8e7" y="71.472599"/>
     <use style="fill:#ff7f0e;stroke:#ff7f0e;" x="223.793001" xlink:href="#m89e61ef8e7" y="76.248011"/>
     <use style="fill:#ff7f0e;stroke:#ff7f0e;" x="227.543603" xlink:href="#m89e61ef8e7" y="77.95974"/>
     <use style="fill:#ff7f0e;stroke:#ff7f0e;" x="231.294205" xlink:href="#m89e61ef8e7" y="73.880844"/>
     <use style="fill:#ff7f0e;stroke:#ff7f0e;" x="235.044808" xlink:href="#m89e61ef8e7" y="76.977129"/>
     <use style="fill:#ff7f0e;stroke:#ff7f0e;" x="238.79541" xlink:href="#m89e61ef8e7" y="79.999947"/>
     <use style="fill:#ff7f0e;stroke:#ff7f0e;" x="242.546012" xlink:href="#m89e61ef8e7" y="85.005531"/>
     <use style="fill:#ff7f0e;stroke:#ff7f0e;" x="246.296615" xlink:href="#m89e61ef8e7" y="83.95613"/>
     <use style="fill:#ff7f0e;stroke:#ff7f0e;" x="250.047217" xlink:href="#m89e61ef8e7" y="91.675013"/>
     <use style="fill:#ff7f0e;stroke:#ff7f0e;" x="253.797819" xlink:href="#m89e61ef8e7" y="93.933385"/>
     <use style="fill:#ff7f0e;stroke:#ff7f0e;" x="257.548422" xlink:href="#m89e61ef8e7" y="90.997239"/>
     <use style="fill:#ff7f0e;stroke:#ff7f0e;" x="261.299024" xlink:href="#m89e61ef8e7" y="91.720893"/>
     <use style="fill:#ff7f0e;stroke:#ff7f0e;" x="265.049626" xlink:href="#m89e61ef8e7" y="96.095733"/>
     <use style="fill:#ff7f0e;stroke:#ff7f0e;" x="268.800229" xlink:href="#m89e61ef8e7" y="99.986932"/>
     <use style="fill:#ff7f0e;stroke:#ff7f0e;" x="272.550831" xlink:href="#m89e61ef8e7" y="100.579716"/>
     <use style="fill:#ff7f0e;stroke:#ff7f0e;" x="276.301433" xlink:href="#m89e61ef8e7" y="107.23298"/>
     <use style="fill:#ff7f0e;stroke:#ff7f0e;" x="280.052036" xlink:href="#m89e61ef8e7" y="109.355131"/>
     <use style="fill:#ff7f0e;stroke:#ff7f0e;" x="283.802638" xlink:href="#m89e61ef8e7" y="103.259817"/>
     <use style="fill:#ff7f0e;stroke:#ff7f0e;" x="287.55324" xlink:href="#m89e61ef8e7" y="104.643299"/>
     <use style="fill:#ff7f0e;stroke:#ff7f0e;" x="291.303843" xlink:href="#m89e61ef8e7" y="107.14488"/>
     <use style="fill:#ff7f0e;stroke:#ff7f0e;" x="295.054445" xlink:href="#m89e61ef8e7" y="115.48814"/>
     <use style="fill:#ff7f0e;stroke:#ff7f0e;" x="298.805047" xlink:href="#m89e61ef8e7" y="109.74437"/>
     <use style="fill:#ff7f0e;stroke:#ff7f0e;" x="302.55565" xlink:href="#m89e61ef8e7" y="116.640321"/>
     <use style="fill:#ff7f0e;stroke:#ff7f0e;" x="306.306252" xlink:href="#m89e61ef8e7" y="118.982113"/>
     <use style="fill:#ff7f0e;stroke:#ff7f0e;" x="310.056854" xlink:href="#m89e61ef8e7" y="117.713636"/>
     <use style="fill:#ff7f0e;stroke:#ff7f0e;" x="313.807457" xlink:href="#m89e61ef8e7" y="124.866501"/>
     <use style="fill:#ff7f0e;stroke:#ff7f0e;" x="317.558059" xlink:href="#m89e61ef8e7" y="140.593321"/>
     <use style="fill:#ff7f0e;stroke:#ff7f0e;" x="321.308661" xlink:href="#m89e61ef8e7" y="170.158551"/>
     <use style="fill:#ff7f0e;stroke:#ff7f0e;" x="322.384708" xlink:href="#m89e61ef8e7" y="15875.1325"/>
    </g>
   </g>
   <g id="line2d_57">
    <path clip-path="url(#pa2876806cb)" d="M 119.083414 221.474063 
L 122.526738 197.526687 
L 126.27734 187.899706 
L 130.027943 193.866679 
L 133.778545 167.782264 
L 137.529147 164.61182 
L 141.27975 149.686728 
L 145.030352 151.89698 
L 148.780954 148.154387 
L 152.531557 135.151748 
L 156.282159 132.196825 
L 160.032761 126.201804 
L 163.783364 116.121326 
L 167.533966 113.111853 
L 171.284568 107.321409 
L 175.035171 105.944614 
L 178.785773 103.560366 
L 182.536375 99.792581 
L 186.286978 96.711018 
L 190.03758 94.597927 
L 193.788182 94.186781 
L 197.538785 93.782634 
L 201.289387 90.997239 
L 205.039989 90.251782 
L 208.790592 89.11392 
L 212.541194 91.446932 
L 216.291796 91.537901 
L 220.042399 92.372704 
L 223.793001 92.044562 
L 227.543603 91.131255 
L 231.294205 90.908314 
L 235.044808 93.286937 
L 238.79541 96.151014 
L 242.546012 98.782086 
L 246.296615 100.848002 
L 250.047217 100.983291 
L 253.797819 100.579716 
L 257.548422 102.597177 
L 261.299024 105.53024 
L 265.049626 105.53024 
L 268.800229 105.448226 
L 272.550831 106.709215 
L 276.301433 111.792455 
L 280.052036 112.663857 
L 283.802638 112.115494 
L 287.55324 116.121326 
L 291.303843 117.03715 
L 295.054445 118.269054 
L 298.805047 121.580407 
L 302.55565 124.316444 
L 306.306252 127.825894 
L 310.056854 135.439546 
L 312.628125 138.015012 
" style="fill:none;stroke:#2ca02c;stroke-linecap:square;stroke-width:1.5;"/>
    <defs>
     <path d="M 0 3 
C 0.795609 3 1.55874 2.683901 2.12132 2.12132 
C 2.683901 1.55874 3 0.795609 3 0 
C 3 -0.795609 2.683901 -1.55874 2.12132 -2.12132 
C 1.55874 -2.683901 0.795609 -3 0 -3 
C -0.795609 -3 -1.55874 -2.683901 -2.12132 -2.12132 
C -2.683901 -1.55874 -3 -0.795609 -3 0 
C -3 0.795609 -2.683901 1.55874 -2.12132 2.12132 
C -1.55874 2.683901 -0.795609 3 0 3 
z
" id="m4703d78468" style="stroke:#2ca02c;"/>
    </defs>
    <g clip-path="url(#pa2876806cb)">
     <use style="fill:#2ca02c;stroke:#2ca02c;" x="106.451703" xlink:href="#m4703d78468" y="15875.1325"/>
     <use style="fill:#2ca02c;stroke:#2ca02c;" x="107.524329" xlink:href="#m4703d78468" y="240.068536"/>
     <use style="fill:#2ca02c;stroke:#2ca02c;" x="111.274931" xlink:href="#m4703d78468" y="240.068536"/>
     <use style="fill:#2ca02c;stroke:#2ca02c;" x="112.347557" xlink:href="#m4703d78468" y="15875.1325"/>
     <use style="fill:#2ca02c;stroke:#2ca02c;" x="117.702704" xlink:href="#m4703d78468" y="15875.1325"/>
     <use style="fill:#2ca02c;stroke:#2ca02c;" x="118.776136" xlink:href="#m4703d78468" y="223.611102"/>
     <use style="fill:#2ca02c;stroke:#2ca02c;" x="122.526738" xlink:href="#m4703d78468" y="197.526687"/>
     <use style="fill:#2ca02c;stroke:#2ca02c;" x="126.27734" xlink:href="#m4703d78468" y="187.899706"/>
     <use style="fill:#2ca02c;stroke:#2ca02c;" x="130.027943" xlink:href="#m4703d78468" y="193.866679"/>
     <use style="fill:#2ca02c;stroke:#2ca02c;" x="133.778545" xlink:href="#m4703d78468" y="167.782264"/>
     <use style="fill:#2ca02c;stroke:#2ca02c;" x="137.529147" xlink:href="#m4703d78468" y="164.61182"/>
     <use style="fill:#2ca02c;stroke:#2ca02c;" x="141.27975" xlink:href="#m4703d78468" y="149.686728"/>
     <use style="fill:#2ca02c;stroke:#2ca02c;" x="145.030352" xlink:href="#m4703d78468" y="151.89698"/>
     <use style="fill:#2ca02c;stroke:#2ca02c;" x="148.780954" xlink:href="#m4703d78468" y="148.154387"/>
     <use style="fill:#2ca02c;stroke:#2ca02c;" x="152.531557" xlink:href="#m4703d78468" y="135.151748"/>
     <use style="fill:#2ca02c;stroke:#2ca02c;" x="156.282159" xlink:href="#m4703d78468" y="132.196825"/>
     <use style="fill:#2ca02c;stroke:#2ca02c;" x="160.032761" xlink:href="#m4703d78468" y="126.201804"/>
     <use style="fill:#2ca02c;stroke:#2ca02c;" x="163.783364" xlink:href="#m4703d78468" y="116.121326"/>
     <use style="fill:#2ca02c;stroke:#2ca02c;" x="167.533966" xlink:href="#m4703d78468" y="113.111853"/>
     <use style="fill:#2ca02c;stroke:#2ca02c;" x="171.284568" xlink:href="#m4703d78468" y="107.321409"/>
     <use style="fill:#2ca02c;stroke:#2ca02c;" x="175.035171" xlink:href="#m4703d78468" y="105.944614"/>
     <use style="fill:#2ca02c;stroke:#2ca02c;" x="178.785773" xlink:href="#m4703d78468" y="103.560366"/>
     <use style="fill:#2ca02c;stroke:#2ca02c;" x="182.536375" xlink:href="#m4703d78468" y="99.792581"/>
     <use style="fill:#2ca02c;stroke:#2ca02c;" x="186.286978" xlink:href="#m4703d78468" y="96.711018"/>
     <use style="fill:#2ca02c;stroke:#2ca02c;" x="190.03758" xlink:href="#m4703d78468" y="94.597927"/>
     <use style="fill:#2ca02c;stroke:#2ca02c;" x="193.788182" xlink:href="#m4703d78468" y="94.186781"/>
     <use style="fill:#2ca02c;stroke:#2ca02c;" x="197.538785" xlink:href="#m4703d78468" y="93.782634"/>
     <use style="fill:#2ca02c;stroke:#2ca02c;" x="201.289387" xlink:href="#m4703d78468" y="90.997239"/>
     <use style="fill:#2ca02c;stroke:#2ca02c;" x="205.039989" xlink:href="#m4703d78468" y="90.251782"/>
     <use style="fill:#2ca02c;stroke:#2ca02c;" x="208.790592" xlink:href="#m4703d78468" y="89.11392"/>
     <use style="fill:#2ca02c;stroke:#2ca02c;" x="212.541194" xlink:href="#m4703d78468" y="91.446932"/>
     <use style="fill:#2ca02c;stroke:#2ca02c;" x="216.291796" xlink:href="#m4703d78468" y="91.537901"/>
     <use style="fill:#2ca02c;stroke:#2ca02c;" x="220.042399" xlink:href="#m4703d78468" y="92.372704"/>
     <use style="fill:#2ca02c;stroke:#2ca02c;" x="223.793001" xlink:href="#m4703d78468" y="92.044562"/>
     <use style="fill:#2ca02c;stroke:#2ca02c;" x="227.543603" xlink:href="#m4703d78468" y="91.131255"/>
     <use style="fill:#2ca02c;stroke:#2ca02c;" x="231.294205" xlink:href="#m4703d78468" y="90.908314"/>
     <use style="fill:#2ca02c;stroke:#2ca02c;" x="235.044808" xlink:href="#m4703d78468" y="93.286937"/>
     <use style="fill:#2ca02c;stroke:#2ca02c;" x="238.79541" xlink:href="#m4703d78468" y="96.151014"/>
     <use style="fill:#2ca02c;stroke:#2ca02c;" x="242.546012" xlink:href="#m4703d78468" y="98.782086"/>
     <use style="fill:#2ca02c;stroke:#2ca02c;" x="246.296615" xlink:href="#m4703d78468" y="100.848002"/>
     <use style="fill:#2ca02c;stroke:#2ca02c;" x="250.047217" xlink:href="#m4703d78468" y="100.983291"/>
     <use style="fill:#2ca02c;stroke:#2ca02c;" x="253.797819" xlink:href="#m4703d78468" y="100.579716"/>
     <use style="fill:#2ca02c;stroke:#2ca02c;" x="257.548422" xlink:href="#m4703d78468" y="102.597177"/>
     <use style="fill:#2ca02c;stroke:#2ca02c;" x="261.299024" xlink:href="#m4703d78468" y="105.53024"/>
     <use style="fill:#2ca02c;stroke:#2ca02c;" x="265.049626" xlink:href="#m4703d78468" y="105.53024"/>
     <use style="fill:#2ca02c;stroke:#2ca02c;" x="268.800229" xlink:href="#m4703d78468" y="105.448226"/>
     <use style="fill:#2ca02c;stroke:#2ca02c;" x="272.550831" xlink:href="#m4703d78468" y="106.709215"/>
     <use style="fill:#2ca02c;stroke:#2ca02c;" x="276.301433" xlink:href="#m4703d78468" y="111.792455"/>
     <use style="fill:#2ca02c;stroke:#2ca02c;" x="280.052036" xlink:href="#m4703d78468" y="112.663857"/>
     <use style="fill:#2ca02c;stroke:#2ca02c;" x="283.802638" xlink:href="#m4703d78468" y="112.115494"/>
     <use style="fill:#2ca02c;stroke:#2ca02c;" x="287.55324" xlink:href="#m4703d78468" y="116.121326"/>
     <use style="fill:#2ca02c;stroke:#2ca02c;" x="291.303843" xlink:href="#m4703d78468" y="117.03715"/>
     <use style="fill:#2ca02c;stroke:#2ca02c;" x="295.054445" xlink:href="#m4703d78468" y="118.269054"/>
     <use style="fill:#2ca02c;stroke:#2ca02c;" x="298.805047" xlink:href="#m4703d78468" y="121.580407"/>
     <use style="fill:#2ca02c;stroke:#2ca02c;" x="302.55565" xlink:href="#m4703d78468" y="124.316444"/>
     <use style="fill:#2ca02c;stroke:#2ca02c;" x="306.306252" xlink:href="#m4703d78468" y="127.825894"/>
     <use style="fill:#2ca02c;stroke:#2ca02c;" x="310.056854" xlink:href="#m4703d78468" y="135.439546"/>
     <use style="fill:#2ca02c;stroke:#2ca02c;" x="313.807457" xlink:href="#m4703d78468" y="139.196268"/>
     <use style="fill:#2ca02c;stroke:#2ca02c;" x="317.558059" xlink:href="#m4703d78468" y="145.357857"/>
     <use style="fill:#2ca02c;stroke:#2ca02c;" x="321.308661" xlink:href="#m4703d78468" y="190.696235"/>
     <use style="fill:#2ca02c;stroke:#2ca02c;" x="322.383704" xlink:href="#m4703d78468" y="15875.1325"/>
    </g>
   </g>
   <g id="patch_3">
    <path d="M 53.328125 185.398125 
L 53.328125 22.318125 
" style="fill:none;stroke:#000000;stroke-linecap:square;stroke-linejoin:miter;stroke-width:0.8;"/>
   </g>
   <g id="patch_4">
    <path d="M 304.428125 185.398125 
L 304.428125 22.318125 
" style="fill:none;stroke:#000000;stroke-linecap:square;stroke-linejoin:miter;stroke-width:0.8;"/>
   </g>
   <g id="patch_5">
    <path d="M 53.328125 185.398125 
L 304.428125 185.398125 
" style="fill:none;stroke:#000000;stroke-linecap:square;stroke-linejoin:miter;stroke-width:0.8;"/>
   </g>
   <g id="patch_6">
    <path d="M 53.328125 22.318125 
L 304.428125 22.318125 
" style="fill:none;stroke:#000000;stroke-linecap:square;stroke-linejoin:miter;stroke-width:0.8;"/>
   </g>
   <g id="text_20">
    <!-- COVID-19 in NYC -->
    <defs>
     <path d="M 64.40625 67.28125 
L 64.40625 56.890625 
Q 59.421875 61.53125 53.78125 63.8125 
Q 48.140625 66.109375 41.796875 66.109375 
Q 29.296875 66.109375 22.65625 58.46875 
Q 16.015625 50.828125 16.015625 36.375 
Q 16.015625 21.96875 22.65625 14.328125 
Q 29.296875 6.6875 41.796875 6.6875 
Q 48.140625 6.6875 53.78125 8.984375 
Q 59.421875 11.28125 64.40625 15.921875 
L 64.40625 5.609375 
Q 59.234375 2.09375 53.4375 0.328125 
Q 47.65625 -1.421875 41.21875 -1.421875 
Q 24.65625 -1.421875 15.125 8.703125 
Q 5.609375 18.84375 5.609375 36.375 
Q 5.609375 53.953125 15.125 64.078125 
Q 24.65625 74.21875 41.21875 74.21875 
Q 47.75 74.21875 53.53125 72.484375 
Q 59.328125 70.75 64.40625 67.28125 
z
" id="DejaVuSans-67"/>
     <path d="M 39.40625 66.21875 
Q 28.65625 66.21875 22.328125 58.203125 
Q 16.015625 50.203125 16.015625 36.375 
Q 16.015625 22.609375 22.328125 14.59375 
Q 28.65625 6.59375 39.40625 6.59375 
Q 50.140625 6.59375 56.421875 14.59375 
Q 62.703125 22.609375 62.703125 36.375 
Q 62.703125 50.203125 56.421875 58.203125 
Q 50.140625 66.21875 39.40625 66.21875 
z
M 39.40625 74.21875 
Q 54.734375 74.21875 63.90625 63.9375 
Q 73.09375 53.65625 73.09375 36.375 
Q 73.09375 19.140625 63.90625 8.859375 
Q 54.734375 -1.421875 39.40625 -1.421875 
Q 24.03125 -1.421875 14.8125 8.828125 
Q 5.609375 19.09375 5.609375 36.375 
Q 5.609375 53.65625 14.8125 63.9375 
Q 24.03125 74.21875 39.40625 74.21875 
z
" id="DejaVuSans-79"/>
     <path d="M 28.609375 0 
L 0.78125 72.90625 
L 11.078125 72.90625 
L 34.1875 11.53125 
L 57.328125 72.90625 
L 67.578125 72.90625 
L 39.796875 0 
z
" id="DejaVuSans-86"/>
     <path d="M 9.8125 72.90625 
L 19.671875 72.90625 
L 19.671875 0 
L 9.8125 0 
z
" id="DejaVuSans-73"/>
     <path d="M 4.890625 31.390625 
L 31.203125 31.390625 
L 31.203125 23.390625 
L 4.890625 23.390625 
z
" id="DejaVuSans-45"/>
     <path d="M 9.8125 72.90625 
L 23.09375 72.90625 
L 55.421875 11.921875 
L 55.421875 72.90625 
L 64.984375 72.90625 
L 64.984375 0 
L 51.703125 0 
L 19.390625 60.984375 
L 19.390625 0 
L 9.8125 0 
z
" id="DejaVuSans-78"/>
     <path d="M -0.203125 72.90625 
L 10.40625 72.90625 
L 30.609375 42.921875 
L 50.6875 72.90625 
L 61.28125 72.90625 
L 35.5 34.71875 
L 35.5 0 
L 25.59375 0 
L 25.59375 34.71875 
z
" id="DejaVuSans-89"/>
    </defs>
    <g transform="translate(128.050625 16.318125)scale(0.12 -0.12)">
     <use xlink:href="#DejaVuSans-67"/>
     <use x="69.824219" xlink:href="#DejaVuSans-79"/>
     <use x="148.519531" xlink:href="#DejaVuSans-86"/>
     <use x="216.927734" xlink:href="#DejaVuSans-73"/>
     <use x="246.419922" xlink:href="#DejaVuSans-68"/>
     <use x="323.421875" xlink:href="#DejaVuSans-45"/>
     <use x="359.505859" xlink:href="#DejaVuSans-49"/>
     <use x="423.128906" xlink:href="#DejaVuSans-57"/>
     <use x="486.751953" xlink:href="#DejaVuSans-32"/>
     <use x="518.539062" xlink:href="#DejaVuSans-105"/>
     <use x="546.322266" xlink:href="#DejaVuSans-110"/>
     <use x="609.701172" xlink:href="#DejaVuSans-32"/>
     <use x="641.488281" xlink:href="#DejaVuSans-78"/>
     <use x="716.292969" xlink:href="#DejaVuSans-89"/>
     <use x="777.298828" xlink:href="#DejaVuSans-67"/>
    </g>
   </g>
   <g id="legend_1">
    <g id="patch_7">
     <path d="M 186.107813 180.398125 
L 297.428125 180.398125 
Q 299.428125 180.398125 299.428125 178.398125 
L 299.428125 135.36375 
Q 299.428125 133.36375 297.428125 133.36375 
L 186.107813 133.36375 
Q 184.107813 133.36375 184.107813 135.36375 
L 184.107813 178.398125 
Q 184.107813 180.398125 186.107813 180.398125 
z
" style="fill:#ffffff;opacity:0.8;stroke:#cccccc;stroke-linejoin:miter;"/>
    </g>
    <g id="line2d_58">
     <path d="M 188.107813 141.462187 
L 208.107813 141.462187 
" style="fill:none;stroke:#1f77b4;stroke-linecap:square;stroke-width:1.5;"/>
    </g>
    <g id="line2d_59">
     <g>
      <use style="fill:#1f77b4;stroke:#1f77b4;" x="198.107813" xlink:href="#m2958188aec" y="141.462187"/>
     </g>
    </g>
    <g id="text_21">
     <!-- Cases -->
     <g transform="translate(216.107813 144.962187)scale(0.1 -0.1)">
      <use xlink:href="#DejaVuSans-67"/>
      <use x="69.824219" xlink:href="#DejaVuSans-97"/>
      <use x="131.103516" xlink:href="#DejaVuSans-115"/>
      <use x="183.203125" xlink:href="#DejaVuSans-101"/>
      <use x="244.726562" xlink:href="#DejaVuSans-115"/>
     </g>
    </g>
    <g id="line2d_60">
     <path d="M 188.107813 156.140312 
L 208.107813 156.140312 
" style="fill:none;stroke:#ff7f0e;stroke-linecap:square;stroke-width:1.5;"/>
    </g>
    <g id="line2d_61">
     <g>
      <use style="fill:#ff7f0e;stroke:#ff7f0e;" x="198.107813" xlink:href="#m89e61ef8e7" y="156.140312"/>
     </g>
    </g>
    <g id="text_22">
     <!-- Hospitalizations -->
     <defs>
      <path d="M 9.8125 72.90625 
L 19.671875 72.90625 
L 19.671875 43.015625 
L 55.515625 43.015625 
L 55.515625 72.90625 
L 65.375 72.90625 
L 65.375 0 
L 55.515625 0 
L 55.515625 34.71875 
L 19.671875 34.71875 
L 19.671875 0 
L 9.8125 0 
z
" id="DejaVuSans-72"/>
      <path d="M 5.515625 54.6875 
L 48.1875 54.6875 
L 48.1875 46.484375 
L 14.40625 7.171875 
L 48.1875 7.171875 
L 48.1875 0 
L 4.296875 0 
L 4.296875 8.203125 
L 38.09375 47.515625 
L 5.515625 47.515625 
z
" id="DejaVuSans-122"/>
     </defs>
     <g transform="translate(216.107813 159.640312)scale(0.1 -0.1)">
      <use xlink:href="#DejaVuSans-72"/>
      <use x="75.195312" xlink:href="#DejaVuSans-111"/>
      <use x="136.376953" xlink:href="#DejaVuSans-115"/>
      <use x="188.476562" xlink:href="#DejaVuSans-112"/>
      <use x="251.953125" xlink:href="#DejaVuSans-105"/>
      <use x="279.736328" xlink:href="#DejaVuSans-116"/>
      <use x="318.945312" xlink:href="#DejaVuSans-97"/>
      <use x="380.224609" xlink:href="#DejaVuSans-108"/>
      <use x="408.007812" xlink:href="#DejaVuSans-105"/>
      <use x="435.791016" xlink:href="#DejaVuSans-122"/>
      <use x="488.28125" xlink:href="#DejaVuSans-97"/>
      <use x="549.560547" xlink:href="#DejaVuSans-116"/>
      <use x="588.769531" xlink:href="#DejaVuSans-105"/>
      <use x="616.552734" xlink:href="#DejaVuSans-111"/>
      <use x="677.734375" xlink:href="#DejaVuSans-110"/>
      <use x="741.113281" xlink:href="#DejaVuSans-115"/>
     </g>
    </g>
    <g id="line2d_62">
     <path d="M 188.107813 170.818438 
L 208.107813 170.818438 
" style="fill:none;stroke:#2ca02c;stroke-linecap:square;stroke-width:1.5;"/>
    </g>
    <g id="line2d_63">
     <g>
      <use style="fill:#2ca02c;stroke:#2ca02c;" x="198.107813" xlink:href="#m4703d78468" y="170.818438"/>
     </g>
    </g>
    <g id="text_23">
     <!-- Deaths -->
     <defs>
      <path d="M 54.890625 33.015625 
L 54.890625 0 
L 45.90625 0 
L 45.90625 32.71875 
Q 45.90625 40.484375 42.875 44.328125 
Q 39.84375 48.1875 33.796875 48.1875 
Q 26.515625 48.1875 22.3125 43.546875 
Q 18.109375 38.921875 18.109375 30.90625 
L 18.109375 0 
L 9.078125 0 
L 9.078125 75.984375 
L 18.109375 75.984375 
L 18.109375 46.1875 
Q 21.34375 51.125 25.703125 53.5625 
Q 30.078125 56 35.796875 56 
Q 45.21875 56 50.046875 50.171875 
Q 54.890625 44.34375 54.890625 33.015625 
z
" id="DejaVuSans-104"/>
     </defs>
     <g transform="translate(216.107813 174.318438)scale(0.1 -0.1)">
      <use xlink:href="#DejaVuSans-68"/>
      <use x="77.001953" xlink:href="#DejaVuSans-101"/>
      <use x="138.525391" xlink:href="#DejaVuSans-97"/>
      <use x="199.804688" xlink:href="#DejaVuSans-116"/>
      <use x="239.013672" xlink:href="#DejaVuSans-104"/>
      <use x="302.392578" xlink:href="#DejaVuSans-115"/>
     </g>
    </g>
   </g>
  </g>
 </g>
 <defs>
  <clipPath id="pa2876806cb">
   <rect height="163.08" width="251.1" x="53.328125" y="22.318125"/>
  </clipPath>
 </defs>
</svg>
