<?xml version="1.0" encoding="utf-8" standalone="no"?>
<!DOCTYPE svg PUBLIC "-//W3C//DTD SVG 1.1//EN"
  "http://www.w3.org/Graphics/SVG/1.1/DTD/svg11.dtd">
<!-- Created with matplotlib (https://matplotlib.org/) -->
<svg height="285.690151pt" version="1.1" viewBox="0 0 350.780112 285.690151" width="350.780112pt" xmlns="http://www.w3.org/2000/svg" xmlns:xlink="http://www.w3.org/1999/xlink">
 <defs>
  <style type="text/css">
*{stroke-linecap:butt;stroke-linejoin:round;}
  </style>
 </defs>
 <g id="figure_1">
  <g id="patch_1">
   <path d="M 0 285.690151 
L 350.780112 285.690151 
L 350.780112 0 
L 0 0 
z
" style="fill:#ffffff;"/>
  </g>
  <g id="axes_1">
   <g id="patch_2">
    <path d="M 66.543125 239.758125 
L 334.383125 239.758125 
L 334.383125 22.318125 
L 66.543125 22.318125 
z
" style="fill:#ffffff;"/>
   </g>
   <g id="matplotlib.axis_1">
    <g id="xtick_1">
     <g id="line2d_1">
      <path clip-path="url(#pda8770fabb)" d="M 95.804752 239.758125 
L 95.804752 22.318125 
" style="fill:none;stroke:#b0b0b0;stroke-linecap:square;stroke-opacity:0.6;stroke-width:0.8;"/>
     </g>
     <g id="line2d_2">
      <defs>
       <path d="M 0 0 
L 0 3.5 
" id="m522961a63f" style="stroke:#000000;stroke-width:0.8;"/>
      </defs>
      <g>
       <use style="stroke:#000000;stroke-width:0.8;" x="95.804752" xlink:href="#m522961a63f" y="239.758125"/>
      </g>
     </g>
     <g id="text_1">
      <!-- Feb. -->
      <defs>
       <path d="M 9.8125 72.90625 
L 51.703125 72.90625 
L 51.703125 64.59375 
L 19.671875 64.59375 
L 19.671875 43.109375 
L 48.578125 43.109375 
L 48.578125 34.8125 
L 19.671875 34.8125 
L 19.671875 0 
L 9.8125 0 
z
" id="DejaVuSans-70"/>
       <path d="M 56.203125 29.59375 
L 56.203125 25.203125 
L 14.890625 25.203125 
Q 15.484375 15.921875 20.484375 11.0625 
Q 25.484375 6.203125 34.421875 6.203125 
Q 39.59375 6.203125 44.453125 7.46875 
Q 49.3125 8.734375 54.109375 11.28125 
L 54.109375 2.78125 
Q 49.265625 0.734375 44.1875 -0.34375 
Q 39.109375 -1.421875 33.890625 -1.421875 
Q 20.796875 -1.421875 13.15625 6.1875 
Q 5.515625 13.8125 5.515625 26.8125 
Q 5.515625 40.234375 12.765625 48.109375 
Q 20.015625 56 32.328125 56 
Q 43.359375 56 49.78125 48.890625 
Q 56.203125 41.796875 56.203125 29.59375 
z
M 47.21875 32.234375 
Q 47.125 39.59375 43.09375 43.984375 
Q 39.0625 48.390625 32.421875 48.390625 
Q 24.90625 48.390625 20.390625 44.140625 
Q 15.875 39.890625 15.1875 32.171875 
z
" id="DejaVuSans-101"/>
       <path d="M 48.6875 27.296875 
Q 48.6875 37.203125 44.609375 42.84375 
Q 40.53125 48.484375 33.40625 48.484375 
Q 26.265625 48.484375 22.1875 42.84375 
Q 18.109375 37.203125 18.109375 27.296875 
Q 18.109375 17.390625 22.1875 11.75 
Q 26.265625 6.109375 33.40625 6.109375 
Q 40.53125 6.109375 44.609375 11.75 
Q 48.6875 17.390625 48.6875 27.296875 
z
M 18.109375 46.390625 
Q 20.953125 51.265625 25.265625 53.625 
Q 29.59375 56 35.59375 56 
Q 45.5625 56 51.78125 48.09375 
Q 58.015625 40.1875 58.015625 27.296875 
Q 58.015625 14.40625 51.78125 6.484375 
Q 45.5625 -1.421875 35.59375 -1.421875 
Q 29.59375 -1.421875 25.265625 0.953125 
Q 20.953125 3.328125 18.109375 8.203125 
L 18.109375 0 
L 9.078125 0 
L 9.078125 75.984375 
L 18.109375 75.984375 
z
" id="DejaVuSans-98"/>
       <path d="M 10.6875 12.40625 
L 21 12.40625 
L 21 0 
L 10.6875 0 
z
" id="DejaVuSans-46"/>
      </defs>
      <g transform="translate(85.093033 254.356562)scale(0.1 -0.1)">
       <use xlink:href="#DejaVuSans-70"/>
       <use x="57.441406" xlink:href="#DejaVuSans-101"/>
       <use x="118.964844" xlink:href="#DejaVuSans-98"/>
       <use x="182.441406" xlink:href="#DejaVuSans-46"/>
      </g>
      <!-- 22 -->
      <defs>
       <path d="M 19.1875 8.296875 
L 53.609375 8.296875 
L 53.609375 0 
L 7.328125 0 
L 7.328125 8.296875 
Q 12.9375 14.109375 22.625 23.890625 
Q 32.328125 33.6875 34.8125 36.53125 
Q 39.546875 41.84375 41.421875 45.53125 
Q 43.3125 49.21875 43.3125 52.78125 
Q 43.3125 58.59375 39.234375 62.25 
Q 35.15625 65.921875 28.609375 65.921875 
Q 23.96875 65.921875 18.8125 64.3125 
Q 13.671875 62.703125 7.8125 59.421875 
L 7.8125 69.390625 
Q 13.765625 71.78125 18.9375 73 
Q 24.125 74.21875 28.421875 74.21875 
Q 39.75 74.21875 46.484375 68.546875 
Q 53.21875 62.890625 53.21875 53.421875 
Q 53.21875 48.921875 51.53125 44.890625 
Q 49.859375 40.875 45.40625 35.40625 
Q 44.1875 33.984375 37.640625 27.21875 
Q 31.109375 20.453125 19.1875 8.296875 
z
" id="DejaVuSans-50"/>
      </defs>
      <g transform="translate(89.442252 265.554375)scale(0.1 -0.1)">
       <use xlink:href="#DejaVuSans-50"/>
       <use x="63.623047" xlink:href="#DejaVuSans-50"/>
      </g>
     </g>
    </g>
    <g id="xtick_2">
     <g id="line2d_3">
      <path clip-path="url(#pda8770fabb)" d="M 125.707144 239.758125 
L 125.707144 22.318125 
" style="fill:none;stroke:#b0b0b0;stroke-linecap:square;stroke-opacity:0.6;stroke-width:0.8;"/>
     </g>
     <g id="line2d_4">
      <g>
       <use style="stroke:#000000;stroke-width:0.8;" x="125.707144" xlink:href="#m522961a63f" y="239.758125"/>
      </g>
     </g>
     <g id="text_2">
      <!-- Feb. -->
      <g transform="translate(114.995425 254.356562)scale(0.1 -0.1)">
       <use xlink:href="#DejaVuSans-70"/>
       <use x="57.441406" xlink:href="#DejaVuSans-101"/>
       <use x="118.964844" xlink:href="#DejaVuSans-98"/>
       <use x="182.441406" xlink:href="#DejaVuSans-46"/>
      </g>
      <!-- 29 -->
      <defs>
       <path d="M 10.984375 1.515625 
L 10.984375 10.5 
Q 14.703125 8.734375 18.5 7.8125 
Q 22.3125 6.890625 25.984375 6.890625 
Q 35.75 6.890625 40.890625 13.453125 
Q 46.046875 20.015625 46.78125 33.40625 
Q 43.953125 29.203125 39.59375 26.953125 
Q 35.25 24.703125 29.984375 24.703125 
Q 19.046875 24.703125 12.671875 31.3125 
Q 6.296875 37.9375 6.296875 49.421875 
Q 6.296875 60.640625 12.9375 67.421875 
Q 19.578125 74.21875 30.609375 74.21875 
Q 43.265625 74.21875 49.921875 64.515625 
Q 56.59375 54.828125 56.59375 36.375 
Q 56.59375 19.140625 48.40625 8.859375 
Q 40.234375 -1.421875 26.421875 -1.421875 
Q 22.703125 -1.421875 18.890625 -0.6875 
Q 15.09375 0.046875 10.984375 1.515625 
z
M 30.609375 32.421875 
Q 37.25 32.421875 41.125 36.953125 
Q 45.015625 41.5 45.015625 49.421875 
Q 45.015625 57.28125 41.125 61.84375 
Q 37.25 66.40625 30.609375 66.40625 
Q 23.96875 66.40625 20.09375 61.84375 
Q 16.21875 57.28125 16.21875 49.421875 
Q 16.21875 41.5 20.09375 36.953125 
Q 23.96875 32.421875 30.609375 32.421875 
z
" id="DejaVuSans-57"/>
      </defs>
      <g transform="translate(119.344644 265.554375)scale(0.1 -0.1)">
       <use xlink:href="#DejaVuSans-50"/>
       <use x="63.623047" xlink:href="#DejaVuSans-57"/>
      </g>
     </g>
    </g>
    <g id="xtick_3">
     <g id="line2d_5">
      <path clip-path="url(#pda8770fabb)" d="M 155.609536 239.758125 
L 155.609536 22.318125 
" style="fill:none;stroke:#b0b0b0;stroke-linecap:square;stroke-opacity:0.6;stroke-width:0.8;"/>
     </g>
     <g id="line2d_6">
      <g>
       <use style="stroke:#000000;stroke-width:0.8;" x="155.609536" xlink:href="#m522961a63f" y="239.758125"/>
      </g>
     </g>
     <g id="text_3">
      <!-- Mar. -->
      <defs>
       <path d="M 9.8125 72.90625 
L 24.515625 72.90625 
L 43.109375 23.296875 
L 61.8125 72.90625 
L 76.515625 72.90625 
L 76.515625 0 
L 66.890625 0 
L 66.890625 64.015625 
L 48.09375 14.015625 
L 38.1875 14.015625 
L 19.390625 64.015625 
L 19.390625 0 
L 9.8125 0 
z
" id="DejaVuSans-77"/>
       <path d="M 34.28125 27.484375 
Q 23.390625 27.484375 19.1875 25 
Q 14.984375 22.515625 14.984375 16.5 
Q 14.984375 11.71875 18.140625 8.90625 
Q 21.296875 6.109375 26.703125 6.109375 
Q 34.1875 6.109375 38.703125 11.40625 
Q 43.21875 16.703125 43.21875 25.484375 
L 43.21875 27.484375 
z
M 52.203125 31.203125 
L 52.203125 0 
L 43.21875 0 
L 43.21875 8.296875 
Q 40.140625 3.328125 35.546875 0.953125 
Q 30.953125 -1.421875 24.3125 -1.421875 
Q 15.921875 -1.421875 10.953125 3.296875 
Q 6 8.015625 6 15.921875 
Q 6 25.140625 12.171875 29.828125 
Q 18.359375 34.515625 30.609375 34.515625 
L 43.21875 34.515625 
L 43.21875 35.40625 
Q 43.21875 41.609375 39.140625 45 
Q 35.0625 48.390625 27.6875 48.390625 
Q 23 48.390625 18.546875 47.265625 
Q 14.109375 46.140625 10.015625 43.890625 
L 10.015625 52.203125 
Q 14.9375 54.109375 19.578125 55.046875 
Q 24.21875 56 28.609375 56 
Q 40.484375 56 46.34375 49.84375 
Q 52.203125 43.703125 52.203125 31.203125 
z
" id="DejaVuSans-97"/>
       <path d="M 41.109375 46.296875 
Q 39.59375 47.171875 37.8125 47.578125 
Q 36.03125 48 33.890625 48 
Q 26.265625 48 22.1875 43.046875 
Q 18.109375 38.09375 18.109375 28.8125 
L 18.109375 0 
L 9.078125 0 
L 9.078125 54.6875 
L 18.109375 54.6875 
L 18.109375 46.1875 
Q 20.953125 51.171875 25.484375 53.578125 
Q 30.03125 56 36.53125 56 
Q 37.453125 56 38.578125 55.875 
Q 39.703125 55.765625 41.0625 55.515625 
z
" id="DejaVuSans-114"/>
      </defs>
      <g transform="translate(144.593911 254.356562)scale(0.1 -0.1)">
       <use xlink:href="#DejaVuSans-77"/>
       <use x="86.279297" xlink:href="#DejaVuSans-97"/>
       <use x="147.558594" xlink:href="#DejaVuSans-114"/>
       <use x="188.53125" xlink:href="#DejaVuSans-46"/>
      </g>
      <!-- 07 -->
      <defs>
       <path d="M 31.78125 66.40625 
Q 24.171875 66.40625 20.328125 58.90625 
Q 16.5 51.421875 16.5 36.375 
Q 16.5 21.390625 20.328125 13.890625 
Q 24.171875 6.390625 31.78125 6.390625 
Q 39.453125 6.390625 43.28125 13.890625 
Q 47.125 21.390625 47.125 36.375 
Q 47.125 51.421875 43.28125 58.90625 
Q 39.453125 66.40625 31.78125 66.40625 
z
M 31.78125 74.21875 
Q 44.046875 74.21875 50.515625 64.515625 
Q 56.984375 54.828125 56.984375 36.375 
Q 56.984375 17.96875 50.515625 8.265625 
Q 44.046875 -1.421875 31.78125 -1.421875 
Q 19.53125 -1.421875 13.0625 8.265625 
Q 6.59375 17.96875 6.59375 36.375 
Q 6.59375 54.828125 13.0625 64.515625 
Q 19.53125 74.21875 31.78125 74.21875 
z
" id="DejaVuSans-48"/>
       <path d="M 8.203125 72.90625 
L 55.078125 72.90625 
L 55.078125 68.703125 
L 28.609375 0 
L 18.3125 0 
L 43.21875 64.59375 
L 8.203125 64.59375 
z
" id="DejaVuSans-55"/>
      </defs>
      <g transform="translate(149.247036 265.554375)scale(0.1 -0.1)">
       <use xlink:href="#DejaVuSans-48"/>
       <use x="63.623047" xlink:href="#DejaVuSans-55"/>
      </g>
     </g>
    </g>
    <g id="xtick_4">
     <g id="line2d_7">
      <path clip-path="url(#pda8770fabb)" d="M 185.511929 239.758125 
L 185.511929 22.318125 
" style="fill:none;stroke:#b0b0b0;stroke-linecap:square;stroke-opacity:0.6;stroke-width:0.8;"/>
     </g>
     <g id="line2d_8">
      <g>
       <use style="stroke:#000000;stroke-width:0.8;" x="185.511929" xlink:href="#m522961a63f" y="239.758125"/>
      </g>
     </g>
     <g id="text_4">
      <!-- Mar. -->
      <g transform="translate(174.496304 254.356562)scale(0.1 -0.1)">
       <use xlink:href="#DejaVuSans-77"/>
       <use x="86.279297" xlink:href="#DejaVuSans-97"/>
       <use x="147.558594" xlink:href="#DejaVuSans-114"/>
       <use x="188.53125" xlink:href="#DejaVuSans-46"/>
      </g>
      <!-- 14 -->
      <defs>
       <path d="M 12.40625 8.296875 
L 28.515625 8.296875 
L 28.515625 63.921875 
L 10.984375 60.40625 
L 10.984375 69.390625 
L 28.421875 72.90625 
L 38.28125 72.90625 
L 38.28125 8.296875 
L 54.390625 8.296875 
L 54.390625 0 
L 12.40625 0 
z
" id="DejaVuSans-49"/>
       <path d="M 37.796875 64.3125 
L 12.890625 25.390625 
L 37.796875 25.390625 
z
M 35.203125 72.90625 
L 47.609375 72.90625 
L 47.609375 25.390625 
L 58.015625 25.390625 
L 58.015625 17.1875 
L 47.609375 17.1875 
L 47.609375 0 
L 37.796875 0 
L 37.796875 17.1875 
L 4.890625 17.1875 
L 4.890625 26.703125 
z
" id="DejaVuSans-52"/>
      </defs>
      <g transform="translate(179.149429 265.554375)scale(0.1 -0.1)">
       <use xlink:href="#DejaVuSans-49"/>
       <use x="63.623047" xlink:href="#DejaVuSans-52"/>
      </g>
     </g>
    </g>
    <g id="xtick_5">
     <g id="line2d_9">
      <path clip-path="url(#pda8770fabb)" d="M 215.414321 239.758125 
L 215.414321 22.318125 
" style="fill:none;stroke:#b0b0b0;stroke-linecap:square;stroke-opacity:0.6;stroke-width:0.8;"/>
     </g>
     <g id="line2d_10">
      <g>
       <use style="stroke:#000000;stroke-width:0.8;" x="215.414321" xlink:href="#m522961a63f" y="239.758125"/>
      </g>
     </g>
     <g id="text_5">
      <!-- Mar. -->
      <g transform="translate(204.398696 254.356562)scale(0.1 -0.1)">
       <use xlink:href="#DejaVuSans-77"/>
       <use x="86.279297" xlink:href="#DejaVuSans-97"/>
       <use x="147.558594" xlink:href="#DejaVuSans-114"/>
       <use x="188.53125" xlink:href="#DejaVuSans-46"/>
      </g>
      <!-- 21 -->
      <g transform="translate(209.051821 265.554375)scale(0.1 -0.1)">
       <use xlink:href="#DejaVuSans-50"/>
       <use x="63.623047" xlink:href="#DejaVuSans-49"/>
      </g>
     </g>
    </g>
    <g id="xtick_6">
     <g id="line2d_11">
      <path clip-path="url(#pda8770fabb)" d="M 245.316714 239.758125 
L 245.316714 22.318125 
" style="fill:none;stroke:#b0b0b0;stroke-linecap:square;stroke-opacity:0.6;stroke-width:0.8;"/>
     </g>
     <g id="line2d_12">
      <g>
       <use style="stroke:#000000;stroke-width:0.8;" x="245.316714" xlink:href="#m522961a63f" y="239.758125"/>
      </g>
     </g>
     <g id="text_6">
      <!-- Mar. -->
      <g transform="translate(234.301089 254.356562)scale(0.1 -0.1)">
       <use xlink:href="#DejaVuSans-77"/>
       <use x="86.279297" xlink:href="#DejaVuSans-97"/>
       <use x="147.558594" xlink:href="#DejaVuSans-114"/>
       <use x="188.53125" xlink:href="#DejaVuSans-46"/>
      </g>
      <!-- 28 -->
      <defs>
       <path d="M 31.78125 34.625 
Q 24.75 34.625 20.71875 30.859375 
Q 16.703125 27.09375 16.703125 20.515625 
Q 16.703125 13.921875 20.71875 10.15625 
Q 24.75 6.390625 31.78125 6.390625 
Q 38.8125 6.390625 42.859375 10.171875 
Q 46.921875 13.96875 46.921875 20.515625 
Q 46.921875 27.09375 42.890625 30.859375 
Q 38.875 34.625 31.78125 34.625 
z
M 21.921875 38.8125 
Q 15.578125 40.375 12.03125 44.71875 
Q 8.5 49.078125 8.5 55.328125 
Q 8.5 64.0625 14.71875 69.140625 
Q 20.953125 74.21875 31.78125 74.21875 
Q 42.671875 74.21875 48.875 69.140625 
Q 55.078125 64.0625 55.078125 55.328125 
Q 55.078125 49.078125 51.53125 44.71875 
Q 48 40.375 41.703125 38.8125 
Q 48.828125 37.15625 52.796875 32.3125 
Q 56.78125 27.484375 56.78125 20.515625 
Q 56.78125 9.90625 50.3125 4.234375 
Q 43.84375 -1.421875 31.78125 -1.421875 
Q 19.734375 -1.421875 13.25 4.234375 
Q 6.78125 9.90625 6.78125 20.515625 
Q 6.78125 27.484375 10.78125 32.3125 
Q 14.796875 37.15625 21.921875 38.8125 
z
M 18.3125 54.390625 
Q 18.3125 48.734375 21.84375 45.5625 
Q 25.390625 42.390625 31.78125 42.390625 
Q 38.140625 42.390625 41.71875 45.5625 
Q 45.3125 48.734375 45.3125 54.390625 
Q 45.3125 60.0625 41.71875 63.234375 
Q 38.140625 66.40625 31.78125 66.40625 
Q 25.390625 66.40625 21.84375 63.234375 
Q 18.3125 60.0625 18.3125 54.390625 
z
" id="DejaVuSans-56"/>
      </defs>
      <g transform="translate(238.954214 265.554375)scale(0.1 -0.1)">
       <use xlink:href="#DejaVuSans-50"/>
       <use x="63.623047" xlink:href="#DejaVuSans-56"/>
      </g>
     </g>
    </g>
    <g id="xtick_7">
     <g id="line2d_13">
      <path clip-path="url(#pda8770fabb)" d="M 275.219106 239.758125 
L 275.219106 22.318125 
" style="fill:none;stroke:#b0b0b0;stroke-linecap:square;stroke-opacity:0.6;stroke-width:0.8;"/>
     </g>
     <g id="line2d_14">
      <g>
       <use style="stroke:#000000;stroke-width:0.8;" x="275.219106" xlink:href="#m522961a63f" y="239.758125"/>
      </g>
     </g>
     <g id="text_7">
      <!-- Apr. -->
      <defs>
       <path d="M 34.1875 63.1875 
L 20.796875 26.90625 
L 47.609375 26.90625 
z
M 28.609375 72.90625 
L 39.796875 72.90625 
L 67.578125 0 
L 57.328125 0 
L 50.6875 18.703125 
L 17.828125 18.703125 
L 11.1875 0 
L 0.78125 0 
z
" id="DejaVuSans-65"/>
       <path d="M 18.109375 8.203125 
L 18.109375 -20.796875 
L 9.078125 -20.796875 
L 9.078125 54.6875 
L 18.109375 54.6875 
L 18.109375 46.390625 
Q 20.953125 51.265625 25.265625 53.625 
Q 29.59375 56 35.59375 56 
Q 45.5625 56 51.78125 48.09375 
Q 58.015625 40.1875 58.015625 27.296875 
Q 58.015625 14.40625 51.78125 6.484375 
Q 45.5625 -1.421875 35.59375 -1.421875 
Q 29.59375 -1.421875 25.265625 0.953125 
Q 20.953125 3.328125 18.109375 8.203125 
z
M 48.6875 27.296875 
Q 48.6875 37.203125 44.609375 42.84375 
Q 40.53125 48.484375 33.40625 48.484375 
Q 26.265625 48.484375 22.1875 42.84375 
Q 18.109375 37.203125 18.109375 27.296875 
Q 18.109375 17.390625 22.1875 11.75 
Q 26.265625 6.109375 33.40625 6.109375 
Q 40.53125 6.109375 44.609375 11.75 
Q 48.6875 17.390625 48.6875 27.296875 
z
" id="DejaVuSans-112"/>
      </defs>
      <g transform="translate(264.987075 254.356562)scale(0.1 -0.1)">
       <use xlink:href="#DejaVuSans-65"/>
       <use x="68.408203" xlink:href="#DejaVuSans-112"/>
       <use x="131.884766" xlink:href="#DejaVuSans-114"/>
       <use x="172.857422" xlink:href="#DejaVuSans-46"/>
      </g>
      <!-- 04 -->
      <g transform="translate(268.856606 265.554375)scale(0.1 -0.1)">
       <use xlink:href="#DejaVuSans-48"/>
       <use x="63.623047" xlink:href="#DejaVuSans-52"/>
      </g>
     </g>
    </g>
    <g id="xtick_8">
     <g id="line2d_15">
      <path clip-path="url(#pda8770fabb)" d="M 305.121498 239.758125 
L 305.121498 22.318125 
" style="fill:none;stroke:#b0b0b0;stroke-linecap:square;stroke-opacity:0.6;stroke-width:0.8;"/>
     </g>
     <g id="line2d_16">
      <g>
       <use style="stroke:#000000;stroke-width:0.8;" x="305.121498" xlink:href="#m522961a63f" y="239.758125"/>
      </g>
     </g>
     <g id="text_8">
      <!-- Apr. -->
      <g transform="translate(294.889467 254.356562)scale(0.1 -0.1)">
       <use xlink:href="#DejaVuSans-65"/>
       <use x="68.408203" xlink:href="#DejaVuSans-112"/>
       <use x="131.884766" xlink:href="#DejaVuSans-114"/>
       <use x="172.857422" xlink:href="#DejaVuSans-46"/>
      </g>
      <!-- 11 -->
      <g transform="translate(298.758998 265.554375)scale(0.1 -0.1)">
       <use xlink:href="#DejaVuSans-49"/>
       <use x="63.623047" xlink:href="#DejaVuSans-49"/>
      </g>
     </g>
    </g>
   </g>
   <g id="matplotlib.axis_2">
    <g id="ytick_1">
     <g id="line2d_17">
      <path clip-path="url(#pda8770fabb)" d="M 66.543125 56.496431 
L 334.383125 56.496431 
" style="fill:none;stroke:#b0b0b0;stroke-linecap:square;stroke-opacity:0.6;stroke-width:0.8;"/>
     </g>
     <g id="line2d_18">
      <defs>
       <path d="M 0 0 
L -3.5 0 
" id="m0ba3f47b01" style="stroke:#000000;stroke-width:0.8;"/>
      </defs>
      <g>
       <use style="stroke:#000000;stroke-width:0.8;" x="66.543125" xlink:href="#m0ba3f47b01" y="56.496431"/>
      </g>
     </g>
     <g id="text_9">
      <!-- 0 -->
      <g transform="translate(53.180625 60.29565)scale(0.1 -0.1)">
       <use xlink:href="#DejaVuSans-48"/>
      </g>
     </g>
    </g>
    <g id="ytick_2">
     <g id="line2d_19">
      <path clip-path="url(#pda8770fabb)" d="M 66.543125 93.14877 
L 334.383125 93.14877 
" style="fill:none;stroke:#b0b0b0;stroke-linecap:square;stroke-opacity:0.6;stroke-width:0.8;"/>
     </g>
     <g id="line2d_20">
      <g>
       <use style="stroke:#000000;stroke-width:0.8;" x="66.543125" xlink:href="#m0ba3f47b01" y="93.14877"/>
      </g>
     </g>
     <g id="text_10">
      <!-- −20 -->
      <defs>
       <path d="M 10.59375 35.5 
L 73.1875 35.5 
L 73.1875 27.203125 
L 10.59375 27.203125 
z
" id="DejaVuSans-8722"/>
      </defs>
      <g transform="translate(38.438438 96.947989)scale(0.1 -0.1)">
       <use xlink:href="#DejaVuSans-8722"/>
       <use x="83.789062" xlink:href="#DejaVuSans-50"/>
       <use x="147.412109" xlink:href="#DejaVuSans-48"/>
      </g>
     </g>
    </g>
    <g id="ytick_3">
     <g id="line2d_21">
      <path clip-path="url(#pda8770fabb)" d="M 66.543125 129.801109 
L 334.383125 129.801109 
" style="fill:none;stroke:#b0b0b0;stroke-linecap:square;stroke-opacity:0.6;stroke-width:0.8;"/>
     </g>
     <g id="line2d_22">
      <g>
       <use style="stroke:#000000;stroke-width:0.8;" x="66.543125" xlink:href="#m0ba3f47b01" y="129.801109"/>
      </g>
     </g>
     <g id="text_11">
      <!-- −40 -->
      <g transform="translate(38.438438 133.600327)scale(0.1 -0.1)">
       <use xlink:href="#DejaVuSans-8722"/>
       <use x="83.789062" xlink:href="#DejaVuSans-52"/>
       <use x="147.412109" xlink:href="#DejaVuSans-48"/>
      </g>
     </g>
    </g>
    <g id="ytick_4">
     <g id="line2d_23">
      <path clip-path="url(#pda8770fabb)" d="M 66.543125 166.453447 
L 334.383125 166.453447 
" style="fill:none;stroke:#b0b0b0;stroke-linecap:square;stroke-opacity:0.6;stroke-width:0.8;"/>
     </g>
     <g id="line2d_24">
      <g>
       <use style="stroke:#000000;stroke-width:0.8;" x="66.543125" xlink:href="#m0ba3f47b01" y="166.453447"/>
      </g>
     </g>
     <g id="text_12">
      <!-- −60 -->
      <defs>
       <path d="M 33.015625 40.375 
Q 26.375 40.375 22.484375 35.828125 
Q 18.609375 31.296875 18.609375 23.390625 
Q 18.609375 15.53125 22.484375 10.953125 
Q 26.375 6.390625 33.015625 6.390625 
Q 39.65625 6.390625 43.53125 10.953125 
Q 47.40625 15.53125 47.40625 23.390625 
Q 47.40625 31.296875 43.53125 35.828125 
Q 39.65625 40.375 33.015625 40.375 
z
M 52.59375 71.296875 
L 52.59375 62.3125 
Q 48.875 64.0625 45.09375 64.984375 
Q 41.3125 65.921875 37.59375 65.921875 
Q 27.828125 65.921875 22.671875 59.328125 
Q 17.53125 52.734375 16.796875 39.40625 
Q 19.671875 43.65625 24.015625 45.921875 
Q 28.375 48.1875 33.59375 48.1875 
Q 44.578125 48.1875 50.953125 41.515625 
Q 57.328125 34.859375 57.328125 23.390625 
Q 57.328125 12.15625 50.6875 5.359375 
Q 44.046875 -1.421875 33.015625 -1.421875 
Q 20.359375 -1.421875 13.671875 8.265625 
Q 6.984375 17.96875 6.984375 36.375 
Q 6.984375 53.65625 15.1875 63.9375 
Q 23.390625 74.21875 37.203125 74.21875 
Q 40.921875 74.21875 44.703125 73.484375 
Q 48.484375 72.75 52.59375 71.296875 
z
" id="DejaVuSans-54"/>
      </defs>
      <g transform="translate(38.438438 170.252666)scale(0.1 -0.1)">
       <use xlink:href="#DejaVuSans-8722"/>
       <use x="83.789062" xlink:href="#DejaVuSans-54"/>
       <use x="147.412109" xlink:href="#DejaVuSans-48"/>
      </g>
     </g>
    </g>
    <g id="ytick_5">
     <g id="line2d_25">
      <path clip-path="url(#pda8770fabb)" d="M 66.543125 203.105786 
L 334.383125 203.105786 
" style="fill:none;stroke:#b0b0b0;stroke-linecap:square;stroke-opacity:0.6;stroke-width:0.8;"/>
     </g>
     <g id="line2d_26">
      <g>
       <use style="stroke:#000000;stroke-width:0.8;" x="66.543125" xlink:href="#m0ba3f47b01" y="203.105786"/>
      </g>
     </g>
     <g id="text_13">
      <!-- −80 -->
      <g transform="translate(38.438438 206.905005)scale(0.1 -0.1)">
       <use xlink:href="#DejaVuSans-8722"/>
       <use x="83.789062" xlink:href="#DejaVuSans-56"/>
       <use x="147.412109" xlink:href="#DejaVuSans-48"/>
      </g>
     </g>
    </g>
    <g id="ytick_6">
     <g id="line2d_27">
      <path clip-path="url(#pda8770fabb)" d="M 66.543125 221.431956 
L 334.383125 221.431956 
" style="fill:none;stroke:#b0b0b0;stroke-linecap:square;stroke-opacity:0.6;stroke-width:0.8;"/>
     </g>
     <g id="line2d_28">
      <g>
       <use style="stroke:#000000;stroke-width:0.8;" x="66.543125" xlink:href="#m0ba3f47b01" y="221.431956"/>
      </g>
     </g>
     <g id="text_14">
      <!-- −90 -->
      <g transform="translate(38.438438 225.231174)scale(0.1 -0.1)">
       <use xlink:href="#DejaVuSans-8722"/>
       <use x="83.789062" xlink:href="#DejaVuSans-57"/>
       <use x="147.412109" xlink:href="#DejaVuSans-48"/>
      </g>
     </g>
    </g>
    <g id="ytick_7">
     <g id="line2d_29">
      <path clip-path="url(#pda8770fabb)" d="M 66.543125 230.59504 
L 334.383125 230.59504 
" style="fill:none;stroke:#b0b0b0;stroke-linecap:square;stroke-opacity:0.6;stroke-width:0.8;"/>
     </g>
     <g id="line2d_30">
      <g>
       <use style="stroke:#000000;stroke-width:0.8;" x="66.543125" xlink:href="#m0ba3f47b01" y="230.59504"/>
      </g>
     </g>
     <g id="text_15">
      <!-- −95 -->
      <defs>
       <path d="M 10.796875 72.90625 
L 49.515625 72.90625 
L 49.515625 64.59375 
L 19.828125 64.59375 
L 19.828125 46.734375 
Q 21.96875 47.46875 24.109375 47.828125 
Q 26.265625 48.1875 28.421875 48.1875 
Q 40.625 48.1875 47.75 41.5 
Q 54.890625 34.8125 54.890625 23.390625 
Q 54.890625 11.625 47.5625 5.09375 
Q 40.234375 -1.421875 26.90625 -1.421875 
Q 22.3125 -1.421875 17.546875 -0.640625 
Q 12.796875 0.140625 7.71875 1.703125 
L 7.71875 11.625 
Q 12.109375 9.234375 16.796875 8.0625 
Q 21.484375 6.890625 26.703125 6.890625 
Q 35.15625 6.890625 40.078125 11.328125 
Q 45.015625 15.765625 45.015625 23.390625 
Q 45.015625 31 40.078125 35.4375 
Q 35.15625 39.890625 26.703125 39.890625 
Q 22.75 39.890625 18.8125 39.015625 
Q 14.890625 38.140625 10.796875 36.28125 
z
" id="DejaVuSans-53"/>
      </defs>
      <g transform="translate(38.438438 234.394259)scale(0.1 -0.1)">
       <use xlink:href="#DejaVuSans-8722"/>
       <use x="83.789062" xlink:href="#DejaVuSans-57"/>
       <use x="147.412109" xlink:href="#DejaVuSans-53"/>
      </g>
     </g>
    </g>
    <g id="ytick_8">
     <g id="line2d_31">
      <path clip-path="url(#pda8770fabb)" d="M 66.543125 239.758125 
L 334.383125 239.758125 
" style="fill:none;stroke:#b0b0b0;stroke-linecap:square;stroke-opacity:0.6;stroke-width:0.8;"/>
     </g>
     <g id="line2d_32">
      <g>
       <use style="stroke:#000000;stroke-width:0.8;" x="66.543125" xlink:href="#m0ba3f47b01" y="239.758125"/>
      </g>
     </g>
     <g id="text_16">
      <!-- −100 -->
      <g transform="translate(32.075938 243.557344)scale(0.1 -0.1)">
       <use xlink:href="#DejaVuSans-8722"/>
       <use x="83.789062" xlink:href="#DejaVuSans-49"/>
       <use x="147.412109" xlink:href="#DejaVuSans-48"/>
       <use x="211.035156" xlink:href="#DejaVuSans-48"/>
      </g>
     </g>
    </g>
    <g id="text_17">
     <!-- Percentage down -->
     <defs>
      <path d="M 19.671875 64.796875 
L 19.671875 37.40625 
L 32.078125 37.40625 
Q 38.96875 37.40625 42.71875 40.96875 
Q 46.484375 44.53125 46.484375 51.125 
Q 46.484375 57.671875 42.71875 61.234375 
Q 38.96875 64.796875 32.078125 64.796875 
z
M 9.8125 72.90625 
L 32.078125 72.90625 
Q 44.34375 72.90625 50.609375 67.359375 
Q 56.890625 61.8125 56.890625 51.125 
Q 56.890625 40.328125 50.609375 34.8125 
Q 44.34375 29.296875 32.078125 29.296875 
L 19.671875 29.296875 
L 19.671875 0 
L 9.8125 0 
z
" id="DejaVuSans-80"/>
      <path d="M 48.78125 52.59375 
L 48.78125 44.1875 
Q 44.96875 46.296875 41.140625 47.34375 
Q 37.3125 48.390625 33.40625 48.390625 
Q 24.65625 48.390625 19.8125 42.84375 
Q 14.984375 37.3125 14.984375 27.296875 
Q 14.984375 17.28125 19.8125 11.734375 
Q 24.65625 6.203125 33.40625 6.203125 
Q 37.3125 6.203125 41.140625 7.25 
Q 44.96875 8.296875 48.78125 10.40625 
L 48.78125 2.09375 
Q 45.015625 0.34375 40.984375 -0.53125 
Q 36.96875 -1.421875 32.421875 -1.421875 
Q 20.0625 -1.421875 12.78125 6.34375 
Q 5.515625 14.109375 5.515625 27.296875 
Q 5.515625 40.671875 12.859375 48.328125 
Q 20.21875 56 33.015625 56 
Q 37.15625 56 41.109375 55.140625 
Q 45.0625 54.296875 48.78125 52.59375 
z
" id="DejaVuSans-99"/>
      <path d="M 54.890625 33.015625 
L 54.890625 0 
L 45.90625 0 
L 45.90625 32.71875 
Q 45.90625 40.484375 42.875 44.328125 
Q 39.84375 48.1875 33.796875 48.1875 
Q 26.515625 48.1875 22.3125 43.546875 
Q 18.109375 38.921875 18.109375 30.90625 
L 18.109375 0 
L 9.078125 0 
L 9.078125 54.6875 
L 18.109375 54.6875 
L 18.109375 46.1875 
Q 21.34375 51.125 25.703125 53.5625 
Q 30.078125 56 35.796875 56 
Q 45.21875 56 50.046875 50.171875 
Q 54.890625 44.34375 54.890625 33.015625 
z
" id="DejaVuSans-110"/>
      <path d="M 18.3125 70.21875 
L 18.3125 54.6875 
L 36.8125 54.6875 
L 36.8125 47.703125 
L 18.3125 47.703125 
L 18.3125 18.015625 
Q 18.3125 11.328125 20.140625 9.421875 
Q 21.96875 7.515625 27.59375 7.515625 
L 36.8125 7.515625 
L 36.8125 0 
L 27.59375 0 
Q 17.1875 0 13.234375 3.875 
Q 9.28125 7.765625 9.28125 18.015625 
L 9.28125 47.703125 
L 2.6875 47.703125 
L 2.6875 54.6875 
L 9.28125 54.6875 
L 9.28125 70.21875 
z
" id="DejaVuSans-116"/>
      <path d="M 45.40625 27.984375 
Q 45.40625 37.75 41.375 43.109375 
Q 37.359375 48.484375 30.078125 48.484375 
Q 22.859375 48.484375 18.828125 43.109375 
Q 14.796875 37.75 14.796875 27.984375 
Q 14.796875 18.265625 18.828125 12.890625 
Q 22.859375 7.515625 30.078125 7.515625 
Q 37.359375 7.515625 41.375 12.890625 
Q 45.40625 18.265625 45.40625 27.984375 
z
M 54.390625 6.78125 
Q 54.390625 -7.171875 48.1875 -13.984375 
Q 42 -20.796875 29.203125 -20.796875 
Q 24.46875 -20.796875 20.265625 -20.09375 
Q 16.0625 -19.390625 12.109375 -17.921875 
L 12.109375 -9.1875 
Q 16.0625 -11.328125 19.921875 -12.34375 
Q 23.78125 -13.375 27.78125 -13.375 
Q 36.625 -13.375 41.015625 -8.765625 
Q 45.40625 -4.15625 45.40625 5.171875 
L 45.40625 9.625 
Q 42.625 4.78125 38.28125 2.390625 
Q 33.9375 0 27.875 0 
Q 17.828125 0 11.671875 7.65625 
Q 5.515625 15.328125 5.515625 27.984375 
Q 5.515625 40.671875 11.671875 48.328125 
Q 17.828125 56 27.875 56 
Q 33.9375 56 38.28125 53.609375 
Q 42.625 51.21875 45.40625 46.390625 
L 45.40625 54.6875 
L 54.390625 54.6875 
z
" id="DejaVuSans-103"/>
      <path id="DejaVuSans-32"/>
      <path d="M 45.40625 46.390625 
L 45.40625 75.984375 
L 54.390625 75.984375 
L 54.390625 0 
L 45.40625 0 
L 45.40625 8.203125 
Q 42.578125 3.328125 38.25 0.953125 
Q 33.9375 -1.421875 27.875 -1.421875 
Q 17.96875 -1.421875 11.734375 6.484375 
Q 5.515625 14.40625 5.515625 27.296875 
Q 5.515625 40.1875 11.734375 48.09375 
Q 17.96875 56 27.875 56 
Q 33.9375 56 38.25 53.625 
Q 42.578125 51.265625 45.40625 46.390625 
z
M 14.796875 27.296875 
Q 14.796875 17.390625 18.875 11.75 
Q 22.953125 6.109375 30.078125 6.109375 
Q 37.203125 6.109375 41.296875 11.75 
Q 45.40625 17.390625 45.40625 27.296875 
Q 45.40625 37.203125 41.296875 42.84375 
Q 37.203125 48.484375 30.078125 48.484375 
Q 22.953125 48.484375 18.875 42.84375 
Q 14.796875 37.203125 14.796875 27.296875 
z
" id="DejaVuSans-100"/>
      <path d="M 30.609375 48.390625 
Q 23.390625 48.390625 19.1875 42.75 
Q 14.984375 37.109375 14.984375 27.296875 
Q 14.984375 17.484375 19.15625 11.84375 
Q 23.34375 6.203125 30.609375 6.203125 
Q 37.796875 6.203125 41.984375 11.859375 
Q 46.1875 17.53125 46.1875 27.296875 
Q 46.1875 37.015625 41.984375 42.703125 
Q 37.796875 48.390625 30.609375 48.390625 
z
M 30.609375 56 
Q 42.328125 56 49.015625 48.375 
Q 55.71875 40.765625 55.71875 27.296875 
Q 55.71875 13.875 49.015625 6.21875 
Q 42.328125 -1.421875 30.609375 -1.421875 
Q 18.84375 -1.421875 12.171875 6.21875 
Q 5.515625 13.875 5.515625 27.296875 
Q 5.515625 40.765625 12.171875 48.375 
Q 18.84375 56 30.609375 56 
z
" id="DejaVuSans-111"/>
      <path d="M 4.203125 54.6875 
L 13.1875 54.6875 
L 24.421875 12.015625 
L 35.59375 54.6875 
L 46.1875 54.6875 
L 57.421875 12.015625 
L 68.609375 54.6875 
L 77.59375 54.6875 
L 63.28125 0 
L 52.6875 0 
L 40.921875 44.828125 
L 29.109375 0 
L 18.5 0 
z
" id="DejaVuSans-119"/>
     </defs>
     <g transform="translate(14.798438 174.531094)rotate(-90)scale(0.1 -0.1)">
      <use xlink:href="#DejaVuSans-80"/>
      <use x="60.255859" xlink:href="#DejaVuSans-101"/>
      <use x="121.779297" xlink:href="#DejaVuSans-114"/>
      <use x="162.861328" xlink:href="#DejaVuSans-99"/>
      <use x="217.841797" xlink:href="#DejaVuSans-101"/>
      <use x="279.365234" xlink:href="#DejaVuSans-110"/>
      <use x="342.744141" xlink:href="#DejaVuSans-116"/>
      <use x="381.953125" xlink:href="#DejaVuSans-97"/>
      <use x="443.232422" xlink:href="#DejaVuSans-103"/>
      <use x="506.708984" xlink:href="#DejaVuSans-101"/>
      <use x="568.232422" xlink:href="#DejaVuSans-32"/>
      <use x="600.019531" xlink:href="#DejaVuSans-100"/>
      <use x="663.496094" xlink:href="#DejaVuSans-111"/>
      <use x="724.677734" xlink:href="#DejaVuSans-119"/>
      <use x="806.464844" xlink:href="#DejaVuSans-110"/>
     </g>
     <!-- from 2019 -->
     <defs>
      <path d="M 37.109375 75.984375 
L 37.109375 68.5 
L 28.515625 68.5 
Q 23.6875 68.5 21.796875 66.546875 
Q 19.921875 64.59375 19.921875 59.515625 
L 19.921875 54.6875 
L 34.71875 54.6875 
L 34.71875 47.703125 
L 19.921875 47.703125 
L 19.921875 0 
L 10.890625 0 
L 10.890625 47.703125 
L 2.296875 47.703125 
L 2.296875 54.6875 
L 10.890625 54.6875 
L 10.890625 58.5 
Q 10.890625 67.625 15.140625 71.796875 
Q 19.390625 75.984375 28.609375 75.984375 
z
" id="DejaVuSans-102"/>
      <path d="M 52 44.1875 
Q 55.375 50.25 60.0625 53.125 
Q 64.75 56 71.09375 56 
Q 79.640625 56 84.28125 50.015625 
Q 88.921875 44.046875 88.921875 33.015625 
L 88.921875 0 
L 79.890625 0 
L 79.890625 32.71875 
Q 79.890625 40.578125 77.09375 44.375 
Q 74.3125 48.1875 68.609375 48.1875 
Q 61.625 48.1875 57.5625 43.546875 
Q 53.515625 38.921875 53.515625 30.90625 
L 53.515625 0 
L 44.484375 0 
L 44.484375 32.71875 
Q 44.484375 40.625 41.703125 44.40625 
Q 38.921875 48.1875 33.109375 48.1875 
Q 26.21875 48.1875 22.15625 43.53125 
Q 18.109375 38.875 18.109375 30.90625 
L 18.109375 0 
L 9.078125 0 
L 9.078125 54.6875 
L 18.109375 54.6875 
L 18.109375 46.1875 
Q 21.1875 51.21875 25.484375 53.609375 
Q 29.78125 56 35.6875 56 
Q 41.65625 56 45.828125 52.96875 
Q 50 49.953125 52 44.1875 
z
" id="DejaVuSans-109"/>
     </defs>
     <g transform="translate(25.99625 157.095938)rotate(-90)scale(0.1 -0.1)">
      <use xlink:href="#DejaVuSans-102"/>
      <use x="35.205078" xlink:href="#DejaVuSans-114"/>
      <use x="76.287109" xlink:href="#DejaVuSans-111"/>
      <use x="137.46875" xlink:href="#DejaVuSans-109"/>
      <use x="234.880859" xlink:href="#DejaVuSans-32"/>
      <use x="266.667969" xlink:href="#DejaVuSans-50"/>
      <use x="330.291016" xlink:href="#DejaVuSans-48"/>
      <use x="393.914062" xlink:href="#DejaVuSans-49"/>
      <use x="457.537109" xlink:href="#DejaVuSans-57"/>
     </g>
    </g>
   </g>
   <g id="line2d_33">
    <path clip-path="url(#pda8770fabb)" d="M 78.71767 71.157366 
L 82.989441 72.989983 
L 87.261211 60.161665 
L 91.532981 61.994282 
L 95.804752 56.496431 
L 100.076522 52.831197 
L 104.348292 56.496431 
L 108.620063 60.161665 
L 112.891833 74.8226 
L 117.163603 72.989983 
L 121.435374 71.157366 
L 125.707144 71.157366 
L 129.978914 71.157366 
L 134.250685 71.157366 
L 138.522455 71.157366 
L 142.794225 63.826899 
L 147.065996 72.989983 
L 151.337766 71.157366 
L 155.609536 58.329048 
L 159.881307 72.989983 
L 164.153077 109.642322 
L 168.424847 85.818302 
L 172.696618 89.483536 
L 176.968388 85.818302 
L 181.240158 85.818302 
L 185.511929 93.14877 
L 189.783699 126.135875 
L 194.055469 162.788213 
L 198.32724 190.277468 
L 202.59901 204.938403 
L 206.870781 214.101488 
L 211.142551 219.599339 
L 215.414321 228.762423 
L 219.686092 234.260274 
L 223.957862 232.427657 
L 228.229632 232.427657 
L 232.501403 232.427657 
L 236.773173 234.260274 
L 241.044943 234.260274 
L 245.316714 234.260274 
L 249.588484 236.092891 
L 253.860254 234.260274 
L 258.132025 237.925508 
L 262.403795 239.758125 
L 266.675565 239.758125 
L 270.947336 239.758125 
L 275.219106 239.758125 
L 279.490876 239.758125 
L 283.762647 239.758125 
L 288.034417 239.758125 
L 292.306187 239.758125 
L 296.577958 239.758125 
L 300.849728 239.758125 
L 305.121498 239.758125 
L 309.393269 239.758125 
L 313.665039 239.758125 
L 317.936809 239.758125 
L 322.20858 239.758125 
" style="fill:none;stroke:#1f77b4;stroke-linecap:square;stroke-width:1.5;"/>
    <defs>
     <path d="M 0 3 
C 0.795609 3 1.55874 2.683901 2.12132 2.12132 
C 2.683901 1.55874 3 0.795609 3 0 
C 3 -0.795609 2.683901 -1.55874 2.12132 -2.12132 
C 1.55874 -2.683901 0.795609 -3 0 -3 
C -0.795609 -3 -1.55874 -2.683901 -2.12132 -2.12132 
C -2.683901 -1.55874 -3 -0.795609 -3 0 
C -3 0.795609 -2.683901 1.55874 -2.12132 2.12132 
C -1.55874 2.683901 -0.795609 3 0 3 
z
" id="mbf4dea8c48" style="stroke:#1f77b4;"/>
    </defs>
    <g clip-path="url(#pda8770fabb)">
     <use style="fill:#1f77b4;stroke:#1f77b4;" x="78.71767" xlink:href="#mbf4dea8c48" y="71.157366"/>
     <use style="fill:#1f77b4;stroke:#1f77b4;" x="82.989441" xlink:href="#mbf4dea8c48" y="72.989983"/>
     <use style="fill:#1f77b4;stroke:#1f77b4;" x="87.261211" xlink:href="#mbf4dea8c48" y="60.161665"/>
     <use style="fill:#1f77b4;stroke:#1f77b4;" x="91.532981" xlink:href="#mbf4dea8c48" y="61.994282"/>
     <use style="fill:#1f77b4;stroke:#1f77b4;" x="95.804752" xlink:href="#mbf4dea8c48" y="56.496431"/>
     <use style="fill:#1f77b4;stroke:#1f77b4;" x="100.076522" xlink:href="#mbf4dea8c48" y="52.831197"/>
     <use style="fill:#1f77b4;stroke:#1f77b4;" x="104.348292" xlink:href="#mbf4dea8c48" y="56.496431"/>
     <use style="fill:#1f77b4;stroke:#1f77b4;" x="108.620063" xlink:href="#mbf4dea8c48" y="60.161665"/>
     <use style="fill:#1f77b4;stroke:#1f77b4;" x="112.891833" xlink:href="#mbf4dea8c48" y="74.8226"/>
     <use style="fill:#1f77b4;stroke:#1f77b4;" x="117.163603" xlink:href="#mbf4dea8c48" y="72.989983"/>
     <use style="fill:#1f77b4;stroke:#1f77b4;" x="121.435374" xlink:href="#mbf4dea8c48" y="71.157366"/>
     <use style="fill:#1f77b4;stroke:#1f77b4;" x="125.707144" xlink:href="#mbf4dea8c48" y="71.157366"/>
     <use style="fill:#1f77b4;stroke:#1f77b4;" x="129.978914" xlink:href="#mbf4dea8c48" y="71.157366"/>
     <use style="fill:#1f77b4;stroke:#1f77b4;" x="134.250685" xlink:href="#mbf4dea8c48" y="71.157366"/>
     <use style="fill:#1f77b4;stroke:#1f77b4;" x="138.522455" xlink:href="#mbf4dea8c48" y="71.157366"/>
     <use style="fill:#1f77b4;stroke:#1f77b4;" x="142.794225" xlink:href="#mbf4dea8c48" y="63.826899"/>
     <use style="fill:#1f77b4;stroke:#1f77b4;" x="147.065996" xlink:href="#mbf4dea8c48" y="72.989983"/>
     <use style="fill:#1f77b4;stroke:#1f77b4;" x="151.337766" xlink:href="#mbf4dea8c48" y="71.157366"/>
     <use style="fill:#1f77b4;stroke:#1f77b4;" x="155.609536" xlink:href="#mbf4dea8c48" y="58.329048"/>
     <use style="fill:#1f77b4;stroke:#1f77b4;" x="159.881307" xlink:href="#mbf4dea8c48" y="72.989983"/>
     <use style="fill:#1f77b4;stroke:#1f77b4;" x="164.153077" xlink:href="#mbf4dea8c48" y="109.642322"/>
     <use style="fill:#1f77b4;stroke:#1f77b4;" x="168.424847" xlink:href="#mbf4dea8c48" y="85.818302"/>
     <use style="fill:#1f77b4;stroke:#1f77b4;" x="172.696618" xlink:href="#mbf4dea8c48" y="89.483536"/>
     <use style="fill:#1f77b4;stroke:#1f77b4;" x="176.968388" xlink:href="#mbf4dea8c48" y="85.818302"/>
     <use style="fill:#1f77b4;stroke:#1f77b4;" x="181.240158" xlink:href="#mbf4dea8c48" y="85.818302"/>
     <use style="fill:#1f77b4;stroke:#1f77b4;" x="185.511929" xlink:href="#mbf4dea8c48" y="93.14877"/>
     <use style="fill:#1f77b4;stroke:#1f77b4;" x="189.783699" xlink:href="#mbf4dea8c48" y="126.135875"/>
     <use style="fill:#1f77b4;stroke:#1f77b4;" x="194.055469" xlink:href="#mbf4dea8c48" y="162.788213"/>
     <use style="fill:#1f77b4;stroke:#1f77b4;" x="198.32724" xlink:href="#mbf4dea8c48" y="190.277468"/>
     <use style="fill:#1f77b4;stroke:#1f77b4;" x="202.59901" xlink:href="#mbf4dea8c48" y="204.938403"/>
     <use style="fill:#1f77b4;stroke:#1f77b4;" x="206.870781" xlink:href="#mbf4dea8c48" y="214.101488"/>
     <use style="fill:#1f77b4;stroke:#1f77b4;" x="211.142551" xlink:href="#mbf4dea8c48" y="219.599339"/>
     <use style="fill:#1f77b4;stroke:#1f77b4;" x="215.414321" xlink:href="#mbf4dea8c48" y="228.762423"/>
     <use style="fill:#1f77b4;stroke:#1f77b4;" x="219.686092" xlink:href="#mbf4dea8c48" y="234.260274"/>
     <use style="fill:#1f77b4;stroke:#1f77b4;" x="223.957862" xlink:href="#mbf4dea8c48" y="232.427657"/>
     <use style="fill:#1f77b4;stroke:#1f77b4;" x="228.229632" xlink:href="#mbf4dea8c48" y="232.427657"/>
     <use style="fill:#1f77b4;stroke:#1f77b4;" x="232.501403" xlink:href="#mbf4dea8c48" y="232.427657"/>
     <use style="fill:#1f77b4;stroke:#1f77b4;" x="236.773173" xlink:href="#mbf4dea8c48" y="234.260274"/>
     <use style="fill:#1f77b4;stroke:#1f77b4;" x="241.044943" xlink:href="#mbf4dea8c48" y="234.260274"/>
     <use style="fill:#1f77b4;stroke:#1f77b4;" x="245.316714" xlink:href="#mbf4dea8c48" y="234.260274"/>
     <use style="fill:#1f77b4;stroke:#1f77b4;" x="249.588484" xlink:href="#mbf4dea8c48" y="236.092891"/>
     <use style="fill:#1f77b4;stroke:#1f77b4;" x="253.860254" xlink:href="#mbf4dea8c48" y="234.260274"/>
     <use style="fill:#1f77b4;stroke:#1f77b4;" x="258.132025" xlink:href="#mbf4dea8c48" y="237.925508"/>
     <use style="fill:#1f77b4;stroke:#1f77b4;" x="262.403795" xlink:href="#mbf4dea8c48" y="239.758125"/>
     <use style="fill:#1f77b4;stroke:#1f77b4;" x="266.675565" xlink:href="#mbf4dea8c48" y="239.758125"/>
     <use style="fill:#1f77b4;stroke:#1f77b4;" x="270.947336" xlink:href="#mbf4dea8c48" y="239.758125"/>
     <use style="fill:#1f77b4;stroke:#1f77b4;" x="275.219106" xlink:href="#mbf4dea8c48" y="239.758125"/>
     <use style="fill:#1f77b4;stroke:#1f77b4;" x="279.490876" xlink:href="#mbf4dea8c48" y="239.758125"/>
     <use style="fill:#1f77b4;stroke:#1f77b4;" x="283.762647" xlink:href="#mbf4dea8c48" y="239.758125"/>
     <use style="fill:#1f77b4;stroke:#1f77b4;" x="288.034417" xlink:href="#mbf4dea8c48" y="239.758125"/>
     <use style="fill:#1f77b4;stroke:#1f77b4;" x="292.306187" xlink:href="#mbf4dea8c48" y="239.758125"/>
     <use style="fill:#1f77b4;stroke:#1f77b4;" x="296.577958" xlink:href="#mbf4dea8c48" y="239.758125"/>
     <use style="fill:#1f77b4;stroke:#1f77b4;" x="300.849728" xlink:href="#mbf4dea8c48" y="239.758125"/>
     <use style="fill:#1f77b4;stroke:#1f77b4;" x="305.121498" xlink:href="#mbf4dea8c48" y="239.758125"/>
     <use style="fill:#1f77b4;stroke:#1f77b4;" x="309.393269" xlink:href="#mbf4dea8c48" y="239.758125"/>
     <use style="fill:#1f77b4;stroke:#1f77b4;" x="313.665039" xlink:href="#mbf4dea8c48" y="239.758125"/>
     <use style="fill:#1f77b4;stroke:#1f77b4;" x="317.936809" xlink:href="#mbf4dea8c48" y="239.758125"/>
     <use style="fill:#1f77b4;stroke:#1f77b4;" x="322.20858" xlink:href="#mbf4dea8c48" y="239.758125"/>
    </g>
   </g>
   <g id="line2d_34">
    <path clip-path="url(#pda8770fabb)" d="M 78.71767 49.165963 
L 82.989441 54.663814 
L 87.261211 52.831197 
L 91.532981 50.99858 
L 95.804752 58.329048 
L 100.076522 63.826899 
L 104.348292 61.994282 
L 108.620063 61.994282 
L 112.891833 58.329048 
L 117.163603 63.826899 
L 121.435374 58.329048 
L 125.707144 63.826899 
L 129.978914 60.161665 
L 134.250685 74.8226 
L 138.522455 74.8226 
L 142.794225 74.8226 
L 147.065996 80.320451 
L 151.337766 69.32475 
L 155.609536 69.32475 
L 159.881307 69.32475 
L 164.153077 96.814004 
L 168.424847 98.646621 
L 172.696618 91.316153 
L 176.968388 109.642322 
L 181.240158 122.470641 
L 185.511929 113.307556 
L 189.783699 135.298959 
L 194.055469 168.286064 
L 198.32724 219.599339 
L 202.59901 239.758125 
L 206.870781 239.758125 
L 211.142551 239.758125 
L 215.414321 239.758125 
L 219.686092 239.758125 
L 223.957862 239.758125 
L 228.229632 239.758125 
L 232.501403 239.758125 
L 236.773173 239.758125 
L 241.044943 239.758125 
L 245.316714 239.758125 
L 249.588484 239.758125 
L 253.860254 239.758125 
L 258.132025 239.758125 
L 262.403795 239.758125 
L 266.675565 239.758125 
L 270.947336 239.758125 
L 275.219106 239.758125 
L 279.490876 239.758125 
L 283.762647 239.758125 
L 288.034417 239.758125 
L 292.306187 239.758125 
L 296.577958 239.758125 
L 300.849728 239.758125 
L 305.121498 239.758125 
L 309.393269 239.758125 
L 313.665039 239.758125 
L 317.936809 239.758125 
L 322.20858 239.758125 
" style="fill:none;stroke:#ff7f0e;stroke-linecap:square;stroke-width:1.5;"/>
    <defs>
     <path d="M 0 3 
C 0.795609 3 1.55874 2.683901 2.12132 2.12132 
C 2.683901 1.55874 3 0.795609 3 0 
C 3 -0.795609 2.683901 -1.55874 2.12132 -2.12132 
C 1.55874 -2.683901 0.795609 -3 0 -3 
C -0.795609 -3 -1.55874 -2.683901 -2.12132 -2.12132 
C -2.683901 -1.55874 -3 -0.795609 -3 0 
C -3 0.795609 -2.683901 1.55874 -2.12132 2.12132 
C -1.55874 2.683901 -0.795609 3 0 3 
z
" id="m16f6c0bb90" style="stroke:#ff7f0e;"/>
    </defs>
    <g clip-path="url(#pda8770fabb)">
     <use style="fill:#ff7f0e;stroke:#ff7f0e;" x="78.71767" xlink:href="#m16f6c0bb90" y="49.165963"/>
     <use style="fill:#ff7f0e;stroke:#ff7f0e;" x="82.989441" xlink:href="#m16f6c0bb90" y="54.663814"/>
     <use style="fill:#ff7f0e;stroke:#ff7f0e;" x="87.261211" xlink:href="#m16f6c0bb90" y="52.831197"/>
     <use style="fill:#ff7f0e;stroke:#ff7f0e;" x="91.532981" xlink:href="#m16f6c0bb90" y="50.99858"/>
     <use style="fill:#ff7f0e;stroke:#ff7f0e;" x="95.804752" xlink:href="#m16f6c0bb90" y="58.329048"/>
     <use style="fill:#ff7f0e;stroke:#ff7f0e;" x="100.076522" xlink:href="#m16f6c0bb90" y="63.826899"/>
     <use style="fill:#ff7f0e;stroke:#ff7f0e;" x="104.348292" xlink:href="#m16f6c0bb90" y="61.994282"/>
     <use style="fill:#ff7f0e;stroke:#ff7f0e;" x="108.620063" xlink:href="#m16f6c0bb90" y="61.994282"/>
     <use style="fill:#ff7f0e;stroke:#ff7f0e;" x="112.891833" xlink:href="#m16f6c0bb90" y="58.329048"/>
     <use style="fill:#ff7f0e;stroke:#ff7f0e;" x="117.163603" xlink:href="#m16f6c0bb90" y="63.826899"/>
     <use style="fill:#ff7f0e;stroke:#ff7f0e;" x="121.435374" xlink:href="#m16f6c0bb90" y="58.329048"/>
     <use style="fill:#ff7f0e;stroke:#ff7f0e;" x="125.707144" xlink:href="#m16f6c0bb90" y="63.826899"/>
     <use style="fill:#ff7f0e;stroke:#ff7f0e;" x="129.978914" xlink:href="#m16f6c0bb90" y="60.161665"/>
     <use style="fill:#ff7f0e;stroke:#ff7f0e;" x="134.250685" xlink:href="#m16f6c0bb90" y="74.8226"/>
     <use style="fill:#ff7f0e;stroke:#ff7f0e;" x="138.522455" xlink:href="#m16f6c0bb90" y="74.8226"/>
     <use style="fill:#ff7f0e;stroke:#ff7f0e;" x="142.794225" xlink:href="#m16f6c0bb90" y="74.8226"/>
     <use style="fill:#ff7f0e;stroke:#ff7f0e;" x="147.065996" xlink:href="#m16f6c0bb90" y="80.320451"/>
     <use style="fill:#ff7f0e;stroke:#ff7f0e;" x="151.337766" xlink:href="#m16f6c0bb90" y="69.32475"/>
     <use style="fill:#ff7f0e;stroke:#ff7f0e;" x="155.609536" xlink:href="#m16f6c0bb90" y="69.32475"/>
     <use style="fill:#ff7f0e;stroke:#ff7f0e;" x="159.881307" xlink:href="#m16f6c0bb90" y="69.32475"/>
     <use style="fill:#ff7f0e;stroke:#ff7f0e;" x="164.153077" xlink:href="#m16f6c0bb90" y="96.814004"/>
     <use style="fill:#ff7f0e;stroke:#ff7f0e;" x="168.424847" xlink:href="#m16f6c0bb90" y="98.646621"/>
     <use style="fill:#ff7f0e;stroke:#ff7f0e;" x="172.696618" xlink:href="#m16f6c0bb90" y="91.316153"/>
     <use style="fill:#ff7f0e;stroke:#ff7f0e;" x="176.968388" xlink:href="#m16f6c0bb90" y="109.642322"/>
     <use style="fill:#ff7f0e;stroke:#ff7f0e;" x="181.240158" xlink:href="#m16f6c0bb90" y="122.470641"/>
     <use style="fill:#ff7f0e;stroke:#ff7f0e;" x="185.511929" xlink:href="#m16f6c0bb90" y="113.307556"/>
     <use style="fill:#ff7f0e;stroke:#ff7f0e;" x="189.783699" xlink:href="#m16f6c0bb90" y="135.298959"/>
     <use style="fill:#ff7f0e;stroke:#ff7f0e;" x="194.055469" xlink:href="#m16f6c0bb90" y="168.286064"/>
     <use style="fill:#ff7f0e;stroke:#ff7f0e;" x="198.32724" xlink:href="#m16f6c0bb90" y="219.599339"/>
     <use style="fill:#ff7f0e;stroke:#ff7f0e;" x="202.59901" xlink:href="#m16f6c0bb90" y="239.758125"/>
     <use style="fill:#ff7f0e;stroke:#ff7f0e;" x="206.870781" xlink:href="#m16f6c0bb90" y="239.758125"/>
     <use style="fill:#ff7f0e;stroke:#ff7f0e;" x="211.142551" xlink:href="#m16f6c0bb90" y="239.758125"/>
     <use style="fill:#ff7f0e;stroke:#ff7f0e;" x="215.414321" xlink:href="#m16f6c0bb90" y="239.758125"/>
     <use style="fill:#ff7f0e;stroke:#ff7f0e;" x="219.686092" xlink:href="#m16f6c0bb90" y="239.758125"/>
     <use style="fill:#ff7f0e;stroke:#ff7f0e;" x="223.957862" xlink:href="#m16f6c0bb90" y="239.758125"/>
     <use style="fill:#ff7f0e;stroke:#ff7f0e;" x="228.229632" xlink:href="#m16f6c0bb90" y="239.758125"/>
     <use style="fill:#ff7f0e;stroke:#ff7f0e;" x="232.501403" xlink:href="#m16f6c0bb90" y="239.758125"/>
     <use style="fill:#ff7f0e;stroke:#ff7f0e;" x="236.773173" xlink:href="#m16f6c0bb90" y="239.758125"/>
     <use style="fill:#ff7f0e;stroke:#ff7f0e;" x="241.044943" xlink:href="#m16f6c0bb90" y="239.758125"/>
     <use style="fill:#ff7f0e;stroke:#ff7f0e;" x="245.316714" xlink:href="#m16f6c0bb90" y="239.758125"/>
     <use style="fill:#ff7f0e;stroke:#ff7f0e;" x="249.588484" xlink:href="#m16f6c0bb90" y="239.758125"/>
     <use style="fill:#ff7f0e;stroke:#ff7f0e;" x="253.860254" xlink:href="#m16f6c0bb90" y="239.758125"/>
     <use style="fill:#ff7f0e;stroke:#ff7f0e;" x="258.132025" xlink:href="#m16f6c0bb90" y="239.758125"/>
     <use style="fill:#ff7f0e;stroke:#ff7f0e;" x="262.403795" xlink:href="#m16f6c0bb90" y="239.758125"/>
     <use style="fill:#ff7f0e;stroke:#ff7f0e;" x="266.675565" xlink:href="#m16f6c0bb90" y="239.758125"/>
     <use style="fill:#ff7f0e;stroke:#ff7f0e;" x="270.947336" xlink:href="#m16f6c0bb90" y="239.758125"/>
     <use style="fill:#ff7f0e;stroke:#ff7f0e;" x="275.219106" xlink:href="#m16f6c0bb90" y="239.758125"/>
     <use style="fill:#ff7f0e;stroke:#ff7f0e;" x="279.490876" xlink:href="#m16f6c0bb90" y="239.758125"/>
     <use style="fill:#ff7f0e;stroke:#ff7f0e;" x="283.762647" xlink:href="#m16f6c0bb90" y="239.758125"/>
     <use style="fill:#ff7f0e;stroke:#ff7f0e;" x="288.034417" xlink:href="#m16f6c0bb90" y="239.758125"/>
     <use style="fill:#ff7f0e;stroke:#ff7f0e;" x="292.306187" xlink:href="#m16f6c0bb90" y="239.758125"/>
     <use style="fill:#ff7f0e;stroke:#ff7f0e;" x="296.577958" xlink:href="#m16f6c0bb90" y="239.758125"/>
     <use style="fill:#ff7f0e;stroke:#ff7f0e;" x="300.849728" xlink:href="#m16f6c0bb90" y="239.758125"/>
     <use style="fill:#ff7f0e;stroke:#ff7f0e;" x="305.121498" xlink:href="#m16f6c0bb90" y="239.758125"/>
     <use style="fill:#ff7f0e;stroke:#ff7f0e;" x="309.393269" xlink:href="#m16f6c0bb90" y="239.758125"/>
     <use style="fill:#ff7f0e;stroke:#ff7f0e;" x="313.665039" xlink:href="#m16f6c0bb90" y="239.758125"/>
     <use style="fill:#ff7f0e;stroke:#ff7f0e;" x="317.936809" xlink:href="#m16f6c0bb90" y="239.758125"/>
     <use style="fill:#ff7f0e;stroke:#ff7f0e;" x="322.20858" xlink:href="#m16f6c0bb90" y="239.758125"/>
    </g>
   </g>
   <g id="line2d_35">
    <path clip-path="url(#pda8770fabb)" d="M 78.71767 41.835495 
L 82.989441 36.337645 
L 87.261211 45.500729 
L 91.532981 54.663814 
L 95.804752 54.663814 
L 100.076522 34.505028 
L 104.348292 54.663814 
L 108.620063 56.496431 
L 112.891833 50.99858 
L 117.163603 47.333346 
L 121.435374 43.668112 
L 125.707144 56.496431 
L 129.978914 89.483536 
L 134.250685 109.642322 
L 138.522455 113.307556 
L 142.794225 113.307556 
L 147.065996 122.470641 
L 151.337766 118.805407 
L 155.609536 120.638024 
L 159.881307 102.311854 
L 164.153077 142.629427 
L 168.424847 146.294661 
L 172.696618 155.457746 
L 176.968388 162.788213 
L 181.240158 171.951298 
L 185.511929 171.951298 
L 189.783699 170.118681 
L 194.055469 208.603637 
L 198.32724 239.758125 
L 202.59901 239.758125 
L 206.870781 239.758125 
L 211.142551 239.758125 
L 215.414321 239.758125 
L 219.686092 239.758125 
L 223.957862 239.758125 
L 228.229632 239.758125 
L 232.501403 239.758125 
L 236.773173 239.758125 
L 241.044943 239.758125 
L 245.316714 239.758125 
L 249.588484 239.758125 
L 253.860254 239.758125 
L 258.132025 239.758125 
L 262.403795 239.758125 
L 266.675565 239.758125 
L 270.947336 239.758125 
L 275.219106 239.758125 
L 279.490876 239.758125 
L 283.762647 239.758125 
L 288.034417 239.758125 
L 292.306187 239.758125 
L 296.577958 239.758125 
L 300.849728 239.758125 
L 305.121498 239.758125 
L 309.393269 239.758125 
L 313.665039 239.758125 
L 317.936809 239.758125 
L 322.20858 239.758125 
" style="fill:none;stroke:#2ca02c;stroke-linecap:square;stroke-width:1.5;"/>
    <defs>
     <path d="M 0 3 
C 0.795609 3 1.55874 2.683901 2.12132 2.12132 
C 2.683901 1.55874 3 0.795609 3 0 
C 3 -0.795609 2.683901 -1.55874 2.12132 -2.12132 
C 1.55874 -2.683901 0.795609 -3 0 -3 
C -0.795609 -3 -1.55874 -2.683901 -2.12132 -2.12132 
C -2.683901 -1.55874 -3 -0.795609 -3 0 
C -3 0.795609 -2.683901 1.55874 -2.12132 2.12132 
C -1.55874 2.683901 -0.795609 3 0 3 
z
" id="m0296363728" style="stroke:#2ca02c;"/>
    </defs>
    <g clip-path="url(#pda8770fabb)">
     <use style="fill:#2ca02c;stroke:#2ca02c;" x="78.71767" xlink:href="#m0296363728" y="41.835495"/>
     <use style="fill:#2ca02c;stroke:#2ca02c;" x="82.989441" xlink:href="#m0296363728" y="36.337645"/>
     <use style="fill:#2ca02c;stroke:#2ca02c;" x="87.261211" xlink:href="#m0296363728" y="45.500729"/>
     <use style="fill:#2ca02c;stroke:#2ca02c;" x="91.532981" xlink:href="#m0296363728" y="54.663814"/>
     <use style="fill:#2ca02c;stroke:#2ca02c;" x="95.804752" xlink:href="#m0296363728" y="54.663814"/>
     <use style="fill:#2ca02c;stroke:#2ca02c;" x="100.076522" xlink:href="#m0296363728" y="34.505028"/>
     <use style="fill:#2ca02c;stroke:#2ca02c;" x="104.348292" xlink:href="#m0296363728" y="54.663814"/>
     <use style="fill:#2ca02c;stroke:#2ca02c;" x="108.620063" xlink:href="#m0296363728" y="56.496431"/>
     <use style="fill:#2ca02c;stroke:#2ca02c;" x="112.891833" xlink:href="#m0296363728" y="50.99858"/>
     <use style="fill:#2ca02c;stroke:#2ca02c;" x="117.163603" xlink:href="#m0296363728" y="47.333346"/>
     <use style="fill:#2ca02c;stroke:#2ca02c;" x="121.435374" xlink:href="#m0296363728" y="43.668112"/>
     <use style="fill:#2ca02c;stroke:#2ca02c;" x="125.707144" xlink:href="#m0296363728" y="56.496431"/>
     <use style="fill:#2ca02c;stroke:#2ca02c;" x="129.978914" xlink:href="#m0296363728" y="89.483536"/>
     <use style="fill:#2ca02c;stroke:#2ca02c;" x="134.250685" xlink:href="#m0296363728" y="109.642322"/>
     <use style="fill:#2ca02c;stroke:#2ca02c;" x="138.522455" xlink:href="#m0296363728" y="113.307556"/>
     <use style="fill:#2ca02c;stroke:#2ca02c;" x="142.794225" xlink:href="#m0296363728" y="113.307556"/>
     <use style="fill:#2ca02c;stroke:#2ca02c;" x="147.065996" xlink:href="#m0296363728" y="122.470641"/>
     <use style="fill:#2ca02c;stroke:#2ca02c;" x="151.337766" xlink:href="#m0296363728" y="118.805407"/>
     <use style="fill:#2ca02c;stroke:#2ca02c;" x="155.609536" xlink:href="#m0296363728" y="120.638024"/>
     <use style="fill:#2ca02c;stroke:#2ca02c;" x="159.881307" xlink:href="#m0296363728" y="102.311854"/>
     <use style="fill:#2ca02c;stroke:#2ca02c;" x="164.153077" xlink:href="#m0296363728" y="142.629427"/>
     <use style="fill:#2ca02c;stroke:#2ca02c;" x="168.424847" xlink:href="#m0296363728" y="146.294661"/>
     <use style="fill:#2ca02c;stroke:#2ca02c;" x="172.696618" xlink:href="#m0296363728" y="155.457746"/>
     <use style="fill:#2ca02c;stroke:#2ca02c;" x="176.968388" xlink:href="#m0296363728" y="162.788213"/>
     <use style="fill:#2ca02c;stroke:#2ca02c;" x="181.240158" xlink:href="#m0296363728" y="171.951298"/>
     <use style="fill:#2ca02c;stroke:#2ca02c;" x="185.511929" xlink:href="#m0296363728" y="171.951298"/>
     <use style="fill:#2ca02c;stroke:#2ca02c;" x="189.783699" xlink:href="#m0296363728" y="170.118681"/>
     <use style="fill:#2ca02c;stroke:#2ca02c;" x="194.055469" xlink:href="#m0296363728" y="208.603637"/>
     <use style="fill:#2ca02c;stroke:#2ca02c;" x="198.32724" xlink:href="#m0296363728" y="239.758125"/>
     <use style="fill:#2ca02c;stroke:#2ca02c;" x="202.59901" xlink:href="#m0296363728" y="239.758125"/>
     <use style="fill:#2ca02c;stroke:#2ca02c;" x="206.870781" xlink:href="#m0296363728" y="239.758125"/>
     <use style="fill:#2ca02c;stroke:#2ca02c;" x="211.142551" xlink:href="#m0296363728" y="239.758125"/>
     <use style="fill:#2ca02c;stroke:#2ca02c;" x="215.414321" xlink:href="#m0296363728" y="239.758125"/>
     <use style="fill:#2ca02c;stroke:#2ca02c;" x="219.686092" xlink:href="#m0296363728" y="239.758125"/>
     <use style="fill:#2ca02c;stroke:#2ca02c;" x="223.957862" xlink:href="#m0296363728" y="239.758125"/>
     <use style="fill:#2ca02c;stroke:#2ca02c;" x="228.229632" xlink:href="#m0296363728" y="239.758125"/>
     <use style="fill:#2ca02c;stroke:#2ca02c;" x="232.501403" xlink:href="#m0296363728" y="239.758125"/>
     <use style="fill:#2ca02c;stroke:#2ca02c;" x="236.773173" xlink:href="#m0296363728" y="239.758125"/>
     <use style="fill:#2ca02c;stroke:#2ca02c;" x="241.044943" xlink:href="#m0296363728" y="239.758125"/>
     <use style="fill:#2ca02c;stroke:#2ca02c;" x="245.316714" xlink:href="#m0296363728" y="239.758125"/>
     <use style="fill:#2ca02c;stroke:#2ca02c;" x="249.588484" xlink:href="#m0296363728" y="239.758125"/>
     <use style="fill:#2ca02c;stroke:#2ca02c;" x="253.860254" xlink:href="#m0296363728" y="239.758125"/>
     <use style="fill:#2ca02c;stroke:#2ca02c;" x="258.132025" xlink:href="#m0296363728" y="239.758125"/>
     <use style="fill:#2ca02c;stroke:#2ca02c;" x="262.403795" xlink:href="#m0296363728" y="239.758125"/>
     <use style="fill:#2ca02c;stroke:#2ca02c;" x="266.675565" xlink:href="#m0296363728" y="239.758125"/>
     <use style="fill:#2ca02c;stroke:#2ca02c;" x="270.947336" xlink:href="#m0296363728" y="239.758125"/>
     <use style="fill:#2ca02c;stroke:#2ca02c;" x="275.219106" xlink:href="#m0296363728" y="239.758125"/>
     <use style="fill:#2ca02c;stroke:#2ca02c;" x="279.490876" xlink:href="#m0296363728" y="239.758125"/>
     <use style="fill:#2ca02c;stroke:#2ca02c;" x="283.762647" xlink:href="#m0296363728" y="239.758125"/>
     <use style="fill:#2ca02c;stroke:#2ca02c;" x="288.034417" xlink:href="#m0296363728" y="239.758125"/>
     <use style="fill:#2ca02c;stroke:#2ca02c;" x="292.306187" xlink:href="#m0296363728" y="239.758125"/>
     <use style="fill:#2ca02c;stroke:#2ca02c;" x="296.577958" xlink:href="#m0296363728" y="239.758125"/>
     <use style="fill:#2ca02c;stroke:#2ca02c;" x="300.849728" xlink:href="#m0296363728" y="239.758125"/>
     <use style="fill:#2ca02c;stroke:#2ca02c;" x="305.121498" xlink:href="#m0296363728" y="239.758125"/>
     <use style="fill:#2ca02c;stroke:#2ca02c;" x="309.393269" xlink:href="#m0296363728" y="239.758125"/>
     <use style="fill:#2ca02c;stroke:#2ca02c;" x="313.665039" xlink:href="#m0296363728" y="239.758125"/>
     <use style="fill:#2ca02c;stroke:#2ca02c;" x="317.936809" xlink:href="#m0296363728" y="239.758125"/>
     <use style="fill:#2ca02c;stroke:#2ca02c;" x="322.20858" xlink:href="#m0296363728" y="239.758125"/>
    </g>
   </g>
   <g id="line2d_36">
    <path clip-path="url(#pda8770fabb)" d="M 78.71767 54.663814 
L 82.989441 36.337645 
L 87.261211 50.99858 
L 91.532981 56.496431 
L 95.804752 50.99858 
L 100.076522 32.672411 
L 104.348292 43.668112 
L 108.620063 54.663814 
L 112.891833 54.663814 
L 117.163603 60.161665 
L 121.435374 54.663814 
L 125.707144 60.161665 
L 129.978914 60.161665 
L 134.250685 67.492133 
L 138.522455 78.487834 
L 142.794225 78.487834 
L 147.065996 72.989983 
L 151.337766 83.985685 
L 155.609536 74.8226 
L 159.881307 63.826899 
L 164.153077 89.483536 
L 168.424847 111.474939 
L 172.696618 122.470641 
L 176.968388 151.792512 
L 181.240158 168.286064 
L 185.511929 173.783915 
L 189.783699 182.947 
L 194.055469 197.607935 
L 198.32724 239.758125 
L 202.59901 239.758125 
L 206.870781 239.758125 
L 211.142551 239.758125 
L 215.414321 239.758125 
L 219.686092 239.758125 
L 223.957862 239.758125 
L 228.229632 239.758125 
L 232.501403 239.758125 
L 236.773173 239.758125 
L 241.044943 239.758125 
L 245.316714 239.758125 
L 249.588484 239.758125 
L 253.860254 239.758125 
L 258.132025 239.758125 
L 262.403795 239.758125 
L 266.675565 239.758125 
L 270.947336 239.758125 
L 275.219106 239.758125 
L 279.490876 239.758125 
L 283.762647 239.758125 
L 288.034417 239.758125 
L 292.306187 239.758125 
L 296.577958 239.758125 
L 300.849728 239.758125 
L 305.121498 239.758125 
L 309.393269 239.758125 
L 313.665039 239.758125 
L 317.936809 239.758125 
L 322.20858 239.758125 
" style="fill:none;stroke:#d62728;stroke-linecap:square;stroke-width:3;"/>
    <defs>
     <path d="M 0 3 
C 0.795609 3 1.55874 2.683901 2.12132 2.12132 
C 2.683901 1.55874 3 0.795609 3 0 
C 3 -0.795609 2.683901 -1.55874 2.12132 -2.12132 
C 1.55874 -2.683901 0.795609 -3 0 -3 
C -0.795609 -3 -1.55874 -2.683901 -2.12132 -2.12132 
C -2.683901 -1.55874 -3 -0.795609 -3 0 
C -3 0.795609 -2.683901 1.55874 -2.12132 2.12132 
C -1.55874 2.683901 -0.795609 3 0 3 
z
" id="m7b6ea5b2c7" style="stroke:#d62728;"/>
    </defs>
    <g clip-path="url(#pda8770fabb)">
     <use style="fill:#d62728;stroke:#d62728;" x="78.71767" xlink:href="#m7b6ea5b2c7" y="54.663814"/>
     <use style="fill:#d62728;stroke:#d62728;" x="82.989441" xlink:href="#m7b6ea5b2c7" y="36.337645"/>
     <use style="fill:#d62728;stroke:#d62728;" x="87.261211" xlink:href="#m7b6ea5b2c7" y="50.99858"/>
     <use style="fill:#d62728;stroke:#d62728;" x="91.532981" xlink:href="#m7b6ea5b2c7" y="56.496431"/>
     <use style="fill:#d62728;stroke:#d62728;" x="95.804752" xlink:href="#m7b6ea5b2c7" y="50.99858"/>
     <use style="fill:#d62728;stroke:#d62728;" x="100.076522" xlink:href="#m7b6ea5b2c7" y="32.672411"/>
     <use style="fill:#d62728;stroke:#d62728;" x="104.348292" xlink:href="#m7b6ea5b2c7" y="43.668112"/>
     <use style="fill:#d62728;stroke:#d62728;" x="108.620063" xlink:href="#m7b6ea5b2c7" y="54.663814"/>
     <use style="fill:#d62728;stroke:#d62728;" x="112.891833" xlink:href="#m7b6ea5b2c7" y="54.663814"/>
     <use style="fill:#d62728;stroke:#d62728;" x="117.163603" xlink:href="#m7b6ea5b2c7" y="60.161665"/>
     <use style="fill:#d62728;stroke:#d62728;" x="121.435374" xlink:href="#m7b6ea5b2c7" y="54.663814"/>
     <use style="fill:#d62728;stroke:#d62728;" x="125.707144" xlink:href="#m7b6ea5b2c7" y="60.161665"/>
     <use style="fill:#d62728;stroke:#d62728;" x="129.978914" xlink:href="#m7b6ea5b2c7" y="60.161665"/>
     <use style="fill:#d62728;stroke:#d62728;" x="134.250685" xlink:href="#m7b6ea5b2c7" y="67.492133"/>
     <use style="fill:#d62728;stroke:#d62728;" x="138.522455" xlink:href="#m7b6ea5b2c7" y="78.487834"/>
     <use style="fill:#d62728;stroke:#d62728;" x="142.794225" xlink:href="#m7b6ea5b2c7" y="78.487834"/>
     <use style="fill:#d62728;stroke:#d62728;" x="147.065996" xlink:href="#m7b6ea5b2c7" y="72.989983"/>
     <use style="fill:#d62728;stroke:#d62728;" x="151.337766" xlink:href="#m7b6ea5b2c7" y="83.985685"/>
     <use style="fill:#d62728;stroke:#d62728;" x="155.609536" xlink:href="#m7b6ea5b2c7" y="74.8226"/>
     <use style="fill:#d62728;stroke:#d62728;" x="159.881307" xlink:href="#m7b6ea5b2c7" y="63.826899"/>
     <use style="fill:#d62728;stroke:#d62728;" x="164.153077" xlink:href="#m7b6ea5b2c7" y="89.483536"/>
     <use style="fill:#d62728;stroke:#d62728;" x="168.424847" xlink:href="#m7b6ea5b2c7" y="111.474939"/>
     <use style="fill:#d62728;stroke:#d62728;" x="172.696618" xlink:href="#m7b6ea5b2c7" y="122.470641"/>
     <use style="fill:#d62728;stroke:#d62728;" x="176.968388" xlink:href="#m7b6ea5b2c7" y="151.792512"/>
     <use style="fill:#d62728;stroke:#d62728;" x="181.240158" xlink:href="#m7b6ea5b2c7" y="168.286064"/>
     <use style="fill:#d62728;stroke:#d62728;" x="185.511929" xlink:href="#m7b6ea5b2c7" y="173.783915"/>
     <use style="fill:#d62728;stroke:#d62728;" x="189.783699" xlink:href="#m7b6ea5b2c7" y="182.947"/>
     <use style="fill:#d62728;stroke:#d62728;" x="194.055469" xlink:href="#m7b6ea5b2c7" y="197.607935"/>
     <use style="fill:#d62728;stroke:#d62728;" x="198.32724" xlink:href="#m7b6ea5b2c7" y="239.758125"/>
     <use style="fill:#d62728;stroke:#d62728;" x="202.59901" xlink:href="#m7b6ea5b2c7" y="239.758125"/>
     <use style="fill:#d62728;stroke:#d62728;" x="206.870781" xlink:href="#m7b6ea5b2c7" y="239.758125"/>
     <use style="fill:#d62728;stroke:#d62728;" x="211.142551" xlink:href="#m7b6ea5b2c7" y="239.758125"/>
     <use style="fill:#d62728;stroke:#d62728;" x="215.414321" xlink:href="#m7b6ea5b2c7" y="239.758125"/>
     <use style="fill:#d62728;stroke:#d62728;" x="219.686092" xlink:href="#m7b6ea5b2c7" y="239.758125"/>
     <use style="fill:#d62728;stroke:#d62728;" x="223.957862" xlink:href="#m7b6ea5b2c7" y="239.758125"/>
     <use style="fill:#d62728;stroke:#d62728;" x="228.229632" xlink:href="#m7b6ea5b2c7" y="239.758125"/>
     <use style="fill:#d62728;stroke:#d62728;" x="232.501403" xlink:href="#m7b6ea5b2c7" y="239.758125"/>
     <use style="fill:#d62728;stroke:#d62728;" x="236.773173" xlink:href="#m7b6ea5b2c7" y="239.758125"/>
     <use style="fill:#d62728;stroke:#d62728;" x="241.044943" xlink:href="#m7b6ea5b2c7" y="239.758125"/>
     <use style="fill:#d62728;stroke:#d62728;" x="245.316714" xlink:href="#m7b6ea5b2c7" y="239.758125"/>
     <use style="fill:#d62728;stroke:#d62728;" x="249.588484" xlink:href="#m7b6ea5b2c7" y="239.758125"/>
     <use style="fill:#d62728;stroke:#d62728;" x="253.860254" xlink:href="#m7b6ea5b2c7" y="239.758125"/>
     <use style="fill:#d62728;stroke:#d62728;" x="258.132025" xlink:href="#m7b6ea5b2c7" y="239.758125"/>
     <use style="fill:#d62728;stroke:#d62728;" x="262.403795" xlink:href="#m7b6ea5b2c7" y="239.758125"/>
     <use style="fill:#d62728;stroke:#d62728;" x="266.675565" xlink:href="#m7b6ea5b2c7" y="239.758125"/>
     <use style="fill:#d62728;stroke:#d62728;" x="270.947336" xlink:href="#m7b6ea5b2c7" y="239.758125"/>
     <use style="fill:#d62728;stroke:#d62728;" x="275.219106" xlink:href="#m7b6ea5b2c7" y="239.758125"/>
     <use style="fill:#d62728;stroke:#d62728;" x="279.490876" xlink:href="#m7b6ea5b2c7" y="239.758125"/>
     <use style="fill:#d62728;stroke:#d62728;" x="283.762647" xlink:href="#m7b6ea5b2c7" y="239.758125"/>
     <use style="fill:#d62728;stroke:#d62728;" x="288.034417" xlink:href="#m7b6ea5b2c7" y="239.758125"/>
     <use style="fill:#d62728;stroke:#d62728;" x="292.306187" xlink:href="#m7b6ea5b2c7" y="239.758125"/>
     <use style="fill:#d62728;stroke:#d62728;" x="296.577958" xlink:href="#m7b6ea5b2c7" y="239.758125"/>
     <use style="fill:#d62728;stroke:#d62728;" x="300.849728" xlink:href="#m7b6ea5b2c7" y="239.758125"/>
     <use style="fill:#d62728;stroke:#d62728;" x="305.121498" xlink:href="#m7b6ea5b2c7" y="239.758125"/>
     <use style="fill:#d62728;stroke:#d62728;" x="309.393269" xlink:href="#m7b6ea5b2c7" y="239.758125"/>
     <use style="fill:#d62728;stroke:#d62728;" x="313.665039" xlink:href="#m7b6ea5b2c7" y="239.758125"/>
     <use style="fill:#d62728;stroke:#d62728;" x="317.936809" xlink:href="#m7b6ea5b2c7" y="239.758125"/>
     <use style="fill:#d62728;stroke:#d62728;" x="322.20858" xlink:href="#m7b6ea5b2c7" y="239.758125"/>
    </g>
   </g>
   <g id="patch_3">
    <path d="M 66.543125 239.758125 
L 66.543125 22.318125 
" style="fill:none;stroke:#000000;stroke-linecap:square;stroke-linejoin:miter;stroke-width:0.8;"/>
   </g>
   <g id="patch_4">
    <path d="M 334.383125 239.758125 
L 334.383125 22.318125 
" style="fill:none;stroke:#000000;stroke-linecap:square;stroke-linejoin:miter;stroke-width:0.8;"/>
   </g>
   <g id="patch_5">
    <path d="M 66.543125 239.758125 
L 334.383125 239.758125 
" style="fill:none;stroke:#000000;stroke-linecap:square;stroke-linejoin:miter;stroke-width:0.8;"/>
   </g>
   <g id="patch_6">
    <path d="M 66.543125 22.318125 
L 334.383125 22.318125 
" style="fill:none;stroke:#000000;stroke-linecap:square;stroke-linejoin:miter;stroke-width:0.8;"/>
   </g>
   <g id="text_18">
    <!-- © Scott Sievert -->
    <defs>
     <path d="M 50 72.515625 
Q 57.421875 72.515625 63.84375 69.828125 
Q 70.265625 67.140625 75.59375 61.8125 
Q 80.90625 56.5 83.546875 50.09375 
Q 86.1875 43.703125 86.1875 36.1875 
Q 86.1875 28.765625 83.546875 22.390625 
Q 80.90625 16.015625 75.59375 10.6875 
Q 70.265625 5.375 63.84375 2.6875 
Q 57.421875 0 50 0 
Q 42.578125 0 36.15625 2.6875 
Q 29.734375 5.375 24.421875 10.6875 
Q 19.09375 16.015625 16.453125 22.390625 
Q 13.8125 28.765625 13.8125 36.1875 
Q 13.8125 43.703125 16.453125 50.09375 
Q 19.09375 56.5 24.421875 61.8125 
Q 29.734375 67.140625 36.15625 69.828125 
Q 42.578125 72.515625 50 72.515625 
z
M 50 67.484375 
Q 43.609375 67.484375 38.078125 65.1875 
Q 32.5625 62.890625 27.984375 58.296875 
Q 23.390625 53.71875 21.046875 48.125 
Q 18.703125 42.53125 18.703125 36.1875 
Q 18.703125 29.890625 21.046875 24.34375 
Q 23.390625 18.796875 27.984375 14.203125 
Q 32.5625 9.625 38.078125 7.296875 
Q 43.609375 4.984375 50 4.984375 
Q 56.453125 4.984375 61.984375 7.296875 
Q 67.53125 9.625 72.125 14.203125 
Q 76.65625 18.75 78.921875 24.265625 
Q 81.203125 29.78125 81.203125 36.1875 
Q 81.203125 42.671875 78.90625 48.21875 
Q 76.609375 53.765625 72.125 58.296875 
Q 67.53125 62.890625 61.984375 65.1875 
Q 56.453125 67.484375 50 67.484375 
z
M 64.59375 55.515625 
L 64.59375 49.21875 
Q 61.375 50.828125 58.203125 51.609375 
Q 55.03125 52.390625 51.8125 52.390625 
Q 44.53125 52.390625 40.453125 48.109375 
Q 36.375 43.84375 36.375 36.1875 
Q 36.375 28.421875 40.546875 24.171875 
Q 44.734375 19.921875 52.296875 19.921875 
Q 55.421875 19.921875 58.390625 20.671875 
Q 61.375 21.4375 64.59375 23.09375 
L 64.59375 16.890625 
Q 61.328125 15.484375 57.984375 14.796875 
Q 54.640625 14.109375 51.21875 14.109375 
Q 40.671875 14.109375 34.546875 20.0625 
Q 28.421875 26.03125 28.421875 36.1875 
Q 28.421875 46.390625 34.546875 52.296875 
Q 40.671875 58.203125 51.21875 58.203125 
Q 54.78125 58.203125 58.09375 57.515625 
Q 61.421875 56.84375 64.59375 55.515625 
z
" id="DejaVuSans-169"/>
     <path d="M 53.515625 70.515625 
L 53.515625 60.890625 
Q 47.90625 63.578125 42.921875 64.890625 
Q 37.9375 66.21875 33.296875 66.21875 
Q 25.25 66.21875 20.875 63.09375 
Q 16.5 59.96875 16.5 54.203125 
Q 16.5 49.359375 19.40625 46.890625 
Q 22.3125 44.4375 30.421875 42.921875 
L 36.375 41.703125 
Q 47.40625 39.59375 52.65625 34.296875 
Q 57.90625 29 57.90625 20.125 
Q 57.90625 9.515625 50.796875 4.046875 
Q 43.703125 -1.421875 29.984375 -1.421875 
Q 24.8125 -1.421875 18.96875 -0.25 
Q 13.140625 0.921875 6.890625 3.21875 
L 6.890625 13.375 
Q 12.890625 10.015625 18.65625 8.296875 
Q 24.421875 6.59375 29.984375 6.59375 
Q 38.421875 6.59375 43.015625 9.90625 
Q 47.609375 13.234375 47.609375 19.390625 
Q 47.609375 24.75 44.3125 27.78125 
Q 41.015625 30.8125 33.5 32.328125 
L 27.484375 33.5 
Q 16.453125 35.6875 11.515625 40.375 
Q 6.59375 45.0625 6.59375 53.421875 
Q 6.59375 63.09375 13.40625 68.65625 
Q 20.21875 74.21875 32.171875 74.21875 
Q 37.3125 74.21875 42.625 73.28125 
Q 47.953125 72.359375 53.515625 70.515625 
z
" id="DejaVuSans-83"/>
     <path d="M 9.421875 54.6875 
L 18.40625 54.6875 
L 18.40625 0 
L 9.421875 0 
z
M 9.421875 75.984375 
L 18.40625 75.984375 
L 18.40625 64.59375 
L 9.421875 64.59375 
z
" id="DejaVuSans-105"/>
     <path d="M 2.984375 54.6875 
L 12.5 54.6875 
L 29.59375 8.796875 
L 46.6875 54.6875 
L 56.203125 54.6875 
L 35.6875 0 
L 23.484375 0 
z
" id="DejaVuSans-118"/>
    </defs>
    <g style="fill:#888888;" transform="translate(266.0348 276.410464)scale(0.1 -0.1)">
     <use xlink:href="#DejaVuSans-169"/>
     <use x="100" xlink:href="#DejaVuSans-32"/>
     <use x="131.787109" xlink:href="#DejaVuSans-83"/>
     <use x="195.263672" xlink:href="#DejaVuSans-99"/>
     <use x="250.244141" xlink:href="#DejaVuSans-111"/>
     <use x="311.425781" xlink:href="#DejaVuSans-116"/>
     <use x="350.634766" xlink:href="#DejaVuSans-116"/>
     <use x="389.84375" xlink:href="#DejaVuSans-32"/>
     <use x="421.630859" xlink:href="#DejaVuSans-83"/>
     <use x="485.107422" xlink:href="#DejaVuSans-105"/>
     <use x="512.890625" xlink:href="#DejaVuSans-101"/>
     <use x="574.414062" xlink:href="#DejaVuSans-118"/>
     <use x="633.59375" xlink:href="#DejaVuSans-101"/>
     <use x="695.117188" xlink:href="#DejaVuSans-114"/>
     <use x="736.230469" xlink:href="#DejaVuSans-116"/>
    </g>
   </g>
   <g id="text_19">
    <!-- City restaurant reservations -->
    <defs>
     <path d="M 64.40625 67.28125 
L 64.40625 56.890625 
Q 59.421875 61.53125 53.78125 63.8125 
Q 48.140625 66.109375 41.796875 66.109375 
Q 29.296875 66.109375 22.65625 58.46875 
Q 16.015625 50.828125 16.015625 36.375 
Q 16.015625 21.96875 22.65625 14.328125 
Q 29.296875 6.6875 41.796875 6.6875 
Q 48.140625 6.6875 53.78125 8.984375 
Q 59.421875 11.28125 64.40625 15.921875 
L 64.40625 5.609375 
Q 59.234375 2.09375 53.4375 0.328125 
Q 47.65625 -1.421875 41.21875 -1.421875 
Q 24.65625 -1.421875 15.125 8.703125 
Q 5.609375 18.84375 5.609375 36.375 
Q 5.609375 53.953125 15.125 64.078125 
Q 24.65625 74.21875 41.21875 74.21875 
Q 47.75 74.21875 53.53125 72.484375 
Q 59.328125 70.75 64.40625 67.28125 
z
" id="DejaVuSans-67"/>
     <path d="M 32.171875 -5.078125 
Q 28.375 -14.84375 24.75 -17.8125 
Q 21.140625 -20.796875 15.09375 -20.796875 
L 7.90625 -20.796875 
L 7.90625 -13.28125 
L 13.1875 -13.28125 
Q 16.890625 -13.28125 18.9375 -11.515625 
Q 21 -9.765625 23.484375 -3.21875 
L 25.09375 0.875 
L 2.984375 54.6875 
L 12.5 54.6875 
L 29.59375 11.921875 
L 46.6875 54.6875 
L 56.203125 54.6875 
z
" id="DejaVuSans-121"/>
     <path d="M 44.28125 53.078125 
L 44.28125 44.578125 
Q 40.484375 46.53125 36.375 47.5 
Q 32.28125 48.484375 27.875 48.484375 
Q 21.1875 48.484375 17.84375 46.4375 
Q 14.5 44.390625 14.5 40.28125 
Q 14.5 37.15625 16.890625 35.375 
Q 19.28125 33.59375 26.515625 31.984375 
L 29.59375 31.296875 
Q 39.15625 29.25 43.1875 25.515625 
Q 47.21875 21.78125 47.21875 15.09375 
Q 47.21875 7.46875 41.1875 3.015625 
Q 35.15625 -1.421875 24.609375 -1.421875 
Q 20.21875 -1.421875 15.453125 -0.5625 
Q 10.6875 0.296875 5.421875 2 
L 5.421875 11.28125 
Q 10.40625 8.6875 15.234375 7.390625 
Q 20.0625 6.109375 24.8125 6.109375 
Q 31.15625 6.109375 34.5625 8.28125 
Q 37.984375 10.453125 37.984375 14.40625 
Q 37.984375 18.0625 35.515625 20.015625 
Q 33.0625 21.96875 24.703125 23.78125 
L 21.578125 24.515625 
Q 13.234375 26.265625 9.515625 29.90625 
Q 5.8125 33.546875 5.8125 39.890625 
Q 5.8125 47.609375 11.28125 51.796875 
Q 16.75 56 26.8125 56 
Q 31.78125 56 36.171875 55.265625 
Q 40.578125 54.546875 44.28125 53.078125 
z
" id="DejaVuSans-115"/>
     <path d="M 8.5 21.578125 
L 8.5 54.6875 
L 17.484375 54.6875 
L 17.484375 21.921875 
Q 17.484375 14.15625 20.5 10.265625 
Q 23.53125 6.390625 29.59375 6.390625 
Q 36.859375 6.390625 41.078125 11.03125 
Q 45.3125 15.671875 45.3125 23.6875 
L 45.3125 54.6875 
L 54.296875 54.6875 
L 54.296875 0 
L 45.3125 0 
L 45.3125 8.40625 
Q 42.046875 3.421875 37.71875 1 
Q 33.40625 -1.421875 27.6875 -1.421875 
Q 18.265625 -1.421875 13.375 4.4375 
Q 8.5 10.296875 8.5 21.578125 
z
M 31.109375 56 
z
" id="DejaVuSans-117"/>
    </defs>
    <g transform="translate(116.190312 16.318125)scale(0.12 -0.12)">
     <use xlink:href="#DejaVuSans-67"/>
     <use x="69.824219" xlink:href="#DejaVuSans-105"/>
     <use x="97.607422" xlink:href="#DejaVuSans-116"/>
     <use x="136.816406" xlink:href="#DejaVuSans-121"/>
     <use x="195.996094" xlink:href="#DejaVuSans-32"/>
     <use x="227.783203" xlink:href="#DejaVuSans-114"/>
     <use x="268.865234" xlink:href="#DejaVuSans-101"/>
     <use x="330.388672" xlink:href="#DejaVuSans-115"/>
     <use x="382.488281" xlink:href="#DejaVuSans-116"/>
     <use x="421.697266" xlink:href="#DejaVuSans-97"/>
     <use x="482.976562" xlink:href="#DejaVuSans-117"/>
     <use x="546.355469" xlink:href="#DejaVuSans-114"/>
     <use x="587.46875" xlink:href="#DejaVuSans-97"/>
     <use x="648.748047" xlink:href="#DejaVuSans-110"/>
     <use x="712.126953" xlink:href="#DejaVuSans-116"/>
     <use x="751.335938" xlink:href="#DejaVuSans-32"/>
     <use x="783.123047" xlink:href="#DejaVuSans-114"/>
     <use x="824.205078" xlink:href="#DejaVuSans-101"/>
     <use x="885.728516" xlink:href="#DejaVuSans-115"/>
     <use x="937.828125" xlink:href="#DejaVuSans-101"/>
     <use x="999.351562" xlink:href="#DejaVuSans-114"/>
     <use x="1040.464844" xlink:href="#DejaVuSans-118"/>
     <use x="1099.644531" xlink:href="#DejaVuSans-97"/>
     <use x="1160.923828" xlink:href="#DejaVuSans-116"/>
     <use x="1200.132812" xlink:href="#DejaVuSans-105"/>
     <use x="1227.916016" xlink:href="#DejaVuSans-111"/>
     <use x="1289.097656" xlink:href="#DejaVuSans-110"/>
     <use x="1352.476562" xlink:href="#DejaVuSans-115"/>
    </g>
   </g>
   <g id="legend_1">
    <g id="patch_7">
     <path d="M 237.51125 89.030625 
L 327.383125 89.030625 
Q 329.383125 89.030625 329.383125 87.030625 
L 329.383125 29.318125 
Q 329.383125 27.318125 327.383125 27.318125 
L 237.51125 27.318125 
Q 235.51125 27.318125 235.51125 29.318125 
L 235.51125 87.030625 
Q 235.51125 89.030625 237.51125 89.030625 
z
" style="fill:#ffffff;opacity:0.8;stroke:#cccccc;stroke-linejoin:miter;"/>
    </g>
    <g id="line2d_37">
     <path d="M 239.51125 35.416562 
L 259.51125 35.416562 
" style="fill:none;stroke:#1f77b4;stroke-linecap:square;stroke-width:1.5;"/>
    </g>
    <g id="line2d_38">
     <g>
      <use style="fill:#1f77b4;stroke:#1f77b4;" x="249.51125" xlink:href="#mbf4dea8c48" y="35.416562"/>
     </g>
    </g>
    <g id="text_20">
     <!-- Mexico City -->
     <defs>
      <path d="M 54.890625 54.6875 
L 35.109375 28.078125 
L 55.90625 0 
L 45.3125 0 
L 29.390625 21.484375 
L 13.484375 0 
L 2.875 0 
L 24.125 28.609375 
L 4.6875 54.6875 
L 15.28125 54.6875 
L 29.78125 35.203125 
L 44.28125 54.6875 
z
" id="DejaVuSans-120"/>
     </defs>
     <g transform="translate(267.51125 38.916562)scale(0.1 -0.1)">
      <use xlink:href="#DejaVuSans-77"/>
      <use x="86.279297" xlink:href="#DejaVuSans-101"/>
      <use x="147.787109" xlink:href="#DejaVuSans-120"/>
      <use x="206.966797" xlink:href="#DejaVuSans-105"/>
      <use x="234.75" xlink:href="#DejaVuSans-99"/>
      <use x="289.730469" xlink:href="#DejaVuSans-111"/>
      <use x="350.912109" xlink:href="#DejaVuSans-32"/>
      <use x="382.699219" xlink:href="#DejaVuSans-67"/>
      <use x="452.523438" xlink:href="#DejaVuSans-105"/>
      <use x="480.306641" xlink:href="#DejaVuSans-116"/>
      <use x="519.515625" xlink:href="#DejaVuSans-121"/>
     </g>
    </g>
    <g id="line2d_39">
     <path d="M 239.51125 50.094687 
L 259.51125 50.094687 
" style="fill:none;stroke:#ff7f0e;stroke-linecap:square;stroke-width:1.5;"/>
    </g>
    <g id="line2d_40">
     <g>
      <use style="fill:#ff7f0e;stroke:#ff7f0e;" x="249.51125" xlink:href="#m16f6c0bb90" y="50.094687"/>
     </g>
    </g>
    <g id="text_21">
     <!-- London -->
     <defs>
      <path d="M 9.8125 72.90625 
L 19.671875 72.90625 
L 19.671875 8.296875 
L 55.171875 8.296875 
L 55.171875 0 
L 9.8125 0 
z
" id="DejaVuSans-76"/>
     </defs>
     <g transform="translate(267.51125 53.594687)scale(0.1 -0.1)">
      <use xlink:href="#DejaVuSans-76"/>
      <use x="55.697266" xlink:href="#DejaVuSans-111"/>
      <use x="116.878906" xlink:href="#DejaVuSans-110"/>
      <use x="180.257812" xlink:href="#DejaVuSans-100"/>
      <use x="243.734375" xlink:href="#DejaVuSans-111"/>
      <use x="304.916016" xlink:href="#DejaVuSans-110"/>
     </g>
    </g>
    <g id="line2d_41">
     <path d="M 239.51125 64.772812 
L 259.51125 64.772812 
" style="fill:none;stroke:#2ca02c;stroke-linecap:square;stroke-width:1.5;"/>
    </g>
    <g id="line2d_42">
     <g>
      <use style="fill:#2ca02c;stroke:#2ca02c;" x="249.51125" xlink:href="#m0296363728" y="64.772812"/>
     </g>
    </g>
    <g id="text_22">
     <!-- Seattle -->
     <defs>
      <path d="M 9.421875 75.984375 
L 18.40625 75.984375 
L 18.40625 0 
L 9.421875 0 
z
" id="DejaVuSans-108"/>
     </defs>
     <g transform="translate(267.51125 68.272812)scale(0.1 -0.1)">
      <use xlink:href="#DejaVuSans-83"/>
      <use x="63.476562" xlink:href="#DejaVuSans-101"/>
      <use x="125" xlink:href="#DejaVuSans-97"/>
      <use x="186.279297" xlink:href="#DejaVuSans-116"/>
      <use x="225.488281" xlink:href="#DejaVuSans-116"/>
      <use x="264.697266" xlink:href="#DejaVuSans-108"/>
      <use x="292.480469" xlink:href="#DejaVuSans-101"/>
     </g>
    </g>
    <g id="line2d_43">
     <path d="M 239.51125 79.450938 
L 259.51125 79.450938 
" style="fill:none;stroke:#d62728;stroke-linecap:square;stroke-width:3;"/>
    </g>
    <g id="line2d_44">
     <g>
      <use style="fill:#d62728;stroke:#d62728;" x="249.51125" xlink:href="#m7b6ea5b2c7" y="79.450938"/>
     </g>
    </g>
    <g id="text_23">
     <!-- New York -->
     <defs>
      <path d="M 9.8125 72.90625 
L 23.09375 72.90625 
L 55.421875 11.921875 
L 55.421875 72.90625 
L 64.984375 72.90625 
L 64.984375 0 
L 51.703125 0 
L 19.390625 60.984375 
L 19.390625 0 
L 9.8125 0 
z
" id="DejaVuSans-78"/>
      <path d="M -0.203125 72.90625 
L 10.40625 72.90625 
L 30.609375 42.921875 
L 50.6875 72.90625 
L 61.28125 72.90625 
L 35.5 34.71875 
L 35.5 0 
L 25.59375 0 
L 25.59375 34.71875 
z
" id="DejaVuSans-89"/>
      <path d="M 9.078125 75.984375 
L 18.109375 75.984375 
L 18.109375 31.109375 
L 44.921875 54.6875 
L 56.390625 54.6875 
L 27.390625 29.109375 
L 57.625 0 
L 45.90625 0 
L 18.109375 26.703125 
L 18.109375 0 
L 9.078125 0 
z
" id="DejaVuSans-107"/>
     </defs>
     <g transform="translate(267.51125 82.950938)scale(0.1 -0.1)">
      <use xlink:href="#DejaVuSans-78"/>
      <use x="74.804688" xlink:href="#DejaVuSans-101"/>
      <use x="136.328125" xlink:href="#DejaVuSans-119"/>
      <use x="218.115234" xlink:href="#DejaVuSans-32"/>
      <use x="249.902344" xlink:href="#DejaVuSans-89"/>
      <use x="310.783203" xlink:href="#DejaVuSans-111"/>
      <use x="371.964844" xlink:href="#DejaVuSans-114"/>
      <use x="413.078125" xlink:href="#DejaVuSans-107"/>
     </g>
    </g>
   </g>
  </g>
 </g>
 <defs>
  <clipPath id="pda8770fabb">
   <rect height="217.44" width="267.84" x="66.543125" y="22.318125"/>
  </clipPath>
 </defs>
</svg>
