<?xml version="1.0" encoding="utf-8" standalone="no"?>
<!DOCTYPE svg PUBLIC "-//W3C//DTD SVG 1.1//EN"
  "http://www.w3.org/Graphics/SVG/1.1/DTD/svg11.dtd">
<!-- Created with matplotlib (https://matplotlib.org/) -->
<svg height="342.90053pt" version="1.1" viewBox="0 0 396.902164 342.90053" width="396.902164pt" xmlns="http://www.w3.org/2000/svg" xmlns:xlink="http://www.w3.org/1999/xlink">
 <defs>
  <style type="text/css">
*{stroke-linecap:butt;stroke-linejoin:round;}
  </style>
 </defs>
 <g id="figure_1">
  <g id="patch_1">
   <path d="M 0 342.90053 
L 396.902164 342.90053 
L 396.902164 0 
L 0 0 
z
" style="fill:#ffffff;"/>
  </g>
  <g id="axes_1">
   <g id="patch_2">
    <path d="M 53.328125 239.758125 
L 388.128125 239.758125 
L 388.128125 22.318125 
L 53.328125 22.318125 
z
" style="fill:#ffffff;"/>
   </g>
   <g id="line2d_1">
    <path clip-path="url(#p6e05ef0df4)" d="M 74.305592 343.90053 
L 76.703901 340.727855 
L 82.547845 332.997022 
L 88.39179 325.266188 
L 94.235734 317.535355 
L 100.079678 309.804521 
L 105.923622 302.073687 
L 111.767566 294.342854 
L 117.61151 286.61202 
L 123.455454 278.881186 
L 129.299398 271.150353 
L 135.143342 263.419519 
L 140.987286 255.688686 
L 146.83123 247.957852 
L 152.675175 240.227018 
L 158.519119 232.496185 
L 164.363063 224.765351 
L 170.207007 217.034517 
L 176.050951 209.303684 
L 181.894895 201.57285 
L 187.738839 193.842017 
L 193.582783 186.111183 
L 199.426727 178.380349 
L 205.270671 170.649516 
L 211.114615 162.918682 
L 216.95856 155.187848 
L 222.802504 147.457015 
L 228.646448 139.726181 
L 234.490392 131.995348 
L 240.334336 124.264514 
L 246.17828 116.53368 
L 252.022224 108.802847 
L 257.866168 101.072013 
L 263.710112 93.341179 
L 269.554056 85.610346 
L 275.398001 77.879512 
L 281.241945 70.148679 
L 287.085889 62.417845 
L 292.929833 54.687011 
L 298.773777 46.956178 
L 304.617721 39.225344 
L 310.461665 31.49451 
L 316.305609 23.763677 
L 322.149553 16.032843 
" style="fill:none;stroke:#ff7f0e;stroke-linecap:square;stroke-opacity:0.7;stroke-width:1.5;"/>
   </g>
   <g id="line2d_2">
    <path clip-path="url(#p6e05ef0df4)" d="M 65.691919 343.90053 
L 70.859957 337.063838 
L 76.703901 329.333004 
L 82.547845 321.602171 
L 88.39179 313.871337 
L 94.235734 306.140503 
L 100.079678 298.40967 
L 105.923622 290.678836 
L 111.767566 282.948002 
L 117.61151 275.217169 
L 123.455454 267.486335 
L 129.299398 259.755502 
L 135.143342 252.024668 
L 140.987286 244.293834 
L 146.83123 236.563001 
L 152.675175 228.832167 
L 158.519119 221.101333 
L 164.363063 213.3705 
L 170.207007 205.639666 
L 176.050951 197.908833 
L 181.894895 190.177999 
L 187.738839 182.447165 
L 193.582783 174.716332 
L 199.426727 166.985498 
L 205.270671 159.254664 
L 211.114615 151.523831 
L 216.95856 143.792997 
L 222.802504 136.062164 
L 228.646448 128.33133 
L 234.490392 120.600496 
L 240.334336 112.869663 
L 246.17828 105.138829 
L 252.022224 97.407995 
L 257.866168 89.677162 
L 263.710112 81.946328 
L 269.554056 74.215495 
L 275.398001 66.484661 
L 281.241945 58.753827 
L 287.085889 51.022994 
L 292.929833 43.29216 
L 298.773777 35.561326 
L 304.617721 27.830493 
L 310.461665 20.099659 
L 316.305609 12.368826 
L 322.149553 4.637992 
" style="fill:none;stroke:#1f77b4;stroke-linecap:square;stroke-opacity:0.7;stroke-width:1.5;"/>
   </g>
   <g id="line2d_3">
    <path clip-path="url(#p6e05ef0df4)" d="M 35.796293 272.187534 
L 41.640237 264.4567 
L 47.484181 256.725867 
L 53.328125 248.995033 
L 59.172069 241.2642 
L 65.016013 233.533366 
L 70.859957 225.802532 
L 76.703901 218.071699 
L 82.547845 210.340865 
L 88.39179 202.610031 
L 94.235734 194.879198 
L 100.079678 187.148364 
L 105.923622 179.417531 
L 111.767566 171.686697 
L 117.61151 163.955863 
L 123.455454 156.22503 
L 129.299398 148.494196 
L 135.143342 140.763362 
L 140.987286 133.032529 
L 146.83123 125.301695 
L 152.675175 117.570862 
L 158.519119 109.840028 
L 164.363063 102.109194 
L 170.207007 94.378361 
L 176.050951 86.647527 
L 181.894895 78.916693 
L 187.738839 71.18586 
L 193.582783 63.455026 
L 199.426727 55.724193 
L 205.270671 47.993359 
L 211.114615 40.262525 
L 216.95856 32.531692 
L 222.802504 24.800858 
L 228.646448 17.070024 
L 234.490392 9.339191 
L 240.334336 1.608357 
L 242.306063 -1 
" style="fill:none;stroke:#2ca02c;stroke-linecap:square;stroke-opacity:0.7;stroke-width:1.5;"/>
   </g>
   <g id="matplotlib.axis_1">
    <g id="xtick_1">
     <g id="line2d_4">
      <path clip-path="url(#p6e05ef0df4)" d="M 82.547845 239.758125 
L 82.547845 22.318125 
" style="fill:none;stroke:#b0b0b0;stroke-linecap:square;stroke-opacity:0.8;stroke-width:0.8;"/>
     </g>
     <g id="line2d_5">
      <defs>
       <path d="M 0 0 
L 0 3.5 
" id="m72f23cfbb0" style="stroke:#000000;stroke-width:0.8;"/>
      </defs>
      <g>
       <use style="stroke:#000000;stroke-width:0.8;" x="82.547845" xlink:href="#m72f23cfbb0" y="239.758125"/>
      </g>
     </g>
     <g id="text_1">
      <!-- Feb. -->
      <defs>
       <path d="M 9.8125 72.90625 
L 51.703125 72.90625 
L 51.703125 64.59375 
L 19.671875 64.59375 
L 19.671875 43.109375 
L 48.578125 43.109375 
L 48.578125 34.8125 
L 19.671875 34.8125 
L 19.671875 0 
L 9.8125 0 
z
" id="DejaVuSans-70"/>
       <path d="M 56.203125 29.59375 
L 56.203125 25.203125 
L 14.890625 25.203125 
Q 15.484375 15.921875 20.484375 11.0625 
Q 25.484375 6.203125 34.421875 6.203125 
Q 39.59375 6.203125 44.453125 7.46875 
Q 49.3125 8.734375 54.109375 11.28125 
L 54.109375 2.78125 
Q 49.265625 0.734375 44.1875 -0.34375 
Q 39.109375 -1.421875 33.890625 -1.421875 
Q 20.796875 -1.421875 13.15625 6.1875 
Q 5.515625 13.8125 5.515625 26.8125 
Q 5.515625 40.234375 12.765625 48.109375 
Q 20.015625 56 32.328125 56 
Q 43.359375 56 49.78125 48.890625 
Q 56.203125 41.796875 56.203125 29.59375 
z
M 47.21875 32.234375 
Q 47.125 39.59375 43.09375 43.984375 
Q 39.0625 48.390625 32.421875 48.390625 
Q 24.90625 48.390625 20.390625 44.140625 
Q 15.875 39.890625 15.1875 32.171875 
z
" id="DejaVuSans-101"/>
       <path d="M 48.6875 27.296875 
Q 48.6875 37.203125 44.609375 42.84375 
Q 40.53125 48.484375 33.40625 48.484375 
Q 26.265625 48.484375 22.1875 42.84375 
Q 18.109375 37.203125 18.109375 27.296875 
Q 18.109375 17.390625 22.1875 11.75 
Q 26.265625 6.109375 33.40625 6.109375 
Q 40.53125 6.109375 44.609375 11.75 
Q 48.6875 17.390625 48.6875 27.296875 
z
M 18.109375 46.390625 
Q 20.953125 51.265625 25.265625 53.625 
Q 29.59375 56 35.59375 56 
Q 45.5625 56 51.78125 48.09375 
Q 58.015625 40.1875 58.015625 27.296875 
Q 58.015625 14.40625 51.78125 6.484375 
Q 45.5625 -1.421875 35.59375 -1.421875 
Q 29.59375 -1.421875 25.265625 0.953125 
Q 20.953125 3.328125 18.109375 8.203125 
L 18.109375 0 
L 9.078125 0 
L 9.078125 75.984375 
L 18.109375 75.984375 
z
" id="DejaVuSans-98"/>
       <path d="M 10.6875 12.40625 
L 21 12.40625 
L 21 0 
L 10.6875 0 
z
" id="DejaVuSans-46"/>
      </defs>
      <g transform="translate(71.836127 254.356562)scale(0.1 -0.1)">
       <use xlink:href="#DejaVuSans-70"/>
       <use x="57.441406" xlink:href="#DejaVuSans-101"/>
       <use x="118.964844" xlink:href="#DejaVuSans-98"/>
       <use x="182.441406" xlink:href="#DejaVuSans-46"/>
      </g>
      <!-- 23 -->
      <defs>
       <path d="M 19.1875 8.296875 
L 53.609375 8.296875 
L 53.609375 0 
L 7.328125 0 
L 7.328125 8.296875 
Q 12.9375 14.109375 22.625 23.890625 
Q 32.328125 33.6875 34.8125 36.53125 
Q 39.546875 41.84375 41.421875 45.53125 
Q 43.3125 49.21875 43.3125 52.78125 
Q 43.3125 58.59375 39.234375 62.25 
Q 35.15625 65.921875 28.609375 65.921875 
Q 23.96875 65.921875 18.8125 64.3125 
Q 13.671875 62.703125 7.8125 59.421875 
L 7.8125 69.390625 
Q 13.765625 71.78125 18.9375 73 
Q 24.125 74.21875 28.421875 74.21875 
Q 39.75 74.21875 46.484375 68.546875 
Q 53.21875 62.890625 53.21875 53.421875 
Q 53.21875 48.921875 51.53125 44.890625 
Q 49.859375 40.875 45.40625 35.40625 
Q 44.1875 33.984375 37.640625 27.21875 
Q 31.109375 20.453125 19.1875 8.296875 
z
" id="DejaVuSans-50"/>
       <path d="M 40.578125 39.3125 
Q 47.65625 37.796875 51.625 33 
Q 55.609375 28.21875 55.609375 21.1875 
Q 55.609375 10.40625 48.1875 4.484375 
Q 40.765625 -1.421875 27.09375 -1.421875 
Q 22.515625 -1.421875 17.65625 -0.515625 
Q 12.796875 0.390625 7.625 2.203125 
L 7.625 11.71875 
Q 11.71875 9.328125 16.59375 8.109375 
Q 21.484375 6.890625 26.8125 6.890625 
Q 36.078125 6.890625 40.9375 10.546875 
Q 45.796875 14.203125 45.796875 21.1875 
Q 45.796875 27.640625 41.28125 31.265625 
Q 36.765625 34.90625 28.71875 34.90625 
L 20.21875 34.90625 
L 20.21875 43.015625 
L 29.109375 43.015625 
Q 36.375 43.015625 40.234375 45.921875 
Q 44.09375 48.828125 44.09375 54.296875 
Q 44.09375 59.90625 40.109375 62.90625 
Q 36.140625 65.921875 28.71875 65.921875 
Q 24.65625 65.921875 20.015625 65.03125 
Q 15.375 64.15625 9.8125 62.3125 
L 9.8125 71.09375 
Q 15.4375 72.65625 20.34375 73.4375 
Q 25.25 74.21875 29.59375 74.21875 
Q 40.828125 74.21875 47.359375 69.109375 
Q 53.90625 64.015625 53.90625 55.328125 
Q 53.90625 49.265625 50.4375 45.09375 
Q 46.96875 40.921875 40.578125 39.3125 
z
" id="DejaVuSans-51"/>
      </defs>
      <g transform="translate(76.185345 265.554375)scale(0.1 -0.1)">
       <use xlink:href="#DejaVuSans-50"/>
       <use x="63.623047" xlink:href="#DejaVuSans-51"/>
      </g>
     </g>
    </g>
    <g id="xtick_2">
     <g id="line2d_6">
      <path clip-path="url(#p6e05ef0df4)" d="M 123.455454 239.758125 
L 123.455454 22.318125 
" style="fill:none;stroke:#b0b0b0;stroke-linecap:square;stroke-opacity:0.8;stroke-width:0.8;"/>
     </g>
     <g id="line2d_7">
      <g>
       <use style="stroke:#000000;stroke-width:0.8;" x="123.455454" xlink:href="#m72f23cfbb0" y="239.758125"/>
      </g>
     </g>
     <g id="text_2">
      <!-- Mar. -->
      <defs>
       <path d="M 9.8125 72.90625 
L 24.515625 72.90625 
L 43.109375 23.296875 
L 61.8125 72.90625 
L 76.515625 72.90625 
L 76.515625 0 
L 66.890625 0 
L 66.890625 64.015625 
L 48.09375 14.015625 
L 38.1875 14.015625 
L 19.390625 64.015625 
L 19.390625 0 
L 9.8125 0 
z
" id="DejaVuSans-77"/>
       <path d="M 34.28125 27.484375 
Q 23.390625 27.484375 19.1875 25 
Q 14.984375 22.515625 14.984375 16.5 
Q 14.984375 11.71875 18.140625 8.90625 
Q 21.296875 6.109375 26.703125 6.109375 
Q 34.1875 6.109375 38.703125 11.40625 
Q 43.21875 16.703125 43.21875 25.484375 
L 43.21875 27.484375 
z
M 52.203125 31.203125 
L 52.203125 0 
L 43.21875 0 
L 43.21875 8.296875 
Q 40.140625 3.328125 35.546875 0.953125 
Q 30.953125 -1.421875 24.3125 -1.421875 
Q 15.921875 -1.421875 10.953125 3.296875 
Q 6 8.015625 6 15.921875 
Q 6 25.140625 12.171875 29.828125 
Q 18.359375 34.515625 30.609375 34.515625 
L 43.21875 34.515625 
L 43.21875 35.40625 
Q 43.21875 41.609375 39.140625 45 
Q 35.0625 48.390625 27.6875 48.390625 
Q 23 48.390625 18.546875 47.265625 
Q 14.109375 46.140625 10.015625 43.890625 
L 10.015625 52.203125 
Q 14.9375 54.109375 19.578125 55.046875 
Q 24.21875 56 28.609375 56 
Q 40.484375 56 46.34375 49.84375 
Q 52.203125 43.703125 52.203125 31.203125 
z
" id="DejaVuSans-97"/>
       <path d="M 41.109375 46.296875 
Q 39.59375 47.171875 37.8125 47.578125 
Q 36.03125 48 33.890625 48 
Q 26.265625 48 22.1875 43.046875 
Q 18.109375 38.09375 18.109375 28.8125 
L 18.109375 0 
L 9.078125 0 
L 9.078125 54.6875 
L 18.109375 54.6875 
L 18.109375 46.1875 
Q 20.953125 51.171875 25.484375 53.578125 
Q 30.03125 56 36.53125 56 
Q 37.453125 56 38.578125 55.875 
Q 39.703125 55.765625 41.0625 55.515625 
z
" id="DejaVuSans-114"/>
      </defs>
      <g transform="translate(112.439829 254.356562)scale(0.1 -0.1)">
       <use xlink:href="#DejaVuSans-77"/>
       <use x="86.279297" xlink:href="#DejaVuSans-97"/>
       <use x="147.558594" xlink:href="#DejaVuSans-114"/>
       <use x="188.53125" xlink:href="#DejaVuSans-46"/>
      </g>
      <!-- 01 -->
      <defs>
       <path d="M 31.78125 66.40625 
Q 24.171875 66.40625 20.328125 58.90625 
Q 16.5 51.421875 16.5 36.375 
Q 16.5 21.390625 20.328125 13.890625 
Q 24.171875 6.390625 31.78125 6.390625 
Q 39.453125 6.390625 43.28125 13.890625 
Q 47.125 21.390625 47.125 36.375 
Q 47.125 51.421875 43.28125 58.90625 
Q 39.453125 66.40625 31.78125 66.40625 
z
M 31.78125 74.21875 
Q 44.046875 74.21875 50.515625 64.515625 
Q 56.984375 54.828125 56.984375 36.375 
Q 56.984375 17.96875 50.515625 8.265625 
Q 44.046875 -1.421875 31.78125 -1.421875 
Q 19.53125 -1.421875 13.0625 8.265625 
Q 6.59375 17.96875 6.59375 36.375 
Q 6.59375 54.828125 13.0625 64.515625 
Q 19.53125 74.21875 31.78125 74.21875 
z
" id="DejaVuSans-48"/>
       <path d="M 12.40625 8.296875 
L 28.515625 8.296875 
L 28.515625 63.921875 
L 10.984375 60.40625 
L 10.984375 69.390625 
L 28.421875 72.90625 
L 38.28125 72.90625 
L 38.28125 8.296875 
L 54.390625 8.296875 
L 54.390625 0 
L 12.40625 0 
z
" id="DejaVuSans-49"/>
      </defs>
      <g transform="translate(117.092954 265.554375)scale(0.1 -0.1)">
       <use xlink:href="#DejaVuSans-48"/>
       <use x="63.623047" xlink:href="#DejaVuSans-49"/>
      </g>
     </g>
    </g>
    <g id="xtick_3">
     <g id="line2d_8">
      <path clip-path="url(#p6e05ef0df4)" d="M 164.363063 239.758125 
L 164.363063 22.318125 
" style="fill:none;stroke:#b0b0b0;stroke-linecap:square;stroke-opacity:0.8;stroke-width:0.8;"/>
     </g>
     <g id="line2d_9">
      <g>
       <use style="stroke:#000000;stroke-width:0.8;" x="164.363063" xlink:href="#m72f23cfbb0" y="239.758125"/>
      </g>
     </g>
     <g id="text_3">
      <!-- Mar. -->
      <g transform="translate(153.347438 254.356562)scale(0.1 -0.1)">
       <use xlink:href="#DejaVuSans-77"/>
       <use x="86.279297" xlink:href="#DejaVuSans-97"/>
       <use x="147.558594" xlink:href="#DejaVuSans-114"/>
       <use x="188.53125" xlink:href="#DejaVuSans-46"/>
      </g>
      <!-- 08 -->
      <defs>
       <path d="M 31.78125 34.625 
Q 24.75 34.625 20.71875 30.859375 
Q 16.703125 27.09375 16.703125 20.515625 
Q 16.703125 13.921875 20.71875 10.15625 
Q 24.75 6.390625 31.78125 6.390625 
Q 38.8125 6.390625 42.859375 10.171875 
Q 46.921875 13.96875 46.921875 20.515625 
Q 46.921875 27.09375 42.890625 30.859375 
Q 38.875 34.625 31.78125 34.625 
z
M 21.921875 38.8125 
Q 15.578125 40.375 12.03125 44.71875 
Q 8.5 49.078125 8.5 55.328125 
Q 8.5 64.0625 14.71875 69.140625 
Q 20.953125 74.21875 31.78125 74.21875 
Q 42.671875 74.21875 48.875 69.140625 
Q 55.078125 64.0625 55.078125 55.328125 
Q 55.078125 49.078125 51.53125 44.71875 
Q 48 40.375 41.703125 38.8125 
Q 48.828125 37.15625 52.796875 32.3125 
Q 56.78125 27.484375 56.78125 20.515625 
Q 56.78125 9.90625 50.3125 4.234375 
Q 43.84375 -1.421875 31.78125 -1.421875 
Q 19.734375 -1.421875 13.25 4.234375 
Q 6.78125 9.90625 6.78125 20.515625 
Q 6.78125 27.484375 10.78125 32.3125 
Q 14.796875 37.15625 21.921875 38.8125 
z
M 18.3125 54.390625 
Q 18.3125 48.734375 21.84375 45.5625 
Q 25.390625 42.390625 31.78125 42.390625 
Q 38.140625 42.390625 41.71875 45.5625 
Q 45.3125 48.734375 45.3125 54.390625 
Q 45.3125 60.0625 41.71875 63.234375 
Q 38.140625 66.40625 31.78125 66.40625 
Q 25.390625 66.40625 21.84375 63.234375 
Q 18.3125 60.0625 18.3125 54.390625 
z
" id="DejaVuSans-56"/>
      </defs>
      <g transform="translate(158.000563 265.554375)scale(0.1 -0.1)">
       <use xlink:href="#DejaVuSans-48"/>
       <use x="63.623047" xlink:href="#DejaVuSans-56"/>
      </g>
     </g>
    </g>
    <g id="xtick_4">
     <g id="line2d_10">
      <path clip-path="url(#p6e05ef0df4)" d="M 205.270671 239.758125 
L 205.270671 22.318125 
" style="fill:none;stroke:#b0b0b0;stroke-linecap:square;stroke-opacity:0.8;stroke-width:0.8;"/>
     </g>
     <g id="line2d_11">
      <g>
       <use style="stroke:#000000;stroke-width:0.8;" x="205.270671" xlink:href="#m72f23cfbb0" y="239.758125"/>
      </g>
     </g>
     <g id="text_4">
      <!-- Mar. -->
      <g transform="translate(194.255046 254.356562)scale(0.1 -0.1)">
       <use xlink:href="#DejaVuSans-77"/>
       <use x="86.279297" xlink:href="#DejaVuSans-97"/>
       <use x="147.558594" xlink:href="#DejaVuSans-114"/>
       <use x="188.53125" xlink:href="#DejaVuSans-46"/>
      </g>
      <!-- 15 -->
      <defs>
       <path d="M 10.796875 72.90625 
L 49.515625 72.90625 
L 49.515625 64.59375 
L 19.828125 64.59375 
L 19.828125 46.734375 
Q 21.96875 47.46875 24.109375 47.828125 
Q 26.265625 48.1875 28.421875 48.1875 
Q 40.625 48.1875 47.75 41.5 
Q 54.890625 34.8125 54.890625 23.390625 
Q 54.890625 11.625 47.5625 5.09375 
Q 40.234375 -1.421875 26.90625 -1.421875 
Q 22.3125 -1.421875 17.546875 -0.640625 
Q 12.796875 0.140625 7.71875 1.703125 
L 7.71875 11.625 
Q 12.109375 9.234375 16.796875 8.0625 
Q 21.484375 6.890625 26.703125 6.890625 
Q 35.15625 6.890625 40.078125 11.328125 
Q 45.015625 15.765625 45.015625 23.390625 
Q 45.015625 31 40.078125 35.4375 
Q 35.15625 39.890625 26.703125 39.890625 
Q 22.75 39.890625 18.8125 39.015625 
Q 14.890625 38.140625 10.796875 36.28125 
z
" id="DejaVuSans-53"/>
      </defs>
      <g transform="translate(198.908171 265.554375)scale(0.1 -0.1)">
       <use xlink:href="#DejaVuSans-49"/>
       <use x="63.623047" xlink:href="#DejaVuSans-53"/>
      </g>
     </g>
    </g>
    <g id="xtick_5">
     <g id="line2d_12">
      <path clip-path="url(#p6e05ef0df4)" d="M 246.17828 239.758125 
L 246.17828 22.318125 
" style="fill:none;stroke:#b0b0b0;stroke-linecap:square;stroke-opacity:0.8;stroke-width:0.8;"/>
     </g>
     <g id="line2d_13">
      <g>
       <use style="stroke:#000000;stroke-width:0.8;" x="246.17828" xlink:href="#m72f23cfbb0" y="239.758125"/>
      </g>
     </g>
     <g id="text_5">
      <!-- Mar. -->
      <g transform="translate(235.162655 254.356562)scale(0.1 -0.1)">
       <use xlink:href="#DejaVuSans-77"/>
       <use x="86.279297" xlink:href="#DejaVuSans-97"/>
       <use x="147.558594" xlink:href="#DejaVuSans-114"/>
       <use x="188.53125" xlink:href="#DejaVuSans-46"/>
      </g>
      <!-- 22 -->
      <g transform="translate(239.81578 265.554375)scale(0.1 -0.1)">
       <use xlink:href="#DejaVuSans-50"/>
       <use x="63.623047" xlink:href="#DejaVuSans-50"/>
      </g>
     </g>
    </g>
    <g id="xtick_6">
     <g id="line2d_14">
      <path clip-path="url(#p6e05ef0df4)" d="M 287.085889 239.758125 
L 287.085889 22.318125 
" style="fill:none;stroke:#b0b0b0;stroke-linecap:square;stroke-opacity:0.8;stroke-width:0.8;"/>
     </g>
     <g id="line2d_15">
      <g>
       <use style="stroke:#000000;stroke-width:0.8;" x="287.085889" xlink:href="#m72f23cfbb0" y="239.758125"/>
      </g>
     </g>
     <g id="text_6">
      <!-- Mar. -->
      <g transform="translate(276.070264 254.356562)scale(0.1 -0.1)">
       <use xlink:href="#DejaVuSans-77"/>
       <use x="86.279297" xlink:href="#DejaVuSans-97"/>
       <use x="147.558594" xlink:href="#DejaVuSans-114"/>
       <use x="188.53125" xlink:href="#DejaVuSans-46"/>
      </g>
      <!-- 29 -->
      <defs>
       <path d="M 10.984375 1.515625 
L 10.984375 10.5 
Q 14.703125 8.734375 18.5 7.8125 
Q 22.3125 6.890625 25.984375 6.890625 
Q 35.75 6.890625 40.890625 13.453125 
Q 46.046875 20.015625 46.78125 33.40625 
Q 43.953125 29.203125 39.59375 26.953125 
Q 35.25 24.703125 29.984375 24.703125 
Q 19.046875 24.703125 12.671875 31.3125 
Q 6.296875 37.9375 6.296875 49.421875 
Q 6.296875 60.640625 12.9375 67.421875 
Q 19.578125 74.21875 30.609375 74.21875 
Q 43.265625 74.21875 49.921875 64.515625 
Q 56.59375 54.828125 56.59375 36.375 
Q 56.59375 19.140625 48.40625 8.859375 
Q 40.234375 -1.421875 26.421875 -1.421875 
Q 22.703125 -1.421875 18.890625 -0.6875 
Q 15.09375 0.046875 10.984375 1.515625 
z
M 30.609375 32.421875 
Q 37.25 32.421875 41.125 36.953125 
Q 45.015625 41.5 45.015625 49.421875 
Q 45.015625 57.28125 41.125 61.84375 
Q 37.25 66.40625 30.609375 66.40625 
Q 23.96875 66.40625 20.09375 61.84375 
Q 16.21875 57.28125 16.21875 49.421875 
Q 16.21875 41.5 20.09375 36.953125 
Q 23.96875 32.421875 30.609375 32.421875 
z
" id="DejaVuSans-57"/>
      </defs>
      <g transform="translate(280.723389 265.554375)scale(0.1 -0.1)">
       <use xlink:href="#DejaVuSans-50"/>
       <use x="63.623047" xlink:href="#DejaVuSans-57"/>
      </g>
     </g>
    </g>
    <g id="xtick_7">
     <g id="line2d_16">
      <path clip-path="url(#p6e05ef0df4)" d="M 327.993497 239.758125 
L 327.993497 22.318125 
" style="fill:none;stroke:#b0b0b0;stroke-linecap:square;stroke-opacity:0.8;stroke-width:0.8;"/>
     </g>
     <g id="line2d_17">
      <g>
       <use style="stroke:#000000;stroke-width:0.8;" x="327.993497" xlink:href="#m72f23cfbb0" y="239.758125"/>
      </g>
     </g>
     <g id="text_7">
      <!-- Apr. -->
      <defs>
       <path d="M 34.1875 63.1875 
L 20.796875 26.90625 
L 47.609375 26.90625 
z
M 28.609375 72.90625 
L 39.796875 72.90625 
L 67.578125 0 
L 57.328125 0 
L 50.6875 18.703125 
L 17.828125 18.703125 
L 11.1875 0 
L 0.78125 0 
z
" id="DejaVuSans-65"/>
       <path d="M 18.109375 8.203125 
L 18.109375 -20.796875 
L 9.078125 -20.796875 
L 9.078125 54.6875 
L 18.109375 54.6875 
L 18.109375 46.390625 
Q 20.953125 51.265625 25.265625 53.625 
Q 29.59375 56 35.59375 56 
Q 45.5625 56 51.78125 48.09375 
Q 58.015625 40.1875 58.015625 27.296875 
Q 58.015625 14.40625 51.78125 6.484375 
Q 45.5625 -1.421875 35.59375 -1.421875 
Q 29.59375 -1.421875 25.265625 0.953125 
Q 20.953125 3.328125 18.109375 8.203125 
z
M 48.6875 27.296875 
Q 48.6875 37.203125 44.609375 42.84375 
Q 40.53125 48.484375 33.40625 48.484375 
Q 26.265625 48.484375 22.1875 42.84375 
Q 18.109375 37.203125 18.109375 27.296875 
Q 18.109375 17.390625 22.1875 11.75 
Q 26.265625 6.109375 33.40625 6.109375 
Q 40.53125 6.109375 44.609375 11.75 
Q 48.6875 17.390625 48.6875 27.296875 
z
" id="DejaVuSans-112"/>
      </defs>
      <g transform="translate(317.761466 254.356562)scale(0.1 -0.1)">
       <use xlink:href="#DejaVuSans-65"/>
       <use x="68.408203" xlink:href="#DejaVuSans-112"/>
       <use x="131.884766" xlink:href="#DejaVuSans-114"/>
       <use x="172.857422" xlink:href="#DejaVuSans-46"/>
      </g>
      <!-- 05 -->
      <g transform="translate(321.630997 265.554375)scale(0.1 -0.1)">
       <use xlink:href="#DejaVuSans-48"/>
       <use x="63.623047" xlink:href="#DejaVuSans-53"/>
      </g>
     </g>
    </g>
    <g id="xtick_8">
     <g id="line2d_18">
      <path clip-path="url(#p6e05ef0df4)" d="M 368.901106 239.758125 
L 368.901106 22.318125 
" style="fill:none;stroke:#b0b0b0;stroke-linecap:square;stroke-opacity:0.8;stroke-width:0.8;"/>
     </g>
     <g id="line2d_19">
      <g>
       <use style="stroke:#000000;stroke-width:0.8;" x="368.901106" xlink:href="#m72f23cfbb0" y="239.758125"/>
      </g>
     </g>
     <g id="text_8">
      <!-- Apr. -->
      <g transform="translate(358.669075 254.356562)scale(0.1 -0.1)">
       <use xlink:href="#DejaVuSans-65"/>
       <use x="68.408203" xlink:href="#DejaVuSans-112"/>
       <use x="131.884766" xlink:href="#DejaVuSans-114"/>
       <use x="172.857422" xlink:href="#DejaVuSans-46"/>
      </g>
      <!-- 12 -->
      <g transform="translate(362.538606 265.554375)scale(0.1 -0.1)">
       <use xlink:href="#DejaVuSans-49"/>
       <use x="63.623047" xlink:href="#DejaVuSans-50"/>
      </g>
     </g>
    </g>
   </g>
   <g id="matplotlib.axis_2">
    <g id="ytick_1">
     <g id="line2d_20">
      <path clip-path="url(#p6e05ef0df4)" d="M 53.328125 239.758125 
L 388.128125 239.758125 
" style="fill:none;stroke:#b0b0b0;stroke-linecap:square;stroke-opacity:0.8;"/>
     </g>
     <g id="line2d_21">
      <defs>
       <path d="M 0 0 
L -3.5 0 
" id="m8df04a15f5" style="stroke:#000000;stroke-width:0.8;"/>
      </defs>
      <g>
       <use style="stroke:#000000;stroke-width:0.8;" x="53.328125" xlink:href="#m8df04a15f5" y="239.758125"/>
      </g>
     </g>
     <g id="text_9">
      <!-- 1 -->
      <g transform="translate(39.965625 243.557344)scale(0.1 -0.1)">
       <use xlink:href="#DejaVuSans-49"/>
      </g>
     </g>
    </g>
    <g id="ytick_2">
     <g id="line2d_22">
      <path clip-path="url(#p6e05ef0df4)" d="M 53.328125 178.123069 
L 388.128125 178.123069 
" style="fill:none;stroke:#b0b0b0;stroke-linecap:square;stroke-opacity:0.8;"/>
     </g>
     <g id="line2d_23">
      <g>
       <use style="stroke:#000000;stroke-width:0.8;" x="53.328125" xlink:href="#m8df04a15f5" y="178.123069"/>
      </g>
     </g>
     <g id="text_10">
      <!-- 10 -->
      <g transform="translate(33.603125 181.922288)scale(0.1 -0.1)">
       <use xlink:href="#DejaVuSans-49"/>
       <use x="63.623047" xlink:href="#DejaVuSans-48"/>
      </g>
     </g>
    </g>
    <g id="ytick_3">
     <g id="line2d_24">
      <path clip-path="url(#p6e05ef0df4)" d="M 53.328125 116.488013 
L 388.128125 116.488013 
" style="fill:none;stroke:#b0b0b0;stroke-linecap:square;stroke-opacity:0.8;"/>
     </g>
     <g id="line2d_25">
      <g>
       <use style="stroke:#000000;stroke-width:0.8;" x="53.328125" xlink:href="#m8df04a15f5" y="116.488013"/>
      </g>
     </g>
     <g id="text_11">
      <!-- 100 -->
      <g transform="translate(27.240625 120.287231)scale(0.1 -0.1)">
       <use xlink:href="#DejaVuSans-49"/>
       <use x="63.623047" xlink:href="#DejaVuSans-48"/>
       <use x="127.246094" xlink:href="#DejaVuSans-48"/>
      </g>
     </g>
    </g>
    <g id="ytick_4">
     <g id="line2d_26">
      <path clip-path="url(#p6e05ef0df4)" d="M 53.328125 54.852956 
L 388.128125 54.852956 
" style="fill:none;stroke:#b0b0b0;stroke-linecap:square;stroke-opacity:0.8;"/>
     </g>
     <g id="line2d_27">
      <g>
       <use style="stroke:#000000;stroke-width:0.8;" x="53.328125" xlink:href="#m8df04a15f5" y="54.852956"/>
      </g>
     </g>
     <g id="text_12">
      <!-- 1000 -->
      <g transform="translate(20.878125 58.652175)scale(0.1 -0.1)">
       <use xlink:href="#DejaVuSans-49"/>
       <use x="63.623047" xlink:href="#DejaVuSans-48"/>
       <use x="127.246094" xlink:href="#DejaVuSans-48"/>
       <use x="190.869141" xlink:href="#DejaVuSans-48"/>
      </g>
     </g>
    </g>
    <g id="ytick_5">
     <g id="line2d_28">
      <path clip-path="url(#p6e05ef0df4)" d="M 53.328125 221.204124 
L 388.128125 221.204124 
" style="fill:none;stroke:#b0b0b0;stroke-linecap:square;stroke-opacity:0.3;stroke-width:0.8;"/>
     </g>
     <g id="line2d_29">
      <defs>
       <path d="M 0 0 
L -2 0 
" id="m69a9a60bec" style="stroke:#000000;stroke-width:0.6;"/>
      </defs>
      <g>
       <use style="stroke:#000000;stroke-width:0.6;" x="53.328125" xlink:href="#m69a9a60bec" y="221.204124"/>
      </g>
     </g>
     <g id="text_13">
      <!-- 2 -->
      <g transform="translate(41.565625 225.003343)scale(0.1 -0.1)">
       <use xlink:href="#DejaVuSans-50"/>
      </g>
     </g>
    </g>
    <g id="ytick_6">
     <g id="line2d_30">
      <path clip-path="url(#p6e05ef0df4)" d="M 53.328125 196.677069 
L 388.128125 196.677069 
" style="fill:none;stroke:#b0b0b0;stroke-linecap:square;stroke-opacity:0.3;stroke-width:0.8;"/>
     </g>
     <g id="line2d_31">
      <g>
       <use style="stroke:#000000;stroke-width:0.6;" x="53.328125" xlink:href="#m69a9a60bec" y="196.677069"/>
      </g>
     </g>
     <g id="text_14">
      <!-- 5 -->
      <g transform="translate(41.565625 200.476288)scale(0.1 -0.1)">
       <use xlink:href="#DejaVuSans-53"/>
      </g>
     </g>
    </g>
    <g id="ytick_7">
     <g id="line2d_32">
      <path clip-path="url(#p6e05ef0df4)" d="M 53.328125 159.569068 
L 388.128125 159.569068 
" style="fill:none;stroke:#b0b0b0;stroke-linecap:square;stroke-opacity:0.3;stroke-width:0.8;"/>
     </g>
     <g id="line2d_33">
      <g>
       <use style="stroke:#000000;stroke-width:0.6;" x="53.328125" xlink:href="#m69a9a60bec" y="159.569068"/>
      </g>
     </g>
     <g id="text_15">
      <!-- 20 -->
      <g transform="translate(35.203125 163.368287)scale(0.1 -0.1)">
       <use xlink:href="#DejaVuSans-50"/>
       <use x="63.623047" xlink:href="#DejaVuSans-48"/>
      </g>
     </g>
    </g>
    <g id="ytick_8">
     <g id="line2d_34">
      <path clip-path="url(#p6e05ef0df4)" d="M 53.328125 135.042013 
L 388.128125 135.042013 
" style="fill:none;stroke:#b0b0b0;stroke-linecap:square;stroke-opacity:0.3;stroke-width:0.8;"/>
     </g>
     <g id="line2d_35">
      <g>
       <use style="stroke:#000000;stroke-width:0.6;" x="53.328125" xlink:href="#m69a9a60bec" y="135.042013"/>
      </g>
     </g>
     <g id="text_16">
      <!-- 50 -->
      <g transform="translate(35.203125 138.841232)scale(0.1 -0.1)">
       <use xlink:href="#DejaVuSans-53"/>
       <use x="63.623047" xlink:href="#DejaVuSans-48"/>
      </g>
     </g>
    </g>
    <g id="ytick_9">
     <g id="line2d_36">
      <path clip-path="url(#p6e05ef0df4)" d="M 53.328125 97.934012 
L 388.128125 97.934012 
" style="fill:none;stroke:#b0b0b0;stroke-linecap:square;stroke-opacity:0.3;stroke-width:0.8;"/>
     </g>
     <g id="line2d_37">
      <g>
       <use style="stroke:#000000;stroke-width:0.6;" x="53.328125" xlink:href="#m69a9a60bec" y="97.934012"/>
      </g>
     </g>
     <g id="text_17">
      <!-- 200 -->
      <g transform="translate(28.840625 101.733231)scale(0.1 -0.1)">
       <use xlink:href="#DejaVuSans-50"/>
       <use x="63.623047" xlink:href="#DejaVuSans-48"/>
       <use x="127.246094" xlink:href="#DejaVuSans-48"/>
      </g>
     </g>
    </g>
    <g id="ytick_10">
     <g id="line2d_38">
      <path clip-path="url(#p6e05ef0df4)" d="M 53.328125 73.406957 
L 388.128125 73.406957 
" style="fill:none;stroke:#b0b0b0;stroke-linecap:square;stroke-opacity:0.3;stroke-width:0.8;"/>
     </g>
     <g id="line2d_39">
      <g>
       <use style="stroke:#000000;stroke-width:0.6;" x="53.328125" xlink:href="#m69a9a60bec" y="73.406957"/>
      </g>
     </g>
     <g id="text_18">
      <!-- 500 -->
      <g transform="translate(28.840625 77.206176)scale(0.1 -0.1)">
       <use xlink:href="#DejaVuSans-53"/>
       <use x="63.623047" xlink:href="#DejaVuSans-48"/>
       <use x="127.246094" xlink:href="#DejaVuSans-48"/>
      </g>
     </g>
    </g>
    <g id="ytick_11">
     <g id="line2d_40">
      <path clip-path="url(#p6e05ef0df4)" d="M 53.328125 36.298956 
L 388.128125 36.298956 
" style="fill:none;stroke:#b0b0b0;stroke-linecap:square;stroke-opacity:0.3;stroke-width:0.8;"/>
     </g>
     <g id="line2d_41">
      <g>
       <use style="stroke:#000000;stroke-width:0.6;" x="53.328125" xlink:href="#m69a9a60bec" y="36.298956"/>
      </g>
     </g>
     <g id="text_19">
      <!-- 2000 -->
      <g transform="translate(22.478125 40.098174)scale(0.1 -0.1)">
       <use xlink:href="#DejaVuSans-50"/>
       <use x="63.623047" xlink:href="#DejaVuSans-48"/>
       <use x="127.246094" xlink:href="#DejaVuSans-48"/>
       <use x="190.869141" xlink:href="#DejaVuSans-48"/>
      </g>
     </g>
    </g>
    <g id="text_20">
     <!-- Cases per million -->
     <defs>
      <path d="M 64.40625 67.28125 
L 64.40625 56.890625 
Q 59.421875 61.53125 53.78125 63.8125 
Q 48.140625 66.109375 41.796875 66.109375 
Q 29.296875 66.109375 22.65625 58.46875 
Q 16.015625 50.828125 16.015625 36.375 
Q 16.015625 21.96875 22.65625 14.328125 
Q 29.296875 6.6875 41.796875 6.6875 
Q 48.140625 6.6875 53.78125 8.984375 
Q 59.421875 11.28125 64.40625 15.921875 
L 64.40625 5.609375 
Q 59.234375 2.09375 53.4375 0.328125 
Q 47.65625 -1.421875 41.21875 -1.421875 
Q 24.65625 -1.421875 15.125 8.703125 
Q 5.609375 18.84375 5.609375 36.375 
Q 5.609375 53.953125 15.125 64.078125 
Q 24.65625 74.21875 41.21875 74.21875 
Q 47.75 74.21875 53.53125 72.484375 
Q 59.328125 70.75 64.40625 67.28125 
z
" id="DejaVuSans-67"/>
      <path d="M 44.28125 53.078125 
L 44.28125 44.578125 
Q 40.484375 46.53125 36.375 47.5 
Q 32.28125 48.484375 27.875 48.484375 
Q 21.1875 48.484375 17.84375 46.4375 
Q 14.5 44.390625 14.5 40.28125 
Q 14.5 37.15625 16.890625 35.375 
Q 19.28125 33.59375 26.515625 31.984375 
L 29.59375 31.296875 
Q 39.15625 29.25 43.1875 25.515625 
Q 47.21875 21.78125 47.21875 15.09375 
Q 47.21875 7.46875 41.1875 3.015625 
Q 35.15625 -1.421875 24.609375 -1.421875 
Q 20.21875 -1.421875 15.453125 -0.5625 
Q 10.6875 0.296875 5.421875 2 
L 5.421875 11.28125 
Q 10.40625 8.6875 15.234375 7.390625 
Q 20.0625 6.109375 24.8125 6.109375 
Q 31.15625 6.109375 34.5625 8.28125 
Q 37.984375 10.453125 37.984375 14.40625 
Q 37.984375 18.0625 35.515625 20.015625 
Q 33.0625 21.96875 24.703125 23.78125 
L 21.578125 24.515625 
Q 13.234375 26.265625 9.515625 29.90625 
Q 5.8125 33.546875 5.8125 39.890625 
Q 5.8125 47.609375 11.28125 51.796875 
Q 16.75 56 26.8125 56 
Q 31.78125 56 36.171875 55.265625 
Q 40.578125 54.546875 44.28125 53.078125 
z
" id="DejaVuSans-115"/>
      <path id="DejaVuSans-32"/>
      <path d="M 52 44.1875 
Q 55.375 50.25 60.0625 53.125 
Q 64.75 56 71.09375 56 
Q 79.640625 56 84.28125 50.015625 
Q 88.921875 44.046875 88.921875 33.015625 
L 88.921875 0 
L 79.890625 0 
L 79.890625 32.71875 
Q 79.890625 40.578125 77.09375 44.375 
Q 74.3125 48.1875 68.609375 48.1875 
Q 61.625 48.1875 57.5625 43.546875 
Q 53.515625 38.921875 53.515625 30.90625 
L 53.515625 0 
L 44.484375 0 
L 44.484375 32.71875 
Q 44.484375 40.625 41.703125 44.40625 
Q 38.921875 48.1875 33.109375 48.1875 
Q 26.21875 48.1875 22.15625 43.53125 
Q 18.109375 38.875 18.109375 30.90625 
L 18.109375 0 
L 9.078125 0 
L 9.078125 54.6875 
L 18.109375 54.6875 
L 18.109375 46.1875 
Q 21.1875 51.21875 25.484375 53.609375 
Q 29.78125 56 35.6875 56 
Q 41.65625 56 45.828125 52.96875 
Q 50 49.953125 52 44.1875 
z
" id="DejaVuSans-109"/>
      <path d="M 9.421875 54.6875 
L 18.40625 54.6875 
L 18.40625 0 
L 9.421875 0 
z
M 9.421875 75.984375 
L 18.40625 75.984375 
L 18.40625 64.59375 
L 9.421875 64.59375 
z
" id="DejaVuSans-105"/>
      <path d="M 9.421875 75.984375 
L 18.40625 75.984375 
L 18.40625 0 
L 9.421875 0 
z
" id="DejaVuSans-108"/>
      <path d="M 30.609375 48.390625 
Q 23.390625 48.390625 19.1875 42.75 
Q 14.984375 37.109375 14.984375 27.296875 
Q 14.984375 17.484375 19.15625 11.84375 
Q 23.34375 6.203125 30.609375 6.203125 
Q 37.796875 6.203125 41.984375 11.859375 
Q 46.1875 17.53125 46.1875 27.296875 
Q 46.1875 37.015625 41.984375 42.703125 
Q 37.796875 48.390625 30.609375 48.390625 
z
M 30.609375 56 
Q 42.328125 56 49.015625 48.375 
Q 55.71875 40.765625 55.71875 27.296875 
Q 55.71875 13.875 49.015625 6.21875 
Q 42.328125 -1.421875 30.609375 -1.421875 
Q 18.84375 -1.421875 12.171875 6.21875 
Q 5.515625 13.875 5.515625 27.296875 
Q 5.515625 40.765625 12.171875 48.375 
Q 18.84375 56 30.609375 56 
z
" id="DejaVuSans-111"/>
      <path d="M 54.890625 33.015625 
L 54.890625 0 
L 45.90625 0 
L 45.90625 32.71875 
Q 45.90625 40.484375 42.875 44.328125 
Q 39.84375 48.1875 33.796875 48.1875 
Q 26.515625 48.1875 22.3125 43.546875 
Q 18.109375 38.921875 18.109375 30.90625 
L 18.109375 0 
L 9.078125 0 
L 9.078125 54.6875 
L 18.109375 54.6875 
L 18.109375 46.1875 
Q 21.34375 51.125 25.703125 53.5625 
Q 30.078125 56 35.796875 56 
Q 45.21875 56 50.046875 50.171875 
Q 54.890625 44.34375 54.890625 33.015625 
z
" id="DejaVuSans-110"/>
     </defs>
     <g transform="translate(14.798438 174.018594)rotate(-90)scale(0.1 -0.1)">
      <use xlink:href="#DejaVuSans-67"/>
      <use x="69.824219" xlink:href="#DejaVuSans-97"/>
      <use x="131.103516" xlink:href="#DejaVuSans-115"/>
      <use x="183.203125" xlink:href="#DejaVuSans-101"/>
      <use x="244.726562" xlink:href="#DejaVuSans-115"/>
      <use x="296.826172" xlink:href="#DejaVuSans-32"/>
      <use x="328.613281" xlink:href="#DejaVuSans-112"/>
      <use x="392.089844" xlink:href="#DejaVuSans-101"/>
      <use x="453.613281" xlink:href="#DejaVuSans-114"/>
      <use x="494.726562" xlink:href="#DejaVuSans-32"/>
      <use x="526.513672" xlink:href="#DejaVuSans-109"/>
      <use x="623.925781" xlink:href="#DejaVuSans-105"/>
      <use x="651.708984" xlink:href="#DejaVuSans-108"/>
      <use x="679.492188" xlink:href="#DejaVuSans-108"/>
      <use x="707.275391" xlink:href="#DejaVuSans-105"/>
      <use x="735.058594" xlink:href="#DejaVuSans-111"/>
      <use x="796.240234" xlink:href="#DejaVuSans-110"/>
     </g>
    </g>
   </g>
   <g id="line2d_42">
    <path clip-path="url(#p6e05ef0df4)" d="M 35.796293 322.35524 
L 41.640237 322.35524 
L 47.484181 322.35524 
L 53.328125 322.35524 
L 59.172069 322.35524 
L 65.016013 322.35524 
L 70.859957 299.67497 
L 76.703901 299.67497 
L 82.547845 299.67497 
L 88.39179 288.567851 
L 94.235734 286.620245 
L 100.079678 285.247239 
L 105.923622 285.247239 
L 111.767566 283.941235 
L 117.61151 281.896901 
L 123.455454 279.274185 
L 129.299398 271.573578 
L 135.143342 265.815528 
L 140.987286 259.329338 
L 146.83123 250.346941 
L 152.675175 240.522411 
L 158.519119 232.220257 
L 164.363063 226.382924 
L 170.207007 219.33339 
L 176.050951 210.099613 
L 181.894895 202.895035 
L 187.738839 196.860327 
L 193.582783 189.040926 
L 199.426727 182.666257 
L 205.270671 175.554299 
L 211.114615 169.112692 
L 216.95856 160.484823 
L 222.802504 150.544135 
L 228.646448 139.722775 
L 234.490392 130.610362 
L 240.334336 124.655835 
L 246.17828 115.868889 
L 252.022224 108.777787 
L 257.866168 102.741345 
L 263.710112 96.908802 
L 269.554056 90.88204 
L 275.398001 85.586148 
L 281.241945 81.001611 
L 287.085889 77.002513 
L 292.929833 73.461122 
L 298.773777 69.695319 
L 304.617721 66.178173 
L 310.461665 62.695578 
L 316.305609 59.380591 
L 322.149553 56.266386 
L 327.993497 54.173897 
L 333.837441 51.864893 
L 339.681386 49.538 
" style="fill:none;stroke:#ff7f0e;stroke-linecap:square;stroke-width:1.5;"/>
    <defs>
     <path d="M 0 3 
C 0.795609 3 1.55874 2.683901 2.12132 2.12132 
C 2.683901 1.55874 3 0.795609 3 0 
C 3 -0.795609 2.683901 -1.55874 2.12132 -2.12132 
C 1.55874 -2.683901 0.795609 -3 0 -3 
C -0.795609 -3 -1.55874 -2.683901 -2.12132 -2.12132 
C -2.683901 -1.55874 -3 -0.795609 -3 0 
C -3 0.795609 -2.683901 1.55874 -2.12132 2.12132 
C -1.55874 2.683901 -0.795609 3 0 3 
z
" id="md94b6fcf8e" style="stroke:#ff7f0e;"/>
    </defs>
    <g clip-path="url(#p6e05ef0df4)">
     <use style="fill:#ff7f0e;stroke:#ff7f0e;" x="35.796293" xlink:href="#md94b6fcf8e" y="322.35524"/>
     <use style="fill:#ff7f0e;stroke:#ff7f0e;" x="41.640237" xlink:href="#md94b6fcf8e" y="322.35524"/>
     <use style="fill:#ff7f0e;stroke:#ff7f0e;" x="47.484181" xlink:href="#md94b6fcf8e" y="322.35524"/>
     <use style="fill:#ff7f0e;stroke:#ff7f0e;" x="53.328125" xlink:href="#md94b6fcf8e" y="322.35524"/>
     <use style="fill:#ff7f0e;stroke:#ff7f0e;" x="59.172069" xlink:href="#md94b6fcf8e" y="322.35524"/>
     <use style="fill:#ff7f0e;stroke:#ff7f0e;" x="65.016013" xlink:href="#md94b6fcf8e" y="322.35524"/>
     <use style="fill:#ff7f0e;stroke:#ff7f0e;" x="70.859957" xlink:href="#md94b6fcf8e" y="299.67497"/>
     <use style="fill:#ff7f0e;stroke:#ff7f0e;" x="76.703901" xlink:href="#md94b6fcf8e" y="299.67497"/>
     <use style="fill:#ff7f0e;stroke:#ff7f0e;" x="82.547845" xlink:href="#md94b6fcf8e" y="299.67497"/>
     <use style="fill:#ff7f0e;stroke:#ff7f0e;" x="88.39179" xlink:href="#md94b6fcf8e" y="288.567851"/>
     <use style="fill:#ff7f0e;stroke:#ff7f0e;" x="94.235734" xlink:href="#md94b6fcf8e" y="286.620245"/>
     <use style="fill:#ff7f0e;stroke:#ff7f0e;" x="100.079678" xlink:href="#md94b6fcf8e" y="285.247239"/>
     <use style="fill:#ff7f0e;stroke:#ff7f0e;" x="105.923622" xlink:href="#md94b6fcf8e" y="285.247239"/>
     <use style="fill:#ff7f0e;stroke:#ff7f0e;" x="111.767566" xlink:href="#md94b6fcf8e" y="283.941235"/>
     <use style="fill:#ff7f0e;stroke:#ff7f0e;" x="117.61151" xlink:href="#md94b6fcf8e" y="281.896901"/>
     <use style="fill:#ff7f0e;stroke:#ff7f0e;" x="123.455454" xlink:href="#md94b6fcf8e" y="279.274185"/>
     <use style="fill:#ff7f0e;stroke:#ff7f0e;" x="129.299398" xlink:href="#md94b6fcf8e" y="271.573578"/>
     <use style="fill:#ff7f0e;stroke:#ff7f0e;" x="135.143342" xlink:href="#md94b6fcf8e" y="265.815528"/>
     <use style="fill:#ff7f0e;stroke:#ff7f0e;" x="140.987286" xlink:href="#md94b6fcf8e" y="259.329338"/>
     <use style="fill:#ff7f0e;stroke:#ff7f0e;" x="146.83123" xlink:href="#md94b6fcf8e" y="250.346941"/>
     <use style="fill:#ff7f0e;stroke:#ff7f0e;" x="152.675175" xlink:href="#md94b6fcf8e" y="240.522411"/>
     <use style="fill:#ff7f0e;stroke:#ff7f0e;" x="158.519119" xlink:href="#md94b6fcf8e" y="232.220257"/>
     <use style="fill:#ff7f0e;stroke:#ff7f0e;" x="164.363063" xlink:href="#md94b6fcf8e" y="226.382924"/>
     <use style="fill:#ff7f0e;stroke:#ff7f0e;" x="170.207007" xlink:href="#md94b6fcf8e" y="219.33339"/>
     <use style="fill:#ff7f0e;stroke:#ff7f0e;" x="176.050951" xlink:href="#md94b6fcf8e" y="210.099613"/>
     <use style="fill:#ff7f0e;stroke:#ff7f0e;" x="181.894895" xlink:href="#md94b6fcf8e" y="202.895035"/>
     <use style="fill:#ff7f0e;stroke:#ff7f0e;" x="187.738839" xlink:href="#md94b6fcf8e" y="196.860327"/>
     <use style="fill:#ff7f0e;stroke:#ff7f0e;" x="193.582783" xlink:href="#md94b6fcf8e" y="189.040926"/>
     <use style="fill:#ff7f0e;stroke:#ff7f0e;" x="199.426727" xlink:href="#md94b6fcf8e" y="182.666257"/>
     <use style="fill:#ff7f0e;stroke:#ff7f0e;" x="205.270671" xlink:href="#md94b6fcf8e" y="175.554299"/>
     <use style="fill:#ff7f0e;stroke:#ff7f0e;" x="211.114615" xlink:href="#md94b6fcf8e" y="169.112692"/>
     <use style="fill:#ff7f0e;stroke:#ff7f0e;" x="216.95856" xlink:href="#md94b6fcf8e" y="160.484823"/>
     <use style="fill:#ff7f0e;stroke:#ff7f0e;" x="222.802504" xlink:href="#md94b6fcf8e" y="150.544135"/>
     <use style="fill:#ff7f0e;stroke:#ff7f0e;" x="228.646448" xlink:href="#md94b6fcf8e" y="139.722775"/>
     <use style="fill:#ff7f0e;stroke:#ff7f0e;" x="234.490392" xlink:href="#md94b6fcf8e" y="130.610362"/>
     <use style="fill:#ff7f0e;stroke:#ff7f0e;" x="240.334336" xlink:href="#md94b6fcf8e" y="124.655835"/>
     <use style="fill:#ff7f0e;stroke:#ff7f0e;" x="246.17828" xlink:href="#md94b6fcf8e" y="115.868889"/>
     <use style="fill:#ff7f0e;stroke:#ff7f0e;" x="252.022224" xlink:href="#md94b6fcf8e" y="108.777787"/>
     <use style="fill:#ff7f0e;stroke:#ff7f0e;" x="257.866168" xlink:href="#md94b6fcf8e" y="102.741345"/>
     <use style="fill:#ff7f0e;stroke:#ff7f0e;" x="263.710112" xlink:href="#md94b6fcf8e" y="96.908802"/>
     <use style="fill:#ff7f0e;stroke:#ff7f0e;" x="269.554056" xlink:href="#md94b6fcf8e" y="90.88204"/>
     <use style="fill:#ff7f0e;stroke:#ff7f0e;" x="275.398001" xlink:href="#md94b6fcf8e" y="85.586148"/>
     <use style="fill:#ff7f0e;stroke:#ff7f0e;" x="281.241945" xlink:href="#md94b6fcf8e" y="81.001611"/>
     <use style="fill:#ff7f0e;stroke:#ff7f0e;" x="287.085889" xlink:href="#md94b6fcf8e" y="77.002513"/>
     <use style="fill:#ff7f0e;stroke:#ff7f0e;" x="292.929833" xlink:href="#md94b6fcf8e" y="73.461122"/>
     <use style="fill:#ff7f0e;stroke:#ff7f0e;" x="298.773777" xlink:href="#md94b6fcf8e" y="69.695319"/>
     <use style="fill:#ff7f0e;stroke:#ff7f0e;" x="304.617721" xlink:href="#md94b6fcf8e" y="66.178173"/>
     <use style="fill:#ff7f0e;stroke:#ff7f0e;" x="310.461665" xlink:href="#md94b6fcf8e" y="62.695578"/>
     <use style="fill:#ff7f0e;stroke:#ff7f0e;" x="316.305609" xlink:href="#md94b6fcf8e" y="59.380591"/>
     <use style="fill:#ff7f0e;stroke:#ff7f0e;" x="322.149553" xlink:href="#md94b6fcf8e" y="56.266386"/>
     <use style="fill:#ff7f0e;stroke:#ff7f0e;" x="327.993497" xlink:href="#md94b6fcf8e" y="54.173897"/>
     <use style="fill:#ff7f0e;stroke:#ff7f0e;" x="333.837441" xlink:href="#md94b6fcf8e" y="51.864893"/>
     <use style="fill:#ff7f0e;stroke:#ff7f0e;" x="339.681386" xlink:href="#md94b6fcf8e" y="49.538"/>
    </g>
   </g>
   <g id="line2d_43">
    <path clip-path="url(#p6e05ef0df4)" d="M 35.796293 320.088475 
L 41.640237 320.088475 
L 47.484181 320.088475 
L 53.328125 320.088475 
L 59.172069 320.088475 
L 65.016013 312.387869 
L 70.859957 268.00081 
L 76.703901 232.535518 
L 82.547845 214.151472 
L 88.39179 204.047278 
L 94.235734 194.841032 
L 100.079678 184.800969 
L 105.923622 175.916679 
L 111.767566 167.740145 
L 117.61151 161.366627 
L 123.455454 150.371228 
L 129.299398 145.559166 
L 135.143342 140.042241 
L 140.987286 134.400747 
L 146.83123 128.450233 
L 152.675175 123.532914 
L 158.519119 117.156433 
L 164.363063 111.106141 
L 170.207007 105.269176 
L 176.050951 102.559748 
L 181.894895 97.064089 
L 187.738839 91.901356 
L 193.582783 87.73236 
L 199.426727 82.896265 
L 205.270671 78.70086 
L 211.114615 75.414162 
L 216.95856 72.237148 
L 222.802504 68.882163 
L 228.646448 65.163837 
L 234.490392 61.518899 
L 240.334336 58.024522 
L 246.17828 55.381602 
L 252.022224 53.297247 
L 257.866168 51.184944 
L 263.710112 49.241236 
L 269.554056 47.097288 
L 275.398001 45.203224 
L 281.241945 43.415549 
L 287.085889 41.946452 
L 292.929833 40.859099 
L 298.773777 39.813438 
L 304.617721 38.630033 
L 310.461665 37.523205 
L 316.305609 36.478867 
L 322.149553 35.426456 
L 327.993497 34.515179 
L 333.837441 33.778313 
L 339.681386 33.17152 
" style="fill:none;stroke:#2ca02c;stroke-linecap:square;stroke-width:1.5;"/>
    <defs>
     <path d="M 0 3 
C 0.795609 3 1.55874 2.683901 2.12132 2.12132 
C 2.683901 1.55874 3 0.795609 3 0 
C 3 -0.795609 2.683901 -1.55874 2.12132 -2.12132 
C 1.55874 -2.683901 0.795609 -3 0 -3 
C -0.795609 -3 -1.55874 -2.683901 -2.12132 -2.12132 
C -2.683901 -1.55874 -3 -0.795609 -3 0 
C -3 0.795609 -2.683901 1.55874 -2.12132 2.12132 
C -1.55874 2.683901 -0.795609 3 0 3 
z
" id="mc338c4e6aa" style="stroke:#2ca02c;"/>
    </defs>
    <g clip-path="url(#p6e05ef0df4)">
     <use style="fill:#2ca02c;stroke:#2ca02c;" x="35.796293" xlink:href="#mc338c4e6aa" y="320.088475"/>
     <use style="fill:#2ca02c;stroke:#2ca02c;" x="41.640237" xlink:href="#mc338c4e6aa" y="320.088475"/>
     <use style="fill:#2ca02c;stroke:#2ca02c;" x="47.484181" xlink:href="#mc338c4e6aa" y="320.088475"/>
     <use style="fill:#2ca02c;stroke:#2ca02c;" x="53.328125" xlink:href="#mc338c4e6aa" y="320.088475"/>
     <use style="fill:#2ca02c;stroke:#2ca02c;" x="59.172069" xlink:href="#mc338c4e6aa" y="320.088475"/>
     <use style="fill:#2ca02c;stroke:#2ca02c;" x="65.016013" xlink:href="#mc338c4e6aa" y="312.387869"/>
     <use style="fill:#2ca02c;stroke:#2ca02c;" x="70.859957" xlink:href="#mc338c4e6aa" y="268.00081"/>
     <use style="fill:#2ca02c;stroke:#2ca02c;" x="76.703901" xlink:href="#mc338c4e6aa" y="232.535518"/>
     <use style="fill:#2ca02c;stroke:#2ca02c;" x="82.547845" xlink:href="#mc338c4e6aa" y="214.151472"/>
     <use style="fill:#2ca02c;stroke:#2ca02c;" x="88.39179" xlink:href="#mc338c4e6aa" y="204.047278"/>
     <use style="fill:#2ca02c;stroke:#2ca02c;" x="94.235734" xlink:href="#mc338c4e6aa" y="194.841032"/>
     <use style="fill:#2ca02c;stroke:#2ca02c;" x="100.079678" xlink:href="#mc338c4e6aa" y="184.800969"/>
     <use style="fill:#2ca02c;stroke:#2ca02c;" x="105.923622" xlink:href="#mc338c4e6aa" y="175.916679"/>
     <use style="fill:#2ca02c;stroke:#2ca02c;" x="111.767566" xlink:href="#mc338c4e6aa" y="167.740145"/>
     <use style="fill:#2ca02c;stroke:#2ca02c;" x="117.61151" xlink:href="#mc338c4e6aa" y="161.366627"/>
     <use style="fill:#2ca02c;stroke:#2ca02c;" x="123.455454" xlink:href="#mc338c4e6aa" y="150.371228"/>
     <use style="fill:#2ca02c;stroke:#2ca02c;" x="129.299398" xlink:href="#mc338c4e6aa" y="145.559166"/>
     <use style="fill:#2ca02c;stroke:#2ca02c;" x="135.143342" xlink:href="#mc338c4e6aa" y="140.042241"/>
     <use style="fill:#2ca02c;stroke:#2ca02c;" x="140.987286" xlink:href="#mc338c4e6aa" y="134.400747"/>
     <use style="fill:#2ca02c;stroke:#2ca02c;" x="146.83123" xlink:href="#mc338c4e6aa" y="128.450233"/>
     <use style="fill:#2ca02c;stroke:#2ca02c;" x="152.675175" xlink:href="#mc338c4e6aa" y="123.532914"/>
     <use style="fill:#2ca02c;stroke:#2ca02c;" x="158.519119" xlink:href="#mc338c4e6aa" y="117.156433"/>
     <use style="fill:#2ca02c;stroke:#2ca02c;" x="164.363063" xlink:href="#mc338c4e6aa" y="111.106141"/>
     <use style="fill:#2ca02c;stroke:#2ca02c;" x="170.207007" xlink:href="#mc338c4e6aa" y="105.269176"/>
     <use style="fill:#2ca02c;stroke:#2ca02c;" x="176.050951" xlink:href="#mc338c4e6aa" y="102.559748"/>
     <use style="fill:#2ca02c;stroke:#2ca02c;" x="181.894895" xlink:href="#mc338c4e6aa" y="97.064089"/>
     <use style="fill:#2ca02c;stroke:#2ca02c;" x="187.738839" xlink:href="#mc338c4e6aa" y="91.901356"/>
     <use style="fill:#2ca02c;stroke:#2ca02c;" x="193.582783" xlink:href="#mc338c4e6aa" y="87.73236"/>
     <use style="fill:#2ca02c;stroke:#2ca02c;" x="199.426727" xlink:href="#mc338c4e6aa" y="82.896265"/>
     <use style="fill:#2ca02c;stroke:#2ca02c;" x="205.270671" xlink:href="#mc338c4e6aa" y="78.70086"/>
     <use style="fill:#2ca02c;stroke:#2ca02c;" x="211.114615" xlink:href="#mc338c4e6aa" y="75.414162"/>
     <use style="fill:#2ca02c;stroke:#2ca02c;" x="216.95856" xlink:href="#mc338c4e6aa" y="72.237148"/>
     <use style="fill:#2ca02c;stroke:#2ca02c;" x="222.802504" xlink:href="#mc338c4e6aa" y="68.882163"/>
     <use style="fill:#2ca02c;stroke:#2ca02c;" x="228.646448" xlink:href="#mc338c4e6aa" y="65.163837"/>
     <use style="fill:#2ca02c;stroke:#2ca02c;" x="234.490392" xlink:href="#mc338c4e6aa" y="61.518899"/>
     <use style="fill:#2ca02c;stroke:#2ca02c;" x="240.334336" xlink:href="#mc338c4e6aa" y="58.024522"/>
     <use style="fill:#2ca02c;stroke:#2ca02c;" x="246.17828" xlink:href="#mc338c4e6aa" y="55.381602"/>
     <use style="fill:#2ca02c;stroke:#2ca02c;" x="252.022224" xlink:href="#mc338c4e6aa" y="53.297247"/>
     <use style="fill:#2ca02c;stroke:#2ca02c;" x="257.866168" xlink:href="#mc338c4e6aa" y="51.184944"/>
     <use style="fill:#2ca02c;stroke:#2ca02c;" x="263.710112" xlink:href="#mc338c4e6aa" y="49.241236"/>
     <use style="fill:#2ca02c;stroke:#2ca02c;" x="269.554056" xlink:href="#mc338c4e6aa" y="47.097288"/>
     <use style="fill:#2ca02c;stroke:#2ca02c;" x="275.398001" xlink:href="#mc338c4e6aa" y="45.203224"/>
     <use style="fill:#2ca02c;stroke:#2ca02c;" x="281.241945" xlink:href="#mc338c4e6aa" y="43.415549"/>
     <use style="fill:#2ca02c;stroke:#2ca02c;" x="287.085889" xlink:href="#mc338c4e6aa" y="41.946452"/>
     <use style="fill:#2ca02c;stroke:#2ca02c;" x="292.929833" xlink:href="#mc338c4e6aa" y="40.859099"/>
     <use style="fill:#2ca02c;stroke:#2ca02c;" x="298.773777" xlink:href="#mc338c4e6aa" y="39.813438"/>
     <use style="fill:#2ca02c;stroke:#2ca02c;" x="304.617721" xlink:href="#mc338c4e6aa" y="38.630033"/>
     <use style="fill:#2ca02c;stroke:#2ca02c;" x="310.461665" xlink:href="#mc338c4e6aa" y="37.523205"/>
     <use style="fill:#2ca02c;stroke:#2ca02c;" x="316.305609" xlink:href="#mc338c4e6aa" y="36.478867"/>
     <use style="fill:#2ca02c;stroke:#2ca02c;" x="322.149553" xlink:href="#mc338c4e6aa" y="35.426456"/>
     <use style="fill:#2ca02c;stroke:#2ca02c;" x="327.993497" xlink:href="#mc338c4e6aa" y="34.515179"/>
     <use style="fill:#2ca02c;stroke:#2ca02c;" x="333.837441" xlink:href="#mc338c4e6aa" y="33.778313"/>
     <use style="fill:#2ca02c;stroke:#2ca02c;" x="339.681386" xlink:href="#mc338c4e6aa" y="33.17152"/>
    </g>
   </g>
   <g id="line2d_44">
    <path clip-path="url(#p6e05ef0df4)" d="M 35.796293 293.710714 
L 41.640237 293.710714 
L 47.484181 293.710714 
L 53.328125 293.710714 
L 59.172069 293.710714 
L 65.016013 293.710714 
L 70.859957 293.710714 
L 76.703901 293.710714 
L 82.547845 283.867544 
L 88.39179 283.867544 
L 94.235734 283.867544 
L 100.079678 283.867544 
L 105.923622 278.309502 
L 111.767566 272.336448 
L 117.61151 268.595333 
L 123.455454 256.602713 
L 129.299398 254.460149 
L 135.143342 247.279321 
L 140.987286 232.983127 
L 146.83123 225.282521 
L 152.675175 216.01348 
L 158.519119 209.523158 
L 164.363063 201.886667 
L 170.207007 198.036927 
L 176.050951 193.309903 
L 181.894895 188.406276 
L 187.738839 181.743886 
L 193.582783 173.660394 
L 199.426727 164.113003 
L 205.270671 158.786361 
L 211.114615 156.010392 
L 216.95856 149.744037 
L 222.802504 141.777083 
L 228.646448 135.914344 
L 234.490392 130.62634 
L 240.334336 124.44309 
L 246.17828 121.1119 
L 252.022224 116.905678 
L 257.866168 111.701927 
L 263.710112 107.276699 
L 269.554056 101.878903 
L 275.398001 95.960092 
L 281.241945 91.641776 
L 287.085889 88.078798 
L 292.929833 84.709029 
L 298.773777 81.298099 
L 304.617721 77.051376 
L 310.461665 73.450488 
L 316.305609 70.132205 
L 322.149553 67.633167 
L 327.993497 64.105344 
L 333.837441 62.056926 
L 339.681386 60.235464 
" style="fill:none;stroke:#1f77b4;stroke-linecap:square;stroke-width:1.5;"/>
    <defs>
     <path d="M 0 3 
C 0.795609 3 1.55874 2.683901 2.12132 2.12132 
C 2.683901 1.55874 3 0.795609 3 0 
C 3 -0.795609 2.683901 -1.55874 2.12132 -2.12132 
C 1.55874 -2.683901 0.795609 -3 0 -3 
C -0.795609 -3 -1.55874 -2.683901 -2.12132 -2.12132 
C -2.683901 -1.55874 -3 -0.795609 -3 0 
C -3 0.795609 -2.683901 1.55874 -2.12132 2.12132 
C -1.55874 2.683901 -0.795609 3 0 3 
z
" id="m73c8eed163" style="stroke:#1f77b4;"/>
    </defs>
    <g clip-path="url(#p6e05ef0df4)">
     <use style="fill:#1f77b4;stroke:#1f77b4;" x="35.796293" xlink:href="#m73c8eed163" y="293.710714"/>
     <use style="fill:#1f77b4;stroke:#1f77b4;" x="41.640237" xlink:href="#m73c8eed163" y="293.710714"/>
     <use style="fill:#1f77b4;stroke:#1f77b4;" x="47.484181" xlink:href="#m73c8eed163" y="293.710714"/>
     <use style="fill:#1f77b4;stroke:#1f77b4;" x="53.328125" xlink:href="#m73c8eed163" y="293.710714"/>
     <use style="fill:#1f77b4;stroke:#1f77b4;" x="59.172069" xlink:href="#m73c8eed163" y="293.710714"/>
     <use style="fill:#1f77b4;stroke:#1f77b4;" x="65.016013" xlink:href="#m73c8eed163" y="293.710714"/>
     <use style="fill:#1f77b4;stroke:#1f77b4;" x="70.859957" xlink:href="#m73c8eed163" y="293.710714"/>
     <use style="fill:#1f77b4;stroke:#1f77b4;" x="76.703901" xlink:href="#m73c8eed163" y="293.710714"/>
     <use style="fill:#1f77b4;stroke:#1f77b4;" x="82.547845" xlink:href="#m73c8eed163" y="283.867544"/>
     <use style="fill:#1f77b4;stroke:#1f77b4;" x="88.39179" xlink:href="#m73c8eed163" y="283.867544"/>
     <use style="fill:#1f77b4;stroke:#1f77b4;" x="94.235734" xlink:href="#m73c8eed163" y="283.867544"/>
     <use style="fill:#1f77b4;stroke:#1f77b4;" x="100.079678" xlink:href="#m73c8eed163" y="283.867544"/>
     <use style="fill:#1f77b4;stroke:#1f77b4;" x="105.923622" xlink:href="#m73c8eed163" y="278.309502"/>
     <use style="fill:#1f77b4;stroke:#1f77b4;" x="111.767566" xlink:href="#m73c8eed163" y="272.336448"/>
     <use style="fill:#1f77b4;stroke:#1f77b4;" x="117.61151" xlink:href="#m73c8eed163" y="268.595333"/>
     <use style="fill:#1f77b4;stroke:#1f77b4;" x="123.455454" xlink:href="#m73c8eed163" y="256.602713"/>
     <use style="fill:#1f77b4;stroke:#1f77b4;" x="129.299398" xlink:href="#m73c8eed163" y="254.460149"/>
     <use style="fill:#1f77b4;stroke:#1f77b4;" x="135.143342" xlink:href="#m73c8eed163" y="247.279321"/>
     <use style="fill:#1f77b4;stroke:#1f77b4;" x="140.987286" xlink:href="#m73c8eed163" y="232.983127"/>
     <use style="fill:#1f77b4;stroke:#1f77b4;" x="146.83123" xlink:href="#m73c8eed163" y="225.282521"/>
     <use style="fill:#1f77b4;stroke:#1f77b4;" x="152.675175" xlink:href="#m73c8eed163" y="216.01348"/>
     <use style="fill:#1f77b4;stroke:#1f77b4;" x="158.519119" xlink:href="#m73c8eed163" y="209.523158"/>
     <use style="fill:#1f77b4;stroke:#1f77b4;" x="164.363063" xlink:href="#m73c8eed163" y="201.886667"/>
     <use style="fill:#1f77b4;stroke:#1f77b4;" x="170.207007" xlink:href="#m73c8eed163" y="198.036927"/>
     <use style="fill:#1f77b4;stroke:#1f77b4;" x="176.050951" xlink:href="#m73c8eed163" y="193.309903"/>
     <use style="fill:#1f77b4;stroke:#1f77b4;" x="181.894895" xlink:href="#m73c8eed163" y="188.406276"/>
     <use style="fill:#1f77b4;stroke:#1f77b4;" x="187.738839" xlink:href="#m73c8eed163" y="181.743886"/>
     <use style="fill:#1f77b4;stroke:#1f77b4;" x="193.582783" xlink:href="#m73c8eed163" y="173.660394"/>
     <use style="fill:#1f77b4;stroke:#1f77b4;" x="199.426727" xlink:href="#m73c8eed163" y="164.113003"/>
     <use style="fill:#1f77b4;stroke:#1f77b4;" x="205.270671" xlink:href="#m73c8eed163" y="158.786361"/>
     <use style="fill:#1f77b4;stroke:#1f77b4;" x="211.114615" xlink:href="#m73c8eed163" y="156.010392"/>
     <use style="fill:#1f77b4;stroke:#1f77b4;" x="216.95856" xlink:href="#m73c8eed163" y="149.744037"/>
     <use style="fill:#1f77b4;stroke:#1f77b4;" x="222.802504" xlink:href="#m73c8eed163" y="141.777083"/>
     <use style="fill:#1f77b4;stroke:#1f77b4;" x="228.646448" xlink:href="#m73c8eed163" y="135.914344"/>
     <use style="fill:#1f77b4;stroke:#1f77b4;" x="234.490392" xlink:href="#m73c8eed163" y="130.62634"/>
     <use style="fill:#1f77b4;stroke:#1f77b4;" x="240.334336" xlink:href="#m73c8eed163" y="124.44309"/>
     <use style="fill:#1f77b4;stroke:#1f77b4;" x="246.17828" xlink:href="#m73c8eed163" y="121.1119"/>
     <use style="fill:#1f77b4;stroke:#1f77b4;" x="252.022224" xlink:href="#m73c8eed163" y="116.905678"/>
     <use style="fill:#1f77b4;stroke:#1f77b4;" x="257.866168" xlink:href="#m73c8eed163" y="111.701927"/>
     <use style="fill:#1f77b4;stroke:#1f77b4;" x="263.710112" xlink:href="#m73c8eed163" y="107.276699"/>
     <use style="fill:#1f77b4;stroke:#1f77b4;" x="269.554056" xlink:href="#m73c8eed163" y="101.878903"/>
     <use style="fill:#1f77b4;stroke:#1f77b4;" x="275.398001" xlink:href="#m73c8eed163" y="95.960092"/>
     <use style="fill:#1f77b4;stroke:#1f77b4;" x="281.241945" xlink:href="#m73c8eed163" y="91.641776"/>
     <use style="fill:#1f77b4;stroke:#1f77b4;" x="287.085889" xlink:href="#m73c8eed163" y="88.078798"/>
     <use style="fill:#1f77b4;stroke:#1f77b4;" x="292.929833" xlink:href="#m73c8eed163" y="84.709029"/>
     <use style="fill:#1f77b4;stroke:#1f77b4;" x="298.773777" xlink:href="#m73c8eed163" y="81.298099"/>
     <use style="fill:#1f77b4;stroke:#1f77b4;" x="304.617721" xlink:href="#m73c8eed163" y="77.051376"/>
     <use style="fill:#1f77b4;stroke:#1f77b4;" x="310.461665" xlink:href="#m73c8eed163" y="73.450488"/>
     <use style="fill:#1f77b4;stroke:#1f77b4;" x="316.305609" xlink:href="#m73c8eed163" y="70.132205"/>
     <use style="fill:#1f77b4;stroke:#1f77b4;" x="322.149553" xlink:href="#m73c8eed163" y="67.633167"/>
     <use style="fill:#1f77b4;stroke:#1f77b4;" x="327.993497" xlink:href="#m73c8eed163" y="64.105344"/>
     <use style="fill:#1f77b4;stroke:#1f77b4;" x="333.837441" xlink:href="#m73c8eed163" y="62.056926"/>
     <use style="fill:#1f77b4;stroke:#1f77b4;" x="339.681386" xlink:href="#m73c8eed163" y="60.235464"/>
    </g>
   </g>
   <g id="line2d_45">
    <path clip-path="url(#p6e05ef0df4)" d="M 53.328125 113.988471 
L 388.128125 113.988471 
" style="fill:none;stroke:#1f77b4;stroke-dasharray:7.4,3.2;stroke-dashoffset:0;stroke-opacity:0.7;stroke-width:2;"/>
   </g>
   <g id="line2d_46">
    <path clip-path="url(#p6e05ef0df4)" d="M 53.328125 72.715602 
L 388.128125 72.715602 
" style="fill:none;stroke:#ff7f0e;stroke-dasharray:7.4,3.2;stroke-dashoffset:0;stroke-opacity:0.7;stroke-width:2;"/>
   </g>
   <g id="line2d_47">
    <path clip-path="url(#p6e05ef0df4)" d="M 53.328125 91.901356 
L 388.128125 91.901356 
" style="fill:none;stroke:#2ca02c;stroke-dasharray:12.8,3.2,2,3.2;stroke-dashoffset:0;stroke-opacity:0.7;stroke-width:2;"/>
   </g>
   <g id="line2d_48">
    <path clip-path="url(#p6e05ef0df4)" d="M 94.235734 271.985786 
L 94.235734 22.318125 
" style="fill:none;stroke:#2ca02c;stroke-linecap:square;stroke-opacity:0.3;stroke-width:4;"/>
   </g>
   <g id="line2d_49">
    <path clip-path="url(#p6e05ef0df4)" d="M 187.738839 271.985786 
L 187.738839 22.318125 
" style="fill:none;stroke:#ff7f0e;stroke-linecap:square;stroke-opacity:0.3;stroke-width:4;"/>
   </g>
   <g id="line2d_50">
    <path clip-path="url(#p6e05ef0df4)" d="M 222.802504 271.985786 
L 222.802504 22.318125 
" style="fill:none;stroke:#1f77b4;stroke-linecap:square;stroke-opacity:0.3;stroke-width:4;"/>
   </g>
   <g id="patch_3">
    <path d="M 53.328125 239.758125 
L 53.328125 22.318125 
" style="fill:none;stroke:#000000;stroke-linecap:square;stroke-linejoin:miter;stroke-width:0.8;"/>
   </g>
   <g id="patch_4">
    <path d="M 388.128125 239.758125 
L 388.128125 22.318125 
" style="fill:none;stroke:#000000;stroke-linecap:square;stroke-linejoin:miter;stroke-width:0.8;"/>
   </g>
   <g id="patch_5">
    <path d="M 53.328125 239.758125 
L 388.128125 239.758125 
" style="fill:none;stroke:#000000;stroke-linecap:square;stroke-linejoin:miter;stroke-width:0.8;"/>
   </g>
   <g id="patch_6">
    <path d="M 53.328125 22.318125 
L 388.128125 22.318125 
" style="fill:none;stroke:#000000;stroke-linecap:square;stroke-linejoin:miter;stroke-width:0.8;"/>
   </g>
   <g id="text_21">
    <!--  Scott Sievert -->
    <defs>
     <path d="M 50 72.515625 
Q 57.421875 72.515625 63.84375 69.828125 
Q 70.265625 67.140625 75.59375 61.8125 
Q 80.90625 56.5 83.546875 50.09375 
Q 86.1875 43.703125 86.1875 36.1875 
Q 86.1875 28.765625 83.546875 22.390625 
Q 80.90625 16.015625 75.59375 10.6875 
Q 70.265625 5.375 63.84375 2.6875 
Q 57.421875 0 50 0 
Q 42.578125 0 36.15625 2.6875 
Q 29.734375 5.375 24.421875 10.6875 
Q 19.09375 16.015625 16.453125 22.390625 
Q 13.8125 28.765625 13.8125 36.1875 
Q 13.8125 43.703125 16.453125 50.09375 
Q 19.09375 56.5 24.421875 61.8125 
Q 29.734375 67.140625 36.15625 69.828125 
Q 42.578125 72.515625 50 72.515625 
z
M 50 67.484375 
Q 43.609375 67.484375 38.078125 65.1875 
Q 32.5625 62.890625 27.984375 58.296875 
Q 23.390625 53.71875 21.046875 48.125 
Q 18.703125 42.53125 18.703125 36.1875 
Q 18.703125 29.890625 21.046875 24.34375 
Q 23.390625 18.796875 27.984375 14.203125 
Q 32.5625 9.625 38.078125 7.296875 
Q 43.609375 4.984375 50 4.984375 
Q 56.453125 4.984375 61.984375 7.296875 
Q 67.53125 9.625 72.125 14.203125 
Q 76.65625 18.75 78.921875 24.265625 
Q 81.203125 29.78125 81.203125 36.1875 
Q 81.203125 42.671875 78.90625 48.21875 
Q 76.609375 53.765625 72.125 58.296875 
Q 67.53125 62.890625 61.984375 65.1875 
Q 56.453125 67.484375 50 67.484375 
z
M 64.59375 55.515625 
L 64.59375 49.21875 
Q 61.375 50.828125 58.203125 51.609375 
Q 55.03125 52.390625 51.8125 52.390625 
Q 44.53125 52.390625 40.453125 48.109375 
Q 36.375 43.84375 36.375 36.1875 
Q 36.375 28.421875 40.546875 24.171875 
Q 44.734375 19.921875 52.296875 19.921875 
Q 55.421875 19.921875 58.390625 20.671875 
Q 61.375 21.4375 64.59375 23.09375 
L 64.59375 16.890625 
Q 61.328125 15.484375 57.984375 14.796875 
Q 54.640625 14.109375 51.21875 14.109375 
Q 40.671875 14.109375 34.546875 20.0625 
Q 28.421875 26.03125 28.421875 36.1875 
Q 28.421875 46.390625 34.546875 52.296875 
Q 40.671875 58.203125 51.21875 58.203125 
Q 54.78125 58.203125 58.09375 57.515625 
Q 61.421875 56.84375 64.59375 55.515625 
z
" id="DejaVuSans-169"/>
     <path d="M 53.515625 70.515625 
L 53.515625 60.890625 
Q 47.90625 63.578125 42.921875 64.890625 
Q 37.9375 66.21875 33.296875 66.21875 
Q 25.25 66.21875 20.875 63.09375 
Q 16.5 59.96875 16.5 54.203125 
Q 16.5 49.359375 19.40625 46.890625 
Q 22.3125 44.4375 30.421875 42.921875 
L 36.375 41.703125 
Q 47.40625 39.59375 52.65625 34.296875 
Q 57.90625 29 57.90625 20.125 
Q 57.90625 9.515625 50.796875 4.046875 
Q 43.703125 -1.421875 29.984375 -1.421875 
Q 24.8125 -1.421875 18.96875 -0.25 
Q 13.140625 0.921875 6.890625 3.21875 
L 6.890625 13.375 
Q 12.890625 10.015625 18.65625 8.296875 
Q 24.421875 6.59375 29.984375 6.59375 
Q 38.421875 6.59375 43.015625 9.90625 
Q 47.609375 13.234375 47.609375 19.390625 
Q 47.609375 24.75 44.3125 27.78125 
Q 41.015625 30.8125 33.5 32.328125 
L 27.484375 33.5 
Q 16.453125 35.6875 11.515625 40.375 
Q 6.59375 45.0625 6.59375 53.421875 
Q 6.59375 63.09375 13.40625 68.65625 
Q 20.21875 74.21875 32.171875 74.21875 
Q 37.3125 74.21875 42.625 73.28125 
Q 47.953125 72.359375 53.515625 70.515625 
z
" id="DejaVuSans-83"/>
     <path d="M 48.78125 52.59375 
L 48.78125 44.1875 
Q 44.96875 46.296875 41.140625 47.34375 
Q 37.3125 48.390625 33.40625 48.390625 
Q 24.65625 48.390625 19.8125 42.84375 
Q 14.984375 37.3125 14.984375 27.296875 
Q 14.984375 17.28125 19.8125 11.734375 
Q 24.65625 6.203125 33.40625 6.203125 
Q 37.3125 6.203125 41.140625 7.25 
Q 44.96875 8.296875 48.78125 10.40625 
L 48.78125 2.09375 
Q 45.015625 0.34375 40.984375 -0.53125 
Q 36.96875 -1.421875 32.421875 -1.421875 
Q 20.0625 -1.421875 12.78125 6.34375 
Q 5.515625 14.109375 5.515625 27.296875 
Q 5.515625 40.671875 12.859375 48.328125 
Q 20.21875 56 33.015625 56 
Q 37.15625 56 41.109375 55.140625 
Q 45.0625 54.296875 48.78125 52.59375 
z
" id="DejaVuSans-99"/>
     <path d="M 18.3125 70.21875 
L 18.3125 54.6875 
L 36.8125 54.6875 
L 36.8125 47.703125 
L 18.3125 47.703125 
L 18.3125 18.015625 
Q 18.3125 11.328125 20.140625 9.421875 
Q 21.96875 7.515625 27.59375 7.515625 
L 36.8125 7.515625 
L 36.8125 0 
L 27.59375 0 
Q 17.1875 0 13.234375 3.875 
Q 9.28125 7.765625 9.28125 18.015625 
L 9.28125 47.703125 
L 2.6875 47.703125 
L 2.6875 54.6875 
L 9.28125 54.6875 
L 9.28125 70.21875 
z
" id="DejaVuSans-116"/>
     <path d="M 2.984375 54.6875 
L 12.5 54.6875 
L 29.59375 8.796875 
L 46.6875 54.6875 
L 56.203125 54.6875 
L 35.6875 0 
L 23.484375 0 
z
" id="DejaVuSans-118"/>
    </defs>
    <g style="fill:#aaaaaa;" transform="translate(312.156852 333.620842)scale(0.1 -0.1)">
     <use xlink:href="#DejaVuSans-169"/>
     <use x="100" xlink:href="#DejaVuSans-32"/>
     <use x="131.787109" xlink:href="#DejaVuSans-83"/>
     <use x="195.263672" xlink:href="#DejaVuSans-99"/>
     <use x="250.244141" xlink:href="#DejaVuSans-111"/>
     <use x="311.425781" xlink:href="#DejaVuSans-116"/>
     <use x="350.634766" xlink:href="#DejaVuSans-116"/>
     <use x="389.84375" xlink:href="#DejaVuSans-32"/>
     <use x="421.630859" xlink:href="#DejaVuSans-83"/>
     <use x="485.107422" xlink:href="#DejaVuSans-105"/>
     <use x="512.890625" xlink:href="#DejaVuSans-101"/>
     <use x="574.414062" xlink:href="#DejaVuSans-118"/>
     <use x="633.59375" xlink:href="#DejaVuSans-101"/>
     <use x="695.117188" xlink:href="#DejaVuSans-114"/>
     <use x="736.230469" xlink:href="#DejaVuSans-116"/>
    </g>
   </g>
   <g id="text_22">
    <!-- Cases per country -->
    <defs>
     <path d="M 8.5 21.578125 
L 8.5 54.6875 
L 17.484375 54.6875 
L 17.484375 21.921875 
Q 17.484375 14.15625 20.5 10.265625 
Q 23.53125 6.390625 29.59375 6.390625 
Q 36.859375 6.390625 41.078125 11.03125 
Q 45.3125 15.671875 45.3125 23.6875 
L 45.3125 54.6875 
L 54.296875 54.6875 
L 54.296875 0 
L 45.3125 0 
L 45.3125 8.40625 
Q 42.046875 3.421875 37.71875 1 
Q 33.40625 -1.421875 27.6875 -1.421875 
Q 18.265625 -1.421875 13.375 4.4375 
Q 8.5 10.296875 8.5 21.578125 
z
M 31.109375 56 
z
" id="DejaVuSans-117"/>
     <path d="M 32.171875 -5.078125 
Q 28.375 -14.84375 24.75 -17.8125 
Q 21.140625 -20.796875 15.09375 -20.796875 
L 7.90625 -20.796875 
L 7.90625 -13.28125 
L 13.1875 -13.28125 
Q 16.890625 -13.28125 18.9375 -11.515625 
Q 21 -9.765625 23.484375 -3.21875 
L 25.09375 0.875 
L 2.984375 54.6875 
L 12.5 54.6875 
L 29.59375 11.921875 
L 46.6875 54.6875 
L 56.203125 54.6875 
z
" id="DejaVuSans-121"/>
    </defs>
    <g transform="translate(166.191875 16.318125)scale(0.12 -0.12)">
     <use xlink:href="#DejaVuSans-67"/>
     <use x="69.824219" xlink:href="#DejaVuSans-97"/>
     <use x="131.103516" xlink:href="#DejaVuSans-115"/>
     <use x="183.203125" xlink:href="#DejaVuSans-101"/>
     <use x="244.726562" xlink:href="#DejaVuSans-115"/>
     <use x="296.826172" xlink:href="#DejaVuSans-32"/>
     <use x="328.613281" xlink:href="#DejaVuSans-112"/>
     <use x="392.089844" xlink:href="#DejaVuSans-101"/>
     <use x="453.613281" xlink:href="#DejaVuSans-114"/>
     <use x="494.726562" xlink:href="#DejaVuSans-32"/>
     <use x="526.513672" xlink:href="#DejaVuSans-99"/>
     <use x="581.494141" xlink:href="#DejaVuSans-111"/>
     <use x="642.675781" xlink:href="#DejaVuSans-117"/>
     <use x="706.054688" xlink:href="#DejaVuSans-110"/>
     <use x="769.433594" xlink:href="#DejaVuSans-116"/>
     <use x="808.642578" xlink:href="#DejaVuSans-114"/>
     <use x="849.755859" xlink:href="#DejaVuSans-121"/>
    </g>
   </g>
   <g id="legend_1">
    <g id="patch_7">
     <path d="M 249.604688 234.758125 
L 381.128125 234.758125 
Q 383.128125 234.758125 383.128125 232.758125 
L 383.128125 175.02375 
Q 383.128125 173.02375 381.128125 173.02375 
L 249.604688 173.02375 
Q 247.604688 173.02375 247.604688 175.02375 
L 247.604688 232.758125 
Q 247.604688 234.758125 249.604688 234.758125 
z
" style="fill:#ffffff;opacity:0.8;stroke:#cccccc;stroke-linejoin:miter;"/>
    </g>
    <g id="text_23">
     <!-- Country (cases in 7 days) -->
     <defs>
      <path d="M 31 75.875 
Q 24.46875 64.65625 21.28125 53.65625 
Q 18.109375 42.671875 18.109375 31.390625 
Q 18.109375 20.125 21.3125 9.0625 
Q 24.515625 -2 31 -13.1875 
L 23.1875 -13.1875 
Q 15.875 -1.703125 12.234375 9.375 
Q 8.59375 20.453125 8.59375 31.390625 
Q 8.59375 42.28125 12.203125 53.3125 
Q 15.828125 64.359375 23.1875 75.875 
z
" id="DejaVuSans-40"/>
      <path d="M 8.203125 72.90625 
L 55.078125 72.90625 
L 55.078125 68.703125 
L 28.609375 0 
L 18.3125 0 
L 43.21875 64.59375 
L 8.203125 64.59375 
z
" id="DejaVuSans-55"/>
      <path d="M 45.40625 46.390625 
L 45.40625 75.984375 
L 54.390625 75.984375 
L 54.390625 0 
L 45.40625 0 
L 45.40625 8.203125 
Q 42.578125 3.328125 38.25 0.953125 
Q 33.9375 -1.421875 27.875 -1.421875 
Q 17.96875 -1.421875 11.734375 6.484375 
Q 5.515625 14.40625 5.515625 27.296875 
Q 5.515625 40.1875 11.734375 48.09375 
Q 17.96875 56 27.875 56 
Q 33.9375 56 38.25 53.625 
Q 42.578125 51.265625 45.40625 46.390625 
z
M 14.796875 27.296875 
Q 14.796875 17.390625 18.875 11.75 
Q 22.953125 6.109375 30.078125 6.109375 
Q 37.203125 6.109375 41.296875 11.75 
Q 45.40625 17.390625 45.40625 27.296875 
Q 45.40625 37.203125 41.296875 42.84375 
Q 37.203125 48.484375 30.078125 48.484375 
Q 22.953125 48.484375 18.875 42.84375 
Q 14.796875 37.203125 14.796875 27.296875 
z
" id="DejaVuSans-100"/>
      <path d="M 8.015625 75.875 
L 15.828125 75.875 
Q 23.140625 64.359375 26.78125 53.3125 
Q 30.421875 42.28125 30.421875 31.390625 
Q 30.421875 20.453125 26.78125 9.375 
Q 23.140625 -1.703125 15.828125 -13.1875 
L 8.015625 -13.1875 
Q 14.5 -2 17.703125 9.0625 
Q 20.90625 20.125 20.90625 31.390625 
Q 20.90625 42.671875 17.703125 53.65625 
Q 14.5 64.65625 8.015625 75.875 
z
" id="DejaVuSans-41"/>
     </defs>
     <g transform="translate(251.604688 184.622187)scale(0.1 -0.1)">
      <use xlink:href="#DejaVuSans-67"/>
      <use x="69.824219" xlink:href="#DejaVuSans-111"/>
      <use x="131.005859" xlink:href="#DejaVuSans-117"/>
      <use x="194.384766" xlink:href="#DejaVuSans-110"/>
      <use x="257.763672" xlink:href="#DejaVuSans-116"/>
      <use x="296.972656" xlink:href="#DejaVuSans-114"/>
      <use x="338.085938" xlink:href="#DejaVuSans-121"/>
      <use x="397.265625" xlink:href="#DejaVuSans-32"/>
      <use x="429.052734" xlink:href="#DejaVuSans-40"/>
      <use x="468.066406" xlink:href="#DejaVuSans-99"/>
      <use x="523.046875" xlink:href="#DejaVuSans-97"/>
      <use x="584.326172" xlink:href="#DejaVuSans-115"/>
      <use x="636.425781" xlink:href="#DejaVuSans-101"/>
      <use x="697.949219" xlink:href="#DejaVuSans-115"/>
      <use x="750.048828" xlink:href="#DejaVuSans-32"/>
      <use x="781.835938" xlink:href="#DejaVuSans-105"/>
      <use x="809.619141" xlink:href="#DejaVuSans-110"/>
      <use x="872.998047" xlink:href="#DejaVuSans-32"/>
      <use x="904.785156" xlink:href="#DejaVuSans-55"/>
      <use x="968.408203" xlink:href="#DejaVuSans-32"/>
      <use x="1000.195312" xlink:href="#DejaVuSans-100"/>
      <use x="1063.671875" xlink:href="#DejaVuSans-97"/>
      <use x="1124.951172" xlink:href="#DejaVuSans-121"/>
      <use x="1184.130859" xlink:href="#DejaVuSans-115"/>
      <use x="1236.230469" xlink:href="#DejaVuSans-41"/>
     </g>
    </g>
    <g id="line2d_51">
     <path d="M 272.866406 195.800312 
L 292.866406 195.800312 
" style="fill:none;stroke:#ff7f0e;stroke-linecap:square;stroke-width:1.5;"/>
    </g>
    <g id="line2d_52">
     <g>
      <use style="fill:#ff7f0e;stroke:#ff7f0e;" x="282.866406" xlink:href="#md94b6fcf8e" y="195.800312"/>
     </g>
    </g>
    <g id="text_24">
     <!-- US (2.1$\times$) -->
     <defs>
      <path d="M 8.6875 72.90625 
L 18.609375 72.90625 
L 18.609375 28.609375 
Q 18.609375 16.890625 22.84375 11.734375 
Q 27.09375 6.59375 36.625 6.59375 
Q 46.09375 6.59375 50.34375 11.734375 
Q 54.59375 16.890625 54.59375 28.609375 
L 54.59375 72.90625 
L 64.5 72.90625 
L 64.5 27.390625 
Q 64.5 13.140625 57.4375 5.859375 
Q 50.390625 -1.421875 36.625 -1.421875 
Q 22.796875 -1.421875 15.734375 5.859375 
Q 8.6875 13.140625 8.6875 27.390625 
z
" id="DejaVuSans-85"/>
      <path d="M 70.125 53.71875 
L 47.796875 31.296875 
L 70.125 8.984375 
L 64.3125 3.078125 
L 41.890625 25.484375 
L 19.484375 3.078125 
L 13.71875 8.984375 
L 35.984375 31.296875 
L 13.71875 53.71875 
L 19.484375 59.625 
L 41.890625 37.203125 
L 64.3125 59.625 
z
" id="DejaVuSans-215"/>
     </defs>
     <g transform="translate(300.866406 199.300312)scale(0.1 -0.1)">
      <use transform="translate(0 0.125)" xlink:href="#DejaVuSans-85"/>
      <use transform="translate(73.193359 0.125)" xlink:href="#DejaVuSans-83"/>
      <use transform="translate(136.669922 0.125)" xlink:href="#DejaVuSans-32"/>
      <use transform="translate(168.457031 0.125)" xlink:href="#DejaVuSans-40"/>
      <use transform="translate(207.470703 0.125)" xlink:href="#DejaVuSans-50"/>
      <use transform="translate(271.09375 0.125)" xlink:href="#DejaVuSans-46"/>
      <use transform="translate(302.880859 0.125)" xlink:href="#DejaVuSans-49"/>
      <use transform="translate(366.503906 0.125)" xlink:href="#DejaVuSans-215"/>
      <use transform="translate(450.292969 0.125)" xlink:href="#DejaVuSans-41"/>
     </g>
    </g>
    <g id="line2d_53">
     <path d="M 272.866406 210.48 
L 292.866406 210.48 
" style="fill:none;stroke:#2ca02c;stroke-linecap:square;stroke-width:1.5;"/>
    </g>
    <g id="line2d_54">
     <g>
      <use style="fill:#2ca02c;stroke:#2ca02c;" x="282.866406" xlink:href="#mc338c4e6aa" y="210.48"/>
     </g>
    </g>
    <g id="text_25">
     <!-- Italy (1.3$\times$) -->
     <defs>
      <path d="M 9.8125 72.90625 
L 19.671875 72.90625 
L 19.671875 0 
L 9.8125 0 
z
" id="DejaVuSans-73"/>
     </defs>
     <g transform="translate(300.866406 213.98)scale(0.1 -0.1)">
      <use transform="translate(0 0.015625)" xlink:href="#DejaVuSans-73"/>
      <use transform="translate(29.492188 0.015625)" xlink:href="#DejaVuSans-116"/>
      <use transform="translate(68.701172 0.015625)" xlink:href="#DejaVuSans-97"/>
      <use transform="translate(129.980469 0.015625)" xlink:href="#DejaVuSans-108"/>
      <use transform="translate(157.763672 0.015625)" xlink:href="#DejaVuSans-121"/>
      <use transform="translate(216.943359 0.015625)" xlink:href="#DejaVuSans-32"/>
      <use transform="translate(248.730469 0.015625)" xlink:href="#DejaVuSans-40"/>
      <use transform="translate(287.744141 0.015625)" xlink:href="#DejaVuSans-49"/>
      <use transform="translate(351.367188 0.015625)" xlink:href="#DejaVuSans-46"/>
      <use transform="translate(383.154297 0.015625)" xlink:href="#DejaVuSans-51"/>
      <use transform="translate(446.777344 0.015625)" xlink:href="#DejaVuSans-215"/>
      <use transform="translate(530.566406 0.015625)" xlink:href="#DejaVuSans-41"/>
     </g>
    </g>
    <g id="line2d_55">
     <path d="M 272.866406 225.178438 
L 292.866406 225.178438 
" style="fill:none;stroke:#1f77b4;stroke-linecap:square;stroke-width:1.5;"/>
    </g>
    <g id="line2d_56">
     <g>
      <use style="fill:#1f77b4;stroke:#1f77b4;" x="282.866406" xlink:href="#m73c8eed163" y="225.178438"/>
     </g>
    </g>
    <g id="text_26">
     <!-- UK (2.1$\times$) -->
     <defs>
      <path d="M 9.8125 72.90625 
L 19.671875 72.90625 
L 19.671875 42.09375 
L 52.390625 72.90625 
L 65.09375 72.90625 
L 28.90625 38.921875 
L 67.671875 0 
L 54.6875 0 
L 19.671875 35.109375 
L 19.671875 0 
L 9.8125 0 
z
" id="DejaVuSans-75"/>
     </defs>
     <g transform="translate(300.866406 228.678438)scale(0.1 -0.1)">
      <use transform="translate(0 0.125)" xlink:href="#DejaVuSans-85"/>
      <use transform="translate(73.177734 0.125)" xlink:href="#DejaVuSans-75"/>
      <use transform="translate(138.753906 0.125)" xlink:href="#DejaVuSans-32"/>
      <use transform="translate(170.541016 0.125)" xlink:href="#DejaVuSans-40"/>
      <use transform="translate(209.554688 0.125)" xlink:href="#DejaVuSans-50"/>
      <use transform="translate(273.177734 0.125)" xlink:href="#DejaVuSans-46"/>
      <use transform="translate(304.964844 0.125)" xlink:href="#DejaVuSans-49"/>
      <use transform="translate(368.587891 0.125)" xlink:href="#DejaVuSans-215"/>
      <use transform="translate(452.376953 0.125)" xlink:href="#DejaVuSans-41"/>
     </g>
    </g>
   </g>
   <g id="legend_2">
    <g id="patch_8">
     <path d="M 62.024125 326.734125 
L 364.524125 326.734125 
Q 366.524125 326.734125 366.524125 324.734125 
L 366.524125 273.960375 
Q 366.524125 271.960375 364.524125 271.960375 
L 62.024125 271.960375 
Q 60.024125 271.960375 60.024125 273.960375 
L 60.024125 324.734125 
Q 60.024125 326.734125 62.024125 326.734125 
z
" style="fill:#ffffff;opacity:0.8;stroke:#cccccc;stroke-linejoin:miter;"/>
    </g>
    <g id="line2d_57">
     <path d="M 64.024125 286.7085 
L 84.024125 286.7085 
" style="fill:none;stroke:#ff7f0e;stroke-linecap:square;stroke-opacity:0.7;stroke-width:1.5;"/>
    </g>
    <g id="line2d_58"/>
    <g id="text_27">
     <!-- 2$\times$ every 2.4 days -->
     <defs>
      <path d="M 37.796875 64.3125 
L 12.890625 25.390625 
L 37.796875 25.390625 
z
M 35.203125 72.90625 
L 47.609375 72.90625 
L 47.609375 25.390625 
L 58.015625 25.390625 
L 58.015625 17.1875 
L 47.609375 17.1875 
L 47.609375 0 
L 37.796875 0 
L 37.796875 17.1875 
L 4.890625 17.1875 
L 4.890625 26.703125 
z
" id="DejaVuSans-52"/>
     </defs>
     <g transform="translate(92.024125 283.560375)scale(0.1 -0.1)">
      <use transform="translate(0 0.015625)" xlink:href="#DejaVuSans-50"/>
      <use transform="translate(63.623047 0.015625)" xlink:href="#DejaVuSans-215"/>
      <use transform="translate(147.412109 0.015625)" xlink:href="#DejaVuSans-32"/>
      <use transform="translate(179.199219 0.015625)" xlink:href="#DejaVuSans-101"/>
      <use transform="translate(240.722656 0.015625)" xlink:href="#DejaVuSans-118"/>
      <use transform="translate(299.902344 0.015625)" xlink:href="#DejaVuSans-101"/>
      <use transform="translate(361.425781 0.015625)" xlink:href="#DejaVuSans-114"/>
      <use transform="translate(402.539062 0.015625)" xlink:href="#DejaVuSans-121"/>
      <use transform="translate(461.71875 0.015625)" xlink:href="#DejaVuSans-32"/>
      <use transform="translate(493.505859 0.015625)" xlink:href="#DejaVuSans-50"/>
      <use transform="translate(557.128906 0.015625)" xlink:href="#DejaVuSans-46"/>
      <use transform="translate(588.916016 0.015625)" xlink:href="#DejaVuSans-52"/>
      <use transform="translate(652.539062 0.015625)" xlink:href="#DejaVuSans-32"/>
      <use transform="translate(684.326172 0.015625)" xlink:href="#DejaVuSans-100"/>
      <use transform="translate(747.802734 0.015625)" xlink:href="#DejaVuSans-97"/>
      <use transform="translate(809.082031 0.015625)" xlink:href="#DejaVuSans-121"/>
      <use transform="translate(868.261719 0.015625)" xlink:href="#DejaVuSans-115"/>
     </g>
     <!-- (all solid lines) -->
     <g transform="translate(92.024125 294.7785)scale(0.1 -0.1)">
      <use xlink:href="#DejaVuSans-40"/>
      <use x="39.013672" xlink:href="#DejaVuSans-97"/>
      <use x="100.292969" xlink:href="#DejaVuSans-108"/>
      <use x="128.076172" xlink:href="#DejaVuSans-108"/>
      <use x="155.859375" xlink:href="#DejaVuSans-32"/>
      <use x="187.646484" xlink:href="#DejaVuSans-115"/>
      <use x="239.746094" xlink:href="#DejaVuSans-111"/>
      <use x="300.927734" xlink:href="#DejaVuSans-108"/>
      <use x="328.710938" xlink:href="#DejaVuSans-105"/>
      <use x="356.494141" xlink:href="#DejaVuSans-100"/>
      <use x="419.970703" xlink:href="#DejaVuSans-32"/>
      <use x="451.757812" xlink:href="#DejaVuSans-108"/>
      <use x="479.541016" xlink:href="#DejaVuSans-105"/>
      <use x="507.324219" xlink:href="#DejaVuSans-110"/>
      <use x="570.703125" xlink:href="#DejaVuSans-101"/>
      <use x="632.226562" xlink:href="#DejaVuSans-115"/>
      <use x="684.326172" xlink:href="#DejaVuSans-41"/>
     </g>
    </g>
    <g id="line2d_59">
     <path d="M 64.024125 312.595375 
L 84.024125 312.595375 
" style="fill:none;stroke:#ff7f0e;stroke-dasharray:7.4,3.2;stroke-dashoffset:0;stroke-opacity:0.7;stroke-width:2;"/>
    </g>
    <g id="line2d_60"/>
    <g id="text_28">
     <!-- Est. health care saturation -->
     <defs>
      <path d="M 9.8125 72.90625 
L 55.90625 72.90625 
L 55.90625 64.59375 
L 19.671875 64.59375 
L 19.671875 43.015625 
L 54.390625 43.015625 
L 54.390625 34.71875 
L 19.671875 34.71875 
L 19.671875 8.296875 
L 56.78125 8.296875 
L 56.78125 0 
L 9.8125 0 
z
" id="DejaVuSans-69"/>
      <path d="M 54.890625 33.015625 
L 54.890625 0 
L 45.90625 0 
L 45.90625 32.71875 
Q 45.90625 40.484375 42.875 44.328125 
Q 39.84375 48.1875 33.796875 48.1875 
Q 26.515625 48.1875 22.3125 43.546875 
Q 18.109375 38.921875 18.109375 30.90625 
L 18.109375 0 
L 9.078125 0 
L 9.078125 75.984375 
L 18.109375 75.984375 
L 18.109375 46.1875 
Q 21.34375 51.125 25.703125 53.5625 
Q 30.078125 56 35.796875 56 
Q 45.21875 56 50.046875 50.171875 
Q 54.890625 44.34375 54.890625 33.015625 
z
" id="DejaVuSans-104"/>
     </defs>
     <g transform="translate(92.024125 309.456625)scale(0.1 -0.1)">
      <use xlink:href="#DejaVuSans-69"/>
      <use x="63.183594" xlink:href="#DejaVuSans-115"/>
      <use x="115.283203" xlink:href="#DejaVuSans-116"/>
      <use x="154.492188" xlink:href="#DejaVuSans-46"/>
      <use x="186.279297" xlink:href="#DejaVuSans-32"/>
      <use x="218.066406" xlink:href="#DejaVuSans-104"/>
      <use x="281.445312" xlink:href="#DejaVuSans-101"/>
      <use x="342.96875" xlink:href="#DejaVuSans-97"/>
      <use x="404.248047" xlink:href="#DejaVuSans-108"/>
      <use x="432.03125" xlink:href="#DejaVuSans-116"/>
      <use x="471.240234" xlink:href="#DejaVuSans-104"/>
      <use x="534.619141" xlink:href="#DejaVuSans-32"/>
      <use x="566.40625" xlink:href="#DejaVuSans-99"/>
      <use x="621.386719" xlink:href="#DejaVuSans-97"/>
      <use x="682.666016" xlink:href="#DejaVuSans-114"/>
      <use x="723.748047" xlink:href="#DejaVuSans-101"/>
      <use x="785.271484" xlink:href="#DejaVuSans-32"/>
      <use x="817.058594" xlink:href="#DejaVuSans-115"/>
      <use x="869.158203" xlink:href="#DejaVuSans-97"/>
      <use x="930.4375" xlink:href="#DejaVuSans-116"/>
      <use x="969.646484" xlink:href="#DejaVuSans-117"/>
      <use x="1033.025391" xlink:href="#DejaVuSans-114"/>
      <use x="1074.138672" xlink:href="#DejaVuSans-97"/>
      <use x="1135.417969" xlink:href="#DejaVuSans-116"/>
      <use x="1174.626953" xlink:href="#DejaVuSans-105"/>
      <use x="1202.410156" xlink:href="#DejaVuSans-111"/>
      <use x="1263.591797" xlink:href="#DejaVuSans-110"/>
     </g>
     <!-- (all dotted lines) -->
     <g transform="translate(92.024125 320.654438)scale(0.1 -0.1)">
      <use xlink:href="#DejaVuSans-40"/>
      <use x="39.013672" xlink:href="#DejaVuSans-97"/>
      <use x="100.292969" xlink:href="#DejaVuSans-108"/>
      <use x="128.076172" xlink:href="#DejaVuSans-108"/>
      <use x="155.859375" xlink:href="#DejaVuSans-32"/>
      <use x="187.646484" xlink:href="#DejaVuSans-100"/>
      <use x="251.123047" xlink:href="#DejaVuSans-111"/>
      <use x="312.304688" xlink:href="#DejaVuSans-116"/>
      <use x="351.513672" xlink:href="#DejaVuSans-116"/>
      <use x="390.722656" xlink:href="#DejaVuSans-101"/>
      <use x="452.246094" xlink:href="#DejaVuSans-100"/>
      <use x="515.722656" xlink:href="#DejaVuSans-32"/>
      <use x="547.509766" xlink:href="#DejaVuSans-108"/>
      <use x="575.292969" xlink:href="#DejaVuSans-105"/>
      <use x="603.076172" xlink:href="#DejaVuSans-110"/>
      <use x="666.455078" xlink:href="#DejaVuSans-101"/>
      <use x="727.978516" xlink:href="#DejaVuSans-115"/>
      <use x="780.078125" xlink:href="#DejaVuSans-41"/>
     </g>
    </g>
    <g id="line2d_61">
     <path d="M 244.716313 286.7085 
L 264.716313 286.7085 
" style="fill:none;stroke:#2ca02c;stroke-dasharray:12.8,3.2,2,3.2;stroke-dashoffset:0;stroke-opacity:0.7;stroke-width:2;"/>
    </g>
    <g id="line2d_62"/>
    <g id="text_29">
     <!-- Actual health -->
     <g transform="translate(272.716313 283.56975)scale(0.1 -0.1)">
      <use xlink:href="#DejaVuSans-65"/>
      <use x="68.392578" xlink:href="#DejaVuSans-99"/>
      <use x="123.373047" xlink:href="#DejaVuSans-116"/>
      <use x="162.582031" xlink:href="#DejaVuSans-117"/>
      <use x="225.960938" xlink:href="#DejaVuSans-97"/>
      <use x="287.240234" xlink:href="#DejaVuSans-108"/>
      <use x="315.023438" xlink:href="#DejaVuSans-32"/>
      <use x="346.810547" xlink:href="#DejaVuSans-104"/>
      <use x="410.189453" xlink:href="#DejaVuSans-101"/>
      <use x="471.712891" xlink:href="#DejaVuSans-97"/>
      <use x="532.992188" xlink:href="#DejaVuSans-108"/>
      <use x="560.775391" xlink:href="#DejaVuSans-116"/>
      <use x="599.984375" xlink:href="#DejaVuSans-104"/>
     </g>
     <!-- care saturation -->
     <g transform="translate(272.716313 294.767562)scale(0.1 -0.1)">
      <use xlink:href="#DejaVuSans-99"/>
      <use x="54.980469" xlink:href="#DejaVuSans-97"/>
      <use x="116.259766" xlink:href="#DejaVuSans-114"/>
      <use x="157.341797" xlink:href="#DejaVuSans-101"/>
      <use x="218.865234" xlink:href="#DejaVuSans-32"/>
      <use x="250.652344" xlink:href="#DejaVuSans-115"/>
      <use x="302.751953" xlink:href="#DejaVuSans-97"/>
      <use x="364.03125" xlink:href="#DejaVuSans-116"/>
      <use x="403.240234" xlink:href="#DejaVuSans-117"/>
      <use x="466.619141" xlink:href="#DejaVuSans-114"/>
      <use x="507.732422" xlink:href="#DejaVuSans-97"/>
      <use x="569.011719" xlink:href="#DejaVuSans-116"/>
      <use x="608.220703" xlink:href="#DejaVuSans-105"/>
      <use x="636.003906" xlink:href="#DejaVuSans-111"/>
      <use x="697.185547" xlink:href="#DejaVuSans-110"/>
     </g>
    </g>
    <g id="line2d_63">
     <path d="M 244.716313 312.584437 
L 264.716313 312.584437 
" style="fill:none;stroke:#ff7f0e;stroke-linecap:square;stroke-opacity:0.3;stroke-width:4;"/>
    </g>
    <g id="line2d_64"/>
    <g id="text_30">
     <!-- Started social -->
     <g transform="translate(272.716313 309.445688)scale(0.1 -0.1)">
      <use xlink:href="#DejaVuSans-83"/>
      <use x="63.476562" xlink:href="#DejaVuSans-116"/>
      <use x="102.685547" xlink:href="#DejaVuSans-97"/>
      <use x="163.964844" xlink:href="#DejaVuSans-114"/>
      <use x="205.078125" xlink:href="#DejaVuSans-116"/>
      <use x="244.287109" xlink:href="#DejaVuSans-101"/>
      <use x="305.810547" xlink:href="#DejaVuSans-100"/>
      <use x="369.287109" xlink:href="#DejaVuSans-32"/>
      <use x="401.074219" xlink:href="#DejaVuSans-115"/>
      <use x="453.173828" xlink:href="#DejaVuSans-111"/>
      <use x="514.355469" xlink:href="#DejaVuSans-99"/>
      <use x="569.335938" xlink:href="#DejaVuSans-105"/>
      <use x="597.119141" xlink:href="#DejaVuSans-97"/>
      <use x="658.398438" xlink:href="#DejaVuSans-108"/>
     </g>
     <!-- isolation (all bars) -->
     <g transform="translate(272.716313 320.6435)scale(0.1 -0.1)">
      <use xlink:href="#DejaVuSans-105"/>
      <use x="27.783203" xlink:href="#DejaVuSans-115"/>
      <use x="79.882812" xlink:href="#DejaVuSans-111"/>
      <use x="141.064453" xlink:href="#DejaVuSans-108"/>
      <use x="168.847656" xlink:href="#DejaVuSans-97"/>
      <use x="230.126953" xlink:href="#DejaVuSans-116"/>
      <use x="269.335938" xlink:href="#DejaVuSans-105"/>
      <use x="297.119141" xlink:href="#DejaVuSans-111"/>
      <use x="358.300781" xlink:href="#DejaVuSans-110"/>
      <use x="421.679688" xlink:href="#DejaVuSans-32"/>
      <use x="453.466797" xlink:href="#DejaVuSans-40"/>
      <use x="492.480469" xlink:href="#DejaVuSans-97"/>
      <use x="553.759766" xlink:href="#DejaVuSans-108"/>
      <use x="581.542969" xlink:href="#DejaVuSans-108"/>
      <use x="609.326172" xlink:href="#DejaVuSans-32"/>
      <use x="641.113281" xlink:href="#DejaVuSans-98"/>
      <use x="704.589844" xlink:href="#DejaVuSans-97"/>
      <use x="765.869141" xlink:href="#DejaVuSans-114"/>
      <use x="806.982422" xlink:href="#DejaVuSans-115"/>
      <use x="859.082031" xlink:href="#DejaVuSans-41"/>
     </g>
    </g>
   </g>
  </g>
 </g>
 <defs>
  <clipPath id="p6e05ef0df4">
   <rect height="217.44" width="334.8" x="53.328125" y="22.318125"/>
  </clipPath>
 </defs>
</svg>
