<?xml version="1.0" encoding="utf-8" standalone="no"?>
<!DOCTYPE svg PUBLIC "-//W3C//DTD SVG 1.1//EN"
  "http://www.w3.org/Graphics/SVG/1.1/DTD/svg11.dtd">
<!-- Created with matplotlib (https://matplotlib.org/) -->
<svg height="342.579261pt" version="1.1" viewBox="0 0 398.326188 342.579261" width="398.326188pt" xmlns="http://www.w3.org/2000/svg" xmlns:xlink="http://www.w3.org/1999/xlink">
 <defs>
  <style type="text/css">
*{stroke-linecap:butt;stroke-linejoin:round;}
  </style>
 </defs>
 <g id="figure_1">
  <g id="patch_1">
   <path d="M 0 342.579261 
L 398.326188 342.579261 
L 398.326188 0 
L 0 0 
z
" style="fill:#ffffff;"/>
  </g>
  <g id="axes_1">
   <g id="patch_2">
    <path d="M 53.328125 239.758125 
L 388.128125 239.758125 
L 388.128125 22.318125 
L 53.328125 22.318125 
z
" style="fill:#ffffff;"/>
   </g>
   <g id="line2d_1">
    <path clip-path="url(#p189a379dbb)" d="M 73.886197 343.579261 
L 76.26574 340.382261 
L 82.000144 332.677889 
L 87.734548 324.973516 
L 93.468952 317.269143 
L 99.203356 309.56477 
L 104.937759 301.860397 
L 110.672163 294.156024 
L 116.406567 286.451651 
L 122.140971 278.747278 
L 127.875375 271.042905 
L 133.609779 263.338532 
L 139.344182 255.634159 
L 145.078586 247.929786 
L 150.81299 240.225413 
L 156.547394 232.521041 
L 162.281798 224.816668 
L 168.016202 217.112295 
L 173.750605 209.407922 
L 179.485009 201.703549 
L 185.219413 193.999176 
L 190.953817 186.294803 
L 196.688221 178.59043 
L 202.422625 170.886057 
L 208.157028 163.181684 
L 213.891432 155.477311 
L 219.625836 147.772938 
L 225.36024 140.068565 
L 231.094644 132.364193 
L 236.829047 124.65982 
L 242.563451 116.955447 
L 248.297855 109.251074 
L 254.032259 101.546701 
L 259.766663 93.842328 
L 265.501067 86.137955 
L 271.23547 78.433582 
L 276.969874 70.729209 
L 282.704278 63.024836 
L 288.438682 55.320463 
L 294.173086 47.61609 
L 299.90749 39.911717 
L 305.641893 32.207345 
L 311.376297 24.502972 
L 317.110701 16.798599 
" style="fill:none;stroke:#ff7f0e;stroke-linecap:square;stroke-opacity:0.7;stroke-width:1.5;"/>
   </g>
   <g id="line2d_2">
    <path clip-path="url(#p189a379dbb)" d="M 65.433981 343.579261 
L 70.531336 336.730785 
L 76.26574 329.026412 
L 82.000144 321.322039 
L 87.734548 313.617666 
L 93.468952 305.913293 
L 99.203356 298.20892 
L 104.937759 290.504547 
L 110.672163 282.800174 
L 116.406567 275.095801 
L 122.140971 267.391428 
L 127.875375 259.687056 
L 133.609779 251.982683 
L 139.344182 244.27831 
L 145.078586 236.573937 
L 150.81299 228.869564 
L 156.547394 221.165191 
L 162.281798 213.460818 
L 168.016202 205.756445 
L 173.750605 198.052072 
L 179.485009 190.347699 
L 185.219413 182.643326 
L 190.953817 174.938953 
L 196.688221 167.234581 
L 202.422625 159.530208 
L 208.157028 151.825835 
L 213.891432 144.121462 
L 219.625836 136.417089 
L 225.36024 128.712716 
L 231.094644 121.008343 
L 236.829047 113.30397 
L 242.563451 105.599597 
L 248.297855 97.895224 
L 254.032259 90.190851 
L 259.766663 82.486478 
L 265.501067 74.782105 
L 271.23547 67.077733 
L 276.969874 59.37336 
L 282.704278 51.668987 
L 288.438682 43.964614 
L 294.173086 36.260241 
L 299.90749 28.555868 
L 305.641893 20.851495 
L 311.376297 13.147122 
L 317.110701 5.442749 
" style="fill:none;stroke:#1f77b4;stroke-linecap:square;stroke-opacity:0.7;stroke-width:1.5;"/>
   </g>
   <g id="line2d_3">
    <path clip-path="url(#p189a379dbb)" d="M 36.124914 272.076536 
L 41.859317 264.372163 
L 47.593721 256.66779 
L 53.328125 248.963418 
L 59.062529 241.259045 
L 64.796933 233.554672 
L 70.531336 225.850299 
L 76.26574 218.145926 
L 82.000144 210.441553 
L 87.734548 202.73718 
L 93.468952 195.032807 
L 99.203356 187.328434 
L 104.937759 179.624061 
L 110.672163 171.919688 
L 116.406567 164.215315 
L 122.140971 156.510942 
L 127.875375 148.80657 
L 133.609779 141.102197 
L 139.344182 133.397824 
L 145.078586 125.693451 
L 150.81299 117.989078 
L 156.547394 110.284705 
L 162.281798 102.580332 
L 168.016202 94.875959 
L 173.750605 87.171586 
L 179.485009 79.467213 
L 185.219413 71.76284 
L 190.953817 64.058467 
L 196.688221 56.354095 
L 202.422625 48.649722 
L 208.157028 40.945349 
L 213.891432 33.240976 
L 219.625836 25.536603 
L 225.36024 17.83223 
L 231.094644 10.127857 
L 236.829047 2.423484 
L 239.377164 -1 
" style="fill:none;stroke:#2ca02c;stroke-linecap:square;stroke-opacity:0.7;stroke-width:1.5;"/>
   </g>
   <g id="matplotlib.axis_1">
    <g id="xtick_1">
     <g id="line2d_4">
      <path clip-path="url(#p189a379dbb)" d="M 82.000144 239.758125 
L 82.000144 22.318125 
" style="fill:none;stroke:#b0b0b0;stroke-linecap:square;stroke-opacity:0.8;stroke-width:0.8;"/>
     </g>
     <g id="line2d_5">
      <defs>
       <path d="M 0 0 
L 0 3.5 
" id="m96509ef462" style="stroke:#000000;stroke-width:0.8;"/>
      </defs>
      <g>
       <use style="stroke:#000000;stroke-width:0.8;" x="82.000144" xlink:href="#m96509ef462" y="239.758125"/>
      </g>
     </g>
     <g id="text_1">
      <!-- Feb. -->
      <defs>
       <path d="M 9.8125 72.90625 
L 51.703125 72.90625 
L 51.703125 64.59375 
L 19.671875 64.59375 
L 19.671875 43.109375 
L 48.578125 43.109375 
L 48.578125 34.8125 
L 19.671875 34.8125 
L 19.671875 0 
L 9.8125 0 
z
" id="DejaVuSans-70"/>
       <path d="M 56.203125 29.59375 
L 56.203125 25.203125 
L 14.890625 25.203125 
Q 15.484375 15.921875 20.484375 11.0625 
Q 25.484375 6.203125 34.421875 6.203125 
Q 39.59375 6.203125 44.453125 7.46875 
Q 49.3125 8.734375 54.109375 11.28125 
L 54.109375 2.78125 
Q 49.265625 0.734375 44.1875 -0.34375 
Q 39.109375 -1.421875 33.890625 -1.421875 
Q 20.796875 -1.421875 13.15625 6.1875 
Q 5.515625 13.8125 5.515625 26.8125 
Q 5.515625 40.234375 12.765625 48.109375 
Q 20.015625 56 32.328125 56 
Q 43.359375 56 49.78125 48.890625 
Q 56.203125 41.796875 56.203125 29.59375 
z
M 47.21875 32.234375 
Q 47.125 39.59375 43.09375 43.984375 
Q 39.0625 48.390625 32.421875 48.390625 
Q 24.90625 48.390625 20.390625 44.140625 
Q 15.875 39.890625 15.1875 32.171875 
z
" id="DejaVuSans-101"/>
       <path d="M 48.6875 27.296875 
Q 48.6875 37.203125 44.609375 42.84375 
Q 40.53125 48.484375 33.40625 48.484375 
Q 26.265625 48.484375 22.1875 42.84375 
Q 18.109375 37.203125 18.109375 27.296875 
Q 18.109375 17.390625 22.1875 11.75 
Q 26.265625 6.109375 33.40625 6.109375 
Q 40.53125 6.109375 44.609375 11.75 
Q 48.6875 17.390625 48.6875 27.296875 
z
M 18.109375 46.390625 
Q 20.953125 51.265625 25.265625 53.625 
Q 29.59375 56 35.59375 56 
Q 45.5625 56 51.78125 48.09375 
Q 58.015625 40.1875 58.015625 27.296875 
Q 58.015625 14.40625 51.78125 6.484375 
Q 45.5625 -1.421875 35.59375 -1.421875 
Q 29.59375 -1.421875 25.265625 0.953125 
Q 20.953125 3.328125 18.109375 8.203125 
L 18.109375 0 
L 9.078125 0 
L 9.078125 75.984375 
L 18.109375 75.984375 
z
" id="DejaVuSans-98"/>
       <path d="M 10.6875 12.40625 
L 21 12.40625 
L 21 0 
L 10.6875 0 
z
" id="DejaVuSans-46"/>
      </defs>
      <g transform="translate(71.288425 254.356563)scale(0.1 -0.1)">
       <use xlink:href="#DejaVuSans-70"/>
       <use x="57.441406" xlink:href="#DejaVuSans-101"/>
       <use x="118.964844" xlink:href="#DejaVuSans-98"/>
       <use x="182.441406" xlink:href="#DejaVuSans-46"/>
      </g>
      <!-- 23 -->
      <defs>
       <path d="M 19.1875 8.296875 
L 53.609375 8.296875 
L 53.609375 0 
L 7.328125 0 
L 7.328125 8.296875 
Q 12.9375 14.109375 22.625 23.890625 
Q 32.328125 33.6875 34.8125 36.53125 
Q 39.546875 41.84375 41.421875 45.53125 
Q 43.3125 49.21875 43.3125 52.78125 
Q 43.3125 58.59375 39.234375 62.25 
Q 35.15625 65.921875 28.609375 65.921875 
Q 23.96875 65.921875 18.8125 64.3125 
Q 13.671875 62.703125 7.8125 59.421875 
L 7.8125 69.390625 
Q 13.765625 71.78125 18.9375 73 
Q 24.125 74.21875 28.421875 74.21875 
Q 39.75 74.21875 46.484375 68.546875 
Q 53.21875 62.890625 53.21875 53.421875 
Q 53.21875 48.921875 51.53125 44.890625 
Q 49.859375 40.875 45.40625 35.40625 
Q 44.1875 33.984375 37.640625 27.21875 
Q 31.109375 20.453125 19.1875 8.296875 
z
" id="DejaVuSans-50"/>
       <path d="M 40.578125 39.3125 
Q 47.65625 37.796875 51.625 33 
Q 55.609375 28.21875 55.609375 21.1875 
Q 55.609375 10.40625 48.1875 4.484375 
Q 40.765625 -1.421875 27.09375 -1.421875 
Q 22.515625 -1.421875 17.65625 -0.515625 
Q 12.796875 0.390625 7.625 2.203125 
L 7.625 11.71875 
Q 11.71875 9.328125 16.59375 8.109375 
Q 21.484375 6.890625 26.8125 6.890625 
Q 36.078125 6.890625 40.9375 10.546875 
Q 45.796875 14.203125 45.796875 21.1875 
Q 45.796875 27.640625 41.28125 31.265625 
Q 36.765625 34.90625 28.71875 34.90625 
L 20.21875 34.90625 
L 20.21875 43.015625 
L 29.109375 43.015625 
Q 36.375 43.015625 40.234375 45.921875 
Q 44.09375 48.828125 44.09375 54.296875 
Q 44.09375 59.90625 40.109375 62.90625 
Q 36.140625 65.921875 28.71875 65.921875 
Q 24.65625 65.921875 20.015625 65.03125 
Q 15.375 64.15625 9.8125 62.3125 
L 9.8125 71.09375 
Q 15.4375 72.65625 20.34375 73.4375 
Q 25.25 74.21875 29.59375 74.21875 
Q 40.828125 74.21875 47.359375 69.109375 
Q 53.90625 64.015625 53.90625 55.328125 
Q 53.90625 49.265625 50.4375 45.09375 
Q 46.96875 40.921875 40.578125 39.3125 
z
" id="DejaVuSans-51"/>
      </defs>
      <g transform="translate(75.637644 265.554375)scale(0.1 -0.1)">
       <use xlink:href="#DejaVuSans-50"/>
       <use x="63.623047" xlink:href="#DejaVuSans-51"/>
      </g>
     </g>
    </g>
    <g id="xtick_2">
     <g id="line2d_6">
      <path clip-path="url(#p189a379dbb)" d="M 122.140971 239.758125 
L 122.140971 22.318125 
" style="fill:none;stroke:#b0b0b0;stroke-linecap:square;stroke-opacity:0.8;stroke-width:0.8;"/>
     </g>
     <g id="line2d_7">
      <g>
       <use style="stroke:#000000;stroke-width:0.8;" x="122.140971" xlink:href="#m96509ef462" y="239.758125"/>
      </g>
     </g>
     <g id="text_2">
      <!-- Mar. -->
      <defs>
       <path d="M 9.8125 72.90625 
L 24.515625 72.90625 
L 43.109375 23.296875 
L 61.8125 72.90625 
L 76.515625 72.90625 
L 76.515625 0 
L 66.890625 0 
L 66.890625 64.015625 
L 48.09375 14.015625 
L 38.1875 14.015625 
L 19.390625 64.015625 
L 19.390625 0 
L 9.8125 0 
z
" id="DejaVuSans-77"/>
       <path d="M 34.28125 27.484375 
Q 23.390625 27.484375 19.1875 25 
Q 14.984375 22.515625 14.984375 16.5 
Q 14.984375 11.71875 18.140625 8.90625 
Q 21.296875 6.109375 26.703125 6.109375 
Q 34.1875 6.109375 38.703125 11.40625 
Q 43.21875 16.703125 43.21875 25.484375 
L 43.21875 27.484375 
z
M 52.203125 31.203125 
L 52.203125 0 
L 43.21875 0 
L 43.21875 8.296875 
Q 40.140625 3.328125 35.546875 0.953125 
Q 30.953125 -1.421875 24.3125 -1.421875 
Q 15.921875 -1.421875 10.953125 3.296875 
Q 6 8.015625 6 15.921875 
Q 6 25.140625 12.171875 29.828125 
Q 18.359375 34.515625 30.609375 34.515625 
L 43.21875 34.515625 
L 43.21875 35.40625 
Q 43.21875 41.609375 39.140625 45 
Q 35.0625 48.390625 27.6875 48.390625 
Q 23 48.390625 18.546875 47.265625 
Q 14.109375 46.140625 10.015625 43.890625 
L 10.015625 52.203125 
Q 14.9375 54.109375 19.578125 55.046875 
Q 24.21875 56 28.609375 56 
Q 40.484375 56 46.34375 49.84375 
Q 52.203125 43.703125 52.203125 31.203125 
z
" id="DejaVuSans-97"/>
       <path d="M 41.109375 46.296875 
Q 39.59375 47.171875 37.8125 47.578125 
Q 36.03125 48 33.890625 48 
Q 26.265625 48 22.1875 43.046875 
Q 18.109375 38.09375 18.109375 28.8125 
L 18.109375 0 
L 9.078125 0 
L 9.078125 54.6875 
L 18.109375 54.6875 
L 18.109375 46.1875 
Q 20.953125 51.171875 25.484375 53.578125 
Q 30.03125 56 36.53125 56 
Q 37.453125 56 38.578125 55.875 
Q 39.703125 55.765625 41.0625 55.515625 
z
" id="DejaVuSans-114"/>
      </defs>
      <g transform="translate(111.125346 254.356563)scale(0.1 -0.1)">
       <use xlink:href="#DejaVuSans-77"/>
       <use x="86.279297" xlink:href="#DejaVuSans-97"/>
       <use x="147.558594" xlink:href="#DejaVuSans-114"/>
       <use x="188.53125" xlink:href="#DejaVuSans-46"/>
      </g>
      <!-- 01 -->
      <defs>
       <path d="M 31.78125 66.40625 
Q 24.171875 66.40625 20.328125 58.90625 
Q 16.5 51.421875 16.5 36.375 
Q 16.5 21.390625 20.328125 13.890625 
Q 24.171875 6.390625 31.78125 6.390625 
Q 39.453125 6.390625 43.28125 13.890625 
Q 47.125 21.390625 47.125 36.375 
Q 47.125 51.421875 43.28125 58.90625 
Q 39.453125 66.40625 31.78125 66.40625 
z
M 31.78125 74.21875 
Q 44.046875 74.21875 50.515625 64.515625 
Q 56.984375 54.828125 56.984375 36.375 
Q 56.984375 17.96875 50.515625 8.265625 
Q 44.046875 -1.421875 31.78125 -1.421875 
Q 19.53125 -1.421875 13.0625 8.265625 
Q 6.59375 17.96875 6.59375 36.375 
Q 6.59375 54.828125 13.0625 64.515625 
Q 19.53125 74.21875 31.78125 74.21875 
z
" id="DejaVuSans-48"/>
       <path d="M 12.40625 8.296875 
L 28.515625 8.296875 
L 28.515625 63.921875 
L 10.984375 60.40625 
L 10.984375 69.390625 
L 28.421875 72.90625 
L 38.28125 72.90625 
L 38.28125 8.296875 
L 54.390625 8.296875 
L 54.390625 0 
L 12.40625 0 
z
" id="DejaVuSans-49"/>
      </defs>
      <g transform="translate(115.778471 265.554375)scale(0.1 -0.1)">
       <use xlink:href="#DejaVuSans-48"/>
       <use x="63.623047" xlink:href="#DejaVuSans-49"/>
      </g>
     </g>
    </g>
    <g id="xtick_3">
     <g id="line2d_8">
      <path clip-path="url(#p189a379dbb)" d="M 162.281798 239.758125 
L 162.281798 22.318125 
" style="fill:none;stroke:#b0b0b0;stroke-linecap:square;stroke-opacity:0.8;stroke-width:0.8;"/>
     </g>
     <g id="line2d_9">
      <g>
       <use style="stroke:#000000;stroke-width:0.8;" x="162.281798" xlink:href="#m96509ef462" y="239.758125"/>
      </g>
     </g>
     <g id="text_3">
      <!-- Mar. -->
      <g transform="translate(151.266173 254.356563)scale(0.1 -0.1)">
       <use xlink:href="#DejaVuSans-77"/>
       <use x="86.279297" xlink:href="#DejaVuSans-97"/>
       <use x="147.558594" xlink:href="#DejaVuSans-114"/>
       <use x="188.53125" xlink:href="#DejaVuSans-46"/>
      </g>
      <!-- 08 -->
      <defs>
       <path d="M 31.78125 34.625 
Q 24.75 34.625 20.71875 30.859375 
Q 16.703125 27.09375 16.703125 20.515625 
Q 16.703125 13.921875 20.71875 10.15625 
Q 24.75 6.390625 31.78125 6.390625 
Q 38.8125 6.390625 42.859375 10.171875 
Q 46.921875 13.96875 46.921875 20.515625 
Q 46.921875 27.09375 42.890625 30.859375 
Q 38.875 34.625 31.78125 34.625 
z
M 21.921875 38.8125 
Q 15.578125 40.375 12.03125 44.71875 
Q 8.5 49.078125 8.5 55.328125 
Q 8.5 64.0625 14.71875 69.140625 
Q 20.953125 74.21875 31.78125 74.21875 
Q 42.671875 74.21875 48.875 69.140625 
Q 55.078125 64.0625 55.078125 55.328125 
Q 55.078125 49.078125 51.53125 44.71875 
Q 48 40.375 41.703125 38.8125 
Q 48.828125 37.15625 52.796875 32.3125 
Q 56.78125 27.484375 56.78125 20.515625 
Q 56.78125 9.90625 50.3125 4.234375 
Q 43.84375 -1.421875 31.78125 -1.421875 
Q 19.734375 -1.421875 13.25 4.234375 
Q 6.78125 9.90625 6.78125 20.515625 
Q 6.78125 27.484375 10.78125 32.3125 
Q 14.796875 37.15625 21.921875 38.8125 
z
M 18.3125 54.390625 
Q 18.3125 48.734375 21.84375 45.5625 
Q 25.390625 42.390625 31.78125 42.390625 
Q 38.140625 42.390625 41.71875 45.5625 
Q 45.3125 48.734375 45.3125 54.390625 
Q 45.3125 60.0625 41.71875 63.234375 
Q 38.140625 66.40625 31.78125 66.40625 
Q 25.390625 66.40625 21.84375 63.234375 
Q 18.3125 60.0625 18.3125 54.390625 
z
" id="DejaVuSans-56"/>
      </defs>
      <g transform="translate(155.919298 265.554375)scale(0.1 -0.1)">
       <use xlink:href="#DejaVuSans-48"/>
       <use x="63.623047" xlink:href="#DejaVuSans-56"/>
      </g>
     </g>
    </g>
    <g id="xtick_4">
     <g id="line2d_10">
      <path clip-path="url(#p189a379dbb)" d="M 202.422625 239.758125 
L 202.422625 22.318125 
" style="fill:none;stroke:#b0b0b0;stroke-linecap:square;stroke-opacity:0.8;stroke-width:0.8;"/>
     </g>
     <g id="line2d_11">
      <g>
       <use style="stroke:#000000;stroke-width:0.8;" x="202.422625" xlink:href="#m96509ef462" y="239.758125"/>
      </g>
     </g>
     <g id="text_4">
      <!-- Mar. -->
      <g transform="translate(191.407 254.356563)scale(0.1 -0.1)">
       <use xlink:href="#DejaVuSans-77"/>
       <use x="86.279297" xlink:href="#DejaVuSans-97"/>
       <use x="147.558594" xlink:href="#DejaVuSans-114"/>
       <use x="188.53125" xlink:href="#DejaVuSans-46"/>
      </g>
      <!-- 15 -->
      <defs>
       <path d="M 10.796875 72.90625 
L 49.515625 72.90625 
L 49.515625 64.59375 
L 19.828125 64.59375 
L 19.828125 46.734375 
Q 21.96875 47.46875 24.109375 47.828125 
Q 26.265625 48.1875 28.421875 48.1875 
Q 40.625 48.1875 47.75 41.5 
Q 54.890625 34.8125 54.890625 23.390625 
Q 54.890625 11.625 47.5625 5.09375 
Q 40.234375 -1.421875 26.90625 -1.421875 
Q 22.3125 -1.421875 17.546875 -0.640625 
Q 12.796875 0.140625 7.71875 1.703125 
L 7.71875 11.625 
Q 12.109375 9.234375 16.796875 8.0625 
Q 21.484375 6.890625 26.703125 6.890625 
Q 35.15625 6.890625 40.078125 11.328125 
Q 45.015625 15.765625 45.015625 23.390625 
Q 45.015625 31 40.078125 35.4375 
Q 35.15625 39.890625 26.703125 39.890625 
Q 22.75 39.890625 18.8125 39.015625 
Q 14.890625 38.140625 10.796875 36.28125 
z
" id="DejaVuSans-53"/>
      </defs>
      <g transform="translate(196.060125 265.554375)scale(0.1 -0.1)">
       <use xlink:href="#DejaVuSans-49"/>
       <use x="63.623047" xlink:href="#DejaVuSans-53"/>
      </g>
     </g>
    </g>
    <g id="xtick_5">
     <g id="line2d_12">
      <path clip-path="url(#p189a379dbb)" d="M 242.563451 239.758125 
L 242.563451 22.318125 
" style="fill:none;stroke:#b0b0b0;stroke-linecap:square;stroke-opacity:0.8;stroke-width:0.8;"/>
     </g>
     <g id="line2d_13">
      <g>
       <use style="stroke:#000000;stroke-width:0.8;" x="242.563451" xlink:href="#m96509ef462" y="239.758125"/>
      </g>
     </g>
     <g id="text_5">
      <!-- Mar. -->
      <g transform="translate(231.547826 254.356563)scale(0.1 -0.1)">
       <use xlink:href="#DejaVuSans-77"/>
       <use x="86.279297" xlink:href="#DejaVuSans-97"/>
       <use x="147.558594" xlink:href="#DejaVuSans-114"/>
       <use x="188.53125" xlink:href="#DejaVuSans-46"/>
      </g>
      <!-- 22 -->
      <g transform="translate(236.200951 265.554375)scale(0.1 -0.1)">
       <use xlink:href="#DejaVuSans-50"/>
       <use x="63.623047" xlink:href="#DejaVuSans-50"/>
      </g>
     </g>
    </g>
    <g id="xtick_6">
     <g id="line2d_14">
      <path clip-path="url(#p189a379dbb)" d="M 282.704278 239.758125 
L 282.704278 22.318125 
" style="fill:none;stroke:#b0b0b0;stroke-linecap:square;stroke-opacity:0.8;stroke-width:0.8;"/>
     </g>
     <g id="line2d_15">
      <g>
       <use style="stroke:#000000;stroke-width:0.8;" x="282.704278" xlink:href="#m96509ef462" y="239.758125"/>
      </g>
     </g>
     <g id="text_6">
      <!-- Mar. -->
      <g transform="translate(271.688653 254.356563)scale(0.1 -0.1)">
       <use xlink:href="#DejaVuSans-77"/>
       <use x="86.279297" xlink:href="#DejaVuSans-97"/>
       <use x="147.558594" xlink:href="#DejaVuSans-114"/>
       <use x="188.53125" xlink:href="#DejaVuSans-46"/>
      </g>
      <!-- 29 -->
      <defs>
       <path d="M 10.984375 1.515625 
L 10.984375 10.5 
Q 14.703125 8.734375 18.5 7.8125 
Q 22.3125 6.890625 25.984375 6.890625 
Q 35.75 6.890625 40.890625 13.453125 
Q 46.046875 20.015625 46.78125 33.40625 
Q 43.953125 29.203125 39.59375 26.953125 
Q 35.25 24.703125 29.984375 24.703125 
Q 19.046875 24.703125 12.671875 31.3125 
Q 6.296875 37.9375 6.296875 49.421875 
Q 6.296875 60.640625 12.9375 67.421875 
Q 19.578125 74.21875 30.609375 74.21875 
Q 43.265625 74.21875 49.921875 64.515625 
Q 56.59375 54.828125 56.59375 36.375 
Q 56.59375 19.140625 48.40625 8.859375 
Q 40.234375 -1.421875 26.421875 -1.421875 
Q 22.703125 -1.421875 18.890625 -0.6875 
Q 15.09375 0.046875 10.984375 1.515625 
z
M 30.609375 32.421875 
Q 37.25 32.421875 41.125 36.953125 
Q 45.015625 41.5 45.015625 49.421875 
Q 45.015625 57.28125 41.125 61.84375 
Q 37.25 66.40625 30.609375 66.40625 
Q 23.96875 66.40625 20.09375 61.84375 
Q 16.21875 57.28125 16.21875 49.421875 
Q 16.21875 41.5 20.09375 36.953125 
Q 23.96875 32.421875 30.609375 32.421875 
z
" id="DejaVuSans-57"/>
      </defs>
      <g transform="translate(276.341778 265.554375)scale(0.1 -0.1)">
       <use xlink:href="#DejaVuSans-50"/>
       <use x="63.623047" xlink:href="#DejaVuSans-57"/>
      </g>
     </g>
    </g>
    <g id="xtick_7">
     <g id="line2d_16">
      <path clip-path="url(#p189a379dbb)" d="M 322.845105 239.758125 
L 322.845105 22.318125 
" style="fill:none;stroke:#b0b0b0;stroke-linecap:square;stroke-opacity:0.8;stroke-width:0.8;"/>
     </g>
     <g id="line2d_17">
      <g>
       <use style="stroke:#000000;stroke-width:0.8;" x="322.845105" xlink:href="#m96509ef462" y="239.758125"/>
      </g>
     </g>
     <g id="text_7">
      <!-- Apr. -->
      <defs>
       <path d="M 34.1875 63.1875 
L 20.796875 26.90625 
L 47.609375 26.90625 
z
M 28.609375 72.90625 
L 39.796875 72.90625 
L 67.578125 0 
L 57.328125 0 
L 50.6875 18.703125 
L 17.828125 18.703125 
L 11.1875 0 
L 0.78125 0 
z
" id="DejaVuSans-65"/>
       <path d="M 18.109375 8.203125 
L 18.109375 -20.796875 
L 9.078125 -20.796875 
L 9.078125 54.6875 
L 18.109375 54.6875 
L 18.109375 46.390625 
Q 20.953125 51.265625 25.265625 53.625 
Q 29.59375 56 35.59375 56 
Q 45.5625 56 51.78125 48.09375 
Q 58.015625 40.1875 58.015625 27.296875 
Q 58.015625 14.40625 51.78125 6.484375 
Q 45.5625 -1.421875 35.59375 -1.421875 
Q 29.59375 -1.421875 25.265625 0.953125 
Q 20.953125 3.328125 18.109375 8.203125 
z
M 48.6875 27.296875 
Q 48.6875 37.203125 44.609375 42.84375 
Q 40.53125 48.484375 33.40625 48.484375 
Q 26.265625 48.484375 22.1875 42.84375 
Q 18.109375 37.203125 18.109375 27.296875 
Q 18.109375 17.390625 22.1875 11.75 
Q 26.265625 6.109375 33.40625 6.109375 
Q 40.53125 6.109375 44.609375 11.75 
Q 48.6875 17.390625 48.6875 27.296875 
z
" id="DejaVuSans-112"/>
      </defs>
      <g transform="translate(312.613074 254.356563)scale(0.1 -0.1)">
       <use xlink:href="#DejaVuSans-65"/>
       <use x="68.408203" xlink:href="#DejaVuSans-112"/>
       <use x="131.884766" xlink:href="#DejaVuSans-114"/>
       <use x="172.857422" xlink:href="#DejaVuSans-46"/>
      </g>
      <!-- 05 -->
      <g transform="translate(316.482605 265.554375)scale(0.1 -0.1)">
       <use xlink:href="#DejaVuSans-48"/>
       <use x="63.623047" xlink:href="#DejaVuSans-53"/>
      </g>
     </g>
    </g>
    <g id="xtick_8">
     <g id="line2d_18">
      <path clip-path="url(#p189a379dbb)" d="M 362.985932 239.758125 
L 362.985932 22.318125 
" style="fill:none;stroke:#b0b0b0;stroke-linecap:square;stroke-opacity:0.8;stroke-width:0.8;"/>
     </g>
     <g id="line2d_19">
      <g>
       <use style="stroke:#000000;stroke-width:0.8;" x="362.985932" xlink:href="#m96509ef462" y="239.758125"/>
      </g>
     </g>
     <g id="text_8">
      <!-- Apr. -->
      <g transform="translate(352.7539 254.356563)scale(0.1 -0.1)">
       <use xlink:href="#DejaVuSans-65"/>
       <use x="68.408203" xlink:href="#DejaVuSans-112"/>
       <use x="131.884766" xlink:href="#DejaVuSans-114"/>
       <use x="172.857422" xlink:href="#DejaVuSans-46"/>
      </g>
      <!-- 12 -->
      <g transform="translate(356.623432 265.554375)scale(0.1 -0.1)">
       <use xlink:href="#DejaVuSans-49"/>
       <use x="63.623047" xlink:href="#DejaVuSans-50"/>
      </g>
     </g>
    </g>
   </g>
   <g id="matplotlib.axis_2">
    <g id="ytick_1">
     <g id="line2d_20">
      <path clip-path="url(#p189a379dbb)" d="M 53.328125 239.758125 
L 388.128125 239.758125 
" style="fill:none;stroke:#b0b0b0;stroke-linecap:square;stroke-opacity:0.8;"/>
     </g>
     <g id="line2d_21">
      <defs>
       <path d="M 0 0 
L -3.5 0 
" id="m7d251a4d1a" style="stroke:#000000;stroke-width:0.8;"/>
      </defs>
      <g>
       <use style="stroke:#000000;stroke-width:0.8;" x="53.328125" xlink:href="#m7d251a4d1a" y="239.758125"/>
      </g>
     </g>
     <g id="text_9">
      <!-- 1 -->
      <g transform="translate(39.965625 243.557344)scale(0.1 -0.1)">
       <use xlink:href="#DejaVuSans-49"/>
      </g>
     </g>
    </g>
    <g id="ytick_2">
     <g id="line2d_22">
      <path clip-path="url(#p189a379dbb)" d="M 53.328125 178.33403 
L 388.128125 178.33403 
" style="fill:none;stroke:#b0b0b0;stroke-linecap:square;stroke-opacity:0.8;"/>
     </g>
     <g id="line2d_23">
      <g>
       <use style="stroke:#000000;stroke-width:0.8;" x="53.328125" xlink:href="#m7d251a4d1a" y="178.33403"/>
      </g>
     </g>
     <g id="text_10">
      <!-- 10 -->
      <g transform="translate(33.603125 182.133249)scale(0.1 -0.1)">
       <use xlink:href="#DejaVuSans-49"/>
       <use x="63.623047" xlink:href="#DejaVuSans-48"/>
      </g>
     </g>
    </g>
    <g id="ytick_3">
     <g id="line2d_24">
      <path clip-path="url(#p189a379dbb)" d="M 53.328125 116.909935 
L 388.128125 116.909935 
" style="fill:none;stroke:#b0b0b0;stroke-linecap:square;stroke-opacity:0.8;"/>
     </g>
     <g id="line2d_25">
      <g>
       <use style="stroke:#000000;stroke-width:0.8;" x="53.328125" xlink:href="#m7d251a4d1a" y="116.909935"/>
      </g>
     </g>
     <g id="text_11">
      <!-- 100 -->
      <g transform="translate(27.240625 120.709154)scale(0.1 -0.1)">
       <use xlink:href="#DejaVuSans-49"/>
       <use x="63.623047" xlink:href="#DejaVuSans-48"/>
       <use x="127.246094" xlink:href="#DejaVuSans-48"/>
      </g>
     </g>
    </g>
    <g id="ytick_4">
     <g id="line2d_26">
      <path clip-path="url(#p189a379dbb)" d="M 53.328125 55.48584 
L 388.128125 55.48584 
" style="fill:none;stroke:#b0b0b0;stroke-linecap:square;stroke-opacity:0.8;"/>
     </g>
     <g id="line2d_27">
      <g>
       <use style="stroke:#000000;stroke-width:0.8;" x="53.328125" xlink:href="#m7d251a4d1a" y="55.48584"/>
      </g>
     </g>
     <g id="text_12">
      <!-- 1000 -->
      <g transform="translate(20.878125 59.285059)scale(0.1 -0.1)">
       <use xlink:href="#DejaVuSans-49"/>
       <use x="63.623047" xlink:href="#DejaVuSans-48"/>
       <use x="127.246094" xlink:href="#DejaVuSans-48"/>
       <use x="190.869141" xlink:href="#DejaVuSans-48"/>
      </g>
     </g>
    </g>
    <g id="ytick_5">
     <g id="line2d_28">
      <path clip-path="url(#p189a379dbb)" d="M 53.328125 221.26763 
L 388.128125 221.26763 
" style="fill:none;stroke:#b0b0b0;stroke-linecap:square;stroke-opacity:0.3;stroke-width:0.8;"/>
     </g>
     <g id="line2d_29">
      <defs>
       <path d="M 0 0 
L -2 0 
" id="me788f585b3" style="stroke:#000000;stroke-width:0.6;"/>
      </defs>
      <g>
       <use style="stroke:#000000;stroke-width:0.6;" x="53.328125" xlink:href="#me788f585b3" y="221.26763"/>
      </g>
     </g>
     <g id="text_13">
      <!-- 2 -->
      <g transform="translate(41.565625 225.066849)scale(0.1 -0.1)">
       <use xlink:href="#DejaVuSans-50"/>
      </g>
     </g>
    </g>
    <g id="ytick_6">
     <g id="line2d_30">
      <path clip-path="url(#p189a379dbb)" d="M 53.328125 196.824525 
L 388.128125 196.824525 
" style="fill:none;stroke:#b0b0b0;stroke-linecap:square;stroke-opacity:0.3;stroke-width:0.8;"/>
     </g>
     <g id="line2d_31">
      <g>
       <use style="stroke:#000000;stroke-width:0.6;" x="53.328125" xlink:href="#me788f585b3" y="196.824525"/>
      </g>
     </g>
     <g id="text_14">
      <!-- 5 -->
      <g transform="translate(41.565625 200.623744)scale(0.1 -0.1)">
       <use xlink:href="#DejaVuSans-53"/>
      </g>
     </g>
    </g>
    <g id="ytick_7">
     <g id="line2d_32">
      <path clip-path="url(#p189a379dbb)" d="M 53.328125 159.843535 
L 388.128125 159.843535 
" style="fill:none;stroke:#b0b0b0;stroke-linecap:square;stroke-opacity:0.3;stroke-width:0.8;"/>
     </g>
     <g id="line2d_33">
      <g>
       <use style="stroke:#000000;stroke-width:0.6;" x="53.328125" xlink:href="#me788f585b3" y="159.843535"/>
      </g>
     </g>
     <g id="text_15">
      <!-- 20 -->
      <g transform="translate(35.203125 163.642754)scale(0.1 -0.1)">
       <use xlink:href="#DejaVuSans-50"/>
       <use x="63.623047" xlink:href="#DejaVuSans-48"/>
      </g>
     </g>
    </g>
    <g id="ytick_8">
     <g id="line2d_34">
      <path clip-path="url(#p189a379dbb)" d="M 53.328125 135.40043 
L 388.128125 135.40043 
" style="fill:none;stroke:#b0b0b0;stroke-linecap:square;stroke-opacity:0.3;stroke-width:0.8;"/>
     </g>
     <g id="line2d_35">
      <g>
       <use style="stroke:#000000;stroke-width:0.6;" x="53.328125" xlink:href="#me788f585b3" y="135.40043"/>
      </g>
     </g>
     <g id="text_16">
      <!-- 50 -->
      <g transform="translate(35.203125 139.199649)scale(0.1 -0.1)">
       <use xlink:href="#DejaVuSans-53"/>
       <use x="63.623047" xlink:href="#DejaVuSans-48"/>
      </g>
     </g>
    </g>
    <g id="ytick_9">
     <g id="line2d_36">
      <path clip-path="url(#p189a379dbb)" d="M 53.328125 98.41944 
L 388.128125 98.41944 
" style="fill:none;stroke:#b0b0b0;stroke-linecap:square;stroke-opacity:0.3;stroke-width:0.8;"/>
     </g>
     <g id="line2d_37">
      <g>
       <use style="stroke:#000000;stroke-width:0.6;" x="53.328125" xlink:href="#me788f585b3" y="98.41944"/>
      </g>
     </g>
     <g id="text_17">
      <!-- 200 -->
      <g transform="translate(28.840625 102.218659)scale(0.1 -0.1)">
       <use xlink:href="#DejaVuSans-50"/>
       <use x="63.623047" xlink:href="#DejaVuSans-48"/>
       <use x="127.246094" xlink:href="#DejaVuSans-48"/>
      </g>
     </g>
    </g>
    <g id="ytick_10">
     <g id="line2d_38">
      <path clip-path="url(#p189a379dbb)" d="M 53.328125 73.976335 
L 388.128125 73.976335 
" style="fill:none;stroke:#b0b0b0;stroke-linecap:square;stroke-opacity:0.3;stroke-width:0.8;"/>
     </g>
     <g id="line2d_39">
      <g>
       <use style="stroke:#000000;stroke-width:0.6;" x="53.328125" xlink:href="#me788f585b3" y="73.976335"/>
      </g>
     </g>
     <g id="text_18">
      <!-- 500 -->
      <g transform="translate(28.840625 77.775554)scale(0.1 -0.1)">
       <use xlink:href="#DejaVuSans-53"/>
       <use x="63.623047" xlink:href="#DejaVuSans-48"/>
       <use x="127.246094" xlink:href="#DejaVuSans-48"/>
      </g>
     </g>
    </g>
    <g id="ytick_11">
     <g id="line2d_40">
      <path clip-path="url(#p189a379dbb)" d="M 53.328125 36.995345 
L 388.128125 36.995345 
" style="fill:none;stroke:#b0b0b0;stroke-linecap:square;stroke-opacity:0.3;stroke-width:0.8;"/>
     </g>
     <g id="line2d_41">
      <g>
       <use style="stroke:#000000;stroke-width:0.6;" x="53.328125" xlink:href="#me788f585b3" y="36.995345"/>
      </g>
     </g>
     <g id="text_19">
      <!-- 2000 -->
      <g transform="translate(22.478125 40.794564)scale(0.1 -0.1)">
       <use xlink:href="#DejaVuSans-50"/>
       <use x="63.623047" xlink:href="#DejaVuSans-48"/>
       <use x="127.246094" xlink:href="#DejaVuSans-48"/>
       <use x="190.869141" xlink:href="#DejaVuSans-48"/>
      </g>
     </g>
    </g>
    <g id="text_20">
     <!-- Cases per million -->
     <defs>
      <path d="M 64.40625 67.28125 
L 64.40625 56.890625 
Q 59.421875 61.53125 53.78125 63.8125 
Q 48.140625 66.109375 41.796875 66.109375 
Q 29.296875 66.109375 22.65625 58.46875 
Q 16.015625 50.828125 16.015625 36.375 
Q 16.015625 21.96875 22.65625 14.328125 
Q 29.296875 6.6875 41.796875 6.6875 
Q 48.140625 6.6875 53.78125 8.984375 
Q 59.421875 11.28125 64.40625 15.921875 
L 64.40625 5.609375 
Q 59.234375 2.09375 53.4375 0.328125 
Q 47.65625 -1.421875 41.21875 -1.421875 
Q 24.65625 -1.421875 15.125 8.703125 
Q 5.609375 18.84375 5.609375 36.375 
Q 5.609375 53.953125 15.125 64.078125 
Q 24.65625 74.21875 41.21875 74.21875 
Q 47.75 74.21875 53.53125 72.484375 
Q 59.328125 70.75 64.40625 67.28125 
z
" id="DejaVuSans-67"/>
      <path d="M 44.28125 53.078125 
L 44.28125 44.578125 
Q 40.484375 46.53125 36.375 47.5 
Q 32.28125 48.484375 27.875 48.484375 
Q 21.1875 48.484375 17.84375 46.4375 
Q 14.5 44.390625 14.5 40.28125 
Q 14.5 37.15625 16.890625 35.375 
Q 19.28125 33.59375 26.515625 31.984375 
L 29.59375 31.296875 
Q 39.15625 29.25 43.1875 25.515625 
Q 47.21875 21.78125 47.21875 15.09375 
Q 47.21875 7.46875 41.1875 3.015625 
Q 35.15625 -1.421875 24.609375 -1.421875 
Q 20.21875 -1.421875 15.453125 -0.5625 
Q 10.6875 0.296875 5.421875 2 
L 5.421875 11.28125 
Q 10.40625 8.6875 15.234375 7.390625 
Q 20.0625 6.109375 24.8125 6.109375 
Q 31.15625 6.109375 34.5625 8.28125 
Q 37.984375 10.453125 37.984375 14.40625 
Q 37.984375 18.0625 35.515625 20.015625 
Q 33.0625 21.96875 24.703125 23.78125 
L 21.578125 24.515625 
Q 13.234375 26.265625 9.515625 29.90625 
Q 5.8125 33.546875 5.8125 39.890625 
Q 5.8125 47.609375 11.28125 51.796875 
Q 16.75 56 26.8125 56 
Q 31.78125 56 36.171875 55.265625 
Q 40.578125 54.546875 44.28125 53.078125 
z
" id="DejaVuSans-115"/>
      <path id="DejaVuSans-32"/>
      <path d="M 52 44.1875 
Q 55.375 50.25 60.0625 53.125 
Q 64.75 56 71.09375 56 
Q 79.640625 56 84.28125 50.015625 
Q 88.921875 44.046875 88.921875 33.015625 
L 88.921875 0 
L 79.890625 0 
L 79.890625 32.71875 
Q 79.890625 40.578125 77.09375 44.375 
Q 74.3125 48.1875 68.609375 48.1875 
Q 61.625 48.1875 57.5625 43.546875 
Q 53.515625 38.921875 53.515625 30.90625 
L 53.515625 0 
L 44.484375 0 
L 44.484375 32.71875 
Q 44.484375 40.625 41.703125 44.40625 
Q 38.921875 48.1875 33.109375 48.1875 
Q 26.21875 48.1875 22.15625 43.53125 
Q 18.109375 38.875 18.109375 30.90625 
L 18.109375 0 
L 9.078125 0 
L 9.078125 54.6875 
L 18.109375 54.6875 
L 18.109375 46.1875 
Q 21.1875 51.21875 25.484375 53.609375 
Q 29.78125 56 35.6875 56 
Q 41.65625 56 45.828125 52.96875 
Q 50 49.953125 52 44.1875 
z
" id="DejaVuSans-109"/>
      <path d="M 9.421875 54.6875 
L 18.40625 54.6875 
L 18.40625 0 
L 9.421875 0 
z
M 9.421875 75.984375 
L 18.40625 75.984375 
L 18.40625 64.59375 
L 9.421875 64.59375 
z
" id="DejaVuSans-105"/>
      <path d="M 9.421875 75.984375 
L 18.40625 75.984375 
L 18.40625 0 
L 9.421875 0 
z
" id="DejaVuSans-108"/>
      <path d="M 30.609375 48.390625 
Q 23.390625 48.390625 19.1875 42.75 
Q 14.984375 37.109375 14.984375 27.296875 
Q 14.984375 17.484375 19.15625 11.84375 
Q 23.34375 6.203125 30.609375 6.203125 
Q 37.796875 6.203125 41.984375 11.859375 
Q 46.1875 17.53125 46.1875 27.296875 
Q 46.1875 37.015625 41.984375 42.703125 
Q 37.796875 48.390625 30.609375 48.390625 
z
M 30.609375 56 
Q 42.328125 56 49.015625 48.375 
Q 55.71875 40.765625 55.71875 27.296875 
Q 55.71875 13.875 49.015625 6.21875 
Q 42.328125 -1.421875 30.609375 -1.421875 
Q 18.84375 -1.421875 12.171875 6.21875 
Q 5.515625 13.875 5.515625 27.296875 
Q 5.515625 40.765625 12.171875 48.375 
Q 18.84375 56 30.609375 56 
z
" id="DejaVuSans-111"/>
      <path d="M 54.890625 33.015625 
L 54.890625 0 
L 45.90625 0 
L 45.90625 32.71875 
Q 45.90625 40.484375 42.875 44.328125 
Q 39.84375 48.1875 33.796875 48.1875 
Q 26.515625 48.1875 22.3125 43.546875 
Q 18.109375 38.921875 18.109375 30.90625 
L 18.109375 0 
L 9.078125 0 
L 9.078125 54.6875 
L 18.109375 54.6875 
L 18.109375 46.1875 
Q 21.34375 51.125 25.703125 53.5625 
Q 30.078125 56 35.796875 56 
Q 45.21875 56 50.046875 50.171875 
Q 54.890625 44.34375 54.890625 33.015625 
z
" id="DejaVuSans-110"/>
     </defs>
     <g transform="translate(14.798438 174.018594)rotate(-90)scale(0.1 -0.1)">
      <use xlink:href="#DejaVuSans-67"/>
      <use x="69.824219" xlink:href="#DejaVuSans-97"/>
      <use x="131.103516" xlink:href="#DejaVuSans-115"/>
      <use x="183.203125" xlink:href="#DejaVuSans-101"/>
      <use x="244.726562" xlink:href="#DejaVuSans-115"/>
      <use x="296.826172" xlink:href="#DejaVuSans-32"/>
      <use x="328.613281" xlink:href="#DejaVuSans-112"/>
      <use x="392.089844" xlink:href="#DejaVuSans-101"/>
      <use x="453.613281" xlink:href="#DejaVuSans-114"/>
      <use x="494.726562" xlink:href="#DejaVuSans-32"/>
      <use x="526.513672" xlink:href="#DejaVuSans-109"/>
      <use x="623.925781" xlink:href="#DejaVuSans-105"/>
      <use x="651.708984" xlink:href="#DejaVuSans-108"/>
      <use x="679.492188" xlink:href="#DejaVuSans-108"/>
      <use x="707.275391" xlink:href="#DejaVuSans-105"/>
      <use x="735.058594" xlink:href="#DejaVuSans-111"/>
      <use x="796.240234" xlink:href="#DejaVuSans-110"/>
     </g>
    </g>
   </g>
   <g id="line2d_42">
    <path clip-path="url(#p189a379dbb)" d="M 36.124914 322.072531 
L 41.859317 322.072531 
L 47.593721 322.072531 
L 53.328125 322.072531 
L 59.062529 322.072531 
L 64.796933 322.072531 
L 70.531336 299.46989 
L 76.26574 299.46989 
L 82.000144 299.46989 
L 87.734548 288.400787 
L 93.468952 286.459848 
L 99.203356 285.091541 
L 104.937759 285.091541 
L 110.672163 283.790007 
L 116.406567 281.752671 
L 122.140971 279.138931 
L 127.875375 271.464682 
L 133.609779 265.72634 
L 139.344182 259.26235 
L 145.078586 250.310698 
L 150.81299 240.519795 
L 156.547394 232.246057 
L 162.281798 226.428704 
L 168.016202 219.403299 
L 173.750605 210.201126 
L 179.485009 203.021208 
L 185.219413 197.007156 
L 190.953817 189.214518 
L 196.688221 182.861668 
L 202.422625 175.774053 
L 208.157028 169.354494 
L 213.891432 160.756156 
L 219.625836 150.572485 
L 225.36024 139.904965 
L 231.094644 130.809588 
L 236.829047 124.910126 
L 242.563451 116.192268 
L 248.297855 109.074812 
L 254.032259 103.045489 
L 259.766663 97.22777 
L 265.501067 91.204917 
L 271.23547 85.947325 
L 276.969874 81.404621 
L 282.704278 77.438647 
L 288.438682 73.85386 
L 294.173086 70.099851 
L 299.90749 66.598538 
L 305.641893 63.123774 
L 311.376297 59.829882 
L 317.110701 56.744747 
L 322.845105 54.670647 
L 328.579509 52.324884 
L 334.313913 50.012613 
L 340.048316 47.97825 
" style="fill:none;stroke:#ff7f0e;stroke-linecap:square;stroke-width:1.5;"/>
    <defs>
     <path d="M 0 3 
C 0.795609 3 1.55874 2.683901 2.12132 2.12132 
C 2.683901 1.55874 3 0.795609 3 0 
C 3 -0.795609 2.683901 -1.55874 2.12132 -2.12132 
C 1.55874 -2.683901 0.795609 -3 0 -3 
C -0.795609 -3 -1.55874 -2.683901 -2.12132 -2.12132 
C -2.683901 -1.55874 -3 -0.795609 -3 0 
C -3 0.795609 -2.683901 1.55874 -2.12132 2.12132 
C -1.55874 2.683901 -0.795609 3 0 3 
z
" id="mbc4d17d5ef" style="stroke:#ff7f0e;"/>
    </defs>
    <g clip-path="url(#p189a379dbb)">
     <use style="fill:#ff7f0e;stroke:#ff7f0e;" x="36.124914" xlink:href="#mbc4d17d5ef" y="322.072531"/>
     <use style="fill:#ff7f0e;stroke:#ff7f0e;" x="41.859317" xlink:href="#mbc4d17d5ef" y="322.072531"/>
     <use style="fill:#ff7f0e;stroke:#ff7f0e;" x="47.593721" xlink:href="#mbc4d17d5ef" y="322.072531"/>
     <use style="fill:#ff7f0e;stroke:#ff7f0e;" x="53.328125" xlink:href="#mbc4d17d5ef" y="322.072531"/>
     <use style="fill:#ff7f0e;stroke:#ff7f0e;" x="59.062529" xlink:href="#mbc4d17d5ef" y="322.072531"/>
     <use style="fill:#ff7f0e;stroke:#ff7f0e;" x="64.796933" xlink:href="#mbc4d17d5ef" y="322.072531"/>
     <use style="fill:#ff7f0e;stroke:#ff7f0e;" x="70.531336" xlink:href="#mbc4d17d5ef" y="299.46989"/>
     <use style="fill:#ff7f0e;stroke:#ff7f0e;" x="76.26574" xlink:href="#mbc4d17d5ef" y="299.46989"/>
     <use style="fill:#ff7f0e;stroke:#ff7f0e;" x="82.000144" xlink:href="#mbc4d17d5ef" y="299.46989"/>
     <use style="fill:#ff7f0e;stroke:#ff7f0e;" x="87.734548" xlink:href="#mbc4d17d5ef" y="288.400787"/>
     <use style="fill:#ff7f0e;stroke:#ff7f0e;" x="93.468952" xlink:href="#mbc4d17d5ef" y="286.459848"/>
     <use style="fill:#ff7f0e;stroke:#ff7f0e;" x="99.203356" xlink:href="#mbc4d17d5ef" y="285.091541"/>
     <use style="fill:#ff7f0e;stroke:#ff7f0e;" x="104.937759" xlink:href="#mbc4d17d5ef" y="285.091541"/>
     <use style="fill:#ff7f0e;stroke:#ff7f0e;" x="110.672163" xlink:href="#mbc4d17d5ef" y="283.790007"/>
     <use style="fill:#ff7f0e;stroke:#ff7f0e;" x="116.406567" xlink:href="#mbc4d17d5ef" y="281.752671"/>
     <use style="fill:#ff7f0e;stroke:#ff7f0e;" x="122.140971" xlink:href="#mbc4d17d5ef" y="279.138931"/>
     <use style="fill:#ff7f0e;stroke:#ff7f0e;" x="127.875375" xlink:href="#mbc4d17d5ef" y="271.464682"/>
     <use style="fill:#ff7f0e;stroke:#ff7f0e;" x="133.609779" xlink:href="#mbc4d17d5ef" y="265.72634"/>
     <use style="fill:#ff7f0e;stroke:#ff7f0e;" x="139.344182" xlink:href="#mbc4d17d5ef" y="259.26235"/>
     <use style="fill:#ff7f0e;stroke:#ff7f0e;" x="145.078586" xlink:href="#mbc4d17d5ef" y="250.310698"/>
     <use style="fill:#ff7f0e;stroke:#ff7f0e;" x="150.81299" xlink:href="#mbc4d17d5ef" y="240.519795"/>
     <use style="fill:#ff7f0e;stroke:#ff7f0e;" x="156.547394" xlink:href="#mbc4d17d5ef" y="232.246057"/>
     <use style="fill:#ff7f0e;stroke:#ff7f0e;" x="162.281798" xlink:href="#mbc4d17d5ef" y="226.428704"/>
     <use style="fill:#ff7f0e;stroke:#ff7f0e;" x="168.016202" xlink:href="#mbc4d17d5ef" y="219.403299"/>
     <use style="fill:#ff7f0e;stroke:#ff7f0e;" x="173.750605" xlink:href="#mbc4d17d5ef" y="210.201126"/>
     <use style="fill:#ff7f0e;stroke:#ff7f0e;" x="179.485009" xlink:href="#mbc4d17d5ef" y="203.021208"/>
     <use style="fill:#ff7f0e;stroke:#ff7f0e;" x="185.219413" xlink:href="#mbc4d17d5ef" y="197.007156"/>
     <use style="fill:#ff7f0e;stroke:#ff7f0e;" x="190.953817" xlink:href="#mbc4d17d5ef" y="189.214518"/>
     <use style="fill:#ff7f0e;stroke:#ff7f0e;" x="196.688221" xlink:href="#mbc4d17d5ef" y="182.861668"/>
     <use style="fill:#ff7f0e;stroke:#ff7f0e;" x="202.422625" xlink:href="#mbc4d17d5ef" y="175.774053"/>
     <use style="fill:#ff7f0e;stroke:#ff7f0e;" x="208.157028" xlink:href="#mbc4d17d5ef" y="169.354494"/>
     <use style="fill:#ff7f0e;stroke:#ff7f0e;" x="213.891432" xlink:href="#mbc4d17d5ef" y="160.756156"/>
     <use style="fill:#ff7f0e;stroke:#ff7f0e;" x="219.625836" xlink:href="#mbc4d17d5ef" y="150.572485"/>
     <use style="fill:#ff7f0e;stroke:#ff7f0e;" x="225.36024" xlink:href="#mbc4d17d5ef" y="139.904965"/>
     <use style="fill:#ff7f0e;stroke:#ff7f0e;" x="231.094644" xlink:href="#mbc4d17d5ef" y="130.809588"/>
     <use style="fill:#ff7f0e;stroke:#ff7f0e;" x="236.829047" xlink:href="#mbc4d17d5ef" y="124.910126"/>
     <use style="fill:#ff7f0e;stroke:#ff7f0e;" x="242.563451" xlink:href="#mbc4d17d5ef" y="116.192268"/>
     <use style="fill:#ff7f0e;stroke:#ff7f0e;" x="248.297855" xlink:href="#mbc4d17d5ef" y="109.074812"/>
     <use style="fill:#ff7f0e;stroke:#ff7f0e;" x="254.032259" xlink:href="#mbc4d17d5ef" y="103.045489"/>
     <use style="fill:#ff7f0e;stroke:#ff7f0e;" x="259.766663" xlink:href="#mbc4d17d5ef" y="97.22777"/>
     <use style="fill:#ff7f0e;stroke:#ff7f0e;" x="265.501067" xlink:href="#mbc4d17d5ef" y="91.204917"/>
     <use style="fill:#ff7f0e;stroke:#ff7f0e;" x="271.23547" xlink:href="#mbc4d17d5ef" y="85.947325"/>
     <use style="fill:#ff7f0e;stroke:#ff7f0e;" x="276.969874" xlink:href="#mbc4d17d5ef" y="81.404621"/>
     <use style="fill:#ff7f0e;stroke:#ff7f0e;" x="282.704278" xlink:href="#mbc4d17d5ef" y="77.438647"/>
     <use style="fill:#ff7f0e;stroke:#ff7f0e;" x="288.438682" xlink:href="#mbc4d17d5ef" y="73.85386"/>
     <use style="fill:#ff7f0e;stroke:#ff7f0e;" x="294.173086" xlink:href="#mbc4d17d5ef" y="70.099851"/>
     <use style="fill:#ff7f0e;stroke:#ff7f0e;" x="299.90749" xlink:href="#mbc4d17d5ef" y="66.598538"/>
     <use style="fill:#ff7f0e;stroke:#ff7f0e;" x="305.641893" xlink:href="#mbc4d17d5ef" y="63.123774"/>
     <use style="fill:#ff7f0e;stroke:#ff7f0e;" x="311.376297" xlink:href="#mbc4d17d5ef" y="59.829882"/>
     <use style="fill:#ff7f0e;stroke:#ff7f0e;" x="317.110701" xlink:href="#mbc4d17d5ef" y="56.744747"/>
     <use style="fill:#ff7f0e;stroke:#ff7f0e;" x="322.845105" xlink:href="#mbc4d17d5ef" y="54.670647"/>
     <use style="fill:#ff7f0e;stroke:#ff7f0e;" x="328.579509" xlink:href="#mbc4d17d5ef" y="52.324884"/>
     <use style="fill:#ff7f0e;stroke:#ff7f0e;" x="334.313913" xlink:href="#mbc4d17d5ef" y="50.012613"/>
     <use style="fill:#ff7f0e;stroke:#ff7f0e;" x="340.048316" xlink:href="#mbc4d17d5ef" y="47.97825"/>
    </g>
   </g>
   <g id="line2d_43">
    <path clip-path="url(#p189a379dbb)" d="M 36.124914 319.813524 
L 41.859317 319.813524 
L 47.593721 319.813524 
L 53.328125 319.813524 
L 59.062529 319.813524 
L 64.796933 312.139276 
L 70.531336 267.904142 
L 76.26574 232.560239 
L 82.000144 214.239117 
L 87.734548 204.169507 
L 93.468952 194.994772 
L 99.203356 184.989073 
L 104.937759 176.135193 
L 110.672163 167.986644 
L 116.406567 161.634942 
L 122.140971 150.677177 
L 127.875375 145.881586 
L 133.609779 140.383544 
L 139.344182 134.761359 
L 145.078586 128.831212 
L 150.81299 123.930724 
L 156.547394 117.576068 
L 162.281798 111.546484 
L 168.016202 105.729498 
L 173.750605 103.029344 
L 179.485009 97.552495 
L 185.219413 92.407433 
L 190.953817 88.252706 
L 196.688221 83.433163 
L 202.422625 79.252119 
L 208.157028 75.97667 
L 213.891432 72.810531 
L 219.625836 69.467029 
L 225.36024 65.76143 
L 231.094644 62.128967 
L 236.829047 58.64655 
L 242.563451 56.012677 
L 248.297855 53.935456 
L 254.032259 51.830383 
L 259.766663 49.893328 
L 265.501067 47.756717 
L 271.23547 45.869137 
L 276.969874 44.087581 
L 282.704278 42.623512 
L 288.438682 41.53988 
L 294.173086 40.497798 
L 299.90749 39.318444 
L 305.641893 38.215404 
L 311.376297 37.174641 
L 317.110701 36.125832 
L 322.845105 35.217674 
L 328.579509 34.483331 
L 334.313913 33.878614 
L 340.048316 33.134371 
" style="fill:none;stroke:#2ca02c;stroke-linecap:square;stroke-width:1.5;"/>
    <defs>
     <path d="M 0 3 
C 0.795609 3 1.55874 2.683901 2.12132 2.12132 
C 2.683901 1.55874 3 0.795609 3 0 
C 3 -0.795609 2.683901 -1.55874 2.12132 -2.12132 
C 1.55874 -2.683901 0.795609 -3 0 -3 
C -0.795609 -3 -1.55874 -2.683901 -2.12132 -2.12132 
C -2.683901 -1.55874 -3 -0.795609 -3 0 
C -3 0.795609 -2.683901 1.55874 -2.12132 2.12132 
C -1.55874 2.683901 -0.795609 3 0 3 
z
" id="mc8db068bba" style="stroke:#2ca02c;"/>
    </defs>
    <g clip-path="url(#p189a379dbb)">
     <use style="fill:#2ca02c;stroke:#2ca02c;" x="36.124914" xlink:href="#mc8db068bba" y="319.813524"/>
     <use style="fill:#2ca02c;stroke:#2ca02c;" x="41.859317" xlink:href="#mc8db068bba" y="319.813524"/>
     <use style="fill:#2ca02c;stroke:#2ca02c;" x="47.593721" xlink:href="#mc8db068bba" y="319.813524"/>
     <use style="fill:#2ca02c;stroke:#2ca02c;" x="53.328125" xlink:href="#mc8db068bba" y="319.813524"/>
     <use style="fill:#2ca02c;stroke:#2ca02c;" x="59.062529" xlink:href="#mc8db068bba" y="319.813524"/>
     <use style="fill:#2ca02c;stroke:#2ca02c;" x="64.796933" xlink:href="#mc8db068bba" y="312.139276"/>
     <use style="fill:#2ca02c;stroke:#2ca02c;" x="70.531336" xlink:href="#mc8db068bba" y="267.904142"/>
     <use style="fill:#2ca02c;stroke:#2ca02c;" x="76.26574" xlink:href="#mc8db068bba" y="232.560239"/>
     <use style="fill:#2ca02c;stroke:#2ca02c;" x="82.000144" xlink:href="#mc8db068bba" y="214.239117"/>
     <use style="fill:#2ca02c;stroke:#2ca02c;" x="87.734548" xlink:href="#mc8db068bba" y="204.169507"/>
     <use style="fill:#2ca02c;stroke:#2ca02c;" x="93.468952" xlink:href="#mc8db068bba" y="194.994772"/>
     <use style="fill:#2ca02c;stroke:#2ca02c;" x="99.203356" xlink:href="#mc8db068bba" y="184.989073"/>
     <use style="fill:#2ca02c;stroke:#2ca02c;" x="104.937759" xlink:href="#mc8db068bba" y="176.135193"/>
     <use style="fill:#2ca02c;stroke:#2ca02c;" x="110.672163" xlink:href="#mc8db068bba" y="167.986644"/>
     <use style="fill:#2ca02c;stroke:#2ca02c;" x="116.406567" xlink:href="#mc8db068bba" y="161.634942"/>
     <use style="fill:#2ca02c;stroke:#2ca02c;" x="122.140971" xlink:href="#mc8db068bba" y="150.677177"/>
     <use style="fill:#2ca02c;stroke:#2ca02c;" x="127.875375" xlink:href="#mc8db068bba" y="145.881586"/>
     <use style="fill:#2ca02c;stroke:#2ca02c;" x="133.609779" xlink:href="#mc8db068bba" y="140.383544"/>
     <use style="fill:#2ca02c;stroke:#2ca02c;" x="139.344182" xlink:href="#mc8db068bba" y="134.761359"/>
     <use style="fill:#2ca02c;stroke:#2ca02c;" x="145.078586" xlink:href="#mc8db068bba" y="128.831212"/>
     <use style="fill:#2ca02c;stroke:#2ca02c;" x="150.81299" xlink:href="#mc8db068bba" y="123.930724"/>
     <use style="fill:#2ca02c;stroke:#2ca02c;" x="156.547394" xlink:href="#mc8db068bba" y="117.576068"/>
     <use style="fill:#2ca02c;stroke:#2ca02c;" x="162.281798" xlink:href="#mc8db068bba" y="111.546484"/>
     <use style="fill:#2ca02c;stroke:#2ca02c;" x="168.016202" xlink:href="#mc8db068bba" y="105.729498"/>
     <use style="fill:#2ca02c;stroke:#2ca02c;" x="173.750605" xlink:href="#mc8db068bba" y="103.029344"/>
     <use style="fill:#2ca02c;stroke:#2ca02c;" x="179.485009" xlink:href="#mc8db068bba" y="97.552495"/>
     <use style="fill:#2ca02c;stroke:#2ca02c;" x="185.219413" xlink:href="#mc8db068bba" y="92.407433"/>
     <use style="fill:#2ca02c;stroke:#2ca02c;" x="190.953817" xlink:href="#mc8db068bba" y="88.252706"/>
     <use style="fill:#2ca02c;stroke:#2ca02c;" x="196.688221" xlink:href="#mc8db068bba" y="83.433163"/>
     <use style="fill:#2ca02c;stroke:#2ca02c;" x="202.422625" xlink:href="#mc8db068bba" y="79.252119"/>
     <use style="fill:#2ca02c;stroke:#2ca02c;" x="208.157028" xlink:href="#mc8db068bba" y="75.97667"/>
     <use style="fill:#2ca02c;stroke:#2ca02c;" x="213.891432" xlink:href="#mc8db068bba" y="72.810531"/>
     <use style="fill:#2ca02c;stroke:#2ca02c;" x="219.625836" xlink:href="#mc8db068bba" y="69.467029"/>
     <use style="fill:#2ca02c;stroke:#2ca02c;" x="225.36024" xlink:href="#mc8db068bba" y="65.76143"/>
     <use style="fill:#2ca02c;stroke:#2ca02c;" x="231.094644" xlink:href="#mc8db068bba" y="62.128967"/>
     <use style="fill:#2ca02c;stroke:#2ca02c;" x="236.829047" xlink:href="#mc8db068bba" y="58.64655"/>
     <use style="fill:#2ca02c;stroke:#2ca02c;" x="242.563451" xlink:href="#mc8db068bba" y="56.012677"/>
     <use style="fill:#2ca02c;stroke:#2ca02c;" x="248.297855" xlink:href="#mc8db068bba" y="53.935456"/>
     <use style="fill:#2ca02c;stroke:#2ca02c;" x="254.032259" xlink:href="#mc8db068bba" y="51.830383"/>
     <use style="fill:#2ca02c;stroke:#2ca02c;" x="259.766663" xlink:href="#mc8db068bba" y="49.893328"/>
     <use style="fill:#2ca02c;stroke:#2ca02c;" x="265.501067" xlink:href="#mc8db068bba" y="47.756717"/>
     <use style="fill:#2ca02c;stroke:#2ca02c;" x="271.23547" xlink:href="#mc8db068bba" y="45.869137"/>
     <use style="fill:#2ca02c;stroke:#2ca02c;" x="276.969874" xlink:href="#mc8db068bba" y="44.087581"/>
     <use style="fill:#2ca02c;stroke:#2ca02c;" x="282.704278" xlink:href="#mc8db068bba" y="42.623512"/>
     <use style="fill:#2ca02c;stroke:#2ca02c;" x="288.438682" xlink:href="#mc8db068bba" y="41.53988"/>
     <use style="fill:#2ca02c;stroke:#2ca02c;" x="294.173086" xlink:href="#mc8db068bba" y="40.497798"/>
     <use style="fill:#2ca02c;stroke:#2ca02c;" x="299.90749" xlink:href="#mc8db068bba" y="39.318444"/>
     <use style="fill:#2ca02c;stroke:#2ca02c;" x="305.641893" xlink:href="#mc8db068bba" y="38.215404"/>
     <use style="fill:#2ca02c;stroke:#2ca02c;" x="311.376297" xlink:href="#mc8db068bba" y="37.174641"/>
     <use style="fill:#2ca02c;stroke:#2ca02c;" x="317.110701" xlink:href="#mc8db068bba" y="36.125832"/>
     <use style="fill:#2ca02c;stroke:#2ca02c;" x="322.845105" xlink:href="#mc8db068bba" y="35.217674"/>
     <use style="fill:#2ca02c;stroke:#2ca02c;" x="328.579509" xlink:href="#mc8db068bba" y="34.483331"/>
     <use style="fill:#2ca02c;stroke:#2ca02c;" x="334.313913" xlink:href="#mc8db068bba" y="33.878614"/>
     <use style="fill:#2ca02c;stroke:#2ca02c;" x="340.048316" xlink:href="#mc8db068bba" y="33.134371"/>
    </g>
   </g>
   <g id="line2d_44">
    <path clip-path="url(#p189a379dbb)" d="M 36.124914 293.526048 
L 41.859317 293.526048 
L 47.593721 293.526048 
L 53.328125 293.526048 
L 59.062529 293.526048 
L 64.796933 293.526048 
L 70.531336 293.526048 
L 76.26574 293.526048 
L 82.000144 283.716568 
L 87.734548 283.716568 
L 93.468952 283.716568 
L 99.203356 283.716568 
L 104.937759 278.177551 
L 110.672163 272.224941 
L 116.406567 268.496631 
L 122.140971 256.545058 
L 127.875375 254.409827 
L 133.609779 247.253578 
L 139.344182 233.006316 
L 145.078586 225.332067 
L 150.81299 216.094752 
L 156.547394 209.626645 
L 162.281798 202.016291 
L 168.016202 198.179728 
L 173.750605 193.468884 
L 179.485009 188.582041 
L 185.219413 181.942454 
L 190.953817 173.88663 
L 196.688221 164.371917 
L 202.422625 159.063507 
L 208.157028 156.29704 
L 213.891432 150.052133 
L 219.625836 142.112447 
L 225.36024 136.269775 
L 231.094644 130.999871 
L 236.829047 124.837784 
L 242.563451 121.517996 
L 248.297855 117.326171 
L 254.032259 112.140231 
L 259.766663 107.73015 
L 265.501067 102.350829 
L 271.23547 96.452276 
L 276.969874 92.148742 
L 282.704278 88.597958 
L 288.438682 85.239724 
L 294.173086 81.840468 
L 299.90749 77.608281 
L 305.641893 74.019717 
L 311.376297 70.712792 
L 317.110701 68.222308 
L 322.845105 64.706559 
L 328.579509 62.665153 
L 334.313913 60.849925 
L 340.048316 58.321996 
" style="fill:none;stroke:#1f77b4;stroke-linecap:square;stroke-width:1.5;"/>
    <defs>
     <path d="M 0 3 
C 0.795609 3 1.55874 2.683901 2.12132 2.12132 
C 2.683901 1.55874 3 0.795609 3 0 
C 3 -0.795609 2.683901 -1.55874 2.12132 -2.12132 
C 1.55874 -2.683901 0.795609 -3 0 -3 
C -0.795609 -3 -1.55874 -2.683901 -2.12132 -2.12132 
C -2.683901 -1.55874 -3 -0.795609 -3 0 
C -3 0.795609 -2.683901 1.55874 -2.12132 2.12132 
C -1.55874 2.683901 -0.795609 3 0 3 
z
" id="m4d8001b3c5" style="stroke:#1f77b4;"/>
    </defs>
    <g clip-path="url(#p189a379dbb)">
     <use style="fill:#1f77b4;stroke:#1f77b4;" x="36.124914" xlink:href="#m4d8001b3c5" y="293.526048"/>
     <use style="fill:#1f77b4;stroke:#1f77b4;" x="41.859317" xlink:href="#m4d8001b3c5" y="293.526048"/>
     <use style="fill:#1f77b4;stroke:#1f77b4;" x="47.593721" xlink:href="#m4d8001b3c5" y="293.526048"/>
     <use style="fill:#1f77b4;stroke:#1f77b4;" x="53.328125" xlink:href="#m4d8001b3c5" y="293.526048"/>
     <use style="fill:#1f77b4;stroke:#1f77b4;" x="59.062529" xlink:href="#m4d8001b3c5" y="293.526048"/>
     <use style="fill:#1f77b4;stroke:#1f77b4;" x="64.796933" xlink:href="#m4d8001b3c5" y="293.526048"/>
     <use style="fill:#1f77b4;stroke:#1f77b4;" x="70.531336" xlink:href="#m4d8001b3c5" y="293.526048"/>
     <use style="fill:#1f77b4;stroke:#1f77b4;" x="76.26574" xlink:href="#m4d8001b3c5" y="293.526048"/>
     <use style="fill:#1f77b4;stroke:#1f77b4;" x="82.000144" xlink:href="#m4d8001b3c5" y="283.716568"/>
     <use style="fill:#1f77b4;stroke:#1f77b4;" x="87.734548" xlink:href="#m4d8001b3c5" y="283.716568"/>
     <use style="fill:#1f77b4;stroke:#1f77b4;" x="93.468952" xlink:href="#m4d8001b3c5" y="283.716568"/>
     <use style="fill:#1f77b4;stroke:#1f77b4;" x="99.203356" xlink:href="#m4d8001b3c5" y="283.716568"/>
     <use style="fill:#1f77b4;stroke:#1f77b4;" x="104.937759" xlink:href="#m4d8001b3c5" y="278.177551"/>
     <use style="fill:#1f77b4;stroke:#1f77b4;" x="110.672163" xlink:href="#m4d8001b3c5" y="272.224941"/>
     <use style="fill:#1f77b4;stroke:#1f77b4;" x="116.406567" xlink:href="#m4d8001b3c5" y="268.496631"/>
     <use style="fill:#1f77b4;stroke:#1f77b4;" x="122.140971" xlink:href="#m4d8001b3c5" y="256.545058"/>
     <use style="fill:#1f77b4;stroke:#1f77b4;" x="127.875375" xlink:href="#m4d8001b3c5" y="254.409827"/>
     <use style="fill:#1f77b4;stroke:#1f77b4;" x="133.609779" xlink:href="#m4d8001b3c5" y="247.253578"/>
     <use style="fill:#1f77b4;stroke:#1f77b4;" x="139.344182" xlink:href="#m4d8001b3c5" y="233.006316"/>
     <use style="fill:#1f77b4;stroke:#1f77b4;" x="145.078586" xlink:href="#m4d8001b3c5" y="225.332067"/>
     <use style="fill:#1f77b4;stroke:#1f77b4;" x="150.81299" xlink:href="#m4d8001b3c5" y="216.094752"/>
     <use style="fill:#1f77b4;stroke:#1f77b4;" x="156.547394" xlink:href="#m4d8001b3c5" y="209.626645"/>
     <use style="fill:#1f77b4;stroke:#1f77b4;" x="162.281798" xlink:href="#m4d8001b3c5" y="202.016291"/>
     <use style="fill:#1f77b4;stroke:#1f77b4;" x="168.016202" xlink:href="#m4d8001b3c5" y="198.179728"/>
     <use style="fill:#1f77b4;stroke:#1f77b4;" x="173.750605" xlink:href="#m4d8001b3c5" y="193.468884"/>
     <use style="fill:#1f77b4;stroke:#1f77b4;" x="179.485009" xlink:href="#m4d8001b3c5" y="188.582041"/>
     <use style="fill:#1f77b4;stroke:#1f77b4;" x="185.219413" xlink:href="#m4d8001b3c5" y="181.942454"/>
     <use style="fill:#1f77b4;stroke:#1f77b4;" x="190.953817" xlink:href="#m4d8001b3c5" y="173.88663"/>
     <use style="fill:#1f77b4;stroke:#1f77b4;" x="196.688221" xlink:href="#m4d8001b3c5" y="164.371917"/>
     <use style="fill:#1f77b4;stroke:#1f77b4;" x="202.422625" xlink:href="#m4d8001b3c5" y="159.063507"/>
     <use style="fill:#1f77b4;stroke:#1f77b4;" x="208.157028" xlink:href="#m4d8001b3c5" y="156.29704"/>
     <use style="fill:#1f77b4;stroke:#1f77b4;" x="213.891432" xlink:href="#m4d8001b3c5" y="150.052133"/>
     <use style="fill:#1f77b4;stroke:#1f77b4;" x="219.625836" xlink:href="#m4d8001b3c5" y="142.112447"/>
     <use style="fill:#1f77b4;stroke:#1f77b4;" x="225.36024" xlink:href="#m4d8001b3c5" y="136.269775"/>
     <use style="fill:#1f77b4;stroke:#1f77b4;" x="231.094644" xlink:href="#m4d8001b3c5" y="130.999871"/>
     <use style="fill:#1f77b4;stroke:#1f77b4;" x="236.829047" xlink:href="#m4d8001b3c5" y="124.837784"/>
     <use style="fill:#1f77b4;stroke:#1f77b4;" x="242.563451" xlink:href="#m4d8001b3c5" y="121.517996"/>
     <use style="fill:#1f77b4;stroke:#1f77b4;" x="248.297855" xlink:href="#m4d8001b3c5" y="117.326171"/>
     <use style="fill:#1f77b4;stroke:#1f77b4;" x="254.032259" xlink:href="#m4d8001b3c5" y="112.140231"/>
     <use style="fill:#1f77b4;stroke:#1f77b4;" x="259.766663" xlink:href="#m4d8001b3c5" y="107.73015"/>
     <use style="fill:#1f77b4;stroke:#1f77b4;" x="265.501067" xlink:href="#m4d8001b3c5" y="102.350829"/>
     <use style="fill:#1f77b4;stroke:#1f77b4;" x="271.23547" xlink:href="#m4d8001b3c5" y="96.452276"/>
     <use style="fill:#1f77b4;stroke:#1f77b4;" x="276.969874" xlink:href="#m4d8001b3c5" y="92.148742"/>
     <use style="fill:#1f77b4;stroke:#1f77b4;" x="282.704278" xlink:href="#m4d8001b3c5" y="88.597958"/>
     <use style="fill:#1f77b4;stroke:#1f77b4;" x="288.438682" xlink:href="#m4d8001b3c5" y="85.239724"/>
     <use style="fill:#1f77b4;stroke:#1f77b4;" x="294.173086" xlink:href="#m4d8001b3c5" y="81.840468"/>
     <use style="fill:#1f77b4;stroke:#1f77b4;" x="299.90749" xlink:href="#m4d8001b3c5" y="77.608281"/>
     <use style="fill:#1f77b4;stroke:#1f77b4;" x="305.641893" xlink:href="#m4d8001b3c5" y="74.019717"/>
     <use style="fill:#1f77b4;stroke:#1f77b4;" x="311.376297" xlink:href="#m4d8001b3c5" y="70.712792"/>
     <use style="fill:#1f77b4;stroke:#1f77b4;" x="317.110701" xlink:href="#m4d8001b3c5" y="68.222308"/>
     <use style="fill:#1f77b4;stroke:#1f77b4;" x="322.845105" xlink:href="#m4d8001b3c5" y="64.706559"/>
     <use style="fill:#1f77b4;stroke:#1f77b4;" x="328.579509" xlink:href="#m4d8001b3c5" y="62.665153"/>
     <use style="fill:#1f77b4;stroke:#1f77b4;" x="334.313913" xlink:href="#m4d8001b3c5" y="60.849925"/>
     <use style="fill:#1f77b4;stroke:#1f77b4;" x="340.048316" xlink:href="#m4d8001b3c5" y="58.321996"/>
    </g>
   </g>
   <g id="line2d_45">
    <path clip-path="url(#p189a379dbb)" d="M 53.328125 114.418949 
L 388.128125 114.418949 
" style="fill:none;stroke:#1f77b4;stroke-dasharray:7.4,3.2;stroke-dashoffset:0;stroke-opacity:0.7;stroke-width:2;"/>
   </g>
   <g id="line2d_46">
    <path clip-path="url(#p189a379dbb)" d="M 53.328125 73.287347 
L 388.128125 73.287347 
" style="fill:none;stroke:#ff7f0e;stroke-dasharray:7.4,3.2;stroke-dashoffset:0;stroke-opacity:0.7;stroke-width:2;"/>
   </g>
   <g id="line2d_47">
    <path clip-path="url(#p189a379dbb)" d="M 53.328125 92.407433 
L 388.128125 92.407433 
" style="fill:none;stroke:#2ca02c;stroke-dasharray:12.8,3.2,2,3.2;stroke-dashoffset:0;stroke-opacity:0.7;stroke-width:2;"/>
   </g>
   <g id="line2d_48">
    <path clip-path="url(#p189a379dbb)" d="M 93.468952 271.875479 
L 93.468952 22.318125 
" style="fill:none;stroke:#2ca02c;stroke-linecap:square;stroke-opacity:0.3;stroke-width:4;"/>
   </g>
   <g id="line2d_49">
    <path clip-path="url(#p189a379dbb)" d="M 185.219413 271.875479 
L 185.219413 22.318125 
" style="fill:none;stroke:#ff7f0e;stroke-linecap:square;stroke-opacity:0.3;stroke-width:4;"/>
   </g>
   <g id="line2d_50">
    <path clip-path="url(#p189a379dbb)" d="M 219.625836 271.875479 
L 219.625836 22.318125 
" style="fill:none;stroke:#1f77b4;stroke-linecap:square;stroke-opacity:0.3;stroke-width:4;"/>
   </g>
   <g id="patch_3">
    <path d="M 53.328125 239.758125 
L 53.328125 22.318125 
" style="fill:none;stroke:#000000;stroke-linecap:square;stroke-linejoin:miter;stroke-width:0.8;"/>
   </g>
   <g id="patch_4">
    <path d="M 388.128125 239.758125 
L 388.128125 22.318125 
" style="fill:none;stroke:#000000;stroke-linecap:square;stroke-linejoin:miter;stroke-width:0.8;"/>
   </g>
   <g id="patch_5">
    <path d="M 53.328125 239.758125 
L 388.128125 239.758125 
" style="fill:none;stroke:#000000;stroke-linecap:square;stroke-linejoin:miter;stroke-width:0.8;"/>
   </g>
   <g id="patch_6">
    <path d="M 53.328125 22.318125 
L 388.128125 22.318125 
" style="fill:none;stroke:#000000;stroke-linecap:square;stroke-linejoin:miter;stroke-width:0.8;"/>
   </g>
   <g id="text_21">
    <!--  Scott Sievert -->
    <defs>
     <path d="M 50 72.515625 
Q 57.421875 72.515625 63.84375 69.828125 
Q 70.265625 67.140625 75.59375 61.8125 
Q 80.90625 56.5 83.546875 50.09375 
Q 86.1875 43.703125 86.1875 36.1875 
Q 86.1875 28.765625 83.546875 22.390625 
Q 80.90625 16.015625 75.59375 10.6875 
Q 70.265625 5.375 63.84375 2.6875 
Q 57.421875 0 50 0 
Q 42.578125 0 36.15625 2.6875 
Q 29.734375 5.375 24.421875 10.6875 
Q 19.09375 16.015625 16.453125 22.390625 
Q 13.8125 28.765625 13.8125 36.1875 
Q 13.8125 43.703125 16.453125 50.09375 
Q 19.09375 56.5 24.421875 61.8125 
Q 29.734375 67.140625 36.15625 69.828125 
Q 42.578125 72.515625 50 72.515625 
z
M 50 67.484375 
Q 43.609375 67.484375 38.078125 65.1875 
Q 32.5625 62.890625 27.984375 58.296875 
Q 23.390625 53.71875 21.046875 48.125 
Q 18.703125 42.53125 18.703125 36.1875 
Q 18.703125 29.890625 21.046875 24.34375 
Q 23.390625 18.796875 27.984375 14.203125 
Q 32.5625 9.625 38.078125 7.296875 
Q 43.609375 4.984375 50 4.984375 
Q 56.453125 4.984375 61.984375 7.296875 
Q 67.53125 9.625 72.125 14.203125 
Q 76.65625 18.75 78.921875 24.265625 
Q 81.203125 29.78125 81.203125 36.1875 
Q 81.203125 42.671875 78.90625 48.21875 
Q 76.609375 53.765625 72.125 58.296875 
Q 67.53125 62.890625 61.984375 65.1875 
Q 56.453125 67.484375 50 67.484375 
z
M 64.59375 55.515625 
L 64.59375 49.21875 
Q 61.375 50.828125 58.203125 51.609375 
Q 55.03125 52.390625 51.8125 52.390625 
Q 44.53125 52.390625 40.453125 48.109375 
Q 36.375 43.84375 36.375 36.1875 
Q 36.375 28.421875 40.546875 24.171875 
Q 44.734375 19.921875 52.296875 19.921875 
Q 55.421875 19.921875 58.390625 20.671875 
Q 61.375 21.4375 64.59375 23.09375 
L 64.59375 16.890625 
Q 61.328125 15.484375 57.984375 14.796875 
Q 54.640625 14.109375 51.21875 14.109375 
Q 40.671875 14.109375 34.546875 20.0625 
Q 28.421875 26.03125 28.421875 36.1875 
Q 28.421875 46.390625 34.546875 52.296875 
Q 40.671875 58.203125 51.21875 58.203125 
Q 54.78125 58.203125 58.09375 57.515625 
Q 61.421875 56.84375 64.59375 55.515625 
z
" id="DejaVuSans-169"/>
     <path d="M 53.515625 70.515625 
L 53.515625 60.890625 
Q 47.90625 63.578125 42.921875 64.890625 
Q 37.9375 66.21875 33.296875 66.21875 
Q 25.25 66.21875 20.875 63.09375 
Q 16.5 59.96875 16.5 54.203125 
Q 16.5 49.359375 19.40625 46.890625 
Q 22.3125 44.4375 30.421875 42.921875 
L 36.375 41.703125 
Q 47.40625 39.59375 52.65625 34.296875 
Q 57.90625 29 57.90625 20.125 
Q 57.90625 9.515625 50.796875 4.046875 
Q 43.703125 -1.421875 29.984375 -1.421875 
Q 24.8125 -1.421875 18.96875 -0.25 
Q 13.140625 0.921875 6.890625 3.21875 
L 6.890625 13.375 
Q 12.890625 10.015625 18.65625 8.296875 
Q 24.421875 6.59375 29.984375 6.59375 
Q 38.421875 6.59375 43.015625 9.90625 
Q 47.609375 13.234375 47.609375 19.390625 
Q 47.609375 24.75 44.3125 27.78125 
Q 41.015625 30.8125 33.5 32.328125 
L 27.484375 33.5 
Q 16.453125 35.6875 11.515625 40.375 
Q 6.59375 45.0625 6.59375 53.421875 
Q 6.59375 63.09375 13.40625 68.65625 
Q 20.21875 74.21875 32.171875 74.21875 
Q 37.3125 74.21875 42.625 73.28125 
Q 47.953125 72.359375 53.515625 70.515625 
z
" id="DejaVuSans-83"/>
     <path d="M 48.78125 52.59375 
L 48.78125 44.1875 
Q 44.96875 46.296875 41.140625 47.34375 
Q 37.3125 48.390625 33.40625 48.390625 
Q 24.65625 48.390625 19.8125 42.84375 
Q 14.984375 37.3125 14.984375 27.296875 
Q 14.984375 17.28125 19.8125 11.734375 
Q 24.65625 6.203125 33.40625 6.203125 
Q 37.3125 6.203125 41.140625 7.25 
Q 44.96875 8.296875 48.78125 10.40625 
L 48.78125 2.09375 
Q 45.015625 0.34375 40.984375 -0.53125 
Q 36.96875 -1.421875 32.421875 -1.421875 
Q 20.0625 -1.421875 12.78125 6.34375 
Q 5.515625 14.109375 5.515625 27.296875 
Q 5.515625 40.671875 12.859375 48.328125 
Q 20.21875 56 33.015625 56 
Q 37.15625 56 41.109375 55.140625 
Q 45.0625 54.296875 48.78125 52.59375 
z
" id="DejaVuSans-99"/>
     <path d="M 18.3125 70.21875 
L 18.3125 54.6875 
L 36.8125 54.6875 
L 36.8125 47.703125 
L 18.3125 47.703125 
L 18.3125 18.015625 
Q 18.3125 11.328125 20.140625 9.421875 
Q 21.96875 7.515625 27.59375 7.515625 
L 36.8125 7.515625 
L 36.8125 0 
L 27.59375 0 
Q 17.1875 0 13.234375 3.875 
Q 9.28125 7.765625 9.28125 18.015625 
L 9.28125 47.703125 
L 2.6875 47.703125 
L 2.6875 54.6875 
L 9.28125 54.6875 
L 9.28125 70.21875 
z
" id="DejaVuSans-116"/>
     <path d="M 2.984375 54.6875 
L 12.5 54.6875 
L 29.59375 8.796875 
L 46.6875 54.6875 
L 56.203125 54.6875 
L 35.6875 0 
L 23.484375 0 
z
" id="DejaVuSans-118"/>
    </defs>
    <g style="fill:#aaaaaa;" transform="translate(313.580875 333.299574)scale(0.1 -0.1)">
     <use xlink:href="#DejaVuSans-169"/>
     <use x="100" xlink:href="#DejaVuSans-32"/>
     <use x="131.787109" xlink:href="#DejaVuSans-83"/>
     <use x="195.263672" xlink:href="#DejaVuSans-99"/>
     <use x="250.244141" xlink:href="#DejaVuSans-111"/>
     <use x="311.425781" xlink:href="#DejaVuSans-116"/>
     <use x="350.634766" xlink:href="#DejaVuSans-116"/>
     <use x="389.84375" xlink:href="#DejaVuSans-32"/>
     <use x="421.630859" xlink:href="#DejaVuSans-83"/>
     <use x="485.107422" xlink:href="#DejaVuSans-105"/>
     <use x="512.890625" xlink:href="#DejaVuSans-101"/>
     <use x="574.414062" xlink:href="#DejaVuSans-118"/>
     <use x="633.59375" xlink:href="#DejaVuSans-101"/>
     <use x="695.117188" xlink:href="#DejaVuSans-114"/>
     <use x="736.230469" xlink:href="#DejaVuSans-116"/>
    </g>
   </g>
   <g id="text_22">
    <!-- Cases per country -->
    <defs>
     <path d="M 8.5 21.578125 
L 8.5 54.6875 
L 17.484375 54.6875 
L 17.484375 21.921875 
Q 17.484375 14.15625 20.5 10.265625 
Q 23.53125 6.390625 29.59375 6.390625 
Q 36.859375 6.390625 41.078125 11.03125 
Q 45.3125 15.671875 45.3125 23.6875 
L 45.3125 54.6875 
L 54.296875 54.6875 
L 54.296875 0 
L 45.3125 0 
L 45.3125 8.40625 
Q 42.046875 3.421875 37.71875 1 
Q 33.40625 -1.421875 27.6875 -1.421875 
Q 18.265625 -1.421875 13.375 4.4375 
Q 8.5 10.296875 8.5 21.578125 
z
M 31.109375 56 
z
" id="DejaVuSans-117"/>
     <path d="M 32.171875 -5.078125 
Q 28.375 -14.84375 24.75 -17.8125 
Q 21.140625 -20.796875 15.09375 -20.796875 
L 7.90625 -20.796875 
L 7.90625 -13.28125 
L 13.1875 -13.28125 
Q 16.890625 -13.28125 18.9375 -11.515625 
Q 21 -9.765625 23.484375 -3.21875 
L 25.09375 0.875 
L 2.984375 54.6875 
L 12.5 54.6875 
L 29.59375 11.921875 
L 46.6875 54.6875 
L 56.203125 54.6875 
z
" id="DejaVuSans-121"/>
    </defs>
    <g transform="translate(166.191875 16.318125)scale(0.12 -0.12)">
     <use xlink:href="#DejaVuSans-67"/>
     <use x="69.824219" xlink:href="#DejaVuSans-97"/>
     <use x="131.103516" xlink:href="#DejaVuSans-115"/>
     <use x="183.203125" xlink:href="#DejaVuSans-101"/>
     <use x="244.726562" xlink:href="#DejaVuSans-115"/>
     <use x="296.826172" xlink:href="#DejaVuSans-32"/>
     <use x="328.613281" xlink:href="#DejaVuSans-112"/>
     <use x="392.089844" xlink:href="#DejaVuSans-101"/>
     <use x="453.613281" xlink:href="#DejaVuSans-114"/>
     <use x="494.726562" xlink:href="#DejaVuSans-32"/>
     <use x="526.513672" xlink:href="#DejaVuSans-99"/>
     <use x="581.494141" xlink:href="#DejaVuSans-111"/>
     <use x="642.675781" xlink:href="#DejaVuSans-117"/>
     <use x="706.054688" xlink:href="#DejaVuSans-110"/>
     <use x="769.433594" xlink:href="#DejaVuSans-116"/>
     <use x="808.642578" xlink:href="#DejaVuSans-114"/>
     <use x="849.755859" xlink:href="#DejaVuSans-121"/>
    </g>
   </g>
   <g id="legend_1">
    <g id="patch_7">
     <path d="M 249.604688 234.758125 
L 381.128125 234.758125 
Q 383.128125 234.758125 383.128125 232.758125 
L 383.128125 175.02375 
Q 383.128125 173.02375 381.128125 173.02375 
L 249.604688 173.02375 
Q 247.604688 173.02375 247.604688 175.02375 
L 247.604688 232.758125 
Q 247.604688 234.758125 249.604688 234.758125 
z
" style="fill:#ffffff;opacity:0.8;stroke:#cccccc;stroke-linejoin:miter;"/>
    </g>
    <g id="text_23">
     <!-- Country (cases in 7 days) -->
     <defs>
      <path d="M 31 75.875 
Q 24.46875 64.65625 21.28125 53.65625 
Q 18.109375 42.671875 18.109375 31.390625 
Q 18.109375 20.125 21.3125 9.0625 
Q 24.515625 -2 31 -13.1875 
L 23.1875 -13.1875 
Q 15.875 -1.703125 12.234375 9.375 
Q 8.59375 20.453125 8.59375 31.390625 
Q 8.59375 42.28125 12.203125 53.3125 
Q 15.828125 64.359375 23.1875 75.875 
z
" id="DejaVuSans-40"/>
      <path d="M 8.203125 72.90625 
L 55.078125 72.90625 
L 55.078125 68.703125 
L 28.609375 0 
L 18.3125 0 
L 43.21875 64.59375 
L 8.203125 64.59375 
z
" id="DejaVuSans-55"/>
      <path d="M 45.40625 46.390625 
L 45.40625 75.984375 
L 54.390625 75.984375 
L 54.390625 0 
L 45.40625 0 
L 45.40625 8.203125 
Q 42.578125 3.328125 38.25 0.953125 
Q 33.9375 -1.421875 27.875 -1.421875 
Q 17.96875 -1.421875 11.734375 6.484375 
Q 5.515625 14.40625 5.515625 27.296875 
Q 5.515625 40.1875 11.734375 48.09375 
Q 17.96875 56 27.875 56 
Q 33.9375 56 38.25 53.625 
Q 42.578125 51.265625 45.40625 46.390625 
z
M 14.796875 27.296875 
Q 14.796875 17.390625 18.875 11.75 
Q 22.953125 6.109375 30.078125 6.109375 
Q 37.203125 6.109375 41.296875 11.75 
Q 45.40625 17.390625 45.40625 27.296875 
Q 45.40625 37.203125 41.296875 42.84375 
Q 37.203125 48.484375 30.078125 48.484375 
Q 22.953125 48.484375 18.875 42.84375 
Q 14.796875 37.203125 14.796875 27.296875 
z
" id="DejaVuSans-100"/>
      <path d="M 8.015625 75.875 
L 15.828125 75.875 
Q 23.140625 64.359375 26.78125 53.3125 
Q 30.421875 42.28125 30.421875 31.390625 
Q 30.421875 20.453125 26.78125 9.375 
Q 23.140625 -1.703125 15.828125 -13.1875 
L 8.015625 -13.1875 
Q 14.5 -2 17.703125 9.0625 
Q 20.90625 20.125 20.90625 31.390625 
Q 20.90625 42.671875 17.703125 53.65625 
Q 14.5 64.65625 8.015625 75.875 
z
" id="DejaVuSans-41"/>
     </defs>
     <g transform="translate(251.604688 184.622188)scale(0.1 -0.1)">
      <use xlink:href="#DejaVuSans-67"/>
      <use x="69.824219" xlink:href="#DejaVuSans-111"/>
      <use x="131.005859" xlink:href="#DejaVuSans-117"/>
      <use x="194.384766" xlink:href="#DejaVuSans-110"/>
      <use x="257.763672" xlink:href="#DejaVuSans-116"/>
      <use x="296.972656" xlink:href="#DejaVuSans-114"/>
      <use x="338.085938" xlink:href="#DejaVuSans-121"/>
      <use x="397.265625" xlink:href="#DejaVuSans-32"/>
      <use x="429.052734" xlink:href="#DejaVuSans-40"/>
      <use x="468.066406" xlink:href="#DejaVuSans-99"/>
      <use x="523.046875" xlink:href="#DejaVuSans-97"/>
      <use x="584.326172" xlink:href="#DejaVuSans-115"/>
      <use x="636.425781" xlink:href="#DejaVuSans-101"/>
      <use x="697.949219" xlink:href="#DejaVuSans-115"/>
      <use x="750.048828" xlink:href="#DejaVuSans-32"/>
      <use x="781.835938" xlink:href="#DejaVuSans-105"/>
      <use x="809.619141" xlink:href="#DejaVuSans-110"/>
      <use x="872.998047" xlink:href="#DejaVuSans-32"/>
      <use x="904.785156" xlink:href="#DejaVuSans-55"/>
      <use x="968.408203" xlink:href="#DejaVuSans-32"/>
      <use x="1000.195312" xlink:href="#DejaVuSans-100"/>
      <use x="1063.671875" xlink:href="#DejaVuSans-97"/>
      <use x="1124.951172" xlink:href="#DejaVuSans-121"/>
      <use x="1184.130859" xlink:href="#DejaVuSans-115"/>
      <use x="1236.230469" xlink:href="#DejaVuSans-41"/>
     </g>
    </g>
    <g id="line2d_51">
     <path d="M 272.866406 195.800313 
L 292.866406 195.800313 
" style="fill:none;stroke:#ff7f0e;stroke-linecap:square;stroke-width:1.5;"/>
    </g>
    <g id="line2d_52">
     <g>
      <use style="fill:#ff7f0e;stroke:#ff7f0e;" x="282.866406" xlink:href="#mbc4d17d5ef" y="195.800313"/>
     </g>
    </g>
    <g id="text_24">
     <!-- US (1.9$\times$) -->
     <defs>
      <path d="M 8.6875 72.90625 
L 18.609375 72.90625 
L 18.609375 28.609375 
Q 18.609375 16.890625 22.84375 11.734375 
Q 27.09375 6.59375 36.625 6.59375 
Q 46.09375 6.59375 50.34375 11.734375 
Q 54.59375 16.890625 54.59375 28.609375 
L 54.59375 72.90625 
L 64.5 72.90625 
L 64.5 27.390625 
Q 64.5 13.140625 57.4375 5.859375 
Q 50.390625 -1.421875 36.625 -1.421875 
Q 22.796875 -1.421875 15.734375 5.859375 
Q 8.6875 13.140625 8.6875 27.390625 
z
" id="DejaVuSans-85"/>
      <path d="M 70.125 53.71875 
L 47.796875 31.296875 
L 70.125 8.984375 
L 64.3125 3.078125 
L 41.890625 25.484375 
L 19.484375 3.078125 
L 13.71875 8.984375 
L 35.984375 31.296875 
L 13.71875 53.71875 
L 19.484375 59.625 
L 41.890625 37.203125 
L 64.3125 59.625 
z
" id="DejaVuSans-215"/>
     </defs>
     <g transform="translate(300.866406 199.300313)scale(0.1 -0.1)">
      <use transform="translate(0 0.125)" xlink:href="#DejaVuSans-85"/>
      <use transform="translate(73.193359 0.125)" xlink:href="#DejaVuSans-83"/>
      <use transform="translate(136.669922 0.125)" xlink:href="#DejaVuSans-32"/>
      <use transform="translate(168.457031 0.125)" xlink:href="#DejaVuSans-40"/>
      <use transform="translate(207.470703 0.125)" xlink:href="#DejaVuSans-49"/>
      <use transform="translate(271.09375 0.125)" xlink:href="#DejaVuSans-46"/>
      <use transform="translate(302.880859 0.125)" xlink:href="#DejaVuSans-57"/>
      <use transform="translate(366.503906 0.125)" xlink:href="#DejaVuSans-215"/>
      <use transform="translate(450.292969 0.125)" xlink:href="#DejaVuSans-41"/>
     </g>
    </g>
    <g id="line2d_53">
     <path d="M 272.866406 210.48 
L 292.866406 210.48 
" style="fill:none;stroke:#2ca02c;stroke-linecap:square;stroke-width:1.5;"/>
    </g>
    <g id="line2d_54">
     <g>
      <use style="fill:#2ca02c;stroke:#2ca02c;" x="282.866406" xlink:href="#mc8db068bba" y="210.48"/>
     </g>
    </g>
    <g id="text_25">
     <!-- Italy (1.2$\times$) -->
     <defs>
      <path d="M 9.8125 72.90625 
L 19.671875 72.90625 
L 19.671875 0 
L 9.8125 0 
z
" id="DejaVuSans-73"/>
     </defs>
     <g transform="translate(300.866406 213.98)scale(0.1 -0.1)">
      <use transform="translate(0 0.015625)" xlink:href="#DejaVuSans-73"/>
      <use transform="translate(29.492188 0.015625)" xlink:href="#DejaVuSans-116"/>
      <use transform="translate(68.701172 0.015625)" xlink:href="#DejaVuSans-97"/>
      <use transform="translate(129.980469 0.015625)" xlink:href="#DejaVuSans-108"/>
      <use transform="translate(157.763672 0.015625)" xlink:href="#DejaVuSans-121"/>
      <use transform="translate(216.943359 0.015625)" xlink:href="#DejaVuSans-32"/>
      <use transform="translate(248.730469 0.015625)" xlink:href="#DejaVuSans-40"/>
      <use transform="translate(287.744141 0.015625)" xlink:href="#DejaVuSans-49"/>
      <use transform="translate(351.367188 0.015625)" xlink:href="#DejaVuSans-46"/>
      <use transform="translate(383.076172 0.015625)" xlink:href="#DejaVuSans-50"/>
      <use transform="translate(446.699219 0.015625)" xlink:href="#DejaVuSans-215"/>
      <use transform="translate(530.488281 0.015625)" xlink:href="#DejaVuSans-41"/>
     </g>
    </g>
    <g id="line2d_55">
     <path d="M 272.866406 225.178438 
L 292.866406 225.178438 
" style="fill:none;stroke:#1f77b4;stroke-linecap:square;stroke-width:1.5;"/>
    </g>
    <g id="line2d_56">
     <g>
      <use style="fill:#1f77b4;stroke:#1f77b4;" x="282.866406" xlink:href="#m4d8001b3c5" y="225.178438"/>
     </g>
    </g>
    <g id="text_26">
     <!-- UK (2.0$\times$) -->
     <defs>
      <path d="M 9.8125 72.90625 
L 19.671875 72.90625 
L 19.671875 42.09375 
L 52.390625 72.90625 
L 65.09375 72.90625 
L 28.90625 38.921875 
L 67.671875 0 
L 54.6875 0 
L 19.671875 35.109375 
L 19.671875 0 
L 9.8125 0 
z
" id="DejaVuSans-75"/>
     </defs>
     <g transform="translate(300.866406 228.678438)scale(0.1 -0.1)">
      <use transform="translate(0 0.125)" xlink:href="#DejaVuSans-85"/>
      <use transform="translate(73.177734 0.125)" xlink:href="#DejaVuSans-75"/>
      <use transform="translate(138.753906 0.125)" xlink:href="#DejaVuSans-32"/>
      <use transform="translate(170.541016 0.125)" xlink:href="#DejaVuSans-40"/>
      <use transform="translate(209.554688 0.125)" xlink:href="#DejaVuSans-50"/>
      <use transform="translate(273.177734 0.125)" xlink:href="#DejaVuSans-46"/>
      <use transform="translate(304.964844 0.125)" xlink:href="#DejaVuSans-48"/>
      <use transform="translate(368.587891 0.125)" xlink:href="#DejaVuSans-215"/>
      <use transform="translate(452.376953 0.125)" xlink:href="#DejaVuSans-41"/>
     </g>
    </g>
   </g>
   <g id="legend_2">
    <g id="patch_8">
     <path d="M 62.024125 326.734125 
L 364.524125 326.734125 
Q 366.524125 326.734125 366.524125 324.734125 
L 366.524125 273.960375 
Q 366.524125 271.960375 364.524125 271.960375 
L 62.024125 271.960375 
Q 60.024125 271.960375 60.024125 273.960375 
L 60.024125 324.734125 
Q 60.024125 326.734125 62.024125 326.734125 
z
" style="fill:#ffffff;opacity:0.8;stroke:#cccccc;stroke-linejoin:miter;"/>
    </g>
    <g id="line2d_57">
     <path d="M 64.024125 286.7085 
L 84.024125 286.7085 
" style="fill:none;stroke:#ff7f0e;stroke-linecap:square;stroke-opacity:0.7;stroke-width:1.5;"/>
    </g>
    <g id="line2d_58"/>
    <g id="text_27">
     <!-- 2$\times$ every 2.4 days -->
     <defs>
      <path d="M 37.796875 64.3125 
L 12.890625 25.390625 
L 37.796875 25.390625 
z
M 35.203125 72.90625 
L 47.609375 72.90625 
L 47.609375 25.390625 
L 58.015625 25.390625 
L 58.015625 17.1875 
L 47.609375 17.1875 
L 47.609375 0 
L 37.796875 0 
L 37.796875 17.1875 
L 4.890625 17.1875 
L 4.890625 26.703125 
z
" id="DejaVuSans-52"/>
     </defs>
     <g transform="translate(92.024125 283.560375)scale(0.1 -0.1)">
      <use transform="translate(0 0.015625)" xlink:href="#DejaVuSans-50"/>
      <use transform="translate(63.623047 0.015625)" xlink:href="#DejaVuSans-215"/>
      <use transform="translate(147.412109 0.015625)" xlink:href="#DejaVuSans-32"/>
      <use transform="translate(179.199219 0.015625)" xlink:href="#DejaVuSans-101"/>
      <use transform="translate(240.722656 0.015625)" xlink:href="#DejaVuSans-118"/>
      <use transform="translate(299.902344 0.015625)" xlink:href="#DejaVuSans-101"/>
      <use transform="translate(361.425781 0.015625)" xlink:href="#DejaVuSans-114"/>
      <use transform="translate(402.539062 0.015625)" xlink:href="#DejaVuSans-121"/>
      <use transform="translate(461.71875 0.015625)" xlink:href="#DejaVuSans-32"/>
      <use transform="translate(493.505859 0.015625)" xlink:href="#DejaVuSans-50"/>
      <use transform="translate(557.128906 0.015625)" xlink:href="#DejaVuSans-46"/>
      <use transform="translate(588.916016 0.015625)" xlink:href="#DejaVuSans-52"/>
      <use transform="translate(652.539062 0.015625)" xlink:href="#DejaVuSans-32"/>
      <use transform="translate(684.326172 0.015625)" xlink:href="#DejaVuSans-100"/>
      <use transform="translate(747.802734 0.015625)" xlink:href="#DejaVuSans-97"/>
      <use transform="translate(809.082031 0.015625)" xlink:href="#DejaVuSans-121"/>
      <use transform="translate(868.261719 0.015625)" xlink:href="#DejaVuSans-115"/>
     </g>
     <!-- (all solid lines) -->
     <g transform="translate(92.024125 294.7785)scale(0.1 -0.1)">
      <use xlink:href="#DejaVuSans-40"/>
      <use x="39.013672" xlink:href="#DejaVuSans-97"/>
      <use x="100.292969" xlink:href="#DejaVuSans-108"/>
      <use x="128.076172" xlink:href="#DejaVuSans-108"/>
      <use x="155.859375" xlink:href="#DejaVuSans-32"/>
      <use x="187.646484" xlink:href="#DejaVuSans-115"/>
      <use x="239.746094" xlink:href="#DejaVuSans-111"/>
      <use x="300.927734" xlink:href="#DejaVuSans-108"/>
      <use x="328.710938" xlink:href="#DejaVuSans-105"/>
      <use x="356.494141" xlink:href="#DejaVuSans-100"/>
      <use x="419.970703" xlink:href="#DejaVuSans-32"/>
      <use x="451.757812" xlink:href="#DejaVuSans-108"/>
      <use x="479.541016" xlink:href="#DejaVuSans-105"/>
      <use x="507.324219" xlink:href="#DejaVuSans-110"/>
      <use x="570.703125" xlink:href="#DejaVuSans-101"/>
      <use x="632.226562" xlink:href="#DejaVuSans-115"/>
      <use x="684.326172" xlink:href="#DejaVuSans-41"/>
     </g>
    </g>
    <g id="line2d_59">
     <path d="M 64.024125 312.595375 
L 84.024125 312.595375 
" style="fill:none;stroke:#ff7f0e;stroke-dasharray:7.4,3.2;stroke-dashoffset:0;stroke-opacity:0.7;stroke-width:2;"/>
    </g>
    <g id="line2d_60"/>
    <g id="text_28">
     <!-- Est. health care saturation -->
     <defs>
      <path d="M 9.8125 72.90625 
L 55.90625 72.90625 
L 55.90625 64.59375 
L 19.671875 64.59375 
L 19.671875 43.015625 
L 54.390625 43.015625 
L 54.390625 34.71875 
L 19.671875 34.71875 
L 19.671875 8.296875 
L 56.78125 8.296875 
L 56.78125 0 
L 9.8125 0 
z
" id="DejaVuSans-69"/>
      <path d="M 54.890625 33.015625 
L 54.890625 0 
L 45.90625 0 
L 45.90625 32.71875 
Q 45.90625 40.484375 42.875 44.328125 
Q 39.84375 48.1875 33.796875 48.1875 
Q 26.515625 48.1875 22.3125 43.546875 
Q 18.109375 38.921875 18.109375 30.90625 
L 18.109375 0 
L 9.078125 0 
L 9.078125 75.984375 
L 18.109375 75.984375 
L 18.109375 46.1875 
Q 21.34375 51.125 25.703125 53.5625 
Q 30.078125 56 35.796875 56 
Q 45.21875 56 50.046875 50.171875 
Q 54.890625 44.34375 54.890625 33.015625 
z
" id="DejaVuSans-104"/>
     </defs>
     <g transform="translate(92.024125 309.456625)scale(0.1 -0.1)">
      <use xlink:href="#DejaVuSans-69"/>
      <use x="63.183594" xlink:href="#DejaVuSans-115"/>
      <use x="115.283203" xlink:href="#DejaVuSans-116"/>
      <use x="154.492188" xlink:href="#DejaVuSans-46"/>
      <use x="186.279297" xlink:href="#DejaVuSans-32"/>
      <use x="218.066406" xlink:href="#DejaVuSans-104"/>
      <use x="281.445312" xlink:href="#DejaVuSans-101"/>
      <use x="342.96875" xlink:href="#DejaVuSans-97"/>
      <use x="404.248047" xlink:href="#DejaVuSans-108"/>
      <use x="432.03125" xlink:href="#DejaVuSans-116"/>
      <use x="471.240234" xlink:href="#DejaVuSans-104"/>
      <use x="534.619141" xlink:href="#DejaVuSans-32"/>
      <use x="566.40625" xlink:href="#DejaVuSans-99"/>
      <use x="621.386719" xlink:href="#DejaVuSans-97"/>
      <use x="682.666016" xlink:href="#DejaVuSans-114"/>
      <use x="723.748047" xlink:href="#DejaVuSans-101"/>
      <use x="785.271484" xlink:href="#DejaVuSans-32"/>
      <use x="817.058594" xlink:href="#DejaVuSans-115"/>
      <use x="869.158203" xlink:href="#DejaVuSans-97"/>
      <use x="930.4375" xlink:href="#DejaVuSans-116"/>
      <use x="969.646484" xlink:href="#DejaVuSans-117"/>
      <use x="1033.025391" xlink:href="#DejaVuSans-114"/>
      <use x="1074.138672" xlink:href="#DejaVuSans-97"/>
      <use x="1135.417969" xlink:href="#DejaVuSans-116"/>
      <use x="1174.626953" xlink:href="#DejaVuSans-105"/>
      <use x="1202.410156" xlink:href="#DejaVuSans-111"/>
      <use x="1263.591797" xlink:href="#DejaVuSans-110"/>
     </g>
     <!-- (all dotted lines) -->
     <g transform="translate(92.024125 320.654438)scale(0.1 -0.1)">
      <use xlink:href="#DejaVuSans-40"/>
      <use x="39.013672" xlink:href="#DejaVuSans-97"/>
      <use x="100.292969" xlink:href="#DejaVuSans-108"/>
      <use x="128.076172" xlink:href="#DejaVuSans-108"/>
      <use x="155.859375" xlink:href="#DejaVuSans-32"/>
      <use x="187.646484" xlink:href="#DejaVuSans-100"/>
      <use x="251.123047" xlink:href="#DejaVuSans-111"/>
      <use x="312.304688" xlink:href="#DejaVuSans-116"/>
      <use x="351.513672" xlink:href="#DejaVuSans-116"/>
      <use x="390.722656" xlink:href="#DejaVuSans-101"/>
      <use x="452.246094" xlink:href="#DejaVuSans-100"/>
      <use x="515.722656" xlink:href="#DejaVuSans-32"/>
      <use x="547.509766" xlink:href="#DejaVuSans-108"/>
      <use x="575.292969" xlink:href="#DejaVuSans-105"/>
      <use x="603.076172" xlink:href="#DejaVuSans-110"/>
      <use x="666.455078" xlink:href="#DejaVuSans-101"/>
      <use x="727.978516" xlink:href="#DejaVuSans-115"/>
      <use x="780.078125" xlink:href="#DejaVuSans-41"/>
     </g>
    </g>
    <g id="line2d_61">
     <path d="M 244.716313 286.7085 
L 264.716313 286.7085 
" style="fill:none;stroke:#2ca02c;stroke-dasharray:12.8,3.2,2,3.2;stroke-dashoffset:0;stroke-opacity:0.7;stroke-width:2;"/>
    </g>
    <g id="line2d_62"/>
    <g id="text_29">
     <!-- Actual health -->
     <g transform="translate(272.716313 283.56975)scale(0.1 -0.1)">
      <use xlink:href="#DejaVuSans-65"/>
      <use x="68.392578" xlink:href="#DejaVuSans-99"/>
      <use x="123.373047" xlink:href="#DejaVuSans-116"/>
      <use x="162.582031" xlink:href="#DejaVuSans-117"/>
      <use x="225.960938" xlink:href="#DejaVuSans-97"/>
      <use x="287.240234" xlink:href="#DejaVuSans-108"/>
      <use x="315.023438" xlink:href="#DejaVuSans-32"/>
      <use x="346.810547" xlink:href="#DejaVuSans-104"/>
      <use x="410.189453" xlink:href="#DejaVuSans-101"/>
      <use x="471.712891" xlink:href="#DejaVuSans-97"/>
      <use x="532.992188" xlink:href="#DejaVuSans-108"/>
      <use x="560.775391" xlink:href="#DejaVuSans-116"/>
      <use x="599.984375" xlink:href="#DejaVuSans-104"/>
     </g>
     <!-- care saturation -->
     <g transform="translate(272.716313 294.767563)scale(0.1 -0.1)">
      <use xlink:href="#DejaVuSans-99"/>
      <use x="54.980469" xlink:href="#DejaVuSans-97"/>
      <use x="116.259766" xlink:href="#DejaVuSans-114"/>
      <use x="157.341797" xlink:href="#DejaVuSans-101"/>
      <use x="218.865234" xlink:href="#DejaVuSans-32"/>
      <use x="250.652344" xlink:href="#DejaVuSans-115"/>
      <use x="302.751953" xlink:href="#DejaVuSans-97"/>
      <use x="364.03125" xlink:href="#DejaVuSans-116"/>
      <use x="403.240234" xlink:href="#DejaVuSans-117"/>
      <use x="466.619141" xlink:href="#DejaVuSans-114"/>
      <use x="507.732422" xlink:href="#DejaVuSans-97"/>
      <use x="569.011719" xlink:href="#DejaVuSans-116"/>
      <use x="608.220703" xlink:href="#DejaVuSans-105"/>
      <use x="636.003906" xlink:href="#DejaVuSans-111"/>
      <use x="697.185547" xlink:href="#DejaVuSans-110"/>
     </g>
    </g>
    <g id="line2d_63">
     <path d="M 244.716313 312.584438 
L 264.716313 312.584438 
" style="fill:none;stroke:#ff7f0e;stroke-linecap:square;stroke-opacity:0.3;stroke-width:4;"/>
    </g>
    <g id="line2d_64"/>
    <g id="text_30">
     <!-- Started social -->
     <g transform="translate(272.716313 309.445688)scale(0.1 -0.1)">
      <use xlink:href="#DejaVuSans-83"/>
      <use x="63.476562" xlink:href="#DejaVuSans-116"/>
      <use x="102.685547" xlink:href="#DejaVuSans-97"/>
      <use x="163.964844" xlink:href="#DejaVuSans-114"/>
      <use x="205.078125" xlink:href="#DejaVuSans-116"/>
      <use x="244.287109" xlink:href="#DejaVuSans-101"/>
      <use x="305.810547" xlink:href="#DejaVuSans-100"/>
      <use x="369.287109" xlink:href="#DejaVuSans-32"/>
      <use x="401.074219" xlink:href="#DejaVuSans-115"/>
      <use x="453.173828" xlink:href="#DejaVuSans-111"/>
      <use x="514.355469" xlink:href="#DejaVuSans-99"/>
      <use x="569.335938" xlink:href="#DejaVuSans-105"/>
      <use x="597.119141" xlink:href="#DejaVuSans-97"/>
      <use x="658.398438" xlink:href="#DejaVuSans-108"/>
     </g>
     <!-- isolation (all bars) -->
     <g transform="translate(272.716313 320.6435)scale(0.1 -0.1)">
      <use xlink:href="#DejaVuSans-105"/>
      <use x="27.783203" xlink:href="#DejaVuSans-115"/>
      <use x="79.882812" xlink:href="#DejaVuSans-111"/>
      <use x="141.064453" xlink:href="#DejaVuSans-108"/>
      <use x="168.847656" xlink:href="#DejaVuSans-97"/>
      <use x="230.126953" xlink:href="#DejaVuSans-116"/>
      <use x="269.335938" xlink:href="#DejaVuSans-105"/>
      <use x="297.119141" xlink:href="#DejaVuSans-111"/>
      <use x="358.300781" xlink:href="#DejaVuSans-110"/>
      <use x="421.679688" xlink:href="#DejaVuSans-32"/>
      <use x="453.466797" xlink:href="#DejaVuSans-40"/>
      <use x="492.480469" xlink:href="#DejaVuSans-97"/>
      <use x="553.759766" xlink:href="#DejaVuSans-108"/>
      <use x="581.542969" xlink:href="#DejaVuSans-108"/>
      <use x="609.326172" xlink:href="#DejaVuSans-32"/>
      <use x="641.113281" xlink:href="#DejaVuSans-98"/>
      <use x="704.589844" xlink:href="#DejaVuSans-97"/>
      <use x="765.869141" xlink:href="#DejaVuSans-114"/>
      <use x="806.982422" xlink:href="#DejaVuSans-115"/>
      <use x="859.082031" xlink:href="#DejaVuSans-41"/>
     </g>
    </g>
   </g>
  </g>
 </g>
 <defs>
  <clipPath id="p189a379dbb">
   <rect height="217.44" width="334.8" x="53.328125" y="22.318125"/>
  </clipPath>
 </defs>
</svg>
