<?xml version="1.0" encoding="utf-8" standalone="no"?>
<!DOCTYPE svg PUBLIC "-//W3C//DTD SVG 1.1//EN"
  "http://www.w3.org/Graphics/SVG/1.1/DTD/svg11.dtd">
<!-- Created with matplotlib (https://matplotlib.org/) -->
<svg height="345.177789pt" version="1.1" viewBox="0 0 395.328125 345.177789" width="395.328125pt" xmlns="http://www.w3.org/2000/svg" xmlns:xlink="http://www.w3.org/1999/xlink">
 <defs>
  <style type="text/css">
*{stroke-linecap:butt;stroke-linejoin:round;}
  </style>
 </defs>
 <g id="figure_1">
  <g id="patch_1">
   <path d="M 0 345.177789 
L 395.328125 345.177789 
L 395.328125 0 
L 0 0 
z
" style="fill:#ffffff;"/>
  </g>
  <g id="axes_1">
   <g id="patch_2">
    <path d="M 53.328125 239.758125 
L 388.128125 239.758125 
L 388.128125 22.318125 
L 53.328125 22.318125 
z
" style="fill:#ffffff;"/>
   </g>
   <g id="line2d_1">
    <path clip-path="url(#p42e9e7f174)" d="M 68.036585 346.177789 
L 68.427548 345.593107 
L 73.460688 338.066075 
L 78.493829 330.539043 
L 83.52697 323.012011 
L 88.560111 315.484978 
L 93.593252 307.957946 
L 98.626393 300.430914 
L 103.659534 292.903882 
L 108.692675 285.37685 
L 113.725815 277.849818 
L 118.758956 270.322786 
L 123.792097 262.795754 
L 128.825238 255.268722 
L 133.858379 247.741689 
L 138.89152 240.214657 
L 143.924661 232.687625 
L 148.957802 225.160593 
L 153.990942 217.633561 
L 159.024083 210.106529 
L 164.057224 202.579497 
L 169.090365 195.052465 
L 174.123506 187.525433 
L 179.156647 179.9984 
L 184.189788 172.471368 
L 189.222929 164.944336 
L 194.256069 157.417304 
L 199.28921 149.890272 
L 204.322351 142.36324 
L 209.355492 134.836208 
L 214.388633 127.309176 
L 219.421774 119.782143 
L 224.454915 112.255111 
L 229.488055 104.728079 
L 234.521196 97.201047 
L 239.554337 89.674015 
L 244.587478 82.146983 
L 249.620619 74.619951 
L 254.65376 67.092919 
L 259.686901 59.565887 
L 264.720042 52.038854 
L 269.753182 44.511822 
L 274.786323 36.98479 
L 279.819464 29.457758 
L 284.852605 21.930726 
" style="fill:none;stroke:#ff7f0e;stroke-linecap:square;stroke-opacity:0.7;stroke-width:1.5;"/>
   </g>
   <g id="line2d_2">
    <path clip-path="url(#p42e9e7f174)" d="M 60.617994 346.177789 
L 63.394407 342.025681 
L 68.427548 334.498649 
L 73.460688 326.971616 
L 78.493829 319.444584 
L 83.52697 311.917552 
L 88.560111 304.39052 
L 93.593252 296.863488 
L 98.626393 289.336456 
L 103.659534 281.809424 
L 108.692675 274.282392 
L 113.725815 266.75536 
L 118.758956 259.228327 
L 123.792097 251.701295 
L 128.825238 244.174263 
L 133.858379 236.647231 
L 138.89152 229.120199 
L 143.924661 221.593167 
L 148.957802 214.066135 
L 153.990942 206.539103 
L 159.024083 199.012071 
L 164.057224 191.485038 
L 169.090365 183.958006 
L 174.123506 176.430974 
L 179.156647 168.903942 
L 184.189788 161.37691 
L 189.222929 153.849878 
L 194.256069 146.322846 
L 199.28921 138.795814 
L 204.322351 131.268781 
L 209.355492 123.741749 
L 214.388633 116.214717 
L 219.421774 108.687685 
L 224.454915 101.160653 
L 229.488055 93.633621 
L 234.521196 86.106589 
L 239.554337 78.579557 
L 244.587478 71.052525 
L 249.620619 63.525492 
L 254.65376 55.99846 
L 259.686901 48.471428 
L 264.720042 40.944396 
L 269.753182 33.417364 
L 274.786323 25.890332 
L 279.819464 18.3633 
L 284.852605 10.836268 
" style="fill:none;stroke:#1f77b4;stroke-linecap:square;stroke-opacity:0.7;stroke-width:1.5;"/>
   </g>
   <g id="line2d_3">
    <path clip-path="url(#p42e9e7f174)" d="M 38.228702 271.332625 
L 43.261843 263.805592 
L 48.294984 256.27856 
L 53.328125 248.751528 
L 58.361266 241.224496 
L 63.394407 233.697464 
L 68.427548 226.170432 
L 73.460688 218.6434 
L 78.493829 211.116368 
L 83.52697 203.589336 
L 88.560111 196.062303 
L 93.593252 188.535271 
L 98.626393 181.008239 
L 103.659534 173.481207 
L 108.692675 165.954175 
L 113.725815 158.427143 
L 118.758956 150.900111 
L 123.792097 143.373079 
L 128.825238 135.846047 
L 133.858379 128.319014 
L 138.89152 120.791982 
L 143.924661 113.26495 
L 148.957802 105.737918 
L 153.990942 98.210886 
L 159.024083 90.683854 
L 164.057224 83.156822 
L 169.090365 75.62979 
L 174.123506 68.102758 
L 179.156647 60.575725 
L 184.189788 53.048693 
L 189.222929 45.521661 
L 194.256069 37.994629 
L 199.28921 30.467597 
L 204.322351 22.940565 
L 209.355492 15.413533 
L 214.388633 7.886501 
L 219.421774 0.359469 
L 220.330817 -1 
" style="fill:none;stroke:#2ca02c;stroke-linecap:square;stroke-opacity:0.7;stroke-width:1.5;"/>
   </g>
   <g id="matplotlib.axis_1">
    <g id="xtick_1">
     <g id="line2d_4">
      <path clip-path="url(#p42e9e7f174)" d="M 78.493829 239.758125 
L 78.493829 22.318125 
" style="fill:none;stroke:#b0b0b0;stroke-linecap:square;stroke-opacity:0.8;stroke-width:0.8;"/>
     </g>
     <g id="line2d_5">
      <defs>
       <path d="M 0 0 
L 0 3.5 
" id="m9c1a2d9db4" style="stroke:#000000;stroke-width:0.8;"/>
      </defs>
      <g>
       <use style="stroke:#000000;stroke-width:0.8;" x="78.493829" xlink:href="#m9c1a2d9db4" y="239.758125"/>
      </g>
     </g>
     <g id="text_1">
      <!-- Feb. -->
      <defs>
       <path d="M 9.8125 72.90625 
L 51.703125 72.90625 
L 51.703125 64.59375 
L 19.671875 64.59375 
L 19.671875 43.109375 
L 48.578125 43.109375 
L 48.578125 34.8125 
L 19.671875 34.8125 
L 19.671875 0 
L 9.8125 0 
z
" id="DejaVuSans-70"/>
       <path d="M 56.203125 29.59375 
L 56.203125 25.203125 
L 14.890625 25.203125 
Q 15.484375 15.921875 20.484375 11.0625 
Q 25.484375 6.203125 34.421875 6.203125 
Q 39.59375 6.203125 44.453125 7.46875 
Q 49.3125 8.734375 54.109375 11.28125 
L 54.109375 2.78125 
Q 49.265625 0.734375 44.1875 -0.34375 
Q 39.109375 -1.421875 33.890625 -1.421875 
Q 20.796875 -1.421875 13.15625 6.1875 
Q 5.515625 13.8125 5.515625 26.8125 
Q 5.515625 40.234375 12.765625 48.109375 
Q 20.015625 56 32.328125 56 
Q 43.359375 56 49.78125 48.890625 
Q 56.203125 41.796875 56.203125 29.59375 
z
M 47.21875 32.234375 
Q 47.125 39.59375 43.09375 43.984375 
Q 39.0625 48.390625 32.421875 48.390625 
Q 24.90625 48.390625 20.390625 44.140625 
Q 15.875 39.890625 15.1875 32.171875 
z
" id="DejaVuSans-101"/>
       <path d="M 48.6875 27.296875 
Q 48.6875 37.203125 44.609375 42.84375 
Q 40.53125 48.484375 33.40625 48.484375 
Q 26.265625 48.484375 22.1875 42.84375 
Q 18.109375 37.203125 18.109375 27.296875 
Q 18.109375 17.390625 22.1875 11.75 
Q 26.265625 6.109375 33.40625 6.109375 
Q 40.53125 6.109375 44.609375 11.75 
Q 48.6875 17.390625 48.6875 27.296875 
z
M 18.109375 46.390625 
Q 20.953125 51.265625 25.265625 53.625 
Q 29.59375 56 35.59375 56 
Q 45.5625 56 51.78125 48.09375 
Q 58.015625 40.1875 58.015625 27.296875 
Q 58.015625 14.40625 51.78125 6.484375 
Q 45.5625 -1.421875 35.59375 -1.421875 
Q 29.59375 -1.421875 25.265625 0.953125 
Q 20.953125 3.328125 18.109375 8.203125 
L 18.109375 0 
L 9.078125 0 
L 9.078125 75.984375 
L 18.109375 75.984375 
z
" id="DejaVuSans-98"/>
       <path d="M 10.6875 12.40625 
L 21 12.40625 
L 21 0 
L 10.6875 0 
z
" id="DejaVuSans-46"/>
      </defs>
      <g transform="translate(67.782111 254.356563)scale(0.1 -0.1)">
       <use xlink:href="#DejaVuSans-70"/>
       <use x="57.441406" xlink:href="#DejaVuSans-101"/>
       <use x="118.964844" xlink:href="#DejaVuSans-98"/>
       <use x="182.441406" xlink:href="#DejaVuSans-46"/>
      </g>
      <!-- 23 -->
      <defs>
       <path d="M 19.1875 8.296875 
L 53.609375 8.296875 
L 53.609375 0 
L 7.328125 0 
L 7.328125 8.296875 
Q 12.9375 14.109375 22.625 23.890625 
Q 32.328125 33.6875 34.8125 36.53125 
Q 39.546875 41.84375 41.421875 45.53125 
Q 43.3125 49.21875 43.3125 52.78125 
Q 43.3125 58.59375 39.234375 62.25 
Q 35.15625 65.921875 28.609375 65.921875 
Q 23.96875 65.921875 18.8125 64.3125 
Q 13.671875 62.703125 7.8125 59.421875 
L 7.8125 69.390625 
Q 13.765625 71.78125 18.9375 73 
Q 24.125 74.21875 28.421875 74.21875 
Q 39.75 74.21875 46.484375 68.546875 
Q 53.21875 62.890625 53.21875 53.421875 
Q 53.21875 48.921875 51.53125 44.890625 
Q 49.859375 40.875 45.40625 35.40625 
Q 44.1875 33.984375 37.640625 27.21875 
Q 31.109375 20.453125 19.1875 8.296875 
z
" id="DejaVuSans-50"/>
       <path d="M 40.578125 39.3125 
Q 47.65625 37.796875 51.625 33 
Q 55.609375 28.21875 55.609375 21.1875 
Q 55.609375 10.40625 48.1875 4.484375 
Q 40.765625 -1.421875 27.09375 -1.421875 
Q 22.515625 -1.421875 17.65625 -0.515625 
Q 12.796875 0.390625 7.625 2.203125 
L 7.625 11.71875 
Q 11.71875 9.328125 16.59375 8.109375 
Q 21.484375 6.890625 26.8125 6.890625 
Q 36.078125 6.890625 40.9375 10.546875 
Q 45.796875 14.203125 45.796875 21.1875 
Q 45.796875 27.640625 41.28125 31.265625 
Q 36.765625 34.90625 28.71875 34.90625 
L 20.21875 34.90625 
L 20.21875 43.015625 
L 29.109375 43.015625 
Q 36.375 43.015625 40.234375 45.921875 
Q 44.09375 48.828125 44.09375 54.296875 
Q 44.09375 59.90625 40.109375 62.90625 
Q 36.140625 65.921875 28.71875 65.921875 
Q 24.65625 65.921875 20.015625 65.03125 
Q 15.375 64.15625 9.8125 62.3125 
L 9.8125 71.09375 
Q 15.4375 72.65625 20.34375 73.4375 
Q 25.25 74.21875 29.59375 74.21875 
Q 40.828125 74.21875 47.359375 69.109375 
Q 53.90625 64.015625 53.90625 55.328125 
Q 53.90625 49.265625 50.4375 45.09375 
Q 46.96875 40.921875 40.578125 39.3125 
z
" id="DejaVuSans-51"/>
      </defs>
      <g transform="translate(72.131329 265.554375)scale(0.1 -0.1)">
       <use xlink:href="#DejaVuSans-50"/>
       <use x="63.623047" xlink:href="#DejaVuSans-51"/>
      </g>
     </g>
    </g>
    <g id="xtick_2">
     <g id="line2d_6">
      <path clip-path="url(#p42e9e7f174)" d="M 113.725815 239.758125 
L 113.725815 22.318125 
" style="fill:none;stroke:#b0b0b0;stroke-linecap:square;stroke-opacity:0.8;stroke-width:0.8;"/>
     </g>
     <g id="line2d_7">
      <g>
       <use style="stroke:#000000;stroke-width:0.8;" x="113.725815" xlink:href="#m9c1a2d9db4" y="239.758125"/>
      </g>
     </g>
     <g id="text_2">
      <!-- Mar. -->
      <defs>
       <path d="M 9.8125 72.90625 
L 24.515625 72.90625 
L 43.109375 23.296875 
L 61.8125 72.90625 
L 76.515625 72.90625 
L 76.515625 0 
L 66.890625 0 
L 66.890625 64.015625 
L 48.09375 14.015625 
L 38.1875 14.015625 
L 19.390625 64.015625 
L 19.390625 0 
L 9.8125 0 
z
" id="DejaVuSans-77"/>
       <path d="M 34.28125 27.484375 
Q 23.390625 27.484375 19.1875 25 
Q 14.984375 22.515625 14.984375 16.5 
Q 14.984375 11.71875 18.140625 8.90625 
Q 21.296875 6.109375 26.703125 6.109375 
Q 34.1875 6.109375 38.703125 11.40625 
Q 43.21875 16.703125 43.21875 25.484375 
L 43.21875 27.484375 
z
M 52.203125 31.203125 
L 52.203125 0 
L 43.21875 0 
L 43.21875 8.296875 
Q 40.140625 3.328125 35.546875 0.953125 
Q 30.953125 -1.421875 24.3125 -1.421875 
Q 15.921875 -1.421875 10.953125 3.296875 
Q 6 8.015625 6 15.921875 
Q 6 25.140625 12.171875 29.828125 
Q 18.359375 34.515625 30.609375 34.515625 
L 43.21875 34.515625 
L 43.21875 35.40625 
Q 43.21875 41.609375 39.140625 45 
Q 35.0625 48.390625 27.6875 48.390625 
Q 23 48.390625 18.546875 47.265625 
Q 14.109375 46.140625 10.015625 43.890625 
L 10.015625 52.203125 
Q 14.9375 54.109375 19.578125 55.046875 
Q 24.21875 56 28.609375 56 
Q 40.484375 56 46.34375 49.84375 
Q 52.203125 43.703125 52.203125 31.203125 
z
" id="DejaVuSans-97"/>
       <path d="M 41.109375 46.296875 
Q 39.59375 47.171875 37.8125 47.578125 
Q 36.03125 48 33.890625 48 
Q 26.265625 48 22.1875 43.046875 
Q 18.109375 38.09375 18.109375 28.8125 
L 18.109375 0 
L 9.078125 0 
L 9.078125 54.6875 
L 18.109375 54.6875 
L 18.109375 46.1875 
Q 20.953125 51.171875 25.484375 53.578125 
Q 30.03125 56 36.53125 56 
Q 37.453125 56 38.578125 55.875 
Q 39.703125 55.765625 41.0625 55.515625 
z
" id="DejaVuSans-114"/>
      </defs>
      <g transform="translate(102.71019 254.356563)scale(0.1 -0.1)">
       <use xlink:href="#DejaVuSans-77"/>
       <use x="86.279297" xlink:href="#DejaVuSans-97"/>
       <use x="147.558594" xlink:href="#DejaVuSans-114"/>
       <use x="188.53125" xlink:href="#DejaVuSans-46"/>
      </g>
      <!-- 01 -->
      <defs>
       <path d="M 31.78125 66.40625 
Q 24.171875 66.40625 20.328125 58.90625 
Q 16.5 51.421875 16.5 36.375 
Q 16.5 21.390625 20.328125 13.890625 
Q 24.171875 6.390625 31.78125 6.390625 
Q 39.453125 6.390625 43.28125 13.890625 
Q 47.125 21.390625 47.125 36.375 
Q 47.125 51.421875 43.28125 58.90625 
Q 39.453125 66.40625 31.78125 66.40625 
z
M 31.78125 74.21875 
Q 44.046875 74.21875 50.515625 64.515625 
Q 56.984375 54.828125 56.984375 36.375 
Q 56.984375 17.96875 50.515625 8.265625 
Q 44.046875 -1.421875 31.78125 -1.421875 
Q 19.53125 -1.421875 13.0625 8.265625 
Q 6.59375 17.96875 6.59375 36.375 
Q 6.59375 54.828125 13.0625 64.515625 
Q 19.53125 74.21875 31.78125 74.21875 
z
" id="DejaVuSans-48"/>
       <path d="M 12.40625 8.296875 
L 28.515625 8.296875 
L 28.515625 63.921875 
L 10.984375 60.40625 
L 10.984375 69.390625 
L 28.421875 72.90625 
L 38.28125 72.90625 
L 38.28125 8.296875 
L 54.390625 8.296875 
L 54.390625 0 
L 12.40625 0 
z
" id="DejaVuSans-49"/>
      </defs>
      <g transform="translate(107.363315 265.554375)scale(0.1 -0.1)">
       <use xlink:href="#DejaVuSans-48"/>
       <use x="63.623047" xlink:href="#DejaVuSans-49"/>
      </g>
     </g>
    </g>
    <g id="xtick_3">
     <g id="line2d_8">
      <path clip-path="url(#p42e9e7f174)" d="M 148.957802 239.758125 
L 148.957802 22.318125 
" style="fill:none;stroke:#b0b0b0;stroke-linecap:square;stroke-opacity:0.8;stroke-width:0.8;"/>
     </g>
     <g id="line2d_9">
      <g>
       <use style="stroke:#000000;stroke-width:0.8;" x="148.957802" xlink:href="#m9c1a2d9db4" y="239.758125"/>
      </g>
     </g>
     <g id="text_3">
      <!-- Mar. -->
      <g transform="translate(137.942177 254.356563)scale(0.1 -0.1)">
       <use xlink:href="#DejaVuSans-77"/>
       <use x="86.279297" xlink:href="#DejaVuSans-97"/>
       <use x="147.558594" xlink:href="#DejaVuSans-114"/>
       <use x="188.53125" xlink:href="#DejaVuSans-46"/>
      </g>
      <!-- 08 -->
      <defs>
       <path d="M 31.78125 34.625 
Q 24.75 34.625 20.71875 30.859375 
Q 16.703125 27.09375 16.703125 20.515625 
Q 16.703125 13.921875 20.71875 10.15625 
Q 24.75 6.390625 31.78125 6.390625 
Q 38.8125 6.390625 42.859375 10.171875 
Q 46.921875 13.96875 46.921875 20.515625 
Q 46.921875 27.09375 42.890625 30.859375 
Q 38.875 34.625 31.78125 34.625 
z
M 21.921875 38.8125 
Q 15.578125 40.375 12.03125 44.71875 
Q 8.5 49.078125 8.5 55.328125 
Q 8.5 64.0625 14.71875 69.140625 
Q 20.953125 74.21875 31.78125 74.21875 
Q 42.671875 74.21875 48.875 69.140625 
Q 55.078125 64.0625 55.078125 55.328125 
Q 55.078125 49.078125 51.53125 44.71875 
Q 48 40.375 41.703125 38.8125 
Q 48.828125 37.15625 52.796875 32.3125 
Q 56.78125 27.484375 56.78125 20.515625 
Q 56.78125 9.90625 50.3125 4.234375 
Q 43.84375 -1.421875 31.78125 -1.421875 
Q 19.734375 -1.421875 13.25 4.234375 
Q 6.78125 9.90625 6.78125 20.515625 
Q 6.78125 27.484375 10.78125 32.3125 
Q 14.796875 37.15625 21.921875 38.8125 
z
M 18.3125 54.390625 
Q 18.3125 48.734375 21.84375 45.5625 
Q 25.390625 42.390625 31.78125 42.390625 
Q 38.140625 42.390625 41.71875 45.5625 
Q 45.3125 48.734375 45.3125 54.390625 
Q 45.3125 60.0625 41.71875 63.234375 
Q 38.140625 66.40625 31.78125 66.40625 
Q 25.390625 66.40625 21.84375 63.234375 
Q 18.3125 60.0625 18.3125 54.390625 
z
" id="DejaVuSans-56"/>
      </defs>
      <g transform="translate(142.595302 265.554375)scale(0.1 -0.1)">
       <use xlink:href="#DejaVuSans-48"/>
       <use x="63.623047" xlink:href="#DejaVuSans-56"/>
      </g>
     </g>
    </g>
    <g id="xtick_4">
     <g id="line2d_10">
      <path clip-path="url(#p42e9e7f174)" d="M 184.189788 239.758125 
L 184.189788 22.318125 
" style="fill:none;stroke:#b0b0b0;stroke-linecap:square;stroke-opacity:0.8;stroke-width:0.8;"/>
     </g>
     <g id="line2d_11">
      <g>
       <use style="stroke:#000000;stroke-width:0.8;" x="184.189788" xlink:href="#m9c1a2d9db4" y="239.758125"/>
      </g>
     </g>
     <g id="text_4">
      <!-- Mar. -->
      <g transform="translate(173.174163 254.356563)scale(0.1 -0.1)">
       <use xlink:href="#DejaVuSans-77"/>
       <use x="86.279297" xlink:href="#DejaVuSans-97"/>
       <use x="147.558594" xlink:href="#DejaVuSans-114"/>
       <use x="188.53125" xlink:href="#DejaVuSans-46"/>
      </g>
      <!-- 15 -->
      <defs>
       <path d="M 10.796875 72.90625 
L 49.515625 72.90625 
L 49.515625 64.59375 
L 19.828125 64.59375 
L 19.828125 46.734375 
Q 21.96875 47.46875 24.109375 47.828125 
Q 26.265625 48.1875 28.421875 48.1875 
Q 40.625 48.1875 47.75 41.5 
Q 54.890625 34.8125 54.890625 23.390625 
Q 54.890625 11.625 47.5625 5.09375 
Q 40.234375 -1.421875 26.90625 -1.421875 
Q 22.3125 -1.421875 17.546875 -0.640625 
Q 12.796875 0.140625 7.71875 1.703125 
L 7.71875 11.625 
Q 12.109375 9.234375 16.796875 8.0625 
Q 21.484375 6.890625 26.703125 6.890625 
Q 35.15625 6.890625 40.078125 11.328125 
Q 45.015625 15.765625 45.015625 23.390625 
Q 45.015625 31 40.078125 35.4375 
Q 35.15625 39.890625 26.703125 39.890625 
Q 22.75 39.890625 18.8125 39.015625 
Q 14.890625 38.140625 10.796875 36.28125 
z
" id="DejaVuSans-53"/>
      </defs>
      <g transform="translate(177.827288 265.554375)scale(0.1 -0.1)">
       <use xlink:href="#DejaVuSans-49"/>
       <use x="63.623047" xlink:href="#DejaVuSans-53"/>
      </g>
     </g>
    </g>
    <g id="xtick_5">
     <g id="line2d_12">
      <path clip-path="url(#p42e9e7f174)" d="M 219.421774 239.758125 
L 219.421774 22.318125 
" style="fill:none;stroke:#b0b0b0;stroke-linecap:square;stroke-opacity:0.8;stroke-width:0.8;"/>
     </g>
     <g id="line2d_13">
      <g>
       <use style="stroke:#000000;stroke-width:0.8;" x="219.421774" xlink:href="#m9c1a2d9db4" y="239.758125"/>
      </g>
     </g>
     <g id="text_5">
      <!-- Mar. -->
      <g transform="translate(208.406149 254.356563)scale(0.1 -0.1)">
       <use xlink:href="#DejaVuSans-77"/>
       <use x="86.279297" xlink:href="#DejaVuSans-97"/>
       <use x="147.558594" xlink:href="#DejaVuSans-114"/>
       <use x="188.53125" xlink:href="#DejaVuSans-46"/>
      </g>
      <!-- 22 -->
      <g transform="translate(213.059274 265.554375)scale(0.1 -0.1)">
       <use xlink:href="#DejaVuSans-50"/>
       <use x="63.623047" xlink:href="#DejaVuSans-50"/>
      </g>
     </g>
    </g>
    <g id="xtick_6">
     <g id="line2d_14">
      <path clip-path="url(#p42e9e7f174)" d="M 254.65376 239.758125 
L 254.65376 22.318125 
" style="fill:none;stroke:#b0b0b0;stroke-linecap:square;stroke-opacity:0.8;stroke-width:0.8;"/>
     </g>
     <g id="line2d_15">
      <g>
       <use style="stroke:#000000;stroke-width:0.8;" x="254.65376" xlink:href="#m9c1a2d9db4" y="239.758125"/>
      </g>
     </g>
     <g id="text_6">
      <!-- Mar. -->
      <g transform="translate(243.638135 254.356563)scale(0.1 -0.1)">
       <use xlink:href="#DejaVuSans-77"/>
       <use x="86.279297" xlink:href="#DejaVuSans-97"/>
       <use x="147.558594" xlink:href="#DejaVuSans-114"/>
       <use x="188.53125" xlink:href="#DejaVuSans-46"/>
      </g>
      <!-- 29 -->
      <defs>
       <path d="M 10.984375 1.515625 
L 10.984375 10.5 
Q 14.703125 8.734375 18.5 7.8125 
Q 22.3125 6.890625 25.984375 6.890625 
Q 35.75 6.890625 40.890625 13.453125 
Q 46.046875 20.015625 46.78125 33.40625 
Q 43.953125 29.203125 39.59375 26.953125 
Q 35.25 24.703125 29.984375 24.703125 
Q 19.046875 24.703125 12.671875 31.3125 
Q 6.296875 37.9375 6.296875 49.421875 
Q 6.296875 60.640625 12.9375 67.421875 
Q 19.578125 74.21875 30.609375 74.21875 
Q 43.265625 74.21875 49.921875 64.515625 
Q 56.59375 54.828125 56.59375 36.375 
Q 56.59375 19.140625 48.40625 8.859375 
Q 40.234375 -1.421875 26.421875 -1.421875 
Q 22.703125 -1.421875 18.890625 -0.6875 
Q 15.09375 0.046875 10.984375 1.515625 
z
M 30.609375 32.421875 
Q 37.25 32.421875 41.125 36.953125 
Q 45.015625 41.5 45.015625 49.421875 
Q 45.015625 57.28125 41.125 61.84375 
Q 37.25 66.40625 30.609375 66.40625 
Q 23.96875 66.40625 20.09375 61.84375 
Q 16.21875 57.28125 16.21875 49.421875 
Q 16.21875 41.5 20.09375 36.953125 
Q 23.96875 32.421875 30.609375 32.421875 
z
" id="DejaVuSans-57"/>
      </defs>
      <g transform="translate(248.29126 265.554375)scale(0.1 -0.1)">
       <use xlink:href="#DejaVuSans-50"/>
       <use x="63.623047" xlink:href="#DejaVuSans-57"/>
      </g>
     </g>
    </g>
    <g id="xtick_7">
     <g id="line2d_16">
      <path clip-path="url(#p42e9e7f174)" d="M 289.885746 239.758125 
L 289.885746 22.318125 
" style="fill:none;stroke:#b0b0b0;stroke-linecap:square;stroke-opacity:0.8;stroke-width:0.8;"/>
     </g>
     <g id="line2d_17">
      <g>
       <use style="stroke:#000000;stroke-width:0.8;" x="289.885746" xlink:href="#m9c1a2d9db4" y="239.758125"/>
      </g>
     </g>
     <g id="text_7">
      <!-- Apr. -->
      <defs>
       <path d="M 34.1875 63.1875 
L 20.796875 26.90625 
L 47.609375 26.90625 
z
M 28.609375 72.90625 
L 39.796875 72.90625 
L 67.578125 0 
L 57.328125 0 
L 50.6875 18.703125 
L 17.828125 18.703125 
L 11.1875 0 
L 0.78125 0 
z
" id="DejaVuSans-65"/>
       <path d="M 18.109375 8.203125 
L 18.109375 -20.796875 
L 9.078125 -20.796875 
L 9.078125 54.6875 
L 18.109375 54.6875 
L 18.109375 46.390625 
Q 20.953125 51.265625 25.265625 53.625 
Q 29.59375 56 35.59375 56 
Q 45.5625 56 51.78125 48.09375 
Q 58.015625 40.1875 58.015625 27.296875 
Q 58.015625 14.40625 51.78125 6.484375 
Q 45.5625 -1.421875 35.59375 -1.421875 
Q 29.59375 -1.421875 25.265625 0.953125 
Q 20.953125 3.328125 18.109375 8.203125 
z
M 48.6875 27.296875 
Q 48.6875 37.203125 44.609375 42.84375 
Q 40.53125 48.484375 33.40625 48.484375 
Q 26.265625 48.484375 22.1875 42.84375 
Q 18.109375 37.203125 18.109375 27.296875 
Q 18.109375 17.390625 22.1875 11.75 
Q 26.265625 6.109375 33.40625 6.109375 
Q 40.53125 6.109375 44.609375 11.75 
Q 48.6875 17.390625 48.6875 27.296875 
z
" id="DejaVuSans-112"/>
      </defs>
      <g transform="translate(279.653715 254.356563)scale(0.1 -0.1)">
       <use xlink:href="#DejaVuSans-65"/>
       <use x="68.408203" xlink:href="#DejaVuSans-112"/>
       <use x="131.884766" xlink:href="#DejaVuSans-114"/>
       <use x="172.857422" xlink:href="#DejaVuSans-46"/>
      </g>
      <!-- 05 -->
      <g transform="translate(283.523246 265.554375)scale(0.1 -0.1)">
       <use xlink:href="#DejaVuSans-48"/>
       <use x="63.623047" xlink:href="#DejaVuSans-53"/>
      </g>
     </g>
    </g>
    <g id="xtick_8">
     <g id="line2d_18">
      <path clip-path="url(#p42e9e7f174)" d="M 325.117732 239.758125 
L 325.117732 22.318125 
" style="fill:none;stroke:#b0b0b0;stroke-linecap:square;stroke-opacity:0.8;stroke-width:0.8;"/>
     </g>
     <g id="line2d_19">
      <g>
       <use style="stroke:#000000;stroke-width:0.8;" x="325.117732" xlink:href="#m9c1a2d9db4" y="239.758125"/>
      </g>
     </g>
     <g id="text_8">
      <!-- Apr. -->
      <g transform="translate(314.885701 254.356563)scale(0.1 -0.1)">
       <use xlink:href="#DejaVuSans-65"/>
       <use x="68.408203" xlink:href="#DejaVuSans-112"/>
       <use x="131.884766" xlink:href="#DejaVuSans-114"/>
       <use x="172.857422" xlink:href="#DejaVuSans-46"/>
      </g>
      <!-- 12 -->
      <g transform="translate(318.755232 265.554375)scale(0.1 -0.1)">
       <use xlink:href="#DejaVuSans-49"/>
       <use x="63.623047" xlink:href="#DejaVuSans-50"/>
      </g>
     </g>
    </g>
   </g>
   <g id="matplotlib.axis_2">
    <g id="ytick_1">
     <g id="line2d_20">
      <path clip-path="url(#p42e9e7f174)" d="M 53.328125 239.758125 
L 388.128125 239.758125 
" style="fill:none;stroke:#b0b0b0;stroke-linecap:square;stroke-opacity:0.8;"/>
     </g>
     <g id="line2d_21">
      <defs>
       <path d="M 0 0 
L -3.5 0 
" id="md37e6f09d7" style="stroke:#000000;stroke-width:0.8;"/>
      </defs>
      <g>
       <use style="stroke:#000000;stroke-width:0.8;" x="53.328125" xlink:href="#md37e6f09d7" y="239.758125"/>
      </g>
     </g>
     <g id="text_9">
      <!-- 1 -->
      <g transform="translate(39.965625 243.557344)scale(0.1 -0.1)">
       <use xlink:href="#DejaVuSans-49"/>
      </g>
     </g>
    </g>
    <g id="ytick_2">
     <g id="line2d_22">
      <path clip-path="url(#p42e9e7f174)" d="M 53.328125 179.747902 
L 388.128125 179.747902 
" style="fill:none;stroke:#b0b0b0;stroke-linecap:square;stroke-opacity:0.8;"/>
     </g>
     <g id="line2d_23">
      <g>
       <use style="stroke:#000000;stroke-width:0.8;" x="53.328125" xlink:href="#md37e6f09d7" y="179.747902"/>
      </g>
     </g>
     <g id="text_10">
      <!-- 10 -->
      <g transform="translate(33.603125 183.547121)scale(0.1 -0.1)">
       <use xlink:href="#DejaVuSans-49"/>
       <use x="63.623047" xlink:href="#DejaVuSans-48"/>
      </g>
     </g>
    </g>
    <g id="ytick_3">
     <g id="line2d_24">
      <path clip-path="url(#p42e9e7f174)" d="M 53.328125 119.73768 
L 388.128125 119.73768 
" style="fill:none;stroke:#b0b0b0;stroke-linecap:square;stroke-opacity:0.8;"/>
     </g>
     <g id="line2d_25">
      <g>
       <use style="stroke:#000000;stroke-width:0.8;" x="53.328125" xlink:href="#md37e6f09d7" y="119.73768"/>
      </g>
     </g>
     <g id="text_11">
      <!-- 100 -->
      <g transform="translate(27.240625 123.536898)scale(0.1 -0.1)">
       <use xlink:href="#DejaVuSans-49"/>
       <use x="63.623047" xlink:href="#DejaVuSans-48"/>
       <use x="127.246094" xlink:href="#DejaVuSans-48"/>
      </g>
     </g>
    </g>
    <g id="ytick_4">
     <g id="line2d_26">
      <path clip-path="url(#p42e9e7f174)" d="M 53.328125 59.727457 
L 388.128125 59.727457 
" style="fill:none;stroke:#b0b0b0;stroke-linecap:square;stroke-opacity:0.8;"/>
     </g>
     <g id="line2d_27">
      <g>
       <use style="stroke:#000000;stroke-width:0.8;" x="53.328125" xlink:href="#md37e6f09d7" y="59.727457"/>
      </g>
     </g>
     <g id="text_12">
      <!-- 1000 -->
      <g transform="translate(20.878125 63.526676)scale(0.1 -0.1)">
       <use xlink:href="#DejaVuSans-49"/>
       <use x="63.623047" xlink:href="#DejaVuSans-48"/>
       <use x="127.246094" xlink:href="#DejaVuSans-48"/>
       <use x="190.869141" xlink:href="#DejaVuSans-48"/>
      </g>
     </g>
    </g>
    <g id="ytick_5">
     <g id="line2d_28">
      <path clip-path="url(#p42e9e7f174)" d="M 53.328125 221.693248 
L 388.128125 221.693248 
" style="fill:none;stroke:#b0b0b0;stroke-linecap:square;stroke-opacity:0.3;stroke-width:0.8;"/>
     </g>
     <g id="line2d_29">
      <defs>
       <path d="M 0 0 
L -2 0 
" id="mebb03cc096" style="stroke:#000000;stroke-width:0.6;"/>
      </defs>
      <g>
       <use style="stroke:#000000;stroke-width:0.6;" x="53.328125" xlink:href="#mebb03cc096" y="221.693248"/>
      </g>
     </g>
     <g id="text_13">
      <!-- 2 -->
      <g transform="translate(41.565625 225.492467)scale(0.1 -0.1)">
       <use xlink:href="#DejaVuSans-50"/>
      </g>
     </g>
    </g>
    <g id="ytick_6">
     <g id="line2d_30">
      <path clip-path="url(#p42e9e7f174)" d="M 53.328125 197.812779 
L 388.128125 197.812779 
" style="fill:none;stroke:#b0b0b0;stroke-linecap:square;stroke-opacity:0.3;stroke-width:0.8;"/>
     </g>
     <g id="line2d_31">
      <g>
       <use style="stroke:#000000;stroke-width:0.6;" x="53.328125" xlink:href="#mebb03cc096" y="197.812779"/>
      </g>
     </g>
     <g id="text_14">
      <!-- 5 -->
      <g transform="translate(41.565625 201.611998)scale(0.1 -0.1)">
       <use xlink:href="#DejaVuSans-53"/>
      </g>
     </g>
    </g>
    <g id="ytick_7">
     <g id="line2d_32">
      <path clip-path="url(#p42e9e7f174)" d="M 53.328125 161.683025 
L 388.128125 161.683025 
" style="fill:none;stroke:#b0b0b0;stroke-linecap:square;stroke-opacity:0.3;stroke-width:0.8;"/>
     </g>
     <g id="line2d_33">
      <g>
       <use style="stroke:#000000;stroke-width:0.6;" x="53.328125" xlink:href="#mebb03cc096" y="161.683025"/>
      </g>
     </g>
     <g id="text_15">
      <!-- 20 -->
      <g transform="translate(35.203125 165.482244)scale(0.1 -0.1)">
       <use xlink:href="#DejaVuSans-50"/>
       <use x="63.623047" xlink:href="#DejaVuSans-48"/>
      </g>
     </g>
    </g>
    <g id="ytick_8">
     <g id="line2d_34">
      <path clip-path="url(#p42e9e7f174)" d="M 53.328125 137.802557 
L 388.128125 137.802557 
" style="fill:none;stroke:#b0b0b0;stroke-linecap:square;stroke-opacity:0.3;stroke-width:0.8;"/>
     </g>
     <g id="line2d_35">
      <g>
       <use style="stroke:#000000;stroke-width:0.6;" x="53.328125" xlink:href="#mebb03cc096" y="137.802557"/>
      </g>
     </g>
     <g id="text_16">
      <!-- 50 -->
      <g transform="translate(35.203125 141.601775)scale(0.1 -0.1)">
       <use xlink:href="#DejaVuSans-53"/>
       <use x="63.623047" xlink:href="#DejaVuSans-48"/>
      </g>
     </g>
    </g>
    <g id="ytick_9">
     <g id="line2d_36">
      <path clip-path="url(#p42e9e7f174)" d="M 53.328125 101.672803 
L 388.128125 101.672803 
" style="fill:none;stroke:#b0b0b0;stroke-linecap:square;stroke-opacity:0.3;stroke-width:0.8;"/>
     </g>
     <g id="line2d_37">
      <g>
       <use style="stroke:#000000;stroke-width:0.6;" x="53.328125" xlink:href="#mebb03cc096" y="101.672803"/>
      </g>
     </g>
     <g id="text_17">
      <!-- 200 -->
      <g transform="translate(28.840625 105.472021)scale(0.1 -0.1)">
       <use xlink:href="#DejaVuSans-50"/>
       <use x="63.623047" xlink:href="#DejaVuSans-48"/>
       <use x="127.246094" xlink:href="#DejaVuSans-48"/>
      </g>
     </g>
    </g>
    <g id="ytick_10">
     <g id="line2d_38">
      <path clip-path="url(#p42e9e7f174)" d="M 53.328125 77.792334 
L 388.128125 77.792334 
" style="fill:none;stroke:#b0b0b0;stroke-linecap:square;stroke-opacity:0.3;stroke-width:0.8;"/>
     </g>
     <g id="line2d_39">
      <g>
       <use style="stroke:#000000;stroke-width:0.6;" x="53.328125" xlink:href="#mebb03cc096" y="77.792334"/>
      </g>
     </g>
     <g id="text_18">
      <!-- 500 -->
      <g transform="translate(28.840625 81.591553)scale(0.1 -0.1)">
       <use xlink:href="#DejaVuSans-53"/>
       <use x="63.623047" xlink:href="#DejaVuSans-48"/>
       <use x="127.246094" xlink:href="#DejaVuSans-48"/>
      </g>
     </g>
    </g>
    <g id="ytick_11">
     <g id="line2d_40">
      <path clip-path="url(#p42e9e7f174)" d="M 53.328125 41.66258 
L 388.128125 41.66258 
" style="fill:none;stroke:#b0b0b0;stroke-linecap:square;stroke-opacity:0.3;stroke-width:0.8;"/>
     </g>
     <g id="line2d_41">
      <g>
       <use style="stroke:#000000;stroke-width:0.6;" x="53.328125" xlink:href="#mebb03cc096" y="41.66258"/>
      </g>
     </g>
     <g id="text_19">
      <!-- 2000 -->
      <g transform="translate(22.478125 45.461799)scale(0.1 -0.1)">
       <use xlink:href="#DejaVuSans-50"/>
       <use x="63.623047" xlink:href="#DejaVuSans-48"/>
       <use x="127.246094" xlink:href="#DejaVuSans-48"/>
       <use x="190.869141" xlink:href="#DejaVuSans-48"/>
      </g>
     </g>
    </g>
    <g id="text_20">
     <!-- Cases per million -->
     <defs>
      <path d="M 64.40625 67.28125 
L 64.40625 56.890625 
Q 59.421875 61.53125 53.78125 63.8125 
Q 48.140625 66.109375 41.796875 66.109375 
Q 29.296875 66.109375 22.65625 58.46875 
Q 16.015625 50.828125 16.015625 36.375 
Q 16.015625 21.96875 22.65625 14.328125 
Q 29.296875 6.6875 41.796875 6.6875 
Q 48.140625 6.6875 53.78125 8.984375 
Q 59.421875 11.28125 64.40625 15.921875 
L 64.40625 5.609375 
Q 59.234375 2.09375 53.4375 0.328125 
Q 47.65625 -1.421875 41.21875 -1.421875 
Q 24.65625 -1.421875 15.125 8.703125 
Q 5.609375 18.84375 5.609375 36.375 
Q 5.609375 53.953125 15.125 64.078125 
Q 24.65625 74.21875 41.21875 74.21875 
Q 47.75 74.21875 53.53125 72.484375 
Q 59.328125 70.75 64.40625 67.28125 
z
" id="DejaVuSans-67"/>
      <path d="M 44.28125 53.078125 
L 44.28125 44.578125 
Q 40.484375 46.53125 36.375 47.5 
Q 32.28125 48.484375 27.875 48.484375 
Q 21.1875 48.484375 17.84375 46.4375 
Q 14.5 44.390625 14.5 40.28125 
Q 14.5 37.15625 16.890625 35.375 
Q 19.28125 33.59375 26.515625 31.984375 
L 29.59375 31.296875 
Q 39.15625 29.25 43.1875 25.515625 
Q 47.21875 21.78125 47.21875 15.09375 
Q 47.21875 7.46875 41.1875 3.015625 
Q 35.15625 -1.421875 24.609375 -1.421875 
Q 20.21875 -1.421875 15.453125 -0.5625 
Q 10.6875 0.296875 5.421875 2 
L 5.421875 11.28125 
Q 10.40625 8.6875 15.234375 7.390625 
Q 20.0625 6.109375 24.8125 6.109375 
Q 31.15625 6.109375 34.5625 8.28125 
Q 37.984375 10.453125 37.984375 14.40625 
Q 37.984375 18.0625 35.515625 20.015625 
Q 33.0625 21.96875 24.703125 23.78125 
L 21.578125 24.515625 
Q 13.234375 26.265625 9.515625 29.90625 
Q 5.8125 33.546875 5.8125 39.890625 
Q 5.8125 47.609375 11.28125 51.796875 
Q 16.75 56 26.8125 56 
Q 31.78125 56 36.171875 55.265625 
Q 40.578125 54.546875 44.28125 53.078125 
z
" id="DejaVuSans-115"/>
      <path id="DejaVuSans-32"/>
      <path d="M 52 44.1875 
Q 55.375 50.25 60.0625 53.125 
Q 64.75 56 71.09375 56 
Q 79.640625 56 84.28125 50.015625 
Q 88.921875 44.046875 88.921875 33.015625 
L 88.921875 0 
L 79.890625 0 
L 79.890625 32.71875 
Q 79.890625 40.578125 77.09375 44.375 
Q 74.3125 48.1875 68.609375 48.1875 
Q 61.625 48.1875 57.5625 43.546875 
Q 53.515625 38.921875 53.515625 30.90625 
L 53.515625 0 
L 44.484375 0 
L 44.484375 32.71875 
Q 44.484375 40.625 41.703125 44.40625 
Q 38.921875 48.1875 33.109375 48.1875 
Q 26.21875 48.1875 22.15625 43.53125 
Q 18.109375 38.875 18.109375 30.90625 
L 18.109375 0 
L 9.078125 0 
L 9.078125 54.6875 
L 18.109375 54.6875 
L 18.109375 46.1875 
Q 21.1875 51.21875 25.484375 53.609375 
Q 29.78125 56 35.6875 56 
Q 41.65625 56 45.828125 52.96875 
Q 50 49.953125 52 44.1875 
z
" id="DejaVuSans-109"/>
      <path d="M 9.421875 54.6875 
L 18.40625 54.6875 
L 18.40625 0 
L 9.421875 0 
z
M 9.421875 75.984375 
L 18.40625 75.984375 
L 18.40625 64.59375 
L 9.421875 64.59375 
z
" id="DejaVuSans-105"/>
      <path d="M 9.421875 75.984375 
L 18.40625 75.984375 
L 18.40625 0 
L 9.421875 0 
z
" id="DejaVuSans-108"/>
      <path d="M 30.609375 48.390625 
Q 23.390625 48.390625 19.1875 42.75 
Q 14.984375 37.109375 14.984375 27.296875 
Q 14.984375 17.484375 19.15625 11.84375 
Q 23.34375 6.203125 30.609375 6.203125 
Q 37.796875 6.203125 41.984375 11.859375 
Q 46.1875 17.53125 46.1875 27.296875 
Q 46.1875 37.015625 41.984375 42.703125 
Q 37.796875 48.390625 30.609375 48.390625 
z
M 30.609375 56 
Q 42.328125 56 49.015625 48.375 
Q 55.71875 40.765625 55.71875 27.296875 
Q 55.71875 13.875 49.015625 6.21875 
Q 42.328125 -1.421875 30.609375 -1.421875 
Q 18.84375 -1.421875 12.171875 6.21875 
Q 5.515625 13.875 5.515625 27.296875 
Q 5.515625 40.765625 12.171875 48.375 
Q 18.84375 56 30.609375 56 
z
" id="DejaVuSans-111"/>
      <path d="M 54.890625 33.015625 
L 54.890625 0 
L 45.90625 0 
L 45.90625 32.71875 
Q 45.90625 40.484375 42.875 44.328125 
Q 39.84375 48.1875 33.796875 48.1875 
Q 26.515625 48.1875 22.3125 43.546875 
Q 18.109375 38.921875 18.109375 30.90625 
L 18.109375 0 
L 9.078125 0 
L 9.078125 54.6875 
L 18.109375 54.6875 
L 18.109375 46.1875 
Q 21.34375 51.125 25.703125 53.5625 
Q 30.078125 56 35.796875 56 
Q 45.21875 56 50.046875 50.171875 
Q 54.890625 44.34375 54.890625 33.015625 
z
" id="DejaVuSans-110"/>
     </defs>
     <g transform="translate(14.798438 174.018594)rotate(-90)scale(0.1 -0.1)">
      <use xlink:href="#DejaVuSans-67"/>
      <use x="69.824219" xlink:href="#DejaVuSans-97"/>
      <use x="131.103516" xlink:href="#DejaVuSans-115"/>
      <use x="183.203125" xlink:href="#DejaVuSans-101"/>
      <use x="244.726562" xlink:href="#DejaVuSans-115"/>
      <use x="296.826172" xlink:href="#DejaVuSans-32"/>
      <use x="328.613281" xlink:href="#DejaVuSans-112"/>
      <use x="392.089844" xlink:href="#DejaVuSans-101"/>
      <use x="453.613281" xlink:href="#DejaVuSans-114"/>
      <use x="494.726562" xlink:href="#DejaVuSans-32"/>
      <use x="526.513672" xlink:href="#DejaVuSans-109"/>
      <use x="623.925781" xlink:href="#DejaVuSans-105"/>
      <use x="651.708984" xlink:href="#DejaVuSans-108"/>
      <use x="679.492188" xlink:href="#DejaVuSans-108"/>
      <use x="707.275391" xlink:href="#DejaVuSans-105"/>
      <use x="735.058594" xlink:href="#DejaVuSans-111"/>
      <use x="796.240234" xlink:href="#DejaVuSans-110"/>
     </g>
    </g>
   </g>
   <g id="line2d_42">
    <path clip-path="url(#p42e9e7f174)" d="M 38.228702 320.177801 
L 43.261843 320.177801 
L 48.294984 320.177801 
L 53.328125 320.177801 
L 58.361266 320.177801 
L 63.394407 320.177801 
L 68.427548 298.095432 
L 73.460688 298.095432 
L 78.493829 298.095432 
L 83.52697 287.281121 
L 88.560111 285.384858 
L 93.593252 284.048047 
L 98.626393 284.048047 
L 103.659534 282.776473 
L 108.692675 280.786032 
L 113.725815 278.232456 
L 118.758956 270.734854 
L 123.792097 265.128598 
L 128.825238 258.813398 
L 133.858379 250.067797 
L 138.89152 240.502263 
L 143.924661 232.418972 
L 148.957802 226.735523 
L 153.990942 219.87183 
L 159.024083 210.881475 
L 164.057224 203.866826 
L 169.090365 197.991206 
L 174.123506 190.377941 
L 179.156647 184.171322 
L 184.189788 177.246851 
L 189.222929 170.975059 
L 194.256069 162.566424 
L 199.28921 152.616966 
L 204.322351 142.197766 
L 209.355492 133.313377 
L 214.388633 127.525872 
L 219.421774 119.016443 
L 224.454915 112.067522 
L 229.488055 106.180095 
L 234.521196 100.498693 
L 239.554337 94.616469 
L 244.587478 89.481306 
L 249.620619 85.04418 
L 254.65376 81.142786 
L 259.686901 77.644556 
L 264.720042 73.980647 
L 269.753182 70.558601 
L 274.786323 67.166965 
L 279.819464 63.94629 
L 284.852605 60.934922 
L 289.885746 58.90378 
L 294.918887 56.604936 
L 299.952028 54.346024 
L 304.985169 52.357287 
L 310.018309 50.420065 
L 315.05145 48.609361 
L 320.084591 47.099042 
L 325.117732 45.791298 
L 330.150873 44.580662 
L 335.184014 43.251092 
L 340.217155 42.001269 
L 345.250295 40.838441 
" style="fill:none;stroke:#ff7f0e;stroke-linecap:square;stroke-width:1.5;"/>
    <defs>
     <path d="M 0 3 
C 0.795609 3 1.55874 2.683901 2.12132 2.12132 
C 2.683901 1.55874 3 0.795609 3 0 
C 3 -0.795609 2.683901 -1.55874 2.12132 -2.12132 
C 1.55874 -2.683901 0.795609 -3 0 -3 
C -0.795609 -3 -1.55874 -2.683901 -2.12132 -2.12132 
C -2.683901 -1.55874 -3 -0.795609 -3 0 
C -3 0.795609 -2.683901 1.55874 -2.12132 2.12132 
C -1.55874 2.683901 -0.795609 3 0 3 
z
" id="m11349362a9" style="stroke:#ff7f0e;"/>
    </defs>
    <g clip-path="url(#p42e9e7f174)">
     <use style="fill:#ff7f0e;stroke:#ff7f0e;" x="38.228702" xlink:href="#m11349362a9" y="320.177801"/>
     <use style="fill:#ff7f0e;stroke:#ff7f0e;" x="43.261843" xlink:href="#m11349362a9" y="320.177801"/>
     <use style="fill:#ff7f0e;stroke:#ff7f0e;" x="48.294984" xlink:href="#m11349362a9" y="320.177801"/>
     <use style="fill:#ff7f0e;stroke:#ff7f0e;" x="53.328125" xlink:href="#m11349362a9" y="320.177801"/>
     <use style="fill:#ff7f0e;stroke:#ff7f0e;" x="58.361266" xlink:href="#m11349362a9" y="320.177801"/>
     <use style="fill:#ff7f0e;stroke:#ff7f0e;" x="63.394407" xlink:href="#m11349362a9" y="320.177801"/>
     <use style="fill:#ff7f0e;stroke:#ff7f0e;" x="68.427548" xlink:href="#m11349362a9" y="298.095432"/>
     <use style="fill:#ff7f0e;stroke:#ff7f0e;" x="73.460688" xlink:href="#m11349362a9" y="298.095432"/>
     <use style="fill:#ff7f0e;stroke:#ff7f0e;" x="78.493829" xlink:href="#m11349362a9" y="298.095432"/>
     <use style="fill:#ff7f0e;stroke:#ff7f0e;" x="83.52697" xlink:href="#m11349362a9" y="287.281121"/>
     <use style="fill:#ff7f0e;stroke:#ff7f0e;" x="88.560111" xlink:href="#m11349362a9" y="285.384858"/>
     <use style="fill:#ff7f0e;stroke:#ff7f0e;" x="93.593252" xlink:href="#m11349362a9" y="284.048047"/>
     <use style="fill:#ff7f0e;stroke:#ff7f0e;" x="98.626393" xlink:href="#m11349362a9" y="284.048047"/>
     <use style="fill:#ff7f0e;stroke:#ff7f0e;" x="103.659534" xlink:href="#m11349362a9" y="282.776473"/>
     <use style="fill:#ff7f0e;stroke:#ff7f0e;" x="108.692675" xlink:href="#m11349362a9" y="280.786032"/>
     <use style="fill:#ff7f0e;stroke:#ff7f0e;" x="113.725815" xlink:href="#m11349362a9" y="278.232456"/>
     <use style="fill:#ff7f0e;stroke:#ff7f0e;" x="118.758956" xlink:href="#m11349362a9" y="270.734854"/>
     <use style="fill:#ff7f0e;stroke:#ff7f0e;" x="123.792097" xlink:href="#m11349362a9" y="265.128598"/>
     <use style="fill:#ff7f0e;stroke:#ff7f0e;" x="128.825238" xlink:href="#m11349362a9" y="258.813398"/>
     <use style="fill:#ff7f0e;stroke:#ff7f0e;" x="133.858379" xlink:href="#m11349362a9" y="250.067797"/>
     <use style="fill:#ff7f0e;stroke:#ff7f0e;" x="138.89152" xlink:href="#m11349362a9" y="240.502263"/>
     <use style="fill:#ff7f0e;stroke:#ff7f0e;" x="143.924661" xlink:href="#m11349362a9" y="232.418972"/>
     <use style="fill:#ff7f0e;stroke:#ff7f0e;" x="148.957802" xlink:href="#m11349362a9" y="226.735523"/>
     <use style="fill:#ff7f0e;stroke:#ff7f0e;" x="153.990942" xlink:href="#m11349362a9" y="219.87183"/>
     <use style="fill:#ff7f0e;stroke:#ff7f0e;" x="159.024083" xlink:href="#m11349362a9" y="210.881475"/>
     <use style="fill:#ff7f0e;stroke:#ff7f0e;" x="164.057224" xlink:href="#m11349362a9" y="203.866826"/>
     <use style="fill:#ff7f0e;stroke:#ff7f0e;" x="169.090365" xlink:href="#m11349362a9" y="197.991206"/>
     <use style="fill:#ff7f0e;stroke:#ff7f0e;" x="174.123506" xlink:href="#m11349362a9" y="190.377941"/>
     <use style="fill:#ff7f0e;stroke:#ff7f0e;" x="179.156647" xlink:href="#m11349362a9" y="184.171322"/>
     <use style="fill:#ff7f0e;stroke:#ff7f0e;" x="184.189788" xlink:href="#m11349362a9" y="177.246851"/>
     <use style="fill:#ff7f0e;stroke:#ff7f0e;" x="189.222929" xlink:href="#m11349362a9" y="170.975059"/>
     <use style="fill:#ff7f0e;stroke:#ff7f0e;" x="194.256069" xlink:href="#m11349362a9" y="162.566424"/>
     <use style="fill:#ff7f0e;stroke:#ff7f0e;" x="199.28921" xlink:href="#m11349362a9" y="152.616966"/>
     <use style="fill:#ff7f0e;stroke:#ff7f0e;" x="204.322351" xlink:href="#m11349362a9" y="142.197766"/>
     <use style="fill:#ff7f0e;stroke:#ff7f0e;" x="209.355492" xlink:href="#m11349362a9" y="133.313377"/>
     <use style="fill:#ff7f0e;stroke:#ff7f0e;" x="214.388633" xlink:href="#m11349362a9" y="127.525872"/>
     <use style="fill:#ff7f0e;stroke:#ff7f0e;" x="219.421774" xlink:href="#m11349362a9" y="119.016443"/>
     <use style="fill:#ff7f0e;stroke:#ff7f0e;" x="224.454915" xlink:href="#m11349362a9" y="112.067522"/>
     <use style="fill:#ff7f0e;stroke:#ff7f0e;" x="229.488055" xlink:href="#m11349362a9" y="106.180095"/>
     <use style="fill:#ff7f0e;stroke:#ff7f0e;" x="234.521196" xlink:href="#m11349362a9" y="100.498693"/>
     <use style="fill:#ff7f0e;stroke:#ff7f0e;" x="239.554337" xlink:href="#m11349362a9" y="94.616469"/>
     <use style="fill:#ff7f0e;stroke:#ff7f0e;" x="244.587478" xlink:href="#m11349362a9" y="89.481306"/>
     <use style="fill:#ff7f0e;stroke:#ff7f0e;" x="249.620619" xlink:href="#m11349362a9" y="85.04418"/>
     <use style="fill:#ff7f0e;stroke:#ff7f0e;" x="254.65376" xlink:href="#m11349362a9" y="81.142786"/>
     <use style="fill:#ff7f0e;stroke:#ff7f0e;" x="259.686901" xlink:href="#m11349362a9" y="77.644556"/>
     <use style="fill:#ff7f0e;stroke:#ff7f0e;" x="264.720042" xlink:href="#m11349362a9" y="73.980647"/>
     <use style="fill:#ff7f0e;stroke:#ff7f0e;" x="269.753182" xlink:href="#m11349362a9" y="70.558601"/>
     <use style="fill:#ff7f0e;stroke:#ff7f0e;" x="274.786323" xlink:href="#m11349362a9" y="67.166965"/>
     <use style="fill:#ff7f0e;stroke:#ff7f0e;" x="279.819464" xlink:href="#m11349362a9" y="63.94629"/>
     <use style="fill:#ff7f0e;stroke:#ff7f0e;" x="284.852605" xlink:href="#m11349362a9" y="60.934922"/>
     <use style="fill:#ff7f0e;stroke:#ff7f0e;" x="289.885746" xlink:href="#m11349362a9" y="58.90378"/>
     <use style="fill:#ff7f0e;stroke:#ff7f0e;" x="294.918887" xlink:href="#m11349362a9" y="56.604936"/>
     <use style="fill:#ff7f0e;stroke:#ff7f0e;" x="299.952028" xlink:href="#m11349362a9" y="54.346024"/>
     <use style="fill:#ff7f0e;stroke:#ff7f0e;" x="304.985169" xlink:href="#m11349362a9" y="52.357287"/>
     <use style="fill:#ff7f0e;stroke:#ff7f0e;" x="310.018309" xlink:href="#m11349362a9" y="50.420065"/>
     <use style="fill:#ff7f0e;stroke:#ff7f0e;" x="315.05145" xlink:href="#m11349362a9" y="48.609361"/>
     <use style="fill:#ff7f0e;stroke:#ff7f0e;" x="320.084591" xlink:href="#m11349362a9" y="47.099042"/>
     <use style="fill:#ff7f0e;stroke:#ff7f0e;" x="325.117732" xlink:href="#m11349362a9" y="45.791298"/>
     <use style="fill:#ff7f0e;stroke:#ff7f0e;" x="330.150873" xlink:href="#m11349362a9" y="44.580662"/>
     <use style="fill:#ff7f0e;stroke:#ff7f0e;" x="335.184014" xlink:href="#m11349362a9" y="43.251092"/>
     <use style="fill:#ff7f0e;stroke:#ff7f0e;" x="340.217155" xlink:href="#m11349362a9" y="42.001269"/>
     <use style="fill:#ff7f0e;stroke:#ff7f0e;" x="345.250295" xlink:href="#m11349362a9" y="40.838441"/>
    </g>
   </g>
   <g id="line2d_43">
    <path clip-path="url(#p42e9e7f174)" d="M 38.228702 317.970793 
L 43.261843 317.970793 
L 48.294984 317.970793 
L 53.328125 317.970793 
L 58.361266 317.970793 
L 63.394407 310.473192 
L 68.427548 267.256271 
L 73.460688 232.725921 
L 78.493829 214.826519 
L 83.52697 204.988693 
L 88.560111 196.025144 
L 93.593252 186.249758 
L 98.626393 177.599678 
L 103.659534 169.638694 
L 108.692675 163.433197 
L 113.725815 152.72766 
L 118.758956 148.042455 
L 123.792097 142.670968 
L 128.825238 137.178196 
L 133.858379 131.38455 
L 138.89152 126.596862 
L 143.924661 120.388479 
L 148.957802 114.497685 
L 153.990942 108.814596 
L 159.024083 106.176594 
L 164.057224 100.825813 
L 169.090365 95.799181 
L 174.123506 91.740088 
L 179.156647 87.031483 
L 184.189788 82.946679 
L 189.222929 79.746624 
L 194.256069 76.653364 
L 199.28921 73.386824 
L 204.322351 69.766521 
L 209.355492 66.217671 
L 214.388633 62.815413 
L 219.421774 60.242167 
L 224.454915 58.212759 
L 229.488055 56.156142 
L 234.521196 54.263674 
L 239.554337 52.176244 
L 244.587478 50.332112 
L 249.620619 48.591565 
L 254.65376 47.161196 
L 259.686901 46.102508 
L 264.720042 45.084413 
L 269.753182 43.932205 
L 274.786323 42.854555 
L 279.819464 41.837748 
L 284.852605 40.813081 
L 289.885746 39.925827 
L 294.918887 39.208387 
L 299.952028 38.61759 
L 304.985169 37.890478 
L 310.018309 37.116241 
L 315.05145 36.408984 
L 320.084591 35.592934 
L 325.117732 34.901808 
L 330.150873 34.381504 
L 335.184014 33.9004 
L 340.217155 33.476101 
L 345.250295 32.885401 
" style="fill:none;stroke:#2ca02c;stroke-linecap:square;stroke-width:1.5;"/>
    <defs>
     <path d="M 0 3 
C 0.795609 3 1.55874 2.683901 2.12132 2.12132 
C 2.683901 1.55874 3 0.795609 3 0 
C 3 -0.795609 2.683901 -1.55874 2.12132 -2.12132 
C 1.55874 -2.683901 0.795609 -3 0 -3 
C -0.795609 -3 -1.55874 -2.683901 -2.12132 -2.12132 
C -2.683901 -1.55874 -3 -0.795609 -3 0 
C -3 0.795609 -2.683901 1.55874 -2.12132 2.12132 
C -1.55874 2.683901 -0.795609 3 0 3 
z
" id="m26a49bec57" style="stroke:#2ca02c;"/>
    </defs>
    <g clip-path="url(#p42e9e7f174)">
     <use style="fill:#2ca02c;stroke:#2ca02c;" x="38.228702" xlink:href="#m26a49bec57" y="317.970793"/>
     <use style="fill:#2ca02c;stroke:#2ca02c;" x="43.261843" xlink:href="#m26a49bec57" y="317.970793"/>
     <use style="fill:#2ca02c;stroke:#2ca02c;" x="48.294984" xlink:href="#m26a49bec57" y="317.970793"/>
     <use style="fill:#2ca02c;stroke:#2ca02c;" x="53.328125" xlink:href="#m26a49bec57" y="317.970793"/>
     <use style="fill:#2ca02c;stroke:#2ca02c;" x="58.361266" xlink:href="#m26a49bec57" y="317.970793"/>
     <use style="fill:#2ca02c;stroke:#2ca02c;" x="63.394407" xlink:href="#m26a49bec57" y="310.473192"/>
     <use style="fill:#2ca02c;stroke:#2ca02c;" x="68.427548" xlink:href="#m26a49bec57" y="267.256271"/>
     <use style="fill:#2ca02c;stroke:#2ca02c;" x="73.460688" xlink:href="#m26a49bec57" y="232.725921"/>
     <use style="fill:#2ca02c;stroke:#2ca02c;" x="78.493829" xlink:href="#m26a49bec57" y="214.826519"/>
     <use style="fill:#2ca02c;stroke:#2ca02c;" x="83.52697" xlink:href="#m26a49bec57" y="204.988693"/>
     <use style="fill:#2ca02c;stroke:#2ca02c;" x="88.560111" xlink:href="#m26a49bec57" y="196.025144"/>
     <use style="fill:#2ca02c;stroke:#2ca02c;" x="93.593252" xlink:href="#m26a49bec57" y="186.249758"/>
     <use style="fill:#2ca02c;stroke:#2ca02c;" x="98.626393" xlink:href="#m26a49bec57" y="177.599678"/>
     <use style="fill:#2ca02c;stroke:#2ca02c;" x="103.659534" xlink:href="#m26a49bec57" y="169.638694"/>
     <use style="fill:#2ca02c;stroke:#2ca02c;" x="108.692675" xlink:href="#m26a49bec57" y="163.433197"/>
     <use style="fill:#2ca02c;stroke:#2ca02c;" x="113.725815" xlink:href="#m26a49bec57" y="152.72766"/>
     <use style="fill:#2ca02c;stroke:#2ca02c;" x="118.758956" xlink:href="#m26a49bec57" y="148.042455"/>
     <use style="fill:#2ca02c;stroke:#2ca02c;" x="123.792097" xlink:href="#m26a49bec57" y="142.670968"/>
     <use style="fill:#2ca02c;stroke:#2ca02c;" x="128.825238" xlink:href="#m26a49bec57" y="137.178196"/>
     <use style="fill:#2ca02c;stroke:#2ca02c;" x="133.858379" xlink:href="#m26a49bec57" y="131.38455"/>
     <use style="fill:#2ca02c;stroke:#2ca02c;" x="138.89152" xlink:href="#m26a49bec57" y="126.596862"/>
     <use style="fill:#2ca02c;stroke:#2ca02c;" x="143.924661" xlink:href="#m26a49bec57" y="120.388479"/>
     <use style="fill:#2ca02c;stroke:#2ca02c;" x="148.957802" xlink:href="#m26a49bec57" y="114.497685"/>
     <use style="fill:#2ca02c;stroke:#2ca02c;" x="153.990942" xlink:href="#m26a49bec57" y="108.814596"/>
     <use style="fill:#2ca02c;stroke:#2ca02c;" x="159.024083" xlink:href="#m26a49bec57" y="106.176594"/>
     <use style="fill:#2ca02c;stroke:#2ca02c;" x="164.057224" xlink:href="#m26a49bec57" y="100.825813"/>
     <use style="fill:#2ca02c;stroke:#2ca02c;" x="169.090365" xlink:href="#m26a49bec57" y="95.799181"/>
     <use style="fill:#2ca02c;stroke:#2ca02c;" x="174.123506" xlink:href="#m26a49bec57" y="91.740088"/>
     <use style="fill:#2ca02c;stroke:#2ca02c;" x="179.156647" xlink:href="#m26a49bec57" y="87.031483"/>
     <use style="fill:#2ca02c;stroke:#2ca02c;" x="184.189788" xlink:href="#m26a49bec57" y="82.946679"/>
     <use style="fill:#2ca02c;stroke:#2ca02c;" x="189.222929" xlink:href="#m26a49bec57" y="79.746624"/>
     <use style="fill:#2ca02c;stroke:#2ca02c;" x="194.256069" xlink:href="#m26a49bec57" y="76.653364"/>
     <use style="fill:#2ca02c;stroke:#2ca02c;" x="199.28921" xlink:href="#m26a49bec57" y="73.386824"/>
     <use style="fill:#2ca02c;stroke:#2ca02c;" x="204.322351" xlink:href="#m26a49bec57" y="69.766521"/>
     <use style="fill:#2ca02c;stroke:#2ca02c;" x="209.355492" xlink:href="#m26a49bec57" y="66.217671"/>
     <use style="fill:#2ca02c;stroke:#2ca02c;" x="214.388633" xlink:href="#m26a49bec57" y="62.815413"/>
     <use style="fill:#2ca02c;stroke:#2ca02c;" x="219.421774" xlink:href="#m26a49bec57" y="60.242167"/>
     <use style="fill:#2ca02c;stroke:#2ca02c;" x="224.454915" xlink:href="#m26a49bec57" y="58.212759"/>
     <use style="fill:#2ca02c;stroke:#2ca02c;" x="229.488055" xlink:href="#m26a49bec57" y="56.156142"/>
     <use style="fill:#2ca02c;stroke:#2ca02c;" x="234.521196" xlink:href="#m26a49bec57" y="54.263674"/>
     <use style="fill:#2ca02c;stroke:#2ca02c;" x="239.554337" xlink:href="#m26a49bec57" y="52.176244"/>
     <use style="fill:#2ca02c;stroke:#2ca02c;" x="244.587478" xlink:href="#m26a49bec57" y="50.332112"/>
     <use style="fill:#2ca02c;stroke:#2ca02c;" x="249.620619" xlink:href="#m26a49bec57" y="48.591565"/>
     <use style="fill:#2ca02c;stroke:#2ca02c;" x="254.65376" xlink:href="#m26a49bec57" y="47.161196"/>
     <use style="fill:#2ca02c;stroke:#2ca02c;" x="259.686901" xlink:href="#m26a49bec57" y="46.102508"/>
     <use style="fill:#2ca02c;stroke:#2ca02c;" x="264.720042" xlink:href="#m26a49bec57" y="45.084413"/>
     <use style="fill:#2ca02c;stroke:#2ca02c;" x="269.753182" xlink:href="#m26a49bec57" y="43.932205"/>
     <use style="fill:#2ca02c;stroke:#2ca02c;" x="274.786323" xlink:href="#m26a49bec57" y="42.854555"/>
     <use style="fill:#2ca02c;stroke:#2ca02c;" x="279.819464" xlink:href="#m26a49bec57" y="41.837748"/>
     <use style="fill:#2ca02c;stroke:#2ca02c;" x="284.852605" xlink:href="#m26a49bec57" y="40.813081"/>
     <use style="fill:#2ca02c;stroke:#2ca02c;" x="289.885746" xlink:href="#m26a49bec57" y="39.925827"/>
     <use style="fill:#2ca02c;stroke:#2ca02c;" x="294.918887" xlink:href="#m26a49bec57" y="39.208387"/>
     <use style="fill:#2ca02c;stroke:#2ca02c;" x="299.952028" xlink:href="#m26a49bec57" y="38.61759"/>
     <use style="fill:#2ca02c;stroke:#2ca02c;" x="304.985169" xlink:href="#m26a49bec57" y="37.890478"/>
     <use style="fill:#2ca02c;stroke:#2ca02c;" x="310.018309" xlink:href="#m26a49bec57" y="37.116241"/>
     <use style="fill:#2ca02c;stroke:#2ca02c;" x="315.05145" xlink:href="#m26a49bec57" y="36.408984"/>
     <use style="fill:#2ca02c;stroke:#2ca02c;" x="320.084591" xlink:href="#m26a49bec57" y="35.592934"/>
     <use style="fill:#2ca02c;stroke:#2ca02c;" x="325.117732" xlink:href="#m26a49bec57" y="34.901808"/>
     <use style="fill:#2ca02c;stroke:#2ca02c;" x="330.150873" xlink:href="#m26a49bec57" y="34.381504"/>
     <use style="fill:#2ca02c;stroke:#2ca02c;" x="335.184014" xlink:href="#m26a49bec57" y="33.9004"/>
     <use style="fill:#2ca02c;stroke:#2ca02c;" x="340.217155" xlink:href="#m26a49bec57" y="33.476101"/>
     <use style="fill:#2ca02c;stroke:#2ca02c;" x="345.250295" xlink:href="#m26a49bec57" y="32.885401"/>
    </g>
   </g>
   <g id="line2d_44">
    <path clip-path="url(#p42e9e7f174)" d="M 38.228702 292.288407 
L 43.261843 292.288407 
L 48.294984 292.288407 
L 53.328125 292.288407 
L 58.361266 292.288407 
L 63.394407 292.288407 
L 68.427548 292.288407 
L 73.460688 292.288407 
L 78.493829 282.704724 
L 83.52697 282.704724 
L 88.560111 282.704724 
L 93.593252 282.704724 
L 98.626393 277.293204 
L 103.659534 271.477613 
L 108.692675 267.835122 
L 113.725815 256.158653 
L 118.758956 254.072571 
L 123.792097 247.081046 
L 128.825238 233.161731 
L 133.858379 225.664129 
L 138.89152 216.63944 
L 143.924661 210.320218 
L 148.957802 202.88504 
L 153.990942 199.136788 
L 159.024083 194.534379 
L 164.057224 189.760022 
L 169.090365 183.273267 
L 174.123506 175.402873 
L 179.156647 166.107172 
L 184.189788 160.920952 
L 189.222929 158.218164 
L 194.256069 152.117003 
L 199.28921 144.360075 
L 204.322351 138.651891 
L 209.355492 133.503291 
L 214.388633 127.483044 
L 219.421774 124.239672 
L 224.454915 120.144335 
L 229.488055 115.077765 
L 234.521196 110.769197 
L 239.554337 105.513698 
L 244.587478 99.750919 
L 249.620619 95.546444 
L 254.65376 92.077394 
L 259.686901 88.796459 
L 264.720042 85.475448 
L 269.753182 81.340678 
L 274.786323 77.834718 
L 279.819464 74.603911 
L 284.852605 72.170754 
L 289.885746 68.735932 
L 294.918887 66.741514 
L 299.952028 64.96807 
L 304.985169 62.498329 
L 310.018309 60.697855 
L 315.05145 57.434403 
L 320.084591 55.64799 
L 325.117732 53.959196 
L 330.150873 52.649937 
L 335.184014 51.149438 
L 340.217155 49.901844 
L 345.250295 48.707714 
" style="fill:none;stroke:#1f77b4;stroke-linecap:square;stroke-width:1.5;"/>
    <defs>
     <path d="M 0 3 
C 0.795609 3 1.55874 2.683901 2.12132 2.12132 
C 2.683901 1.55874 3 0.795609 3 0 
C 3 -0.795609 2.683901 -1.55874 2.12132 -2.12132 
C 1.55874 -2.683901 0.795609 -3 0 -3 
C -0.795609 -3 -1.55874 -2.683901 -2.12132 -2.12132 
C -2.683901 -1.55874 -3 -0.795609 -3 0 
C -3 0.795609 -2.683901 1.55874 -2.12132 2.12132 
C -1.55874 2.683901 -0.795609 3 0 3 
z
" id="m52e9f4bad6" style="stroke:#1f77b4;"/>
    </defs>
    <g clip-path="url(#p42e9e7f174)">
     <use style="fill:#1f77b4;stroke:#1f77b4;" x="38.228702" xlink:href="#m52e9f4bad6" y="292.288407"/>
     <use style="fill:#1f77b4;stroke:#1f77b4;" x="43.261843" xlink:href="#m52e9f4bad6" y="292.288407"/>
     <use style="fill:#1f77b4;stroke:#1f77b4;" x="48.294984" xlink:href="#m52e9f4bad6" y="292.288407"/>
     <use style="fill:#1f77b4;stroke:#1f77b4;" x="53.328125" xlink:href="#m52e9f4bad6" y="292.288407"/>
     <use style="fill:#1f77b4;stroke:#1f77b4;" x="58.361266" xlink:href="#m52e9f4bad6" y="292.288407"/>
     <use style="fill:#1f77b4;stroke:#1f77b4;" x="63.394407" xlink:href="#m52e9f4bad6" y="292.288407"/>
     <use style="fill:#1f77b4;stroke:#1f77b4;" x="68.427548" xlink:href="#m52e9f4bad6" y="292.288407"/>
     <use style="fill:#1f77b4;stroke:#1f77b4;" x="73.460688" xlink:href="#m52e9f4bad6" y="292.288407"/>
     <use style="fill:#1f77b4;stroke:#1f77b4;" x="78.493829" xlink:href="#m52e9f4bad6" y="282.704724"/>
     <use style="fill:#1f77b4;stroke:#1f77b4;" x="83.52697" xlink:href="#m52e9f4bad6" y="282.704724"/>
     <use style="fill:#1f77b4;stroke:#1f77b4;" x="88.560111" xlink:href="#m52e9f4bad6" y="282.704724"/>
     <use style="fill:#1f77b4;stroke:#1f77b4;" x="93.593252" xlink:href="#m52e9f4bad6" y="282.704724"/>
     <use style="fill:#1f77b4;stroke:#1f77b4;" x="98.626393" xlink:href="#m52e9f4bad6" y="277.293204"/>
     <use style="fill:#1f77b4;stroke:#1f77b4;" x="103.659534" xlink:href="#m52e9f4bad6" y="271.477613"/>
     <use style="fill:#1f77b4;stroke:#1f77b4;" x="108.692675" xlink:href="#m52e9f4bad6" y="267.835122"/>
     <use style="fill:#1f77b4;stroke:#1f77b4;" x="113.725815" xlink:href="#m52e9f4bad6" y="256.158653"/>
     <use style="fill:#1f77b4;stroke:#1f77b4;" x="118.758956" xlink:href="#m52e9f4bad6" y="254.072571"/>
     <use style="fill:#1f77b4;stroke:#1f77b4;" x="123.792097" xlink:href="#m52e9f4bad6" y="247.081046"/>
     <use style="fill:#1f77b4;stroke:#1f77b4;" x="128.825238" xlink:href="#m52e9f4bad6" y="233.161731"/>
     <use style="fill:#1f77b4;stroke:#1f77b4;" x="133.858379" xlink:href="#m52e9f4bad6" y="225.664129"/>
     <use style="fill:#1f77b4;stroke:#1f77b4;" x="138.89152" xlink:href="#m52e9f4bad6" y="216.63944"/>
     <use style="fill:#1f77b4;stroke:#1f77b4;" x="143.924661" xlink:href="#m52e9f4bad6" y="210.320218"/>
     <use style="fill:#1f77b4;stroke:#1f77b4;" x="148.957802" xlink:href="#m52e9f4bad6" y="202.88504"/>
     <use style="fill:#1f77b4;stroke:#1f77b4;" x="153.990942" xlink:href="#m52e9f4bad6" y="199.136788"/>
     <use style="fill:#1f77b4;stroke:#1f77b4;" x="159.024083" xlink:href="#m52e9f4bad6" y="194.534379"/>
     <use style="fill:#1f77b4;stroke:#1f77b4;" x="164.057224" xlink:href="#m52e9f4bad6" y="189.760022"/>
     <use style="fill:#1f77b4;stroke:#1f77b4;" x="169.090365" xlink:href="#m52e9f4bad6" y="183.273267"/>
     <use style="fill:#1f77b4;stroke:#1f77b4;" x="174.123506" xlink:href="#m52e9f4bad6" y="175.402873"/>
     <use style="fill:#1f77b4;stroke:#1f77b4;" x="179.156647" xlink:href="#m52e9f4bad6" y="166.107172"/>
     <use style="fill:#1f77b4;stroke:#1f77b4;" x="184.189788" xlink:href="#m52e9f4bad6" y="160.920952"/>
     <use style="fill:#1f77b4;stroke:#1f77b4;" x="189.222929" xlink:href="#m52e9f4bad6" y="158.218164"/>
     <use style="fill:#1f77b4;stroke:#1f77b4;" x="194.256069" xlink:href="#m52e9f4bad6" y="152.117003"/>
     <use style="fill:#1f77b4;stroke:#1f77b4;" x="199.28921" xlink:href="#m52e9f4bad6" y="144.360075"/>
     <use style="fill:#1f77b4;stroke:#1f77b4;" x="204.322351" xlink:href="#m52e9f4bad6" y="138.651891"/>
     <use style="fill:#1f77b4;stroke:#1f77b4;" x="209.355492" xlink:href="#m52e9f4bad6" y="133.503291"/>
     <use style="fill:#1f77b4;stroke:#1f77b4;" x="214.388633" xlink:href="#m52e9f4bad6" y="127.483044"/>
     <use style="fill:#1f77b4;stroke:#1f77b4;" x="219.421774" xlink:href="#m52e9f4bad6" y="124.239672"/>
     <use style="fill:#1f77b4;stroke:#1f77b4;" x="224.454915" xlink:href="#m52e9f4bad6" y="120.144335"/>
     <use style="fill:#1f77b4;stroke:#1f77b4;" x="229.488055" xlink:href="#m52e9f4bad6" y="115.077765"/>
     <use style="fill:#1f77b4;stroke:#1f77b4;" x="234.521196" xlink:href="#m52e9f4bad6" y="110.769197"/>
     <use style="fill:#1f77b4;stroke:#1f77b4;" x="239.554337" xlink:href="#m52e9f4bad6" y="105.513698"/>
     <use style="fill:#1f77b4;stroke:#1f77b4;" x="244.587478" xlink:href="#m52e9f4bad6" y="99.750919"/>
     <use style="fill:#1f77b4;stroke:#1f77b4;" x="249.620619" xlink:href="#m52e9f4bad6" y="95.546444"/>
     <use style="fill:#1f77b4;stroke:#1f77b4;" x="254.65376" xlink:href="#m52e9f4bad6" y="92.077394"/>
     <use style="fill:#1f77b4;stroke:#1f77b4;" x="259.686901" xlink:href="#m52e9f4bad6" y="88.796459"/>
     <use style="fill:#1f77b4;stroke:#1f77b4;" x="264.720042" xlink:href="#m52e9f4bad6" y="85.475448"/>
     <use style="fill:#1f77b4;stroke:#1f77b4;" x="269.753182" xlink:href="#m52e9f4bad6" y="81.340678"/>
     <use style="fill:#1f77b4;stroke:#1f77b4;" x="274.786323" xlink:href="#m52e9f4bad6" y="77.834718"/>
     <use style="fill:#1f77b4;stroke:#1f77b4;" x="279.819464" xlink:href="#m52e9f4bad6" y="74.603911"/>
     <use style="fill:#1f77b4;stroke:#1f77b4;" x="284.852605" xlink:href="#m52e9f4bad6" y="72.170754"/>
     <use style="fill:#1f77b4;stroke:#1f77b4;" x="289.885746" xlink:href="#m52e9f4bad6" y="68.735932"/>
     <use style="fill:#1f77b4;stroke:#1f77b4;" x="294.918887" xlink:href="#m52e9f4bad6" y="66.741514"/>
     <use style="fill:#1f77b4;stroke:#1f77b4;" x="299.952028" xlink:href="#m52e9f4bad6" y="64.96807"/>
     <use style="fill:#1f77b4;stroke:#1f77b4;" x="304.985169" xlink:href="#m52e9f4bad6" y="62.498329"/>
     <use style="fill:#1f77b4;stroke:#1f77b4;" x="310.018309" xlink:href="#m52e9f4bad6" y="60.697855"/>
     <use style="fill:#1f77b4;stroke:#1f77b4;" x="315.05145" xlink:href="#m52e9f4bad6" y="57.434403"/>
     <use style="fill:#1f77b4;stroke:#1f77b4;" x="320.084591" xlink:href="#m52e9f4bad6" y="55.64799"/>
     <use style="fill:#1f77b4;stroke:#1f77b4;" x="325.117732" xlink:href="#m52e9f4bad6" y="53.959196"/>
     <use style="fill:#1f77b4;stroke:#1f77b4;" x="330.150873" xlink:href="#m52e9f4bad6" y="52.649937"/>
     <use style="fill:#1f77b4;stroke:#1f77b4;" x="335.184014" xlink:href="#m52e9f4bad6" y="51.149438"/>
     <use style="fill:#1f77b4;stroke:#1f77b4;" x="340.217155" xlink:href="#m52e9f4bad6" y="49.901844"/>
     <use style="fill:#1f77b4;stroke:#1f77b4;" x="345.250295" xlink:href="#m52e9f4bad6" y="48.707714"/>
    </g>
   </g>
   <g id="line2d_45">
    <path clip-path="url(#p42e9e7f174)" d="M 53.328125 117.304031 
L 388.128125 117.304031 
" style="fill:none;stroke:#1f77b4;stroke-dasharray:7.4,3.2;stroke-dashoffset:0;stroke-opacity:0.7;stroke-width:2;"/>
   </g>
   <g id="line2d_46">
    <path clip-path="url(#p42e9e7f174)" d="M 53.328125 77.119205 
L 388.128125 77.119205 
" style="fill:none;stroke:#ff7f0e;stroke-dasharray:7.4,3.2;stroke-dashoffset:0;stroke-opacity:0.7;stroke-width:2;"/>
   </g>
   <g id="line2d_47">
    <path clip-path="url(#p42e9e7f174)" d="M 53.328125 95.799181 
L 388.128125 95.799181 
" style="fill:none;stroke:#2ca02c;stroke-dasharray:12.8,3.2,2,3.2;stroke-dashoffset:0;stroke-opacity:0.7;stroke-width:2;"/>
   </g>
   <g id="line2d_48">
    <path clip-path="url(#p42e9e7f174)" d="M 88.560111 271.136195 
L 88.560111 22.318125 
" style="fill:none;stroke:#2ca02c;stroke-linecap:square;stroke-opacity:0.3;stroke-width:4;"/>
   </g>
   <g id="line2d_49">
    <path clip-path="url(#p42e9e7f174)" d="M 169.090365 271.136195 
L 169.090365 22.318125 
" style="fill:none;stroke:#ff7f0e;stroke-linecap:square;stroke-opacity:0.3;stroke-width:4;"/>
   </g>
   <g id="line2d_50">
    <path clip-path="url(#p42e9e7f174)" d="M 199.28921 271.136195 
L 199.28921 22.318125 
" style="fill:none;stroke:#1f77b4;stroke-linecap:square;stroke-opacity:0.3;stroke-width:4;"/>
   </g>
   <g id="patch_3">
    <path d="M 53.328125 239.758125 
L 53.328125 22.318125 
" style="fill:none;stroke:#000000;stroke-linecap:square;stroke-linejoin:miter;stroke-width:0.8;"/>
   </g>
   <g id="patch_4">
    <path d="M 388.128125 239.758125 
L 388.128125 22.318125 
" style="fill:none;stroke:#000000;stroke-linecap:square;stroke-linejoin:miter;stroke-width:0.8;"/>
   </g>
   <g id="patch_5">
    <path d="M 53.328125 239.758125 
L 388.128125 239.758125 
" style="fill:none;stroke:#000000;stroke-linecap:square;stroke-linejoin:miter;stroke-width:0.8;"/>
   </g>
   <g id="patch_6">
    <path d="M 53.328125 22.318125 
L 388.128125 22.318125 
" style="fill:none;stroke:#000000;stroke-linecap:square;stroke-linejoin:miter;stroke-width:0.8;"/>
   </g>
   <g id="text_21">
    <!--  Scott Sievert -->
    <defs>
     <path d="M 50 72.515625 
Q 57.421875 72.515625 63.84375 69.828125 
Q 70.265625 67.140625 75.59375 61.8125 
Q 80.90625 56.5 83.546875 50.09375 
Q 86.1875 43.703125 86.1875 36.1875 
Q 86.1875 28.765625 83.546875 22.390625 
Q 80.90625 16.015625 75.59375 10.6875 
Q 70.265625 5.375 63.84375 2.6875 
Q 57.421875 0 50 0 
Q 42.578125 0 36.15625 2.6875 
Q 29.734375 5.375 24.421875 10.6875 
Q 19.09375 16.015625 16.453125 22.390625 
Q 13.8125 28.765625 13.8125 36.1875 
Q 13.8125 43.703125 16.453125 50.09375 
Q 19.09375 56.5 24.421875 61.8125 
Q 29.734375 67.140625 36.15625 69.828125 
Q 42.578125 72.515625 50 72.515625 
z
M 50 67.484375 
Q 43.609375 67.484375 38.078125 65.1875 
Q 32.5625 62.890625 27.984375 58.296875 
Q 23.390625 53.71875 21.046875 48.125 
Q 18.703125 42.53125 18.703125 36.1875 
Q 18.703125 29.890625 21.046875 24.34375 
Q 23.390625 18.796875 27.984375 14.203125 
Q 32.5625 9.625 38.078125 7.296875 
Q 43.609375 4.984375 50 4.984375 
Q 56.453125 4.984375 61.984375 7.296875 
Q 67.53125 9.625 72.125 14.203125 
Q 76.65625 18.75 78.921875 24.265625 
Q 81.203125 29.78125 81.203125 36.1875 
Q 81.203125 42.671875 78.90625 48.21875 
Q 76.609375 53.765625 72.125 58.296875 
Q 67.53125 62.890625 61.984375 65.1875 
Q 56.453125 67.484375 50 67.484375 
z
M 64.59375 55.515625 
L 64.59375 49.21875 
Q 61.375 50.828125 58.203125 51.609375 
Q 55.03125 52.390625 51.8125 52.390625 
Q 44.53125 52.390625 40.453125 48.109375 
Q 36.375 43.84375 36.375 36.1875 
Q 36.375 28.421875 40.546875 24.171875 
Q 44.734375 19.921875 52.296875 19.921875 
Q 55.421875 19.921875 58.390625 20.671875 
Q 61.375 21.4375 64.59375 23.09375 
L 64.59375 16.890625 
Q 61.328125 15.484375 57.984375 14.796875 
Q 54.640625 14.109375 51.21875 14.109375 
Q 40.671875 14.109375 34.546875 20.0625 
Q 28.421875 26.03125 28.421875 36.1875 
Q 28.421875 46.390625 34.546875 52.296875 
Q 40.671875 58.203125 51.21875 58.203125 
Q 54.78125 58.203125 58.09375 57.515625 
Q 61.421875 56.84375 64.59375 55.515625 
z
" id="DejaVuSans-169"/>
     <path d="M 53.515625 70.515625 
L 53.515625 60.890625 
Q 47.90625 63.578125 42.921875 64.890625 
Q 37.9375 66.21875 33.296875 66.21875 
Q 25.25 66.21875 20.875 63.09375 
Q 16.5 59.96875 16.5 54.203125 
Q 16.5 49.359375 19.40625 46.890625 
Q 22.3125 44.4375 30.421875 42.921875 
L 36.375 41.703125 
Q 47.40625 39.59375 52.65625 34.296875 
Q 57.90625 29 57.90625 20.125 
Q 57.90625 9.515625 50.796875 4.046875 
Q 43.703125 -1.421875 29.984375 -1.421875 
Q 24.8125 -1.421875 18.96875 -0.25 
Q 13.140625 0.921875 6.890625 3.21875 
L 6.890625 13.375 
Q 12.890625 10.015625 18.65625 8.296875 
Q 24.421875 6.59375 29.984375 6.59375 
Q 38.421875 6.59375 43.015625 9.90625 
Q 47.609375 13.234375 47.609375 19.390625 
Q 47.609375 24.75 44.3125 27.78125 
Q 41.015625 30.8125 33.5 32.328125 
L 27.484375 33.5 
Q 16.453125 35.6875 11.515625 40.375 
Q 6.59375 45.0625 6.59375 53.421875 
Q 6.59375 63.09375 13.40625 68.65625 
Q 20.21875 74.21875 32.171875 74.21875 
Q 37.3125 74.21875 42.625 73.28125 
Q 47.953125 72.359375 53.515625 70.515625 
z
" id="DejaVuSans-83"/>
     <path d="M 48.78125 52.59375 
L 48.78125 44.1875 
Q 44.96875 46.296875 41.140625 47.34375 
Q 37.3125 48.390625 33.40625 48.390625 
Q 24.65625 48.390625 19.8125 42.84375 
Q 14.984375 37.3125 14.984375 27.296875 
Q 14.984375 17.28125 19.8125 11.734375 
Q 24.65625 6.203125 33.40625 6.203125 
Q 37.3125 6.203125 41.140625 7.25 
Q 44.96875 8.296875 48.78125 10.40625 
L 48.78125 2.09375 
Q 45.015625 0.34375 40.984375 -0.53125 
Q 36.96875 -1.421875 32.421875 -1.421875 
Q 20.0625 -1.421875 12.78125 6.34375 
Q 5.515625 14.109375 5.515625 27.296875 
Q 5.515625 40.671875 12.859375 48.328125 
Q 20.21875 56 33.015625 56 
Q 37.15625 56 41.109375 55.140625 
Q 45.0625 54.296875 48.78125 52.59375 
z
" id="DejaVuSans-99"/>
     <path d="M 18.3125 70.21875 
L 18.3125 54.6875 
L 36.8125 54.6875 
L 36.8125 47.703125 
L 18.3125 47.703125 
L 18.3125 18.015625 
Q 18.3125 11.328125 20.140625 9.421875 
Q 21.96875 7.515625 27.59375 7.515625 
L 36.8125 7.515625 
L 36.8125 0 
L 27.59375 0 
Q 17.1875 0 13.234375 3.875 
Q 9.28125 7.765625 9.28125 18.015625 
L 9.28125 47.703125 
L 2.6875 47.703125 
L 2.6875 54.6875 
L 9.28125 54.6875 
L 9.28125 70.21875 
z
" id="DejaVuSans-116"/>
     <path d="M 2.984375 54.6875 
L 12.5 54.6875 
L 29.59375 8.796875 
L 46.6875 54.6875 
L 56.203125 54.6875 
L 35.6875 0 
L 23.484375 0 
z
" id="DejaVuSans-118"/>
    </defs>
    <g style="fill:#aaaaaa;" transform="translate(292.498448 335.898102)scale(0.1 -0.1)">
     <use xlink:href="#DejaVuSans-169"/>
     <use x="100" xlink:href="#DejaVuSans-32"/>
     <use x="131.787109" xlink:href="#DejaVuSans-83"/>
     <use x="195.263672" xlink:href="#DejaVuSans-99"/>
     <use x="250.244141" xlink:href="#DejaVuSans-111"/>
     <use x="311.425781" xlink:href="#DejaVuSans-116"/>
     <use x="350.634766" xlink:href="#DejaVuSans-116"/>
     <use x="389.84375" xlink:href="#DejaVuSans-32"/>
     <use x="421.630859" xlink:href="#DejaVuSans-83"/>
     <use x="485.107422" xlink:href="#DejaVuSans-105"/>
     <use x="512.890625" xlink:href="#DejaVuSans-101"/>
     <use x="574.414062" xlink:href="#DejaVuSans-118"/>
     <use x="633.59375" xlink:href="#DejaVuSans-101"/>
     <use x="695.117188" xlink:href="#DejaVuSans-114"/>
     <use x="736.230469" xlink:href="#DejaVuSans-116"/>
    </g>
   </g>
   <g id="text_22">
    <!-- Cases per country -->
    <defs>
     <path d="M 8.5 21.578125 
L 8.5 54.6875 
L 17.484375 54.6875 
L 17.484375 21.921875 
Q 17.484375 14.15625 20.5 10.265625 
Q 23.53125 6.390625 29.59375 6.390625 
Q 36.859375 6.390625 41.078125 11.03125 
Q 45.3125 15.671875 45.3125 23.6875 
L 45.3125 54.6875 
L 54.296875 54.6875 
L 54.296875 0 
L 45.3125 0 
L 45.3125 8.40625 
Q 42.046875 3.421875 37.71875 1 
Q 33.40625 -1.421875 27.6875 -1.421875 
Q 18.265625 -1.421875 13.375 4.4375 
Q 8.5 10.296875 8.5 21.578125 
z
M 31.109375 56 
z
" id="DejaVuSans-117"/>
     <path d="M 32.171875 -5.078125 
Q 28.375 -14.84375 24.75 -17.8125 
Q 21.140625 -20.796875 15.09375 -20.796875 
L 7.90625 -20.796875 
L 7.90625 -13.28125 
L 13.1875 -13.28125 
Q 16.890625 -13.28125 18.9375 -11.515625 
Q 21 -9.765625 23.484375 -3.21875 
L 25.09375 0.875 
L 2.984375 54.6875 
L 12.5 54.6875 
L 29.59375 11.921875 
L 46.6875 54.6875 
L 56.203125 54.6875 
z
" id="DejaVuSans-121"/>
    </defs>
    <g transform="translate(166.191875 16.318125)scale(0.12 -0.12)">
     <use xlink:href="#DejaVuSans-67"/>
     <use x="69.824219" xlink:href="#DejaVuSans-97"/>
     <use x="131.103516" xlink:href="#DejaVuSans-115"/>
     <use x="183.203125" xlink:href="#DejaVuSans-101"/>
     <use x="244.726562" xlink:href="#DejaVuSans-115"/>
     <use x="296.826172" xlink:href="#DejaVuSans-32"/>
     <use x="328.613281" xlink:href="#DejaVuSans-112"/>
     <use x="392.089844" xlink:href="#DejaVuSans-101"/>
     <use x="453.613281" xlink:href="#DejaVuSans-114"/>
     <use x="494.726562" xlink:href="#DejaVuSans-32"/>
     <use x="526.513672" xlink:href="#DejaVuSans-99"/>
     <use x="581.494141" xlink:href="#DejaVuSans-111"/>
     <use x="642.675781" xlink:href="#DejaVuSans-117"/>
     <use x="706.054688" xlink:href="#DejaVuSans-110"/>
     <use x="769.433594" xlink:href="#DejaVuSans-116"/>
     <use x="808.642578" xlink:href="#DejaVuSans-114"/>
     <use x="849.755859" xlink:href="#DejaVuSans-121"/>
    </g>
   </g>
   <g id="legend_1">
    <g id="patch_7">
     <path d="M 249.604688 234.758125 
L 381.128125 234.758125 
Q 383.128125 234.758125 383.128125 232.758125 
L 383.128125 175.02375 
Q 383.128125 173.02375 381.128125 173.02375 
L 249.604688 173.02375 
Q 247.604688 173.02375 247.604688 175.02375 
L 247.604688 232.758125 
Q 247.604688 234.758125 249.604688 234.758125 
z
" style="fill:#ffffff;opacity:0.8;stroke:#cccccc;stroke-linejoin:miter;"/>
    </g>
    <g id="text_23">
     <!-- Country (cases in 7 days) -->
     <defs>
      <path d="M 31 75.875 
Q 24.46875 64.65625 21.28125 53.65625 
Q 18.109375 42.671875 18.109375 31.390625 
Q 18.109375 20.125 21.3125 9.0625 
Q 24.515625 -2 31 -13.1875 
L 23.1875 -13.1875 
Q 15.875 -1.703125 12.234375 9.375 
Q 8.59375 20.453125 8.59375 31.390625 
Q 8.59375 42.28125 12.203125 53.3125 
Q 15.828125 64.359375 23.1875 75.875 
z
" id="DejaVuSans-40"/>
      <path d="M 8.203125 72.90625 
L 55.078125 72.90625 
L 55.078125 68.703125 
L 28.609375 0 
L 18.3125 0 
L 43.21875 64.59375 
L 8.203125 64.59375 
z
" id="DejaVuSans-55"/>
      <path d="M 45.40625 46.390625 
L 45.40625 75.984375 
L 54.390625 75.984375 
L 54.390625 0 
L 45.40625 0 
L 45.40625 8.203125 
Q 42.578125 3.328125 38.25 0.953125 
Q 33.9375 -1.421875 27.875 -1.421875 
Q 17.96875 -1.421875 11.734375 6.484375 
Q 5.515625 14.40625 5.515625 27.296875 
Q 5.515625 40.1875 11.734375 48.09375 
Q 17.96875 56 27.875 56 
Q 33.9375 56 38.25 53.625 
Q 42.578125 51.265625 45.40625 46.390625 
z
M 14.796875 27.296875 
Q 14.796875 17.390625 18.875 11.75 
Q 22.953125 6.109375 30.078125 6.109375 
Q 37.203125 6.109375 41.296875 11.75 
Q 45.40625 17.390625 45.40625 27.296875 
Q 45.40625 37.203125 41.296875 42.84375 
Q 37.203125 48.484375 30.078125 48.484375 
Q 22.953125 48.484375 18.875 42.84375 
Q 14.796875 37.203125 14.796875 27.296875 
z
" id="DejaVuSans-100"/>
      <path d="M 8.015625 75.875 
L 15.828125 75.875 
Q 23.140625 64.359375 26.78125 53.3125 
Q 30.421875 42.28125 30.421875 31.390625 
Q 30.421875 20.453125 26.78125 9.375 
Q 23.140625 -1.703125 15.828125 -13.1875 
L 8.015625 -13.1875 
Q 14.5 -2 17.703125 9.0625 
Q 20.90625 20.125 20.90625 31.390625 
Q 20.90625 42.671875 17.703125 53.65625 
Q 14.5 64.65625 8.015625 75.875 
z
" id="DejaVuSans-41"/>
     </defs>
     <g transform="translate(251.604688 184.622188)scale(0.1 -0.1)">
      <use xlink:href="#DejaVuSans-67"/>
      <use x="69.824219" xlink:href="#DejaVuSans-111"/>
      <use x="131.005859" xlink:href="#DejaVuSans-117"/>
      <use x="194.384766" xlink:href="#DejaVuSans-110"/>
      <use x="257.763672" xlink:href="#DejaVuSans-116"/>
      <use x="296.972656" xlink:href="#DejaVuSans-114"/>
      <use x="338.085938" xlink:href="#DejaVuSans-121"/>
      <use x="397.265625" xlink:href="#DejaVuSans-32"/>
      <use x="429.052734" xlink:href="#DejaVuSans-40"/>
      <use x="468.066406" xlink:href="#DejaVuSans-99"/>
      <use x="523.046875" xlink:href="#DejaVuSans-97"/>
      <use x="584.326172" xlink:href="#DejaVuSans-115"/>
      <use x="636.425781" xlink:href="#DejaVuSans-101"/>
      <use x="697.949219" xlink:href="#DejaVuSans-115"/>
      <use x="750.048828" xlink:href="#DejaVuSans-32"/>
      <use x="781.835938" xlink:href="#DejaVuSans-105"/>
      <use x="809.619141" xlink:href="#DejaVuSans-110"/>
      <use x="872.998047" xlink:href="#DejaVuSans-32"/>
      <use x="904.785156" xlink:href="#DejaVuSans-55"/>
      <use x="968.408203" xlink:href="#DejaVuSans-32"/>
      <use x="1000.195312" xlink:href="#DejaVuSans-100"/>
      <use x="1063.671875" xlink:href="#DejaVuSans-97"/>
      <use x="1124.951172" xlink:href="#DejaVuSans-121"/>
      <use x="1184.130859" xlink:href="#DejaVuSans-115"/>
      <use x="1236.230469" xlink:href="#DejaVuSans-41"/>
     </g>
    </g>
    <g id="line2d_51">
     <path d="M 272.866406 195.800313 
L 292.866406 195.800313 
" style="fill:none;stroke:#ff7f0e;stroke-linecap:square;stroke-width:1.5;"/>
    </g>
    <g id="line2d_52">
     <g>
      <use style="fill:#ff7f0e;stroke:#ff7f0e;" x="282.866406" xlink:href="#m11349362a9" y="195.800313"/>
     </g>
    </g>
    <g id="text_24">
     <!-- US (1.4$\times$) -->
     <defs>
      <path d="M 8.6875 72.90625 
L 18.609375 72.90625 
L 18.609375 28.609375 
Q 18.609375 16.890625 22.84375 11.734375 
Q 27.09375 6.59375 36.625 6.59375 
Q 46.09375 6.59375 50.34375 11.734375 
Q 54.59375 16.890625 54.59375 28.609375 
L 54.59375 72.90625 
L 64.5 72.90625 
L 64.5 27.390625 
Q 64.5 13.140625 57.4375 5.859375 
Q 50.390625 -1.421875 36.625 -1.421875 
Q 22.796875 -1.421875 15.734375 5.859375 
Q 8.6875 13.140625 8.6875 27.390625 
z
" id="DejaVuSans-85"/>
      <path d="M 37.796875 64.3125 
L 12.890625 25.390625 
L 37.796875 25.390625 
z
M 35.203125 72.90625 
L 47.609375 72.90625 
L 47.609375 25.390625 
L 58.015625 25.390625 
L 58.015625 17.1875 
L 47.609375 17.1875 
L 47.609375 0 
L 37.796875 0 
L 37.796875 17.1875 
L 4.890625 17.1875 
L 4.890625 26.703125 
z
" id="DejaVuSans-52"/>
      <path d="M 70.125 53.71875 
L 47.796875 31.296875 
L 70.125 8.984375 
L 64.3125 3.078125 
L 41.890625 25.484375 
L 19.484375 3.078125 
L 13.71875 8.984375 
L 35.984375 31.296875 
L 13.71875 53.71875 
L 19.484375 59.625 
L 41.890625 37.203125 
L 64.3125 59.625 
z
" id="DejaVuSans-215"/>
     </defs>
     <g transform="translate(300.866406 199.300313)scale(0.1 -0.1)">
      <use transform="translate(0 0.125)" xlink:href="#DejaVuSans-85"/>
      <use transform="translate(73.193359 0.125)" xlink:href="#DejaVuSans-83"/>
      <use transform="translate(136.669922 0.125)" xlink:href="#DejaVuSans-32"/>
      <use transform="translate(168.457031 0.125)" xlink:href="#DejaVuSans-40"/>
      <use transform="translate(207.470703 0.125)" xlink:href="#DejaVuSans-49"/>
      <use transform="translate(271.09375 0.125)" xlink:href="#DejaVuSans-46"/>
      <use transform="translate(302.880859 0.125)" xlink:href="#DejaVuSans-52"/>
      <use transform="translate(366.503906 0.125)" xlink:href="#DejaVuSans-215"/>
      <use transform="translate(450.292969 0.125)" xlink:href="#DejaVuSans-41"/>
     </g>
    </g>
    <g id="line2d_53">
     <path d="M 272.866406 210.48 
L 292.866406 210.48 
" style="fill:none;stroke:#2ca02c;stroke-linecap:square;stroke-width:1.5;"/>
    </g>
    <g id="line2d_54">
     <g>
      <use style="fill:#2ca02c;stroke:#2ca02c;" x="282.866406" xlink:href="#m26a49bec57" y="210.48"/>
     </g>
    </g>
    <g id="text_25">
     <!-- Italy (1.2$\times$) -->
     <defs>
      <path d="M 9.8125 72.90625 
L 19.671875 72.90625 
L 19.671875 0 
L 9.8125 0 
z
" id="DejaVuSans-73"/>
     </defs>
     <g transform="translate(300.866406 213.98)scale(0.1 -0.1)">
      <use transform="translate(0 0.015625)" xlink:href="#DejaVuSans-73"/>
      <use transform="translate(29.492188 0.015625)" xlink:href="#DejaVuSans-116"/>
      <use transform="translate(68.701172 0.015625)" xlink:href="#DejaVuSans-97"/>
      <use transform="translate(129.980469 0.015625)" xlink:href="#DejaVuSans-108"/>
      <use transform="translate(157.763672 0.015625)" xlink:href="#DejaVuSans-121"/>
      <use transform="translate(216.943359 0.015625)" xlink:href="#DejaVuSans-32"/>
      <use transform="translate(248.730469 0.015625)" xlink:href="#DejaVuSans-40"/>
      <use transform="translate(287.744141 0.015625)" xlink:href="#DejaVuSans-49"/>
      <use transform="translate(351.367188 0.015625)" xlink:href="#DejaVuSans-46"/>
      <use transform="translate(383.076172 0.015625)" xlink:href="#DejaVuSans-50"/>
      <use transform="translate(446.699219 0.015625)" xlink:href="#DejaVuSans-215"/>
      <use transform="translate(530.488281 0.015625)" xlink:href="#DejaVuSans-41"/>
     </g>
    </g>
    <g id="line2d_55">
     <path d="M 272.866406 225.178438 
L 292.866406 225.178438 
" style="fill:none;stroke:#1f77b4;stroke-linecap:square;stroke-width:1.5;"/>
    </g>
    <g id="line2d_56">
     <g>
      <use style="fill:#1f77b4;stroke:#1f77b4;" x="282.866406" xlink:href="#m52e9f4bad6" y="225.178438"/>
     </g>
    </g>
    <g id="text_26">
     <!-- UK (1.5$\times$) -->
     <defs>
      <path d="M 9.8125 72.90625 
L 19.671875 72.90625 
L 19.671875 42.09375 
L 52.390625 72.90625 
L 65.09375 72.90625 
L 28.90625 38.921875 
L 67.671875 0 
L 54.6875 0 
L 19.671875 35.109375 
L 19.671875 0 
L 9.8125 0 
z
" id="DejaVuSans-75"/>
     </defs>
     <g transform="translate(300.866406 228.678438)scale(0.1 -0.1)">
      <use transform="translate(0 0.125)" xlink:href="#DejaVuSans-85"/>
      <use transform="translate(73.177734 0.125)" xlink:href="#DejaVuSans-75"/>
      <use transform="translate(138.753906 0.125)" xlink:href="#DejaVuSans-32"/>
      <use transform="translate(170.541016 0.125)" xlink:href="#DejaVuSans-40"/>
      <use transform="translate(209.554688 0.125)" xlink:href="#DejaVuSans-49"/>
      <use transform="translate(273.177734 0.125)" xlink:href="#DejaVuSans-46"/>
      <use transform="translate(304.964844 0.125)" xlink:href="#DejaVuSans-53"/>
      <use transform="translate(368.587891 0.125)" xlink:href="#DejaVuSans-215"/>
      <use transform="translate(452.376953 0.125)" xlink:href="#DejaVuSans-41"/>
     </g>
    </g>
   </g>
   <g id="legend_2">
    <g id="patch_8">
     <path d="M 62.024125 326.734125 
L 364.524125 326.734125 
Q 366.524125 326.734125 366.524125 324.734125 
L 366.524125 273.960375 
Q 366.524125 271.960375 364.524125 271.960375 
L 62.024125 271.960375 
Q 60.024125 271.960375 60.024125 273.960375 
L 60.024125 324.734125 
Q 60.024125 326.734125 62.024125 326.734125 
z
" style="fill:#ffffff;opacity:0.8;stroke:#cccccc;stroke-linejoin:miter;"/>
    </g>
    <g id="line2d_57">
     <path d="M 64.024125 286.7085 
L 84.024125 286.7085 
" style="fill:none;stroke:#ff7f0e;stroke-linecap:square;stroke-opacity:0.7;stroke-width:1.5;"/>
    </g>
    <g id="line2d_58"/>
    <g id="text_27">
     <!-- 2$\times$ every 2.4 days -->
     <g transform="translate(92.024125 283.560375)scale(0.1 -0.1)">
      <use transform="translate(0 0.015625)" xlink:href="#DejaVuSans-50"/>
      <use transform="translate(63.623047 0.015625)" xlink:href="#DejaVuSans-215"/>
      <use transform="translate(147.412109 0.015625)" xlink:href="#DejaVuSans-32"/>
      <use transform="translate(179.199219 0.015625)" xlink:href="#DejaVuSans-101"/>
      <use transform="translate(240.722656 0.015625)" xlink:href="#DejaVuSans-118"/>
      <use transform="translate(299.902344 0.015625)" xlink:href="#DejaVuSans-101"/>
      <use transform="translate(361.425781 0.015625)" xlink:href="#DejaVuSans-114"/>
      <use transform="translate(402.539062 0.015625)" xlink:href="#DejaVuSans-121"/>
      <use transform="translate(461.71875 0.015625)" xlink:href="#DejaVuSans-32"/>
      <use transform="translate(493.505859 0.015625)" xlink:href="#DejaVuSans-50"/>
      <use transform="translate(557.128906 0.015625)" xlink:href="#DejaVuSans-46"/>
      <use transform="translate(588.916016 0.015625)" xlink:href="#DejaVuSans-52"/>
      <use transform="translate(652.539062 0.015625)" xlink:href="#DejaVuSans-32"/>
      <use transform="translate(684.326172 0.015625)" xlink:href="#DejaVuSans-100"/>
      <use transform="translate(747.802734 0.015625)" xlink:href="#DejaVuSans-97"/>
      <use transform="translate(809.082031 0.015625)" xlink:href="#DejaVuSans-121"/>
      <use transform="translate(868.261719 0.015625)" xlink:href="#DejaVuSans-115"/>
     </g>
     <!-- (all solid lines) -->
     <g transform="translate(92.024125 294.7785)scale(0.1 -0.1)">
      <use xlink:href="#DejaVuSans-40"/>
      <use x="39.013672" xlink:href="#DejaVuSans-97"/>
      <use x="100.292969" xlink:href="#DejaVuSans-108"/>
      <use x="128.076172" xlink:href="#DejaVuSans-108"/>
      <use x="155.859375" xlink:href="#DejaVuSans-32"/>
      <use x="187.646484" xlink:href="#DejaVuSans-115"/>
      <use x="239.746094" xlink:href="#DejaVuSans-111"/>
      <use x="300.927734" xlink:href="#DejaVuSans-108"/>
      <use x="328.710938" xlink:href="#DejaVuSans-105"/>
      <use x="356.494141" xlink:href="#DejaVuSans-100"/>
      <use x="419.970703" xlink:href="#DejaVuSans-32"/>
      <use x="451.757812" xlink:href="#DejaVuSans-108"/>
      <use x="479.541016" xlink:href="#DejaVuSans-105"/>
      <use x="507.324219" xlink:href="#DejaVuSans-110"/>
      <use x="570.703125" xlink:href="#DejaVuSans-101"/>
      <use x="632.226562" xlink:href="#DejaVuSans-115"/>
      <use x="684.326172" xlink:href="#DejaVuSans-41"/>
     </g>
    </g>
    <g id="line2d_59">
     <path d="M 64.024125 312.595375 
L 84.024125 312.595375 
" style="fill:none;stroke:#ff7f0e;stroke-dasharray:7.4,3.2;stroke-dashoffset:0;stroke-opacity:0.7;stroke-width:2;"/>
    </g>
    <g id="line2d_60"/>
    <g id="text_28">
     <!-- Est. health care saturation -->
     <defs>
      <path d="M 9.8125 72.90625 
L 55.90625 72.90625 
L 55.90625 64.59375 
L 19.671875 64.59375 
L 19.671875 43.015625 
L 54.390625 43.015625 
L 54.390625 34.71875 
L 19.671875 34.71875 
L 19.671875 8.296875 
L 56.78125 8.296875 
L 56.78125 0 
L 9.8125 0 
z
" id="DejaVuSans-69"/>
      <path d="M 54.890625 33.015625 
L 54.890625 0 
L 45.90625 0 
L 45.90625 32.71875 
Q 45.90625 40.484375 42.875 44.328125 
Q 39.84375 48.1875 33.796875 48.1875 
Q 26.515625 48.1875 22.3125 43.546875 
Q 18.109375 38.921875 18.109375 30.90625 
L 18.109375 0 
L 9.078125 0 
L 9.078125 75.984375 
L 18.109375 75.984375 
L 18.109375 46.1875 
Q 21.34375 51.125 25.703125 53.5625 
Q 30.078125 56 35.796875 56 
Q 45.21875 56 50.046875 50.171875 
Q 54.890625 44.34375 54.890625 33.015625 
z
" id="DejaVuSans-104"/>
     </defs>
     <g transform="translate(92.024125 309.456625)scale(0.1 -0.1)">
      <use xlink:href="#DejaVuSans-69"/>
      <use x="63.183594" xlink:href="#DejaVuSans-115"/>
      <use x="115.283203" xlink:href="#DejaVuSans-116"/>
      <use x="154.492188" xlink:href="#DejaVuSans-46"/>
      <use x="186.279297" xlink:href="#DejaVuSans-32"/>
      <use x="218.066406" xlink:href="#DejaVuSans-104"/>
      <use x="281.445312" xlink:href="#DejaVuSans-101"/>
      <use x="342.96875" xlink:href="#DejaVuSans-97"/>
      <use x="404.248047" xlink:href="#DejaVuSans-108"/>
      <use x="432.03125" xlink:href="#DejaVuSans-116"/>
      <use x="471.240234" xlink:href="#DejaVuSans-104"/>
      <use x="534.619141" xlink:href="#DejaVuSans-32"/>
      <use x="566.40625" xlink:href="#DejaVuSans-99"/>
      <use x="621.386719" xlink:href="#DejaVuSans-97"/>
      <use x="682.666016" xlink:href="#DejaVuSans-114"/>
      <use x="723.748047" xlink:href="#DejaVuSans-101"/>
      <use x="785.271484" xlink:href="#DejaVuSans-32"/>
      <use x="817.058594" xlink:href="#DejaVuSans-115"/>
      <use x="869.158203" xlink:href="#DejaVuSans-97"/>
      <use x="930.4375" xlink:href="#DejaVuSans-116"/>
      <use x="969.646484" xlink:href="#DejaVuSans-117"/>
      <use x="1033.025391" xlink:href="#DejaVuSans-114"/>
      <use x="1074.138672" xlink:href="#DejaVuSans-97"/>
      <use x="1135.417969" xlink:href="#DejaVuSans-116"/>
      <use x="1174.626953" xlink:href="#DejaVuSans-105"/>
      <use x="1202.410156" xlink:href="#DejaVuSans-111"/>
      <use x="1263.591797" xlink:href="#DejaVuSans-110"/>
     </g>
     <!-- (all dotted lines) -->
     <g transform="translate(92.024125 320.654438)scale(0.1 -0.1)">
      <use xlink:href="#DejaVuSans-40"/>
      <use x="39.013672" xlink:href="#DejaVuSans-97"/>
      <use x="100.292969" xlink:href="#DejaVuSans-108"/>
      <use x="128.076172" xlink:href="#DejaVuSans-108"/>
      <use x="155.859375" xlink:href="#DejaVuSans-32"/>
      <use x="187.646484" xlink:href="#DejaVuSans-100"/>
      <use x="251.123047" xlink:href="#DejaVuSans-111"/>
      <use x="312.304688" xlink:href="#DejaVuSans-116"/>
      <use x="351.513672" xlink:href="#DejaVuSans-116"/>
      <use x="390.722656" xlink:href="#DejaVuSans-101"/>
      <use x="452.246094" xlink:href="#DejaVuSans-100"/>
      <use x="515.722656" xlink:href="#DejaVuSans-32"/>
      <use x="547.509766" xlink:href="#DejaVuSans-108"/>
      <use x="575.292969" xlink:href="#DejaVuSans-105"/>
      <use x="603.076172" xlink:href="#DejaVuSans-110"/>
      <use x="666.455078" xlink:href="#DejaVuSans-101"/>
      <use x="727.978516" xlink:href="#DejaVuSans-115"/>
      <use x="780.078125" xlink:href="#DejaVuSans-41"/>
     </g>
    </g>
    <g id="line2d_61">
     <path d="M 244.716313 286.7085 
L 264.716313 286.7085 
" style="fill:none;stroke:#2ca02c;stroke-dasharray:12.8,3.2,2,3.2;stroke-dashoffset:0;stroke-opacity:0.7;stroke-width:2;"/>
    </g>
    <g id="line2d_62"/>
    <g id="text_29">
     <!-- Actual health -->
     <g transform="translate(272.716313 283.56975)scale(0.1 -0.1)">
      <use xlink:href="#DejaVuSans-65"/>
      <use x="68.392578" xlink:href="#DejaVuSans-99"/>
      <use x="123.373047" xlink:href="#DejaVuSans-116"/>
      <use x="162.582031" xlink:href="#DejaVuSans-117"/>
      <use x="225.960938" xlink:href="#DejaVuSans-97"/>
      <use x="287.240234" xlink:href="#DejaVuSans-108"/>
      <use x="315.023438" xlink:href="#DejaVuSans-32"/>
      <use x="346.810547" xlink:href="#DejaVuSans-104"/>
      <use x="410.189453" xlink:href="#DejaVuSans-101"/>
      <use x="471.712891" xlink:href="#DejaVuSans-97"/>
      <use x="532.992188" xlink:href="#DejaVuSans-108"/>
      <use x="560.775391" xlink:href="#DejaVuSans-116"/>
      <use x="599.984375" xlink:href="#DejaVuSans-104"/>
     </g>
     <!-- care saturation -->
     <g transform="translate(272.716313 294.767563)scale(0.1 -0.1)">
      <use xlink:href="#DejaVuSans-99"/>
      <use x="54.980469" xlink:href="#DejaVuSans-97"/>
      <use x="116.259766" xlink:href="#DejaVuSans-114"/>
      <use x="157.341797" xlink:href="#DejaVuSans-101"/>
      <use x="218.865234" xlink:href="#DejaVuSans-32"/>
      <use x="250.652344" xlink:href="#DejaVuSans-115"/>
      <use x="302.751953" xlink:href="#DejaVuSans-97"/>
      <use x="364.03125" xlink:href="#DejaVuSans-116"/>
      <use x="403.240234" xlink:href="#DejaVuSans-117"/>
      <use x="466.619141" xlink:href="#DejaVuSans-114"/>
      <use x="507.732422" xlink:href="#DejaVuSans-97"/>
      <use x="569.011719" xlink:href="#DejaVuSans-116"/>
      <use x="608.220703" xlink:href="#DejaVuSans-105"/>
      <use x="636.003906" xlink:href="#DejaVuSans-111"/>
      <use x="697.185547" xlink:href="#DejaVuSans-110"/>
     </g>
    </g>
    <g id="line2d_63">
     <path d="M 244.716313 312.584438 
L 264.716313 312.584438 
" style="fill:none;stroke:#ff7f0e;stroke-linecap:square;stroke-opacity:0.3;stroke-width:4;"/>
    </g>
    <g id="line2d_64"/>
    <g id="text_30">
     <!-- Started social -->
     <g transform="translate(272.716313 309.445688)scale(0.1 -0.1)">
      <use xlink:href="#DejaVuSans-83"/>
      <use x="63.476562" xlink:href="#DejaVuSans-116"/>
      <use x="102.685547" xlink:href="#DejaVuSans-97"/>
      <use x="163.964844" xlink:href="#DejaVuSans-114"/>
      <use x="205.078125" xlink:href="#DejaVuSans-116"/>
      <use x="244.287109" xlink:href="#DejaVuSans-101"/>
      <use x="305.810547" xlink:href="#DejaVuSans-100"/>
      <use x="369.287109" xlink:href="#DejaVuSans-32"/>
      <use x="401.074219" xlink:href="#DejaVuSans-115"/>
      <use x="453.173828" xlink:href="#DejaVuSans-111"/>
      <use x="514.355469" xlink:href="#DejaVuSans-99"/>
      <use x="569.335938" xlink:href="#DejaVuSans-105"/>
      <use x="597.119141" xlink:href="#DejaVuSans-97"/>
      <use x="658.398438" xlink:href="#DejaVuSans-108"/>
     </g>
     <!-- isolation (all bars) -->
     <g transform="translate(272.716313 320.6435)scale(0.1 -0.1)">
      <use xlink:href="#DejaVuSans-105"/>
      <use x="27.783203" xlink:href="#DejaVuSans-115"/>
      <use x="79.882812" xlink:href="#DejaVuSans-111"/>
      <use x="141.064453" xlink:href="#DejaVuSans-108"/>
      <use x="168.847656" xlink:href="#DejaVuSans-97"/>
      <use x="230.126953" xlink:href="#DejaVuSans-116"/>
      <use x="269.335938" xlink:href="#DejaVuSans-105"/>
      <use x="297.119141" xlink:href="#DejaVuSans-111"/>
      <use x="358.300781" xlink:href="#DejaVuSans-110"/>
      <use x="421.679688" xlink:href="#DejaVuSans-32"/>
      <use x="453.466797" xlink:href="#DejaVuSans-40"/>
      <use x="492.480469" xlink:href="#DejaVuSans-97"/>
      <use x="553.759766" xlink:href="#DejaVuSans-108"/>
      <use x="581.542969" xlink:href="#DejaVuSans-108"/>
      <use x="609.326172" xlink:href="#DejaVuSans-32"/>
      <use x="641.113281" xlink:href="#DejaVuSans-98"/>
      <use x="704.589844" xlink:href="#DejaVuSans-97"/>
      <use x="765.869141" xlink:href="#DejaVuSans-114"/>
      <use x="806.982422" xlink:href="#DejaVuSans-115"/>
      <use x="859.082031" xlink:href="#DejaVuSans-41"/>
     </g>
    </g>
   </g>
  </g>
 </g>
 <defs>
  <clipPath id="p42e9e7f174">
   <rect height="217.44" width="334.8" x="53.328125" y="22.318125"/>
  </clipPath>
 </defs>
</svg>
