<?xml version="1.0" encoding="utf-8" standalone="no"?>
<!DOCTYPE svg PUBLIC "-//W3C//DTD SVG 1.1//EN"
  "http://www.w3.org/Graphics/SVG/1.1/DTD/svg11.dtd">
<!-- Created with matplotlib (https://matplotlib.org/) -->
<svg height="344.942543pt" version="1.1" viewBox="0 0 395.328125 344.942543" width="395.328125pt" xmlns="http://www.w3.org/2000/svg" xmlns:xlink="http://www.w3.org/1999/xlink">
 <defs>
  <style type="text/css">
*{stroke-linecap:butt;stroke-linejoin:round;}
  </style>
 </defs>
 <g id="figure_1">
  <g id="patch_1">
   <path d="M 0 344.942543 
L 395.328125 344.942543 
L 395.328125 0 
L 0 0 
z
" style="fill:#ffffff;"/>
  </g>
  <g id="axes_1">
   <g id="patch_2">
    <path d="M 53.328125 239.758125 
L 388.128125 239.758125 
L 388.128125 22.318125 
L 53.328125 22.318125 
z
" style="fill:#ffffff;"/>
   </g>
   <g id="line2d_1">
    <path clip-path="url(#p63769cf000)" d="M 67.819772 345.942543 
L 68.222045 345.334138 
L 73.186685 337.825524 
L 78.151325 330.31691 
L 83.115965 322.808296 
L 88.080605 315.299682 
L 93.045245 307.791067 
L 98.009886 300.282453 
L 102.974526 292.773839 
L 107.939166 285.265225 
L 112.903806 277.756611 
L 117.868446 270.247997 
L 122.833086 262.739383 
L 127.797726 255.230768 
L 132.762366 247.722154 
L 137.727006 240.21354 
L 142.691646 232.704926 
L 147.656286 225.196312 
L 152.620926 217.687698 
L 157.585566 210.179084 
L 162.550206 202.67047 
L 167.514846 195.161855 
L 172.479486 187.653241 
L 177.444127 180.144627 
L 182.408767 172.636013 
L 187.373407 165.127399 
L 192.338047 157.618785 
L 197.302687 150.110171 
L 202.267327 142.601556 
L 207.231967 135.092942 
L 212.196607 127.584328 
L 217.161247 120.075714 
L 222.125887 112.5671 
L 227.090527 105.058486 
L 232.055167 97.549872 
L 237.019807 90.041257 
L 241.984447 82.532643 
L 246.949087 75.024029 
L 251.913727 67.515415 
L 256.878368 60.006801 
L 261.843008 52.498187 
L 266.807648 44.989573 
L 271.772288 37.480959 
L 276.736928 29.972344 
L 281.701568 22.46373 
" style="fill:none;stroke:#ff7f0e;stroke-linecap:square;stroke-opacity:0.7;stroke-width:1.5;"/>
   </g>
   <g id="line2d_2">
    <path clip-path="url(#p63769cf000)" d="M 60.502148 345.942543 
L 63.257405 341.775441 
L 68.222045 334.266827 
L 73.186685 326.758213 
L 78.151325 319.249599 
L 83.115965 311.740985 
L 88.080605 304.23237 
L 93.045245 296.723756 
L 98.009886 289.215142 
L 102.974526 281.706528 
L 107.939166 274.197914 
L 112.903806 266.6893 
L 117.868446 259.180686 
L 122.833086 251.672071 
L 127.797726 244.163457 
L 132.762366 236.654843 
L 137.727006 229.146229 
L 142.691646 221.637615 
L 147.656286 214.129001 
L 152.620926 206.620387 
L 157.585566 199.111772 
L 162.550206 191.603158 
L 167.514846 184.094544 
L 172.479486 176.58593 
L 177.444127 169.077316 
L 182.408767 161.568702 
L 187.373407 154.060088 
L 192.338047 146.551474 
L 197.302687 139.042859 
L 202.267327 131.534245 
L 207.231967 124.025631 
L 212.196607 116.517017 
L 217.161247 109.008403 
L 222.125887 101.499789 
L 227.090527 93.991175 
L 232.055167 86.48256 
L 237.019807 78.973946 
L 241.984447 71.465332 
L 246.949087 63.956718 
L 251.913727 56.448104 
L 256.878368 48.93949 
L 261.843008 41.430876 
L 266.807648 33.922261 
L 271.772288 26.413647 
L 276.736928 18.905033 
L 281.701568 11.396419 
" style="fill:none;stroke:#1f77b4;stroke-linecap:square;stroke-opacity:0.7;stroke-width:1.5;"/>
   </g>
   <g id="line2d_3">
    <path clip-path="url(#p63769cf000)" d="M 38.434205 271.255365 
L 43.398845 263.74675 
L 48.363485 256.238136 
L 53.328125 248.729522 
L 58.292765 241.220908 
L 63.257405 233.712294 
L 68.222045 226.20368 
L 73.186685 218.695066 
L 78.151325 211.186452 
L 83.115965 203.677837 
L 88.080605 196.169223 
L 93.045245 188.660609 
L 98.009886 181.151995 
L 102.974526 173.643381 
L 107.939166 166.134767 
L 112.903806 158.626153 
L 117.868446 151.117538 
L 122.833086 143.608924 
L 127.797726 136.10031 
L 132.762366 128.591696 
L 137.727006 121.083082 
L 142.691646 113.574468 
L 147.656286 106.065854 
L 152.620926 98.557239 
L 157.585566 91.048625 
L 162.550206 83.540011 
L 167.514846 76.031397 
L 172.479486 68.522783 
L 177.444127 61.014169 
L 182.408767 53.505555 
L 187.373407 45.996941 
L 192.338047 38.488326 
L 197.302687 30.979712 
L 202.267327 23.471098 
L 207.231967 15.962484 
L 212.196607 8.45387 
L 217.161247 0.945256 
L 218.447436 -1 
" style="fill:none;stroke:#2ca02c;stroke-linecap:square;stroke-opacity:0.7;stroke-width:1.5;"/>
   </g>
   <g id="matplotlib.axis_1">
    <g id="xtick_1">
     <g id="line2d_4">
      <path clip-path="url(#p63769cf000)" d="M 78.151325 239.758125 
L 78.151325 22.318125 
" style="fill:none;stroke:#b0b0b0;stroke-linecap:square;stroke-opacity:0.8;stroke-width:0.8;"/>
     </g>
     <g id="line2d_5">
      <defs>
       <path d="M 0 0 
L 0 3.5 
" id="m2fb747f7d2" style="stroke:#000000;stroke-width:0.8;"/>
      </defs>
      <g>
       <use style="stroke:#000000;stroke-width:0.8;" x="78.151325" xlink:href="#m2fb747f7d2" y="239.758125"/>
      </g>
     </g>
     <g id="text_1">
      <!-- Feb. -->
      <defs>
       <path d="M 9.8125 72.90625 
L 51.703125 72.90625 
L 51.703125 64.59375 
L 19.671875 64.59375 
L 19.671875 43.109375 
L 48.578125 43.109375 
L 48.578125 34.8125 
L 19.671875 34.8125 
L 19.671875 0 
L 9.8125 0 
z
" id="DejaVuSans-70"/>
       <path d="M 56.203125 29.59375 
L 56.203125 25.203125 
L 14.890625 25.203125 
Q 15.484375 15.921875 20.484375 11.0625 
Q 25.484375 6.203125 34.421875 6.203125 
Q 39.59375 6.203125 44.453125 7.46875 
Q 49.3125 8.734375 54.109375 11.28125 
L 54.109375 2.78125 
Q 49.265625 0.734375 44.1875 -0.34375 
Q 39.109375 -1.421875 33.890625 -1.421875 
Q 20.796875 -1.421875 13.15625 6.1875 
Q 5.515625 13.8125 5.515625 26.8125 
Q 5.515625 40.234375 12.765625 48.109375 
Q 20.015625 56 32.328125 56 
Q 43.359375 56 49.78125 48.890625 
Q 56.203125 41.796875 56.203125 29.59375 
z
M 47.21875 32.234375 
Q 47.125 39.59375 43.09375 43.984375 
Q 39.0625 48.390625 32.421875 48.390625 
Q 24.90625 48.390625 20.390625 44.140625 
Q 15.875 39.890625 15.1875 32.171875 
z
" id="DejaVuSans-101"/>
       <path d="M 48.6875 27.296875 
Q 48.6875 37.203125 44.609375 42.84375 
Q 40.53125 48.484375 33.40625 48.484375 
Q 26.265625 48.484375 22.1875 42.84375 
Q 18.109375 37.203125 18.109375 27.296875 
Q 18.109375 17.390625 22.1875 11.75 
Q 26.265625 6.109375 33.40625 6.109375 
Q 40.53125 6.109375 44.609375 11.75 
Q 48.6875 17.390625 48.6875 27.296875 
z
M 18.109375 46.390625 
Q 20.953125 51.265625 25.265625 53.625 
Q 29.59375 56 35.59375 56 
Q 45.5625 56 51.78125 48.09375 
Q 58.015625 40.1875 58.015625 27.296875 
Q 58.015625 14.40625 51.78125 6.484375 
Q 45.5625 -1.421875 35.59375 -1.421875 
Q 29.59375 -1.421875 25.265625 0.953125 
Q 20.953125 3.328125 18.109375 8.203125 
L 18.109375 0 
L 9.078125 0 
L 9.078125 75.984375 
L 18.109375 75.984375 
z
" id="DejaVuSans-98"/>
       <path d="M 10.6875 12.40625 
L 21 12.40625 
L 21 0 
L 10.6875 0 
z
" id="DejaVuSans-46"/>
      </defs>
      <g transform="translate(67.439607 254.356562)scale(0.1 -0.1)">
       <use xlink:href="#DejaVuSans-70"/>
       <use x="57.441406" xlink:href="#DejaVuSans-101"/>
       <use x="118.964844" xlink:href="#DejaVuSans-98"/>
       <use x="182.441406" xlink:href="#DejaVuSans-46"/>
      </g>
      <!-- 23 -->
      <defs>
       <path d="M 19.1875 8.296875 
L 53.609375 8.296875 
L 53.609375 0 
L 7.328125 0 
L 7.328125 8.296875 
Q 12.9375 14.109375 22.625 23.890625 
Q 32.328125 33.6875 34.8125 36.53125 
Q 39.546875 41.84375 41.421875 45.53125 
Q 43.3125 49.21875 43.3125 52.78125 
Q 43.3125 58.59375 39.234375 62.25 
Q 35.15625 65.921875 28.609375 65.921875 
Q 23.96875 65.921875 18.8125 64.3125 
Q 13.671875 62.703125 7.8125 59.421875 
L 7.8125 69.390625 
Q 13.765625 71.78125 18.9375 73 
Q 24.125 74.21875 28.421875 74.21875 
Q 39.75 74.21875 46.484375 68.546875 
Q 53.21875 62.890625 53.21875 53.421875 
Q 53.21875 48.921875 51.53125 44.890625 
Q 49.859375 40.875 45.40625 35.40625 
Q 44.1875 33.984375 37.640625 27.21875 
Q 31.109375 20.453125 19.1875 8.296875 
z
" id="DejaVuSans-50"/>
       <path d="M 40.578125 39.3125 
Q 47.65625 37.796875 51.625 33 
Q 55.609375 28.21875 55.609375 21.1875 
Q 55.609375 10.40625 48.1875 4.484375 
Q 40.765625 -1.421875 27.09375 -1.421875 
Q 22.515625 -1.421875 17.65625 -0.515625 
Q 12.796875 0.390625 7.625 2.203125 
L 7.625 11.71875 
Q 11.71875 9.328125 16.59375 8.109375 
Q 21.484375 6.890625 26.8125 6.890625 
Q 36.078125 6.890625 40.9375 10.546875 
Q 45.796875 14.203125 45.796875 21.1875 
Q 45.796875 27.640625 41.28125 31.265625 
Q 36.765625 34.90625 28.71875 34.90625 
L 20.21875 34.90625 
L 20.21875 43.015625 
L 29.109375 43.015625 
Q 36.375 43.015625 40.234375 45.921875 
Q 44.09375 48.828125 44.09375 54.296875 
Q 44.09375 59.90625 40.109375 62.90625 
Q 36.140625 65.921875 28.71875 65.921875 
Q 24.65625 65.921875 20.015625 65.03125 
Q 15.375 64.15625 9.8125 62.3125 
L 9.8125 71.09375 
Q 15.4375 72.65625 20.34375 73.4375 
Q 25.25 74.21875 29.59375 74.21875 
Q 40.828125 74.21875 47.359375 69.109375 
Q 53.90625 64.015625 53.90625 55.328125 
Q 53.90625 49.265625 50.4375 45.09375 
Q 46.96875 40.921875 40.578125 39.3125 
z
" id="DejaVuSans-51"/>
      </defs>
      <g transform="translate(71.788825 265.554375)scale(0.1 -0.1)">
       <use xlink:href="#DejaVuSans-50"/>
       <use x="63.623047" xlink:href="#DejaVuSans-51"/>
      </g>
     </g>
    </g>
    <g id="xtick_2">
     <g id="line2d_6">
      <path clip-path="url(#p63769cf000)" d="M 112.903806 239.758125 
L 112.903806 22.318125 
" style="fill:none;stroke:#b0b0b0;stroke-linecap:square;stroke-opacity:0.8;stroke-width:0.8;"/>
     </g>
     <g id="line2d_7">
      <g>
       <use style="stroke:#000000;stroke-width:0.8;" x="112.903806" xlink:href="#m2fb747f7d2" y="239.758125"/>
      </g>
     </g>
     <g id="text_2">
      <!-- Mar. -->
      <defs>
       <path d="M 9.8125 72.90625 
L 24.515625 72.90625 
L 43.109375 23.296875 
L 61.8125 72.90625 
L 76.515625 72.90625 
L 76.515625 0 
L 66.890625 0 
L 66.890625 64.015625 
L 48.09375 14.015625 
L 38.1875 14.015625 
L 19.390625 64.015625 
L 19.390625 0 
L 9.8125 0 
z
" id="DejaVuSans-77"/>
       <path d="M 34.28125 27.484375 
Q 23.390625 27.484375 19.1875 25 
Q 14.984375 22.515625 14.984375 16.5 
Q 14.984375 11.71875 18.140625 8.90625 
Q 21.296875 6.109375 26.703125 6.109375 
Q 34.1875 6.109375 38.703125 11.40625 
Q 43.21875 16.703125 43.21875 25.484375 
L 43.21875 27.484375 
z
M 52.203125 31.203125 
L 52.203125 0 
L 43.21875 0 
L 43.21875 8.296875 
Q 40.140625 3.328125 35.546875 0.953125 
Q 30.953125 -1.421875 24.3125 -1.421875 
Q 15.921875 -1.421875 10.953125 3.296875 
Q 6 8.015625 6 15.921875 
Q 6 25.140625 12.171875 29.828125 
Q 18.359375 34.515625 30.609375 34.515625 
L 43.21875 34.515625 
L 43.21875 35.40625 
Q 43.21875 41.609375 39.140625 45 
Q 35.0625 48.390625 27.6875 48.390625 
Q 23 48.390625 18.546875 47.265625 
Q 14.109375 46.140625 10.015625 43.890625 
L 10.015625 52.203125 
Q 14.9375 54.109375 19.578125 55.046875 
Q 24.21875 56 28.609375 56 
Q 40.484375 56 46.34375 49.84375 
Q 52.203125 43.703125 52.203125 31.203125 
z
" id="DejaVuSans-97"/>
       <path d="M 41.109375 46.296875 
Q 39.59375 47.171875 37.8125 47.578125 
Q 36.03125 48 33.890625 48 
Q 26.265625 48 22.1875 43.046875 
Q 18.109375 38.09375 18.109375 28.8125 
L 18.109375 0 
L 9.078125 0 
L 9.078125 54.6875 
L 18.109375 54.6875 
L 18.109375 46.1875 
Q 20.953125 51.171875 25.484375 53.578125 
Q 30.03125 56 36.53125 56 
Q 37.453125 56 38.578125 55.875 
Q 39.703125 55.765625 41.0625 55.515625 
z
" id="DejaVuSans-114"/>
      </defs>
      <g transform="translate(101.888181 254.356562)scale(0.1 -0.1)">
       <use xlink:href="#DejaVuSans-77"/>
       <use x="86.279297" xlink:href="#DejaVuSans-97"/>
       <use x="147.558594" xlink:href="#DejaVuSans-114"/>
       <use x="188.53125" xlink:href="#DejaVuSans-46"/>
      </g>
      <!-- 01 -->
      <defs>
       <path d="M 31.78125 66.40625 
Q 24.171875 66.40625 20.328125 58.90625 
Q 16.5 51.421875 16.5 36.375 
Q 16.5 21.390625 20.328125 13.890625 
Q 24.171875 6.390625 31.78125 6.390625 
Q 39.453125 6.390625 43.28125 13.890625 
Q 47.125 21.390625 47.125 36.375 
Q 47.125 51.421875 43.28125 58.90625 
Q 39.453125 66.40625 31.78125 66.40625 
z
M 31.78125 74.21875 
Q 44.046875 74.21875 50.515625 64.515625 
Q 56.984375 54.828125 56.984375 36.375 
Q 56.984375 17.96875 50.515625 8.265625 
Q 44.046875 -1.421875 31.78125 -1.421875 
Q 19.53125 -1.421875 13.0625 8.265625 
Q 6.59375 17.96875 6.59375 36.375 
Q 6.59375 54.828125 13.0625 64.515625 
Q 19.53125 74.21875 31.78125 74.21875 
z
" id="DejaVuSans-48"/>
       <path d="M 12.40625 8.296875 
L 28.515625 8.296875 
L 28.515625 63.921875 
L 10.984375 60.40625 
L 10.984375 69.390625 
L 28.421875 72.90625 
L 38.28125 72.90625 
L 38.28125 8.296875 
L 54.390625 8.296875 
L 54.390625 0 
L 12.40625 0 
z
" id="DejaVuSans-49"/>
      </defs>
      <g transform="translate(106.541306 265.554375)scale(0.1 -0.1)">
       <use xlink:href="#DejaVuSans-48"/>
       <use x="63.623047" xlink:href="#DejaVuSans-49"/>
      </g>
     </g>
    </g>
    <g id="xtick_3">
     <g id="line2d_8">
      <path clip-path="url(#p63769cf000)" d="M 147.656286 239.758125 
L 147.656286 22.318125 
" style="fill:none;stroke:#b0b0b0;stroke-linecap:square;stroke-opacity:0.8;stroke-width:0.8;"/>
     </g>
     <g id="line2d_9">
      <g>
       <use style="stroke:#000000;stroke-width:0.8;" x="147.656286" xlink:href="#m2fb747f7d2" y="239.758125"/>
      </g>
     </g>
     <g id="text_3">
      <!-- Mar. -->
      <g transform="translate(136.640661 254.356562)scale(0.1 -0.1)">
       <use xlink:href="#DejaVuSans-77"/>
       <use x="86.279297" xlink:href="#DejaVuSans-97"/>
       <use x="147.558594" xlink:href="#DejaVuSans-114"/>
       <use x="188.53125" xlink:href="#DejaVuSans-46"/>
      </g>
      <!-- 08 -->
      <defs>
       <path d="M 31.78125 34.625 
Q 24.75 34.625 20.71875 30.859375 
Q 16.703125 27.09375 16.703125 20.515625 
Q 16.703125 13.921875 20.71875 10.15625 
Q 24.75 6.390625 31.78125 6.390625 
Q 38.8125 6.390625 42.859375 10.171875 
Q 46.921875 13.96875 46.921875 20.515625 
Q 46.921875 27.09375 42.890625 30.859375 
Q 38.875 34.625 31.78125 34.625 
z
M 21.921875 38.8125 
Q 15.578125 40.375 12.03125 44.71875 
Q 8.5 49.078125 8.5 55.328125 
Q 8.5 64.0625 14.71875 69.140625 
Q 20.953125 74.21875 31.78125 74.21875 
Q 42.671875 74.21875 48.875 69.140625 
Q 55.078125 64.0625 55.078125 55.328125 
Q 55.078125 49.078125 51.53125 44.71875 
Q 48 40.375 41.703125 38.8125 
Q 48.828125 37.15625 52.796875 32.3125 
Q 56.78125 27.484375 56.78125 20.515625 
Q 56.78125 9.90625 50.3125 4.234375 
Q 43.84375 -1.421875 31.78125 -1.421875 
Q 19.734375 -1.421875 13.25 4.234375 
Q 6.78125 9.90625 6.78125 20.515625 
Q 6.78125 27.484375 10.78125 32.3125 
Q 14.796875 37.15625 21.921875 38.8125 
z
M 18.3125 54.390625 
Q 18.3125 48.734375 21.84375 45.5625 
Q 25.390625 42.390625 31.78125 42.390625 
Q 38.140625 42.390625 41.71875 45.5625 
Q 45.3125 48.734375 45.3125 54.390625 
Q 45.3125 60.0625 41.71875 63.234375 
Q 38.140625 66.40625 31.78125 66.40625 
Q 25.390625 66.40625 21.84375 63.234375 
Q 18.3125 60.0625 18.3125 54.390625 
z
" id="DejaVuSans-56"/>
      </defs>
      <g transform="translate(141.293786 265.554375)scale(0.1 -0.1)">
       <use xlink:href="#DejaVuSans-48"/>
       <use x="63.623047" xlink:href="#DejaVuSans-56"/>
      </g>
     </g>
    </g>
    <g id="xtick_4">
     <g id="line2d_10">
      <path clip-path="url(#p63769cf000)" d="M 182.408767 239.758125 
L 182.408767 22.318125 
" style="fill:none;stroke:#b0b0b0;stroke-linecap:square;stroke-opacity:0.8;stroke-width:0.8;"/>
     </g>
     <g id="line2d_11">
      <g>
       <use style="stroke:#000000;stroke-width:0.8;" x="182.408767" xlink:href="#m2fb747f7d2" y="239.758125"/>
      </g>
     </g>
     <g id="text_4">
      <!-- Mar. -->
      <g transform="translate(171.393142 254.356562)scale(0.1 -0.1)">
       <use xlink:href="#DejaVuSans-77"/>
       <use x="86.279297" xlink:href="#DejaVuSans-97"/>
       <use x="147.558594" xlink:href="#DejaVuSans-114"/>
       <use x="188.53125" xlink:href="#DejaVuSans-46"/>
      </g>
      <!-- 15 -->
      <defs>
       <path d="M 10.796875 72.90625 
L 49.515625 72.90625 
L 49.515625 64.59375 
L 19.828125 64.59375 
L 19.828125 46.734375 
Q 21.96875 47.46875 24.109375 47.828125 
Q 26.265625 48.1875 28.421875 48.1875 
Q 40.625 48.1875 47.75 41.5 
Q 54.890625 34.8125 54.890625 23.390625 
Q 54.890625 11.625 47.5625 5.09375 
Q 40.234375 -1.421875 26.90625 -1.421875 
Q 22.3125 -1.421875 17.546875 -0.640625 
Q 12.796875 0.140625 7.71875 1.703125 
L 7.71875 11.625 
Q 12.109375 9.234375 16.796875 8.0625 
Q 21.484375 6.890625 26.703125 6.890625 
Q 35.15625 6.890625 40.078125 11.328125 
Q 45.015625 15.765625 45.015625 23.390625 
Q 45.015625 31 40.078125 35.4375 
Q 35.15625 39.890625 26.703125 39.890625 
Q 22.75 39.890625 18.8125 39.015625 
Q 14.890625 38.140625 10.796875 36.28125 
z
" id="DejaVuSans-53"/>
      </defs>
      <g transform="translate(176.046267 265.554375)scale(0.1 -0.1)">
       <use xlink:href="#DejaVuSans-49"/>
       <use x="63.623047" xlink:href="#DejaVuSans-53"/>
      </g>
     </g>
    </g>
    <g id="xtick_5">
     <g id="line2d_12">
      <path clip-path="url(#p63769cf000)" d="M 217.161247 239.758125 
L 217.161247 22.318125 
" style="fill:none;stroke:#b0b0b0;stroke-linecap:square;stroke-opacity:0.8;stroke-width:0.8;"/>
     </g>
     <g id="line2d_13">
      <g>
       <use style="stroke:#000000;stroke-width:0.8;" x="217.161247" xlink:href="#m2fb747f7d2" y="239.758125"/>
      </g>
     </g>
     <g id="text_5">
      <!-- Mar. -->
      <g transform="translate(206.145622 254.356562)scale(0.1 -0.1)">
       <use xlink:href="#DejaVuSans-77"/>
       <use x="86.279297" xlink:href="#DejaVuSans-97"/>
       <use x="147.558594" xlink:href="#DejaVuSans-114"/>
       <use x="188.53125" xlink:href="#DejaVuSans-46"/>
      </g>
      <!-- 22 -->
      <g transform="translate(210.798747 265.554375)scale(0.1 -0.1)">
       <use xlink:href="#DejaVuSans-50"/>
       <use x="63.623047" xlink:href="#DejaVuSans-50"/>
      </g>
     </g>
    </g>
    <g id="xtick_6">
     <g id="line2d_14">
      <path clip-path="url(#p63769cf000)" d="M 251.913727 239.758125 
L 251.913727 22.318125 
" style="fill:none;stroke:#b0b0b0;stroke-linecap:square;stroke-opacity:0.8;stroke-width:0.8;"/>
     </g>
     <g id="line2d_15">
      <g>
       <use style="stroke:#000000;stroke-width:0.8;" x="251.913727" xlink:href="#m2fb747f7d2" y="239.758125"/>
      </g>
     </g>
     <g id="text_6">
      <!-- Mar. -->
      <g transform="translate(240.898102 254.356562)scale(0.1 -0.1)">
       <use xlink:href="#DejaVuSans-77"/>
       <use x="86.279297" xlink:href="#DejaVuSans-97"/>
       <use x="147.558594" xlink:href="#DejaVuSans-114"/>
       <use x="188.53125" xlink:href="#DejaVuSans-46"/>
      </g>
      <!-- 29 -->
      <defs>
       <path d="M 10.984375 1.515625 
L 10.984375 10.5 
Q 14.703125 8.734375 18.5 7.8125 
Q 22.3125 6.890625 25.984375 6.890625 
Q 35.75 6.890625 40.890625 13.453125 
Q 46.046875 20.015625 46.78125 33.40625 
Q 43.953125 29.203125 39.59375 26.953125 
Q 35.25 24.703125 29.984375 24.703125 
Q 19.046875 24.703125 12.671875 31.3125 
Q 6.296875 37.9375 6.296875 49.421875 
Q 6.296875 60.640625 12.9375 67.421875 
Q 19.578125 74.21875 30.609375 74.21875 
Q 43.265625 74.21875 49.921875 64.515625 
Q 56.59375 54.828125 56.59375 36.375 
Q 56.59375 19.140625 48.40625 8.859375 
Q 40.234375 -1.421875 26.421875 -1.421875 
Q 22.703125 -1.421875 18.890625 -0.6875 
Q 15.09375 0.046875 10.984375 1.515625 
z
M 30.609375 32.421875 
Q 37.25 32.421875 41.125 36.953125 
Q 45.015625 41.5 45.015625 49.421875 
Q 45.015625 57.28125 41.125 61.84375 
Q 37.25 66.40625 30.609375 66.40625 
Q 23.96875 66.40625 20.09375 61.84375 
Q 16.21875 57.28125 16.21875 49.421875 
Q 16.21875 41.5 20.09375 36.953125 
Q 23.96875 32.421875 30.609375 32.421875 
z
" id="DejaVuSans-57"/>
      </defs>
      <g transform="translate(245.551227 265.554375)scale(0.1 -0.1)">
       <use xlink:href="#DejaVuSans-50"/>
       <use x="63.623047" xlink:href="#DejaVuSans-57"/>
      </g>
     </g>
    </g>
    <g id="xtick_7">
     <g id="line2d_16">
      <path clip-path="url(#p63769cf000)" d="M 286.666208 239.758125 
L 286.666208 22.318125 
" style="fill:none;stroke:#b0b0b0;stroke-linecap:square;stroke-opacity:0.8;stroke-width:0.8;"/>
     </g>
     <g id="line2d_17">
      <g>
       <use style="stroke:#000000;stroke-width:0.8;" x="286.666208" xlink:href="#m2fb747f7d2" y="239.758125"/>
      </g>
     </g>
     <g id="text_7">
      <!-- Apr. -->
      <defs>
       <path d="M 34.1875 63.1875 
L 20.796875 26.90625 
L 47.609375 26.90625 
z
M 28.609375 72.90625 
L 39.796875 72.90625 
L 67.578125 0 
L 57.328125 0 
L 50.6875 18.703125 
L 17.828125 18.703125 
L 11.1875 0 
L 0.78125 0 
z
" id="DejaVuSans-65"/>
       <path d="M 18.109375 8.203125 
L 18.109375 -20.796875 
L 9.078125 -20.796875 
L 9.078125 54.6875 
L 18.109375 54.6875 
L 18.109375 46.390625 
Q 20.953125 51.265625 25.265625 53.625 
Q 29.59375 56 35.59375 56 
Q 45.5625 56 51.78125 48.09375 
Q 58.015625 40.1875 58.015625 27.296875 
Q 58.015625 14.40625 51.78125 6.484375 
Q 45.5625 -1.421875 35.59375 -1.421875 
Q 29.59375 -1.421875 25.265625 0.953125 
Q 20.953125 3.328125 18.109375 8.203125 
z
M 48.6875 27.296875 
Q 48.6875 37.203125 44.609375 42.84375 
Q 40.53125 48.484375 33.40625 48.484375 
Q 26.265625 48.484375 22.1875 42.84375 
Q 18.109375 37.203125 18.109375 27.296875 
Q 18.109375 17.390625 22.1875 11.75 
Q 26.265625 6.109375 33.40625 6.109375 
Q 40.53125 6.109375 44.609375 11.75 
Q 48.6875 17.390625 48.6875 27.296875 
z
" id="DejaVuSans-112"/>
      </defs>
      <g transform="translate(276.434177 254.356562)scale(0.1 -0.1)">
       <use xlink:href="#DejaVuSans-65"/>
       <use x="68.408203" xlink:href="#DejaVuSans-112"/>
       <use x="131.884766" xlink:href="#DejaVuSans-114"/>
       <use x="172.857422" xlink:href="#DejaVuSans-46"/>
      </g>
      <!-- 05 -->
      <g transform="translate(280.303708 265.554375)scale(0.1 -0.1)">
       <use xlink:href="#DejaVuSans-48"/>
       <use x="63.623047" xlink:href="#DejaVuSans-53"/>
      </g>
     </g>
    </g>
    <g id="xtick_8">
     <g id="line2d_18">
      <path clip-path="url(#p63769cf000)" d="M 321.418688 239.758125 
L 321.418688 22.318125 
" style="fill:none;stroke:#b0b0b0;stroke-linecap:square;stroke-opacity:0.8;stroke-width:0.8;"/>
     </g>
     <g id="line2d_19">
      <g>
       <use style="stroke:#000000;stroke-width:0.8;" x="321.418688" xlink:href="#m2fb747f7d2" y="239.758125"/>
      </g>
     </g>
     <g id="text_8">
      <!-- Apr. -->
      <g transform="translate(311.186657 254.356562)scale(0.1 -0.1)">
       <use xlink:href="#DejaVuSans-65"/>
       <use x="68.408203" xlink:href="#DejaVuSans-112"/>
       <use x="131.884766" xlink:href="#DejaVuSans-114"/>
       <use x="172.857422" xlink:href="#DejaVuSans-46"/>
      </g>
      <!-- 12 -->
      <g transform="translate(315.056188 265.554375)scale(0.1 -0.1)">
       <use xlink:href="#DejaVuSans-49"/>
       <use x="63.623047" xlink:href="#DejaVuSans-50"/>
      </g>
     </g>
    </g>
   </g>
   <g id="matplotlib.axis_2">
    <g id="ytick_1">
     <g id="line2d_20">
      <path clip-path="url(#p63769cf000)" d="M 53.328125 239.758125 
L 388.128125 239.758125 
" style="fill:none;stroke:#b0b0b0;stroke-linecap:square;stroke-opacity:0.8;"/>
     </g>
     <g id="line2d_21">
      <defs>
       <path d="M 0 0 
L -3.5 0 
" id="md363645c28" style="stroke:#000000;stroke-width:0.8;"/>
      </defs>
      <g>
       <use style="stroke:#000000;stroke-width:0.8;" x="53.328125" xlink:href="#md363645c28" y="239.758125"/>
      </g>
     </g>
     <g id="text_9">
      <!-- 1 -->
      <g transform="translate(39.965625 243.557344)scale(0.1 -0.1)">
       <use xlink:href="#DejaVuSans-49"/>
      </g>
     </g>
    </g>
    <g id="ytick_2">
     <g id="line2d_22">
      <path clip-path="url(#p63769cf000)" d="M 53.328125 179.894742 
L 388.128125 179.894742 
" style="fill:none;stroke:#b0b0b0;stroke-linecap:square;stroke-opacity:0.8;"/>
     </g>
     <g id="line2d_23">
      <g>
       <use style="stroke:#000000;stroke-width:0.8;" x="53.328125" xlink:href="#md363645c28" y="179.894742"/>
      </g>
     </g>
     <g id="text_10">
      <!-- 10 -->
      <g transform="translate(33.603125 183.693961)scale(0.1 -0.1)">
       <use xlink:href="#DejaVuSans-49"/>
       <use x="63.623047" xlink:href="#DejaVuSans-48"/>
      </g>
     </g>
    </g>
    <g id="ytick_3">
     <g id="line2d_24">
      <path clip-path="url(#p63769cf000)" d="M 53.328125 120.031359 
L 388.128125 120.031359 
" style="fill:none;stroke:#b0b0b0;stroke-linecap:square;stroke-opacity:0.8;"/>
     </g>
     <g id="line2d_25">
      <g>
       <use style="stroke:#000000;stroke-width:0.8;" x="53.328125" xlink:href="#md363645c28" y="120.031359"/>
      </g>
     </g>
     <g id="text_11">
      <!-- 100 -->
      <g transform="translate(27.240625 123.830578)scale(0.1 -0.1)">
       <use xlink:href="#DejaVuSans-49"/>
       <use x="63.623047" xlink:href="#DejaVuSans-48"/>
       <use x="127.246094" xlink:href="#DejaVuSans-48"/>
      </g>
     </g>
    </g>
    <g id="ytick_4">
     <g id="line2d_26">
      <path clip-path="url(#p63769cf000)" d="M 53.328125 60.167976 
L 388.128125 60.167976 
" style="fill:none;stroke:#b0b0b0;stroke-linecap:square;stroke-opacity:0.8;"/>
     </g>
     <g id="line2d_27">
      <g>
       <use style="stroke:#000000;stroke-width:0.8;" x="53.328125" xlink:href="#md363645c28" y="60.167976"/>
      </g>
     </g>
     <g id="text_12">
      <!-- 1000 -->
      <g transform="translate(20.878125 63.967195)scale(0.1 -0.1)">
       <use xlink:href="#DejaVuSans-49"/>
       <use x="63.623047" xlink:href="#DejaVuSans-48"/>
       <use x="127.246094" xlink:href="#DejaVuSans-48"/>
       <use x="190.869141" xlink:href="#DejaVuSans-48"/>
      </g>
     </g>
    </g>
    <g id="ytick_5">
     <g id="line2d_28">
      <path clip-path="url(#p63769cf000)" d="M 53.328125 221.737451 
L 388.128125 221.737451 
" style="fill:none;stroke:#b0b0b0;stroke-linecap:square;stroke-opacity:0.3;stroke-width:0.8;"/>
     </g>
     <g id="line2d_29">
      <defs>
       <path d="M 0 0 
L -2 0 
" id="mb6ee73eb81" style="stroke:#000000;stroke-width:0.6;"/>
      </defs>
      <g>
       <use style="stroke:#000000;stroke-width:0.6;" x="53.328125" xlink:href="#mb6ee73eb81" y="221.737451"/>
      </g>
     </g>
     <g id="text_13">
      <!-- 2 -->
      <g transform="translate(41.565625 225.53667)scale(0.1 -0.1)">
       <use xlink:href="#DejaVuSans-50"/>
      </g>
     </g>
    </g>
    <g id="ytick_6">
     <g id="line2d_30">
      <path clip-path="url(#p63769cf000)" d="M 53.328125 197.915416 
L 388.128125 197.915416 
" style="fill:none;stroke:#b0b0b0;stroke-linecap:square;stroke-opacity:0.3;stroke-width:0.8;"/>
     </g>
     <g id="line2d_31">
      <g>
       <use style="stroke:#000000;stroke-width:0.6;" x="53.328125" xlink:href="#mb6ee73eb81" y="197.915416"/>
      </g>
     </g>
     <g id="text_14">
      <!-- 5 -->
      <g transform="translate(41.565625 201.714635)scale(0.1 -0.1)">
       <use xlink:href="#DejaVuSans-53"/>
      </g>
     </g>
    </g>
    <g id="ytick_7">
     <g id="line2d_32">
      <path clip-path="url(#p63769cf000)" d="M 53.328125 161.874068 
L 388.128125 161.874068 
" style="fill:none;stroke:#b0b0b0;stroke-linecap:square;stroke-opacity:0.3;stroke-width:0.8;"/>
     </g>
     <g id="line2d_33">
      <g>
       <use style="stroke:#000000;stroke-width:0.6;" x="53.328125" xlink:href="#mb6ee73eb81" y="161.874068"/>
      </g>
     </g>
     <g id="text_15">
      <!-- 20 -->
      <g transform="translate(35.203125 165.673287)scale(0.1 -0.1)">
       <use xlink:href="#DejaVuSans-50"/>
       <use x="63.623047" xlink:href="#DejaVuSans-48"/>
      </g>
     </g>
    </g>
    <g id="ytick_8">
     <g id="line2d_34">
      <path clip-path="url(#p63769cf000)" d="M 53.328125 138.052033 
L 388.128125 138.052033 
" style="fill:none;stroke:#b0b0b0;stroke-linecap:square;stroke-opacity:0.3;stroke-width:0.8;"/>
     </g>
     <g id="line2d_35">
      <g>
       <use style="stroke:#000000;stroke-width:0.6;" x="53.328125" xlink:href="#mb6ee73eb81" y="138.052033"/>
      </g>
     </g>
     <g id="text_16">
      <!-- 50 -->
      <g transform="translate(35.203125 141.851252)scale(0.1 -0.1)">
       <use xlink:href="#DejaVuSans-53"/>
       <use x="63.623047" xlink:href="#DejaVuSans-48"/>
      </g>
     </g>
    </g>
    <g id="ytick_9">
     <g id="line2d_36">
      <path clip-path="url(#p63769cf000)" d="M 53.328125 102.010685 
L 388.128125 102.010685 
" style="fill:none;stroke:#b0b0b0;stroke-linecap:square;stroke-opacity:0.3;stroke-width:0.8;"/>
     </g>
     <g id="line2d_37">
      <g>
       <use style="stroke:#000000;stroke-width:0.6;" x="53.328125" xlink:href="#mb6ee73eb81" y="102.010685"/>
      </g>
     </g>
     <g id="text_17">
      <!-- 200 -->
      <g transform="translate(28.840625 105.809904)scale(0.1 -0.1)">
       <use xlink:href="#DejaVuSans-50"/>
       <use x="63.623047" xlink:href="#DejaVuSans-48"/>
       <use x="127.246094" xlink:href="#DejaVuSans-48"/>
      </g>
     </g>
    </g>
    <g id="ytick_10">
     <g id="line2d_38">
      <path clip-path="url(#p63769cf000)" d="M 53.328125 78.18865 
L 388.128125 78.18865 
" style="fill:none;stroke:#b0b0b0;stroke-linecap:square;stroke-opacity:0.3;stroke-width:0.8;"/>
     </g>
     <g id="line2d_39">
      <g>
       <use style="stroke:#000000;stroke-width:0.6;" x="53.328125" xlink:href="#mb6ee73eb81" y="78.18865"/>
      </g>
     </g>
     <g id="text_18">
      <!-- 500 -->
      <g transform="translate(28.840625 81.987869)scale(0.1 -0.1)">
       <use xlink:href="#DejaVuSans-53"/>
       <use x="63.623047" xlink:href="#DejaVuSans-48"/>
       <use x="127.246094" xlink:href="#DejaVuSans-48"/>
      </g>
     </g>
    </g>
    <g id="ytick_11">
     <g id="line2d_40">
      <path clip-path="url(#p63769cf000)" d="M 53.328125 42.147302 
L 388.128125 42.147302 
" style="fill:none;stroke:#b0b0b0;stroke-linecap:square;stroke-opacity:0.3;stroke-width:0.8;"/>
     </g>
     <g id="line2d_41">
      <g>
       <use style="stroke:#000000;stroke-width:0.6;" x="53.328125" xlink:href="#mb6ee73eb81" y="42.147302"/>
      </g>
     </g>
     <g id="text_19">
      <!-- 2000 -->
      <g transform="translate(22.478125 45.946521)scale(0.1 -0.1)">
       <use xlink:href="#DejaVuSans-50"/>
       <use x="63.623047" xlink:href="#DejaVuSans-48"/>
       <use x="127.246094" xlink:href="#DejaVuSans-48"/>
       <use x="190.869141" xlink:href="#DejaVuSans-48"/>
      </g>
     </g>
    </g>
    <g id="text_20">
     <!-- Cases per million -->
     <defs>
      <path d="M 64.40625 67.28125 
L 64.40625 56.890625 
Q 59.421875 61.53125 53.78125 63.8125 
Q 48.140625 66.109375 41.796875 66.109375 
Q 29.296875 66.109375 22.65625 58.46875 
Q 16.015625 50.828125 16.015625 36.375 
Q 16.015625 21.96875 22.65625 14.328125 
Q 29.296875 6.6875 41.796875 6.6875 
Q 48.140625 6.6875 53.78125 8.984375 
Q 59.421875 11.28125 64.40625 15.921875 
L 64.40625 5.609375 
Q 59.234375 2.09375 53.4375 0.328125 
Q 47.65625 -1.421875 41.21875 -1.421875 
Q 24.65625 -1.421875 15.125 8.703125 
Q 5.609375 18.84375 5.609375 36.375 
Q 5.609375 53.953125 15.125 64.078125 
Q 24.65625 74.21875 41.21875 74.21875 
Q 47.75 74.21875 53.53125 72.484375 
Q 59.328125 70.75 64.40625 67.28125 
z
" id="DejaVuSans-67"/>
      <path d="M 44.28125 53.078125 
L 44.28125 44.578125 
Q 40.484375 46.53125 36.375 47.5 
Q 32.28125 48.484375 27.875 48.484375 
Q 21.1875 48.484375 17.84375 46.4375 
Q 14.5 44.390625 14.5 40.28125 
Q 14.5 37.15625 16.890625 35.375 
Q 19.28125 33.59375 26.515625 31.984375 
L 29.59375 31.296875 
Q 39.15625 29.25 43.1875 25.515625 
Q 47.21875 21.78125 47.21875 15.09375 
Q 47.21875 7.46875 41.1875 3.015625 
Q 35.15625 -1.421875 24.609375 -1.421875 
Q 20.21875 -1.421875 15.453125 -0.5625 
Q 10.6875 0.296875 5.421875 2 
L 5.421875 11.28125 
Q 10.40625 8.6875 15.234375 7.390625 
Q 20.0625 6.109375 24.8125 6.109375 
Q 31.15625 6.109375 34.5625 8.28125 
Q 37.984375 10.453125 37.984375 14.40625 
Q 37.984375 18.0625 35.515625 20.015625 
Q 33.0625 21.96875 24.703125 23.78125 
L 21.578125 24.515625 
Q 13.234375 26.265625 9.515625 29.90625 
Q 5.8125 33.546875 5.8125 39.890625 
Q 5.8125 47.609375 11.28125 51.796875 
Q 16.75 56 26.8125 56 
Q 31.78125 56 36.171875 55.265625 
Q 40.578125 54.546875 44.28125 53.078125 
z
" id="DejaVuSans-115"/>
      <path id="DejaVuSans-32"/>
      <path d="M 52 44.1875 
Q 55.375 50.25 60.0625 53.125 
Q 64.75 56 71.09375 56 
Q 79.640625 56 84.28125 50.015625 
Q 88.921875 44.046875 88.921875 33.015625 
L 88.921875 0 
L 79.890625 0 
L 79.890625 32.71875 
Q 79.890625 40.578125 77.09375 44.375 
Q 74.3125 48.1875 68.609375 48.1875 
Q 61.625 48.1875 57.5625 43.546875 
Q 53.515625 38.921875 53.515625 30.90625 
L 53.515625 0 
L 44.484375 0 
L 44.484375 32.71875 
Q 44.484375 40.625 41.703125 44.40625 
Q 38.921875 48.1875 33.109375 48.1875 
Q 26.21875 48.1875 22.15625 43.53125 
Q 18.109375 38.875 18.109375 30.90625 
L 18.109375 0 
L 9.078125 0 
L 9.078125 54.6875 
L 18.109375 54.6875 
L 18.109375 46.1875 
Q 21.1875 51.21875 25.484375 53.609375 
Q 29.78125 56 35.6875 56 
Q 41.65625 56 45.828125 52.96875 
Q 50 49.953125 52 44.1875 
z
" id="DejaVuSans-109"/>
      <path d="M 9.421875 54.6875 
L 18.40625 54.6875 
L 18.40625 0 
L 9.421875 0 
z
M 9.421875 75.984375 
L 18.40625 75.984375 
L 18.40625 64.59375 
L 9.421875 64.59375 
z
" id="DejaVuSans-105"/>
      <path d="M 9.421875 75.984375 
L 18.40625 75.984375 
L 18.40625 0 
L 9.421875 0 
z
" id="DejaVuSans-108"/>
      <path d="M 30.609375 48.390625 
Q 23.390625 48.390625 19.1875 42.75 
Q 14.984375 37.109375 14.984375 27.296875 
Q 14.984375 17.484375 19.15625 11.84375 
Q 23.34375 6.203125 30.609375 6.203125 
Q 37.796875 6.203125 41.984375 11.859375 
Q 46.1875 17.53125 46.1875 27.296875 
Q 46.1875 37.015625 41.984375 42.703125 
Q 37.796875 48.390625 30.609375 48.390625 
z
M 30.609375 56 
Q 42.328125 56 49.015625 48.375 
Q 55.71875 40.765625 55.71875 27.296875 
Q 55.71875 13.875 49.015625 6.21875 
Q 42.328125 -1.421875 30.609375 -1.421875 
Q 18.84375 -1.421875 12.171875 6.21875 
Q 5.515625 13.875 5.515625 27.296875 
Q 5.515625 40.765625 12.171875 48.375 
Q 18.84375 56 30.609375 56 
z
" id="DejaVuSans-111"/>
      <path d="M 54.890625 33.015625 
L 54.890625 0 
L 45.90625 0 
L 45.90625 32.71875 
Q 45.90625 40.484375 42.875 44.328125 
Q 39.84375 48.1875 33.796875 48.1875 
Q 26.515625 48.1875 22.3125 43.546875 
Q 18.109375 38.921875 18.109375 30.90625 
L 18.109375 0 
L 9.078125 0 
L 9.078125 54.6875 
L 18.109375 54.6875 
L 18.109375 46.1875 
Q 21.34375 51.125 25.703125 53.5625 
Q 30.078125 56 35.796875 56 
Q 45.21875 56 50.046875 50.171875 
Q 54.890625 44.34375 54.890625 33.015625 
z
" id="DejaVuSans-110"/>
     </defs>
     <g transform="translate(14.798438 174.018594)rotate(-90)scale(0.1 -0.1)">
      <use xlink:href="#DejaVuSans-67"/>
      <use x="69.824219" xlink:href="#DejaVuSans-97"/>
      <use x="131.103516" xlink:href="#DejaVuSans-115"/>
      <use x="183.203125" xlink:href="#DejaVuSans-101"/>
      <use x="244.726562" xlink:href="#DejaVuSans-115"/>
      <use x="296.826172" xlink:href="#DejaVuSans-32"/>
      <use x="328.613281" xlink:href="#DejaVuSans-112"/>
      <use x="392.089844" xlink:href="#DejaVuSans-101"/>
      <use x="453.613281" xlink:href="#DejaVuSans-114"/>
      <use x="494.726562" xlink:href="#DejaVuSans-32"/>
      <use x="526.513672" xlink:href="#DejaVuSans-109"/>
      <use x="623.925781" xlink:href="#DejaVuSans-105"/>
      <use x="651.708984" xlink:href="#DejaVuSans-108"/>
      <use x="679.492188" xlink:href="#DejaVuSans-108"/>
      <use x="707.275391" xlink:href="#DejaVuSans-105"/>
      <use x="735.058594" xlink:href="#DejaVuSans-111"/>
      <use x="796.240234" xlink:href="#DejaVuSans-110"/>
     </g>
    </g>
   </g>
   <g id="line2d_42">
    <path clip-path="url(#p63769cf000)" d="M 38.434205 319.981021 
L 43.398845 319.981021 
L 48.363485 319.981021 
L 53.328125 319.981021 
L 58.292765 319.981021 
L 63.257405 319.981021 
L 68.222045 297.952686 
L 73.186685 297.952686 
L 78.151325 297.952686 
L 83.115965 287.164836 
L 88.080605 285.273214 
L 93.045245 283.939674 
L 98.009886 283.939674 
L 102.974526 282.67121 
L 107.939166 280.68564 
L 112.903806 278.138312 
L 117.868446 270.659057 
L 122.833086 265.066519 
L 127.797726 258.766772 
L 132.762366 250.04257 
L 137.727006 240.500442 
L 142.691646 232.43693 
L 147.656286 226.767388 
L 152.620926 219.92049 
L 157.585566 210.952134 
L 162.550206 203.954648 
L 167.514846 198.093406 
L 172.479486 190.49877 
L 177.444127 184.307338 
L 182.408767 177.39981 
L 187.373407 171.143365 
L 192.338047 162.755305 
L 197.302687 152.830193 
L 202.267327 142.436487 
L 207.231967 133.573838 
L 212.196607 127.800494 
L 217.161247 119.311887 
L 222.125887 112.379969 
L 227.090527 106.506948 
L 232.055167 100.839449 
L 237.019807 94.971618 
L 241.984447 89.84902 
L 246.949087 85.422751 
L 251.913727 81.530903 
L 256.878368 78.041234 
L 261.843008 74.38629 
L 266.807648 70.972617 
L 271.772288 67.58928 
L 276.736928 64.376486 
L 281.701568 61.372486 
L 286.666208 59.346315 
L 291.630848 57.053095 
L 296.595488 54.799711 
L 301.560128 52.81584 
L 306.524768 50.883358 
L 311.489408 49.077085 
L 316.454048 47.570461 
L 321.418688 46.265918 
L 326.383328 45.058244 
L 331.347968 43.731927 
L 336.312609 42.485162 
L 341.277249 41.32518 
L 346.241889 40.119409 
" style="fill:none;stroke:#ff7f0e;stroke-linecap:square;stroke-width:1.5;"/>
    <defs>
     <path d="M 0 3 
C 0.795609 3 1.55874 2.683901 2.12132 2.12132 
C 2.683901 1.55874 3 0.795609 3 0 
C 3 -0.795609 2.683901 -1.55874 2.12132 -2.12132 
C 1.55874 -2.683901 0.795609 -3 0 -3 
C -0.795609 -3 -1.55874 -2.683901 -2.12132 -2.12132 
C -2.683901 -1.55874 -3 -0.795609 -3 0 
C -3 0.795609 -2.683901 1.55874 -2.12132 2.12132 
C -1.55874 2.683901 -0.795609 3 0 3 
z
" id="mbda8b9208d" style="stroke:#ff7f0e;"/>
    </defs>
    <g clip-path="url(#p63769cf000)">
     <use style="fill:#ff7f0e;stroke:#ff7f0e;" x="38.434205" xlink:href="#mbda8b9208d" y="319.981021"/>
     <use style="fill:#ff7f0e;stroke:#ff7f0e;" x="43.398845" xlink:href="#mbda8b9208d" y="319.981021"/>
     <use style="fill:#ff7f0e;stroke:#ff7f0e;" x="48.363485" xlink:href="#mbda8b9208d" y="319.981021"/>
     <use style="fill:#ff7f0e;stroke:#ff7f0e;" x="53.328125" xlink:href="#mbda8b9208d" y="319.981021"/>
     <use style="fill:#ff7f0e;stroke:#ff7f0e;" x="58.292765" xlink:href="#mbda8b9208d" y="319.981021"/>
     <use style="fill:#ff7f0e;stroke:#ff7f0e;" x="63.257405" xlink:href="#mbda8b9208d" y="319.981021"/>
     <use style="fill:#ff7f0e;stroke:#ff7f0e;" x="68.222045" xlink:href="#mbda8b9208d" y="297.952686"/>
     <use style="fill:#ff7f0e;stroke:#ff7f0e;" x="73.186685" xlink:href="#mbda8b9208d" y="297.952686"/>
     <use style="fill:#ff7f0e;stroke:#ff7f0e;" x="78.151325" xlink:href="#mbda8b9208d" y="297.952686"/>
     <use style="fill:#ff7f0e;stroke:#ff7f0e;" x="83.115965" xlink:href="#mbda8b9208d" y="287.164836"/>
     <use style="fill:#ff7f0e;stroke:#ff7f0e;" x="88.080605" xlink:href="#mbda8b9208d" y="285.273214"/>
     <use style="fill:#ff7f0e;stroke:#ff7f0e;" x="93.045245" xlink:href="#mbda8b9208d" y="283.939674"/>
     <use style="fill:#ff7f0e;stroke:#ff7f0e;" x="98.009886" xlink:href="#mbda8b9208d" y="283.939674"/>
     <use style="fill:#ff7f0e;stroke:#ff7f0e;" x="102.974526" xlink:href="#mbda8b9208d" y="282.67121"/>
     <use style="fill:#ff7f0e;stroke:#ff7f0e;" x="107.939166" xlink:href="#mbda8b9208d" y="280.68564"/>
     <use style="fill:#ff7f0e;stroke:#ff7f0e;" x="112.903806" xlink:href="#mbda8b9208d" y="278.138312"/>
     <use style="fill:#ff7f0e;stroke:#ff7f0e;" x="117.868446" xlink:href="#mbda8b9208d" y="270.659057"/>
     <use style="fill:#ff7f0e;stroke:#ff7f0e;" x="122.833086" xlink:href="#mbda8b9208d" y="265.066519"/>
     <use style="fill:#ff7f0e;stroke:#ff7f0e;" x="127.797726" xlink:href="#mbda8b9208d" y="258.766772"/>
     <use style="fill:#ff7f0e;stroke:#ff7f0e;" x="132.762366" xlink:href="#mbda8b9208d" y="250.04257"/>
     <use style="fill:#ff7f0e;stroke:#ff7f0e;" x="137.727006" xlink:href="#mbda8b9208d" y="240.500442"/>
     <use style="fill:#ff7f0e;stroke:#ff7f0e;" x="142.691646" xlink:href="#mbda8b9208d" y="232.43693"/>
     <use style="fill:#ff7f0e;stroke:#ff7f0e;" x="147.656286" xlink:href="#mbda8b9208d" y="226.767388"/>
     <use style="fill:#ff7f0e;stroke:#ff7f0e;" x="152.620926" xlink:href="#mbda8b9208d" y="219.92049"/>
     <use style="fill:#ff7f0e;stroke:#ff7f0e;" x="157.585566" xlink:href="#mbda8b9208d" y="210.952134"/>
     <use style="fill:#ff7f0e;stroke:#ff7f0e;" x="162.550206" xlink:href="#mbda8b9208d" y="203.954648"/>
     <use style="fill:#ff7f0e;stroke:#ff7f0e;" x="167.514846" xlink:href="#mbda8b9208d" y="198.093406"/>
     <use style="fill:#ff7f0e;stroke:#ff7f0e;" x="172.479486" xlink:href="#mbda8b9208d" y="190.49877"/>
     <use style="fill:#ff7f0e;stroke:#ff7f0e;" x="177.444127" xlink:href="#mbda8b9208d" y="184.307338"/>
     <use style="fill:#ff7f0e;stroke:#ff7f0e;" x="182.408767" xlink:href="#mbda8b9208d" y="177.39981"/>
     <use style="fill:#ff7f0e;stroke:#ff7f0e;" x="187.373407" xlink:href="#mbda8b9208d" y="171.143365"/>
     <use style="fill:#ff7f0e;stroke:#ff7f0e;" x="192.338047" xlink:href="#mbda8b9208d" y="162.755305"/>
     <use style="fill:#ff7f0e;stroke:#ff7f0e;" x="197.302687" xlink:href="#mbda8b9208d" y="152.830193"/>
     <use style="fill:#ff7f0e;stroke:#ff7f0e;" x="202.267327" xlink:href="#mbda8b9208d" y="142.436487"/>
     <use style="fill:#ff7f0e;stroke:#ff7f0e;" x="207.231967" xlink:href="#mbda8b9208d" y="133.573838"/>
     <use style="fill:#ff7f0e;stroke:#ff7f0e;" x="212.196607" xlink:href="#mbda8b9208d" y="127.800494"/>
     <use style="fill:#ff7f0e;stroke:#ff7f0e;" x="217.161247" xlink:href="#mbda8b9208d" y="119.311887"/>
     <use style="fill:#ff7f0e;stroke:#ff7f0e;" x="222.125887" xlink:href="#mbda8b9208d" y="112.379969"/>
     <use style="fill:#ff7f0e;stroke:#ff7f0e;" x="227.090527" xlink:href="#mbda8b9208d" y="106.506948"/>
     <use style="fill:#ff7f0e;stroke:#ff7f0e;" x="232.055167" xlink:href="#mbda8b9208d" y="100.839449"/>
     <use style="fill:#ff7f0e;stroke:#ff7f0e;" x="237.019807" xlink:href="#mbda8b9208d" y="94.971618"/>
     <use style="fill:#ff7f0e;stroke:#ff7f0e;" x="241.984447" xlink:href="#mbda8b9208d" y="89.84902"/>
     <use style="fill:#ff7f0e;stroke:#ff7f0e;" x="246.949087" xlink:href="#mbda8b9208d" y="85.422751"/>
     <use style="fill:#ff7f0e;stroke:#ff7f0e;" x="251.913727" xlink:href="#mbda8b9208d" y="81.530903"/>
     <use style="fill:#ff7f0e;stroke:#ff7f0e;" x="256.878368" xlink:href="#mbda8b9208d" y="78.041234"/>
     <use style="fill:#ff7f0e;stroke:#ff7f0e;" x="261.843008" xlink:href="#mbda8b9208d" y="74.38629"/>
     <use style="fill:#ff7f0e;stroke:#ff7f0e;" x="266.807648" xlink:href="#mbda8b9208d" y="70.972617"/>
     <use style="fill:#ff7f0e;stroke:#ff7f0e;" x="271.772288" xlink:href="#mbda8b9208d" y="67.58928"/>
     <use style="fill:#ff7f0e;stroke:#ff7f0e;" x="276.736928" xlink:href="#mbda8b9208d" y="64.376486"/>
     <use style="fill:#ff7f0e;stroke:#ff7f0e;" x="281.701568" xlink:href="#mbda8b9208d" y="61.372486"/>
     <use style="fill:#ff7f0e;stroke:#ff7f0e;" x="286.666208" xlink:href="#mbda8b9208d" y="59.346315"/>
     <use style="fill:#ff7f0e;stroke:#ff7f0e;" x="291.630848" xlink:href="#mbda8b9208d" y="57.053095"/>
     <use style="fill:#ff7f0e;stroke:#ff7f0e;" x="296.595488" xlink:href="#mbda8b9208d" y="54.799711"/>
     <use style="fill:#ff7f0e;stroke:#ff7f0e;" x="301.560128" xlink:href="#mbda8b9208d" y="52.81584"/>
     <use style="fill:#ff7f0e;stroke:#ff7f0e;" x="306.524768" xlink:href="#mbda8b9208d" y="50.883358"/>
     <use style="fill:#ff7f0e;stroke:#ff7f0e;" x="311.489408" xlink:href="#mbda8b9208d" y="49.077085"/>
     <use style="fill:#ff7f0e;stroke:#ff7f0e;" x="316.454048" xlink:href="#mbda8b9208d" y="47.570461"/>
     <use style="fill:#ff7f0e;stroke:#ff7f0e;" x="321.418688" xlink:href="#mbda8b9208d" y="46.265918"/>
     <use style="fill:#ff7f0e;stroke:#ff7f0e;" x="326.383328" xlink:href="#mbda8b9208d" y="45.058244"/>
     <use style="fill:#ff7f0e;stroke:#ff7f0e;" x="331.347968" xlink:href="#mbda8b9208d" y="43.731927"/>
     <use style="fill:#ff7f0e;stroke:#ff7f0e;" x="336.312609" xlink:href="#mbda8b9208d" y="42.485162"/>
     <use style="fill:#ff7f0e;stroke:#ff7f0e;" x="341.277249" xlink:href="#mbda8b9208d" y="41.32518"/>
     <use style="fill:#ff7f0e;stroke:#ff7f0e;" x="346.241889" xlink:href="#mbda8b9208d" y="40.119409"/>
    </g>
   </g>
   <g id="line2d_43">
    <path clip-path="url(#p63769cf000)" d="M 38.434205 317.779414 
L 43.398845 317.779414 
L 48.363485 317.779414 
L 53.328125 317.779414 
L 58.292765 317.779414 
L 63.257405 310.300158 
L 68.222045 267.188986 
L 73.186685 232.743129 
L 78.151325 214.887524 
L 83.115965 205.073771 
L 88.080605 196.132154 
L 93.045245 186.380688 
L 98.009886 177.751774 
L 102.974526 169.81027 
L 107.939166 163.619957 
L 112.903806 152.940616 
L 117.868446 148.266875 
L 122.833086 142.908531 
L 127.797726 137.4292 
L 132.762366 131.649731 
L 137.727006 126.873758 
L 142.691646 120.680566 
L 147.656286 114.804187 
L 152.620926 109.135003 
L 157.585566 106.503456 
L 162.550206 101.165768 
L 167.514846 96.151435 
L 172.479486 92.102275 
L 177.444127 87.405191 
L 182.408767 83.330382 
L 187.373407 80.138158 
L 192.338047 77.052467 
L 197.302687 73.793919 
L 202.267327 70.182475 
L 207.231967 66.642309 
L 212.196607 63.248376 
L 217.161247 60.681426 
L 222.125887 58.656985 
L 227.090527 56.605399 
L 232.055167 54.717562 
L 237.019807 52.635241 
L 241.984447 50.795621 
L 246.949087 49.059332 
L 251.913727 47.632464 
L 256.878368 46.576366 
L 261.843008 45.560762 
L 266.807648 44.411373 
L 271.772288 43.336361 
L 276.736928 42.322042 
L 281.701568 41.299882 
L 286.666208 40.414799 
L 291.630848 39.699115 
L 296.595488 39.109763 
L 301.560128 38.384431 
L 306.524768 37.612088 
L 311.489408 36.906561 
L 316.454048 36.092508 
L 321.418688 35.403073 
L 326.383328 34.884042 
L 331.347968 34.404115 
L 336.312609 33.980855 
L 341.277249 33.3916 
L 346.241889 32.859543 
" style="fill:none;stroke:#2ca02c;stroke-linecap:square;stroke-width:1.5;"/>
    <defs>
     <path d="M 0 3 
C 0.795609 3 1.55874 2.683901 2.12132 2.12132 
C 2.683901 1.55874 3 0.795609 3 0 
C 3 -0.795609 2.683901 -1.55874 2.12132 -2.12132 
C 1.55874 -2.683901 0.795609 -3 0 -3 
C -0.795609 -3 -1.55874 -2.683901 -2.12132 -2.12132 
C -2.683901 -1.55874 -3 -0.795609 -3 0 
C -3 0.795609 -2.683901 1.55874 -2.12132 2.12132 
C -1.55874 2.683901 -0.795609 3 0 3 
z
" id="meed1b0d33c" style="stroke:#2ca02c;"/>
    </defs>
    <g clip-path="url(#p63769cf000)">
     <use style="fill:#2ca02c;stroke:#2ca02c;" x="38.434205" xlink:href="#meed1b0d33c" y="317.779414"/>
     <use style="fill:#2ca02c;stroke:#2ca02c;" x="43.398845" xlink:href="#meed1b0d33c" y="317.779414"/>
     <use style="fill:#2ca02c;stroke:#2ca02c;" x="48.363485" xlink:href="#meed1b0d33c" y="317.779414"/>
     <use style="fill:#2ca02c;stroke:#2ca02c;" x="53.328125" xlink:href="#meed1b0d33c" y="317.779414"/>
     <use style="fill:#2ca02c;stroke:#2ca02c;" x="58.292765" xlink:href="#meed1b0d33c" y="317.779414"/>
     <use style="fill:#2ca02c;stroke:#2ca02c;" x="63.257405" xlink:href="#meed1b0d33c" y="310.300158"/>
     <use style="fill:#2ca02c;stroke:#2ca02c;" x="68.222045" xlink:href="#meed1b0d33c" y="267.188986"/>
     <use style="fill:#2ca02c;stroke:#2ca02c;" x="73.186685" xlink:href="#meed1b0d33c" y="232.743129"/>
     <use style="fill:#2ca02c;stroke:#2ca02c;" x="78.151325" xlink:href="#meed1b0d33c" y="214.887524"/>
     <use style="fill:#2ca02c;stroke:#2ca02c;" x="83.115965" xlink:href="#meed1b0d33c" y="205.073771"/>
     <use style="fill:#2ca02c;stroke:#2ca02c;" x="88.080605" xlink:href="#meed1b0d33c" y="196.132154"/>
     <use style="fill:#2ca02c;stroke:#2ca02c;" x="93.045245" xlink:href="#meed1b0d33c" y="186.380688"/>
     <use style="fill:#2ca02c;stroke:#2ca02c;" x="98.009886" xlink:href="#meed1b0d33c" y="177.751774"/>
     <use style="fill:#2ca02c;stroke:#2ca02c;" x="102.974526" xlink:href="#meed1b0d33c" y="169.81027"/>
     <use style="fill:#2ca02c;stroke:#2ca02c;" x="107.939166" xlink:href="#meed1b0d33c" y="163.619957"/>
     <use style="fill:#2ca02c;stroke:#2ca02c;" x="112.903806" xlink:href="#meed1b0d33c" y="152.940616"/>
     <use style="fill:#2ca02c;stroke:#2ca02c;" x="117.868446" xlink:href="#meed1b0d33c" y="148.266875"/>
     <use style="fill:#2ca02c;stroke:#2ca02c;" x="122.833086" xlink:href="#meed1b0d33c" y="142.908531"/>
     <use style="fill:#2ca02c;stroke:#2ca02c;" x="127.797726" xlink:href="#meed1b0d33c" y="137.4292"/>
     <use style="fill:#2ca02c;stroke:#2ca02c;" x="132.762366" xlink:href="#meed1b0d33c" y="131.649731"/>
     <use style="fill:#2ca02c;stroke:#2ca02c;" x="137.727006" xlink:href="#meed1b0d33c" y="126.873758"/>
     <use style="fill:#2ca02c;stroke:#2ca02c;" x="142.691646" xlink:href="#meed1b0d33c" y="120.680566"/>
     <use style="fill:#2ca02c;stroke:#2ca02c;" x="147.656286" xlink:href="#meed1b0d33c" y="114.804187"/>
     <use style="fill:#2ca02c;stroke:#2ca02c;" x="152.620926" xlink:href="#meed1b0d33c" y="109.135003"/>
     <use style="fill:#2ca02c;stroke:#2ca02c;" x="157.585566" xlink:href="#meed1b0d33c" y="106.503456"/>
     <use style="fill:#2ca02c;stroke:#2ca02c;" x="162.550206" xlink:href="#meed1b0d33c" y="101.165768"/>
     <use style="fill:#2ca02c;stroke:#2ca02c;" x="167.514846" xlink:href="#meed1b0d33c" y="96.151435"/>
     <use style="fill:#2ca02c;stroke:#2ca02c;" x="172.479486" xlink:href="#meed1b0d33c" y="92.102275"/>
     <use style="fill:#2ca02c;stroke:#2ca02c;" x="177.444127" xlink:href="#meed1b0d33c" y="87.405191"/>
     <use style="fill:#2ca02c;stroke:#2ca02c;" x="182.408767" xlink:href="#meed1b0d33c" y="83.330382"/>
     <use style="fill:#2ca02c;stroke:#2ca02c;" x="187.373407" xlink:href="#meed1b0d33c" y="80.138158"/>
     <use style="fill:#2ca02c;stroke:#2ca02c;" x="192.338047" xlink:href="#meed1b0d33c" y="77.052467"/>
     <use style="fill:#2ca02c;stroke:#2ca02c;" x="197.302687" xlink:href="#meed1b0d33c" y="73.793919"/>
     <use style="fill:#2ca02c;stroke:#2ca02c;" x="202.267327" xlink:href="#meed1b0d33c" y="70.182475"/>
     <use style="fill:#2ca02c;stroke:#2ca02c;" x="207.231967" xlink:href="#meed1b0d33c" y="66.642309"/>
     <use style="fill:#2ca02c;stroke:#2ca02c;" x="212.196607" xlink:href="#meed1b0d33c" y="63.248376"/>
     <use style="fill:#2ca02c;stroke:#2ca02c;" x="217.161247" xlink:href="#meed1b0d33c" y="60.681426"/>
     <use style="fill:#2ca02c;stroke:#2ca02c;" x="222.125887" xlink:href="#meed1b0d33c" y="58.656985"/>
     <use style="fill:#2ca02c;stroke:#2ca02c;" x="227.090527" xlink:href="#meed1b0d33c" y="56.605399"/>
     <use style="fill:#2ca02c;stroke:#2ca02c;" x="232.055167" xlink:href="#meed1b0d33c" y="54.717562"/>
     <use style="fill:#2ca02c;stroke:#2ca02c;" x="237.019807" xlink:href="#meed1b0d33c" y="52.635241"/>
     <use style="fill:#2ca02c;stroke:#2ca02c;" x="241.984447" xlink:href="#meed1b0d33c" y="50.795621"/>
     <use style="fill:#2ca02c;stroke:#2ca02c;" x="246.949087" xlink:href="#meed1b0d33c" y="49.059332"/>
     <use style="fill:#2ca02c;stroke:#2ca02c;" x="251.913727" xlink:href="#meed1b0d33c" y="47.632464"/>
     <use style="fill:#2ca02c;stroke:#2ca02c;" x="256.878368" xlink:href="#meed1b0d33c" y="46.576366"/>
     <use style="fill:#2ca02c;stroke:#2ca02c;" x="261.843008" xlink:href="#meed1b0d33c" y="45.560762"/>
     <use style="fill:#2ca02c;stroke:#2ca02c;" x="266.807648" xlink:href="#meed1b0d33c" y="44.411373"/>
     <use style="fill:#2ca02c;stroke:#2ca02c;" x="271.772288" xlink:href="#meed1b0d33c" y="43.336361"/>
     <use style="fill:#2ca02c;stroke:#2ca02c;" x="276.736928" xlink:href="#meed1b0d33c" y="42.322042"/>
     <use style="fill:#2ca02c;stroke:#2ca02c;" x="281.701568" xlink:href="#meed1b0d33c" y="41.299882"/>
     <use style="fill:#2ca02c;stroke:#2ca02c;" x="286.666208" xlink:href="#meed1b0d33c" y="40.414799"/>
     <use style="fill:#2ca02c;stroke:#2ca02c;" x="291.630848" xlink:href="#meed1b0d33c" y="39.699115"/>
     <use style="fill:#2ca02c;stroke:#2ca02c;" x="296.595488" xlink:href="#meed1b0d33c" y="39.109763"/>
     <use style="fill:#2ca02c;stroke:#2ca02c;" x="301.560128" xlink:href="#meed1b0d33c" y="38.384431"/>
     <use style="fill:#2ca02c;stroke:#2ca02c;" x="306.524768" xlink:href="#meed1b0d33c" y="37.612088"/>
     <use style="fill:#2ca02c;stroke:#2ca02c;" x="311.489408" xlink:href="#meed1b0d33c" y="36.906561"/>
     <use style="fill:#2ca02c;stroke:#2ca02c;" x="316.454048" xlink:href="#meed1b0d33c" y="36.092508"/>
     <use style="fill:#2ca02c;stroke:#2ca02c;" x="321.418688" xlink:href="#meed1b0d33c" y="35.403073"/>
     <use style="fill:#2ca02c;stroke:#2ca02c;" x="326.383328" xlink:href="#meed1b0d33c" y="34.884042"/>
     <use style="fill:#2ca02c;stroke:#2ca02c;" x="331.347968" xlink:href="#meed1b0d33c" y="34.404115"/>
     <use style="fill:#2ca02c;stroke:#2ca02c;" x="336.312609" xlink:href="#meed1b0d33c" y="33.980855"/>
     <use style="fill:#2ca02c;stroke:#2ca02c;" x="341.277249" xlink:href="#meed1b0d33c" y="33.3916"/>
     <use style="fill:#2ca02c;stroke:#2ca02c;" x="346.241889" xlink:href="#meed1b0d33c" y="32.859543"/>
    </g>
   </g>
   <g id="line2d_44">
    <path clip-path="url(#p63769cf000)" d="M 38.434205 292.15987 
L 43.398845 292.15987 
L 48.363485 292.15987 
L 53.328125 292.15987 
L 58.292765 292.15987 
L 63.257405 292.15987 
L 68.222045 292.15987 
L 73.186685 292.15987 
L 78.151325 282.599638 
L 83.115965 282.599638 
L 88.080605 282.599638 
L 93.045245 282.599638 
L 98.009886 277.20136 
L 102.974526 271.399998 
L 107.939166 267.76642 
L 112.903806 256.118523 
L 117.868446 254.037545 
L 122.833086 247.063128 
L 127.797726 233.177871 
L 132.762366 225.698616 
L 137.727006 216.69601 
L 142.691646 210.392249 
L 147.656286 202.975266 
L 152.620926 199.236184 
L 157.585566 194.645038 
L 162.550206 189.882363 
L 167.514846 183.41148 
L 172.479486 175.560345 
L 177.444127 166.287389 
L 182.408767 161.113859 
L 187.373407 158.417685 
L 192.338047 152.331453 
L 197.302687 144.593506 
L 202.267327 138.899289 
L 207.231967 133.763287 
L 212.196607 127.757771 
L 217.161247 124.522335 
L 222.125887 120.437019 
L 227.090527 115.382847 
L 232.055167 111.084821 
L 237.019807 105.842182 
L 241.984447 100.093504 
L 246.949087 95.899317 
L 251.913727 92.438755 
L 256.878368 89.165849 
L 261.843008 85.852964 
L 266.807648 81.728312 
L 271.772288 78.23093 
L 276.736928 75.008029 
L 281.701568 72.580825 
L 286.666208 69.154408 
L 291.630848 67.164871 
L 296.595488 65.395766 
L 301.560128 62.932068 
L 306.524768 61.136 
L 311.489408 57.880533 
L 316.454048 56.098491 
L 321.418688 54.41383 
L 326.383328 53.107774 
L 331.347968 51.610947 
L 336.312609 50.366405 
L 341.277249 49.175197 
L 346.241889 47.800231 
" style="fill:none;stroke:#1f77b4;stroke-linecap:square;stroke-width:1.5;"/>
    <defs>
     <path d="M 0 3 
C 0.795609 3 1.55874 2.683901 2.12132 2.12132 
C 2.683901 1.55874 3 0.795609 3 0 
C 3 -0.795609 2.683901 -1.55874 2.12132 -2.12132 
C 1.55874 -2.683901 0.795609 -3 0 -3 
C -0.795609 -3 -1.55874 -2.683901 -2.12132 -2.12132 
C -2.683901 -1.55874 -3 -0.795609 -3 0 
C -3 0.795609 -2.683901 1.55874 -2.12132 2.12132 
C -1.55874 2.683901 -0.795609 3 0 3 
z
" id="mc7af511cb0" style="stroke:#1f77b4;"/>
    </defs>
    <g clip-path="url(#p63769cf000)">
     <use style="fill:#1f77b4;stroke:#1f77b4;" x="38.434205" xlink:href="#mc7af511cb0" y="292.15987"/>
     <use style="fill:#1f77b4;stroke:#1f77b4;" x="43.398845" xlink:href="#mc7af511cb0" y="292.15987"/>
     <use style="fill:#1f77b4;stroke:#1f77b4;" x="48.363485" xlink:href="#mc7af511cb0" y="292.15987"/>
     <use style="fill:#1f77b4;stroke:#1f77b4;" x="53.328125" xlink:href="#mc7af511cb0" y="292.15987"/>
     <use style="fill:#1f77b4;stroke:#1f77b4;" x="58.292765" xlink:href="#mc7af511cb0" y="292.15987"/>
     <use style="fill:#1f77b4;stroke:#1f77b4;" x="63.257405" xlink:href="#mc7af511cb0" y="292.15987"/>
     <use style="fill:#1f77b4;stroke:#1f77b4;" x="68.222045" xlink:href="#mc7af511cb0" y="292.15987"/>
     <use style="fill:#1f77b4;stroke:#1f77b4;" x="73.186685" xlink:href="#mc7af511cb0" y="292.15987"/>
     <use style="fill:#1f77b4;stroke:#1f77b4;" x="78.151325" xlink:href="#mc7af511cb0" y="282.599638"/>
     <use style="fill:#1f77b4;stroke:#1f77b4;" x="83.115965" xlink:href="#mc7af511cb0" y="282.599638"/>
     <use style="fill:#1f77b4;stroke:#1f77b4;" x="88.080605" xlink:href="#mc7af511cb0" y="282.599638"/>
     <use style="fill:#1f77b4;stroke:#1f77b4;" x="93.045245" xlink:href="#mc7af511cb0" y="282.599638"/>
     <use style="fill:#1f77b4;stroke:#1f77b4;" x="98.009886" xlink:href="#mc7af511cb0" y="277.20136"/>
     <use style="fill:#1f77b4;stroke:#1f77b4;" x="102.974526" xlink:href="#mc7af511cb0" y="271.399998"/>
     <use style="fill:#1f77b4;stroke:#1f77b4;" x="107.939166" xlink:href="#mc7af511cb0" y="267.76642"/>
     <use style="fill:#1f77b4;stroke:#1f77b4;" x="112.903806" xlink:href="#mc7af511cb0" y="256.118523"/>
     <use style="fill:#1f77b4;stroke:#1f77b4;" x="117.868446" xlink:href="#mc7af511cb0" y="254.037545"/>
     <use style="fill:#1f77b4;stroke:#1f77b4;" x="122.833086" xlink:href="#mc7af511cb0" y="247.063128"/>
     <use style="fill:#1f77b4;stroke:#1f77b4;" x="127.797726" xlink:href="#mc7af511cb0" y="233.177871"/>
     <use style="fill:#1f77b4;stroke:#1f77b4;" x="132.762366" xlink:href="#mc7af511cb0" y="225.698616"/>
     <use style="fill:#1f77b4;stroke:#1f77b4;" x="137.727006" xlink:href="#mc7af511cb0" y="216.69601"/>
     <use style="fill:#1f77b4;stroke:#1f77b4;" x="142.691646" xlink:href="#mc7af511cb0" y="210.392249"/>
     <use style="fill:#1f77b4;stroke:#1f77b4;" x="147.656286" xlink:href="#mc7af511cb0" y="202.975266"/>
     <use style="fill:#1f77b4;stroke:#1f77b4;" x="152.620926" xlink:href="#mc7af511cb0" y="199.236184"/>
     <use style="fill:#1f77b4;stroke:#1f77b4;" x="157.585566" xlink:href="#mc7af511cb0" y="194.645038"/>
     <use style="fill:#1f77b4;stroke:#1f77b4;" x="162.550206" xlink:href="#mc7af511cb0" y="189.882363"/>
     <use style="fill:#1f77b4;stroke:#1f77b4;" x="167.514846" xlink:href="#mc7af511cb0" y="183.41148"/>
     <use style="fill:#1f77b4;stroke:#1f77b4;" x="172.479486" xlink:href="#mc7af511cb0" y="175.560345"/>
     <use style="fill:#1f77b4;stroke:#1f77b4;" x="177.444127" xlink:href="#mc7af511cb0" y="166.287389"/>
     <use style="fill:#1f77b4;stroke:#1f77b4;" x="182.408767" xlink:href="#mc7af511cb0" y="161.113859"/>
     <use style="fill:#1f77b4;stroke:#1f77b4;" x="187.373407" xlink:href="#mc7af511cb0" y="158.417685"/>
     <use style="fill:#1f77b4;stroke:#1f77b4;" x="192.338047" xlink:href="#mc7af511cb0" y="152.331453"/>
     <use style="fill:#1f77b4;stroke:#1f77b4;" x="197.302687" xlink:href="#mc7af511cb0" y="144.593506"/>
     <use style="fill:#1f77b4;stroke:#1f77b4;" x="202.267327" xlink:href="#mc7af511cb0" y="138.899289"/>
     <use style="fill:#1f77b4;stroke:#1f77b4;" x="207.231967" xlink:href="#mc7af511cb0" y="133.763287"/>
     <use style="fill:#1f77b4;stroke:#1f77b4;" x="212.196607" xlink:href="#mc7af511cb0" y="127.757771"/>
     <use style="fill:#1f77b4;stroke:#1f77b4;" x="217.161247" xlink:href="#mc7af511cb0" y="124.522335"/>
     <use style="fill:#1f77b4;stroke:#1f77b4;" x="222.125887" xlink:href="#mc7af511cb0" y="120.437019"/>
     <use style="fill:#1f77b4;stroke:#1f77b4;" x="227.090527" xlink:href="#mc7af511cb0" y="115.382847"/>
     <use style="fill:#1f77b4;stroke:#1f77b4;" x="232.055167" xlink:href="#mc7af511cb0" y="111.084821"/>
     <use style="fill:#1f77b4;stroke:#1f77b4;" x="237.019807" xlink:href="#mc7af511cb0" y="105.842182"/>
     <use style="fill:#1f77b4;stroke:#1f77b4;" x="241.984447" xlink:href="#mc7af511cb0" y="100.093504"/>
     <use style="fill:#1f77b4;stroke:#1f77b4;" x="246.949087" xlink:href="#mc7af511cb0" y="95.899317"/>
     <use style="fill:#1f77b4;stroke:#1f77b4;" x="251.913727" xlink:href="#mc7af511cb0" y="92.438755"/>
     <use style="fill:#1f77b4;stroke:#1f77b4;" x="256.878368" xlink:href="#mc7af511cb0" y="89.165849"/>
     <use style="fill:#1f77b4;stroke:#1f77b4;" x="261.843008" xlink:href="#mc7af511cb0" y="85.852964"/>
     <use style="fill:#1f77b4;stroke:#1f77b4;" x="266.807648" xlink:href="#mc7af511cb0" y="81.728312"/>
     <use style="fill:#1f77b4;stroke:#1f77b4;" x="271.772288" xlink:href="#mc7af511cb0" y="78.23093"/>
     <use style="fill:#1f77b4;stroke:#1f77b4;" x="276.736928" xlink:href="#mc7af511cb0" y="75.008029"/>
     <use style="fill:#1f77b4;stroke:#1f77b4;" x="281.701568" xlink:href="#mc7af511cb0" y="72.580825"/>
     <use style="fill:#1f77b4;stroke:#1f77b4;" x="286.666208" xlink:href="#mc7af511cb0" y="69.154408"/>
     <use style="fill:#1f77b4;stroke:#1f77b4;" x="291.630848" xlink:href="#mc7af511cb0" y="67.164871"/>
     <use style="fill:#1f77b4;stroke:#1f77b4;" x="296.595488" xlink:href="#mc7af511cb0" y="65.395766"/>
     <use style="fill:#1f77b4;stroke:#1f77b4;" x="301.560128" xlink:href="#mc7af511cb0" y="62.932068"/>
     <use style="fill:#1f77b4;stroke:#1f77b4;" x="306.524768" xlink:href="#mc7af511cb0" y="61.136"/>
     <use style="fill:#1f77b4;stroke:#1f77b4;" x="311.489408" xlink:href="#mc7af511cb0" y="57.880533"/>
     <use style="fill:#1f77b4;stroke:#1f77b4;" x="316.454048" xlink:href="#mc7af511cb0" y="56.098491"/>
     <use style="fill:#1f77b4;stroke:#1f77b4;" x="321.418688" xlink:href="#mc7af511cb0" y="54.41383"/>
     <use style="fill:#1f77b4;stroke:#1f77b4;" x="326.383328" xlink:href="#mc7af511cb0" y="53.107774"/>
     <use style="fill:#1f77b4;stroke:#1f77b4;" x="331.347968" xlink:href="#mc7af511cb0" y="51.610947"/>
     <use style="fill:#1f77b4;stroke:#1f77b4;" x="336.312609" xlink:href="#mc7af511cb0" y="50.366405"/>
     <use style="fill:#1f77b4;stroke:#1f77b4;" x="341.277249" xlink:href="#mc7af511cb0" y="49.175197"/>
     <use style="fill:#1f77b4;stroke:#1f77b4;" x="346.241889" xlink:href="#mc7af511cb0" y="47.800231"/>
    </g>
   </g>
   <g id="line2d_45">
    <path clip-path="url(#p63769cf000)" d="M 53.328125 117.603666 
L 388.128125 117.603666 
" style="fill:none;stroke:#1f77b4;stroke-dasharray:7.4,3.2;stroke-dashoffset:0;stroke-opacity:0.7;stroke-width:2;"/>
   </g>
   <g id="line2d_46">
    <path clip-path="url(#p63769cf000)" d="M 53.328125 77.517168 
L 388.128125 77.517168 
" style="fill:none;stroke:#ff7f0e;stroke-dasharray:7.4,3.2;stroke-dashoffset:0;stroke-opacity:0.7;stroke-width:2;"/>
   </g>
   <g id="line2d_47">
    <path clip-path="url(#p63769cf000)" d="M 53.328125 96.151435 
L 388.128125 96.151435 
" style="fill:none;stroke:#2ca02c;stroke-dasharray:12.8,3.2,2,3.2;stroke-dashoffset:0;stroke-opacity:0.7;stroke-width:2;"/>
   </g>
   <g id="line2d_48">
    <path clip-path="url(#p63769cf000)" d="M 88.080605 271.059416 
L 88.080605 22.318125 
" style="fill:none;stroke:#2ca02c;stroke-linecap:square;stroke-opacity:0.3;stroke-width:4;"/>
   </g>
   <g id="line2d_49">
    <path clip-path="url(#p63769cf000)" d="M 167.514846 271.059416 
L 167.514846 22.318125 
" style="fill:none;stroke:#ff7f0e;stroke-linecap:square;stroke-opacity:0.3;stroke-width:4;"/>
   </g>
   <g id="line2d_50">
    <path clip-path="url(#p63769cf000)" d="M 197.302687 271.059416 
L 197.302687 22.318125 
" style="fill:none;stroke:#1f77b4;stroke-linecap:square;stroke-opacity:0.3;stroke-width:4;"/>
   </g>
   <g id="patch_3">
    <path d="M 53.328125 239.758125 
L 53.328125 22.318125 
" style="fill:none;stroke:#000000;stroke-linecap:square;stroke-linejoin:miter;stroke-width:0.8;"/>
   </g>
   <g id="patch_4">
    <path d="M 388.128125 239.758125 
L 388.128125 22.318125 
" style="fill:none;stroke:#000000;stroke-linecap:square;stroke-linejoin:miter;stroke-width:0.8;"/>
   </g>
   <g id="patch_5">
    <path d="M 53.328125 239.758125 
L 388.128125 239.758125 
" style="fill:none;stroke:#000000;stroke-linecap:square;stroke-linejoin:miter;stroke-width:0.8;"/>
   </g>
   <g id="patch_6">
    <path d="M 53.328125 22.318125 
L 388.128125 22.318125 
" style="fill:none;stroke:#000000;stroke-linecap:square;stroke-linejoin:miter;stroke-width:0.8;"/>
   </g>
   <g id="text_21">
    <!--  Scott Sievert -->
    <defs>
     <path d="M 50 72.515625 
Q 57.421875 72.515625 63.84375 69.828125 
Q 70.265625 67.140625 75.59375 61.8125 
Q 80.90625 56.5 83.546875 50.09375 
Q 86.1875 43.703125 86.1875 36.1875 
Q 86.1875 28.765625 83.546875 22.390625 
Q 80.90625 16.015625 75.59375 10.6875 
Q 70.265625 5.375 63.84375 2.6875 
Q 57.421875 0 50 0 
Q 42.578125 0 36.15625 2.6875 
Q 29.734375 5.375 24.421875 10.6875 
Q 19.09375 16.015625 16.453125 22.390625 
Q 13.8125 28.765625 13.8125 36.1875 
Q 13.8125 43.703125 16.453125 50.09375 
Q 19.09375 56.5 24.421875 61.8125 
Q 29.734375 67.140625 36.15625 69.828125 
Q 42.578125 72.515625 50 72.515625 
z
M 50 67.484375 
Q 43.609375 67.484375 38.078125 65.1875 
Q 32.5625 62.890625 27.984375 58.296875 
Q 23.390625 53.71875 21.046875 48.125 
Q 18.703125 42.53125 18.703125 36.1875 
Q 18.703125 29.890625 21.046875 24.34375 
Q 23.390625 18.796875 27.984375 14.203125 
Q 32.5625 9.625 38.078125 7.296875 
Q 43.609375 4.984375 50 4.984375 
Q 56.453125 4.984375 61.984375 7.296875 
Q 67.53125 9.625 72.125 14.203125 
Q 76.65625 18.75 78.921875 24.265625 
Q 81.203125 29.78125 81.203125 36.1875 
Q 81.203125 42.671875 78.90625 48.21875 
Q 76.609375 53.765625 72.125 58.296875 
Q 67.53125 62.890625 61.984375 65.1875 
Q 56.453125 67.484375 50 67.484375 
z
M 64.59375 55.515625 
L 64.59375 49.21875 
Q 61.375 50.828125 58.203125 51.609375 
Q 55.03125 52.390625 51.8125 52.390625 
Q 44.53125 52.390625 40.453125 48.109375 
Q 36.375 43.84375 36.375 36.1875 
Q 36.375 28.421875 40.546875 24.171875 
Q 44.734375 19.921875 52.296875 19.921875 
Q 55.421875 19.921875 58.390625 20.671875 
Q 61.375 21.4375 64.59375 23.09375 
L 64.59375 16.890625 
Q 61.328125 15.484375 57.984375 14.796875 
Q 54.640625 14.109375 51.21875 14.109375 
Q 40.671875 14.109375 34.546875 20.0625 
Q 28.421875 26.03125 28.421875 36.1875 
Q 28.421875 46.390625 34.546875 52.296875 
Q 40.671875 58.203125 51.21875 58.203125 
Q 54.78125 58.203125 58.09375 57.515625 
Q 61.421875 56.84375 64.59375 55.515625 
z
" id="DejaVuSans-169"/>
     <path d="M 53.515625 70.515625 
L 53.515625 60.890625 
Q 47.90625 63.578125 42.921875 64.890625 
Q 37.9375 66.21875 33.296875 66.21875 
Q 25.25 66.21875 20.875 63.09375 
Q 16.5 59.96875 16.5 54.203125 
Q 16.5 49.359375 19.40625 46.890625 
Q 22.3125 44.4375 30.421875 42.921875 
L 36.375 41.703125 
Q 47.40625 39.59375 52.65625 34.296875 
Q 57.90625 29 57.90625 20.125 
Q 57.90625 9.515625 50.796875 4.046875 
Q 43.703125 -1.421875 29.984375 -1.421875 
Q 24.8125 -1.421875 18.96875 -0.25 
Q 13.140625 0.921875 6.890625 3.21875 
L 6.890625 13.375 
Q 12.890625 10.015625 18.65625 8.296875 
Q 24.421875 6.59375 29.984375 6.59375 
Q 38.421875 6.59375 43.015625 9.90625 
Q 47.609375 13.234375 47.609375 19.390625 
Q 47.609375 24.75 44.3125 27.78125 
Q 41.015625 30.8125 33.5 32.328125 
L 27.484375 33.5 
Q 16.453125 35.6875 11.515625 40.375 
Q 6.59375 45.0625 6.59375 53.421875 
Q 6.59375 63.09375 13.40625 68.65625 
Q 20.21875 74.21875 32.171875 74.21875 
Q 37.3125 74.21875 42.625 73.28125 
Q 47.953125 72.359375 53.515625 70.515625 
z
" id="DejaVuSans-83"/>
     <path d="M 48.78125 52.59375 
L 48.78125 44.1875 
Q 44.96875 46.296875 41.140625 47.34375 
Q 37.3125 48.390625 33.40625 48.390625 
Q 24.65625 48.390625 19.8125 42.84375 
Q 14.984375 37.3125 14.984375 27.296875 
Q 14.984375 17.28125 19.8125 11.734375 
Q 24.65625 6.203125 33.40625 6.203125 
Q 37.3125 6.203125 41.140625 7.25 
Q 44.96875 8.296875 48.78125 10.40625 
L 48.78125 2.09375 
Q 45.015625 0.34375 40.984375 -0.53125 
Q 36.96875 -1.421875 32.421875 -1.421875 
Q 20.0625 -1.421875 12.78125 6.34375 
Q 5.515625 14.109375 5.515625 27.296875 
Q 5.515625 40.671875 12.859375 48.328125 
Q 20.21875 56 33.015625 56 
Q 37.15625 56 41.109375 55.140625 
Q 45.0625 54.296875 48.78125 52.59375 
z
" id="DejaVuSans-99"/>
     <path d="M 18.3125 70.21875 
L 18.3125 54.6875 
L 36.8125 54.6875 
L 36.8125 47.703125 
L 18.3125 47.703125 
L 18.3125 18.015625 
Q 18.3125 11.328125 20.140625 9.421875 
Q 21.96875 7.515625 27.59375 7.515625 
L 36.8125 7.515625 
L 36.8125 0 
L 27.59375 0 
Q 17.1875 0 13.234375 3.875 
Q 9.28125 7.765625 9.28125 18.015625 
L 9.28125 47.703125 
L 2.6875 47.703125 
L 2.6875 54.6875 
L 9.28125 54.6875 
L 9.28125 70.21875 
z
" id="DejaVuSans-116"/>
     <path d="M 2.984375 54.6875 
L 12.5 54.6875 
L 29.59375 8.796875 
L 46.6875 54.6875 
L 56.203125 54.6875 
L 35.6875 0 
L 23.484375 0 
z
" id="DejaVuSans-118"/>
    </defs>
    <g style="fill:#aaaaaa;" transform="translate(293.799964 335.662856)scale(0.1 -0.1)">
     <use xlink:href="#DejaVuSans-169"/>
     <use x="100" xlink:href="#DejaVuSans-32"/>
     <use x="131.787109" xlink:href="#DejaVuSans-83"/>
     <use x="195.263672" xlink:href="#DejaVuSans-99"/>
     <use x="250.244141" xlink:href="#DejaVuSans-111"/>
     <use x="311.425781" xlink:href="#DejaVuSans-116"/>
     <use x="350.634766" xlink:href="#DejaVuSans-116"/>
     <use x="389.84375" xlink:href="#DejaVuSans-32"/>
     <use x="421.630859" xlink:href="#DejaVuSans-83"/>
     <use x="485.107422" xlink:href="#DejaVuSans-105"/>
     <use x="512.890625" xlink:href="#DejaVuSans-101"/>
     <use x="574.414062" xlink:href="#DejaVuSans-118"/>
     <use x="633.59375" xlink:href="#DejaVuSans-101"/>
     <use x="695.117188" xlink:href="#DejaVuSans-114"/>
     <use x="736.230469" xlink:href="#DejaVuSans-116"/>
    </g>
   </g>
   <g id="text_22">
    <!-- Cases per country -->
    <defs>
     <path d="M 8.5 21.578125 
L 8.5 54.6875 
L 17.484375 54.6875 
L 17.484375 21.921875 
Q 17.484375 14.15625 20.5 10.265625 
Q 23.53125 6.390625 29.59375 6.390625 
Q 36.859375 6.390625 41.078125 11.03125 
Q 45.3125 15.671875 45.3125 23.6875 
L 45.3125 54.6875 
L 54.296875 54.6875 
L 54.296875 0 
L 45.3125 0 
L 45.3125 8.40625 
Q 42.046875 3.421875 37.71875 1 
Q 33.40625 -1.421875 27.6875 -1.421875 
Q 18.265625 -1.421875 13.375 4.4375 
Q 8.5 10.296875 8.5 21.578125 
z
M 31.109375 56 
z
" id="DejaVuSans-117"/>
     <path d="M 32.171875 -5.078125 
Q 28.375 -14.84375 24.75 -17.8125 
Q 21.140625 -20.796875 15.09375 -20.796875 
L 7.90625 -20.796875 
L 7.90625 -13.28125 
L 13.1875 -13.28125 
Q 16.890625 -13.28125 18.9375 -11.515625 
Q 21 -9.765625 23.484375 -3.21875 
L 25.09375 0.875 
L 2.984375 54.6875 
L 12.5 54.6875 
L 29.59375 11.921875 
L 46.6875 54.6875 
L 56.203125 54.6875 
z
" id="DejaVuSans-121"/>
    </defs>
    <g transform="translate(166.191875 16.318125)scale(0.12 -0.12)">
     <use xlink:href="#DejaVuSans-67"/>
     <use x="69.824219" xlink:href="#DejaVuSans-97"/>
     <use x="131.103516" xlink:href="#DejaVuSans-115"/>
     <use x="183.203125" xlink:href="#DejaVuSans-101"/>
     <use x="244.726562" xlink:href="#DejaVuSans-115"/>
     <use x="296.826172" xlink:href="#DejaVuSans-32"/>
     <use x="328.613281" xlink:href="#DejaVuSans-112"/>
     <use x="392.089844" xlink:href="#DejaVuSans-101"/>
     <use x="453.613281" xlink:href="#DejaVuSans-114"/>
     <use x="494.726562" xlink:href="#DejaVuSans-32"/>
     <use x="526.513672" xlink:href="#DejaVuSans-99"/>
     <use x="581.494141" xlink:href="#DejaVuSans-111"/>
     <use x="642.675781" xlink:href="#DejaVuSans-117"/>
     <use x="706.054688" xlink:href="#DejaVuSans-110"/>
     <use x="769.433594" xlink:href="#DejaVuSans-116"/>
     <use x="808.642578" xlink:href="#DejaVuSans-114"/>
     <use x="849.755859" xlink:href="#DejaVuSans-121"/>
    </g>
   </g>
   <g id="legend_1">
    <g id="patch_7">
     <path d="M 249.604688 234.758125 
L 381.128125 234.758125 
Q 383.128125 234.758125 383.128125 232.758125 
L 383.128125 175.02375 
Q 383.128125 173.02375 381.128125 173.02375 
L 249.604688 173.02375 
Q 247.604688 173.02375 247.604688 175.02375 
L 247.604688 232.758125 
Q 247.604688 234.758125 249.604688 234.758125 
z
" style="fill:#ffffff;opacity:0.8;stroke:#cccccc;stroke-linejoin:miter;"/>
    </g>
    <g id="text_23">
     <!-- Country (cases in 7 days) -->
     <defs>
      <path d="M 31 75.875 
Q 24.46875 64.65625 21.28125 53.65625 
Q 18.109375 42.671875 18.109375 31.390625 
Q 18.109375 20.125 21.3125 9.0625 
Q 24.515625 -2 31 -13.1875 
L 23.1875 -13.1875 
Q 15.875 -1.703125 12.234375 9.375 
Q 8.59375 20.453125 8.59375 31.390625 
Q 8.59375 42.28125 12.203125 53.3125 
Q 15.828125 64.359375 23.1875 75.875 
z
" id="DejaVuSans-40"/>
      <path d="M 8.203125 72.90625 
L 55.078125 72.90625 
L 55.078125 68.703125 
L 28.609375 0 
L 18.3125 0 
L 43.21875 64.59375 
L 8.203125 64.59375 
z
" id="DejaVuSans-55"/>
      <path d="M 45.40625 46.390625 
L 45.40625 75.984375 
L 54.390625 75.984375 
L 54.390625 0 
L 45.40625 0 
L 45.40625 8.203125 
Q 42.578125 3.328125 38.25 0.953125 
Q 33.9375 -1.421875 27.875 -1.421875 
Q 17.96875 -1.421875 11.734375 6.484375 
Q 5.515625 14.40625 5.515625 27.296875 
Q 5.515625 40.1875 11.734375 48.09375 
Q 17.96875 56 27.875 56 
Q 33.9375 56 38.25 53.625 
Q 42.578125 51.265625 45.40625 46.390625 
z
M 14.796875 27.296875 
Q 14.796875 17.390625 18.875 11.75 
Q 22.953125 6.109375 30.078125 6.109375 
Q 37.203125 6.109375 41.296875 11.75 
Q 45.40625 17.390625 45.40625 27.296875 
Q 45.40625 37.203125 41.296875 42.84375 
Q 37.203125 48.484375 30.078125 48.484375 
Q 22.953125 48.484375 18.875 42.84375 
Q 14.796875 37.203125 14.796875 27.296875 
z
" id="DejaVuSans-100"/>
      <path d="M 8.015625 75.875 
L 15.828125 75.875 
Q 23.140625 64.359375 26.78125 53.3125 
Q 30.421875 42.28125 30.421875 31.390625 
Q 30.421875 20.453125 26.78125 9.375 
Q 23.140625 -1.703125 15.828125 -13.1875 
L 8.015625 -13.1875 
Q 14.5 -2 17.703125 9.0625 
Q 20.90625 20.125 20.90625 31.390625 
Q 20.90625 42.671875 17.703125 53.65625 
Q 14.5 64.65625 8.015625 75.875 
z
" id="DejaVuSans-41"/>
     </defs>
     <g transform="translate(251.604688 184.622187)scale(0.1 -0.1)">
      <use xlink:href="#DejaVuSans-67"/>
      <use x="69.824219" xlink:href="#DejaVuSans-111"/>
      <use x="131.005859" xlink:href="#DejaVuSans-117"/>
      <use x="194.384766" xlink:href="#DejaVuSans-110"/>
      <use x="257.763672" xlink:href="#DejaVuSans-116"/>
      <use x="296.972656" xlink:href="#DejaVuSans-114"/>
      <use x="338.085938" xlink:href="#DejaVuSans-121"/>
      <use x="397.265625" xlink:href="#DejaVuSans-32"/>
      <use x="429.052734" xlink:href="#DejaVuSans-40"/>
      <use x="468.066406" xlink:href="#DejaVuSans-99"/>
      <use x="523.046875" xlink:href="#DejaVuSans-97"/>
      <use x="584.326172" xlink:href="#DejaVuSans-115"/>
      <use x="636.425781" xlink:href="#DejaVuSans-101"/>
      <use x="697.949219" xlink:href="#DejaVuSans-115"/>
      <use x="750.048828" xlink:href="#DejaVuSans-32"/>
      <use x="781.835938" xlink:href="#DejaVuSans-105"/>
      <use x="809.619141" xlink:href="#DejaVuSans-110"/>
      <use x="872.998047" xlink:href="#DejaVuSans-32"/>
      <use x="904.785156" xlink:href="#DejaVuSans-55"/>
      <use x="968.408203" xlink:href="#DejaVuSans-32"/>
      <use x="1000.195312" xlink:href="#DejaVuSans-100"/>
      <use x="1063.671875" xlink:href="#DejaVuSans-97"/>
      <use x="1124.951172" xlink:href="#DejaVuSans-121"/>
      <use x="1184.130859" xlink:href="#DejaVuSans-115"/>
      <use x="1236.230469" xlink:href="#DejaVuSans-41"/>
     </g>
    </g>
    <g id="line2d_51">
     <path d="M 272.866406 195.800312 
L 292.866406 195.800312 
" style="fill:none;stroke:#ff7f0e;stroke-linecap:square;stroke-width:1.5;"/>
    </g>
    <g id="line2d_52">
     <g>
      <use style="fill:#ff7f0e;stroke:#ff7f0e;" x="282.866406" xlink:href="#mbda8b9208d" y="195.800312"/>
     </g>
    </g>
    <g id="text_24">
     <!-- US (1.4$\times$) -->
     <defs>
      <path d="M 8.6875 72.90625 
L 18.609375 72.90625 
L 18.609375 28.609375 
Q 18.609375 16.890625 22.84375 11.734375 
Q 27.09375 6.59375 36.625 6.59375 
Q 46.09375 6.59375 50.34375 11.734375 
Q 54.59375 16.890625 54.59375 28.609375 
L 54.59375 72.90625 
L 64.5 72.90625 
L 64.5 27.390625 
Q 64.5 13.140625 57.4375 5.859375 
Q 50.390625 -1.421875 36.625 -1.421875 
Q 22.796875 -1.421875 15.734375 5.859375 
Q 8.6875 13.140625 8.6875 27.390625 
z
" id="DejaVuSans-85"/>
      <path d="M 37.796875 64.3125 
L 12.890625 25.390625 
L 37.796875 25.390625 
z
M 35.203125 72.90625 
L 47.609375 72.90625 
L 47.609375 25.390625 
L 58.015625 25.390625 
L 58.015625 17.1875 
L 47.609375 17.1875 
L 47.609375 0 
L 37.796875 0 
L 37.796875 17.1875 
L 4.890625 17.1875 
L 4.890625 26.703125 
z
" id="DejaVuSans-52"/>
      <path d="M 70.125 53.71875 
L 47.796875 31.296875 
L 70.125 8.984375 
L 64.3125 3.078125 
L 41.890625 25.484375 
L 19.484375 3.078125 
L 13.71875 8.984375 
L 35.984375 31.296875 
L 13.71875 53.71875 
L 19.484375 59.625 
L 41.890625 37.203125 
L 64.3125 59.625 
z
" id="DejaVuSans-215"/>
     </defs>
     <g transform="translate(300.866406 199.300312)scale(0.1 -0.1)">
      <use transform="translate(0 0.125)" xlink:href="#DejaVuSans-85"/>
      <use transform="translate(73.193359 0.125)" xlink:href="#DejaVuSans-83"/>
      <use transform="translate(136.669922 0.125)" xlink:href="#DejaVuSans-32"/>
      <use transform="translate(168.457031 0.125)" xlink:href="#DejaVuSans-40"/>
      <use transform="translate(207.470703 0.125)" xlink:href="#DejaVuSans-49"/>
      <use transform="translate(271.09375 0.125)" xlink:href="#DejaVuSans-46"/>
      <use transform="translate(302.880859 0.125)" xlink:href="#DejaVuSans-52"/>
      <use transform="translate(366.503906 0.125)" xlink:href="#DejaVuSans-215"/>
      <use transform="translate(450.292969 0.125)" xlink:href="#DejaVuSans-41"/>
     </g>
    </g>
    <g id="line2d_53">
     <path d="M 272.866406 210.48 
L 292.866406 210.48 
" style="fill:none;stroke:#2ca02c;stroke-linecap:square;stroke-width:1.5;"/>
    </g>
    <g id="line2d_54">
     <g>
      <use style="fill:#2ca02c;stroke:#2ca02c;" x="282.866406" xlink:href="#meed1b0d33c" y="210.48"/>
     </g>
    </g>
    <g id="text_25">
     <!-- Italy (1.2$\times$) -->
     <defs>
      <path d="M 9.8125 72.90625 
L 19.671875 72.90625 
L 19.671875 0 
L 9.8125 0 
z
" id="DejaVuSans-73"/>
     </defs>
     <g transform="translate(300.866406 213.98)scale(0.1 -0.1)">
      <use transform="translate(0 0.015625)" xlink:href="#DejaVuSans-73"/>
      <use transform="translate(29.492188 0.015625)" xlink:href="#DejaVuSans-116"/>
      <use transform="translate(68.701172 0.015625)" xlink:href="#DejaVuSans-97"/>
      <use transform="translate(129.980469 0.015625)" xlink:href="#DejaVuSans-108"/>
      <use transform="translate(157.763672 0.015625)" xlink:href="#DejaVuSans-121"/>
      <use transform="translate(216.943359 0.015625)" xlink:href="#DejaVuSans-32"/>
      <use transform="translate(248.730469 0.015625)" xlink:href="#DejaVuSans-40"/>
      <use transform="translate(287.744141 0.015625)" xlink:href="#DejaVuSans-49"/>
      <use transform="translate(351.367188 0.015625)" xlink:href="#DejaVuSans-46"/>
      <use transform="translate(383.076172 0.015625)" xlink:href="#DejaVuSans-50"/>
      <use transform="translate(446.699219 0.015625)" xlink:href="#DejaVuSans-215"/>
      <use transform="translate(530.488281 0.015625)" xlink:href="#DejaVuSans-41"/>
     </g>
    </g>
    <g id="line2d_55">
     <path d="M 272.866406 225.178438 
L 292.866406 225.178438 
" style="fill:none;stroke:#1f77b4;stroke-linecap:square;stroke-width:1.5;"/>
    </g>
    <g id="line2d_56">
     <g>
      <use style="fill:#1f77b4;stroke:#1f77b4;" x="282.866406" xlink:href="#mc7af511cb0" y="225.178438"/>
     </g>
    </g>
    <g id="text_26">
     <!-- UK (1.5$\times$) -->
     <defs>
      <path d="M 9.8125 72.90625 
L 19.671875 72.90625 
L 19.671875 42.09375 
L 52.390625 72.90625 
L 65.09375 72.90625 
L 28.90625 38.921875 
L 67.671875 0 
L 54.6875 0 
L 19.671875 35.109375 
L 19.671875 0 
L 9.8125 0 
z
" id="DejaVuSans-75"/>
     </defs>
     <g transform="translate(300.866406 228.678438)scale(0.1 -0.1)">
      <use transform="translate(0 0.125)" xlink:href="#DejaVuSans-85"/>
      <use transform="translate(73.177734 0.125)" xlink:href="#DejaVuSans-75"/>
      <use transform="translate(138.753906 0.125)" xlink:href="#DejaVuSans-32"/>
      <use transform="translate(170.541016 0.125)" xlink:href="#DejaVuSans-40"/>
      <use transform="translate(209.554688 0.125)" xlink:href="#DejaVuSans-49"/>
      <use transform="translate(273.177734 0.125)" xlink:href="#DejaVuSans-46"/>
      <use transform="translate(304.964844 0.125)" xlink:href="#DejaVuSans-53"/>
      <use transform="translate(368.587891 0.125)" xlink:href="#DejaVuSans-215"/>
      <use transform="translate(452.376953 0.125)" xlink:href="#DejaVuSans-41"/>
     </g>
    </g>
   </g>
   <g id="legend_2">
    <g id="patch_8">
     <path d="M 62.024125 326.734125 
L 364.524125 326.734125 
Q 366.524125 326.734125 366.524125 324.734125 
L 366.524125 273.960375 
Q 366.524125 271.960375 364.524125 271.960375 
L 62.024125 271.960375 
Q 60.024125 271.960375 60.024125 273.960375 
L 60.024125 324.734125 
Q 60.024125 326.734125 62.024125 326.734125 
z
" style="fill:#ffffff;opacity:0.8;stroke:#cccccc;stroke-linejoin:miter;"/>
    </g>
    <g id="line2d_57">
     <path d="M 64.024125 286.7085 
L 84.024125 286.7085 
" style="fill:none;stroke:#ff7f0e;stroke-linecap:square;stroke-opacity:0.7;stroke-width:1.5;"/>
    </g>
    <g id="line2d_58"/>
    <g id="text_27">
     <!-- 2$\times$ every 2.4 days -->
     <g transform="translate(92.024125 283.560375)scale(0.1 -0.1)">
      <use transform="translate(0 0.015625)" xlink:href="#DejaVuSans-50"/>
      <use transform="translate(63.623047 0.015625)" xlink:href="#DejaVuSans-215"/>
      <use transform="translate(147.412109 0.015625)" xlink:href="#DejaVuSans-32"/>
      <use transform="translate(179.199219 0.015625)" xlink:href="#DejaVuSans-101"/>
      <use transform="translate(240.722656 0.015625)" xlink:href="#DejaVuSans-118"/>
      <use transform="translate(299.902344 0.015625)" xlink:href="#DejaVuSans-101"/>
      <use transform="translate(361.425781 0.015625)" xlink:href="#DejaVuSans-114"/>
      <use transform="translate(402.539062 0.015625)" xlink:href="#DejaVuSans-121"/>
      <use transform="translate(461.71875 0.015625)" xlink:href="#DejaVuSans-32"/>
      <use transform="translate(493.505859 0.015625)" xlink:href="#DejaVuSans-50"/>
      <use transform="translate(557.128906 0.015625)" xlink:href="#DejaVuSans-46"/>
      <use transform="translate(588.916016 0.015625)" xlink:href="#DejaVuSans-52"/>
      <use transform="translate(652.539062 0.015625)" xlink:href="#DejaVuSans-32"/>
      <use transform="translate(684.326172 0.015625)" xlink:href="#DejaVuSans-100"/>
      <use transform="translate(747.802734 0.015625)" xlink:href="#DejaVuSans-97"/>
      <use transform="translate(809.082031 0.015625)" xlink:href="#DejaVuSans-121"/>
      <use transform="translate(868.261719 0.015625)" xlink:href="#DejaVuSans-115"/>
     </g>
     <!-- (all solid lines) -->
     <g transform="translate(92.024125 294.7785)scale(0.1 -0.1)">
      <use xlink:href="#DejaVuSans-40"/>
      <use x="39.013672" xlink:href="#DejaVuSans-97"/>
      <use x="100.292969" xlink:href="#DejaVuSans-108"/>
      <use x="128.076172" xlink:href="#DejaVuSans-108"/>
      <use x="155.859375" xlink:href="#DejaVuSans-32"/>
      <use x="187.646484" xlink:href="#DejaVuSans-115"/>
      <use x="239.746094" xlink:href="#DejaVuSans-111"/>
      <use x="300.927734" xlink:href="#DejaVuSans-108"/>
      <use x="328.710938" xlink:href="#DejaVuSans-105"/>
      <use x="356.494141" xlink:href="#DejaVuSans-100"/>
      <use x="419.970703" xlink:href="#DejaVuSans-32"/>
      <use x="451.757812" xlink:href="#DejaVuSans-108"/>
      <use x="479.541016" xlink:href="#DejaVuSans-105"/>
      <use x="507.324219" xlink:href="#DejaVuSans-110"/>
      <use x="570.703125" xlink:href="#DejaVuSans-101"/>
      <use x="632.226562" xlink:href="#DejaVuSans-115"/>
      <use x="684.326172" xlink:href="#DejaVuSans-41"/>
     </g>
    </g>
    <g id="line2d_59">
     <path d="M 64.024125 312.595375 
L 84.024125 312.595375 
" style="fill:none;stroke:#ff7f0e;stroke-dasharray:7.4,3.2;stroke-dashoffset:0;stroke-opacity:0.7;stroke-width:2;"/>
    </g>
    <g id="line2d_60"/>
    <g id="text_28">
     <!-- Est. health care saturation -->
     <defs>
      <path d="M 9.8125 72.90625 
L 55.90625 72.90625 
L 55.90625 64.59375 
L 19.671875 64.59375 
L 19.671875 43.015625 
L 54.390625 43.015625 
L 54.390625 34.71875 
L 19.671875 34.71875 
L 19.671875 8.296875 
L 56.78125 8.296875 
L 56.78125 0 
L 9.8125 0 
z
" id="DejaVuSans-69"/>
      <path d="M 54.890625 33.015625 
L 54.890625 0 
L 45.90625 0 
L 45.90625 32.71875 
Q 45.90625 40.484375 42.875 44.328125 
Q 39.84375 48.1875 33.796875 48.1875 
Q 26.515625 48.1875 22.3125 43.546875 
Q 18.109375 38.921875 18.109375 30.90625 
L 18.109375 0 
L 9.078125 0 
L 9.078125 75.984375 
L 18.109375 75.984375 
L 18.109375 46.1875 
Q 21.34375 51.125 25.703125 53.5625 
Q 30.078125 56 35.796875 56 
Q 45.21875 56 50.046875 50.171875 
Q 54.890625 44.34375 54.890625 33.015625 
z
" id="DejaVuSans-104"/>
     </defs>
     <g transform="translate(92.024125 309.456625)scale(0.1 -0.1)">
      <use xlink:href="#DejaVuSans-69"/>
      <use x="63.183594" xlink:href="#DejaVuSans-115"/>
      <use x="115.283203" xlink:href="#DejaVuSans-116"/>
      <use x="154.492188" xlink:href="#DejaVuSans-46"/>
      <use x="186.279297" xlink:href="#DejaVuSans-32"/>
      <use x="218.066406" xlink:href="#DejaVuSans-104"/>
      <use x="281.445312" xlink:href="#DejaVuSans-101"/>
      <use x="342.96875" xlink:href="#DejaVuSans-97"/>
      <use x="404.248047" xlink:href="#DejaVuSans-108"/>
      <use x="432.03125" xlink:href="#DejaVuSans-116"/>
      <use x="471.240234" xlink:href="#DejaVuSans-104"/>
      <use x="534.619141" xlink:href="#DejaVuSans-32"/>
      <use x="566.40625" xlink:href="#DejaVuSans-99"/>
      <use x="621.386719" xlink:href="#DejaVuSans-97"/>
      <use x="682.666016" xlink:href="#DejaVuSans-114"/>
      <use x="723.748047" xlink:href="#DejaVuSans-101"/>
      <use x="785.271484" xlink:href="#DejaVuSans-32"/>
      <use x="817.058594" xlink:href="#DejaVuSans-115"/>
      <use x="869.158203" xlink:href="#DejaVuSans-97"/>
      <use x="930.4375" xlink:href="#DejaVuSans-116"/>
      <use x="969.646484" xlink:href="#DejaVuSans-117"/>
      <use x="1033.025391" xlink:href="#DejaVuSans-114"/>
      <use x="1074.138672" xlink:href="#DejaVuSans-97"/>
      <use x="1135.417969" xlink:href="#DejaVuSans-116"/>
      <use x="1174.626953" xlink:href="#DejaVuSans-105"/>
      <use x="1202.410156" xlink:href="#DejaVuSans-111"/>
      <use x="1263.591797" xlink:href="#DejaVuSans-110"/>
     </g>
     <!-- (all dotted lines) -->
     <g transform="translate(92.024125 320.654437)scale(0.1 -0.1)">
      <use xlink:href="#DejaVuSans-40"/>
      <use x="39.013672" xlink:href="#DejaVuSans-97"/>
      <use x="100.292969" xlink:href="#DejaVuSans-108"/>
      <use x="128.076172" xlink:href="#DejaVuSans-108"/>
      <use x="155.859375" xlink:href="#DejaVuSans-32"/>
      <use x="187.646484" xlink:href="#DejaVuSans-100"/>
      <use x="251.123047" xlink:href="#DejaVuSans-111"/>
      <use x="312.304688" xlink:href="#DejaVuSans-116"/>
      <use x="351.513672" xlink:href="#DejaVuSans-116"/>
      <use x="390.722656" xlink:href="#DejaVuSans-101"/>
      <use x="452.246094" xlink:href="#DejaVuSans-100"/>
      <use x="515.722656" xlink:href="#DejaVuSans-32"/>
      <use x="547.509766" xlink:href="#DejaVuSans-108"/>
      <use x="575.292969" xlink:href="#DejaVuSans-105"/>
      <use x="603.076172" xlink:href="#DejaVuSans-110"/>
      <use x="666.455078" xlink:href="#DejaVuSans-101"/>
      <use x="727.978516" xlink:href="#DejaVuSans-115"/>
      <use x="780.078125" xlink:href="#DejaVuSans-41"/>
     </g>
    </g>
    <g id="line2d_61">
     <path d="M 244.716313 286.7085 
L 264.716313 286.7085 
" style="fill:none;stroke:#2ca02c;stroke-dasharray:12.8,3.2,2,3.2;stroke-dashoffset:0;stroke-opacity:0.7;stroke-width:2;"/>
    </g>
    <g id="line2d_62"/>
    <g id="text_29">
     <!-- Actual health -->
     <g transform="translate(272.716313 283.56975)scale(0.1 -0.1)">
      <use xlink:href="#DejaVuSans-65"/>
      <use x="68.392578" xlink:href="#DejaVuSans-99"/>
      <use x="123.373047" xlink:href="#DejaVuSans-116"/>
      <use x="162.582031" xlink:href="#DejaVuSans-117"/>
      <use x="225.960938" xlink:href="#DejaVuSans-97"/>
      <use x="287.240234" xlink:href="#DejaVuSans-108"/>
      <use x="315.023438" xlink:href="#DejaVuSans-32"/>
      <use x="346.810547" xlink:href="#DejaVuSans-104"/>
      <use x="410.189453" xlink:href="#DejaVuSans-101"/>
      <use x="471.712891" xlink:href="#DejaVuSans-97"/>
      <use x="532.992188" xlink:href="#DejaVuSans-108"/>
      <use x="560.775391" xlink:href="#DejaVuSans-116"/>
      <use x="599.984375" xlink:href="#DejaVuSans-104"/>
     </g>
     <!-- care saturation -->
     <g transform="translate(272.716313 294.767562)scale(0.1 -0.1)">
      <use xlink:href="#DejaVuSans-99"/>
      <use x="54.980469" xlink:href="#DejaVuSans-97"/>
      <use x="116.259766" xlink:href="#DejaVuSans-114"/>
      <use x="157.341797" xlink:href="#DejaVuSans-101"/>
      <use x="218.865234" xlink:href="#DejaVuSans-32"/>
      <use x="250.652344" xlink:href="#DejaVuSans-115"/>
      <use x="302.751953" xlink:href="#DejaVuSans-97"/>
      <use x="364.03125" xlink:href="#DejaVuSans-116"/>
      <use x="403.240234" xlink:href="#DejaVuSans-117"/>
      <use x="466.619141" xlink:href="#DejaVuSans-114"/>
      <use x="507.732422" xlink:href="#DejaVuSans-97"/>
      <use x="569.011719" xlink:href="#DejaVuSans-116"/>
      <use x="608.220703" xlink:href="#DejaVuSans-105"/>
      <use x="636.003906" xlink:href="#DejaVuSans-111"/>
      <use x="697.185547" xlink:href="#DejaVuSans-110"/>
     </g>
    </g>
    <g id="line2d_63">
     <path d="M 244.716313 312.584437 
L 264.716313 312.584437 
" style="fill:none;stroke:#ff7f0e;stroke-linecap:square;stroke-opacity:0.3;stroke-width:4;"/>
    </g>
    <g id="line2d_64"/>
    <g id="text_30">
     <!-- Started social -->
     <g transform="translate(272.716313 309.445687)scale(0.1 -0.1)">
      <use xlink:href="#DejaVuSans-83"/>
      <use x="63.476562" xlink:href="#DejaVuSans-116"/>
      <use x="102.685547" xlink:href="#DejaVuSans-97"/>
      <use x="163.964844" xlink:href="#DejaVuSans-114"/>
      <use x="205.078125" xlink:href="#DejaVuSans-116"/>
      <use x="244.287109" xlink:href="#DejaVuSans-101"/>
      <use x="305.810547" xlink:href="#DejaVuSans-100"/>
      <use x="369.287109" xlink:href="#DejaVuSans-32"/>
      <use x="401.074219" xlink:href="#DejaVuSans-115"/>
      <use x="453.173828" xlink:href="#DejaVuSans-111"/>
      <use x="514.355469" xlink:href="#DejaVuSans-99"/>
      <use x="569.335938" xlink:href="#DejaVuSans-105"/>
      <use x="597.119141" xlink:href="#DejaVuSans-97"/>
      <use x="658.398438" xlink:href="#DejaVuSans-108"/>
     </g>
     <!-- isolation (all bars) -->
     <g transform="translate(272.716313 320.6435)scale(0.1 -0.1)">
      <use xlink:href="#DejaVuSans-105"/>
      <use x="27.783203" xlink:href="#DejaVuSans-115"/>
      <use x="79.882812" xlink:href="#DejaVuSans-111"/>
      <use x="141.064453" xlink:href="#DejaVuSans-108"/>
      <use x="168.847656" xlink:href="#DejaVuSans-97"/>
      <use x="230.126953" xlink:href="#DejaVuSans-116"/>
      <use x="269.335938" xlink:href="#DejaVuSans-105"/>
      <use x="297.119141" xlink:href="#DejaVuSans-111"/>
      <use x="358.300781" xlink:href="#DejaVuSans-110"/>
      <use x="421.679688" xlink:href="#DejaVuSans-32"/>
      <use x="453.466797" xlink:href="#DejaVuSans-40"/>
      <use x="492.480469" xlink:href="#DejaVuSans-97"/>
      <use x="553.759766" xlink:href="#DejaVuSans-108"/>
      <use x="581.542969" xlink:href="#DejaVuSans-108"/>
      <use x="609.326172" xlink:href="#DejaVuSans-32"/>
      <use x="641.113281" xlink:href="#DejaVuSans-98"/>
      <use x="704.589844" xlink:href="#DejaVuSans-97"/>
      <use x="765.869141" xlink:href="#DejaVuSans-114"/>
      <use x="806.982422" xlink:href="#DejaVuSans-115"/>
      <use x="859.082031" xlink:href="#DejaVuSans-41"/>
     </g>
    </g>
   </g>
  </g>
 </g>
 <defs>
  <clipPath id="p63769cf000">
   <rect height="217.44" width="334.8" x="53.328125" y="22.318125"/>
  </clipPath>
 </defs>
</svg>
