<?xml version="1.0" encoding="utf-8" standalone="no"?>
<!DOCTYPE svg PUBLIC "-//W3C//DTD SVG 1.1//EN"
  "http://www.w3.org/Graphics/SVG/1.1/DTD/svg11.dtd">
<!-- Created with matplotlib (https://matplotlib.org/) -->
<svg height="342.239579pt" version="1.1" viewBox="0 0 400.060628 342.239579" width="400.060628pt" xmlns="http://www.w3.org/2000/svg" xmlns:xlink="http://www.w3.org/1999/xlink">
 <defs>
  <style type="text/css">
*{stroke-linecap:butt;stroke-linejoin:round;}
  </style>
 </defs>
 <g id="figure_1">
  <g id="patch_1">
   <path d="M 0 342.239579 
L 400.060628 342.239579 
L 400.060628 0 
L 0 0 
z
" style="fill:#ffffff;"/>
  </g>
  <g id="axes_1">
   <g id="patch_2">
    <path d="M 53.328125 239.758125 
L 388.128125 239.758125 
L 388.128125 22.318125 
L 53.328125 22.318125 
z
" style="fill:#ffffff;"/>
   </g>
   <g id="line2d_1">
    <path clip-path="url(#p59ee51f4b4)" d="M 73.38065 343.239579 
L 75.732066 340.01686 
L 81.333052 332.340464 
L 86.934037 324.664069 
L 92.535022 316.987673 
L 98.136007 309.311277 
L 103.736993 301.634882 
L 109.337978 293.958486 
L 114.938963 286.28209 
L 120.539949 278.605695 
L 126.140934 270.929299 
L 131.741919 263.252903 
L 137.342905 255.576508 
L 142.94389 247.900112 
L 148.544875 240.223717 
L 154.145861 232.547321 
L 159.746846 224.870925 
L 165.347831 217.19453 
L 170.948816 209.518134 
L 176.549802 201.841738 
L 182.150787 194.165343 
L 187.751772 186.488947 
L 193.352758 178.812551 
L 198.953743 171.136156 
L 204.554728 163.45976 
L 210.155714 155.783365 
L 215.756699 148.106969 
L 221.357684 140.430573 
L 226.95867 132.754178 
L 232.559655 125.077782 
L 238.16064 117.401386 
L 243.761626 109.724991 
L 249.362611 102.048595 
L 254.963596 94.372199 
L 260.564581 86.695804 
L 266.165567 79.019408 
L 271.766552 71.343013 
L 277.367537 63.666617 
L 282.968523 55.990221 
L 288.569508 48.313826 
L 294.170493 40.63743 
L 299.771479 32.961034 
L 305.372464 25.284639 
L 310.973449 17.608243 
" style="fill:none;stroke:#ff7f0e;stroke-linecap:square;stroke-opacity:0.7;stroke-width:1.5;"/>
   </g>
   <g id="line2d_2">
    <path clip-path="url(#p59ee51f4b4)" d="M 65.125085 343.239579 
L 70.131081 336.378643 
L 75.732066 328.702247 
L 81.333052 321.025852 
L 86.934037 313.349456 
L 92.535022 305.67306 
L 98.136007 297.996665 
L 103.736993 290.320269 
L 109.337978 282.643874 
L 114.938963 274.967478 
L 120.539949 267.291082 
L 126.140934 259.614687 
L 131.741919 251.938291 
L 137.342905 244.261895 
L 142.94389 236.5855 
L 148.544875 228.909104 
L 154.145861 221.232708 
L 159.746846 213.556313 
L 165.347831 205.879917 
L 170.948816 198.203522 
L 176.549802 190.527126 
L 182.150787 182.85073 
L 187.751772 175.174335 
L 193.352758 167.497939 
L 198.953743 159.821543 
L 204.554728 152.145148 
L 210.155714 144.468752 
L 215.756699 136.792356 
L 221.357684 129.115961 
L 226.95867 121.439565 
L 232.559655 113.763169 
L 238.16064 106.086774 
L 243.761626 98.410378 
L 249.362611 90.733983 
L 254.963596 83.057587 
L 260.564581 75.381191 
L 266.165567 67.704796 
L 271.766552 60.0284 
L 277.367537 52.352004 
L 282.968523 44.675609 
L 288.569508 36.999213 
L 294.170493 29.322817 
L 299.771479 21.646422 
L 305.372464 13.970026 
L 310.973449 6.293631 
" style="fill:none;stroke:#1f77b4;stroke-linecap:square;stroke-opacity:0.7;stroke-width:1.5;"/>
   </g>
   <g id="line2d_3">
    <path clip-path="url(#p59ee51f4b4)" d="M 36.525169 271.959177 
L 42.126154 264.282781 
L 47.72714 256.606386 
L 53.328125 248.92999 
L 58.92911 241.253594 
L 64.530096 233.577199 
L 70.131081 225.900803 
L 75.732066 218.224407 
L 81.333052 210.548012 
L 86.934037 202.871616 
L 92.535022 195.19522 
L 98.136007 187.518825 
L 103.736993 179.842429 
L 109.337978 172.166034 
L 114.938963 164.489638 
L 120.539949 156.813242 
L 126.140934 149.136847 
L 131.741919 141.460451 
L 137.342905 133.784055 
L 142.94389 126.10766 
L 148.544875 118.431264 
L 154.145861 110.754868 
L 159.746846 103.078473 
L 165.347831 95.402077 
L 170.948816 87.725681 
L 176.549802 80.049286 
L 182.150787 72.37289 
L 187.751772 64.696495 
L 193.352758 57.020099 
L 198.953743 49.343703 
L 204.554728 41.667308 
L 210.155714 33.990912 
L 215.756699 26.314516 
L 221.357684 18.638121 
L 226.95867 10.961725 
L 232.559655 3.285329 
L 235.686392 -1 
" style="fill:none;stroke:#2ca02c;stroke-linecap:square;stroke-opacity:0.7;stroke-width:1.5;"/>
   </g>
   <g id="matplotlib.axis_1">
    <g id="xtick_1">
     <g id="line2d_4">
      <path clip-path="url(#p59ee51f4b4)" d="M 81.333052 239.758125 
L 81.333052 22.318125 
" style="fill:none;stroke:#b0b0b0;stroke-linecap:square;stroke-opacity:0.8;stroke-width:0.8;"/>
     </g>
     <g id="line2d_5">
      <defs>
       <path d="M 0 0 
L 0 3.5 
" id="m2ca1a8544c" style="stroke:#000000;stroke-width:0.8;"/>
      </defs>
      <g>
       <use style="stroke:#000000;stroke-width:0.8;" x="81.333052" xlink:href="#m2ca1a8544c" y="239.758125"/>
      </g>
     </g>
     <g id="text_1">
      <!-- Feb. -->
      <defs>
       <path d="M 9.8125 72.90625 
L 51.703125 72.90625 
L 51.703125 64.59375 
L 19.671875 64.59375 
L 19.671875 43.109375 
L 48.578125 43.109375 
L 48.578125 34.8125 
L 19.671875 34.8125 
L 19.671875 0 
L 9.8125 0 
z
" id="DejaVuSans-70"/>
       <path d="M 56.203125 29.59375 
L 56.203125 25.203125 
L 14.890625 25.203125 
Q 15.484375 15.921875 20.484375 11.0625 
Q 25.484375 6.203125 34.421875 6.203125 
Q 39.59375 6.203125 44.453125 7.46875 
Q 49.3125 8.734375 54.109375 11.28125 
L 54.109375 2.78125 
Q 49.265625 0.734375 44.1875 -0.34375 
Q 39.109375 -1.421875 33.890625 -1.421875 
Q 20.796875 -1.421875 13.15625 6.1875 
Q 5.515625 13.8125 5.515625 26.8125 
Q 5.515625 40.234375 12.765625 48.109375 
Q 20.015625 56 32.328125 56 
Q 43.359375 56 49.78125 48.890625 
Q 56.203125 41.796875 56.203125 29.59375 
z
M 47.21875 32.234375 
Q 47.125 39.59375 43.09375 43.984375 
Q 39.0625 48.390625 32.421875 48.390625 
Q 24.90625 48.390625 20.390625 44.140625 
Q 15.875 39.890625 15.1875 32.171875 
z
" id="DejaVuSans-101"/>
       <path d="M 48.6875 27.296875 
Q 48.6875 37.203125 44.609375 42.84375 
Q 40.53125 48.484375 33.40625 48.484375 
Q 26.265625 48.484375 22.1875 42.84375 
Q 18.109375 37.203125 18.109375 27.296875 
Q 18.109375 17.390625 22.1875 11.75 
Q 26.265625 6.109375 33.40625 6.109375 
Q 40.53125 6.109375 44.609375 11.75 
Q 48.6875 17.390625 48.6875 27.296875 
z
M 18.109375 46.390625 
Q 20.953125 51.265625 25.265625 53.625 
Q 29.59375 56 35.59375 56 
Q 45.5625 56 51.78125 48.09375 
Q 58.015625 40.1875 58.015625 27.296875 
Q 58.015625 14.40625 51.78125 6.484375 
Q 45.5625 -1.421875 35.59375 -1.421875 
Q 29.59375 -1.421875 25.265625 0.953125 
Q 20.953125 3.328125 18.109375 8.203125 
L 18.109375 0 
L 9.078125 0 
L 9.078125 75.984375 
L 18.109375 75.984375 
z
" id="DejaVuSans-98"/>
       <path d="M 10.6875 12.40625 
L 21 12.40625 
L 21 0 
L 10.6875 0 
z
" id="DejaVuSans-46"/>
      </defs>
      <g transform="translate(70.621333 254.356562)scale(0.1 -0.1)">
       <use xlink:href="#DejaVuSans-70"/>
       <use x="57.441406" xlink:href="#DejaVuSans-101"/>
       <use x="118.964844" xlink:href="#DejaVuSans-98"/>
       <use x="182.441406" xlink:href="#DejaVuSans-46"/>
      </g>
      <!-- 23 -->
      <defs>
       <path d="M 19.1875 8.296875 
L 53.609375 8.296875 
L 53.609375 0 
L 7.328125 0 
L 7.328125 8.296875 
Q 12.9375 14.109375 22.625 23.890625 
Q 32.328125 33.6875 34.8125 36.53125 
Q 39.546875 41.84375 41.421875 45.53125 
Q 43.3125 49.21875 43.3125 52.78125 
Q 43.3125 58.59375 39.234375 62.25 
Q 35.15625 65.921875 28.609375 65.921875 
Q 23.96875 65.921875 18.8125 64.3125 
Q 13.671875 62.703125 7.8125 59.421875 
L 7.8125 69.390625 
Q 13.765625 71.78125 18.9375 73 
Q 24.125 74.21875 28.421875 74.21875 
Q 39.75 74.21875 46.484375 68.546875 
Q 53.21875 62.890625 53.21875 53.421875 
Q 53.21875 48.921875 51.53125 44.890625 
Q 49.859375 40.875 45.40625 35.40625 
Q 44.1875 33.984375 37.640625 27.21875 
Q 31.109375 20.453125 19.1875 8.296875 
z
" id="DejaVuSans-50"/>
       <path d="M 40.578125 39.3125 
Q 47.65625 37.796875 51.625 33 
Q 55.609375 28.21875 55.609375 21.1875 
Q 55.609375 10.40625 48.1875 4.484375 
Q 40.765625 -1.421875 27.09375 -1.421875 
Q 22.515625 -1.421875 17.65625 -0.515625 
Q 12.796875 0.390625 7.625 2.203125 
L 7.625 11.71875 
Q 11.71875 9.328125 16.59375 8.109375 
Q 21.484375 6.890625 26.8125 6.890625 
Q 36.078125 6.890625 40.9375 10.546875 
Q 45.796875 14.203125 45.796875 21.1875 
Q 45.796875 27.640625 41.28125 31.265625 
Q 36.765625 34.90625 28.71875 34.90625 
L 20.21875 34.90625 
L 20.21875 43.015625 
L 29.109375 43.015625 
Q 36.375 43.015625 40.234375 45.921875 
Q 44.09375 48.828125 44.09375 54.296875 
Q 44.09375 59.90625 40.109375 62.90625 
Q 36.140625 65.921875 28.71875 65.921875 
Q 24.65625 65.921875 20.015625 65.03125 
Q 15.375 64.15625 9.8125 62.3125 
L 9.8125 71.09375 
Q 15.4375 72.65625 20.34375 73.4375 
Q 25.25 74.21875 29.59375 74.21875 
Q 40.828125 74.21875 47.359375 69.109375 
Q 53.90625 64.015625 53.90625 55.328125 
Q 53.90625 49.265625 50.4375 45.09375 
Q 46.96875 40.921875 40.578125 39.3125 
z
" id="DejaVuSans-51"/>
      </defs>
      <g transform="translate(74.970552 265.554375)scale(0.1 -0.1)">
       <use xlink:href="#DejaVuSans-50"/>
       <use x="63.623047" xlink:href="#DejaVuSans-51"/>
      </g>
     </g>
    </g>
    <g id="xtick_2">
     <g id="line2d_6">
      <path clip-path="url(#p59ee51f4b4)" d="M 120.539949 239.758125 
L 120.539949 22.318125 
" style="fill:none;stroke:#b0b0b0;stroke-linecap:square;stroke-opacity:0.8;stroke-width:0.8;"/>
     </g>
     <g id="line2d_7">
      <g>
       <use style="stroke:#000000;stroke-width:0.8;" x="120.539949" xlink:href="#m2ca1a8544c" y="239.758125"/>
      </g>
     </g>
     <g id="text_2">
      <!-- Mar. -->
      <defs>
       <path d="M 9.8125 72.90625 
L 24.515625 72.90625 
L 43.109375 23.296875 
L 61.8125 72.90625 
L 76.515625 72.90625 
L 76.515625 0 
L 66.890625 0 
L 66.890625 64.015625 
L 48.09375 14.015625 
L 38.1875 14.015625 
L 19.390625 64.015625 
L 19.390625 0 
L 9.8125 0 
z
" id="DejaVuSans-77"/>
       <path d="M 34.28125 27.484375 
Q 23.390625 27.484375 19.1875 25 
Q 14.984375 22.515625 14.984375 16.5 
Q 14.984375 11.71875 18.140625 8.90625 
Q 21.296875 6.109375 26.703125 6.109375 
Q 34.1875 6.109375 38.703125 11.40625 
Q 43.21875 16.703125 43.21875 25.484375 
L 43.21875 27.484375 
z
M 52.203125 31.203125 
L 52.203125 0 
L 43.21875 0 
L 43.21875 8.296875 
Q 40.140625 3.328125 35.546875 0.953125 
Q 30.953125 -1.421875 24.3125 -1.421875 
Q 15.921875 -1.421875 10.953125 3.296875 
Q 6 8.015625 6 15.921875 
Q 6 25.140625 12.171875 29.828125 
Q 18.359375 34.515625 30.609375 34.515625 
L 43.21875 34.515625 
L 43.21875 35.40625 
Q 43.21875 41.609375 39.140625 45 
Q 35.0625 48.390625 27.6875 48.390625 
Q 23 48.390625 18.546875 47.265625 
Q 14.109375 46.140625 10.015625 43.890625 
L 10.015625 52.203125 
Q 14.9375 54.109375 19.578125 55.046875 
Q 24.21875 56 28.609375 56 
Q 40.484375 56 46.34375 49.84375 
Q 52.203125 43.703125 52.203125 31.203125 
z
" id="DejaVuSans-97"/>
       <path d="M 41.109375 46.296875 
Q 39.59375 47.171875 37.8125 47.578125 
Q 36.03125 48 33.890625 48 
Q 26.265625 48 22.1875 43.046875 
Q 18.109375 38.09375 18.109375 28.8125 
L 18.109375 0 
L 9.078125 0 
L 9.078125 54.6875 
L 18.109375 54.6875 
L 18.109375 46.1875 
Q 20.953125 51.171875 25.484375 53.578125 
Q 30.03125 56 36.53125 56 
Q 37.453125 56 38.578125 55.875 
Q 39.703125 55.765625 41.0625 55.515625 
z
" id="DejaVuSans-114"/>
      </defs>
      <g transform="translate(109.524324 254.356562)scale(0.1 -0.1)">
       <use xlink:href="#DejaVuSans-77"/>
       <use x="86.279297" xlink:href="#DejaVuSans-97"/>
       <use x="147.558594" xlink:href="#DejaVuSans-114"/>
       <use x="188.53125" xlink:href="#DejaVuSans-46"/>
      </g>
      <!-- 01 -->
      <defs>
       <path d="M 31.78125 66.40625 
Q 24.171875 66.40625 20.328125 58.90625 
Q 16.5 51.421875 16.5 36.375 
Q 16.5 21.390625 20.328125 13.890625 
Q 24.171875 6.390625 31.78125 6.390625 
Q 39.453125 6.390625 43.28125 13.890625 
Q 47.125 21.390625 47.125 36.375 
Q 47.125 51.421875 43.28125 58.90625 
Q 39.453125 66.40625 31.78125 66.40625 
z
M 31.78125 74.21875 
Q 44.046875 74.21875 50.515625 64.515625 
Q 56.984375 54.828125 56.984375 36.375 
Q 56.984375 17.96875 50.515625 8.265625 
Q 44.046875 -1.421875 31.78125 -1.421875 
Q 19.53125 -1.421875 13.0625 8.265625 
Q 6.59375 17.96875 6.59375 36.375 
Q 6.59375 54.828125 13.0625 64.515625 
Q 19.53125 74.21875 31.78125 74.21875 
z
" id="DejaVuSans-48"/>
       <path d="M 12.40625 8.296875 
L 28.515625 8.296875 
L 28.515625 63.921875 
L 10.984375 60.40625 
L 10.984375 69.390625 
L 28.421875 72.90625 
L 38.28125 72.90625 
L 38.28125 8.296875 
L 54.390625 8.296875 
L 54.390625 0 
L 12.40625 0 
z
" id="DejaVuSans-49"/>
      </defs>
      <g transform="translate(114.177449 265.554375)scale(0.1 -0.1)">
       <use xlink:href="#DejaVuSans-48"/>
       <use x="63.623047" xlink:href="#DejaVuSans-49"/>
      </g>
     </g>
    </g>
    <g id="xtick_3">
     <g id="line2d_8">
      <path clip-path="url(#p59ee51f4b4)" d="M 159.746846 239.758125 
L 159.746846 22.318125 
" style="fill:none;stroke:#b0b0b0;stroke-linecap:square;stroke-opacity:0.8;stroke-width:0.8;"/>
     </g>
     <g id="line2d_9">
      <g>
       <use style="stroke:#000000;stroke-width:0.8;" x="159.746846" xlink:href="#m2ca1a8544c" y="239.758125"/>
      </g>
     </g>
     <g id="text_3">
      <!-- Mar. -->
      <g transform="translate(148.731221 254.356562)scale(0.1 -0.1)">
       <use xlink:href="#DejaVuSans-77"/>
       <use x="86.279297" xlink:href="#DejaVuSans-97"/>
       <use x="147.558594" xlink:href="#DejaVuSans-114"/>
       <use x="188.53125" xlink:href="#DejaVuSans-46"/>
      </g>
      <!-- 08 -->
      <defs>
       <path d="M 31.78125 34.625 
Q 24.75 34.625 20.71875 30.859375 
Q 16.703125 27.09375 16.703125 20.515625 
Q 16.703125 13.921875 20.71875 10.15625 
Q 24.75 6.390625 31.78125 6.390625 
Q 38.8125 6.390625 42.859375 10.171875 
Q 46.921875 13.96875 46.921875 20.515625 
Q 46.921875 27.09375 42.890625 30.859375 
Q 38.875 34.625 31.78125 34.625 
z
M 21.921875 38.8125 
Q 15.578125 40.375 12.03125 44.71875 
Q 8.5 49.078125 8.5 55.328125 
Q 8.5 64.0625 14.71875 69.140625 
Q 20.953125 74.21875 31.78125 74.21875 
Q 42.671875 74.21875 48.875 69.140625 
Q 55.078125 64.0625 55.078125 55.328125 
Q 55.078125 49.078125 51.53125 44.71875 
Q 48 40.375 41.703125 38.8125 
Q 48.828125 37.15625 52.796875 32.3125 
Q 56.78125 27.484375 56.78125 20.515625 
Q 56.78125 9.90625 50.3125 4.234375 
Q 43.84375 -1.421875 31.78125 -1.421875 
Q 19.734375 -1.421875 13.25 4.234375 
Q 6.78125 9.90625 6.78125 20.515625 
Q 6.78125 27.484375 10.78125 32.3125 
Q 14.796875 37.15625 21.921875 38.8125 
z
M 18.3125 54.390625 
Q 18.3125 48.734375 21.84375 45.5625 
Q 25.390625 42.390625 31.78125 42.390625 
Q 38.140625 42.390625 41.71875 45.5625 
Q 45.3125 48.734375 45.3125 54.390625 
Q 45.3125 60.0625 41.71875 63.234375 
Q 38.140625 66.40625 31.78125 66.40625 
Q 25.390625 66.40625 21.84375 63.234375 
Q 18.3125 60.0625 18.3125 54.390625 
z
" id="DejaVuSans-56"/>
      </defs>
      <g transform="translate(153.384346 265.554375)scale(0.1 -0.1)">
       <use xlink:href="#DejaVuSans-48"/>
       <use x="63.623047" xlink:href="#DejaVuSans-56"/>
      </g>
     </g>
    </g>
    <g id="xtick_4">
     <g id="line2d_10">
      <path clip-path="url(#p59ee51f4b4)" d="M 198.953743 239.758125 
L 198.953743 22.318125 
" style="fill:none;stroke:#b0b0b0;stroke-linecap:square;stroke-opacity:0.8;stroke-width:0.8;"/>
     </g>
     <g id="line2d_11">
      <g>
       <use style="stroke:#000000;stroke-width:0.8;" x="198.953743" xlink:href="#m2ca1a8544c" y="239.758125"/>
      </g>
     </g>
     <g id="text_4">
      <!-- Mar. -->
      <g transform="translate(187.938118 254.356562)scale(0.1 -0.1)">
       <use xlink:href="#DejaVuSans-77"/>
       <use x="86.279297" xlink:href="#DejaVuSans-97"/>
       <use x="147.558594" xlink:href="#DejaVuSans-114"/>
       <use x="188.53125" xlink:href="#DejaVuSans-46"/>
      </g>
      <!-- 15 -->
      <defs>
       <path d="M 10.796875 72.90625 
L 49.515625 72.90625 
L 49.515625 64.59375 
L 19.828125 64.59375 
L 19.828125 46.734375 
Q 21.96875 47.46875 24.109375 47.828125 
Q 26.265625 48.1875 28.421875 48.1875 
Q 40.625 48.1875 47.75 41.5 
Q 54.890625 34.8125 54.890625 23.390625 
Q 54.890625 11.625 47.5625 5.09375 
Q 40.234375 -1.421875 26.90625 -1.421875 
Q 22.3125 -1.421875 17.546875 -0.640625 
Q 12.796875 0.140625 7.71875 1.703125 
L 7.71875 11.625 
Q 12.109375 9.234375 16.796875 8.0625 
Q 21.484375 6.890625 26.703125 6.890625 
Q 35.15625 6.890625 40.078125 11.328125 
Q 45.015625 15.765625 45.015625 23.390625 
Q 45.015625 31 40.078125 35.4375 
Q 35.15625 39.890625 26.703125 39.890625 
Q 22.75 39.890625 18.8125 39.015625 
Q 14.890625 38.140625 10.796875 36.28125 
z
" id="DejaVuSans-53"/>
      </defs>
      <g transform="translate(192.591243 265.554375)scale(0.1 -0.1)">
       <use xlink:href="#DejaVuSans-49"/>
       <use x="63.623047" xlink:href="#DejaVuSans-53"/>
      </g>
     </g>
    </g>
    <g id="xtick_5">
     <g id="line2d_12">
      <path clip-path="url(#p59ee51f4b4)" d="M 238.16064 239.758125 
L 238.16064 22.318125 
" style="fill:none;stroke:#b0b0b0;stroke-linecap:square;stroke-opacity:0.8;stroke-width:0.8;"/>
     </g>
     <g id="line2d_13">
      <g>
       <use style="stroke:#000000;stroke-width:0.8;" x="238.16064" xlink:href="#m2ca1a8544c" y="239.758125"/>
      </g>
     </g>
     <g id="text_5">
      <!-- Mar. -->
      <g transform="translate(227.145015 254.356562)scale(0.1 -0.1)">
       <use xlink:href="#DejaVuSans-77"/>
       <use x="86.279297" xlink:href="#DejaVuSans-97"/>
       <use x="147.558594" xlink:href="#DejaVuSans-114"/>
       <use x="188.53125" xlink:href="#DejaVuSans-46"/>
      </g>
      <!-- 22 -->
      <g transform="translate(231.79814 265.554375)scale(0.1 -0.1)">
       <use xlink:href="#DejaVuSans-50"/>
       <use x="63.623047" xlink:href="#DejaVuSans-50"/>
      </g>
     </g>
    </g>
    <g id="xtick_6">
     <g id="line2d_14">
      <path clip-path="url(#p59ee51f4b4)" d="M 277.367537 239.758125 
L 277.367537 22.318125 
" style="fill:none;stroke:#b0b0b0;stroke-linecap:square;stroke-opacity:0.8;stroke-width:0.8;"/>
     </g>
     <g id="line2d_15">
      <g>
       <use style="stroke:#000000;stroke-width:0.8;" x="277.367537" xlink:href="#m2ca1a8544c" y="239.758125"/>
      </g>
     </g>
     <g id="text_6">
      <!-- Mar. -->
      <g transform="translate(266.351912 254.356562)scale(0.1 -0.1)">
       <use xlink:href="#DejaVuSans-77"/>
       <use x="86.279297" xlink:href="#DejaVuSans-97"/>
       <use x="147.558594" xlink:href="#DejaVuSans-114"/>
       <use x="188.53125" xlink:href="#DejaVuSans-46"/>
      </g>
      <!-- 29 -->
      <defs>
       <path d="M 10.984375 1.515625 
L 10.984375 10.5 
Q 14.703125 8.734375 18.5 7.8125 
Q 22.3125 6.890625 25.984375 6.890625 
Q 35.75 6.890625 40.890625 13.453125 
Q 46.046875 20.015625 46.78125 33.40625 
Q 43.953125 29.203125 39.59375 26.953125 
Q 35.25 24.703125 29.984375 24.703125 
Q 19.046875 24.703125 12.671875 31.3125 
Q 6.296875 37.9375 6.296875 49.421875 
Q 6.296875 60.640625 12.9375 67.421875 
Q 19.578125 74.21875 30.609375 74.21875 
Q 43.265625 74.21875 49.921875 64.515625 
Q 56.59375 54.828125 56.59375 36.375 
Q 56.59375 19.140625 48.40625 8.859375 
Q 40.234375 -1.421875 26.421875 -1.421875 
Q 22.703125 -1.421875 18.890625 -0.6875 
Q 15.09375 0.046875 10.984375 1.515625 
z
M 30.609375 32.421875 
Q 37.25 32.421875 41.125 36.953125 
Q 45.015625 41.5 45.015625 49.421875 
Q 45.015625 57.28125 41.125 61.84375 
Q 37.25 66.40625 30.609375 66.40625 
Q 23.96875 66.40625 20.09375 61.84375 
Q 16.21875 57.28125 16.21875 49.421875 
Q 16.21875 41.5 20.09375 36.953125 
Q 23.96875 32.421875 30.609375 32.421875 
z
" id="DejaVuSans-57"/>
      </defs>
      <g transform="translate(271.005037 265.554375)scale(0.1 -0.1)">
       <use xlink:href="#DejaVuSans-50"/>
       <use x="63.623047" xlink:href="#DejaVuSans-57"/>
      </g>
     </g>
    </g>
    <g id="xtick_7">
     <g id="line2d_16">
      <path clip-path="url(#p59ee51f4b4)" d="M 316.574435 239.758125 
L 316.574435 22.318125 
" style="fill:none;stroke:#b0b0b0;stroke-linecap:square;stroke-opacity:0.8;stroke-width:0.8;"/>
     </g>
     <g id="line2d_17">
      <g>
       <use style="stroke:#000000;stroke-width:0.8;" x="316.574435" xlink:href="#m2ca1a8544c" y="239.758125"/>
      </g>
     </g>
     <g id="text_7">
      <!-- Apr. -->
      <defs>
       <path d="M 34.1875 63.1875 
L 20.796875 26.90625 
L 47.609375 26.90625 
z
M 28.609375 72.90625 
L 39.796875 72.90625 
L 67.578125 0 
L 57.328125 0 
L 50.6875 18.703125 
L 17.828125 18.703125 
L 11.1875 0 
L 0.78125 0 
z
" id="DejaVuSans-65"/>
       <path d="M 18.109375 8.203125 
L 18.109375 -20.796875 
L 9.078125 -20.796875 
L 9.078125 54.6875 
L 18.109375 54.6875 
L 18.109375 46.390625 
Q 20.953125 51.265625 25.265625 53.625 
Q 29.59375 56 35.59375 56 
Q 45.5625 56 51.78125 48.09375 
Q 58.015625 40.1875 58.015625 27.296875 
Q 58.015625 14.40625 51.78125 6.484375 
Q 45.5625 -1.421875 35.59375 -1.421875 
Q 29.59375 -1.421875 25.265625 0.953125 
Q 20.953125 3.328125 18.109375 8.203125 
z
M 48.6875 27.296875 
Q 48.6875 37.203125 44.609375 42.84375 
Q 40.53125 48.484375 33.40625 48.484375 
Q 26.265625 48.484375 22.1875 42.84375 
Q 18.109375 37.203125 18.109375 27.296875 
Q 18.109375 17.390625 22.1875 11.75 
Q 26.265625 6.109375 33.40625 6.109375 
Q 40.53125 6.109375 44.609375 11.75 
Q 48.6875 17.390625 48.6875 27.296875 
z
" id="DejaVuSans-112"/>
      </defs>
      <g transform="translate(306.342403 254.356562)scale(0.1 -0.1)">
       <use xlink:href="#DejaVuSans-65"/>
       <use x="68.408203" xlink:href="#DejaVuSans-112"/>
       <use x="131.884766" xlink:href="#DejaVuSans-114"/>
       <use x="172.857422" xlink:href="#DejaVuSans-46"/>
      </g>
      <!-- 05 -->
      <g transform="translate(310.211935 265.554375)scale(0.1 -0.1)">
       <use xlink:href="#DejaVuSans-48"/>
       <use x="63.623047" xlink:href="#DejaVuSans-53"/>
      </g>
     </g>
    </g>
    <g id="xtick_8">
     <g id="line2d_18">
      <path clip-path="url(#p59ee51f4b4)" d="M 355.781332 239.758125 
L 355.781332 22.318125 
" style="fill:none;stroke:#b0b0b0;stroke-linecap:square;stroke-opacity:0.8;stroke-width:0.8;"/>
     </g>
     <g id="line2d_19">
      <g>
       <use style="stroke:#000000;stroke-width:0.8;" x="355.781332" xlink:href="#m2ca1a8544c" y="239.758125"/>
      </g>
     </g>
     <g id="text_8">
      <!-- Apr. -->
      <g transform="translate(345.5493 254.356562)scale(0.1 -0.1)">
       <use xlink:href="#DejaVuSans-65"/>
       <use x="68.408203" xlink:href="#DejaVuSans-112"/>
       <use x="131.884766" xlink:href="#DejaVuSans-114"/>
       <use x="172.857422" xlink:href="#DejaVuSans-46"/>
      </g>
      <!-- 12 -->
      <g transform="translate(349.418832 265.554375)scale(0.1 -0.1)">
       <use xlink:href="#DejaVuSans-49"/>
       <use x="63.623047" xlink:href="#DejaVuSans-50"/>
      </g>
     </g>
    </g>
   </g>
   <g id="matplotlib.axis_2">
    <g id="ytick_1">
     <g id="line2d_20">
      <path clip-path="url(#p59ee51f4b4)" d="M 53.328125 239.758125 
L 388.128125 239.758125 
" style="fill:none;stroke:#b0b0b0;stroke-linecap:square;stroke-opacity:0.8;"/>
     </g>
     <g id="line2d_21">
      <defs>
       <path d="M 0 0 
L -3.5 0 
" id="m75ab30d93f" style="stroke:#000000;stroke-width:0.8;"/>
      </defs>
      <g>
       <use style="stroke:#000000;stroke-width:0.8;" x="53.328125" xlink:href="#m75ab30d93f" y="239.758125"/>
      </g>
     </g>
     <g id="text_9">
      <!-- 1 -->
      <g transform="translate(39.965625 243.557344)scale(0.1 -0.1)">
       <use xlink:href="#DejaVuSans-49"/>
      </g>
     </g>
    </g>
    <g id="ytick_2">
     <g id="line2d_22">
      <path clip-path="url(#p59ee51f4b4)" d="M 53.328125 178.557083 
L 388.128125 178.557083 
" style="fill:none;stroke:#b0b0b0;stroke-linecap:square;stroke-opacity:0.8;"/>
     </g>
     <g id="line2d_23">
      <g>
       <use style="stroke:#000000;stroke-width:0.8;" x="53.328125" xlink:href="#m75ab30d93f" y="178.557083"/>
      </g>
     </g>
     <g id="text_10">
      <!-- 10 -->
      <g transform="translate(33.603125 182.356301)scale(0.1 -0.1)">
       <use xlink:href="#DejaVuSans-49"/>
       <use x="63.623047" xlink:href="#DejaVuSans-48"/>
      </g>
     </g>
    </g>
    <g id="ytick_3">
     <g id="line2d_24">
      <path clip-path="url(#p59ee51f4b4)" d="M 53.328125 117.35604 
L 388.128125 117.35604 
" style="fill:none;stroke:#b0b0b0;stroke-linecap:square;stroke-opacity:0.8;"/>
     </g>
     <g id="line2d_25">
      <g>
       <use style="stroke:#000000;stroke-width:0.8;" x="53.328125" xlink:href="#m75ab30d93f" y="117.35604"/>
      </g>
     </g>
     <g id="text_11">
      <!-- 100 -->
      <g transform="translate(27.240625 121.155259)scale(0.1 -0.1)">
       <use xlink:href="#DejaVuSans-49"/>
       <use x="63.623047" xlink:href="#DejaVuSans-48"/>
       <use x="127.246094" xlink:href="#DejaVuSans-48"/>
      </g>
     </g>
    </g>
    <g id="ytick_4">
     <g id="line2d_26">
      <path clip-path="url(#p59ee51f4b4)" d="M 53.328125 56.154998 
L 388.128125 56.154998 
" style="fill:none;stroke:#b0b0b0;stroke-linecap:square;stroke-opacity:0.8;"/>
     </g>
     <g id="line2d_27">
      <g>
       <use style="stroke:#000000;stroke-width:0.8;" x="53.328125" xlink:href="#m75ab30d93f" y="56.154998"/>
      </g>
     </g>
     <g id="text_12">
      <!-- 1000 -->
      <g transform="translate(20.878125 59.954217)scale(0.1 -0.1)">
       <use xlink:href="#DejaVuSans-49"/>
       <use x="63.623047" xlink:href="#DejaVuSans-48"/>
       <use x="127.246094" xlink:href="#DejaVuSans-48"/>
       <use x="190.869141" xlink:href="#DejaVuSans-48"/>
      </g>
     </g>
    </g>
    <g id="ytick_5">
     <g id="line2d_28">
      <path clip-path="url(#p59ee51f4b4)" d="M 53.328125 221.334775 
L 388.128125 221.334775 
" style="fill:none;stroke:#b0b0b0;stroke-linecap:square;stroke-opacity:0.3;stroke-width:0.8;"/>
     </g>
     <g id="line2d_29">
      <defs>
       <path d="M 0 0 
L -2 0 
" id="mfaf610eaf1" style="stroke:#000000;stroke-width:0.6;"/>
      </defs>
      <g>
       <use style="stroke:#000000;stroke-width:0.6;" x="53.328125" xlink:href="#mfaf610eaf1" y="221.334775"/>
      </g>
     </g>
     <g id="text_13">
      <!-- 2 -->
      <g transform="translate(41.565625 225.133994)scale(0.1 -0.1)">
       <use xlink:href="#DejaVuSans-50"/>
      </g>
     </g>
    </g>
    <g id="ytick_6">
     <g id="line2d_30">
      <path clip-path="url(#p59ee51f4b4)" d="M 53.328125 196.980432 
L 388.128125 196.980432 
" style="fill:none;stroke:#b0b0b0;stroke-linecap:square;stroke-opacity:0.3;stroke-width:0.8;"/>
     </g>
     <g id="line2d_31">
      <g>
       <use style="stroke:#000000;stroke-width:0.6;" x="53.328125" xlink:href="#mfaf610eaf1" y="196.980432"/>
      </g>
     </g>
     <g id="text_14">
      <!-- 5 -->
      <g transform="translate(41.565625 200.779651)scale(0.1 -0.1)">
       <use xlink:href="#DejaVuSans-53"/>
      </g>
     </g>
    </g>
    <g id="ytick_7">
     <g id="line2d_32">
      <path clip-path="url(#p59ee51f4b4)" d="M 53.328125 160.133733 
L 388.128125 160.133733 
" style="fill:none;stroke:#b0b0b0;stroke-linecap:square;stroke-opacity:0.3;stroke-width:0.8;"/>
     </g>
     <g id="line2d_33">
      <g>
       <use style="stroke:#000000;stroke-width:0.6;" x="53.328125" xlink:href="#mfaf610eaf1" y="160.133733"/>
      </g>
     </g>
     <g id="text_15">
      <!-- 20 -->
      <g transform="translate(35.203125 163.932952)scale(0.1 -0.1)">
       <use xlink:href="#DejaVuSans-50"/>
       <use x="63.623047" xlink:href="#DejaVuSans-48"/>
      </g>
     </g>
    </g>
    <g id="ytick_8">
     <g id="line2d_34">
      <path clip-path="url(#p59ee51f4b4)" d="M 53.328125 135.77939 
L 388.128125 135.77939 
" style="fill:none;stroke:#b0b0b0;stroke-linecap:square;stroke-opacity:0.3;stroke-width:0.8;"/>
     </g>
     <g id="line2d_35">
      <g>
       <use style="stroke:#000000;stroke-width:0.6;" x="53.328125" xlink:href="#mfaf610eaf1" y="135.77939"/>
      </g>
     </g>
     <g id="text_16">
      <!-- 50 -->
      <g transform="translate(35.203125 139.578608)scale(0.1 -0.1)">
       <use xlink:href="#DejaVuSans-53"/>
       <use x="63.623047" xlink:href="#DejaVuSans-48"/>
      </g>
     </g>
    </g>
    <g id="ytick_9">
     <g id="line2d_36">
      <path clip-path="url(#p59ee51f4b4)" d="M 53.328125 98.932691 
L 388.128125 98.932691 
" style="fill:none;stroke:#b0b0b0;stroke-linecap:square;stroke-opacity:0.3;stroke-width:0.8;"/>
     </g>
     <g id="line2d_37">
      <g>
       <use style="stroke:#000000;stroke-width:0.6;" x="53.328125" xlink:href="#mfaf610eaf1" y="98.932691"/>
      </g>
     </g>
     <g id="text_17">
      <!-- 200 -->
      <g transform="translate(28.840625 102.731909)scale(0.1 -0.1)">
       <use xlink:href="#DejaVuSans-50"/>
       <use x="63.623047" xlink:href="#DejaVuSans-48"/>
       <use x="127.246094" xlink:href="#DejaVuSans-48"/>
      </g>
     </g>
    </g>
    <g id="ytick_10">
     <g id="line2d_38">
      <path clip-path="url(#p59ee51f4b4)" d="M 53.328125 74.578347 
L 388.128125 74.578347 
" style="fill:none;stroke:#b0b0b0;stroke-linecap:square;stroke-opacity:0.3;stroke-width:0.8;"/>
     </g>
     <g id="line2d_39">
      <g>
       <use style="stroke:#000000;stroke-width:0.6;" x="53.328125" xlink:href="#mfaf610eaf1" y="74.578347"/>
      </g>
     </g>
     <g id="text_18">
      <!-- 500 -->
      <g transform="translate(28.840625 78.377566)scale(0.1 -0.1)">
       <use xlink:href="#DejaVuSans-53"/>
       <use x="63.623047" xlink:href="#DejaVuSans-48"/>
       <use x="127.246094" xlink:href="#DejaVuSans-48"/>
      </g>
     </g>
    </g>
    <g id="ytick_11">
     <g id="line2d_40">
      <path clip-path="url(#p59ee51f4b4)" d="M 53.328125 37.731648 
L 388.128125 37.731648 
" style="fill:none;stroke:#b0b0b0;stroke-linecap:square;stroke-opacity:0.3;stroke-width:0.8;"/>
     </g>
     <g id="line2d_41">
      <g>
       <use style="stroke:#000000;stroke-width:0.6;" x="53.328125" xlink:href="#mfaf610eaf1" y="37.731648"/>
      </g>
     </g>
     <g id="text_19">
      <!-- 2000 -->
      <g transform="translate(22.478125 41.530867)scale(0.1 -0.1)">
       <use xlink:href="#DejaVuSans-50"/>
       <use x="63.623047" xlink:href="#DejaVuSans-48"/>
       <use x="127.246094" xlink:href="#DejaVuSans-48"/>
       <use x="190.869141" xlink:href="#DejaVuSans-48"/>
      </g>
     </g>
    </g>
    <g id="text_20">
     <!-- Cases per million -->
     <defs>
      <path d="M 64.40625 67.28125 
L 64.40625 56.890625 
Q 59.421875 61.53125 53.78125 63.8125 
Q 48.140625 66.109375 41.796875 66.109375 
Q 29.296875 66.109375 22.65625 58.46875 
Q 16.015625 50.828125 16.015625 36.375 
Q 16.015625 21.96875 22.65625 14.328125 
Q 29.296875 6.6875 41.796875 6.6875 
Q 48.140625 6.6875 53.78125 8.984375 
Q 59.421875 11.28125 64.40625 15.921875 
L 64.40625 5.609375 
Q 59.234375 2.09375 53.4375 0.328125 
Q 47.65625 -1.421875 41.21875 -1.421875 
Q 24.65625 -1.421875 15.125 8.703125 
Q 5.609375 18.84375 5.609375 36.375 
Q 5.609375 53.953125 15.125 64.078125 
Q 24.65625 74.21875 41.21875 74.21875 
Q 47.75 74.21875 53.53125 72.484375 
Q 59.328125 70.75 64.40625 67.28125 
z
" id="DejaVuSans-67"/>
      <path d="M 44.28125 53.078125 
L 44.28125 44.578125 
Q 40.484375 46.53125 36.375 47.5 
Q 32.28125 48.484375 27.875 48.484375 
Q 21.1875 48.484375 17.84375 46.4375 
Q 14.5 44.390625 14.5 40.28125 
Q 14.5 37.15625 16.890625 35.375 
Q 19.28125 33.59375 26.515625 31.984375 
L 29.59375 31.296875 
Q 39.15625 29.25 43.1875 25.515625 
Q 47.21875 21.78125 47.21875 15.09375 
Q 47.21875 7.46875 41.1875 3.015625 
Q 35.15625 -1.421875 24.609375 -1.421875 
Q 20.21875 -1.421875 15.453125 -0.5625 
Q 10.6875 0.296875 5.421875 2 
L 5.421875 11.28125 
Q 10.40625 8.6875 15.234375 7.390625 
Q 20.0625 6.109375 24.8125 6.109375 
Q 31.15625 6.109375 34.5625 8.28125 
Q 37.984375 10.453125 37.984375 14.40625 
Q 37.984375 18.0625 35.515625 20.015625 
Q 33.0625 21.96875 24.703125 23.78125 
L 21.578125 24.515625 
Q 13.234375 26.265625 9.515625 29.90625 
Q 5.8125 33.546875 5.8125 39.890625 
Q 5.8125 47.609375 11.28125 51.796875 
Q 16.75 56 26.8125 56 
Q 31.78125 56 36.171875 55.265625 
Q 40.578125 54.546875 44.28125 53.078125 
z
" id="DejaVuSans-115"/>
      <path id="DejaVuSans-32"/>
      <path d="M 52 44.1875 
Q 55.375 50.25 60.0625 53.125 
Q 64.75 56 71.09375 56 
Q 79.640625 56 84.28125 50.015625 
Q 88.921875 44.046875 88.921875 33.015625 
L 88.921875 0 
L 79.890625 0 
L 79.890625 32.71875 
Q 79.890625 40.578125 77.09375 44.375 
Q 74.3125 48.1875 68.609375 48.1875 
Q 61.625 48.1875 57.5625 43.546875 
Q 53.515625 38.921875 53.515625 30.90625 
L 53.515625 0 
L 44.484375 0 
L 44.484375 32.71875 
Q 44.484375 40.625 41.703125 44.40625 
Q 38.921875 48.1875 33.109375 48.1875 
Q 26.21875 48.1875 22.15625 43.53125 
Q 18.109375 38.875 18.109375 30.90625 
L 18.109375 0 
L 9.078125 0 
L 9.078125 54.6875 
L 18.109375 54.6875 
L 18.109375 46.1875 
Q 21.1875 51.21875 25.484375 53.609375 
Q 29.78125 56 35.6875 56 
Q 41.65625 56 45.828125 52.96875 
Q 50 49.953125 52 44.1875 
z
" id="DejaVuSans-109"/>
      <path d="M 9.421875 54.6875 
L 18.40625 54.6875 
L 18.40625 0 
L 9.421875 0 
z
M 9.421875 75.984375 
L 18.40625 75.984375 
L 18.40625 64.59375 
L 9.421875 64.59375 
z
" id="DejaVuSans-105"/>
      <path d="M 9.421875 75.984375 
L 18.40625 75.984375 
L 18.40625 0 
L 9.421875 0 
z
" id="DejaVuSans-108"/>
      <path d="M 30.609375 48.390625 
Q 23.390625 48.390625 19.1875 42.75 
Q 14.984375 37.109375 14.984375 27.296875 
Q 14.984375 17.484375 19.15625 11.84375 
Q 23.34375 6.203125 30.609375 6.203125 
Q 37.796875 6.203125 41.984375 11.859375 
Q 46.1875 17.53125 46.1875 27.296875 
Q 46.1875 37.015625 41.984375 42.703125 
Q 37.796875 48.390625 30.609375 48.390625 
z
M 30.609375 56 
Q 42.328125 56 49.015625 48.375 
Q 55.71875 40.765625 55.71875 27.296875 
Q 55.71875 13.875 49.015625 6.21875 
Q 42.328125 -1.421875 30.609375 -1.421875 
Q 18.84375 -1.421875 12.171875 6.21875 
Q 5.515625 13.875 5.515625 27.296875 
Q 5.515625 40.765625 12.171875 48.375 
Q 18.84375 56 30.609375 56 
z
" id="DejaVuSans-111"/>
      <path d="M 54.890625 33.015625 
L 54.890625 0 
L 45.90625 0 
L 45.90625 32.71875 
Q 45.90625 40.484375 42.875 44.328125 
Q 39.84375 48.1875 33.796875 48.1875 
Q 26.515625 48.1875 22.3125 43.546875 
Q 18.109375 38.921875 18.109375 30.90625 
L 18.109375 0 
L 9.078125 0 
L 9.078125 54.6875 
L 18.109375 54.6875 
L 18.109375 46.1875 
Q 21.34375 51.125 25.703125 53.5625 
Q 30.078125 56 35.796875 56 
Q 45.21875 56 50.046875 50.171875 
Q 54.890625 44.34375 54.890625 33.015625 
z
" id="DejaVuSans-110"/>
     </defs>
     <g transform="translate(14.798438 174.018594)rotate(-90)scale(0.1 -0.1)">
      <use xlink:href="#DejaVuSans-67"/>
      <use x="69.824219" xlink:href="#DejaVuSans-97"/>
      <use x="131.103516" xlink:href="#DejaVuSans-115"/>
      <use x="183.203125" xlink:href="#DejaVuSans-101"/>
      <use x="244.726562" xlink:href="#DejaVuSans-115"/>
      <use x="296.826172" xlink:href="#DejaVuSans-32"/>
      <use x="328.613281" xlink:href="#DejaVuSans-112"/>
      <use x="392.089844" xlink:href="#DejaVuSans-101"/>
      <use x="453.613281" xlink:href="#DejaVuSans-114"/>
      <use x="494.726562" xlink:href="#DejaVuSans-32"/>
      <use x="526.513672" xlink:href="#DejaVuSans-109"/>
      <use x="623.925781" xlink:href="#DejaVuSans-105"/>
      <use x="651.708984" xlink:href="#DejaVuSans-108"/>
      <use x="679.492188" xlink:href="#DejaVuSans-108"/>
      <use x="707.275391" xlink:href="#DejaVuSans-105"/>
      <use x="735.058594" xlink:href="#DejaVuSans-111"/>
      <use x="796.240234" xlink:href="#DejaVuSans-110"/>
     </g>
    </g>
   </g>
   <g id="line2d_42">
    <path clip-path="url(#p59ee51f4b4)" d="M 36.525169 321.773618 
L 42.126154 321.773618 
L 47.72714 321.773618 
L 53.328125 321.773618 
L 58.92911 321.773618 
L 64.530096 321.773618 
L 70.131081 299.253055 
L 75.732066 299.253055 
L 81.333052 299.253055 
L 86.934037 288.224149 
L 92.535022 286.290258 
L 98.136007 284.926919 
L 103.736993 284.926919 
L 109.337978 283.630112 
L 114.938963 281.600174 
L 120.539949 278.995925 
L 126.140934 271.349545 
L 131.741919 265.63204 
L 137.342905 259.191524 
L 142.94389 250.272378 
L 148.544875 240.51703 
L 154.145861 232.273336 
L 159.746846 226.477108 
L 165.347831 219.477214 
L 170.948816 210.308458 
L 176.549802 203.154612 
L 182.150787 197.1624 
L 187.751772 189.39806 
L 193.352758 183.068279 
L 198.953743 176.006401 
L 204.554728 169.610154 
L 210.155714 161.043039 
L 215.756699 150.89635 
L 221.357684 140.267567 
L 226.95867 131.205219 
L 232.559655 125.32718 
L 238.16064 116.640979 
L 243.761626 109.549369 
L 249.362611 103.541941 
L 254.963596 97.745348 
L 260.564581 91.744365 
L 266.165567 86.505866 
L 271.766552 81.979658 
L 277.367537 78.028086 
L 282.968523 74.456317 
L 288.569508 70.71594 
L 294.170493 67.227341 
L 299.771479 63.765196 
L 305.372464 60.483265 
L 310.973449 57.409333 
L 316.574435 55.342764 
L 322.17542 52.998112 
L 327.776405 50.694853 
L 333.37739 48.668376 
L 338.978376 46.694547 
" style="fill:none;stroke:#ff7f0e;stroke-linecap:square;stroke-width:1.5;"/>
    <defs>
     <path d="M 0 3 
C 0.795609 3 1.55874 2.683901 2.12132 2.12132 
C 2.683901 1.55874 3 0.795609 3 0 
C 3 -0.795609 2.683901 -1.55874 2.12132 -2.12132 
C 1.55874 -2.683901 0.795609 -3 0 -3 
C -0.795609 -3 -1.55874 -2.683901 -2.12132 -2.12132 
C -2.683901 -1.55874 -3 -0.795609 -3 0 
C -3 0.795609 -2.683901 1.55874 -2.12132 2.12132 
C -1.55874 2.683901 -0.795609 3 0 3 
z
" id="m750446c976" style="stroke:#ff7f0e;"/>
    </defs>
    <g clip-path="url(#p59ee51f4b4)">
     <use style="fill:#ff7f0e;stroke:#ff7f0e;" x="36.525169" xlink:href="#m750446c976" y="321.773618"/>
     <use style="fill:#ff7f0e;stroke:#ff7f0e;" x="42.126154" xlink:href="#m750446c976" y="321.773618"/>
     <use style="fill:#ff7f0e;stroke:#ff7f0e;" x="47.72714" xlink:href="#m750446c976" y="321.773618"/>
     <use style="fill:#ff7f0e;stroke:#ff7f0e;" x="53.328125" xlink:href="#m750446c976" y="321.773618"/>
     <use style="fill:#ff7f0e;stroke:#ff7f0e;" x="58.92911" xlink:href="#m750446c976" y="321.773618"/>
     <use style="fill:#ff7f0e;stroke:#ff7f0e;" x="64.530096" xlink:href="#m750446c976" y="321.773618"/>
     <use style="fill:#ff7f0e;stroke:#ff7f0e;" x="70.131081" xlink:href="#m750446c976" y="299.253055"/>
     <use style="fill:#ff7f0e;stroke:#ff7f0e;" x="75.732066" xlink:href="#m750446c976" y="299.253055"/>
     <use style="fill:#ff7f0e;stroke:#ff7f0e;" x="81.333052" xlink:href="#m750446c976" y="299.253055"/>
     <use style="fill:#ff7f0e;stroke:#ff7f0e;" x="86.934037" xlink:href="#m750446c976" y="288.224149"/>
     <use style="fill:#ff7f0e;stroke:#ff7f0e;" x="92.535022" xlink:href="#m750446c976" y="286.290258"/>
     <use style="fill:#ff7f0e;stroke:#ff7f0e;" x="98.136007" xlink:href="#m750446c976" y="284.926919"/>
     <use style="fill:#ff7f0e;stroke:#ff7f0e;" x="103.736993" xlink:href="#m750446c976" y="284.926919"/>
     <use style="fill:#ff7f0e;stroke:#ff7f0e;" x="109.337978" xlink:href="#m750446c976" y="283.630112"/>
     <use style="fill:#ff7f0e;stroke:#ff7f0e;" x="114.938963" xlink:href="#m750446c976" y="281.600174"/>
     <use style="fill:#ff7f0e;stroke:#ff7f0e;" x="120.539949" xlink:href="#m750446c976" y="278.995925"/>
     <use style="fill:#ff7f0e;stroke:#ff7f0e;" x="126.140934" xlink:href="#m750446c976" y="271.349545"/>
     <use style="fill:#ff7f0e;stroke:#ff7f0e;" x="131.741919" xlink:href="#m750446c976" y="265.63204"/>
     <use style="fill:#ff7f0e;stroke:#ff7f0e;" x="137.342905" xlink:href="#m750446c976" y="259.191524"/>
     <use style="fill:#ff7f0e;stroke:#ff7f0e;" x="142.94389" xlink:href="#m750446c976" y="250.272378"/>
     <use style="fill:#ff7f0e;stroke:#ff7f0e;" x="148.544875" xlink:href="#m750446c976" y="240.51703"/>
     <use style="fill:#ff7f0e;stroke:#ff7f0e;" x="154.145861" xlink:href="#m750446c976" y="232.273336"/>
     <use style="fill:#ff7f0e;stroke:#ff7f0e;" x="159.746846" xlink:href="#m750446c976" y="226.477108"/>
     <use style="fill:#ff7f0e;stroke:#ff7f0e;" x="165.347831" xlink:href="#m750446c976" y="219.477214"/>
     <use style="fill:#ff7f0e;stroke:#ff7f0e;" x="170.948816" xlink:href="#m750446c976" y="210.308458"/>
     <use style="fill:#ff7f0e;stroke:#ff7f0e;" x="176.549802" xlink:href="#m750446c976" y="203.154612"/>
     <use style="fill:#ff7f0e;stroke:#ff7f0e;" x="182.150787" xlink:href="#m750446c976" y="197.1624"/>
     <use style="fill:#ff7f0e;stroke:#ff7f0e;" x="187.751772" xlink:href="#m750446c976" y="189.39806"/>
     <use style="fill:#ff7f0e;stroke:#ff7f0e;" x="193.352758" xlink:href="#m750446c976" y="183.068279"/>
     <use style="fill:#ff7f0e;stroke:#ff7f0e;" x="198.953743" xlink:href="#m750446c976" y="176.006401"/>
     <use style="fill:#ff7f0e;stroke:#ff7f0e;" x="204.554728" xlink:href="#m750446c976" y="169.610154"/>
     <use style="fill:#ff7f0e;stroke:#ff7f0e;" x="210.155714" xlink:href="#m750446c976" y="161.043039"/>
     <use style="fill:#ff7f0e;stroke:#ff7f0e;" x="215.756699" xlink:href="#m750446c976" y="150.89635"/>
     <use style="fill:#ff7f0e;stroke:#ff7f0e;" x="221.357684" xlink:href="#m750446c976" y="140.267567"/>
     <use style="fill:#ff7f0e;stroke:#ff7f0e;" x="226.95867" xlink:href="#m750446c976" y="131.205219"/>
     <use style="fill:#ff7f0e;stroke:#ff7f0e;" x="232.559655" xlink:href="#m750446c976" y="125.32718"/>
     <use style="fill:#ff7f0e;stroke:#ff7f0e;" x="238.16064" xlink:href="#m750446c976" y="116.640979"/>
     <use style="fill:#ff7f0e;stroke:#ff7f0e;" x="243.761626" xlink:href="#m750446c976" y="109.549369"/>
     <use style="fill:#ff7f0e;stroke:#ff7f0e;" x="249.362611" xlink:href="#m750446c976" y="103.541941"/>
     <use style="fill:#ff7f0e;stroke:#ff7f0e;" x="254.963596" xlink:href="#m750446c976" y="97.745348"/>
     <use style="fill:#ff7f0e;stroke:#ff7f0e;" x="260.564581" xlink:href="#m750446c976" y="91.744365"/>
     <use style="fill:#ff7f0e;stroke:#ff7f0e;" x="266.165567" xlink:href="#m750446c976" y="86.505866"/>
     <use style="fill:#ff7f0e;stroke:#ff7f0e;" x="271.766552" xlink:href="#m750446c976" y="81.979658"/>
     <use style="fill:#ff7f0e;stroke:#ff7f0e;" x="277.367537" xlink:href="#m750446c976" y="78.028086"/>
     <use style="fill:#ff7f0e;stroke:#ff7f0e;" x="282.968523" xlink:href="#m750446c976" y="74.456317"/>
     <use style="fill:#ff7f0e;stroke:#ff7f0e;" x="288.569508" xlink:href="#m750446c976" y="70.71594"/>
     <use style="fill:#ff7f0e;stroke:#ff7f0e;" x="294.170493" xlink:href="#m750446c976" y="67.227341"/>
     <use style="fill:#ff7f0e;stroke:#ff7f0e;" x="299.771479" xlink:href="#m750446c976" y="63.765196"/>
     <use style="fill:#ff7f0e;stroke:#ff7f0e;" x="305.372464" xlink:href="#m750446c976" y="60.483265"/>
     <use style="fill:#ff7f0e;stroke:#ff7f0e;" x="310.973449" xlink:href="#m750446c976" y="57.409333"/>
     <use style="fill:#ff7f0e;stroke:#ff7f0e;" x="316.574435" xlink:href="#m750446c976" y="55.342764"/>
     <use style="fill:#ff7f0e;stroke:#ff7f0e;" x="322.17542" xlink:href="#m750446c976" y="52.998112"/>
     <use style="fill:#ff7f0e;stroke:#ff7f0e;" x="327.776405" xlink:href="#m750446c976" y="50.694853"/>
     <use style="fill:#ff7f0e;stroke:#ff7f0e;" x="333.37739" xlink:href="#m750446c976" y="48.668376"/>
     <use style="fill:#ff7f0e;stroke:#ff7f0e;" x="338.978376" xlink:href="#m750446c976" y="46.694547"/>
    </g>
   </g>
   <g id="line2d_43">
    <path clip-path="url(#p59ee51f4b4)" d="M 36.525169 319.522815 
L 42.126154 319.522815 
L 47.72714 319.522815 
L 53.328125 319.522815 
L 58.92911 319.522815 
L 64.530096 311.876434 
L 70.131081 267.801934 
L 75.732066 232.586377 
L 81.333052 214.331785 
L 86.934037 204.298742 
L 92.535022 195.157323 
L 98.136007 185.187959 
L 103.736993 176.36623 
L 109.337978 168.247271 
L 114.938963 161.918635 
L 120.539949 151.000661 
L 126.140934 146.222484 
L 131.741919 140.744408 
L 137.342905 135.142639 
L 142.94389 129.234027 
L 148.544875 124.351334 
L 154.145861 118.019754 
L 159.746846 112.012065 
L 165.347831 106.216203 
L 170.948816 103.525854 
L 176.549802 98.068894 
L 182.150787 92.942515 
L 187.751772 88.802875 
L 193.352758 84.000834 
L 198.953743 79.834973 
L 204.554728 76.571418 
L 210.155714 73.416776 
L 215.756699 70.085416 
L 221.357684 66.393273 
L 226.95867 62.774001 
L 232.559655 59.30423 
L 238.16064 56.679921 
L 243.761626 54.610243 
L 249.362611 52.512815 
L 254.963596 50.582793 
L 260.564581 48.453942 
L 266.165567 46.573216 
L 271.766552 44.798129 
L 277.367537 43.339377 
L 282.968523 42.25968 
L 288.569508 41.221383 
L 294.170493 40.046311 
L 299.771479 38.947277 
L 305.372464 37.910292 
L 310.973449 36.865292 
L 316.574435 35.960432 
L 322.17542 35.228756 
L 327.776405 34.626235 
L 333.37739 33.884695 
L 338.978376 33.095094 
" style="fill:none;stroke:#2ca02c;stroke-linecap:square;stroke-width:1.5;"/>
    <defs>
     <path d="M 0 3 
C 0.795609 3 1.55874 2.683901 2.12132 2.12132 
C 2.683901 1.55874 3 0.795609 3 0 
C 3 -0.795609 2.683901 -1.55874 2.12132 -2.12132 
C 1.55874 -2.683901 0.795609 -3 0 -3 
C -0.795609 -3 -1.55874 -2.683901 -2.12132 -2.12132 
C -2.683901 -1.55874 -3 -0.795609 -3 0 
C -3 0.795609 -2.683901 1.55874 -2.12132 2.12132 
C -1.55874 2.683901 -0.795609 3 0 3 
z
" id="m1f42c9cdb5" style="stroke:#2ca02c;"/>
    </defs>
    <g clip-path="url(#p59ee51f4b4)">
     <use style="fill:#2ca02c;stroke:#2ca02c;" x="36.525169" xlink:href="#m1f42c9cdb5" y="319.522815"/>
     <use style="fill:#2ca02c;stroke:#2ca02c;" x="42.126154" xlink:href="#m1f42c9cdb5" y="319.522815"/>
     <use style="fill:#2ca02c;stroke:#2ca02c;" x="47.72714" xlink:href="#m1f42c9cdb5" y="319.522815"/>
     <use style="fill:#2ca02c;stroke:#2ca02c;" x="53.328125" xlink:href="#m1f42c9cdb5" y="319.522815"/>
     <use style="fill:#2ca02c;stroke:#2ca02c;" x="58.92911" xlink:href="#m1f42c9cdb5" y="319.522815"/>
     <use style="fill:#2ca02c;stroke:#2ca02c;" x="64.530096" xlink:href="#m1f42c9cdb5" y="311.876434"/>
     <use style="fill:#2ca02c;stroke:#2ca02c;" x="70.131081" xlink:href="#m1f42c9cdb5" y="267.801934"/>
     <use style="fill:#2ca02c;stroke:#2ca02c;" x="75.732066" xlink:href="#m1f42c9cdb5" y="232.586377"/>
     <use style="fill:#2ca02c;stroke:#2ca02c;" x="81.333052" xlink:href="#m1f42c9cdb5" y="214.331785"/>
     <use style="fill:#2ca02c;stroke:#2ca02c;" x="86.934037" xlink:href="#m1f42c9cdb5" y="204.298742"/>
     <use style="fill:#2ca02c;stroke:#2ca02c;" x="92.535022" xlink:href="#m1f42c9cdb5" y="195.157323"/>
     <use style="fill:#2ca02c;stroke:#2ca02c;" x="98.136007" xlink:href="#m1f42c9cdb5" y="185.187959"/>
     <use style="fill:#2ca02c;stroke:#2ca02c;" x="103.736993" xlink:href="#m1f42c9cdb5" y="176.36623"/>
     <use style="fill:#2ca02c;stroke:#2ca02c;" x="109.337978" xlink:href="#m1f42c9cdb5" y="168.247271"/>
     <use style="fill:#2ca02c;stroke:#2ca02c;" x="114.938963" xlink:href="#m1f42c9cdb5" y="161.918635"/>
     <use style="fill:#2ca02c;stroke:#2ca02c;" x="120.539949" xlink:href="#m1f42c9cdb5" y="151.000661"/>
     <use style="fill:#2ca02c;stroke:#2ca02c;" x="126.140934" xlink:href="#m1f42c9cdb5" y="146.222484"/>
     <use style="fill:#2ca02c;stroke:#2ca02c;" x="131.741919" xlink:href="#m1f42c9cdb5" y="140.744408"/>
     <use style="fill:#2ca02c;stroke:#2ca02c;" x="137.342905" xlink:href="#m1f42c9cdb5" y="135.142639"/>
     <use style="fill:#2ca02c;stroke:#2ca02c;" x="142.94389" xlink:href="#m1f42c9cdb5" y="129.234027"/>
     <use style="fill:#2ca02c;stroke:#2ca02c;" x="148.544875" xlink:href="#m1f42c9cdb5" y="124.351334"/>
     <use style="fill:#2ca02c;stroke:#2ca02c;" x="154.145861" xlink:href="#m1f42c9cdb5" y="118.019754"/>
     <use style="fill:#2ca02c;stroke:#2ca02c;" x="159.746846" xlink:href="#m1f42c9cdb5" y="112.012065"/>
     <use style="fill:#2ca02c;stroke:#2ca02c;" x="165.347831" xlink:href="#m1f42c9cdb5" y="106.216203"/>
     <use style="fill:#2ca02c;stroke:#2ca02c;" x="170.948816" xlink:href="#m1f42c9cdb5" y="103.525854"/>
     <use style="fill:#2ca02c;stroke:#2ca02c;" x="176.549802" xlink:href="#m1f42c9cdb5" y="98.068894"/>
     <use style="fill:#2ca02c;stroke:#2ca02c;" x="182.150787" xlink:href="#m1f42c9cdb5" y="92.942515"/>
     <use style="fill:#2ca02c;stroke:#2ca02c;" x="187.751772" xlink:href="#m1f42c9cdb5" y="88.802875"/>
     <use style="fill:#2ca02c;stroke:#2ca02c;" x="193.352758" xlink:href="#m1f42c9cdb5" y="84.000834"/>
     <use style="fill:#2ca02c;stroke:#2ca02c;" x="198.953743" xlink:href="#m1f42c9cdb5" y="79.834973"/>
     <use style="fill:#2ca02c;stroke:#2ca02c;" x="204.554728" xlink:href="#m1f42c9cdb5" y="76.571418"/>
     <use style="fill:#2ca02c;stroke:#2ca02c;" x="210.155714" xlink:href="#m1f42c9cdb5" y="73.416776"/>
     <use style="fill:#2ca02c;stroke:#2ca02c;" x="215.756699" xlink:href="#m1f42c9cdb5" y="70.085416"/>
     <use style="fill:#2ca02c;stroke:#2ca02c;" x="221.357684" xlink:href="#m1f42c9cdb5" y="66.393273"/>
     <use style="fill:#2ca02c;stroke:#2ca02c;" x="226.95867" xlink:href="#m1f42c9cdb5" y="62.774001"/>
     <use style="fill:#2ca02c;stroke:#2ca02c;" x="232.559655" xlink:href="#m1f42c9cdb5" y="59.30423"/>
     <use style="fill:#2ca02c;stroke:#2ca02c;" x="238.16064" xlink:href="#m1f42c9cdb5" y="56.679921"/>
     <use style="fill:#2ca02c;stroke:#2ca02c;" x="243.761626" xlink:href="#m1f42c9cdb5" y="54.610243"/>
     <use style="fill:#2ca02c;stroke:#2ca02c;" x="249.362611" xlink:href="#m1f42c9cdb5" y="52.512815"/>
     <use style="fill:#2ca02c;stroke:#2ca02c;" x="254.963596" xlink:href="#m1f42c9cdb5" y="50.582793"/>
     <use style="fill:#2ca02c;stroke:#2ca02c;" x="260.564581" xlink:href="#m1f42c9cdb5" y="48.453942"/>
     <use style="fill:#2ca02c;stroke:#2ca02c;" x="266.165567" xlink:href="#m1f42c9cdb5" y="46.573216"/>
     <use style="fill:#2ca02c;stroke:#2ca02c;" x="271.766552" xlink:href="#m1f42c9cdb5" y="44.798129"/>
     <use style="fill:#2ca02c;stroke:#2ca02c;" x="277.367537" xlink:href="#m1f42c9cdb5" y="43.339377"/>
     <use style="fill:#2ca02c;stroke:#2ca02c;" x="282.968523" xlink:href="#m1f42c9cdb5" y="42.25968"/>
     <use style="fill:#2ca02c;stroke:#2ca02c;" x="288.569508" xlink:href="#m1f42c9cdb5" y="41.221383"/>
     <use style="fill:#2ca02c;stroke:#2ca02c;" x="294.170493" xlink:href="#m1f42c9cdb5" y="40.046311"/>
     <use style="fill:#2ca02c;stroke:#2ca02c;" x="299.771479" xlink:href="#m1f42c9cdb5" y="38.947277"/>
     <use style="fill:#2ca02c;stroke:#2ca02c;" x="305.372464" xlink:href="#m1f42c9cdb5" y="37.910292"/>
     <use style="fill:#2ca02c;stroke:#2ca02c;" x="310.973449" xlink:href="#m1f42c9cdb5" y="36.865292"/>
     <use style="fill:#2ca02c;stroke:#2ca02c;" x="316.574435" xlink:href="#m1f42c9cdb5" y="35.960432"/>
     <use style="fill:#2ca02c;stroke:#2ca02c;" x="322.17542" xlink:href="#m1f42c9cdb5" y="35.228756"/>
     <use style="fill:#2ca02c;stroke:#2ca02c;" x="327.776405" xlink:href="#m1f42c9cdb5" y="34.626235"/>
     <use style="fill:#2ca02c;stroke:#2ca02c;" x="333.37739" xlink:href="#m1f42c9cdb5" y="33.884695"/>
     <use style="fill:#2ca02c;stroke:#2ca02c;" x="338.978376" xlink:href="#m1f42c9cdb5" y="33.095094"/>
    </g>
   </g>
   <g id="line2d_44">
    <path clip-path="url(#p59ee51f4b4)" d="M 36.525169 293.330798 
L 42.126154 293.330798 
L 47.72714 293.330798 
L 53.328125 293.330798 
L 58.92911 293.330798 
L 64.530096 293.330798 
L 70.131081 293.330798 
L 75.732066 293.330798 
L 81.333052 283.55694 
L 86.934037 283.55694 
L 92.535022 283.55694 
L 98.136007 283.55694 
L 103.736993 278.038036 
L 109.337978 272.107042 
L 114.938963 268.392271 
L 120.539949 256.484099 
L 126.140934 254.356622 
L 131.741919 247.22636 
L 137.342905 233.030834 
L 142.94389 225.384453 
L 148.544875 216.180682 
L 154.145861 209.736063 
L 159.746846 202.153345 
L 165.347831 198.330713 
L 170.948816 193.636977 
L 176.549802 188.767879 
L 182.150787 182.152403 
L 187.751772 174.125832 
L 193.352758 164.645671 
L 198.953743 159.356537 
L 204.554728 156.600116 
L 210.155714 150.377886 
L 215.756699 142.467033 
L 221.357684 136.645578 
L 226.95867 131.394811 
L 232.559655 125.255101 
L 238.16064 121.947368 
L 243.761626 117.770765 
L 249.362611 112.603656 
L 254.963596 108.20959 
L 260.564581 102.849803 
L 266.165567 96.97267 
L 271.766552 92.684763 
L 277.367537 89.146874 
L 282.968523 85.800834 
L 288.569508 82.413922 
L 294.170493 78.197104 
L 299.771479 74.621572 
L 305.372464 71.326655 
L 310.973449 68.845215 
L 316.574435 65.342233 
L 322.17542 63.30824 
L 327.776405 61.499604 
L 333.37739 58.980854 
L 338.978376 57.144652 
" style="fill:none;stroke:#1f77b4;stroke-linecap:square;stroke-width:1.5;"/>
    <defs>
     <path d="M 0 3 
C 0.795609 3 1.55874 2.683901 2.12132 2.12132 
C 2.683901 1.55874 3 0.795609 3 0 
C 3 -0.795609 2.683901 -1.55874 2.12132 -2.12132 
C 1.55874 -2.683901 0.795609 -3 0 -3 
C -0.795609 -3 -1.55874 -2.683901 -2.12132 -2.12132 
C -2.683901 -1.55874 -3 -0.795609 -3 0 
C -3 0.795609 -2.683901 1.55874 -2.12132 2.12132 
C -1.55874 2.683901 -0.795609 3 0 3 
z
" id="m3e29033e2c" style="stroke:#1f77b4;"/>
    </defs>
    <g clip-path="url(#p59ee51f4b4)">
     <use style="fill:#1f77b4;stroke:#1f77b4;" x="36.525169" xlink:href="#m3e29033e2c" y="293.330798"/>
     <use style="fill:#1f77b4;stroke:#1f77b4;" x="42.126154" xlink:href="#m3e29033e2c" y="293.330798"/>
     <use style="fill:#1f77b4;stroke:#1f77b4;" x="47.72714" xlink:href="#m3e29033e2c" y="293.330798"/>
     <use style="fill:#1f77b4;stroke:#1f77b4;" x="53.328125" xlink:href="#m3e29033e2c" y="293.330798"/>
     <use style="fill:#1f77b4;stroke:#1f77b4;" x="58.92911" xlink:href="#m3e29033e2c" y="293.330798"/>
     <use style="fill:#1f77b4;stroke:#1f77b4;" x="64.530096" xlink:href="#m3e29033e2c" y="293.330798"/>
     <use style="fill:#1f77b4;stroke:#1f77b4;" x="70.131081" xlink:href="#m3e29033e2c" y="293.330798"/>
     <use style="fill:#1f77b4;stroke:#1f77b4;" x="75.732066" xlink:href="#m3e29033e2c" y="293.330798"/>
     <use style="fill:#1f77b4;stroke:#1f77b4;" x="81.333052" xlink:href="#m3e29033e2c" y="283.55694"/>
     <use style="fill:#1f77b4;stroke:#1f77b4;" x="86.934037" xlink:href="#m3e29033e2c" y="283.55694"/>
     <use style="fill:#1f77b4;stroke:#1f77b4;" x="92.535022" xlink:href="#m3e29033e2c" y="283.55694"/>
     <use style="fill:#1f77b4;stroke:#1f77b4;" x="98.136007" xlink:href="#m3e29033e2c" y="283.55694"/>
     <use style="fill:#1f77b4;stroke:#1f77b4;" x="103.736993" xlink:href="#m3e29033e2c" y="278.038036"/>
     <use style="fill:#1f77b4;stroke:#1f77b4;" x="109.337978" xlink:href="#m3e29033e2c" y="272.107042"/>
     <use style="fill:#1f77b4;stroke:#1f77b4;" x="114.938963" xlink:href="#m3e29033e2c" y="268.392271"/>
     <use style="fill:#1f77b4;stroke:#1f77b4;" x="120.539949" xlink:href="#m3e29033e2c" y="256.484099"/>
     <use style="fill:#1f77b4;stroke:#1f77b4;" x="126.140934" xlink:href="#m3e29033e2c" y="254.356622"/>
     <use style="fill:#1f77b4;stroke:#1f77b4;" x="131.741919" xlink:href="#m3e29033e2c" y="247.22636"/>
     <use style="fill:#1f77b4;stroke:#1f77b4;" x="137.342905" xlink:href="#m3e29033e2c" y="233.030834"/>
     <use style="fill:#1f77b4;stroke:#1f77b4;" x="142.94389" xlink:href="#m3e29033e2c" y="225.384453"/>
     <use style="fill:#1f77b4;stroke:#1f77b4;" x="148.544875" xlink:href="#m3e29033e2c" y="216.180682"/>
     <use style="fill:#1f77b4;stroke:#1f77b4;" x="154.145861" xlink:href="#m3e29033e2c" y="209.736063"/>
     <use style="fill:#1f77b4;stroke:#1f77b4;" x="159.746846" xlink:href="#m3e29033e2c" y="202.153345"/>
     <use style="fill:#1f77b4;stroke:#1f77b4;" x="165.347831" xlink:href="#m3e29033e2c" y="198.330713"/>
     <use style="fill:#1f77b4;stroke:#1f77b4;" x="170.948816" xlink:href="#m3e29033e2c" y="193.636977"/>
     <use style="fill:#1f77b4;stroke:#1f77b4;" x="176.549802" xlink:href="#m3e29033e2c" y="188.767879"/>
     <use style="fill:#1f77b4;stroke:#1f77b4;" x="182.150787" xlink:href="#m3e29033e2c" y="182.152403"/>
     <use style="fill:#1f77b4;stroke:#1f77b4;" x="187.751772" xlink:href="#m3e29033e2c" y="174.125832"/>
     <use style="fill:#1f77b4;stroke:#1f77b4;" x="193.352758" xlink:href="#m3e29033e2c" y="164.645671"/>
     <use style="fill:#1f77b4;stroke:#1f77b4;" x="198.953743" xlink:href="#m3e29033e2c" y="159.356537"/>
     <use style="fill:#1f77b4;stroke:#1f77b4;" x="204.554728" xlink:href="#m3e29033e2c" y="156.600116"/>
     <use style="fill:#1f77b4;stroke:#1f77b4;" x="210.155714" xlink:href="#m3e29033e2c" y="150.377886"/>
     <use style="fill:#1f77b4;stroke:#1f77b4;" x="215.756699" xlink:href="#m3e29033e2c" y="142.467033"/>
     <use style="fill:#1f77b4;stroke:#1f77b4;" x="221.357684" xlink:href="#m3e29033e2c" y="136.645578"/>
     <use style="fill:#1f77b4;stroke:#1f77b4;" x="226.95867" xlink:href="#m3e29033e2c" y="131.394811"/>
     <use style="fill:#1f77b4;stroke:#1f77b4;" x="232.559655" xlink:href="#m3e29033e2c" y="125.255101"/>
     <use style="fill:#1f77b4;stroke:#1f77b4;" x="238.16064" xlink:href="#m3e29033e2c" y="121.947368"/>
     <use style="fill:#1f77b4;stroke:#1f77b4;" x="243.761626" xlink:href="#m3e29033e2c" y="117.770765"/>
     <use style="fill:#1f77b4;stroke:#1f77b4;" x="249.362611" xlink:href="#m3e29033e2c" y="112.603656"/>
     <use style="fill:#1f77b4;stroke:#1f77b4;" x="254.963596" xlink:href="#m3e29033e2c" y="108.20959"/>
     <use style="fill:#1f77b4;stroke:#1f77b4;" x="260.564581" xlink:href="#m3e29033e2c" y="102.849803"/>
     <use style="fill:#1f77b4;stroke:#1f77b4;" x="266.165567" xlink:href="#m3e29033e2c" y="96.97267"/>
     <use style="fill:#1f77b4;stroke:#1f77b4;" x="271.766552" xlink:href="#m3e29033e2c" y="92.684763"/>
     <use style="fill:#1f77b4;stroke:#1f77b4;" x="277.367537" xlink:href="#m3e29033e2c" y="89.146874"/>
     <use style="fill:#1f77b4;stroke:#1f77b4;" x="282.968523" xlink:href="#m3e29033e2c" y="85.800834"/>
     <use style="fill:#1f77b4;stroke:#1f77b4;" x="288.569508" xlink:href="#m3e29033e2c" y="82.413922"/>
     <use style="fill:#1f77b4;stroke:#1f77b4;" x="294.170493" xlink:href="#m3e29033e2c" y="78.197104"/>
     <use style="fill:#1f77b4;stroke:#1f77b4;" x="299.771479" xlink:href="#m3e29033e2c" y="74.621572"/>
     <use style="fill:#1f77b4;stroke:#1f77b4;" x="305.372464" xlink:href="#m3e29033e2c" y="71.326655"/>
     <use style="fill:#1f77b4;stroke:#1f77b4;" x="310.973449" xlink:href="#m3e29033e2c" y="68.845215"/>
     <use style="fill:#1f77b4;stroke:#1f77b4;" x="316.574435" xlink:href="#m3e29033e2c" y="65.342233"/>
     <use style="fill:#1f77b4;stroke:#1f77b4;" x="322.17542" xlink:href="#m3e29033e2c" y="63.30824"/>
     <use style="fill:#1f77b4;stroke:#1f77b4;" x="327.776405" xlink:href="#m3e29033e2c" y="61.499604"/>
     <use style="fill:#1f77b4;stroke:#1f77b4;" x="333.37739" xlink:href="#m3e29033e2c" y="58.980854"/>
     <use style="fill:#1f77b4;stroke:#1f77b4;" x="338.978376" xlink:href="#m3e29033e2c" y="57.144652"/>
    </g>
   </g>
   <g id="line2d_45">
    <path clip-path="url(#p59ee51f4b4)" d="M 53.328125 114.8741 
L 388.128125 114.8741 
" style="fill:none;stroke:#1f77b4;stroke-dasharray:7.4,3.2;stroke-dashoffset:0;stroke-opacity:0.7;stroke-width:2;"/>
   </g>
   <g id="line2d_46">
    <path clip-path="url(#p59ee51f4b4)" d="M 53.328125 73.891861 
L 388.128125 73.891861 
" style="fill:none;stroke:#ff7f0e;stroke-dasharray:7.4,3.2;stroke-dashoffset:0;stroke-opacity:0.7;stroke-width:2;"/>
   </g>
   <g id="line2d_47">
    <path clip-path="url(#p59ee51f4b4)" d="M 53.328125 92.942515 
L 388.128125 92.942515 
" style="fill:none;stroke:#2ca02c;stroke-dasharray:12.8,3.2,2,3.2;stroke-dashoffset:0;stroke-opacity:0.7;stroke-width:2;"/>
   </g>
   <g id="line2d_48">
    <path clip-path="url(#p59ee51f4b4)" d="M 92.535022 271.758849 
L 92.535022 22.318125 
" style="fill:none;stroke:#2ca02c;stroke-linecap:square;stroke-opacity:0.3;stroke-width:4;"/>
   </g>
   <g id="line2d_49">
    <path clip-path="url(#p59ee51f4b4)" d="M 182.150787 271.758849 
L 182.150787 22.318125 
" style="fill:none;stroke:#ff7f0e;stroke-linecap:square;stroke-opacity:0.3;stroke-width:4;"/>
   </g>
   <g id="line2d_50">
    <path clip-path="url(#p59ee51f4b4)" d="M 215.756699 271.758849 
L 215.756699 22.318125 
" style="fill:none;stroke:#1f77b4;stroke-linecap:square;stroke-opacity:0.3;stroke-width:4;"/>
   </g>
   <g id="patch_3">
    <path d="M 53.328125 239.758125 
L 53.328125 22.318125 
" style="fill:none;stroke:#000000;stroke-linecap:square;stroke-linejoin:miter;stroke-width:0.8;"/>
   </g>
   <g id="patch_4">
    <path d="M 388.128125 239.758125 
L 388.128125 22.318125 
" style="fill:none;stroke:#000000;stroke-linecap:square;stroke-linejoin:miter;stroke-width:0.8;"/>
   </g>
   <g id="patch_5">
    <path d="M 53.328125 239.758125 
L 388.128125 239.758125 
" style="fill:none;stroke:#000000;stroke-linecap:square;stroke-linejoin:miter;stroke-width:0.8;"/>
   </g>
   <g id="patch_6">
    <path d="M 53.328125 22.318125 
L 388.128125 22.318125 
" style="fill:none;stroke:#000000;stroke-linecap:square;stroke-linejoin:miter;stroke-width:0.8;"/>
   </g>
   <g id="text_21">
    <!--  Scott Sievert -->
    <defs>
     <path d="M 50 72.515625 
Q 57.421875 72.515625 63.84375 69.828125 
Q 70.265625 67.140625 75.59375 61.8125 
Q 80.90625 56.5 83.546875 50.09375 
Q 86.1875 43.703125 86.1875 36.1875 
Q 86.1875 28.765625 83.546875 22.390625 
Q 80.90625 16.015625 75.59375 10.6875 
Q 70.265625 5.375 63.84375 2.6875 
Q 57.421875 0 50 0 
Q 42.578125 0 36.15625 2.6875 
Q 29.734375 5.375 24.421875 10.6875 
Q 19.09375 16.015625 16.453125 22.390625 
Q 13.8125 28.765625 13.8125 36.1875 
Q 13.8125 43.703125 16.453125 50.09375 
Q 19.09375 56.5 24.421875 61.8125 
Q 29.734375 67.140625 36.15625 69.828125 
Q 42.578125 72.515625 50 72.515625 
z
M 50 67.484375 
Q 43.609375 67.484375 38.078125 65.1875 
Q 32.5625 62.890625 27.984375 58.296875 
Q 23.390625 53.71875 21.046875 48.125 
Q 18.703125 42.53125 18.703125 36.1875 
Q 18.703125 29.890625 21.046875 24.34375 
Q 23.390625 18.796875 27.984375 14.203125 
Q 32.5625 9.625 38.078125 7.296875 
Q 43.609375 4.984375 50 4.984375 
Q 56.453125 4.984375 61.984375 7.296875 
Q 67.53125 9.625 72.125 14.203125 
Q 76.65625 18.75 78.921875 24.265625 
Q 81.203125 29.78125 81.203125 36.1875 
Q 81.203125 42.671875 78.90625 48.21875 
Q 76.609375 53.765625 72.125 58.296875 
Q 67.53125 62.890625 61.984375 65.1875 
Q 56.453125 67.484375 50 67.484375 
z
M 64.59375 55.515625 
L 64.59375 49.21875 
Q 61.375 50.828125 58.203125 51.609375 
Q 55.03125 52.390625 51.8125 52.390625 
Q 44.53125 52.390625 40.453125 48.109375 
Q 36.375 43.84375 36.375 36.1875 
Q 36.375 28.421875 40.546875 24.171875 
Q 44.734375 19.921875 52.296875 19.921875 
Q 55.421875 19.921875 58.390625 20.671875 
Q 61.375 21.4375 64.59375 23.09375 
L 64.59375 16.890625 
Q 61.328125 15.484375 57.984375 14.796875 
Q 54.640625 14.109375 51.21875 14.109375 
Q 40.671875 14.109375 34.546875 20.0625 
Q 28.421875 26.03125 28.421875 36.1875 
Q 28.421875 46.390625 34.546875 52.296875 
Q 40.671875 58.203125 51.21875 58.203125 
Q 54.78125 58.203125 58.09375 57.515625 
Q 61.421875 56.84375 64.59375 55.515625 
z
" id="DejaVuSans-169"/>
     <path d="M 53.515625 70.515625 
L 53.515625 60.890625 
Q 47.90625 63.578125 42.921875 64.890625 
Q 37.9375 66.21875 33.296875 66.21875 
Q 25.25 66.21875 20.875 63.09375 
Q 16.5 59.96875 16.5 54.203125 
Q 16.5 49.359375 19.40625 46.890625 
Q 22.3125 44.4375 30.421875 42.921875 
L 36.375 41.703125 
Q 47.40625 39.59375 52.65625 34.296875 
Q 57.90625 29 57.90625 20.125 
Q 57.90625 9.515625 50.796875 4.046875 
Q 43.703125 -1.421875 29.984375 -1.421875 
Q 24.8125 -1.421875 18.96875 -0.25 
Q 13.140625 0.921875 6.890625 3.21875 
L 6.890625 13.375 
Q 12.890625 10.015625 18.65625 8.296875 
Q 24.421875 6.59375 29.984375 6.59375 
Q 38.421875 6.59375 43.015625 9.90625 
Q 47.609375 13.234375 47.609375 19.390625 
Q 47.609375 24.75 44.3125 27.78125 
Q 41.015625 30.8125 33.5 32.328125 
L 27.484375 33.5 
Q 16.453125 35.6875 11.515625 40.375 
Q 6.59375 45.0625 6.59375 53.421875 
Q 6.59375 63.09375 13.40625 68.65625 
Q 20.21875 74.21875 32.171875 74.21875 
Q 37.3125 74.21875 42.625 73.28125 
Q 47.953125 72.359375 53.515625 70.515625 
z
" id="DejaVuSans-83"/>
     <path d="M 48.78125 52.59375 
L 48.78125 44.1875 
Q 44.96875 46.296875 41.140625 47.34375 
Q 37.3125 48.390625 33.40625 48.390625 
Q 24.65625 48.390625 19.8125 42.84375 
Q 14.984375 37.3125 14.984375 27.296875 
Q 14.984375 17.28125 19.8125 11.734375 
Q 24.65625 6.203125 33.40625 6.203125 
Q 37.3125 6.203125 41.140625 7.25 
Q 44.96875 8.296875 48.78125 10.40625 
L 48.78125 2.09375 
Q 45.015625 0.34375 40.984375 -0.53125 
Q 36.96875 -1.421875 32.421875 -1.421875 
Q 20.0625 -1.421875 12.78125 6.34375 
Q 5.515625 14.109375 5.515625 27.296875 
Q 5.515625 40.671875 12.859375 48.328125 
Q 20.21875 56 33.015625 56 
Q 37.15625 56 41.109375 55.140625 
Q 45.0625 54.296875 48.78125 52.59375 
z
" id="DejaVuSans-99"/>
     <path d="M 18.3125 70.21875 
L 18.3125 54.6875 
L 36.8125 54.6875 
L 36.8125 47.703125 
L 18.3125 47.703125 
L 18.3125 18.015625 
Q 18.3125 11.328125 20.140625 9.421875 
Q 21.96875 7.515625 27.59375 7.515625 
L 36.8125 7.515625 
L 36.8125 0 
L 27.59375 0 
Q 17.1875 0 13.234375 3.875 
Q 9.28125 7.765625 9.28125 18.015625 
L 9.28125 47.703125 
L 2.6875 47.703125 
L 2.6875 54.6875 
L 9.28125 54.6875 
L 9.28125 70.21875 
z
" id="DejaVuSans-116"/>
     <path d="M 2.984375 54.6875 
L 12.5 54.6875 
L 29.59375 8.796875 
L 46.6875 54.6875 
L 56.203125 54.6875 
L 35.6875 0 
L 23.484375 0 
z
" id="DejaVuSans-118"/>
    </defs>
    <g style="fill:#aaaaaa;" transform="translate(315.315316 332.959892)scale(0.1 -0.1)">
     <use xlink:href="#DejaVuSans-169"/>
     <use x="100" xlink:href="#DejaVuSans-32"/>
     <use x="131.787109" xlink:href="#DejaVuSans-83"/>
     <use x="195.263672" xlink:href="#DejaVuSans-99"/>
     <use x="250.244141" xlink:href="#DejaVuSans-111"/>
     <use x="311.425781" xlink:href="#DejaVuSans-116"/>
     <use x="350.634766" xlink:href="#DejaVuSans-116"/>
     <use x="389.84375" xlink:href="#DejaVuSans-32"/>
     <use x="421.630859" xlink:href="#DejaVuSans-83"/>
     <use x="485.107422" xlink:href="#DejaVuSans-105"/>
     <use x="512.890625" xlink:href="#DejaVuSans-101"/>
     <use x="574.414062" xlink:href="#DejaVuSans-118"/>
     <use x="633.59375" xlink:href="#DejaVuSans-101"/>
     <use x="695.117188" xlink:href="#DejaVuSans-114"/>
     <use x="736.230469" xlink:href="#DejaVuSans-116"/>
    </g>
   </g>
   <g id="text_22">
    <!-- Cases per country -->
    <defs>
     <path d="M 8.5 21.578125 
L 8.5 54.6875 
L 17.484375 54.6875 
L 17.484375 21.921875 
Q 17.484375 14.15625 20.5 10.265625 
Q 23.53125 6.390625 29.59375 6.390625 
Q 36.859375 6.390625 41.078125 11.03125 
Q 45.3125 15.671875 45.3125 23.6875 
L 45.3125 54.6875 
L 54.296875 54.6875 
L 54.296875 0 
L 45.3125 0 
L 45.3125 8.40625 
Q 42.046875 3.421875 37.71875 1 
Q 33.40625 -1.421875 27.6875 -1.421875 
Q 18.265625 -1.421875 13.375 4.4375 
Q 8.5 10.296875 8.5 21.578125 
z
M 31.109375 56 
z
" id="DejaVuSans-117"/>
     <path d="M 32.171875 -5.078125 
Q 28.375 -14.84375 24.75 -17.8125 
Q 21.140625 -20.796875 15.09375 -20.796875 
L 7.90625 -20.796875 
L 7.90625 -13.28125 
L 13.1875 -13.28125 
Q 16.890625 -13.28125 18.9375 -11.515625 
Q 21 -9.765625 23.484375 -3.21875 
L 25.09375 0.875 
L 2.984375 54.6875 
L 12.5 54.6875 
L 29.59375 11.921875 
L 46.6875 54.6875 
L 56.203125 54.6875 
z
" id="DejaVuSans-121"/>
    </defs>
    <g transform="translate(166.191875 16.318125)scale(0.12 -0.12)">
     <use xlink:href="#DejaVuSans-67"/>
     <use x="69.824219" xlink:href="#DejaVuSans-97"/>
     <use x="131.103516" xlink:href="#DejaVuSans-115"/>
     <use x="183.203125" xlink:href="#DejaVuSans-101"/>
     <use x="244.726562" xlink:href="#DejaVuSans-115"/>
     <use x="296.826172" xlink:href="#DejaVuSans-32"/>
     <use x="328.613281" xlink:href="#DejaVuSans-112"/>
     <use x="392.089844" xlink:href="#DejaVuSans-101"/>
     <use x="453.613281" xlink:href="#DejaVuSans-114"/>
     <use x="494.726562" xlink:href="#DejaVuSans-32"/>
     <use x="526.513672" xlink:href="#DejaVuSans-99"/>
     <use x="581.494141" xlink:href="#DejaVuSans-111"/>
     <use x="642.675781" xlink:href="#DejaVuSans-117"/>
     <use x="706.054688" xlink:href="#DejaVuSans-110"/>
     <use x="769.433594" xlink:href="#DejaVuSans-116"/>
     <use x="808.642578" xlink:href="#DejaVuSans-114"/>
     <use x="849.755859" xlink:href="#DejaVuSans-121"/>
    </g>
   </g>
   <g id="legend_1">
    <g id="patch_7">
     <path d="M 249.604688 234.758125 
L 381.128125 234.758125 
Q 383.128125 234.758125 383.128125 232.758125 
L 383.128125 175.02375 
Q 383.128125 173.02375 381.128125 173.02375 
L 249.604688 173.02375 
Q 247.604688 173.02375 247.604688 175.02375 
L 247.604688 232.758125 
Q 247.604688 234.758125 249.604688 234.758125 
z
" style="fill:#ffffff;opacity:0.8;stroke:#cccccc;stroke-linejoin:miter;"/>
    </g>
    <g id="text_23">
     <!-- Country (cases in 7 days) -->
     <defs>
      <path d="M 31 75.875 
Q 24.46875 64.65625 21.28125 53.65625 
Q 18.109375 42.671875 18.109375 31.390625 
Q 18.109375 20.125 21.3125 9.0625 
Q 24.515625 -2 31 -13.1875 
L 23.1875 -13.1875 
Q 15.875 -1.703125 12.234375 9.375 
Q 8.59375 20.453125 8.59375 31.390625 
Q 8.59375 42.28125 12.203125 53.3125 
Q 15.828125 64.359375 23.1875 75.875 
z
" id="DejaVuSans-40"/>
      <path d="M 8.203125 72.90625 
L 55.078125 72.90625 
L 55.078125 68.703125 
L 28.609375 0 
L 18.3125 0 
L 43.21875 64.59375 
L 8.203125 64.59375 
z
" id="DejaVuSans-55"/>
      <path d="M 45.40625 46.390625 
L 45.40625 75.984375 
L 54.390625 75.984375 
L 54.390625 0 
L 45.40625 0 
L 45.40625 8.203125 
Q 42.578125 3.328125 38.25 0.953125 
Q 33.9375 -1.421875 27.875 -1.421875 
Q 17.96875 -1.421875 11.734375 6.484375 
Q 5.515625 14.40625 5.515625 27.296875 
Q 5.515625 40.1875 11.734375 48.09375 
Q 17.96875 56 27.875 56 
Q 33.9375 56 38.25 53.625 
Q 42.578125 51.265625 45.40625 46.390625 
z
M 14.796875 27.296875 
Q 14.796875 17.390625 18.875 11.75 
Q 22.953125 6.109375 30.078125 6.109375 
Q 37.203125 6.109375 41.296875 11.75 
Q 45.40625 17.390625 45.40625 27.296875 
Q 45.40625 37.203125 41.296875 42.84375 
Q 37.203125 48.484375 30.078125 48.484375 
Q 22.953125 48.484375 18.875 42.84375 
Q 14.796875 37.203125 14.796875 27.296875 
z
" id="DejaVuSans-100"/>
      <path d="M 8.015625 75.875 
L 15.828125 75.875 
Q 23.140625 64.359375 26.78125 53.3125 
Q 30.421875 42.28125 30.421875 31.390625 
Q 30.421875 20.453125 26.78125 9.375 
Q 23.140625 -1.703125 15.828125 -13.1875 
L 8.015625 -13.1875 
Q 14.5 -2 17.703125 9.0625 
Q 20.90625 20.125 20.90625 31.390625 
Q 20.90625 42.671875 17.703125 53.65625 
Q 14.5 64.65625 8.015625 75.875 
z
" id="DejaVuSans-41"/>
     </defs>
     <g transform="translate(251.604688 184.622187)scale(0.1 -0.1)">
      <use xlink:href="#DejaVuSans-67"/>
      <use x="69.824219" xlink:href="#DejaVuSans-111"/>
      <use x="131.005859" xlink:href="#DejaVuSans-117"/>
      <use x="194.384766" xlink:href="#DejaVuSans-110"/>
      <use x="257.763672" xlink:href="#DejaVuSans-116"/>
      <use x="296.972656" xlink:href="#DejaVuSans-114"/>
      <use x="338.085938" xlink:href="#DejaVuSans-121"/>
      <use x="397.265625" xlink:href="#DejaVuSans-32"/>
      <use x="429.052734" xlink:href="#DejaVuSans-40"/>
      <use x="468.066406" xlink:href="#DejaVuSans-99"/>
      <use x="523.046875" xlink:href="#DejaVuSans-97"/>
      <use x="584.326172" xlink:href="#DejaVuSans-115"/>
      <use x="636.425781" xlink:href="#DejaVuSans-101"/>
      <use x="697.949219" xlink:href="#DejaVuSans-115"/>
      <use x="750.048828" xlink:href="#DejaVuSans-32"/>
      <use x="781.835938" xlink:href="#DejaVuSans-105"/>
      <use x="809.619141" xlink:href="#DejaVuSans-110"/>
      <use x="872.998047" xlink:href="#DejaVuSans-32"/>
      <use x="904.785156" xlink:href="#DejaVuSans-55"/>
      <use x="968.408203" xlink:href="#DejaVuSans-32"/>
      <use x="1000.195312" xlink:href="#DejaVuSans-100"/>
      <use x="1063.671875" xlink:href="#DejaVuSans-97"/>
      <use x="1124.951172" xlink:href="#DejaVuSans-121"/>
      <use x="1184.130859" xlink:href="#DejaVuSans-115"/>
      <use x="1236.230469" xlink:href="#DejaVuSans-41"/>
     </g>
    </g>
    <g id="line2d_51">
     <path d="M 272.866406 195.800312 
L 292.866406 195.800312 
" style="fill:none;stroke:#ff7f0e;stroke-linecap:square;stroke-width:1.5;"/>
    </g>
    <g id="line2d_52">
     <g>
      <use style="fill:#ff7f0e;stroke:#ff7f0e;" x="282.866406" xlink:href="#m750446c976" y="195.800312"/>
     </g>
    </g>
    <g id="text_24">
     <!-- US (1.8$\times$) -->
     <defs>
      <path d="M 8.6875 72.90625 
L 18.609375 72.90625 
L 18.609375 28.609375 
Q 18.609375 16.890625 22.84375 11.734375 
Q 27.09375 6.59375 36.625 6.59375 
Q 46.09375 6.59375 50.34375 11.734375 
Q 54.59375 16.890625 54.59375 28.609375 
L 54.59375 72.90625 
L 64.5 72.90625 
L 64.5 27.390625 
Q 64.5 13.140625 57.4375 5.859375 
Q 50.390625 -1.421875 36.625 -1.421875 
Q 22.796875 -1.421875 15.734375 5.859375 
Q 8.6875 13.140625 8.6875 27.390625 
z
" id="DejaVuSans-85"/>
      <path d="M 70.125 53.71875 
L 47.796875 31.296875 
L 70.125 8.984375 
L 64.3125 3.078125 
L 41.890625 25.484375 
L 19.484375 3.078125 
L 13.71875 8.984375 
L 35.984375 31.296875 
L 13.71875 53.71875 
L 19.484375 59.625 
L 41.890625 37.203125 
L 64.3125 59.625 
z
" id="DejaVuSans-215"/>
     </defs>
     <g transform="translate(300.866406 199.300312)scale(0.1 -0.1)">
      <use transform="translate(0 0.125)" xlink:href="#DejaVuSans-85"/>
      <use transform="translate(73.193359 0.125)" xlink:href="#DejaVuSans-83"/>
      <use transform="translate(136.669922 0.125)" xlink:href="#DejaVuSans-32"/>
      <use transform="translate(168.457031 0.125)" xlink:href="#DejaVuSans-40"/>
      <use transform="translate(207.470703 0.125)" xlink:href="#DejaVuSans-49"/>
      <use transform="translate(271.09375 0.125)" xlink:href="#DejaVuSans-46"/>
      <use transform="translate(302.849609 0.125)" xlink:href="#DejaVuSans-56"/>
      <use transform="translate(366.472656 0.125)" xlink:href="#DejaVuSans-215"/>
      <use transform="translate(450.261719 0.125)" xlink:href="#DejaVuSans-41"/>
     </g>
    </g>
    <g id="line2d_53">
     <path d="M 272.866406 210.48 
L 292.866406 210.48 
" style="fill:none;stroke:#2ca02c;stroke-linecap:square;stroke-width:1.5;"/>
    </g>
    <g id="line2d_54">
     <g>
      <use style="fill:#2ca02c;stroke:#2ca02c;" x="282.866406" xlink:href="#m1f42c9cdb5" y="210.48"/>
     </g>
    </g>
    <g id="text_25">
     <!-- Italy (1.2$\times$) -->
     <defs>
      <path d="M 9.8125 72.90625 
L 19.671875 72.90625 
L 19.671875 0 
L 9.8125 0 
z
" id="DejaVuSans-73"/>
     </defs>
     <g transform="translate(300.866406 213.98)scale(0.1 -0.1)">
      <use transform="translate(0 0.015625)" xlink:href="#DejaVuSans-73"/>
      <use transform="translate(29.492188 0.015625)" xlink:href="#DejaVuSans-116"/>
      <use transform="translate(68.701172 0.015625)" xlink:href="#DejaVuSans-97"/>
      <use transform="translate(129.980469 0.015625)" xlink:href="#DejaVuSans-108"/>
      <use transform="translate(157.763672 0.015625)" xlink:href="#DejaVuSans-121"/>
      <use transform="translate(216.943359 0.015625)" xlink:href="#DejaVuSans-32"/>
      <use transform="translate(248.730469 0.015625)" xlink:href="#DejaVuSans-40"/>
      <use transform="translate(287.744141 0.015625)" xlink:href="#DejaVuSans-49"/>
      <use transform="translate(351.367188 0.015625)" xlink:href="#DejaVuSans-46"/>
      <use transform="translate(383.076172 0.015625)" xlink:href="#DejaVuSans-50"/>
      <use transform="translate(446.699219 0.015625)" xlink:href="#DejaVuSans-215"/>
      <use transform="translate(530.488281 0.015625)" xlink:href="#DejaVuSans-41"/>
     </g>
    </g>
    <g id="line2d_55">
     <path d="M 272.866406 225.178437 
L 292.866406 225.178437 
" style="fill:none;stroke:#1f77b4;stroke-linecap:square;stroke-width:1.5;"/>
    </g>
    <g id="line2d_56">
     <g>
      <use style="fill:#1f77b4;stroke:#1f77b4;" x="282.866406" xlink:href="#m3e29033e2c" y="225.178437"/>
     </g>
    </g>
    <g id="text_26">
     <!-- UK (1.9$\times$) -->
     <defs>
      <path d="M 9.8125 72.90625 
L 19.671875 72.90625 
L 19.671875 42.09375 
L 52.390625 72.90625 
L 65.09375 72.90625 
L 28.90625 38.921875 
L 67.671875 0 
L 54.6875 0 
L 19.671875 35.109375 
L 19.671875 0 
L 9.8125 0 
z
" id="DejaVuSans-75"/>
     </defs>
     <g transform="translate(300.866406 228.678437)scale(0.1 -0.1)">
      <use transform="translate(0 0.125)" xlink:href="#DejaVuSans-85"/>
      <use transform="translate(73.177734 0.125)" xlink:href="#DejaVuSans-75"/>
      <use transform="translate(138.753906 0.125)" xlink:href="#DejaVuSans-32"/>
      <use transform="translate(170.541016 0.125)" xlink:href="#DejaVuSans-40"/>
      <use transform="translate(209.554688 0.125)" xlink:href="#DejaVuSans-49"/>
      <use transform="translate(273.177734 0.125)" xlink:href="#DejaVuSans-46"/>
      <use transform="translate(304.964844 0.125)" xlink:href="#DejaVuSans-57"/>
      <use transform="translate(368.587891 0.125)" xlink:href="#DejaVuSans-215"/>
      <use transform="translate(452.376953 0.125)" xlink:href="#DejaVuSans-41"/>
     </g>
    </g>
   </g>
   <g id="legend_2">
    <g id="patch_8">
     <path d="M 62.024125 326.734125 
L 364.524125 326.734125 
Q 366.524125 326.734125 366.524125 324.734125 
L 366.524125 273.960375 
Q 366.524125 271.960375 364.524125 271.960375 
L 62.024125 271.960375 
Q 60.024125 271.960375 60.024125 273.960375 
L 60.024125 324.734125 
Q 60.024125 326.734125 62.024125 326.734125 
z
" style="fill:#ffffff;opacity:0.8;stroke:#cccccc;stroke-linejoin:miter;"/>
    </g>
    <g id="line2d_57">
     <path d="M 64.024125 286.7085 
L 84.024125 286.7085 
" style="fill:none;stroke:#ff7f0e;stroke-linecap:square;stroke-opacity:0.7;stroke-width:1.5;"/>
    </g>
    <g id="line2d_58"/>
    <g id="text_27">
     <!-- 2$\times$ every 2.4 days -->
     <defs>
      <path d="M 37.796875 64.3125 
L 12.890625 25.390625 
L 37.796875 25.390625 
z
M 35.203125 72.90625 
L 47.609375 72.90625 
L 47.609375 25.390625 
L 58.015625 25.390625 
L 58.015625 17.1875 
L 47.609375 17.1875 
L 47.609375 0 
L 37.796875 0 
L 37.796875 17.1875 
L 4.890625 17.1875 
L 4.890625 26.703125 
z
" id="DejaVuSans-52"/>
     </defs>
     <g transform="translate(92.024125 283.560375)scale(0.1 -0.1)">
      <use transform="translate(0 0.015625)" xlink:href="#DejaVuSans-50"/>
      <use transform="translate(63.623047 0.015625)" xlink:href="#DejaVuSans-215"/>
      <use transform="translate(147.412109 0.015625)" xlink:href="#DejaVuSans-32"/>
      <use transform="translate(179.199219 0.015625)" xlink:href="#DejaVuSans-101"/>
      <use transform="translate(240.722656 0.015625)" xlink:href="#DejaVuSans-118"/>
      <use transform="translate(299.902344 0.015625)" xlink:href="#DejaVuSans-101"/>
      <use transform="translate(361.425781 0.015625)" xlink:href="#DejaVuSans-114"/>
      <use transform="translate(402.539062 0.015625)" xlink:href="#DejaVuSans-121"/>
      <use transform="translate(461.71875 0.015625)" xlink:href="#DejaVuSans-32"/>
      <use transform="translate(493.505859 0.015625)" xlink:href="#DejaVuSans-50"/>
      <use transform="translate(557.128906 0.015625)" xlink:href="#DejaVuSans-46"/>
      <use transform="translate(588.916016 0.015625)" xlink:href="#DejaVuSans-52"/>
      <use transform="translate(652.539062 0.015625)" xlink:href="#DejaVuSans-32"/>
      <use transform="translate(684.326172 0.015625)" xlink:href="#DejaVuSans-100"/>
      <use transform="translate(747.802734 0.015625)" xlink:href="#DejaVuSans-97"/>
      <use transform="translate(809.082031 0.015625)" xlink:href="#DejaVuSans-121"/>
      <use transform="translate(868.261719 0.015625)" xlink:href="#DejaVuSans-115"/>
     </g>
     <!-- (all solid lines) -->
     <g transform="translate(92.024125 294.7785)scale(0.1 -0.1)">
      <use xlink:href="#DejaVuSans-40"/>
      <use x="39.013672" xlink:href="#DejaVuSans-97"/>
      <use x="100.292969" xlink:href="#DejaVuSans-108"/>
      <use x="128.076172" xlink:href="#DejaVuSans-108"/>
      <use x="155.859375" xlink:href="#DejaVuSans-32"/>
      <use x="187.646484" xlink:href="#DejaVuSans-115"/>
      <use x="239.746094" xlink:href="#DejaVuSans-111"/>
      <use x="300.927734" xlink:href="#DejaVuSans-108"/>
      <use x="328.710938" xlink:href="#DejaVuSans-105"/>
      <use x="356.494141" xlink:href="#DejaVuSans-100"/>
      <use x="419.970703" xlink:href="#DejaVuSans-32"/>
      <use x="451.757812" xlink:href="#DejaVuSans-108"/>
      <use x="479.541016" xlink:href="#DejaVuSans-105"/>
      <use x="507.324219" xlink:href="#DejaVuSans-110"/>
      <use x="570.703125" xlink:href="#DejaVuSans-101"/>
      <use x="632.226562" xlink:href="#DejaVuSans-115"/>
      <use x="684.326172" xlink:href="#DejaVuSans-41"/>
     </g>
    </g>
    <g id="line2d_59">
     <path d="M 64.024125 312.595375 
L 84.024125 312.595375 
" style="fill:none;stroke:#ff7f0e;stroke-dasharray:7.4,3.2;stroke-dashoffset:0;stroke-opacity:0.7;stroke-width:2;"/>
    </g>
    <g id="line2d_60"/>
    <g id="text_28">
     <!-- Est. health care saturation -->
     <defs>
      <path d="M 9.8125 72.90625 
L 55.90625 72.90625 
L 55.90625 64.59375 
L 19.671875 64.59375 
L 19.671875 43.015625 
L 54.390625 43.015625 
L 54.390625 34.71875 
L 19.671875 34.71875 
L 19.671875 8.296875 
L 56.78125 8.296875 
L 56.78125 0 
L 9.8125 0 
z
" id="DejaVuSans-69"/>
      <path d="M 54.890625 33.015625 
L 54.890625 0 
L 45.90625 0 
L 45.90625 32.71875 
Q 45.90625 40.484375 42.875 44.328125 
Q 39.84375 48.1875 33.796875 48.1875 
Q 26.515625 48.1875 22.3125 43.546875 
Q 18.109375 38.921875 18.109375 30.90625 
L 18.109375 0 
L 9.078125 0 
L 9.078125 75.984375 
L 18.109375 75.984375 
L 18.109375 46.1875 
Q 21.34375 51.125 25.703125 53.5625 
Q 30.078125 56 35.796875 56 
Q 45.21875 56 50.046875 50.171875 
Q 54.890625 44.34375 54.890625 33.015625 
z
" id="DejaVuSans-104"/>
     </defs>
     <g transform="translate(92.024125 309.456625)scale(0.1 -0.1)">
      <use xlink:href="#DejaVuSans-69"/>
      <use x="63.183594" xlink:href="#DejaVuSans-115"/>
      <use x="115.283203" xlink:href="#DejaVuSans-116"/>
      <use x="154.492188" xlink:href="#DejaVuSans-46"/>
      <use x="186.279297" xlink:href="#DejaVuSans-32"/>
      <use x="218.066406" xlink:href="#DejaVuSans-104"/>
      <use x="281.445312" xlink:href="#DejaVuSans-101"/>
      <use x="342.96875" xlink:href="#DejaVuSans-97"/>
      <use x="404.248047" xlink:href="#DejaVuSans-108"/>
      <use x="432.03125" xlink:href="#DejaVuSans-116"/>
      <use x="471.240234" xlink:href="#DejaVuSans-104"/>
      <use x="534.619141" xlink:href="#DejaVuSans-32"/>
      <use x="566.40625" xlink:href="#DejaVuSans-99"/>
      <use x="621.386719" xlink:href="#DejaVuSans-97"/>
      <use x="682.666016" xlink:href="#DejaVuSans-114"/>
      <use x="723.748047" xlink:href="#DejaVuSans-101"/>
      <use x="785.271484" xlink:href="#DejaVuSans-32"/>
      <use x="817.058594" xlink:href="#DejaVuSans-115"/>
      <use x="869.158203" xlink:href="#DejaVuSans-97"/>
      <use x="930.4375" xlink:href="#DejaVuSans-116"/>
      <use x="969.646484" xlink:href="#DejaVuSans-117"/>
      <use x="1033.025391" xlink:href="#DejaVuSans-114"/>
      <use x="1074.138672" xlink:href="#DejaVuSans-97"/>
      <use x="1135.417969" xlink:href="#DejaVuSans-116"/>
      <use x="1174.626953" xlink:href="#DejaVuSans-105"/>
      <use x="1202.410156" xlink:href="#DejaVuSans-111"/>
      <use x="1263.591797" xlink:href="#DejaVuSans-110"/>
     </g>
     <!-- (all dotted lines) -->
     <g transform="translate(92.024125 320.654437)scale(0.1 -0.1)">
      <use xlink:href="#DejaVuSans-40"/>
      <use x="39.013672" xlink:href="#DejaVuSans-97"/>
      <use x="100.292969" xlink:href="#DejaVuSans-108"/>
      <use x="128.076172" xlink:href="#DejaVuSans-108"/>
      <use x="155.859375" xlink:href="#DejaVuSans-32"/>
      <use x="187.646484" xlink:href="#DejaVuSans-100"/>
      <use x="251.123047" xlink:href="#DejaVuSans-111"/>
      <use x="312.304688" xlink:href="#DejaVuSans-116"/>
      <use x="351.513672" xlink:href="#DejaVuSans-116"/>
      <use x="390.722656" xlink:href="#DejaVuSans-101"/>
      <use x="452.246094" xlink:href="#DejaVuSans-100"/>
      <use x="515.722656" xlink:href="#DejaVuSans-32"/>
      <use x="547.509766" xlink:href="#DejaVuSans-108"/>
      <use x="575.292969" xlink:href="#DejaVuSans-105"/>
      <use x="603.076172" xlink:href="#DejaVuSans-110"/>
      <use x="666.455078" xlink:href="#DejaVuSans-101"/>
      <use x="727.978516" xlink:href="#DejaVuSans-115"/>
      <use x="780.078125" xlink:href="#DejaVuSans-41"/>
     </g>
    </g>
    <g id="line2d_61">
     <path d="M 244.716313 286.7085 
L 264.716313 286.7085 
" style="fill:none;stroke:#2ca02c;stroke-dasharray:12.8,3.2,2,3.2;stroke-dashoffset:0;stroke-opacity:0.7;stroke-width:2;"/>
    </g>
    <g id="line2d_62"/>
    <g id="text_29">
     <!-- Actual health -->
     <g transform="translate(272.716313 283.56975)scale(0.1 -0.1)">
      <use xlink:href="#DejaVuSans-65"/>
      <use x="68.392578" xlink:href="#DejaVuSans-99"/>
      <use x="123.373047" xlink:href="#DejaVuSans-116"/>
      <use x="162.582031" xlink:href="#DejaVuSans-117"/>
      <use x="225.960938" xlink:href="#DejaVuSans-97"/>
      <use x="287.240234" xlink:href="#DejaVuSans-108"/>
      <use x="315.023438" xlink:href="#DejaVuSans-32"/>
      <use x="346.810547" xlink:href="#DejaVuSans-104"/>
      <use x="410.189453" xlink:href="#DejaVuSans-101"/>
      <use x="471.712891" xlink:href="#DejaVuSans-97"/>
      <use x="532.992188" xlink:href="#DejaVuSans-108"/>
      <use x="560.775391" xlink:href="#DejaVuSans-116"/>
      <use x="599.984375" xlink:href="#DejaVuSans-104"/>
     </g>
     <!-- care saturation -->
     <g transform="translate(272.716313 294.767562)scale(0.1 -0.1)">
      <use xlink:href="#DejaVuSans-99"/>
      <use x="54.980469" xlink:href="#DejaVuSans-97"/>
      <use x="116.259766" xlink:href="#DejaVuSans-114"/>
      <use x="157.341797" xlink:href="#DejaVuSans-101"/>
      <use x="218.865234" xlink:href="#DejaVuSans-32"/>
      <use x="250.652344" xlink:href="#DejaVuSans-115"/>
      <use x="302.751953" xlink:href="#DejaVuSans-97"/>
      <use x="364.03125" xlink:href="#DejaVuSans-116"/>
      <use x="403.240234" xlink:href="#DejaVuSans-117"/>
      <use x="466.619141" xlink:href="#DejaVuSans-114"/>
      <use x="507.732422" xlink:href="#DejaVuSans-97"/>
      <use x="569.011719" xlink:href="#DejaVuSans-116"/>
      <use x="608.220703" xlink:href="#DejaVuSans-105"/>
      <use x="636.003906" xlink:href="#DejaVuSans-111"/>
      <use x="697.185547" xlink:href="#DejaVuSans-110"/>
     </g>
    </g>
    <g id="line2d_63">
     <path d="M 244.716313 312.584437 
L 264.716313 312.584437 
" style="fill:none;stroke:#ff7f0e;stroke-linecap:square;stroke-opacity:0.3;stroke-width:4;"/>
    </g>
    <g id="line2d_64"/>
    <g id="text_30">
     <!-- Started social -->
     <g transform="translate(272.716313 309.445687)scale(0.1 -0.1)">
      <use xlink:href="#DejaVuSans-83"/>
      <use x="63.476562" xlink:href="#DejaVuSans-116"/>
      <use x="102.685547" xlink:href="#DejaVuSans-97"/>
      <use x="163.964844" xlink:href="#DejaVuSans-114"/>
      <use x="205.078125" xlink:href="#DejaVuSans-116"/>
      <use x="244.287109" xlink:href="#DejaVuSans-101"/>
      <use x="305.810547" xlink:href="#DejaVuSans-100"/>
      <use x="369.287109" xlink:href="#DejaVuSans-32"/>
      <use x="401.074219" xlink:href="#DejaVuSans-115"/>
      <use x="453.173828" xlink:href="#DejaVuSans-111"/>
      <use x="514.355469" xlink:href="#DejaVuSans-99"/>
      <use x="569.335938" xlink:href="#DejaVuSans-105"/>
      <use x="597.119141" xlink:href="#DejaVuSans-97"/>
      <use x="658.398438" xlink:href="#DejaVuSans-108"/>
     </g>
     <!-- isolation (all bars) -->
     <g transform="translate(272.716313 320.6435)scale(0.1 -0.1)">
      <use xlink:href="#DejaVuSans-105"/>
      <use x="27.783203" xlink:href="#DejaVuSans-115"/>
      <use x="79.882812" xlink:href="#DejaVuSans-111"/>
      <use x="141.064453" xlink:href="#DejaVuSans-108"/>
      <use x="168.847656" xlink:href="#DejaVuSans-97"/>
      <use x="230.126953" xlink:href="#DejaVuSans-116"/>
      <use x="269.335938" xlink:href="#DejaVuSans-105"/>
      <use x="297.119141" xlink:href="#DejaVuSans-111"/>
      <use x="358.300781" xlink:href="#DejaVuSans-110"/>
      <use x="421.679688" xlink:href="#DejaVuSans-32"/>
      <use x="453.466797" xlink:href="#DejaVuSans-40"/>
      <use x="492.480469" xlink:href="#DejaVuSans-97"/>
      <use x="553.759766" xlink:href="#DejaVuSans-108"/>
      <use x="581.542969" xlink:href="#DejaVuSans-108"/>
      <use x="609.326172" xlink:href="#DejaVuSans-32"/>
      <use x="641.113281" xlink:href="#DejaVuSans-98"/>
      <use x="704.589844" xlink:href="#DejaVuSans-97"/>
      <use x="765.869141" xlink:href="#DejaVuSans-114"/>
      <use x="806.982422" xlink:href="#DejaVuSans-115"/>
      <use x="859.082031" xlink:href="#DejaVuSans-41"/>
     </g>
    </g>
   </g>
  </g>
 </g>
 <defs>
  <clipPath id="p59ee51f4b4">
   <rect height="217.44" width="334.8" x="53.328125" y="22.318125"/>
  </clipPath>
 </defs>
</svg>
