<?xml version="1.0" encoding="utf-8" standalone="no"?>
<!DOCTYPE svg PUBLIC "-//W3C//DTD SVG 1.1//EN"
  "http://www.w3.org/Graphics/SVG/1.1/DTD/svg11.dtd">
<!-- Created with matplotlib (https://matplotlib.org/) -->
<svg height="342.847883pt" version="1.1" viewBox="0 0 395.328125 342.847883" width="395.328125pt" xmlns="http://www.w3.org/2000/svg" xmlns:xlink="http://www.w3.org/1999/xlink">
 <defs>
  <style type="text/css">
*{stroke-linecap:butt;stroke-linejoin:round;}
  </style>
 </defs>
 <g id="figure_1">
  <g id="patch_1">
   <path d="M 0 342.847883 
L 395.328125 342.847883 
L 395.328125 0 
L 0 0 
z
" style="fill:#ffffff;"/>
  </g>
  <g id="axes_1">
   <g id="patch_2">
    <path d="M 53.328125 239.758125 
L 388.128125 239.758125 
L 388.128125 22.318125 
L 53.328125 22.318125 
z
" style="fill:#ffffff;"/>
   </g>
   <g id="line2d_1">
    <path clip-path="url(#p5c3c02779b)" d="M 65.271485 343.847883 
L 65.73293 343.028247 
L 69.867866 335.683629 
L 74.002801 328.339011 
L 78.137736 320.994392 
L 82.272671 313.649774 
L 86.407606 306.305156 
L 90.542541 298.960538 
L 94.677477 291.61592 
L 98.812412 284.271302 
L 102.947347 276.926684 
L 107.082282 269.582066 
L 111.217217 262.237448 
L 115.352152 254.89283 
L 119.487088 247.548212 
L 123.622023 240.203593 
L 127.756958 232.858975 
L 131.891893 225.514357 
L 136.026828 218.169739 
L 140.161763 210.825121 
L 144.296698 203.480503 
L 148.431634 196.135885 
L 152.566569 188.791267 
L 156.701504 181.446649 
L 160.836439 174.102031 
L 164.971374 166.757413 
L 169.106309 159.412794 
L 173.241245 152.068176 
L 177.37618 144.723558 
L 181.511115 137.37894 
L 185.64605 130.034322 
L 189.780985 122.689704 
L 193.91592 115.345086 
L 198.050856 108.000468 
L 202.185791 100.65585 
L 206.320726 93.311232 
L 210.455661 85.966614 
L 214.590596 78.621995 
L 218.725531 71.277377 
L 222.860466 63.932759 
L 226.995402 56.588141 
L 231.130337 49.243523 
L 235.265272 41.898905 
L 239.400207 34.554287 
L 243.535142 27.209669 
" style="fill:none;stroke:#ff7f0e;stroke-linecap:square;stroke-opacity:0.7;stroke-width:1.5;"/>
   </g>
   <g id="line2d_2">
    <path clip-path="url(#p5c3c02779b)" d="M 59.176803 343.847883 
L 61.597995 339.547275 
L 65.73293 332.202657 
L 69.867866 324.858039 
L 74.002801 317.513421 
L 78.137736 310.168803 
L 82.272671 302.824185 
L 86.407606 295.479567 
L 90.542541 288.134949 
L 94.677477 280.790331 
L 98.812412 273.445713 
L 102.947347 266.101094 
L 107.082282 258.756476 
L 111.217217 251.411858 
L 115.352152 244.06724 
L 119.487088 236.722622 
L 123.622023 229.378004 
L 127.756958 222.033386 
L 131.891893 214.688768 
L 136.026828 207.34415 
L 140.161763 199.999532 
L 144.296698 192.654914 
L 148.431634 185.310295 
L 152.566569 177.965677 
L 156.701504 170.621059 
L 160.836439 163.276441 
L 164.971374 155.931823 
L 169.106309 148.587205 
L 173.241245 141.242587 
L 177.37618 133.897969 
L 181.511115 126.553351 
L 185.64605 119.208733 
L 189.780985 111.864115 
L 193.91592 104.519496 
L 198.050856 97.174878 
L 202.185791 89.83026 
L 206.320726 82.485642 
L 210.455661 75.141024 
L 214.590596 67.796406 
L 218.725531 60.451788 
L 222.860466 53.10717 
L 226.995402 45.762552 
L 231.130337 38.417934 
L 235.265272 31.073316 
L 239.400207 23.728697 
L 243.535142 16.384079 
" style="fill:none;stroke:#1f77b4;stroke-linecap:square;stroke-opacity:0.7;stroke-width:1.5;"/>
   </g>
   <g id="line2d_3">
    <path clip-path="url(#p5c3c02779b)" d="M 40.92332 270.567432 
L 45.058255 263.222814 
L 49.19319 255.878196 
L 53.328125 248.533577 
L 57.46306 241.188959 
L 61.597995 233.844341 
L 65.73293 226.499723 
L 69.867866 219.155105 
L 74.002801 211.810487 
L 78.137736 204.465869 
L 82.272671 197.121251 
L 86.407606 189.776633 
L 90.542541 182.432015 
L 94.677477 175.087397 
L 98.812412 167.742778 
L 102.947347 160.39816 
L 107.082282 153.053542 
L 111.217217 145.708924 
L 115.352152 138.364306 
L 119.487088 131.019688 
L 123.622023 123.67507 
L 127.756958 116.330452 
L 131.891893 108.985834 
L 136.026828 101.641216 
L 140.161763 94.296598 
L 144.296698 86.951979 
L 148.431634 79.607361 
L 152.566569 72.262743 
L 156.701504 64.918125 
L 160.836439 57.573507 
L 164.971374 50.228889 
L 169.106309 42.884271 
L 173.241245 35.539653 
L 177.37618 28.195035 
L 181.511115 20.850417 
L 185.64605 13.505799 
L 189.780985 6.16118 
L 193.812647 -1 
" style="fill:none;stroke:#2ca02c;stroke-linecap:square;stroke-opacity:0.7;stroke-width:1.5;"/>
   </g>
   <g id="matplotlib.axis_1">
    <g id="xtick_1">
     <g id="line2d_4">
      <path clip-path="url(#p5c3c02779b)" d="M 74.002801 239.758125 
L 74.002801 22.318125 
" style="fill:none;stroke:#b0b0b0;stroke-linecap:square;stroke-opacity:0.8;stroke-width:0.8;"/>
     </g>
     <g id="line2d_5">
      <defs>
       <path d="M 0 0 
L 0 3.5 
" id="m7759e98024" style="stroke:#000000;stroke-width:0.8;"/>
      </defs>
      <g>
       <use style="stroke:#000000;stroke-width:0.8;" x="74.002801" xlink:href="#m7759e98024" y="239.758125"/>
      </g>
     </g>
     <g id="text_1">
      <!-- Feb. -->
      <defs>
       <path d="M 9.8125 72.90625 
L 51.703125 72.90625 
L 51.703125 64.59375 
L 19.671875 64.59375 
L 19.671875 43.109375 
L 48.578125 43.109375 
L 48.578125 34.8125 
L 19.671875 34.8125 
L 19.671875 0 
L 9.8125 0 
z
" id="DejaVuSans-70"/>
       <path d="M 56.203125 29.59375 
L 56.203125 25.203125 
L 14.890625 25.203125 
Q 15.484375 15.921875 20.484375 11.0625 
Q 25.484375 6.203125 34.421875 6.203125 
Q 39.59375 6.203125 44.453125 7.46875 
Q 49.3125 8.734375 54.109375 11.28125 
L 54.109375 2.78125 
Q 49.265625 0.734375 44.1875 -0.34375 
Q 39.109375 -1.421875 33.890625 -1.421875 
Q 20.796875 -1.421875 13.15625 6.1875 
Q 5.515625 13.8125 5.515625 26.8125 
Q 5.515625 40.234375 12.765625 48.109375 
Q 20.015625 56 32.328125 56 
Q 43.359375 56 49.78125 48.890625 
Q 56.203125 41.796875 56.203125 29.59375 
z
M 47.21875 32.234375 
Q 47.125 39.59375 43.09375 43.984375 
Q 39.0625 48.390625 32.421875 48.390625 
Q 24.90625 48.390625 20.390625 44.140625 
Q 15.875 39.890625 15.1875 32.171875 
z
" id="DejaVuSans-101"/>
       <path d="M 48.6875 27.296875 
Q 48.6875 37.203125 44.609375 42.84375 
Q 40.53125 48.484375 33.40625 48.484375 
Q 26.265625 48.484375 22.1875 42.84375 
Q 18.109375 37.203125 18.109375 27.296875 
Q 18.109375 17.390625 22.1875 11.75 
Q 26.265625 6.109375 33.40625 6.109375 
Q 40.53125 6.109375 44.609375 11.75 
Q 48.6875 17.390625 48.6875 27.296875 
z
M 18.109375 46.390625 
Q 20.953125 51.265625 25.265625 53.625 
Q 29.59375 56 35.59375 56 
Q 45.5625 56 51.78125 48.09375 
Q 58.015625 40.1875 58.015625 27.296875 
Q 58.015625 14.40625 51.78125 6.484375 
Q 45.5625 -1.421875 35.59375 -1.421875 
Q 29.59375 -1.421875 25.265625 0.953125 
Q 20.953125 3.328125 18.109375 8.203125 
L 18.109375 0 
L 9.078125 0 
L 9.078125 75.984375 
L 18.109375 75.984375 
z
" id="DejaVuSans-98"/>
       <path d="M 10.6875 12.40625 
L 21 12.40625 
L 21 0 
L 10.6875 0 
z
" id="DejaVuSans-46"/>
      </defs>
      <g transform="translate(63.291082 254.356562)scale(0.1 -0.1)">
       <use xlink:href="#DejaVuSans-70"/>
       <use x="57.441406" xlink:href="#DejaVuSans-101"/>
       <use x="118.964844" xlink:href="#DejaVuSans-98"/>
       <use x="182.441406" xlink:href="#DejaVuSans-46"/>
      </g>
      <!-- 23 -->
      <defs>
       <path d="M 19.1875 8.296875 
L 53.609375 8.296875 
L 53.609375 0 
L 7.328125 0 
L 7.328125 8.296875 
Q 12.9375 14.109375 22.625 23.890625 
Q 32.328125 33.6875 34.8125 36.53125 
Q 39.546875 41.84375 41.421875 45.53125 
Q 43.3125 49.21875 43.3125 52.78125 
Q 43.3125 58.59375 39.234375 62.25 
Q 35.15625 65.921875 28.609375 65.921875 
Q 23.96875 65.921875 18.8125 64.3125 
Q 13.671875 62.703125 7.8125 59.421875 
L 7.8125 69.390625 
Q 13.765625 71.78125 18.9375 73 
Q 24.125 74.21875 28.421875 74.21875 
Q 39.75 74.21875 46.484375 68.546875 
Q 53.21875 62.890625 53.21875 53.421875 
Q 53.21875 48.921875 51.53125 44.890625 
Q 49.859375 40.875 45.40625 35.40625 
Q 44.1875 33.984375 37.640625 27.21875 
Q 31.109375 20.453125 19.1875 8.296875 
z
" id="DejaVuSans-50"/>
       <path d="M 40.578125 39.3125 
Q 47.65625 37.796875 51.625 33 
Q 55.609375 28.21875 55.609375 21.1875 
Q 55.609375 10.40625 48.1875 4.484375 
Q 40.765625 -1.421875 27.09375 -1.421875 
Q 22.515625 -1.421875 17.65625 -0.515625 
Q 12.796875 0.390625 7.625 2.203125 
L 7.625 11.71875 
Q 11.71875 9.328125 16.59375 8.109375 
Q 21.484375 6.890625 26.8125 6.890625 
Q 36.078125 6.890625 40.9375 10.546875 
Q 45.796875 14.203125 45.796875 21.1875 
Q 45.796875 27.640625 41.28125 31.265625 
Q 36.765625 34.90625 28.71875 34.90625 
L 20.21875 34.90625 
L 20.21875 43.015625 
L 29.109375 43.015625 
Q 36.375 43.015625 40.234375 45.921875 
Q 44.09375 48.828125 44.09375 54.296875 
Q 44.09375 59.90625 40.109375 62.90625 
Q 36.140625 65.921875 28.71875 65.921875 
Q 24.65625 65.921875 20.015625 65.03125 
Q 15.375 64.15625 9.8125 62.3125 
L 9.8125 71.09375 
Q 15.4375 72.65625 20.34375 73.4375 
Q 25.25 74.21875 29.59375 74.21875 
Q 40.828125 74.21875 47.359375 69.109375 
Q 53.90625 64.015625 53.90625 55.328125 
Q 53.90625 49.265625 50.4375 45.09375 
Q 46.96875 40.921875 40.578125 39.3125 
z
" id="DejaVuSans-51"/>
      </defs>
      <g transform="translate(67.640301 265.554375)scale(0.1 -0.1)">
       <use xlink:href="#DejaVuSans-50"/>
       <use x="63.623047" xlink:href="#DejaVuSans-51"/>
      </g>
     </g>
    </g>
    <g id="xtick_2">
     <g id="line2d_6">
      <path clip-path="url(#p5c3c02779b)" d="M 102.947347 239.758125 
L 102.947347 22.318125 
" style="fill:none;stroke:#b0b0b0;stroke-linecap:square;stroke-opacity:0.8;stroke-width:0.8;"/>
     </g>
     <g id="line2d_7">
      <g>
       <use style="stroke:#000000;stroke-width:0.8;" x="102.947347" xlink:href="#m7759e98024" y="239.758125"/>
      </g>
     </g>
     <g id="text_2">
      <!-- Mar. -->
      <defs>
       <path d="M 9.8125 72.90625 
L 24.515625 72.90625 
L 43.109375 23.296875 
L 61.8125 72.90625 
L 76.515625 72.90625 
L 76.515625 0 
L 66.890625 0 
L 66.890625 64.015625 
L 48.09375 14.015625 
L 38.1875 14.015625 
L 19.390625 64.015625 
L 19.390625 0 
L 9.8125 0 
z
" id="DejaVuSans-77"/>
       <path d="M 34.28125 27.484375 
Q 23.390625 27.484375 19.1875 25 
Q 14.984375 22.515625 14.984375 16.5 
Q 14.984375 11.71875 18.140625 8.90625 
Q 21.296875 6.109375 26.703125 6.109375 
Q 34.1875 6.109375 38.703125 11.40625 
Q 43.21875 16.703125 43.21875 25.484375 
L 43.21875 27.484375 
z
M 52.203125 31.203125 
L 52.203125 0 
L 43.21875 0 
L 43.21875 8.296875 
Q 40.140625 3.328125 35.546875 0.953125 
Q 30.953125 -1.421875 24.3125 -1.421875 
Q 15.921875 -1.421875 10.953125 3.296875 
Q 6 8.015625 6 15.921875 
Q 6 25.140625 12.171875 29.828125 
Q 18.359375 34.515625 30.609375 34.515625 
L 43.21875 34.515625 
L 43.21875 35.40625 
Q 43.21875 41.609375 39.140625 45 
Q 35.0625 48.390625 27.6875 48.390625 
Q 23 48.390625 18.546875 47.265625 
Q 14.109375 46.140625 10.015625 43.890625 
L 10.015625 52.203125 
Q 14.9375 54.109375 19.578125 55.046875 
Q 24.21875 56 28.609375 56 
Q 40.484375 56 46.34375 49.84375 
Q 52.203125 43.703125 52.203125 31.203125 
z
" id="DejaVuSans-97"/>
       <path d="M 41.109375 46.296875 
Q 39.59375 47.171875 37.8125 47.578125 
Q 36.03125 48 33.890625 48 
Q 26.265625 48 22.1875 43.046875 
Q 18.109375 38.09375 18.109375 28.8125 
L 18.109375 0 
L 9.078125 0 
L 9.078125 54.6875 
L 18.109375 54.6875 
L 18.109375 46.1875 
Q 20.953125 51.171875 25.484375 53.578125 
Q 30.03125 56 36.53125 56 
Q 37.453125 56 38.578125 55.875 
Q 39.703125 55.765625 41.0625 55.515625 
z
" id="DejaVuSans-114"/>
      </defs>
      <g transform="translate(91.931722 254.356562)scale(0.1 -0.1)">
       <use xlink:href="#DejaVuSans-77"/>
       <use x="86.279297" xlink:href="#DejaVuSans-97"/>
       <use x="147.558594" xlink:href="#DejaVuSans-114"/>
       <use x="188.53125" xlink:href="#DejaVuSans-46"/>
      </g>
      <!-- 01 -->
      <defs>
       <path d="M 31.78125 66.40625 
Q 24.171875 66.40625 20.328125 58.90625 
Q 16.5 51.421875 16.5 36.375 
Q 16.5 21.390625 20.328125 13.890625 
Q 24.171875 6.390625 31.78125 6.390625 
Q 39.453125 6.390625 43.28125 13.890625 
Q 47.125 21.390625 47.125 36.375 
Q 47.125 51.421875 43.28125 58.90625 
Q 39.453125 66.40625 31.78125 66.40625 
z
M 31.78125 74.21875 
Q 44.046875 74.21875 50.515625 64.515625 
Q 56.984375 54.828125 56.984375 36.375 
Q 56.984375 17.96875 50.515625 8.265625 
Q 44.046875 -1.421875 31.78125 -1.421875 
Q 19.53125 -1.421875 13.0625 8.265625 
Q 6.59375 17.96875 6.59375 36.375 
Q 6.59375 54.828125 13.0625 64.515625 
Q 19.53125 74.21875 31.78125 74.21875 
z
" id="DejaVuSans-48"/>
       <path d="M 12.40625 8.296875 
L 28.515625 8.296875 
L 28.515625 63.921875 
L 10.984375 60.40625 
L 10.984375 69.390625 
L 28.421875 72.90625 
L 38.28125 72.90625 
L 38.28125 8.296875 
L 54.390625 8.296875 
L 54.390625 0 
L 12.40625 0 
z
" id="DejaVuSans-49"/>
      </defs>
      <g transform="translate(96.584847 265.554375)scale(0.1 -0.1)">
       <use xlink:href="#DejaVuSans-48"/>
       <use x="63.623047" xlink:href="#DejaVuSans-49"/>
      </g>
     </g>
    </g>
    <g id="xtick_3">
     <g id="line2d_8">
      <path clip-path="url(#p5c3c02779b)" d="M 131.891893 239.758125 
L 131.891893 22.318125 
" style="fill:none;stroke:#b0b0b0;stroke-linecap:square;stroke-opacity:0.8;stroke-width:0.8;"/>
     </g>
     <g id="line2d_9">
      <g>
       <use style="stroke:#000000;stroke-width:0.8;" x="131.891893" xlink:href="#m7759e98024" y="239.758125"/>
      </g>
     </g>
     <g id="text_3">
      <!-- Mar. -->
      <g transform="translate(120.876268 254.356562)scale(0.1 -0.1)">
       <use xlink:href="#DejaVuSans-77"/>
       <use x="86.279297" xlink:href="#DejaVuSans-97"/>
       <use x="147.558594" xlink:href="#DejaVuSans-114"/>
       <use x="188.53125" xlink:href="#DejaVuSans-46"/>
      </g>
      <!-- 08 -->
      <defs>
       <path d="M 31.78125 34.625 
Q 24.75 34.625 20.71875 30.859375 
Q 16.703125 27.09375 16.703125 20.515625 
Q 16.703125 13.921875 20.71875 10.15625 
Q 24.75 6.390625 31.78125 6.390625 
Q 38.8125 6.390625 42.859375 10.171875 
Q 46.921875 13.96875 46.921875 20.515625 
Q 46.921875 27.09375 42.890625 30.859375 
Q 38.875 34.625 31.78125 34.625 
z
M 21.921875 38.8125 
Q 15.578125 40.375 12.03125 44.71875 
Q 8.5 49.078125 8.5 55.328125 
Q 8.5 64.0625 14.71875 69.140625 
Q 20.953125 74.21875 31.78125 74.21875 
Q 42.671875 74.21875 48.875 69.140625 
Q 55.078125 64.0625 55.078125 55.328125 
Q 55.078125 49.078125 51.53125 44.71875 
Q 48 40.375 41.703125 38.8125 
Q 48.828125 37.15625 52.796875 32.3125 
Q 56.78125 27.484375 56.78125 20.515625 
Q 56.78125 9.90625 50.3125 4.234375 
Q 43.84375 -1.421875 31.78125 -1.421875 
Q 19.734375 -1.421875 13.25 4.234375 
Q 6.78125 9.90625 6.78125 20.515625 
Q 6.78125 27.484375 10.78125 32.3125 
Q 14.796875 37.15625 21.921875 38.8125 
z
M 18.3125 54.390625 
Q 18.3125 48.734375 21.84375 45.5625 
Q 25.390625 42.390625 31.78125 42.390625 
Q 38.140625 42.390625 41.71875 45.5625 
Q 45.3125 48.734375 45.3125 54.390625 
Q 45.3125 60.0625 41.71875 63.234375 
Q 38.140625 66.40625 31.78125 66.40625 
Q 25.390625 66.40625 21.84375 63.234375 
Q 18.3125 60.0625 18.3125 54.390625 
z
" id="DejaVuSans-56"/>
      </defs>
      <g transform="translate(125.529393 265.554375)scale(0.1 -0.1)">
       <use xlink:href="#DejaVuSans-48"/>
       <use x="63.623047" xlink:href="#DejaVuSans-56"/>
      </g>
     </g>
    </g>
    <g id="xtick_4">
     <g id="line2d_10">
      <path clip-path="url(#p5c3c02779b)" d="M 160.836439 239.758125 
L 160.836439 22.318125 
" style="fill:none;stroke:#b0b0b0;stroke-linecap:square;stroke-opacity:0.8;stroke-width:0.8;"/>
     </g>
     <g id="line2d_11">
      <g>
       <use style="stroke:#000000;stroke-width:0.8;" x="160.836439" xlink:href="#m7759e98024" y="239.758125"/>
      </g>
     </g>
     <g id="text_4">
      <!-- Mar. -->
      <g transform="translate(149.820814 254.356562)scale(0.1 -0.1)">
       <use xlink:href="#DejaVuSans-77"/>
       <use x="86.279297" xlink:href="#DejaVuSans-97"/>
       <use x="147.558594" xlink:href="#DejaVuSans-114"/>
       <use x="188.53125" xlink:href="#DejaVuSans-46"/>
      </g>
      <!-- 15 -->
      <defs>
       <path d="M 10.796875 72.90625 
L 49.515625 72.90625 
L 49.515625 64.59375 
L 19.828125 64.59375 
L 19.828125 46.734375 
Q 21.96875 47.46875 24.109375 47.828125 
Q 26.265625 48.1875 28.421875 48.1875 
Q 40.625 48.1875 47.75 41.5 
Q 54.890625 34.8125 54.890625 23.390625 
Q 54.890625 11.625 47.5625 5.09375 
Q 40.234375 -1.421875 26.90625 -1.421875 
Q 22.3125 -1.421875 17.546875 -0.640625 
Q 12.796875 0.140625 7.71875 1.703125 
L 7.71875 11.625 
Q 12.109375 9.234375 16.796875 8.0625 
Q 21.484375 6.890625 26.703125 6.890625 
Q 35.15625 6.890625 40.078125 11.328125 
Q 45.015625 15.765625 45.015625 23.390625 
Q 45.015625 31 40.078125 35.4375 
Q 35.15625 39.890625 26.703125 39.890625 
Q 22.75 39.890625 18.8125 39.015625 
Q 14.890625 38.140625 10.796875 36.28125 
z
" id="DejaVuSans-53"/>
      </defs>
      <g transform="translate(154.473939 265.554375)scale(0.1 -0.1)">
       <use xlink:href="#DejaVuSans-49"/>
       <use x="63.623047" xlink:href="#DejaVuSans-53"/>
      </g>
     </g>
    </g>
    <g id="xtick_5">
     <g id="line2d_12">
      <path clip-path="url(#p5c3c02779b)" d="M 189.780985 239.758125 
L 189.780985 22.318125 
" style="fill:none;stroke:#b0b0b0;stroke-linecap:square;stroke-opacity:0.8;stroke-width:0.8;"/>
     </g>
     <g id="line2d_13">
      <g>
       <use style="stroke:#000000;stroke-width:0.8;" x="189.780985" xlink:href="#m7759e98024" y="239.758125"/>
      </g>
     </g>
     <g id="text_5">
      <!-- Mar. -->
      <g transform="translate(178.76536 254.356562)scale(0.1 -0.1)">
       <use xlink:href="#DejaVuSans-77"/>
       <use x="86.279297" xlink:href="#DejaVuSans-97"/>
       <use x="147.558594" xlink:href="#DejaVuSans-114"/>
       <use x="188.53125" xlink:href="#DejaVuSans-46"/>
      </g>
      <!-- 22 -->
      <g transform="translate(183.418485 265.554375)scale(0.1 -0.1)">
       <use xlink:href="#DejaVuSans-50"/>
       <use x="63.623047" xlink:href="#DejaVuSans-50"/>
      </g>
     </g>
    </g>
    <g id="xtick_6">
     <g id="line2d_14">
      <path clip-path="url(#p5c3c02779b)" d="M 218.725531 239.758125 
L 218.725531 22.318125 
" style="fill:none;stroke:#b0b0b0;stroke-linecap:square;stroke-opacity:0.8;stroke-width:0.8;"/>
     </g>
     <g id="line2d_15">
      <g>
       <use style="stroke:#000000;stroke-width:0.8;" x="218.725531" xlink:href="#m7759e98024" y="239.758125"/>
      </g>
     </g>
     <g id="text_6">
      <!-- Mar. -->
      <g transform="translate(207.709906 254.356562)scale(0.1 -0.1)">
       <use xlink:href="#DejaVuSans-77"/>
       <use x="86.279297" xlink:href="#DejaVuSans-97"/>
       <use x="147.558594" xlink:href="#DejaVuSans-114"/>
       <use x="188.53125" xlink:href="#DejaVuSans-46"/>
      </g>
      <!-- 29 -->
      <defs>
       <path d="M 10.984375 1.515625 
L 10.984375 10.5 
Q 14.703125 8.734375 18.5 7.8125 
Q 22.3125 6.890625 25.984375 6.890625 
Q 35.75 6.890625 40.890625 13.453125 
Q 46.046875 20.015625 46.78125 33.40625 
Q 43.953125 29.203125 39.59375 26.953125 
Q 35.25 24.703125 29.984375 24.703125 
Q 19.046875 24.703125 12.671875 31.3125 
Q 6.296875 37.9375 6.296875 49.421875 
Q 6.296875 60.640625 12.9375 67.421875 
Q 19.578125 74.21875 30.609375 74.21875 
Q 43.265625 74.21875 49.921875 64.515625 
Q 56.59375 54.828125 56.59375 36.375 
Q 56.59375 19.140625 48.40625 8.859375 
Q 40.234375 -1.421875 26.421875 -1.421875 
Q 22.703125 -1.421875 18.890625 -0.6875 
Q 15.09375 0.046875 10.984375 1.515625 
z
M 30.609375 32.421875 
Q 37.25 32.421875 41.125 36.953125 
Q 45.015625 41.5 45.015625 49.421875 
Q 45.015625 57.28125 41.125 61.84375 
Q 37.25 66.40625 30.609375 66.40625 
Q 23.96875 66.40625 20.09375 61.84375 
Q 16.21875 57.28125 16.21875 49.421875 
Q 16.21875 41.5 20.09375 36.953125 
Q 23.96875 32.421875 30.609375 32.421875 
z
" id="DejaVuSans-57"/>
      </defs>
      <g transform="translate(212.363031 265.554375)scale(0.1 -0.1)">
       <use xlink:href="#DejaVuSans-50"/>
       <use x="63.623047" xlink:href="#DejaVuSans-57"/>
      </g>
     </g>
    </g>
    <g id="xtick_7">
     <g id="line2d_16">
      <path clip-path="url(#p5c3c02779b)" d="M 247.670077 239.758125 
L 247.670077 22.318125 
" style="fill:none;stroke:#b0b0b0;stroke-linecap:square;stroke-opacity:0.8;stroke-width:0.8;"/>
     </g>
     <g id="line2d_17">
      <g>
       <use style="stroke:#000000;stroke-width:0.8;" x="247.670077" xlink:href="#m7759e98024" y="239.758125"/>
      </g>
     </g>
     <g id="text_7">
      <!-- Apr. -->
      <defs>
       <path d="M 34.1875 63.1875 
L 20.796875 26.90625 
L 47.609375 26.90625 
z
M 28.609375 72.90625 
L 39.796875 72.90625 
L 67.578125 0 
L 57.328125 0 
L 50.6875 18.703125 
L 17.828125 18.703125 
L 11.1875 0 
L 0.78125 0 
z
" id="DejaVuSans-65"/>
       <path d="M 18.109375 8.203125 
L 18.109375 -20.796875 
L 9.078125 -20.796875 
L 9.078125 54.6875 
L 18.109375 54.6875 
L 18.109375 46.390625 
Q 20.953125 51.265625 25.265625 53.625 
Q 29.59375 56 35.59375 56 
Q 45.5625 56 51.78125 48.09375 
Q 58.015625 40.1875 58.015625 27.296875 
Q 58.015625 14.40625 51.78125 6.484375 
Q 45.5625 -1.421875 35.59375 -1.421875 
Q 29.59375 -1.421875 25.265625 0.953125 
Q 20.953125 3.328125 18.109375 8.203125 
z
M 48.6875 27.296875 
Q 48.6875 37.203125 44.609375 42.84375 
Q 40.53125 48.484375 33.40625 48.484375 
Q 26.265625 48.484375 22.1875 42.84375 
Q 18.109375 37.203125 18.109375 27.296875 
Q 18.109375 17.390625 22.1875 11.75 
Q 26.265625 6.109375 33.40625 6.109375 
Q 40.53125 6.109375 44.609375 11.75 
Q 48.6875 17.390625 48.6875 27.296875 
z
" id="DejaVuSans-112"/>
      </defs>
      <g transform="translate(237.438046 254.356562)scale(0.1 -0.1)">
       <use xlink:href="#DejaVuSans-65"/>
       <use x="68.408203" xlink:href="#DejaVuSans-112"/>
       <use x="131.884766" xlink:href="#DejaVuSans-114"/>
       <use x="172.857422" xlink:href="#DejaVuSans-46"/>
      </g>
      <!-- 05 -->
      <g transform="translate(241.307577 265.554375)scale(0.1 -0.1)">
       <use xlink:href="#DejaVuSans-48"/>
       <use x="63.623047" xlink:href="#DejaVuSans-53"/>
      </g>
     </g>
    </g>
    <g id="xtick_8">
     <g id="line2d_18">
      <path clip-path="url(#p5c3c02779b)" d="M 276.614624 239.758125 
L 276.614624 22.318125 
" style="fill:none;stroke:#b0b0b0;stroke-linecap:square;stroke-opacity:0.8;stroke-width:0.8;"/>
     </g>
     <g id="line2d_19">
      <g>
       <use style="stroke:#000000;stroke-width:0.8;" x="276.614624" xlink:href="#m7759e98024" y="239.758125"/>
      </g>
     </g>
     <g id="text_8">
      <!-- Apr. -->
      <g transform="translate(266.382592 254.356562)scale(0.1 -0.1)">
       <use xlink:href="#DejaVuSans-65"/>
       <use x="68.408203" xlink:href="#DejaVuSans-112"/>
       <use x="131.884766" xlink:href="#DejaVuSans-114"/>
       <use x="172.857422" xlink:href="#DejaVuSans-46"/>
      </g>
      <!-- 12 -->
      <g transform="translate(270.252124 265.554375)scale(0.1 -0.1)">
       <use xlink:href="#DejaVuSans-49"/>
       <use x="63.623047" xlink:href="#DejaVuSans-50"/>
      </g>
     </g>
    </g>
   </g>
   <g id="matplotlib.axis_2">
    <g id="ytick_1">
     <g id="line2d_20">
      <path clip-path="url(#p5c3c02779b)" d="M 53.328125 239.758125 
L 388.128125 239.758125 
" style="fill:none;stroke:#b0b0b0;stroke-linecap:square;stroke-opacity:0.8;"/>
     </g>
     <g id="line2d_21">
      <defs>
       <path d="M 0 0 
L -3.5 0 
" id="m7c3653ed89" style="stroke:#000000;stroke-width:0.8;"/>
      </defs>
      <g>
       <use style="stroke:#000000;stroke-width:0.8;" x="53.328125" xlink:href="#m7c3653ed89" y="239.758125"/>
      </g>
     </g>
     <g id="text_9">
      <!-- 1 -->
      <g transform="translate(39.965625 243.557344)scale(0.1 -0.1)">
       <use xlink:href="#DejaVuSans-49"/>
      </g>
     </g>
    </g>
    <g id="ytick_2">
     <g id="line2d_22">
      <path clip-path="url(#p5c3c02779b)" d="M 53.328125 181.202221 
L 388.128125 181.202221 
" style="fill:none;stroke:#b0b0b0;stroke-linecap:square;stroke-opacity:0.8;"/>
     </g>
     <g id="line2d_23">
      <g>
       <use style="stroke:#000000;stroke-width:0.8;" x="53.328125" xlink:href="#m7c3653ed89" y="181.202221"/>
      </g>
     </g>
     <g id="text_10">
      <!-- 10 -->
      <g transform="translate(33.603125 185.00144)scale(0.1 -0.1)">
       <use xlink:href="#DejaVuSans-49"/>
       <use x="63.623047" xlink:href="#DejaVuSans-48"/>
      </g>
     </g>
    </g>
    <g id="ytick_3">
     <g id="line2d_24">
      <path clip-path="url(#p5c3c02779b)" d="M 53.328125 122.646318 
L 388.128125 122.646318 
" style="fill:none;stroke:#b0b0b0;stroke-linecap:square;stroke-opacity:0.8;"/>
     </g>
     <g id="line2d_25">
      <g>
       <use style="stroke:#000000;stroke-width:0.8;" x="53.328125" xlink:href="#m7c3653ed89" y="122.646318"/>
      </g>
     </g>
     <g id="text_11">
      <!-- 100 -->
      <g transform="translate(27.240625 126.445536)scale(0.1 -0.1)">
       <use xlink:href="#DejaVuSans-49"/>
       <use x="63.623047" xlink:href="#DejaVuSans-48"/>
       <use x="127.246094" xlink:href="#DejaVuSans-48"/>
      </g>
     </g>
    </g>
    <g id="ytick_4">
     <g id="line2d_26">
      <path clip-path="url(#p5c3c02779b)" d="M 53.328125 64.090414 
L 388.128125 64.090414 
" style="fill:none;stroke:#b0b0b0;stroke-linecap:square;stroke-opacity:0.8;"/>
     </g>
     <g id="line2d_27">
      <g>
       <use style="stroke:#000000;stroke-width:0.8;" x="53.328125" xlink:href="#m7c3653ed89" y="64.090414"/>
      </g>
     </g>
     <g id="text_12">
      <!-- 1000 -->
      <g transform="translate(20.878125 67.889633)scale(0.1 -0.1)">
       <use xlink:href="#DejaVuSans-49"/>
       <use x="63.623047" xlink:href="#DejaVuSans-48"/>
       <use x="127.246094" xlink:href="#DejaVuSans-48"/>
       <use x="190.869141" xlink:href="#DejaVuSans-48"/>
      </g>
     </g>
    </g>
    <g id="ytick_5">
     <g id="line2d_28">
      <path clip-path="url(#p5c3c02779b)" d="M 53.328125 222.131042 
L 388.128125 222.131042 
" style="fill:none;stroke:#b0b0b0;stroke-linecap:square;stroke-opacity:0.3;stroke-width:0.8;"/>
     </g>
     <g id="line2d_29">
      <defs>
       <path d="M 0 0 
L -2 0 
" id="mf73a83af01" style="stroke:#000000;stroke-width:0.6;"/>
      </defs>
      <g>
       <use style="stroke:#000000;stroke-width:0.6;" x="53.328125" xlink:href="#mf73a83af01" y="222.131042"/>
      </g>
     </g>
     <g id="text_13">
      <!-- 2 -->
      <g transform="translate(41.565625 225.93026)scale(0.1 -0.1)">
       <use xlink:href="#DejaVuSans-50"/>
      </g>
     </g>
    </g>
    <g id="ytick_6">
     <g id="line2d_30">
      <path clip-path="url(#p5c3c02779b)" d="M 53.328125 198.829305 
L 388.128125 198.829305 
" style="fill:none;stroke:#b0b0b0;stroke-linecap:square;stroke-opacity:0.3;stroke-width:0.8;"/>
     </g>
     <g id="line2d_31">
      <g>
       <use style="stroke:#000000;stroke-width:0.6;" x="53.328125" xlink:href="#mf73a83af01" y="198.829305"/>
      </g>
     </g>
     <g id="text_14">
      <!-- 5 -->
      <g transform="translate(41.565625 202.628524)scale(0.1 -0.1)">
       <use xlink:href="#DejaVuSans-53"/>
      </g>
     </g>
    </g>
    <g id="ytick_7">
     <g id="line2d_32">
      <path clip-path="url(#p5c3c02779b)" d="M 53.328125 163.575138 
L 388.128125 163.575138 
" style="fill:none;stroke:#b0b0b0;stroke-linecap:square;stroke-opacity:0.3;stroke-width:0.8;"/>
     </g>
     <g id="line2d_33">
      <g>
       <use style="stroke:#000000;stroke-width:0.6;" x="53.328125" xlink:href="#mf73a83af01" y="163.575138"/>
      </g>
     </g>
     <g id="text_15">
      <!-- 20 -->
      <g transform="translate(35.203125 167.374357)scale(0.1 -0.1)">
       <use xlink:href="#DejaVuSans-50"/>
       <use x="63.623047" xlink:href="#DejaVuSans-48"/>
      </g>
     </g>
    </g>
    <g id="ytick_8">
     <g id="line2d_34">
      <path clip-path="url(#p5c3c02779b)" d="M 53.328125 140.273401 
L 388.128125 140.273401 
" style="fill:none;stroke:#b0b0b0;stroke-linecap:square;stroke-opacity:0.3;stroke-width:0.8;"/>
     </g>
     <g id="line2d_35">
      <g>
       <use style="stroke:#000000;stroke-width:0.6;" x="53.328125" xlink:href="#mf73a83af01" y="140.273401"/>
      </g>
     </g>
     <g id="text_16">
      <!-- 50 -->
      <g transform="translate(35.203125 144.07262)scale(0.1 -0.1)">
       <use xlink:href="#DejaVuSans-53"/>
       <use x="63.623047" xlink:href="#DejaVuSans-48"/>
      </g>
     </g>
    </g>
    <g id="ytick_9">
     <g id="line2d_36">
      <path clip-path="url(#p5c3c02779b)" d="M 53.328125 105.019234 
L 388.128125 105.019234 
" style="fill:none;stroke:#b0b0b0;stroke-linecap:square;stroke-opacity:0.3;stroke-width:0.8;"/>
     </g>
     <g id="line2d_37">
      <g>
       <use style="stroke:#000000;stroke-width:0.6;" x="53.328125" xlink:href="#mf73a83af01" y="105.019234"/>
      </g>
     </g>
     <g id="text_17">
      <!-- 200 -->
      <g transform="translate(28.840625 108.818453)scale(0.1 -0.1)">
       <use xlink:href="#DejaVuSans-50"/>
       <use x="63.623047" xlink:href="#DejaVuSans-48"/>
       <use x="127.246094" xlink:href="#DejaVuSans-48"/>
      </g>
     </g>
    </g>
    <g id="ytick_10">
     <g id="line2d_38">
      <path clip-path="url(#p5c3c02779b)" d="M 53.328125 81.717498 
L 388.128125 81.717498 
" style="fill:none;stroke:#b0b0b0;stroke-linecap:square;stroke-opacity:0.3;stroke-width:0.8;"/>
     </g>
     <g id="line2d_39">
      <g>
       <use style="stroke:#000000;stroke-width:0.6;" x="53.328125" xlink:href="#mf73a83af01" y="81.717498"/>
      </g>
     </g>
     <g id="text_18">
      <!-- 500 -->
      <g transform="translate(28.840625 85.516716)scale(0.1 -0.1)">
       <use xlink:href="#DejaVuSans-53"/>
       <use x="63.623047" xlink:href="#DejaVuSans-48"/>
       <use x="127.246094" xlink:href="#DejaVuSans-48"/>
      </g>
     </g>
    </g>
    <g id="ytick_11">
     <g id="line2d_40">
      <path clip-path="url(#p5c3c02779b)" d="M 53.328125 46.463331 
L 388.128125 46.463331 
" style="fill:none;stroke:#b0b0b0;stroke-linecap:square;stroke-opacity:0.3;stroke-width:0.8;"/>
     </g>
     <g id="line2d_41">
      <g>
       <use style="stroke:#000000;stroke-width:0.6;" x="53.328125" xlink:href="#mf73a83af01" y="46.463331"/>
      </g>
     </g>
     <g id="text_19">
      <!-- 2000 -->
      <g transform="translate(22.478125 50.262549)scale(0.1 -0.1)">
       <use xlink:href="#DejaVuSans-50"/>
       <use x="63.623047" xlink:href="#DejaVuSans-48"/>
       <use x="127.246094" xlink:href="#DejaVuSans-48"/>
       <use x="190.869141" xlink:href="#DejaVuSans-48"/>
      </g>
     </g>
    </g>
    <g id="ytick_12">
     <g id="line2d_42">
      <path clip-path="url(#p5c3c02779b)" d="M 53.328125 23.161594 
L 388.128125 23.161594 
" style="fill:none;stroke:#b0b0b0;stroke-linecap:square;stroke-opacity:0.3;stroke-width:0.8;"/>
     </g>
     <g id="line2d_43">
      <g>
       <use style="stroke:#000000;stroke-width:0.6;" x="53.328125" xlink:href="#mf73a83af01" y="23.161594"/>
      </g>
     </g>
     <g id="text_20">
      <!-- 5000 -->
      <g transform="translate(22.478125 26.960813)scale(0.1 -0.1)">
       <use xlink:href="#DejaVuSans-53"/>
       <use x="63.623047" xlink:href="#DejaVuSans-48"/>
       <use x="127.246094" xlink:href="#DejaVuSans-48"/>
       <use x="190.869141" xlink:href="#DejaVuSans-48"/>
      </g>
     </g>
    </g>
    <g id="text_21">
     <!-- Cases per million -->
     <defs>
      <path d="M 64.40625 67.28125 
L 64.40625 56.890625 
Q 59.421875 61.53125 53.78125 63.8125 
Q 48.140625 66.109375 41.796875 66.109375 
Q 29.296875 66.109375 22.65625 58.46875 
Q 16.015625 50.828125 16.015625 36.375 
Q 16.015625 21.96875 22.65625 14.328125 
Q 29.296875 6.6875 41.796875 6.6875 
Q 48.140625 6.6875 53.78125 8.984375 
Q 59.421875 11.28125 64.40625 15.921875 
L 64.40625 5.609375 
Q 59.234375 2.09375 53.4375 0.328125 
Q 47.65625 -1.421875 41.21875 -1.421875 
Q 24.65625 -1.421875 15.125 8.703125 
Q 5.609375 18.84375 5.609375 36.375 
Q 5.609375 53.953125 15.125 64.078125 
Q 24.65625 74.21875 41.21875 74.21875 
Q 47.75 74.21875 53.53125 72.484375 
Q 59.328125 70.75 64.40625 67.28125 
z
" id="DejaVuSans-67"/>
      <path d="M 44.28125 53.078125 
L 44.28125 44.578125 
Q 40.484375 46.53125 36.375 47.5 
Q 32.28125 48.484375 27.875 48.484375 
Q 21.1875 48.484375 17.84375 46.4375 
Q 14.5 44.390625 14.5 40.28125 
Q 14.5 37.15625 16.890625 35.375 
Q 19.28125 33.59375 26.515625 31.984375 
L 29.59375 31.296875 
Q 39.15625 29.25 43.1875 25.515625 
Q 47.21875 21.78125 47.21875 15.09375 
Q 47.21875 7.46875 41.1875 3.015625 
Q 35.15625 -1.421875 24.609375 -1.421875 
Q 20.21875 -1.421875 15.453125 -0.5625 
Q 10.6875 0.296875 5.421875 2 
L 5.421875 11.28125 
Q 10.40625 8.6875 15.234375 7.390625 
Q 20.0625 6.109375 24.8125 6.109375 
Q 31.15625 6.109375 34.5625 8.28125 
Q 37.984375 10.453125 37.984375 14.40625 
Q 37.984375 18.0625 35.515625 20.015625 
Q 33.0625 21.96875 24.703125 23.78125 
L 21.578125 24.515625 
Q 13.234375 26.265625 9.515625 29.90625 
Q 5.8125 33.546875 5.8125 39.890625 
Q 5.8125 47.609375 11.28125 51.796875 
Q 16.75 56 26.8125 56 
Q 31.78125 56 36.171875 55.265625 
Q 40.578125 54.546875 44.28125 53.078125 
z
" id="DejaVuSans-115"/>
      <path id="DejaVuSans-32"/>
      <path d="M 52 44.1875 
Q 55.375 50.25 60.0625 53.125 
Q 64.75 56 71.09375 56 
Q 79.640625 56 84.28125 50.015625 
Q 88.921875 44.046875 88.921875 33.015625 
L 88.921875 0 
L 79.890625 0 
L 79.890625 32.71875 
Q 79.890625 40.578125 77.09375 44.375 
Q 74.3125 48.1875 68.609375 48.1875 
Q 61.625 48.1875 57.5625 43.546875 
Q 53.515625 38.921875 53.515625 30.90625 
L 53.515625 0 
L 44.484375 0 
L 44.484375 32.71875 
Q 44.484375 40.625 41.703125 44.40625 
Q 38.921875 48.1875 33.109375 48.1875 
Q 26.21875 48.1875 22.15625 43.53125 
Q 18.109375 38.875 18.109375 30.90625 
L 18.109375 0 
L 9.078125 0 
L 9.078125 54.6875 
L 18.109375 54.6875 
L 18.109375 46.1875 
Q 21.1875 51.21875 25.484375 53.609375 
Q 29.78125 56 35.6875 56 
Q 41.65625 56 45.828125 52.96875 
Q 50 49.953125 52 44.1875 
z
" id="DejaVuSans-109"/>
      <path d="M 9.421875 54.6875 
L 18.40625 54.6875 
L 18.40625 0 
L 9.421875 0 
z
M 9.421875 75.984375 
L 18.40625 75.984375 
L 18.40625 64.59375 
L 9.421875 64.59375 
z
" id="DejaVuSans-105"/>
      <path d="M 9.421875 75.984375 
L 18.40625 75.984375 
L 18.40625 0 
L 9.421875 0 
z
" id="DejaVuSans-108"/>
      <path d="M 30.609375 48.390625 
Q 23.390625 48.390625 19.1875 42.75 
Q 14.984375 37.109375 14.984375 27.296875 
Q 14.984375 17.484375 19.15625 11.84375 
Q 23.34375 6.203125 30.609375 6.203125 
Q 37.796875 6.203125 41.984375 11.859375 
Q 46.1875 17.53125 46.1875 27.296875 
Q 46.1875 37.015625 41.984375 42.703125 
Q 37.796875 48.390625 30.609375 48.390625 
z
M 30.609375 56 
Q 42.328125 56 49.015625 48.375 
Q 55.71875 40.765625 55.71875 27.296875 
Q 55.71875 13.875 49.015625 6.21875 
Q 42.328125 -1.421875 30.609375 -1.421875 
Q 18.84375 -1.421875 12.171875 6.21875 
Q 5.515625 13.875 5.515625 27.296875 
Q 5.515625 40.765625 12.171875 48.375 
Q 18.84375 56 30.609375 56 
z
" id="DejaVuSans-111"/>
      <path d="M 54.890625 33.015625 
L 54.890625 0 
L 45.90625 0 
L 45.90625 32.71875 
Q 45.90625 40.484375 42.875 44.328125 
Q 39.84375 48.1875 33.796875 48.1875 
Q 26.515625 48.1875 22.3125 43.546875 
Q 18.109375 38.921875 18.109375 30.90625 
L 18.109375 0 
L 9.078125 0 
L 9.078125 54.6875 
L 18.109375 54.6875 
L 18.109375 46.1875 
Q 21.34375 51.125 25.703125 53.5625 
Q 30.078125 56 35.796875 56 
Q 45.21875 56 50.046875 50.171875 
Q 54.890625 44.34375 54.890625 33.015625 
z
" id="DejaVuSans-110"/>
     </defs>
     <g transform="translate(14.798438 174.018594)rotate(-90)scale(0.1 -0.1)">
      <use xlink:href="#DejaVuSans-67"/>
      <use x="69.824219" xlink:href="#DejaVuSans-97"/>
      <use x="131.103516" xlink:href="#DejaVuSans-115"/>
      <use x="183.203125" xlink:href="#DejaVuSans-101"/>
      <use x="244.726562" xlink:href="#DejaVuSans-115"/>
      <use x="296.826172" xlink:href="#DejaVuSans-32"/>
      <use x="328.613281" xlink:href="#DejaVuSans-112"/>
      <use x="392.089844" xlink:href="#DejaVuSans-101"/>
      <use x="453.613281" xlink:href="#DejaVuSans-114"/>
      <use x="494.726562" xlink:href="#DejaVuSans-32"/>
      <use x="526.513672" xlink:href="#DejaVuSans-109"/>
      <use x="623.925781" xlink:href="#DejaVuSans-105"/>
      <use x="651.708984" xlink:href="#DejaVuSans-108"/>
      <use x="679.492188" xlink:href="#DejaVuSans-108"/>
      <use x="707.275391" xlink:href="#DejaVuSans-105"/>
      <use x="735.058594" xlink:href="#DejaVuSans-111"/>
      <use x="796.240234" xlink:href="#DejaVuSans-110"/>
     </g>
    </g>
   </g>
   <g id="line2d_44">
    <path clip-path="url(#p5c3c02779b)" d="M 40.92332 318.228869 
L 45.058255 318.228869 
L 49.19319 318.228869 
L 53.328125 318.228869 
L 57.46306 318.228869 
L 61.597995 318.228869 
L 65.73293 296.681656 
L 69.867866 296.681656 
L 74.002801 296.681656 
L 78.137736 286.129424 
L 82.272671 284.279116 
L 86.407606 282.974702 
L 90.542541 282.974702 
L 94.677477 281.733943 
L 98.812412 279.79174 
L 102.947347 277.300049 
L 107.082282 269.984148 
L 111.217217 264.513757 
L 115.352152 258.351603 
L 119.487088 249.817947 
L 123.622023 240.484229 
L 127.756958 232.596833 
L 131.891893 227.05112 
L 136.026828 220.353765 
L 140.161763 211.581287 
L 144.296698 204.736634 
L 148.431634 199.003407 
L 152.566569 191.574646 
L 156.701504 185.509263 
L 160.836439 178.733643 
L 164.971374 172.597757 
L 169.106309 164.393085 
L 173.241245 154.671407 
L 177.37618 144.501639 
L 181.511115 135.822678 
L 185.64605 130.169626 
L 189.780985 121.871068 
L 193.91592 115.085386 
L 198.050856 109.336373 
L 202.185791 103.787811 
L 206.320726 98.040114 
L 210.455661 93.023176 
L 214.590596 88.68495 
L 218.725531 84.870896 
L 222.860466 81.09647 
L 226.995402 77.548901 
L 231.130337 74.23149 
L 235.265272 70.942783 
L 239.400207 67.818847 
L 243.535142 64.896843 
L 247.670077 62.916483 
L 251.805013 60.679929 
L 255.939948 58.48244 
L 260.074883 56.547963 
L 264.209818 54.664474 
L 268.344753 52.90378 
L 272.479688 51.43319 
L 276.614624 50.157965 
L 280.749559 48.977021 
L 284.884494 47.837246 
L 289.019429 46.618952 
L 293.154364 45.476516 
L 297.289299 44.298107 
L 301.424234 43.28408 
L 305.55917 42.406709 
L 309.694105 41.494222 
L 313.82904 40.676425 
L 317.963975 39.762618 
L 322.09891 38.830736 
L 326.233845 37.736757 
L 330.368781 36.781418 
L 334.503716 36.089176 
L 338.638651 35.498529 
L 342.773586 34.866898 
L 346.908521 34.178306 
L 351.043456 33.45207 
L 355.178392 32.629308 
" style="fill:none;stroke:#ff7f0e;stroke-linecap:square;stroke-width:1.5;"/>
    <defs>
     <path d="M 0 3 
C 0.795609 3 1.55874 2.683901 2.12132 2.12132 
C 2.683901 1.55874 3 0.795609 3 0 
C 3 -0.795609 2.683901 -1.55874 2.12132 -2.12132 
C 1.55874 -2.683901 0.795609 -3 0 -3 
C -0.795609 -3 -1.55874 -2.683901 -2.12132 -2.12132 
C -2.683901 -1.55874 -3 -0.795609 -3 0 
C -3 0.795609 -2.683901 1.55874 -2.12132 2.12132 
C -1.55874 2.683901 -0.795609 3 0 3 
z
" id="m6d92002c7f" style="stroke:#ff7f0e;"/>
    </defs>
    <g clip-path="url(#p5c3c02779b)">
     <use style="fill:#ff7f0e;stroke:#ff7f0e;" x="40.92332" xlink:href="#m6d92002c7f" y="318.228869"/>
     <use style="fill:#ff7f0e;stroke:#ff7f0e;" x="45.058255" xlink:href="#m6d92002c7f" y="318.228869"/>
     <use style="fill:#ff7f0e;stroke:#ff7f0e;" x="49.19319" xlink:href="#m6d92002c7f" y="318.228869"/>
     <use style="fill:#ff7f0e;stroke:#ff7f0e;" x="53.328125" xlink:href="#m6d92002c7f" y="318.228869"/>
     <use style="fill:#ff7f0e;stroke:#ff7f0e;" x="57.46306" xlink:href="#m6d92002c7f" y="318.228869"/>
     <use style="fill:#ff7f0e;stroke:#ff7f0e;" x="61.597995" xlink:href="#m6d92002c7f" y="318.228869"/>
     <use style="fill:#ff7f0e;stroke:#ff7f0e;" x="65.73293" xlink:href="#m6d92002c7f" y="296.681656"/>
     <use style="fill:#ff7f0e;stroke:#ff7f0e;" x="69.867866" xlink:href="#m6d92002c7f" y="296.681656"/>
     <use style="fill:#ff7f0e;stroke:#ff7f0e;" x="74.002801" xlink:href="#m6d92002c7f" y="296.681656"/>
     <use style="fill:#ff7f0e;stroke:#ff7f0e;" x="78.137736" xlink:href="#m6d92002c7f" y="286.129424"/>
     <use style="fill:#ff7f0e;stroke:#ff7f0e;" x="82.272671" xlink:href="#m6d92002c7f" y="284.279116"/>
     <use style="fill:#ff7f0e;stroke:#ff7f0e;" x="86.407606" xlink:href="#m6d92002c7f" y="282.974702"/>
     <use style="fill:#ff7f0e;stroke:#ff7f0e;" x="90.542541" xlink:href="#m6d92002c7f" y="282.974702"/>
     <use style="fill:#ff7f0e;stroke:#ff7f0e;" x="94.677477" xlink:href="#m6d92002c7f" y="281.733943"/>
     <use style="fill:#ff7f0e;stroke:#ff7f0e;" x="98.812412" xlink:href="#m6d92002c7f" y="279.79174"/>
     <use style="fill:#ff7f0e;stroke:#ff7f0e;" x="102.947347" xlink:href="#m6d92002c7f" y="277.300049"/>
     <use style="fill:#ff7f0e;stroke:#ff7f0e;" x="107.082282" xlink:href="#m6d92002c7f" y="269.984148"/>
     <use style="fill:#ff7f0e;stroke:#ff7f0e;" x="111.217217" xlink:href="#m6d92002c7f" y="264.513757"/>
     <use style="fill:#ff7f0e;stroke:#ff7f0e;" x="115.352152" xlink:href="#m6d92002c7f" y="258.351603"/>
     <use style="fill:#ff7f0e;stroke:#ff7f0e;" x="119.487088" xlink:href="#m6d92002c7f" y="249.817947"/>
     <use style="fill:#ff7f0e;stroke:#ff7f0e;" x="123.622023" xlink:href="#m6d92002c7f" y="240.484229"/>
     <use style="fill:#ff7f0e;stroke:#ff7f0e;" x="127.756958" xlink:href="#m6d92002c7f" y="232.596833"/>
     <use style="fill:#ff7f0e;stroke:#ff7f0e;" x="131.891893" xlink:href="#m6d92002c7f" y="227.05112"/>
     <use style="fill:#ff7f0e;stroke:#ff7f0e;" x="136.026828" xlink:href="#m6d92002c7f" y="220.353765"/>
     <use style="fill:#ff7f0e;stroke:#ff7f0e;" x="140.161763" xlink:href="#m6d92002c7f" y="211.581287"/>
     <use style="fill:#ff7f0e;stroke:#ff7f0e;" x="144.296698" xlink:href="#m6d92002c7f" y="204.736634"/>
     <use style="fill:#ff7f0e;stroke:#ff7f0e;" x="148.431634" xlink:href="#m6d92002c7f" y="199.003407"/>
     <use style="fill:#ff7f0e;stroke:#ff7f0e;" x="152.566569" xlink:href="#m6d92002c7f" y="191.574646"/>
     <use style="fill:#ff7f0e;stroke:#ff7f0e;" x="156.701504" xlink:href="#m6d92002c7f" y="185.509263"/>
     <use style="fill:#ff7f0e;stroke:#ff7f0e;" x="160.836439" xlink:href="#m6d92002c7f" y="178.733643"/>
     <use style="fill:#ff7f0e;stroke:#ff7f0e;" x="164.971374" xlink:href="#m6d92002c7f" y="172.597757"/>
     <use style="fill:#ff7f0e;stroke:#ff7f0e;" x="169.106309" xlink:href="#m6d92002c7f" y="164.393085"/>
     <use style="fill:#ff7f0e;stroke:#ff7f0e;" x="173.241245" xlink:href="#m6d92002c7f" y="154.671407"/>
     <use style="fill:#ff7f0e;stroke:#ff7f0e;" x="177.37618" xlink:href="#m6d92002c7f" y="144.501639"/>
     <use style="fill:#ff7f0e;stroke:#ff7f0e;" x="181.511115" xlink:href="#m6d92002c7f" y="135.822678"/>
     <use style="fill:#ff7f0e;stroke:#ff7f0e;" x="185.64605" xlink:href="#m6d92002c7f" y="130.169626"/>
     <use style="fill:#ff7f0e;stroke:#ff7f0e;" x="189.780985" xlink:href="#m6d92002c7f" y="121.871068"/>
     <use style="fill:#ff7f0e;stroke:#ff7f0e;" x="193.91592" xlink:href="#m6d92002c7f" y="115.085386"/>
     <use style="fill:#ff7f0e;stroke:#ff7f0e;" x="198.050856" xlink:href="#m6d92002c7f" y="109.336373"/>
     <use style="fill:#ff7f0e;stroke:#ff7f0e;" x="202.185791" xlink:href="#m6d92002c7f" y="103.787811"/>
     <use style="fill:#ff7f0e;stroke:#ff7f0e;" x="206.320726" xlink:href="#m6d92002c7f" y="98.040114"/>
     <use style="fill:#ff7f0e;stroke:#ff7f0e;" x="210.455661" xlink:href="#m6d92002c7f" y="93.023176"/>
     <use style="fill:#ff7f0e;stroke:#ff7f0e;" x="214.590596" xlink:href="#m6d92002c7f" y="88.68495"/>
     <use style="fill:#ff7f0e;stroke:#ff7f0e;" x="218.725531" xlink:href="#m6d92002c7f" y="84.870896"/>
     <use style="fill:#ff7f0e;stroke:#ff7f0e;" x="222.860466" xlink:href="#m6d92002c7f" y="81.09647"/>
     <use style="fill:#ff7f0e;stroke:#ff7f0e;" x="226.995402" xlink:href="#m6d92002c7f" y="77.548901"/>
     <use style="fill:#ff7f0e;stroke:#ff7f0e;" x="231.130337" xlink:href="#m6d92002c7f" y="74.23149"/>
     <use style="fill:#ff7f0e;stroke:#ff7f0e;" x="235.265272" xlink:href="#m6d92002c7f" y="70.942783"/>
     <use style="fill:#ff7f0e;stroke:#ff7f0e;" x="239.400207" xlink:href="#m6d92002c7f" y="67.818847"/>
     <use style="fill:#ff7f0e;stroke:#ff7f0e;" x="243.535142" xlink:href="#m6d92002c7f" y="64.896843"/>
     <use style="fill:#ff7f0e;stroke:#ff7f0e;" x="247.670077" xlink:href="#m6d92002c7f" y="62.916483"/>
     <use style="fill:#ff7f0e;stroke:#ff7f0e;" x="251.805013" xlink:href="#m6d92002c7f" y="60.679929"/>
     <use style="fill:#ff7f0e;stroke:#ff7f0e;" x="255.939948" xlink:href="#m6d92002c7f" y="58.48244"/>
     <use style="fill:#ff7f0e;stroke:#ff7f0e;" x="260.074883" xlink:href="#m6d92002c7f" y="56.547963"/>
     <use style="fill:#ff7f0e;stroke:#ff7f0e;" x="264.209818" xlink:href="#m6d92002c7f" y="54.664474"/>
     <use style="fill:#ff7f0e;stroke:#ff7f0e;" x="268.344753" xlink:href="#m6d92002c7f" y="52.90378"/>
     <use style="fill:#ff7f0e;stroke:#ff7f0e;" x="272.479688" xlink:href="#m6d92002c7f" y="51.43319"/>
     <use style="fill:#ff7f0e;stroke:#ff7f0e;" x="276.614624" xlink:href="#m6d92002c7f" y="50.157965"/>
     <use style="fill:#ff7f0e;stroke:#ff7f0e;" x="280.749559" xlink:href="#m6d92002c7f" y="48.977021"/>
     <use style="fill:#ff7f0e;stroke:#ff7f0e;" x="284.884494" xlink:href="#m6d92002c7f" y="47.837246"/>
     <use style="fill:#ff7f0e;stroke:#ff7f0e;" x="289.019429" xlink:href="#m6d92002c7f" y="46.618952"/>
     <use style="fill:#ff7f0e;stroke:#ff7f0e;" x="293.154364" xlink:href="#m6d92002c7f" y="45.476516"/>
     <use style="fill:#ff7f0e;stroke:#ff7f0e;" x="297.289299" xlink:href="#m6d92002c7f" y="44.298107"/>
     <use style="fill:#ff7f0e;stroke:#ff7f0e;" x="301.424234" xlink:href="#m6d92002c7f" y="43.28408"/>
     <use style="fill:#ff7f0e;stroke:#ff7f0e;" x="305.55917" xlink:href="#m6d92002c7f" y="42.406709"/>
     <use style="fill:#ff7f0e;stroke:#ff7f0e;" x="309.694105" xlink:href="#m6d92002c7f" y="41.494222"/>
     <use style="fill:#ff7f0e;stroke:#ff7f0e;" x="313.82904" xlink:href="#m6d92002c7f" y="40.676425"/>
     <use style="fill:#ff7f0e;stroke:#ff7f0e;" x="317.963975" xlink:href="#m6d92002c7f" y="39.762618"/>
     <use style="fill:#ff7f0e;stroke:#ff7f0e;" x="322.09891" xlink:href="#m6d92002c7f" y="38.830736"/>
     <use style="fill:#ff7f0e;stroke:#ff7f0e;" x="326.233845" xlink:href="#m6d92002c7f" y="37.736757"/>
     <use style="fill:#ff7f0e;stroke:#ff7f0e;" x="330.368781" xlink:href="#m6d92002c7f" y="36.781418"/>
     <use style="fill:#ff7f0e;stroke:#ff7f0e;" x="334.503716" xlink:href="#m6d92002c7f" y="36.089176"/>
     <use style="fill:#ff7f0e;stroke:#ff7f0e;" x="338.638651" xlink:href="#m6d92002c7f" y="35.498529"/>
     <use style="fill:#ff7f0e;stroke:#ff7f0e;" x="342.773586" xlink:href="#m6d92002c7f" y="34.866898"/>
     <use style="fill:#ff7f0e;stroke:#ff7f0e;" x="346.908521" xlink:href="#m6d92002c7f" y="34.178306"/>
     <use style="fill:#ff7f0e;stroke:#ff7f0e;" x="351.043456" xlink:href="#m6d92002c7f" y="33.45207"/>
     <use style="fill:#ff7f0e;stroke:#ff7f0e;" x="355.178392" xlink:href="#m6d92002c7f" y="32.629308"/>
    </g>
   </g>
   <g id="line2d_45">
    <path clip-path="url(#p5c3c02779b)" d="M 40.92332 316.075346 
L 45.058255 316.075346 
L 49.19319 316.075346 
L 53.328125 316.075346 
L 57.46306 316.075346 
L 61.597995 308.759446 
L 65.73293 266.589867 
L 69.867866 232.896344 
L 74.002801 215.430724 
L 78.137736 205.831314 
L 82.272671 197.084992 
L 86.407606 187.546508 
L 90.542541 179.106058 
L 94.677477 171.338005 
L 98.812412 165.282895 
L 102.947347 154.836802 
L 107.082282 150.26514 
L 111.217217 145.023829 
L 115.352152 139.664171 
L 119.487088 134.010932 
L 123.622023 129.339271 
L 127.756958 123.281346 
L 131.891893 117.533312 
L 136.026828 111.98795 
L 140.161763 109.413879 
L 144.296698 104.192771 
L 148.431634 99.287957 
L 152.566569 95.327235 
L 156.701504 90.73274 
L 160.836439 86.746929 
L 164.971374 83.624427 
L 169.106309 80.60613 
L 173.241245 77.418753 
L 177.37618 73.886186 
L 181.511115 70.423341 
L 185.64605 67.103535 
L 189.780985 64.59265 
L 193.91592 62.612424 
L 198.050856 60.605648 
L 202.185791 58.759043 
L 206.320726 56.722202 
L 210.455661 54.922761 
L 214.590596 53.224395 
L 218.725531 51.828691 
L 222.860466 50.795659 
L 226.995402 49.802237 
L 231.130337 48.677952 
L 235.265272 47.626419 
L 239.400207 46.634254 
L 243.535142 45.634419 
L 247.670077 44.768667 
L 251.805013 44.068614 
L 255.939948 43.492135 
L 260.074883 42.782644 
L 264.209818 42.02717 
L 268.344753 41.337053 
L 272.479688 40.540779 
L 276.614624 39.866403 
L 280.749559 39.358708 
L 284.884494 38.889263 
L 289.019429 38.475248 
L 293.154364 37.898862 
L 297.289299 37.378427 
L 301.424234 36.868718 
L 305.55917 36.432035 
L 309.694105 36.113479 
L 313.82904 35.733391 
L 317.963975 35.271733 
L 322.09891 34.91504 
L 326.233845 34.513819 
L 330.368781 34.205122 
L 334.503716 33.904372 
L 338.638651 33.681632 
L 342.773586 33.416363 
L 346.908521 33.154457 
L 351.043456 32.921694 
L 355.178392 32.679639 
" style="fill:none;stroke:#2ca02c;stroke-linecap:square;stroke-width:1.5;"/>
    <defs>
     <path d="M 0 3 
C 0.795609 3 1.55874 2.683901 2.12132 2.12132 
C 2.683901 1.55874 3 0.795609 3 0 
C 3 -0.795609 2.683901 -1.55874 2.12132 -2.12132 
C 1.55874 -2.683901 0.795609 -3 0 -3 
C -0.795609 -3 -1.55874 -2.683901 -2.12132 -2.12132 
C -2.683901 -1.55874 -3 -0.795609 -3 0 
C -3 0.795609 -2.683901 1.55874 -2.12132 2.12132 
C -1.55874 2.683901 -0.795609 3 0 3 
z
" id="m2dfd94a098" style="stroke:#2ca02c;"/>
    </defs>
    <g clip-path="url(#p5c3c02779b)">
     <use style="fill:#2ca02c;stroke:#2ca02c;" x="40.92332" xlink:href="#m2dfd94a098" y="316.075346"/>
     <use style="fill:#2ca02c;stroke:#2ca02c;" x="45.058255" xlink:href="#m2dfd94a098" y="316.075346"/>
     <use style="fill:#2ca02c;stroke:#2ca02c;" x="49.19319" xlink:href="#m2dfd94a098" y="316.075346"/>
     <use style="fill:#2ca02c;stroke:#2ca02c;" x="53.328125" xlink:href="#m2dfd94a098" y="316.075346"/>
     <use style="fill:#2ca02c;stroke:#2ca02c;" x="57.46306" xlink:href="#m2dfd94a098" y="316.075346"/>
     <use style="fill:#2ca02c;stroke:#2ca02c;" x="61.597995" xlink:href="#m2dfd94a098" y="308.759446"/>
     <use style="fill:#2ca02c;stroke:#2ca02c;" x="65.73293" xlink:href="#m2dfd94a098" y="266.589867"/>
     <use style="fill:#2ca02c;stroke:#2ca02c;" x="69.867866" xlink:href="#m2dfd94a098" y="232.896344"/>
     <use style="fill:#2ca02c;stroke:#2ca02c;" x="74.002801" xlink:href="#m2dfd94a098" y="215.430724"/>
     <use style="fill:#2ca02c;stroke:#2ca02c;" x="78.137736" xlink:href="#m2dfd94a098" y="205.831314"/>
     <use style="fill:#2ca02c;stroke:#2ca02c;" x="82.272671" xlink:href="#m2dfd94a098" y="197.084992"/>
     <use style="fill:#2ca02c;stroke:#2ca02c;" x="86.407606" xlink:href="#m2dfd94a098" y="187.546508"/>
     <use style="fill:#2ca02c;stroke:#2ca02c;" x="90.542541" xlink:href="#m2dfd94a098" y="179.106058"/>
     <use style="fill:#2ca02c;stroke:#2ca02c;" x="94.677477" xlink:href="#m2dfd94a098" y="171.338005"/>
     <use style="fill:#2ca02c;stroke:#2ca02c;" x="98.812412" xlink:href="#m2dfd94a098" y="165.282895"/>
     <use style="fill:#2ca02c;stroke:#2ca02c;" x="102.947347" xlink:href="#m2dfd94a098" y="154.836802"/>
     <use style="fill:#2ca02c;stroke:#2ca02c;" x="107.082282" xlink:href="#m2dfd94a098" y="150.26514"/>
     <use style="fill:#2ca02c;stroke:#2ca02c;" x="111.217217" xlink:href="#m2dfd94a098" y="145.023829"/>
     <use style="fill:#2ca02c;stroke:#2ca02c;" x="115.352152" xlink:href="#m2dfd94a098" y="139.664171"/>
     <use style="fill:#2ca02c;stroke:#2ca02c;" x="119.487088" xlink:href="#m2dfd94a098" y="134.010932"/>
     <use style="fill:#2ca02c;stroke:#2ca02c;" x="123.622023" xlink:href="#m2dfd94a098" y="129.339271"/>
     <use style="fill:#2ca02c;stroke:#2ca02c;" x="127.756958" xlink:href="#m2dfd94a098" y="123.281346"/>
     <use style="fill:#2ca02c;stroke:#2ca02c;" x="131.891893" xlink:href="#m2dfd94a098" y="117.533312"/>
     <use style="fill:#2ca02c;stroke:#2ca02c;" x="136.026828" xlink:href="#m2dfd94a098" y="111.98795"/>
     <use style="fill:#2ca02c;stroke:#2ca02c;" x="140.161763" xlink:href="#m2dfd94a098" y="109.413879"/>
     <use style="fill:#2ca02c;stroke:#2ca02c;" x="144.296698" xlink:href="#m2dfd94a098" y="104.192771"/>
     <use style="fill:#2ca02c;stroke:#2ca02c;" x="148.431634" xlink:href="#m2dfd94a098" y="99.287957"/>
     <use style="fill:#2ca02c;stroke:#2ca02c;" x="152.566569" xlink:href="#m2dfd94a098" y="95.327235"/>
     <use style="fill:#2ca02c;stroke:#2ca02c;" x="156.701504" xlink:href="#m2dfd94a098" y="90.73274"/>
     <use style="fill:#2ca02c;stroke:#2ca02c;" x="160.836439" xlink:href="#m2dfd94a098" y="86.746929"/>
     <use style="fill:#2ca02c;stroke:#2ca02c;" x="164.971374" xlink:href="#m2dfd94a098" y="83.624427"/>
     <use style="fill:#2ca02c;stroke:#2ca02c;" x="169.106309" xlink:href="#m2dfd94a098" y="80.60613"/>
     <use style="fill:#2ca02c;stroke:#2ca02c;" x="173.241245" xlink:href="#m2dfd94a098" y="77.418753"/>
     <use style="fill:#2ca02c;stroke:#2ca02c;" x="177.37618" xlink:href="#m2dfd94a098" y="73.886186"/>
     <use style="fill:#2ca02c;stroke:#2ca02c;" x="181.511115" xlink:href="#m2dfd94a098" y="70.423341"/>
     <use style="fill:#2ca02c;stroke:#2ca02c;" x="185.64605" xlink:href="#m2dfd94a098" y="67.103535"/>
     <use style="fill:#2ca02c;stroke:#2ca02c;" x="189.780985" xlink:href="#m2dfd94a098" y="64.59265"/>
     <use style="fill:#2ca02c;stroke:#2ca02c;" x="193.91592" xlink:href="#m2dfd94a098" y="62.612424"/>
     <use style="fill:#2ca02c;stroke:#2ca02c;" x="198.050856" xlink:href="#m2dfd94a098" y="60.605648"/>
     <use style="fill:#2ca02c;stroke:#2ca02c;" x="202.185791" xlink:href="#m2dfd94a098" y="58.759043"/>
     <use style="fill:#2ca02c;stroke:#2ca02c;" x="206.320726" xlink:href="#m2dfd94a098" y="56.722202"/>
     <use style="fill:#2ca02c;stroke:#2ca02c;" x="210.455661" xlink:href="#m2dfd94a098" y="54.922761"/>
     <use style="fill:#2ca02c;stroke:#2ca02c;" x="214.590596" xlink:href="#m2dfd94a098" y="53.224395"/>
     <use style="fill:#2ca02c;stroke:#2ca02c;" x="218.725531" xlink:href="#m2dfd94a098" y="51.828691"/>
     <use style="fill:#2ca02c;stroke:#2ca02c;" x="222.860466" xlink:href="#m2dfd94a098" y="50.795659"/>
     <use style="fill:#2ca02c;stroke:#2ca02c;" x="226.995402" xlink:href="#m2dfd94a098" y="49.802237"/>
     <use style="fill:#2ca02c;stroke:#2ca02c;" x="231.130337" xlink:href="#m2dfd94a098" y="48.677952"/>
     <use style="fill:#2ca02c;stroke:#2ca02c;" x="235.265272" xlink:href="#m2dfd94a098" y="47.626419"/>
     <use style="fill:#2ca02c;stroke:#2ca02c;" x="239.400207" xlink:href="#m2dfd94a098" y="46.634254"/>
     <use style="fill:#2ca02c;stroke:#2ca02c;" x="243.535142" xlink:href="#m2dfd94a098" y="45.634419"/>
     <use style="fill:#2ca02c;stroke:#2ca02c;" x="247.670077" xlink:href="#m2dfd94a098" y="44.768667"/>
     <use style="fill:#2ca02c;stroke:#2ca02c;" x="251.805013" xlink:href="#m2dfd94a098" y="44.068614"/>
     <use style="fill:#2ca02c;stroke:#2ca02c;" x="255.939948" xlink:href="#m2dfd94a098" y="43.492135"/>
     <use style="fill:#2ca02c;stroke:#2ca02c;" x="260.074883" xlink:href="#m2dfd94a098" y="42.782644"/>
     <use style="fill:#2ca02c;stroke:#2ca02c;" x="264.209818" xlink:href="#m2dfd94a098" y="42.02717"/>
     <use style="fill:#2ca02c;stroke:#2ca02c;" x="268.344753" xlink:href="#m2dfd94a098" y="41.337053"/>
     <use style="fill:#2ca02c;stroke:#2ca02c;" x="272.479688" xlink:href="#m2dfd94a098" y="40.540779"/>
     <use style="fill:#2ca02c;stroke:#2ca02c;" x="276.614624" xlink:href="#m2dfd94a098" y="39.866403"/>
     <use style="fill:#2ca02c;stroke:#2ca02c;" x="280.749559" xlink:href="#m2dfd94a098" y="39.358708"/>
     <use style="fill:#2ca02c;stroke:#2ca02c;" x="284.884494" xlink:href="#m2dfd94a098" y="38.889263"/>
     <use style="fill:#2ca02c;stroke:#2ca02c;" x="289.019429" xlink:href="#m2dfd94a098" y="38.475248"/>
     <use style="fill:#2ca02c;stroke:#2ca02c;" x="293.154364" xlink:href="#m2dfd94a098" y="37.898862"/>
     <use style="fill:#2ca02c;stroke:#2ca02c;" x="297.289299" xlink:href="#m2dfd94a098" y="37.378427"/>
     <use style="fill:#2ca02c;stroke:#2ca02c;" x="301.424234" xlink:href="#m2dfd94a098" y="36.868718"/>
     <use style="fill:#2ca02c;stroke:#2ca02c;" x="305.55917" xlink:href="#m2dfd94a098" y="36.432035"/>
     <use style="fill:#2ca02c;stroke:#2ca02c;" x="309.694105" xlink:href="#m2dfd94a098" y="36.113479"/>
     <use style="fill:#2ca02c;stroke:#2ca02c;" x="313.82904" xlink:href="#m2dfd94a098" y="35.733391"/>
     <use style="fill:#2ca02c;stroke:#2ca02c;" x="317.963975" xlink:href="#m2dfd94a098" y="35.271733"/>
     <use style="fill:#2ca02c;stroke:#2ca02c;" x="322.09891" xlink:href="#m2dfd94a098" y="34.91504"/>
     <use style="fill:#2ca02c;stroke:#2ca02c;" x="326.233845" xlink:href="#m2dfd94a098" y="34.513819"/>
     <use style="fill:#2ca02c;stroke:#2ca02c;" x="330.368781" xlink:href="#m2dfd94a098" y="34.205122"/>
     <use style="fill:#2ca02c;stroke:#2ca02c;" x="334.503716" xlink:href="#m2dfd94a098" y="33.904372"/>
     <use style="fill:#2ca02c;stroke:#2ca02c;" x="338.638651" xlink:href="#m2dfd94a098" y="33.681632"/>
     <use style="fill:#2ca02c;stroke:#2ca02c;" x="342.773586" xlink:href="#m2dfd94a098" y="33.416363"/>
     <use style="fill:#2ca02c;stroke:#2ca02c;" x="346.908521" xlink:href="#m2dfd94a098" y="33.154457"/>
     <use style="fill:#2ca02c;stroke:#2ca02c;" x="351.043456" xlink:href="#m2dfd94a098" y="32.921694"/>
     <use style="fill:#2ca02c;stroke:#2ca02c;" x="355.178392" xlink:href="#m2dfd94a098" y="32.679639"/>
    </g>
   </g>
   <g id="line2d_46">
    <path clip-path="url(#p5c3c02779b)" d="M 40.92332 291.015361 
L 45.058255 291.015361 
L 49.19319 291.015361 
L 53.328125 291.015361 
L 57.46306 291.015361 
L 61.597995 291.015361 
L 65.73293 291.015361 
L 69.867866 291.015361 
L 74.002801 281.663934 
L 78.137736 281.663934 
L 82.272671 281.663934 
L 86.407606 281.663934 
L 90.542541 276.38356 
L 94.677477 270.708906 
L 98.812412 267.15469 
L 102.947347 255.761194 
L 107.082282 253.725668 
L 111.217217 246.903579 
L 115.352152 233.321591 
L 119.487088 226.00569 
L 123.622023 217.199711 
L 127.756958 211.033631 
L 131.891893 203.778642 
L 136.026828 200.121226 
L 140.161763 195.630355 
L 144.296698 190.971702 
L 148.431634 184.64215 
L 152.566569 176.962492 
L 156.701504 167.892068 
L 160.836439 162.831533 
L 164.971374 160.194246 
L 169.106309 154.240944 
L 173.241245 146.672001 
L 177.37618 141.102152 
L 181.511115 136.078326 
L 185.64605 130.203977 
L 189.780985 127.039206 
L 193.91592 123.043118 
L 198.050856 118.099334 
L 202.185791 113.895182 
L 206.320726 108.767047 
L 210.455661 103.143927 
L 214.590596 99.041345 
L 218.725531 95.656366 
L 222.860466 92.454943 
L 226.995402 89.214415 
L 231.130337 85.179849 
L 235.265272 81.758854 
L 239.400207 78.606345 
L 243.535142 76.232154 
L 247.670077 72.880573 
L 251.805013 70.934489 
L 255.939948 69.204024 
L 260.074883 66.794136 
L 264.209818 65.037295 
L 268.344753 61.852931 
L 272.479688 60.109811 
L 276.614624 58.461944 
L 280.749559 57.184414 
L 284.884494 55.72028 
L 289.019429 54.50292 
L 293.154364 53.337729 
L 297.289299 51.992793 
L 301.424234 50.731899 
L 305.55917 49.461651 
L 309.694105 48.490061 
L 313.82904 47.628022 
L 317.963975 46.765659 
L 322.09891 45.907259 
L 326.233845 44.934151 
L 330.368781 44.07785 
L 334.503716 43.32421 
L 338.638651 42.617171 
L 342.773586 41.978606 
L 346.908521 41.343368 
L 351.043456 40.43148 
L 355.178392 39.526932 
" style="fill:none;stroke:#1f77b4;stroke-linecap:square;stroke-width:1.5;"/>
    <defs>
     <path d="M 0 3 
C 0.795609 3 1.55874 2.683901 2.12132 2.12132 
C 2.683901 1.55874 3 0.795609 3 0 
C 3 -0.795609 2.683901 -1.55874 2.12132 -2.12132 
C 1.55874 -2.683901 0.795609 -3 0 -3 
C -0.795609 -3 -1.55874 -2.683901 -2.12132 -2.12132 
C -2.683901 -1.55874 -3 -0.795609 -3 0 
C -3 0.795609 -2.683901 1.55874 -2.12132 2.12132 
C -1.55874 2.683901 -0.795609 3 0 3 
z
" id="ma2517a1a0d" style="stroke:#1f77b4;"/>
    </defs>
    <g clip-path="url(#p5c3c02779b)">
     <use style="fill:#1f77b4;stroke:#1f77b4;" x="40.92332" xlink:href="#ma2517a1a0d" y="291.015361"/>
     <use style="fill:#1f77b4;stroke:#1f77b4;" x="45.058255" xlink:href="#ma2517a1a0d" y="291.015361"/>
     <use style="fill:#1f77b4;stroke:#1f77b4;" x="49.19319" xlink:href="#ma2517a1a0d" y="291.015361"/>
     <use style="fill:#1f77b4;stroke:#1f77b4;" x="53.328125" xlink:href="#ma2517a1a0d" y="291.015361"/>
     <use style="fill:#1f77b4;stroke:#1f77b4;" x="57.46306" xlink:href="#ma2517a1a0d" y="291.015361"/>
     <use style="fill:#1f77b4;stroke:#1f77b4;" x="61.597995" xlink:href="#ma2517a1a0d" y="291.015361"/>
     <use style="fill:#1f77b4;stroke:#1f77b4;" x="65.73293" xlink:href="#ma2517a1a0d" y="291.015361"/>
     <use style="fill:#1f77b4;stroke:#1f77b4;" x="69.867866" xlink:href="#ma2517a1a0d" y="291.015361"/>
     <use style="fill:#1f77b4;stroke:#1f77b4;" x="74.002801" xlink:href="#ma2517a1a0d" y="281.663934"/>
     <use style="fill:#1f77b4;stroke:#1f77b4;" x="78.137736" xlink:href="#ma2517a1a0d" y="281.663934"/>
     <use style="fill:#1f77b4;stroke:#1f77b4;" x="82.272671" xlink:href="#ma2517a1a0d" y="281.663934"/>
     <use style="fill:#1f77b4;stroke:#1f77b4;" x="86.407606" xlink:href="#ma2517a1a0d" y="281.663934"/>
     <use style="fill:#1f77b4;stroke:#1f77b4;" x="90.542541" xlink:href="#ma2517a1a0d" y="276.38356"/>
     <use style="fill:#1f77b4;stroke:#1f77b4;" x="94.677477" xlink:href="#ma2517a1a0d" y="270.708906"/>
     <use style="fill:#1f77b4;stroke:#1f77b4;" x="98.812412" xlink:href="#ma2517a1a0d" y="267.15469"/>
     <use style="fill:#1f77b4;stroke:#1f77b4;" x="102.947347" xlink:href="#ma2517a1a0d" y="255.761194"/>
     <use style="fill:#1f77b4;stroke:#1f77b4;" x="107.082282" xlink:href="#ma2517a1a0d" y="253.725668"/>
     <use style="fill:#1f77b4;stroke:#1f77b4;" x="111.217217" xlink:href="#ma2517a1a0d" y="246.903579"/>
     <use style="fill:#1f77b4;stroke:#1f77b4;" x="115.352152" xlink:href="#ma2517a1a0d" y="233.321591"/>
     <use style="fill:#1f77b4;stroke:#1f77b4;" x="119.487088" xlink:href="#ma2517a1a0d" y="226.00569"/>
     <use style="fill:#1f77b4;stroke:#1f77b4;" x="123.622023" xlink:href="#ma2517a1a0d" y="217.199711"/>
     <use style="fill:#1f77b4;stroke:#1f77b4;" x="127.756958" xlink:href="#ma2517a1a0d" y="211.033631"/>
     <use style="fill:#1f77b4;stroke:#1f77b4;" x="131.891893" xlink:href="#ma2517a1a0d" y="203.778642"/>
     <use style="fill:#1f77b4;stroke:#1f77b4;" x="136.026828" xlink:href="#ma2517a1a0d" y="200.121226"/>
     <use style="fill:#1f77b4;stroke:#1f77b4;" x="140.161763" xlink:href="#ma2517a1a0d" y="195.630355"/>
     <use style="fill:#1f77b4;stroke:#1f77b4;" x="144.296698" xlink:href="#ma2517a1a0d" y="190.971702"/>
     <use style="fill:#1f77b4;stroke:#1f77b4;" x="148.431634" xlink:href="#ma2517a1a0d" y="184.64215"/>
     <use style="fill:#1f77b4;stroke:#1f77b4;" x="152.566569" xlink:href="#ma2517a1a0d" y="176.962492"/>
     <use style="fill:#1f77b4;stroke:#1f77b4;" x="156.701504" xlink:href="#ma2517a1a0d" y="167.892068"/>
     <use style="fill:#1f77b4;stroke:#1f77b4;" x="160.836439" xlink:href="#ma2517a1a0d" y="162.831533"/>
     <use style="fill:#1f77b4;stroke:#1f77b4;" x="164.971374" xlink:href="#ma2517a1a0d" y="160.194246"/>
     <use style="fill:#1f77b4;stroke:#1f77b4;" x="169.106309" xlink:href="#ma2517a1a0d" y="154.240944"/>
     <use style="fill:#1f77b4;stroke:#1f77b4;" x="173.241245" xlink:href="#ma2517a1a0d" y="146.672001"/>
     <use style="fill:#1f77b4;stroke:#1f77b4;" x="177.37618" xlink:href="#ma2517a1a0d" y="141.102152"/>
     <use style="fill:#1f77b4;stroke:#1f77b4;" x="181.511115" xlink:href="#ma2517a1a0d" y="136.078326"/>
     <use style="fill:#1f77b4;stroke:#1f77b4;" x="185.64605" xlink:href="#ma2517a1a0d" y="130.203977"/>
     <use style="fill:#1f77b4;stroke:#1f77b4;" x="189.780985" xlink:href="#ma2517a1a0d" y="127.039206"/>
     <use style="fill:#1f77b4;stroke:#1f77b4;" x="193.91592" xlink:href="#ma2517a1a0d" y="123.043118"/>
     <use style="fill:#1f77b4;stroke:#1f77b4;" x="198.050856" xlink:href="#ma2517a1a0d" y="118.099334"/>
     <use style="fill:#1f77b4;stroke:#1f77b4;" x="202.185791" xlink:href="#ma2517a1a0d" y="113.895182"/>
     <use style="fill:#1f77b4;stroke:#1f77b4;" x="206.320726" xlink:href="#ma2517a1a0d" y="108.767047"/>
     <use style="fill:#1f77b4;stroke:#1f77b4;" x="210.455661" xlink:href="#ma2517a1a0d" y="103.143927"/>
     <use style="fill:#1f77b4;stroke:#1f77b4;" x="214.590596" xlink:href="#ma2517a1a0d" y="99.041345"/>
     <use style="fill:#1f77b4;stroke:#1f77b4;" x="218.725531" xlink:href="#ma2517a1a0d" y="95.656366"/>
     <use style="fill:#1f77b4;stroke:#1f77b4;" x="222.860466" xlink:href="#ma2517a1a0d" y="92.454943"/>
     <use style="fill:#1f77b4;stroke:#1f77b4;" x="226.995402" xlink:href="#ma2517a1a0d" y="89.214415"/>
     <use style="fill:#1f77b4;stroke:#1f77b4;" x="231.130337" xlink:href="#ma2517a1a0d" y="85.179849"/>
     <use style="fill:#1f77b4;stroke:#1f77b4;" x="235.265272" xlink:href="#ma2517a1a0d" y="81.758854"/>
     <use style="fill:#1f77b4;stroke:#1f77b4;" x="239.400207" xlink:href="#ma2517a1a0d" y="78.606345"/>
     <use style="fill:#1f77b4;stroke:#1f77b4;" x="243.535142" xlink:href="#ma2517a1a0d" y="76.232154"/>
     <use style="fill:#1f77b4;stroke:#1f77b4;" x="247.670077" xlink:href="#ma2517a1a0d" y="72.880573"/>
     <use style="fill:#1f77b4;stroke:#1f77b4;" x="251.805013" xlink:href="#ma2517a1a0d" y="70.934489"/>
     <use style="fill:#1f77b4;stroke:#1f77b4;" x="255.939948" xlink:href="#ma2517a1a0d" y="69.204024"/>
     <use style="fill:#1f77b4;stroke:#1f77b4;" x="260.074883" xlink:href="#ma2517a1a0d" y="66.794136"/>
     <use style="fill:#1f77b4;stroke:#1f77b4;" x="264.209818" xlink:href="#ma2517a1a0d" y="65.037295"/>
     <use style="fill:#1f77b4;stroke:#1f77b4;" x="268.344753" xlink:href="#ma2517a1a0d" y="61.852931"/>
     <use style="fill:#1f77b4;stroke:#1f77b4;" x="272.479688" xlink:href="#ma2517a1a0d" y="60.109811"/>
     <use style="fill:#1f77b4;stroke:#1f77b4;" x="276.614624" xlink:href="#ma2517a1a0d" y="58.461944"/>
     <use style="fill:#1f77b4;stroke:#1f77b4;" x="280.749559" xlink:href="#ma2517a1a0d" y="57.184414"/>
     <use style="fill:#1f77b4;stroke:#1f77b4;" x="284.884494" xlink:href="#ma2517a1a0d" y="55.72028"/>
     <use style="fill:#1f77b4;stroke:#1f77b4;" x="289.019429" xlink:href="#ma2517a1a0d" y="54.50292"/>
     <use style="fill:#1f77b4;stroke:#1f77b4;" x="293.154364" xlink:href="#ma2517a1a0d" y="53.337729"/>
     <use style="fill:#1f77b4;stroke:#1f77b4;" x="297.289299" xlink:href="#ma2517a1a0d" y="51.992793"/>
     <use style="fill:#1f77b4;stroke:#1f77b4;" x="301.424234" xlink:href="#ma2517a1a0d" y="50.731899"/>
     <use style="fill:#1f77b4;stroke:#1f77b4;" x="305.55917" xlink:href="#ma2517a1a0d" y="49.461651"/>
     <use style="fill:#1f77b4;stroke:#1f77b4;" x="309.694105" xlink:href="#ma2517a1a0d" y="48.490061"/>
     <use style="fill:#1f77b4;stroke:#1f77b4;" x="313.82904" xlink:href="#ma2517a1a0d" y="47.628022"/>
     <use style="fill:#1f77b4;stroke:#1f77b4;" x="317.963975" xlink:href="#ma2517a1a0d" y="46.765659"/>
     <use style="fill:#1f77b4;stroke:#1f77b4;" x="322.09891" xlink:href="#ma2517a1a0d" y="45.907259"/>
     <use style="fill:#1f77b4;stroke:#1f77b4;" x="326.233845" xlink:href="#ma2517a1a0d" y="44.934151"/>
     <use style="fill:#1f77b4;stroke:#1f77b4;" x="330.368781" xlink:href="#ma2517a1a0d" y="44.07785"/>
     <use style="fill:#1f77b4;stroke:#1f77b4;" x="334.503716" xlink:href="#ma2517a1a0d" y="43.32421"/>
     <use style="fill:#1f77b4;stroke:#1f77b4;" x="338.638651" xlink:href="#ma2517a1a0d" y="42.617171"/>
     <use style="fill:#1f77b4;stroke:#1f77b4;" x="342.773586" xlink:href="#ma2517a1a0d" y="41.978606"/>
     <use style="fill:#1f77b4;stroke:#1f77b4;" x="346.908521" xlink:href="#ma2517a1a0d" y="41.343368"/>
     <use style="fill:#1f77b4;stroke:#1f77b4;" x="351.043456" xlink:href="#ma2517a1a0d" y="40.43148"/>
     <use style="fill:#1f77b4;stroke:#1f77b4;" x="355.178392" xlink:href="#ma2517a1a0d" y="39.526932"/>
    </g>
   </g>
   <g id="line2d_47">
    <path clip-path="url(#p5c3c02779b)" d="M 53.328125 120.271648 
L 388.128125 120.271648 
" style="fill:none;stroke:#1f77b4;stroke-dasharray:7.4,3.2;stroke-dashoffset:0;stroke-opacity:0.7;stroke-width:2;"/>
   </g>
   <g id="line2d_48">
    <path clip-path="url(#p5c3c02779b)" d="M 53.328125 81.060681 
L 388.128125 81.060681 
" style="fill:none;stroke:#ff7f0e;stroke-dasharray:7.4,3.2;stroke-dashoffset:0;stroke-opacity:0.7;stroke-width:2;"/>
   </g>
   <g id="line2d_49">
    <path clip-path="url(#p5c3c02779b)" d="M 53.328125 99.287957 
L 388.128125 99.287957 
" style="fill:none;stroke:#2ca02c;stroke-dasharray:12.8,3.2,2,3.2;stroke-dashoffset:0;stroke-opacity:0.7;stroke-width:2;"/>
   </g>
   <g id="line2d_50">
    <path clip-path="url(#p5c3c02779b)" d="M 82.272671 270.375762 
L 82.272671 22.318125 
" style="fill:none;stroke:#2ca02c;stroke-linecap:square;stroke-opacity:0.3;stroke-width:4;"/>
   </g>
   <g id="line2d_51">
    <path clip-path="url(#p5c3c02779b)" d="M 148.431634 270.375762 
L 148.431634 22.318125 
" style="fill:none;stroke:#ff7f0e;stroke-linecap:square;stroke-opacity:0.3;stroke-width:4;"/>
   </g>
   <g id="line2d_52">
    <path clip-path="url(#p5c3c02779b)" d="M 173.241245 270.375762 
L 173.241245 22.318125 
" style="fill:none;stroke:#1f77b4;stroke-linecap:square;stroke-opacity:0.3;stroke-width:4;"/>
   </g>
   <g id="patch_3">
    <path d="M 53.328125 239.758125 
L 53.328125 22.318125 
" style="fill:none;stroke:#000000;stroke-linecap:square;stroke-linejoin:miter;stroke-width:0.8;"/>
   </g>
   <g id="patch_4">
    <path d="M 388.128125 239.758125 
L 388.128125 22.318125 
" style="fill:none;stroke:#000000;stroke-linecap:square;stroke-linejoin:miter;stroke-width:0.8;"/>
   </g>
   <g id="patch_5">
    <path d="M 53.328125 239.758125 
L 388.128125 239.758125 
" style="fill:none;stroke:#000000;stroke-linecap:square;stroke-linejoin:miter;stroke-width:0.8;"/>
   </g>
   <g id="patch_6">
    <path d="M 53.328125 22.318125 
L 388.128125 22.318125 
" style="fill:none;stroke:#000000;stroke-linecap:square;stroke-linejoin:miter;stroke-width:0.8;"/>
   </g>
   <g id="text_22">
    <!--  Scott Sievert -->
    <defs>
     <path d="M 50 72.515625 
Q 57.421875 72.515625 63.84375 69.828125 
Q 70.265625 67.140625 75.59375 61.8125 
Q 80.90625 56.5 83.546875 50.09375 
Q 86.1875 43.703125 86.1875 36.1875 
Q 86.1875 28.765625 83.546875 22.390625 
Q 80.90625 16.015625 75.59375 10.6875 
Q 70.265625 5.375 63.84375 2.6875 
Q 57.421875 0 50 0 
Q 42.578125 0 36.15625 2.6875 
Q 29.734375 5.375 24.421875 10.6875 
Q 19.09375 16.015625 16.453125 22.390625 
Q 13.8125 28.765625 13.8125 36.1875 
Q 13.8125 43.703125 16.453125 50.09375 
Q 19.09375 56.5 24.421875 61.8125 
Q 29.734375 67.140625 36.15625 69.828125 
Q 42.578125 72.515625 50 72.515625 
z
M 50 67.484375 
Q 43.609375 67.484375 38.078125 65.1875 
Q 32.5625 62.890625 27.984375 58.296875 
Q 23.390625 53.71875 21.046875 48.125 
Q 18.703125 42.53125 18.703125 36.1875 
Q 18.703125 29.890625 21.046875 24.34375 
Q 23.390625 18.796875 27.984375 14.203125 
Q 32.5625 9.625 38.078125 7.296875 
Q 43.609375 4.984375 50 4.984375 
Q 56.453125 4.984375 61.984375 7.296875 
Q 67.53125 9.625 72.125 14.203125 
Q 76.65625 18.75 78.921875 24.265625 
Q 81.203125 29.78125 81.203125 36.1875 
Q 81.203125 42.671875 78.90625 48.21875 
Q 76.609375 53.765625 72.125 58.296875 
Q 67.53125 62.890625 61.984375 65.1875 
Q 56.453125 67.484375 50 67.484375 
z
M 64.59375 55.515625 
L 64.59375 49.21875 
Q 61.375 50.828125 58.203125 51.609375 
Q 55.03125 52.390625 51.8125 52.390625 
Q 44.53125 52.390625 40.453125 48.109375 
Q 36.375 43.84375 36.375 36.1875 
Q 36.375 28.421875 40.546875 24.171875 
Q 44.734375 19.921875 52.296875 19.921875 
Q 55.421875 19.921875 58.390625 20.671875 
Q 61.375 21.4375 64.59375 23.09375 
L 64.59375 16.890625 
Q 61.328125 15.484375 57.984375 14.796875 
Q 54.640625 14.109375 51.21875 14.109375 
Q 40.671875 14.109375 34.546875 20.0625 
Q 28.421875 26.03125 28.421875 36.1875 
Q 28.421875 46.390625 34.546875 52.296875 
Q 40.671875 58.203125 51.21875 58.203125 
Q 54.78125 58.203125 58.09375 57.515625 
Q 61.421875 56.84375 64.59375 55.515625 
z
" id="DejaVuSans-169"/>
     <path d="M 53.515625 70.515625 
L 53.515625 60.890625 
Q 47.90625 63.578125 42.921875 64.890625 
Q 37.9375 66.21875 33.296875 66.21875 
Q 25.25 66.21875 20.875 63.09375 
Q 16.5 59.96875 16.5 54.203125 
Q 16.5 49.359375 19.40625 46.890625 
Q 22.3125 44.4375 30.421875 42.921875 
L 36.375 41.703125 
Q 47.40625 39.59375 52.65625 34.296875 
Q 57.90625 29 57.90625 20.125 
Q 57.90625 9.515625 50.796875 4.046875 
Q 43.703125 -1.421875 29.984375 -1.421875 
Q 24.8125 -1.421875 18.96875 -0.25 
Q 13.140625 0.921875 6.890625 3.21875 
L 6.890625 13.375 
Q 12.890625 10.015625 18.65625 8.296875 
Q 24.421875 6.59375 29.984375 6.59375 
Q 38.421875 6.59375 43.015625 9.90625 
Q 47.609375 13.234375 47.609375 19.390625 
Q 47.609375 24.75 44.3125 27.78125 
Q 41.015625 30.8125 33.5 32.328125 
L 27.484375 33.5 
Q 16.453125 35.6875 11.515625 40.375 
Q 6.59375 45.0625 6.59375 53.421875 
Q 6.59375 63.09375 13.40625 68.65625 
Q 20.21875 74.21875 32.171875 74.21875 
Q 37.3125 74.21875 42.625 73.28125 
Q 47.953125 72.359375 53.515625 70.515625 
z
" id="DejaVuSans-83"/>
     <path d="M 48.78125 52.59375 
L 48.78125 44.1875 
Q 44.96875 46.296875 41.140625 47.34375 
Q 37.3125 48.390625 33.40625 48.390625 
Q 24.65625 48.390625 19.8125 42.84375 
Q 14.984375 37.3125 14.984375 27.296875 
Q 14.984375 17.28125 19.8125 11.734375 
Q 24.65625 6.203125 33.40625 6.203125 
Q 37.3125 6.203125 41.140625 7.25 
Q 44.96875 8.296875 48.78125 10.40625 
L 48.78125 2.09375 
Q 45.015625 0.34375 40.984375 -0.53125 
Q 36.96875 -1.421875 32.421875 -1.421875 
Q 20.0625 -1.421875 12.78125 6.34375 
Q 5.515625 14.109375 5.515625 27.296875 
Q 5.515625 40.671875 12.859375 48.328125 
Q 20.21875 56 33.015625 56 
Q 37.15625 56 41.109375 55.140625 
Q 45.0625 54.296875 48.78125 52.59375 
z
" id="DejaVuSans-99"/>
     <path d="M 18.3125 70.21875 
L 18.3125 54.6875 
L 36.8125 54.6875 
L 36.8125 47.703125 
L 18.3125 47.703125 
L 18.3125 18.015625 
Q 18.3125 11.328125 20.140625 9.421875 
Q 21.96875 7.515625 27.59375 7.515625 
L 36.8125 7.515625 
L 36.8125 0 
L 27.59375 0 
Q 17.1875 0 13.234375 3.875 
Q 9.28125 7.765625 9.28125 18.015625 
L 9.28125 47.703125 
L 2.6875 47.703125 
L 2.6875 54.6875 
L 9.28125 54.6875 
L 9.28125 70.21875 
z
" id="DejaVuSans-116"/>
     <path d="M 2.984375 54.6875 
L 12.5 54.6875 
L 29.59375 8.796875 
L 46.6875 54.6875 
L 56.203125 54.6875 
L 35.6875 0 
L 23.484375 0 
z
" id="DejaVuSans-118"/>
    </defs>
    <g style="fill:#aaaaaa;" transform="translate(309.564357 333.568195)scale(0.1 -0.1)">
     <use xlink:href="#DejaVuSans-169"/>
     <use x="100" xlink:href="#DejaVuSans-32"/>
     <use x="131.787109" xlink:href="#DejaVuSans-83"/>
     <use x="195.263672" xlink:href="#DejaVuSans-99"/>
     <use x="250.244141" xlink:href="#DejaVuSans-111"/>
     <use x="311.425781" xlink:href="#DejaVuSans-116"/>
     <use x="350.634766" xlink:href="#DejaVuSans-116"/>
     <use x="389.84375" xlink:href="#DejaVuSans-32"/>
     <use x="421.630859" xlink:href="#DejaVuSans-83"/>
     <use x="485.107422" xlink:href="#DejaVuSans-105"/>
     <use x="512.890625" xlink:href="#DejaVuSans-101"/>
     <use x="574.414062" xlink:href="#DejaVuSans-118"/>
     <use x="633.59375" xlink:href="#DejaVuSans-101"/>
     <use x="695.117188" xlink:href="#DejaVuSans-114"/>
     <use x="736.230469" xlink:href="#DejaVuSans-116"/>
    </g>
   </g>
   <g id="text_23">
    <!-- Cases per country -->
    <defs>
     <path d="M 8.5 21.578125 
L 8.5 54.6875 
L 17.484375 54.6875 
L 17.484375 21.921875 
Q 17.484375 14.15625 20.5 10.265625 
Q 23.53125 6.390625 29.59375 6.390625 
Q 36.859375 6.390625 41.078125 11.03125 
Q 45.3125 15.671875 45.3125 23.6875 
L 45.3125 54.6875 
L 54.296875 54.6875 
L 54.296875 0 
L 45.3125 0 
L 45.3125 8.40625 
Q 42.046875 3.421875 37.71875 1 
Q 33.40625 -1.421875 27.6875 -1.421875 
Q 18.265625 -1.421875 13.375 4.4375 
Q 8.5 10.296875 8.5 21.578125 
z
M 31.109375 56 
z
" id="DejaVuSans-117"/>
     <path d="M 32.171875 -5.078125 
Q 28.375 -14.84375 24.75 -17.8125 
Q 21.140625 -20.796875 15.09375 -20.796875 
L 7.90625 -20.796875 
L 7.90625 -13.28125 
L 13.1875 -13.28125 
Q 16.890625 -13.28125 18.9375 -11.515625 
Q 21 -9.765625 23.484375 -3.21875 
L 25.09375 0.875 
L 2.984375 54.6875 
L 12.5 54.6875 
L 29.59375 11.921875 
L 46.6875 54.6875 
L 56.203125 54.6875 
z
" id="DejaVuSans-121"/>
    </defs>
    <g transform="translate(166.191875 16.318125)scale(0.12 -0.12)">
     <use xlink:href="#DejaVuSans-67"/>
     <use x="69.824219" xlink:href="#DejaVuSans-97"/>
     <use x="131.103516" xlink:href="#DejaVuSans-115"/>
     <use x="183.203125" xlink:href="#DejaVuSans-101"/>
     <use x="244.726562" xlink:href="#DejaVuSans-115"/>
     <use x="296.826172" xlink:href="#DejaVuSans-32"/>
     <use x="328.613281" xlink:href="#DejaVuSans-112"/>
     <use x="392.089844" xlink:href="#DejaVuSans-101"/>
     <use x="453.613281" xlink:href="#DejaVuSans-114"/>
     <use x="494.726562" xlink:href="#DejaVuSans-32"/>
     <use x="526.513672" xlink:href="#DejaVuSans-99"/>
     <use x="581.494141" xlink:href="#DejaVuSans-111"/>
     <use x="642.675781" xlink:href="#DejaVuSans-117"/>
     <use x="706.054688" xlink:href="#DejaVuSans-110"/>
     <use x="769.433594" xlink:href="#DejaVuSans-116"/>
     <use x="808.642578" xlink:href="#DejaVuSans-114"/>
     <use x="849.755859" xlink:href="#DejaVuSans-121"/>
    </g>
   </g>
   <g id="legend_1">
    <g id="patch_7">
     <path d="M 249.604688 234.758125 
L 381.128125 234.758125 
Q 383.128125 234.758125 383.128125 232.758125 
L 383.128125 175.02375 
Q 383.128125 173.02375 381.128125 173.02375 
L 249.604688 173.02375 
Q 247.604688 173.02375 247.604688 175.02375 
L 247.604688 232.758125 
Q 247.604688 234.758125 249.604688 234.758125 
z
" style="fill:#ffffff;opacity:0.8;stroke:#cccccc;stroke-linejoin:miter;"/>
    </g>
    <g id="text_24">
     <!-- Country (cases in 7 days) -->
     <defs>
      <path d="M 31 75.875 
Q 24.46875 64.65625 21.28125 53.65625 
Q 18.109375 42.671875 18.109375 31.390625 
Q 18.109375 20.125 21.3125 9.0625 
Q 24.515625 -2 31 -13.1875 
L 23.1875 -13.1875 
Q 15.875 -1.703125 12.234375 9.375 
Q 8.59375 20.453125 8.59375 31.390625 
Q 8.59375 42.28125 12.203125 53.3125 
Q 15.828125 64.359375 23.1875 75.875 
z
" id="DejaVuSans-40"/>
      <path d="M 8.203125 72.90625 
L 55.078125 72.90625 
L 55.078125 68.703125 
L 28.609375 0 
L 18.3125 0 
L 43.21875 64.59375 
L 8.203125 64.59375 
z
" id="DejaVuSans-55"/>
      <path d="M 45.40625 46.390625 
L 45.40625 75.984375 
L 54.390625 75.984375 
L 54.390625 0 
L 45.40625 0 
L 45.40625 8.203125 
Q 42.578125 3.328125 38.25 0.953125 
Q 33.9375 -1.421875 27.875 -1.421875 
Q 17.96875 -1.421875 11.734375 6.484375 
Q 5.515625 14.40625 5.515625 27.296875 
Q 5.515625 40.1875 11.734375 48.09375 
Q 17.96875 56 27.875 56 
Q 33.9375 56 38.25 53.625 
Q 42.578125 51.265625 45.40625 46.390625 
z
M 14.796875 27.296875 
Q 14.796875 17.390625 18.875 11.75 
Q 22.953125 6.109375 30.078125 6.109375 
Q 37.203125 6.109375 41.296875 11.75 
Q 45.40625 17.390625 45.40625 27.296875 
Q 45.40625 37.203125 41.296875 42.84375 
Q 37.203125 48.484375 30.078125 48.484375 
Q 22.953125 48.484375 18.875 42.84375 
Q 14.796875 37.203125 14.796875 27.296875 
z
" id="DejaVuSans-100"/>
      <path d="M 8.015625 75.875 
L 15.828125 75.875 
Q 23.140625 64.359375 26.78125 53.3125 
Q 30.421875 42.28125 30.421875 31.390625 
Q 30.421875 20.453125 26.78125 9.375 
Q 23.140625 -1.703125 15.828125 -13.1875 
L 8.015625 -13.1875 
Q 14.5 -2 17.703125 9.0625 
Q 20.90625 20.125 20.90625 31.390625 
Q 20.90625 42.671875 17.703125 53.65625 
Q 14.5 64.65625 8.015625 75.875 
z
" id="DejaVuSans-41"/>
     </defs>
     <g transform="translate(251.604688 184.622187)scale(0.1 -0.1)">
      <use xlink:href="#DejaVuSans-67"/>
      <use x="69.824219" xlink:href="#DejaVuSans-111"/>
      <use x="131.005859" xlink:href="#DejaVuSans-117"/>
      <use x="194.384766" xlink:href="#DejaVuSans-110"/>
      <use x="257.763672" xlink:href="#DejaVuSans-116"/>
      <use x="296.972656" xlink:href="#DejaVuSans-114"/>
      <use x="338.085938" xlink:href="#DejaVuSans-121"/>
      <use x="397.265625" xlink:href="#DejaVuSans-32"/>
      <use x="429.052734" xlink:href="#DejaVuSans-40"/>
      <use x="468.066406" xlink:href="#DejaVuSans-99"/>
      <use x="523.046875" xlink:href="#DejaVuSans-97"/>
      <use x="584.326172" xlink:href="#DejaVuSans-115"/>
      <use x="636.425781" xlink:href="#DejaVuSans-101"/>
      <use x="697.949219" xlink:href="#DejaVuSans-115"/>
      <use x="750.048828" xlink:href="#DejaVuSans-32"/>
      <use x="781.835938" xlink:href="#DejaVuSans-105"/>
      <use x="809.619141" xlink:href="#DejaVuSans-110"/>
      <use x="872.998047" xlink:href="#DejaVuSans-32"/>
      <use x="904.785156" xlink:href="#DejaVuSans-55"/>
      <use x="968.408203" xlink:href="#DejaVuSans-32"/>
      <use x="1000.195312" xlink:href="#DejaVuSans-100"/>
      <use x="1063.671875" xlink:href="#DejaVuSans-97"/>
      <use x="1124.951172" xlink:href="#DejaVuSans-121"/>
      <use x="1184.130859" xlink:href="#DejaVuSans-115"/>
      <use x="1236.230469" xlink:href="#DejaVuSans-41"/>
     </g>
    </g>
    <g id="line2d_53">
     <path d="M 272.866406 195.800312 
L 292.866406 195.800312 
" style="fill:none;stroke:#ff7f0e;stroke-linecap:square;stroke-width:1.5;"/>
    </g>
    <g id="line2d_54">
     <g>
      <use style="fill:#ff7f0e;stroke:#ff7f0e;" x="282.866406" xlink:href="#m6d92002c7f" y="195.800312"/>
     </g>
    </g>
    <g id="text_25">
     <!-- US (1.2$\times$) -->
     <defs>
      <path d="M 8.6875 72.90625 
L 18.609375 72.90625 
L 18.609375 28.609375 
Q 18.609375 16.890625 22.84375 11.734375 
Q 27.09375 6.59375 36.625 6.59375 
Q 46.09375 6.59375 50.34375 11.734375 
Q 54.59375 16.890625 54.59375 28.609375 
L 54.59375 72.90625 
L 64.5 72.90625 
L 64.5 27.390625 
Q 64.5 13.140625 57.4375 5.859375 
Q 50.390625 -1.421875 36.625 -1.421875 
Q 22.796875 -1.421875 15.734375 5.859375 
Q 8.6875 13.140625 8.6875 27.390625 
z
" id="DejaVuSans-85"/>
      <path d="M 70.125 53.71875 
L 47.796875 31.296875 
L 70.125 8.984375 
L 64.3125 3.078125 
L 41.890625 25.484375 
L 19.484375 3.078125 
L 13.71875 8.984375 
L 35.984375 31.296875 
L 13.71875 53.71875 
L 19.484375 59.625 
L 41.890625 37.203125 
L 64.3125 59.625 
z
" id="DejaVuSans-215"/>
     </defs>
     <g transform="translate(300.866406 199.300312)scale(0.1 -0.1)">
      <use transform="translate(0 0.125)" xlink:href="#DejaVuSans-85"/>
      <use transform="translate(73.193359 0.125)" xlink:href="#DejaVuSans-83"/>
      <use transform="translate(136.669922 0.125)" xlink:href="#DejaVuSans-32"/>
      <use transform="translate(168.457031 0.125)" xlink:href="#DejaVuSans-40"/>
      <use transform="translate(207.470703 0.125)" xlink:href="#DejaVuSans-49"/>
      <use transform="translate(271.09375 0.125)" xlink:href="#DejaVuSans-46"/>
      <use transform="translate(302.802734 0.125)" xlink:href="#DejaVuSans-50"/>
      <use transform="translate(366.425781 0.125)" xlink:href="#DejaVuSans-215"/>
      <use transform="translate(450.214844 0.125)" xlink:href="#DejaVuSans-41"/>
     </g>
    </g>
    <g id="line2d_55">
     <path d="M 272.866406 210.48 
L 292.866406 210.48 
" style="fill:none;stroke:#2ca02c;stroke-linecap:square;stroke-width:1.5;"/>
    </g>
    <g id="line2d_56">
     <g>
      <use style="fill:#2ca02c;stroke:#2ca02c;" x="282.866406" xlink:href="#m2dfd94a098" y="210.48"/>
     </g>
    </g>
    <g id="text_26">
     <!-- Italy (1.1$\times$) -->
     <defs>
      <path d="M 9.8125 72.90625 
L 19.671875 72.90625 
L 19.671875 0 
L 9.8125 0 
z
" id="DejaVuSans-73"/>
     </defs>
     <g transform="translate(300.866406 213.98)scale(0.1 -0.1)">
      <use transform="translate(0 0.015625)" xlink:href="#DejaVuSans-73"/>
      <use transform="translate(29.492188 0.015625)" xlink:href="#DejaVuSans-116"/>
      <use transform="translate(68.701172 0.015625)" xlink:href="#DejaVuSans-97"/>
      <use transform="translate(129.980469 0.015625)" xlink:href="#DejaVuSans-108"/>
      <use transform="translate(157.763672 0.015625)" xlink:href="#DejaVuSans-121"/>
      <use transform="translate(216.943359 0.015625)" xlink:href="#DejaVuSans-32"/>
      <use transform="translate(248.730469 0.015625)" xlink:href="#DejaVuSans-40"/>
      <use transform="translate(287.744141 0.015625)" xlink:href="#DejaVuSans-49"/>
      <use transform="translate(351.367188 0.015625)" xlink:href="#DejaVuSans-46"/>
      <use transform="translate(383.154297 0.015625)" xlink:href="#DejaVuSans-49"/>
      <use transform="translate(446.777344 0.015625)" xlink:href="#DejaVuSans-215"/>
      <use transform="translate(530.566406 0.015625)" xlink:href="#DejaVuSans-41"/>
     </g>
    </g>
    <g id="line2d_57">
     <path d="M 272.866406 225.178437 
L 292.866406 225.178437 
" style="fill:none;stroke:#1f77b4;stroke-linecap:square;stroke-width:1.5;"/>
    </g>
    <g id="line2d_58">
     <g>
      <use style="fill:#1f77b4;stroke:#1f77b4;" x="282.866406" xlink:href="#ma2517a1a0d" y="225.178437"/>
     </g>
    </g>
    <g id="text_27">
     <!-- UK (1.2$\times$) -->
     <defs>
      <path d="M 9.8125 72.90625 
L 19.671875 72.90625 
L 19.671875 42.09375 
L 52.390625 72.90625 
L 65.09375 72.90625 
L 28.90625 38.921875 
L 67.671875 0 
L 54.6875 0 
L 19.671875 35.109375 
L 19.671875 0 
L 9.8125 0 
z
" id="DejaVuSans-75"/>
     </defs>
     <g transform="translate(300.866406 228.678437)scale(0.1 -0.1)">
      <use transform="translate(0 0.125)" xlink:href="#DejaVuSans-85"/>
      <use transform="translate(73.177734 0.125)" xlink:href="#DejaVuSans-75"/>
      <use transform="translate(138.753906 0.125)" xlink:href="#DejaVuSans-32"/>
      <use transform="translate(170.541016 0.125)" xlink:href="#DejaVuSans-40"/>
      <use transform="translate(209.554688 0.125)" xlink:href="#DejaVuSans-49"/>
      <use transform="translate(273.177734 0.125)" xlink:href="#DejaVuSans-46"/>
      <use transform="translate(304.886719 0.125)" xlink:href="#DejaVuSans-50"/>
      <use transform="translate(368.509766 0.125)" xlink:href="#DejaVuSans-215"/>
      <use transform="translate(452.298828 0.125)" xlink:href="#DejaVuSans-41"/>
     </g>
    </g>
   </g>
   <g id="legend_2">
    <g id="patch_8">
     <path d="M 62.024125 326.734125 
L 364.524125 326.734125 
Q 366.524125 326.734125 366.524125 324.734125 
L 366.524125 273.960375 
Q 366.524125 271.960375 364.524125 271.960375 
L 62.024125 271.960375 
Q 60.024125 271.960375 60.024125 273.960375 
L 60.024125 324.734125 
Q 60.024125 326.734125 62.024125 326.734125 
z
" style="fill:#ffffff;opacity:0.8;stroke:#cccccc;stroke-linejoin:miter;"/>
    </g>
    <g id="line2d_59">
     <path d="M 64.024125 286.7085 
L 84.024125 286.7085 
" style="fill:none;stroke:#ff7f0e;stroke-linecap:square;stroke-opacity:0.7;stroke-width:1.5;"/>
    </g>
    <g id="line2d_60"/>
    <g id="text_28">
     <!-- 2$\times$ every 2.4 days -->
     <defs>
      <path d="M 37.796875 64.3125 
L 12.890625 25.390625 
L 37.796875 25.390625 
z
M 35.203125 72.90625 
L 47.609375 72.90625 
L 47.609375 25.390625 
L 58.015625 25.390625 
L 58.015625 17.1875 
L 47.609375 17.1875 
L 47.609375 0 
L 37.796875 0 
L 37.796875 17.1875 
L 4.890625 17.1875 
L 4.890625 26.703125 
z
" id="DejaVuSans-52"/>
     </defs>
     <g transform="translate(92.024125 283.560375)scale(0.1 -0.1)">
      <use transform="translate(0 0.015625)" xlink:href="#DejaVuSans-50"/>
      <use transform="translate(63.623047 0.015625)" xlink:href="#DejaVuSans-215"/>
      <use transform="translate(147.412109 0.015625)" xlink:href="#DejaVuSans-32"/>
      <use transform="translate(179.199219 0.015625)" xlink:href="#DejaVuSans-101"/>
      <use transform="translate(240.722656 0.015625)" xlink:href="#DejaVuSans-118"/>
      <use transform="translate(299.902344 0.015625)" xlink:href="#DejaVuSans-101"/>
      <use transform="translate(361.425781 0.015625)" xlink:href="#DejaVuSans-114"/>
      <use transform="translate(402.539062 0.015625)" xlink:href="#DejaVuSans-121"/>
      <use transform="translate(461.71875 0.015625)" xlink:href="#DejaVuSans-32"/>
      <use transform="translate(493.505859 0.015625)" xlink:href="#DejaVuSans-50"/>
      <use transform="translate(557.128906 0.015625)" xlink:href="#DejaVuSans-46"/>
      <use transform="translate(588.916016 0.015625)" xlink:href="#DejaVuSans-52"/>
      <use transform="translate(652.539062 0.015625)" xlink:href="#DejaVuSans-32"/>
      <use transform="translate(684.326172 0.015625)" xlink:href="#DejaVuSans-100"/>
      <use transform="translate(747.802734 0.015625)" xlink:href="#DejaVuSans-97"/>
      <use transform="translate(809.082031 0.015625)" xlink:href="#DejaVuSans-121"/>
      <use transform="translate(868.261719 0.015625)" xlink:href="#DejaVuSans-115"/>
     </g>
     <!-- (all solid lines) -->
     <g transform="translate(92.024125 294.7785)scale(0.1 -0.1)">
      <use xlink:href="#DejaVuSans-40"/>
      <use x="39.013672" xlink:href="#DejaVuSans-97"/>
      <use x="100.292969" xlink:href="#DejaVuSans-108"/>
      <use x="128.076172" xlink:href="#DejaVuSans-108"/>
      <use x="155.859375" xlink:href="#DejaVuSans-32"/>
      <use x="187.646484" xlink:href="#DejaVuSans-115"/>
      <use x="239.746094" xlink:href="#DejaVuSans-111"/>
      <use x="300.927734" xlink:href="#DejaVuSans-108"/>
      <use x="328.710938" xlink:href="#DejaVuSans-105"/>
      <use x="356.494141" xlink:href="#DejaVuSans-100"/>
      <use x="419.970703" xlink:href="#DejaVuSans-32"/>
      <use x="451.757812" xlink:href="#DejaVuSans-108"/>
      <use x="479.541016" xlink:href="#DejaVuSans-105"/>
      <use x="507.324219" xlink:href="#DejaVuSans-110"/>
      <use x="570.703125" xlink:href="#DejaVuSans-101"/>
      <use x="632.226562" xlink:href="#DejaVuSans-115"/>
      <use x="684.326172" xlink:href="#DejaVuSans-41"/>
     </g>
    </g>
    <g id="line2d_61">
     <path d="M 64.024125 312.595375 
L 84.024125 312.595375 
" style="fill:none;stroke:#ff7f0e;stroke-dasharray:7.4,3.2;stroke-dashoffset:0;stroke-opacity:0.7;stroke-width:2;"/>
    </g>
    <g id="line2d_62"/>
    <g id="text_29">
     <!-- Est. health care saturation -->
     <defs>
      <path d="M 9.8125 72.90625 
L 55.90625 72.90625 
L 55.90625 64.59375 
L 19.671875 64.59375 
L 19.671875 43.015625 
L 54.390625 43.015625 
L 54.390625 34.71875 
L 19.671875 34.71875 
L 19.671875 8.296875 
L 56.78125 8.296875 
L 56.78125 0 
L 9.8125 0 
z
" id="DejaVuSans-69"/>
      <path d="M 54.890625 33.015625 
L 54.890625 0 
L 45.90625 0 
L 45.90625 32.71875 
Q 45.90625 40.484375 42.875 44.328125 
Q 39.84375 48.1875 33.796875 48.1875 
Q 26.515625 48.1875 22.3125 43.546875 
Q 18.109375 38.921875 18.109375 30.90625 
L 18.109375 0 
L 9.078125 0 
L 9.078125 75.984375 
L 18.109375 75.984375 
L 18.109375 46.1875 
Q 21.34375 51.125 25.703125 53.5625 
Q 30.078125 56 35.796875 56 
Q 45.21875 56 50.046875 50.171875 
Q 54.890625 44.34375 54.890625 33.015625 
z
" id="DejaVuSans-104"/>
     </defs>
     <g transform="translate(92.024125 309.456625)scale(0.1 -0.1)">
      <use xlink:href="#DejaVuSans-69"/>
      <use x="63.183594" xlink:href="#DejaVuSans-115"/>
      <use x="115.283203" xlink:href="#DejaVuSans-116"/>
      <use x="154.492188" xlink:href="#DejaVuSans-46"/>
      <use x="186.279297" xlink:href="#DejaVuSans-32"/>
      <use x="218.066406" xlink:href="#DejaVuSans-104"/>
      <use x="281.445312" xlink:href="#DejaVuSans-101"/>
      <use x="342.96875" xlink:href="#DejaVuSans-97"/>
      <use x="404.248047" xlink:href="#DejaVuSans-108"/>
      <use x="432.03125" xlink:href="#DejaVuSans-116"/>
      <use x="471.240234" xlink:href="#DejaVuSans-104"/>
      <use x="534.619141" xlink:href="#DejaVuSans-32"/>
      <use x="566.40625" xlink:href="#DejaVuSans-99"/>
      <use x="621.386719" xlink:href="#DejaVuSans-97"/>
      <use x="682.666016" xlink:href="#DejaVuSans-114"/>
      <use x="723.748047" xlink:href="#DejaVuSans-101"/>
      <use x="785.271484" xlink:href="#DejaVuSans-32"/>
      <use x="817.058594" xlink:href="#DejaVuSans-115"/>
      <use x="869.158203" xlink:href="#DejaVuSans-97"/>
      <use x="930.4375" xlink:href="#DejaVuSans-116"/>
      <use x="969.646484" xlink:href="#DejaVuSans-117"/>
      <use x="1033.025391" xlink:href="#DejaVuSans-114"/>
      <use x="1074.138672" xlink:href="#DejaVuSans-97"/>
      <use x="1135.417969" xlink:href="#DejaVuSans-116"/>
      <use x="1174.626953" xlink:href="#DejaVuSans-105"/>
      <use x="1202.410156" xlink:href="#DejaVuSans-111"/>
      <use x="1263.591797" xlink:href="#DejaVuSans-110"/>
     </g>
     <!-- (all dotted lines) -->
     <g transform="translate(92.024125 320.654437)scale(0.1 -0.1)">
      <use xlink:href="#DejaVuSans-40"/>
      <use x="39.013672" xlink:href="#DejaVuSans-97"/>
      <use x="100.292969" xlink:href="#DejaVuSans-108"/>
      <use x="128.076172" xlink:href="#DejaVuSans-108"/>
      <use x="155.859375" xlink:href="#DejaVuSans-32"/>
      <use x="187.646484" xlink:href="#DejaVuSans-100"/>
      <use x="251.123047" xlink:href="#DejaVuSans-111"/>
      <use x="312.304688" xlink:href="#DejaVuSans-116"/>
      <use x="351.513672" xlink:href="#DejaVuSans-116"/>
      <use x="390.722656" xlink:href="#DejaVuSans-101"/>
      <use x="452.246094" xlink:href="#DejaVuSans-100"/>
      <use x="515.722656" xlink:href="#DejaVuSans-32"/>
      <use x="547.509766" xlink:href="#DejaVuSans-108"/>
      <use x="575.292969" xlink:href="#DejaVuSans-105"/>
      <use x="603.076172" xlink:href="#DejaVuSans-110"/>
      <use x="666.455078" xlink:href="#DejaVuSans-101"/>
      <use x="727.978516" xlink:href="#DejaVuSans-115"/>
      <use x="780.078125" xlink:href="#DejaVuSans-41"/>
     </g>
    </g>
    <g id="line2d_63">
     <path d="M 244.716313 286.7085 
L 264.716313 286.7085 
" style="fill:none;stroke:#2ca02c;stroke-dasharray:12.8,3.2,2,3.2;stroke-dashoffset:0;stroke-opacity:0.7;stroke-width:2;"/>
    </g>
    <g id="line2d_64"/>
    <g id="text_30">
     <!-- Actual health -->
     <g transform="translate(272.716313 283.56975)scale(0.1 -0.1)">
      <use xlink:href="#DejaVuSans-65"/>
      <use x="68.392578" xlink:href="#DejaVuSans-99"/>
      <use x="123.373047" xlink:href="#DejaVuSans-116"/>
      <use x="162.582031" xlink:href="#DejaVuSans-117"/>
      <use x="225.960938" xlink:href="#DejaVuSans-97"/>
      <use x="287.240234" xlink:href="#DejaVuSans-108"/>
      <use x="315.023438" xlink:href="#DejaVuSans-32"/>
      <use x="346.810547" xlink:href="#DejaVuSans-104"/>
      <use x="410.189453" xlink:href="#DejaVuSans-101"/>
      <use x="471.712891" xlink:href="#DejaVuSans-97"/>
      <use x="532.992188" xlink:href="#DejaVuSans-108"/>
      <use x="560.775391" xlink:href="#DejaVuSans-116"/>
      <use x="599.984375" xlink:href="#DejaVuSans-104"/>
     </g>
     <!-- care saturation -->
     <g transform="translate(272.716313 294.767562)scale(0.1 -0.1)">
      <use xlink:href="#DejaVuSans-99"/>
      <use x="54.980469" xlink:href="#DejaVuSans-97"/>
      <use x="116.259766" xlink:href="#DejaVuSans-114"/>
      <use x="157.341797" xlink:href="#DejaVuSans-101"/>
      <use x="218.865234" xlink:href="#DejaVuSans-32"/>
      <use x="250.652344" xlink:href="#DejaVuSans-115"/>
      <use x="302.751953" xlink:href="#DejaVuSans-97"/>
      <use x="364.03125" xlink:href="#DejaVuSans-116"/>
      <use x="403.240234" xlink:href="#DejaVuSans-117"/>
      <use x="466.619141" xlink:href="#DejaVuSans-114"/>
      <use x="507.732422" xlink:href="#DejaVuSans-97"/>
      <use x="569.011719" xlink:href="#DejaVuSans-116"/>
      <use x="608.220703" xlink:href="#DejaVuSans-105"/>
      <use x="636.003906" xlink:href="#DejaVuSans-111"/>
      <use x="697.185547" xlink:href="#DejaVuSans-110"/>
     </g>
    </g>
    <g id="line2d_65">
     <path d="M 244.716313 312.584437 
L 264.716313 312.584437 
" style="fill:none;stroke:#ff7f0e;stroke-linecap:square;stroke-opacity:0.3;stroke-width:4;"/>
    </g>
    <g id="line2d_66"/>
    <g id="text_31">
     <!-- Started social -->
     <g transform="translate(272.716313 309.445687)scale(0.1 -0.1)">
      <use xlink:href="#DejaVuSans-83"/>
      <use x="63.476562" xlink:href="#DejaVuSans-116"/>
      <use x="102.685547" xlink:href="#DejaVuSans-97"/>
      <use x="163.964844" xlink:href="#DejaVuSans-114"/>
      <use x="205.078125" xlink:href="#DejaVuSans-116"/>
      <use x="244.287109" xlink:href="#DejaVuSans-101"/>
      <use x="305.810547" xlink:href="#DejaVuSans-100"/>
      <use x="369.287109" xlink:href="#DejaVuSans-32"/>
      <use x="401.074219" xlink:href="#DejaVuSans-115"/>
      <use x="453.173828" xlink:href="#DejaVuSans-111"/>
      <use x="514.355469" xlink:href="#DejaVuSans-99"/>
      <use x="569.335938" xlink:href="#DejaVuSans-105"/>
      <use x="597.119141" xlink:href="#DejaVuSans-97"/>
      <use x="658.398438" xlink:href="#DejaVuSans-108"/>
     </g>
     <!-- isolation (all bars) -->
     <g transform="translate(272.716313 320.6435)scale(0.1 -0.1)">
      <use xlink:href="#DejaVuSans-105"/>
      <use x="27.783203" xlink:href="#DejaVuSans-115"/>
      <use x="79.882812" xlink:href="#DejaVuSans-111"/>
      <use x="141.064453" xlink:href="#DejaVuSans-108"/>
      <use x="168.847656" xlink:href="#DejaVuSans-97"/>
      <use x="230.126953" xlink:href="#DejaVuSans-116"/>
      <use x="269.335938" xlink:href="#DejaVuSans-105"/>
      <use x="297.119141" xlink:href="#DejaVuSans-111"/>
      <use x="358.300781" xlink:href="#DejaVuSans-110"/>
      <use x="421.679688" xlink:href="#DejaVuSans-32"/>
      <use x="453.466797" xlink:href="#DejaVuSans-40"/>
      <use x="492.480469" xlink:href="#DejaVuSans-97"/>
      <use x="553.759766" xlink:href="#DejaVuSans-108"/>
      <use x="581.542969" xlink:href="#DejaVuSans-108"/>
      <use x="609.326172" xlink:href="#DejaVuSans-32"/>
      <use x="641.113281" xlink:href="#DejaVuSans-98"/>
      <use x="704.589844" xlink:href="#DejaVuSans-97"/>
      <use x="765.869141" xlink:href="#DejaVuSans-114"/>
      <use x="806.982422" xlink:href="#DejaVuSans-115"/>
      <use x="859.082031" xlink:href="#DejaVuSans-41"/>
     </g>
    </g>
   </g>
  </g>
 </g>
 <defs>
  <clipPath id="p5c3c02779b">
   <rect height="217.44" width="334.8" x="53.328125" y="22.318125"/>
  </clipPath>
 </defs>
</svg>
