<?xml version="1.0" encoding="utf-8" standalone="no"?>
<!DOCTYPE svg PUBLIC "-//W3C//DTD SVG 1.1//EN"
  "http://www.w3.org/Graphics/SVG/1.1/DTD/svg11.dtd">
<!-- Created with matplotlib (https://matplotlib.org/) -->
<svg height="344.350269pt" version="1.1" viewBox="0 0 395.328125 344.350269" width="395.328125pt" xmlns="http://www.w3.org/2000/svg" xmlns:xlink="http://www.w3.org/1999/xlink">
 <defs>
  <style type="text/css">
*{stroke-linecap:butt;stroke-linejoin:round;}
  </style>
 </defs>
 <g id="figure_1">
  <g id="patch_1">
   <path d="M 0 344.350269 
L 395.328125 344.350269 
L 395.328125 0 
L 0 0 
z
" style="fill:#ffffff;"/>
  </g>
  <g id="axes_1">
   <g id="patch_2">
    <path d="M 53.328125 239.758125 
L 388.128125 239.758125 
L 388.128125 22.318125 
L 53.328125 22.318125 
z
" style="fill:#ffffff;"/>
   </g>
   <g id="line2d_1">
    <path clip-path="url(#pe156f53f07)" d="M 75.897605 345.350269 
L 78.337015 342.287365 
L 84.589238 334.437126 
L 90.841461 326.586888 
L 97.093683 318.736649 
L 103.345906 310.88641 
L 109.598128 303.036171 
L 115.850351 295.185932 
L 122.102574 287.335693 
L 128.354796 279.485455 
L 134.607019 271.635216 
L 140.859241 263.784977 
L 147.111464 255.934738 
L 153.363687 248.084499 
L 159.615909 240.234261 
L 165.868132 232.384022 
L 172.120355 224.533783 
L 178.372577 216.683544 
L 184.6248 208.833305 
L 190.877022 200.983066 
L 197.129245 193.132828 
L 203.381468 185.282589 
L 209.63369 177.43235 
L 215.885913 169.582111 
L 222.138135 161.731872 
L 228.390358 153.881634 
L 234.642581 146.031395 
L 240.894803 138.181156 
L 247.147026 130.330917 
L 253.399248 122.480678 
L 259.651471 114.630439 
L 265.903694 106.780201 
L 272.155916 98.929962 
L 278.408139 91.079723 
L 284.660361 83.229484 
L 290.912584 75.379245 
L 297.164807 67.529007 
L 303.417029 59.678768 
L 309.669252 51.828529 
L 315.921474 43.97829 
L 322.173697 36.128051 
L 328.42592 28.277813 
L 334.678142 20.427574 
L 340.930365 12.577335 
" style="fill:none;stroke:#ff7f0e;stroke-linecap:square;stroke-opacity:0.7;stroke-width:1.5;"/>
   </g>
   <g id="line2d_2">
    <path clip-path="url(#pe156f53f07)" d="M 66.68215 345.350269 
L 72.084793 338.566756 
L 78.337015 330.716517 
L 84.589238 322.866278 
L 90.841461 315.016039 
L 97.093683 307.1658 
L 103.345906 299.315562 
L 109.598128 291.465323 
L 115.850351 283.615084 
L 122.102574 275.764845 
L 128.354796 267.914606 
L 134.607019 260.064367 
L 140.859241 252.214129 
L 147.111464 244.36389 
L 153.363687 236.513651 
L 159.615909 228.663412 
L 165.868132 220.813173 
L 172.120355 212.962935 
L 178.372577 205.112696 
L 184.6248 197.262457 
L 190.877022 189.412218 
L 197.129245 181.561979 
L 203.381468 173.71174 
L 209.63369 165.861502 
L 215.885913 158.011263 
L 222.138135 150.161024 
L 228.390358 142.310785 
L 234.642581 134.460546 
L 240.894803 126.610308 
L 247.147026 118.760069 
L 253.399248 110.90983 
L 259.651471 103.059591 
L 265.903694 95.209352 
L 272.155916 87.359113 
L 278.408139 79.508875 
L 284.660361 71.658636 
L 290.912584 63.808397 
L 297.164807 55.958158 
L 303.417029 48.107919 
L 309.669252 40.257681 
L 315.921474 32.407442 
L 322.173697 24.557203 
L 328.42592 16.706964 
L 334.678142 8.856725 
L 340.930365 1.006486 
" style="fill:none;stroke:#1f77b4;stroke-linecap:square;stroke-opacity:0.7;stroke-width:1.5;"/>
   </g>
   <g id="line2d_3">
    <path clip-path="url(#pe156f53f07)" d="M 34.571457 272.688417 
L 40.82368 264.838178 
L 47.075902 256.987939 
L 53.328125 249.1377 
L 59.580348 241.287461 
L 65.83257 233.437223 
L 72.084793 225.586984 
L 78.337015 217.736745 
L 84.589238 209.886506 
L 90.841461 202.036267 
L 97.093683 194.186028 
L 103.345906 186.33579 
L 109.598128 178.485551 
L 115.850351 170.635312 
L 122.102574 162.785073 
L 128.354796 154.934834 
L 134.607019 147.084596 
L 140.859241 139.234357 
L 147.111464 131.384118 
L 153.363687 123.533879 
L 159.615909 115.68364 
L 165.868132 107.833401 
L 172.120355 99.983163 
L 178.372577 92.132924 
L 184.6248 84.282685 
L 190.877022 76.432446 
L 197.129245 68.582207 
L 203.381468 60.731969 
L 209.63369 52.88173 
L 215.885913 45.031491 
L 222.138135 37.181252 
L 228.390358 29.331013 
L 234.642581 21.480774 
L 240.894803 13.630536 
L 247.147026 5.780297 
L 252.547107 -1 
" style="fill:none;stroke:#2ca02c;stroke-linecap:square;stroke-opacity:0.7;stroke-width:1.5;"/>
   </g>
   <g id="matplotlib.axis_1">
    <g id="xtick_1">
     <g id="line2d_4">
      <path clip-path="url(#pe156f53f07)" d="M 84.589238 239.758125 
L 84.589238 22.318125 
" style="fill:none;stroke:#b0b0b0;stroke-linecap:square;stroke-opacity:0.8;stroke-width:0.8;"/>
     </g>
     <g id="line2d_5">
      <defs>
       <path d="M 0 0 
L 0 3.5 
" id="m55869d1783" style="stroke:#000000;stroke-width:0.8;"/>
      </defs>
      <g>
       <use style="stroke:#000000;stroke-width:0.8;" x="84.589238" xlink:href="#m55869d1783" y="239.758125"/>
      </g>
     </g>
     <g id="text_1">
      <!-- Feb. -->
      <defs>
       <path d="M 9.8125 72.90625 
L 51.703125 72.90625 
L 51.703125 64.59375 
L 19.671875 64.59375 
L 19.671875 43.109375 
L 48.578125 43.109375 
L 48.578125 34.8125 
L 19.671875 34.8125 
L 19.671875 0 
L 9.8125 0 
z
" id="DejaVuSans-70"/>
       <path d="M 56.203125 29.59375 
L 56.203125 25.203125 
L 14.890625 25.203125 
Q 15.484375 15.921875 20.484375 11.0625 
Q 25.484375 6.203125 34.421875 6.203125 
Q 39.59375 6.203125 44.453125 7.46875 
Q 49.3125 8.734375 54.109375 11.28125 
L 54.109375 2.78125 
Q 49.265625 0.734375 44.1875 -0.34375 
Q 39.109375 -1.421875 33.890625 -1.421875 
Q 20.796875 -1.421875 13.15625 6.1875 
Q 5.515625 13.8125 5.515625 26.8125 
Q 5.515625 40.234375 12.765625 48.109375 
Q 20.015625 56 32.328125 56 
Q 43.359375 56 49.78125 48.890625 
Q 56.203125 41.796875 56.203125 29.59375 
z
M 47.21875 32.234375 
Q 47.125 39.59375 43.09375 43.984375 
Q 39.0625 48.390625 32.421875 48.390625 
Q 24.90625 48.390625 20.390625 44.140625 
Q 15.875 39.890625 15.1875 32.171875 
z
" id="DejaVuSans-101"/>
       <path d="M 48.6875 27.296875 
Q 48.6875 37.203125 44.609375 42.84375 
Q 40.53125 48.484375 33.40625 48.484375 
Q 26.265625 48.484375 22.1875 42.84375 
Q 18.109375 37.203125 18.109375 27.296875 
Q 18.109375 17.390625 22.1875 11.75 
Q 26.265625 6.109375 33.40625 6.109375 
Q 40.53125 6.109375 44.609375 11.75 
Q 48.6875 17.390625 48.6875 27.296875 
z
M 18.109375 46.390625 
Q 20.953125 51.265625 25.265625 53.625 
Q 29.59375 56 35.59375 56 
Q 45.5625 56 51.78125 48.09375 
Q 58.015625 40.1875 58.015625 27.296875 
Q 58.015625 14.40625 51.78125 6.484375 
Q 45.5625 -1.421875 35.59375 -1.421875 
Q 29.59375 -1.421875 25.265625 0.953125 
Q 20.953125 3.328125 18.109375 8.203125 
L 18.109375 0 
L 9.078125 0 
L 9.078125 75.984375 
L 18.109375 75.984375 
z
" id="DejaVuSans-98"/>
       <path d="M 10.6875 12.40625 
L 21 12.40625 
L 21 0 
L 10.6875 0 
z
" id="DejaVuSans-46"/>
      </defs>
      <g transform="translate(73.877519 254.356563)scale(0.1 -0.1)">
       <use xlink:href="#DejaVuSans-70"/>
       <use x="57.441406" xlink:href="#DejaVuSans-101"/>
       <use x="118.964844" xlink:href="#DejaVuSans-98"/>
       <use x="182.441406" xlink:href="#DejaVuSans-46"/>
      </g>
      <!-- 23 -->
      <defs>
       <path d="M 19.1875 8.296875 
L 53.609375 8.296875 
L 53.609375 0 
L 7.328125 0 
L 7.328125 8.296875 
Q 12.9375 14.109375 22.625 23.890625 
Q 32.328125 33.6875 34.8125 36.53125 
Q 39.546875 41.84375 41.421875 45.53125 
Q 43.3125 49.21875 43.3125 52.78125 
Q 43.3125 58.59375 39.234375 62.25 
Q 35.15625 65.921875 28.609375 65.921875 
Q 23.96875 65.921875 18.8125 64.3125 
Q 13.671875 62.703125 7.8125 59.421875 
L 7.8125 69.390625 
Q 13.765625 71.78125 18.9375 73 
Q 24.125 74.21875 28.421875 74.21875 
Q 39.75 74.21875 46.484375 68.546875 
Q 53.21875 62.890625 53.21875 53.421875 
Q 53.21875 48.921875 51.53125 44.890625 
Q 49.859375 40.875 45.40625 35.40625 
Q 44.1875 33.984375 37.640625 27.21875 
Q 31.109375 20.453125 19.1875 8.296875 
z
" id="DejaVuSans-50"/>
       <path d="M 40.578125 39.3125 
Q 47.65625 37.796875 51.625 33 
Q 55.609375 28.21875 55.609375 21.1875 
Q 55.609375 10.40625 48.1875 4.484375 
Q 40.765625 -1.421875 27.09375 -1.421875 
Q 22.515625 -1.421875 17.65625 -0.515625 
Q 12.796875 0.390625 7.625 2.203125 
L 7.625 11.71875 
Q 11.71875 9.328125 16.59375 8.109375 
Q 21.484375 6.890625 26.8125 6.890625 
Q 36.078125 6.890625 40.9375 10.546875 
Q 45.796875 14.203125 45.796875 21.1875 
Q 45.796875 27.640625 41.28125 31.265625 
Q 36.765625 34.90625 28.71875 34.90625 
L 20.21875 34.90625 
L 20.21875 43.015625 
L 29.109375 43.015625 
Q 36.375 43.015625 40.234375 45.921875 
Q 44.09375 48.828125 44.09375 54.296875 
Q 44.09375 59.90625 40.109375 62.90625 
Q 36.140625 65.921875 28.71875 65.921875 
Q 24.65625 65.921875 20.015625 65.03125 
Q 15.375 64.15625 9.8125 62.3125 
L 9.8125 71.09375 
Q 15.4375 72.65625 20.34375 73.4375 
Q 25.25 74.21875 29.59375 74.21875 
Q 40.828125 74.21875 47.359375 69.109375 
Q 53.90625 64.015625 53.90625 55.328125 
Q 53.90625 49.265625 50.4375 45.09375 
Q 46.96875 40.921875 40.578125 39.3125 
z
" id="DejaVuSans-51"/>
      </defs>
      <g transform="translate(78.226738 265.554375)scale(0.1 -0.1)">
       <use xlink:href="#DejaVuSans-50"/>
       <use x="63.623047" xlink:href="#DejaVuSans-51"/>
      </g>
     </g>
    </g>
    <g id="xtick_2">
     <g id="line2d_6">
      <path clip-path="url(#pe156f53f07)" d="M 128.354796 239.758125 
L 128.354796 22.318125 
" style="fill:none;stroke:#b0b0b0;stroke-linecap:square;stroke-opacity:0.8;stroke-width:0.8;"/>
     </g>
     <g id="line2d_7">
      <g>
       <use style="stroke:#000000;stroke-width:0.8;" x="128.354796" xlink:href="#m55869d1783" y="239.758125"/>
      </g>
     </g>
     <g id="text_2">
      <!-- Mar. -->
      <defs>
       <path d="M 9.8125 72.90625 
L 24.515625 72.90625 
L 43.109375 23.296875 
L 61.8125 72.90625 
L 76.515625 72.90625 
L 76.515625 0 
L 66.890625 0 
L 66.890625 64.015625 
L 48.09375 14.015625 
L 38.1875 14.015625 
L 19.390625 64.015625 
L 19.390625 0 
L 9.8125 0 
z
" id="DejaVuSans-77"/>
       <path d="M 34.28125 27.484375 
Q 23.390625 27.484375 19.1875 25 
Q 14.984375 22.515625 14.984375 16.5 
Q 14.984375 11.71875 18.140625 8.90625 
Q 21.296875 6.109375 26.703125 6.109375 
Q 34.1875 6.109375 38.703125 11.40625 
Q 43.21875 16.703125 43.21875 25.484375 
L 43.21875 27.484375 
z
M 52.203125 31.203125 
L 52.203125 0 
L 43.21875 0 
L 43.21875 8.296875 
Q 40.140625 3.328125 35.546875 0.953125 
Q 30.953125 -1.421875 24.3125 -1.421875 
Q 15.921875 -1.421875 10.953125 3.296875 
Q 6 8.015625 6 15.921875 
Q 6 25.140625 12.171875 29.828125 
Q 18.359375 34.515625 30.609375 34.515625 
L 43.21875 34.515625 
L 43.21875 35.40625 
Q 43.21875 41.609375 39.140625 45 
Q 35.0625 48.390625 27.6875 48.390625 
Q 23 48.390625 18.546875 47.265625 
Q 14.109375 46.140625 10.015625 43.890625 
L 10.015625 52.203125 
Q 14.9375 54.109375 19.578125 55.046875 
Q 24.21875 56 28.609375 56 
Q 40.484375 56 46.34375 49.84375 
Q 52.203125 43.703125 52.203125 31.203125 
z
" id="DejaVuSans-97"/>
       <path d="M 41.109375 46.296875 
Q 39.59375 47.171875 37.8125 47.578125 
Q 36.03125 48 33.890625 48 
Q 26.265625 48 22.1875 43.046875 
Q 18.109375 38.09375 18.109375 28.8125 
L 18.109375 0 
L 9.078125 0 
L 9.078125 54.6875 
L 18.109375 54.6875 
L 18.109375 46.1875 
Q 20.953125 51.171875 25.484375 53.578125 
Q 30.03125 56 36.53125 56 
Q 37.453125 56 38.578125 55.875 
Q 39.703125 55.765625 41.0625 55.515625 
z
" id="DejaVuSans-114"/>
      </defs>
      <g transform="translate(117.339171 254.356563)scale(0.1 -0.1)">
       <use xlink:href="#DejaVuSans-77"/>
       <use x="86.279297" xlink:href="#DejaVuSans-97"/>
       <use x="147.558594" xlink:href="#DejaVuSans-114"/>
       <use x="188.53125" xlink:href="#DejaVuSans-46"/>
      </g>
      <!-- 01 -->
      <defs>
       <path d="M 31.78125 66.40625 
Q 24.171875 66.40625 20.328125 58.90625 
Q 16.5 51.421875 16.5 36.375 
Q 16.5 21.390625 20.328125 13.890625 
Q 24.171875 6.390625 31.78125 6.390625 
Q 39.453125 6.390625 43.28125 13.890625 
Q 47.125 21.390625 47.125 36.375 
Q 47.125 51.421875 43.28125 58.90625 
Q 39.453125 66.40625 31.78125 66.40625 
z
M 31.78125 74.21875 
Q 44.046875 74.21875 50.515625 64.515625 
Q 56.984375 54.828125 56.984375 36.375 
Q 56.984375 17.96875 50.515625 8.265625 
Q 44.046875 -1.421875 31.78125 -1.421875 
Q 19.53125 -1.421875 13.0625 8.265625 
Q 6.59375 17.96875 6.59375 36.375 
Q 6.59375 54.828125 13.0625 64.515625 
Q 19.53125 74.21875 31.78125 74.21875 
z
" id="DejaVuSans-48"/>
       <path d="M 12.40625 8.296875 
L 28.515625 8.296875 
L 28.515625 63.921875 
L 10.984375 60.40625 
L 10.984375 69.390625 
L 28.421875 72.90625 
L 38.28125 72.90625 
L 38.28125 8.296875 
L 54.390625 8.296875 
L 54.390625 0 
L 12.40625 0 
z
" id="DejaVuSans-49"/>
      </defs>
      <g transform="translate(121.992296 265.554375)scale(0.1 -0.1)">
       <use xlink:href="#DejaVuSans-48"/>
       <use x="63.623047" xlink:href="#DejaVuSans-49"/>
      </g>
     </g>
    </g>
    <g id="xtick_3">
     <g id="line2d_8">
      <path clip-path="url(#pe156f53f07)" d="M 172.120355 239.758125 
L 172.120355 22.318125 
" style="fill:none;stroke:#b0b0b0;stroke-linecap:square;stroke-opacity:0.8;stroke-width:0.8;"/>
     </g>
     <g id="line2d_9">
      <g>
       <use style="stroke:#000000;stroke-width:0.8;" x="172.120355" xlink:href="#m55869d1783" y="239.758125"/>
      </g>
     </g>
     <g id="text_3">
      <!-- Mar. -->
      <g transform="translate(161.10473 254.356563)scale(0.1 -0.1)">
       <use xlink:href="#DejaVuSans-77"/>
       <use x="86.279297" xlink:href="#DejaVuSans-97"/>
       <use x="147.558594" xlink:href="#DejaVuSans-114"/>
       <use x="188.53125" xlink:href="#DejaVuSans-46"/>
      </g>
      <!-- 08 -->
      <defs>
       <path d="M 31.78125 34.625 
Q 24.75 34.625 20.71875 30.859375 
Q 16.703125 27.09375 16.703125 20.515625 
Q 16.703125 13.921875 20.71875 10.15625 
Q 24.75 6.390625 31.78125 6.390625 
Q 38.8125 6.390625 42.859375 10.171875 
Q 46.921875 13.96875 46.921875 20.515625 
Q 46.921875 27.09375 42.890625 30.859375 
Q 38.875 34.625 31.78125 34.625 
z
M 21.921875 38.8125 
Q 15.578125 40.375 12.03125 44.71875 
Q 8.5 49.078125 8.5 55.328125 
Q 8.5 64.0625 14.71875 69.140625 
Q 20.953125 74.21875 31.78125 74.21875 
Q 42.671875 74.21875 48.875 69.140625 
Q 55.078125 64.0625 55.078125 55.328125 
Q 55.078125 49.078125 51.53125 44.71875 
Q 48 40.375 41.703125 38.8125 
Q 48.828125 37.15625 52.796875 32.3125 
Q 56.78125 27.484375 56.78125 20.515625 
Q 56.78125 9.90625 50.3125 4.234375 
Q 43.84375 -1.421875 31.78125 -1.421875 
Q 19.734375 -1.421875 13.25 4.234375 
Q 6.78125 9.90625 6.78125 20.515625 
Q 6.78125 27.484375 10.78125 32.3125 
Q 14.796875 37.15625 21.921875 38.8125 
z
M 18.3125 54.390625 
Q 18.3125 48.734375 21.84375 45.5625 
Q 25.390625 42.390625 31.78125 42.390625 
Q 38.140625 42.390625 41.71875 45.5625 
Q 45.3125 48.734375 45.3125 54.390625 
Q 45.3125 60.0625 41.71875 63.234375 
Q 38.140625 66.40625 31.78125 66.40625 
Q 25.390625 66.40625 21.84375 63.234375 
Q 18.3125 60.0625 18.3125 54.390625 
z
" id="DejaVuSans-56"/>
      </defs>
      <g transform="translate(165.757855 265.554375)scale(0.1 -0.1)">
       <use xlink:href="#DejaVuSans-48"/>
       <use x="63.623047" xlink:href="#DejaVuSans-56"/>
      </g>
     </g>
    </g>
    <g id="xtick_4">
     <g id="line2d_10">
      <path clip-path="url(#pe156f53f07)" d="M 215.885913 239.758125 
L 215.885913 22.318125 
" style="fill:none;stroke:#b0b0b0;stroke-linecap:square;stroke-opacity:0.8;stroke-width:0.8;"/>
     </g>
     <g id="line2d_11">
      <g>
       <use style="stroke:#000000;stroke-width:0.8;" x="215.885913" xlink:href="#m55869d1783" y="239.758125"/>
      </g>
     </g>
     <g id="text_4">
      <!-- Mar. -->
      <g transform="translate(204.870288 254.356563)scale(0.1 -0.1)">
       <use xlink:href="#DejaVuSans-77"/>
       <use x="86.279297" xlink:href="#DejaVuSans-97"/>
       <use x="147.558594" xlink:href="#DejaVuSans-114"/>
       <use x="188.53125" xlink:href="#DejaVuSans-46"/>
      </g>
      <!-- 15 -->
      <defs>
       <path d="M 10.796875 72.90625 
L 49.515625 72.90625 
L 49.515625 64.59375 
L 19.828125 64.59375 
L 19.828125 46.734375 
Q 21.96875 47.46875 24.109375 47.828125 
Q 26.265625 48.1875 28.421875 48.1875 
Q 40.625 48.1875 47.75 41.5 
Q 54.890625 34.8125 54.890625 23.390625 
Q 54.890625 11.625 47.5625 5.09375 
Q 40.234375 -1.421875 26.90625 -1.421875 
Q 22.3125 -1.421875 17.546875 -0.640625 
Q 12.796875 0.140625 7.71875 1.703125 
L 7.71875 11.625 
Q 12.109375 9.234375 16.796875 8.0625 
Q 21.484375 6.890625 26.703125 6.890625 
Q 35.15625 6.890625 40.078125 11.328125 
Q 45.015625 15.765625 45.015625 23.390625 
Q 45.015625 31 40.078125 35.4375 
Q 35.15625 39.890625 26.703125 39.890625 
Q 22.75 39.890625 18.8125 39.015625 
Q 14.890625 38.140625 10.796875 36.28125 
z
" id="DejaVuSans-53"/>
      </defs>
      <g transform="translate(209.523413 265.554375)scale(0.1 -0.1)">
       <use xlink:href="#DejaVuSans-49"/>
       <use x="63.623047" xlink:href="#DejaVuSans-53"/>
      </g>
     </g>
    </g>
    <g id="xtick_5">
     <g id="line2d_12">
      <path clip-path="url(#pe156f53f07)" d="M 259.651471 239.758125 
L 259.651471 22.318125 
" style="fill:none;stroke:#b0b0b0;stroke-linecap:square;stroke-opacity:0.8;stroke-width:0.8;"/>
     </g>
     <g id="line2d_13">
      <g>
       <use style="stroke:#000000;stroke-width:0.8;" x="259.651471" xlink:href="#m55869d1783" y="239.758125"/>
      </g>
     </g>
     <g id="text_5">
      <!-- Mar. -->
      <g transform="translate(248.635846 254.356563)scale(0.1 -0.1)">
       <use xlink:href="#DejaVuSans-77"/>
       <use x="86.279297" xlink:href="#DejaVuSans-97"/>
       <use x="147.558594" xlink:href="#DejaVuSans-114"/>
       <use x="188.53125" xlink:href="#DejaVuSans-46"/>
      </g>
      <!-- 22 -->
      <g transform="translate(253.288971 265.554375)scale(0.1 -0.1)">
       <use xlink:href="#DejaVuSans-50"/>
       <use x="63.623047" xlink:href="#DejaVuSans-50"/>
      </g>
     </g>
    </g>
    <g id="xtick_6">
     <g id="line2d_14">
      <path clip-path="url(#pe156f53f07)" d="M 303.417029 239.758125 
L 303.417029 22.318125 
" style="fill:none;stroke:#b0b0b0;stroke-linecap:square;stroke-opacity:0.8;stroke-width:0.8;"/>
     </g>
     <g id="line2d_15">
      <g>
       <use style="stroke:#000000;stroke-width:0.8;" x="303.417029" xlink:href="#m55869d1783" y="239.758125"/>
      </g>
     </g>
     <g id="text_6">
      <!-- Mar. -->
      <g transform="translate(292.401404 254.356563)scale(0.1 -0.1)">
       <use xlink:href="#DejaVuSans-77"/>
       <use x="86.279297" xlink:href="#DejaVuSans-97"/>
       <use x="147.558594" xlink:href="#DejaVuSans-114"/>
       <use x="188.53125" xlink:href="#DejaVuSans-46"/>
      </g>
      <!-- 29 -->
      <defs>
       <path d="M 10.984375 1.515625 
L 10.984375 10.5 
Q 14.703125 8.734375 18.5 7.8125 
Q 22.3125 6.890625 25.984375 6.890625 
Q 35.75 6.890625 40.890625 13.453125 
Q 46.046875 20.015625 46.78125 33.40625 
Q 43.953125 29.203125 39.59375 26.953125 
Q 35.25 24.703125 29.984375 24.703125 
Q 19.046875 24.703125 12.671875 31.3125 
Q 6.296875 37.9375 6.296875 49.421875 
Q 6.296875 60.640625 12.9375 67.421875 
Q 19.578125 74.21875 30.609375 74.21875 
Q 43.265625 74.21875 49.921875 64.515625 
Q 56.59375 54.828125 56.59375 36.375 
Q 56.59375 19.140625 48.40625 8.859375 
Q 40.234375 -1.421875 26.421875 -1.421875 
Q 22.703125 -1.421875 18.890625 -0.6875 
Q 15.09375 0.046875 10.984375 1.515625 
z
M 30.609375 32.421875 
Q 37.25 32.421875 41.125 36.953125 
Q 45.015625 41.5 45.015625 49.421875 
Q 45.015625 57.28125 41.125 61.84375 
Q 37.25 66.40625 30.609375 66.40625 
Q 23.96875 66.40625 20.09375 61.84375 
Q 16.21875 57.28125 16.21875 49.421875 
Q 16.21875 41.5 20.09375 36.953125 
Q 23.96875 32.421875 30.609375 32.421875 
z
" id="DejaVuSans-57"/>
      </defs>
      <g transform="translate(297.054529 265.554375)scale(0.1 -0.1)">
       <use xlink:href="#DejaVuSans-50"/>
       <use x="63.623047" xlink:href="#DejaVuSans-57"/>
      </g>
     </g>
    </g>
    <g id="xtick_7">
     <g id="line2d_16">
      <path clip-path="url(#pe156f53f07)" d="M 347.182588 239.758125 
L 347.182588 22.318125 
" style="fill:none;stroke:#b0b0b0;stroke-linecap:square;stroke-opacity:0.8;stroke-width:0.8;"/>
     </g>
     <g id="line2d_17">
      <g>
       <use style="stroke:#000000;stroke-width:0.8;" x="347.182588" xlink:href="#m55869d1783" y="239.758125"/>
      </g>
     </g>
     <g id="text_7">
      <!-- Apr. -->
      <defs>
       <path d="M 34.1875 63.1875 
L 20.796875 26.90625 
L 47.609375 26.90625 
z
M 28.609375 72.90625 
L 39.796875 72.90625 
L 67.578125 0 
L 57.328125 0 
L 50.6875 18.703125 
L 17.828125 18.703125 
L 11.1875 0 
L 0.78125 0 
z
" id="DejaVuSans-65"/>
       <path d="M 18.109375 8.203125 
L 18.109375 -20.796875 
L 9.078125 -20.796875 
L 9.078125 54.6875 
L 18.109375 54.6875 
L 18.109375 46.390625 
Q 20.953125 51.265625 25.265625 53.625 
Q 29.59375 56 35.59375 56 
Q 45.5625 56 51.78125 48.09375 
Q 58.015625 40.1875 58.015625 27.296875 
Q 58.015625 14.40625 51.78125 6.484375 
Q 45.5625 -1.421875 35.59375 -1.421875 
Q 29.59375 -1.421875 25.265625 0.953125 
Q 20.953125 3.328125 18.109375 8.203125 
z
M 48.6875 27.296875 
Q 48.6875 37.203125 44.609375 42.84375 
Q 40.53125 48.484375 33.40625 48.484375 
Q 26.265625 48.484375 22.1875 42.84375 
Q 18.109375 37.203125 18.109375 27.296875 
Q 18.109375 17.390625 22.1875 11.75 
Q 26.265625 6.109375 33.40625 6.109375 
Q 40.53125 6.109375 44.609375 11.75 
Q 48.6875 17.390625 48.6875 27.296875 
z
" id="DejaVuSans-112"/>
      </defs>
      <g transform="translate(336.950556 254.356563)scale(0.1 -0.1)">
       <use xlink:href="#DejaVuSans-65"/>
       <use x="68.408203" xlink:href="#DejaVuSans-112"/>
       <use x="131.884766" xlink:href="#DejaVuSans-114"/>
       <use x="172.857422" xlink:href="#DejaVuSans-46"/>
      </g>
      <!-- 05 -->
      <g transform="translate(340.820088 265.554375)scale(0.1 -0.1)">
       <use xlink:href="#DejaVuSans-48"/>
       <use x="63.623047" xlink:href="#DejaVuSans-53"/>
      </g>
     </g>
    </g>
   </g>
   <g id="matplotlib.axis_2">
    <g id="ytick_1">
     <g id="line2d_18">
      <path clip-path="url(#pe156f53f07)" d="M 53.328125 239.758125 
L 388.128125 239.758125 
" style="fill:none;stroke:#b0b0b0;stroke-linecap:square;stroke-opacity:0.8;"/>
     </g>
     <g id="line2d_19">
      <defs>
       <path d="M 0 0 
L -3.5 0 
" id="m5e675ef9c1" style="stroke:#000000;stroke-width:0.8;"/>
      </defs>
      <g>
       <use style="stroke:#000000;stroke-width:0.8;" x="53.328125" xlink:href="#m5e675ef9c1" y="239.758125"/>
      </g>
     </g>
     <g id="text_8">
      <!-- 1 -->
      <g transform="translate(39.965625 243.557344)scale(0.1 -0.1)">
       <use xlink:href="#DejaVuSans-49"/>
      </g>
     </g>
    </g>
    <g id="ytick_2">
     <g id="line2d_20">
      <path clip-path="url(#pe156f53f07)" d="M 53.328125 177.171096 
L 388.128125 177.171096 
" style="fill:none;stroke:#b0b0b0;stroke-linecap:square;stroke-opacity:0.8;"/>
     </g>
     <g id="line2d_21">
      <g>
       <use style="stroke:#000000;stroke-width:0.8;" x="53.328125" xlink:href="#m5e675ef9c1" y="177.171096"/>
      </g>
     </g>
     <g id="text_9">
      <!-- 10 -->
      <g transform="translate(33.603125 180.970314)scale(0.1 -0.1)">
       <use xlink:href="#DejaVuSans-49"/>
       <use x="63.623047" xlink:href="#DejaVuSans-48"/>
      </g>
     </g>
    </g>
    <g id="ytick_3">
     <g id="line2d_22">
      <path clip-path="url(#pe156f53f07)" d="M 53.328125 114.584066 
L 388.128125 114.584066 
" style="fill:none;stroke:#b0b0b0;stroke-linecap:square;stroke-opacity:0.8;"/>
     </g>
     <g id="line2d_23">
      <g>
       <use style="stroke:#000000;stroke-width:0.8;" x="53.328125" xlink:href="#m5e675ef9c1" y="114.584066"/>
      </g>
     </g>
     <g id="text_10">
      <!-- 100 -->
      <g transform="translate(27.240625 118.383285)scale(0.1 -0.1)">
       <use xlink:href="#DejaVuSans-49"/>
       <use x="63.623047" xlink:href="#DejaVuSans-48"/>
       <use x="127.246094" xlink:href="#DejaVuSans-48"/>
      </g>
     </g>
    </g>
    <g id="ytick_4">
     <g id="line2d_24">
      <path clip-path="url(#pe156f53f07)" d="M 53.328125 51.997037 
L 388.128125 51.997037 
" style="fill:none;stroke:#b0b0b0;stroke-linecap:square;stroke-opacity:0.8;"/>
     </g>
     <g id="line2d_25">
      <g>
       <use style="stroke:#000000;stroke-width:0.8;" x="53.328125" xlink:href="#m5e675ef9c1" y="51.997037"/>
      </g>
     </g>
     <g id="text_11">
      <!-- 1000 -->
      <g transform="translate(20.878125 55.796256)scale(0.1 -0.1)">
       <use xlink:href="#DejaVuSans-49"/>
       <use x="63.623047" xlink:href="#DejaVuSans-48"/>
       <use x="127.246094" xlink:href="#DejaVuSans-48"/>
       <use x="190.869141" xlink:href="#DejaVuSans-48"/>
      </g>
     </g>
    </g>
    <g id="ytick_5">
     <g id="line2d_26">
      <path clip-path="url(#pe156f53f07)" d="M 53.328125 220.917552 
L 388.128125 220.917552 
" style="fill:none;stroke:#b0b0b0;stroke-linecap:square;stroke-opacity:0.3;stroke-width:0.8;"/>
     </g>
     <g id="line2d_27">
      <defs>
       <path d="M 0 0 
L -2 0 
" id="m8fc46be5bd" style="stroke:#000000;stroke-width:0.6;"/>
      </defs>
      <g>
       <use style="stroke:#000000;stroke-width:0.6;" x="53.328125" xlink:href="#m8fc46be5bd" y="220.917552"/>
      </g>
     </g>
     <g id="text_12">
      <!-- 2 -->
      <g transform="translate(41.565625 224.716771)scale(0.1 -0.1)">
       <use xlink:href="#DejaVuSans-50"/>
      </g>
     </g>
    </g>
    <g id="ytick_6">
     <g id="line2d_28">
      <path clip-path="url(#pe156f53f07)" d="M 53.328125 196.011669 
L 388.128125 196.011669 
" style="fill:none;stroke:#b0b0b0;stroke-linecap:square;stroke-opacity:0.3;stroke-width:0.8;"/>
     </g>
     <g id="line2d_29">
      <g>
       <use style="stroke:#000000;stroke-width:0.6;" x="53.328125" xlink:href="#m8fc46be5bd" y="196.011669"/>
      </g>
     </g>
     <g id="text_13">
      <!-- 5 -->
      <g transform="translate(41.565625 199.810888)scale(0.1 -0.1)">
       <use xlink:href="#DejaVuSans-53"/>
      </g>
     </g>
    </g>
    <g id="ytick_7">
     <g id="line2d_30">
      <path clip-path="url(#pe156f53f07)" d="M 53.328125 158.330523 
L 388.128125 158.330523 
" style="fill:none;stroke:#b0b0b0;stroke-linecap:square;stroke-opacity:0.3;stroke-width:0.8;"/>
     </g>
     <g id="line2d_31">
      <g>
       <use style="stroke:#000000;stroke-width:0.6;" x="53.328125" xlink:href="#m8fc46be5bd" y="158.330523"/>
      </g>
     </g>
     <g id="text_14">
      <!-- 20 -->
      <g transform="translate(35.203125 162.129741)scale(0.1 -0.1)">
       <use xlink:href="#DejaVuSans-50"/>
       <use x="63.623047" xlink:href="#DejaVuSans-48"/>
      </g>
     </g>
    </g>
    <g id="ytick_8">
     <g id="line2d_32">
      <path clip-path="url(#pe156f53f07)" d="M 53.328125 133.42464 
L 388.128125 133.42464 
" style="fill:none;stroke:#b0b0b0;stroke-linecap:square;stroke-opacity:0.3;stroke-width:0.8;"/>
     </g>
     <g id="line2d_33">
      <g>
       <use style="stroke:#000000;stroke-width:0.6;" x="53.328125" xlink:href="#m8fc46be5bd" y="133.42464"/>
      </g>
     </g>
     <g id="text_15">
      <!-- 50 -->
      <g transform="translate(35.203125 137.223858)scale(0.1 -0.1)">
       <use xlink:href="#DejaVuSans-53"/>
       <use x="63.623047" xlink:href="#DejaVuSans-48"/>
      </g>
     </g>
    </g>
    <g id="ytick_9">
     <g id="line2d_34">
      <path clip-path="url(#pe156f53f07)" d="M 53.328125 95.743493 
L 388.128125 95.743493 
" style="fill:none;stroke:#b0b0b0;stroke-linecap:square;stroke-opacity:0.3;stroke-width:0.8;"/>
     </g>
     <g id="line2d_35">
      <g>
       <use style="stroke:#000000;stroke-width:0.6;" x="53.328125" xlink:href="#m8fc46be5bd" y="95.743493"/>
      </g>
     </g>
     <g id="text_16">
      <!-- 200 -->
      <g transform="translate(28.840625 99.542712)scale(0.1 -0.1)">
       <use xlink:href="#DejaVuSans-50"/>
       <use x="63.623047" xlink:href="#DejaVuSans-48"/>
       <use x="127.246094" xlink:href="#DejaVuSans-48"/>
      </g>
     </g>
    </g>
    <g id="ytick_10">
     <g id="line2d_36">
      <path clip-path="url(#pe156f53f07)" d="M 53.328125 70.83761 
L 388.128125 70.83761 
" style="fill:none;stroke:#b0b0b0;stroke-linecap:square;stroke-opacity:0.3;stroke-width:0.8;"/>
     </g>
     <g id="line2d_37">
      <g>
       <use style="stroke:#000000;stroke-width:0.6;" x="53.328125" xlink:href="#m8fc46be5bd" y="70.83761"/>
      </g>
     </g>
     <g id="text_17">
      <!-- 500 -->
      <g transform="translate(28.840625 74.636829)scale(0.1 -0.1)">
       <use xlink:href="#DejaVuSans-53"/>
       <use x="63.623047" xlink:href="#DejaVuSans-48"/>
       <use x="127.246094" xlink:href="#DejaVuSans-48"/>
      </g>
     </g>
    </g>
    <g id="ytick_11">
     <g id="line2d_38">
      <path clip-path="url(#pe156f53f07)" d="M 53.328125 33.156464 
L 388.128125 33.156464 
" style="fill:none;stroke:#b0b0b0;stroke-linecap:square;stroke-opacity:0.3;stroke-width:0.8;"/>
     </g>
     <g id="line2d_39">
      <g>
       <use style="stroke:#000000;stroke-width:0.6;" x="53.328125" xlink:href="#m8fc46be5bd" y="33.156464"/>
      </g>
     </g>
     <g id="text_18">
      <!-- 2000 -->
      <g transform="translate(22.478125 36.955683)scale(0.1 -0.1)">
       <use xlink:href="#DejaVuSans-50"/>
       <use x="63.623047" xlink:href="#DejaVuSans-48"/>
       <use x="127.246094" xlink:href="#DejaVuSans-48"/>
       <use x="190.869141" xlink:href="#DejaVuSans-48"/>
      </g>
     </g>
    </g>
    <g id="text_19">
     <!-- Cases per million -->
     <defs>
      <path d="M 64.40625 67.28125 
L 64.40625 56.890625 
Q 59.421875 61.53125 53.78125 63.8125 
Q 48.140625 66.109375 41.796875 66.109375 
Q 29.296875 66.109375 22.65625 58.46875 
Q 16.015625 50.828125 16.015625 36.375 
Q 16.015625 21.96875 22.65625 14.328125 
Q 29.296875 6.6875 41.796875 6.6875 
Q 48.140625 6.6875 53.78125 8.984375 
Q 59.421875 11.28125 64.40625 15.921875 
L 64.40625 5.609375 
Q 59.234375 2.09375 53.4375 0.328125 
Q 47.65625 -1.421875 41.21875 -1.421875 
Q 24.65625 -1.421875 15.125 8.703125 
Q 5.609375 18.84375 5.609375 36.375 
Q 5.609375 53.953125 15.125 64.078125 
Q 24.65625 74.21875 41.21875 74.21875 
Q 47.75 74.21875 53.53125 72.484375 
Q 59.328125 70.75 64.40625 67.28125 
z
" id="DejaVuSans-67"/>
      <path d="M 44.28125 53.078125 
L 44.28125 44.578125 
Q 40.484375 46.53125 36.375 47.5 
Q 32.28125 48.484375 27.875 48.484375 
Q 21.1875 48.484375 17.84375 46.4375 
Q 14.5 44.390625 14.5 40.28125 
Q 14.5 37.15625 16.890625 35.375 
Q 19.28125 33.59375 26.515625 31.984375 
L 29.59375 31.296875 
Q 39.15625 29.25 43.1875 25.515625 
Q 47.21875 21.78125 47.21875 15.09375 
Q 47.21875 7.46875 41.1875 3.015625 
Q 35.15625 -1.421875 24.609375 -1.421875 
Q 20.21875 -1.421875 15.453125 -0.5625 
Q 10.6875 0.296875 5.421875 2 
L 5.421875 11.28125 
Q 10.40625 8.6875 15.234375 7.390625 
Q 20.0625 6.109375 24.8125 6.109375 
Q 31.15625 6.109375 34.5625 8.28125 
Q 37.984375 10.453125 37.984375 14.40625 
Q 37.984375 18.0625 35.515625 20.015625 
Q 33.0625 21.96875 24.703125 23.78125 
L 21.578125 24.515625 
Q 13.234375 26.265625 9.515625 29.90625 
Q 5.8125 33.546875 5.8125 39.890625 
Q 5.8125 47.609375 11.28125 51.796875 
Q 16.75 56 26.8125 56 
Q 31.78125 56 36.171875 55.265625 
Q 40.578125 54.546875 44.28125 53.078125 
z
" id="DejaVuSans-115"/>
      <path id="DejaVuSans-32"/>
      <path d="M 52 44.1875 
Q 55.375 50.25 60.0625 53.125 
Q 64.75 56 71.09375 56 
Q 79.640625 56 84.28125 50.015625 
Q 88.921875 44.046875 88.921875 33.015625 
L 88.921875 0 
L 79.890625 0 
L 79.890625 32.71875 
Q 79.890625 40.578125 77.09375 44.375 
Q 74.3125 48.1875 68.609375 48.1875 
Q 61.625 48.1875 57.5625 43.546875 
Q 53.515625 38.921875 53.515625 30.90625 
L 53.515625 0 
L 44.484375 0 
L 44.484375 32.71875 
Q 44.484375 40.625 41.703125 44.40625 
Q 38.921875 48.1875 33.109375 48.1875 
Q 26.21875 48.1875 22.15625 43.53125 
Q 18.109375 38.875 18.109375 30.90625 
L 18.109375 0 
L 9.078125 0 
L 9.078125 54.6875 
L 18.109375 54.6875 
L 18.109375 46.1875 
Q 21.1875 51.21875 25.484375 53.609375 
Q 29.78125 56 35.6875 56 
Q 41.65625 56 45.828125 52.96875 
Q 50 49.953125 52 44.1875 
z
" id="DejaVuSans-109"/>
      <path d="M 9.421875 54.6875 
L 18.40625 54.6875 
L 18.40625 0 
L 9.421875 0 
z
M 9.421875 75.984375 
L 18.40625 75.984375 
L 18.40625 64.59375 
L 9.421875 64.59375 
z
" id="DejaVuSans-105"/>
      <path d="M 9.421875 75.984375 
L 18.40625 75.984375 
L 18.40625 0 
L 9.421875 0 
z
" id="DejaVuSans-108"/>
      <path d="M 30.609375 48.390625 
Q 23.390625 48.390625 19.1875 42.75 
Q 14.984375 37.109375 14.984375 27.296875 
Q 14.984375 17.484375 19.15625 11.84375 
Q 23.34375 6.203125 30.609375 6.203125 
Q 37.796875 6.203125 41.984375 11.859375 
Q 46.1875 17.53125 46.1875 27.296875 
Q 46.1875 37.015625 41.984375 42.703125 
Q 37.796875 48.390625 30.609375 48.390625 
z
M 30.609375 56 
Q 42.328125 56 49.015625 48.375 
Q 55.71875 40.765625 55.71875 27.296875 
Q 55.71875 13.875 49.015625 6.21875 
Q 42.328125 -1.421875 30.609375 -1.421875 
Q 18.84375 -1.421875 12.171875 6.21875 
Q 5.515625 13.875 5.515625 27.296875 
Q 5.515625 40.765625 12.171875 48.375 
Q 18.84375 56 30.609375 56 
z
" id="DejaVuSans-111"/>
      <path d="M 54.890625 33.015625 
L 54.890625 0 
L 45.90625 0 
L 45.90625 32.71875 
Q 45.90625 40.484375 42.875 44.328125 
Q 39.84375 48.1875 33.796875 48.1875 
Q 26.515625 48.1875 22.3125 43.546875 
Q 18.109375 38.921875 18.109375 30.90625 
L 18.109375 0 
L 9.078125 0 
L 9.078125 54.6875 
L 18.109375 54.6875 
L 18.109375 46.1875 
Q 21.34375 51.125 25.703125 53.5625 
Q 30.078125 56 35.796875 56 
Q 45.21875 56 50.046875 50.171875 
Q 54.890625 44.34375 54.890625 33.015625 
z
" id="DejaVuSans-110"/>
     </defs>
     <g transform="translate(14.798438 174.018594)rotate(-90)scale(0.1 -0.1)">
      <use xlink:href="#DejaVuSans-67"/>
      <use x="69.824219" xlink:href="#DejaVuSans-97"/>
      <use x="131.103516" xlink:href="#DejaVuSans-115"/>
      <use x="183.203125" xlink:href="#DejaVuSans-101"/>
      <use x="244.726562" xlink:href="#DejaVuSans-115"/>
      <use x="296.826172" xlink:href="#DejaVuSans-32"/>
      <use x="328.613281" xlink:href="#DejaVuSans-112"/>
      <use x="392.089844" xlink:href="#DejaVuSans-101"/>
      <use x="453.613281" xlink:href="#DejaVuSans-114"/>
      <use x="494.726562" xlink:href="#DejaVuSans-32"/>
      <use x="526.513672" xlink:href="#DejaVuSans-109"/>
      <use x="623.925781" xlink:href="#DejaVuSans-105"/>
      <use x="651.708984" xlink:href="#DejaVuSans-108"/>
      <use x="679.492188" xlink:href="#DejaVuSans-108"/>
      <use x="707.275391" xlink:href="#DejaVuSans-105"/>
      <use x="735.058594" xlink:href="#DejaVuSans-111"/>
      <use x="796.240234" xlink:href="#DejaVuSans-110"/>
     </g>
    </g>
   </g>
   <g id="line2d_40">
    <path clip-path="url(#pe156f53f07)" d="M 34.571457 323.630979 
L 40.82368 323.630979 
L 47.075902 323.630979 
L 53.328125 323.630979 
L 59.580348 323.630979 
L 65.83257 323.630979 
L 72.084793 300.600405 
L 78.337015 300.600405 
L 84.589238 300.600405 
L 90.841461 289.321733 
L 97.093683 287.344046 
L 103.345906 285.949832 
L 109.598128 285.949832 
L 115.850351 284.623657 
L 122.102574 282.547748 
L 128.354796 279.884523 
L 134.607019 272.064978 
L 140.859241 266.217993 
L 147.111464 259.631621 
L 153.363687 250.510489 
L 159.615909 240.534216 
L 165.868132 232.103832 
L 172.120355 226.17634 
L 178.372577 219.017923 
L 184.6248 209.641527 
L 190.877022 202.325672 
L 197.129245 196.197757 
L 203.381468 188.257583 
L 209.63369 181.784455 
L 215.885913 174.562651 
L 222.138135 168.021551 
L 228.390358 159.260421 
L 234.642581 149.166197 
L 240.894803 138.177697 
L 247.147026 128.92454 
L 253.399248 122.878043 
L 259.651471 113.95538 
L 265.903694 106.754754 
L 272.155916 100.625077 
L 278.408139 94.702449 
L 284.660361 88.582601 
L 290.912584 83.204913 
L 297.164807 78.549566 
L 303.417029 74.488701 
L 309.669252 70.892612 
L 315.921474 67.068645 
L 322.173697 63.497175 
L 328.42592 59.960791 
L 334.678142 56.594602 
" style="fill:none;stroke:#ff7f0e;stroke-linecap:square;stroke-width:1.5;"/>
    <defs>
     <path d="M 0 3 
C 0.795609 3 1.55874 2.683901 2.12132 2.12132 
C 2.683901 1.55874 3 0.795609 3 0 
C 3 -0.795609 2.683901 -1.55874 2.12132 -2.12132 
C 1.55874 -2.683901 0.795609 -3 0 -3 
C -0.795609 -3 -1.55874 -2.683901 -2.12132 -2.12132 
C -2.683901 -1.55874 -3 -0.795609 -3 0 
C -3 0.795609 -2.683901 1.55874 -2.12132 2.12132 
C -1.55874 2.683901 -0.795609 3 0 3 
z
" id="mbcdc2b3e25" style="stroke:#ff7f0e;"/>
    </defs>
    <g clip-path="url(#pe156f53f07)">
     <use style="fill:#ff7f0e;stroke:#ff7f0e;" x="34.571457" xlink:href="#mbcdc2b3e25" y="323.630979"/>
     <use style="fill:#ff7f0e;stroke:#ff7f0e;" x="40.82368" xlink:href="#mbcdc2b3e25" y="323.630979"/>
     <use style="fill:#ff7f0e;stroke:#ff7f0e;" x="47.075902" xlink:href="#mbcdc2b3e25" y="323.630979"/>
     <use style="fill:#ff7f0e;stroke:#ff7f0e;" x="53.328125" xlink:href="#mbcdc2b3e25" y="323.630979"/>
     <use style="fill:#ff7f0e;stroke:#ff7f0e;" x="59.580348" xlink:href="#mbcdc2b3e25" y="323.630979"/>
     <use style="fill:#ff7f0e;stroke:#ff7f0e;" x="65.83257" xlink:href="#mbcdc2b3e25" y="323.630979"/>
     <use style="fill:#ff7f0e;stroke:#ff7f0e;" x="72.084793" xlink:href="#mbcdc2b3e25" y="300.600405"/>
     <use style="fill:#ff7f0e;stroke:#ff7f0e;" x="78.337015" xlink:href="#mbcdc2b3e25" y="300.600405"/>
     <use style="fill:#ff7f0e;stroke:#ff7f0e;" x="84.589238" xlink:href="#mbcdc2b3e25" y="300.600405"/>
     <use style="fill:#ff7f0e;stroke:#ff7f0e;" x="90.841461" xlink:href="#mbcdc2b3e25" y="289.321733"/>
     <use style="fill:#ff7f0e;stroke:#ff7f0e;" x="97.093683" xlink:href="#mbcdc2b3e25" y="287.344046"/>
     <use style="fill:#ff7f0e;stroke:#ff7f0e;" x="103.345906" xlink:href="#mbcdc2b3e25" y="285.949832"/>
     <use style="fill:#ff7f0e;stroke:#ff7f0e;" x="109.598128" xlink:href="#mbcdc2b3e25" y="285.949832"/>
     <use style="fill:#ff7f0e;stroke:#ff7f0e;" x="115.850351" xlink:href="#mbcdc2b3e25" y="284.623657"/>
     <use style="fill:#ff7f0e;stroke:#ff7f0e;" x="122.102574" xlink:href="#mbcdc2b3e25" y="282.547748"/>
     <use style="fill:#ff7f0e;stroke:#ff7f0e;" x="128.354796" xlink:href="#mbcdc2b3e25" y="279.884523"/>
     <use style="fill:#ff7f0e;stroke:#ff7f0e;" x="134.607019" xlink:href="#mbcdc2b3e25" y="272.064978"/>
     <use style="fill:#ff7f0e;stroke:#ff7f0e;" x="140.859241" xlink:href="#mbcdc2b3e25" y="266.217993"/>
     <use style="fill:#ff7f0e;stroke:#ff7f0e;" x="147.111464" xlink:href="#mbcdc2b3e25" y="259.631621"/>
     <use style="fill:#ff7f0e;stroke:#ff7f0e;" x="153.363687" xlink:href="#mbcdc2b3e25" y="250.510489"/>
     <use style="fill:#ff7f0e;stroke:#ff7f0e;" x="159.615909" xlink:href="#mbcdc2b3e25" y="240.534216"/>
     <use style="fill:#ff7f0e;stroke:#ff7f0e;" x="165.868132" xlink:href="#mbcdc2b3e25" y="232.103832"/>
     <use style="fill:#ff7f0e;stroke:#ff7f0e;" x="172.120355" xlink:href="#mbcdc2b3e25" y="226.17634"/>
     <use style="fill:#ff7f0e;stroke:#ff7f0e;" x="178.372577" xlink:href="#mbcdc2b3e25" y="219.017923"/>
     <use style="fill:#ff7f0e;stroke:#ff7f0e;" x="184.6248" xlink:href="#mbcdc2b3e25" y="209.641527"/>
     <use style="fill:#ff7f0e;stroke:#ff7f0e;" x="190.877022" xlink:href="#mbcdc2b3e25" y="202.325672"/>
     <use style="fill:#ff7f0e;stroke:#ff7f0e;" x="197.129245" xlink:href="#mbcdc2b3e25" y="196.197757"/>
     <use style="fill:#ff7f0e;stroke:#ff7f0e;" x="203.381468" xlink:href="#mbcdc2b3e25" y="188.257583"/>
     <use style="fill:#ff7f0e;stroke:#ff7f0e;" x="209.63369" xlink:href="#mbcdc2b3e25" y="181.784455"/>
     <use style="fill:#ff7f0e;stroke:#ff7f0e;" x="215.885913" xlink:href="#mbcdc2b3e25" y="174.562651"/>
     <use style="fill:#ff7f0e;stroke:#ff7f0e;" x="222.138135" xlink:href="#mbcdc2b3e25" y="168.021551"/>
     <use style="fill:#ff7f0e;stroke:#ff7f0e;" x="228.390358" xlink:href="#mbcdc2b3e25" y="159.260421"/>
     <use style="fill:#ff7f0e;stroke:#ff7f0e;" x="234.642581" xlink:href="#mbcdc2b3e25" y="149.166197"/>
     <use style="fill:#ff7f0e;stroke:#ff7f0e;" x="240.894803" xlink:href="#mbcdc2b3e25" y="138.177697"/>
     <use style="fill:#ff7f0e;stroke:#ff7f0e;" x="247.147026" xlink:href="#mbcdc2b3e25" y="128.92454"/>
     <use style="fill:#ff7f0e;stroke:#ff7f0e;" x="253.399248" xlink:href="#mbcdc2b3e25" y="122.878043"/>
     <use style="fill:#ff7f0e;stroke:#ff7f0e;" x="259.651471" xlink:href="#mbcdc2b3e25" y="113.95538"/>
     <use style="fill:#ff7f0e;stroke:#ff7f0e;" x="265.903694" xlink:href="#mbcdc2b3e25" y="106.754754"/>
     <use style="fill:#ff7f0e;stroke:#ff7f0e;" x="272.155916" xlink:href="#mbcdc2b3e25" y="100.625077"/>
     <use style="fill:#ff7f0e;stroke:#ff7f0e;" x="278.408139" xlink:href="#mbcdc2b3e25" y="94.702449"/>
     <use style="fill:#ff7f0e;stroke:#ff7f0e;" x="284.660361" xlink:href="#mbcdc2b3e25" y="88.582601"/>
     <use style="fill:#ff7f0e;stroke:#ff7f0e;" x="290.912584" xlink:href="#mbcdc2b3e25" y="83.204913"/>
     <use style="fill:#ff7f0e;stroke:#ff7f0e;" x="297.164807" xlink:href="#mbcdc2b3e25" y="78.549566"/>
     <use style="fill:#ff7f0e;stroke:#ff7f0e;" x="303.417029" xlink:href="#mbcdc2b3e25" y="74.488701"/>
     <use style="fill:#ff7f0e;stroke:#ff7f0e;" x="309.669252" xlink:href="#mbcdc2b3e25" y="70.892612"/>
     <use style="fill:#ff7f0e;stroke:#ff7f0e;" x="315.921474" xlink:href="#mbcdc2b3e25" y="67.068645"/>
     <use style="fill:#ff7f0e;stroke:#ff7f0e;" x="322.173697" xlink:href="#mbcdc2b3e25" y="63.497175"/>
     <use style="fill:#ff7f0e;stroke:#ff7f0e;" x="328.42592" xlink:href="#mbcdc2b3e25" y="59.960791"/>
     <use style="fill:#ff7f0e;stroke:#ff7f0e;" x="334.678142" xlink:href="#mbcdc2b3e25" y="56.594602"/>
    </g>
   </g>
   <g id="line2d_41">
    <path clip-path="url(#pe156f53f07)" d="M 34.571457 321.329203 
L 40.82368 321.329203 
L 47.075902 321.329203 
L 53.328125 321.329203 
L 59.580348 321.329203 
L 65.83257 313.509658 
L 72.084793 268.437027 
L 78.337015 232.423962 
L 84.589238 213.755969 
L 90.841461 203.495712 
L 97.093683 194.147273 
L 103.345906 183.952138 
L 109.598128 174.930628 
L 115.850351 166.627804 
L 122.102574 160.155846 
L 128.354796 148.990619 
L 134.607019 144.104233 
L 140.859241 138.502098 
L 147.111464 132.773469 
L 153.363687 126.731047 
L 159.615909 121.737779 
L 165.868132 115.262811 
L 172.120355 109.11907 
L 178.372577 103.191951 
L 184.6248 100.440675 
L 190.877022 94.860134 
L 197.129245 89.617661 
L 203.381468 85.384273 
L 209.63369 80.473483 
L 215.885913 76.21328 
L 222.138135 72.875817 
L 228.390358 69.649733 
L 234.642581 66.24293 
L 240.894803 62.467173 
L 247.147026 58.765937 
L 253.399248 55.217588 
L 259.651471 52.533848 
L 265.903694 50.417299 
L 272.155916 48.272371 
L 278.408139 46.298642 
L 284.660361 44.12158 
L 290.912584 42.198261 
L 297.164807 40.382976 
L 303.417029 38.891188 
L 309.669252 37.78704 
L 315.921474 36.725228 
L 322.173697 35.523545 
L 328.42592 34.399622 
L 334.678142 33.339154 
" style="fill:none;stroke:#2ca02c;stroke-linecap:square;stroke-width:1.5;"/>
    <defs>
     <path d="M 0 3 
C 0.795609 3 1.55874 2.683901 2.12132 2.12132 
C 2.683901 1.55874 3 0.795609 3 0 
C 3 -0.795609 2.683901 -1.55874 2.12132 -2.12132 
C 1.55874 -2.683901 0.795609 -3 0 -3 
C -0.795609 -3 -1.55874 -2.683901 -2.12132 -2.12132 
C -2.683901 -1.55874 -3 -0.795609 -3 0 
C -3 0.795609 -2.683901 1.55874 -2.12132 2.12132 
C -1.55874 2.683901 -0.795609 3 0 3 
z
" id="mdcc2ee61e2" style="stroke:#2ca02c;"/>
    </defs>
    <g clip-path="url(#pe156f53f07)">
     <use style="fill:#2ca02c;stroke:#2ca02c;" x="34.571457" xlink:href="#mdcc2ee61e2" y="321.329203"/>
     <use style="fill:#2ca02c;stroke:#2ca02c;" x="40.82368" xlink:href="#mdcc2ee61e2" y="321.329203"/>
     <use style="fill:#2ca02c;stroke:#2ca02c;" x="47.075902" xlink:href="#mdcc2ee61e2" y="321.329203"/>
     <use style="fill:#2ca02c;stroke:#2ca02c;" x="53.328125" xlink:href="#mdcc2ee61e2" y="321.329203"/>
     <use style="fill:#2ca02c;stroke:#2ca02c;" x="59.580348" xlink:href="#mdcc2ee61e2" y="321.329203"/>
     <use style="fill:#2ca02c;stroke:#2ca02c;" x="65.83257" xlink:href="#mdcc2ee61e2" y="313.509658"/>
     <use style="fill:#2ca02c;stroke:#2ca02c;" x="72.084793" xlink:href="#mdcc2ee61e2" y="268.437027"/>
     <use style="fill:#2ca02c;stroke:#2ca02c;" x="78.337015" xlink:href="#mdcc2ee61e2" y="232.423962"/>
     <use style="fill:#2ca02c;stroke:#2ca02c;" x="84.589238" xlink:href="#mdcc2ee61e2" y="213.755969"/>
     <use style="fill:#2ca02c;stroke:#2ca02c;" x="90.841461" xlink:href="#mdcc2ee61e2" y="203.495712"/>
     <use style="fill:#2ca02c;stroke:#2ca02c;" x="97.093683" xlink:href="#mdcc2ee61e2" y="194.147273"/>
     <use style="fill:#2ca02c;stroke:#2ca02c;" x="103.345906" xlink:href="#mdcc2ee61e2" y="183.952138"/>
     <use style="fill:#2ca02c;stroke:#2ca02c;" x="109.598128" xlink:href="#mdcc2ee61e2" y="174.930628"/>
     <use style="fill:#2ca02c;stroke:#2ca02c;" x="115.850351" xlink:href="#mdcc2ee61e2" y="166.627804"/>
     <use style="fill:#2ca02c;stroke:#2ca02c;" x="122.102574" xlink:href="#mdcc2ee61e2" y="160.155846"/>
     <use style="fill:#2ca02c;stroke:#2ca02c;" x="128.354796" xlink:href="#mdcc2ee61e2" y="148.990619"/>
     <use style="fill:#2ca02c;stroke:#2ca02c;" x="134.607019" xlink:href="#mdcc2ee61e2" y="144.104233"/>
     <use style="fill:#2ca02c;stroke:#2ca02c;" x="140.859241" xlink:href="#mdcc2ee61e2" y="138.502098"/>
     <use style="fill:#2ca02c;stroke:#2ca02c;" x="147.111464" xlink:href="#mdcc2ee61e2" y="132.773469"/>
     <use style="fill:#2ca02c;stroke:#2ca02c;" x="153.363687" xlink:href="#mdcc2ee61e2" y="126.731047"/>
     <use style="fill:#2ca02c;stroke:#2ca02c;" x="159.615909" xlink:href="#mdcc2ee61e2" y="121.737779"/>
     <use style="fill:#2ca02c;stroke:#2ca02c;" x="165.868132" xlink:href="#mdcc2ee61e2" y="115.262811"/>
     <use style="fill:#2ca02c;stroke:#2ca02c;" x="172.120355" xlink:href="#mdcc2ee61e2" y="109.11907"/>
     <use style="fill:#2ca02c;stroke:#2ca02c;" x="178.372577" xlink:href="#mdcc2ee61e2" y="103.191951"/>
     <use style="fill:#2ca02c;stroke:#2ca02c;" x="184.6248" xlink:href="#mdcc2ee61e2" y="100.440675"/>
     <use style="fill:#2ca02c;stroke:#2ca02c;" x="190.877022" xlink:href="#mdcc2ee61e2" y="94.860134"/>
     <use style="fill:#2ca02c;stroke:#2ca02c;" x="197.129245" xlink:href="#mdcc2ee61e2" y="89.617661"/>
     <use style="fill:#2ca02c;stroke:#2ca02c;" x="203.381468" xlink:href="#mdcc2ee61e2" y="85.384273"/>
     <use style="fill:#2ca02c;stroke:#2ca02c;" x="209.63369" xlink:href="#mdcc2ee61e2" y="80.473483"/>
     <use style="fill:#2ca02c;stroke:#2ca02c;" x="215.885913" xlink:href="#mdcc2ee61e2" y="76.21328"/>
     <use style="fill:#2ca02c;stroke:#2ca02c;" x="222.138135" xlink:href="#mdcc2ee61e2" y="72.875817"/>
     <use style="fill:#2ca02c;stroke:#2ca02c;" x="228.390358" xlink:href="#mdcc2ee61e2" y="69.649733"/>
     <use style="fill:#2ca02c;stroke:#2ca02c;" x="234.642581" xlink:href="#mdcc2ee61e2" y="66.24293"/>
     <use style="fill:#2ca02c;stroke:#2ca02c;" x="240.894803" xlink:href="#mdcc2ee61e2" y="62.467173"/>
     <use style="fill:#2ca02c;stroke:#2ca02c;" x="247.147026" xlink:href="#mdcc2ee61e2" y="58.765937"/>
     <use style="fill:#2ca02c;stroke:#2ca02c;" x="253.399248" xlink:href="#mdcc2ee61e2" y="55.217588"/>
     <use style="fill:#2ca02c;stroke:#2ca02c;" x="259.651471" xlink:href="#mdcc2ee61e2" y="52.533848"/>
     <use style="fill:#2ca02c;stroke:#2ca02c;" x="265.903694" xlink:href="#mdcc2ee61e2" y="50.417299"/>
     <use style="fill:#2ca02c;stroke:#2ca02c;" x="272.155916" xlink:href="#mdcc2ee61e2" y="48.272371"/>
     <use style="fill:#2ca02c;stroke:#2ca02c;" x="278.408139" xlink:href="#mdcc2ee61e2" y="46.298642"/>
     <use style="fill:#2ca02c;stroke:#2ca02c;" x="284.660361" xlink:href="#mdcc2ee61e2" y="44.12158"/>
     <use style="fill:#2ca02c;stroke:#2ca02c;" x="290.912584" xlink:href="#mdcc2ee61e2" y="42.198261"/>
     <use style="fill:#2ca02c;stroke:#2ca02c;" x="297.164807" xlink:href="#mdcc2ee61e2" y="40.382976"/>
     <use style="fill:#2ca02c;stroke:#2ca02c;" x="303.417029" xlink:href="#mdcc2ee61e2" y="38.891188"/>
     <use style="fill:#2ca02c;stroke:#2ca02c;" x="309.669252" xlink:href="#mdcc2ee61e2" y="37.78704"/>
     <use style="fill:#2ca02c;stroke:#2ca02c;" x="315.921474" xlink:href="#mdcc2ee61e2" y="36.725228"/>
     <use style="fill:#2ca02c;stroke:#2ca02c;" x="322.173697" xlink:href="#mdcc2ee61e2" y="35.523545"/>
     <use style="fill:#2ca02c;stroke:#2ca02c;" x="328.42592" xlink:href="#mdcc2ee61e2" y="34.399622"/>
     <use style="fill:#2ca02c;stroke:#2ca02c;" x="334.678142" xlink:href="#mdcc2ee61e2" y="33.339154"/>
    </g>
   </g>
   <g id="line2d_42">
    <path clip-path="url(#pe156f53f07)" d="M 34.571457 294.544029 
L 40.82368 294.544029 
L 47.075902 294.544029 
L 53.328125 294.544029 
L 59.580348 294.544029 
L 65.83257 294.544029 
L 72.084793 294.544029 
L 78.337015 294.544029 
L 84.589238 284.548828 
L 90.841461 284.548828 
L 97.093683 284.548828 
L 103.345906 284.548828 
L 109.598128 278.904941 
L 115.850351 272.839631 
L 122.102574 269.040733 
L 128.354796 256.862883 
L 134.607019 254.687226 
L 140.859241 247.395489 
L 147.111464 232.878485 
L 153.363687 225.058941 
L 159.615909 215.646736 
L 165.868132 209.05617 
L 172.120355 201.30173 
L 178.372577 197.392529 
L 184.6248 192.592496 
L 190.877022 187.613131 
L 197.129245 180.847837 
L 203.381468 172.639493 
L 209.63369 162.94464 
L 215.885913 157.535726 
L 222.138135 154.716882 
L 228.390358 148.353741 
L 234.642581 140.263734 
L 240.894803 134.310444 
L 247.147026 128.940765 
L 253.399248 122.662013 
L 259.651471 119.279371 
L 265.903694 115.008183 
L 272.155916 109.724058 
L 278.408139 105.230482 
L 284.660361 99.749315 
L 290.912584 93.739085 
L 297.164807 89.354072 
L 303.417029 85.736063 
L 309.669252 82.314247 
L 315.921474 78.850633 
L 322.173697 74.538319 
L 328.42592 70.881814 
L 334.678142 67.512278 
" style="fill:none;stroke:#1f77b4;stroke-linecap:square;stroke-width:1.5;"/>
    <defs>
     <path d="M 0 3 
C 0.795609 3 1.55874 2.683901 2.12132 2.12132 
C 2.683901 1.55874 3 0.795609 3 0 
C 3 -0.795609 2.683901 -1.55874 2.12132 -2.12132 
C 1.55874 -2.683901 0.795609 -3 0 -3 
C -0.795609 -3 -1.55874 -2.683901 -2.12132 -2.12132 
C -2.683901 -1.55874 -3 -0.795609 -3 0 
C -3 0.795609 -2.683901 1.55874 -2.12132 2.12132 
C -1.55874 2.683901 -0.795609 3 0 3 
z
" id="m7e6154c4b4" style="stroke:#1f77b4;"/>
    </defs>
    <g clip-path="url(#pe156f53f07)">
     <use style="fill:#1f77b4;stroke:#1f77b4;" x="34.571457" xlink:href="#m7e6154c4b4" y="294.544029"/>
     <use style="fill:#1f77b4;stroke:#1f77b4;" x="40.82368" xlink:href="#m7e6154c4b4" y="294.544029"/>
     <use style="fill:#1f77b4;stroke:#1f77b4;" x="47.075902" xlink:href="#m7e6154c4b4" y="294.544029"/>
     <use style="fill:#1f77b4;stroke:#1f77b4;" x="53.328125" xlink:href="#m7e6154c4b4" y="294.544029"/>
     <use style="fill:#1f77b4;stroke:#1f77b4;" x="59.580348" xlink:href="#m7e6154c4b4" y="294.544029"/>
     <use style="fill:#1f77b4;stroke:#1f77b4;" x="65.83257" xlink:href="#m7e6154c4b4" y="294.544029"/>
     <use style="fill:#1f77b4;stroke:#1f77b4;" x="72.084793" xlink:href="#m7e6154c4b4" y="294.544029"/>
     <use style="fill:#1f77b4;stroke:#1f77b4;" x="78.337015" xlink:href="#m7e6154c4b4" y="294.544029"/>
     <use style="fill:#1f77b4;stroke:#1f77b4;" x="84.589238" xlink:href="#m7e6154c4b4" y="284.548828"/>
     <use style="fill:#1f77b4;stroke:#1f77b4;" x="90.841461" xlink:href="#m7e6154c4b4" y="284.548828"/>
     <use style="fill:#1f77b4;stroke:#1f77b4;" x="97.093683" xlink:href="#m7e6154c4b4" y="284.548828"/>
     <use style="fill:#1f77b4;stroke:#1f77b4;" x="103.345906" xlink:href="#m7e6154c4b4" y="284.548828"/>
     <use style="fill:#1f77b4;stroke:#1f77b4;" x="109.598128" xlink:href="#m7e6154c4b4" y="278.904941"/>
     <use style="fill:#1f77b4;stroke:#1f77b4;" x="115.850351" xlink:href="#m7e6154c4b4" y="272.839631"/>
     <use style="fill:#1f77b4;stroke:#1f77b4;" x="122.102574" xlink:href="#m7e6154c4b4" y="269.040733"/>
     <use style="fill:#1f77b4;stroke:#1f77b4;" x="128.354796" xlink:href="#m7e6154c4b4" y="256.862883"/>
     <use style="fill:#1f77b4;stroke:#1f77b4;" x="134.607019" xlink:href="#m7e6154c4b4" y="254.687226"/>
     <use style="fill:#1f77b4;stroke:#1f77b4;" x="140.859241" xlink:href="#m7e6154c4b4" y="247.395489"/>
     <use style="fill:#1f77b4;stroke:#1f77b4;" x="147.111464" xlink:href="#m7e6154c4b4" y="232.878485"/>
     <use style="fill:#1f77b4;stroke:#1f77b4;" x="153.363687" xlink:href="#m7e6154c4b4" y="225.058941"/>
     <use style="fill:#1f77b4;stroke:#1f77b4;" x="159.615909" xlink:href="#m7e6154c4b4" y="215.646736"/>
     <use style="fill:#1f77b4;stroke:#1f77b4;" x="165.868132" xlink:href="#m7e6154c4b4" y="209.05617"/>
     <use style="fill:#1f77b4;stroke:#1f77b4;" x="172.120355" xlink:href="#m7e6154c4b4" y="201.30173"/>
     <use style="fill:#1f77b4;stroke:#1f77b4;" x="178.372577" xlink:href="#m7e6154c4b4" y="197.392529"/>
     <use style="fill:#1f77b4;stroke:#1f77b4;" x="184.6248" xlink:href="#m7e6154c4b4" y="192.592496"/>
     <use style="fill:#1f77b4;stroke:#1f77b4;" x="190.877022" xlink:href="#m7e6154c4b4" y="187.613131"/>
     <use style="fill:#1f77b4;stroke:#1f77b4;" x="197.129245" xlink:href="#m7e6154c4b4" y="180.847837"/>
     <use style="fill:#1f77b4;stroke:#1f77b4;" x="203.381468" xlink:href="#m7e6154c4b4" y="172.639493"/>
     <use style="fill:#1f77b4;stroke:#1f77b4;" x="209.63369" xlink:href="#m7e6154c4b4" y="162.94464"/>
     <use style="fill:#1f77b4;stroke:#1f77b4;" x="215.885913" xlink:href="#m7e6154c4b4" y="157.535726"/>
     <use style="fill:#1f77b4;stroke:#1f77b4;" x="222.138135" xlink:href="#m7e6154c4b4" y="154.716882"/>
     <use style="fill:#1f77b4;stroke:#1f77b4;" x="228.390358" xlink:href="#m7e6154c4b4" y="148.353741"/>
     <use style="fill:#1f77b4;stroke:#1f77b4;" x="234.642581" xlink:href="#m7e6154c4b4" y="140.263734"/>
     <use style="fill:#1f77b4;stroke:#1f77b4;" x="240.894803" xlink:href="#m7e6154c4b4" y="134.310444"/>
     <use style="fill:#1f77b4;stroke:#1f77b4;" x="247.147026" xlink:href="#m7e6154c4b4" y="128.940765"/>
     <use style="fill:#1f77b4;stroke:#1f77b4;" x="253.399248" xlink:href="#m7e6154c4b4" y="122.662013"/>
     <use style="fill:#1f77b4;stroke:#1f77b4;" x="259.651471" xlink:href="#m7e6154c4b4" y="119.279371"/>
     <use style="fill:#1f77b4;stroke:#1f77b4;" x="265.903694" xlink:href="#m7e6154c4b4" y="115.008183"/>
     <use style="fill:#1f77b4;stroke:#1f77b4;" x="272.155916" xlink:href="#m7e6154c4b4" y="109.724058"/>
     <use style="fill:#1f77b4;stroke:#1f77b4;" x="278.408139" xlink:href="#m7e6154c4b4" y="105.230482"/>
     <use style="fill:#1f77b4;stroke:#1f77b4;" x="284.660361" xlink:href="#m7e6154c4b4" y="99.749315"/>
     <use style="fill:#1f77b4;stroke:#1f77b4;" x="290.912584" xlink:href="#m7e6154c4b4" y="93.739085"/>
     <use style="fill:#1f77b4;stroke:#1f77b4;" x="297.164807" xlink:href="#m7e6154c4b4" y="89.354072"/>
     <use style="fill:#1f77b4;stroke:#1f77b4;" x="303.417029" xlink:href="#m7e6154c4b4" y="85.736063"/>
     <use style="fill:#1f77b4;stroke:#1f77b4;" x="309.669252" xlink:href="#m7e6154c4b4" y="82.314247"/>
     <use style="fill:#1f77b4;stroke:#1f77b4;" x="315.921474" xlink:href="#m7e6154c4b4" y="78.850633"/>
     <use style="fill:#1f77b4;stroke:#1f77b4;" x="322.173697" xlink:href="#m7e6154c4b4" y="74.538319"/>
     <use style="fill:#1f77b4;stroke:#1f77b4;" x="328.42592" xlink:href="#m7e6154c4b4" y="70.881814"/>
     <use style="fill:#1f77b4;stroke:#1f77b4;" x="334.678142" xlink:href="#m7e6154c4b4" y="67.512278"/>
    </g>
   </g>
   <g id="line2d_43">
    <path clip-path="url(#pe156f53f07)" d="M 53.328125 112.045919 
L 388.128125 112.045919 
" style="fill:none;stroke:#1f77b4;stroke-dasharray:7.4,3.2;stroke-dashoffset:0;stroke-opacity:0.7;stroke-width:2;"/>
   </g>
   <g id="line2d_44">
    <path clip-path="url(#pe156f53f07)" d="M 53.328125 70.135577 
L 388.128125 70.135577 
" style="fill:none;stroke:#ff7f0e;stroke-dasharray:7.4,3.2;stroke-dashoffset:0;stroke-opacity:0.7;stroke-width:2;"/>
   </g>
   <g id="line2d_45">
    <path clip-path="url(#pe156f53f07)" d="M 53.328125 89.617661 
L 388.128125 89.617661 
" style="fill:none;stroke:#2ca02c;stroke-dasharray:12.8,3.2,2,3.2;stroke-dashoffset:0;stroke-opacity:0.7;stroke-width:2;"/>
   </g>
   <g id="line2d_46">
    <path clip-path="url(#pe156f53f07)" d="M 97.093683 272.483552 
L 97.093683 22.318125 
" style="fill:none;stroke:#2ca02c;stroke-linecap:square;stroke-opacity:0.3;stroke-width:4;"/>
   </g>
   <g id="line2d_47">
    <path clip-path="url(#pe156f53f07)" d="M 197.129245 272.483552 
L 197.129245 22.318125 
" style="fill:none;stroke:#ff7f0e;stroke-linecap:square;stroke-opacity:0.3;stroke-width:4;"/>
   </g>
   <g id="line2d_48">
    <path clip-path="url(#pe156f53f07)" d="M 234.642581 272.483552 
L 234.642581 22.318125 
" style="fill:none;stroke:#1f77b4;stroke-linecap:square;stroke-opacity:0.3;stroke-width:4;"/>
   </g>
   <g id="patch_3">
    <path d="M 53.328125 239.758125 
L 53.328125 22.318125 
" style="fill:none;stroke:#000000;stroke-linecap:square;stroke-linejoin:miter;stroke-width:0.8;"/>
   </g>
   <g id="patch_4">
    <path d="M 388.128125 239.758125 
L 388.128125 22.318125 
" style="fill:none;stroke:#000000;stroke-linecap:square;stroke-linejoin:miter;stroke-width:0.8;"/>
   </g>
   <g id="patch_5">
    <path d="M 53.328125 239.758125 
L 388.128125 239.758125 
" style="fill:none;stroke:#000000;stroke-linecap:square;stroke-linejoin:miter;stroke-width:0.8;"/>
   </g>
   <g id="patch_6">
    <path d="M 53.328125 22.318125 
L 388.128125 22.318125 
" style="fill:none;stroke:#000000;stroke-linecap:square;stroke-linejoin:miter;stroke-width:0.8;"/>
   </g>
   <g id="text_20">
    <!--  Scott Sievert -->
    <defs>
     <path d="M 50 72.515625 
Q 57.421875 72.515625 63.84375 69.828125 
Q 70.265625 67.140625 75.59375 61.8125 
Q 80.90625 56.5 83.546875 50.09375 
Q 86.1875 43.703125 86.1875 36.1875 
Q 86.1875 28.765625 83.546875 22.390625 
Q 80.90625 16.015625 75.59375 10.6875 
Q 70.265625 5.375 63.84375 2.6875 
Q 57.421875 0 50 0 
Q 42.578125 0 36.15625 2.6875 
Q 29.734375 5.375 24.421875 10.6875 
Q 19.09375 16.015625 16.453125 22.390625 
Q 13.8125 28.765625 13.8125 36.1875 
Q 13.8125 43.703125 16.453125 50.09375 
Q 19.09375 56.5 24.421875 61.8125 
Q 29.734375 67.140625 36.15625 69.828125 
Q 42.578125 72.515625 50 72.515625 
z
M 50 67.484375 
Q 43.609375 67.484375 38.078125 65.1875 
Q 32.5625 62.890625 27.984375 58.296875 
Q 23.390625 53.71875 21.046875 48.125 
Q 18.703125 42.53125 18.703125 36.1875 
Q 18.703125 29.890625 21.046875 24.34375 
Q 23.390625 18.796875 27.984375 14.203125 
Q 32.5625 9.625 38.078125 7.296875 
Q 43.609375 4.984375 50 4.984375 
Q 56.453125 4.984375 61.984375 7.296875 
Q 67.53125 9.625 72.125 14.203125 
Q 76.65625 18.75 78.921875 24.265625 
Q 81.203125 29.78125 81.203125 36.1875 
Q 81.203125 42.671875 78.90625 48.21875 
Q 76.609375 53.765625 72.125 58.296875 
Q 67.53125 62.890625 61.984375 65.1875 
Q 56.453125 67.484375 50 67.484375 
z
M 64.59375 55.515625 
L 64.59375 49.21875 
Q 61.375 50.828125 58.203125 51.609375 
Q 55.03125 52.390625 51.8125 52.390625 
Q 44.53125 52.390625 40.453125 48.109375 
Q 36.375 43.84375 36.375 36.1875 
Q 36.375 28.421875 40.546875 24.171875 
Q 44.734375 19.921875 52.296875 19.921875 
Q 55.421875 19.921875 58.390625 20.671875 
Q 61.375 21.4375 64.59375 23.09375 
L 64.59375 16.890625 
Q 61.328125 15.484375 57.984375 14.796875 
Q 54.640625 14.109375 51.21875 14.109375 
Q 40.671875 14.109375 34.546875 20.0625 
Q 28.421875 26.03125 28.421875 36.1875 
Q 28.421875 46.390625 34.546875 52.296875 
Q 40.671875 58.203125 51.21875 58.203125 
Q 54.78125 58.203125 58.09375 57.515625 
Q 61.421875 56.84375 64.59375 55.515625 
z
" id="DejaVuSans-169"/>
     <path d="M 53.515625 70.515625 
L 53.515625 60.890625 
Q 47.90625 63.578125 42.921875 64.890625 
Q 37.9375 66.21875 33.296875 66.21875 
Q 25.25 66.21875 20.875 63.09375 
Q 16.5 59.96875 16.5 54.203125 
Q 16.5 49.359375 19.40625 46.890625 
Q 22.3125 44.4375 30.421875 42.921875 
L 36.375 41.703125 
Q 47.40625 39.59375 52.65625 34.296875 
Q 57.90625 29 57.90625 20.125 
Q 57.90625 9.515625 50.796875 4.046875 
Q 43.703125 -1.421875 29.984375 -1.421875 
Q 24.8125 -1.421875 18.96875 -0.25 
Q 13.140625 0.921875 6.890625 3.21875 
L 6.890625 13.375 
Q 12.890625 10.015625 18.65625 8.296875 
Q 24.421875 6.59375 29.984375 6.59375 
Q 38.421875 6.59375 43.015625 9.90625 
Q 47.609375 13.234375 47.609375 19.390625 
Q 47.609375 24.75 44.3125 27.78125 
Q 41.015625 30.8125 33.5 32.328125 
L 27.484375 33.5 
Q 16.453125 35.6875 11.515625 40.375 
Q 6.59375 45.0625 6.59375 53.421875 
Q 6.59375 63.09375 13.40625 68.65625 
Q 20.21875 74.21875 32.171875 74.21875 
Q 37.3125 74.21875 42.625 73.28125 
Q 47.953125 72.359375 53.515625 70.515625 
z
" id="DejaVuSans-83"/>
     <path d="M 48.78125 52.59375 
L 48.78125 44.1875 
Q 44.96875 46.296875 41.140625 47.34375 
Q 37.3125 48.390625 33.40625 48.390625 
Q 24.65625 48.390625 19.8125 42.84375 
Q 14.984375 37.3125 14.984375 27.296875 
Q 14.984375 17.28125 19.8125 11.734375 
Q 24.65625 6.203125 33.40625 6.203125 
Q 37.3125 6.203125 41.140625 7.25 
Q 44.96875 8.296875 48.78125 10.40625 
L 48.78125 2.09375 
Q 45.015625 0.34375 40.984375 -0.53125 
Q 36.96875 -1.421875 32.421875 -1.421875 
Q 20.0625 -1.421875 12.78125 6.34375 
Q 5.515625 14.109375 5.515625 27.296875 
Q 5.515625 40.671875 12.859375 48.328125 
Q 20.21875 56 33.015625 56 
Q 37.15625 56 41.109375 55.140625 
Q 45.0625 54.296875 48.78125 52.59375 
z
" id="DejaVuSans-99"/>
     <path d="M 18.3125 70.21875 
L 18.3125 54.6875 
L 36.8125 54.6875 
L 36.8125 47.703125 
L 18.3125 47.703125 
L 18.3125 18.015625 
Q 18.3125 11.328125 20.140625 9.421875 
Q 21.96875 7.515625 27.59375 7.515625 
L 36.8125 7.515625 
L 36.8125 0 
L 27.59375 0 
Q 17.1875 0 13.234375 3.875 
Q 9.28125 7.765625 9.28125 18.015625 
L 9.28125 47.703125 
L 2.6875 47.703125 
L 2.6875 54.6875 
L 9.28125 54.6875 
L 9.28125 70.21875 
z
" id="DejaVuSans-116"/>
     <path d="M 2.984375 54.6875 
L 12.5 54.6875 
L 29.59375 8.796875 
L 46.6875 54.6875 
L 56.203125 54.6875 
L 35.6875 0 
L 23.484375 0 
z
" id="DejaVuSans-118"/>
    </defs>
    <g style="fill:#aaaaaa;" transform="translate(306.849231 335.070582)scale(0.1 -0.1)">
     <use xlink:href="#DejaVuSans-169"/>
     <use x="100" xlink:href="#DejaVuSans-32"/>
     <use x="131.787109" xlink:href="#DejaVuSans-83"/>
     <use x="195.263672" xlink:href="#DejaVuSans-99"/>
     <use x="250.244141" xlink:href="#DejaVuSans-111"/>
     <use x="311.425781" xlink:href="#DejaVuSans-116"/>
     <use x="350.634766" xlink:href="#DejaVuSans-116"/>
     <use x="389.84375" xlink:href="#DejaVuSans-32"/>
     <use x="421.630859" xlink:href="#DejaVuSans-83"/>
     <use x="485.107422" xlink:href="#DejaVuSans-105"/>
     <use x="512.890625" xlink:href="#DejaVuSans-101"/>
     <use x="574.414062" xlink:href="#DejaVuSans-118"/>
     <use x="633.59375" xlink:href="#DejaVuSans-101"/>
     <use x="695.117188" xlink:href="#DejaVuSans-114"/>
     <use x="736.230469" xlink:href="#DejaVuSans-116"/>
    </g>
   </g>
   <g id="text_21">
    <!-- Cases per country -->
    <defs>
     <path d="M 8.5 21.578125 
L 8.5 54.6875 
L 17.484375 54.6875 
L 17.484375 21.921875 
Q 17.484375 14.15625 20.5 10.265625 
Q 23.53125 6.390625 29.59375 6.390625 
Q 36.859375 6.390625 41.078125 11.03125 
Q 45.3125 15.671875 45.3125 23.6875 
L 45.3125 54.6875 
L 54.296875 54.6875 
L 54.296875 0 
L 45.3125 0 
L 45.3125 8.40625 
Q 42.046875 3.421875 37.71875 1 
Q 33.40625 -1.421875 27.6875 -1.421875 
Q 18.265625 -1.421875 13.375 4.4375 
Q 8.5 10.296875 8.5 21.578125 
z
M 31.109375 56 
z
" id="DejaVuSans-117"/>
     <path d="M 32.171875 -5.078125 
Q 28.375 -14.84375 24.75 -17.8125 
Q 21.140625 -20.796875 15.09375 -20.796875 
L 7.90625 -20.796875 
L 7.90625 -13.28125 
L 13.1875 -13.28125 
Q 16.890625 -13.28125 18.9375 -11.515625 
Q 21 -9.765625 23.484375 -3.21875 
L 25.09375 0.875 
L 2.984375 54.6875 
L 12.5 54.6875 
L 29.59375 11.921875 
L 46.6875 54.6875 
L 56.203125 54.6875 
z
" id="DejaVuSans-121"/>
    </defs>
    <g transform="translate(166.191875 16.318125)scale(0.12 -0.12)">
     <use xlink:href="#DejaVuSans-67"/>
     <use x="69.824219" xlink:href="#DejaVuSans-97"/>
     <use x="131.103516" xlink:href="#DejaVuSans-115"/>
     <use x="183.203125" xlink:href="#DejaVuSans-101"/>
     <use x="244.726562" xlink:href="#DejaVuSans-115"/>
     <use x="296.826172" xlink:href="#DejaVuSans-32"/>
     <use x="328.613281" xlink:href="#DejaVuSans-112"/>
     <use x="392.089844" xlink:href="#DejaVuSans-101"/>
     <use x="453.613281" xlink:href="#DejaVuSans-114"/>
     <use x="494.726562" xlink:href="#DejaVuSans-32"/>
     <use x="526.513672" xlink:href="#DejaVuSans-99"/>
     <use x="581.494141" xlink:href="#DejaVuSans-111"/>
     <use x="642.675781" xlink:href="#DejaVuSans-117"/>
     <use x="706.054688" xlink:href="#DejaVuSans-110"/>
     <use x="769.433594" xlink:href="#DejaVuSans-116"/>
     <use x="808.642578" xlink:href="#DejaVuSans-114"/>
     <use x="849.755859" xlink:href="#DejaVuSans-121"/>
    </g>
   </g>
   <g id="legend_1">
    <g id="patch_7">
     <path d="M 249.604688 234.758125 
L 381.128125 234.758125 
Q 383.128125 234.758125 383.128125 232.758125 
L 383.128125 175.02375 
Q 383.128125 173.02375 381.128125 173.02375 
L 249.604688 173.02375 
Q 247.604688 173.02375 247.604688 175.02375 
L 247.604688 232.758125 
Q 247.604688 234.758125 249.604688 234.758125 
z
" style="fill:#ffffff;opacity:0.8;stroke:#cccccc;stroke-linejoin:miter;"/>
    </g>
    <g id="text_22">
     <!-- Country (cases in 7 days) -->
     <defs>
      <path d="M 31 75.875 
Q 24.46875 64.65625 21.28125 53.65625 
Q 18.109375 42.671875 18.109375 31.390625 
Q 18.109375 20.125 21.3125 9.0625 
Q 24.515625 -2 31 -13.1875 
L 23.1875 -13.1875 
Q 15.875 -1.703125 12.234375 9.375 
Q 8.59375 20.453125 8.59375 31.390625 
Q 8.59375 42.28125 12.203125 53.3125 
Q 15.828125 64.359375 23.1875 75.875 
z
" id="DejaVuSans-40"/>
      <path d="M 8.203125 72.90625 
L 55.078125 72.90625 
L 55.078125 68.703125 
L 28.609375 0 
L 18.3125 0 
L 43.21875 64.59375 
L 8.203125 64.59375 
z
" id="DejaVuSans-55"/>
      <path d="M 45.40625 46.390625 
L 45.40625 75.984375 
L 54.390625 75.984375 
L 54.390625 0 
L 45.40625 0 
L 45.40625 8.203125 
Q 42.578125 3.328125 38.25 0.953125 
Q 33.9375 -1.421875 27.875 -1.421875 
Q 17.96875 -1.421875 11.734375 6.484375 
Q 5.515625 14.40625 5.515625 27.296875 
Q 5.515625 40.1875 11.734375 48.09375 
Q 17.96875 56 27.875 56 
Q 33.9375 56 38.25 53.625 
Q 42.578125 51.265625 45.40625 46.390625 
z
M 14.796875 27.296875 
Q 14.796875 17.390625 18.875 11.75 
Q 22.953125 6.109375 30.078125 6.109375 
Q 37.203125 6.109375 41.296875 11.75 
Q 45.40625 17.390625 45.40625 27.296875 
Q 45.40625 37.203125 41.296875 42.84375 
Q 37.203125 48.484375 30.078125 48.484375 
Q 22.953125 48.484375 18.875 42.84375 
Q 14.796875 37.203125 14.796875 27.296875 
z
" id="DejaVuSans-100"/>
      <path d="M 8.015625 75.875 
L 15.828125 75.875 
Q 23.140625 64.359375 26.78125 53.3125 
Q 30.421875 42.28125 30.421875 31.390625 
Q 30.421875 20.453125 26.78125 9.375 
Q 23.140625 -1.703125 15.828125 -13.1875 
L 8.015625 -13.1875 
Q 14.5 -2 17.703125 9.0625 
Q 20.90625 20.125 20.90625 31.390625 
Q 20.90625 42.671875 17.703125 53.65625 
Q 14.5 64.65625 8.015625 75.875 
z
" id="DejaVuSans-41"/>
     </defs>
     <g transform="translate(251.604688 184.622188)scale(0.1 -0.1)">
      <use xlink:href="#DejaVuSans-67"/>
      <use x="69.824219" xlink:href="#DejaVuSans-111"/>
      <use x="131.005859" xlink:href="#DejaVuSans-117"/>
      <use x="194.384766" xlink:href="#DejaVuSans-110"/>
      <use x="257.763672" xlink:href="#DejaVuSans-116"/>
      <use x="296.972656" xlink:href="#DejaVuSans-114"/>
      <use x="338.085938" xlink:href="#DejaVuSans-121"/>
      <use x="397.265625" xlink:href="#DejaVuSans-32"/>
      <use x="429.052734" xlink:href="#DejaVuSans-40"/>
      <use x="468.066406" xlink:href="#DejaVuSans-99"/>
      <use x="523.046875" xlink:href="#DejaVuSans-97"/>
      <use x="584.326172" xlink:href="#DejaVuSans-115"/>
      <use x="636.425781" xlink:href="#DejaVuSans-101"/>
      <use x="697.949219" xlink:href="#DejaVuSans-115"/>
      <use x="750.048828" xlink:href="#DejaVuSans-32"/>
      <use x="781.835938" xlink:href="#DejaVuSans-105"/>
      <use x="809.619141" xlink:href="#DejaVuSans-110"/>
      <use x="872.998047" xlink:href="#DejaVuSans-32"/>
      <use x="904.785156" xlink:href="#DejaVuSans-55"/>
      <use x="968.408203" xlink:href="#DejaVuSans-32"/>
      <use x="1000.195312" xlink:href="#DejaVuSans-100"/>
      <use x="1063.671875" xlink:href="#DejaVuSans-97"/>
      <use x="1124.951172" xlink:href="#DejaVuSans-121"/>
      <use x="1184.130859" xlink:href="#DejaVuSans-115"/>
      <use x="1236.230469" xlink:href="#DejaVuSans-41"/>
     </g>
    </g>
    <g id="line2d_49">
     <path d="M 272.866406 195.800313 
L 292.866406 195.800313 
" style="fill:none;stroke:#ff7f0e;stroke-linecap:square;stroke-width:1.5;"/>
    </g>
    <g id="line2d_50">
     <g>
      <use style="fill:#ff7f0e;stroke:#ff7f0e;" x="282.866406" xlink:href="#mbcdc2b3e25" y="195.800313"/>
     </g>
    </g>
    <g id="text_23">
     <!-- US (2.6$\times$) -->
     <defs>
      <path d="M 8.6875 72.90625 
L 18.609375 72.90625 
L 18.609375 28.609375 
Q 18.609375 16.890625 22.84375 11.734375 
Q 27.09375 6.59375 36.625 6.59375 
Q 46.09375 6.59375 50.34375 11.734375 
Q 54.59375 16.890625 54.59375 28.609375 
L 54.59375 72.90625 
L 64.5 72.90625 
L 64.5 27.390625 
Q 64.5 13.140625 57.4375 5.859375 
Q 50.390625 -1.421875 36.625 -1.421875 
Q 22.796875 -1.421875 15.734375 5.859375 
Q 8.6875 13.140625 8.6875 27.390625 
z
" id="DejaVuSans-85"/>
      <path d="M 33.015625 40.375 
Q 26.375 40.375 22.484375 35.828125 
Q 18.609375 31.296875 18.609375 23.390625 
Q 18.609375 15.53125 22.484375 10.953125 
Q 26.375 6.390625 33.015625 6.390625 
Q 39.65625 6.390625 43.53125 10.953125 
Q 47.40625 15.53125 47.40625 23.390625 
Q 47.40625 31.296875 43.53125 35.828125 
Q 39.65625 40.375 33.015625 40.375 
z
M 52.59375 71.296875 
L 52.59375 62.3125 
Q 48.875 64.0625 45.09375 64.984375 
Q 41.3125 65.921875 37.59375 65.921875 
Q 27.828125 65.921875 22.671875 59.328125 
Q 17.53125 52.734375 16.796875 39.40625 
Q 19.671875 43.65625 24.015625 45.921875 
Q 28.375 48.1875 33.59375 48.1875 
Q 44.578125 48.1875 50.953125 41.515625 
Q 57.328125 34.859375 57.328125 23.390625 
Q 57.328125 12.15625 50.6875 5.359375 
Q 44.046875 -1.421875 33.015625 -1.421875 
Q 20.359375 -1.421875 13.671875 8.265625 
Q 6.984375 17.96875 6.984375 36.375 
Q 6.984375 53.65625 15.1875 63.9375 
Q 23.390625 74.21875 37.203125 74.21875 
Q 40.921875 74.21875 44.703125 73.484375 
Q 48.484375 72.75 52.59375 71.296875 
z
" id="DejaVuSans-54"/>
      <path d="M 70.125 53.71875 
L 47.796875 31.296875 
L 70.125 8.984375 
L 64.3125 3.078125 
L 41.890625 25.484375 
L 19.484375 3.078125 
L 13.71875 8.984375 
L 35.984375 31.296875 
L 13.71875 53.71875 
L 19.484375 59.625 
L 41.890625 37.203125 
L 64.3125 59.625 
z
" id="DejaVuSans-215"/>
     </defs>
     <g transform="translate(300.866406 199.300313)scale(0.1 -0.1)">
      <use transform="translate(0 0.125)" xlink:href="#DejaVuSans-85"/>
      <use transform="translate(73.193359 0.125)" xlink:href="#DejaVuSans-83"/>
      <use transform="translate(136.669922 0.125)" xlink:href="#DejaVuSans-32"/>
      <use transform="translate(168.457031 0.125)" xlink:href="#DejaVuSans-40"/>
      <use transform="translate(207.470703 0.125)" xlink:href="#DejaVuSans-50"/>
      <use transform="translate(271.09375 0.125)" xlink:href="#DejaVuSans-46"/>
      <use transform="translate(302.880859 0.125)" xlink:href="#DejaVuSans-54"/>
      <use transform="translate(366.503906 0.125)" xlink:href="#DejaVuSans-215"/>
      <use transform="translate(450.292969 0.125)" xlink:href="#DejaVuSans-41"/>
     </g>
    </g>
    <g id="line2d_51">
     <path d="M 272.866406 210.48 
L 292.866406 210.48 
" style="fill:none;stroke:#2ca02c;stroke-linecap:square;stroke-width:1.5;"/>
    </g>
    <g id="line2d_52">
     <g>
      <use style="fill:#2ca02c;stroke:#2ca02c;" x="282.866406" xlink:href="#mdcc2ee61e2" y="210.48"/>
     </g>
    </g>
    <g id="text_24">
     <!-- Italy (1.4$\times$) -->
     <defs>
      <path d="M 9.8125 72.90625 
L 19.671875 72.90625 
L 19.671875 0 
L 9.8125 0 
z
" id="DejaVuSans-73"/>
      <path d="M 37.796875 64.3125 
L 12.890625 25.390625 
L 37.796875 25.390625 
z
M 35.203125 72.90625 
L 47.609375 72.90625 
L 47.609375 25.390625 
L 58.015625 25.390625 
L 58.015625 17.1875 
L 47.609375 17.1875 
L 47.609375 0 
L 37.796875 0 
L 37.796875 17.1875 
L 4.890625 17.1875 
L 4.890625 26.703125 
z
" id="DejaVuSans-52"/>
     </defs>
     <g transform="translate(300.866406 213.98)scale(0.1 -0.1)">
      <use transform="translate(0 0.015625)" xlink:href="#DejaVuSans-73"/>
      <use transform="translate(29.492188 0.015625)" xlink:href="#DejaVuSans-116"/>
      <use transform="translate(68.701172 0.015625)" xlink:href="#DejaVuSans-97"/>
      <use transform="translate(129.980469 0.015625)" xlink:href="#DejaVuSans-108"/>
      <use transform="translate(157.763672 0.015625)" xlink:href="#DejaVuSans-121"/>
      <use transform="translate(216.943359 0.015625)" xlink:href="#DejaVuSans-32"/>
      <use transform="translate(248.730469 0.015625)" xlink:href="#DejaVuSans-40"/>
      <use transform="translate(287.744141 0.015625)" xlink:href="#DejaVuSans-49"/>
      <use transform="translate(351.367188 0.015625)" xlink:href="#DejaVuSans-46"/>
      <use transform="translate(383.154297 0.015625)" xlink:href="#DejaVuSans-52"/>
      <use transform="translate(446.777344 0.015625)" xlink:href="#DejaVuSans-215"/>
      <use transform="translate(530.566406 0.015625)" xlink:href="#DejaVuSans-41"/>
     </g>
    </g>
    <g id="line2d_53">
     <path d="M 272.866406 225.178438 
L 292.866406 225.178438 
" style="fill:none;stroke:#1f77b4;stroke-linecap:square;stroke-width:1.5;"/>
    </g>
    <g id="line2d_54">
     <g>
      <use style="fill:#1f77b4;stroke:#1f77b4;" x="282.866406" xlink:href="#m7e6154c4b4" y="225.178438"/>
     </g>
    </g>
    <g id="text_25">
     <!-- UK (2.6$\times$) -->
     <defs>
      <path d="M 9.8125 72.90625 
L 19.671875 72.90625 
L 19.671875 42.09375 
L 52.390625 72.90625 
L 65.09375 72.90625 
L 28.90625 38.921875 
L 67.671875 0 
L 54.6875 0 
L 19.671875 35.109375 
L 19.671875 0 
L 9.8125 0 
z
" id="DejaVuSans-75"/>
     </defs>
     <g transform="translate(300.866406 228.678438)scale(0.1 -0.1)">
      <use transform="translate(0 0.125)" xlink:href="#DejaVuSans-85"/>
      <use transform="translate(73.177734 0.125)" xlink:href="#DejaVuSans-75"/>
      <use transform="translate(138.753906 0.125)" xlink:href="#DejaVuSans-32"/>
      <use transform="translate(170.541016 0.125)" xlink:href="#DejaVuSans-40"/>
      <use transform="translate(209.554688 0.125)" xlink:href="#DejaVuSans-50"/>
      <use transform="translate(273.177734 0.125)" xlink:href="#DejaVuSans-46"/>
      <use transform="translate(304.964844 0.125)" xlink:href="#DejaVuSans-54"/>
      <use transform="translate(368.587891 0.125)" xlink:href="#DejaVuSans-215"/>
      <use transform="translate(452.376953 0.125)" xlink:href="#DejaVuSans-41"/>
     </g>
    </g>
   </g>
   <g id="legend_2">
    <g id="patch_8">
     <path d="M 62.024125 326.734125 
L 364.524125 326.734125 
Q 366.524125 326.734125 366.524125 324.734125 
L 366.524125 273.960375 
Q 366.524125 271.960375 364.524125 271.960375 
L 62.024125 271.960375 
Q 60.024125 271.960375 60.024125 273.960375 
L 60.024125 324.734125 
Q 60.024125 326.734125 62.024125 326.734125 
z
" style="fill:#ffffff;opacity:0.8;stroke:#cccccc;stroke-linejoin:miter;"/>
    </g>
    <g id="line2d_55">
     <path d="M 64.024125 286.7085 
L 84.024125 286.7085 
" style="fill:none;stroke:#ff7f0e;stroke-linecap:square;stroke-opacity:0.7;stroke-width:1.5;"/>
    </g>
    <g id="line2d_56"/>
    <g id="text_26">
     <!-- 2$\times$ every 2.4 days -->
     <g transform="translate(92.024125 283.560375)scale(0.1 -0.1)">
      <use transform="translate(0 0.015625)" xlink:href="#DejaVuSans-50"/>
      <use transform="translate(63.623047 0.015625)" xlink:href="#DejaVuSans-215"/>
      <use transform="translate(147.412109 0.015625)" xlink:href="#DejaVuSans-32"/>
      <use transform="translate(179.199219 0.015625)" xlink:href="#DejaVuSans-101"/>
      <use transform="translate(240.722656 0.015625)" xlink:href="#DejaVuSans-118"/>
      <use transform="translate(299.902344 0.015625)" xlink:href="#DejaVuSans-101"/>
      <use transform="translate(361.425781 0.015625)" xlink:href="#DejaVuSans-114"/>
      <use transform="translate(402.539062 0.015625)" xlink:href="#DejaVuSans-121"/>
      <use transform="translate(461.71875 0.015625)" xlink:href="#DejaVuSans-32"/>
      <use transform="translate(493.505859 0.015625)" xlink:href="#DejaVuSans-50"/>
      <use transform="translate(557.128906 0.015625)" xlink:href="#DejaVuSans-46"/>
      <use transform="translate(588.916016 0.015625)" xlink:href="#DejaVuSans-52"/>
      <use transform="translate(652.539062 0.015625)" xlink:href="#DejaVuSans-32"/>
      <use transform="translate(684.326172 0.015625)" xlink:href="#DejaVuSans-100"/>
      <use transform="translate(747.802734 0.015625)" xlink:href="#DejaVuSans-97"/>
      <use transform="translate(809.082031 0.015625)" xlink:href="#DejaVuSans-121"/>
      <use transform="translate(868.261719 0.015625)" xlink:href="#DejaVuSans-115"/>
     </g>
     <!-- (all solid lines) -->
     <g transform="translate(92.024125 294.7785)scale(0.1 -0.1)">
      <use xlink:href="#DejaVuSans-40"/>
      <use x="39.013672" xlink:href="#DejaVuSans-97"/>
      <use x="100.292969" xlink:href="#DejaVuSans-108"/>
      <use x="128.076172" xlink:href="#DejaVuSans-108"/>
      <use x="155.859375" xlink:href="#DejaVuSans-32"/>
      <use x="187.646484" xlink:href="#DejaVuSans-115"/>
      <use x="239.746094" xlink:href="#DejaVuSans-111"/>
      <use x="300.927734" xlink:href="#DejaVuSans-108"/>
      <use x="328.710938" xlink:href="#DejaVuSans-105"/>
      <use x="356.494141" xlink:href="#DejaVuSans-100"/>
      <use x="419.970703" xlink:href="#DejaVuSans-32"/>
      <use x="451.757812" xlink:href="#DejaVuSans-108"/>
      <use x="479.541016" xlink:href="#DejaVuSans-105"/>
      <use x="507.324219" xlink:href="#DejaVuSans-110"/>
      <use x="570.703125" xlink:href="#DejaVuSans-101"/>
      <use x="632.226562" xlink:href="#DejaVuSans-115"/>
      <use x="684.326172" xlink:href="#DejaVuSans-41"/>
     </g>
    </g>
    <g id="line2d_57">
     <path d="M 64.024125 312.595375 
L 84.024125 312.595375 
" style="fill:none;stroke:#ff7f0e;stroke-dasharray:7.4,3.2;stroke-dashoffset:0;stroke-opacity:0.7;stroke-width:2;"/>
    </g>
    <g id="line2d_58"/>
    <g id="text_27">
     <!-- Est. health care saturation -->
     <defs>
      <path d="M 9.8125 72.90625 
L 55.90625 72.90625 
L 55.90625 64.59375 
L 19.671875 64.59375 
L 19.671875 43.015625 
L 54.390625 43.015625 
L 54.390625 34.71875 
L 19.671875 34.71875 
L 19.671875 8.296875 
L 56.78125 8.296875 
L 56.78125 0 
L 9.8125 0 
z
" id="DejaVuSans-69"/>
      <path d="M 54.890625 33.015625 
L 54.890625 0 
L 45.90625 0 
L 45.90625 32.71875 
Q 45.90625 40.484375 42.875 44.328125 
Q 39.84375 48.1875 33.796875 48.1875 
Q 26.515625 48.1875 22.3125 43.546875 
Q 18.109375 38.921875 18.109375 30.90625 
L 18.109375 0 
L 9.078125 0 
L 9.078125 75.984375 
L 18.109375 75.984375 
L 18.109375 46.1875 
Q 21.34375 51.125 25.703125 53.5625 
Q 30.078125 56 35.796875 56 
Q 45.21875 56 50.046875 50.171875 
Q 54.890625 44.34375 54.890625 33.015625 
z
" id="DejaVuSans-104"/>
     </defs>
     <g transform="translate(92.024125 309.456625)scale(0.1 -0.1)">
      <use xlink:href="#DejaVuSans-69"/>
      <use x="63.183594" xlink:href="#DejaVuSans-115"/>
      <use x="115.283203" xlink:href="#DejaVuSans-116"/>
      <use x="154.492188" xlink:href="#DejaVuSans-46"/>
      <use x="186.279297" xlink:href="#DejaVuSans-32"/>
      <use x="218.066406" xlink:href="#DejaVuSans-104"/>
      <use x="281.445312" xlink:href="#DejaVuSans-101"/>
      <use x="342.96875" xlink:href="#DejaVuSans-97"/>
      <use x="404.248047" xlink:href="#DejaVuSans-108"/>
      <use x="432.03125" xlink:href="#DejaVuSans-116"/>
      <use x="471.240234" xlink:href="#DejaVuSans-104"/>
      <use x="534.619141" xlink:href="#DejaVuSans-32"/>
      <use x="566.40625" xlink:href="#DejaVuSans-99"/>
      <use x="621.386719" xlink:href="#DejaVuSans-97"/>
      <use x="682.666016" xlink:href="#DejaVuSans-114"/>
      <use x="723.748047" xlink:href="#DejaVuSans-101"/>
      <use x="785.271484" xlink:href="#DejaVuSans-32"/>
      <use x="817.058594" xlink:href="#DejaVuSans-115"/>
      <use x="869.158203" xlink:href="#DejaVuSans-97"/>
      <use x="930.4375" xlink:href="#DejaVuSans-116"/>
      <use x="969.646484" xlink:href="#DejaVuSans-117"/>
      <use x="1033.025391" xlink:href="#DejaVuSans-114"/>
      <use x="1074.138672" xlink:href="#DejaVuSans-97"/>
      <use x="1135.417969" xlink:href="#DejaVuSans-116"/>
      <use x="1174.626953" xlink:href="#DejaVuSans-105"/>
      <use x="1202.410156" xlink:href="#DejaVuSans-111"/>
      <use x="1263.591797" xlink:href="#DejaVuSans-110"/>
     </g>
     <!-- (all dotted lines) -->
     <g transform="translate(92.024125 320.654438)scale(0.1 -0.1)">
      <use xlink:href="#DejaVuSans-40"/>
      <use x="39.013672" xlink:href="#DejaVuSans-97"/>
      <use x="100.292969" xlink:href="#DejaVuSans-108"/>
      <use x="128.076172" xlink:href="#DejaVuSans-108"/>
      <use x="155.859375" xlink:href="#DejaVuSans-32"/>
      <use x="187.646484" xlink:href="#DejaVuSans-100"/>
      <use x="251.123047" xlink:href="#DejaVuSans-111"/>
      <use x="312.304688" xlink:href="#DejaVuSans-116"/>
      <use x="351.513672" xlink:href="#DejaVuSans-116"/>
      <use x="390.722656" xlink:href="#DejaVuSans-101"/>
      <use x="452.246094" xlink:href="#DejaVuSans-100"/>
      <use x="515.722656" xlink:href="#DejaVuSans-32"/>
      <use x="547.509766" xlink:href="#DejaVuSans-108"/>
      <use x="575.292969" xlink:href="#DejaVuSans-105"/>
      <use x="603.076172" xlink:href="#DejaVuSans-110"/>
      <use x="666.455078" xlink:href="#DejaVuSans-101"/>
      <use x="727.978516" xlink:href="#DejaVuSans-115"/>
      <use x="780.078125" xlink:href="#DejaVuSans-41"/>
     </g>
    </g>
    <g id="line2d_59">
     <path d="M 244.716313 286.7085 
L 264.716313 286.7085 
" style="fill:none;stroke:#2ca02c;stroke-dasharray:12.8,3.2,2,3.2;stroke-dashoffset:0;stroke-opacity:0.7;stroke-width:2;"/>
    </g>
    <g id="line2d_60"/>
    <g id="text_28">
     <!-- Actual health -->
     <g transform="translate(272.716313 283.56975)scale(0.1 -0.1)">
      <use xlink:href="#DejaVuSans-65"/>
      <use x="68.392578" xlink:href="#DejaVuSans-99"/>
      <use x="123.373047" xlink:href="#DejaVuSans-116"/>
      <use x="162.582031" xlink:href="#DejaVuSans-117"/>
      <use x="225.960938" xlink:href="#DejaVuSans-97"/>
      <use x="287.240234" xlink:href="#DejaVuSans-108"/>
      <use x="315.023438" xlink:href="#DejaVuSans-32"/>
      <use x="346.810547" xlink:href="#DejaVuSans-104"/>
      <use x="410.189453" xlink:href="#DejaVuSans-101"/>
      <use x="471.712891" xlink:href="#DejaVuSans-97"/>
      <use x="532.992188" xlink:href="#DejaVuSans-108"/>
      <use x="560.775391" xlink:href="#DejaVuSans-116"/>
      <use x="599.984375" xlink:href="#DejaVuSans-104"/>
     </g>
     <!-- care saturation -->
     <g transform="translate(272.716313 294.767563)scale(0.1 -0.1)">
      <use xlink:href="#DejaVuSans-99"/>
      <use x="54.980469" xlink:href="#DejaVuSans-97"/>
      <use x="116.259766" xlink:href="#DejaVuSans-114"/>
      <use x="157.341797" xlink:href="#DejaVuSans-101"/>
      <use x="218.865234" xlink:href="#DejaVuSans-32"/>
      <use x="250.652344" xlink:href="#DejaVuSans-115"/>
      <use x="302.751953" xlink:href="#DejaVuSans-97"/>
      <use x="364.03125" xlink:href="#DejaVuSans-116"/>
      <use x="403.240234" xlink:href="#DejaVuSans-117"/>
      <use x="466.619141" xlink:href="#DejaVuSans-114"/>
      <use x="507.732422" xlink:href="#DejaVuSans-97"/>
      <use x="569.011719" xlink:href="#DejaVuSans-116"/>
      <use x="608.220703" xlink:href="#DejaVuSans-105"/>
      <use x="636.003906" xlink:href="#DejaVuSans-111"/>
      <use x="697.185547" xlink:href="#DejaVuSans-110"/>
     </g>
    </g>
    <g id="line2d_61">
     <path d="M 244.716313 312.584438 
L 264.716313 312.584438 
" style="fill:none;stroke:#ff7f0e;stroke-linecap:square;stroke-opacity:0.3;stroke-width:4;"/>
    </g>
    <g id="line2d_62"/>
    <g id="text_29">
     <!-- Started social -->
     <g transform="translate(272.716313 309.445688)scale(0.1 -0.1)">
      <use xlink:href="#DejaVuSans-83"/>
      <use x="63.476562" xlink:href="#DejaVuSans-116"/>
      <use x="102.685547" xlink:href="#DejaVuSans-97"/>
      <use x="163.964844" xlink:href="#DejaVuSans-114"/>
      <use x="205.078125" xlink:href="#DejaVuSans-116"/>
      <use x="244.287109" xlink:href="#DejaVuSans-101"/>
      <use x="305.810547" xlink:href="#DejaVuSans-100"/>
      <use x="369.287109" xlink:href="#DejaVuSans-32"/>
      <use x="401.074219" xlink:href="#DejaVuSans-115"/>
      <use x="453.173828" xlink:href="#DejaVuSans-111"/>
      <use x="514.355469" xlink:href="#DejaVuSans-99"/>
      <use x="569.335938" xlink:href="#DejaVuSans-105"/>
      <use x="597.119141" xlink:href="#DejaVuSans-97"/>
      <use x="658.398438" xlink:href="#DejaVuSans-108"/>
     </g>
     <!-- isolation (all bars) -->
     <g transform="translate(272.716313 320.6435)scale(0.1 -0.1)">
      <use xlink:href="#DejaVuSans-105"/>
      <use x="27.783203" xlink:href="#DejaVuSans-115"/>
      <use x="79.882812" xlink:href="#DejaVuSans-111"/>
      <use x="141.064453" xlink:href="#DejaVuSans-108"/>
      <use x="168.847656" xlink:href="#DejaVuSans-97"/>
      <use x="230.126953" xlink:href="#DejaVuSans-116"/>
      <use x="269.335938" xlink:href="#DejaVuSans-105"/>
      <use x="297.119141" xlink:href="#DejaVuSans-111"/>
      <use x="358.300781" xlink:href="#DejaVuSans-110"/>
      <use x="421.679688" xlink:href="#DejaVuSans-32"/>
      <use x="453.466797" xlink:href="#DejaVuSans-40"/>
      <use x="492.480469" xlink:href="#DejaVuSans-97"/>
      <use x="553.759766" xlink:href="#DejaVuSans-108"/>
      <use x="581.542969" xlink:href="#DejaVuSans-108"/>
      <use x="609.326172" xlink:href="#DejaVuSans-32"/>
      <use x="641.113281" xlink:href="#DejaVuSans-98"/>
      <use x="704.589844" xlink:href="#DejaVuSans-97"/>
      <use x="765.869141" xlink:href="#DejaVuSans-114"/>
      <use x="806.982422" xlink:href="#DejaVuSans-115"/>
      <use x="859.082031" xlink:href="#DejaVuSans-41"/>
     </g>
    </g>
   </g>
  </g>
 </g>
 <defs>
  <clipPath id="pe156f53f07">
   <rect height="217.44" width="334.8" x="53.328125" y="22.318125"/>
  </clipPath>
 </defs>
</svg>
