<?xml version="1.0" encoding="utf-8" standalone="no"?>
<!DOCTYPE svg PUBLIC "-//W3C//DTD SVG 1.1//EN"
  "http://www.w3.org/Graphics/SVG/1.1/DTD/svg11.dtd">
<!-- Created with matplotlib (https://matplotlib.org/) -->
<svg height="342.563944pt" version="1.1" viewBox="0 0 395.707591 342.563944" width="395.707591pt" xmlns="http://www.w3.org/2000/svg" xmlns:xlink="http://www.w3.org/1999/xlink">
 <defs>
  <style type="text/css">
*{stroke-linecap:butt;stroke-linejoin:round;}
  </style>
 </defs>
 <g id="figure_1">
  <g id="patch_1">
   <path d="M 0 342.563944 
L 395.707591 342.563944 
L 395.707591 0 
L 0 0 
z
" style="fill:#ffffff;"/>
  </g>
  <g id="axes_1">
   <g id="patch_2">
    <path d="M 53.328125 239.758125 
L 388.128125 239.758125 
L 388.128125 22.318125 
L 53.328125 22.318125 
z
" style="fill:#ffffff;"/>
   </g>
   <g id="line2d_1">
    <path clip-path="url(#pa5c182d705)" d="M 65.041714 343.563944 
L 65.512206 342.715675 
L 69.573566 335.393287 
L 73.634927 328.070899 
L 77.696287 320.748511 
L 81.757647 313.426123 
L 85.819008 306.103736 
L 89.880368 298.781348 
L 93.941728 291.45896 
L 98.003089 284.136572 
L 102.064449 276.814184 
L 106.125809 269.491796 
L 110.18717 262.169409 
L 114.24853 254.847021 
L 118.30989 247.524633 
L 122.371251 240.202245 
L 126.432611 232.879857 
L 130.493972 225.557469 
L 134.555332 218.235082 
L 138.616692 210.912694 
L 142.678053 203.590306 
L 146.739413 196.267918 
L 150.800773 188.94553 
L 154.862134 181.623143 
L 158.923494 174.300755 
L 162.984854 166.978367 
L 167.046215 159.655979 
L 171.107575 152.333591 
L 175.168935 145.011203 
L 179.230296 137.688816 
L 183.291656 130.366428 
L 187.353016 123.04404 
L 191.414377 115.721652 
L 195.475737 108.399264 
L 199.537097 101.076876 
L 203.598458 93.754489 
L 207.659818 86.432101 
L 211.721178 79.109713 
L 215.782539 71.787325 
L 219.843899 64.464937 
L 223.905259 57.142549 
L 227.96662 49.820162 
L 232.02798 42.497774 
L 236.08934 35.175386 
L 240.150701 27.852998 
" style="fill:none;stroke:#ff7f0e;stroke-linecap:square;stroke-opacity:0.7;stroke-width:1.5;"/>
   </g>
   <g id="line2d_2">
    <path clip-path="url(#pa5c182d705)" d="M 59.055477 343.563944 
L 61.450846 339.245239 
L 65.512206 331.922852 
L 69.573566 324.600464 
L 73.634927 317.278076 
L 77.696287 309.955688 
L 81.757647 302.6333 
L 85.819008 295.310912 
L 89.880368 287.988525 
L 93.941728 280.666137 
L 98.003089 273.343749 
L 102.064449 266.021361 
L 106.125809 258.698973 
L 110.18717 251.376585 
L 114.24853 244.054198 
L 118.30989 236.73181 
L 122.371251 229.409422 
L 126.432611 222.087034 
L 130.493972 214.764646 
L 134.555332 207.442258 
L 138.616692 200.119871 
L 142.678053 192.797483 
L 146.739413 185.475095 
L 150.800773 178.152707 
L 154.862134 170.830319 
L 158.923494 163.507932 
L 162.984854 156.185544 
L 167.046215 148.863156 
L 171.107575 141.540768 
L 175.168935 134.21838 
L 179.230296 126.895992 
L 183.291656 119.573605 
L 187.353016 112.251217 
L 191.414377 104.928829 
L 195.475737 97.606441 
L 199.537097 90.284053 
L 203.598458 82.961665 
L 207.659818 75.639278 
L 211.721178 68.31689 
L 215.782539 60.994502 
L 219.843899 53.672114 
L 223.905259 46.349726 
L 227.96662 39.027338 
L 232.02798 31.704951 
L 236.08934 24.382563 
L 240.150701 17.060175 
" style="fill:none;stroke:#1f77b4;stroke-linecap:square;stroke-opacity:0.7;stroke-width:1.5;"/>
   </g>
   <g id="line2d_3">
    <path clip-path="url(#pa5c182d705)" d="M 41.144044 270.47418 
L 45.205404 263.151792 
L 49.266765 255.829404 
L 53.328125 248.507016 
L 57.389485 241.184629 
L 61.450846 233.862241 
L 65.512206 226.539853 
L 69.573566 219.217465 
L 73.634927 211.895077 
L 77.696287 204.572689 
L 81.757647 197.250302 
L 85.819008 189.927914 
L 89.880368 182.605526 
L 93.941728 175.283138 
L 98.003089 167.96075 
L 102.064449 160.638362 
L 106.125809 153.315975 
L 110.18717 145.993587 
L 114.24853 138.671199 
L 118.30989 131.348811 
L 122.371251 124.026423 
L 126.432611 116.704035 
L 130.493972 109.381648 
L 134.555332 102.05926 
L 138.616692 94.736872 
L 142.678053 87.414484 
L 146.739413 80.092096 
L 150.800773 72.769709 
L 154.862134 65.447321 
L 158.923494 58.124933 
L 162.984854 50.802545 
L 167.046215 43.480157 
L 171.107575 36.157769 
L 175.168935 28.835382 
L 179.230296 21.512994 
L 183.291656 14.190606 
L 187.353016 6.868218 
L 191.414377 -0.45417 
L 191.717121 -1 
" style="fill:none;stroke:#2ca02c;stroke-linecap:square;stroke-opacity:0.7;stroke-width:1.5;"/>
   </g>
   <g id="matplotlib.axis_1">
    <g id="xtick_1">
     <g id="line2d_4">
      <path clip-path="url(#pa5c182d705)" d="M 73.634927 239.758125 
L 73.634927 22.318125 
" style="fill:none;stroke:#b0b0b0;stroke-linecap:square;stroke-opacity:0.8;stroke-width:0.8;"/>
     </g>
     <g id="line2d_5">
      <defs>
       <path d="M 0 0 
L 0 3.5 
" id="m48d6481be3" style="stroke:#000000;stroke-width:0.8;"/>
      </defs>
      <g>
       <use style="stroke:#000000;stroke-width:0.8;" x="73.634927" xlink:href="#m48d6481be3" y="239.758125"/>
      </g>
     </g>
     <g id="text_1">
      <!-- Feb. -->
      <defs>
       <path d="M 9.8125 72.90625 
L 51.703125 72.90625 
L 51.703125 64.59375 
L 19.671875 64.59375 
L 19.671875 43.109375 
L 48.578125 43.109375 
L 48.578125 34.8125 
L 19.671875 34.8125 
L 19.671875 0 
L 9.8125 0 
z
" id="DejaVuSans-70"/>
       <path d="M 56.203125 29.59375 
L 56.203125 25.203125 
L 14.890625 25.203125 
Q 15.484375 15.921875 20.484375 11.0625 
Q 25.484375 6.203125 34.421875 6.203125 
Q 39.59375 6.203125 44.453125 7.46875 
Q 49.3125 8.734375 54.109375 11.28125 
L 54.109375 2.78125 
Q 49.265625 0.734375 44.1875 -0.34375 
Q 39.109375 -1.421875 33.890625 -1.421875 
Q 20.796875 -1.421875 13.15625 6.1875 
Q 5.515625 13.8125 5.515625 26.8125 
Q 5.515625 40.234375 12.765625 48.109375 
Q 20.015625 56 32.328125 56 
Q 43.359375 56 49.78125 48.890625 
Q 56.203125 41.796875 56.203125 29.59375 
z
M 47.21875 32.234375 
Q 47.125 39.59375 43.09375 43.984375 
Q 39.0625 48.390625 32.421875 48.390625 
Q 24.90625 48.390625 20.390625 44.140625 
Q 15.875 39.890625 15.1875 32.171875 
z
" id="DejaVuSans-101"/>
       <path d="M 48.6875 27.296875 
Q 48.6875 37.203125 44.609375 42.84375 
Q 40.53125 48.484375 33.40625 48.484375 
Q 26.265625 48.484375 22.1875 42.84375 
Q 18.109375 37.203125 18.109375 27.296875 
Q 18.109375 17.390625 22.1875 11.75 
Q 26.265625 6.109375 33.40625 6.109375 
Q 40.53125 6.109375 44.609375 11.75 
Q 48.6875 17.390625 48.6875 27.296875 
z
M 18.109375 46.390625 
Q 20.953125 51.265625 25.265625 53.625 
Q 29.59375 56 35.59375 56 
Q 45.5625 56 51.78125 48.09375 
Q 58.015625 40.1875 58.015625 27.296875 
Q 58.015625 14.40625 51.78125 6.484375 
Q 45.5625 -1.421875 35.59375 -1.421875 
Q 29.59375 -1.421875 25.265625 0.953125 
Q 20.953125 3.328125 18.109375 8.203125 
L 18.109375 0 
L 9.078125 0 
L 9.078125 75.984375 
L 18.109375 75.984375 
z
" id="DejaVuSans-98"/>
       <path d="M 10.6875 12.40625 
L 21 12.40625 
L 21 0 
L 10.6875 0 
z
" id="DejaVuSans-46"/>
      </defs>
      <g transform="translate(62.923208 254.356562)scale(0.1 -0.1)">
       <use xlink:href="#DejaVuSans-70"/>
       <use x="57.441406" xlink:href="#DejaVuSans-101"/>
       <use x="118.964844" xlink:href="#DejaVuSans-98"/>
       <use x="182.441406" xlink:href="#DejaVuSans-46"/>
      </g>
      <!-- 23 -->
      <defs>
       <path d="M 19.1875 8.296875 
L 53.609375 8.296875 
L 53.609375 0 
L 7.328125 0 
L 7.328125 8.296875 
Q 12.9375 14.109375 22.625 23.890625 
Q 32.328125 33.6875 34.8125 36.53125 
Q 39.546875 41.84375 41.421875 45.53125 
Q 43.3125 49.21875 43.3125 52.78125 
Q 43.3125 58.59375 39.234375 62.25 
Q 35.15625 65.921875 28.609375 65.921875 
Q 23.96875 65.921875 18.8125 64.3125 
Q 13.671875 62.703125 7.8125 59.421875 
L 7.8125 69.390625 
Q 13.765625 71.78125 18.9375 73 
Q 24.125 74.21875 28.421875 74.21875 
Q 39.75 74.21875 46.484375 68.546875 
Q 53.21875 62.890625 53.21875 53.421875 
Q 53.21875 48.921875 51.53125 44.890625 
Q 49.859375 40.875 45.40625 35.40625 
Q 44.1875 33.984375 37.640625 27.21875 
Q 31.109375 20.453125 19.1875 8.296875 
z
" id="DejaVuSans-50"/>
       <path d="M 40.578125 39.3125 
Q 47.65625 37.796875 51.625 33 
Q 55.609375 28.21875 55.609375 21.1875 
Q 55.609375 10.40625 48.1875 4.484375 
Q 40.765625 -1.421875 27.09375 -1.421875 
Q 22.515625 -1.421875 17.65625 -0.515625 
Q 12.796875 0.390625 7.625 2.203125 
L 7.625 11.71875 
Q 11.71875 9.328125 16.59375 8.109375 
Q 21.484375 6.890625 26.8125 6.890625 
Q 36.078125 6.890625 40.9375 10.546875 
Q 45.796875 14.203125 45.796875 21.1875 
Q 45.796875 27.640625 41.28125 31.265625 
Q 36.765625 34.90625 28.71875 34.90625 
L 20.21875 34.90625 
L 20.21875 43.015625 
L 29.109375 43.015625 
Q 36.375 43.015625 40.234375 45.921875 
Q 44.09375 48.828125 44.09375 54.296875 
Q 44.09375 59.90625 40.109375 62.90625 
Q 36.140625 65.921875 28.71875 65.921875 
Q 24.65625 65.921875 20.015625 65.03125 
Q 15.375 64.15625 9.8125 62.3125 
L 9.8125 71.09375 
Q 15.4375 72.65625 20.34375 73.4375 
Q 25.25 74.21875 29.59375 74.21875 
Q 40.828125 74.21875 47.359375 69.109375 
Q 53.90625 64.015625 53.90625 55.328125 
Q 53.90625 49.265625 50.4375 45.09375 
Q 46.96875 40.921875 40.578125 39.3125 
z
" id="DejaVuSans-51"/>
      </defs>
      <g transform="translate(67.272427 265.554375)scale(0.1 -0.1)">
       <use xlink:href="#DejaVuSans-50"/>
       <use x="63.623047" xlink:href="#DejaVuSans-51"/>
      </g>
     </g>
    </g>
    <g id="xtick_2">
     <g id="line2d_6">
      <path clip-path="url(#pa5c182d705)" d="M 102.064449 239.758125 
L 102.064449 22.318125 
" style="fill:none;stroke:#b0b0b0;stroke-linecap:square;stroke-opacity:0.8;stroke-width:0.8;"/>
     </g>
     <g id="line2d_7">
      <g>
       <use style="stroke:#000000;stroke-width:0.8;" x="102.064449" xlink:href="#m48d6481be3" y="239.758125"/>
      </g>
     </g>
     <g id="text_2">
      <!-- Mar. -->
      <defs>
       <path d="M 9.8125 72.90625 
L 24.515625 72.90625 
L 43.109375 23.296875 
L 61.8125 72.90625 
L 76.515625 72.90625 
L 76.515625 0 
L 66.890625 0 
L 66.890625 64.015625 
L 48.09375 14.015625 
L 38.1875 14.015625 
L 19.390625 64.015625 
L 19.390625 0 
L 9.8125 0 
z
" id="DejaVuSans-77"/>
       <path d="M 34.28125 27.484375 
Q 23.390625 27.484375 19.1875 25 
Q 14.984375 22.515625 14.984375 16.5 
Q 14.984375 11.71875 18.140625 8.90625 
Q 21.296875 6.109375 26.703125 6.109375 
Q 34.1875 6.109375 38.703125 11.40625 
Q 43.21875 16.703125 43.21875 25.484375 
L 43.21875 27.484375 
z
M 52.203125 31.203125 
L 52.203125 0 
L 43.21875 0 
L 43.21875 8.296875 
Q 40.140625 3.328125 35.546875 0.953125 
Q 30.953125 -1.421875 24.3125 -1.421875 
Q 15.921875 -1.421875 10.953125 3.296875 
Q 6 8.015625 6 15.921875 
Q 6 25.140625 12.171875 29.828125 
Q 18.359375 34.515625 30.609375 34.515625 
L 43.21875 34.515625 
L 43.21875 35.40625 
Q 43.21875 41.609375 39.140625 45 
Q 35.0625 48.390625 27.6875 48.390625 
Q 23 48.390625 18.546875 47.265625 
Q 14.109375 46.140625 10.015625 43.890625 
L 10.015625 52.203125 
Q 14.9375 54.109375 19.578125 55.046875 
Q 24.21875 56 28.609375 56 
Q 40.484375 56 46.34375 49.84375 
Q 52.203125 43.703125 52.203125 31.203125 
z
" id="DejaVuSans-97"/>
       <path d="M 41.109375 46.296875 
Q 39.59375 47.171875 37.8125 47.578125 
Q 36.03125 48 33.890625 48 
Q 26.265625 48 22.1875 43.046875 
Q 18.109375 38.09375 18.109375 28.8125 
L 18.109375 0 
L 9.078125 0 
L 9.078125 54.6875 
L 18.109375 54.6875 
L 18.109375 46.1875 
Q 20.953125 51.171875 25.484375 53.578125 
Q 30.03125 56 36.53125 56 
Q 37.453125 56 38.578125 55.875 
Q 39.703125 55.765625 41.0625 55.515625 
z
" id="DejaVuSans-114"/>
      </defs>
      <g transform="translate(91.048824 254.356562)scale(0.1 -0.1)">
       <use xlink:href="#DejaVuSans-77"/>
       <use x="86.279297" xlink:href="#DejaVuSans-97"/>
       <use x="147.558594" xlink:href="#DejaVuSans-114"/>
       <use x="188.53125" xlink:href="#DejaVuSans-46"/>
      </g>
      <!-- 01 -->
      <defs>
       <path d="M 31.78125 66.40625 
Q 24.171875 66.40625 20.328125 58.90625 
Q 16.5 51.421875 16.5 36.375 
Q 16.5 21.390625 20.328125 13.890625 
Q 24.171875 6.390625 31.78125 6.390625 
Q 39.453125 6.390625 43.28125 13.890625 
Q 47.125 21.390625 47.125 36.375 
Q 47.125 51.421875 43.28125 58.90625 
Q 39.453125 66.40625 31.78125 66.40625 
z
M 31.78125 74.21875 
Q 44.046875 74.21875 50.515625 64.515625 
Q 56.984375 54.828125 56.984375 36.375 
Q 56.984375 17.96875 50.515625 8.265625 
Q 44.046875 -1.421875 31.78125 -1.421875 
Q 19.53125 -1.421875 13.0625 8.265625 
Q 6.59375 17.96875 6.59375 36.375 
Q 6.59375 54.828125 13.0625 64.515625 
Q 19.53125 74.21875 31.78125 74.21875 
z
" id="DejaVuSans-48"/>
       <path d="M 12.40625 8.296875 
L 28.515625 8.296875 
L 28.515625 63.921875 
L 10.984375 60.40625 
L 10.984375 69.390625 
L 28.421875 72.90625 
L 38.28125 72.90625 
L 38.28125 8.296875 
L 54.390625 8.296875 
L 54.390625 0 
L 12.40625 0 
z
" id="DejaVuSans-49"/>
      </defs>
      <g transform="translate(95.701949 265.554375)scale(0.1 -0.1)">
       <use xlink:href="#DejaVuSans-48"/>
       <use x="63.623047" xlink:href="#DejaVuSans-49"/>
      </g>
     </g>
    </g>
    <g id="xtick_3">
     <g id="line2d_8">
      <path clip-path="url(#pa5c182d705)" d="M 130.493972 239.758125 
L 130.493972 22.318125 
" style="fill:none;stroke:#b0b0b0;stroke-linecap:square;stroke-opacity:0.8;stroke-width:0.8;"/>
     </g>
     <g id="line2d_9">
      <g>
       <use style="stroke:#000000;stroke-width:0.8;" x="130.493972" xlink:href="#m48d6481be3" y="239.758125"/>
      </g>
     </g>
     <g id="text_3">
      <!-- Mar. -->
      <g transform="translate(119.478347 254.356562)scale(0.1 -0.1)">
       <use xlink:href="#DejaVuSans-77"/>
       <use x="86.279297" xlink:href="#DejaVuSans-97"/>
       <use x="147.558594" xlink:href="#DejaVuSans-114"/>
       <use x="188.53125" xlink:href="#DejaVuSans-46"/>
      </g>
      <!-- 08 -->
      <defs>
       <path d="M 31.78125 34.625 
Q 24.75 34.625 20.71875 30.859375 
Q 16.703125 27.09375 16.703125 20.515625 
Q 16.703125 13.921875 20.71875 10.15625 
Q 24.75 6.390625 31.78125 6.390625 
Q 38.8125 6.390625 42.859375 10.171875 
Q 46.921875 13.96875 46.921875 20.515625 
Q 46.921875 27.09375 42.890625 30.859375 
Q 38.875 34.625 31.78125 34.625 
z
M 21.921875 38.8125 
Q 15.578125 40.375 12.03125 44.71875 
Q 8.5 49.078125 8.5 55.328125 
Q 8.5 64.0625 14.71875 69.140625 
Q 20.953125 74.21875 31.78125 74.21875 
Q 42.671875 74.21875 48.875 69.140625 
Q 55.078125 64.0625 55.078125 55.328125 
Q 55.078125 49.078125 51.53125 44.71875 
Q 48 40.375 41.703125 38.8125 
Q 48.828125 37.15625 52.796875 32.3125 
Q 56.78125 27.484375 56.78125 20.515625 
Q 56.78125 9.90625 50.3125 4.234375 
Q 43.84375 -1.421875 31.78125 -1.421875 
Q 19.734375 -1.421875 13.25 4.234375 
Q 6.78125 9.90625 6.78125 20.515625 
Q 6.78125 27.484375 10.78125 32.3125 
Q 14.796875 37.15625 21.921875 38.8125 
z
M 18.3125 54.390625 
Q 18.3125 48.734375 21.84375 45.5625 
Q 25.390625 42.390625 31.78125 42.390625 
Q 38.140625 42.390625 41.71875 45.5625 
Q 45.3125 48.734375 45.3125 54.390625 
Q 45.3125 60.0625 41.71875 63.234375 
Q 38.140625 66.40625 31.78125 66.40625 
Q 25.390625 66.40625 21.84375 63.234375 
Q 18.3125 60.0625 18.3125 54.390625 
z
" id="DejaVuSans-56"/>
      </defs>
      <g transform="translate(124.131472 265.554375)scale(0.1 -0.1)">
       <use xlink:href="#DejaVuSans-48"/>
       <use x="63.623047" xlink:href="#DejaVuSans-56"/>
      </g>
     </g>
    </g>
    <g id="xtick_4">
     <g id="line2d_10">
      <path clip-path="url(#pa5c182d705)" d="M 158.923494 239.758125 
L 158.923494 22.318125 
" style="fill:none;stroke:#b0b0b0;stroke-linecap:square;stroke-opacity:0.8;stroke-width:0.8;"/>
     </g>
     <g id="line2d_11">
      <g>
       <use style="stroke:#000000;stroke-width:0.8;" x="158.923494" xlink:href="#m48d6481be3" y="239.758125"/>
      </g>
     </g>
     <g id="text_4">
      <!-- Mar. -->
      <g transform="translate(147.907869 254.356562)scale(0.1 -0.1)">
       <use xlink:href="#DejaVuSans-77"/>
       <use x="86.279297" xlink:href="#DejaVuSans-97"/>
       <use x="147.558594" xlink:href="#DejaVuSans-114"/>
       <use x="188.53125" xlink:href="#DejaVuSans-46"/>
      </g>
      <!-- 15 -->
      <defs>
       <path d="M 10.796875 72.90625 
L 49.515625 72.90625 
L 49.515625 64.59375 
L 19.828125 64.59375 
L 19.828125 46.734375 
Q 21.96875 47.46875 24.109375 47.828125 
Q 26.265625 48.1875 28.421875 48.1875 
Q 40.625 48.1875 47.75 41.5 
Q 54.890625 34.8125 54.890625 23.390625 
Q 54.890625 11.625 47.5625 5.09375 
Q 40.234375 -1.421875 26.90625 -1.421875 
Q 22.3125 -1.421875 17.546875 -0.640625 
Q 12.796875 0.140625 7.71875 1.703125 
L 7.71875 11.625 
Q 12.109375 9.234375 16.796875 8.0625 
Q 21.484375 6.890625 26.703125 6.890625 
Q 35.15625 6.890625 40.078125 11.328125 
Q 45.015625 15.765625 45.015625 23.390625 
Q 45.015625 31 40.078125 35.4375 
Q 35.15625 39.890625 26.703125 39.890625 
Q 22.75 39.890625 18.8125 39.015625 
Q 14.890625 38.140625 10.796875 36.28125 
z
" id="DejaVuSans-53"/>
      </defs>
      <g transform="translate(152.560994 265.554375)scale(0.1 -0.1)">
       <use xlink:href="#DejaVuSans-49"/>
       <use x="63.623047" xlink:href="#DejaVuSans-53"/>
      </g>
     </g>
    </g>
    <g id="xtick_5">
     <g id="line2d_12">
      <path clip-path="url(#pa5c182d705)" d="M 187.353016 239.758125 
L 187.353016 22.318125 
" style="fill:none;stroke:#b0b0b0;stroke-linecap:square;stroke-opacity:0.8;stroke-width:0.8;"/>
     </g>
     <g id="line2d_13">
      <g>
       <use style="stroke:#000000;stroke-width:0.8;" x="187.353016" xlink:href="#m48d6481be3" y="239.758125"/>
      </g>
     </g>
     <g id="text_5">
      <!-- Mar. -->
      <g transform="translate(176.337391 254.356562)scale(0.1 -0.1)">
       <use xlink:href="#DejaVuSans-77"/>
       <use x="86.279297" xlink:href="#DejaVuSans-97"/>
       <use x="147.558594" xlink:href="#DejaVuSans-114"/>
       <use x="188.53125" xlink:href="#DejaVuSans-46"/>
      </g>
      <!-- 22 -->
      <g transform="translate(180.990516 265.554375)scale(0.1 -0.1)">
       <use xlink:href="#DejaVuSans-50"/>
       <use x="63.623047" xlink:href="#DejaVuSans-50"/>
      </g>
     </g>
    </g>
    <g id="xtick_6">
     <g id="line2d_14">
      <path clip-path="url(#pa5c182d705)" d="M 215.782539 239.758125 
L 215.782539 22.318125 
" style="fill:none;stroke:#b0b0b0;stroke-linecap:square;stroke-opacity:0.8;stroke-width:0.8;"/>
     </g>
     <g id="line2d_15">
      <g>
       <use style="stroke:#000000;stroke-width:0.8;" x="215.782539" xlink:href="#m48d6481be3" y="239.758125"/>
      </g>
     </g>
     <g id="text_6">
      <!-- Mar. -->
      <g transform="translate(204.766914 254.356562)scale(0.1 -0.1)">
       <use xlink:href="#DejaVuSans-77"/>
       <use x="86.279297" xlink:href="#DejaVuSans-97"/>
       <use x="147.558594" xlink:href="#DejaVuSans-114"/>
       <use x="188.53125" xlink:href="#DejaVuSans-46"/>
      </g>
      <!-- 29 -->
      <defs>
       <path d="M 10.984375 1.515625 
L 10.984375 10.5 
Q 14.703125 8.734375 18.5 7.8125 
Q 22.3125 6.890625 25.984375 6.890625 
Q 35.75 6.890625 40.890625 13.453125 
Q 46.046875 20.015625 46.78125 33.40625 
Q 43.953125 29.203125 39.59375 26.953125 
Q 35.25 24.703125 29.984375 24.703125 
Q 19.046875 24.703125 12.671875 31.3125 
Q 6.296875 37.9375 6.296875 49.421875 
Q 6.296875 60.640625 12.9375 67.421875 
Q 19.578125 74.21875 30.609375 74.21875 
Q 43.265625 74.21875 49.921875 64.515625 
Q 56.59375 54.828125 56.59375 36.375 
Q 56.59375 19.140625 48.40625 8.859375 
Q 40.234375 -1.421875 26.421875 -1.421875 
Q 22.703125 -1.421875 18.890625 -0.6875 
Q 15.09375 0.046875 10.984375 1.515625 
z
M 30.609375 32.421875 
Q 37.25 32.421875 41.125 36.953125 
Q 45.015625 41.5 45.015625 49.421875 
Q 45.015625 57.28125 41.125 61.84375 
Q 37.25 66.40625 30.609375 66.40625 
Q 23.96875 66.40625 20.09375 61.84375 
Q 16.21875 57.28125 16.21875 49.421875 
Q 16.21875 41.5 20.09375 36.953125 
Q 23.96875 32.421875 30.609375 32.421875 
z
" id="DejaVuSans-57"/>
      </defs>
      <g transform="translate(209.420039 265.554375)scale(0.1 -0.1)">
       <use xlink:href="#DejaVuSans-50"/>
       <use x="63.623047" xlink:href="#DejaVuSans-57"/>
      </g>
     </g>
    </g>
    <g id="xtick_7">
     <g id="line2d_16">
      <path clip-path="url(#pa5c182d705)" d="M 244.212061 239.758125 
L 244.212061 22.318125 
" style="fill:none;stroke:#b0b0b0;stroke-linecap:square;stroke-opacity:0.8;stroke-width:0.8;"/>
     </g>
     <g id="line2d_17">
      <g>
       <use style="stroke:#000000;stroke-width:0.8;" x="244.212061" xlink:href="#m48d6481be3" y="239.758125"/>
      </g>
     </g>
     <g id="text_7">
      <!-- Apr. -->
      <defs>
       <path d="M 34.1875 63.1875 
L 20.796875 26.90625 
L 47.609375 26.90625 
z
M 28.609375 72.90625 
L 39.796875 72.90625 
L 67.578125 0 
L 57.328125 0 
L 50.6875 18.703125 
L 17.828125 18.703125 
L 11.1875 0 
L 0.78125 0 
z
" id="DejaVuSans-65"/>
       <path d="M 18.109375 8.203125 
L 18.109375 -20.796875 
L 9.078125 -20.796875 
L 9.078125 54.6875 
L 18.109375 54.6875 
L 18.109375 46.390625 
Q 20.953125 51.265625 25.265625 53.625 
Q 29.59375 56 35.59375 56 
Q 45.5625 56 51.78125 48.09375 
Q 58.015625 40.1875 58.015625 27.296875 
Q 58.015625 14.40625 51.78125 6.484375 
Q 45.5625 -1.421875 35.59375 -1.421875 
Q 29.59375 -1.421875 25.265625 0.953125 
Q 20.953125 3.328125 18.109375 8.203125 
z
M 48.6875 27.296875 
Q 48.6875 37.203125 44.609375 42.84375 
Q 40.53125 48.484375 33.40625 48.484375 
Q 26.265625 48.484375 22.1875 42.84375 
Q 18.109375 37.203125 18.109375 27.296875 
Q 18.109375 17.390625 22.1875 11.75 
Q 26.265625 6.109375 33.40625 6.109375 
Q 40.53125 6.109375 44.609375 11.75 
Q 48.6875 17.390625 48.6875 27.296875 
z
" id="DejaVuSans-112"/>
      </defs>
      <g transform="translate(233.98003 254.356562)scale(0.1 -0.1)">
       <use xlink:href="#DejaVuSans-65"/>
       <use x="68.408203" xlink:href="#DejaVuSans-112"/>
       <use x="131.884766" xlink:href="#DejaVuSans-114"/>
       <use x="172.857422" xlink:href="#DejaVuSans-46"/>
      </g>
      <!-- 05 -->
      <g transform="translate(237.849561 265.554375)scale(0.1 -0.1)">
       <use xlink:href="#DejaVuSans-48"/>
       <use x="63.623047" xlink:href="#DejaVuSans-53"/>
      </g>
     </g>
    </g>
    <g id="xtick_8">
     <g id="line2d_18">
      <path clip-path="url(#pa5c182d705)" d="M 272.641583 239.758125 
L 272.641583 22.318125 
" style="fill:none;stroke:#b0b0b0;stroke-linecap:square;stroke-opacity:0.8;stroke-width:0.8;"/>
     </g>
     <g id="line2d_19">
      <g>
       <use style="stroke:#000000;stroke-width:0.8;" x="272.641583" xlink:href="#m48d6481be3" y="239.758125"/>
      </g>
     </g>
     <g id="text_8">
      <!-- Apr. -->
      <g transform="translate(262.409552 254.356562)scale(0.1 -0.1)">
       <use xlink:href="#DejaVuSans-65"/>
       <use x="68.408203" xlink:href="#DejaVuSans-112"/>
       <use x="131.884766" xlink:href="#DejaVuSans-114"/>
       <use x="172.857422" xlink:href="#DejaVuSans-46"/>
      </g>
      <!-- 12 -->
      <g transform="translate(266.279083 265.554375)scale(0.1 -0.1)">
       <use xlink:href="#DejaVuSans-49"/>
       <use x="63.623047" xlink:href="#DejaVuSans-50"/>
      </g>
     </g>
    </g>
   </g>
   <g id="matplotlib.axis_2">
    <g id="ytick_1">
     <g id="line2d_20">
      <path clip-path="url(#pa5c182d705)" d="M 53.328125 239.758125 
L 388.128125 239.758125 
" style="fill:none;stroke:#b0b0b0;stroke-linecap:square;stroke-opacity:0.8;"/>
     </g>
     <g id="line2d_21">
      <defs>
       <path d="M 0 0 
L -3.5 0 
" id="mce349b1baa" style="stroke:#000000;stroke-width:0.8;"/>
      </defs>
      <g>
       <use style="stroke:#000000;stroke-width:0.8;" x="53.328125" xlink:href="#mce349b1baa" y="239.758125"/>
      </g>
     </g>
     <g id="text_9">
      <!-- 1 -->
      <g transform="translate(39.965625 243.557344)scale(0.1 -0.1)">
       <use xlink:href="#DejaVuSans-49"/>
      </g>
     </g>
    </g>
    <g id="ytick_2">
     <g id="line2d_22">
      <path clip-path="url(#pa5c182d705)" d="M 53.328125 181.379455 
L 388.128125 181.379455 
" style="fill:none;stroke:#b0b0b0;stroke-linecap:square;stroke-opacity:0.8;"/>
     </g>
     <g id="line2d_23">
      <g>
       <use style="stroke:#000000;stroke-width:0.8;" x="53.328125" xlink:href="#mce349b1baa" y="181.379455"/>
      </g>
     </g>
     <g id="text_10">
      <!-- 10 -->
      <g transform="translate(33.603125 185.178674)scale(0.1 -0.1)">
       <use xlink:href="#DejaVuSans-49"/>
       <use x="63.623047" xlink:href="#DejaVuSans-48"/>
      </g>
     </g>
    </g>
    <g id="ytick_3">
     <g id="line2d_24">
      <path clip-path="url(#pa5c182d705)" d="M 53.328125 123.000785 
L 388.128125 123.000785 
" style="fill:none;stroke:#b0b0b0;stroke-linecap:square;stroke-opacity:0.8;"/>
     </g>
     <g id="line2d_25">
      <g>
       <use style="stroke:#000000;stroke-width:0.8;" x="53.328125" xlink:href="#mce349b1baa" y="123.000785"/>
      </g>
     </g>
     <g id="text_11">
      <!-- 100 -->
      <g transform="translate(27.240625 126.800004)scale(0.1 -0.1)">
       <use xlink:href="#DejaVuSans-49"/>
       <use x="63.623047" xlink:href="#DejaVuSans-48"/>
       <use x="127.246094" xlink:href="#DejaVuSans-48"/>
      </g>
     </g>
    </g>
    <g id="ytick_4">
     <g id="line2d_26">
      <path clip-path="url(#pa5c182d705)" d="M 53.328125 64.622115 
L 388.128125 64.622115 
" style="fill:none;stroke:#b0b0b0;stroke-linecap:square;stroke-opacity:0.8;"/>
     </g>
     <g id="line2d_27">
      <g>
       <use style="stroke:#000000;stroke-width:0.8;" x="53.328125" xlink:href="#mce349b1baa" y="64.622115"/>
      </g>
     </g>
     <g id="text_12">
      <!-- 1000 -->
      <g transform="translate(20.878125 68.421334)scale(0.1 -0.1)">
       <use xlink:href="#DejaVuSans-49"/>
       <use x="63.623047" xlink:href="#DejaVuSans-48"/>
       <use x="127.246094" xlink:href="#DejaVuSans-48"/>
       <use x="190.869141" xlink:href="#DejaVuSans-48"/>
      </g>
     </g>
    </g>
    <g id="ytick_5">
     <g id="line2d_28">
      <path clip-path="url(#pa5c182d705)" d="M 53.328125 222.184394 
L 388.128125 222.184394 
" style="fill:none;stroke:#b0b0b0;stroke-linecap:square;stroke-opacity:0.3;stroke-width:0.8;"/>
     </g>
     <g id="line2d_29">
      <defs>
       <path d="M 0 0 
L -2 0 
" id="m2b09ca6e7a" style="stroke:#000000;stroke-width:0.6;"/>
      </defs>
      <g>
       <use style="stroke:#000000;stroke-width:0.6;" x="53.328125" xlink:href="#m2b09ca6e7a" y="222.184394"/>
      </g>
     </g>
     <g id="text_13">
      <!-- 2 -->
      <g transform="translate(41.565625 225.983613)scale(0.1 -0.1)">
       <use xlink:href="#DejaVuSans-50"/>
      </g>
     </g>
    </g>
    <g id="ytick_6">
     <g id="line2d_30">
      <path clip-path="url(#pa5c182d705)" d="M 53.328125 198.953186 
L 388.128125 198.953186 
" style="fill:none;stroke:#b0b0b0;stroke-linecap:square;stroke-opacity:0.3;stroke-width:0.8;"/>
     </g>
     <g id="line2d_31">
      <g>
       <use style="stroke:#000000;stroke-width:0.6;" x="53.328125" xlink:href="#m2b09ca6e7a" y="198.953186"/>
      </g>
     </g>
     <g id="text_14">
      <!-- 5 -->
      <g transform="translate(41.565625 202.752404)scale(0.1 -0.1)">
       <use xlink:href="#DejaVuSans-53"/>
      </g>
     </g>
    </g>
    <g id="ytick_7">
     <g id="line2d_32">
      <path clip-path="url(#pa5c182d705)" d="M 53.328125 163.805724 
L 388.128125 163.805724 
" style="fill:none;stroke:#b0b0b0;stroke-linecap:square;stroke-opacity:0.3;stroke-width:0.8;"/>
     </g>
     <g id="line2d_33">
      <g>
       <use style="stroke:#000000;stroke-width:0.6;" x="53.328125" xlink:href="#m2b09ca6e7a" y="163.805724"/>
      </g>
     </g>
     <g id="text_15">
      <!-- 20 -->
      <g transform="translate(35.203125 167.604943)scale(0.1 -0.1)">
       <use xlink:href="#DejaVuSans-50"/>
       <use x="63.623047" xlink:href="#DejaVuSans-48"/>
      </g>
     </g>
    </g>
    <g id="ytick_8">
     <g id="line2d_34">
      <path clip-path="url(#pa5c182d705)" d="M 53.328125 140.574516 
L 388.128125 140.574516 
" style="fill:none;stroke:#b0b0b0;stroke-linecap:square;stroke-opacity:0.3;stroke-width:0.8;"/>
     </g>
     <g id="line2d_35">
      <g>
       <use style="stroke:#000000;stroke-width:0.6;" x="53.328125" xlink:href="#m2b09ca6e7a" y="140.574516"/>
      </g>
     </g>
     <g id="text_16">
      <!-- 50 -->
      <g transform="translate(35.203125 144.373734)scale(0.1 -0.1)">
       <use xlink:href="#DejaVuSans-53"/>
       <use x="63.623047" xlink:href="#DejaVuSans-48"/>
      </g>
     </g>
    </g>
    <g id="ytick_9">
     <g id="line2d_36">
      <path clip-path="url(#pa5c182d705)" d="M 53.328125 105.427054 
L 388.128125 105.427054 
" style="fill:none;stroke:#b0b0b0;stroke-linecap:square;stroke-opacity:0.3;stroke-width:0.8;"/>
     </g>
     <g id="line2d_37">
      <g>
       <use style="stroke:#000000;stroke-width:0.6;" x="53.328125" xlink:href="#m2b09ca6e7a" y="105.427054"/>
      </g>
     </g>
     <g id="text_17">
      <!-- 200 -->
      <g transform="translate(28.840625 109.226273)scale(0.1 -0.1)">
       <use xlink:href="#DejaVuSans-50"/>
       <use x="63.623047" xlink:href="#DejaVuSans-48"/>
       <use x="127.246094" xlink:href="#DejaVuSans-48"/>
      </g>
     </g>
    </g>
    <g id="ytick_10">
     <g id="line2d_38">
      <path clip-path="url(#pa5c182d705)" d="M 53.328125 82.195846 
L 388.128125 82.195846 
" style="fill:none;stroke:#b0b0b0;stroke-linecap:square;stroke-opacity:0.3;stroke-width:0.8;"/>
     </g>
     <g id="line2d_39">
      <g>
       <use style="stroke:#000000;stroke-width:0.6;" x="53.328125" xlink:href="#m2b09ca6e7a" y="82.195846"/>
      </g>
     </g>
     <g id="text_18">
      <!-- 500 -->
      <g transform="translate(28.840625 85.995064)scale(0.1 -0.1)">
       <use xlink:href="#DejaVuSans-53"/>
       <use x="63.623047" xlink:href="#DejaVuSans-48"/>
       <use x="127.246094" xlink:href="#DejaVuSans-48"/>
      </g>
     </g>
    </g>
    <g id="ytick_11">
     <g id="line2d_40">
      <path clip-path="url(#pa5c182d705)" d="M 53.328125 47.048384 
L 388.128125 47.048384 
" style="fill:none;stroke:#b0b0b0;stroke-linecap:square;stroke-opacity:0.3;stroke-width:0.8;"/>
     </g>
     <g id="line2d_41">
      <g>
       <use style="stroke:#000000;stroke-width:0.6;" x="53.328125" xlink:href="#m2b09ca6e7a" y="47.048384"/>
      </g>
     </g>
     <g id="text_19">
      <!-- 2000 -->
      <g transform="translate(22.478125 50.847603)scale(0.1 -0.1)">
       <use xlink:href="#DejaVuSans-50"/>
       <use x="63.623047" xlink:href="#DejaVuSans-48"/>
       <use x="127.246094" xlink:href="#DejaVuSans-48"/>
       <use x="190.869141" xlink:href="#DejaVuSans-48"/>
      </g>
     </g>
    </g>
    <g id="ytick_12">
     <g id="line2d_42">
      <path clip-path="url(#pa5c182d705)" d="M 53.328125 23.817176 
L 388.128125 23.817176 
" style="fill:none;stroke:#b0b0b0;stroke-linecap:square;stroke-opacity:0.3;stroke-width:0.8;"/>
     </g>
     <g id="line2d_43">
      <g>
       <use style="stroke:#000000;stroke-width:0.6;" x="53.328125" xlink:href="#m2b09ca6e7a" y="23.817176"/>
      </g>
     </g>
     <g id="text_20">
      <!-- 5000 -->
      <g transform="translate(22.478125 27.616394)scale(0.1 -0.1)">
       <use xlink:href="#DejaVuSans-53"/>
       <use x="63.623047" xlink:href="#DejaVuSans-48"/>
       <use x="127.246094" xlink:href="#DejaVuSans-48"/>
       <use x="190.869141" xlink:href="#DejaVuSans-48"/>
      </g>
     </g>
    </g>
    <g id="text_21">
     <!-- Cases per million -->
     <defs>
      <path d="M 64.40625 67.28125 
L 64.40625 56.890625 
Q 59.421875 61.53125 53.78125 63.8125 
Q 48.140625 66.109375 41.796875 66.109375 
Q 29.296875 66.109375 22.65625 58.46875 
Q 16.015625 50.828125 16.015625 36.375 
Q 16.015625 21.96875 22.65625 14.328125 
Q 29.296875 6.6875 41.796875 6.6875 
Q 48.140625 6.6875 53.78125 8.984375 
Q 59.421875 11.28125 64.40625 15.921875 
L 64.40625 5.609375 
Q 59.234375 2.09375 53.4375 0.328125 
Q 47.65625 -1.421875 41.21875 -1.421875 
Q 24.65625 -1.421875 15.125 8.703125 
Q 5.609375 18.84375 5.609375 36.375 
Q 5.609375 53.953125 15.125 64.078125 
Q 24.65625 74.21875 41.21875 74.21875 
Q 47.75 74.21875 53.53125 72.484375 
Q 59.328125 70.75 64.40625 67.28125 
z
" id="DejaVuSans-67"/>
      <path d="M 44.28125 53.078125 
L 44.28125 44.578125 
Q 40.484375 46.53125 36.375 47.5 
Q 32.28125 48.484375 27.875 48.484375 
Q 21.1875 48.484375 17.84375 46.4375 
Q 14.5 44.390625 14.5 40.28125 
Q 14.5 37.15625 16.890625 35.375 
Q 19.28125 33.59375 26.515625 31.984375 
L 29.59375 31.296875 
Q 39.15625 29.25 43.1875 25.515625 
Q 47.21875 21.78125 47.21875 15.09375 
Q 47.21875 7.46875 41.1875 3.015625 
Q 35.15625 -1.421875 24.609375 -1.421875 
Q 20.21875 -1.421875 15.453125 -0.5625 
Q 10.6875 0.296875 5.421875 2 
L 5.421875 11.28125 
Q 10.40625 8.6875 15.234375 7.390625 
Q 20.0625 6.109375 24.8125 6.109375 
Q 31.15625 6.109375 34.5625 8.28125 
Q 37.984375 10.453125 37.984375 14.40625 
Q 37.984375 18.0625 35.515625 20.015625 
Q 33.0625 21.96875 24.703125 23.78125 
L 21.578125 24.515625 
Q 13.234375 26.265625 9.515625 29.90625 
Q 5.8125 33.546875 5.8125 39.890625 
Q 5.8125 47.609375 11.28125 51.796875 
Q 16.75 56 26.8125 56 
Q 31.78125 56 36.171875 55.265625 
Q 40.578125 54.546875 44.28125 53.078125 
z
" id="DejaVuSans-115"/>
      <path id="DejaVuSans-32"/>
      <path d="M 52 44.1875 
Q 55.375 50.25 60.0625 53.125 
Q 64.75 56 71.09375 56 
Q 79.640625 56 84.28125 50.015625 
Q 88.921875 44.046875 88.921875 33.015625 
L 88.921875 0 
L 79.890625 0 
L 79.890625 32.71875 
Q 79.890625 40.578125 77.09375 44.375 
Q 74.3125 48.1875 68.609375 48.1875 
Q 61.625 48.1875 57.5625 43.546875 
Q 53.515625 38.921875 53.515625 30.90625 
L 53.515625 0 
L 44.484375 0 
L 44.484375 32.71875 
Q 44.484375 40.625 41.703125 44.40625 
Q 38.921875 48.1875 33.109375 48.1875 
Q 26.21875 48.1875 22.15625 43.53125 
Q 18.109375 38.875 18.109375 30.90625 
L 18.109375 0 
L 9.078125 0 
L 9.078125 54.6875 
L 18.109375 54.6875 
L 18.109375 46.1875 
Q 21.1875 51.21875 25.484375 53.609375 
Q 29.78125 56 35.6875 56 
Q 41.65625 56 45.828125 52.96875 
Q 50 49.953125 52 44.1875 
z
" id="DejaVuSans-109"/>
      <path d="M 9.421875 54.6875 
L 18.40625 54.6875 
L 18.40625 0 
L 9.421875 0 
z
M 9.421875 75.984375 
L 18.40625 75.984375 
L 18.40625 64.59375 
L 9.421875 64.59375 
z
" id="DejaVuSans-105"/>
      <path d="M 9.421875 75.984375 
L 18.40625 75.984375 
L 18.40625 0 
L 9.421875 0 
z
" id="DejaVuSans-108"/>
      <path d="M 30.609375 48.390625 
Q 23.390625 48.390625 19.1875 42.75 
Q 14.984375 37.109375 14.984375 27.296875 
Q 14.984375 17.484375 19.15625 11.84375 
Q 23.34375 6.203125 30.609375 6.203125 
Q 37.796875 6.203125 41.984375 11.859375 
Q 46.1875 17.53125 46.1875 27.296875 
Q 46.1875 37.015625 41.984375 42.703125 
Q 37.796875 48.390625 30.609375 48.390625 
z
M 30.609375 56 
Q 42.328125 56 49.015625 48.375 
Q 55.71875 40.765625 55.71875 27.296875 
Q 55.71875 13.875 49.015625 6.21875 
Q 42.328125 -1.421875 30.609375 -1.421875 
Q 18.84375 -1.421875 12.171875 6.21875 
Q 5.515625 13.875 5.515625 27.296875 
Q 5.515625 40.765625 12.171875 48.375 
Q 18.84375 56 30.609375 56 
z
" id="DejaVuSans-111"/>
      <path d="M 54.890625 33.015625 
L 54.890625 0 
L 45.90625 0 
L 45.90625 32.71875 
Q 45.90625 40.484375 42.875 44.328125 
Q 39.84375 48.1875 33.796875 48.1875 
Q 26.515625 48.1875 22.3125 43.546875 
Q 18.109375 38.921875 18.109375 30.90625 
L 18.109375 0 
L 9.078125 0 
L 9.078125 54.6875 
L 18.109375 54.6875 
L 18.109375 46.1875 
Q 21.34375 51.125 25.703125 53.5625 
Q 30.078125 56 35.796875 56 
Q 45.21875 56 50.046875 50.171875 
Q 54.890625 44.34375 54.890625 33.015625 
z
" id="DejaVuSans-110"/>
     </defs>
     <g transform="translate(14.798438 174.018594)rotate(-90)scale(0.1 -0.1)">
      <use xlink:href="#DejaVuSans-67"/>
      <use x="69.824219" xlink:href="#DejaVuSans-97"/>
      <use x="131.103516" xlink:href="#DejaVuSans-115"/>
      <use x="183.203125" xlink:href="#DejaVuSans-101"/>
      <use x="244.726562" xlink:href="#DejaVuSans-115"/>
      <use x="296.826172" xlink:href="#DejaVuSans-32"/>
      <use x="328.613281" xlink:href="#DejaVuSans-112"/>
      <use x="392.089844" xlink:href="#DejaVuSans-101"/>
      <use x="453.613281" xlink:href="#DejaVuSans-114"/>
      <use x="494.726562" xlink:href="#DejaVuSans-32"/>
      <use x="526.513672" xlink:href="#DejaVuSans-109"/>
      <use x="623.925781" xlink:href="#DejaVuSans-105"/>
      <use x="651.708984" xlink:href="#DejaVuSans-108"/>
      <use x="679.492188" xlink:href="#DejaVuSans-108"/>
      <use x="707.275391" xlink:href="#DejaVuSans-105"/>
      <use x="735.058594" xlink:href="#DejaVuSans-111"/>
      <use x="796.240234" xlink:href="#DejaVuSans-110"/>
     </g>
    </g>
   </g>
   <g id="line2d_44">
    <path clip-path="url(#pa5c182d705)" d="M 41.144044 317.991358 
L 45.205404 317.991358 
L 49.266765 317.991358 
L 53.328125 317.991358 
L 57.389485 317.991358 
L 61.450846 317.991358 
L 65.512206 296.509363 
L 69.573566 296.509363 
L 73.634927 296.509363 
L 77.696287 285.98907 
L 81.757647 284.144363 
L 85.819008 282.843897 
L 89.880368 282.843897 
L 93.941728 281.606893 
L 98.003089 279.670569 
L 102.064449 277.186419 
L 106.125809 269.892662 
L 110.18717 264.438828 
L 114.24853 258.295325 
L 118.30989 249.787499 
L 122.371251 240.482032 
L 126.432611 232.618508 
L 130.493972 227.08958 
L 134.555332 220.412497 
L 138.616692 211.666571 
L 142.678053 204.842635 
L 146.739413 199.126761 
L 150.800773 191.720485 
L 154.862134 185.67346 
L 158.923494 178.918348 
L 162.984854 172.801034 
L 167.046215 164.621196 
L 171.107575 154.928942 
L 175.168935 144.789956 
L 179.230296 136.137264 
L 183.291656 130.501322 
L 187.353016 122.227882 
L 191.414377 115.462738 
L 195.475737 109.731126 
L 199.537097 104.199358 
L 203.598458 98.469058 
L 207.659818 93.467305 
L 211.721178 89.14221 
L 215.782539 85.339699 
L 219.843899 81.576698 
L 223.905259 78.039866 
L 227.96662 74.732497 
L 232.02798 71.453743 
L 236.08934 68.339263 
L 240.150701 65.426103 
L 244.212061 63.451737 
L 248.273421 61.221952 
L 252.334782 59.031115 
L 256.396142 57.102492 
L 260.457502 55.224705 
L 264.518863 53.46934 
L 268.580223 52.003201 
L 272.641583 50.731836 
L 276.702944 49.554466 
L 280.764304 48.41814 
L 284.825665 47.203535 
L 288.887025 46.064557 
L 292.948385 44.889714 
L 297.009746 43.878757 
L 301.071106 43.004041 
L 305.132466 42.094316 
L 309.193827 41.278994 
L 313.255187 40.367953 
L 317.316547 39.438891 
L 321.377908 38.348224 
L 325.439268 37.395776 
L 329.500628 36.705629 
L 333.561989 36.116771 
L 337.623349 35.487051 
L 341.684709 34.800543 
L 345.74607 34.076505 
L 349.80743 33.256233 
L 353.86879 32.598099 
" style="fill:none;stroke:#ff7f0e;stroke-linecap:square;stroke-width:1.5;"/>
    <defs>
     <path d="M 0 3 
C 0.795609 3 1.55874 2.683901 2.12132 2.12132 
C 2.683901 1.55874 3 0.795609 3 0 
C 3 -0.795609 2.683901 -1.55874 2.12132 -2.12132 
C 1.55874 -2.683901 0.795609 -3 0 -3 
C -0.795609 -3 -1.55874 -2.683901 -2.12132 -2.12132 
C -2.683901 -1.55874 -3 -0.795609 -3 0 
C -3 0.795609 -2.683901 1.55874 -2.12132 2.12132 
C -1.55874 2.683901 -0.795609 3 0 3 
z
" id="mb2a2c55d47" style="stroke:#ff7f0e;"/>
    </defs>
    <g clip-path="url(#pa5c182d705)">
     <use style="fill:#ff7f0e;stroke:#ff7f0e;" x="41.144044" xlink:href="#mb2a2c55d47" y="317.991358"/>
     <use style="fill:#ff7f0e;stroke:#ff7f0e;" x="45.205404" xlink:href="#mb2a2c55d47" y="317.991358"/>
     <use style="fill:#ff7f0e;stroke:#ff7f0e;" x="49.266765" xlink:href="#mb2a2c55d47" y="317.991358"/>
     <use style="fill:#ff7f0e;stroke:#ff7f0e;" x="53.328125" xlink:href="#mb2a2c55d47" y="317.991358"/>
     <use style="fill:#ff7f0e;stroke:#ff7f0e;" x="57.389485" xlink:href="#mb2a2c55d47" y="317.991358"/>
     <use style="fill:#ff7f0e;stroke:#ff7f0e;" x="61.450846" xlink:href="#mb2a2c55d47" y="317.991358"/>
     <use style="fill:#ff7f0e;stroke:#ff7f0e;" x="65.512206" xlink:href="#mb2a2c55d47" y="296.509363"/>
     <use style="fill:#ff7f0e;stroke:#ff7f0e;" x="69.573566" xlink:href="#mb2a2c55d47" y="296.509363"/>
     <use style="fill:#ff7f0e;stroke:#ff7f0e;" x="73.634927" xlink:href="#mb2a2c55d47" y="296.509363"/>
     <use style="fill:#ff7f0e;stroke:#ff7f0e;" x="77.696287" xlink:href="#mb2a2c55d47" y="285.98907"/>
     <use style="fill:#ff7f0e;stroke:#ff7f0e;" x="81.757647" xlink:href="#mb2a2c55d47" y="284.144363"/>
     <use style="fill:#ff7f0e;stroke:#ff7f0e;" x="85.819008" xlink:href="#mb2a2c55d47" y="282.843897"/>
     <use style="fill:#ff7f0e;stroke:#ff7f0e;" x="89.880368" xlink:href="#mb2a2c55d47" y="282.843897"/>
     <use style="fill:#ff7f0e;stroke:#ff7f0e;" x="93.941728" xlink:href="#mb2a2c55d47" y="281.606893"/>
     <use style="fill:#ff7f0e;stroke:#ff7f0e;" x="98.003089" xlink:href="#mb2a2c55d47" y="279.670569"/>
     <use style="fill:#ff7f0e;stroke:#ff7f0e;" x="102.064449" xlink:href="#mb2a2c55d47" y="277.186419"/>
     <use style="fill:#ff7f0e;stroke:#ff7f0e;" x="106.125809" xlink:href="#mb2a2c55d47" y="269.892662"/>
     <use style="fill:#ff7f0e;stroke:#ff7f0e;" x="110.18717" xlink:href="#mb2a2c55d47" y="264.438828"/>
     <use style="fill:#ff7f0e;stroke:#ff7f0e;" x="114.24853" xlink:href="#mb2a2c55d47" y="258.295325"/>
     <use style="fill:#ff7f0e;stroke:#ff7f0e;" x="118.30989" xlink:href="#mb2a2c55d47" y="249.787499"/>
     <use style="fill:#ff7f0e;stroke:#ff7f0e;" x="122.371251" xlink:href="#mb2a2c55d47" y="240.482032"/>
     <use style="fill:#ff7f0e;stroke:#ff7f0e;" x="126.432611" xlink:href="#mb2a2c55d47" y="232.618508"/>
     <use style="fill:#ff7f0e;stroke:#ff7f0e;" x="130.493972" xlink:href="#mb2a2c55d47" y="227.08958"/>
     <use style="fill:#ff7f0e;stroke:#ff7f0e;" x="134.555332" xlink:href="#mb2a2c55d47" y="220.412497"/>
     <use style="fill:#ff7f0e;stroke:#ff7f0e;" x="138.616692" xlink:href="#mb2a2c55d47" y="211.666571"/>
     <use style="fill:#ff7f0e;stroke:#ff7f0e;" x="142.678053" xlink:href="#mb2a2c55d47" y="204.842635"/>
     <use style="fill:#ff7f0e;stroke:#ff7f0e;" x="146.739413" xlink:href="#mb2a2c55d47" y="199.126761"/>
     <use style="fill:#ff7f0e;stroke:#ff7f0e;" x="150.800773" xlink:href="#mb2a2c55d47" y="191.720485"/>
     <use style="fill:#ff7f0e;stroke:#ff7f0e;" x="154.862134" xlink:href="#mb2a2c55d47" y="185.67346"/>
     <use style="fill:#ff7f0e;stroke:#ff7f0e;" x="158.923494" xlink:href="#mb2a2c55d47" y="178.918348"/>
     <use style="fill:#ff7f0e;stroke:#ff7f0e;" x="162.984854" xlink:href="#mb2a2c55d47" y="172.801034"/>
     <use style="fill:#ff7f0e;stroke:#ff7f0e;" x="167.046215" xlink:href="#mb2a2c55d47" y="164.621196"/>
     <use style="fill:#ff7f0e;stroke:#ff7f0e;" x="171.107575" xlink:href="#mb2a2c55d47" y="154.928942"/>
     <use style="fill:#ff7f0e;stroke:#ff7f0e;" x="175.168935" xlink:href="#mb2a2c55d47" y="144.789956"/>
     <use style="fill:#ff7f0e;stroke:#ff7f0e;" x="179.230296" xlink:href="#mb2a2c55d47" y="136.137264"/>
     <use style="fill:#ff7f0e;stroke:#ff7f0e;" x="183.291656" xlink:href="#mb2a2c55d47" y="130.501322"/>
     <use style="fill:#ff7f0e;stroke:#ff7f0e;" x="187.353016" xlink:href="#mb2a2c55d47" y="122.227882"/>
     <use style="fill:#ff7f0e;stroke:#ff7f0e;" x="191.414377" xlink:href="#mb2a2c55d47" y="115.462738"/>
     <use style="fill:#ff7f0e;stroke:#ff7f0e;" x="195.475737" xlink:href="#mb2a2c55d47" y="109.731126"/>
     <use style="fill:#ff7f0e;stroke:#ff7f0e;" x="199.537097" xlink:href="#mb2a2c55d47" y="104.199358"/>
     <use style="fill:#ff7f0e;stroke:#ff7f0e;" x="203.598458" xlink:href="#mb2a2c55d47" y="98.469058"/>
     <use style="fill:#ff7f0e;stroke:#ff7f0e;" x="207.659818" xlink:href="#mb2a2c55d47" y="93.467305"/>
     <use style="fill:#ff7f0e;stroke:#ff7f0e;" x="211.721178" xlink:href="#mb2a2c55d47" y="89.14221"/>
     <use style="fill:#ff7f0e;stroke:#ff7f0e;" x="215.782539" xlink:href="#mb2a2c55d47" y="85.339699"/>
     <use style="fill:#ff7f0e;stroke:#ff7f0e;" x="219.843899" xlink:href="#mb2a2c55d47" y="81.576698"/>
     <use style="fill:#ff7f0e;stroke:#ff7f0e;" x="223.905259" xlink:href="#mb2a2c55d47" y="78.039866"/>
     <use style="fill:#ff7f0e;stroke:#ff7f0e;" x="227.96662" xlink:href="#mb2a2c55d47" y="74.732497"/>
     <use style="fill:#ff7f0e;stroke:#ff7f0e;" x="232.02798" xlink:href="#mb2a2c55d47" y="71.453743"/>
     <use style="fill:#ff7f0e;stroke:#ff7f0e;" x="236.08934" xlink:href="#mb2a2c55d47" y="68.339263"/>
     <use style="fill:#ff7f0e;stroke:#ff7f0e;" x="240.150701" xlink:href="#mb2a2c55d47" y="65.426103"/>
     <use style="fill:#ff7f0e;stroke:#ff7f0e;" x="244.212061" xlink:href="#mb2a2c55d47" y="63.451737"/>
     <use style="fill:#ff7f0e;stroke:#ff7f0e;" x="248.273421" xlink:href="#mb2a2c55d47" y="61.221952"/>
     <use style="fill:#ff7f0e;stroke:#ff7f0e;" x="252.334782" xlink:href="#mb2a2c55d47" y="59.031115"/>
     <use style="fill:#ff7f0e;stroke:#ff7f0e;" x="256.396142" xlink:href="#mb2a2c55d47" y="57.102492"/>
     <use style="fill:#ff7f0e;stroke:#ff7f0e;" x="260.457502" xlink:href="#mb2a2c55d47" y="55.224705"/>
     <use style="fill:#ff7f0e;stroke:#ff7f0e;" x="264.518863" xlink:href="#mb2a2c55d47" y="53.46934"/>
     <use style="fill:#ff7f0e;stroke:#ff7f0e;" x="268.580223" xlink:href="#mb2a2c55d47" y="52.003201"/>
     <use style="fill:#ff7f0e;stroke:#ff7f0e;" x="272.641583" xlink:href="#mb2a2c55d47" y="50.731836"/>
     <use style="fill:#ff7f0e;stroke:#ff7f0e;" x="276.702944" xlink:href="#mb2a2c55d47" y="49.554466"/>
     <use style="fill:#ff7f0e;stroke:#ff7f0e;" x="280.764304" xlink:href="#mb2a2c55d47" y="48.41814"/>
     <use style="fill:#ff7f0e;stroke:#ff7f0e;" x="284.825665" xlink:href="#mb2a2c55d47" y="47.203535"/>
     <use style="fill:#ff7f0e;stroke:#ff7f0e;" x="288.887025" xlink:href="#mb2a2c55d47" y="46.064557"/>
     <use style="fill:#ff7f0e;stroke:#ff7f0e;" x="292.948385" xlink:href="#mb2a2c55d47" y="44.889714"/>
     <use style="fill:#ff7f0e;stroke:#ff7f0e;" x="297.009746" xlink:href="#mb2a2c55d47" y="43.878757"/>
     <use style="fill:#ff7f0e;stroke:#ff7f0e;" x="301.071106" xlink:href="#mb2a2c55d47" y="43.004041"/>
     <use style="fill:#ff7f0e;stroke:#ff7f0e;" x="305.132466" xlink:href="#mb2a2c55d47" y="42.094316"/>
     <use style="fill:#ff7f0e;stroke:#ff7f0e;" x="309.193827" xlink:href="#mb2a2c55d47" y="41.278994"/>
     <use style="fill:#ff7f0e;stroke:#ff7f0e;" x="313.255187" xlink:href="#mb2a2c55d47" y="40.367953"/>
     <use style="fill:#ff7f0e;stroke:#ff7f0e;" x="317.316547" xlink:href="#mb2a2c55d47" y="39.438891"/>
     <use style="fill:#ff7f0e;stroke:#ff7f0e;" x="321.377908" xlink:href="#mb2a2c55d47" y="38.348224"/>
     <use style="fill:#ff7f0e;stroke:#ff7f0e;" x="325.439268" xlink:href="#mb2a2c55d47" y="37.395776"/>
     <use style="fill:#ff7f0e;stroke:#ff7f0e;" x="329.500628" xlink:href="#mb2a2c55d47" y="36.705629"/>
     <use style="fill:#ff7f0e;stroke:#ff7f0e;" x="333.561989" xlink:href="#mb2a2c55d47" y="36.116771"/>
     <use style="fill:#ff7f0e;stroke:#ff7f0e;" x="337.623349" xlink:href="#mb2a2c55d47" y="35.487051"/>
     <use style="fill:#ff7f0e;stroke:#ff7f0e;" x="341.684709" xlink:href="#mb2a2c55d47" y="34.800543"/>
     <use style="fill:#ff7f0e;stroke:#ff7f0e;" x="345.74607" xlink:href="#mb2a2c55d47" y="34.076505"/>
     <use style="fill:#ff7f0e;stroke:#ff7f0e;" x="349.80743" xlink:href="#mb2a2c55d47" y="33.256233"/>
     <use style="fill:#ff7f0e;stroke:#ff7f0e;" x="353.86879" xlink:href="#mb2a2c55d47" y="32.598099"/>
    </g>
   </g>
   <g id="line2d_45">
    <path clip-path="url(#pa5c182d705)" d="M 41.144044 315.844354 
L 45.205404 315.844354 
L 49.266765 315.844354 
L 53.328125 315.844354 
L 57.389485 315.844354 
L 61.450846 308.550597 
L 65.512206 266.508654 
L 69.573566 232.917112 
L 73.634927 215.504357 
L 77.696287 205.934001 
L 81.757647 197.214152 
L 85.819008 187.704539 
L 89.880368 179.289637 
L 93.941728 171.545095 
L 98.003089 165.508312 
L 102.064449 155.093837 
L 106.125809 150.536012 
L 110.18717 145.310565 
L 114.24853 139.96713 
L 118.30989 134.331001 
L 122.371251 129.673481 
L 126.432611 123.633891 
L 130.493972 117.903255 
L 134.555332 112.374677 
L 138.616692 109.808397 
L 142.678053 104.603092 
L 146.739413 99.713124 
L 150.800773 95.764389 
L 154.862134 91.183801 
L 158.923494 87.210054 
L 162.984854 84.097003 
L 167.046215 81.087842 
L 171.107575 77.910112 
L 175.168935 74.388237 
L 179.230296 70.935873 
L 183.291656 67.626116 
L 187.353016 65.122831 
L 191.414377 63.148599 
L 195.475737 61.147896 
L 199.537097 59.30688 
L 203.598458 57.276204 
L 207.659818 55.48221 
L 211.721178 53.788984 
L 215.782539 52.397505 
L 219.843899 51.3676 
L 223.905259 50.377184 
L 227.96662 49.256303 
L 232.02798 48.207952 
L 236.08934 47.21879 
L 240.150701 46.221981 
L 244.212061 45.35885 
L 248.273421 44.660916 
L 252.334782 44.086181 
L 256.396142 43.378838 
L 260.457502 42.625651 
L 264.518863 41.937622 
L 268.580223 41.143759 
L 272.641583 40.471424 
L 276.702944 39.965266 
L 280.764304 39.497241 
L 284.825665 39.084479 
L 288.887025 38.509838 
L 292.948385 37.990978 
L 297.009746 37.482811 
L 301.071106 37.047451 
L 305.132466 36.729859 
L 309.193827 36.350921 
L 313.255187 35.89066 
L 317.316547 35.535047 
L 321.377908 35.13504 
L 325.439268 34.827278 
L 329.500628 34.527439 
L 333.561989 34.305372 
L 337.623349 34.040906 
L 341.684709 33.779793 
L 345.74607 33.547735 
L 349.80743 33.306412 
L 353.86879 33.075235 
" style="fill:none;stroke:#2ca02c;stroke-linecap:square;stroke-width:1.5;"/>
    <defs>
     <path d="M 0 3 
C 0.795609 3 1.55874 2.683901 2.12132 2.12132 
C 2.683901 1.55874 3 0.795609 3 0 
C 3 -0.795609 2.683901 -1.55874 2.12132 -2.12132 
C 1.55874 -2.683901 0.795609 -3 0 -3 
C -0.795609 -3 -1.55874 -2.683901 -2.12132 -2.12132 
C -2.683901 -1.55874 -3 -0.795609 -3 0 
C -3 0.795609 -2.683901 1.55874 -2.12132 2.12132 
C -1.55874 2.683901 -0.795609 3 0 3 
z
" id="m02848d288b" style="stroke:#2ca02c;"/>
    </defs>
    <g clip-path="url(#pa5c182d705)">
     <use style="fill:#2ca02c;stroke:#2ca02c;" x="41.144044" xlink:href="#m02848d288b" y="315.844354"/>
     <use style="fill:#2ca02c;stroke:#2ca02c;" x="45.205404" xlink:href="#m02848d288b" y="315.844354"/>
     <use style="fill:#2ca02c;stroke:#2ca02c;" x="49.266765" xlink:href="#m02848d288b" y="315.844354"/>
     <use style="fill:#2ca02c;stroke:#2ca02c;" x="53.328125" xlink:href="#m02848d288b" y="315.844354"/>
     <use style="fill:#2ca02c;stroke:#2ca02c;" x="57.389485" xlink:href="#m02848d288b" y="315.844354"/>
     <use style="fill:#2ca02c;stroke:#2ca02c;" x="61.450846" xlink:href="#m02848d288b" y="308.550597"/>
     <use style="fill:#2ca02c;stroke:#2ca02c;" x="65.512206" xlink:href="#m02848d288b" y="266.508654"/>
     <use style="fill:#2ca02c;stroke:#2ca02c;" x="69.573566" xlink:href="#m02848d288b" y="232.917112"/>
     <use style="fill:#2ca02c;stroke:#2ca02c;" x="73.634927" xlink:href="#m02848d288b" y="215.504357"/>
     <use style="fill:#2ca02c;stroke:#2ca02c;" x="77.696287" xlink:href="#m02848d288b" y="205.934001"/>
     <use style="fill:#2ca02c;stroke:#2ca02c;" x="81.757647" xlink:href="#m02848d288b" y="197.214152"/>
     <use style="fill:#2ca02c;stroke:#2ca02c;" x="85.819008" xlink:href="#m02848d288b" y="187.704539"/>
     <use style="fill:#2ca02c;stroke:#2ca02c;" x="89.880368" xlink:href="#m02848d288b" y="179.289637"/>
     <use style="fill:#2ca02c;stroke:#2ca02c;" x="93.941728" xlink:href="#m02848d288b" y="171.545095"/>
     <use style="fill:#2ca02c;stroke:#2ca02c;" x="98.003089" xlink:href="#m02848d288b" y="165.508312"/>
     <use style="fill:#2ca02c;stroke:#2ca02c;" x="102.064449" xlink:href="#m02848d288b" y="155.093837"/>
     <use style="fill:#2ca02c;stroke:#2ca02c;" x="106.125809" xlink:href="#m02848d288b" y="150.536012"/>
     <use style="fill:#2ca02c;stroke:#2ca02c;" x="110.18717" xlink:href="#m02848d288b" y="145.310565"/>
     <use style="fill:#2ca02c;stroke:#2ca02c;" x="114.24853" xlink:href="#m02848d288b" y="139.96713"/>
     <use style="fill:#2ca02c;stroke:#2ca02c;" x="118.30989" xlink:href="#m02848d288b" y="134.331001"/>
     <use style="fill:#2ca02c;stroke:#2ca02c;" x="122.371251" xlink:href="#m02848d288b" y="129.673481"/>
     <use style="fill:#2ca02c;stroke:#2ca02c;" x="126.432611" xlink:href="#m02848d288b" y="123.633891"/>
     <use style="fill:#2ca02c;stroke:#2ca02c;" x="130.493972" xlink:href="#m02848d288b" y="117.903255"/>
     <use style="fill:#2ca02c;stroke:#2ca02c;" x="134.555332" xlink:href="#m02848d288b" y="112.374677"/>
     <use style="fill:#2ca02c;stroke:#2ca02c;" x="138.616692" xlink:href="#m02848d288b" y="109.808397"/>
     <use style="fill:#2ca02c;stroke:#2ca02c;" x="142.678053" xlink:href="#m02848d288b" y="104.603092"/>
     <use style="fill:#2ca02c;stroke:#2ca02c;" x="146.739413" xlink:href="#m02848d288b" y="99.713124"/>
     <use style="fill:#2ca02c;stroke:#2ca02c;" x="150.800773" xlink:href="#m02848d288b" y="95.764389"/>
     <use style="fill:#2ca02c;stroke:#2ca02c;" x="154.862134" xlink:href="#m02848d288b" y="91.183801"/>
     <use style="fill:#2ca02c;stroke:#2ca02c;" x="158.923494" xlink:href="#m02848d288b" y="87.210054"/>
     <use style="fill:#2ca02c;stroke:#2ca02c;" x="162.984854" xlink:href="#m02848d288b" y="84.097003"/>
     <use style="fill:#2ca02c;stroke:#2ca02c;" x="167.046215" xlink:href="#m02848d288b" y="81.087842"/>
     <use style="fill:#2ca02c;stroke:#2ca02c;" x="171.107575" xlink:href="#m02848d288b" y="77.910112"/>
     <use style="fill:#2ca02c;stroke:#2ca02c;" x="175.168935" xlink:href="#m02848d288b" y="74.388237"/>
     <use style="fill:#2ca02c;stroke:#2ca02c;" x="179.230296" xlink:href="#m02848d288b" y="70.935873"/>
     <use style="fill:#2ca02c;stroke:#2ca02c;" x="183.291656" xlink:href="#m02848d288b" y="67.626116"/>
     <use style="fill:#2ca02c;stroke:#2ca02c;" x="187.353016" xlink:href="#m02848d288b" y="65.122831"/>
     <use style="fill:#2ca02c;stroke:#2ca02c;" x="191.414377" xlink:href="#m02848d288b" y="63.148599"/>
     <use style="fill:#2ca02c;stroke:#2ca02c;" x="195.475737" xlink:href="#m02848d288b" y="61.147896"/>
     <use style="fill:#2ca02c;stroke:#2ca02c;" x="199.537097" xlink:href="#m02848d288b" y="59.30688"/>
     <use style="fill:#2ca02c;stroke:#2ca02c;" x="203.598458" xlink:href="#m02848d288b" y="57.276204"/>
     <use style="fill:#2ca02c;stroke:#2ca02c;" x="207.659818" xlink:href="#m02848d288b" y="55.48221"/>
     <use style="fill:#2ca02c;stroke:#2ca02c;" x="211.721178" xlink:href="#m02848d288b" y="53.788984"/>
     <use style="fill:#2ca02c;stroke:#2ca02c;" x="215.782539" xlink:href="#m02848d288b" y="52.397505"/>
     <use style="fill:#2ca02c;stroke:#2ca02c;" x="219.843899" xlink:href="#m02848d288b" y="51.3676"/>
     <use style="fill:#2ca02c;stroke:#2ca02c;" x="223.905259" xlink:href="#m02848d288b" y="50.377184"/>
     <use style="fill:#2ca02c;stroke:#2ca02c;" x="227.96662" xlink:href="#m02848d288b" y="49.256303"/>
     <use style="fill:#2ca02c;stroke:#2ca02c;" x="232.02798" xlink:href="#m02848d288b" y="48.207952"/>
     <use style="fill:#2ca02c;stroke:#2ca02c;" x="236.08934" xlink:href="#m02848d288b" y="47.21879"/>
     <use style="fill:#2ca02c;stroke:#2ca02c;" x="240.150701" xlink:href="#m02848d288b" y="46.221981"/>
     <use style="fill:#2ca02c;stroke:#2ca02c;" x="244.212061" xlink:href="#m02848d288b" y="45.35885"/>
     <use style="fill:#2ca02c;stroke:#2ca02c;" x="248.273421" xlink:href="#m02848d288b" y="44.660916"/>
     <use style="fill:#2ca02c;stroke:#2ca02c;" x="252.334782" xlink:href="#m02848d288b" y="44.086181"/>
     <use style="fill:#2ca02c;stroke:#2ca02c;" x="256.396142" xlink:href="#m02848d288b" y="43.378838"/>
     <use style="fill:#2ca02c;stroke:#2ca02c;" x="260.457502" xlink:href="#m02848d288b" y="42.625651"/>
     <use style="fill:#2ca02c;stroke:#2ca02c;" x="264.518863" xlink:href="#m02848d288b" y="41.937622"/>
     <use style="fill:#2ca02c;stroke:#2ca02c;" x="268.580223" xlink:href="#m02848d288b" y="41.143759"/>
     <use style="fill:#2ca02c;stroke:#2ca02c;" x="272.641583" xlink:href="#m02848d288b" y="40.471424"/>
     <use style="fill:#2ca02c;stroke:#2ca02c;" x="276.702944" xlink:href="#m02848d288b" y="39.965266"/>
     <use style="fill:#2ca02c;stroke:#2ca02c;" x="280.764304" xlink:href="#m02848d288b" y="39.497241"/>
     <use style="fill:#2ca02c;stroke:#2ca02c;" x="284.825665" xlink:href="#m02848d288b" y="39.084479"/>
     <use style="fill:#2ca02c;stroke:#2ca02c;" x="288.887025" xlink:href="#m02848d288b" y="38.509838"/>
     <use style="fill:#2ca02c;stroke:#2ca02c;" x="292.948385" xlink:href="#m02848d288b" y="37.990978"/>
     <use style="fill:#2ca02c;stroke:#2ca02c;" x="297.009746" xlink:href="#m02848d288b" y="37.482811"/>
     <use style="fill:#2ca02c;stroke:#2ca02c;" x="301.071106" xlink:href="#m02848d288b" y="37.047451"/>
     <use style="fill:#2ca02c;stroke:#2ca02c;" x="305.132466" xlink:href="#m02848d288b" y="36.729859"/>
     <use style="fill:#2ca02c;stroke:#2ca02c;" x="309.193827" xlink:href="#m02848d288b" y="36.350921"/>
     <use style="fill:#2ca02c;stroke:#2ca02c;" x="313.255187" xlink:href="#m02848d288b" y="35.89066"/>
     <use style="fill:#2ca02c;stroke:#2ca02c;" x="317.316547" xlink:href="#m02848d288b" y="35.535047"/>
     <use style="fill:#2ca02c;stroke:#2ca02c;" x="321.377908" xlink:href="#m02848d288b" y="35.13504"/>
     <use style="fill:#2ca02c;stroke:#2ca02c;" x="325.439268" xlink:href="#m02848d288b" y="34.827278"/>
     <use style="fill:#2ca02c;stroke:#2ca02c;" x="329.500628" xlink:href="#m02848d288b" y="34.527439"/>
     <use style="fill:#2ca02c;stroke:#2ca02c;" x="333.561989" xlink:href="#m02848d288b" y="34.305372"/>
     <use style="fill:#2ca02c;stroke:#2ca02c;" x="337.623349" xlink:href="#m02848d288b" y="34.040906"/>
     <use style="fill:#2ca02c;stroke:#2ca02c;" x="341.684709" xlink:href="#m02848d288b" y="33.779793"/>
     <use style="fill:#2ca02c;stroke:#2ca02c;" x="345.74607" xlink:href="#m02848d288b" y="33.547735"/>
     <use style="fill:#2ca02c;stroke:#2ca02c;" x="349.80743" xlink:href="#m02848d288b" y="33.306412"/>
     <use style="fill:#2ca02c;stroke:#2ca02c;" x="353.86879" xlink:href="#m02848d288b" y="33.075235"/>
    </g>
   </g>
   <g id="line2d_46">
    <path clip-path="url(#pa5c182d705)" d="M 41.144044 290.860219 
L 45.205404 290.860219 
L 49.266765 290.860219 
L 53.328125 290.860219 
L 57.389485 290.860219 
L 61.450846 290.860219 
L 65.512206 290.860219 
L 69.573566 290.860219 
L 73.634927 281.537096 
L 77.696287 281.537096 
L 81.757647 281.537096 
L 85.819008 281.537096 
L 89.880368 276.272704 
L 93.941728 270.615226 
L 98.003089 267.071767 
L 102.064449 255.712757 
L 106.125809 253.683392 
L 110.18717 246.881951 
L 114.24853 233.341073 
L 118.30989 226.047315 
L 122.371251 217.267989 
L 126.432611 211.120573 
L 130.493972 203.887543 
L 134.555332 200.241197 
L 138.616692 195.763918 
L 142.678053 191.119366 
L 146.739413 184.808972 
L 150.800773 177.152558 
L 154.862134 168.109588 
L 158.923494 163.06437 
L 162.984854 160.435065 
L 167.046215 154.499782 
L 171.107575 146.953749 
L 175.168935 141.400758 
L 179.230296 136.392138 
L 183.291656 130.535569 
L 187.353016 127.380377 
L 191.414377 123.396384 
L 195.475737 118.467564 
L 199.537097 114.276136 
L 203.598458 109.163524 
L 207.659818 103.557423 
L 211.721178 99.467259 
L 215.782539 96.092524 
L 219.843899 92.900792 
L 223.905259 89.670072 
L 227.96662 85.647718 
L 232.02798 82.237077 
L 236.08934 79.09411 
L 240.150701 76.727105 
L 244.212061 73.385668 
L 248.273421 71.445475 
L 252.334782 69.720247 
L 256.396142 67.317653 
L 260.457502 65.56613 
L 264.518863 62.391404 
L 268.580223 60.65356 
L 272.641583 59.010681 
L 276.702944 57.737018 
L 280.764304 56.277315 
L 284.825665 55.063639 
L 288.887025 53.901975 
L 292.948385 52.56111 
L 297.009746 51.304033 
L 301.071106 50.037629 
L 305.132466 49.06898 
L 309.193827 48.209551 
L 313.255187 47.349797 
L 317.316547 46.493996 
L 321.377908 45.523833 
L 325.439268 44.670124 
L 329.500628 43.918764 
L 333.561989 43.213866 
L 337.623349 42.577234 
L 341.684709 41.943918 
L 345.74607 41.03479 
L 349.80743 40.13298 
L 353.86879 39.455462 
" style="fill:none;stroke:#1f77b4;stroke-linecap:square;stroke-width:1.5;"/>
    <defs>
     <path d="M 0 3 
C 0.795609 3 1.55874 2.683901 2.12132 2.12132 
C 2.683901 1.55874 3 0.795609 3 0 
C 3 -0.795609 2.683901 -1.55874 2.12132 -2.12132 
C 1.55874 -2.683901 0.795609 -3 0 -3 
C -0.795609 -3 -1.55874 -2.683901 -2.12132 -2.12132 
C -2.683901 -1.55874 -3 -0.795609 -3 0 
C -3 0.795609 -2.683901 1.55874 -2.12132 2.12132 
C -1.55874 2.683901 -0.795609 3 0 3 
z
" id="ma85505dea8" style="stroke:#1f77b4;"/>
    </defs>
    <g clip-path="url(#pa5c182d705)">
     <use style="fill:#1f77b4;stroke:#1f77b4;" x="41.144044" xlink:href="#ma85505dea8" y="290.860219"/>
     <use style="fill:#1f77b4;stroke:#1f77b4;" x="45.205404" xlink:href="#ma85505dea8" y="290.860219"/>
     <use style="fill:#1f77b4;stroke:#1f77b4;" x="49.266765" xlink:href="#ma85505dea8" y="290.860219"/>
     <use style="fill:#1f77b4;stroke:#1f77b4;" x="53.328125" xlink:href="#ma85505dea8" y="290.860219"/>
     <use style="fill:#1f77b4;stroke:#1f77b4;" x="57.389485" xlink:href="#ma85505dea8" y="290.860219"/>
     <use style="fill:#1f77b4;stroke:#1f77b4;" x="61.450846" xlink:href="#ma85505dea8" y="290.860219"/>
     <use style="fill:#1f77b4;stroke:#1f77b4;" x="65.512206" xlink:href="#ma85505dea8" y="290.860219"/>
     <use style="fill:#1f77b4;stroke:#1f77b4;" x="69.573566" xlink:href="#ma85505dea8" y="290.860219"/>
     <use style="fill:#1f77b4;stroke:#1f77b4;" x="73.634927" xlink:href="#ma85505dea8" y="281.537096"/>
     <use style="fill:#1f77b4;stroke:#1f77b4;" x="77.696287" xlink:href="#ma85505dea8" y="281.537096"/>
     <use style="fill:#1f77b4;stroke:#1f77b4;" x="81.757647" xlink:href="#ma85505dea8" y="281.537096"/>
     <use style="fill:#1f77b4;stroke:#1f77b4;" x="85.819008" xlink:href="#ma85505dea8" y="281.537096"/>
     <use style="fill:#1f77b4;stroke:#1f77b4;" x="89.880368" xlink:href="#ma85505dea8" y="276.272704"/>
     <use style="fill:#1f77b4;stroke:#1f77b4;" x="93.941728" xlink:href="#ma85505dea8" y="270.615226"/>
     <use style="fill:#1f77b4;stroke:#1f77b4;" x="98.003089" xlink:href="#ma85505dea8" y="267.071767"/>
     <use style="fill:#1f77b4;stroke:#1f77b4;" x="102.064449" xlink:href="#ma85505dea8" y="255.712757"/>
     <use style="fill:#1f77b4;stroke:#1f77b4;" x="106.125809" xlink:href="#ma85505dea8" y="253.683392"/>
     <use style="fill:#1f77b4;stroke:#1f77b4;" x="110.18717" xlink:href="#ma85505dea8" y="246.881951"/>
     <use style="fill:#1f77b4;stroke:#1f77b4;" x="114.24853" xlink:href="#ma85505dea8" y="233.341073"/>
     <use style="fill:#1f77b4;stroke:#1f77b4;" x="118.30989" xlink:href="#ma85505dea8" y="226.047315"/>
     <use style="fill:#1f77b4;stroke:#1f77b4;" x="122.371251" xlink:href="#ma85505dea8" y="217.267989"/>
     <use style="fill:#1f77b4;stroke:#1f77b4;" x="126.432611" xlink:href="#ma85505dea8" y="211.120573"/>
     <use style="fill:#1f77b4;stroke:#1f77b4;" x="130.493972" xlink:href="#ma85505dea8" y="203.887543"/>
     <use style="fill:#1f77b4;stroke:#1f77b4;" x="134.555332" xlink:href="#ma85505dea8" y="200.241197"/>
     <use style="fill:#1f77b4;stroke:#1f77b4;" x="138.616692" xlink:href="#ma85505dea8" y="195.763918"/>
     <use style="fill:#1f77b4;stroke:#1f77b4;" x="142.678053" xlink:href="#ma85505dea8" y="191.119366"/>
     <use style="fill:#1f77b4;stroke:#1f77b4;" x="146.739413" xlink:href="#ma85505dea8" y="184.808972"/>
     <use style="fill:#1f77b4;stroke:#1f77b4;" x="150.800773" xlink:href="#ma85505dea8" y="177.152558"/>
     <use style="fill:#1f77b4;stroke:#1f77b4;" x="154.862134" xlink:href="#ma85505dea8" y="168.109588"/>
     <use style="fill:#1f77b4;stroke:#1f77b4;" x="158.923494" xlink:href="#ma85505dea8" y="163.06437"/>
     <use style="fill:#1f77b4;stroke:#1f77b4;" x="162.984854" xlink:href="#ma85505dea8" y="160.435065"/>
     <use style="fill:#1f77b4;stroke:#1f77b4;" x="167.046215" xlink:href="#ma85505dea8" y="154.499782"/>
     <use style="fill:#1f77b4;stroke:#1f77b4;" x="171.107575" xlink:href="#ma85505dea8" y="146.953749"/>
     <use style="fill:#1f77b4;stroke:#1f77b4;" x="175.168935" xlink:href="#ma85505dea8" y="141.400758"/>
     <use style="fill:#1f77b4;stroke:#1f77b4;" x="179.230296" xlink:href="#ma85505dea8" y="136.392138"/>
     <use style="fill:#1f77b4;stroke:#1f77b4;" x="183.291656" xlink:href="#ma85505dea8" y="130.535569"/>
     <use style="fill:#1f77b4;stroke:#1f77b4;" x="187.353016" xlink:href="#ma85505dea8" y="127.380377"/>
     <use style="fill:#1f77b4;stroke:#1f77b4;" x="191.414377" xlink:href="#ma85505dea8" y="123.396384"/>
     <use style="fill:#1f77b4;stroke:#1f77b4;" x="195.475737" xlink:href="#ma85505dea8" y="118.467564"/>
     <use style="fill:#1f77b4;stroke:#1f77b4;" x="199.537097" xlink:href="#ma85505dea8" y="114.276136"/>
     <use style="fill:#1f77b4;stroke:#1f77b4;" x="203.598458" xlink:href="#ma85505dea8" y="109.163524"/>
     <use style="fill:#1f77b4;stroke:#1f77b4;" x="207.659818" xlink:href="#ma85505dea8" y="103.557423"/>
     <use style="fill:#1f77b4;stroke:#1f77b4;" x="211.721178" xlink:href="#ma85505dea8" y="99.467259"/>
     <use style="fill:#1f77b4;stroke:#1f77b4;" x="215.782539" xlink:href="#ma85505dea8" y="96.092524"/>
     <use style="fill:#1f77b4;stroke:#1f77b4;" x="219.843899" xlink:href="#ma85505dea8" y="92.900792"/>
     <use style="fill:#1f77b4;stroke:#1f77b4;" x="223.905259" xlink:href="#ma85505dea8" y="89.670072"/>
     <use style="fill:#1f77b4;stroke:#1f77b4;" x="227.96662" xlink:href="#ma85505dea8" y="85.647718"/>
     <use style="fill:#1f77b4;stroke:#1f77b4;" x="232.02798" xlink:href="#ma85505dea8" y="82.237077"/>
     <use style="fill:#1f77b4;stroke:#1f77b4;" x="236.08934" xlink:href="#ma85505dea8" y="79.09411"/>
     <use style="fill:#1f77b4;stroke:#1f77b4;" x="240.150701" xlink:href="#ma85505dea8" y="76.727105"/>
     <use style="fill:#1f77b4;stroke:#1f77b4;" x="244.212061" xlink:href="#ma85505dea8" y="73.385668"/>
     <use style="fill:#1f77b4;stroke:#1f77b4;" x="248.273421" xlink:href="#ma85505dea8" y="71.445475"/>
     <use style="fill:#1f77b4;stroke:#1f77b4;" x="252.334782" xlink:href="#ma85505dea8" y="69.720247"/>
     <use style="fill:#1f77b4;stroke:#1f77b4;" x="256.396142" xlink:href="#ma85505dea8" y="67.317653"/>
     <use style="fill:#1f77b4;stroke:#1f77b4;" x="260.457502" xlink:href="#ma85505dea8" y="65.56613"/>
     <use style="fill:#1f77b4;stroke:#1f77b4;" x="264.518863" xlink:href="#ma85505dea8" y="62.391404"/>
     <use style="fill:#1f77b4;stroke:#1f77b4;" x="268.580223" xlink:href="#ma85505dea8" y="60.65356"/>
     <use style="fill:#1f77b4;stroke:#1f77b4;" x="272.641583" xlink:href="#ma85505dea8" y="59.010681"/>
     <use style="fill:#1f77b4;stroke:#1f77b4;" x="276.702944" xlink:href="#ma85505dea8" y="57.737018"/>
     <use style="fill:#1f77b4;stroke:#1f77b4;" x="280.764304" xlink:href="#ma85505dea8" y="56.277315"/>
     <use style="fill:#1f77b4;stroke:#1f77b4;" x="284.825665" xlink:href="#ma85505dea8" y="55.063639"/>
     <use style="fill:#1f77b4;stroke:#1f77b4;" x="288.887025" xlink:href="#ma85505dea8" y="53.901975"/>
     <use style="fill:#1f77b4;stroke:#1f77b4;" x="292.948385" xlink:href="#ma85505dea8" y="52.56111"/>
     <use style="fill:#1f77b4;stroke:#1f77b4;" x="297.009746" xlink:href="#ma85505dea8" y="51.304033"/>
     <use style="fill:#1f77b4;stroke:#1f77b4;" x="301.071106" xlink:href="#ma85505dea8" y="50.037629"/>
     <use style="fill:#1f77b4;stroke:#1f77b4;" x="305.132466" xlink:href="#ma85505dea8" y="49.06898"/>
     <use style="fill:#1f77b4;stroke:#1f77b4;" x="309.193827" xlink:href="#ma85505dea8" y="48.209551"/>
     <use style="fill:#1f77b4;stroke:#1f77b4;" x="313.255187" xlink:href="#ma85505dea8" y="47.349797"/>
     <use style="fill:#1f77b4;stroke:#1f77b4;" x="317.316547" xlink:href="#ma85505dea8" y="46.493996"/>
     <use style="fill:#1f77b4;stroke:#1f77b4;" x="321.377908" xlink:href="#ma85505dea8" y="45.523833"/>
     <use style="fill:#1f77b4;stroke:#1f77b4;" x="325.439268" xlink:href="#ma85505dea8" y="44.670124"/>
     <use style="fill:#1f77b4;stroke:#1f77b4;" x="329.500628" xlink:href="#ma85505dea8" y="43.918764"/>
     <use style="fill:#1f77b4;stroke:#1f77b4;" x="333.561989" xlink:href="#ma85505dea8" y="43.213866"/>
     <use style="fill:#1f77b4;stroke:#1f77b4;" x="337.623349" xlink:href="#ma85505dea8" y="42.577234"/>
     <use style="fill:#1f77b4;stroke:#1f77b4;" x="341.684709" xlink:href="#ma85505dea8" y="41.943918"/>
     <use style="fill:#1f77b4;stroke:#1f77b4;" x="345.74607" xlink:href="#ma85505dea8" y="41.03479"/>
     <use style="fill:#1f77b4;stroke:#1f77b4;" x="349.80743" xlink:href="#ma85505dea8" y="40.13298"/>
     <use style="fill:#1f77b4;stroke:#1f77b4;" x="353.86879" xlink:href="#ma85505dea8" y="39.455462"/>
    </g>
   </g>
   <g id="line2d_47">
    <path clip-path="url(#pa5c182d705)" d="M 53.328125 120.633303 
L 388.128125 120.633303 
" style="fill:none;stroke:#1f77b4;stroke-dasharray:7.4,3.2;stroke-dashoffset:0;stroke-opacity:0.7;stroke-width:2;"/>
   </g>
   <g id="line2d_48">
    <path clip-path="url(#pa5c182d705)" d="M 53.328125 81.541018 
L 388.128125 81.541018 
" style="fill:none;stroke:#ff7f0e;stroke-dasharray:7.4,3.2;stroke-dashoffset:0;stroke-opacity:0.7;stroke-width:2;"/>
   </g>
   <g id="line2d_49">
    <path clip-path="url(#pa5c182d705)" d="M 53.328125 99.713124 
L 388.128125 99.713124 
" style="fill:none;stroke:#2ca02c;stroke-dasharray:12.8,3.2,2,3.2;stroke-dashoffset:0;stroke-opacity:0.7;stroke-width:2;"/>
   </g>
   <g id="line2d_50">
    <path clip-path="url(#pa5c182d705)" d="M 81.757647 270.283091 
L 81.757647 22.318125 
" style="fill:none;stroke:#2ca02c;stroke-linecap:square;stroke-opacity:0.3;stroke-width:4;"/>
   </g>
   <g id="line2d_51">
    <path clip-path="url(#pa5c182d705)" d="M 146.739413 270.283091 
L 146.739413 22.318125 
" style="fill:none;stroke:#ff7f0e;stroke-linecap:square;stroke-opacity:0.3;stroke-width:4;"/>
   </g>
   <g id="line2d_52">
    <path clip-path="url(#pa5c182d705)" d="M 171.107575 270.283091 
L 171.107575 22.318125 
" style="fill:none;stroke:#1f77b4;stroke-linecap:square;stroke-opacity:0.3;stroke-width:4;"/>
   </g>
   <g id="patch_3">
    <path d="M 53.328125 239.758125 
L 53.328125 22.318125 
" style="fill:none;stroke:#000000;stroke-linecap:square;stroke-linejoin:miter;stroke-width:0.8;"/>
   </g>
   <g id="patch_4">
    <path d="M 388.128125 239.758125 
L 388.128125 22.318125 
" style="fill:none;stroke:#000000;stroke-linecap:square;stroke-linejoin:miter;stroke-width:0.8;"/>
   </g>
   <g id="patch_5">
    <path d="M 53.328125 239.758125 
L 388.128125 239.758125 
" style="fill:none;stroke:#000000;stroke-linecap:square;stroke-linejoin:miter;stroke-width:0.8;"/>
   </g>
   <g id="patch_6">
    <path d="M 53.328125 22.318125 
L 388.128125 22.318125 
" style="fill:none;stroke:#000000;stroke-linecap:square;stroke-linejoin:miter;stroke-width:0.8;"/>
   </g>
   <g id="text_22">
    <!--  Scott Sievert -->
    <defs>
     <path d="M 50 72.515625 
Q 57.421875 72.515625 63.84375 69.828125 
Q 70.265625 67.140625 75.59375 61.8125 
Q 80.90625 56.5 83.546875 50.09375 
Q 86.1875 43.703125 86.1875 36.1875 
Q 86.1875 28.765625 83.546875 22.390625 
Q 80.90625 16.015625 75.59375 10.6875 
Q 70.265625 5.375 63.84375 2.6875 
Q 57.421875 0 50 0 
Q 42.578125 0 36.15625 2.6875 
Q 29.734375 5.375 24.421875 10.6875 
Q 19.09375 16.015625 16.453125 22.390625 
Q 13.8125 28.765625 13.8125 36.1875 
Q 13.8125 43.703125 16.453125 50.09375 
Q 19.09375 56.5 24.421875 61.8125 
Q 29.734375 67.140625 36.15625 69.828125 
Q 42.578125 72.515625 50 72.515625 
z
M 50 67.484375 
Q 43.609375 67.484375 38.078125 65.1875 
Q 32.5625 62.890625 27.984375 58.296875 
Q 23.390625 53.71875 21.046875 48.125 
Q 18.703125 42.53125 18.703125 36.1875 
Q 18.703125 29.890625 21.046875 24.34375 
Q 23.390625 18.796875 27.984375 14.203125 
Q 32.5625 9.625 38.078125 7.296875 
Q 43.609375 4.984375 50 4.984375 
Q 56.453125 4.984375 61.984375 7.296875 
Q 67.53125 9.625 72.125 14.203125 
Q 76.65625 18.75 78.921875 24.265625 
Q 81.203125 29.78125 81.203125 36.1875 
Q 81.203125 42.671875 78.90625 48.21875 
Q 76.609375 53.765625 72.125 58.296875 
Q 67.53125 62.890625 61.984375 65.1875 
Q 56.453125 67.484375 50 67.484375 
z
M 64.59375 55.515625 
L 64.59375 49.21875 
Q 61.375 50.828125 58.203125 51.609375 
Q 55.03125 52.390625 51.8125 52.390625 
Q 44.53125 52.390625 40.453125 48.109375 
Q 36.375 43.84375 36.375 36.1875 
Q 36.375 28.421875 40.546875 24.171875 
Q 44.734375 19.921875 52.296875 19.921875 
Q 55.421875 19.921875 58.390625 20.671875 
Q 61.375 21.4375 64.59375 23.09375 
L 64.59375 16.890625 
Q 61.328125 15.484375 57.984375 14.796875 
Q 54.640625 14.109375 51.21875 14.109375 
Q 40.671875 14.109375 34.546875 20.0625 
Q 28.421875 26.03125 28.421875 36.1875 
Q 28.421875 46.390625 34.546875 52.296875 
Q 40.671875 58.203125 51.21875 58.203125 
Q 54.78125 58.203125 58.09375 57.515625 
Q 61.421875 56.84375 64.59375 55.515625 
z
" id="DejaVuSans-169"/>
     <path d="M 53.515625 70.515625 
L 53.515625 60.890625 
Q 47.90625 63.578125 42.921875 64.890625 
Q 37.9375 66.21875 33.296875 66.21875 
Q 25.25 66.21875 20.875 63.09375 
Q 16.5 59.96875 16.5 54.203125 
Q 16.5 49.359375 19.40625 46.890625 
Q 22.3125 44.4375 30.421875 42.921875 
L 36.375 41.703125 
Q 47.40625 39.59375 52.65625 34.296875 
Q 57.90625 29 57.90625 20.125 
Q 57.90625 9.515625 50.796875 4.046875 
Q 43.703125 -1.421875 29.984375 -1.421875 
Q 24.8125 -1.421875 18.96875 -0.25 
Q 13.140625 0.921875 6.890625 3.21875 
L 6.890625 13.375 
Q 12.890625 10.015625 18.65625 8.296875 
Q 24.421875 6.59375 29.984375 6.59375 
Q 38.421875 6.59375 43.015625 9.90625 
Q 47.609375 13.234375 47.609375 19.390625 
Q 47.609375 24.75 44.3125 27.78125 
Q 41.015625 30.8125 33.5 32.328125 
L 27.484375 33.5 
Q 16.453125 35.6875 11.515625 40.375 
Q 6.59375 45.0625 6.59375 53.421875 
Q 6.59375 63.09375 13.40625 68.65625 
Q 20.21875 74.21875 32.171875 74.21875 
Q 37.3125 74.21875 42.625 73.28125 
Q 47.953125 72.359375 53.515625 70.515625 
z
" id="DejaVuSans-83"/>
     <path d="M 48.78125 52.59375 
L 48.78125 44.1875 
Q 44.96875 46.296875 41.140625 47.34375 
Q 37.3125 48.390625 33.40625 48.390625 
Q 24.65625 48.390625 19.8125 42.84375 
Q 14.984375 37.3125 14.984375 27.296875 
Q 14.984375 17.28125 19.8125 11.734375 
Q 24.65625 6.203125 33.40625 6.203125 
Q 37.3125 6.203125 41.140625 7.25 
Q 44.96875 8.296875 48.78125 10.40625 
L 48.78125 2.09375 
Q 45.015625 0.34375 40.984375 -0.53125 
Q 36.96875 -1.421875 32.421875 -1.421875 
Q 20.0625 -1.421875 12.78125 6.34375 
Q 5.515625 14.109375 5.515625 27.296875 
Q 5.515625 40.671875 12.859375 48.328125 
Q 20.21875 56 33.015625 56 
Q 37.15625 56 41.109375 55.140625 
Q 45.0625 54.296875 48.78125 52.59375 
z
" id="DejaVuSans-99"/>
     <path d="M 18.3125 70.21875 
L 18.3125 54.6875 
L 36.8125 54.6875 
L 36.8125 47.703125 
L 18.3125 47.703125 
L 18.3125 18.015625 
Q 18.3125 11.328125 20.140625 9.421875 
Q 21.96875 7.515625 27.59375 7.515625 
L 36.8125 7.515625 
L 36.8125 0 
L 27.59375 0 
Q 17.1875 0 13.234375 3.875 
Q 9.28125 7.765625 9.28125 18.015625 
L 9.28125 47.703125 
L 2.6875 47.703125 
L 2.6875 54.6875 
L 9.28125 54.6875 
L 9.28125 70.21875 
z
" id="DejaVuSans-116"/>
     <path d="M 2.984375 54.6875 
L 12.5 54.6875 
L 29.59375 8.796875 
L 46.6875 54.6875 
L 56.203125 54.6875 
L 35.6875 0 
L 23.484375 0 
z
" id="DejaVuSans-118"/>
    </defs>
    <g style="fill:#aaaaaa;" transform="translate(310.962278 333.284257)scale(0.1 -0.1)">
     <use xlink:href="#DejaVuSans-169"/>
     <use x="100" xlink:href="#DejaVuSans-32"/>
     <use x="131.787109" xlink:href="#DejaVuSans-83"/>
     <use x="195.263672" xlink:href="#DejaVuSans-99"/>
     <use x="250.244141" xlink:href="#DejaVuSans-111"/>
     <use x="311.425781" xlink:href="#DejaVuSans-116"/>
     <use x="350.634766" xlink:href="#DejaVuSans-116"/>
     <use x="389.84375" xlink:href="#DejaVuSans-32"/>
     <use x="421.630859" xlink:href="#DejaVuSans-83"/>
     <use x="485.107422" xlink:href="#DejaVuSans-105"/>
     <use x="512.890625" xlink:href="#DejaVuSans-101"/>
     <use x="574.414062" xlink:href="#DejaVuSans-118"/>
     <use x="633.59375" xlink:href="#DejaVuSans-101"/>
     <use x="695.117188" xlink:href="#DejaVuSans-114"/>
     <use x="736.230469" xlink:href="#DejaVuSans-116"/>
    </g>
   </g>
   <g id="text_23">
    <!-- Cases per country -->
    <defs>
     <path d="M 8.5 21.578125 
L 8.5 54.6875 
L 17.484375 54.6875 
L 17.484375 21.921875 
Q 17.484375 14.15625 20.5 10.265625 
Q 23.53125 6.390625 29.59375 6.390625 
Q 36.859375 6.390625 41.078125 11.03125 
Q 45.3125 15.671875 45.3125 23.6875 
L 45.3125 54.6875 
L 54.296875 54.6875 
L 54.296875 0 
L 45.3125 0 
L 45.3125 8.40625 
Q 42.046875 3.421875 37.71875 1 
Q 33.40625 -1.421875 27.6875 -1.421875 
Q 18.265625 -1.421875 13.375 4.4375 
Q 8.5 10.296875 8.5 21.578125 
z
M 31.109375 56 
z
" id="DejaVuSans-117"/>
     <path d="M 32.171875 -5.078125 
Q 28.375 -14.84375 24.75 -17.8125 
Q 21.140625 -20.796875 15.09375 -20.796875 
L 7.90625 -20.796875 
L 7.90625 -13.28125 
L 13.1875 -13.28125 
Q 16.890625 -13.28125 18.9375 -11.515625 
Q 21 -9.765625 23.484375 -3.21875 
L 25.09375 0.875 
L 2.984375 54.6875 
L 12.5 54.6875 
L 29.59375 11.921875 
L 46.6875 54.6875 
L 56.203125 54.6875 
z
" id="DejaVuSans-121"/>
    </defs>
    <g transform="translate(166.191875 16.318125)scale(0.12 -0.12)">
     <use xlink:href="#DejaVuSans-67"/>
     <use x="69.824219" xlink:href="#DejaVuSans-97"/>
     <use x="131.103516" xlink:href="#DejaVuSans-115"/>
     <use x="183.203125" xlink:href="#DejaVuSans-101"/>
     <use x="244.726562" xlink:href="#DejaVuSans-115"/>
     <use x="296.826172" xlink:href="#DejaVuSans-32"/>
     <use x="328.613281" xlink:href="#DejaVuSans-112"/>
     <use x="392.089844" xlink:href="#DejaVuSans-101"/>
     <use x="453.613281" xlink:href="#DejaVuSans-114"/>
     <use x="494.726562" xlink:href="#DejaVuSans-32"/>
     <use x="526.513672" xlink:href="#DejaVuSans-99"/>
     <use x="581.494141" xlink:href="#DejaVuSans-111"/>
     <use x="642.675781" xlink:href="#DejaVuSans-117"/>
     <use x="706.054688" xlink:href="#DejaVuSans-110"/>
     <use x="769.433594" xlink:href="#DejaVuSans-116"/>
     <use x="808.642578" xlink:href="#DejaVuSans-114"/>
     <use x="849.755859" xlink:href="#DejaVuSans-121"/>
    </g>
   </g>
   <g id="legend_1">
    <g id="patch_7">
     <path d="M 249.604688 234.758125 
L 381.128125 234.758125 
Q 383.128125 234.758125 383.128125 232.758125 
L 383.128125 175.02375 
Q 383.128125 173.02375 381.128125 173.02375 
L 249.604688 173.02375 
Q 247.604688 173.02375 247.604688 175.02375 
L 247.604688 232.758125 
Q 247.604688 234.758125 249.604688 234.758125 
z
" style="fill:#ffffff;opacity:0.8;stroke:#cccccc;stroke-linejoin:miter;"/>
    </g>
    <g id="text_24">
     <!-- Country (cases in 7 days) -->
     <defs>
      <path d="M 31 75.875 
Q 24.46875 64.65625 21.28125 53.65625 
Q 18.109375 42.671875 18.109375 31.390625 
Q 18.109375 20.125 21.3125 9.0625 
Q 24.515625 -2 31 -13.1875 
L 23.1875 -13.1875 
Q 15.875 -1.703125 12.234375 9.375 
Q 8.59375 20.453125 8.59375 31.390625 
Q 8.59375 42.28125 12.203125 53.3125 
Q 15.828125 64.359375 23.1875 75.875 
z
" id="DejaVuSans-40"/>
      <path d="M 8.203125 72.90625 
L 55.078125 72.90625 
L 55.078125 68.703125 
L 28.609375 0 
L 18.3125 0 
L 43.21875 64.59375 
L 8.203125 64.59375 
z
" id="DejaVuSans-55"/>
      <path d="M 45.40625 46.390625 
L 45.40625 75.984375 
L 54.390625 75.984375 
L 54.390625 0 
L 45.40625 0 
L 45.40625 8.203125 
Q 42.578125 3.328125 38.25 0.953125 
Q 33.9375 -1.421875 27.875 -1.421875 
Q 17.96875 -1.421875 11.734375 6.484375 
Q 5.515625 14.40625 5.515625 27.296875 
Q 5.515625 40.1875 11.734375 48.09375 
Q 17.96875 56 27.875 56 
Q 33.9375 56 38.25 53.625 
Q 42.578125 51.265625 45.40625 46.390625 
z
M 14.796875 27.296875 
Q 14.796875 17.390625 18.875 11.75 
Q 22.953125 6.109375 30.078125 6.109375 
Q 37.203125 6.109375 41.296875 11.75 
Q 45.40625 17.390625 45.40625 27.296875 
Q 45.40625 37.203125 41.296875 42.84375 
Q 37.203125 48.484375 30.078125 48.484375 
Q 22.953125 48.484375 18.875 42.84375 
Q 14.796875 37.203125 14.796875 27.296875 
z
" id="DejaVuSans-100"/>
      <path d="M 8.015625 75.875 
L 15.828125 75.875 
Q 23.140625 64.359375 26.78125 53.3125 
Q 30.421875 42.28125 30.421875 31.390625 
Q 30.421875 20.453125 26.78125 9.375 
Q 23.140625 -1.703125 15.828125 -13.1875 
L 8.015625 -13.1875 
Q 14.5 -2 17.703125 9.0625 
Q 20.90625 20.125 20.90625 31.390625 
Q 20.90625 42.671875 17.703125 53.65625 
Q 14.5 64.65625 8.015625 75.875 
z
" id="DejaVuSans-41"/>
     </defs>
     <g transform="translate(251.604688 184.622187)scale(0.1 -0.1)">
      <use xlink:href="#DejaVuSans-67"/>
      <use x="69.824219" xlink:href="#DejaVuSans-111"/>
      <use x="131.005859" xlink:href="#DejaVuSans-117"/>
      <use x="194.384766" xlink:href="#DejaVuSans-110"/>
      <use x="257.763672" xlink:href="#DejaVuSans-116"/>
      <use x="296.972656" xlink:href="#DejaVuSans-114"/>
      <use x="338.085938" xlink:href="#DejaVuSans-121"/>
      <use x="397.265625" xlink:href="#DejaVuSans-32"/>
      <use x="429.052734" xlink:href="#DejaVuSans-40"/>
      <use x="468.066406" xlink:href="#DejaVuSans-99"/>
      <use x="523.046875" xlink:href="#DejaVuSans-97"/>
      <use x="584.326172" xlink:href="#DejaVuSans-115"/>
      <use x="636.425781" xlink:href="#DejaVuSans-101"/>
      <use x="697.949219" xlink:href="#DejaVuSans-115"/>
      <use x="750.048828" xlink:href="#DejaVuSans-32"/>
      <use x="781.835938" xlink:href="#DejaVuSans-105"/>
      <use x="809.619141" xlink:href="#DejaVuSans-110"/>
      <use x="872.998047" xlink:href="#DejaVuSans-32"/>
      <use x="904.785156" xlink:href="#DejaVuSans-55"/>
      <use x="968.408203" xlink:href="#DejaVuSans-32"/>
      <use x="1000.195312" xlink:href="#DejaVuSans-100"/>
      <use x="1063.671875" xlink:href="#DejaVuSans-97"/>
      <use x="1124.951172" xlink:href="#DejaVuSans-121"/>
      <use x="1184.130859" xlink:href="#DejaVuSans-115"/>
      <use x="1236.230469" xlink:href="#DejaVuSans-41"/>
     </g>
    </g>
    <g id="line2d_53">
     <path d="M 272.866406 195.800312 
L 292.866406 195.800312 
" style="fill:none;stroke:#ff7f0e;stroke-linecap:square;stroke-width:1.5;"/>
    </g>
    <g id="line2d_54">
     <g>
      <use style="fill:#ff7f0e;stroke:#ff7f0e;" x="282.866406" xlink:href="#mb2a2c55d47" y="195.800312"/>
     </g>
    </g>
    <g id="text_25">
     <!-- US (1.2$\times$) -->
     <defs>
      <path d="M 8.6875 72.90625 
L 18.609375 72.90625 
L 18.609375 28.609375 
Q 18.609375 16.890625 22.84375 11.734375 
Q 27.09375 6.59375 36.625 6.59375 
Q 46.09375 6.59375 50.34375 11.734375 
Q 54.59375 16.890625 54.59375 28.609375 
L 54.59375 72.90625 
L 64.5 72.90625 
L 64.5 27.390625 
Q 64.5 13.140625 57.4375 5.859375 
Q 50.390625 -1.421875 36.625 -1.421875 
Q 22.796875 -1.421875 15.734375 5.859375 
Q 8.6875 13.140625 8.6875 27.390625 
z
" id="DejaVuSans-85"/>
      <path d="M 70.125 53.71875 
L 47.796875 31.296875 
L 70.125 8.984375 
L 64.3125 3.078125 
L 41.890625 25.484375 
L 19.484375 3.078125 
L 13.71875 8.984375 
L 35.984375 31.296875 
L 13.71875 53.71875 
L 19.484375 59.625 
L 41.890625 37.203125 
L 64.3125 59.625 
z
" id="DejaVuSans-215"/>
     </defs>
     <g transform="translate(300.866406 199.300312)scale(0.1 -0.1)">
      <use transform="translate(0 0.125)" xlink:href="#DejaVuSans-85"/>
      <use transform="translate(73.193359 0.125)" xlink:href="#DejaVuSans-83"/>
      <use transform="translate(136.669922 0.125)" xlink:href="#DejaVuSans-32"/>
      <use transform="translate(168.457031 0.125)" xlink:href="#DejaVuSans-40"/>
      <use transform="translate(207.470703 0.125)" xlink:href="#DejaVuSans-49"/>
      <use transform="translate(271.09375 0.125)" xlink:href="#DejaVuSans-46"/>
      <use transform="translate(302.802734 0.125)" xlink:href="#DejaVuSans-50"/>
      <use transform="translate(366.425781 0.125)" xlink:href="#DejaVuSans-215"/>
      <use transform="translate(450.214844 0.125)" xlink:href="#DejaVuSans-41"/>
     </g>
    </g>
    <g id="line2d_55">
     <path d="M 272.866406 210.48 
L 292.866406 210.48 
" style="fill:none;stroke:#2ca02c;stroke-linecap:square;stroke-width:1.5;"/>
    </g>
    <g id="line2d_56">
     <g>
      <use style="fill:#2ca02c;stroke:#2ca02c;" x="282.866406" xlink:href="#m02848d288b" y="210.48"/>
     </g>
    </g>
    <g id="text_26">
     <!-- Italy (1.1$\times$) -->
     <defs>
      <path d="M 9.8125 72.90625 
L 19.671875 72.90625 
L 19.671875 0 
L 9.8125 0 
z
" id="DejaVuSans-73"/>
     </defs>
     <g transform="translate(300.866406 213.98)scale(0.1 -0.1)">
      <use transform="translate(0 0.015625)" xlink:href="#DejaVuSans-73"/>
      <use transform="translate(29.492188 0.015625)" xlink:href="#DejaVuSans-116"/>
      <use transform="translate(68.701172 0.015625)" xlink:href="#DejaVuSans-97"/>
      <use transform="translate(129.980469 0.015625)" xlink:href="#DejaVuSans-108"/>
      <use transform="translate(157.763672 0.015625)" xlink:href="#DejaVuSans-121"/>
      <use transform="translate(216.943359 0.015625)" xlink:href="#DejaVuSans-32"/>
      <use transform="translate(248.730469 0.015625)" xlink:href="#DejaVuSans-40"/>
      <use transform="translate(287.744141 0.015625)" xlink:href="#DejaVuSans-49"/>
      <use transform="translate(351.367188 0.015625)" xlink:href="#DejaVuSans-46"/>
      <use transform="translate(383.154297 0.015625)" xlink:href="#DejaVuSans-49"/>
      <use transform="translate(446.777344 0.015625)" xlink:href="#DejaVuSans-215"/>
      <use transform="translate(530.566406 0.015625)" xlink:href="#DejaVuSans-41"/>
     </g>
    </g>
    <g id="line2d_57">
     <path d="M 272.866406 225.178437 
L 292.866406 225.178437 
" style="fill:none;stroke:#1f77b4;stroke-linecap:square;stroke-width:1.5;"/>
    </g>
    <g id="line2d_58">
     <g>
      <use style="fill:#1f77b4;stroke:#1f77b4;" x="282.866406" xlink:href="#ma85505dea8" y="225.178437"/>
     </g>
    </g>
    <g id="text_27">
     <!-- UK (1.2$\times$) -->
     <defs>
      <path d="M 9.8125 72.90625 
L 19.671875 72.90625 
L 19.671875 42.09375 
L 52.390625 72.90625 
L 65.09375 72.90625 
L 28.90625 38.921875 
L 67.671875 0 
L 54.6875 0 
L 19.671875 35.109375 
L 19.671875 0 
L 9.8125 0 
z
" id="DejaVuSans-75"/>
     </defs>
     <g transform="translate(300.866406 228.678437)scale(0.1 -0.1)">
      <use transform="translate(0 0.125)" xlink:href="#DejaVuSans-85"/>
      <use transform="translate(73.177734 0.125)" xlink:href="#DejaVuSans-75"/>
      <use transform="translate(138.753906 0.125)" xlink:href="#DejaVuSans-32"/>
      <use transform="translate(170.541016 0.125)" xlink:href="#DejaVuSans-40"/>
      <use transform="translate(209.554688 0.125)" xlink:href="#DejaVuSans-49"/>
      <use transform="translate(273.177734 0.125)" xlink:href="#DejaVuSans-46"/>
      <use transform="translate(304.886719 0.125)" xlink:href="#DejaVuSans-50"/>
      <use transform="translate(368.509766 0.125)" xlink:href="#DejaVuSans-215"/>
      <use transform="translate(452.298828 0.125)" xlink:href="#DejaVuSans-41"/>
     </g>
    </g>
   </g>
   <g id="legend_2">
    <g id="patch_8">
     <path d="M 62.024125 326.734125 
L 364.524125 326.734125 
Q 366.524125 326.734125 366.524125 324.734125 
L 366.524125 273.960375 
Q 366.524125 271.960375 364.524125 271.960375 
L 62.024125 271.960375 
Q 60.024125 271.960375 60.024125 273.960375 
L 60.024125 324.734125 
Q 60.024125 326.734125 62.024125 326.734125 
z
" style="fill:#ffffff;opacity:0.8;stroke:#cccccc;stroke-linejoin:miter;"/>
    </g>
    <g id="line2d_59">
     <path d="M 64.024125 286.7085 
L 84.024125 286.7085 
" style="fill:none;stroke:#ff7f0e;stroke-linecap:square;stroke-opacity:0.7;stroke-width:1.5;"/>
    </g>
    <g id="line2d_60"/>
    <g id="text_28">
     <!-- 2$\times$ every 2.4 days -->
     <defs>
      <path d="M 37.796875 64.3125 
L 12.890625 25.390625 
L 37.796875 25.390625 
z
M 35.203125 72.90625 
L 47.609375 72.90625 
L 47.609375 25.390625 
L 58.015625 25.390625 
L 58.015625 17.1875 
L 47.609375 17.1875 
L 47.609375 0 
L 37.796875 0 
L 37.796875 17.1875 
L 4.890625 17.1875 
L 4.890625 26.703125 
z
" id="DejaVuSans-52"/>
     </defs>
     <g transform="translate(92.024125 283.560375)scale(0.1 -0.1)">
      <use transform="translate(0 0.015625)" xlink:href="#DejaVuSans-50"/>
      <use transform="translate(63.623047 0.015625)" xlink:href="#DejaVuSans-215"/>
      <use transform="translate(147.412109 0.015625)" xlink:href="#DejaVuSans-32"/>
      <use transform="translate(179.199219 0.015625)" xlink:href="#DejaVuSans-101"/>
      <use transform="translate(240.722656 0.015625)" xlink:href="#DejaVuSans-118"/>
      <use transform="translate(299.902344 0.015625)" xlink:href="#DejaVuSans-101"/>
      <use transform="translate(361.425781 0.015625)" xlink:href="#DejaVuSans-114"/>
      <use transform="translate(402.539062 0.015625)" xlink:href="#DejaVuSans-121"/>
      <use transform="translate(461.71875 0.015625)" xlink:href="#DejaVuSans-32"/>
      <use transform="translate(493.505859 0.015625)" xlink:href="#DejaVuSans-50"/>
      <use transform="translate(557.128906 0.015625)" xlink:href="#DejaVuSans-46"/>
      <use transform="translate(588.916016 0.015625)" xlink:href="#DejaVuSans-52"/>
      <use transform="translate(652.539062 0.015625)" xlink:href="#DejaVuSans-32"/>
      <use transform="translate(684.326172 0.015625)" xlink:href="#DejaVuSans-100"/>
      <use transform="translate(747.802734 0.015625)" xlink:href="#DejaVuSans-97"/>
      <use transform="translate(809.082031 0.015625)" xlink:href="#DejaVuSans-121"/>
      <use transform="translate(868.261719 0.015625)" xlink:href="#DejaVuSans-115"/>
     </g>
     <!-- (all solid lines) -->
     <g transform="translate(92.024125 294.7785)scale(0.1 -0.1)">
      <use xlink:href="#DejaVuSans-40"/>
      <use x="39.013672" xlink:href="#DejaVuSans-97"/>
      <use x="100.292969" xlink:href="#DejaVuSans-108"/>
      <use x="128.076172" xlink:href="#DejaVuSans-108"/>
      <use x="155.859375" xlink:href="#DejaVuSans-32"/>
      <use x="187.646484" xlink:href="#DejaVuSans-115"/>
      <use x="239.746094" xlink:href="#DejaVuSans-111"/>
      <use x="300.927734" xlink:href="#DejaVuSans-108"/>
      <use x="328.710938" xlink:href="#DejaVuSans-105"/>
      <use x="356.494141" xlink:href="#DejaVuSans-100"/>
      <use x="419.970703" xlink:href="#DejaVuSans-32"/>
      <use x="451.757812" xlink:href="#DejaVuSans-108"/>
      <use x="479.541016" xlink:href="#DejaVuSans-105"/>
      <use x="507.324219" xlink:href="#DejaVuSans-110"/>
      <use x="570.703125" xlink:href="#DejaVuSans-101"/>
      <use x="632.226562" xlink:href="#DejaVuSans-115"/>
      <use x="684.326172" xlink:href="#DejaVuSans-41"/>
     </g>
    </g>
    <g id="line2d_61">
     <path d="M 64.024125 312.595375 
L 84.024125 312.595375 
" style="fill:none;stroke:#ff7f0e;stroke-dasharray:7.4,3.2;stroke-dashoffset:0;stroke-opacity:0.7;stroke-width:2;"/>
    </g>
    <g id="line2d_62"/>
    <g id="text_29">
     <!-- Est. health care saturation -->
     <defs>
      <path d="M 9.8125 72.90625 
L 55.90625 72.90625 
L 55.90625 64.59375 
L 19.671875 64.59375 
L 19.671875 43.015625 
L 54.390625 43.015625 
L 54.390625 34.71875 
L 19.671875 34.71875 
L 19.671875 8.296875 
L 56.78125 8.296875 
L 56.78125 0 
L 9.8125 0 
z
" id="DejaVuSans-69"/>
      <path d="M 54.890625 33.015625 
L 54.890625 0 
L 45.90625 0 
L 45.90625 32.71875 
Q 45.90625 40.484375 42.875 44.328125 
Q 39.84375 48.1875 33.796875 48.1875 
Q 26.515625 48.1875 22.3125 43.546875 
Q 18.109375 38.921875 18.109375 30.90625 
L 18.109375 0 
L 9.078125 0 
L 9.078125 75.984375 
L 18.109375 75.984375 
L 18.109375 46.1875 
Q 21.34375 51.125 25.703125 53.5625 
Q 30.078125 56 35.796875 56 
Q 45.21875 56 50.046875 50.171875 
Q 54.890625 44.34375 54.890625 33.015625 
z
" id="DejaVuSans-104"/>
     </defs>
     <g transform="translate(92.024125 309.456625)scale(0.1 -0.1)">
      <use xlink:href="#DejaVuSans-69"/>
      <use x="63.183594" xlink:href="#DejaVuSans-115"/>
      <use x="115.283203" xlink:href="#DejaVuSans-116"/>
      <use x="154.492188" xlink:href="#DejaVuSans-46"/>
      <use x="186.279297" xlink:href="#DejaVuSans-32"/>
      <use x="218.066406" xlink:href="#DejaVuSans-104"/>
      <use x="281.445312" xlink:href="#DejaVuSans-101"/>
      <use x="342.96875" xlink:href="#DejaVuSans-97"/>
      <use x="404.248047" xlink:href="#DejaVuSans-108"/>
      <use x="432.03125" xlink:href="#DejaVuSans-116"/>
      <use x="471.240234" xlink:href="#DejaVuSans-104"/>
      <use x="534.619141" xlink:href="#DejaVuSans-32"/>
      <use x="566.40625" xlink:href="#DejaVuSans-99"/>
      <use x="621.386719" xlink:href="#DejaVuSans-97"/>
      <use x="682.666016" xlink:href="#DejaVuSans-114"/>
      <use x="723.748047" xlink:href="#DejaVuSans-101"/>
      <use x="785.271484" xlink:href="#DejaVuSans-32"/>
      <use x="817.058594" xlink:href="#DejaVuSans-115"/>
      <use x="869.158203" xlink:href="#DejaVuSans-97"/>
      <use x="930.4375" xlink:href="#DejaVuSans-116"/>
      <use x="969.646484" xlink:href="#DejaVuSans-117"/>
      <use x="1033.025391" xlink:href="#DejaVuSans-114"/>
      <use x="1074.138672" xlink:href="#DejaVuSans-97"/>
      <use x="1135.417969" xlink:href="#DejaVuSans-116"/>
      <use x="1174.626953" xlink:href="#DejaVuSans-105"/>
      <use x="1202.410156" xlink:href="#DejaVuSans-111"/>
      <use x="1263.591797" xlink:href="#DejaVuSans-110"/>
     </g>
     <!-- (all dotted lines) -->
     <g transform="translate(92.024125 320.654437)scale(0.1 -0.1)">
      <use xlink:href="#DejaVuSans-40"/>
      <use x="39.013672" xlink:href="#DejaVuSans-97"/>
      <use x="100.292969" xlink:href="#DejaVuSans-108"/>
      <use x="128.076172" xlink:href="#DejaVuSans-108"/>
      <use x="155.859375" xlink:href="#DejaVuSans-32"/>
      <use x="187.646484" xlink:href="#DejaVuSans-100"/>
      <use x="251.123047" xlink:href="#DejaVuSans-111"/>
      <use x="312.304688" xlink:href="#DejaVuSans-116"/>
      <use x="351.513672" xlink:href="#DejaVuSans-116"/>
      <use x="390.722656" xlink:href="#DejaVuSans-101"/>
      <use x="452.246094" xlink:href="#DejaVuSans-100"/>
      <use x="515.722656" xlink:href="#DejaVuSans-32"/>
      <use x="547.509766" xlink:href="#DejaVuSans-108"/>
      <use x="575.292969" xlink:href="#DejaVuSans-105"/>
      <use x="603.076172" xlink:href="#DejaVuSans-110"/>
      <use x="666.455078" xlink:href="#DejaVuSans-101"/>
      <use x="727.978516" xlink:href="#DejaVuSans-115"/>
      <use x="780.078125" xlink:href="#DejaVuSans-41"/>
     </g>
    </g>
    <g id="line2d_63">
     <path d="M 244.716313 286.7085 
L 264.716313 286.7085 
" style="fill:none;stroke:#2ca02c;stroke-dasharray:12.8,3.2,2,3.2;stroke-dashoffset:0;stroke-opacity:0.7;stroke-width:2;"/>
    </g>
    <g id="line2d_64"/>
    <g id="text_30">
     <!-- Actual health -->
     <g transform="translate(272.716313 283.56975)scale(0.1 -0.1)">
      <use xlink:href="#DejaVuSans-65"/>
      <use x="68.392578" xlink:href="#DejaVuSans-99"/>
      <use x="123.373047" xlink:href="#DejaVuSans-116"/>
      <use x="162.582031" xlink:href="#DejaVuSans-117"/>
      <use x="225.960938" xlink:href="#DejaVuSans-97"/>
      <use x="287.240234" xlink:href="#DejaVuSans-108"/>
      <use x="315.023438" xlink:href="#DejaVuSans-32"/>
      <use x="346.810547" xlink:href="#DejaVuSans-104"/>
      <use x="410.189453" xlink:href="#DejaVuSans-101"/>
      <use x="471.712891" xlink:href="#DejaVuSans-97"/>
      <use x="532.992188" xlink:href="#DejaVuSans-108"/>
      <use x="560.775391" xlink:href="#DejaVuSans-116"/>
      <use x="599.984375" xlink:href="#DejaVuSans-104"/>
     </g>
     <!-- care saturation -->
     <g transform="translate(272.716313 294.767562)scale(0.1 -0.1)">
      <use xlink:href="#DejaVuSans-99"/>
      <use x="54.980469" xlink:href="#DejaVuSans-97"/>
      <use x="116.259766" xlink:href="#DejaVuSans-114"/>
      <use x="157.341797" xlink:href="#DejaVuSans-101"/>
      <use x="218.865234" xlink:href="#DejaVuSans-32"/>
      <use x="250.652344" xlink:href="#DejaVuSans-115"/>
      <use x="302.751953" xlink:href="#DejaVuSans-97"/>
      <use x="364.03125" xlink:href="#DejaVuSans-116"/>
      <use x="403.240234" xlink:href="#DejaVuSans-117"/>
      <use x="466.619141" xlink:href="#DejaVuSans-114"/>
      <use x="507.732422" xlink:href="#DejaVuSans-97"/>
      <use x="569.011719" xlink:href="#DejaVuSans-116"/>
      <use x="608.220703" xlink:href="#DejaVuSans-105"/>
      <use x="636.003906" xlink:href="#DejaVuSans-111"/>
      <use x="697.185547" xlink:href="#DejaVuSans-110"/>
     </g>
    </g>
    <g id="line2d_65">
     <path d="M 244.716313 312.584437 
L 264.716313 312.584437 
" style="fill:none;stroke:#ff7f0e;stroke-linecap:square;stroke-opacity:0.3;stroke-width:4;"/>
    </g>
    <g id="line2d_66"/>
    <g id="text_31">
     <!-- Started social -->
     <g transform="translate(272.716313 309.445687)scale(0.1 -0.1)">
      <use xlink:href="#DejaVuSans-83"/>
      <use x="63.476562" xlink:href="#DejaVuSans-116"/>
      <use x="102.685547" xlink:href="#DejaVuSans-97"/>
      <use x="163.964844" xlink:href="#DejaVuSans-114"/>
      <use x="205.078125" xlink:href="#DejaVuSans-116"/>
      <use x="244.287109" xlink:href="#DejaVuSans-101"/>
      <use x="305.810547" xlink:href="#DejaVuSans-100"/>
      <use x="369.287109" xlink:href="#DejaVuSans-32"/>
      <use x="401.074219" xlink:href="#DejaVuSans-115"/>
      <use x="453.173828" xlink:href="#DejaVuSans-111"/>
      <use x="514.355469" xlink:href="#DejaVuSans-99"/>
      <use x="569.335938" xlink:href="#DejaVuSans-105"/>
      <use x="597.119141" xlink:href="#DejaVuSans-97"/>
      <use x="658.398438" xlink:href="#DejaVuSans-108"/>
     </g>
     <!-- isolation (all bars) -->
     <g transform="translate(272.716313 320.6435)scale(0.1 -0.1)">
      <use xlink:href="#DejaVuSans-105"/>
      <use x="27.783203" xlink:href="#DejaVuSans-115"/>
      <use x="79.882812" xlink:href="#DejaVuSans-111"/>
      <use x="141.064453" xlink:href="#DejaVuSans-108"/>
      <use x="168.847656" xlink:href="#DejaVuSans-97"/>
      <use x="230.126953" xlink:href="#DejaVuSans-116"/>
      <use x="269.335938" xlink:href="#DejaVuSans-105"/>
      <use x="297.119141" xlink:href="#DejaVuSans-111"/>
      <use x="358.300781" xlink:href="#DejaVuSans-110"/>
      <use x="421.679688" xlink:href="#DejaVuSans-32"/>
      <use x="453.466797" xlink:href="#DejaVuSans-40"/>
      <use x="492.480469" xlink:href="#DejaVuSans-97"/>
      <use x="553.759766" xlink:href="#DejaVuSans-108"/>
      <use x="581.542969" xlink:href="#DejaVuSans-108"/>
      <use x="609.326172" xlink:href="#DejaVuSans-32"/>
      <use x="641.113281" xlink:href="#DejaVuSans-98"/>
      <use x="704.589844" xlink:href="#DejaVuSans-97"/>
      <use x="765.869141" xlink:href="#DejaVuSans-114"/>
      <use x="806.982422" xlink:href="#DejaVuSans-115"/>
      <use x="859.082031" xlink:href="#DejaVuSans-41"/>
     </g>
    </g>
   </g>
  </g>
 </g>
 <defs>
  <clipPath id="pa5c182d705">
   <rect height="217.44" width="334.8" x="53.328125" y="22.318125"/>
  </clipPath>
 </defs>
</svg>
