<?xml version="1.0" encoding="utf-8" standalone="no"?>
<!DOCTYPE svg PUBLIC "-//W3C//DTD SVG 1.1//EN"
  "http://www.w3.org/Graphics/SVG/1.1/DTD/svg11.dtd">
<!-- Created with matplotlib (https://matplotlib.org/) -->
<svg height="285.216117pt" version="1.1" viewBox="0 0 414.208625 285.216117" width="414.208625pt" xmlns="http://www.w3.org/2000/svg" xmlns:xlink="http://www.w3.org/1999/xlink">
 <defs>
  <style type="text/css">
*{stroke-linecap:butt;stroke-linejoin:round;}
  </style>
 </defs>
 <g id="figure_1">
  <g id="patch_1">
   <path d="M 0 285.216117 
L 414.208625 285.216117 
L 414.208625 0 
L 0 0 
z
" style="fill:#ffffff;"/>
  </g>
  <g id="axes_1">
   <g id="patch_2">
    <path d="M 62.86875 239.758125 
L 397.66875 239.758125 
L 397.66875 22.318125 
L 62.86875 22.318125 
z
" style="fill:#ffffff;"/>
   </g>
   <g id="matplotlib.axis_1">
    <g id="xtick_1">
     <g id="line2d_1">
      <path clip-path="url(#p09f12ca80d)" d="M 62.86875 239.758125 
L 62.86875 22.318125 
" style="fill:none;stroke:#b0b0b0;stroke-linecap:square;stroke-opacity:0.8;stroke-width:0.8;"/>
     </g>
     <g id="line2d_2">
      <defs>
       <path d="M 0 0 
L 0 3.5 
" id="m14c2d99865" style="stroke:#000000;stroke-width:0.8;"/>
      </defs>
      <g>
       <use style="stroke:#000000;stroke-width:0.8;" x="62.86875" xlink:href="#m14c2d99865" y="239.758125"/>
      </g>
     </g>
     <g id="text_1">
      <!-- Mar. -->
      <defs>
       <path d="M 9.8125 72.90625 
L 24.515625 72.90625 
L 43.109375 23.296875 
L 61.8125 72.90625 
L 76.515625 72.90625 
L 76.515625 0 
L 66.890625 0 
L 66.890625 64.015625 
L 48.09375 14.015625 
L 38.1875 14.015625 
L 19.390625 64.015625 
L 19.390625 0 
L 9.8125 0 
z
" id="DejaVuSans-77"/>
       <path d="M 34.28125 27.484375 
Q 23.390625 27.484375 19.1875 25 
Q 14.984375 22.515625 14.984375 16.5 
Q 14.984375 11.71875 18.140625 8.90625 
Q 21.296875 6.109375 26.703125 6.109375 
Q 34.1875 6.109375 38.703125 11.40625 
Q 43.21875 16.703125 43.21875 25.484375 
L 43.21875 27.484375 
z
M 52.203125 31.203125 
L 52.203125 0 
L 43.21875 0 
L 43.21875 8.296875 
Q 40.140625 3.328125 35.546875 0.953125 
Q 30.953125 -1.421875 24.3125 -1.421875 
Q 15.921875 -1.421875 10.953125 3.296875 
Q 6 8.015625 6 15.921875 
Q 6 25.140625 12.171875 29.828125 
Q 18.359375 34.515625 30.609375 34.515625 
L 43.21875 34.515625 
L 43.21875 35.40625 
Q 43.21875 41.609375 39.140625 45 
Q 35.0625 48.390625 27.6875 48.390625 
Q 23 48.390625 18.546875 47.265625 
Q 14.109375 46.140625 10.015625 43.890625 
L 10.015625 52.203125 
Q 14.9375 54.109375 19.578125 55.046875 
Q 24.21875 56 28.609375 56 
Q 40.484375 56 46.34375 49.84375 
Q 52.203125 43.703125 52.203125 31.203125 
z
" id="DejaVuSans-97"/>
       <path d="M 41.109375 46.296875 
Q 39.59375 47.171875 37.8125 47.578125 
Q 36.03125 48 33.890625 48 
Q 26.265625 48 22.1875 43.046875 
Q 18.109375 38.09375 18.109375 28.8125 
L 18.109375 0 
L 9.078125 0 
L 9.078125 54.6875 
L 18.109375 54.6875 
L 18.109375 46.1875 
Q 20.953125 51.171875 25.484375 53.578125 
Q 30.03125 56 36.53125 56 
Q 37.453125 56 38.578125 55.875 
Q 39.703125 55.765625 41.0625 55.515625 
z
" id="DejaVuSans-114"/>
       <path d="M 10.6875 12.40625 
L 21 12.40625 
L 21 0 
L 10.6875 0 
z
" id="DejaVuSans-46"/>
      </defs>
      <g transform="translate(51.853125 254.356562)scale(0.1 -0.1)">
       <use xlink:href="#DejaVuSans-77"/>
       <use x="86.279297" xlink:href="#DejaVuSans-97"/>
       <use x="147.558594" xlink:href="#DejaVuSans-114"/>
       <use x="188.53125" xlink:href="#DejaVuSans-46"/>
      </g>
      <!-- 09 -->
      <defs>
       <path d="M 31.78125 66.40625 
Q 24.171875 66.40625 20.328125 58.90625 
Q 16.5 51.421875 16.5 36.375 
Q 16.5 21.390625 20.328125 13.890625 
Q 24.171875 6.390625 31.78125 6.390625 
Q 39.453125 6.390625 43.28125 13.890625 
Q 47.125 21.390625 47.125 36.375 
Q 47.125 51.421875 43.28125 58.90625 
Q 39.453125 66.40625 31.78125 66.40625 
z
M 31.78125 74.21875 
Q 44.046875 74.21875 50.515625 64.515625 
Q 56.984375 54.828125 56.984375 36.375 
Q 56.984375 17.96875 50.515625 8.265625 
Q 44.046875 -1.421875 31.78125 -1.421875 
Q 19.53125 -1.421875 13.0625 8.265625 
Q 6.59375 17.96875 6.59375 36.375 
Q 6.59375 54.828125 13.0625 64.515625 
Q 19.53125 74.21875 31.78125 74.21875 
z
" id="DejaVuSans-48"/>
       <path d="M 10.984375 1.515625 
L 10.984375 10.5 
Q 14.703125 8.734375 18.5 7.8125 
Q 22.3125 6.890625 25.984375 6.890625 
Q 35.75 6.890625 40.890625 13.453125 
Q 46.046875 20.015625 46.78125 33.40625 
Q 43.953125 29.203125 39.59375 26.953125 
Q 35.25 24.703125 29.984375 24.703125 
Q 19.046875 24.703125 12.671875 31.3125 
Q 6.296875 37.9375 6.296875 49.421875 
Q 6.296875 60.640625 12.9375 67.421875 
Q 19.578125 74.21875 30.609375 74.21875 
Q 43.265625 74.21875 49.921875 64.515625 
Q 56.59375 54.828125 56.59375 36.375 
Q 56.59375 19.140625 48.40625 8.859375 
Q 40.234375 -1.421875 26.421875 -1.421875 
Q 22.703125 -1.421875 18.890625 -0.6875 
Q 15.09375 0.046875 10.984375 1.515625 
z
M 30.609375 32.421875 
Q 37.25 32.421875 41.125 36.953125 
Q 45.015625 41.5 45.015625 49.421875 
Q 45.015625 57.28125 41.125 61.84375 
Q 37.25 66.40625 30.609375 66.40625 
Q 23.96875 66.40625 20.09375 61.84375 
Q 16.21875 57.28125 16.21875 49.421875 
Q 16.21875 41.5 20.09375 36.953125 
Q 23.96875 32.421875 30.609375 32.421875 
z
" id="DejaVuSans-57"/>
      </defs>
      <g transform="translate(56.50625 265.554375)scale(0.1 -0.1)">
       <use xlink:href="#DejaVuSans-48"/>
       <use x="63.623047" xlink:href="#DejaVuSans-57"/>
      </g>
     </g>
    </g>
    <g id="xtick_2">
     <g id="line2d_3">
      <path clip-path="url(#p09f12ca80d)" d="M 101.843286 239.758125 
L 101.843286 22.318125 
" style="fill:none;stroke:#b0b0b0;stroke-linecap:square;stroke-opacity:0.8;stroke-width:0.8;"/>
     </g>
     <g id="line2d_4">
      <g>
       <use style="stroke:#000000;stroke-width:0.8;" x="101.843286" xlink:href="#m14c2d99865" y="239.758125"/>
      </g>
     </g>
     <g id="text_2">
      <!-- Mar. -->
      <g transform="translate(90.827661 254.356562)scale(0.1 -0.1)">
       <use xlink:href="#DejaVuSans-77"/>
       <use x="86.279297" xlink:href="#DejaVuSans-97"/>
       <use x="147.558594" xlink:href="#DejaVuSans-114"/>
       <use x="188.53125" xlink:href="#DejaVuSans-46"/>
      </g>
      <!-- 13 -->
      <defs>
       <path d="M 12.40625 8.296875 
L 28.515625 8.296875 
L 28.515625 63.921875 
L 10.984375 60.40625 
L 10.984375 69.390625 
L 28.421875 72.90625 
L 38.28125 72.90625 
L 38.28125 8.296875 
L 54.390625 8.296875 
L 54.390625 0 
L 12.40625 0 
z
" id="DejaVuSans-49"/>
       <path d="M 40.578125 39.3125 
Q 47.65625 37.796875 51.625 33 
Q 55.609375 28.21875 55.609375 21.1875 
Q 55.609375 10.40625 48.1875 4.484375 
Q 40.765625 -1.421875 27.09375 -1.421875 
Q 22.515625 -1.421875 17.65625 -0.515625 
Q 12.796875 0.390625 7.625 2.203125 
L 7.625 11.71875 
Q 11.71875 9.328125 16.59375 8.109375 
Q 21.484375 6.890625 26.8125 6.890625 
Q 36.078125 6.890625 40.9375 10.546875 
Q 45.796875 14.203125 45.796875 21.1875 
Q 45.796875 27.640625 41.28125 31.265625 
Q 36.765625 34.90625 28.71875 34.90625 
L 20.21875 34.90625 
L 20.21875 43.015625 
L 29.109375 43.015625 
Q 36.375 43.015625 40.234375 45.921875 
Q 44.09375 48.828125 44.09375 54.296875 
Q 44.09375 59.90625 40.109375 62.90625 
Q 36.140625 65.921875 28.71875 65.921875 
Q 24.65625 65.921875 20.015625 65.03125 
Q 15.375 64.15625 9.8125 62.3125 
L 9.8125 71.09375 
Q 15.4375 72.65625 20.34375 73.4375 
Q 25.25 74.21875 29.59375 74.21875 
Q 40.828125 74.21875 47.359375 69.109375 
Q 53.90625 64.015625 53.90625 55.328125 
Q 53.90625 49.265625 50.4375 45.09375 
Q 46.96875 40.921875 40.578125 39.3125 
z
" id="DejaVuSans-51"/>
      </defs>
      <g transform="translate(95.480786 265.554375)scale(0.1 -0.1)">
       <use xlink:href="#DejaVuSans-49"/>
       <use x="63.623047" xlink:href="#DejaVuSans-51"/>
      </g>
     </g>
    </g>
    <g id="xtick_3">
     <g id="line2d_5">
      <path clip-path="url(#p09f12ca80d)" d="M 140.817821 239.758125 
L 140.817821 22.318125 
" style="fill:none;stroke:#b0b0b0;stroke-linecap:square;stroke-opacity:0.8;stroke-width:0.8;"/>
     </g>
     <g id="line2d_6">
      <g>
       <use style="stroke:#000000;stroke-width:0.8;" x="140.817821" xlink:href="#m14c2d99865" y="239.758125"/>
      </g>
     </g>
     <g id="text_3">
      <!-- Mar. -->
      <g transform="translate(129.802196 254.356562)scale(0.1 -0.1)">
       <use xlink:href="#DejaVuSans-77"/>
       <use x="86.279297" xlink:href="#DejaVuSans-97"/>
       <use x="147.558594" xlink:href="#DejaVuSans-114"/>
       <use x="188.53125" xlink:href="#DejaVuSans-46"/>
      </g>
      <!-- 17 -->
      <defs>
       <path d="M 8.203125 72.90625 
L 55.078125 72.90625 
L 55.078125 68.703125 
L 28.609375 0 
L 18.3125 0 
L 43.21875 64.59375 
L 8.203125 64.59375 
z
" id="DejaVuSans-55"/>
      </defs>
      <g transform="translate(134.455321 265.554375)scale(0.1 -0.1)">
       <use xlink:href="#DejaVuSans-49"/>
       <use x="63.623047" xlink:href="#DejaVuSans-55"/>
      </g>
     </g>
    </g>
    <g id="xtick_4">
     <g id="line2d_7">
      <path clip-path="url(#p09f12ca80d)" d="M 179.792357 239.758125 
L 179.792357 22.318125 
" style="fill:none;stroke:#b0b0b0;stroke-linecap:square;stroke-opacity:0.8;stroke-width:0.8;"/>
     </g>
     <g id="line2d_8">
      <g>
       <use style="stroke:#000000;stroke-width:0.8;" x="179.792357" xlink:href="#m14c2d99865" y="239.758125"/>
      </g>
     </g>
     <g id="text_4">
      <!-- Mar. -->
      <g transform="translate(168.776732 254.356562)scale(0.1 -0.1)">
       <use xlink:href="#DejaVuSans-77"/>
       <use x="86.279297" xlink:href="#DejaVuSans-97"/>
       <use x="147.558594" xlink:href="#DejaVuSans-114"/>
       <use x="188.53125" xlink:href="#DejaVuSans-46"/>
      </g>
      <!-- 21 -->
      <defs>
       <path d="M 19.1875 8.296875 
L 53.609375 8.296875 
L 53.609375 0 
L 7.328125 0 
L 7.328125 8.296875 
Q 12.9375 14.109375 22.625 23.890625 
Q 32.328125 33.6875 34.8125 36.53125 
Q 39.546875 41.84375 41.421875 45.53125 
Q 43.3125 49.21875 43.3125 52.78125 
Q 43.3125 58.59375 39.234375 62.25 
Q 35.15625 65.921875 28.609375 65.921875 
Q 23.96875 65.921875 18.8125 64.3125 
Q 13.671875 62.703125 7.8125 59.421875 
L 7.8125 69.390625 
Q 13.765625 71.78125 18.9375 73 
Q 24.125 74.21875 28.421875 74.21875 
Q 39.75 74.21875 46.484375 68.546875 
Q 53.21875 62.890625 53.21875 53.421875 
Q 53.21875 48.921875 51.53125 44.890625 
Q 49.859375 40.875 45.40625 35.40625 
Q 44.1875 33.984375 37.640625 27.21875 
Q 31.109375 20.453125 19.1875 8.296875 
z
" id="DejaVuSans-50"/>
      </defs>
      <g transform="translate(173.429857 265.554375)scale(0.1 -0.1)">
       <use xlink:href="#DejaVuSans-50"/>
       <use x="63.623047" xlink:href="#DejaVuSans-49"/>
      </g>
     </g>
    </g>
    <g id="xtick_5">
     <g id="line2d_9">
      <path clip-path="url(#p09f12ca80d)" d="M 218.766893 239.758125 
L 218.766893 22.318125 
" style="fill:none;stroke:#b0b0b0;stroke-linecap:square;stroke-opacity:0.8;stroke-width:0.8;"/>
     </g>
     <g id="line2d_10">
      <g>
       <use style="stroke:#000000;stroke-width:0.8;" x="218.766893" xlink:href="#m14c2d99865" y="239.758125"/>
      </g>
     </g>
     <g id="text_5">
      <!-- Mar. -->
      <g transform="translate(207.751268 254.356562)scale(0.1 -0.1)">
       <use xlink:href="#DejaVuSans-77"/>
       <use x="86.279297" xlink:href="#DejaVuSans-97"/>
       <use x="147.558594" xlink:href="#DejaVuSans-114"/>
       <use x="188.53125" xlink:href="#DejaVuSans-46"/>
      </g>
      <!-- 25 -->
      <defs>
       <path d="M 10.796875 72.90625 
L 49.515625 72.90625 
L 49.515625 64.59375 
L 19.828125 64.59375 
L 19.828125 46.734375 
Q 21.96875 47.46875 24.109375 47.828125 
Q 26.265625 48.1875 28.421875 48.1875 
Q 40.625 48.1875 47.75 41.5 
Q 54.890625 34.8125 54.890625 23.390625 
Q 54.890625 11.625 47.5625 5.09375 
Q 40.234375 -1.421875 26.90625 -1.421875 
Q 22.3125 -1.421875 17.546875 -0.640625 
Q 12.796875 0.140625 7.71875 1.703125 
L 7.71875 11.625 
Q 12.109375 9.234375 16.796875 8.0625 
Q 21.484375 6.890625 26.703125 6.890625 
Q 35.15625 6.890625 40.078125 11.328125 
Q 45.015625 15.765625 45.015625 23.390625 
Q 45.015625 31 40.078125 35.4375 
Q 35.15625 39.890625 26.703125 39.890625 
Q 22.75 39.890625 18.8125 39.015625 
Q 14.890625 38.140625 10.796875 36.28125 
z
" id="DejaVuSans-53"/>
      </defs>
      <g transform="translate(212.404393 265.554375)scale(0.1 -0.1)">
       <use xlink:href="#DejaVuSans-50"/>
       <use x="63.623047" xlink:href="#DejaVuSans-53"/>
      </g>
     </g>
    </g>
    <g id="xtick_6">
     <g id="line2d_11">
      <path clip-path="url(#p09f12ca80d)" d="M 257.741429 239.758125 
L 257.741429 22.318125 
" style="fill:none;stroke:#b0b0b0;stroke-linecap:square;stroke-opacity:0.8;stroke-width:0.8;"/>
     </g>
     <g id="line2d_12">
      <g>
       <use style="stroke:#000000;stroke-width:0.8;" x="257.741429" xlink:href="#m14c2d99865" y="239.758125"/>
      </g>
     </g>
     <g id="text_6">
      <!-- Mar. -->
      <g transform="translate(246.725804 254.356562)scale(0.1 -0.1)">
       <use xlink:href="#DejaVuSans-77"/>
       <use x="86.279297" xlink:href="#DejaVuSans-97"/>
       <use x="147.558594" xlink:href="#DejaVuSans-114"/>
       <use x="188.53125" xlink:href="#DejaVuSans-46"/>
      </g>
      <!-- 29 -->
      <g transform="translate(251.378929 265.554375)scale(0.1 -0.1)">
       <use xlink:href="#DejaVuSans-50"/>
       <use x="63.623047" xlink:href="#DejaVuSans-57"/>
      </g>
     </g>
    </g>
    <g id="xtick_7">
     <g id="line2d_13">
      <path clip-path="url(#p09f12ca80d)" d="M 286.97233 239.758125 
L 286.97233 22.318125 
" style="fill:none;stroke:#b0b0b0;stroke-linecap:square;stroke-opacity:0.8;stroke-width:0.8;"/>
     </g>
     <g id="line2d_14">
      <g>
       <use style="stroke:#000000;stroke-width:0.8;" x="286.97233" xlink:href="#m14c2d99865" y="239.758125"/>
      </g>
     </g>
     <g id="text_7">
      <!-- Apr. -->
      <defs>
       <path d="M 34.1875 63.1875 
L 20.796875 26.90625 
L 47.609375 26.90625 
z
M 28.609375 72.90625 
L 39.796875 72.90625 
L 67.578125 0 
L 57.328125 0 
L 50.6875 18.703125 
L 17.828125 18.703125 
L 11.1875 0 
L 0.78125 0 
z
" id="DejaVuSans-65"/>
       <path d="M 18.109375 8.203125 
L 18.109375 -20.796875 
L 9.078125 -20.796875 
L 9.078125 54.6875 
L 18.109375 54.6875 
L 18.109375 46.390625 
Q 20.953125 51.265625 25.265625 53.625 
Q 29.59375 56 35.59375 56 
Q 45.5625 56 51.78125 48.09375 
Q 58.015625 40.1875 58.015625 27.296875 
Q 58.015625 14.40625 51.78125 6.484375 
Q 45.5625 -1.421875 35.59375 -1.421875 
Q 29.59375 -1.421875 25.265625 0.953125 
Q 20.953125 3.328125 18.109375 8.203125 
z
M 48.6875 27.296875 
Q 48.6875 37.203125 44.609375 42.84375 
Q 40.53125 48.484375 33.40625 48.484375 
Q 26.265625 48.484375 22.1875 42.84375 
Q 18.109375 37.203125 18.109375 27.296875 
Q 18.109375 17.390625 22.1875 11.75 
Q 26.265625 6.109375 33.40625 6.109375 
Q 40.53125 6.109375 44.609375 11.75 
Q 48.6875 17.390625 48.6875 27.296875 
z
" id="DejaVuSans-112"/>
      </defs>
      <g transform="translate(276.740299 254.356562)scale(0.1 -0.1)">
       <use xlink:href="#DejaVuSans-65"/>
       <use x="68.408203" xlink:href="#DejaVuSans-112"/>
       <use x="131.884766" xlink:href="#DejaVuSans-114"/>
       <use x="172.857422" xlink:href="#DejaVuSans-46"/>
      </g>
      <!-- 01 -->
      <g transform="translate(280.60983 265.554375)scale(0.1 -0.1)">
       <use xlink:href="#DejaVuSans-48"/>
       <use x="63.623047" xlink:href="#DejaVuSans-49"/>
      </g>
     </g>
    </g>
    <g id="xtick_8">
     <g id="line2d_15">
      <path clip-path="url(#p09f12ca80d)" d="M 325.946866 239.758125 
L 325.946866 22.318125 
" style="fill:none;stroke:#b0b0b0;stroke-linecap:square;stroke-opacity:0.8;stroke-width:0.8;"/>
     </g>
     <g id="line2d_16">
      <g>
       <use style="stroke:#000000;stroke-width:0.8;" x="325.946866" xlink:href="#m14c2d99865" y="239.758125"/>
      </g>
     </g>
     <g id="text_8">
      <!-- Apr. -->
      <g transform="translate(315.714835 254.356562)scale(0.1 -0.1)">
       <use xlink:href="#DejaVuSans-65"/>
       <use x="68.408203" xlink:href="#DejaVuSans-112"/>
       <use x="131.884766" xlink:href="#DejaVuSans-114"/>
       <use x="172.857422" xlink:href="#DejaVuSans-46"/>
      </g>
      <!-- 05 -->
      <g transform="translate(319.584366 265.554375)scale(0.1 -0.1)">
       <use xlink:href="#DejaVuSans-48"/>
       <use x="63.623047" xlink:href="#DejaVuSans-53"/>
      </g>
     </g>
    </g>
    <g id="xtick_9">
     <g id="line2d_17">
      <path clip-path="url(#p09f12ca80d)" d="M 364.921402 239.758125 
L 364.921402 22.318125 
" style="fill:none;stroke:#b0b0b0;stroke-linecap:square;stroke-opacity:0.8;stroke-width:0.8;"/>
     </g>
     <g id="line2d_18">
      <g>
       <use style="stroke:#000000;stroke-width:0.8;" x="364.921402" xlink:href="#m14c2d99865" y="239.758125"/>
      </g>
     </g>
     <g id="text_9">
      <!-- Apr. -->
      <g transform="translate(354.689371 254.356562)scale(0.1 -0.1)">
       <use xlink:href="#DejaVuSans-65"/>
       <use x="68.408203" xlink:href="#DejaVuSans-112"/>
       <use x="131.884766" xlink:href="#DejaVuSans-114"/>
       <use x="172.857422" xlink:href="#DejaVuSans-46"/>
      </g>
      <!-- 09 -->
      <g transform="translate(358.558902 265.554375)scale(0.1 -0.1)">
       <use xlink:href="#DejaVuSans-48"/>
       <use x="63.623047" xlink:href="#DejaVuSans-57"/>
      </g>
     </g>
    </g>
   </g>
   <g id="matplotlib.axis_2">
    <g id="ytick_1">
     <g id="line2d_19">
      <path clip-path="url(#p09f12ca80d)" d="M 62.86875 239.758125 
L 397.66875 239.758125 
" style="fill:none;stroke:#b0b0b0;stroke-linecap:square;stroke-opacity:0.8;stroke-width:0.8;"/>
     </g>
     <g id="line2d_20">
      <defs>
       <path d="M 0 0 
L -3.5 0 
" id="m10314b467d" style="stroke:#000000;stroke-width:0.8;"/>
      </defs>
      <g>
       <use style="stroke:#000000;stroke-width:0.8;" x="62.86875" xlink:href="#m10314b467d" y="239.758125"/>
      </g>
     </g>
     <g id="text_10">
      <!-- 2 -->
      <g transform="translate(49.50625 243.557344)scale(0.1 -0.1)">
       <use xlink:href="#DejaVuSans-50"/>
      </g>
     </g>
    </g>
    <g id="ytick_2">
     <g id="line2d_21">
      <path clip-path="url(#p09f12ca80d)" d="M 62.86875 219.160968 
L 397.66875 219.160968 
" style="fill:none;stroke:#b0b0b0;stroke-linecap:square;stroke-opacity:0.8;stroke-width:0.8;"/>
     </g>
     <g id="line2d_22">
      <g>
       <use style="stroke:#000000;stroke-width:0.8;" x="62.86875" xlink:href="#m10314b467d" y="219.160968"/>
      </g>
     </g>
     <g id="text_11">
      <!-- 5 -->
      <g transform="translate(49.50625 222.960187)scale(0.1 -0.1)">
       <use xlink:href="#DejaVuSans-53"/>
      </g>
     </g>
    </g>
    <g id="ytick_3">
     <g id="line2d_23">
      <path clip-path="url(#p09f12ca80d)" d="M 62.86875 203.579821 
L 397.66875 203.579821 
" style="fill:none;stroke:#b0b0b0;stroke-linecap:square;stroke-opacity:0.8;stroke-width:0.8;"/>
     </g>
     <g id="line2d_24">
      <g>
       <use style="stroke:#000000;stroke-width:0.8;" x="62.86875" xlink:href="#m10314b467d" y="203.579821"/>
      </g>
     </g>
     <g id="text_12">
      <!-- 10 -->
      <g transform="translate(43.14375 207.37904)scale(0.1 -0.1)">
       <use xlink:href="#DejaVuSans-49"/>
       <use x="63.623047" xlink:href="#DejaVuSans-48"/>
      </g>
     </g>
    </g>
    <g id="ytick_4">
     <g id="line2d_25">
      <path clip-path="url(#p09f12ca80d)" d="M 62.86875 187.998673 
L 397.66875 187.998673 
" style="fill:none;stroke:#b0b0b0;stroke-linecap:square;stroke-opacity:0.8;stroke-width:0.8;"/>
     </g>
     <g id="line2d_26">
      <g>
       <use style="stroke:#000000;stroke-width:0.8;" x="62.86875" xlink:href="#m10314b467d" y="187.998673"/>
      </g>
     </g>
     <g id="text_13">
      <!-- 20 -->
      <g transform="translate(43.14375 191.797892)scale(0.1 -0.1)">
       <use xlink:href="#DejaVuSans-50"/>
       <use x="63.623047" xlink:href="#DejaVuSans-48"/>
      </g>
     </g>
    </g>
    <g id="ytick_5">
     <g id="line2d_27">
      <path clip-path="url(#p09f12ca80d)" d="M 62.86875 167.401517 
L 397.66875 167.401517 
" style="fill:none;stroke:#b0b0b0;stroke-linecap:square;stroke-opacity:0.8;stroke-width:0.8;"/>
     </g>
     <g id="line2d_28">
      <g>
       <use style="stroke:#000000;stroke-width:0.8;" x="62.86875" xlink:href="#m10314b467d" y="167.401517"/>
      </g>
     </g>
     <g id="text_14">
      <!-- 50 -->
      <g transform="translate(43.14375 171.200736)scale(0.1 -0.1)">
       <use xlink:href="#DejaVuSans-53"/>
       <use x="63.623047" xlink:href="#DejaVuSans-48"/>
      </g>
     </g>
    </g>
    <g id="ytick_6">
     <g id="line2d_29">
      <path clip-path="url(#p09f12ca80d)" d="M 62.86875 151.820369 
L 397.66875 151.820369 
" style="fill:none;stroke:#b0b0b0;stroke-linecap:square;stroke-opacity:0.8;stroke-width:0.8;"/>
     </g>
     <g id="line2d_30">
      <g>
       <use style="stroke:#000000;stroke-width:0.8;" x="62.86875" xlink:href="#m10314b467d" y="151.820369"/>
      </g>
     </g>
     <g id="text_15">
      <!-- 100 -->
      <g transform="translate(36.78125 155.619588)scale(0.1 -0.1)">
       <use xlink:href="#DejaVuSans-49"/>
       <use x="63.623047" xlink:href="#DejaVuSans-48"/>
       <use x="127.246094" xlink:href="#DejaVuSans-48"/>
      </g>
     </g>
    </g>
    <g id="ytick_7">
     <g id="line2d_31">
      <path clip-path="url(#p09f12ca80d)" d="M 62.86875 136.239222 
L 397.66875 136.239222 
" style="fill:none;stroke:#b0b0b0;stroke-linecap:square;stroke-opacity:0.8;stroke-width:0.8;"/>
     </g>
     <g id="line2d_32">
      <g>
       <use style="stroke:#000000;stroke-width:0.8;" x="62.86875" xlink:href="#m10314b467d" y="136.239222"/>
      </g>
     </g>
     <g id="text_16">
      <!-- 200 -->
      <g transform="translate(36.78125 140.038441)scale(0.1 -0.1)">
       <use xlink:href="#DejaVuSans-50"/>
       <use x="63.623047" xlink:href="#DejaVuSans-48"/>
       <use x="127.246094" xlink:href="#DejaVuSans-48"/>
      </g>
     </g>
    </g>
    <g id="ytick_8">
     <g id="line2d_33">
      <path clip-path="url(#p09f12ca80d)" d="M 62.86875 115.642065 
L 397.66875 115.642065 
" style="fill:none;stroke:#b0b0b0;stroke-linecap:square;stroke-opacity:0.8;stroke-width:0.8;"/>
     </g>
     <g id="line2d_34">
      <g>
       <use style="stroke:#000000;stroke-width:0.8;" x="62.86875" xlink:href="#m10314b467d" y="115.642065"/>
      </g>
     </g>
     <g id="text_17">
      <!-- 500 -->
      <g transform="translate(36.78125 119.441284)scale(0.1 -0.1)">
       <use xlink:href="#DejaVuSans-53"/>
       <use x="63.623047" xlink:href="#DejaVuSans-48"/>
       <use x="127.246094" xlink:href="#DejaVuSans-48"/>
      </g>
     </g>
    </g>
    <g id="ytick_9">
     <g id="line2d_35">
      <path clip-path="url(#p09f12ca80d)" d="M 62.86875 100.060918 
L 397.66875 100.060918 
" style="fill:none;stroke:#b0b0b0;stroke-linecap:square;stroke-opacity:0.8;stroke-width:0.8;"/>
     </g>
     <g id="line2d_36">
      <g>
       <use style="stroke:#000000;stroke-width:0.8;" x="62.86875" xlink:href="#m10314b467d" y="100.060918"/>
      </g>
     </g>
     <g id="text_18">
      <!-- 1,000 -->
      <defs>
       <path d="M 11.71875 12.40625 
L 22.015625 12.40625 
L 22.015625 4 
L 14.015625 -11.625 
L 7.71875 -11.625 
L 11.71875 4 
z
" id="DejaVuSans-44"/>
      </defs>
      <g transform="translate(27.240625 103.860137)scale(0.1 -0.1)">
       <use xlink:href="#DejaVuSans-49"/>
       <use x="63.623047" xlink:href="#DejaVuSans-44"/>
       <use x="95.410156" xlink:href="#DejaVuSans-48"/>
       <use x="159.033203" xlink:href="#DejaVuSans-48"/>
       <use x="222.65625" xlink:href="#DejaVuSans-48"/>
      </g>
     </g>
    </g>
    <g id="ytick_10">
     <g id="line2d_37">
      <path clip-path="url(#p09f12ca80d)" d="M 62.86875 84.47977 
L 397.66875 84.47977 
" style="fill:none;stroke:#b0b0b0;stroke-linecap:square;stroke-opacity:0.8;stroke-width:0.8;"/>
     </g>
     <g id="line2d_38">
      <g>
       <use style="stroke:#000000;stroke-width:0.8;" x="62.86875" xlink:href="#m10314b467d" y="84.47977"/>
      </g>
     </g>
     <g id="text_19">
      <!-- 2,000 -->
      <g transform="translate(27.240625 88.278989)scale(0.1 -0.1)">
       <use xlink:href="#DejaVuSans-50"/>
       <use x="63.623047" xlink:href="#DejaVuSans-44"/>
       <use x="95.410156" xlink:href="#DejaVuSans-48"/>
       <use x="159.033203" xlink:href="#DejaVuSans-48"/>
       <use x="222.65625" xlink:href="#DejaVuSans-48"/>
      </g>
     </g>
    </g>
    <g id="ytick_11">
     <g id="line2d_39">
      <path clip-path="url(#p09f12ca80d)" d="M 62.86875 63.882614 
L 397.66875 63.882614 
" style="fill:none;stroke:#b0b0b0;stroke-linecap:square;stroke-opacity:0.8;stroke-width:0.8;"/>
     </g>
     <g id="line2d_40">
      <g>
       <use style="stroke:#000000;stroke-width:0.8;" x="62.86875" xlink:href="#m10314b467d" y="63.882614"/>
      </g>
     </g>
     <g id="text_20">
      <!-- 5,000 -->
      <g transform="translate(27.240625 67.681833)scale(0.1 -0.1)">
       <use xlink:href="#DejaVuSans-53"/>
       <use x="63.623047" xlink:href="#DejaVuSans-44"/>
       <use x="95.410156" xlink:href="#DejaVuSans-48"/>
       <use x="159.033203" xlink:href="#DejaVuSans-48"/>
       <use x="222.65625" xlink:href="#DejaVuSans-48"/>
      </g>
     </g>
    </g>
    <g id="ytick_12">
     <g id="line2d_41">
      <path clip-path="url(#p09f12ca80d)" d="M 62.86875 48.301466 
L 397.66875 48.301466 
" style="fill:none;stroke:#b0b0b0;stroke-linecap:square;stroke-opacity:0.8;stroke-width:0.8;"/>
     </g>
     <g id="line2d_42">
      <g>
       <use style="stroke:#000000;stroke-width:0.8;" x="62.86875" xlink:href="#m10314b467d" y="48.301466"/>
      </g>
     </g>
     <g id="text_21">
      <!-- 10,000 -->
      <g transform="translate(20.878125 52.100685)scale(0.1 -0.1)">
       <use xlink:href="#DejaVuSans-49"/>
       <use x="63.623047" xlink:href="#DejaVuSans-48"/>
       <use x="127.246094" xlink:href="#DejaVuSans-44"/>
       <use x="159.033203" xlink:href="#DejaVuSans-48"/>
       <use x="222.65625" xlink:href="#DejaVuSans-48"/>
       <use x="286.279297" xlink:href="#DejaVuSans-48"/>
      </g>
     </g>
    </g>
    <g id="ytick_13">
     <g id="line2d_43">
      <defs>
       <path d="M 0 0 
L -2 0 
" id="m1aadb1244b" style="stroke:#000000;stroke-width:0.6;"/>
      </defs>
      <g>
       <use style="stroke:#000000;stroke-width:0.6;" x="62.86875" xlink:href="#m1aadb1244b" y="230.643738"/>
      </g>
     </g>
    </g>
    <g id="ytick_14">
     <g id="line2d_44">
      <g>
       <use style="stroke:#000000;stroke-width:0.6;" x="62.86875" xlink:href="#m1aadb1244b" y="224.176978"/>
      </g>
     </g>
    </g>
    <g id="ytick_15">
     <g id="line2d_45">
      <g>
       <use style="stroke:#000000;stroke-width:0.6;" x="62.86875" xlink:href="#m1aadb1244b" y="215.062591"/>
      </g>
     </g>
    </g>
    <g id="ytick_16">
     <g id="line2d_46">
      <g>
       <use style="stroke:#000000;stroke-width:0.6;" x="62.86875" xlink:href="#m1aadb1244b" y="211.597461"/>
      </g>
     </g>
    </g>
    <g id="ytick_17">
     <g id="line2d_47">
      <g>
       <use style="stroke:#000000;stroke-width:0.6;" x="62.86875" xlink:href="#m1aadb1244b" y="208.59583"/>
      </g>
     </g>
    </g>
    <g id="ytick_18">
     <g id="line2d_48">
      <g>
       <use style="stroke:#000000;stroke-width:0.6;" x="62.86875" xlink:href="#m1aadb1244b" y="205.948204"/>
      </g>
     </g>
    </g>
    <g id="ytick_19">
     <g id="line2d_49">
      <g>
       <use style="stroke:#000000;stroke-width:0.6;" x="62.86875" xlink:href="#m1aadb1244b" y="178.884286"/>
      </g>
     </g>
    </g>
    <g id="ytick_20">
     <g id="line2d_50">
      <g>
       <use style="stroke:#000000;stroke-width:0.6;" x="62.86875" xlink:href="#m1aadb1244b" y="172.417526"/>
      </g>
     </g>
    </g>
    <g id="ytick_21">
     <g id="line2d_51">
      <g>
       <use style="stroke:#000000;stroke-width:0.6;" x="62.86875" xlink:href="#m1aadb1244b" y="163.303139"/>
      </g>
     </g>
    </g>
    <g id="ytick_22">
     <g id="line2d_52">
      <g>
       <use style="stroke:#000000;stroke-width:0.6;" x="62.86875" xlink:href="#m1aadb1244b" y="159.83801"/>
      </g>
     </g>
    </g>
    <g id="ytick_23">
     <g id="line2d_53">
      <g>
       <use style="stroke:#000000;stroke-width:0.6;" x="62.86875" xlink:href="#m1aadb1244b" y="156.836379"/>
      </g>
     </g>
    </g>
    <g id="ytick_24">
     <g id="line2d_54">
      <g>
       <use style="stroke:#000000;stroke-width:0.6;" x="62.86875" xlink:href="#m1aadb1244b" y="154.188752"/>
      </g>
     </g>
    </g>
    <g id="ytick_25">
     <g id="line2d_55">
      <g>
       <use style="stroke:#000000;stroke-width:0.6;" x="62.86875" xlink:href="#m1aadb1244b" y="127.124835"/>
      </g>
     </g>
    </g>
    <g id="ytick_26">
     <g id="line2d_56">
      <g>
       <use style="stroke:#000000;stroke-width:0.6;" x="62.86875" xlink:href="#m1aadb1244b" y="120.658074"/>
      </g>
     </g>
    </g>
    <g id="ytick_27">
     <g id="line2d_57">
      <g>
       <use style="stroke:#000000;stroke-width:0.6;" x="62.86875" xlink:href="#m1aadb1244b" y="111.543687"/>
      </g>
     </g>
    </g>
    <g id="ytick_28">
     <g id="line2d_58">
      <g>
       <use style="stroke:#000000;stroke-width:0.6;" x="62.86875" xlink:href="#m1aadb1244b" y="108.078558"/>
      </g>
     </g>
    </g>
    <g id="ytick_29">
     <g id="line2d_59">
      <g>
       <use style="stroke:#000000;stroke-width:0.6;" x="62.86875" xlink:href="#m1aadb1244b" y="105.076927"/>
      </g>
     </g>
    </g>
    <g id="ytick_30">
     <g id="line2d_60">
      <g>
       <use style="stroke:#000000;stroke-width:0.6;" x="62.86875" xlink:href="#m1aadb1244b" y="102.429301"/>
      </g>
     </g>
    </g>
    <g id="ytick_31">
     <g id="line2d_61">
      <g>
       <use style="stroke:#000000;stroke-width:0.6;" x="62.86875" xlink:href="#m1aadb1244b" y="75.365383"/>
      </g>
     </g>
    </g>
    <g id="ytick_32">
     <g id="line2d_62">
      <g>
       <use style="stroke:#000000;stroke-width:0.6;" x="62.86875" xlink:href="#m1aadb1244b" y="68.898623"/>
      </g>
     </g>
    </g>
    <g id="ytick_33">
     <g id="line2d_63">
      <g>
       <use style="stroke:#000000;stroke-width:0.6;" x="62.86875" xlink:href="#m1aadb1244b" y="59.784236"/>
      </g>
     </g>
    </g>
    <g id="ytick_34">
     <g id="line2d_64">
      <g>
       <use style="stroke:#000000;stroke-width:0.6;" x="62.86875" xlink:href="#m1aadb1244b" y="56.319107"/>
      </g>
     </g>
    </g>
    <g id="ytick_35">
     <g id="line2d_65">
      <g>
       <use style="stroke:#000000;stroke-width:0.6;" x="62.86875" xlink:href="#m1aadb1244b" y="53.317475"/>
      </g>
     </g>
    </g>
    <g id="ytick_36">
     <g id="line2d_66">
      <g>
       <use style="stroke:#000000;stroke-width:0.6;" x="62.86875" xlink:href="#m1aadb1244b" y="50.669849"/>
      </g>
     </g>
    </g>
    <g id="ytick_37">
     <g id="line2d_67">
      <g>
       <use style="stroke:#000000;stroke-width:0.6;" x="62.86875" xlink:href="#m1aadb1244b" y="32.720319"/>
      </g>
     </g>
    </g>
    <g id="ytick_38">
     <g id="line2d_68">
      <g>
       <use style="stroke:#000000;stroke-width:0.6;" x="62.86875" xlink:href="#m1aadb1244b" y="23.605932"/>
      </g>
     </g>
    </g>
    <g id="text_22">
     <!-- Total cases per million -->
     <defs>
      <path d="M -0.296875 72.90625 
L 61.375 72.90625 
L 61.375 64.59375 
L 35.5 64.59375 
L 35.5 0 
L 25.59375 0 
L 25.59375 64.59375 
L -0.296875 64.59375 
z
" id="DejaVuSans-84"/>
      <path d="M 30.609375 48.390625 
Q 23.390625 48.390625 19.1875 42.75 
Q 14.984375 37.109375 14.984375 27.296875 
Q 14.984375 17.484375 19.15625 11.84375 
Q 23.34375 6.203125 30.609375 6.203125 
Q 37.796875 6.203125 41.984375 11.859375 
Q 46.1875 17.53125 46.1875 27.296875 
Q 46.1875 37.015625 41.984375 42.703125 
Q 37.796875 48.390625 30.609375 48.390625 
z
M 30.609375 56 
Q 42.328125 56 49.015625 48.375 
Q 55.71875 40.765625 55.71875 27.296875 
Q 55.71875 13.875 49.015625 6.21875 
Q 42.328125 -1.421875 30.609375 -1.421875 
Q 18.84375 -1.421875 12.171875 6.21875 
Q 5.515625 13.875 5.515625 27.296875 
Q 5.515625 40.765625 12.171875 48.375 
Q 18.84375 56 30.609375 56 
z
" id="DejaVuSans-111"/>
      <path d="M 18.3125 70.21875 
L 18.3125 54.6875 
L 36.8125 54.6875 
L 36.8125 47.703125 
L 18.3125 47.703125 
L 18.3125 18.015625 
Q 18.3125 11.328125 20.140625 9.421875 
Q 21.96875 7.515625 27.59375 7.515625 
L 36.8125 7.515625 
L 36.8125 0 
L 27.59375 0 
Q 17.1875 0 13.234375 3.875 
Q 9.28125 7.765625 9.28125 18.015625 
L 9.28125 47.703125 
L 2.6875 47.703125 
L 2.6875 54.6875 
L 9.28125 54.6875 
L 9.28125 70.21875 
z
" id="DejaVuSans-116"/>
      <path d="M 9.421875 75.984375 
L 18.40625 75.984375 
L 18.40625 0 
L 9.421875 0 
z
" id="DejaVuSans-108"/>
      <path id="DejaVuSans-32"/>
      <path d="M 48.78125 52.59375 
L 48.78125 44.1875 
Q 44.96875 46.296875 41.140625 47.34375 
Q 37.3125 48.390625 33.40625 48.390625 
Q 24.65625 48.390625 19.8125 42.84375 
Q 14.984375 37.3125 14.984375 27.296875 
Q 14.984375 17.28125 19.8125 11.734375 
Q 24.65625 6.203125 33.40625 6.203125 
Q 37.3125 6.203125 41.140625 7.25 
Q 44.96875 8.296875 48.78125 10.40625 
L 48.78125 2.09375 
Q 45.015625 0.34375 40.984375 -0.53125 
Q 36.96875 -1.421875 32.421875 -1.421875 
Q 20.0625 -1.421875 12.78125 6.34375 
Q 5.515625 14.109375 5.515625 27.296875 
Q 5.515625 40.671875 12.859375 48.328125 
Q 20.21875 56 33.015625 56 
Q 37.15625 56 41.109375 55.140625 
Q 45.0625 54.296875 48.78125 52.59375 
z
" id="DejaVuSans-99"/>
      <path d="M 44.28125 53.078125 
L 44.28125 44.578125 
Q 40.484375 46.53125 36.375 47.5 
Q 32.28125 48.484375 27.875 48.484375 
Q 21.1875 48.484375 17.84375 46.4375 
Q 14.5 44.390625 14.5 40.28125 
Q 14.5 37.15625 16.890625 35.375 
Q 19.28125 33.59375 26.515625 31.984375 
L 29.59375 31.296875 
Q 39.15625 29.25 43.1875 25.515625 
Q 47.21875 21.78125 47.21875 15.09375 
Q 47.21875 7.46875 41.1875 3.015625 
Q 35.15625 -1.421875 24.609375 -1.421875 
Q 20.21875 -1.421875 15.453125 -0.5625 
Q 10.6875 0.296875 5.421875 2 
L 5.421875 11.28125 
Q 10.40625 8.6875 15.234375 7.390625 
Q 20.0625 6.109375 24.8125 6.109375 
Q 31.15625 6.109375 34.5625 8.28125 
Q 37.984375 10.453125 37.984375 14.40625 
Q 37.984375 18.0625 35.515625 20.015625 
Q 33.0625 21.96875 24.703125 23.78125 
L 21.578125 24.515625 
Q 13.234375 26.265625 9.515625 29.90625 
Q 5.8125 33.546875 5.8125 39.890625 
Q 5.8125 47.609375 11.28125 51.796875 
Q 16.75 56 26.8125 56 
Q 31.78125 56 36.171875 55.265625 
Q 40.578125 54.546875 44.28125 53.078125 
z
" id="DejaVuSans-115"/>
      <path d="M 56.203125 29.59375 
L 56.203125 25.203125 
L 14.890625 25.203125 
Q 15.484375 15.921875 20.484375 11.0625 
Q 25.484375 6.203125 34.421875 6.203125 
Q 39.59375 6.203125 44.453125 7.46875 
Q 49.3125 8.734375 54.109375 11.28125 
L 54.109375 2.78125 
Q 49.265625 0.734375 44.1875 -0.34375 
Q 39.109375 -1.421875 33.890625 -1.421875 
Q 20.796875 -1.421875 13.15625 6.1875 
Q 5.515625 13.8125 5.515625 26.8125 
Q 5.515625 40.234375 12.765625 48.109375 
Q 20.015625 56 32.328125 56 
Q 43.359375 56 49.78125 48.890625 
Q 56.203125 41.796875 56.203125 29.59375 
z
M 47.21875 32.234375 
Q 47.125 39.59375 43.09375 43.984375 
Q 39.0625 48.390625 32.421875 48.390625 
Q 24.90625 48.390625 20.390625 44.140625 
Q 15.875 39.890625 15.1875 32.171875 
z
" id="DejaVuSans-101"/>
      <path d="M 52 44.1875 
Q 55.375 50.25 60.0625 53.125 
Q 64.75 56 71.09375 56 
Q 79.640625 56 84.28125 50.015625 
Q 88.921875 44.046875 88.921875 33.015625 
L 88.921875 0 
L 79.890625 0 
L 79.890625 32.71875 
Q 79.890625 40.578125 77.09375 44.375 
Q 74.3125 48.1875 68.609375 48.1875 
Q 61.625 48.1875 57.5625 43.546875 
Q 53.515625 38.921875 53.515625 30.90625 
L 53.515625 0 
L 44.484375 0 
L 44.484375 32.71875 
Q 44.484375 40.625 41.703125 44.40625 
Q 38.921875 48.1875 33.109375 48.1875 
Q 26.21875 48.1875 22.15625 43.53125 
Q 18.109375 38.875 18.109375 30.90625 
L 18.109375 0 
L 9.078125 0 
L 9.078125 54.6875 
L 18.109375 54.6875 
L 18.109375 46.1875 
Q 21.1875 51.21875 25.484375 53.609375 
Q 29.78125 56 35.6875 56 
Q 41.65625 56 45.828125 52.96875 
Q 50 49.953125 52 44.1875 
z
" id="DejaVuSans-109"/>
      <path d="M 9.421875 54.6875 
L 18.40625 54.6875 
L 18.40625 0 
L 9.421875 0 
z
M 9.421875 75.984375 
L 18.40625 75.984375 
L 18.40625 64.59375 
L 9.421875 64.59375 
z
" id="DejaVuSans-105"/>
      <path d="M 54.890625 33.015625 
L 54.890625 0 
L 45.90625 0 
L 45.90625 32.71875 
Q 45.90625 40.484375 42.875 44.328125 
Q 39.84375 48.1875 33.796875 48.1875 
Q 26.515625 48.1875 22.3125 43.546875 
Q 18.109375 38.921875 18.109375 30.90625 
L 18.109375 0 
L 9.078125 0 
L 9.078125 54.6875 
L 18.109375 54.6875 
L 18.109375 46.1875 
Q 21.34375 51.125 25.703125 53.5625 
Q 30.078125 56 35.796875 56 
Q 45.21875 56 50.046875 50.171875 
Q 54.890625 44.34375 54.890625 33.015625 
z
" id="DejaVuSans-110"/>
     </defs>
     <g transform="translate(14.798438 187.37875)rotate(-90)scale(0.1 -0.1)">
      <use xlink:href="#DejaVuSans-84"/>
      <use x="60.818359" xlink:href="#DejaVuSans-111"/>
      <use x="122" xlink:href="#DejaVuSans-116"/>
      <use x="161.208984" xlink:href="#DejaVuSans-97"/>
      <use x="222.488281" xlink:href="#DejaVuSans-108"/>
      <use x="250.271484" xlink:href="#DejaVuSans-32"/>
      <use x="282.058594" xlink:href="#DejaVuSans-99"/>
      <use x="337.039062" xlink:href="#DejaVuSans-97"/>
      <use x="398.318359" xlink:href="#DejaVuSans-115"/>
      <use x="450.417969" xlink:href="#DejaVuSans-101"/>
      <use x="511.941406" xlink:href="#DejaVuSans-115"/>
      <use x="564.041016" xlink:href="#DejaVuSans-32"/>
      <use x="595.828125" xlink:href="#DejaVuSans-112"/>
      <use x="659.304688" xlink:href="#DejaVuSans-101"/>
      <use x="720.828125" xlink:href="#DejaVuSans-114"/>
      <use x="761.941406" xlink:href="#DejaVuSans-32"/>
      <use x="793.728516" xlink:href="#DejaVuSans-109"/>
      <use x="891.140625" xlink:href="#DejaVuSans-105"/>
      <use x="918.923828" xlink:href="#DejaVuSans-108"/>
      <use x="946.707031" xlink:href="#DejaVuSans-108"/>
      <use x="974.490234" xlink:href="#DejaVuSans-105"/>
      <use x="1002.273438" xlink:href="#DejaVuSans-111"/>
      <use x="1063.455078" xlink:href="#DejaVuSans-110"/>
     </g>
    </g>
   </g>
   <g id="line2d_69">
    <path clip-path="url(#p09f12ca80d)" d="M 316.203232 60.118997 
L 325.946866 58.640462 
L 335.6905 57.161928 
L 345.434134 55.683393 
" style="fill:none;stroke:#7f7f7f;stroke-dasharray:7.4,3.2;stroke-dashoffset:0;stroke-width:2;"/>
   </g>
   <g id="line2d_70">
    <path clip-path="url(#p09f12ca80d)" d="M 316.203232 69.805455 
L 325.946866 67.830322 
L 335.6905 65.85519 
L 345.434134 63.880058 
" style="fill:none;stroke:#7f7f7f;stroke-dasharray:7.4,3.2;stroke-dashoffset:0;stroke-width:2;"/>
   </g>
   <g id="line2d_71">
    <path clip-path="url(#p09f12ca80d)" d="M 316.203232 105.238468 
L 325.946866 103.954425 
L 335.6905 102.670382 
L 345.434134 101.386339 
" style="fill:none;stroke:#7f7f7f;stroke-dasharray:7.4,3.2;stroke-dashoffset:0;stroke-width:2;"/>
   </g>
   <g id="line2d_72">
    <path clip-path="url(#p09f12ca80d)" d="M 316.203232 114.030568 
L 325.946866 112.195261 
L 335.6905 110.359955 
L 345.434134 108.524649 
" style="fill:none;stroke:#7f7f7f;stroke-dasharray:7.4,3.2;stroke-dashoffset:0;stroke-width:2;"/>
   </g>
   <g id="line2d_73">
    <path clip-path="url(#p09f12ca80d)" d="M 316.203232 131.302222 
L 325.946866 129.146635 
L 335.6905 126.991048 
L 345.434134 124.835461 
" style="fill:none;stroke:#7f7f7f;stroke-dasharray:7.4,3.2;stroke-dashoffset:0;stroke-width:2;"/>
   </g>
   <g id="patch_3">
    <path d="M 62.86875 239.758125 
L 62.86875 22.318125 
" style="fill:none;stroke:#000000;stroke-linecap:square;stroke-linejoin:miter;stroke-width:0.8;"/>
   </g>
   <g id="patch_4">
    <path d="M 397.66875 239.758125 
L 397.66875 22.318125 
" style="fill:none;stroke:#000000;stroke-linecap:square;stroke-linejoin:miter;stroke-width:0.8;"/>
   </g>
   <g id="patch_5">
    <path d="M 62.86875 239.758125 
L 397.66875 239.758125 
" style="fill:none;stroke:#000000;stroke-linecap:square;stroke-linejoin:miter;stroke-width:0.8;"/>
   </g>
   <g id="patch_6">
    <path d="M 62.86875 22.318125 
L 397.66875 22.318125 
" style="fill:none;stroke:#000000;stroke-linecap:square;stroke-linejoin:miter;stroke-width:0.8;"/>
   </g>
   <g id="text_23">
    <!-- © Scott Sievert -->
    <defs>
     <path d="M 50 72.515625 
Q 57.421875 72.515625 63.84375 69.828125 
Q 70.265625 67.140625 75.59375 61.8125 
Q 80.90625 56.5 83.546875 50.09375 
Q 86.1875 43.703125 86.1875 36.1875 
Q 86.1875 28.765625 83.546875 22.390625 
Q 80.90625 16.015625 75.59375 10.6875 
Q 70.265625 5.375 63.84375 2.6875 
Q 57.421875 0 50 0 
Q 42.578125 0 36.15625 2.6875 
Q 29.734375 5.375 24.421875 10.6875 
Q 19.09375 16.015625 16.453125 22.390625 
Q 13.8125 28.765625 13.8125 36.1875 
Q 13.8125 43.703125 16.453125 50.09375 
Q 19.09375 56.5 24.421875 61.8125 
Q 29.734375 67.140625 36.15625 69.828125 
Q 42.578125 72.515625 50 72.515625 
z
M 50 67.484375 
Q 43.609375 67.484375 38.078125 65.1875 
Q 32.5625 62.890625 27.984375 58.296875 
Q 23.390625 53.71875 21.046875 48.125 
Q 18.703125 42.53125 18.703125 36.1875 
Q 18.703125 29.890625 21.046875 24.34375 
Q 23.390625 18.796875 27.984375 14.203125 
Q 32.5625 9.625 38.078125 7.296875 
Q 43.609375 4.984375 50 4.984375 
Q 56.453125 4.984375 61.984375 7.296875 
Q 67.53125 9.625 72.125 14.203125 
Q 76.65625 18.75 78.921875 24.265625 
Q 81.203125 29.78125 81.203125 36.1875 
Q 81.203125 42.671875 78.90625 48.21875 
Q 76.609375 53.765625 72.125 58.296875 
Q 67.53125 62.890625 61.984375 65.1875 
Q 56.453125 67.484375 50 67.484375 
z
M 64.59375 55.515625 
L 64.59375 49.21875 
Q 61.375 50.828125 58.203125 51.609375 
Q 55.03125 52.390625 51.8125 52.390625 
Q 44.53125 52.390625 40.453125 48.109375 
Q 36.375 43.84375 36.375 36.1875 
Q 36.375 28.421875 40.546875 24.171875 
Q 44.734375 19.921875 52.296875 19.921875 
Q 55.421875 19.921875 58.390625 20.671875 
Q 61.375 21.4375 64.59375 23.09375 
L 64.59375 16.890625 
Q 61.328125 15.484375 57.984375 14.796875 
Q 54.640625 14.109375 51.21875 14.109375 
Q 40.671875 14.109375 34.546875 20.0625 
Q 28.421875 26.03125 28.421875 36.1875 
Q 28.421875 46.390625 34.546875 52.296875 
Q 40.671875 58.203125 51.21875 58.203125 
Q 54.78125 58.203125 58.09375 57.515625 
Q 61.421875 56.84375 64.59375 55.515625 
z
" id="DejaVuSans-169"/>
     <path d="M 53.515625 70.515625 
L 53.515625 60.890625 
Q 47.90625 63.578125 42.921875 64.890625 
Q 37.9375 66.21875 33.296875 66.21875 
Q 25.25 66.21875 20.875 63.09375 
Q 16.5 59.96875 16.5 54.203125 
Q 16.5 49.359375 19.40625 46.890625 
Q 22.3125 44.4375 30.421875 42.921875 
L 36.375 41.703125 
Q 47.40625 39.59375 52.65625 34.296875 
Q 57.90625 29 57.90625 20.125 
Q 57.90625 9.515625 50.796875 4.046875 
Q 43.703125 -1.421875 29.984375 -1.421875 
Q 24.8125 -1.421875 18.96875 -0.25 
Q 13.140625 0.921875 6.890625 3.21875 
L 6.890625 13.375 
Q 12.890625 10.015625 18.65625 8.296875 
Q 24.421875 6.59375 29.984375 6.59375 
Q 38.421875 6.59375 43.015625 9.90625 
Q 47.609375 13.234375 47.609375 19.390625 
Q 47.609375 24.75 44.3125 27.78125 
Q 41.015625 30.8125 33.5 32.328125 
L 27.484375 33.5 
Q 16.453125 35.6875 11.515625 40.375 
Q 6.59375 45.0625 6.59375 53.421875 
Q 6.59375 63.09375 13.40625 68.65625 
Q 20.21875 74.21875 32.171875 74.21875 
Q 37.3125 74.21875 42.625 73.28125 
Q 47.953125 72.359375 53.515625 70.515625 
z
" id="DejaVuSans-83"/>
     <path d="M 2.984375 54.6875 
L 12.5 54.6875 
L 29.59375 8.796875 
L 46.6875 54.6875 
L 56.203125 54.6875 
L 35.6875 0 
L 23.484375 0 
z
" id="DejaVuSans-118"/>
    </defs>
    <g style="opacity:0.3;" transform="translate(329.463312 275.936429)scale(0.1 -0.1)">
     <use xlink:href="#DejaVuSans-169"/>
     <use x="100" xlink:href="#DejaVuSans-32"/>
     <use x="131.787109" xlink:href="#DejaVuSans-83"/>
     <use x="195.263672" xlink:href="#DejaVuSans-99"/>
     <use x="250.244141" xlink:href="#DejaVuSans-111"/>
     <use x="311.425781" xlink:href="#DejaVuSans-116"/>
     <use x="350.634766" xlink:href="#DejaVuSans-116"/>
     <use x="389.84375" xlink:href="#DejaVuSans-32"/>
     <use x="421.630859" xlink:href="#DejaVuSans-83"/>
     <use x="485.107422" xlink:href="#DejaVuSans-105"/>
     <use x="512.890625" xlink:href="#DejaVuSans-101"/>
     <use x="574.414062" xlink:href="#DejaVuSans-118"/>
     <use x="633.59375" xlink:href="#DejaVuSans-101"/>
     <use x="695.117188" xlink:href="#DejaVuSans-114"/>
     <use x="736.230469" xlink:href="#DejaVuSans-116"/>
    </g>
   </g>
   <g id="text_24">
    <!-- State infection rates -->
    <defs>
     <path d="M 37.109375 75.984375 
L 37.109375 68.5 
L 28.515625 68.5 
Q 23.6875 68.5 21.796875 66.546875 
Q 19.921875 64.59375 19.921875 59.515625 
L 19.921875 54.6875 
L 34.71875 54.6875 
L 34.71875 47.703125 
L 19.921875 47.703125 
L 19.921875 0 
L 10.890625 0 
L 10.890625 47.703125 
L 2.296875 47.703125 
L 2.296875 54.6875 
L 10.890625 54.6875 
L 10.890625 58.5 
Q 10.890625 67.625 15.140625 71.796875 
Q 19.390625 75.984375 28.609375 75.984375 
z
" id="DejaVuSans-102"/>
    </defs>
    <g transform="translate(169.194375 16.318125)scale(0.12 -0.12)">
     <use xlink:href="#DejaVuSans-83"/>
     <use x="63.476562" xlink:href="#DejaVuSans-116"/>
     <use x="102.685547" xlink:href="#DejaVuSans-97"/>
     <use x="163.964844" xlink:href="#DejaVuSans-116"/>
     <use x="203.173828" xlink:href="#DejaVuSans-101"/>
     <use x="264.697266" xlink:href="#DejaVuSans-32"/>
     <use x="296.484375" xlink:href="#DejaVuSans-105"/>
     <use x="324.267578" xlink:href="#DejaVuSans-110"/>
     <use x="387.646484" xlink:href="#DejaVuSans-102"/>
     <use x="422.851562" xlink:href="#DejaVuSans-101"/>
     <use x="484.375" xlink:href="#DejaVuSans-99"/>
     <use x="539.355469" xlink:href="#DejaVuSans-116"/>
     <use x="578.564453" xlink:href="#DejaVuSans-105"/>
     <use x="606.347656" xlink:href="#DejaVuSans-111"/>
     <use x="667.529297" xlink:href="#DejaVuSans-110"/>
     <use x="730.908203" xlink:href="#DejaVuSans-32"/>
     <use x="762.695312" xlink:href="#DejaVuSans-114"/>
     <use x="803.808594" xlink:href="#DejaVuSans-97"/>
     <use x="865.087891" xlink:href="#DejaVuSans-116"/>
     <use x="904.296875" xlink:href="#DejaVuSans-101"/>
     <use x="965.820312" xlink:href="#DejaVuSans-115"/>
    </g>
   </g>
   <g id="legend_1">
    <g id="patch_7">
     <path d="M 272.401563 234.758125 
L 390.66875 234.758125 
Q 392.66875 234.758125 392.66875 232.758125 
L 392.66875 145.6675 
Q 392.66875 143.6675 390.66875 143.6675 
L 272.401563 143.6675 
Q 270.401563 143.6675 270.401563 145.6675 
L 270.401563 232.758125 
Q 270.401563 234.758125 272.401563 234.758125 
z
" style="fill:#ffffff;opacity:0.8;stroke:#cccccc;stroke-linejoin:miter;"/>
    </g>
    <g id="text_25">
     <!-- State (cases in 7 days) -->
     <defs>
      <path d="M 31 75.875 
Q 24.46875 64.65625 21.28125 53.65625 
Q 18.109375 42.671875 18.109375 31.390625 
Q 18.109375 20.125 21.3125 9.0625 
Q 24.515625 -2 31 -13.1875 
L 23.1875 -13.1875 
Q 15.875 -1.703125 12.234375 9.375 
Q 8.59375 20.453125 8.59375 31.390625 
Q 8.59375 42.28125 12.203125 53.3125 
Q 15.828125 64.359375 23.1875 75.875 
z
" id="DejaVuSans-40"/>
      <path d="M 45.40625 46.390625 
L 45.40625 75.984375 
L 54.390625 75.984375 
L 54.390625 0 
L 45.40625 0 
L 45.40625 8.203125 
Q 42.578125 3.328125 38.25 0.953125 
Q 33.9375 -1.421875 27.875 -1.421875 
Q 17.96875 -1.421875 11.734375 6.484375 
Q 5.515625 14.40625 5.515625 27.296875 
Q 5.515625 40.1875 11.734375 48.09375 
Q 17.96875 56 27.875 56 
Q 33.9375 56 38.25 53.625 
Q 42.578125 51.265625 45.40625 46.390625 
z
M 14.796875 27.296875 
Q 14.796875 17.390625 18.875 11.75 
Q 22.953125 6.109375 30.078125 6.109375 
Q 37.203125 6.109375 41.296875 11.75 
Q 45.40625 17.390625 45.40625 27.296875 
Q 45.40625 37.203125 41.296875 42.84375 
Q 37.203125 48.484375 30.078125 48.484375 
Q 22.953125 48.484375 18.875 42.84375 
Q 14.796875 37.203125 14.796875 27.296875 
z
" id="DejaVuSans-100"/>
      <path d="M 32.171875 -5.078125 
Q 28.375 -14.84375 24.75 -17.8125 
Q 21.140625 -20.796875 15.09375 -20.796875 
L 7.90625 -20.796875 
L 7.90625 -13.28125 
L 13.1875 -13.28125 
Q 16.890625 -13.28125 18.9375 -11.515625 
Q 21 -9.765625 23.484375 -3.21875 
L 25.09375 0.875 
L 2.984375 54.6875 
L 12.5 54.6875 
L 29.59375 11.921875 
L 46.6875 54.6875 
L 56.203125 54.6875 
z
" id="DejaVuSans-121"/>
      <path d="M 8.015625 75.875 
L 15.828125 75.875 
Q 23.140625 64.359375 26.78125 53.3125 
Q 30.421875 42.28125 30.421875 31.390625 
Q 30.421875 20.453125 26.78125 9.375 
Q 23.140625 -1.703125 15.828125 -13.1875 
L 8.015625 -13.1875 
Q 14.5 -2 17.703125 9.0625 
Q 20.90625 20.125 20.90625 31.390625 
Q 20.90625 42.671875 17.703125 53.65625 
Q 14.5 64.65625 8.015625 75.875 
z
" id="DejaVuSans-41"/>
     </defs>
     <g transform="translate(274.401563 155.265938)scale(0.1 -0.1)">
      <use xlink:href="#DejaVuSans-83"/>
      <use x="63.476562" xlink:href="#DejaVuSans-116"/>
      <use x="102.685547" xlink:href="#DejaVuSans-97"/>
      <use x="163.964844" xlink:href="#DejaVuSans-116"/>
      <use x="203.173828" xlink:href="#DejaVuSans-101"/>
      <use x="264.697266" xlink:href="#DejaVuSans-32"/>
      <use x="296.484375" xlink:href="#DejaVuSans-40"/>
      <use x="335.498047" xlink:href="#DejaVuSans-99"/>
      <use x="390.478516" xlink:href="#DejaVuSans-97"/>
      <use x="451.757812" xlink:href="#DejaVuSans-115"/>
      <use x="503.857422" xlink:href="#DejaVuSans-101"/>
      <use x="565.380859" xlink:href="#DejaVuSans-115"/>
      <use x="617.480469" xlink:href="#DejaVuSans-32"/>
      <use x="649.267578" xlink:href="#DejaVuSans-105"/>
      <use x="677.050781" xlink:href="#DejaVuSans-110"/>
      <use x="740.429688" xlink:href="#DejaVuSans-32"/>
      <use x="772.216797" xlink:href="#DejaVuSans-55"/>
      <use x="835.839844" xlink:href="#DejaVuSans-32"/>
      <use x="867.626953" xlink:href="#DejaVuSans-100"/>
      <use x="931.103516" xlink:href="#DejaVuSans-97"/>
      <use x="992.382812" xlink:href="#DejaVuSans-121"/>
      <use x="1051.5625" xlink:href="#DejaVuSans-115"/>
      <use x="1103.662109" xlink:href="#DejaVuSans-41"/>
     </g>
    </g>
    <g id="line2d_74">
     <path d="M 292.435156 166.444063 
L 312.435156 166.444063 
" style="fill:none;stroke:#1f77b4;stroke-linecap:square;stroke-width:1.5;"/>
    </g>
    <g id="line2d_75">
     <defs>
      <path d="M 0 3 
C 0.795609 3 1.55874 2.683901 2.12132 2.12132 
C 2.683901 1.55874 3 0.795609 3 0 
C 3 -0.795609 2.683901 -1.55874 2.12132 -2.12132 
C 1.55874 -2.683901 0.795609 -3 0 -3 
C -0.795609 -3 -1.55874 -2.683901 -2.12132 -2.12132 
C -2.683901 -1.55874 -3 -0.795609 -3 0 
C -3 0.795609 -2.683901 1.55874 -2.12132 2.12132 
C -1.55874 2.683901 -0.795609 3 0 3 
z
" id="m328be86572" style="stroke:#1f77b4;"/>
     </defs>
     <g>
      <use style="fill:#1f77b4;stroke:#1f77b4;" x="302.435156" xlink:href="#m328be86572" y="166.444063"/>
     </g>
    </g>
    <g id="text_26">
     <!-- NY (1.6$\times$) -->
     <defs>
      <path d="M 9.8125 72.90625 
L 23.09375 72.90625 
L 55.421875 11.921875 
L 55.421875 72.90625 
L 64.984375 72.90625 
L 64.984375 0 
L 51.703125 0 
L 19.390625 60.984375 
L 19.390625 0 
L 9.8125 0 
z
" id="DejaVuSans-78"/>
      <path d="M -0.203125 72.90625 
L 10.40625 72.90625 
L 30.609375 42.921875 
L 50.6875 72.90625 
L 61.28125 72.90625 
L 35.5 34.71875 
L 35.5 0 
L 25.59375 0 
L 25.59375 34.71875 
z
" id="DejaVuSans-89"/>
      <path d="M 33.015625 40.375 
Q 26.375 40.375 22.484375 35.828125 
Q 18.609375 31.296875 18.609375 23.390625 
Q 18.609375 15.53125 22.484375 10.953125 
Q 26.375 6.390625 33.015625 6.390625 
Q 39.65625 6.390625 43.53125 10.953125 
Q 47.40625 15.53125 47.40625 23.390625 
Q 47.40625 31.296875 43.53125 35.828125 
Q 39.65625 40.375 33.015625 40.375 
z
M 52.59375 71.296875 
L 52.59375 62.3125 
Q 48.875 64.0625 45.09375 64.984375 
Q 41.3125 65.921875 37.59375 65.921875 
Q 27.828125 65.921875 22.671875 59.328125 
Q 17.53125 52.734375 16.796875 39.40625 
Q 19.671875 43.65625 24.015625 45.921875 
Q 28.375 48.1875 33.59375 48.1875 
Q 44.578125 48.1875 50.953125 41.515625 
Q 57.328125 34.859375 57.328125 23.390625 
Q 57.328125 12.15625 50.6875 5.359375 
Q 44.046875 -1.421875 33.015625 -1.421875 
Q 20.359375 -1.421875 13.671875 8.265625 
Q 6.984375 17.96875 6.984375 36.375 
Q 6.984375 53.65625 15.1875 63.9375 
Q 23.390625 74.21875 37.203125 74.21875 
Q 40.921875 74.21875 44.703125 73.484375 
Q 48.484375 72.75 52.59375 71.296875 
z
" id="DejaVuSans-54"/>
      <path d="M 70.125 53.71875 
L 47.796875 31.296875 
L 70.125 8.984375 
L 64.3125 3.078125 
L 41.890625 25.484375 
L 19.484375 3.078125 
L 13.71875 8.984375 
L 35.984375 31.296875 
L 13.71875 53.71875 
L 19.484375 59.625 
L 41.890625 37.203125 
L 64.3125 59.625 
z
" id="DejaVuSans-215"/>
     </defs>
     <g transform="translate(320.435156 169.944063)scale(0.1 -0.1)">
      <use transform="translate(0 0.125)" xlink:href="#DejaVuSans-78"/>
      <use transform="translate(74.804688 0.125)" xlink:href="#DejaVuSans-89"/>
      <use transform="translate(135.888672 0.125)" xlink:href="#DejaVuSans-32"/>
      <use transform="translate(167.675781 0.125)" xlink:href="#DejaVuSans-40"/>
      <use transform="translate(206.689453 0.125)" xlink:href="#DejaVuSans-49"/>
      <use transform="translate(270.3125 0.125)" xlink:href="#DejaVuSans-46"/>
      <use transform="translate(302.099609 0.125)" xlink:href="#DejaVuSans-54"/>
      <use transform="translate(365.722656 0.125)" xlink:href="#DejaVuSans-215"/>
      <use transform="translate(449.511719 0.125)" xlink:href="#DejaVuSans-41"/>
     </g>
    </g>
    <g id="line2d_76">
     <path d="M 292.435156 181.12375 
L 312.435156 181.12375 
" style="fill:none;stroke:#ff7f0e;stroke-linecap:square;stroke-width:1.5;"/>
    </g>
    <g id="line2d_77">
     <defs>
      <path d="M 0 3 
C 0.795609 3 1.55874 2.683901 2.12132 2.12132 
C 2.683901 1.55874 3 0.795609 3 0 
C 3 -0.795609 2.683901 -1.55874 2.12132 -2.12132 
C 1.55874 -2.683901 0.795609 -3 0 -3 
C -0.795609 -3 -1.55874 -2.683901 -2.12132 -2.12132 
C -2.683901 -1.55874 -3 -0.795609 -3 0 
C -3 0.795609 -2.683901 1.55874 -2.12132 2.12132 
C -1.55874 2.683901 -0.795609 3 0 3 
z
" id="m0e9bbb0253" style="stroke:#ff7f0e;"/>
     </defs>
     <g>
      <use style="fill:#ff7f0e;stroke:#ff7f0e;" x="302.435156" xlink:href="#m0e9bbb0253" y="181.12375"/>
     </g>
    </g>
    <g id="text_27">
     <!-- NJ (1.8$\times$) -->
     <defs>
      <path d="M 9.8125 72.90625 
L 19.671875 72.90625 
L 19.671875 5.078125 
Q 19.671875 -8.109375 14.671875 -14.0625 
Q 9.671875 -20.015625 -1.421875 -20.015625 
L -5.171875 -20.015625 
L -5.171875 -11.71875 
L -2.09375 -11.71875 
Q 4.4375 -11.71875 7.125 -8.046875 
Q 9.8125 -4.390625 9.8125 5.078125 
z
" id="DejaVuSans-74"/>
      <path d="M 31.78125 34.625 
Q 24.75 34.625 20.71875 30.859375 
Q 16.703125 27.09375 16.703125 20.515625 
Q 16.703125 13.921875 20.71875 10.15625 
Q 24.75 6.390625 31.78125 6.390625 
Q 38.8125 6.390625 42.859375 10.171875 
Q 46.921875 13.96875 46.921875 20.515625 
Q 46.921875 27.09375 42.890625 30.859375 
Q 38.875 34.625 31.78125 34.625 
z
M 21.921875 38.8125 
Q 15.578125 40.375 12.03125 44.71875 
Q 8.5 49.078125 8.5 55.328125 
Q 8.5 64.0625 14.71875 69.140625 
Q 20.953125 74.21875 31.78125 74.21875 
Q 42.671875 74.21875 48.875 69.140625 
Q 55.078125 64.0625 55.078125 55.328125 
Q 55.078125 49.078125 51.53125 44.71875 
Q 48 40.375 41.703125 38.8125 
Q 48.828125 37.15625 52.796875 32.3125 
Q 56.78125 27.484375 56.78125 20.515625 
Q 56.78125 9.90625 50.3125 4.234375 
Q 43.84375 -1.421875 31.78125 -1.421875 
Q 19.734375 -1.421875 13.25 4.234375 
Q 6.78125 9.90625 6.78125 20.515625 
Q 6.78125 27.484375 10.78125 32.3125 
Q 14.796875 37.15625 21.921875 38.8125 
z
M 18.3125 54.390625 
Q 18.3125 48.734375 21.84375 45.5625 
Q 25.390625 42.390625 31.78125 42.390625 
Q 38.140625 42.390625 41.71875 45.5625 
Q 45.3125 48.734375 45.3125 54.390625 
Q 45.3125 60.0625 41.71875 63.234375 
Q 38.140625 66.40625 31.78125 66.40625 
Q 25.390625 66.40625 21.84375 63.234375 
Q 18.3125 60.0625 18.3125 54.390625 
z
" id="DejaVuSans-56"/>
     </defs>
     <g transform="translate(320.435156 184.62375)scale(0.1 -0.1)">
      <use transform="translate(0 0.125)" xlink:href="#DejaVuSans-78"/>
      <use transform="translate(74.804688 0.125)" xlink:href="#DejaVuSans-74"/>
      <use transform="translate(104.296875 0.125)" xlink:href="#DejaVuSans-32"/>
      <use transform="translate(136.083984 0.125)" xlink:href="#DejaVuSans-40"/>
      <use transform="translate(175.097656 0.125)" xlink:href="#DejaVuSans-49"/>
      <use transform="translate(238.720703 0.125)" xlink:href="#DejaVuSans-46"/>
      <use transform="translate(270.476562 0.125)" xlink:href="#DejaVuSans-56"/>
      <use transform="translate(334.099609 0.125)" xlink:href="#DejaVuSans-215"/>
      <use transform="translate(417.888672 0.125)" xlink:href="#DejaVuSans-41"/>
     </g>
    </g>
    <g id="line2d_78">
     <path d="M 292.435156 195.822188 
L 312.435156 195.822188 
" style="fill:none;stroke:#2ca02c;stroke-linecap:square;stroke-width:1.5;"/>
    </g>
    <g id="line2d_79">
     <defs>
      <path d="M 0 3 
C 0.795609 3 1.55874 2.683901 2.12132 2.12132 
C 2.683901 1.55874 3 0.795609 3 0 
C 3 -0.795609 2.683901 -1.55874 2.12132 -2.12132 
C 1.55874 -2.683901 0.795609 -3 0 -3 
C -0.795609 -3 -1.55874 -2.683901 -2.12132 -2.12132 
C -2.683901 -1.55874 -3 -0.795609 -3 0 
C -3 0.795609 -2.683901 1.55874 -2.12132 2.12132 
C -1.55874 2.683901 -0.795609 3 0 3 
z
" id="m1cd58f5b4c" style="stroke:#2ca02c;"/>
     </defs>
     <g>
      <use style="fill:#2ca02c;stroke:#2ca02c;" x="302.435156" xlink:href="#m1cd58f5b4c" y="195.822188"/>
     </g>
    </g>
    <g id="text_28">
     <!-- CO (1.5$\times$) -->
     <defs>
      <path d="M 64.40625 67.28125 
L 64.40625 56.890625 
Q 59.421875 61.53125 53.78125 63.8125 
Q 48.140625 66.109375 41.796875 66.109375 
Q 29.296875 66.109375 22.65625 58.46875 
Q 16.015625 50.828125 16.015625 36.375 
Q 16.015625 21.96875 22.65625 14.328125 
Q 29.296875 6.6875 41.796875 6.6875 
Q 48.140625 6.6875 53.78125 8.984375 
Q 59.421875 11.28125 64.40625 15.921875 
L 64.40625 5.609375 
Q 59.234375 2.09375 53.4375 0.328125 
Q 47.65625 -1.421875 41.21875 -1.421875 
Q 24.65625 -1.421875 15.125 8.703125 
Q 5.609375 18.84375 5.609375 36.375 
Q 5.609375 53.953125 15.125 64.078125 
Q 24.65625 74.21875 41.21875 74.21875 
Q 47.75 74.21875 53.53125 72.484375 
Q 59.328125 70.75 64.40625 67.28125 
z
" id="DejaVuSans-67"/>
      <path d="M 39.40625 66.21875 
Q 28.65625 66.21875 22.328125 58.203125 
Q 16.015625 50.203125 16.015625 36.375 
Q 16.015625 22.609375 22.328125 14.59375 
Q 28.65625 6.59375 39.40625 6.59375 
Q 50.140625 6.59375 56.421875 14.59375 
Q 62.703125 22.609375 62.703125 36.375 
Q 62.703125 50.203125 56.421875 58.203125 
Q 50.140625 66.21875 39.40625 66.21875 
z
M 39.40625 74.21875 
Q 54.734375 74.21875 63.90625 63.9375 
Q 73.09375 53.65625 73.09375 36.375 
Q 73.09375 19.140625 63.90625 8.859375 
Q 54.734375 -1.421875 39.40625 -1.421875 
Q 24.03125 -1.421875 14.8125 8.828125 
Q 5.609375 19.09375 5.609375 36.375 
Q 5.609375 53.65625 14.8125 63.9375 
Q 24.03125 74.21875 39.40625 74.21875 
z
" id="DejaVuSans-79"/>
     </defs>
     <g transform="translate(320.435156 199.322188)scale(0.1 -0.1)">
      <use transform="translate(0 0.125)" xlink:href="#DejaVuSans-67"/>
      <use transform="translate(69.824219 0.125)" xlink:href="#DejaVuSans-79"/>
      <use transform="translate(148.535156 0.125)" xlink:href="#DejaVuSans-32"/>
      <use transform="translate(180.322266 0.125)" xlink:href="#DejaVuSans-40"/>
      <use transform="translate(219.335938 0.125)" xlink:href="#DejaVuSans-49"/>
      <use transform="translate(282.958984 0.125)" xlink:href="#DejaVuSans-46"/>
      <use transform="translate(314.746094 0.125)" xlink:href="#DejaVuSans-53"/>
      <use transform="translate(378.369141 0.125)" xlink:href="#DejaVuSans-215"/>
      <use transform="translate(462.158203 0.125)" xlink:href="#DejaVuSans-41"/>
     </g>
    </g>
    <g id="line2d_80">
     <path d="M 292.435156 210.500313 
L 312.435156 210.500313 
" style="fill:none;stroke:#d62728;stroke-linecap:square;stroke-width:1.5;"/>
    </g>
    <g id="line2d_81">
     <defs>
      <path d="M 0 3 
C 0.795609 3 1.55874 2.683901 2.12132 2.12132 
C 2.683901 1.55874 3 0.795609 3 0 
C 3 -0.795609 2.683901 -1.55874 2.12132 -2.12132 
C 1.55874 -2.683901 0.795609 -3 0 -3 
C -0.795609 -3 -1.55874 -2.683901 -2.12132 -2.12132 
C -2.683901 -1.55874 -3 -0.795609 -3 0 
C -3 0.795609 -2.683901 1.55874 -2.12132 2.12132 
C -1.55874 2.683901 -0.795609 3 0 3 
z
" id="m5b7833d6d1" style="stroke:#d62728;"/>
     </defs>
     <g>
      <use style="fill:#d62728;stroke:#d62728;" x="302.435156" xlink:href="#m5b7833d6d1" y="210.500313"/>
     </g>
    </g>
    <g id="text_29">
     <!-- FL (1.8$\times$) -->
     <defs>
      <path d="M 9.8125 72.90625 
L 51.703125 72.90625 
L 51.703125 64.59375 
L 19.671875 64.59375 
L 19.671875 43.109375 
L 48.578125 43.109375 
L 48.578125 34.8125 
L 19.671875 34.8125 
L 19.671875 0 
L 9.8125 0 
z
" id="DejaVuSans-70"/>
      <path d="M 9.8125 72.90625 
L 19.671875 72.90625 
L 19.671875 8.296875 
L 55.171875 8.296875 
L 55.171875 0 
L 9.8125 0 
z
" id="DejaVuSans-76"/>
     </defs>
     <g transform="translate(320.435156 214.000313)scale(0.1 -0.1)">
      <use transform="translate(0 0.125)" xlink:href="#DejaVuSans-70"/>
      <use transform="translate(57.519531 0.125)" xlink:href="#DejaVuSans-76"/>
      <use transform="translate(113.232422 0.125)" xlink:href="#DejaVuSans-32"/>
      <use transform="translate(145.019531 0.125)" xlink:href="#DejaVuSans-40"/>
      <use transform="translate(184.033203 0.125)" xlink:href="#DejaVuSans-49"/>
      <use transform="translate(247.65625 0.125)" xlink:href="#DejaVuSans-46"/>
      <use transform="translate(279.412109 0.125)" xlink:href="#DejaVuSans-56"/>
      <use transform="translate(343.035156 0.125)" xlink:href="#DejaVuSans-215"/>
      <use transform="translate(426.824219 0.125)" xlink:href="#DejaVuSans-41"/>
     </g>
    </g>
    <g id="line2d_82">
     <path d="M 292.435156 225.178438 
L 312.435156 225.178438 
" style="fill:none;stroke:#9467bd;stroke-linecap:square;stroke-width:1.5;"/>
    </g>
    <g id="line2d_83">
     <defs>
      <path d="M 0 3 
C 0.795609 3 1.55874 2.683901 2.12132 2.12132 
C 2.683901 1.55874 3 0.795609 3 0 
C 3 -0.795609 2.683901 -1.55874 2.12132 -2.12132 
C 1.55874 -2.683901 0.795609 -3 0 -3 
C -0.795609 -3 -1.55874 -2.683901 -2.12132 -2.12132 
C -2.683901 -1.55874 -3 -0.795609 -3 0 
C -3 0.795609 -2.683901 1.55874 -2.12132 2.12132 
C -1.55874 2.683901 -0.795609 3 0 3 
z
" id="mdda5efd882" style="stroke:#9467bd;"/>
     </defs>
     <g>
      <use style="fill:#9467bd;stroke:#9467bd;" x="302.435156" xlink:href="#mdda5efd882" y="225.178438"/>
     </g>
    </g>
    <g id="text_30">
     <!-- IA (2.0$\times$) -->
     <defs>
      <path d="M 9.8125 72.90625 
L 19.671875 72.90625 
L 19.671875 0 
L 9.8125 0 
z
" id="DejaVuSans-73"/>
     </defs>
     <g transform="translate(320.435156 228.678438)scale(0.1 -0.1)">
      <use transform="translate(0 0.125)" xlink:href="#DejaVuSans-73"/>
      <use transform="translate(29.492188 0.125)" xlink:href="#DejaVuSans-65"/>
      <use transform="translate(97.900391 0.125)" xlink:href="#DejaVuSans-32"/>
      <use transform="translate(129.6875 0.125)" xlink:href="#DejaVuSans-40"/>
      <use transform="translate(168.701172 0.125)" xlink:href="#DejaVuSans-50"/>
      <use transform="translate(232.324219 0.125)" xlink:href="#DejaVuSans-46"/>
      <use transform="translate(264.111328 0.125)" xlink:href="#DejaVuSans-48"/>
      <use transform="translate(327.734375 0.125)" xlink:href="#DejaVuSans-215"/>
      <use transform="translate(411.523438 0.125)" xlink:href="#DejaVuSans-41"/>
     </g>
    </g>
   </g>
   <g id="line2d_84">
    <path clip-path="url(#p09f12ca80d)" d="M 9.558331 286.216117 
L 14.15058 268.155245 
L 23.894214 252.574098 
L 33.637848 236.99295 
L 43.381482 221.157802 
L 53.125116 217.228439 
L 62.86875 210.655895 
L 72.612384 206.217121 
L 82.356018 201.123285 
L 92.099652 191.974395 
L 101.843286 186.225758 
L 111.58692 177.890015 
L 121.330554 173.791637 
L 131.074188 167.931819 
L 140.817821 159.636687 
L 150.561455 147.268506 
L 160.305089 134.778144 
L 170.048723 122.711808 
L 179.792357 114.233022 
L 189.535991 105.654603 
L 199.279625 98.475662 
L 209.023259 93.832074 
L 218.766893 88.136443 
L 228.510527 84.433668 
L 238.254161 81.392504 
L 247.997795 77.377798 
L 257.741429 74.905105 
L 267.485063 72.203872 
L 277.228696 69.47867 
L 286.97233 67.208888 
L 296.715964 64.946869 
L 306.459598 62.623843 
L 316.203232 60.118997 
L 325.946866 58.622734 
L 335.6905 57.241025 
L 345.434134 55.683393 
" style="fill:none;stroke:#1f77b4;stroke-linecap:square;stroke-width:1.5;"/>
    <g clip-path="url(#p09f12ca80d)">
     <use style="fill:#1f77b4;stroke:#1f77b4;" x="-1" xlink:href="#m328be86572" y="315.122317"/>
     <use style="fill:#1f77b4;stroke:#1f77b4;" x="4.406946" xlink:href="#m328be86572" y="306.476012"/>
     <use style="fill:#1f77b4;stroke:#1f77b4;" x="14.15058" xlink:href="#m328be86572" y="268.155245"/>
     <use style="fill:#1f77b4;stroke:#1f77b4;" x="23.894214" xlink:href="#m328be86572" y="252.574098"/>
     <use style="fill:#1f77b4;stroke:#1f77b4;" x="33.637848" xlink:href="#m328be86572" y="236.99295"/>
     <use style="fill:#1f77b4;stroke:#1f77b4;" x="43.381482" xlink:href="#m328be86572" y="221.157802"/>
     <use style="fill:#1f77b4;stroke:#1f77b4;" x="53.125116" xlink:href="#m328be86572" y="217.228439"/>
     <use style="fill:#1f77b4;stroke:#1f77b4;" x="62.86875" xlink:href="#m328be86572" y="210.655895"/>
     <use style="fill:#1f77b4;stroke:#1f77b4;" x="72.612384" xlink:href="#m328be86572" y="206.217121"/>
     <use style="fill:#1f77b4;stroke:#1f77b4;" x="82.356018" xlink:href="#m328be86572" y="201.123285"/>
     <use style="fill:#1f77b4;stroke:#1f77b4;" x="92.099652" xlink:href="#m328be86572" y="191.974395"/>
     <use style="fill:#1f77b4;stroke:#1f77b4;" x="101.843286" xlink:href="#m328be86572" y="186.225758"/>
     <use style="fill:#1f77b4;stroke:#1f77b4;" x="111.58692" xlink:href="#m328be86572" y="177.890015"/>
     <use style="fill:#1f77b4;stroke:#1f77b4;" x="121.330554" xlink:href="#m328be86572" y="173.791637"/>
     <use style="fill:#1f77b4;stroke:#1f77b4;" x="131.074188" xlink:href="#m328be86572" y="167.931819"/>
     <use style="fill:#1f77b4;stroke:#1f77b4;" x="140.817821" xlink:href="#m328be86572" y="159.636687"/>
     <use style="fill:#1f77b4;stroke:#1f77b4;" x="150.561455" xlink:href="#m328be86572" y="147.268506"/>
     <use style="fill:#1f77b4;stroke:#1f77b4;" x="160.305089" xlink:href="#m328be86572" y="134.778144"/>
     <use style="fill:#1f77b4;stroke:#1f77b4;" x="170.048723" xlink:href="#m328be86572" y="122.711808"/>
     <use style="fill:#1f77b4;stroke:#1f77b4;" x="179.792357" xlink:href="#m328be86572" y="114.233022"/>
     <use style="fill:#1f77b4;stroke:#1f77b4;" x="189.535991" xlink:href="#m328be86572" y="105.654603"/>
     <use style="fill:#1f77b4;stroke:#1f77b4;" x="199.279625" xlink:href="#m328be86572" y="98.475662"/>
     <use style="fill:#1f77b4;stroke:#1f77b4;" x="209.023259" xlink:href="#m328be86572" y="93.832074"/>
     <use style="fill:#1f77b4;stroke:#1f77b4;" x="218.766893" xlink:href="#m328be86572" y="88.136443"/>
     <use style="fill:#1f77b4;stroke:#1f77b4;" x="228.510527" xlink:href="#m328be86572" y="84.433668"/>
     <use style="fill:#1f77b4;stroke:#1f77b4;" x="238.254161" xlink:href="#m328be86572" y="81.392504"/>
     <use style="fill:#1f77b4;stroke:#1f77b4;" x="247.997795" xlink:href="#m328be86572" y="77.377798"/>
     <use style="fill:#1f77b4;stroke:#1f77b4;" x="257.741429" xlink:href="#m328be86572" y="74.905105"/>
     <use style="fill:#1f77b4;stroke:#1f77b4;" x="267.485063" xlink:href="#m328be86572" y="72.203872"/>
     <use style="fill:#1f77b4;stroke:#1f77b4;" x="277.228696" xlink:href="#m328be86572" y="69.47867"/>
     <use style="fill:#1f77b4;stroke:#1f77b4;" x="286.97233" xlink:href="#m328be86572" y="67.208888"/>
     <use style="fill:#1f77b4;stroke:#1f77b4;" x="296.715964" xlink:href="#m328be86572" y="64.946869"/>
     <use style="fill:#1f77b4;stroke:#1f77b4;" x="306.459598" xlink:href="#m328be86572" y="62.623843"/>
     <use style="fill:#1f77b4;stroke:#1f77b4;" x="316.203232" xlink:href="#m328be86572" y="60.118997"/>
     <use style="fill:#1f77b4;stroke:#1f77b4;" x="325.946866" xlink:href="#m328be86572" y="58.622734"/>
     <use style="fill:#1f77b4;stroke:#1f77b4;" x="335.6905" xlink:href="#m328be86572" y="57.241025"/>
     <use style="fill:#1f77b4;stroke:#1f77b4;" x="345.434134" xlink:href="#m328be86572" y="55.683393"/>
    </g>
   </g>
   <g id="line2d_85">
    <path clip-path="url(#p09f12ca80d)" d="M 25.543185 286.216117 
L 33.637848 273.271856 
L 43.381482 273.271856 
L 53.125116 264.157469 
L 62.86875 250.532236 
L 72.612384 243.560312 
L 82.356018 233.951865 
L 92.099652 228.741232 
L 101.843286 216.496395 
L 111.58692 207.382008 
L 121.330554 201.369381 
L 131.074188 188.207646 
L 140.817821 178.755225 
L 150.561455 168.284646 
L 160.305089 156.07669 
L 170.048723 151.624307 
L 179.792357 142.644123 
L 189.535991 134.562636 
L 199.279625 125.660649 
L 209.023259 119.898386 
L 218.766893 115.840823 
L 228.510527 105.815751 
L 238.254161 100.206121 
L 247.997795 95.001901 
L 257.741429 90.840967 
L 267.485063 85.954974 
L 277.228696 83.330781 
L 286.97233 79.413682 
L 296.715964 76.27485 
L 306.459598 72.779624 
L 316.203232 69.805455 
L 325.946866 67.681804 
L 335.6905 65.629698 
L 345.434134 63.880058 
" style="fill:none;stroke:#ff7f0e;stroke-linecap:square;stroke-width:1.5;"/>
    <g clip-path="url(#p09f12ca80d)">
     <use style="fill:#ff7f0e;stroke:#ff7f0e;" x="14.15058" xlink:href="#m0e9bbb0253" y="304.43415"/>
     <use style="fill:#ff7f0e;stroke:#ff7f0e;" x="23.894214" xlink:href="#m0e9bbb0253" y="288.853003"/>
     <use style="fill:#ff7f0e;stroke:#ff7f0e;" x="33.637848" xlink:href="#m0e9bbb0253" y="273.271856"/>
     <use style="fill:#ff7f0e;stroke:#ff7f0e;" x="43.381482" xlink:href="#m0e9bbb0253" y="273.271856"/>
     <use style="fill:#ff7f0e;stroke:#ff7f0e;" x="53.125116" xlink:href="#m0e9bbb0253" y="264.157469"/>
     <use style="fill:#ff7f0e;stroke:#ff7f0e;" x="62.86875" xlink:href="#m0e9bbb0253" y="250.532236"/>
     <use style="fill:#ff7f0e;stroke:#ff7f0e;" x="72.612384" xlink:href="#m0e9bbb0253" y="243.560312"/>
     <use style="fill:#ff7f0e;stroke:#ff7f0e;" x="82.356018" xlink:href="#m0e9bbb0253" y="233.951865"/>
     <use style="fill:#ff7f0e;stroke:#ff7f0e;" x="92.099652" xlink:href="#m0e9bbb0253" y="228.741232"/>
     <use style="fill:#ff7f0e;stroke:#ff7f0e;" x="101.843286" xlink:href="#m0e9bbb0253" y="216.496395"/>
     <use style="fill:#ff7f0e;stroke:#ff7f0e;" x="111.58692" xlink:href="#m0e9bbb0253" y="207.382008"/>
     <use style="fill:#ff7f0e;stroke:#ff7f0e;" x="121.330554" xlink:href="#m0e9bbb0253" y="201.369381"/>
     <use style="fill:#ff7f0e;stroke:#ff7f0e;" x="131.074188" xlink:href="#m0e9bbb0253" y="188.207646"/>
     <use style="fill:#ff7f0e;stroke:#ff7f0e;" x="140.817821" xlink:href="#m0e9bbb0253" y="178.755225"/>
     <use style="fill:#ff7f0e;stroke:#ff7f0e;" x="150.561455" xlink:href="#m0e9bbb0253" y="168.284646"/>
     <use style="fill:#ff7f0e;stroke:#ff7f0e;" x="160.305089" xlink:href="#m0e9bbb0253" y="156.07669"/>
     <use style="fill:#ff7f0e;stroke:#ff7f0e;" x="170.048723" xlink:href="#m0e9bbb0253" y="151.624307"/>
     <use style="fill:#ff7f0e;stroke:#ff7f0e;" x="179.792357" xlink:href="#m0e9bbb0253" y="142.644123"/>
     <use style="fill:#ff7f0e;stroke:#ff7f0e;" x="189.535991" xlink:href="#m0e9bbb0253" y="134.562636"/>
     <use style="fill:#ff7f0e;stroke:#ff7f0e;" x="199.279625" xlink:href="#m0e9bbb0253" y="125.660649"/>
     <use style="fill:#ff7f0e;stroke:#ff7f0e;" x="209.023259" xlink:href="#m0e9bbb0253" y="119.898386"/>
     <use style="fill:#ff7f0e;stroke:#ff7f0e;" x="218.766893" xlink:href="#m0e9bbb0253" y="115.840823"/>
     <use style="fill:#ff7f0e;stroke:#ff7f0e;" x="228.510527" xlink:href="#m0e9bbb0253" y="105.815751"/>
     <use style="fill:#ff7f0e;stroke:#ff7f0e;" x="238.254161" xlink:href="#m0e9bbb0253" y="100.206121"/>
     <use style="fill:#ff7f0e;stroke:#ff7f0e;" x="247.997795" xlink:href="#m0e9bbb0253" y="95.001901"/>
     <use style="fill:#ff7f0e;stroke:#ff7f0e;" x="257.741429" xlink:href="#m0e9bbb0253" y="90.840967"/>
     <use style="fill:#ff7f0e;stroke:#ff7f0e;" x="267.485063" xlink:href="#m0e9bbb0253" y="85.954974"/>
     <use style="fill:#ff7f0e;stroke:#ff7f0e;" x="277.228696" xlink:href="#m0e9bbb0253" y="83.330781"/>
     <use style="fill:#ff7f0e;stroke:#ff7f0e;" x="286.97233" xlink:href="#m0e9bbb0253" y="79.413682"/>
     <use style="fill:#ff7f0e;stroke:#ff7f0e;" x="296.715964" xlink:href="#m0e9bbb0253" y="76.27485"/>
     <use style="fill:#ff7f0e;stroke:#ff7f0e;" x="306.459598" xlink:href="#m0e9bbb0253" y="72.779624"/>
     <use style="fill:#ff7f0e;stroke:#ff7f0e;" x="316.203232" xlink:href="#m0e9bbb0253" y="69.805455"/>
     <use style="fill:#ff7f0e;stroke:#ff7f0e;" x="325.946866" xlink:href="#m0e9bbb0253" y="67.681804"/>
     <use style="fill:#ff7f0e;stroke:#ff7f0e;" x="335.6905" xlink:href="#m0e9bbb0253" y="65.629698"/>
     <use style="fill:#ff7f0e;stroke:#ff7f0e;" x="345.434134" xlink:href="#m0e9bbb0253" y="63.880058"/>
    </g>
   </g>
   <g id="line2d_86">
    <path clip-path="url(#p09f12ca80d)" d="M 23.894214 279.112242 
L 33.637848 247.949947 
L 43.381482 247.949947 
L 53.125116 247.949947 
L 62.86875 238.83556 
L 72.612384 231.006028 
L 82.356018 215.424881 
L 92.099652 207.209768 
L 101.843286 196.759611 
L 111.58692 190.510039 
L 121.330554 184.262586 
L 131.074188 180.469293 
L 140.817821 177.590162 
L 150.561455 173.863344 
L 160.305089 168.190972 
L 170.048723 162.132187 
L 179.792357 156.149197 
L 189.535991 151.237542 
L 199.279625 146.768228 
L 209.023259 141.48568 
L 218.766893 137.560503 
L 228.510527 131.34351 
L 238.254161 127.029025 
L 247.997795 123.158531 
L 257.741429 120.546076 
L 267.485063 117.695457 
L 277.228696 114.794555 
L 286.97233 112.26586 
L 296.715964 109.835756 
L 306.459598 107.252539 
L 316.203232 105.238468 
L 325.946866 103.462651 
L 335.6905 102.476462 
L 345.434134 101.386339 
" style="fill:none;stroke:#2ca02c;stroke-linecap:square;stroke-width:1.5;"/>
    <g clip-path="url(#p09f12ca80d)">
     <use style="fill:#2ca02c;stroke:#2ca02c;" x="23.894214" xlink:href="#m1cd58f5b4c" y="279.112242"/>
     <use style="fill:#2ca02c;stroke:#2ca02c;" x="33.637848" xlink:href="#m1cd58f5b4c" y="247.949947"/>
     <use style="fill:#2ca02c;stroke:#2ca02c;" x="43.381482" xlink:href="#m1cd58f5b4c" y="247.949947"/>
     <use style="fill:#2ca02c;stroke:#2ca02c;" x="53.125116" xlink:href="#m1cd58f5b4c" y="247.949947"/>
     <use style="fill:#2ca02c;stroke:#2ca02c;" x="62.86875" xlink:href="#m1cd58f5b4c" y="238.83556"/>
     <use style="fill:#2ca02c;stroke:#2ca02c;" x="72.612384" xlink:href="#m1cd58f5b4c" y="231.006028"/>
     <use style="fill:#2ca02c;stroke:#2ca02c;" x="82.356018" xlink:href="#m1cd58f5b4c" y="215.424881"/>
     <use style="fill:#2ca02c;stroke:#2ca02c;" x="92.099652" xlink:href="#m1cd58f5b4c" y="207.209768"/>
     <use style="fill:#2ca02c;stroke:#2ca02c;" x="101.843286" xlink:href="#m1cd58f5b4c" y="196.759611"/>
     <use style="fill:#2ca02c;stroke:#2ca02c;" x="111.58692" xlink:href="#m1cd58f5b4c" y="190.510039"/>
     <use style="fill:#2ca02c;stroke:#2ca02c;" x="121.330554" xlink:href="#m1cd58f5b4c" y="184.262586"/>
     <use style="fill:#2ca02c;stroke:#2ca02c;" x="131.074188" xlink:href="#m1cd58f5b4c" y="180.469293"/>
     <use style="fill:#2ca02c;stroke:#2ca02c;" x="140.817821" xlink:href="#m1cd58f5b4c" y="177.590162"/>
     <use style="fill:#2ca02c;stroke:#2ca02c;" x="150.561455" xlink:href="#m1cd58f5b4c" y="173.863344"/>
     <use style="fill:#2ca02c;stroke:#2ca02c;" x="160.305089" xlink:href="#m1cd58f5b4c" y="168.190972"/>
     <use style="fill:#2ca02c;stroke:#2ca02c;" x="170.048723" xlink:href="#m1cd58f5b4c" y="162.132187"/>
     <use style="fill:#2ca02c;stroke:#2ca02c;" x="179.792357" xlink:href="#m1cd58f5b4c" y="156.149197"/>
     <use style="fill:#2ca02c;stroke:#2ca02c;" x="189.535991" xlink:href="#m1cd58f5b4c" y="151.237542"/>
     <use style="fill:#2ca02c;stroke:#2ca02c;" x="199.279625" xlink:href="#m1cd58f5b4c" y="146.768228"/>
     <use style="fill:#2ca02c;stroke:#2ca02c;" x="209.023259" xlink:href="#m1cd58f5b4c" y="141.48568"/>
     <use style="fill:#2ca02c;stroke:#2ca02c;" x="218.766893" xlink:href="#m1cd58f5b4c" y="137.560503"/>
     <use style="fill:#2ca02c;stroke:#2ca02c;" x="228.510527" xlink:href="#m1cd58f5b4c" y="131.34351"/>
     <use style="fill:#2ca02c;stroke:#2ca02c;" x="238.254161" xlink:href="#m1cd58f5b4c" y="127.029025"/>
     <use style="fill:#2ca02c;stroke:#2ca02c;" x="247.997795" xlink:href="#m1cd58f5b4c" y="123.158531"/>
     <use style="fill:#2ca02c;stroke:#2ca02c;" x="257.741429" xlink:href="#m1cd58f5b4c" y="120.546076"/>
     <use style="fill:#2ca02c;stroke:#2ca02c;" x="267.485063" xlink:href="#m1cd58f5b4c" y="117.695457"/>
     <use style="fill:#2ca02c;stroke:#2ca02c;" x="277.228696" xlink:href="#m1cd58f5b4c" y="114.794555"/>
     <use style="fill:#2ca02c;stroke:#2ca02c;" x="286.97233" xlink:href="#m1cd58f5b4c" y="112.26586"/>
     <use style="fill:#2ca02c;stroke:#2ca02c;" x="296.715964" xlink:href="#m1cd58f5b4c" y="109.835756"/>
     <use style="fill:#2ca02c;stroke:#2ca02c;" x="306.459598" xlink:href="#m1cd58f5b4c" y="107.252539"/>
     <use style="fill:#2ca02c;stroke:#2ca02c;" x="316.203232" xlink:href="#m1cd58f5b4c" y="105.238468"/>
     <use style="fill:#2ca02c;stroke:#2ca02c;" x="325.946866" xlink:href="#m1cd58f5b4c" y="103.462651"/>
     <use style="fill:#2ca02c;stroke:#2ca02c;" x="335.6905" xlink:href="#m1cd58f5b4c" y="102.476462"/>
     <use style="fill:#2ca02c;stroke:#2ca02c;" x="345.434134" xlink:href="#m1cd58f5b4c" y="101.386339"/>
    </g>
   </g>
   <g id="line2d_87">
    <path clip-path="url(#p09f12ca80d)" d="M 29.241689 286.216117 
L 33.637848 280.540457 
L 43.381482 268.424438 
L 53.125116 266.625171 
L 62.86875 264.959309 
L 72.612384 253.799982 
L 82.356018 251.044023 
L 92.099652 238.218834 
L 101.843286 228.781005 
L 111.58692 228.781005 
L 121.330554 218.82619 
L 131.074188 213.039865 
L 140.817821 204.085471 
L 150.561455 194.199503 
L 160.305089 187.767246 
L 170.048723 181.87757 
L 179.792357 175.054937 
L 189.535991 169.003913 
L 199.279625 164.497155 
L 209.023259 160.389582 
L 218.766893 153.819628 
L 228.510527 148.614519 
L 238.254161 142.871681 
L 247.997795 137.629077 
L 257.741429 133.087888 
L 267.485063 129.90392 
L 277.228696 126.109596 
L 286.97233 122.930679 
L 296.715964 119.612844 
L 306.459598 116.66748 
L 316.203232 114.030568 
L 325.946866 112.514396 
L 335.6905 110.297878 
L 345.434134 108.524649 
" style="fill:none;stroke:#d62728;stroke-linecap:square;stroke-width:1.5;"/>
    <g clip-path="url(#p09f12ca80d)">
     <use style="fill:#d62728;stroke:#d62728;" x="-1" xlink:href="#m5b7833d6d1" y="304.644497"/>
     <use style="fill:#d62728;stroke:#d62728;" x="4.406946" xlink:href="#m5b7833d6d1" y="299.586733"/>
     <use style="fill:#d62728;stroke:#d62728;" x="14.15058" xlink:href="#m5b7833d6d1" y="299.586733"/>
     <use style="fill:#d62728;stroke:#d62728;" x="23.894214" xlink:href="#m5b7833d6d1" y="293.119973"/>
     <use style="fill:#d62728;stroke:#d62728;" x="33.637848" xlink:href="#m5b7833d6d1" y="280.540457"/>
     <use style="fill:#d62728;stroke:#d62728;" x="43.381482" xlink:href="#m5b7833d6d1" y="268.424438"/>
     <use style="fill:#d62728;stroke:#d62728;" x="53.125116" xlink:href="#m5b7833d6d1" y="266.625171"/>
     <use style="fill:#d62728;stroke:#d62728;" x="62.86875" xlink:href="#m5b7833d6d1" y="264.959309"/>
     <use style="fill:#d62728;stroke:#d62728;" x="72.612384" xlink:href="#m5b7833d6d1" y="253.799982"/>
     <use style="fill:#d62728;stroke:#d62728;" x="82.356018" xlink:href="#m5b7833d6d1" y="251.044023"/>
     <use style="fill:#d62728;stroke:#d62728;" x="92.099652" xlink:href="#m5b7833d6d1" y="238.218834"/>
     <use style="fill:#d62728;stroke:#d62728;" x="101.843286" xlink:href="#m5b7833d6d1" y="228.781005"/>
     <use style="fill:#d62728;stroke:#d62728;" x="111.58692" xlink:href="#m5b7833d6d1" y="228.781005"/>
     <use style="fill:#d62728;stroke:#d62728;" x="121.330554" xlink:href="#m5b7833d6d1" y="218.82619"/>
     <use style="fill:#d62728;stroke:#d62728;" x="131.074188" xlink:href="#m5b7833d6d1" y="213.039865"/>
     <use style="fill:#d62728;stroke:#d62728;" x="140.817821" xlink:href="#m5b7833d6d1" y="204.085471"/>
     <use style="fill:#d62728;stroke:#d62728;" x="150.561455" xlink:href="#m5b7833d6d1" y="194.199503"/>
     <use style="fill:#d62728;stroke:#d62728;" x="160.305089" xlink:href="#m5b7833d6d1" y="187.767246"/>
     <use style="fill:#d62728;stroke:#d62728;" x="170.048723" xlink:href="#m5b7833d6d1" y="181.87757"/>
     <use style="fill:#d62728;stroke:#d62728;" x="179.792357" xlink:href="#m5b7833d6d1" y="175.054937"/>
     <use style="fill:#d62728;stroke:#d62728;" x="189.535991" xlink:href="#m5b7833d6d1" y="169.003913"/>
     <use style="fill:#d62728;stroke:#d62728;" x="199.279625" xlink:href="#m5b7833d6d1" y="164.497155"/>
     <use style="fill:#d62728;stroke:#d62728;" x="209.023259" xlink:href="#m5b7833d6d1" y="160.389582"/>
     <use style="fill:#d62728;stroke:#d62728;" x="218.766893" xlink:href="#m5b7833d6d1" y="153.819628"/>
     <use style="fill:#d62728;stroke:#d62728;" x="228.510527" xlink:href="#m5b7833d6d1" y="148.614519"/>
     <use style="fill:#d62728;stroke:#d62728;" x="238.254161" xlink:href="#m5b7833d6d1" y="142.871681"/>
     <use style="fill:#d62728;stroke:#d62728;" x="247.997795" xlink:href="#m5b7833d6d1" y="137.629077"/>
     <use style="fill:#d62728;stroke:#d62728;" x="257.741429" xlink:href="#m5b7833d6d1" y="133.087888"/>
     <use style="fill:#d62728;stroke:#d62728;" x="267.485063" xlink:href="#m5b7833d6d1" y="129.90392"/>
     <use style="fill:#d62728;stroke:#d62728;" x="277.228696" xlink:href="#m5b7833d6d1" y="126.109596"/>
     <use style="fill:#d62728;stroke:#d62728;" x="286.97233" xlink:href="#m5b7833d6d1" y="122.930679"/>
     <use style="fill:#d62728;stroke:#d62728;" x="296.715964" xlink:href="#m5b7833d6d1" y="119.612844"/>
     <use style="fill:#d62728;stroke:#d62728;" x="306.459598" xlink:href="#m5b7833d6d1" y="116.66748"/>
     <use style="fill:#d62728;stroke:#d62728;" x="316.203232" xlink:href="#m5b7833d6d1" y="114.030568"/>
     <use style="fill:#d62728;stroke:#d62728;" x="325.946866" xlink:href="#m5b7833d6d1" y="112.514396"/>
     <use style="fill:#d62728;stroke:#d62728;" x="335.6905" xlink:href="#m5b7833d6d1" y="110.297878"/>
     <use style="fill:#d62728;stroke:#d62728;" x="345.434134" xlink:href="#m5b7833d6d1" y="108.524649"/>
    </g>
   </g>
   <g id="line2d_88">
    <path clip-path="url(#p09f12ca80d)" d="M 53.125116 256.47217 
L 62.86875 234.424262 
L 72.612384 223.510608 
L 82.356018 221.844746 
L 92.099652 218.843115 
L 101.843286 217.480343 
L 111.58692 216.195488 
L 121.330554 211.684643 
L 131.074188 211.684643 
L 140.817821 205.474786 
L 150.561455 199.398972 
L 160.305089 196.103495 
L 170.048723 195.598332 
L 179.792357 186.318048 
L 189.535991 180.017184 
L 199.279625 176.552055 
L 209.023259 172.813346 
L 218.766893 169.296482 
L 228.510527 164.561267 
L 238.254161 158.442532 
L 247.997795 153.103628 
L 257.741429 150.405769 
L 267.485063 145.176689 
L 277.228696 141.560593 
L 286.97233 139.368943 
L 296.715964 136.853639 
L 306.459598 133.939126 
L 316.203232 131.302222 
L 325.946866 129.071535 
L 335.6905 127.137212 
L 345.434134 124.835461 
" style="fill:none;stroke:#9467bd;stroke-linecap:square;stroke-width:1.5;"/>
    <g clip-path="url(#p09f12ca80d)">
     <use style="fill:#9467bd;stroke:#9467bd;" x="53.125116" xlink:href="#mdda5efd882" y="256.47217"/>
     <use style="fill:#9467bd;stroke:#9467bd;" x="62.86875" xlink:href="#mdda5efd882" y="234.424262"/>
     <use style="fill:#9467bd;stroke:#9467bd;" x="72.612384" xlink:href="#mdda5efd882" y="223.510608"/>
     <use style="fill:#9467bd;stroke:#9467bd;" x="82.356018" xlink:href="#mdda5efd882" y="221.844746"/>
     <use style="fill:#9467bd;stroke:#9467bd;" x="92.099652" xlink:href="#mdda5efd882" y="218.843115"/>
     <use style="fill:#9467bd;stroke:#9467bd;" x="101.843286" xlink:href="#mdda5efd882" y="217.480343"/>
     <use style="fill:#9467bd;stroke:#9467bd;" x="111.58692" xlink:href="#mdda5efd882" y="216.195488"/>
     <use style="fill:#9467bd;stroke:#9467bd;" x="121.330554" xlink:href="#mdda5efd882" y="211.684643"/>
     <use style="fill:#9467bd;stroke:#9467bd;" x="131.074188" xlink:href="#mdda5efd882" y="211.684643"/>
     <use style="fill:#9467bd;stroke:#9467bd;" x="140.817821" xlink:href="#mdda5efd882" y="205.474786"/>
     <use style="fill:#9467bd;stroke:#9467bd;" x="150.561455" xlink:href="#mdda5efd882" y="199.398972"/>
     <use style="fill:#9467bd;stroke:#9467bd;" x="160.305089" xlink:href="#mdda5efd882" y="196.103495"/>
     <use style="fill:#9467bd;stroke:#9467bd;" x="170.048723" xlink:href="#mdda5efd882" y="195.598332"/>
     <use style="fill:#9467bd;stroke:#9467bd;" x="179.792357" xlink:href="#mdda5efd882" y="186.318048"/>
     <use style="fill:#9467bd;stroke:#9467bd;" x="189.535991" xlink:href="#mdda5efd882" y="180.017184"/>
     <use style="fill:#9467bd;stroke:#9467bd;" x="199.279625" xlink:href="#mdda5efd882" y="176.552055"/>
     <use style="fill:#9467bd;stroke:#9467bd;" x="209.023259" xlink:href="#mdda5efd882" y="172.813346"/>
     <use style="fill:#9467bd;stroke:#9467bd;" x="218.766893" xlink:href="#mdda5efd882" y="169.296482"/>
     <use style="fill:#9467bd;stroke:#9467bd;" x="228.510527" xlink:href="#mdda5efd882" y="164.561267"/>
     <use style="fill:#9467bd;stroke:#9467bd;" x="238.254161" xlink:href="#mdda5efd882" y="158.442532"/>
     <use style="fill:#9467bd;stroke:#9467bd;" x="247.997795" xlink:href="#mdda5efd882" y="153.103628"/>
     <use style="fill:#9467bd;stroke:#9467bd;" x="257.741429" xlink:href="#mdda5efd882" y="150.405769"/>
     <use style="fill:#9467bd;stroke:#9467bd;" x="267.485063" xlink:href="#mdda5efd882" y="145.176689"/>
     <use style="fill:#9467bd;stroke:#9467bd;" x="277.228696" xlink:href="#mdda5efd882" y="141.560593"/>
     <use style="fill:#9467bd;stroke:#9467bd;" x="286.97233" xlink:href="#mdda5efd882" y="139.368943"/>
     <use style="fill:#9467bd;stroke:#9467bd;" x="296.715964" xlink:href="#mdda5efd882" y="136.853639"/>
     <use style="fill:#9467bd;stroke:#9467bd;" x="306.459598" xlink:href="#mdda5efd882" y="133.939126"/>
     <use style="fill:#9467bd;stroke:#9467bd;" x="316.203232" xlink:href="#mdda5efd882" y="131.302222"/>
     <use style="fill:#9467bd;stroke:#9467bd;" x="325.946866" xlink:href="#mdda5efd882" y="129.071535"/>
     <use style="fill:#9467bd;stroke:#9467bd;" x="335.6905" xlink:href="#mdda5efd882" y="127.137212"/>
     <use style="fill:#9467bd;stroke:#9467bd;" x="345.434134" xlink:href="#mdda5efd882" y="124.835461"/>
    </g>
   </g>
  </g>
 </g>
 <defs>
  <clipPath id="p09f12ca80d">
   <rect height="217.44" width="334.8" x="62.86875" y="22.318125"/>
  </clipPath>
 </defs>
</svg>
