<?xml version="1.0" encoding="utf-8" standalone="no"?>
<!DOCTYPE svg PUBLIC "-//W3C//DTD SVG 1.1//EN"
  "http://www.w3.org/Graphics/SVG/1.1/DTD/svg11.dtd">
<!-- Created with matplotlib (https://matplotlib.org/) -->
<svg height="272.789136pt" version="1.1" viewBox="0 0 401.690625 272.789136" width="401.690625pt" xmlns="http://www.w3.org/2000/svg" xmlns:xlink="http://www.w3.org/1999/xlink">
 <defs>
  <style type="text/css">
*{stroke-linecap:butt;stroke-linejoin:round;}
  </style>
 </defs>
 <g id="figure_1">
  <g id="patch_1">
   <path d="M 0 272.789136 
L 401.690625 272.789136 
L 401.690625 0 
L 0 0 
z
" style="fill:#ffffff;"/>
  </g>
  <g id="axes_1">
   <g id="patch_2">
    <path d="M 59.690625 224.64 
L 394.490625 224.64 
L 394.490625 7.2 
L 59.690625 7.2 
z
" style="fill:#ffffff;"/>
   </g>
   <g id="matplotlib.axis_1">
    <g id="xtick_1">
     <g id="line2d_1">
      <path clip-path="url(#p362d147719)" d="M 59.690625 224.64 
L 59.690625 7.2 
" style="fill:none;stroke:#b0b0b0;stroke-linecap:square;stroke-opacity:0.8;stroke-width:0.8;"/>
     </g>
     <g id="line2d_2">
      <defs>
       <path d="M 0 0 
L 0 3.5 
" id="mbc2baef5d2" style="stroke:#000000;stroke-width:0.8;"/>
      </defs>
      <g>
       <use style="stroke:#000000;stroke-width:0.8;" x="59.690625" xlink:href="#mbc2baef5d2" y="224.64"/>
      </g>
     </g>
     <g id="text_1">
      <!-- Mar. -->
      <defs>
       <path d="M 9.8125 72.90625 
L 24.515625 72.90625 
L 43.109375 23.296875 
L 61.8125 72.90625 
L 76.515625 72.90625 
L 76.515625 0 
L 66.890625 0 
L 66.890625 64.015625 
L 48.09375 14.015625 
L 38.1875 14.015625 
L 19.390625 64.015625 
L 19.390625 0 
L 9.8125 0 
z
" id="DejaVuSans-77"/>
       <path d="M 34.28125 27.484375 
Q 23.390625 27.484375 19.1875 25 
Q 14.984375 22.515625 14.984375 16.5 
Q 14.984375 11.71875 18.140625 8.90625 
Q 21.296875 6.109375 26.703125 6.109375 
Q 34.1875 6.109375 38.703125 11.40625 
Q 43.21875 16.703125 43.21875 25.484375 
L 43.21875 27.484375 
z
M 52.203125 31.203125 
L 52.203125 0 
L 43.21875 0 
L 43.21875 8.296875 
Q 40.140625 3.328125 35.546875 0.953125 
Q 30.953125 -1.421875 24.3125 -1.421875 
Q 15.921875 -1.421875 10.953125 3.296875 
Q 6 8.015625 6 15.921875 
Q 6 25.140625 12.171875 29.828125 
Q 18.359375 34.515625 30.609375 34.515625 
L 43.21875 34.515625 
L 43.21875 35.40625 
Q 43.21875 41.609375 39.140625 45 
Q 35.0625 48.390625 27.6875 48.390625 
Q 23 48.390625 18.546875 47.265625 
Q 14.109375 46.140625 10.015625 43.890625 
L 10.015625 52.203125 
Q 14.9375 54.109375 19.578125 55.046875 
Q 24.21875 56 28.609375 56 
Q 40.484375 56 46.34375 49.84375 
Q 52.203125 43.703125 52.203125 31.203125 
z
" id="DejaVuSans-97"/>
       <path d="M 41.109375 46.296875 
Q 39.59375 47.171875 37.8125 47.578125 
Q 36.03125 48 33.890625 48 
Q 26.265625 48 22.1875 43.046875 
Q 18.109375 38.09375 18.109375 28.8125 
L 18.109375 0 
L 9.078125 0 
L 9.078125 54.6875 
L 18.109375 54.6875 
L 18.109375 46.1875 
Q 20.953125 51.171875 25.484375 53.578125 
Q 30.03125 56 36.53125 56 
Q 37.453125 56 38.578125 55.875 
Q 39.703125 55.765625 41.0625 55.515625 
z
" id="DejaVuSans-114"/>
       <path d="M 10.6875 12.40625 
L 21 12.40625 
L 21 0 
L 10.6875 0 
z
" id="DejaVuSans-46"/>
      </defs>
      <g transform="translate(48.675 239.238437)scale(0.1 -0.1)">
       <use xlink:href="#DejaVuSans-77"/>
       <use x="86.279297" xlink:href="#DejaVuSans-97"/>
       <use x="147.558594" xlink:href="#DejaVuSans-114"/>
       <use x="188.53125" xlink:href="#DejaVuSans-46"/>
      </g>
      <!-- 09 -->
      <defs>
       <path d="M 31.78125 66.40625 
Q 24.171875 66.40625 20.328125 58.90625 
Q 16.5 51.421875 16.5 36.375 
Q 16.5 21.390625 20.328125 13.890625 
Q 24.171875 6.390625 31.78125 6.390625 
Q 39.453125 6.390625 43.28125 13.890625 
Q 47.125 21.390625 47.125 36.375 
Q 47.125 51.421875 43.28125 58.90625 
Q 39.453125 66.40625 31.78125 66.40625 
z
M 31.78125 74.21875 
Q 44.046875 74.21875 50.515625 64.515625 
Q 56.984375 54.828125 56.984375 36.375 
Q 56.984375 17.96875 50.515625 8.265625 
Q 44.046875 -1.421875 31.78125 -1.421875 
Q 19.53125 -1.421875 13.0625 8.265625 
Q 6.59375 17.96875 6.59375 36.375 
Q 6.59375 54.828125 13.0625 64.515625 
Q 19.53125 74.21875 31.78125 74.21875 
z
" id="DejaVuSans-48"/>
       <path d="M 10.984375 1.515625 
L 10.984375 10.5 
Q 14.703125 8.734375 18.5 7.8125 
Q 22.3125 6.890625 25.984375 6.890625 
Q 35.75 6.890625 40.890625 13.453125 
Q 46.046875 20.015625 46.78125 33.40625 
Q 43.953125 29.203125 39.59375 26.953125 
Q 35.25 24.703125 29.984375 24.703125 
Q 19.046875 24.703125 12.671875 31.3125 
Q 6.296875 37.9375 6.296875 49.421875 
Q 6.296875 60.640625 12.9375 67.421875 
Q 19.578125 74.21875 30.609375 74.21875 
Q 43.265625 74.21875 49.921875 64.515625 
Q 56.59375 54.828125 56.59375 36.375 
Q 56.59375 19.140625 48.40625 8.859375 
Q 40.234375 -1.421875 26.421875 -1.421875 
Q 22.703125 -1.421875 18.890625 -0.6875 
Q 15.09375 0.046875 10.984375 1.515625 
z
M 30.609375 32.421875 
Q 37.25 32.421875 41.125 36.953125 
Q 45.015625 41.5 45.015625 49.421875 
Q 45.015625 57.28125 41.125 61.84375 
Q 37.25 66.40625 30.609375 66.40625 
Q 23.96875 66.40625 20.09375 61.84375 
Q 16.21875 57.28125 16.21875 49.421875 
Q 16.21875 41.5 20.09375 36.953125 
Q 23.96875 32.421875 30.609375 32.421875 
z
" id="DejaVuSans-57"/>
      </defs>
      <g transform="translate(53.328125 250.43625)scale(0.1 -0.1)">
       <use xlink:href="#DejaVuSans-48"/>
       <use x="63.623047" xlink:href="#DejaVuSans-57"/>
      </g>
     </g>
    </g>
    <g id="xtick_2">
     <g id="line2d_3">
      <path clip-path="url(#p362d147719)" d="M 106.334943 224.64 
L 106.334943 7.2 
" style="fill:none;stroke:#b0b0b0;stroke-linecap:square;stroke-opacity:0.8;stroke-width:0.8;"/>
     </g>
     <g id="line2d_4">
      <g>
       <use style="stroke:#000000;stroke-width:0.8;" x="106.334943" xlink:href="#mbc2baef5d2" y="224.64"/>
      </g>
     </g>
     <g id="text_2">
      <!-- Mar. -->
      <g transform="translate(95.319318 239.238437)scale(0.1 -0.1)">
       <use xlink:href="#DejaVuSans-77"/>
       <use x="86.279297" xlink:href="#DejaVuSans-97"/>
       <use x="147.558594" xlink:href="#DejaVuSans-114"/>
       <use x="188.53125" xlink:href="#DejaVuSans-46"/>
      </g>
      <!-- 13 -->
      <defs>
       <path d="M 12.40625 8.296875 
L 28.515625 8.296875 
L 28.515625 63.921875 
L 10.984375 60.40625 
L 10.984375 69.390625 
L 28.421875 72.90625 
L 38.28125 72.90625 
L 38.28125 8.296875 
L 54.390625 8.296875 
L 54.390625 0 
L 12.40625 0 
z
" id="DejaVuSans-49"/>
       <path d="M 40.578125 39.3125 
Q 47.65625 37.796875 51.625 33 
Q 55.609375 28.21875 55.609375 21.1875 
Q 55.609375 10.40625 48.1875 4.484375 
Q 40.765625 -1.421875 27.09375 -1.421875 
Q 22.515625 -1.421875 17.65625 -0.515625 
Q 12.796875 0.390625 7.625 2.203125 
L 7.625 11.71875 
Q 11.71875 9.328125 16.59375 8.109375 
Q 21.484375 6.890625 26.8125 6.890625 
Q 36.078125 6.890625 40.9375 10.546875 
Q 45.796875 14.203125 45.796875 21.1875 
Q 45.796875 27.640625 41.28125 31.265625 
Q 36.765625 34.90625 28.71875 34.90625 
L 20.21875 34.90625 
L 20.21875 43.015625 
L 29.109375 43.015625 
Q 36.375 43.015625 40.234375 45.921875 
Q 44.09375 48.828125 44.09375 54.296875 
Q 44.09375 59.90625 40.109375 62.90625 
Q 36.140625 65.921875 28.71875 65.921875 
Q 24.65625 65.921875 20.015625 65.03125 
Q 15.375 64.15625 9.8125 62.3125 
L 9.8125 71.09375 
Q 15.4375 72.65625 20.34375 73.4375 
Q 25.25 74.21875 29.59375 74.21875 
Q 40.828125 74.21875 47.359375 69.109375 
Q 53.90625 64.015625 53.90625 55.328125 
Q 53.90625 49.265625 50.4375 45.09375 
Q 46.96875 40.921875 40.578125 39.3125 
z
" id="DejaVuSans-51"/>
      </defs>
      <g transform="translate(99.972443 250.43625)scale(0.1 -0.1)">
       <use xlink:href="#DejaVuSans-49"/>
       <use x="63.623047" xlink:href="#DejaVuSans-51"/>
      </g>
     </g>
    </g>
    <g id="xtick_3">
     <g id="line2d_5">
      <path clip-path="url(#p362d147719)" d="M 152.97926 224.64 
L 152.97926 7.2 
" style="fill:none;stroke:#b0b0b0;stroke-linecap:square;stroke-opacity:0.8;stroke-width:0.8;"/>
     </g>
     <g id="line2d_6">
      <g>
       <use style="stroke:#000000;stroke-width:0.8;" x="152.97926" xlink:href="#mbc2baef5d2" y="224.64"/>
      </g>
     </g>
     <g id="text_3">
      <!-- Mar. -->
      <g transform="translate(141.963635 239.238437)scale(0.1 -0.1)">
       <use xlink:href="#DejaVuSans-77"/>
       <use x="86.279297" xlink:href="#DejaVuSans-97"/>
       <use x="147.558594" xlink:href="#DejaVuSans-114"/>
       <use x="188.53125" xlink:href="#DejaVuSans-46"/>
      </g>
      <!-- 17 -->
      <defs>
       <path d="M 8.203125 72.90625 
L 55.078125 72.90625 
L 55.078125 68.703125 
L 28.609375 0 
L 18.3125 0 
L 43.21875 64.59375 
L 8.203125 64.59375 
z
" id="DejaVuSans-55"/>
      </defs>
      <g transform="translate(146.61676 250.43625)scale(0.1 -0.1)">
       <use xlink:href="#DejaVuSans-49"/>
       <use x="63.623047" xlink:href="#DejaVuSans-55"/>
      </g>
     </g>
    </g>
    <g id="xtick_4">
     <g id="line2d_7">
      <path clip-path="url(#p362d147719)" d="M 199.623578 224.64 
L 199.623578 7.2 
" style="fill:none;stroke:#b0b0b0;stroke-linecap:square;stroke-opacity:0.8;stroke-width:0.8;"/>
     </g>
     <g id="line2d_8">
      <g>
       <use style="stroke:#000000;stroke-width:0.8;" x="199.623578" xlink:href="#mbc2baef5d2" y="224.64"/>
      </g>
     </g>
     <g id="text_4">
      <!-- Mar. -->
      <g transform="translate(188.607953 239.238437)scale(0.1 -0.1)">
       <use xlink:href="#DejaVuSans-77"/>
       <use x="86.279297" xlink:href="#DejaVuSans-97"/>
       <use x="147.558594" xlink:href="#DejaVuSans-114"/>
       <use x="188.53125" xlink:href="#DejaVuSans-46"/>
      </g>
      <!-- 21 -->
      <defs>
       <path d="M 19.1875 8.296875 
L 53.609375 8.296875 
L 53.609375 0 
L 7.328125 0 
L 7.328125 8.296875 
Q 12.9375 14.109375 22.625 23.890625 
Q 32.328125 33.6875 34.8125 36.53125 
Q 39.546875 41.84375 41.421875 45.53125 
Q 43.3125 49.21875 43.3125 52.78125 
Q 43.3125 58.59375 39.234375 62.25 
Q 35.15625 65.921875 28.609375 65.921875 
Q 23.96875 65.921875 18.8125 64.3125 
Q 13.671875 62.703125 7.8125 59.421875 
L 7.8125 69.390625 
Q 13.765625 71.78125 18.9375 73 
Q 24.125 74.21875 28.421875 74.21875 
Q 39.75 74.21875 46.484375 68.546875 
Q 53.21875 62.890625 53.21875 53.421875 
Q 53.21875 48.921875 51.53125 44.890625 
Q 49.859375 40.875 45.40625 35.40625 
Q 44.1875 33.984375 37.640625 27.21875 
Q 31.109375 20.453125 19.1875 8.296875 
z
" id="DejaVuSans-50"/>
      </defs>
      <g transform="translate(193.261078 250.43625)scale(0.1 -0.1)">
       <use xlink:href="#DejaVuSans-50"/>
       <use x="63.623047" xlink:href="#DejaVuSans-49"/>
      </g>
     </g>
    </g>
    <g id="xtick_5">
     <g id="line2d_9">
      <path clip-path="url(#p362d147719)" d="M 246.267895 224.64 
L 246.267895 7.2 
" style="fill:none;stroke:#b0b0b0;stroke-linecap:square;stroke-opacity:0.8;stroke-width:0.8;"/>
     </g>
     <g id="line2d_10">
      <g>
       <use style="stroke:#000000;stroke-width:0.8;" x="246.267895" xlink:href="#mbc2baef5d2" y="224.64"/>
      </g>
     </g>
     <g id="text_5">
      <!-- Mar. -->
      <g transform="translate(235.25227 239.238437)scale(0.1 -0.1)">
       <use xlink:href="#DejaVuSans-77"/>
       <use x="86.279297" xlink:href="#DejaVuSans-97"/>
       <use x="147.558594" xlink:href="#DejaVuSans-114"/>
       <use x="188.53125" xlink:href="#DejaVuSans-46"/>
      </g>
      <!-- 25 -->
      <defs>
       <path d="M 10.796875 72.90625 
L 49.515625 72.90625 
L 49.515625 64.59375 
L 19.828125 64.59375 
L 19.828125 46.734375 
Q 21.96875 47.46875 24.109375 47.828125 
Q 26.265625 48.1875 28.421875 48.1875 
Q 40.625 48.1875 47.75 41.5 
Q 54.890625 34.8125 54.890625 23.390625 
Q 54.890625 11.625 47.5625 5.09375 
Q 40.234375 -1.421875 26.90625 -1.421875 
Q 22.3125 -1.421875 17.546875 -0.640625 
Q 12.796875 0.140625 7.71875 1.703125 
L 7.71875 11.625 
Q 12.109375 9.234375 16.796875 8.0625 
Q 21.484375 6.890625 26.703125 6.890625 
Q 35.15625 6.890625 40.078125 11.328125 
Q 45.015625 15.765625 45.015625 23.390625 
Q 45.015625 31 40.078125 35.4375 
Q 35.15625 39.890625 26.703125 39.890625 
Q 22.75 39.890625 18.8125 39.015625 
Q 14.890625 38.140625 10.796875 36.28125 
z
" id="DejaVuSans-53"/>
      </defs>
      <g transform="translate(239.905395 250.43625)scale(0.1 -0.1)">
       <use xlink:href="#DejaVuSans-50"/>
       <use x="63.623047" xlink:href="#DejaVuSans-53"/>
      </g>
     </g>
    </g>
    <g id="xtick_6">
     <g id="line2d_11">
      <path clip-path="url(#p362d147719)" d="M 292.912213 224.64 
L 292.912213 7.2 
" style="fill:none;stroke:#b0b0b0;stroke-linecap:square;stroke-opacity:0.8;stroke-width:0.8;"/>
     </g>
     <g id="line2d_12">
      <g>
       <use style="stroke:#000000;stroke-width:0.8;" x="292.912213" xlink:href="#mbc2baef5d2" y="224.64"/>
      </g>
     </g>
     <g id="text_6">
      <!-- Mar. -->
      <g transform="translate(281.896588 239.238437)scale(0.1 -0.1)">
       <use xlink:href="#DejaVuSans-77"/>
       <use x="86.279297" xlink:href="#DejaVuSans-97"/>
       <use x="147.558594" xlink:href="#DejaVuSans-114"/>
       <use x="188.53125" xlink:href="#DejaVuSans-46"/>
      </g>
      <!-- 29 -->
      <g transform="translate(286.549713 250.43625)scale(0.1 -0.1)">
       <use xlink:href="#DejaVuSans-50"/>
       <use x="63.623047" xlink:href="#DejaVuSans-57"/>
      </g>
     </g>
    </g>
    <g id="xtick_7">
     <g id="line2d_13">
      <path clip-path="url(#p362d147719)" d="M 327.895451 224.64 
L 327.895451 7.2 
" style="fill:none;stroke:#b0b0b0;stroke-linecap:square;stroke-opacity:0.8;stroke-width:0.8;"/>
     </g>
     <g id="line2d_14">
      <g>
       <use style="stroke:#000000;stroke-width:0.8;" x="327.895451" xlink:href="#mbc2baef5d2" y="224.64"/>
      </g>
     </g>
     <g id="text_7">
      <!-- Apr. -->
      <defs>
       <path d="M 34.1875 63.1875 
L 20.796875 26.90625 
L 47.609375 26.90625 
z
M 28.609375 72.90625 
L 39.796875 72.90625 
L 67.578125 0 
L 57.328125 0 
L 50.6875 18.703125 
L 17.828125 18.703125 
L 11.1875 0 
L 0.78125 0 
z
" id="DejaVuSans-65"/>
       <path d="M 18.109375 8.203125 
L 18.109375 -20.796875 
L 9.078125 -20.796875 
L 9.078125 54.6875 
L 18.109375 54.6875 
L 18.109375 46.390625 
Q 20.953125 51.265625 25.265625 53.625 
Q 29.59375 56 35.59375 56 
Q 45.5625 56 51.78125 48.09375 
Q 58.015625 40.1875 58.015625 27.296875 
Q 58.015625 14.40625 51.78125 6.484375 
Q 45.5625 -1.421875 35.59375 -1.421875 
Q 29.59375 -1.421875 25.265625 0.953125 
Q 20.953125 3.328125 18.109375 8.203125 
z
M 48.6875 27.296875 
Q 48.6875 37.203125 44.609375 42.84375 
Q 40.53125 48.484375 33.40625 48.484375 
Q 26.265625 48.484375 22.1875 42.84375 
Q 18.109375 37.203125 18.109375 27.296875 
Q 18.109375 17.390625 22.1875 11.75 
Q 26.265625 6.109375 33.40625 6.109375 
Q 40.53125 6.109375 44.609375 11.75 
Q 48.6875 17.390625 48.6875 27.296875 
z
" id="DejaVuSans-112"/>
      </defs>
      <g transform="translate(317.66342 239.238437)scale(0.1 -0.1)">
       <use xlink:href="#DejaVuSans-65"/>
       <use x="68.408203" xlink:href="#DejaVuSans-112"/>
       <use x="131.884766" xlink:href="#DejaVuSans-114"/>
       <use x="172.857422" xlink:href="#DejaVuSans-46"/>
      </g>
      <!-- 01 -->
      <g transform="translate(321.532951 250.43625)scale(0.1 -0.1)">
       <use xlink:href="#DejaVuSans-48"/>
       <use x="63.623047" xlink:href="#DejaVuSans-49"/>
      </g>
     </g>
    </g>
    <g id="xtick_8">
     <g id="line2d_15">
      <path clip-path="url(#p362d147719)" d="M 374.539769 224.64 
L 374.539769 7.2 
" style="fill:none;stroke:#b0b0b0;stroke-linecap:square;stroke-opacity:0.8;stroke-width:0.8;"/>
     </g>
     <g id="line2d_16">
      <g>
       <use style="stroke:#000000;stroke-width:0.8;" x="374.539769" xlink:href="#mbc2baef5d2" y="224.64"/>
      </g>
     </g>
     <g id="text_8">
      <!-- Apr. -->
      <g transform="translate(364.307737 239.238437)scale(0.1 -0.1)">
       <use xlink:href="#DejaVuSans-65"/>
       <use x="68.408203" xlink:href="#DejaVuSans-112"/>
       <use x="131.884766" xlink:href="#DejaVuSans-114"/>
       <use x="172.857422" xlink:href="#DejaVuSans-46"/>
      </g>
      <!-- 05 -->
      <g transform="translate(368.177269 250.43625)scale(0.1 -0.1)">
       <use xlink:href="#DejaVuSans-48"/>
       <use x="63.623047" xlink:href="#DejaVuSans-53"/>
      </g>
     </g>
    </g>
   </g>
   <g id="matplotlib.axis_2">
    <g id="ytick_1">
     <g id="line2d_17">
      <path clip-path="url(#p362d147719)" d="M 59.690625 224.64 
L 394.490625 224.64 
" style="fill:none;stroke:#b0b0b0;stroke-linecap:square;stroke-opacity:0.8;stroke-width:0.8;"/>
     </g>
     <g id="line2d_18">
      <defs>
       <path d="M 0 0 
L -3.5 0 
" id="m68fa7e0b59" style="stroke:#000000;stroke-width:0.8;"/>
      </defs>
      <g>
       <use style="stroke:#000000;stroke-width:0.8;" x="59.690625" xlink:href="#m68fa7e0b59" y="224.64"/>
      </g>
     </g>
     <g id="text_9">
      <!-- 2 -->
      <g transform="translate(46.328125 228.439219)scale(0.1 -0.1)">
       <use xlink:href="#DejaVuSans-50"/>
      </g>
     </g>
    </g>
    <g id="ytick_2">
     <g id="line2d_19">
      <path clip-path="url(#p362d147719)" d="M 59.690625 202.510712 
L 394.490625 202.510712 
" style="fill:none;stroke:#b0b0b0;stroke-linecap:square;stroke-opacity:0.8;stroke-width:0.8;"/>
     </g>
     <g id="line2d_20">
      <g>
       <use style="stroke:#000000;stroke-width:0.8;" x="59.690625" xlink:href="#m68fa7e0b59" y="202.510712"/>
      </g>
     </g>
     <g id="text_10">
      <!-- 5 -->
      <g transform="translate(46.328125 206.30993)scale(0.1 -0.1)">
       <use xlink:href="#DejaVuSans-53"/>
      </g>
     </g>
    </g>
    <g id="ytick_3">
     <g id="line2d_21">
      <path clip-path="url(#p362d147719)" d="M 59.690625 185.770551 
L 394.490625 185.770551 
" style="fill:none;stroke:#b0b0b0;stroke-linecap:square;stroke-opacity:0.8;stroke-width:0.8;"/>
     </g>
     <g id="line2d_22">
      <g>
       <use style="stroke:#000000;stroke-width:0.8;" x="59.690625" xlink:href="#m68fa7e0b59" y="185.770551"/>
      </g>
     </g>
     <g id="text_11">
      <!-- 10 -->
      <g transform="translate(39.965625 189.56977)scale(0.1 -0.1)">
       <use xlink:href="#DejaVuSans-49"/>
       <use x="63.623047" xlink:href="#DejaVuSans-48"/>
      </g>
     </g>
    </g>
    <g id="ytick_4">
     <g id="line2d_23">
      <path clip-path="url(#p362d147719)" d="M 59.690625 169.030391 
L 394.490625 169.030391 
" style="fill:none;stroke:#b0b0b0;stroke-linecap:square;stroke-opacity:0.8;stroke-width:0.8;"/>
     </g>
     <g id="line2d_24">
      <g>
       <use style="stroke:#000000;stroke-width:0.8;" x="59.690625" xlink:href="#m68fa7e0b59" y="169.030391"/>
      </g>
     </g>
     <g id="text_12">
      <!-- 20 -->
      <g transform="translate(39.965625 172.829609)scale(0.1 -0.1)">
       <use xlink:href="#DejaVuSans-50"/>
       <use x="63.623047" xlink:href="#DejaVuSans-48"/>
      </g>
     </g>
    </g>
    <g id="ytick_5">
     <g id="line2d_25">
      <path clip-path="url(#p362d147719)" d="M 59.690625 146.901102 
L 394.490625 146.901102 
" style="fill:none;stroke:#b0b0b0;stroke-linecap:square;stroke-opacity:0.8;stroke-width:0.8;"/>
     </g>
     <g id="line2d_26">
      <g>
       <use style="stroke:#000000;stroke-width:0.8;" x="59.690625" xlink:href="#m68fa7e0b59" y="146.901102"/>
      </g>
     </g>
     <g id="text_13">
      <!-- 50 -->
      <g transform="translate(39.965625 150.700321)scale(0.1 -0.1)">
       <use xlink:href="#DejaVuSans-53"/>
       <use x="63.623047" xlink:href="#DejaVuSans-48"/>
      </g>
     </g>
    </g>
    <g id="ytick_6">
     <g id="line2d_27">
      <path clip-path="url(#p362d147719)" d="M 59.690625 130.160942 
L 394.490625 130.160942 
" style="fill:none;stroke:#b0b0b0;stroke-linecap:square;stroke-opacity:0.8;stroke-width:0.8;"/>
     </g>
     <g id="line2d_28">
      <g>
       <use style="stroke:#000000;stroke-width:0.8;" x="59.690625" xlink:href="#m68fa7e0b59" y="130.160942"/>
      </g>
     </g>
     <g id="text_14">
      <!-- 100 -->
      <g transform="translate(33.603125 133.960161)scale(0.1 -0.1)">
       <use xlink:href="#DejaVuSans-49"/>
       <use x="63.623047" xlink:href="#DejaVuSans-48"/>
       <use x="127.246094" xlink:href="#DejaVuSans-48"/>
      </g>
     </g>
    </g>
    <g id="ytick_7">
     <g id="line2d_29">
      <path clip-path="url(#p362d147719)" d="M 59.690625 113.420781 
L 394.490625 113.420781 
" style="fill:none;stroke:#b0b0b0;stroke-linecap:square;stroke-opacity:0.8;stroke-width:0.8;"/>
     </g>
     <g id="line2d_30">
      <g>
       <use style="stroke:#000000;stroke-width:0.8;" x="59.690625" xlink:href="#m68fa7e0b59" y="113.420781"/>
      </g>
     </g>
     <g id="text_15">
      <!-- 200 -->
      <g transform="translate(33.603125 117.22)scale(0.1 -0.1)">
       <use xlink:href="#DejaVuSans-50"/>
       <use x="63.623047" xlink:href="#DejaVuSans-48"/>
       <use x="127.246094" xlink:href="#DejaVuSans-48"/>
      </g>
     </g>
    </g>
    <g id="ytick_8">
     <g id="line2d_31">
      <path clip-path="url(#p362d147719)" d="M 59.690625 91.291493 
L 394.490625 91.291493 
" style="fill:none;stroke:#b0b0b0;stroke-linecap:square;stroke-opacity:0.8;stroke-width:0.8;"/>
     </g>
     <g id="line2d_32">
      <g>
       <use style="stroke:#000000;stroke-width:0.8;" x="59.690625" xlink:href="#m68fa7e0b59" y="91.291493"/>
      </g>
     </g>
     <g id="text_16">
      <!-- 500 -->
      <g transform="translate(33.603125 95.090712)scale(0.1 -0.1)">
       <use xlink:href="#DejaVuSans-53"/>
       <use x="63.623047" xlink:href="#DejaVuSans-48"/>
       <use x="127.246094" xlink:href="#DejaVuSans-48"/>
      </g>
     </g>
    </g>
    <g id="ytick_9">
     <g id="line2d_33">
      <path clip-path="url(#p362d147719)" d="M 59.690625 74.551333 
L 394.490625 74.551333 
" style="fill:none;stroke:#b0b0b0;stroke-linecap:square;stroke-opacity:0.8;stroke-width:0.8;"/>
     </g>
     <g id="line2d_34">
      <g>
       <use style="stroke:#000000;stroke-width:0.8;" x="59.690625" xlink:href="#m68fa7e0b59" y="74.551333"/>
      </g>
     </g>
     <g id="text_17">
      <!-- 1000 -->
      <g transform="translate(27.240625 78.350551)scale(0.1 -0.1)">
       <use xlink:href="#DejaVuSans-49"/>
       <use x="63.623047" xlink:href="#DejaVuSans-48"/>
       <use x="127.246094" xlink:href="#DejaVuSans-48"/>
       <use x="190.869141" xlink:href="#DejaVuSans-48"/>
      </g>
     </g>
    </g>
    <g id="ytick_10">
     <g id="line2d_35">
      <path clip-path="url(#p362d147719)" d="M 59.690625 57.811172 
L 394.490625 57.811172 
" style="fill:none;stroke:#b0b0b0;stroke-linecap:square;stroke-opacity:0.8;stroke-width:0.8;"/>
     </g>
     <g id="line2d_36">
      <g>
       <use style="stroke:#000000;stroke-width:0.8;" x="59.690625" xlink:href="#m68fa7e0b59" y="57.811172"/>
      </g>
     </g>
     <g id="text_18">
      <!-- 2000 -->
      <g transform="translate(27.240625 61.610391)scale(0.1 -0.1)">
       <use xlink:href="#DejaVuSans-50"/>
       <use x="63.623047" xlink:href="#DejaVuSans-48"/>
       <use x="127.246094" xlink:href="#DejaVuSans-48"/>
       <use x="190.869141" xlink:href="#DejaVuSans-48"/>
      </g>
     </g>
    </g>
    <g id="ytick_11">
     <g id="line2d_37">
      <path clip-path="url(#p362d147719)" d="M 59.690625 35.681884 
L 394.490625 35.681884 
" style="fill:none;stroke:#b0b0b0;stroke-linecap:square;stroke-opacity:0.8;stroke-width:0.8;"/>
     </g>
     <g id="line2d_38">
      <g>
       <use style="stroke:#000000;stroke-width:0.8;" x="59.690625" xlink:href="#m68fa7e0b59" y="35.681884"/>
      </g>
     </g>
     <g id="text_19">
      <!-- 5000 -->
      <g transform="translate(27.240625 39.481102)scale(0.1 -0.1)">
       <use xlink:href="#DejaVuSans-53"/>
       <use x="63.623047" xlink:href="#DejaVuSans-48"/>
       <use x="127.246094" xlink:href="#DejaVuSans-48"/>
       <use x="190.869141" xlink:href="#DejaVuSans-48"/>
      </g>
     </g>
    </g>
    <g id="ytick_12">
     <g id="line2d_39">
      <path clip-path="url(#p362d147719)" d="M 59.690625 18.941723 
L 394.490625 18.941723 
" style="fill:none;stroke:#b0b0b0;stroke-linecap:square;stroke-opacity:0.8;stroke-width:0.8;"/>
     </g>
     <g id="line2d_40">
      <g>
       <use style="stroke:#000000;stroke-width:0.8;" x="59.690625" xlink:href="#m68fa7e0b59" y="18.941723"/>
      </g>
     </g>
     <g id="text_20">
      <!-- 10000 -->
      <g transform="translate(20.878125 22.740942)scale(0.1 -0.1)">
       <use xlink:href="#DejaVuSans-49"/>
       <use x="63.623047" xlink:href="#DejaVuSans-48"/>
       <use x="127.246094" xlink:href="#DejaVuSans-48"/>
       <use x="190.869141" xlink:href="#DejaVuSans-48"/>
       <use x="254.492188" xlink:href="#DejaVuSans-48"/>
      </g>
     </g>
    </g>
    <g id="ytick_13">
     <g id="line2d_41">
      <defs>
       <path d="M 0 0 
L -2 0 
" id="mafcff1f898" style="stroke:#000000;stroke-width:0.6;"/>
      </defs>
      <g>
       <use style="stroke:#000000;stroke-width:0.6;" x="59.690625" xlink:href="#mafcff1f898" y="214.847634"/>
      </g>
     </g>
    </g>
    <g id="ytick_14">
     <g id="line2d_42">
      <g>
       <use style="stroke:#000000;stroke-width:0.6;" x="59.690625" xlink:href="#mafcff1f898" y="207.89984"/>
      </g>
     </g>
    </g>
    <g id="ytick_15">
     <g id="line2d_43">
      <g>
       <use style="stroke:#000000;stroke-width:0.6;" x="59.690625" xlink:href="#mafcff1f898" y="198.107473"/>
      </g>
     </g>
    </g>
    <g id="ytick_16">
     <g id="line2d_44">
      <g>
       <use style="stroke:#000000;stroke-width:0.6;" x="59.690625" xlink:href="#mafcff1f898" y="194.384589"/>
      </g>
     </g>
    </g>
    <g id="ytick_17">
     <g id="line2d_45">
      <g>
       <use style="stroke:#000000;stroke-width:0.6;" x="59.690625" xlink:href="#mafcff1f898" y="191.159679"/>
      </g>
     </g>
    </g>
    <g id="ytick_18">
     <g id="line2d_46">
      <g>
       <use style="stroke:#000000;stroke-width:0.6;" x="59.690625" xlink:href="#mafcff1f898" y="188.315107"/>
      </g>
     </g>
    </g>
    <g id="ytick_19">
     <g id="line2d_47">
      <g>
       <use style="stroke:#000000;stroke-width:0.6;" x="59.690625" xlink:href="#mafcff1f898" y="159.238025"/>
      </g>
     </g>
    </g>
    <g id="ytick_20">
     <g id="line2d_48">
      <g>
       <use style="stroke:#000000;stroke-width:0.6;" x="59.690625" xlink:href="#mafcff1f898" y="152.29023"/>
      </g>
     </g>
    </g>
    <g id="ytick_21">
     <g id="line2d_49">
      <g>
       <use style="stroke:#000000;stroke-width:0.6;" x="59.690625" xlink:href="#mafcff1f898" y="142.497864"/>
      </g>
     </g>
    </g>
    <g id="ytick_22">
     <g id="line2d_50">
      <g>
       <use style="stroke:#000000;stroke-width:0.6;" x="59.690625" xlink:href="#mafcff1f898" y="138.774979"/>
      </g>
     </g>
    </g>
    <g id="ytick_23">
     <g id="line2d_51">
      <g>
       <use style="stroke:#000000;stroke-width:0.6;" x="59.690625" xlink:href="#mafcff1f898" y="135.55007"/>
      </g>
     </g>
    </g>
    <g id="ytick_24">
     <g id="line2d_52">
      <g>
       <use style="stroke:#000000;stroke-width:0.6;" x="59.690625" xlink:href="#mafcff1f898" y="132.705498"/>
      </g>
     </g>
    </g>
    <g id="ytick_25">
     <g id="line2d_53">
      <g>
       <use style="stroke:#000000;stroke-width:0.6;" x="59.690625" xlink:href="#mafcff1f898" y="103.628415"/>
      </g>
     </g>
    </g>
    <g id="ytick_26">
     <g id="line2d_54">
      <g>
       <use style="stroke:#000000;stroke-width:0.6;" x="59.690625" xlink:href="#mafcff1f898" y="96.680621"/>
      </g>
     </g>
    </g>
    <g id="ytick_27">
     <g id="line2d_55">
      <g>
       <use style="stroke:#000000;stroke-width:0.6;" x="59.690625" xlink:href="#mafcff1f898" y="86.888255"/>
      </g>
     </g>
    </g>
    <g id="ytick_28">
     <g id="line2d_56">
      <g>
       <use style="stroke:#000000;stroke-width:0.6;" x="59.690625" xlink:href="#mafcff1f898" y="83.16537"/>
      </g>
     </g>
    </g>
    <g id="ytick_29">
     <g id="line2d_57">
      <g>
       <use style="stroke:#000000;stroke-width:0.6;" x="59.690625" xlink:href="#mafcff1f898" y="79.940461"/>
      </g>
     </g>
    </g>
    <g id="ytick_30">
     <g id="line2d_58">
      <g>
       <use style="stroke:#000000;stroke-width:0.6;" x="59.690625" xlink:href="#mafcff1f898" y="77.095889"/>
      </g>
     </g>
    </g>
    <g id="ytick_31">
     <g id="line2d_59">
      <g>
       <use style="stroke:#000000;stroke-width:0.6;" x="59.690625" xlink:href="#mafcff1f898" y="48.018806"/>
      </g>
     </g>
    </g>
    <g id="ytick_32">
     <g id="line2d_60">
      <g>
       <use style="stroke:#000000;stroke-width:0.6;" x="59.690625" xlink:href="#mafcff1f898" y="41.071012"/>
      </g>
     </g>
    </g>
    <g id="ytick_33">
     <g id="line2d_61">
      <g>
       <use style="stroke:#000000;stroke-width:0.6;" x="59.690625" xlink:href="#mafcff1f898" y="31.278646"/>
      </g>
     </g>
    </g>
    <g id="ytick_34">
     <g id="line2d_62">
      <g>
       <use style="stroke:#000000;stroke-width:0.6;" x="59.690625" xlink:href="#mafcff1f898" y="27.555761"/>
      </g>
     </g>
    </g>
    <g id="ytick_35">
     <g id="line2d_63">
      <g>
       <use style="stroke:#000000;stroke-width:0.6;" x="59.690625" xlink:href="#mafcff1f898" y="24.330851"/>
      </g>
     </g>
    </g>
    <g id="ytick_36">
     <g id="line2d_64">
      <g>
       <use style="stroke:#000000;stroke-width:0.6;" x="59.690625" xlink:href="#mafcff1f898" y="21.486279"/>
      </g>
     </g>
    </g>
    <g id="text_21">
     <!-- Total cases per million -->
     <defs>
      <path d="M -0.296875 72.90625 
L 61.375 72.90625 
L 61.375 64.59375 
L 35.5 64.59375 
L 35.5 0 
L 25.59375 0 
L 25.59375 64.59375 
L -0.296875 64.59375 
z
" id="DejaVuSans-84"/>
      <path d="M 30.609375 48.390625 
Q 23.390625 48.390625 19.1875 42.75 
Q 14.984375 37.109375 14.984375 27.296875 
Q 14.984375 17.484375 19.15625 11.84375 
Q 23.34375 6.203125 30.609375 6.203125 
Q 37.796875 6.203125 41.984375 11.859375 
Q 46.1875 17.53125 46.1875 27.296875 
Q 46.1875 37.015625 41.984375 42.703125 
Q 37.796875 48.390625 30.609375 48.390625 
z
M 30.609375 56 
Q 42.328125 56 49.015625 48.375 
Q 55.71875 40.765625 55.71875 27.296875 
Q 55.71875 13.875 49.015625 6.21875 
Q 42.328125 -1.421875 30.609375 -1.421875 
Q 18.84375 -1.421875 12.171875 6.21875 
Q 5.515625 13.875 5.515625 27.296875 
Q 5.515625 40.765625 12.171875 48.375 
Q 18.84375 56 30.609375 56 
z
" id="DejaVuSans-111"/>
      <path d="M 18.3125 70.21875 
L 18.3125 54.6875 
L 36.8125 54.6875 
L 36.8125 47.703125 
L 18.3125 47.703125 
L 18.3125 18.015625 
Q 18.3125 11.328125 20.140625 9.421875 
Q 21.96875 7.515625 27.59375 7.515625 
L 36.8125 7.515625 
L 36.8125 0 
L 27.59375 0 
Q 17.1875 0 13.234375 3.875 
Q 9.28125 7.765625 9.28125 18.015625 
L 9.28125 47.703125 
L 2.6875 47.703125 
L 2.6875 54.6875 
L 9.28125 54.6875 
L 9.28125 70.21875 
z
" id="DejaVuSans-116"/>
      <path d="M 9.421875 75.984375 
L 18.40625 75.984375 
L 18.40625 0 
L 9.421875 0 
z
" id="DejaVuSans-108"/>
      <path id="DejaVuSans-32"/>
      <path d="M 48.78125 52.59375 
L 48.78125 44.1875 
Q 44.96875 46.296875 41.140625 47.34375 
Q 37.3125 48.390625 33.40625 48.390625 
Q 24.65625 48.390625 19.8125 42.84375 
Q 14.984375 37.3125 14.984375 27.296875 
Q 14.984375 17.28125 19.8125 11.734375 
Q 24.65625 6.203125 33.40625 6.203125 
Q 37.3125 6.203125 41.140625 7.25 
Q 44.96875 8.296875 48.78125 10.40625 
L 48.78125 2.09375 
Q 45.015625 0.34375 40.984375 -0.53125 
Q 36.96875 -1.421875 32.421875 -1.421875 
Q 20.0625 -1.421875 12.78125 6.34375 
Q 5.515625 14.109375 5.515625 27.296875 
Q 5.515625 40.671875 12.859375 48.328125 
Q 20.21875 56 33.015625 56 
Q 37.15625 56 41.109375 55.140625 
Q 45.0625 54.296875 48.78125 52.59375 
z
" id="DejaVuSans-99"/>
      <path d="M 44.28125 53.078125 
L 44.28125 44.578125 
Q 40.484375 46.53125 36.375 47.5 
Q 32.28125 48.484375 27.875 48.484375 
Q 21.1875 48.484375 17.84375 46.4375 
Q 14.5 44.390625 14.5 40.28125 
Q 14.5 37.15625 16.890625 35.375 
Q 19.28125 33.59375 26.515625 31.984375 
L 29.59375 31.296875 
Q 39.15625 29.25 43.1875 25.515625 
Q 47.21875 21.78125 47.21875 15.09375 
Q 47.21875 7.46875 41.1875 3.015625 
Q 35.15625 -1.421875 24.609375 -1.421875 
Q 20.21875 -1.421875 15.453125 -0.5625 
Q 10.6875 0.296875 5.421875 2 
L 5.421875 11.28125 
Q 10.40625 8.6875 15.234375 7.390625 
Q 20.0625 6.109375 24.8125 6.109375 
Q 31.15625 6.109375 34.5625 8.28125 
Q 37.984375 10.453125 37.984375 14.40625 
Q 37.984375 18.0625 35.515625 20.015625 
Q 33.0625 21.96875 24.703125 23.78125 
L 21.578125 24.515625 
Q 13.234375 26.265625 9.515625 29.90625 
Q 5.8125 33.546875 5.8125 39.890625 
Q 5.8125 47.609375 11.28125 51.796875 
Q 16.75 56 26.8125 56 
Q 31.78125 56 36.171875 55.265625 
Q 40.578125 54.546875 44.28125 53.078125 
z
" id="DejaVuSans-115"/>
      <path d="M 56.203125 29.59375 
L 56.203125 25.203125 
L 14.890625 25.203125 
Q 15.484375 15.921875 20.484375 11.0625 
Q 25.484375 6.203125 34.421875 6.203125 
Q 39.59375 6.203125 44.453125 7.46875 
Q 49.3125 8.734375 54.109375 11.28125 
L 54.109375 2.78125 
Q 49.265625 0.734375 44.1875 -0.34375 
Q 39.109375 -1.421875 33.890625 -1.421875 
Q 20.796875 -1.421875 13.15625 6.1875 
Q 5.515625 13.8125 5.515625 26.8125 
Q 5.515625 40.234375 12.765625 48.109375 
Q 20.015625 56 32.328125 56 
Q 43.359375 56 49.78125 48.890625 
Q 56.203125 41.796875 56.203125 29.59375 
z
M 47.21875 32.234375 
Q 47.125 39.59375 43.09375 43.984375 
Q 39.0625 48.390625 32.421875 48.390625 
Q 24.90625 48.390625 20.390625 44.140625 
Q 15.875 39.890625 15.1875 32.171875 
z
" id="DejaVuSans-101"/>
      <path d="M 52 44.1875 
Q 55.375 50.25 60.0625 53.125 
Q 64.75 56 71.09375 56 
Q 79.640625 56 84.28125 50.015625 
Q 88.921875 44.046875 88.921875 33.015625 
L 88.921875 0 
L 79.890625 0 
L 79.890625 32.71875 
Q 79.890625 40.578125 77.09375 44.375 
Q 74.3125 48.1875 68.609375 48.1875 
Q 61.625 48.1875 57.5625 43.546875 
Q 53.515625 38.921875 53.515625 30.90625 
L 53.515625 0 
L 44.484375 0 
L 44.484375 32.71875 
Q 44.484375 40.625 41.703125 44.40625 
Q 38.921875 48.1875 33.109375 48.1875 
Q 26.21875 48.1875 22.15625 43.53125 
Q 18.109375 38.875 18.109375 30.90625 
L 18.109375 0 
L 9.078125 0 
L 9.078125 54.6875 
L 18.109375 54.6875 
L 18.109375 46.1875 
Q 21.1875 51.21875 25.484375 53.609375 
Q 29.78125 56 35.6875 56 
Q 41.65625 56 45.828125 52.96875 
Q 50 49.953125 52 44.1875 
z
" id="DejaVuSans-109"/>
      <path d="M 9.421875 54.6875 
L 18.40625 54.6875 
L 18.40625 0 
L 9.421875 0 
z
M 9.421875 75.984375 
L 18.40625 75.984375 
L 18.40625 64.59375 
L 9.421875 64.59375 
z
" id="DejaVuSans-105"/>
      <path d="M 54.890625 33.015625 
L 54.890625 0 
L 45.90625 0 
L 45.90625 32.71875 
Q 45.90625 40.484375 42.875 44.328125 
Q 39.84375 48.1875 33.796875 48.1875 
Q 26.515625 48.1875 22.3125 43.546875 
Q 18.109375 38.921875 18.109375 30.90625 
L 18.109375 0 
L 9.078125 0 
L 9.078125 54.6875 
L 18.109375 54.6875 
L 18.109375 46.1875 
Q 21.34375 51.125 25.703125 53.5625 
Q 30.078125 56 35.796875 56 
Q 45.21875 56 50.046875 50.171875 
Q 54.890625 44.34375 54.890625 33.015625 
z
" id="DejaVuSans-110"/>
     </defs>
     <g transform="translate(14.798438 172.260625)rotate(-90)scale(0.1 -0.1)">
      <use xlink:href="#DejaVuSans-84"/>
      <use x="60.818359" xlink:href="#DejaVuSans-111"/>
      <use x="122" xlink:href="#DejaVuSans-116"/>
      <use x="161.208984" xlink:href="#DejaVuSans-97"/>
      <use x="222.488281" xlink:href="#DejaVuSans-108"/>
      <use x="250.271484" xlink:href="#DejaVuSans-32"/>
      <use x="282.058594" xlink:href="#DejaVuSans-99"/>
      <use x="337.039062" xlink:href="#DejaVuSans-97"/>
      <use x="398.318359" xlink:href="#DejaVuSans-115"/>
      <use x="450.417969" xlink:href="#DejaVuSans-101"/>
      <use x="511.941406" xlink:href="#DejaVuSans-115"/>
      <use x="564.041016" xlink:href="#DejaVuSans-32"/>
      <use x="595.828125" xlink:href="#DejaVuSans-112"/>
      <use x="659.304688" xlink:href="#DejaVuSans-101"/>
      <use x="720.828125" xlink:href="#DejaVuSans-114"/>
      <use x="761.941406" xlink:href="#DejaVuSans-32"/>
      <use x="793.728516" xlink:href="#DejaVuSans-109"/>
      <use x="891.140625" xlink:href="#DejaVuSans-105"/>
      <use x="918.923828" xlink:href="#DejaVuSans-108"/>
      <use x="946.707031" xlink:href="#DejaVuSans-108"/>
      <use x="974.490234" xlink:href="#DejaVuSans-105"/>
      <use x="1002.273438" xlink:href="#DejaVuSans-111"/>
      <use x="1063.455078" xlink:href="#DejaVuSans-110"/>
     </g>
    </g>
   </g>
   <g id="line2d_65">
    <path clip-path="url(#p362d147719)" d="M 292.912213 85.218501 
L 304.573292 83.429062 
L 316.234372 81.639623 
L 327.895451 79.850184 
L 339.55653 78.060745 
" style="fill:none;stroke:#7f7f7f;stroke-dasharray:7.4,3.2;stroke-dashoffset:0;stroke-width:2;"/>
   </g>
   <g id="line2d_66">
    <path clip-path="url(#p362d147719)" d="M 292.912213 132.875816 
L 304.573292 130.540582 
L 316.234372 128.205349 
L 327.895451 125.870116 
L 339.55653 123.534882 
" style="fill:none;stroke:#7f7f7f;stroke-dasharray:7.4,3.2;stroke-dashoffset:0;stroke-width:2;"/>
   </g>
   <g id="line2d_67">
    <path clip-path="url(#p362d147719)" d="M 292.912213 114.361504 
L 304.573292 111.73634 
L 316.234372 109.111176 
L 327.895451 106.486012 
L 339.55653 103.860848 
" style="fill:none;stroke:#7f7f7f;stroke-dasharray:7.4,3.2;stroke-dashoffset:0;stroke-width:2;"/>
   </g>
   <g id="line2d_68">
    <path clip-path="url(#p362d147719)" d="M 292.912213 47.524289 
L 304.573292 44.849543 
L 316.234372 42.174797 
L 327.895451 39.50005 
L 339.55653 36.825304 
" style="fill:none;stroke:#7f7f7f;stroke-dasharray:7.4,3.2;stroke-dashoffset:0;stroke-width:2;"/>
   </g>
   <g id="line2d_69">
    <path clip-path="url(#p362d147719)" d="M 292.912213 64.645551 
L 304.573292 60.733144 
L 316.234372 56.820737 
L 327.895451 52.908331 
L 339.55653 48.995924 
" style="fill:none;stroke:#7f7f7f;stroke-dasharray:7.4,3.2;stroke-dashoffset:0;stroke-width:2;"/>
   </g>
   <g id="line2d_70">
    <path clip-path="url(#p362d147719)" d="M 1.385228 266.463129 
L 13.046307 259.488062 
L 24.707387 252.512995 
L 36.368466 245.537928 
L 48.029546 238.562861 
L 59.690625 231.587794 
L 71.351704 224.612727 
L 83.012784 217.637661 
L 94.673863 210.662594 
L 106.334943 203.687527 
L 117.996022 196.71246 
L 129.657101 189.737393 
L 141.318181 182.762326 
L 152.97926 175.78726 
L 164.64034 168.812193 
L 176.301419 161.837126 
L 187.962498 154.862059 
L 199.623578 147.886992 
L 211.284657 140.911925 
L 222.945737 133.936858 
L 234.606816 126.961792 
L 246.267895 119.986725 
L 257.928975 113.011658 
L 269.590054 106.036591 
L 281.251133 99.061524 
L 292.912213 92.086457 
L 304.573292 85.11139 
L 316.234372 78.136324 
L 327.895451 71.161257 
L 339.55653 64.18619 
" style="fill:none;stroke:#2ca02c;stroke-dasharray:5.55,2.4;stroke-dashoffset:0;stroke-width:1.5;"/>
   </g>
   <g id="patch_3">
    <path d="M 59.690625 224.64 
L 59.690625 7.2 
" style="fill:none;stroke:#000000;stroke-linecap:square;stroke-linejoin:miter;stroke-width:0.8;"/>
   </g>
   <g id="patch_4">
    <path d="M 394.490625 224.64 
L 394.490625 7.2 
" style="fill:none;stroke:#000000;stroke-linecap:square;stroke-linejoin:miter;stroke-width:0.8;"/>
   </g>
   <g id="patch_5">
    <path d="M 59.690625 224.64 
L 394.490625 224.64 
" style="fill:none;stroke:#000000;stroke-linecap:square;stroke-linejoin:miter;stroke-width:0.8;"/>
   </g>
   <g id="patch_6">
    <path d="M 59.690625 7.2 
L 394.490625 7.2 
" style="fill:none;stroke:#000000;stroke-linecap:square;stroke-linejoin:miter;stroke-width:0.8;"/>
   </g>
   <g id="text_22">
    <!-- © Scott Sievert -->
    <defs>
     <path d="M 50 72.515625 
Q 57.421875 72.515625 63.84375 69.828125 
Q 70.265625 67.140625 75.59375 61.8125 
Q 80.90625 56.5 83.546875 50.09375 
Q 86.1875 43.703125 86.1875 36.1875 
Q 86.1875 28.765625 83.546875 22.390625 
Q 80.90625 16.015625 75.59375 10.6875 
Q 70.265625 5.375 63.84375 2.6875 
Q 57.421875 0 50 0 
Q 42.578125 0 36.15625 2.6875 
Q 29.734375 5.375 24.421875 10.6875 
Q 19.09375 16.015625 16.453125 22.390625 
Q 13.8125 28.765625 13.8125 36.1875 
Q 13.8125 43.703125 16.453125 50.09375 
Q 19.09375 56.5 24.421875 61.8125 
Q 29.734375 67.140625 36.15625 69.828125 
Q 42.578125 72.515625 50 72.515625 
z
M 50 67.484375 
Q 43.609375 67.484375 38.078125 65.1875 
Q 32.5625 62.890625 27.984375 58.296875 
Q 23.390625 53.71875 21.046875 48.125 
Q 18.703125 42.53125 18.703125 36.1875 
Q 18.703125 29.890625 21.046875 24.34375 
Q 23.390625 18.796875 27.984375 14.203125 
Q 32.5625 9.625 38.078125 7.296875 
Q 43.609375 4.984375 50 4.984375 
Q 56.453125 4.984375 61.984375 7.296875 
Q 67.53125 9.625 72.125 14.203125 
Q 76.65625 18.75 78.921875 24.265625 
Q 81.203125 29.78125 81.203125 36.1875 
Q 81.203125 42.671875 78.90625 48.21875 
Q 76.609375 53.765625 72.125 58.296875 
Q 67.53125 62.890625 61.984375 65.1875 
Q 56.453125 67.484375 50 67.484375 
z
M 64.59375 55.515625 
L 64.59375 49.21875 
Q 61.375 50.828125 58.203125 51.609375 
Q 55.03125 52.390625 51.8125 52.390625 
Q 44.53125 52.390625 40.453125 48.109375 
Q 36.375 43.84375 36.375 36.1875 
Q 36.375 28.421875 40.546875 24.171875 
Q 44.734375 19.921875 52.296875 19.921875 
Q 55.421875 19.921875 58.390625 20.671875 
Q 61.375 21.4375 64.59375 23.09375 
L 64.59375 16.890625 
Q 61.328125 15.484375 57.984375 14.796875 
Q 54.640625 14.109375 51.21875 14.109375 
Q 40.671875 14.109375 34.546875 20.0625 
Q 28.421875 26.03125 28.421875 36.1875 
Q 28.421875 46.390625 34.546875 52.296875 
Q 40.671875 58.203125 51.21875 58.203125 
Q 54.78125 58.203125 58.09375 57.515625 
Q 61.421875 56.84375 64.59375 55.515625 
z
" id="DejaVuSans-169"/>
     <path d="M 53.515625 70.515625 
L 53.515625 60.890625 
Q 47.90625 63.578125 42.921875 64.890625 
Q 37.9375 66.21875 33.296875 66.21875 
Q 25.25 66.21875 20.875 63.09375 
Q 16.5 59.96875 16.5 54.203125 
Q 16.5 49.359375 19.40625 46.890625 
Q 22.3125 44.4375 30.421875 42.921875 
L 36.375 41.703125 
Q 47.40625 39.59375 52.65625 34.296875 
Q 57.90625 29 57.90625 20.125 
Q 57.90625 9.515625 50.796875 4.046875 
Q 43.703125 -1.421875 29.984375 -1.421875 
Q 24.8125 -1.421875 18.96875 -0.25 
Q 13.140625 0.921875 6.890625 3.21875 
L 6.890625 13.375 
Q 12.890625 10.015625 18.65625 8.296875 
Q 24.421875 6.59375 29.984375 6.59375 
Q 38.421875 6.59375 43.015625 9.90625 
Q 47.609375 13.234375 47.609375 19.390625 
Q 47.609375 24.75 44.3125 27.78125 
Q 41.015625 30.8125 33.5 32.328125 
L 27.484375 33.5 
Q 16.453125 35.6875 11.515625 40.375 
Q 6.59375 45.0625 6.59375 53.421875 
Q 6.59375 63.09375 13.40625 68.65625 
Q 20.21875 74.21875 32.171875 74.21875 
Q 37.3125 74.21875 42.625 73.28125 
Q 47.953125 72.359375 53.515625 70.515625 
z
" id="DejaVuSans-83"/>
     <path d="M 2.984375 54.6875 
L 12.5 54.6875 
L 29.59375 8.796875 
L 46.6875 54.6875 
L 56.203125 54.6875 
L 35.6875 0 
L 23.484375 0 
z
" id="DejaVuSans-118"/>
    </defs>
    <g style="opacity:0.3;" transform="translate(312.863069 263.509449)scale(0.1 -0.1)">
     <use xlink:href="#DejaVuSans-169"/>
     <use x="100" xlink:href="#DejaVuSans-32"/>
     <use x="131.787109" xlink:href="#DejaVuSans-83"/>
     <use x="195.263672" xlink:href="#DejaVuSans-99"/>
     <use x="250.244141" xlink:href="#DejaVuSans-111"/>
     <use x="311.425781" xlink:href="#DejaVuSans-116"/>
     <use x="350.634766" xlink:href="#DejaVuSans-116"/>
     <use x="389.84375" xlink:href="#DejaVuSans-32"/>
     <use x="421.630859" xlink:href="#DejaVuSans-83"/>
     <use x="485.107422" xlink:href="#DejaVuSans-105"/>
     <use x="512.890625" xlink:href="#DejaVuSans-101"/>
     <use x="574.414062" xlink:href="#DejaVuSans-118"/>
     <use x="633.59375" xlink:href="#DejaVuSans-101"/>
     <use x="695.117188" xlink:href="#DejaVuSans-114"/>
     <use x="736.230469" xlink:href="#DejaVuSans-116"/>
    </g>
   </g>
   <g id="legend_1">
    <g id="patch_7">
     <path d="M 66.690625 117.96875 
L 184.957813 117.96875 
Q 186.957813 117.96875 186.957813 115.96875 
L 186.957813 14.2 
Q 186.957813 12.2 184.957813 12.2 
L 66.690625 12.2 
Q 64.690625 12.2 64.690625 14.2 
L 64.690625 115.96875 
Q 64.690625 117.96875 66.690625 117.96875 
z
" style="fill:#ffffff;opacity:0.8;stroke:#cccccc;stroke-linejoin:miter;"/>
    </g>
    <g id="text_23">
     <!-- State (cases in 7 days) -->
     <defs>
      <path d="M 31 75.875 
Q 24.46875 64.65625 21.28125 53.65625 
Q 18.109375 42.671875 18.109375 31.390625 
Q 18.109375 20.125 21.3125 9.0625 
Q 24.515625 -2 31 -13.1875 
L 23.1875 -13.1875 
Q 15.875 -1.703125 12.234375 9.375 
Q 8.59375 20.453125 8.59375 31.390625 
Q 8.59375 42.28125 12.203125 53.3125 
Q 15.828125 64.359375 23.1875 75.875 
z
" id="DejaVuSans-40"/>
      <path d="M 45.40625 46.390625 
L 45.40625 75.984375 
L 54.390625 75.984375 
L 54.390625 0 
L 45.40625 0 
L 45.40625 8.203125 
Q 42.578125 3.328125 38.25 0.953125 
Q 33.9375 -1.421875 27.875 -1.421875 
Q 17.96875 -1.421875 11.734375 6.484375 
Q 5.515625 14.40625 5.515625 27.296875 
Q 5.515625 40.1875 11.734375 48.09375 
Q 17.96875 56 27.875 56 
Q 33.9375 56 38.25 53.625 
Q 42.578125 51.265625 45.40625 46.390625 
z
M 14.796875 27.296875 
Q 14.796875 17.390625 18.875 11.75 
Q 22.953125 6.109375 30.078125 6.109375 
Q 37.203125 6.109375 41.296875 11.75 
Q 45.40625 17.390625 45.40625 27.296875 
Q 45.40625 37.203125 41.296875 42.84375 
Q 37.203125 48.484375 30.078125 48.484375 
Q 22.953125 48.484375 18.875 42.84375 
Q 14.796875 37.203125 14.796875 27.296875 
z
" id="DejaVuSans-100"/>
      <path d="M 32.171875 -5.078125 
Q 28.375 -14.84375 24.75 -17.8125 
Q 21.140625 -20.796875 15.09375 -20.796875 
L 7.90625 -20.796875 
L 7.90625 -13.28125 
L 13.1875 -13.28125 
Q 16.890625 -13.28125 18.9375 -11.515625 
Q 21 -9.765625 23.484375 -3.21875 
L 25.09375 0.875 
L 2.984375 54.6875 
L 12.5 54.6875 
L 29.59375 11.921875 
L 46.6875 54.6875 
L 56.203125 54.6875 
z
" id="DejaVuSans-121"/>
      <path d="M 8.015625 75.875 
L 15.828125 75.875 
Q 23.140625 64.359375 26.78125 53.3125 
Q 30.421875 42.28125 30.421875 31.390625 
Q 30.421875 20.453125 26.78125 9.375 
Q 23.140625 -1.703125 15.828125 -13.1875 
L 8.015625 -13.1875 
Q 14.5 -2 17.703125 9.0625 
Q 20.90625 20.125 20.90625 31.390625 
Q 20.90625 42.671875 17.703125 53.65625 
Q 14.5 64.65625 8.015625 75.875 
z
" id="DejaVuSans-41"/>
     </defs>
     <g transform="translate(68.690625 23.798437)scale(0.1 -0.1)">
      <use xlink:href="#DejaVuSans-83"/>
      <use x="63.476562" xlink:href="#DejaVuSans-116"/>
      <use x="102.685547" xlink:href="#DejaVuSans-97"/>
      <use x="163.964844" xlink:href="#DejaVuSans-116"/>
      <use x="203.173828" xlink:href="#DejaVuSans-101"/>
      <use x="264.697266" xlink:href="#DejaVuSans-32"/>
      <use x="296.484375" xlink:href="#DejaVuSans-40"/>
      <use x="335.498047" xlink:href="#DejaVuSans-99"/>
      <use x="390.478516" xlink:href="#DejaVuSans-97"/>
      <use x="451.757812" xlink:href="#DejaVuSans-115"/>
      <use x="503.857422" xlink:href="#DejaVuSans-101"/>
      <use x="565.380859" xlink:href="#DejaVuSans-115"/>
      <use x="617.480469" xlink:href="#DejaVuSans-32"/>
      <use x="649.267578" xlink:href="#DejaVuSans-105"/>
      <use x="677.050781" xlink:href="#DejaVuSans-110"/>
      <use x="740.429688" xlink:href="#DejaVuSans-32"/>
      <use x="772.216797" xlink:href="#DejaVuSans-55"/>
      <use x="835.839844" xlink:href="#DejaVuSans-32"/>
      <use x="867.626953" xlink:href="#DejaVuSans-100"/>
      <use x="931.103516" xlink:href="#DejaVuSans-97"/>
      <use x="992.382812" xlink:href="#DejaVuSans-121"/>
      <use x="1051.5625" xlink:href="#DejaVuSans-115"/>
      <use x="1103.662109" xlink:href="#DejaVuSans-41"/>
     </g>
    </g>
    <g id="line2d_71">
     <path d="M 85.824219 34.976562 
L 105.824219 34.976562 
" style="fill:none;stroke:#1f77b4;stroke-linecap:square;stroke-width:1.5;"/>
    </g>
    <g id="line2d_72">
     <defs>
      <path d="M 0 3 
C 0.795609 3 1.55874 2.683901 2.12132 2.12132 
C 2.683901 1.55874 3 0.795609 3 0 
C 3 -0.795609 2.683901 -1.55874 2.12132 -2.12132 
C 1.55874 -2.683901 0.795609 -3 0 -3 
C -0.795609 -3 -1.55874 -2.683901 -2.12132 -2.12132 
C -2.683901 -1.55874 -3 -0.795609 -3 0 
C -3 0.795609 -2.683901 1.55874 -2.12132 2.12132 
C -1.55874 2.683901 -0.795609 3 0 3 
z
" id="m341dfad5cc" style="stroke:#1f77b4;"/>
     </defs>
     <g>
      <use style="fill:#1f77b4;stroke:#1f77b4;" x="95.824219" xlink:href="#m341dfad5cc" y="34.976562"/>
     </g>
    </g>
    <g id="text_24">
     <!-- WA (1.7$\times$) -->
     <defs>
      <path d="M 3.328125 72.90625 
L 13.28125 72.90625 
L 28.609375 11.28125 
L 43.890625 72.90625 
L 54.984375 72.90625 
L 70.3125 11.28125 
L 85.59375 72.90625 
L 95.609375 72.90625 
L 77.296875 0 
L 64.890625 0 
L 49.515625 63.28125 
L 33.984375 0 
L 21.578125 0 
z
" id="DejaVuSans-87"/>
      <path d="M 70.125 53.71875 
L 47.796875 31.296875 
L 70.125 8.984375 
L 64.3125 3.078125 
L 41.890625 25.484375 
L 19.484375 3.078125 
L 13.71875 8.984375 
L 35.984375 31.296875 
L 13.71875 53.71875 
L 19.484375 59.625 
L 41.890625 37.203125 
L 64.3125 59.625 
z
" id="DejaVuSans-215"/>
     </defs>
     <g transform="translate(113.824219 38.476562)scale(0.1 -0.1)">
      <use transform="translate(0 0.125)" xlink:href="#DejaVuSans-87"/>
      <use transform="translate(98.876953 0.125)" xlink:href="#DejaVuSans-65"/>
      <use transform="translate(167.285156 0.125)" xlink:href="#DejaVuSans-32"/>
      <use transform="translate(199.072266 0.125)" xlink:href="#DejaVuSans-40"/>
      <use transform="translate(238.085938 0.125)" xlink:href="#DejaVuSans-49"/>
      <use transform="translate(301.708984 0.125)" xlink:href="#DejaVuSans-46"/>
      <use transform="translate(333.386719 0.125)" xlink:href="#DejaVuSans-55"/>
      <use transform="translate(397.009766 0.125)" xlink:href="#DejaVuSans-215"/>
      <use transform="translate(480.798828 0.125)" xlink:href="#DejaVuSans-41"/>
     </g>
    </g>
    <g id="line2d_73">
     <path d="M 85.824219 49.654687 
L 105.824219 49.654687 
" style="fill:none;stroke:#ff7f0e;stroke-linecap:square;stroke-width:1.5;"/>
    </g>
    <g id="line2d_74">
     <defs>
      <path d="M 0 3 
C 0.795609 3 1.55874 2.683901 2.12132 2.12132 
C 2.683901 1.55874 3 0.795609 3 0 
C 3 -0.795609 2.683901 -1.55874 2.12132 -2.12132 
C 1.55874 -2.683901 0.795609 -3 0 -3 
C -0.795609 -3 -1.55874 -2.683901 -2.12132 -2.12132 
C -2.683901 -1.55874 -3 -0.795609 -3 0 
C -3 0.795609 -2.683901 1.55874 -2.12132 2.12132 
C -1.55874 2.683901 -0.795609 3 0 3 
z
" id="mab270c849f" style="stroke:#ff7f0e;"/>
     </defs>
     <g>
      <use style="fill:#ff7f0e;stroke:#ff7f0e;" x="95.824219" xlink:href="#mab270c849f" y="49.654687"/>
     </g>
    </g>
    <g id="text_25">
     <!-- MN (2.0$\times$) -->
     <defs>
      <path d="M 9.8125 72.90625 
L 23.09375 72.90625 
L 55.421875 11.921875 
L 55.421875 72.90625 
L 64.984375 72.90625 
L 64.984375 0 
L 51.703125 0 
L 19.390625 60.984375 
L 19.390625 0 
L 9.8125 0 
z
" id="DejaVuSans-78"/>
     </defs>
     <g transform="translate(113.824219 53.154687)scale(0.1 -0.1)">
      <use transform="translate(0 0.125)" xlink:href="#DejaVuSans-77"/>
      <use transform="translate(86.279297 0.125)" xlink:href="#DejaVuSans-78"/>
      <use transform="translate(161.083984 0.125)" xlink:href="#DejaVuSans-32"/>
      <use transform="translate(192.871094 0.125)" xlink:href="#DejaVuSans-40"/>
      <use transform="translate(231.884766 0.125)" xlink:href="#DejaVuSans-50"/>
      <use transform="translate(295.507812 0.125)" xlink:href="#DejaVuSans-46"/>
      <use transform="translate(327.294922 0.125)" xlink:href="#DejaVuSans-48"/>
      <use transform="translate(390.917969 0.125)" xlink:href="#DejaVuSans-215"/>
      <use transform="translate(474.707031 0.125)" xlink:href="#DejaVuSans-41"/>
     </g>
    </g>
    <g id="line2d_75">
     <path d="M 85.824219 64.332812 
L 105.824219 64.332812 
" style="fill:none;stroke:#2ca02c;stroke-linecap:square;stroke-width:1.5;"/>
    </g>
    <g id="line2d_76">
     <defs>
      <path d="M 0 3 
C 0.795609 3 1.55874 2.683901 2.12132 2.12132 
C 2.683901 1.55874 3 0.795609 3 0 
C 3 -0.795609 2.683901 -1.55874 2.12132 -2.12132 
C 1.55874 -2.683901 0.795609 -3 0 -3 
C -0.795609 -3 -1.55874 -2.683901 -2.12132 -2.12132 
C -2.683901 -1.55874 -3 -0.795609 -3 0 
C -3 0.795609 -2.683901 1.55874 -2.12132 2.12132 
C -1.55874 2.683901 -0.795609 3 0 3 
z
" id="m78382b83a8" style="stroke:#2ca02c;"/>
     </defs>
     <g>
      <use style="fill:#2ca02c;stroke:#2ca02c;" x="95.824219" xlink:href="#m78382b83a8" y="64.332812"/>
     </g>
    </g>
    <g id="text_26">
     <!-- WI (2.1$\times$) -->
     <defs>
      <path d="M 9.8125 72.90625 
L 19.671875 72.90625 
L 19.671875 0 
L 9.8125 0 
z
" id="DejaVuSans-73"/>
     </defs>
     <g transform="translate(113.824219 67.832812)scale(0.1 -0.1)">
      <use transform="translate(0 0.125)" xlink:href="#DejaVuSans-87"/>
      <use transform="translate(98.876953 0.125)" xlink:href="#DejaVuSans-73"/>
      <use transform="translate(128.369141 0.125)" xlink:href="#DejaVuSans-32"/>
      <use transform="translate(160.15625 0.125)" xlink:href="#DejaVuSans-40"/>
      <use transform="translate(199.169922 0.125)" xlink:href="#DejaVuSans-50"/>
      <use transform="translate(262.792969 0.125)" xlink:href="#DejaVuSans-46"/>
      <use transform="translate(294.580078 0.125)" xlink:href="#DejaVuSans-49"/>
      <use transform="translate(358.203125 0.125)" xlink:href="#DejaVuSans-215"/>
      <use transform="translate(441.992188 0.125)" xlink:href="#DejaVuSans-41"/>
     </g>
    </g>
    <g id="line2d_77">
     <path d="M 85.824219 79.010937 
L 105.824219 79.010937 
" style="fill:none;stroke:#d62728;stroke-linecap:square;stroke-width:1.5;"/>
    </g>
    <g id="line2d_78">
     <defs>
      <path d="M 0 3 
C 0.795609 3 1.55874 2.683901 2.12132 2.12132 
C 2.683901 1.55874 3 0.795609 3 0 
C 3 -0.795609 2.683901 -1.55874 2.12132 -2.12132 
C 1.55874 -2.683901 0.795609 -3 0 -3 
C -0.795609 -3 -1.55874 -2.683901 -2.12132 -2.12132 
C -2.683901 -1.55874 -3 -0.795609 -3 0 
C -3 0.795609 -2.683901 1.55874 -2.12132 2.12132 
C -1.55874 2.683901 -0.795609 3 0 3 
z
" id="m942b34027f" style="stroke:#d62728;"/>
     </defs>
     <g>
      <use style="fill:#d62728;stroke:#d62728;" x="95.824219" xlink:href="#m942b34027f" y="79.010937"/>
     </g>
    </g>
    <g id="text_27">
     <!-- NY (2.2$\times$) -->
     <defs>
      <path d="M -0.203125 72.90625 
L 10.40625 72.90625 
L 30.609375 42.921875 
L 50.6875 72.90625 
L 61.28125 72.90625 
L 35.5 34.71875 
L 35.5 0 
L 25.59375 0 
L 25.59375 34.71875 
z
" id="DejaVuSans-89"/>
     </defs>
     <g transform="translate(113.824219 82.510937)scale(0.1 -0.1)">
      <use transform="translate(0 0.125)" xlink:href="#DejaVuSans-78"/>
      <use transform="translate(74.804688 0.125)" xlink:href="#DejaVuSans-89"/>
      <use transform="translate(135.888672 0.125)" xlink:href="#DejaVuSans-32"/>
      <use transform="translate(167.675781 0.125)" xlink:href="#DejaVuSans-40"/>
      <use transform="translate(206.689453 0.125)" xlink:href="#DejaVuSans-50"/>
      <use transform="translate(270.3125 0.125)" xlink:href="#DejaVuSans-46"/>
      <use transform="translate(302.021484 0.125)" xlink:href="#DejaVuSans-50"/>
      <use transform="translate(365.644531 0.125)" xlink:href="#DejaVuSans-215"/>
      <use transform="translate(449.433594 0.125)" xlink:href="#DejaVuSans-41"/>
     </g>
    </g>
    <g id="line2d_79">
     <path d="M 85.824219 93.690625 
L 105.824219 93.690625 
" style="fill:none;stroke:#9467bd;stroke-linecap:square;stroke-width:1.5;"/>
    </g>
    <g id="line2d_80">
     <defs>
      <path d="M 0 3 
C 0.795609 3 1.55874 2.683901 2.12132 2.12132 
C 2.683901 1.55874 3 0.795609 3 0 
C 3 -0.795609 2.683901 -1.55874 2.12132 -2.12132 
C 1.55874 -2.683901 0.795609 -3 0 -3 
C -0.795609 -3 -1.55874 -2.683901 -2.12132 -2.12132 
C -2.683901 -1.55874 -3 -0.795609 -3 0 
C -3 0.795609 -2.683901 1.55874 -2.12132 2.12132 
C -1.55874 2.683901 -0.795609 3 0 3 
z
" id="md67a278a4b" style="stroke:#9467bd;"/>
     </defs>
     <g>
      <use style="fill:#9467bd;stroke:#9467bd;" x="95.824219" xlink:href="#md67a278a4b" y="93.690625"/>
     </g>
    </g>
    <g id="text_28">
     <!-- NJ (3.1$\times$) -->
     <defs>
      <path d="M 9.8125 72.90625 
L 19.671875 72.90625 
L 19.671875 5.078125 
Q 19.671875 -8.109375 14.671875 -14.0625 
Q 9.671875 -20.015625 -1.421875 -20.015625 
L -5.171875 -20.015625 
L -5.171875 -11.71875 
L -2.09375 -11.71875 
Q 4.4375 -11.71875 7.125 -8.046875 
Q 9.8125 -4.390625 9.8125 5.078125 
z
" id="DejaVuSans-74"/>
     </defs>
     <g transform="translate(113.824219 97.190625)scale(0.1 -0.1)">
      <use transform="translate(0 0.125)" xlink:href="#DejaVuSans-78"/>
      <use transform="translate(74.804688 0.125)" xlink:href="#DejaVuSans-74"/>
      <use transform="translate(104.296875 0.125)" xlink:href="#DejaVuSans-32"/>
      <use transform="translate(136.083984 0.125)" xlink:href="#DejaVuSans-40"/>
      <use transform="translate(175.097656 0.125)" xlink:href="#DejaVuSans-51"/>
      <use transform="translate(238.720703 0.125)" xlink:href="#DejaVuSans-46"/>
      <use transform="translate(270.507812 0.125)" xlink:href="#DejaVuSans-49"/>
      <use transform="translate(334.130859 0.125)" xlink:href="#DejaVuSans-215"/>
      <use transform="translate(417.919922 0.125)" xlink:href="#DejaVuSans-41"/>
     </g>
    </g>
    <g id="line2d_81">
     <path d="M 85.824219 108.389062 
L 105.824219 108.389062 
" style="fill:none;stroke:#2ca02c;stroke-dasharray:5.55,2.4;stroke-dashoffset:0;stroke-width:1.5;"/>
    </g>
    <g id="line2d_82"/>
    <g id="text_29">
     <!-- (7.6×) -->
     <defs>
      <path d="M 33.015625 40.375 
Q 26.375 40.375 22.484375 35.828125 
Q 18.609375 31.296875 18.609375 23.390625 
Q 18.609375 15.53125 22.484375 10.953125 
Q 26.375 6.390625 33.015625 6.390625 
Q 39.65625 6.390625 43.53125 10.953125 
Q 47.40625 15.53125 47.40625 23.390625 
Q 47.40625 31.296875 43.53125 35.828125 
Q 39.65625 40.375 33.015625 40.375 
z
M 52.59375 71.296875 
L 52.59375 62.3125 
Q 48.875 64.0625 45.09375 64.984375 
Q 41.3125 65.921875 37.59375 65.921875 
Q 27.828125 65.921875 22.671875 59.328125 
Q 17.53125 52.734375 16.796875 39.40625 
Q 19.671875 43.65625 24.015625 45.921875 
Q 28.375 48.1875 33.59375 48.1875 
Q 44.578125 48.1875 50.953125 41.515625 
Q 57.328125 34.859375 57.328125 23.390625 
Q 57.328125 12.15625 50.6875 5.359375 
Q 44.046875 -1.421875 33.015625 -1.421875 
Q 20.359375 -1.421875 13.671875 8.265625 
Q 6.984375 17.96875 6.984375 36.375 
Q 6.984375 53.65625 15.1875 63.9375 
Q 23.390625 74.21875 37.203125 74.21875 
Q 40.921875 74.21875 44.703125 73.484375 
Q 48.484375 72.75 52.59375 71.296875 
z
" id="DejaVuSans-54"/>
     </defs>
     <g transform="translate(113.824219 111.889062)scale(0.1 -0.1)">
      <use xlink:href="#DejaVuSans-40"/>
      <use x="39.013672" xlink:href="#DejaVuSans-55"/>
      <use x="102.636719" xlink:href="#DejaVuSans-46"/>
      <use x="134.423828" xlink:href="#DejaVuSans-54"/>
      <use x="198.046875" xlink:href="#DejaVuSans-215"/>
      <use x="281.835938" xlink:href="#DejaVuSans-41"/>
     </g>
    </g>
   </g>
   <g id="line2d_83">
    <path clip-path="url(#p362d147719)" d="M -1 199.323418 
L 1.385228 197.424432 
L 13.046307 186.137716 
L 24.707387 182.832437 
L 36.368466 176.888091 
L 48.029546 170.891905 
L 59.690625 165.128863 
L 71.351704 154.410046 
L 83.012784 149.777071 
L 94.673863 144.588843 
L 106.334943 139.794912 
L 117.996022 135.557661 
L 129.657101 133.072663 
L 141.318181 129.151255 
L 152.97926 125.911142 
L 164.64034 122.960412 
L 176.301419 118.620026 
L 187.962498 115.385285 
L 199.623578 111.413041 
L 211.284657 108.801452 
L 222.945737 105.650326 
L 234.606816 101.752368 
L 246.267895 100.643542 
L 257.928975 95.428817 
L 269.590054 91.530195 
L 281.251133 88.291676 
L 292.912213 85.218501 
L 304.573292 83.861376 
L 316.234372 83.340096 
L 327.895451 82.025676 
L 339.55653 78.060745 
" style="fill:none;stroke:#1f77b4;stroke-linecap:square;stroke-width:1.5;"/>
    <g clip-path="url(#p362d147719)">
     <use style="fill:#1f77b4;stroke:#1f77b4;" x="-1" xlink:href="#m341dfad5cc" y="199.323418"/>
     <use style="fill:#1f77b4;stroke:#1f77b4;" x="1.385228" xlink:href="#m341dfad5cc" y="197.424432"/>
     <use style="fill:#1f77b4;stroke:#1f77b4;" x="13.046307" xlink:href="#m341dfad5cc" y="186.137716"/>
     <use style="fill:#1f77b4;stroke:#1f77b4;" x="24.707387" xlink:href="#m341dfad5cc" y="182.832437"/>
     <use style="fill:#1f77b4;stroke:#1f77b4;" x="36.368466" xlink:href="#m341dfad5cc" y="176.888091"/>
     <use style="fill:#1f77b4;stroke:#1f77b4;" x="48.029546" xlink:href="#m341dfad5cc" y="170.891905"/>
     <use style="fill:#1f77b4;stroke:#1f77b4;" x="59.690625" xlink:href="#m341dfad5cc" y="165.128863"/>
     <use style="fill:#1f77b4;stroke:#1f77b4;" x="71.351704" xlink:href="#m341dfad5cc" y="154.410046"/>
     <use style="fill:#1f77b4;stroke:#1f77b4;" x="83.012784" xlink:href="#m341dfad5cc" y="149.777071"/>
     <use style="fill:#1f77b4;stroke:#1f77b4;" x="94.673863" xlink:href="#m341dfad5cc" y="144.588843"/>
     <use style="fill:#1f77b4;stroke:#1f77b4;" x="106.334943" xlink:href="#m341dfad5cc" y="139.794912"/>
     <use style="fill:#1f77b4;stroke:#1f77b4;" x="117.996022" xlink:href="#m341dfad5cc" y="135.557661"/>
     <use style="fill:#1f77b4;stroke:#1f77b4;" x="129.657101" xlink:href="#m341dfad5cc" y="133.072663"/>
     <use style="fill:#1f77b4;stroke:#1f77b4;" x="141.318181" xlink:href="#m341dfad5cc" y="129.151255"/>
     <use style="fill:#1f77b4;stroke:#1f77b4;" x="152.97926" xlink:href="#m341dfad5cc" y="125.911142"/>
     <use style="fill:#1f77b4;stroke:#1f77b4;" x="164.64034" xlink:href="#m341dfad5cc" y="122.960412"/>
     <use style="fill:#1f77b4;stroke:#1f77b4;" x="176.301419" xlink:href="#m341dfad5cc" y="118.620026"/>
     <use style="fill:#1f77b4;stroke:#1f77b4;" x="187.962498" xlink:href="#m341dfad5cc" y="115.385285"/>
     <use style="fill:#1f77b4;stroke:#1f77b4;" x="199.623578" xlink:href="#m341dfad5cc" y="111.413041"/>
     <use style="fill:#1f77b4;stroke:#1f77b4;" x="211.284657" xlink:href="#m341dfad5cc" y="108.801452"/>
     <use style="fill:#1f77b4;stroke:#1f77b4;" x="222.945737" xlink:href="#m341dfad5cc" y="105.650326"/>
     <use style="fill:#1f77b4;stroke:#1f77b4;" x="234.606816" xlink:href="#m341dfad5cc" y="101.752368"/>
     <use style="fill:#1f77b4;stroke:#1f77b4;" x="246.267895" xlink:href="#m341dfad5cc" y="100.643542"/>
     <use style="fill:#1f77b4;stroke:#1f77b4;" x="257.928975" xlink:href="#m341dfad5cc" y="95.428817"/>
     <use style="fill:#1f77b4;stroke:#1f77b4;" x="269.590054" xlink:href="#m341dfad5cc" y="91.530195"/>
     <use style="fill:#1f77b4;stroke:#1f77b4;" x="281.251133" xlink:href="#m341dfad5cc" y="88.291676"/>
     <use style="fill:#1f77b4;stroke:#1f77b4;" x="292.912213" xlink:href="#m341dfad5cc" y="85.218501"/>
     <use style="fill:#1f77b4;stroke:#1f77b4;" x="304.573292" xlink:href="#m341dfad5cc" y="83.861376"/>
     <use style="fill:#1f77b4;stroke:#1f77b4;" x="316.234372" xlink:href="#m341dfad5cc" y="83.340096"/>
     <use style="fill:#1f77b4;stroke:#1f77b4;" x="327.895451" xlink:href="#m341dfad5cc" y="82.025676"/>
     <use style="fill:#1f77b4;stroke:#1f77b4;" x="339.55653" xlink:href="#m341dfad5cc" y="78.060745"/>
    </g>
   </g>
   <g id="line2d_84">
    <path clip-path="url(#p362d147719)" d="M 42.894001 273.789136 
L 48.029546 266.416762 
L 59.690625 266.416762 
L 71.351704 256.624395 
L 83.012784 244.287473 
L 94.673863 230.091869 
L 106.334943 219.42119 
L 117.996022 209.628824 
L 129.657101 197.291901 
L 141.318181 186.819182 
L 152.97926 184.274626 
L 164.64034 178.24991 
L 176.301419 174.752105 
L 187.962498 168.56232 
L 199.623578 164.159082 
L 211.284657 158.980881 
L 222.945737 151.302765 
L 234.606816 148.676132 
L 246.267895 146.47507 
L 257.928975 141.959892 
L 269.590054 138.57844 
L 281.251133 136.100725 
L 292.912213 132.875816 
L 304.573292 129.650906 
L 316.234372 127.525053 
L 327.895451 125.32466 
L 339.55653 123.534882 
" style="fill:none;stroke:#ff7f0e;stroke-linecap:square;stroke-width:1.5;"/>
    <g clip-path="url(#p362d147719)">
     <use style="fill:#ff7f0e;stroke:#ff7f0e;" x="24.707387" xlink:href="#mab270c849f" y="283.156922"/>
     <use style="fill:#ff7f0e;stroke:#ff7f0e;" x="36.368466" xlink:href="#mab270c849f" y="283.156922"/>
     <use style="fill:#ff7f0e;stroke:#ff7f0e;" x="48.029546" xlink:href="#mab270c849f" y="266.416762"/>
     <use style="fill:#ff7f0e;stroke:#ff7f0e;" x="59.690625" xlink:href="#mab270c849f" y="266.416762"/>
     <use style="fill:#ff7f0e;stroke:#ff7f0e;" x="71.351704" xlink:href="#mab270c849f" y="256.624395"/>
     <use style="fill:#ff7f0e;stroke:#ff7f0e;" x="83.012784" xlink:href="#mab270c849f" y="244.287473"/>
     <use style="fill:#ff7f0e;stroke:#ff7f0e;" x="94.673863" xlink:href="#mab270c849f" y="230.091869"/>
     <use style="fill:#ff7f0e;stroke:#ff7f0e;" x="106.334943" xlink:href="#mab270c849f" y="219.42119"/>
     <use style="fill:#ff7f0e;stroke:#ff7f0e;" x="117.996022" xlink:href="#mab270c849f" y="209.628824"/>
     <use style="fill:#ff7f0e;stroke:#ff7f0e;" x="129.657101" xlink:href="#mab270c849f" y="197.291901"/>
     <use style="fill:#ff7f0e;stroke:#ff7f0e;" x="141.318181" xlink:href="#mab270c849f" y="186.819182"/>
     <use style="fill:#ff7f0e;stroke:#ff7f0e;" x="152.97926" xlink:href="#mab270c849f" y="184.274626"/>
     <use style="fill:#ff7f0e;stroke:#ff7f0e;" x="164.64034" xlink:href="#mab270c849f" y="178.24991"/>
     <use style="fill:#ff7f0e;stroke:#ff7f0e;" x="176.301419" xlink:href="#mab270c849f" y="174.752105"/>
     <use style="fill:#ff7f0e;stroke:#ff7f0e;" x="187.962498" xlink:href="#mab270c849f" y="168.56232"/>
     <use style="fill:#ff7f0e;stroke:#ff7f0e;" x="199.623578" xlink:href="#mab270c849f" y="164.159082"/>
     <use style="fill:#ff7f0e;stroke:#ff7f0e;" x="211.284657" xlink:href="#mab270c849f" y="158.980881"/>
     <use style="fill:#ff7f0e;stroke:#ff7f0e;" x="222.945737" xlink:href="#mab270c849f" y="151.302765"/>
     <use style="fill:#ff7f0e;stroke:#ff7f0e;" x="234.606816" xlink:href="#mab270c849f" y="148.676132"/>
     <use style="fill:#ff7f0e;stroke:#ff7f0e;" x="246.267895" xlink:href="#mab270c849f" y="146.47507"/>
     <use style="fill:#ff7f0e;stroke:#ff7f0e;" x="257.928975" xlink:href="#mab270c849f" y="141.959892"/>
     <use style="fill:#ff7f0e;stroke:#ff7f0e;" x="269.590054" xlink:href="#mab270c849f" y="138.57844"/>
     <use style="fill:#ff7f0e;stroke:#ff7f0e;" x="281.251133" xlink:href="#mab270c849f" y="136.100725"/>
     <use style="fill:#ff7f0e;stroke:#ff7f0e;" x="292.912213" xlink:href="#mab270c849f" y="132.875816"/>
     <use style="fill:#ff7f0e;stroke:#ff7f0e;" x="304.573292" xlink:href="#mab270c849f" y="129.650906"/>
     <use style="fill:#ff7f0e;stroke:#ff7f0e;" x="316.234372" xlink:href="#mab270c849f" y="127.525053"/>
     <use style="fill:#ff7f0e;stroke:#ff7f0e;" x="327.895451" xlink:href="#mab270c849f" y="125.32466"/>
     <use style="fill:#ff7f0e;stroke:#ff7f0e;" x="339.55653" xlink:href="#mab270c849f" y="123.534882"/>
    </g>
   </g>
   <g id="line2d_85">
    <path clip-path="url(#p362d147719)" d="M 55.091739 273.789136 
L 59.690625 267.187166 
L 71.351704 257.3948 
L 83.012784 240.65464 
L 94.673863 233.706846 
L 106.334943 212.816339 
L 117.996022 204.329747 
L 129.657101 199.48336 
L 141.318181 190.942618 
L 152.97926 180.641792 
L 164.64034 171.300859 
L 176.301419 162.123837 
L 187.962498 154.109266 
L 199.623578 147.755725 
L 211.284657 140.339792 
L 222.945737 138.164738 
L 234.606816 134.774287 
L 246.267895 128.526938 
L 257.928975 123.917831 
L 269.590054 118.85115 
L 281.251133 116.104882 
L 292.912213 114.361504 
L 304.573292 111.383132 
L 316.234372 109.832806 
L 327.895451 106.514228 
L 339.55653 103.860848 
" style="fill:none;stroke:#2ca02c;stroke-linecap:square;stroke-width:1.5;"/>
    <g clip-path="url(#p362d147719)">
     <use style="fill:#2ca02c;stroke:#2ca02c;" x="-1" xlink:href="#m78382b83a8" y="283.927327"/>
     <use style="fill:#2ca02c;stroke:#2ca02c;" x="1.385228" xlink:href="#m78382b83a8" y="283.927327"/>
     <use style="fill:#2ca02c;stroke:#2ca02c;" x="13.046307" xlink:href="#m78382b83a8" y="283.927327"/>
     <use style="fill:#2ca02c;stroke:#2ca02c;" x="24.707387" xlink:href="#m78382b83a8" y="283.927327"/>
     <use style="fill:#2ca02c;stroke:#2ca02c;" x="36.368466" xlink:href="#m78382b83a8" y="283.927327"/>
     <use style="fill:#2ca02c;stroke:#2ca02c;" x="48.029546" xlink:href="#m78382b83a8" y="283.927327"/>
     <use style="fill:#2ca02c;stroke:#2ca02c;" x="59.690625" xlink:href="#m78382b83a8" y="267.187166"/>
     <use style="fill:#2ca02c;stroke:#2ca02c;" x="71.351704" xlink:href="#m78382b83a8" y="257.3948"/>
     <use style="fill:#2ca02c;stroke:#2ca02c;" x="83.012784" xlink:href="#m78382b83a8" y="240.65464"/>
     <use style="fill:#2ca02c;stroke:#2ca02c;" x="94.673863" xlink:href="#m78382b83a8" y="233.706846"/>
     <use style="fill:#2ca02c;stroke:#2ca02c;" x="106.334943" xlink:href="#m78382b83a8" y="212.816339"/>
     <use style="fill:#2ca02c;stroke:#2ca02c;" x="117.996022" xlink:href="#m78382b83a8" y="204.329747"/>
     <use style="fill:#2ca02c;stroke:#2ca02c;" x="129.657101" xlink:href="#m78382b83a8" y="199.48336"/>
     <use style="fill:#2ca02c;stroke:#2ca02c;" x="141.318181" xlink:href="#m78382b83a8" y="190.942618"/>
     <use style="fill:#2ca02c;stroke:#2ca02c;" x="152.97926" xlink:href="#m78382b83a8" y="180.641792"/>
     <use style="fill:#2ca02c;stroke:#2ca02c;" x="164.64034" xlink:href="#m78382b83a8" y="171.300859"/>
     <use style="fill:#2ca02c;stroke:#2ca02c;" x="176.301419" xlink:href="#m78382b83a8" y="162.123837"/>
     <use style="fill:#2ca02c;stroke:#2ca02c;" x="187.962498" xlink:href="#m78382b83a8" y="154.109266"/>
     <use style="fill:#2ca02c;stroke:#2ca02c;" x="199.623578" xlink:href="#m78382b83a8" y="147.755725"/>
     <use style="fill:#2ca02c;stroke:#2ca02c;" x="211.284657" xlink:href="#m78382b83a8" y="140.339792"/>
     <use style="fill:#2ca02c;stroke:#2ca02c;" x="222.945737" xlink:href="#m78382b83a8" y="138.164738"/>
     <use style="fill:#2ca02c;stroke:#2ca02c;" x="234.606816" xlink:href="#m78382b83a8" y="134.774287"/>
     <use style="fill:#2ca02c;stroke:#2ca02c;" x="246.267895" xlink:href="#m78382b83a8" y="128.526938"/>
     <use style="fill:#2ca02c;stroke:#2ca02c;" x="257.928975" xlink:href="#m78382b83a8" y="123.917831"/>
     <use style="fill:#2ca02c;stroke:#2ca02c;" x="269.590054" xlink:href="#m78382b83a8" y="118.85115"/>
     <use style="fill:#2ca02c;stroke:#2ca02c;" x="281.251133" xlink:href="#m78382b83a8" y="116.104882"/>
     <use style="fill:#2ca02c;stroke:#2ca02c;" x="292.912213" xlink:href="#m78382b83a8" y="114.361504"/>
     <use style="fill:#2ca02c;stroke:#2ca02c;" x="304.573292" xlink:href="#m78382b83a8" y="111.383132"/>
     <use style="fill:#2ca02c;stroke:#2ca02c;" x="316.234372" xlink:href="#m78382b83a8" y="109.832806"/>
     <use style="fill:#2ca02c;stroke:#2ca02c;" x="327.895451" xlink:href="#m78382b83a8" y="106.514228"/>
     <use style="fill:#2ca02c;stroke:#2ca02c;" x="339.55653" xlink:href="#m78382b83a8" y="103.860848"/>
    </g>
   </g>
   <g id="line2d_86">
    <path clip-path="url(#p362d147719)" d="M -1 263.570881 
L 1.385228 255.149457 
L 13.046307 238.409297 
L 24.707387 221.669136 
L 36.368466 204.656081 
L 48.029546 200.43443 
L 59.690625 193.372983 
L 71.351704 188.604028 
L 83.012784 183.131284 
L 94.673863 173.301849 
L 106.334943 167.125595 
L 117.996022 158.169794 
L 129.657101 153.766555 
L 141.318181 147.470851 
L 152.97926 138.558681 
L 164.64034 125.270486 
L 176.301419 111.85102 
L 187.962498 98.887123 
L 199.623578 89.777637 
L 211.284657 80.561107 
L 222.945737 72.848156 
L 234.606816 67.859152 
L 246.267895 61.739849 
L 257.928975 57.76164 
L 269.590054 54.494257 
L 281.251133 50.180915 
L 292.912213 47.524289 
L 304.573292 44.622124 
L 316.234372 41.694206 
L 327.895451 39.255585 
L 339.55653 36.825304 
" style="fill:none;stroke:#d62728;stroke-linecap:square;stroke-width:1.5;"/>
    <g clip-path="url(#p362d147719)">
     <use style="fill:#d62728;stroke:#d62728;" x="-1" xlink:href="#m942b34027f" y="263.570881"/>
     <use style="fill:#d62728;stroke:#d62728;" x="1.385228" xlink:href="#m942b34027f" y="255.149457"/>
     <use style="fill:#d62728;stroke:#d62728;" x="13.046307" xlink:href="#m942b34027f" y="238.409297"/>
     <use style="fill:#d62728;stroke:#d62728;" x="24.707387" xlink:href="#m942b34027f" y="221.669136"/>
     <use style="fill:#d62728;stroke:#d62728;" x="36.368466" xlink:href="#m942b34027f" y="204.656081"/>
     <use style="fill:#d62728;stroke:#d62728;" x="48.029546" xlink:href="#m942b34027f" y="200.43443"/>
     <use style="fill:#d62728;stroke:#d62728;" x="59.690625" xlink:href="#m942b34027f" y="193.372983"/>
     <use style="fill:#d62728;stroke:#d62728;" x="71.351704" xlink:href="#m942b34027f" y="188.604028"/>
     <use style="fill:#d62728;stroke:#d62728;" x="83.012784" xlink:href="#m942b34027f" y="183.131284"/>
     <use style="fill:#d62728;stroke:#d62728;" x="94.673863" xlink:href="#m942b34027f" y="173.301849"/>
     <use style="fill:#d62728;stroke:#d62728;" x="106.334943" xlink:href="#m942b34027f" y="167.125595"/>
     <use style="fill:#d62728;stroke:#d62728;" x="117.996022" xlink:href="#m942b34027f" y="158.169794"/>
     <use style="fill:#d62728;stroke:#d62728;" x="129.657101" xlink:href="#m942b34027f" y="153.766555"/>
     <use style="fill:#d62728;stroke:#d62728;" x="141.318181" xlink:href="#m942b34027f" y="147.470851"/>
     <use style="fill:#d62728;stroke:#d62728;" x="152.97926" xlink:href="#m942b34027f" y="138.558681"/>
     <use style="fill:#d62728;stroke:#d62728;" x="164.64034" xlink:href="#m942b34027f" y="125.270486"/>
     <use style="fill:#d62728;stroke:#d62728;" x="176.301419" xlink:href="#m942b34027f" y="111.85102"/>
     <use style="fill:#d62728;stroke:#d62728;" x="187.962498" xlink:href="#m942b34027f" y="98.887123"/>
     <use style="fill:#d62728;stroke:#d62728;" x="199.623578" xlink:href="#m942b34027f" y="89.777637"/>
     <use style="fill:#d62728;stroke:#d62728;" x="211.284657" xlink:href="#m942b34027f" y="80.561107"/>
     <use style="fill:#d62728;stroke:#d62728;" x="222.945737" xlink:href="#m942b34027f" y="72.848156"/>
     <use style="fill:#d62728;stroke:#d62728;" x="234.606816" xlink:href="#m942b34027f" y="67.859152"/>
     <use style="fill:#d62728;stroke:#d62728;" x="246.267895" xlink:href="#m942b34027f" y="61.739849"/>
     <use style="fill:#d62728;stroke:#d62728;" x="257.928975" xlink:href="#m942b34027f" y="57.76164"/>
     <use style="fill:#d62728;stroke:#d62728;" x="269.590054" xlink:href="#m942b34027f" y="54.494257"/>
     <use style="fill:#d62728;stroke:#d62728;" x="281.251133" xlink:href="#m942b34027f" y="50.180915"/>
     <use style="fill:#d62728;stroke:#d62728;" x="292.912213" xlink:href="#m942b34027f" y="47.524289"/>
     <use style="fill:#d62728;stroke:#d62728;" x="304.573292" xlink:href="#m942b34027f" y="44.622124"/>
     <use style="fill:#d62728;stroke:#d62728;" x="316.234372" xlink:href="#m942b34027f" y="41.694206"/>
     <use style="fill:#d62728;stroke:#d62728;" x="327.895451" xlink:href="#m942b34027f" y="39.255585"/>
     <use style="fill:#d62728;stroke:#d62728;" x="339.55653" xlink:href="#m942b34027f" y="36.825304"/>
    </g>
   </g>
   <g id="line2d_87">
    <path clip-path="url(#p362d147719)" d="M 15.552436 273.789136 
L 24.707387 260.646669 
L 36.368466 260.646669 
L 48.029546 250.854303 
L 59.690625 236.21555 
L 71.351704 228.725015 
L 83.012784 218.401837 
L 94.673863 212.803609 
L 106.334943 199.647932 
L 117.996022 189.855566 
L 129.657101 183.395686 
L 141.318181 169.254908 
L 152.97926 159.099363 
L 164.64034 147.849924 
L 176.301419 134.733871 
L 187.962498 129.950295 
L 199.623578 120.302114 
L 211.284657 111.619482 
L 222.945737 102.055315 
L 234.606816 95.864422 
L 246.267895 91.505035 
L 257.928975 80.734242 
L 269.590054 74.707337 
L 281.251133 69.115998 
L 292.912213 64.645551 
L 304.573292 59.39611 
L 316.234372 56.576714 
L 327.895451 52.36824 
L 339.55653 48.995924 
" style="fill:none;stroke:#9467bd;stroke-linecap:square;stroke-width:1.5;"/>
    <g clip-path="url(#p362d147719)">
     <use style="fill:#9467bd;stroke:#9467bd;" x="1.385228" xlink:href="#md67a278a4b" y="294.12699"/>
     <use style="fill:#9467bd;stroke:#9467bd;" x="13.046307" xlink:href="#md67a278a4b" y="277.38683"/>
     <use style="fill:#9467bd;stroke:#9467bd;" x="24.707387" xlink:href="#md67a278a4b" y="260.646669"/>
     <use style="fill:#9467bd;stroke:#9467bd;" x="36.368466" xlink:href="#md67a278a4b" y="260.646669"/>
     <use style="fill:#9467bd;stroke:#9467bd;" x="48.029546" xlink:href="#md67a278a4b" y="250.854303"/>
     <use style="fill:#9467bd;stroke:#9467bd;" x="59.690625" xlink:href="#md67a278a4b" y="236.21555"/>
     <use style="fill:#9467bd;stroke:#9467bd;" x="71.351704" xlink:href="#md67a278a4b" y="228.725015"/>
     <use style="fill:#9467bd;stroke:#9467bd;" x="83.012784" xlink:href="#md67a278a4b" y="218.401837"/>
     <use style="fill:#9467bd;stroke:#9467bd;" x="94.673863" xlink:href="#md67a278a4b" y="212.803609"/>
     <use style="fill:#9467bd;stroke:#9467bd;" x="106.334943" xlink:href="#md67a278a4b" y="199.647932"/>
     <use style="fill:#9467bd;stroke:#9467bd;" x="117.996022" xlink:href="#md67a278a4b" y="189.855566"/>
     <use style="fill:#9467bd;stroke:#9467bd;" x="129.657101" xlink:href="#md67a278a4b" y="183.395686"/>
     <use style="fill:#9467bd;stroke:#9467bd;" x="141.318181" xlink:href="#md67a278a4b" y="169.254908"/>
     <use style="fill:#9467bd;stroke:#9467bd;" x="152.97926" xlink:href="#md67a278a4b" y="159.099363"/>
     <use style="fill:#9467bd;stroke:#9467bd;" x="164.64034" xlink:href="#md67a278a4b" y="147.849924"/>
     <use style="fill:#9467bd;stroke:#9467bd;" x="176.301419" xlink:href="#md67a278a4b" y="134.733871"/>
     <use style="fill:#9467bd;stroke:#9467bd;" x="187.962498" xlink:href="#md67a278a4b" y="129.950295"/>
     <use style="fill:#9467bd;stroke:#9467bd;" x="199.623578" xlink:href="#md67a278a4b" y="120.302114"/>
     <use style="fill:#9467bd;stroke:#9467bd;" x="211.284657" xlink:href="#md67a278a4b" y="111.619482"/>
     <use style="fill:#9467bd;stroke:#9467bd;" x="222.945737" xlink:href="#md67a278a4b" y="102.055315"/>
     <use style="fill:#9467bd;stroke:#9467bd;" x="234.606816" xlink:href="#md67a278a4b" y="95.864422"/>
     <use style="fill:#9467bd;stroke:#9467bd;" x="246.267895" xlink:href="#md67a278a4b" y="91.505035"/>
     <use style="fill:#9467bd;stroke:#9467bd;" x="257.928975" xlink:href="#md67a278a4b" y="80.734242"/>
     <use style="fill:#9467bd;stroke:#9467bd;" x="269.590054" xlink:href="#md67a278a4b" y="74.707337"/>
     <use style="fill:#9467bd;stroke:#9467bd;" x="281.251133" xlink:href="#md67a278a4b" y="69.115998"/>
     <use style="fill:#9467bd;stroke:#9467bd;" x="292.912213" xlink:href="#md67a278a4b" y="64.645551"/>
     <use style="fill:#9467bd;stroke:#9467bd;" x="304.573292" xlink:href="#md67a278a4b" y="59.39611"/>
     <use style="fill:#9467bd;stroke:#9467bd;" x="316.234372" xlink:href="#md67a278a4b" y="56.576714"/>
     <use style="fill:#9467bd;stroke:#9467bd;" x="327.895451" xlink:href="#md67a278a4b" y="52.36824"/>
     <use style="fill:#9467bd;stroke:#9467bd;" x="339.55653" xlink:href="#md67a278a4b" y="48.995924"/>
    </g>
   </g>
  </g>
 </g>
 <defs>
  <clipPath id="p362d147719">
   <rect height="217.44" width="334.8" x="59.690625" y="7.2"/>
  </clipPath>
 </defs>
</svg>
