<?xml version="1.0" encoding="utf-8" standalone="no"?>
<!DOCTYPE svg PUBLIC "-//W3C//DTD SVG 1.1//EN"
  "http://www.w3.org/Graphics/SVG/1.1/DTD/svg11.dtd">
<!-- Created with matplotlib (https://matplotlib.org/) -->
<svg height="287.207834pt" version="1.1" viewBox="0 0 404.86875 287.207834" width="404.86875pt" xmlns="http://www.w3.org/2000/svg" xmlns:xlink="http://www.w3.org/1999/xlink">
 <defs>
  <style type="text/css">
*{stroke-linecap:butt;stroke-linejoin:round;}
  </style>
 </defs>
 <g id="figure_1">
  <g id="patch_1">
   <path d="M 0 287.207834 
L 404.86875 287.207834 
L 404.86875 0 
L 0 0 
z
" style="fill:#ffffff;"/>
  </g>
  <g id="axes_1">
   <g id="patch_2">
    <path d="M 62.86875 239.758125 
L 397.66875 239.758125 
L 397.66875 22.318125 
L 62.86875 22.318125 
z
" style="fill:#ffffff;"/>
   </g>
   <g id="matplotlib.axis_1">
    <g id="xtick_1">
     <g id="line2d_1">
      <path clip-path="url(#pbd60b5c581)" d="M 62.86875 239.758125 
L 62.86875 22.318125 
" style="fill:none;stroke:#b0b0b0;stroke-linecap:square;stroke-opacity:0.8;stroke-width:0.8;"/>
     </g>
     <g id="line2d_2">
      <defs>
       <path d="M 0 0 
L 0 3.5 
" id="m88f07c3077" style="stroke:#000000;stroke-width:0.8;"/>
      </defs>
      <g>
       <use style="stroke:#000000;stroke-width:0.8;" x="62.86875" xlink:href="#m88f07c3077" y="239.758125"/>
      </g>
     </g>
     <g id="text_1">
      <!-- Mar. -->
      <defs>
       <path d="M 9.8125 72.90625 
L 24.515625 72.90625 
L 43.109375 23.296875 
L 61.8125 72.90625 
L 76.515625 72.90625 
L 76.515625 0 
L 66.890625 0 
L 66.890625 64.015625 
L 48.09375 14.015625 
L 38.1875 14.015625 
L 19.390625 64.015625 
L 19.390625 0 
L 9.8125 0 
z
" id="DejaVuSans-77"/>
       <path d="M 34.28125 27.484375 
Q 23.390625 27.484375 19.1875 25 
Q 14.984375 22.515625 14.984375 16.5 
Q 14.984375 11.71875 18.140625 8.90625 
Q 21.296875 6.109375 26.703125 6.109375 
Q 34.1875 6.109375 38.703125 11.40625 
Q 43.21875 16.703125 43.21875 25.484375 
L 43.21875 27.484375 
z
M 52.203125 31.203125 
L 52.203125 0 
L 43.21875 0 
L 43.21875 8.296875 
Q 40.140625 3.328125 35.546875 0.953125 
Q 30.953125 -1.421875 24.3125 -1.421875 
Q 15.921875 -1.421875 10.953125 3.296875 
Q 6 8.015625 6 15.921875 
Q 6 25.140625 12.171875 29.828125 
Q 18.359375 34.515625 30.609375 34.515625 
L 43.21875 34.515625 
L 43.21875 35.40625 
Q 43.21875 41.609375 39.140625 45 
Q 35.0625 48.390625 27.6875 48.390625 
Q 23 48.390625 18.546875 47.265625 
Q 14.109375 46.140625 10.015625 43.890625 
L 10.015625 52.203125 
Q 14.9375 54.109375 19.578125 55.046875 
Q 24.21875 56 28.609375 56 
Q 40.484375 56 46.34375 49.84375 
Q 52.203125 43.703125 52.203125 31.203125 
z
" id="DejaVuSans-97"/>
       <path d="M 41.109375 46.296875 
Q 39.59375 47.171875 37.8125 47.578125 
Q 36.03125 48 33.890625 48 
Q 26.265625 48 22.1875 43.046875 
Q 18.109375 38.09375 18.109375 28.8125 
L 18.109375 0 
L 9.078125 0 
L 9.078125 54.6875 
L 18.109375 54.6875 
L 18.109375 46.1875 
Q 20.953125 51.171875 25.484375 53.578125 
Q 30.03125 56 36.53125 56 
Q 37.453125 56 38.578125 55.875 
Q 39.703125 55.765625 41.0625 55.515625 
z
" id="DejaVuSans-114"/>
       <path d="M 10.6875 12.40625 
L 21 12.40625 
L 21 0 
L 10.6875 0 
z
" id="DejaVuSans-46"/>
      </defs>
      <g transform="translate(51.853125 254.356562)scale(0.1 -0.1)">
       <use xlink:href="#DejaVuSans-77"/>
       <use x="86.279297" xlink:href="#DejaVuSans-97"/>
       <use x="147.558594" xlink:href="#DejaVuSans-114"/>
       <use x="188.53125" xlink:href="#DejaVuSans-46"/>
      </g>
      <!-- 09 -->
      <defs>
       <path d="M 31.78125 66.40625 
Q 24.171875 66.40625 20.328125 58.90625 
Q 16.5 51.421875 16.5 36.375 
Q 16.5 21.390625 20.328125 13.890625 
Q 24.171875 6.390625 31.78125 6.390625 
Q 39.453125 6.390625 43.28125 13.890625 
Q 47.125 21.390625 47.125 36.375 
Q 47.125 51.421875 43.28125 58.90625 
Q 39.453125 66.40625 31.78125 66.40625 
z
M 31.78125 74.21875 
Q 44.046875 74.21875 50.515625 64.515625 
Q 56.984375 54.828125 56.984375 36.375 
Q 56.984375 17.96875 50.515625 8.265625 
Q 44.046875 -1.421875 31.78125 -1.421875 
Q 19.53125 -1.421875 13.0625 8.265625 
Q 6.59375 17.96875 6.59375 36.375 
Q 6.59375 54.828125 13.0625 64.515625 
Q 19.53125 74.21875 31.78125 74.21875 
z
" id="DejaVuSans-48"/>
       <path d="M 10.984375 1.515625 
L 10.984375 10.5 
Q 14.703125 8.734375 18.5 7.8125 
Q 22.3125 6.890625 25.984375 6.890625 
Q 35.75 6.890625 40.890625 13.453125 
Q 46.046875 20.015625 46.78125 33.40625 
Q 43.953125 29.203125 39.59375 26.953125 
Q 35.25 24.703125 29.984375 24.703125 
Q 19.046875 24.703125 12.671875 31.3125 
Q 6.296875 37.9375 6.296875 49.421875 
Q 6.296875 60.640625 12.9375 67.421875 
Q 19.578125 74.21875 30.609375 74.21875 
Q 43.265625 74.21875 49.921875 64.515625 
Q 56.59375 54.828125 56.59375 36.375 
Q 56.59375 19.140625 48.40625 8.859375 
Q 40.234375 -1.421875 26.421875 -1.421875 
Q 22.703125 -1.421875 18.890625 -0.6875 
Q 15.09375 0.046875 10.984375 1.515625 
z
M 30.609375 32.421875 
Q 37.25 32.421875 41.125 36.953125 
Q 45.015625 41.5 45.015625 49.421875 
Q 45.015625 57.28125 41.125 61.84375 
Q 37.25 66.40625 30.609375 66.40625 
Q 23.96875 66.40625 20.09375 61.84375 
Q 16.21875 57.28125 16.21875 49.421875 
Q 16.21875 41.5 20.09375 36.953125 
Q 23.96875 32.421875 30.609375 32.421875 
z
" id="DejaVuSans-57"/>
      </defs>
      <g transform="translate(56.50625 265.554375)scale(0.1 -0.1)">
       <use xlink:href="#DejaVuSans-48"/>
       <use x="63.623047" xlink:href="#DejaVuSans-57"/>
      </g>
     </g>
    </g>
    <g id="xtick_2">
     <g id="line2d_3">
      <path clip-path="url(#pbd60b5c581)" d="M 107.785638 239.758125 
L 107.785638 22.318125 
" style="fill:none;stroke:#b0b0b0;stroke-linecap:square;stroke-opacity:0.8;stroke-width:0.8;"/>
     </g>
     <g id="line2d_4">
      <g>
       <use style="stroke:#000000;stroke-width:0.8;" x="107.785638" xlink:href="#m88f07c3077" y="239.758125"/>
      </g>
     </g>
     <g id="text_2">
      <!-- Mar. -->
      <g transform="translate(96.770013 254.356562)scale(0.1 -0.1)">
       <use xlink:href="#DejaVuSans-77"/>
       <use x="86.279297" xlink:href="#DejaVuSans-97"/>
       <use x="147.558594" xlink:href="#DejaVuSans-114"/>
       <use x="188.53125" xlink:href="#DejaVuSans-46"/>
      </g>
      <!-- 13 -->
      <defs>
       <path d="M 12.40625 8.296875 
L 28.515625 8.296875 
L 28.515625 63.921875 
L 10.984375 60.40625 
L 10.984375 69.390625 
L 28.421875 72.90625 
L 38.28125 72.90625 
L 38.28125 8.296875 
L 54.390625 8.296875 
L 54.390625 0 
L 12.40625 0 
z
" id="DejaVuSans-49"/>
       <path d="M 40.578125 39.3125 
Q 47.65625 37.796875 51.625 33 
Q 55.609375 28.21875 55.609375 21.1875 
Q 55.609375 10.40625 48.1875 4.484375 
Q 40.765625 -1.421875 27.09375 -1.421875 
Q 22.515625 -1.421875 17.65625 -0.515625 
Q 12.796875 0.390625 7.625 2.203125 
L 7.625 11.71875 
Q 11.71875 9.328125 16.59375 8.109375 
Q 21.484375 6.890625 26.8125 6.890625 
Q 36.078125 6.890625 40.9375 10.546875 
Q 45.796875 14.203125 45.796875 21.1875 
Q 45.796875 27.640625 41.28125 31.265625 
Q 36.765625 34.90625 28.71875 34.90625 
L 20.21875 34.90625 
L 20.21875 43.015625 
L 29.109375 43.015625 
Q 36.375 43.015625 40.234375 45.921875 
Q 44.09375 48.828125 44.09375 54.296875 
Q 44.09375 59.90625 40.109375 62.90625 
Q 36.140625 65.921875 28.71875 65.921875 
Q 24.65625 65.921875 20.015625 65.03125 
Q 15.375 64.15625 9.8125 62.3125 
L 9.8125 71.09375 
Q 15.4375 72.65625 20.34375 73.4375 
Q 25.25 74.21875 29.59375 74.21875 
Q 40.828125 74.21875 47.359375 69.109375 
Q 53.90625 64.015625 53.90625 55.328125 
Q 53.90625 49.265625 50.4375 45.09375 
Q 46.96875 40.921875 40.578125 39.3125 
z
" id="DejaVuSans-51"/>
      </defs>
      <g transform="translate(101.423138 265.554375)scale(0.1 -0.1)">
       <use xlink:href="#DejaVuSans-49"/>
       <use x="63.623047" xlink:href="#DejaVuSans-51"/>
      </g>
     </g>
    </g>
    <g id="xtick_3">
     <g id="line2d_5">
      <path clip-path="url(#pbd60b5c581)" d="M 152.702527 239.758125 
L 152.702527 22.318125 
" style="fill:none;stroke:#b0b0b0;stroke-linecap:square;stroke-opacity:0.8;stroke-width:0.8;"/>
     </g>
     <g id="line2d_6">
      <g>
       <use style="stroke:#000000;stroke-width:0.8;" x="152.702527" xlink:href="#m88f07c3077" y="239.758125"/>
      </g>
     </g>
     <g id="text_3">
      <!-- Mar. -->
      <g transform="translate(141.686902 254.356562)scale(0.1 -0.1)">
       <use xlink:href="#DejaVuSans-77"/>
       <use x="86.279297" xlink:href="#DejaVuSans-97"/>
       <use x="147.558594" xlink:href="#DejaVuSans-114"/>
       <use x="188.53125" xlink:href="#DejaVuSans-46"/>
      </g>
      <!-- 17 -->
      <defs>
       <path d="M 8.203125 72.90625 
L 55.078125 72.90625 
L 55.078125 68.703125 
L 28.609375 0 
L 18.3125 0 
L 43.21875 64.59375 
L 8.203125 64.59375 
z
" id="DejaVuSans-55"/>
      </defs>
      <g transform="translate(146.340027 265.554375)scale(0.1 -0.1)">
       <use xlink:href="#DejaVuSans-49"/>
       <use x="63.623047" xlink:href="#DejaVuSans-55"/>
      </g>
     </g>
    </g>
    <g id="xtick_4">
     <g id="line2d_7">
      <path clip-path="url(#pbd60b5c581)" d="M 197.619415 239.758125 
L 197.619415 22.318125 
" style="fill:none;stroke:#b0b0b0;stroke-linecap:square;stroke-opacity:0.8;stroke-width:0.8;"/>
     </g>
     <g id="line2d_8">
      <g>
       <use style="stroke:#000000;stroke-width:0.8;" x="197.619415" xlink:href="#m88f07c3077" y="239.758125"/>
      </g>
     </g>
     <g id="text_4">
      <!-- Mar. -->
      <g transform="translate(186.60379 254.356562)scale(0.1 -0.1)">
       <use xlink:href="#DejaVuSans-77"/>
       <use x="86.279297" xlink:href="#DejaVuSans-97"/>
       <use x="147.558594" xlink:href="#DejaVuSans-114"/>
       <use x="188.53125" xlink:href="#DejaVuSans-46"/>
      </g>
      <!-- 21 -->
      <defs>
       <path d="M 19.1875 8.296875 
L 53.609375 8.296875 
L 53.609375 0 
L 7.328125 0 
L 7.328125 8.296875 
Q 12.9375 14.109375 22.625 23.890625 
Q 32.328125 33.6875 34.8125 36.53125 
Q 39.546875 41.84375 41.421875 45.53125 
Q 43.3125 49.21875 43.3125 52.78125 
Q 43.3125 58.59375 39.234375 62.25 
Q 35.15625 65.921875 28.609375 65.921875 
Q 23.96875 65.921875 18.8125 64.3125 
Q 13.671875 62.703125 7.8125 59.421875 
L 7.8125 69.390625 
Q 13.765625 71.78125 18.9375 73 
Q 24.125 74.21875 28.421875 74.21875 
Q 39.75 74.21875 46.484375 68.546875 
Q 53.21875 62.890625 53.21875 53.421875 
Q 53.21875 48.921875 51.53125 44.890625 
Q 49.859375 40.875 45.40625 35.40625 
Q 44.1875 33.984375 37.640625 27.21875 
Q 31.109375 20.453125 19.1875 8.296875 
z
" id="DejaVuSans-50"/>
      </defs>
      <g transform="translate(191.256915 265.554375)scale(0.1 -0.1)">
       <use xlink:href="#DejaVuSans-50"/>
       <use x="63.623047" xlink:href="#DejaVuSans-49"/>
      </g>
     </g>
    </g>
    <g id="xtick_5">
     <g id="line2d_9">
      <path clip-path="url(#pbd60b5c581)" d="M 242.536303 239.758125 
L 242.536303 22.318125 
" style="fill:none;stroke:#b0b0b0;stroke-linecap:square;stroke-opacity:0.8;stroke-width:0.8;"/>
     </g>
     <g id="line2d_10">
      <g>
       <use style="stroke:#000000;stroke-width:0.8;" x="242.536303" xlink:href="#m88f07c3077" y="239.758125"/>
      </g>
     </g>
     <g id="text_5">
      <!-- Mar. -->
      <g transform="translate(231.520678 254.356562)scale(0.1 -0.1)">
       <use xlink:href="#DejaVuSans-77"/>
       <use x="86.279297" xlink:href="#DejaVuSans-97"/>
       <use x="147.558594" xlink:href="#DejaVuSans-114"/>
       <use x="188.53125" xlink:href="#DejaVuSans-46"/>
      </g>
      <!-- 25 -->
      <defs>
       <path d="M 10.796875 72.90625 
L 49.515625 72.90625 
L 49.515625 64.59375 
L 19.828125 64.59375 
L 19.828125 46.734375 
Q 21.96875 47.46875 24.109375 47.828125 
Q 26.265625 48.1875 28.421875 48.1875 
Q 40.625 48.1875 47.75 41.5 
Q 54.890625 34.8125 54.890625 23.390625 
Q 54.890625 11.625 47.5625 5.09375 
Q 40.234375 -1.421875 26.90625 -1.421875 
Q 22.3125 -1.421875 17.546875 -0.640625 
Q 12.796875 0.140625 7.71875 1.703125 
L 7.71875 11.625 
Q 12.109375 9.234375 16.796875 8.0625 
Q 21.484375 6.890625 26.703125 6.890625 
Q 35.15625 6.890625 40.078125 11.328125 
Q 45.015625 15.765625 45.015625 23.390625 
Q 45.015625 31 40.078125 35.4375 
Q 35.15625 39.890625 26.703125 39.890625 
Q 22.75 39.890625 18.8125 39.015625 
Q 14.890625 38.140625 10.796875 36.28125 
z
" id="DejaVuSans-53"/>
      </defs>
      <g transform="translate(236.173803 265.554375)scale(0.1 -0.1)">
       <use xlink:href="#DejaVuSans-50"/>
       <use x="63.623047" xlink:href="#DejaVuSans-53"/>
      </g>
     </g>
    </g>
    <g id="xtick_6">
     <g id="line2d_11">
      <path clip-path="url(#pbd60b5c581)" d="M 287.453192 239.758125 
L 287.453192 22.318125 
" style="fill:none;stroke:#b0b0b0;stroke-linecap:square;stroke-opacity:0.8;stroke-width:0.8;"/>
     </g>
     <g id="line2d_12">
      <g>
       <use style="stroke:#000000;stroke-width:0.8;" x="287.453192" xlink:href="#m88f07c3077" y="239.758125"/>
      </g>
     </g>
     <g id="text_6">
      <!-- Mar. -->
      <g transform="translate(276.437567 254.356562)scale(0.1 -0.1)">
       <use xlink:href="#DejaVuSans-77"/>
       <use x="86.279297" xlink:href="#DejaVuSans-97"/>
       <use x="147.558594" xlink:href="#DejaVuSans-114"/>
       <use x="188.53125" xlink:href="#DejaVuSans-46"/>
      </g>
      <!-- 29 -->
      <g transform="translate(281.090692 265.554375)scale(0.1 -0.1)">
       <use xlink:href="#DejaVuSans-50"/>
       <use x="63.623047" xlink:href="#DejaVuSans-57"/>
      </g>
     </g>
    </g>
    <g id="xtick_7">
     <g id="line2d_13">
      <path clip-path="url(#pbd60b5c581)" d="M 321.140858 239.758125 
L 321.140858 22.318125 
" style="fill:none;stroke:#b0b0b0;stroke-linecap:square;stroke-opacity:0.8;stroke-width:0.8;"/>
     </g>
     <g id="line2d_14">
      <g>
       <use style="stroke:#000000;stroke-width:0.8;" x="321.140858" xlink:href="#m88f07c3077" y="239.758125"/>
      </g>
     </g>
     <g id="text_7">
      <!-- Apr. -->
      <defs>
       <path d="M 34.1875 63.1875 
L 20.796875 26.90625 
L 47.609375 26.90625 
z
M 28.609375 72.90625 
L 39.796875 72.90625 
L 67.578125 0 
L 57.328125 0 
L 50.6875 18.703125 
L 17.828125 18.703125 
L 11.1875 0 
L 0.78125 0 
z
" id="DejaVuSans-65"/>
       <path d="M 18.109375 8.203125 
L 18.109375 -20.796875 
L 9.078125 -20.796875 
L 9.078125 54.6875 
L 18.109375 54.6875 
L 18.109375 46.390625 
Q 20.953125 51.265625 25.265625 53.625 
Q 29.59375 56 35.59375 56 
Q 45.5625 56 51.78125 48.09375 
Q 58.015625 40.1875 58.015625 27.296875 
Q 58.015625 14.40625 51.78125 6.484375 
Q 45.5625 -1.421875 35.59375 -1.421875 
Q 29.59375 -1.421875 25.265625 0.953125 
Q 20.953125 3.328125 18.109375 8.203125 
z
M 48.6875 27.296875 
Q 48.6875 37.203125 44.609375 42.84375 
Q 40.53125 48.484375 33.40625 48.484375 
Q 26.265625 48.484375 22.1875 42.84375 
Q 18.109375 37.203125 18.109375 27.296875 
Q 18.109375 17.390625 22.1875 11.75 
Q 26.265625 6.109375 33.40625 6.109375 
Q 40.53125 6.109375 44.609375 11.75 
Q 48.6875 17.390625 48.6875 27.296875 
z
" id="DejaVuSans-112"/>
      </defs>
      <g transform="translate(310.908827 254.356562)scale(0.1 -0.1)">
       <use xlink:href="#DejaVuSans-65"/>
       <use x="68.408203" xlink:href="#DejaVuSans-112"/>
       <use x="131.884766" xlink:href="#DejaVuSans-114"/>
       <use x="172.857422" xlink:href="#DejaVuSans-46"/>
      </g>
      <!-- 01 -->
      <g transform="translate(314.778358 265.554375)scale(0.1 -0.1)">
       <use xlink:href="#DejaVuSans-48"/>
       <use x="63.623047" xlink:href="#DejaVuSans-49"/>
      </g>
     </g>
    </g>
    <g id="xtick_8">
     <g id="line2d_15">
      <path clip-path="url(#pbd60b5c581)" d="M 366.057746 239.758125 
L 366.057746 22.318125 
" style="fill:none;stroke:#b0b0b0;stroke-linecap:square;stroke-opacity:0.8;stroke-width:0.8;"/>
     </g>
     <g id="line2d_16">
      <g>
       <use style="stroke:#000000;stroke-width:0.8;" x="366.057746" xlink:href="#m88f07c3077" y="239.758125"/>
      </g>
     </g>
     <g id="text_8">
      <!-- Apr. -->
      <g transform="translate(355.825715 254.356562)scale(0.1 -0.1)">
       <use xlink:href="#DejaVuSans-65"/>
       <use x="68.408203" xlink:href="#DejaVuSans-112"/>
       <use x="131.884766" xlink:href="#DejaVuSans-114"/>
       <use x="172.857422" xlink:href="#DejaVuSans-46"/>
      </g>
      <!-- 05 -->
      <g transform="translate(359.695246 265.554375)scale(0.1 -0.1)">
       <use xlink:href="#DejaVuSans-48"/>
       <use x="63.623047" xlink:href="#DejaVuSans-53"/>
      </g>
     </g>
    </g>
   </g>
   <g id="matplotlib.axis_2">
    <g id="ytick_1">
     <g id="line2d_17">
      <path clip-path="url(#pbd60b5c581)" d="M 62.86875 239.758125 
L 397.66875 239.758125 
" style="fill:none;stroke:#b0b0b0;stroke-linecap:square;stroke-opacity:0.8;stroke-width:0.8;"/>
     </g>
     <g id="line2d_18">
      <defs>
       <path d="M 0 0 
L -3.5 0 
" id="m3b9c09bbc0" style="stroke:#000000;stroke-width:0.8;"/>
      </defs>
      <g>
       <use style="stroke:#000000;stroke-width:0.8;" x="62.86875" xlink:href="#m3b9c09bbc0" y="239.758125"/>
      </g>
     </g>
     <g id="text_9">
      <!-- 2 -->
      <g transform="translate(49.50625 243.557344)scale(0.1 -0.1)">
       <use xlink:href="#DejaVuSans-50"/>
      </g>
     </g>
    </g>
    <g id="ytick_2">
     <g id="line2d_19">
      <path clip-path="url(#pbd60b5c581)" d="M 62.86875 218.027037 
L 397.66875 218.027037 
" style="fill:none;stroke:#b0b0b0;stroke-linecap:square;stroke-opacity:0.8;stroke-width:0.8;"/>
     </g>
     <g id="line2d_20">
      <g>
       <use style="stroke:#000000;stroke-width:0.8;" x="62.86875" xlink:href="#m3b9c09bbc0" y="218.027037"/>
      </g>
     </g>
     <g id="text_10">
      <!-- 5 -->
      <g transform="translate(49.50625 221.826256)scale(0.1 -0.1)">
       <use xlink:href="#DejaVuSans-53"/>
      </g>
     </g>
    </g>
    <g id="ytick_3">
     <g id="line2d_21">
      <path clip-path="url(#pbd60b5c581)" d="M 62.86875 201.588104 
L 397.66875 201.588104 
" style="fill:none;stroke:#b0b0b0;stroke-linecap:square;stroke-opacity:0.8;stroke-width:0.8;"/>
     </g>
     <g id="line2d_22">
      <g>
       <use style="stroke:#000000;stroke-width:0.8;" x="62.86875" xlink:href="#m3b9c09bbc0" y="201.588104"/>
      </g>
     </g>
     <g id="text_11">
      <!-- 10 -->
      <g transform="translate(43.14375 205.387322)scale(0.1 -0.1)">
       <use xlink:href="#DejaVuSans-49"/>
       <use x="63.623047" xlink:href="#DejaVuSans-48"/>
      </g>
     </g>
    </g>
    <g id="ytick_4">
     <g id="line2d_23">
      <path clip-path="url(#pbd60b5c581)" d="M 62.86875 185.14917 
L 397.66875 185.14917 
" style="fill:none;stroke:#b0b0b0;stroke-linecap:square;stroke-opacity:0.8;stroke-width:0.8;"/>
     </g>
     <g id="line2d_24">
      <g>
       <use style="stroke:#000000;stroke-width:0.8;" x="62.86875" xlink:href="#m3b9c09bbc0" y="185.14917"/>
      </g>
     </g>
     <g id="text_12">
      <!-- 20 -->
      <g transform="translate(43.14375 188.948389)scale(0.1 -0.1)">
       <use xlink:href="#DejaVuSans-50"/>
       <use x="63.623047" xlink:href="#DejaVuSans-48"/>
      </g>
     </g>
    </g>
    <g id="ytick_5">
     <g id="line2d_25">
      <path clip-path="url(#pbd60b5c581)" d="M 62.86875 163.418082 
L 397.66875 163.418082 
" style="fill:none;stroke:#b0b0b0;stroke-linecap:square;stroke-opacity:0.8;stroke-width:0.8;"/>
     </g>
     <g id="line2d_26">
      <g>
       <use style="stroke:#000000;stroke-width:0.8;" x="62.86875" xlink:href="#m3b9c09bbc0" y="163.418082"/>
      </g>
     </g>
     <g id="text_13">
      <!-- 50 -->
      <g transform="translate(43.14375 167.217301)scale(0.1 -0.1)">
       <use xlink:href="#DejaVuSans-53"/>
       <use x="63.623047" xlink:href="#DejaVuSans-48"/>
      </g>
     </g>
    </g>
    <g id="ytick_6">
     <g id="line2d_27">
      <path clip-path="url(#pbd60b5c581)" d="M 62.86875 146.979149 
L 397.66875 146.979149 
" style="fill:none;stroke:#b0b0b0;stroke-linecap:square;stroke-opacity:0.8;stroke-width:0.8;"/>
     </g>
     <g id="line2d_28">
      <g>
       <use style="stroke:#000000;stroke-width:0.8;" x="62.86875" xlink:href="#m3b9c09bbc0" y="146.979149"/>
      </g>
     </g>
     <g id="text_14">
      <!-- 100 -->
      <g transform="translate(36.78125 150.778367)scale(0.1 -0.1)">
       <use xlink:href="#DejaVuSans-49"/>
       <use x="63.623047" xlink:href="#DejaVuSans-48"/>
       <use x="127.246094" xlink:href="#DejaVuSans-48"/>
      </g>
     </g>
    </g>
    <g id="ytick_7">
     <g id="line2d_29">
      <path clip-path="url(#pbd60b5c581)" d="M 62.86875 130.540215 
L 397.66875 130.540215 
" style="fill:none;stroke:#b0b0b0;stroke-linecap:square;stroke-opacity:0.8;stroke-width:0.8;"/>
     </g>
     <g id="line2d_30">
      <g>
       <use style="stroke:#000000;stroke-width:0.8;" x="62.86875" xlink:href="#m3b9c09bbc0" y="130.540215"/>
      </g>
     </g>
     <g id="text_15">
      <!-- 200 -->
      <g transform="translate(36.78125 134.339434)scale(0.1 -0.1)">
       <use xlink:href="#DejaVuSans-50"/>
       <use x="63.623047" xlink:href="#DejaVuSans-48"/>
       <use x="127.246094" xlink:href="#DejaVuSans-48"/>
      </g>
     </g>
    </g>
    <g id="ytick_8">
     <g id="line2d_31">
      <path clip-path="url(#pbd60b5c581)" d="M 62.86875 108.809127 
L 397.66875 108.809127 
" style="fill:none;stroke:#b0b0b0;stroke-linecap:square;stroke-opacity:0.8;stroke-width:0.8;"/>
     </g>
     <g id="line2d_32">
      <g>
       <use style="stroke:#000000;stroke-width:0.8;" x="62.86875" xlink:href="#m3b9c09bbc0" y="108.809127"/>
      </g>
     </g>
     <g id="text_16">
      <!-- 500 -->
      <g transform="translate(36.78125 112.608346)scale(0.1 -0.1)">
       <use xlink:href="#DejaVuSans-53"/>
       <use x="63.623047" xlink:href="#DejaVuSans-48"/>
       <use x="127.246094" xlink:href="#DejaVuSans-48"/>
      </g>
     </g>
    </g>
    <g id="ytick_9">
     <g id="line2d_33">
      <path clip-path="url(#pbd60b5c581)" d="M 62.86875 92.370194 
L 397.66875 92.370194 
" style="fill:none;stroke:#b0b0b0;stroke-linecap:square;stroke-opacity:0.8;stroke-width:0.8;"/>
     </g>
     <g id="line2d_34">
      <g>
       <use style="stroke:#000000;stroke-width:0.8;" x="62.86875" xlink:href="#m3b9c09bbc0" y="92.370194"/>
      </g>
     </g>
     <g id="text_17">
      <!-- 1,000 -->
      <defs>
       <path d="M 11.71875 12.40625 
L 22.015625 12.40625 
L 22.015625 4 
L 14.015625 -11.625 
L 7.71875 -11.625 
L 11.71875 4 
z
" id="DejaVuSans-44"/>
      </defs>
      <g transform="translate(27.240625 96.169412)scale(0.1 -0.1)">
       <use xlink:href="#DejaVuSans-49"/>
       <use x="63.623047" xlink:href="#DejaVuSans-44"/>
       <use x="95.410156" xlink:href="#DejaVuSans-48"/>
       <use x="159.033203" xlink:href="#DejaVuSans-48"/>
       <use x="222.65625" xlink:href="#DejaVuSans-48"/>
      </g>
     </g>
    </g>
    <g id="ytick_10">
     <g id="line2d_35">
      <path clip-path="url(#pbd60b5c581)" d="M 62.86875 75.93126 
L 397.66875 75.93126 
" style="fill:none;stroke:#b0b0b0;stroke-linecap:square;stroke-opacity:0.8;stroke-width:0.8;"/>
     </g>
     <g id="line2d_36">
      <g>
       <use style="stroke:#000000;stroke-width:0.8;" x="62.86875" xlink:href="#m3b9c09bbc0" y="75.93126"/>
      </g>
     </g>
     <g id="text_18">
      <!-- 2,000 -->
      <g transform="translate(27.240625 79.730479)scale(0.1 -0.1)">
       <use xlink:href="#DejaVuSans-50"/>
       <use x="63.623047" xlink:href="#DejaVuSans-44"/>
       <use x="95.410156" xlink:href="#DejaVuSans-48"/>
       <use x="159.033203" xlink:href="#DejaVuSans-48"/>
       <use x="222.65625" xlink:href="#DejaVuSans-48"/>
      </g>
     </g>
    </g>
    <g id="ytick_11">
     <g id="line2d_37">
      <path clip-path="url(#pbd60b5c581)" d="M 62.86875 54.200172 
L 397.66875 54.200172 
" style="fill:none;stroke:#b0b0b0;stroke-linecap:square;stroke-opacity:0.8;stroke-width:0.8;"/>
     </g>
     <g id="line2d_38">
      <g>
       <use style="stroke:#000000;stroke-width:0.8;" x="62.86875" xlink:href="#m3b9c09bbc0" y="54.200172"/>
      </g>
     </g>
     <g id="text_19">
      <!-- 5,000 -->
      <g transform="translate(27.240625 57.999391)scale(0.1 -0.1)">
       <use xlink:href="#DejaVuSans-53"/>
       <use x="63.623047" xlink:href="#DejaVuSans-44"/>
       <use x="95.410156" xlink:href="#DejaVuSans-48"/>
       <use x="159.033203" xlink:href="#DejaVuSans-48"/>
       <use x="222.65625" xlink:href="#DejaVuSans-48"/>
      </g>
     </g>
    </g>
    <g id="ytick_12">
     <g id="line2d_39">
      <path clip-path="url(#pbd60b5c581)" d="M 62.86875 37.761239 
L 397.66875 37.761239 
" style="fill:none;stroke:#b0b0b0;stroke-linecap:square;stroke-opacity:0.8;stroke-width:0.8;"/>
     </g>
     <g id="line2d_40">
      <g>
       <use style="stroke:#000000;stroke-width:0.8;" x="62.86875" xlink:href="#m3b9c09bbc0" y="37.761239"/>
      </g>
     </g>
     <g id="text_20">
      <!-- 10,000 -->
      <g transform="translate(20.878125 41.560458)scale(0.1 -0.1)">
       <use xlink:href="#DejaVuSans-49"/>
       <use x="63.623047" xlink:href="#DejaVuSans-48"/>
       <use x="127.246094" xlink:href="#DejaVuSans-44"/>
       <use x="159.033203" xlink:href="#DejaVuSans-48"/>
       <use x="222.65625" xlink:href="#DejaVuSans-48"/>
       <use x="286.279297" xlink:href="#DejaVuSans-48"/>
      </g>
     </g>
    </g>
    <g id="ytick_13">
     <g id="line2d_41">
      <defs>
       <path d="M 0 0 
L -2 0 
" id="m23619947cb" style="stroke:#000000;stroke-width:0.6;"/>
      </defs>
      <g>
       <use style="stroke:#000000;stroke-width:0.6;" x="62.86875" xlink:href="#m23619947cb" y="230.141965"/>
      </g>
     </g>
    </g>
    <g id="ytick_14">
     <g id="line2d_42">
      <g>
       <use style="stroke:#000000;stroke-width:0.6;" x="62.86875" xlink:href="#m23619947cb" y="223.319192"/>
      </g>
     </g>
    </g>
    <g id="ytick_15">
     <g id="line2d_43">
      <g>
       <use style="stroke:#000000;stroke-width:0.6;" x="62.86875" xlink:href="#m23619947cb" y="213.703032"/>
      </g>
     </g>
    </g>
    <g id="ytick_16">
     <g id="line2d_44">
      <g>
       <use style="stroke:#000000;stroke-width:0.6;" x="62.86875" xlink:href="#m23619947cb" y="210.047138"/>
      </g>
     </g>
    </g>
    <g id="ytick_17">
     <g id="line2d_45">
      <g>
       <use style="stroke:#000000;stroke-width:0.6;" x="62.86875" xlink:href="#m23619947cb" y="206.880258"/>
      </g>
     </g>
    </g>
    <g id="ytick_18">
     <g id="line2d_46">
      <g>
       <use style="stroke:#000000;stroke-width:0.6;" x="62.86875" xlink:href="#m23619947cb" y="204.086872"/>
      </g>
     </g>
    </g>
    <g id="ytick_19">
     <g id="line2d_47">
      <g>
       <use style="stroke:#000000;stroke-width:0.6;" x="62.86875" xlink:href="#m23619947cb" y="175.53301"/>
      </g>
     </g>
    </g>
    <g id="ytick_20">
     <g id="line2d_48">
      <g>
       <use style="stroke:#000000;stroke-width:0.6;" x="62.86875" xlink:href="#m23619947cb" y="168.710237"/>
      </g>
     </g>
    </g>
    <g id="ytick_21">
     <g id="line2d_49">
      <g>
       <use style="stroke:#000000;stroke-width:0.6;" x="62.86875" xlink:href="#m23619947cb" y="159.094077"/>
      </g>
     </g>
    </g>
    <g id="ytick_22">
     <g id="line2d_50">
      <g>
       <use style="stroke:#000000;stroke-width:0.6;" x="62.86875" xlink:href="#m23619947cb" y="155.438183"/>
      </g>
     </g>
    </g>
    <g id="ytick_23">
     <g id="line2d_51">
      <g>
       <use style="stroke:#000000;stroke-width:0.6;" x="62.86875" xlink:href="#m23619947cb" y="152.271303"/>
      </g>
     </g>
    </g>
    <g id="ytick_24">
     <g id="line2d_52">
      <g>
       <use style="stroke:#000000;stroke-width:0.6;" x="62.86875" xlink:href="#m23619947cb" y="149.477917"/>
      </g>
     </g>
    </g>
    <g id="ytick_25">
     <g id="line2d_53">
      <g>
       <use style="stroke:#000000;stroke-width:0.6;" x="62.86875" xlink:href="#m23619947cb" y="120.924056"/>
      </g>
     </g>
    </g>
    <g id="ytick_26">
     <g id="line2d_54">
      <g>
       <use style="stroke:#000000;stroke-width:0.6;" x="62.86875" xlink:href="#m23619947cb" y="114.101282"/>
      </g>
     </g>
    </g>
    <g id="ytick_27">
     <g id="line2d_55">
      <g>
       <use style="stroke:#000000;stroke-width:0.6;" x="62.86875" xlink:href="#m23619947cb" y="104.485122"/>
      </g>
     </g>
    </g>
    <g id="ytick_28">
     <g id="line2d_56">
      <g>
       <use style="stroke:#000000;stroke-width:0.6;" x="62.86875" xlink:href="#m23619947cb" y="100.829228"/>
      </g>
     </g>
    </g>
    <g id="ytick_29">
     <g id="line2d_57">
      <g>
       <use style="stroke:#000000;stroke-width:0.6;" x="62.86875" xlink:href="#m23619947cb" y="97.662348"/>
      </g>
     </g>
    </g>
    <g id="ytick_30">
     <g id="line2d_58">
      <g>
       <use style="stroke:#000000;stroke-width:0.6;" x="62.86875" xlink:href="#m23619947cb" y="94.868962"/>
      </g>
     </g>
    </g>
    <g id="ytick_31">
     <g id="line2d_59">
      <g>
       <use style="stroke:#000000;stroke-width:0.6;" x="62.86875" xlink:href="#m23619947cb" y="66.315101"/>
      </g>
     </g>
    </g>
    <g id="ytick_32">
     <g id="line2d_60">
      <g>
       <use style="stroke:#000000;stroke-width:0.6;" x="62.86875" xlink:href="#m23619947cb" y="59.492327"/>
      </g>
     </g>
    </g>
    <g id="ytick_33">
     <g id="line2d_61">
      <g>
       <use style="stroke:#000000;stroke-width:0.6;" x="62.86875" xlink:href="#m23619947cb" y="49.876167"/>
      </g>
     </g>
    </g>
    <g id="ytick_34">
     <g id="line2d_62">
      <g>
       <use style="stroke:#000000;stroke-width:0.6;" x="62.86875" xlink:href="#m23619947cb" y="46.220273"/>
      </g>
     </g>
    </g>
    <g id="ytick_35">
     <g id="line2d_63">
      <g>
       <use style="stroke:#000000;stroke-width:0.6;" x="62.86875" xlink:href="#m23619947cb" y="43.053393"/>
      </g>
     </g>
    </g>
    <g id="ytick_36">
     <g id="line2d_64">
      <g>
       <use style="stroke:#000000;stroke-width:0.6;" x="62.86875" xlink:href="#m23619947cb" y="40.260008"/>
      </g>
     </g>
    </g>
    <g id="text_21">
     <!-- Total cases per million -->
     <defs>
      <path d="M -0.296875 72.90625 
L 61.375 72.90625 
L 61.375 64.59375 
L 35.5 64.59375 
L 35.5 0 
L 25.59375 0 
L 25.59375 64.59375 
L -0.296875 64.59375 
z
" id="DejaVuSans-84"/>
      <path d="M 30.609375 48.390625 
Q 23.390625 48.390625 19.1875 42.75 
Q 14.984375 37.109375 14.984375 27.296875 
Q 14.984375 17.484375 19.15625 11.84375 
Q 23.34375 6.203125 30.609375 6.203125 
Q 37.796875 6.203125 41.984375 11.859375 
Q 46.1875 17.53125 46.1875 27.296875 
Q 46.1875 37.015625 41.984375 42.703125 
Q 37.796875 48.390625 30.609375 48.390625 
z
M 30.609375 56 
Q 42.328125 56 49.015625 48.375 
Q 55.71875 40.765625 55.71875 27.296875 
Q 55.71875 13.875 49.015625 6.21875 
Q 42.328125 -1.421875 30.609375 -1.421875 
Q 18.84375 -1.421875 12.171875 6.21875 
Q 5.515625 13.875 5.515625 27.296875 
Q 5.515625 40.765625 12.171875 48.375 
Q 18.84375 56 30.609375 56 
z
" id="DejaVuSans-111"/>
      <path d="M 18.3125 70.21875 
L 18.3125 54.6875 
L 36.8125 54.6875 
L 36.8125 47.703125 
L 18.3125 47.703125 
L 18.3125 18.015625 
Q 18.3125 11.328125 20.140625 9.421875 
Q 21.96875 7.515625 27.59375 7.515625 
L 36.8125 7.515625 
L 36.8125 0 
L 27.59375 0 
Q 17.1875 0 13.234375 3.875 
Q 9.28125 7.765625 9.28125 18.015625 
L 9.28125 47.703125 
L 2.6875 47.703125 
L 2.6875 54.6875 
L 9.28125 54.6875 
L 9.28125 70.21875 
z
" id="DejaVuSans-116"/>
      <path d="M 9.421875 75.984375 
L 18.40625 75.984375 
L 18.40625 0 
L 9.421875 0 
z
" id="DejaVuSans-108"/>
      <path id="DejaVuSans-32"/>
      <path d="M 48.78125 52.59375 
L 48.78125 44.1875 
Q 44.96875 46.296875 41.140625 47.34375 
Q 37.3125 48.390625 33.40625 48.390625 
Q 24.65625 48.390625 19.8125 42.84375 
Q 14.984375 37.3125 14.984375 27.296875 
Q 14.984375 17.28125 19.8125 11.734375 
Q 24.65625 6.203125 33.40625 6.203125 
Q 37.3125 6.203125 41.140625 7.25 
Q 44.96875 8.296875 48.78125 10.40625 
L 48.78125 2.09375 
Q 45.015625 0.34375 40.984375 -0.53125 
Q 36.96875 -1.421875 32.421875 -1.421875 
Q 20.0625 -1.421875 12.78125 6.34375 
Q 5.515625 14.109375 5.515625 27.296875 
Q 5.515625 40.671875 12.859375 48.328125 
Q 20.21875 56 33.015625 56 
Q 37.15625 56 41.109375 55.140625 
Q 45.0625 54.296875 48.78125 52.59375 
z
" id="DejaVuSans-99"/>
      <path d="M 44.28125 53.078125 
L 44.28125 44.578125 
Q 40.484375 46.53125 36.375 47.5 
Q 32.28125 48.484375 27.875 48.484375 
Q 21.1875 48.484375 17.84375 46.4375 
Q 14.5 44.390625 14.5 40.28125 
Q 14.5 37.15625 16.890625 35.375 
Q 19.28125 33.59375 26.515625 31.984375 
L 29.59375 31.296875 
Q 39.15625 29.25 43.1875 25.515625 
Q 47.21875 21.78125 47.21875 15.09375 
Q 47.21875 7.46875 41.1875 3.015625 
Q 35.15625 -1.421875 24.609375 -1.421875 
Q 20.21875 -1.421875 15.453125 -0.5625 
Q 10.6875 0.296875 5.421875 2 
L 5.421875 11.28125 
Q 10.40625 8.6875 15.234375 7.390625 
Q 20.0625 6.109375 24.8125 6.109375 
Q 31.15625 6.109375 34.5625 8.28125 
Q 37.984375 10.453125 37.984375 14.40625 
Q 37.984375 18.0625 35.515625 20.015625 
Q 33.0625 21.96875 24.703125 23.78125 
L 21.578125 24.515625 
Q 13.234375 26.265625 9.515625 29.90625 
Q 5.8125 33.546875 5.8125 39.890625 
Q 5.8125 47.609375 11.28125 51.796875 
Q 16.75 56 26.8125 56 
Q 31.78125 56 36.171875 55.265625 
Q 40.578125 54.546875 44.28125 53.078125 
z
" id="DejaVuSans-115"/>
      <path d="M 56.203125 29.59375 
L 56.203125 25.203125 
L 14.890625 25.203125 
Q 15.484375 15.921875 20.484375 11.0625 
Q 25.484375 6.203125 34.421875 6.203125 
Q 39.59375 6.203125 44.453125 7.46875 
Q 49.3125 8.734375 54.109375 11.28125 
L 54.109375 2.78125 
Q 49.265625 0.734375 44.1875 -0.34375 
Q 39.109375 -1.421875 33.890625 -1.421875 
Q 20.796875 -1.421875 13.15625 6.1875 
Q 5.515625 13.8125 5.515625 26.8125 
Q 5.515625 40.234375 12.765625 48.109375 
Q 20.015625 56 32.328125 56 
Q 43.359375 56 49.78125 48.890625 
Q 56.203125 41.796875 56.203125 29.59375 
z
M 47.21875 32.234375 
Q 47.125 39.59375 43.09375 43.984375 
Q 39.0625 48.390625 32.421875 48.390625 
Q 24.90625 48.390625 20.390625 44.140625 
Q 15.875 39.890625 15.1875 32.171875 
z
" id="DejaVuSans-101"/>
      <path d="M 52 44.1875 
Q 55.375 50.25 60.0625 53.125 
Q 64.75 56 71.09375 56 
Q 79.640625 56 84.28125 50.015625 
Q 88.921875 44.046875 88.921875 33.015625 
L 88.921875 0 
L 79.890625 0 
L 79.890625 32.71875 
Q 79.890625 40.578125 77.09375 44.375 
Q 74.3125 48.1875 68.609375 48.1875 
Q 61.625 48.1875 57.5625 43.546875 
Q 53.515625 38.921875 53.515625 30.90625 
L 53.515625 0 
L 44.484375 0 
L 44.484375 32.71875 
Q 44.484375 40.625 41.703125 44.40625 
Q 38.921875 48.1875 33.109375 48.1875 
Q 26.21875 48.1875 22.15625 43.53125 
Q 18.109375 38.875 18.109375 30.90625 
L 18.109375 0 
L 9.078125 0 
L 9.078125 54.6875 
L 18.109375 54.6875 
L 18.109375 46.1875 
Q 21.1875 51.21875 25.484375 53.609375 
Q 29.78125 56 35.6875 56 
Q 41.65625 56 45.828125 52.96875 
Q 50 49.953125 52 44.1875 
z
" id="DejaVuSans-109"/>
      <path d="M 9.421875 54.6875 
L 18.40625 54.6875 
L 18.40625 0 
L 9.421875 0 
z
M 9.421875 75.984375 
L 18.40625 75.984375 
L 18.40625 64.59375 
L 9.421875 64.59375 
z
" id="DejaVuSans-105"/>
      <path d="M 54.890625 33.015625 
L 54.890625 0 
L 45.90625 0 
L 45.90625 32.71875 
Q 45.90625 40.484375 42.875 44.328125 
Q 39.84375 48.1875 33.796875 48.1875 
Q 26.515625 48.1875 22.3125 43.546875 
Q 18.109375 38.921875 18.109375 30.90625 
L 18.109375 0 
L 9.078125 0 
L 9.078125 54.6875 
L 18.109375 54.6875 
L 18.109375 46.1875 
Q 21.34375 51.125 25.703125 53.5625 
Q 30.078125 56 35.796875 56 
Q 45.21875 56 50.046875 50.171875 
Q 54.890625 44.34375 54.890625 33.015625 
z
" id="DejaVuSans-110"/>
     </defs>
     <g transform="translate(14.798438 187.37875)rotate(-90)scale(0.1 -0.1)">
      <use xlink:href="#DejaVuSans-84"/>
      <use x="60.818359" xlink:href="#DejaVuSans-111"/>
      <use x="122" xlink:href="#DejaVuSans-116"/>
      <use x="161.208984" xlink:href="#DejaVuSans-97"/>
      <use x="222.488281" xlink:href="#DejaVuSans-108"/>
      <use x="250.271484" xlink:href="#DejaVuSans-32"/>
      <use x="282.058594" xlink:href="#DejaVuSans-99"/>
      <use x="337.039062" xlink:href="#DejaVuSans-97"/>
      <use x="398.318359" xlink:href="#DejaVuSans-115"/>
      <use x="450.417969" xlink:href="#DejaVuSans-101"/>
      <use x="511.941406" xlink:href="#DejaVuSans-115"/>
      <use x="564.041016" xlink:href="#DejaVuSans-32"/>
      <use x="595.828125" xlink:href="#DejaVuSans-112"/>
      <use x="659.304688" xlink:href="#DejaVuSans-101"/>
      <use x="720.828125" xlink:href="#DejaVuSans-114"/>
      <use x="761.941406" xlink:href="#DejaVuSans-32"/>
      <use x="793.728516" xlink:href="#DejaVuSans-109"/>
      <use x="891.140625" xlink:href="#DejaVuSans-105"/>
      <use x="918.923828" xlink:href="#DejaVuSans-108"/>
      <use x="946.707031" xlink:href="#DejaVuSans-108"/>
      <use x="974.490234" xlink:href="#DejaVuSans-105"/>
      <use x="1002.273438" xlink:href="#DejaVuSans-111"/>
      <use x="1063.455078" xlink:href="#DejaVuSans-110"/>
     </g>
    </g>
   </g>
   <g id="line2d_65">
    <path clip-path="url(#pbd60b5c581)" d="M 298.682414 101.51271 
L 309.911636 99.755154 
L 321.140858 97.997598 
L 332.37008 96.240042 
L 343.599302 94.482486 
" style="fill:none;stroke:#7f7f7f;stroke-dasharray:7.4,3.2;stroke-dashoffset:0;stroke-width:2;"/>
   </g>
   <g id="line2d_66">
    <path clip-path="url(#pbd60b5c581)" d="M 298.682414 146.478291 
L 309.911636 144.612651 
L 321.140858 142.74701 
L 332.37008 140.88137 
L 343.599302 139.01573 
" style="fill:none;stroke:#7f7f7f;stroke-dasharray:7.4,3.2;stroke-dashoffset:0;stroke-width:2;"/>
   </g>
   <g id="line2d_67">
    <path clip-path="url(#pbd60b5c581)" d="M 298.682414 128.539231 
L 309.911636 126.087031 
L 321.140858 123.634831 
L 332.37008 121.182631 
L 343.599302 118.730432 
" style="fill:none;stroke:#7f7f7f;stroke-dasharray:7.4,3.2;stroke-dashoffset:0;stroke-width:2;"/>
   </g>
   <g id="line2d_68">
    <path clip-path="url(#pbd60b5c581)" d="M 298.682414 62.97954 
L 309.911636 60.45268 
L 321.140858 57.925821 
L 332.37008 55.398962 
L 343.599302 52.872103 
" style="fill:none;stroke:#7f7f7f;stroke-dasharray:7.4,3.2;stroke-dashoffset:0;stroke-width:2;"/>
   </g>
   <g id="line2d_69">
    <path clip-path="url(#pbd60b5c581)" d="M 298.682414 139.969715 
L 309.911636 137.005659 
L 321.140858 134.041604 
L 332.37008 131.077548 
L 343.599302 128.113493 
" style="fill:none;stroke:#7f7f7f;stroke-dasharray:7.4,3.2;stroke-dashoffset:0;stroke-width:2;"/>
   </g>
   <g id="line2d_70">
    <path clip-path="url(#pbd60b5c581)" d="M 51.639528 253.430454 
L 62.86875 246.580899 
L 74.097972 239.731343 
L 85.327194 232.881788 
L 96.556416 226.032232 
L 107.785638 219.182676 
L 119.01486 212.333121 
L 130.244082 205.483565 
L 141.473305 198.63401 
L 152.702527 191.784454 
L 163.931749 184.934898 
L 175.160971 178.085343 
L 186.390193 171.235787 
L 197.619415 164.386232 
L 208.848637 157.536676 
L 220.077859 150.68712 
L 231.307081 143.837565 
L 242.536303 136.988009 
L 253.765525 130.138453 
L 264.994747 123.288898 
L 276.223969 116.439342 
L 287.453192 109.589787 
L 298.682414 102.740231 
L 309.911636 95.890675 
L 321.140858 89.04112 
L 332.37008 82.191564 
L 343.599302 75.342009 
" style="fill:none;stroke:#2ca02c;stroke-dasharray:5.55,2.4;stroke-dashoffset:0;stroke-width:1.5;"/>
   </g>
   <g id="patch_3">
    <path d="M 62.86875 239.758125 
L 62.86875 22.318125 
" style="fill:none;stroke:#000000;stroke-linecap:square;stroke-linejoin:miter;stroke-width:0.8;"/>
   </g>
   <g id="patch_4">
    <path d="M 397.66875 239.758125 
L 397.66875 22.318125 
" style="fill:none;stroke:#000000;stroke-linecap:square;stroke-linejoin:miter;stroke-width:0.8;"/>
   </g>
   <g id="patch_5">
    <path d="M 62.86875 239.758125 
L 397.66875 239.758125 
" style="fill:none;stroke:#000000;stroke-linecap:square;stroke-linejoin:miter;stroke-width:0.8;"/>
   </g>
   <g id="patch_6">
    <path d="M 62.86875 22.318125 
L 397.66875 22.318125 
" style="fill:none;stroke:#000000;stroke-linecap:square;stroke-linejoin:miter;stroke-width:0.8;"/>
   </g>
   <g id="text_22">
    <!-- © Scott Sievert -->
    <defs>
     <path d="M 50 72.515625 
Q 57.421875 72.515625 63.84375 69.828125 
Q 70.265625 67.140625 75.59375 61.8125 
Q 80.90625 56.5 83.546875 50.09375 
Q 86.1875 43.703125 86.1875 36.1875 
Q 86.1875 28.765625 83.546875 22.390625 
Q 80.90625 16.015625 75.59375 10.6875 
Q 70.265625 5.375 63.84375 2.6875 
Q 57.421875 0 50 0 
Q 42.578125 0 36.15625 2.6875 
Q 29.734375 5.375 24.421875 10.6875 
Q 19.09375 16.015625 16.453125 22.390625 
Q 13.8125 28.765625 13.8125 36.1875 
Q 13.8125 43.703125 16.453125 50.09375 
Q 19.09375 56.5 24.421875 61.8125 
Q 29.734375 67.140625 36.15625 69.828125 
Q 42.578125 72.515625 50 72.515625 
z
M 50 67.484375 
Q 43.609375 67.484375 38.078125 65.1875 
Q 32.5625 62.890625 27.984375 58.296875 
Q 23.390625 53.71875 21.046875 48.125 
Q 18.703125 42.53125 18.703125 36.1875 
Q 18.703125 29.890625 21.046875 24.34375 
Q 23.390625 18.796875 27.984375 14.203125 
Q 32.5625 9.625 38.078125 7.296875 
Q 43.609375 4.984375 50 4.984375 
Q 56.453125 4.984375 61.984375 7.296875 
Q 67.53125 9.625 72.125 14.203125 
Q 76.65625 18.75 78.921875 24.265625 
Q 81.203125 29.78125 81.203125 36.1875 
Q 81.203125 42.671875 78.90625 48.21875 
Q 76.609375 53.765625 72.125 58.296875 
Q 67.53125 62.890625 61.984375 65.1875 
Q 56.453125 67.484375 50 67.484375 
z
M 64.59375 55.515625 
L 64.59375 49.21875 
Q 61.375 50.828125 58.203125 51.609375 
Q 55.03125 52.390625 51.8125 52.390625 
Q 44.53125 52.390625 40.453125 48.109375 
Q 36.375 43.84375 36.375 36.1875 
Q 36.375 28.421875 40.546875 24.171875 
Q 44.734375 19.921875 52.296875 19.921875 
Q 55.421875 19.921875 58.390625 20.671875 
Q 61.375 21.4375 64.59375 23.09375 
L 64.59375 16.890625 
Q 61.328125 15.484375 57.984375 14.796875 
Q 54.640625 14.109375 51.21875 14.109375 
Q 40.671875 14.109375 34.546875 20.0625 
Q 28.421875 26.03125 28.421875 36.1875 
Q 28.421875 46.390625 34.546875 52.296875 
Q 40.671875 58.203125 51.21875 58.203125 
Q 54.78125 58.203125 58.09375 57.515625 
Q 61.421875 56.84375 64.59375 55.515625 
z
" id="DejaVuSans-169"/>
     <path d="M 53.515625 70.515625 
L 53.515625 60.890625 
Q 47.90625 63.578125 42.921875 64.890625 
Q 37.9375 66.21875 33.296875 66.21875 
Q 25.25 66.21875 20.875 63.09375 
Q 16.5 59.96875 16.5 54.203125 
Q 16.5 49.359375 19.40625 46.890625 
Q 22.3125 44.4375 30.421875 42.921875 
L 36.375 41.703125 
Q 47.40625 39.59375 52.65625 34.296875 
Q 57.90625 29 57.90625 20.125 
Q 57.90625 9.515625 50.796875 4.046875 
Q 43.703125 -1.421875 29.984375 -1.421875 
Q 24.8125 -1.421875 18.96875 -0.25 
Q 13.140625 0.921875 6.890625 3.21875 
L 6.890625 13.375 
Q 12.890625 10.015625 18.65625 8.296875 
Q 24.421875 6.59375 29.984375 6.59375 
Q 38.421875 6.59375 43.015625 9.90625 
Q 47.609375 13.234375 47.609375 19.390625 
Q 47.609375 24.75 44.3125 27.78125 
Q 41.015625 30.8125 33.5 32.328125 
L 27.484375 33.5 
Q 16.453125 35.6875 11.515625 40.375 
Q 6.59375 45.0625 6.59375 53.421875 
Q 6.59375 63.09375 13.40625 68.65625 
Q 20.21875 74.21875 32.171875 74.21875 
Q 37.3125 74.21875 42.625 73.28125 
Q 47.953125 72.359375 53.515625 70.515625 
z
" id="DejaVuSans-83"/>
     <path d="M 2.984375 54.6875 
L 12.5 54.6875 
L 29.59375 8.796875 
L 46.6875 54.6875 
L 56.203125 54.6875 
L 35.6875 0 
L 23.484375 0 
z
" id="DejaVuSans-118"/>
    </defs>
    <g style="opacity:0.3;" transform="translate(319.064195 277.928146)scale(0.1 -0.1)">
     <use xlink:href="#DejaVuSans-169"/>
     <use x="100" xlink:href="#DejaVuSans-32"/>
     <use x="131.787109" xlink:href="#DejaVuSans-83"/>
     <use x="195.263672" xlink:href="#DejaVuSans-99"/>
     <use x="250.244141" xlink:href="#DejaVuSans-111"/>
     <use x="311.425781" xlink:href="#DejaVuSans-116"/>
     <use x="350.634766" xlink:href="#DejaVuSans-116"/>
     <use x="389.84375" xlink:href="#DejaVuSans-32"/>
     <use x="421.630859" xlink:href="#DejaVuSans-83"/>
     <use x="485.107422" xlink:href="#DejaVuSans-105"/>
     <use x="512.890625" xlink:href="#DejaVuSans-101"/>
     <use x="574.414062" xlink:href="#DejaVuSans-118"/>
     <use x="633.59375" xlink:href="#DejaVuSans-101"/>
     <use x="695.117188" xlink:href="#DejaVuSans-114"/>
     <use x="736.230469" xlink:href="#DejaVuSans-116"/>
    </g>
   </g>
   <g id="text_23">
    <!-- State infection rates -->
    <defs>
     <path d="M 37.109375 75.984375 
L 37.109375 68.5 
L 28.515625 68.5 
Q 23.6875 68.5 21.796875 66.546875 
Q 19.921875 64.59375 19.921875 59.515625 
L 19.921875 54.6875 
L 34.71875 54.6875 
L 34.71875 47.703125 
L 19.921875 47.703125 
L 19.921875 0 
L 10.890625 0 
L 10.890625 47.703125 
L 2.296875 47.703125 
L 2.296875 54.6875 
L 10.890625 54.6875 
L 10.890625 58.5 
Q 10.890625 67.625 15.140625 71.796875 
Q 19.390625 75.984375 28.609375 75.984375 
z
" id="DejaVuSans-102"/>
    </defs>
    <g transform="translate(169.194375 16.318125)scale(0.12 -0.12)">
     <use xlink:href="#DejaVuSans-83"/>
     <use x="63.476562" xlink:href="#DejaVuSans-116"/>
     <use x="102.685547" xlink:href="#DejaVuSans-97"/>
     <use x="163.964844" xlink:href="#DejaVuSans-116"/>
     <use x="203.173828" xlink:href="#DejaVuSans-101"/>
     <use x="264.697266" xlink:href="#DejaVuSans-32"/>
     <use x="296.484375" xlink:href="#DejaVuSans-105"/>
     <use x="324.267578" xlink:href="#DejaVuSans-110"/>
     <use x="387.646484" xlink:href="#DejaVuSans-102"/>
     <use x="422.851562" xlink:href="#DejaVuSans-101"/>
     <use x="484.375" xlink:href="#DejaVuSans-99"/>
     <use x="539.355469" xlink:href="#DejaVuSans-116"/>
     <use x="578.564453" xlink:href="#DejaVuSans-105"/>
     <use x="606.347656" xlink:href="#DejaVuSans-111"/>
     <use x="667.529297" xlink:href="#DejaVuSans-110"/>
     <use x="730.908203" xlink:href="#DejaVuSans-32"/>
     <use x="762.695312" xlink:href="#DejaVuSans-114"/>
     <use x="803.808594" xlink:href="#DejaVuSans-97"/>
     <use x="865.087891" xlink:href="#DejaVuSans-116"/>
     <use x="904.296875" xlink:href="#DejaVuSans-101"/>
     <use x="965.820312" xlink:href="#DejaVuSans-115"/>
    </g>
   </g>
   <g id="legend_1">
    <g id="patch_7">
     <path d="M 69.86875 133.065 
L 188.135938 133.065 
Q 190.135938 133.065 190.135938 131.065 
L 190.135938 29.318125 
Q 190.135938 27.318125 188.135938 27.318125 
L 69.86875 27.318125 
Q 67.86875 27.318125 67.86875 29.318125 
L 67.86875 131.065 
Q 67.86875 133.065 69.86875 133.065 
z
" style="fill:#ffffff;opacity:0.8;stroke:#cccccc;stroke-linejoin:miter;"/>
    </g>
    <g id="text_24">
     <!-- State (cases in 7 days) -->
     <defs>
      <path d="M 31 75.875 
Q 24.46875 64.65625 21.28125 53.65625 
Q 18.109375 42.671875 18.109375 31.390625 
Q 18.109375 20.125 21.3125 9.0625 
Q 24.515625 -2 31 -13.1875 
L 23.1875 -13.1875 
Q 15.875 -1.703125 12.234375 9.375 
Q 8.59375 20.453125 8.59375 31.390625 
Q 8.59375 42.28125 12.203125 53.3125 
Q 15.828125 64.359375 23.1875 75.875 
z
" id="DejaVuSans-40"/>
      <path d="M 45.40625 46.390625 
L 45.40625 75.984375 
L 54.390625 75.984375 
L 54.390625 0 
L 45.40625 0 
L 45.40625 8.203125 
Q 42.578125 3.328125 38.25 0.953125 
Q 33.9375 -1.421875 27.875 -1.421875 
Q 17.96875 -1.421875 11.734375 6.484375 
Q 5.515625 14.40625 5.515625 27.296875 
Q 5.515625 40.1875 11.734375 48.09375 
Q 17.96875 56 27.875 56 
Q 33.9375 56 38.25 53.625 
Q 42.578125 51.265625 45.40625 46.390625 
z
M 14.796875 27.296875 
Q 14.796875 17.390625 18.875 11.75 
Q 22.953125 6.109375 30.078125 6.109375 
Q 37.203125 6.109375 41.296875 11.75 
Q 45.40625 17.390625 45.40625 27.296875 
Q 45.40625 37.203125 41.296875 42.84375 
Q 37.203125 48.484375 30.078125 48.484375 
Q 22.953125 48.484375 18.875 42.84375 
Q 14.796875 37.203125 14.796875 27.296875 
z
" id="DejaVuSans-100"/>
      <path d="M 32.171875 -5.078125 
Q 28.375 -14.84375 24.75 -17.8125 
Q 21.140625 -20.796875 15.09375 -20.796875 
L 7.90625 -20.796875 
L 7.90625 -13.28125 
L 13.1875 -13.28125 
Q 16.890625 -13.28125 18.9375 -11.515625 
Q 21 -9.765625 23.484375 -3.21875 
L 25.09375 0.875 
L 2.984375 54.6875 
L 12.5 54.6875 
L 29.59375 11.921875 
L 46.6875 54.6875 
L 56.203125 54.6875 
z
" id="DejaVuSans-121"/>
      <path d="M 8.015625 75.875 
L 15.828125 75.875 
Q 23.140625 64.359375 26.78125 53.3125 
Q 30.421875 42.28125 30.421875 31.390625 
Q 30.421875 20.453125 26.78125 9.375 
Q 23.140625 -1.703125 15.828125 -13.1875 
L 8.015625 -13.1875 
Q 14.5 -2 17.703125 9.0625 
Q 20.90625 20.125 20.90625 31.390625 
Q 20.90625 42.671875 17.703125 53.65625 
Q 14.5 64.65625 8.015625 75.875 
z
" id="DejaVuSans-41"/>
     </defs>
     <g transform="translate(71.86875 38.916562)scale(0.1 -0.1)">
      <use xlink:href="#DejaVuSans-83"/>
      <use x="63.476562" xlink:href="#DejaVuSans-116"/>
      <use x="102.685547" xlink:href="#DejaVuSans-97"/>
      <use x="163.964844" xlink:href="#DejaVuSans-116"/>
      <use x="203.173828" xlink:href="#DejaVuSans-101"/>
      <use x="264.697266" xlink:href="#DejaVuSans-32"/>
      <use x="296.484375" xlink:href="#DejaVuSans-40"/>
      <use x="335.498047" xlink:href="#DejaVuSans-99"/>
      <use x="390.478516" xlink:href="#DejaVuSans-97"/>
      <use x="451.757812" xlink:href="#DejaVuSans-115"/>
      <use x="503.857422" xlink:href="#DejaVuSans-101"/>
      <use x="565.380859" xlink:href="#DejaVuSans-115"/>
      <use x="617.480469" xlink:href="#DejaVuSans-32"/>
      <use x="649.267578" xlink:href="#DejaVuSans-105"/>
      <use x="677.050781" xlink:href="#DejaVuSans-110"/>
      <use x="740.429688" xlink:href="#DejaVuSans-32"/>
      <use x="772.216797" xlink:href="#DejaVuSans-55"/>
      <use x="835.839844" xlink:href="#DejaVuSans-32"/>
      <use x="867.626953" xlink:href="#DejaVuSans-100"/>
      <use x="931.103516" xlink:href="#DejaVuSans-97"/>
      <use x="992.382812" xlink:href="#DejaVuSans-121"/>
      <use x="1051.5625" xlink:href="#DejaVuSans-115"/>
      <use x="1103.662109" xlink:href="#DejaVuSans-41"/>
     </g>
    </g>
    <g id="line2d_71">
     <path d="M 89.002344 50.094688 
L 109.002344 50.094688 
" style="fill:none;stroke:#1f77b4;stroke-linecap:square;stroke-width:1.5;"/>
    </g>
    <g id="line2d_72">
     <defs>
      <path d="M 0 3 
C 0.795609 3 1.55874 2.683901 2.12132 2.12132 
C 2.683901 1.55874 3 0.795609 3 0 
C 3 -0.795609 2.683901 -1.55874 2.12132 -2.12132 
C 1.55874 -2.683901 0.795609 -3 0 -3 
C -0.795609 -3 -1.55874 -2.683901 -2.12132 -2.12132 
C -2.683901 -1.55874 -3 -0.795609 -3 0 
C -3 0.795609 -2.683901 1.55874 -2.12132 2.12132 
C -1.55874 2.683901 -0.795609 3 0 3 
z
" id="m9f6677bd01" style="stroke:#1f77b4;"/>
     </defs>
     <g>
      <use style="fill:#1f77b4;stroke:#1f77b4;" x="99.002344" xlink:href="#m9f6677bd01" y="50.094688"/>
     </g>
    </g>
    <g id="text_25">
     <!-- WA (1.7$\times$) -->
     <defs>
      <path d="M 3.328125 72.90625 
L 13.28125 72.90625 
L 28.609375 11.28125 
L 43.890625 72.90625 
L 54.984375 72.90625 
L 70.3125 11.28125 
L 85.59375 72.90625 
L 95.609375 72.90625 
L 77.296875 0 
L 64.890625 0 
L 49.515625 63.28125 
L 33.984375 0 
L 21.578125 0 
z
" id="DejaVuSans-87"/>
      <path d="M 70.125 53.71875 
L 47.796875 31.296875 
L 70.125 8.984375 
L 64.3125 3.078125 
L 41.890625 25.484375 
L 19.484375 3.078125 
L 13.71875 8.984375 
L 35.984375 31.296875 
L 13.71875 53.71875 
L 19.484375 59.625 
L 41.890625 37.203125 
L 64.3125 59.625 
z
" id="DejaVuSans-215"/>
     </defs>
     <g transform="translate(117.002344 53.594688)scale(0.1 -0.1)">
      <use transform="translate(0 0.125)" xlink:href="#DejaVuSans-87"/>
      <use transform="translate(98.876953 0.125)" xlink:href="#DejaVuSans-65"/>
      <use transform="translate(167.285156 0.125)" xlink:href="#DejaVuSans-32"/>
      <use transform="translate(199.072266 0.125)" xlink:href="#DejaVuSans-40"/>
      <use transform="translate(238.085938 0.125)" xlink:href="#DejaVuSans-49"/>
      <use transform="translate(301.708984 0.125)" xlink:href="#DejaVuSans-46"/>
      <use transform="translate(333.386719 0.125)" xlink:href="#DejaVuSans-55"/>
      <use transform="translate(397.009766 0.125)" xlink:href="#DejaVuSans-215"/>
      <use transform="translate(480.798828 0.125)" xlink:href="#DejaVuSans-41"/>
     </g>
    </g>
    <g id="line2d_73">
     <path d="M 89.002344 64.772813 
L 109.002344 64.772813 
" style="fill:none;stroke:#ff7f0e;stroke-linecap:square;stroke-width:1.5;"/>
    </g>
    <g id="line2d_74">
     <defs>
      <path d="M 0 3 
C 0.795609 3 1.55874 2.683901 2.12132 2.12132 
C 2.683901 1.55874 3 0.795609 3 0 
C 3 -0.795609 2.683901 -1.55874 2.12132 -2.12132 
C 1.55874 -2.683901 0.795609 -3 0 -3 
C -0.795609 -3 -1.55874 -2.683901 -2.12132 -2.12132 
C -2.683901 -1.55874 -3 -0.795609 -3 0 
C -3 0.795609 -2.683901 1.55874 -2.12132 2.12132 
C -1.55874 2.683901 -0.795609 3 0 3 
z
" id="md3a0e3e0ba" style="stroke:#ff7f0e;"/>
     </defs>
     <g>
      <use style="fill:#ff7f0e;stroke:#ff7f0e;" x="99.002344" xlink:href="#md3a0e3e0ba" y="64.772813"/>
     </g>
    </g>
    <g id="text_26">
     <!-- MN (1.7$\times$) -->
     <defs>
      <path d="M 9.8125 72.90625 
L 23.09375 72.90625 
L 55.421875 11.921875 
L 55.421875 72.90625 
L 64.984375 72.90625 
L 64.984375 0 
L 51.703125 0 
L 19.390625 60.984375 
L 19.390625 0 
L 9.8125 0 
z
" id="DejaVuSans-78"/>
     </defs>
     <g transform="translate(117.002344 68.272813)scale(0.1 -0.1)">
      <use transform="translate(0 0.125)" xlink:href="#DejaVuSans-77"/>
      <use transform="translate(86.279297 0.125)" xlink:href="#DejaVuSans-78"/>
      <use transform="translate(161.083984 0.125)" xlink:href="#DejaVuSans-32"/>
      <use transform="translate(192.871094 0.125)" xlink:href="#DejaVuSans-40"/>
      <use transform="translate(231.884766 0.125)" xlink:href="#DejaVuSans-49"/>
      <use transform="translate(295.507812 0.125)" xlink:href="#DejaVuSans-46"/>
      <use transform="translate(327.185547 0.125)" xlink:href="#DejaVuSans-55"/>
      <use transform="translate(390.808594 0.125)" xlink:href="#DejaVuSans-215"/>
      <use transform="translate(474.597656 0.125)" xlink:href="#DejaVuSans-41"/>
     </g>
    </g>
    <g id="line2d_75">
     <path d="M 89.002344 79.450938 
L 109.002344 79.450938 
" style="fill:none;stroke:#2ca02c;stroke-linecap:square;stroke-width:1.5;"/>
    </g>
    <g id="line2d_76">
     <defs>
      <path d="M 0 3 
C 0.795609 3 1.55874 2.683901 2.12132 2.12132 
C 2.683901 1.55874 3 0.795609 3 0 
C 3 -0.795609 2.683901 -1.55874 2.12132 -2.12132 
C 1.55874 -2.683901 0.795609 -3 0 -3 
C -0.795609 -3 -1.55874 -2.683901 -2.12132 -2.12132 
C -2.683901 -1.55874 -3 -0.795609 -3 0 
C -3 0.795609 -2.683901 1.55874 -2.12132 2.12132 
C -1.55874 2.683901 -0.795609 3 0 3 
z
" id="m84f656b120" style="stroke:#2ca02c;"/>
     </defs>
     <g>
      <use style="fill:#2ca02c;stroke:#2ca02c;" x="99.002344" xlink:href="#m84f656b120" y="79.450938"/>
     </g>
    </g>
    <g id="text_27">
     <!-- WI (2.1$\times$) -->
     <defs>
      <path d="M 9.8125 72.90625 
L 19.671875 72.90625 
L 19.671875 0 
L 9.8125 0 
z
" id="DejaVuSans-73"/>
     </defs>
     <g transform="translate(117.002344 82.950938)scale(0.1 -0.1)">
      <use transform="translate(0 0.125)" xlink:href="#DejaVuSans-87"/>
      <use transform="translate(98.876953 0.125)" xlink:href="#DejaVuSans-73"/>
      <use transform="translate(128.369141 0.125)" xlink:href="#DejaVuSans-32"/>
      <use transform="translate(160.15625 0.125)" xlink:href="#DejaVuSans-40"/>
      <use transform="translate(199.169922 0.125)" xlink:href="#DejaVuSans-50"/>
      <use transform="translate(262.792969 0.125)" xlink:href="#DejaVuSans-46"/>
      <use transform="translate(294.580078 0.125)" xlink:href="#DejaVuSans-49"/>
      <use transform="translate(358.203125 0.125)" xlink:href="#DejaVuSans-215"/>
      <use transform="translate(441.992188 0.125)" xlink:href="#DejaVuSans-41"/>
     </g>
    </g>
    <g id="line2d_77">
     <path d="M 89.002344 94.129063 
L 109.002344 94.129063 
" style="fill:none;stroke:#d62728;stroke-linecap:square;stroke-width:1.5;"/>
    </g>
    <g id="line2d_78">
     <defs>
      <path d="M 0 3 
C 0.795609 3 1.55874 2.683901 2.12132 2.12132 
C 2.683901 1.55874 3 0.795609 3 0 
C 3 -0.795609 2.683901 -1.55874 2.12132 -2.12132 
C 1.55874 -2.683901 0.795609 -3 0 -3 
C -0.795609 -3 -1.55874 -2.683901 -2.12132 -2.12132 
C -2.683901 -1.55874 -3 -0.795609 -3 0 
C -3 0.795609 -2.683901 1.55874 -2.12132 2.12132 
C -1.55874 2.683901 -0.795609 3 0 3 
z
" id="mf3d1a9fb57" style="stroke:#d62728;"/>
     </defs>
     <g>
      <use style="fill:#d62728;stroke:#d62728;" x="99.002344" xlink:href="#mf3d1a9fb57" y="94.129063"/>
     </g>
    </g>
    <g id="text_28">
     <!-- NY (2.1$\times$) -->
     <defs>
      <path d="M -0.203125 72.90625 
L 10.40625 72.90625 
L 30.609375 42.921875 
L 50.6875 72.90625 
L 61.28125 72.90625 
L 35.5 34.71875 
L 35.5 0 
L 25.59375 0 
L 25.59375 34.71875 
z
" id="DejaVuSans-89"/>
     </defs>
     <g transform="translate(117.002344 97.629063)scale(0.1 -0.1)">
      <use transform="translate(0 0.125)" xlink:href="#DejaVuSans-78"/>
      <use transform="translate(74.804688 0.125)" xlink:href="#DejaVuSans-89"/>
      <use transform="translate(135.888672 0.125)" xlink:href="#DejaVuSans-32"/>
      <use transform="translate(167.675781 0.125)" xlink:href="#DejaVuSans-40"/>
      <use transform="translate(206.689453 0.125)" xlink:href="#DejaVuSans-50"/>
      <use transform="translate(270.3125 0.125)" xlink:href="#DejaVuSans-46"/>
      <use transform="translate(302.099609 0.125)" xlink:href="#DejaVuSans-49"/>
      <use transform="translate(365.722656 0.125)" xlink:href="#DejaVuSans-215"/>
      <use transform="translate(449.511719 0.125)" xlink:href="#DejaVuSans-41"/>
     </g>
    </g>
    <g id="line2d_79">
     <path d="M 89.002344 108.807188 
L 109.002344 108.807188 
" style="fill:none;stroke:#9467bd;stroke-linecap:square;stroke-width:1.5;"/>
    </g>
    <g id="line2d_80">
     <defs>
      <path d="M 0 3 
C 0.795609 3 1.55874 2.683901 2.12132 2.12132 
C 2.683901 1.55874 3 0.795609 3 0 
C 3 -0.795609 2.683901 -1.55874 2.12132 -2.12132 
C 1.55874 -2.683901 0.795609 -3 0 -3 
C -0.795609 -3 -1.55874 -2.683901 -2.12132 -2.12132 
C -2.683901 -1.55874 -3 -0.795609 -3 0 
C -3 0.795609 -2.683901 1.55874 -2.12132 2.12132 
C -1.55874 2.683901 -0.795609 3 0 3 
z
" id="m91dc2e85f1" style="stroke:#9467bd;"/>
     </defs>
     <g>
      <use style="fill:#9467bd;stroke:#9467bd;" x="99.002344" xlink:href="#m91dc2e85f1" y="108.807188"/>
     </g>
    </g>
    <g id="text_29">
     <!-- IA (2.4$\times$) -->
     <defs>
      <path d="M 37.796875 64.3125 
L 12.890625 25.390625 
L 37.796875 25.390625 
z
M 35.203125 72.90625 
L 47.609375 72.90625 
L 47.609375 25.390625 
L 58.015625 25.390625 
L 58.015625 17.1875 
L 47.609375 17.1875 
L 47.609375 0 
L 37.796875 0 
L 37.796875 17.1875 
L 4.890625 17.1875 
L 4.890625 26.703125 
z
" id="DejaVuSans-52"/>
     </defs>
     <g transform="translate(117.002344 112.307188)scale(0.1 -0.1)">
      <use transform="translate(0 0.125)" xlink:href="#DejaVuSans-73"/>
      <use transform="translate(29.492188 0.125)" xlink:href="#DejaVuSans-65"/>
      <use transform="translate(97.900391 0.125)" xlink:href="#DejaVuSans-32"/>
      <use transform="translate(129.6875 0.125)" xlink:href="#DejaVuSans-40"/>
      <use transform="translate(168.701172 0.125)" xlink:href="#DejaVuSans-50"/>
      <use transform="translate(232.324219 0.125)" xlink:href="#DejaVuSans-46"/>
      <use transform="translate(264.111328 0.125)" xlink:href="#DejaVuSans-52"/>
      <use transform="translate(327.734375 0.125)" xlink:href="#DejaVuSans-215"/>
      <use transform="translate(411.523438 0.125)" xlink:href="#DejaVuSans-41"/>
     </g>
    </g>
    <g id="line2d_81">
     <path d="M 89.002344 123.485313 
L 109.002344 123.485313 
" style="fill:none;stroke:#2ca02c;stroke-dasharray:5.55,2.4;stroke-dashoffset:0;stroke-width:1.5;"/>
    </g>
    <g id="line2d_82"/>
    <g id="text_30">
     <!-- (7.6×) -->
     <defs>
      <path d="M 33.015625 40.375 
Q 26.375 40.375 22.484375 35.828125 
Q 18.609375 31.296875 18.609375 23.390625 
Q 18.609375 15.53125 22.484375 10.953125 
Q 26.375 6.390625 33.015625 6.390625 
Q 39.65625 6.390625 43.53125 10.953125 
Q 47.40625 15.53125 47.40625 23.390625 
Q 47.40625 31.296875 43.53125 35.828125 
Q 39.65625 40.375 33.015625 40.375 
z
M 52.59375 71.296875 
L 52.59375 62.3125 
Q 48.875 64.0625 45.09375 64.984375 
Q 41.3125 65.921875 37.59375 65.921875 
Q 27.828125 65.921875 22.671875 59.328125 
Q 17.53125 52.734375 16.796875 39.40625 
Q 19.671875 43.65625 24.015625 45.921875 
Q 28.375 48.1875 33.59375 48.1875 
Q 44.578125 48.1875 50.953125 41.515625 
Q 57.328125 34.859375 57.328125 23.390625 
Q 57.328125 12.15625 50.6875 5.359375 
Q 44.046875 -1.421875 33.015625 -1.421875 
Q 20.359375 -1.421875 13.671875 8.265625 
Q 6.984375 17.96875 6.984375 36.375 
Q 6.984375 53.65625 15.1875 63.9375 
Q 23.390625 74.21875 37.203125 74.21875 
Q 40.921875 74.21875 44.703125 73.484375 
Q 48.484375 72.75 52.59375 71.296875 
z
" id="DejaVuSans-54"/>
     </defs>
     <g transform="translate(117.002344 126.985313)scale(0.1 -0.1)">
      <use xlink:href="#DejaVuSans-40"/>
      <use x="39.013672" xlink:href="#DejaVuSans-55"/>
      <use x="102.636719" xlink:href="#DejaVuSans-46"/>
      <use x="134.423828" xlink:href="#DejaVuSans-54"/>
      <use x="198.046875" xlink:href="#DejaVuSans-215"/>
      <use x="281.835938" xlink:href="#DejaVuSans-41"/>
     </g>
    </g>
   </g>
   <g id="line2d_83">
    <path clip-path="url(#pbd60b5c581)" d="M -1 219.302185 
L 6.72264 213.032281 
L 17.951862 201.948661 
L 29.181084 198.702859 
L 40.410306 192.865476 
L 51.639528 186.977188 
L 62.86875 181.317848 
L 74.097972 170.791908 
L 85.327194 166.242299 
L 96.556416 161.14743 
L 107.785638 156.439763 
L 119.01486 152.278757 
L 130.244082 149.838475 
L 141.473305 145.98763 
L 152.702527 142.805821 
L 163.931749 139.908187 
L 175.160971 135.645903 
L 186.390193 132.469369 
L 197.619415 128.568603 
L 208.848637 126.004007 
L 220.077859 122.909583 
L 231.307081 119.081766 
L 242.536303 117.992893 
L 253.765525 112.872003 
L 264.994747 109.043534 
L 276.223969 105.86329 
L 287.453192 102.845414 
L 298.682414 101.51271 
L 309.911636 101.00081 
L 321.140858 99.710042 
L 332.37008 95.816457 
L 343.599302 94.482486 
" style="fill:none;stroke:#1f77b4;stroke-linecap:square;stroke-width:1.5;"/>
    <g clip-path="url(#pbd60b5c581)">
     <use style="fill:#1f77b4;stroke:#1f77b4;" x="-1" xlink:href="#m9f6677bd01" y="219.302185"/>
     <use style="fill:#1f77b4;stroke:#1f77b4;" x="6.72264" xlink:href="#m9f6677bd01" y="213.032281"/>
     <use style="fill:#1f77b4;stroke:#1f77b4;" x="17.951862" xlink:href="#m9f6677bd01" y="201.948661"/>
     <use style="fill:#1f77b4;stroke:#1f77b4;" x="29.181084" xlink:href="#m9f6677bd01" y="198.702859"/>
     <use style="fill:#1f77b4;stroke:#1f77b4;" x="40.410306" xlink:href="#m9f6677bd01" y="192.865476"/>
     <use style="fill:#1f77b4;stroke:#1f77b4;" x="51.639528" xlink:href="#m9f6677bd01" y="186.977188"/>
     <use style="fill:#1f77b4;stroke:#1f77b4;" x="62.86875" xlink:href="#m9f6677bd01" y="181.317848"/>
     <use style="fill:#1f77b4;stroke:#1f77b4;" x="74.097972" xlink:href="#m9f6677bd01" y="170.791908"/>
     <use style="fill:#1f77b4;stroke:#1f77b4;" x="85.327194" xlink:href="#m9f6677bd01" y="166.242299"/>
     <use style="fill:#1f77b4;stroke:#1f77b4;" x="96.556416" xlink:href="#m9f6677bd01" y="161.14743"/>
     <use style="fill:#1f77b4;stroke:#1f77b4;" x="107.785638" xlink:href="#m9f6677bd01" y="156.439763"/>
     <use style="fill:#1f77b4;stroke:#1f77b4;" x="119.01486" xlink:href="#m9f6677bd01" y="152.278757"/>
     <use style="fill:#1f77b4;stroke:#1f77b4;" x="130.244082" xlink:href="#m9f6677bd01" y="149.838475"/>
     <use style="fill:#1f77b4;stroke:#1f77b4;" x="141.473305" xlink:href="#m9f6677bd01" y="145.98763"/>
     <use style="fill:#1f77b4;stroke:#1f77b4;" x="152.702527" xlink:href="#m9f6677bd01" y="142.805821"/>
     <use style="fill:#1f77b4;stroke:#1f77b4;" x="163.931749" xlink:href="#m9f6677bd01" y="139.908187"/>
     <use style="fill:#1f77b4;stroke:#1f77b4;" x="175.160971" xlink:href="#m9f6677bd01" y="135.645903"/>
     <use style="fill:#1f77b4;stroke:#1f77b4;" x="186.390193" xlink:href="#m9f6677bd01" y="132.469369"/>
     <use style="fill:#1f77b4;stroke:#1f77b4;" x="197.619415" xlink:href="#m9f6677bd01" y="128.568603"/>
     <use style="fill:#1f77b4;stroke:#1f77b4;" x="208.848637" xlink:href="#m9f6677bd01" y="126.004007"/>
     <use style="fill:#1f77b4;stroke:#1f77b4;" x="220.077859" xlink:href="#m9f6677bd01" y="122.909583"/>
     <use style="fill:#1f77b4;stroke:#1f77b4;" x="231.307081" xlink:href="#m9f6677bd01" y="119.081766"/>
     <use style="fill:#1f77b4;stroke:#1f77b4;" x="242.536303" xlink:href="#m9f6677bd01" y="117.992893"/>
     <use style="fill:#1f77b4;stroke:#1f77b4;" x="253.765525" xlink:href="#m9f6677bd01" y="112.872003"/>
     <use style="fill:#1f77b4;stroke:#1f77b4;" x="264.994747" xlink:href="#m9f6677bd01" y="109.043534"/>
     <use style="fill:#1f77b4;stroke:#1f77b4;" x="276.223969" xlink:href="#m9f6677bd01" y="105.86329"/>
     <use style="fill:#1f77b4;stroke:#1f77b4;" x="287.453192" xlink:href="#m9f6677bd01" y="102.845414"/>
     <use style="fill:#1f77b4;stroke:#1f77b4;" x="298.682414" xlink:href="#m9f6677bd01" y="101.51271"/>
     <use style="fill:#1f77b4;stroke:#1f77b4;" x="309.911636" xlink:href="#m9f6677bd01" y="101.00081"/>
     <use style="fill:#1f77b4;stroke:#1f77b4;" x="321.140858" xlink:href="#m9f6677bd01" y="99.710042"/>
     <use style="fill:#1f77b4;stroke:#1f77b4;" x="332.37008" xlink:href="#m9f6677bd01" y="95.816457"/>
     <use style="fill:#1f77b4;stroke:#1f77b4;" x="343.599302" xlink:href="#m9f6677bd01" y="94.482486"/>
    </g>
   </g>
   <g id="line2d_84">
    <path clip-path="url(#pbd60b5c581)" d="M 46.567819 288.207834 
L 51.639528 280.783144 
L 62.86875 280.783144 
L 74.097972 271.166985 
L 85.327194 259.052056 
L 96.556416 245.111892 
L 107.785638 234.633223 
L 119.01486 225.017064 
L 130.244082 212.902135 
L 141.473305 202.617865 
L 152.702527 200.119096 
L 163.931749 194.202791 
L 175.160971 190.767927 
L 186.390193 184.689522 
L 197.619415 180.365517 
L 208.848637 175.280494 
L 220.077859 167.74054 
L 231.307081 165.161171 
L 242.536303 162.999716 
L 253.765525 158.565785 
L 264.994747 155.24518 
L 276.223969 152.81205 
L 287.453192 149.64517 
L 298.682414 146.478291 
L 309.911636 144.390691 
L 321.140858 142.229892 
L 332.37008 140.47232 
L 343.599302 139.01573 
" style="fill:none;stroke:#ff7f0e;stroke-linecap:square;stroke-width:1.5;"/>
    <g clip-path="url(#pbd60b5c581)">
     <use style="fill:#ff7f0e;stroke:#ff7f0e;" x="29.181084" xlink:href="#md3a0e3e0ba" y="297.222078"/>
     <use style="fill:#ff7f0e;stroke:#ff7f0e;" x="40.410306" xlink:href="#md3a0e3e0ba" y="297.222078"/>
     <use style="fill:#ff7f0e;stroke:#ff7f0e;" x="51.639528" xlink:href="#md3a0e3e0ba" y="280.783144"/>
     <use style="fill:#ff7f0e;stroke:#ff7f0e;" x="62.86875" xlink:href="#md3a0e3e0ba" y="280.783144"/>
     <use style="fill:#ff7f0e;stroke:#ff7f0e;" x="74.097972" xlink:href="#md3a0e3e0ba" y="271.166985"/>
     <use style="fill:#ff7f0e;stroke:#ff7f0e;" x="85.327194" xlink:href="#md3a0e3e0ba" y="259.052056"/>
     <use style="fill:#ff7f0e;stroke:#ff7f0e;" x="96.556416" xlink:href="#md3a0e3e0ba" y="245.111892"/>
     <use style="fill:#ff7f0e;stroke:#ff7f0e;" x="107.785638" xlink:href="#md3a0e3e0ba" y="234.633223"/>
     <use style="fill:#ff7f0e;stroke:#ff7f0e;" x="119.01486" xlink:href="#md3a0e3e0ba" y="225.017064"/>
     <use style="fill:#ff7f0e;stroke:#ff7f0e;" x="130.244082" xlink:href="#md3a0e3e0ba" y="212.902135"/>
     <use style="fill:#ff7f0e;stroke:#ff7f0e;" x="141.473305" xlink:href="#md3a0e3e0ba" y="202.617865"/>
     <use style="fill:#ff7f0e;stroke:#ff7f0e;" x="152.702527" xlink:href="#md3a0e3e0ba" y="200.119096"/>
     <use style="fill:#ff7f0e;stroke:#ff7f0e;" x="163.931749" xlink:href="#md3a0e3e0ba" y="194.202791"/>
     <use style="fill:#ff7f0e;stroke:#ff7f0e;" x="175.160971" xlink:href="#md3a0e3e0ba" y="190.767927"/>
     <use style="fill:#ff7f0e;stroke:#ff7f0e;" x="186.390193" xlink:href="#md3a0e3e0ba" y="184.689522"/>
     <use style="fill:#ff7f0e;stroke:#ff7f0e;" x="197.619415" xlink:href="#md3a0e3e0ba" y="180.365517"/>
     <use style="fill:#ff7f0e;stroke:#ff7f0e;" x="208.848637" xlink:href="#md3a0e3e0ba" y="175.280494"/>
     <use style="fill:#ff7f0e;stroke:#ff7f0e;" x="220.077859" xlink:href="#md3a0e3e0ba" y="167.74054"/>
     <use style="fill:#ff7f0e;stroke:#ff7f0e;" x="231.307081" xlink:href="#md3a0e3e0ba" y="165.161171"/>
     <use style="fill:#ff7f0e;stroke:#ff7f0e;" x="242.536303" xlink:href="#md3a0e3e0ba" y="162.999716"/>
     <use style="fill:#ff7f0e;stroke:#ff7f0e;" x="253.765525" xlink:href="#md3a0e3e0ba" y="158.565785"/>
     <use style="fill:#ff7f0e;stroke:#ff7f0e;" x="264.994747" xlink:href="#md3a0e3e0ba" y="155.24518"/>
     <use style="fill:#ff7f0e;stroke:#ff7f0e;" x="276.223969" xlink:href="#md3a0e3e0ba" y="152.81205"/>
     <use style="fill:#ff7f0e;stroke:#ff7f0e;" x="287.453192" xlink:href="#md3a0e3e0ba" y="149.64517"/>
     <use style="fill:#ff7f0e;stroke:#ff7f0e;" x="298.682414" xlink:href="#md3a0e3e0ba" y="146.478291"/>
     <use style="fill:#ff7f0e;stroke:#ff7f0e;" x="309.911636" xlink:href="#md3a0e3e0ba" y="144.390691"/>
     <use style="fill:#ff7f0e;stroke:#ff7f0e;" x="321.140858" xlink:href="#md3a0e3e0ba" y="142.229892"/>
     <use style="fill:#ff7f0e;stroke:#ff7f0e;" x="332.37008" xlink:href="#md3a0e3e0ba" y="140.47232"/>
     <use style="fill:#ff7f0e;stroke:#ff7f0e;" x="343.599302" xlink:href="#md3a0e3e0ba" y="139.01573"/>
    </g>
   </g>
   <g id="line2d_85">
    <path clip-path="url(#pbd60b5c581)" d="M 58.313825 288.207834 
L 62.86875 281.539686 
L 74.097972 271.923527 
L 85.327194 255.484593 
L 96.556416 248.661819 
L 107.785638 228.147222 
L 119.01486 219.81334 
L 130.244082 215.05416 
L 141.473305 206.667103 
L 152.702527 196.551633 
L 163.931749 187.378783 
L 175.160971 178.366895 
L 186.390193 170.49654 
L 197.619415 164.257327 
L 208.848637 156.974838 
L 220.077859 154.838922 
L 231.307081 151.50948 
L 242.536303 145.374548 
L 253.765525 140.848378 
L 264.994747 135.872868 
L 276.223969 133.176017 
L 287.453192 131.46401 
L 298.682414 128.539231 
L 309.911636 127.016803 
L 321.140858 123.75794 
L 332.37008 121.152306 
L 343.599302 118.730432 
" style="fill:none;stroke:#2ca02c;stroke-linecap:square;stroke-width:1.5;"/>
    <g clip-path="url(#pbd60b5c581)">
     <use style="fill:#2ca02c;stroke:#2ca02c;" x="-1" xlink:href="#m84f656b120" y="297.97862"/>
     <use style="fill:#2ca02c;stroke:#2ca02c;" x="6.72264" xlink:href="#m84f656b120" y="297.97862"/>
     <use style="fill:#2ca02c;stroke:#2ca02c;" x="17.951862" xlink:href="#m84f656b120" y="297.97862"/>
     <use style="fill:#2ca02c;stroke:#2ca02c;" x="29.181084" xlink:href="#m84f656b120" y="297.97862"/>
     <use style="fill:#2ca02c;stroke:#2ca02c;" x="40.410306" xlink:href="#m84f656b120" y="297.97862"/>
     <use style="fill:#2ca02c;stroke:#2ca02c;" x="51.639528" xlink:href="#m84f656b120" y="297.97862"/>
     <use style="fill:#2ca02c;stroke:#2ca02c;" x="62.86875" xlink:href="#m84f656b120" y="281.539686"/>
     <use style="fill:#2ca02c;stroke:#2ca02c;" x="74.097972" xlink:href="#m84f656b120" y="271.923527"/>
     <use style="fill:#2ca02c;stroke:#2ca02c;" x="85.327194" xlink:href="#m84f656b120" y="255.484593"/>
     <use style="fill:#2ca02c;stroke:#2ca02c;" x="96.556416" xlink:href="#m84f656b120" y="248.661819"/>
     <use style="fill:#2ca02c;stroke:#2ca02c;" x="107.785638" xlink:href="#m84f656b120" y="228.147222"/>
     <use style="fill:#2ca02c;stroke:#2ca02c;" x="119.01486" xlink:href="#m84f656b120" y="219.81334"/>
     <use style="fill:#2ca02c;stroke:#2ca02c;" x="130.244082" xlink:href="#m84f656b120" y="215.05416"/>
     <use style="fill:#2ca02c;stroke:#2ca02c;" x="141.473305" xlink:href="#m84f656b120" y="206.667103"/>
     <use style="fill:#2ca02c;stroke:#2ca02c;" x="152.702527" xlink:href="#m84f656b120" y="196.551633"/>
     <use style="fill:#2ca02c;stroke:#2ca02c;" x="163.931749" xlink:href="#m84f656b120" y="187.378783"/>
     <use style="fill:#2ca02c;stroke:#2ca02c;" x="175.160971" xlink:href="#m84f656b120" y="178.366895"/>
     <use style="fill:#2ca02c;stroke:#2ca02c;" x="186.390193" xlink:href="#m84f656b120" y="170.49654"/>
     <use style="fill:#2ca02c;stroke:#2ca02c;" x="197.619415" xlink:href="#m84f656b120" y="164.257327"/>
     <use style="fill:#2ca02c;stroke:#2ca02c;" x="208.848637" xlink:href="#m84f656b120" y="156.974838"/>
     <use style="fill:#2ca02c;stroke:#2ca02c;" x="220.077859" xlink:href="#m84f656b120" y="154.838922"/>
     <use style="fill:#2ca02c;stroke:#2ca02c;" x="231.307081" xlink:href="#m84f656b120" y="151.50948"/>
     <use style="fill:#2ca02c;stroke:#2ca02c;" x="242.536303" xlink:href="#m84f656b120" y="145.374548"/>
     <use style="fill:#2ca02c;stroke:#2ca02c;" x="253.765525" xlink:href="#m84f656b120" y="140.848378"/>
     <use style="fill:#2ca02c;stroke:#2ca02c;" x="264.994747" xlink:href="#m84f656b120" y="135.872868"/>
     <use style="fill:#2ca02c;stroke:#2ca02c;" x="276.223969" xlink:href="#m84f656b120" y="133.176017"/>
     <use style="fill:#2ca02c;stroke:#2ca02c;" x="287.453192" xlink:href="#m84f656b120" y="131.46401"/>
     <use style="fill:#2ca02c;stroke:#2ca02c;" x="298.682414" xlink:href="#m84f656b120" y="128.539231"/>
     <use style="fill:#2ca02c;stroke:#2ca02c;" x="309.911636" xlink:href="#m84f656b120" y="127.016803"/>
     <use style="fill:#2ca02c;stroke:#2ca02c;" x="321.140858" xlink:href="#m84f656b120" y="123.75794"/>
     <use style="fill:#2ca02c;stroke:#2ca02c;" x="332.37008" xlink:href="#m84f656b120" y="121.152306"/>
     <use style="fill:#2ca02c;stroke:#2ca02c;" x="343.599302" xlink:href="#m84f656b120" y="118.730432"/>
    </g>
   </g>
   <g id="line2d_86">
    <path clip-path="url(#pbd60b5c581)" d="M 1.587402 288.207834 
L 6.72264 269.718587 
L 17.951862 253.279653 
L 29.181084 236.84072 
L 40.410306 220.133802 
L 51.639528 215.988116 
L 62.86875 209.053736 
L 74.097972 204.370594 
L 85.327194 198.996329 
L 96.556416 189.343766 
L 107.785638 183.27865 
L 119.01486 174.484001 
L 130.244082 170.159996 
L 141.473305 163.977579 
L 152.702527 155.225777 
L 163.931749 142.176693 
L 175.160971 128.998701 
L 186.390193 116.26808 
L 197.619415 107.322512 
L 208.848637 98.271827 
L 220.077859 90.697665 
L 231.307081 85.798434 
L 242.536303 79.789243 
L 253.765525 75.882619 
L 264.994747 72.674031 
L 276.223969 68.438304 
L 287.453192 65.829482 
L 298.682414 62.97954 
L 309.911636 60.104307 
L 321.140858 57.709567 
L 332.37008 55.323017 
L 343.599302 52.872103 
" style="fill:none;stroke:#d62728;stroke-linecap:square;stroke-width:1.5;"/>
    <g clip-path="url(#pbd60b5c581)">
     <use style="fill:#d62728;stroke:#d62728;" x="-1" xlink:href="#mf3d1a9fb57" y="297.523688"/>
     <use style="fill:#d62728;stroke:#d62728;" x="6.72264" xlink:href="#mf3d1a9fb57" y="269.718587"/>
     <use style="fill:#d62728;stroke:#d62728;" x="17.951862" xlink:href="#mf3d1a9fb57" y="253.279653"/>
     <use style="fill:#d62728;stroke:#d62728;" x="29.181084" xlink:href="#mf3d1a9fb57" y="236.84072"/>
     <use style="fill:#d62728;stroke:#d62728;" x="40.410306" xlink:href="#mf3d1a9fb57" y="220.133802"/>
     <use style="fill:#d62728;stroke:#d62728;" x="51.639528" xlink:href="#mf3d1a9fb57" y="215.988116"/>
     <use style="fill:#d62728;stroke:#d62728;" x="62.86875" xlink:href="#mf3d1a9fb57" y="209.053736"/>
     <use style="fill:#d62728;stroke:#d62728;" x="74.097972" xlink:href="#mf3d1a9fb57" y="204.370594"/>
     <use style="fill:#d62728;stroke:#d62728;" x="85.327194" xlink:href="#mf3d1a9fb57" y="198.996329"/>
     <use style="fill:#d62728;stroke:#d62728;" x="96.556416" xlink:href="#mf3d1a9fb57" y="189.343766"/>
     <use style="fill:#d62728;stroke:#d62728;" x="107.785638" xlink:href="#mf3d1a9fb57" y="183.27865"/>
     <use style="fill:#d62728;stroke:#d62728;" x="119.01486" xlink:href="#mf3d1a9fb57" y="174.484001"/>
     <use style="fill:#d62728;stroke:#d62728;" x="130.244082" xlink:href="#mf3d1a9fb57" y="170.159996"/>
     <use style="fill:#d62728;stroke:#d62728;" x="141.473305" xlink:href="#mf3d1a9fb57" y="163.977579"/>
     <use style="fill:#d62728;stroke:#d62728;" x="152.702527" xlink:href="#mf3d1a9fb57" y="155.225777"/>
     <use style="fill:#d62728;stroke:#d62728;" x="163.931749" xlink:href="#mf3d1a9fb57" y="142.176693"/>
     <use style="fill:#d62728;stroke:#d62728;" x="175.160971" xlink:href="#mf3d1a9fb57" y="128.998701"/>
     <use style="fill:#d62728;stroke:#d62728;" x="186.390193" xlink:href="#mf3d1a9fb57" y="116.26808"/>
     <use style="fill:#d62728;stroke:#d62728;" x="197.619415" xlink:href="#mf3d1a9fb57" y="107.322512"/>
     <use style="fill:#d62728;stroke:#d62728;" x="208.848637" xlink:href="#mf3d1a9fb57" y="98.271827"/>
     <use style="fill:#d62728;stroke:#d62728;" x="220.077859" xlink:href="#mf3d1a9fb57" y="90.697665"/>
     <use style="fill:#d62728;stroke:#d62728;" x="231.307081" xlink:href="#mf3d1a9fb57" y="85.798434"/>
     <use style="fill:#d62728;stroke:#d62728;" x="242.536303" xlink:href="#mf3d1a9fb57" y="79.789243"/>
     <use style="fill:#d62728;stroke:#d62728;" x="253.765525" xlink:href="#mf3d1a9fb57" y="75.882619"/>
     <use style="fill:#d62728;stroke:#d62728;" x="264.994747" xlink:href="#mf3d1a9fb57" y="72.674031"/>
     <use style="fill:#d62728;stroke:#d62728;" x="276.223969" xlink:href="#mf3d1a9fb57" y="68.438304"/>
     <use style="fill:#d62728;stroke:#d62728;" x="287.453192" xlink:href="#mf3d1a9fb57" y="65.829482"/>
     <use style="fill:#d62728;stroke:#d62728;" x="298.682414" xlink:href="#mf3d1a9fb57" y="62.97954"/>
     <use style="fill:#d62728;stroke:#d62728;" x="309.911636" xlink:href="#mf3d1a9fb57" y="60.104307"/>
     <use style="fill:#d62728;stroke:#d62728;" x="321.140858" xlink:href="#mf3d1a9fb57" y="57.709567"/>
     <use style="fill:#d62728;stroke:#d62728;" x="332.37008" xlink:href="#mf3d1a9fb57" y="55.323017"/>
     <use style="fill:#d62728;stroke:#d62728;" x="343.599302" xlink:href="#mf3d1a9fb57" y="52.872103"/>
    </g>
   </g>
   <g id="line2d_87">
    <path clip-path="url(#pbd60b5c581)" d="M 51.639528 257.392325 
L 62.86875 234.130618 
L 74.097972 222.616136 
L 85.327194 220.858564 
L 96.556416 217.691685 
L 107.785638 216.253889 
L 119.01486 214.898299 
L 130.244082 210.139119 
L 141.473305 210.139119 
L 152.702527 203.587392 
L 163.931749 197.177087 
L 175.160971 193.700185 
L 186.390193 193.167211 
L 197.619415 183.376022 
L 208.848637 176.728277 
L 220.077859 173.072383 
L 231.307081 169.127848 
L 242.536303 165.417371 
L 253.765525 160.421469 
L 264.994747 153.96588 
L 276.223969 148.333054 
L 287.453192 145.486671 
L 298.682414 139.969715 
L 309.911636 136.154543 
L 321.140858 133.842236 
L 332.37008 131.188458 
L 343.599302 128.113493 
" style="fill:none;stroke:#9467bd;stroke-linecap:square;stroke-width:1.5;"/>
    <g clip-path="url(#pbd60b5c581)">
     <use style="fill:#9467bd;stroke:#9467bd;" x="51.639528" xlink:href="#m91dc2e85f1" y="257.392325"/>
     <use style="fill:#9467bd;stroke:#9467bd;" x="62.86875" xlink:href="#m91dc2e85f1" y="234.130618"/>
     <use style="fill:#9467bd;stroke:#9467bd;" x="74.097972" xlink:href="#m91dc2e85f1" y="222.616136"/>
     <use style="fill:#9467bd;stroke:#9467bd;" x="85.327194" xlink:href="#m91dc2e85f1" y="220.858564"/>
     <use style="fill:#9467bd;stroke:#9467bd;" x="96.556416" xlink:href="#m91dc2e85f1" y="217.691685"/>
     <use style="fill:#9467bd;stroke:#9467bd;" x="107.785638" xlink:href="#m91dc2e85f1" y="216.253889"/>
     <use style="fill:#9467bd;stroke:#9467bd;" x="119.01486" xlink:href="#m91dc2e85f1" y="214.898299"/>
     <use style="fill:#9467bd;stroke:#9467bd;" x="130.244082" xlink:href="#m91dc2e85f1" y="210.139119"/>
     <use style="fill:#9467bd;stroke:#9467bd;" x="141.473305" xlink:href="#m91dc2e85f1" y="210.139119"/>
     <use style="fill:#9467bd;stroke:#9467bd;" x="152.702527" xlink:href="#m91dc2e85f1" y="203.587392"/>
     <use style="fill:#9467bd;stroke:#9467bd;" x="163.931749" xlink:href="#m91dc2e85f1" y="197.177087"/>
     <use style="fill:#9467bd;stroke:#9467bd;" x="175.160971" xlink:href="#m91dc2e85f1" y="193.700185"/>
     <use style="fill:#9467bd;stroke:#9467bd;" x="186.390193" xlink:href="#m91dc2e85f1" y="193.167211"/>
     <use style="fill:#9467bd;stroke:#9467bd;" x="197.619415" xlink:href="#m91dc2e85f1" y="183.376022"/>
     <use style="fill:#9467bd;stroke:#9467bd;" x="208.848637" xlink:href="#m91dc2e85f1" y="176.728277"/>
     <use style="fill:#9467bd;stroke:#9467bd;" x="220.077859" xlink:href="#m91dc2e85f1" y="173.072383"/>
     <use style="fill:#9467bd;stroke:#9467bd;" x="231.307081" xlink:href="#m91dc2e85f1" y="169.127848"/>
     <use style="fill:#9467bd;stroke:#9467bd;" x="242.536303" xlink:href="#m91dc2e85f1" y="165.417371"/>
     <use style="fill:#9467bd;stroke:#9467bd;" x="253.765525" xlink:href="#m91dc2e85f1" y="160.421469"/>
     <use style="fill:#9467bd;stroke:#9467bd;" x="264.994747" xlink:href="#m91dc2e85f1" y="153.96588"/>
     <use style="fill:#9467bd;stroke:#9467bd;" x="276.223969" xlink:href="#m91dc2e85f1" y="148.333054"/>
     <use style="fill:#9467bd;stroke:#9467bd;" x="287.453192" xlink:href="#m91dc2e85f1" y="145.486671"/>
     <use style="fill:#9467bd;stroke:#9467bd;" x="298.682414" xlink:href="#m91dc2e85f1" y="139.969715"/>
     <use style="fill:#9467bd;stroke:#9467bd;" x="309.911636" xlink:href="#m91dc2e85f1" y="136.154543"/>
     <use style="fill:#9467bd;stroke:#9467bd;" x="321.140858" xlink:href="#m91dc2e85f1" y="133.842236"/>
     <use style="fill:#9467bd;stroke:#9467bd;" x="332.37008" xlink:href="#m91dc2e85f1" y="131.188458"/>
     <use style="fill:#9467bd;stroke:#9467bd;" x="343.599302" xlink:href="#m91dc2e85f1" y="128.113493"/>
    </g>
   </g>
  </g>
 </g>
 <defs>
  <clipPath id="pbd60b5c581">
   <rect height="217.44" width="334.8" x="62.86875" y="22.318125"/>
  </clipPath>
 </defs>
</svg>
