<?xml version="1.0" encoding="utf-8" standalone="no"?>
<!DOCTYPE svg PUBLIC "-//W3C//DTD SVG 1.1//EN"
  "http://www.w3.org/Graphics/SVG/1.1/DTD/svg11.dtd">
<!-- Created with matplotlib (https://matplotlib.org/) -->
<svg height="289.904872pt" version="1.1" viewBox="0 0 404.86875 289.904872" width="404.86875pt" xmlns="http://www.w3.org/2000/svg" xmlns:xlink="http://www.w3.org/1999/xlink">
 <defs>
  <style type="text/css">
*{stroke-linecap:butt;stroke-linejoin:round;}
  </style>
 </defs>
 <g id="figure_1">
  <g id="patch_1">
   <path d="M 0 289.904872 
L 404.86875 289.904872 
L 404.86875 0 
L 0 0 
z
" style="fill:#ffffff;"/>
  </g>
  <g id="axes_1">
   <g id="patch_2">
    <path d="M 62.86875 239.758125 
L 397.66875 239.758125 
L 397.66875 22.318125 
L 62.86875 22.318125 
z
" style="fill:#ffffff;"/>
   </g>
   <g id="matplotlib.axis_1">
    <g id="xtick_1">
     <g id="line2d_1">
      <path clip-path="url(#p163eb95652)" d="M 62.86875 239.758125 
L 62.86875 22.318125 
" style="fill:none;stroke:#b0b0b0;stroke-linecap:square;stroke-opacity:0.8;stroke-width:0.8;"/>
     </g>
     <g id="line2d_2">
      <defs>
       <path d="M 0 0 
L 0 3.5 
" id="m5c34487197" style="stroke:#000000;stroke-width:0.8;"/>
      </defs>
      <g>
       <use style="stroke:#000000;stroke-width:0.8;" x="62.86875" xlink:href="#m5c34487197" y="239.758125"/>
      </g>
     </g>
     <g id="text_1">
      <!-- Mar. -->
      <defs>
       <path d="M 9.8125 72.90625 
L 24.515625 72.90625 
L 43.109375 23.296875 
L 61.8125 72.90625 
L 76.515625 72.90625 
L 76.515625 0 
L 66.890625 0 
L 66.890625 64.015625 
L 48.09375 14.015625 
L 38.1875 14.015625 
L 19.390625 64.015625 
L 19.390625 0 
L 9.8125 0 
z
" id="DejaVuSans-77"/>
       <path d="M 34.28125 27.484375 
Q 23.390625 27.484375 19.1875 25 
Q 14.984375 22.515625 14.984375 16.5 
Q 14.984375 11.71875 18.140625 8.90625 
Q 21.296875 6.109375 26.703125 6.109375 
Q 34.1875 6.109375 38.703125 11.40625 
Q 43.21875 16.703125 43.21875 25.484375 
L 43.21875 27.484375 
z
M 52.203125 31.203125 
L 52.203125 0 
L 43.21875 0 
L 43.21875 8.296875 
Q 40.140625 3.328125 35.546875 0.953125 
Q 30.953125 -1.421875 24.3125 -1.421875 
Q 15.921875 -1.421875 10.953125 3.296875 
Q 6 8.015625 6 15.921875 
Q 6 25.140625 12.171875 29.828125 
Q 18.359375 34.515625 30.609375 34.515625 
L 43.21875 34.515625 
L 43.21875 35.40625 
Q 43.21875 41.609375 39.140625 45 
Q 35.0625 48.390625 27.6875 48.390625 
Q 23 48.390625 18.546875 47.265625 
Q 14.109375 46.140625 10.015625 43.890625 
L 10.015625 52.203125 
Q 14.9375 54.109375 19.578125 55.046875 
Q 24.21875 56 28.609375 56 
Q 40.484375 56 46.34375 49.84375 
Q 52.203125 43.703125 52.203125 31.203125 
z
" id="DejaVuSans-97"/>
       <path d="M 41.109375 46.296875 
Q 39.59375 47.171875 37.8125 47.578125 
Q 36.03125 48 33.890625 48 
Q 26.265625 48 22.1875 43.046875 
Q 18.109375 38.09375 18.109375 28.8125 
L 18.109375 0 
L 9.078125 0 
L 9.078125 54.6875 
L 18.109375 54.6875 
L 18.109375 46.1875 
Q 20.953125 51.171875 25.484375 53.578125 
Q 30.03125 56 36.53125 56 
Q 37.453125 56 38.578125 55.875 
Q 39.703125 55.765625 41.0625 55.515625 
z
" id="DejaVuSans-114"/>
       <path d="M 10.6875 12.40625 
L 21 12.40625 
L 21 0 
L 10.6875 0 
z
" id="DejaVuSans-46"/>
      </defs>
      <g transform="translate(51.853125 254.356563)scale(0.1 -0.1)">
       <use xlink:href="#DejaVuSans-77"/>
       <use x="86.279297" xlink:href="#DejaVuSans-97"/>
       <use x="147.558594" xlink:href="#DejaVuSans-114"/>
       <use x="188.53125" xlink:href="#DejaVuSans-46"/>
      </g>
      <!-- 09 -->
      <defs>
       <path d="M 31.78125 66.40625 
Q 24.171875 66.40625 20.328125 58.90625 
Q 16.5 51.421875 16.5 36.375 
Q 16.5 21.390625 20.328125 13.890625 
Q 24.171875 6.390625 31.78125 6.390625 
Q 39.453125 6.390625 43.28125 13.890625 
Q 47.125 21.390625 47.125 36.375 
Q 47.125 51.421875 43.28125 58.90625 
Q 39.453125 66.40625 31.78125 66.40625 
z
M 31.78125 74.21875 
Q 44.046875 74.21875 50.515625 64.515625 
Q 56.984375 54.828125 56.984375 36.375 
Q 56.984375 17.96875 50.515625 8.265625 
Q 44.046875 -1.421875 31.78125 -1.421875 
Q 19.53125 -1.421875 13.0625 8.265625 
Q 6.59375 17.96875 6.59375 36.375 
Q 6.59375 54.828125 13.0625 64.515625 
Q 19.53125 74.21875 31.78125 74.21875 
z
" id="DejaVuSans-48"/>
       <path d="M 10.984375 1.515625 
L 10.984375 10.5 
Q 14.703125 8.734375 18.5 7.8125 
Q 22.3125 6.890625 25.984375 6.890625 
Q 35.75 6.890625 40.890625 13.453125 
Q 46.046875 20.015625 46.78125 33.40625 
Q 43.953125 29.203125 39.59375 26.953125 
Q 35.25 24.703125 29.984375 24.703125 
Q 19.046875 24.703125 12.671875 31.3125 
Q 6.296875 37.9375 6.296875 49.421875 
Q 6.296875 60.640625 12.9375 67.421875 
Q 19.578125 74.21875 30.609375 74.21875 
Q 43.265625 74.21875 49.921875 64.515625 
Q 56.59375 54.828125 56.59375 36.375 
Q 56.59375 19.140625 48.40625 8.859375 
Q 40.234375 -1.421875 26.421875 -1.421875 
Q 22.703125 -1.421875 18.890625 -0.6875 
Q 15.09375 0.046875 10.984375 1.515625 
z
M 30.609375 32.421875 
Q 37.25 32.421875 41.125 36.953125 
Q 45.015625 41.5 45.015625 49.421875 
Q 45.015625 57.28125 41.125 61.84375 
Q 37.25 66.40625 30.609375 66.40625 
Q 23.96875 66.40625 20.09375 61.84375 
Q 16.21875 57.28125 16.21875 49.421875 
Q 16.21875 41.5 20.09375 36.953125 
Q 23.96875 32.421875 30.609375 32.421875 
z
" id="DejaVuSans-57"/>
      </defs>
      <g transform="translate(56.50625 265.554375)scale(0.1 -0.1)">
       <use xlink:href="#DejaVuSans-48"/>
       <use x="63.623047" xlink:href="#DejaVuSans-57"/>
      </g>
     </g>
    </g>
    <g id="xtick_2">
     <g id="line2d_3">
      <path clip-path="url(#p163eb95652)" d="M 97.766595 239.758125 
L 97.766595 22.318125 
" style="fill:none;stroke:#b0b0b0;stroke-linecap:square;stroke-opacity:0.8;stroke-width:0.8;"/>
     </g>
     <g id="line2d_4">
      <g>
       <use style="stroke:#000000;stroke-width:0.8;" x="97.766595" xlink:href="#m5c34487197" y="239.758125"/>
      </g>
     </g>
     <g id="text_2">
      <!-- Mar. -->
      <g transform="translate(86.75097 254.356563)scale(0.1 -0.1)">
       <use xlink:href="#DejaVuSans-77"/>
       <use x="86.279297" xlink:href="#DejaVuSans-97"/>
       <use x="147.558594" xlink:href="#DejaVuSans-114"/>
       <use x="188.53125" xlink:href="#DejaVuSans-46"/>
      </g>
      <!-- 13 -->
      <defs>
       <path d="M 12.40625 8.296875 
L 28.515625 8.296875 
L 28.515625 63.921875 
L 10.984375 60.40625 
L 10.984375 69.390625 
L 28.421875 72.90625 
L 38.28125 72.90625 
L 38.28125 8.296875 
L 54.390625 8.296875 
L 54.390625 0 
L 12.40625 0 
z
" id="DejaVuSans-49"/>
       <path d="M 40.578125 39.3125 
Q 47.65625 37.796875 51.625 33 
Q 55.609375 28.21875 55.609375 21.1875 
Q 55.609375 10.40625 48.1875 4.484375 
Q 40.765625 -1.421875 27.09375 -1.421875 
Q 22.515625 -1.421875 17.65625 -0.515625 
Q 12.796875 0.390625 7.625 2.203125 
L 7.625 11.71875 
Q 11.71875 9.328125 16.59375 8.109375 
Q 21.484375 6.890625 26.8125 6.890625 
Q 36.078125 6.890625 40.9375 10.546875 
Q 45.796875 14.203125 45.796875 21.1875 
Q 45.796875 27.640625 41.28125 31.265625 
Q 36.765625 34.90625 28.71875 34.90625 
L 20.21875 34.90625 
L 20.21875 43.015625 
L 29.109375 43.015625 
Q 36.375 43.015625 40.234375 45.921875 
Q 44.09375 48.828125 44.09375 54.296875 
Q 44.09375 59.90625 40.109375 62.90625 
Q 36.140625 65.921875 28.71875 65.921875 
Q 24.65625 65.921875 20.015625 65.03125 
Q 15.375 64.15625 9.8125 62.3125 
L 9.8125 71.09375 
Q 15.4375 72.65625 20.34375 73.4375 
Q 25.25 74.21875 29.59375 74.21875 
Q 40.828125 74.21875 47.359375 69.109375 
Q 53.90625 64.015625 53.90625 55.328125 
Q 53.90625 49.265625 50.4375 45.09375 
Q 46.96875 40.921875 40.578125 39.3125 
z
" id="DejaVuSans-51"/>
      </defs>
      <g transform="translate(91.404095 265.554375)scale(0.1 -0.1)">
       <use xlink:href="#DejaVuSans-49"/>
       <use x="63.623047" xlink:href="#DejaVuSans-51"/>
      </g>
     </g>
    </g>
    <g id="xtick_3">
     <g id="line2d_5">
      <path clip-path="url(#p163eb95652)" d="M 132.664441 239.758125 
L 132.664441 22.318125 
" style="fill:none;stroke:#b0b0b0;stroke-linecap:square;stroke-opacity:0.8;stroke-width:0.8;"/>
     </g>
     <g id="line2d_6">
      <g>
       <use style="stroke:#000000;stroke-width:0.8;" x="132.664441" xlink:href="#m5c34487197" y="239.758125"/>
      </g>
     </g>
     <g id="text_3">
      <!-- Mar. -->
      <g transform="translate(121.648816 254.356563)scale(0.1 -0.1)">
       <use xlink:href="#DejaVuSans-77"/>
       <use x="86.279297" xlink:href="#DejaVuSans-97"/>
       <use x="147.558594" xlink:href="#DejaVuSans-114"/>
       <use x="188.53125" xlink:href="#DejaVuSans-46"/>
      </g>
      <!-- 17 -->
      <defs>
       <path d="M 8.203125 72.90625 
L 55.078125 72.90625 
L 55.078125 68.703125 
L 28.609375 0 
L 18.3125 0 
L 43.21875 64.59375 
L 8.203125 64.59375 
z
" id="DejaVuSans-55"/>
      </defs>
      <g transform="translate(126.301941 265.554375)scale(0.1 -0.1)">
       <use xlink:href="#DejaVuSans-49"/>
       <use x="63.623047" xlink:href="#DejaVuSans-55"/>
      </g>
     </g>
    </g>
    <g id="xtick_4">
     <g id="line2d_7">
      <path clip-path="url(#p163eb95652)" d="M 167.562286 239.758125 
L 167.562286 22.318125 
" style="fill:none;stroke:#b0b0b0;stroke-linecap:square;stroke-opacity:0.8;stroke-width:0.8;"/>
     </g>
     <g id="line2d_8">
      <g>
       <use style="stroke:#000000;stroke-width:0.8;" x="167.562286" xlink:href="#m5c34487197" y="239.758125"/>
      </g>
     </g>
     <g id="text_4">
      <!-- Mar. -->
      <g transform="translate(156.546661 254.356563)scale(0.1 -0.1)">
       <use xlink:href="#DejaVuSans-77"/>
       <use x="86.279297" xlink:href="#DejaVuSans-97"/>
       <use x="147.558594" xlink:href="#DejaVuSans-114"/>
       <use x="188.53125" xlink:href="#DejaVuSans-46"/>
      </g>
      <!-- 21 -->
      <defs>
       <path d="M 19.1875 8.296875 
L 53.609375 8.296875 
L 53.609375 0 
L 7.328125 0 
L 7.328125 8.296875 
Q 12.9375 14.109375 22.625 23.890625 
Q 32.328125 33.6875 34.8125 36.53125 
Q 39.546875 41.84375 41.421875 45.53125 
Q 43.3125 49.21875 43.3125 52.78125 
Q 43.3125 58.59375 39.234375 62.25 
Q 35.15625 65.921875 28.609375 65.921875 
Q 23.96875 65.921875 18.8125 64.3125 
Q 13.671875 62.703125 7.8125 59.421875 
L 7.8125 69.390625 
Q 13.765625 71.78125 18.9375 73 
Q 24.125 74.21875 28.421875 74.21875 
Q 39.75 74.21875 46.484375 68.546875 
Q 53.21875 62.890625 53.21875 53.421875 
Q 53.21875 48.921875 51.53125 44.890625 
Q 49.859375 40.875 45.40625 35.40625 
Q 44.1875 33.984375 37.640625 27.21875 
Q 31.109375 20.453125 19.1875 8.296875 
z
" id="DejaVuSans-50"/>
      </defs>
      <g transform="translate(161.199786 265.554375)scale(0.1 -0.1)">
       <use xlink:href="#DejaVuSans-50"/>
       <use x="63.623047" xlink:href="#DejaVuSans-49"/>
      </g>
     </g>
    </g>
    <g id="xtick_5">
     <g id="line2d_9">
      <path clip-path="url(#p163eb95652)" d="M 202.460132 239.758125 
L 202.460132 22.318125 
" style="fill:none;stroke:#b0b0b0;stroke-linecap:square;stroke-opacity:0.8;stroke-width:0.8;"/>
     </g>
     <g id="line2d_10">
      <g>
       <use style="stroke:#000000;stroke-width:0.8;" x="202.460132" xlink:href="#m5c34487197" y="239.758125"/>
      </g>
     </g>
     <g id="text_5">
      <!-- Mar. -->
      <g transform="translate(191.444507 254.356563)scale(0.1 -0.1)">
       <use xlink:href="#DejaVuSans-77"/>
       <use x="86.279297" xlink:href="#DejaVuSans-97"/>
       <use x="147.558594" xlink:href="#DejaVuSans-114"/>
       <use x="188.53125" xlink:href="#DejaVuSans-46"/>
      </g>
      <!-- 25 -->
      <defs>
       <path d="M 10.796875 72.90625 
L 49.515625 72.90625 
L 49.515625 64.59375 
L 19.828125 64.59375 
L 19.828125 46.734375 
Q 21.96875 47.46875 24.109375 47.828125 
Q 26.265625 48.1875 28.421875 48.1875 
Q 40.625 48.1875 47.75 41.5 
Q 54.890625 34.8125 54.890625 23.390625 
Q 54.890625 11.625 47.5625 5.09375 
Q 40.234375 -1.421875 26.90625 -1.421875 
Q 22.3125 -1.421875 17.546875 -0.640625 
Q 12.796875 0.140625 7.71875 1.703125 
L 7.71875 11.625 
Q 12.109375 9.234375 16.796875 8.0625 
Q 21.484375 6.890625 26.703125 6.890625 
Q 35.15625 6.890625 40.078125 11.328125 
Q 45.015625 15.765625 45.015625 23.390625 
Q 45.015625 31 40.078125 35.4375 
Q 35.15625 39.890625 26.703125 39.890625 
Q 22.75 39.890625 18.8125 39.015625 
Q 14.890625 38.140625 10.796875 36.28125 
z
" id="DejaVuSans-53"/>
      </defs>
      <g transform="translate(196.097632 265.554375)scale(0.1 -0.1)">
       <use xlink:href="#DejaVuSans-50"/>
       <use x="63.623047" xlink:href="#DejaVuSans-53"/>
      </g>
     </g>
    </g>
    <g id="xtick_6">
     <g id="line2d_11">
      <path clip-path="url(#p163eb95652)" d="M 237.357977 239.758125 
L 237.357977 22.318125 
" style="fill:none;stroke:#b0b0b0;stroke-linecap:square;stroke-opacity:0.8;stroke-width:0.8;"/>
     </g>
     <g id="line2d_12">
      <g>
       <use style="stroke:#000000;stroke-width:0.8;" x="237.357977" xlink:href="#m5c34487197" y="239.758125"/>
      </g>
     </g>
     <g id="text_6">
      <!-- Mar. -->
      <g transform="translate(226.342352 254.356563)scale(0.1 -0.1)">
       <use xlink:href="#DejaVuSans-77"/>
       <use x="86.279297" xlink:href="#DejaVuSans-97"/>
       <use x="147.558594" xlink:href="#DejaVuSans-114"/>
       <use x="188.53125" xlink:href="#DejaVuSans-46"/>
      </g>
      <!-- 29 -->
      <g transform="translate(230.995477 265.554375)scale(0.1 -0.1)">
       <use xlink:href="#DejaVuSans-50"/>
       <use x="63.623047" xlink:href="#DejaVuSans-57"/>
      </g>
     </g>
    </g>
    <g id="xtick_7">
     <g id="line2d_13">
      <path clip-path="url(#p163eb95652)" d="M 263.531361 239.758125 
L 263.531361 22.318125 
" style="fill:none;stroke:#b0b0b0;stroke-linecap:square;stroke-opacity:0.8;stroke-width:0.8;"/>
     </g>
     <g id="line2d_14">
      <g>
       <use style="stroke:#000000;stroke-width:0.8;" x="263.531361" xlink:href="#m5c34487197" y="239.758125"/>
      </g>
     </g>
     <g id="text_7">
      <!-- Apr. -->
      <defs>
       <path d="M 34.1875 63.1875 
L 20.796875 26.90625 
L 47.609375 26.90625 
z
M 28.609375 72.90625 
L 39.796875 72.90625 
L 67.578125 0 
L 57.328125 0 
L 50.6875 18.703125 
L 17.828125 18.703125 
L 11.1875 0 
L 0.78125 0 
z
" id="DejaVuSans-65"/>
       <path d="M 18.109375 8.203125 
L 18.109375 -20.796875 
L 9.078125 -20.796875 
L 9.078125 54.6875 
L 18.109375 54.6875 
L 18.109375 46.390625 
Q 20.953125 51.265625 25.265625 53.625 
Q 29.59375 56 35.59375 56 
Q 45.5625 56 51.78125 48.09375 
Q 58.015625 40.1875 58.015625 27.296875 
Q 58.015625 14.40625 51.78125 6.484375 
Q 45.5625 -1.421875 35.59375 -1.421875 
Q 29.59375 -1.421875 25.265625 0.953125 
Q 20.953125 3.328125 18.109375 8.203125 
z
M 48.6875 27.296875 
Q 48.6875 37.203125 44.609375 42.84375 
Q 40.53125 48.484375 33.40625 48.484375 
Q 26.265625 48.484375 22.1875 42.84375 
Q 18.109375 37.203125 18.109375 27.296875 
Q 18.109375 17.390625 22.1875 11.75 
Q 26.265625 6.109375 33.40625 6.109375 
Q 40.53125 6.109375 44.609375 11.75 
Q 48.6875 17.390625 48.6875 27.296875 
z
" id="DejaVuSans-112"/>
      </defs>
      <g transform="translate(253.29933 254.356563)scale(0.1 -0.1)">
       <use xlink:href="#DejaVuSans-65"/>
       <use x="68.408203" xlink:href="#DejaVuSans-112"/>
       <use x="131.884766" xlink:href="#DejaVuSans-114"/>
       <use x="172.857422" xlink:href="#DejaVuSans-46"/>
      </g>
      <!-- 01 -->
      <g transform="translate(257.168861 265.554375)scale(0.1 -0.1)">
       <use xlink:href="#DejaVuSans-48"/>
       <use x="63.623047" xlink:href="#DejaVuSans-49"/>
      </g>
     </g>
    </g>
    <g id="xtick_8">
     <g id="line2d_15">
      <path clip-path="url(#p163eb95652)" d="M 298.429207 239.758125 
L 298.429207 22.318125 
" style="fill:none;stroke:#b0b0b0;stroke-linecap:square;stroke-opacity:0.8;stroke-width:0.8;"/>
     </g>
     <g id="line2d_16">
      <g>
       <use style="stroke:#000000;stroke-width:0.8;" x="298.429207" xlink:href="#m5c34487197" y="239.758125"/>
      </g>
     </g>
     <g id="text_8">
      <!-- Apr. -->
      <g transform="translate(288.197176 254.356563)scale(0.1 -0.1)">
       <use xlink:href="#DejaVuSans-65"/>
       <use x="68.408203" xlink:href="#DejaVuSans-112"/>
       <use x="131.884766" xlink:href="#DejaVuSans-114"/>
       <use x="172.857422" xlink:href="#DejaVuSans-46"/>
      </g>
      <!-- 05 -->
      <g transform="translate(292.066707 265.554375)scale(0.1 -0.1)">
       <use xlink:href="#DejaVuSans-48"/>
       <use x="63.623047" xlink:href="#DejaVuSans-53"/>
      </g>
     </g>
    </g>
    <g id="xtick_9">
     <g id="line2d_17">
      <path clip-path="url(#p163eb95652)" d="M 333.327052 239.758125 
L 333.327052 22.318125 
" style="fill:none;stroke:#b0b0b0;stroke-linecap:square;stroke-opacity:0.8;stroke-width:0.8;"/>
     </g>
     <g id="line2d_18">
      <g>
       <use style="stroke:#000000;stroke-width:0.8;" x="333.327052" xlink:href="#m5c34487197" y="239.758125"/>
      </g>
     </g>
     <g id="text_9">
      <!-- Apr. -->
      <g transform="translate(323.095021 254.356563)scale(0.1 -0.1)">
       <use xlink:href="#DejaVuSans-65"/>
       <use x="68.408203" xlink:href="#DejaVuSans-112"/>
       <use x="131.884766" xlink:href="#DejaVuSans-114"/>
       <use x="172.857422" xlink:href="#DejaVuSans-46"/>
      </g>
      <!-- 09 -->
      <g transform="translate(326.964552 265.554375)scale(0.1 -0.1)">
       <use xlink:href="#DejaVuSans-48"/>
       <use x="63.623047" xlink:href="#DejaVuSans-57"/>
      </g>
     </g>
    </g>
    <g id="xtick_10">
     <g id="line2d_19">
      <path clip-path="url(#p163eb95652)" d="M 368.224898 239.758125 
L 368.224898 22.318125 
" style="fill:none;stroke:#b0b0b0;stroke-linecap:square;stroke-opacity:0.8;stroke-width:0.8;"/>
     </g>
     <g id="line2d_20">
      <g>
       <use style="stroke:#000000;stroke-width:0.8;" x="368.224898" xlink:href="#m5c34487197" y="239.758125"/>
      </g>
     </g>
     <g id="text_10">
      <!-- Apr. -->
      <g transform="translate(357.992867 254.356563)scale(0.1 -0.1)">
       <use xlink:href="#DejaVuSans-65"/>
       <use x="68.408203" xlink:href="#DejaVuSans-112"/>
       <use x="131.884766" xlink:href="#DejaVuSans-114"/>
       <use x="172.857422" xlink:href="#DejaVuSans-46"/>
      </g>
      <!-- 13 -->
      <g transform="translate(361.862398 265.554375)scale(0.1 -0.1)">
       <use xlink:href="#DejaVuSans-49"/>
       <use x="63.623047" xlink:href="#DejaVuSans-51"/>
      </g>
     </g>
    </g>
   </g>
   <g id="matplotlib.axis_2">
    <g id="ytick_1">
     <g id="line2d_21">
      <path clip-path="url(#p163eb95652)" d="M 62.86875 239.758125 
L 397.66875 239.758125 
" style="fill:none;stroke:#b0b0b0;stroke-linecap:square;stroke-opacity:0.8;stroke-width:0.8;"/>
     </g>
     <g id="line2d_22">
      <defs>
       <path d="M 0 0 
L -3.5 0 
" id="macb2b680a9" style="stroke:#000000;stroke-width:0.8;"/>
      </defs>
      <g>
       <use style="stroke:#000000;stroke-width:0.8;" x="62.86875" xlink:href="#macb2b680a9" y="239.758125"/>
      </g>
     </g>
     <g id="text_11">
      <!-- 2 -->
      <g transform="translate(49.50625 243.557344)scale(0.1 -0.1)">
       <use xlink:href="#DejaVuSans-50"/>
      </g>
     </g>
    </g>
    <g id="ytick_2">
     <g id="line2d_23">
      <path clip-path="url(#p163eb95652)" d="M 62.86875 220.019728 
L 397.66875 220.019728 
" style="fill:none;stroke:#b0b0b0;stroke-linecap:square;stroke-opacity:0.8;stroke-width:0.8;"/>
     </g>
     <g id="line2d_24">
      <g>
       <use style="stroke:#000000;stroke-width:0.8;" x="62.86875" xlink:href="#macb2b680a9" y="220.019728"/>
      </g>
     </g>
     <g id="text_12">
      <!-- 5 -->
      <g transform="translate(49.50625 223.818946)scale(0.1 -0.1)">
       <use xlink:href="#DejaVuSans-53"/>
      </g>
     </g>
    </g>
    <g id="ytick_3">
     <g id="line2d_25">
      <path clip-path="url(#p163eb95652)" d="M 62.86875 205.088206 
L 397.66875 205.088206 
" style="fill:none;stroke:#b0b0b0;stroke-linecap:square;stroke-opacity:0.8;stroke-width:0.8;"/>
     </g>
     <g id="line2d_26">
      <g>
       <use style="stroke:#000000;stroke-width:0.8;" x="62.86875" xlink:href="#macb2b680a9" y="205.088206"/>
      </g>
     </g>
     <g id="text_13">
      <!-- 10 -->
      <g transform="translate(43.14375 208.887425)scale(0.1 -0.1)">
       <use xlink:href="#DejaVuSans-49"/>
       <use x="63.623047" xlink:href="#DejaVuSans-48"/>
      </g>
     </g>
    </g>
    <g id="ytick_4">
     <g id="line2d_27">
      <path clip-path="url(#p163eb95652)" d="M 62.86875 190.156685 
L 397.66875 190.156685 
" style="fill:none;stroke:#b0b0b0;stroke-linecap:square;stroke-opacity:0.8;stroke-width:0.8;"/>
     </g>
     <g id="line2d_28">
      <g>
       <use style="stroke:#000000;stroke-width:0.8;" x="62.86875" xlink:href="#macb2b680a9" y="190.156685"/>
      </g>
     </g>
     <g id="text_14">
      <!-- 20 -->
      <g transform="translate(43.14375 193.955904)scale(0.1 -0.1)">
       <use xlink:href="#DejaVuSans-50"/>
       <use x="63.623047" xlink:href="#DejaVuSans-48"/>
      </g>
     </g>
    </g>
    <g id="ytick_5">
     <g id="line2d_29">
      <path clip-path="url(#p163eb95652)" d="M 62.86875 170.418288 
L 397.66875 170.418288 
" style="fill:none;stroke:#b0b0b0;stroke-linecap:square;stroke-opacity:0.8;stroke-width:0.8;"/>
     </g>
     <g id="line2d_30">
      <g>
       <use style="stroke:#000000;stroke-width:0.8;" x="62.86875" xlink:href="#macb2b680a9" y="170.418288"/>
      </g>
     </g>
     <g id="text_15">
      <!-- 50 -->
      <g transform="translate(43.14375 174.217507)scale(0.1 -0.1)">
       <use xlink:href="#DejaVuSans-53"/>
       <use x="63.623047" xlink:href="#DejaVuSans-48"/>
      </g>
     </g>
    </g>
    <g id="ytick_6">
     <g id="line2d_31">
      <path clip-path="url(#p163eb95652)" d="M 62.86875 155.486767 
L 397.66875 155.486767 
" style="fill:none;stroke:#b0b0b0;stroke-linecap:square;stroke-opacity:0.8;stroke-width:0.8;"/>
     </g>
     <g id="line2d_32">
      <g>
       <use style="stroke:#000000;stroke-width:0.8;" x="62.86875" xlink:href="#macb2b680a9" y="155.486767"/>
      </g>
     </g>
     <g id="text_16">
      <!-- 100 -->
      <g transform="translate(36.78125 159.285985)scale(0.1 -0.1)">
       <use xlink:href="#DejaVuSans-49"/>
       <use x="63.623047" xlink:href="#DejaVuSans-48"/>
       <use x="127.246094" xlink:href="#DejaVuSans-48"/>
      </g>
     </g>
    </g>
    <g id="ytick_7">
     <g id="line2d_33">
      <path clip-path="url(#p163eb95652)" d="M 62.86875 140.555246 
L 397.66875 140.555246 
" style="fill:none;stroke:#b0b0b0;stroke-linecap:square;stroke-opacity:0.8;stroke-width:0.8;"/>
     </g>
     <g id="line2d_34">
      <g>
       <use style="stroke:#000000;stroke-width:0.8;" x="62.86875" xlink:href="#macb2b680a9" y="140.555246"/>
      </g>
     </g>
     <g id="text_17">
      <!-- 200 -->
      <g transform="translate(36.78125 144.354464)scale(0.1 -0.1)">
       <use xlink:href="#DejaVuSans-50"/>
       <use x="63.623047" xlink:href="#DejaVuSans-48"/>
       <use x="127.246094" xlink:href="#DejaVuSans-48"/>
      </g>
     </g>
    </g>
    <g id="ytick_8">
     <g id="line2d_35">
      <path clip-path="url(#p163eb95652)" d="M 62.86875 120.816848 
L 397.66875 120.816848 
" style="fill:none;stroke:#b0b0b0;stroke-linecap:square;stroke-opacity:0.8;stroke-width:0.8;"/>
     </g>
     <g id="line2d_36">
      <g>
       <use style="stroke:#000000;stroke-width:0.8;" x="62.86875" xlink:href="#macb2b680a9" y="120.816848"/>
      </g>
     </g>
     <g id="text_18">
      <!-- 500 -->
      <g transform="translate(36.78125 124.616067)scale(0.1 -0.1)">
       <use xlink:href="#DejaVuSans-53"/>
       <use x="63.623047" xlink:href="#DejaVuSans-48"/>
       <use x="127.246094" xlink:href="#DejaVuSans-48"/>
      </g>
     </g>
    </g>
    <g id="ytick_9">
     <g id="line2d_37">
      <path clip-path="url(#p163eb95652)" d="M 62.86875 105.885327 
L 397.66875 105.885327 
" style="fill:none;stroke:#b0b0b0;stroke-linecap:square;stroke-opacity:0.8;stroke-width:0.8;"/>
     </g>
     <g id="line2d_38">
      <g>
       <use style="stroke:#000000;stroke-width:0.8;" x="62.86875" xlink:href="#macb2b680a9" y="105.885327"/>
      </g>
     </g>
     <g id="text_19">
      <!-- 1,000 -->
      <defs>
       <path d="M 11.71875 12.40625 
L 22.015625 12.40625 
L 22.015625 4 
L 14.015625 -11.625 
L 7.71875 -11.625 
L 11.71875 4 
z
" id="DejaVuSans-44"/>
      </defs>
      <g transform="translate(27.240625 109.684546)scale(0.1 -0.1)">
       <use xlink:href="#DejaVuSans-49"/>
       <use x="63.623047" xlink:href="#DejaVuSans-44"/>
       <use x="95.410156" xlink:href="#DejaVuSans-48"/>
       <use x="159.033203" xlink:href="#DejaVuSans-48"/>
       <use x="222.65625" xlink:href="#DejaVuSans-48"/>
      </g>
     </g>
    </g>
    <g id="ytick_10">
     <g id="line2d_39">
      <path clip-path="url(#p163eb95652)" d="M 62.86875 90.953806 
L 397.66875 90.953806 
" style="fill:none;stroke:#b0b0b0;stroke-linecap:square;stroke-opacity:0.8;stroke-width:0.8;"/>
     </g>
     <g id="line2d_40">
      <g>
       <use style="stroke:#000000;stroke-width:0.8;" x="62.86875" xlink:href="#macb2b680a9" y="90.953806"/>
      </g>
     </g>
     <g id="text_20">
      <!-- 2,000 -->
      <g transform="translate(27.240625 94.753025)scale(0.1 -0.1)">
       <use xlink:href="#DejaVuSans-50"/>
       <use x="63.623047" xlink:href="#DejaVuSans-44"/>
       <use x="95.410156" xlink:href="#DejaVuSans-48"/>
       <use x="159.033203" xlink:href="#DejaVuSans-48"/>
       <use x="222.65625" xlink:href="#DejaVuSans-48"/>
      </g>
     </g>
    </g>
    <g id="ytick_11">
     <g id="line2d_41">
      <path clip-path="url(#p163eb95652)" d="M 62.86875 71.215408 
L 397.66875 71.215408 
" style="fill:none;stroke:#b0b0b0;stroke-linecap:square;stroke-opacity:0.8;stroke-width:0.8;"/>
     </g>
     <g id="line2d_42">
      <g>
       <use style="stroke:#000000;stroke-width:0.8;" x="62.86875" xlink:href="#macb2b680a9" y="71.215408"/>
      </g>
     </g>
     <g id="text_21">
      <!-- 5,000 -->
      <g transform="translate(27.240625 75.014627)scale(0.1 -0.1)">
       <use xlink:href="#DejaVuSans-53"/>
       <use x="63.623047" xlink:href="#DejaVuSans-44"/>
       <use x="95.410156" xlink:href="#DejaVuSans-48"/>
       <use x="159.033203" xlink:href="#DejaVuSans-48"/>
       <use x="222.65625" xlink:href="#DejaVuSans-48"/>
      </g>
     </g>
    </g>
    <g id="ytick_12">
     <g id="line2d_43">
      <path clip-path="url(#p163eb95652)" d="M 62.86875 56.283887 
L 397.66875 56.283887 
" style="fill:none;stroke:#b0b0b0;stroke-linecap:square;stroke-opacity:0.8;stroke-width:0.8;"/>
     </g>
     <g id="line2d_44">
      <g>
       <use style="stroke:#000000;stroke-width:0.8;" x="62.86875" xlink:href="#macb2b680a9" y="56.283887"/>
      </g>
     </g>
     <g id="text_22">
      <!-- 10,000 -->
      <g transform="translate(20.878125 60.083106)scale(0.1 -0.1)">
       <use xlink:href="#DejaVuSans-49"/>
       <use x="63.623047" xlink:href="#DejaVuSans-48"/>
       <use x="127.246094" xlink:href="#DejaVuSans-44"/>
       <use x="159.033203" xlink:href="#DejaVuSans-48"/>
       <use x="222.65625" xlink:href="#DejaVuSans-48"/>
       <use x="286.279297" xlink:href="#DejaVuSans-48"/>
      </g>
     </g>
    </g>
    <g id="ytick_13">
     <g id="line2d_45">
      <path clip-path="url(#p163eb95652)" d="M 62.86875 41.352366 
L 397.66875 41.352366 
" style="fill:none;stroke:#b0b0b0;stroke-linecap:square;stroke-opacity:0.8;stroke-width:0.8;"/>
     </g>
     <g id="line2d_46">
      <g>
       <use style="stroke:#000000;stroke-width:0.8;" x="62.86875" xlink:href="#macb2b680a9" y="41.352366"/>
      </g>
     </g>
     <g id="text_23">
      <!-- 20,000 -->
      <g transform="translate(20.878125 45.151585)scale(0.1 -0.1)">
       <use xlink:href="#DejaVuSans-50"/>
       <use x="63.623047" xlink:href="#DejaVuSans-48"/>
       <use x="127.246094" xlink:href="#DejaVuSans-44"/>
       <use x="159.033203" xlink:href="#DejaVuSans-48"/>
       <use x="222.65625" xlink:href="#DejaVuSans-48"/>
       <use x="286.279297" xlink:href="#DejaVuSans-48"/>
      </g>
     </g>
    </g>
    <g id="ytick_14">
     <g id="line2d_47">
      <defs>
       <path d="M 0 0 
L -2 0 
" id="m84c7b64dc8" style="stroke:#000000;stroke-width:0.6;"/>
      </defs>
      <g>
       <use style="stroke:#000000;stroke-width:0.6;" x="62.86875" xlink:href="#m84c7b64dc8" y="231.023745"/>
      </g>
     </g>
    </g>
    <g id="ytick_15">
     <g id="line2d_48">
      <g>
       <use style="stroke:#000000;stroke-width:0.6;" x="62.86875" xlink:href="#m84c7b64dc8" y="224.826604"/>
      </g>
     </g>
    </g>
    <g id="ytick_16">
     <g id="line2d_49">
      <g>
       <use style="stroke:#000000;stroke-width:0.6;" x="62.86875" xlink:href="#m84c7b64dc8" y="216.092224"/>
      </g>
     </g>
    </g>
    <g id="ytick_17">
     <g id="line2d_50">
      <g>
       <use style="stroke:#000000;stroke-width:0.6;" x="62.86875" xlink:href="#m84c7b64dc8" y="212.771567"/>
      </g>
     </g>
    </g>
    <g id="ytick_18">
     <g id="line2d_51">
      <g>
       <use style="stroke:#000000;stroke-width:0.6;" x="62.86875" xlink:href="#m84c7b64dc8" y="209.895083"/>
      </g>
     </g>
    </g>
    <g id="ytick_19">
     <g id="line2d_52">
      <g>
       <use style="stroke:#000000;stroke-width:0.6;" x="62.86875" xlink:href="#m84c7b64dc8" y="207.357844"/>
      </g>
     </g>
    </g>
    <g id="ytick_20">
     <g id="line2d_53">
      <g>
       <use style="stroke:#000000;stroke-width:0.6;" x="62.86875" xlink:href="#m84c7b64dc8" y="181.422305"/>
      </g>
     </g>
    </g>
    <g id="ytick_21">
     <g id="line2d_54">
      <g>
       <use style="stroke:#000000;stroke-width:0.6;" x="62.86875" xlink:href="#m84c7b64dc8" y="175.225164"/>
      </g>
     </g>
    </g>
    <g id="ytick_22">
     <g id="line2d_55">
      <g>
       <use style="stroke:#000000;stroke-width:0.6;" x="62.86875" xlink:href="#m84c7b64dc8" y="166.490784"/>
      </g>
     </g>
    </g>
    <g id="ytick_23">
     <g id="line2d_56">
      <g>
       <use style="stroke:#000000;stroke-width:0.6;" x="62.86875" xlink:href="#m84c7b64dc8" y="163.170127"/>
      </g>
     </g>
    </g>
    <g id="ytick_24">
     <g id="line2d_57">
      <g>
       <use style="stroke:#000000;stroke-width:0.6;" x="62.86875" xlink:href="#m84c7b64dc8" y="160.293643"/>
      </g>
     </g>
    </g>
    <g id="ytick_25">
     <g id="line2d_58">
      <g>
       <use style="stroke:#000000;stroke-width:0.6;" x="62.86875" xlink:href="#m84c7b64dc8" y="157.756404"/>
      </g>
     </g>
    </g>
    <g id="ytick_26">
     <g id="line2d_59">
      <g>
       <use style="stroke:#000000;stroke-width:0.6;" x="62.86875" xlink:href="#m84c7b64dc8" y="131.820866"/>
      </g>
     </g>
    </g>
    <g id="ytick_27">
     <g id="line2d_60">
      <g>
       <use style="stroke:#000000;stroke-width:0.6;" x="62.86875" xlink:href="#m84c7b64dc8" y="125.623724"/>
      </g>
     </g>
    </g>
    <g id="ytick_28">
     <g id="line2d_61">
      <g>
       <use style="stroke:#000000;stroke-width:0.6;" x="62.86875" xlink:href="#m84c7b64dc8" y="116.889344"/>
      </g>
     </g>
    </g>
    <g id="ytick_29">
     <g id="line2d_62">
      <g>
       <use style="stroke:#000000;stroke-width:0.6;" x="62.86875" xlink:href="#m84c7b64dc8" y="113.568687"/>
      </g>
     </g>
    </g>
    <g id="ytick_30">
     <g id="line2d_63">
      <g>
       <use style="stroke:#000000;stroke-width:0.6;" x="62.86875" xlink:href="#m84c7b64dc8" y="110.692203"/>
      </g>
     </g>
    </g>
    <g id="ytick_31">
     <g id="line2d_64">
      <g>
       <use style="stroke:#000000;stroke-width:0.6;" x="62.86875" xlink:href="#m84c7b64dc8" y="108.154964"/>
      </g>
     </g>
    </g>
    <g id="ytick_32">
     <g id="line2d_65">
      <g>
       <use style="stroke:#000000;stroke-width:0.6;" x="62.86875" xlink:href="#m84c7b64dc8" y="82.219426"/>
      </g>
     </g>
    </g>
    <g id="ytick_33">
     <g id="line2d_66">
      <g>
       <use style="stroke:#000000;stroke-width:0.6;" x="62.86875" xlink:href="#m84c7b64dc8" y="76.022285"/>
      </g>
     </g>
    </g>
    <g id="ytick_34">
     <g id="line2d_67">
      <g>
       <use style="stroke:#000000;stroke-width:0.6;" x="62.86875" xlink:href="#m84c7b64dc8" y="67.287905"/>
      </g>
     </g>
    </g>
    <g id="ytick_35">
     <g id="line2d_68">
      <g>
       <use style="stroke:#000000;stroke-width:0.6;" x="62.86875" xlink:href="#m84c7b64dc8" y="63.967248"/>
      </g>
     </g>
    </g>
    <g id="ytick_36">
     <g id="line2d_69">
      <g>
       <use style="stroke:#000000;stroke-width:0.6;" x="62.86875" xlink:href="#m84c7b64dc8" y="61.090763"/>
      </g>
     </g>
    </g>
    <g id="ytick_37">
     <g id="line2d_70">
      <g>
       <use style="stroke:#000000;stroke-width:0.6;" x="62.86875" xlink:href="#m84c7b64dc8" y="58.553525"/>
      </g>
     </g>
    </g>
    <g id="ytick_38">
     <g id="line2d_71">
      <g>
       <use style="stroke:#000000;stroke-width:0.6;" x="62.86875" xlink:href="#m84c7b64dc8" y="32.617986"/>
      </g>
     </g>
    </g>
    <g id="ytick_39">
     <g id="line2d_72">
      <g>
       <use style="stroke:#000000;stroke-width:0.6;" x="62.86875" xlink:href="#m84c7b64dc8" y="26.420845"/>
      </g>
     </g>
    </g>
    <g id="text_24">
     <!-- Total cases per million -->
     <defs>
      <path d="M -0.296875 72.90625 
L 61.375 72.90625 
L 61.375 64.59375 
L 35.5 64.59375 
L 35.5 0 
L 25.59375 0 
L 25.59375 64.59375 
L -0.296875 64.59375 
z
" id="DejaVuSans-84"/>
      <path d="M 30.609375 48.390625 
Q 23.390625 48.390625 19.1875 42.75 
Q 14.984375 37.109375 14.984375 27.296875 
Q 14.984375 17.484375 19.15625 11.84375 
Q 23.34375 6.203125 30.609375 6.203125 
Q 37.796875 6.203125 41.984375 11.859375 
Q 46.1875 17.53125 46.1875 27.296875 
Q 46.1875 37.015625 41.984375 42.703125 
Q 37.796875 48.390625 30.609375 48.390625 
z
M 30.609375 56 
Q 42.328125 56 49.015625 48.375 
Q 55.71875 40.765625 55.71875 27.296875 
Q 55.71875 13.875 49.015625 6.21875 
Q 42.328125 -1.421875 30.609375 -1.421875 
Q 18.84375 -1.421875 12.171875 6.21875 
Q 5.515625 13.875 5.515625 27.296875 
Q 5.515625 40.765625 12.171875 48.375 
Q 18.84375 56 30.609375 56 
z
" id="DejaVuSans-111"/>
      <path d="M 18.3125 70.21875 
L 18.3125 54.6875 
L 36.8125 54.6875 
L 36.8125 47.703125 
L 18.3125 47.703125 
L 18.3125 18.015625 
Q 18.3125 11.328125 20.140625 9.421875 
Q 21.96875 7.515625 27.59375 7.515625 
L 36.8125 7.515625 
L 36.8125 0 
L 27.59375 0 
Q 17.1875 0 13.234375 3.875 
Q 9.28125 7.765625 9.28125 18.015625 
L 9.28125 47.703125 
L 2.6875 47.703125 
L 2.6875 54.6875 
L 9.28125 54.6875 
L 9.28125 70.21875 
z
" id="DejaVuSans-116"/>
      <path d="M 9.421875 75.984375 
L 18.40625 75.984375 
L 18.40625 0 
L 9.421875 0 
z
" id="DejaVuSans-108"/>
      <path id="DejaVuSans-32"/>
      <path d="M 48.78125 52.59375 
L 48.78125 44.1875 
Q 44.96875 46.296875 41.140625 47.34375 
Q 37.3125 48.390625 33.40625 48.390625 
Q 24.65625 48.390625 19.8125 42.84375 
Q 14.984375 37.3125 14.984375 27.296875 
Q 14.984375 17.28125 19.8125 11.734375 
Q 24.65625 6.203125 33.40625 6.203125 
Q 37.3125 6.203125 41.140625 7.25 
Q 44.96875 8.296875 48.78125 10.40625 
L 48.78125 2.09375 
Q 45.015625 0.34375 40.984375 -0.53125 
Q 36.96875 -1.421875 32.421875 -1.421875 
Q 20.0625 -1.421875 12.78125 6.34375 
Q 5.515625 14.109375 5.515625 27.296875 
Q 5.515625 40.671875 12.859375 48.328125 
Q 20.21875 56 33.015625 56 
Q 37.15625 56 41.109375 55.140625 
Q 45.0625 54.296875 48.78125 52.59375 
z
" id="DejaVuSans-99"/>
      <path d="M 44.28125 53.078125 
L 44.28125 44.578125 
Q 40.484375 46.53125 36.375 47.5 
Q 32.28125 48.484375 27.875 48.484375 
Q 21.1875 48.484375 17.84375 46.4375 
Q 14.5 44.390625 14.5 40.28125 
Q 14.5 37.15625 16.890625 35.375 
Q 19.28125 33.59375 26.515625 31.984375 
L 29.59375 31.296875 
Q 39.15625 29.25 43.1875 25.515625 
Q 47.21875 21.78125 47.21875 15.09375 
Q 47.21875 7.46875 41.1875 3.015625 
Q 35.15625 -1.421875 24.609375 -1.421875 
Q 20.21875 -1.421875 15.453125 -0.5625 
Q 10.6875 0.296875 5.421875 2 
L 5.421875 11.28125 
Q 10.40625 8.6875 15.234375 7.390625 
Q 20.0625 6.109375 24.8125 6.109375 
Q 31.15625 6.109375 34.5625 8.28125 
Q 37.984375 10.453125 37.984375 14.40625 
Q 37.984375 18.0625 35.515625 20.015625 
Q 33.0625 21.96875 24.703125 23.78125 
L 21.578125 24.515625 
Q 13.234375 26.265625 9.515625 29.90625 
Q 5.8125 33.546875 5.8125 39.890625 
Q 5.8125 47.609375 11.28125 51.796875 
Q 16.75 56 26.8125 56 
Q 31.78125 56 36.171875 55.265625 
Q 40.578125 54.546875 44.28125 53.078125 
z
" id="DejaVuSans-115"/>
      <path d="M 56.203125 29.59375 
L 56.203125 25.203125 
L 14.890625 25.203125 
Q 15.484375 15.921875 20.484375 11.0625 
Q 25.484375 6.203125 34.421875 6.203125 
Q 39.59375 6.203125 44.453125 7.46875 
Q 49.3125 8.734375 54.109375 11.28125 
L 54.109375 2.78125 
Q 49.265625 0.734375 44.1875 -0.34375 
Q 39.109375 -1.421875 33.890625 -1.421875 
Q 20.796875 -1.421875 13.15625 6.1875 
Q 5.515625 13.8125 5.515625 26.8125 
Q 5.515625 40.234375 12.765625 48.109375 
Q 20.015625 56 32.328125 56 
Q 43.359375 56 49.78125 48.890625 
Q 56.203125 41.796875 56.203125 29.59375 
z
M 47.21875 32.234375 
Q 47.125 39.59375 43.09375 43.984375 
Q 39.0625 48.390625 32.421875 48.390625 
Q 24.90625 48.390625 20.390625 44.140625 
Q 15.875 39.890625 15.1875 32.171875 
z
" id="DejaVuSans-101"/>
      <path d="M 52 44.1875 
Q 55.375 50.25 60.0625 53.125 
Q 64.75 56 71.09375 56 
Q 79.640625 56 84.28125 50.015625 
Q 88.921875 44.046875 88.921875 33.015625 
L 88.921875 0 
L 79.890625 0 
L 79.890625 32.71875 
Q 79.890625 40.578125 77.09375 44.375 
Q 74.3125 48.1875 68.609375 48.1875 
Q 61.625 48.1875 57.5625 43.546875 
Q 53.515625 38.921875 53.515625 30.90625 
L 53.515625 0 
L 44.484375 0 
L 44.484375 32.71875 
Q 44.484375 40.625 41.703125 44.40625 
Q 38.921875 48.1875 33.109375 48.1875 
Q 26.21875 48.1875 22.15625 43.53125 
Q 18.109375 38.875 18.109375 30.90625 
L 18.109375 0 
L 9.078125 0 
L 9.078125 54.6875 
L 18.109375 54.6875 
L 18.109375 46.1875 
Q 21.1875 51.21875 25.484375 53.609375 
Q 29.78125 56 35.6875 56 
Q 41.65625 56 45.828125 52.96875 
Q 50 49.953125 52 44.1875 
z
" id="DejaVuSans-109"/>
      <path d="M 9.421875 54.6875 
L 18.40625 54.6875 
L 18.40625 0 
L 9.421875 0 
z
M 9.421875 75.984375 
L 18.40625 75.984375 
L 18.40625 64.59375 
L 9.421875 64.59375 
z
" id="DejaVuSans-105"/>
      <path d="M 54.890625 33.015625 
L 54.890625 0 
L 45.90625 0 
L 45.90625 32.71875 
Q 45.90625 40.484375 42.875 44.328125 
Q 39.84375 48.1875 33.796875 48.1875 
Q 26.515625 48.1875 22.3125 43.546875 
Q 18.109375 38.921875 18.109375 30.90625 
L 18.109375 0 
L 9.078125 0 
L 9.078125 54.6875 
L 18.109375 54.6875 
L 18.109375 46.1875 
Q 21.34375 51.125 25.703125 53.5625 
Q 30.078125 56 35.796875 56 
Q 45.21875 56 50.046875 50.171875 
Q 54.890625 44.34375 54.890625 33.015625 
z
" id="DejaVuSans-110"/>
     </defs>
     <g transform="translate(14.798438 187.37875)rotate(-90)scale(0.1 -0.1)">
      <use xlink:href="#DejaVuSans-84"/>
      <use x="60.818359" xlink:href="#DejaVuSans-111"/>
      <use x="122" xlink:href="#DejaVuSans-116"/>
      <use x="161.208984" xlink:href="#DejaVuSans-97"/>
      <use x="222.488281" xlink:href="#DejaVuSans-108"/>
      <use x="250.271484" xlink:href="#DejaVuSans-32"/>
      <use x="282.058594" xlink:href="#DejaVuSans-99"/>
      <use x="337.039062" xlink:href="#DejaVuSans-97"/>
      <use x="398.318359" xlink:href="#DejaVuSans-115"/>
      <use x="450.417969" xlink:href="#DejaVuSans-101"/>
      <use x="511.941406" xlink:href="#DejaVuSans-115"/>
      <use x="564.041016" xlink:href="#DejaVuSans-32"/>
      <use x="595.828125" xlink:href="#DejaVuSans-112"/>
      <use x="659.304688" xlink:href="#DejaVuSans-101"/>
      <use x="720.828125" xlink:href="#DejaVuSans-114"/>
      <use x="761.941406" xlink:href="#DejaVuSans-32"/>
      <use x="793.728516" xlink:href="#DejaVuSans-109"/>
      <use x="891.140625" xlink:href="#DejaVuSans-105"/>
      <use x="918.923828" xlink:href="#DejaVuSans-108"/>
      <use x="946.707031" xlink:href="#DejaVuSans-108"/>
      <use x="974.490234" xlink:href="#DejaVuSans-105"/>
      <use x="1002.273438" xlink:href="#DejaVuSans-111"/>
      <use x="1063.455078" xlink:href="#DejaVuSans-110"/>
     </g>
    </g>
   </g>
   <g id="line2d_73">
    <path clip-path="url(#p163eb95652)" d="M 324.602591 61.970474 
L 333.327052 60.614328 
L 342.051514 59.258181 
L 350.775975 57.902034 
" style="fill:none;stroke:#7f7f7f;stroke-dasharray:7.4,3.2;stroke-dashoffset:0;stroke-width:2;"/>
   </g>
   <g id="line2d_74">
    <path clip-path="url(#p163eb95652)" d="M 324.602591 69.795461 
L 333.327052 68.333211 
L 342.051514 66.870961 
L 350.775975 65.408711 
" style="fill:none;stroke:#7f7f7f;stroke-dasharray:7.4,3.2;stroke-dashoffset:0;stroke-width:2;"/>
   </g>
   <g id="line2d_75">
    <path clip-path="url(#p163eb95652)" d="M 324.602591 106.276909 
L 333.327052 104.855403 
L 342.051514 103.433897 
L 350.775975 102.012392 
" style="fill:none;stroke:#7f7f7f;stroke-dasharray:7.4,3.2;stroke-dashoffset:0;stroke-width:2;"/>
   </g>
   <g id="line2d_76">
    <path clip-path="url(#p163eb95652)" d="M 324.602591 112.649256 
L 333.327052 111.283108 
L 342.051514 109.916961 
L 350.775975 108.550813 
" style="fill:none;stroke:#7f7f7f;stroke-dasharray:7.4,3.2;stroke-dashoffset:0;stroke-width:2;"/>
   </g>
   <g id="line2d_77">
    <path clip-path="url(#p163eb95652)" d="M 324.602591 127.720055 
L 333.327052 125.733163 
L 342.051514 123.74627 
L 350.775975 121.759378 
" style="fill:none;stroke:#7f7f7f;stroke-dasharray:7.4,3.2;stroke-dashoffset:0;stroke-width:2;"/>
   </g>
   <g id="patch_3">
    <path d="M 62.86875 239.758125 
L 62.86875 22.318125 
" style="fill:none;stroke:#000000;stroke-linecap:square;stroke-linejoin:miter;stroke-width:0.8;"/>
   </g>
   <g id="patch_4">
    <path d="M 397.66875 239.758125 
L 397.66875 22.318125 
" style="fill:none;stroke:#000000;stroke-linecap:square;stroke-linejoin:miter;stroke-width:0.8;"/>
   </g>
   <g id="patch_5">
    <path d="M 62.86875 239.758125 
L 397.66875 239.758125 
" style="fill:none;stroke:#000000;stroke-linecap:square;stroke-linejoin:miter;stroke-width:0.8;"/>
   </g>
   <g id="patch_6">
    <path d="M 62.86875 22.318125 
L 397.66875 22.318125 
" style="fill:none;stroke:#000000;stroke-linecap:square;stroke-linejoin:miter;stroke-width:0.8;"/>
   </g>
   <g id="text_25">
    <!-- © Scott Sievert -->
    <defs>
     <path d="M 50 72.515625 
Q 57.421875 72.515625 63.84375 69.828125 
Q 70.265625 67.140625 75.59375 61.8125 
Q 80.90625 56.5 83.546875 50.09375 
Q 86.1875 43.703125 86.1875 36.1875 
Q 86.1875 28.765625 83.546875 22.390625 
Q 80.90625 16.015625 75.59375 10.6875 
Q 70.265625 5.375 63.84375 2.6875 
Q 57.421875 0 50 0 
Q 42.578125 0 36.15625 2.6875 
Q 29.734375 5.375 24.421875 10.6875 
Q 19.09375 16.015625 16.453125 22.390625 
Q 13.8125 28.765625 13.8125 36.1875 
Q 13.8125 43.703125 16.453125 50.09375 
Q 19.09375 56.5 24.421875 61.8125 
Q 29.734375 67.140625 36.15625 69.828125 
Q 42.578125 72.515625 50 72.515625 
z
M 50 67.484375 
Q 43.609375 67.484375 38.078125 65.1875 
Q 32.5625 62.890625 27.984375 58.296875 
Q 23.390625 53.71875 21.046875 48.125 
Q 18.703125 42.53125 18.703125 36.1875 
Q 18.703125 29.890625 21.046875 24.34375 
Q 23.390625 18.796875 27.984375 14.203125 
Q 32.5625 9.625 38.078125 7.296875 
Q 43.609375 4.984375 50 4.984375 
Q 56.453125 4.984375 61.984375 7.296875 
Q 67.53125 9.625 72.125 14.203125 
Q 76.65625 18.75 78.921875 24.265625 
Q 81.203125 29.78125 81.203125 36.1875 
Q 81.203125 42.671875 78.90625 48.21875 
Q 76.609375 53.765625 72.125 58.296875 
Q 67.53125 62.890625 61.984375 65.1875 
Q 56.453125 67.484375 50 67.484375 
z
M 64.59375 55.515625 
L 64.59375 49.21875 
Q 61.375 50.828125 58.203125 51.609375 
Q 55.03125 52.390625 51.8125 52.390625 
Q 44.53125 52.390625 40.453125 48.109375 
Q 36.375 43.84375 36.375 36.1875 
Q 36.375 28.421875 40.546875 24.171875 
Q 44.734375 19.921875 52.296875 19.921875 
Q 55.421875 19.921875 58.390625 20.671875 
Q 61.375 21.4375 64.59375 23.09375 
L 64.59375 16.890625 
Q 61.328125 15.484375 57.984375 14.796875 
Q 54.640625 14.109375 51.21875 14.109375 
Q 40.671875 14.109375 34.546875 20.0625 
Q 28.421875 26.03125 28.421875 36.1875 
Q 28.421875 46.390625 34.546875 52.296875 
Q 40.671875 58.203125 51.21875 58.203125 
Q 54.78125 58.203125 58.09375 57.515625 
Q 61.421875 56.84375 64.59375 55.515625 
z
" id="DejaVuSans-169"/>
     <path d="M 53.515625 70.515625 
L 53.515625 60.890625 
Q 47.90625 63.578125 42.921875 64.890625 
Q 37.9375 66.21875 33.296875 66.21875 
Q 25.25 66.21875 20.875 63.09375 
Q 16.5 59.96875 16.5 54.203125 
Q 16.5 49.359375 19.40625 46.890625 
Q 22.3125 44.4375 30.421875 42.921875 
L 36.375 41.703125 
Q 47.40625 39.59375 52.65625 34.296875 
Q 57.90625 29 57.90625 20.125 
Q 57.90625 9.515625 50.796875 4.046875 
Q 43.703125 -1.421875 29.984375 -1.421875 
Q 24.8125 -1.421875 18.96875 -0.25 
Q 13.140625 0.921875 6.890625 3.21875 
L 6.890625 13.375 
Q 12.890625 10.015625 18.65625 8.296875 
Q 24.421875 6.59375 29.984375 6.59375 
Q 38.421875 6.59375 43.015625 9.90625 
Q 47.609375 13.234375 47.609375 19.390625 
Q 47.609375 24.75 44.3125 27.78125 
Q 41.015625 30.8125 33.5 32.328125 
L 27.484375 33.5 
Q 16.453125 35.6875 11.515625 40.375 
Q 6.59375 45.0625 6.59375 53.421875 
Q 6.59375 63.09375 13.40625 68.65625 
Q 20.21875 74.21875 32.171875 74.21875 
Q 37.3125 74.21875 42.625 73.28125 
Q 47.953125 72.359375 53.515625 70.515625 
z
" id="DejaVuSans-83"/>
     <path d="M 2.984375 54.6875 
L 12.5 54.6875 
L 29.59375 8.796875 
L 46.6875 54.6875 
L 56.203125 54.6875 
L 35.6875 0 
L 23.484375 0 
z
" id="DejaVuSans-118"/>
    </defs>
    <g style="opacity:0.3;" transform="translate(319.148598 280.625185)scale(0.1 -0.1)">
     <use xlink:href="#DejaVuSans-169"/>
     <use x="100" xlink:href="#DejaVuSans-32"/>
     <use x="131.787109" xlink:href="#DejaVuSans-83"/>
     <use x="195.263672" xlink:href="#DejaVuSans-99"/>
     <use x="250.244141" xlink:href="#DejaVuSans-111"/>
     <use x="311.425781" xlink:href="#DejaVuSans-116"/>
     <use x="350.634766" xlink:href="#DejaVuSans-116"/>
     <use x="389.84375" xlink:href="#DejaVuSans-32"/>
     <use x="421.630859" xlink:href="#DejaVuSans-83"/>
     <use x="485.107422" xlink:href="#DejaVuSans-105"/>
     <use x="512.890625" xlink:href="#DejaVuSans-101"/>
     <use x="574.414062" xlink:href="#DejaVuSans-118"/>
     <use x="633.59375" xlink:href="#DejaVuSans-101"/>
     <use x="695.117188" xlink:href="#DejaVuSans-114"/>
     <use x="736.230469" xlink:href="#DejaVuSans-116"/>
    </g>
   </g>
   <g id="text_26">
    <!-- State infection rates -->
    <defs>
     <path d="M 37.109375 75.984375 
L 37.109375 68.5 
L 28.515625 68.5 
Q 23.6875 68.5 21.796875 66.546875 
Q 19.921875 64.59375 19.921875 59.515625 
L 19.921875 54.6875 
L 34.71875 54.6875 
L 34.71875 47.703125 
L 19.921875 47.703125 
L 19.921875 0 
L 10.890625 0 
L 10.890625 47.703125 
L 2.296875 47.703125 
L 2.296875 54.6875 
L 10.890625 54.6875 
L 10.890625 58.5 
Q 10.890625 67.625 15.140625 71.796875 
Q 19.390625 75.984375 28.609375 75.984375 
z
" id="DejaVuSans-102"/>
    </defs>
    <g transform="translate(169.194375 16.318125)scale(0.12 -0.12)">
     <use xlink:href="#DejaVuSans-83"/>
     <use x="63.476562" xlink:href="#DejaVuSans-116"/>
     <use x="102.685547" xlink:href="#DejaVuSans-97"/>
     <use x="163.964844" xlink:href="#DejaVuSans-116"/>
     <use x="203.173828" xlink:href="#DejaVuSans-101"/>
     <use x="264.697266" xlink:href="#DejaVuSans-32"/>
     <use x="296.484375" xlink:href="#DejaVuSans-105"/>
     <use x="324.267578" xlink:href="#DejaVuSans-110"/>
     <use x="387.646484" xlink:href="#DejaVuSans-102"/>
     <use x="422.851562" xlink:href="#DejaVuSans-101"/>
     <use x="484.375" xlink:href="#DejaVuSans-99"/>
     <use x="539.355469" xlink:href="#DejaVuSans-116"/>
     <use x="578.564453" xlink:href="#DejaVuSans-105"/>
     <use x="606.347656" xlink:href="#DejaVuSans-111"/>
     <use x="667.529297" xlink:href="#DejaVuSans-110"/>
     <use x="730.908203" xlink:href="#DejaVuSans-32"/>
     <use x="762.695312" xlink:href="#DejaVuSans-114"/>
     <use x="803.808594" xlink:href="#DejaVuSans-97"/>
     <use x="865.087891" xlink:href="#DejaVuSans-116"/>
     <use x="904.296875" xlink:href="#DejaVuSans-101"/>
     <use x="965.820312" xlink:href="#DejaVuSans-115"/>
    </g>
   </g>
   <g id="legend_1">
    <g id="patch_7">
     <path d="M 272.401563 234.758125 
L 390.66875 234.758125 
Q 392.66875 234.758125 392.66875 232.758125 
L 392.66875 145.6675 
Q 392.66875 143.6675 390.66875 143.6675 
L 272.401563 143.6675 
Q 270.401563 143.6675 270.401563 145.6675 
L 270.401563 232.758125 
Q 270.401563 234.758125 272.401563 234.758125 
z
" style="fill:#ffffff;opacity:0.8;stroke:#cccccc;stroke-linejoin:miter;"/>
    </g>
    <g id="text_27">
     <!-- State (cases in 7 days) -->
     <defs>
      <path d="M 31 75.875 
Q 24.46875 64.65625 21.28125 53.65625 
Q 18.109375 42.671875 18.109375 31.390625 
Q 18.109375 20.125 21.3125 9.0625 
Q 24.515625 -2 31 -13.1875 
L 23.1875 -13.1875 
Q 15.875 -1.703125 12.234375 9.375 
Q 8.59375 20.453125 8.59375 31.390625 
Q 8.59375 42.28125 12.203125 53.3125 
Q 15.828125 64.359375 23.1875 75.875 
z
" id="DejaVuSans-40"/>
      <path d="M 45.40625 46.390625 
L 45.40625 75.984375 
L 54.390625 75.984375 
L 54.390625 0 
L 45.40625 0 
L 45.40625 8.203125 
Q 42.578125 3.328125 38.25 0.953125 
Q 33.9375 -1.421875 27.875 -1.421875 
Q 17.96875 -1.421875 11.734375 6.484375 
Q 5.515625 14.40625 5.515625 27.296875 
Q 5.515625 40.1875 11.734375 48.09375 
Q 17.96875 56 27.875 56 
Q 33.9375 56 38.25 53.625 
Q 42.578125 51.265625 45.40625 46.390625 
z
M 14.796875 27.296875 
Q 14.796875 17.390625 18.875 11.75 
Q 22.953125 6.109375 30.078125 6.109375 
Q 37.203125 6.109375 41.296875 11.75 
Q 45.40625 17.390625 45.40625 27.296875 
Q 45.40625 37.203125 41.296875 42.84375 
Q 37.203125 48.484375 30.078125 48.484375 
Q 22.953125 48.484375 18.875 42.84375 
Q 14.796875 37.203125 14.796875 27.296875 
z
" id="DejaVuSans-100"/>
      <path d="M 32.171875 -5.078125 
Q 28.375 -14.84375 24.75 -17.8125 
Q 21.140625 -20.796875 15.09375 -20.796875 
L 7.90625 -20.796875 
L 7.90625 -13.28125 
L 13.1875 -13.28125 
Q 16.890625 -13.28125 18.9375 -11.515625 
Q 21 -9.765625 23.484375 -3.21875 
L 25.09375 0.875 
L 2.984375 54.6875 
L 12.5 54.6875 
L 29.59375 11.921875 
L 46.6875 54.6875 
L 56.203125 54.6875 
z
" id="DejaVuSans-121"/>
      <path d="M 8.015625 75.875 
L 15.828125 75.875 
Q 23.140625 64.359375 26.78125 53.3125 
Q 30.421875 42.28125 30.421875 31.390625 
Q 30.421875 20.453125 26.78125 9.375 
Q 23.140625 -1.703125 15.828125 -13.1875 
L 8.015625 -13.1875 
Q 14.5 -2 17.703125 9.0625 
Q 20.90625 20.125 20.90625 31.390625 
Q 20.90625 42.671875 17.703125 53.65625 
Q 14.5 64.65625 8.015625 75.875 
z
" id="DejaVuSans-41"/>
     </defs>
     <g transform="translate(274.401563 155.265938)scale(0.1 -0.1)">
      <use xlink:href="#DejaVuSans-83"/>
      <use x="63.476562" xlink:href="#DejaVuSans-116"/>
      <use x="102.685547" xlink:href="#DejaVuSans-97"/>
      <use x="163.964844" xlink:href="#DejaVuSans-116"/>
      <use x="203.173828" xlink:href="#DejaVuSans-101"/>
      <use x="264.697266" xlink:href="#DejaVuSans-32"/>
      <use x="296.484375" xlink:href="#DejaVuSans-40"/>
      <use x="335.498047" xlink:href="#DejaVuSans-99"/>
      <use x="390.478516" xlink:href="#DejaVuSans-97"/>
      <use x="451.757812" xlink:href="#DejaVuSans-115"/>
      <use x="503.857422" xlink:href="#DejaVuSans-101"/>
      <use x="565.380859" xlink:href="#DejaVuSans-115"/>
      <use x="617.480469" xlink:href="#DejaVuSans-32"/>
      <use x="649.267578" xlink:href="#DejaVuSans-105"/>
      <use x="677.050781" xlink:href="#DejaVuSans-110"/>
      <use x="740.429688" xlink:href="#DejaVuSans-32"/>
      <use x="772.216797" xlink:href="#DejaVuSans-55"/>
      <use x="835.839844" xlink:href="#DejaVuSans-32"/>
      <use x="867.626953" xlink:href="#DejaVuSans-100"/>
      <use x="931.103516" xlink:href="#DejaVuSans-97"/>
      <use x="992.382812" xlink:href="#DejaVuSans-121"/>
      <use x="1051.5625" xlink:href="#DejaVuSans-115"/>
      <use x="1103.662109" xlink:href="#DejaVuSans-41"/>
     </g>
    </g>
    <g id="line2d_78">
     <path d="M 292.435156 166.444063 
L 312.435156 166.444063 
" style="fill:none;stroke:#1f77b4;stroke-linecap:square;stroke-width:1.5;"/>
    </g>
    <g id="line2d_79">
     <defs>
      <path d="M 0 3 
C 0.795609 3 1.55874 2.683901 2.12132 2.12132 
C 2.683901 1.55874 3 0.795609 3 0 
C 3 -0.795609 2.683901 -1.55874 2.12132 -2.12132 
C 1.55874 -2.683901 0.795609 -3 0 -3 
C -0.795609 -3 -1.55874 -2.683901 -2.12132 -2.12132 
C -2.683901 -1.55874 -3 -0.795609 -3 0 
C -3 0.795609 -2.683901 1.55874 -2.12132 2.12132 
C -1.55874 2.683901 -0.795609 3 0 3 
z
" id="m94a59d1b26" style="stroke:#1f77b4;"/>
     </defs>
     <g>
      <use style="fill:#1f77b4;stroke:#1f77b4;" x="302.435156" xlink:href="#m94a59d1b26" y="166.444063"/>
     </g>
    </g>
    <g id="text_28">
     <!-- NY (1.6$\times$) -->
     <defs>
      <path d="M 9.8125 72.90625 
L 23.09375 72.90625 
L 55.421875 11.921875 
L 55.421875 72.90625 
L 64.984375 72.90625 
L 64.984375 0 
L 51.703125 0 
L 19.390625 60.984375 
L 19.390625 0 
L 9.8125 0 
z
" id="DejaVuSans-78"/>
      <path d="M -0.203125 72.90625 
L 10.40625 72.90625 
L 30.609375 42.921875 
L 50.6875 72.90625 
L 61.28125 72.90625 
L 35.5 34.71875 
L 35.5 0 
L 25.59375 0 
L 25.59375 34.71875 
z
" id="DejaVuSans-89"/>
      <path d="M 33.015625 40.375 
Q 26.375 40.375 22.484375 35.828125 
Q 18.609375 31.296875 18.609375 23.390625 
Q 18.609375 15.53125 22.484375 10.953125 
Q 26.375 6.390625 33.015625 6.390625 
Q 39.65625 6.390625 43.53125 10.953125 
Q 47.40625 15.53125 47.40625 23.390625 
Q 47.40625 31.296875 43.53125 35.828125 
Q 39.65625 40.375 33.015625 40.375 
z
M 52.59375 71.296875 
L 52.59375 62.3125 
Q 48.875 64.0625 45.09375 64.984375 
Q 41.3125 65.921875 37.59375 65.921875 
Q 27.828125 65.921875 22.671875 59.328125 
Q 17.53125 52.734375 16.796875 39.40625 
Q 19.671875 43.65625 24.015625 45.921875 
Q 28.375 48.1875 33.59375 48.1875 
Q 44.578125 48.1875 50.953125 41.515625 
Q 57.328125 34.859375 57.328125 23.390625 
Q 57.328125 12.15625 50.6875 5.359375 
Q 44.046875 -1.421875 33.015625 -1.421875 
Q 20.359375 -1.421875 13.671875 8.265625 
Q 6.984375 17.96875 6.984375 36.375 
Q 6.984375 53.65625 15.1875 63.9375 
Q 23.390625 74.21875 37.203125 74.21875 
Q 40.921875 74.21875 44.703125 73.484375 
Q 48.484375 72.75 52.59375 71.296875 
z
" id="DejaVuSans-54"/>
      <path d="M 70.125 53.71875 
L 47.796875 31.296875 
L 70.125 8.984375 
L 64.3125 3.078125 
L 41.890625 25.484375 
L 19.484375 3.078125 
L 13.71875 8.984375 
L 35.984375 31.296875 
L 13.71875 53.71875 
L 19.484375 59.625 
L 41.890625 37.203125 
L 64.3125 59.625 
z
" id="DejaVuSans-215"/>
     </defs>
     <g transform="translate(320.435156 169.944063)scale(0.1 -0.1)">
      <use transform="translate(0 0.125)" xlink:href="#DejaVuSans-78"/>
      <use transform="translate(74.804688 0.125)" xlink:href="#DejaVuSans-89"/>
      <use transform="translate(135.888672 0.125)" xlink:href="#DejaVuSans-32"/>
      <use transform="translate(167.675781 0.125)" xlink:href="#DejaVuSans-40"/>
      <use transform="translate(206.689453 0.125)" xlink:href="#DejaVuSans-49"/>
      <use transform="translate(270.3125 0.125)" xlink:href="#DejaVuSans-46"/>
      <use transform="translate(302.099609 0.125)" xlink:href="#DejaVuSans-54"/>
      <use transform="translate(365.722656 0.125)" xlink:href="#DejaVuSans-215"/>
      <use transform="translate(449.511719 0.125)" xlink:href="#DejaVuSans-41"/>
     </g>
    </g>
    <g id="line2d_80">
     <path d="M 292.435156 181.12375 
L 312.435156 181.12375 
" style="fill:none;stroke:#ff7f0e;stroke-linecap:square;stroke-width:1.5;"/>
    </g>
    <g id="line2d_81">
     <defs>
      <path d="M 0 3 
C 0.795609 3 1.55874 2.683901 2.12132 2.12132 
C 2.683901 1.55874 3 0.795609 3 0 
C 3 -0.795609 2.683901 -1.55874 2.12132 -2.12132 
C 1.55874 -2.683901 0.795609 -3 0 -3 
C -0.795609 -3 -1.55874 -2.683901 -2.12132 -2.12132 
C -2.683901 -1.55874 -3 -0.795609 -3 0 
C -3 0.795609 -2.683901 1.55874 -2.12132 2.12132 
C -1.55874 2.683901 -0.795609 3 0 3 
z
" id="mde88ab7e6c" style="stroke:#ff7f0e;"/>
     </defs>
     <g>
      <use style="fill:#ff7f0e;stroke:#ff7f0e;" x="302.435156" xlink:href="#mde88ab7e6c" y="181.12375"/>
     </g>
    </g>
    <g id="text_29">
     <!-- NJ (1.6$\times$) -->
     <defs>
      <path d="M 9.8125 72.90625 
L 19.671875 72.90625 
L 19.671875 5.078125 
Q 19.671875 -8.109375 14.671875 -14.0625 
Q 9.671875 -20.015625 -1.421875 -20.015625 
L -5.171875 -20.015625 
L -5.171875 -11.71875 
L -2.09375 -11.71875 
Q 4.4375 -11.71875 7.125 -8.046875 
Q 9.8125 -4.390625 9.8125 5.078125 
z
" id="DejaVuSans-74"/>
     </defs>
     <g transform="translate(320.435156 184.62375)scale(0.1 -0.1)">
      <use transform="translate(0 0.125)" xlink:href="#DejaVuSans-78"/>
      <use transform="translate(74.804688 0.125)" xlink:href="#DejaVuSans-74"/>
      <use transform="translate(104.296875 0.125)" xlink:href="#DejaVuSans-32"/>
      <use transform="translate(136.083984 0.125)" xlink:href="#DejaVuSans-40"/>
      <use transform="translate(175.097656 0.125)" xlink:href="#DejaVuSans-49"/>
      <use transform="translate(238.720703 0.125)" xlink:href="#DejaVuSans-46"/>
      <use transform="translate(270.507812 0.125)" xlink:href="#DejaVuSans-54"/>
      <use transform="translate(334.130859 0.125)" xlink:href="#DejaVuSans-215"/>
      <use transform="translate(417.919922 0.125)" xlink:href="#DejaVuSans-41"/>
     </g>
    </g>
    <g id="line2d_82">
     <path d="M 292.435156 195.822188 
L 312.435156 195.822188 
" style="fill:none;stroke:#2ca02c;stroke-linecap:square;stroke-width:1.5;"/>
    </g>
    <g id="line2d_83">
     <defs>
      <path d="M 0 3 
C 0.795609 3 1.55874 2.683901 2.12132 2.12132 
C 2.683901 1.55874 3 0.795609 3 0 
C 3 -0.795609 2.683901 -1.55874 2.12132 -2.12132 
C 1.55874 -2.683901 0.795609 -3 0 -3 
C -0.795609 -3 -1.55874 -2.683901 -2.12132 -2.12132 
C -2.683901 -1.55874 -3 -0.795609 -3 0 
C -3 0.795609 -2.683901 1.55874 -2.12132 2.12132 
C -1.55874 2.683901 -0.795609 3 0 3 
z
" id="m30a6ac5d02" style="stroke:#2ca02c;"/>
     </defs>
     <g>
      <use style="fill:#2ca02c;stroke:#2ca02c;" x="302.435156" xlink:href="#m30a6ac5d02" y="195.822188"/>
     </g>
    </g>
    <g id="text_30">
     <!-- CO (1.6$\times$) -->
     <defs>
      <path d="M 64.40625 67.28125 
L 64.40625 56.890625 
Q 59.421875 61.53125 53.78125 63.8125 
Q 48.140625 66.109375 41.796875 66.109375 
Q 29.296875 66.109375 22.65625 58.46875 
Q 16.015625 50.828125 16.015625 36.375 
Q 16.015625 21.96875 22.65625 14.328125 
Q 29.296875 6.6875 41.796875 6.6875 
Q 48.140625 6.6875 53.78125 8.984375 
Q 59.421875 11.28125 64.40625 15.921875 
L 64.40625 5.609375 
Q 59.234375 2.09375 53.4375 0.328125 
Q 47.65625 -1.421875 41.21875 -1.421875 
Q 24.65625 -1.421875 15.125 8.703125 
Q 5.609375 18.84375 5.609375 36.375 
Q 5.609375 53.953125 15.125 64.078125 
Q 24.65625 74.21875 41.21875 74.21875 
Q 47.75 74.21875 53.53125 72.484375 
Q 59.328125 70.75 64.40625 67.28125 
z
" id="DejaVuSans-67"/>
      <path d="M 39.40625 66.21875 
Q 28.65625 66.21875 22.328125 58.203125 
Q 16.015625 50.203125 16.015625 36.375 
Q 16.015625 22.609375 22.328125 14.59375 
Q 28.65625 6.59375 39.40625 6.59375 
Q 50.140625 6.59375 56.421875 14.59375 
Q 62.703125 22.609375 62.703125 36.375 
Q 62.703125 50.203125 56.421875 58.203125 
Q 50.140625 66.21875 39.40625 66.21875 
z
M 39.40625 74.21875 
Q 54.734375 74.21875 63.90625 63.9375 
Q 73.09375 53.65625 73.09375 36.375 
Q 73.09375 19.140625 63.90625 8.859375 
Q 54.734375 -1.421875 39.40625 -1.421875 
Q 24.03125 -1.421875 14.8125 8.828125 
Q 5.609375 19.09375 5.609375 36.375 
Q 5.609375 53.65625 14.8125 63.9375 
Q 24.03125 74.21875 39.40625 74.21875 
z
" id="DejaVuSans-79"/>
     </defs>
     <g transform="translate(320.435156 199.322188)scale(0.1 -0.1)">
      <use transform="translate(0 0.125)" xlink:href="#DejaVuSans-67"/>
      <use transform="translate(69.824219 0.125)" xlink:href="#DejaVuSans-79"/>
      <use transform="translate(148.535156 0.125)" xlink:href="#DejaVuSans-32"/>
      <use transform="translate(180.322266 0.125)" xlink:href="#DejaVuSans-40"/>
      <use transform="translate(219.335938 0.125)" xlink:href="#DejaVuSans-49"/>
      <use transform="translate(282.958984 0.125)" xlink:href="#DejaVuSans-46"/>
      <use transform="translate(314.746094 0.125)" xlink:href="#DejaVuSans-54"/>
      <use transform="translate(378.369141 0.125)" xlink:href="#DejaVuSans-215"/>
      <use transform="translate(462.158203 0.125)" xlink:href="#DejaVuSans-41"/>
     </g>
    </g>
    <g id="line2d_84">
     <path d="M 292.435156 210.500313 
L 312.435156 210.500313 
" style="fill:none;stroke:#d62728;stroke-linecap:square;stroke-width:1.5;"/>
    </g>
    <g id="line2d_85">
     <defs>
      <path d="M 0 3 
C 0.795609 3 1.55874 2.683901 2.12132 2.12132 
C 2.683901 1.55874 3 0.795609 3 0 
C 3 -0.795609 2.683901 -1.55874 2.12132 -2.12132 
C 1.55874 -2.683901 0.795609 -3 0 -3 
C -0.795609 -3 -1.55874 -2.683901 -2.12132 -2.12132 
C -2.683901 -1.55874 -3 -0.795609 -3 0 
C -3 0.795609 -2.683901 1.55874 -2.12132 2.12132 
C -1.55874 2.683901 -0.795609 3 0 3 
z
" id="mea81deb0d1" style="stroke:#d62728;"/>
     </defs>
     <g>
      <use style="fill:#d62728;stroke:#d62728;" x="302.435156" xlink:href="#mea81deb0d1" y="210.500313"/>
     </g>
    </g>
    <g id="text_31">
     <!-- FL (1.6$\times$) -->
     <defs>
      <path d="M 9.8125 72.90625 
L 51.703125 72.90625 
L 51.703125 64.59375 
L 19.671875 64.59375 
L 19.671875 43.109375 
L 48.578125 43.109375 
L 48.578125 34.8125 
L 19.671875 34.8125 
L 19.671875 0 
L 9.8125 0 
z
" id="DejaVuSans-70"/>
      <path d="M 9.8125 72.90625 
L 19.671875 72.90625 
L 19.671875 8.296875 
L 55.171875 8.296875 
L 55.171875 0 
L 9.8125 0 
z
" id="DejaVuSans-76"/>
     </defs>
     <g transform="translate(320.435156 214.000313)scale(0.1 -0.1)">
      <use transform="translate(0 0.125)" xlink:href="#DejaVuSans-70"/>
      <use transform="translate(57.519531 0.125)" xlink:href="#DejaVuSans-76"/>
      <use transform="translate(113.232422 0.125)" xlink:href="#DejaVuSans-32"/>
      <use transform="translate(145.019531 0.125)" xlink:href="#DejaVuSans-40"/>
      <use transform="translate(184.033203 0.125)" xlink:href="#DejaVuSans-49"/>
      <use transform="translate(247.65625 0.125)" xlink:href="#DejaVuSans-46"/>
      <use transform="translate(279.443359 0.125)" xlink:href="#DejaVuSans-54"/>
      <use transform="translate(343.066406 0.125)" xlink:href="#DejaVuSans-215"/>
      <use transform="translate(426.855469 0.125)" xlink:href="#DejaVuSans-41"/>
     </g>
    </g>
    <g id="line2d_86">
     <path d="M 292.435156 225.178438 
L 312.435156 225.178438 
" style="fill:none;stroke:#9467bd;stroke-linecap:square;stroke-width:1.5;"/>
    </g>
    <g id="line2d_87">
     <defs>
      <path d="M 0 3 
C 0.795609 3 1.55874 2.683901 2.12132 2.12132 
C 2.683901 1.55874 3 0.795609 3 0 
C 3 -0.795609 2.683901 -1.55874 2.12132 -2.12132 
C 1.55874 -2.683901 0.795609 -3 0 -3 
C -0.795609 -3 -1.55874 -2.683901 -2.12132 -2.12132 
C -2.683901 -1.55874 -3 -0.795609 -3 0 
C -3 0.795609 -2.683901 1.55874 -2.12132 2.12132 
C -1.55874 2.683901 -0.795609 3 0 3 
z
" id="m3f4691e4cc" style="stroke:#9467bd;"/>
     </defs>
     <g>
      <use style="fill:#9467bd;stroke:#9467bd;" x="302.435156" xlink:href="#m3f4691e4cc" y="225.178438"/>
     </g>
    </g>
    <g id="text_32">
     <!-- IA (1.9$\times$) -->
     <defs>
      <path d="M 9.8125 72.90625 
L 19.671875 72.90625 
L 19.671875 0 
L 9.8125 0 
z
" id="DejaVuSans-73"/>
     </defs>
     <g transform="translate(320.435156 228.678438)scale(0.1 -0.1)">
      <use transform="translate(0 0.125)" xlink:href="#DejaVuSans-73"/>
      <use transform="translate(29.492188 0.125)" xlink:href="#DejaVuSans-65"/>
      <use transform="translate(97.900391 0.125)" xlink:href="#DejaVuSans-32"/>
      <use transform="translate(129.6875 0.125)" xlink:href="#DejaVuSans-40"/>
      <use transform="translate(168.701172 0.125)" xlink:href="#DejaVuSans-49"/>
      <use transform="translate(232.324219 0.125)" xlink:href="#DejaVuSans-46"/>
      <use transform="translate(264.111328 0.125)" xlink:href="#DejaVuSans-57"/>
      <use transform="translate(327.734375 0.125)" xlink:href="#DejaVuSans-215"/>
      <use transform="translate(411.523438 0.125)" xlink:href="#DejaVuSans-41"/>
     </g>
    </g>
   </g>
   <g id="line2d_88">
    <path clip-path="url(#p163eb95652)" d="M 13.560432 290.904872 
L 19.246443 266.971281 
L 27.970905 252.03976 
L 36.695366 237.108239 
L 45.419827 221.933307 
L 54.144289 218.167771 
L 62.86875 211.869257 
L 71.593211 207.615549 
L 80.317673 202.734091 
L 89.042134 193.966647 
L 97.766595 188.457688 
L 106.491057 180.469488 
L 115.215518 176.541984 
L 123.93998 170.92648 
L 132.664441 162.977198 
L 141.388902 151.124685 
L 150.113364 139.155084 
L 158.837825 127.591832 
L 167.562286 119.466552 
L 176.286748 111.245794 
L 185.011209 104.366165 
L 193.735671 99.916183 
L 202.460132 94.458021 
L 211.184593 90.909625 
L 219.909055 87.995257 
L 228.633516 84.147936 
L 237.357977 81.778337 
L 246.082439 79.189728 
L 254.8069 76.578148 
L 263.531361 74.403 
L 272.255823 72.235291 
L 280.980284 70.00912 
L 289.704746 67.608708 
L 298.429207 66.174829 
L 307.153668 64.850728 
L 315.87813 63.358039 
L 324.602591 61.970474 
L 333.327052 60.502498 
L 342.051514 59.12328 
L 350.775975 57.902034 
" style="fill:none;stroke:#1f77b4;stroke-linecap:square;stroke-width:1.5;"/>
    <g clip-path="url(#p163eb95652)">
     <use style="fill:#1f77b4;stroke:#1f77b4;" x="-1" xlink:href="#m94a59d1b26" y="318.625858"/>
     <use style="fill:#1f77b4;stroke:#1f77b4;" x="1.79752" xlink:href="#m94a59d1b26" y="318.625858"/>
     <use style="fill:#1f77b4;stroke:#1f77b4;" x="10.521982" xlink:href="#m94a59d1b26" y="303.694337"/>
     <use style="fill:#1f77b4;stroke:#1f77b4;" x="19.246443" xlink:href="#m94a59d1b26" y="266.971281"/>
     <use style="fill:#1f77b4;stroke:#1f77b4;" x="27.970905" xlink:href="#m94a59d1b26" y="252.03976"/>
     <use style="fill:#1f77b4;stroke:#1f77b4;" x="36.695366" xlink:href="#m94a59d1b26" y="237.108239"/>
     <use style="fill:#1f77b4;stroke:#1f77b4;" x="45.419827" xlink:href="#m94a59d1b26" y="221.933307"/>
     <use style="fill:#1f77b4;stroke:#1f77b4;" x="54.144289" xlink:href="#m94a59d1b26" y="218.167771"/>
     <use style="fill:#1f77b4;stroke:#1f77b4;" x="62.86875" xlink:href="#m94a59d1b26" y="211.869257"/>
     <use style="fill:#1f77b4;stroke:#1f77b4;" x="71.593211" xlink:href="#m94a59d1b26" y="207.615549"/>
     <use style="fill:#1f77b4;stroke:#1f77b4;" x="80.317673" xlink:href="#m94a59d1b26" y="202.734091"/>
     <use style="fill:#1f77b4;stroke:#1f77b4;" x="89.042134" xlink:href="#m94a59d1b26" y="193.966647"/>
     <use style="fill:#1f77b4;stroke:#1f77b4;" x="97.766595" xlink:href="#m94a59d1b26" y="188.457688"/>
     <use style="fill:#1f77b4;stroke:#1f77b4;" x="106.491057" xlink:href="#m94a59d1b26" y="180.469488"/>
     <use style="fill:#1f77b4;stroke:#1f77b4;" x="115.215518" xlink:href="#m94a59d1b26" y="176.541984"/>
     <use style="fill:#1f77b4;stroke:#1f77b4;" x="123.93998" xlink:href="#m94a59d1b26" y="170.92648"/>
     <use style="fill:#1f77b4;stroke:#1f77b4;" x="132.664441" xlink:href="#m94a59d1b26" y="162.977198"/>
     <use style="fill:#1f77b4;stroke:#1f77b4;" x="141.388902" xlink:href="#m94a59d1b26" y="151.124685"/>
     <use style="fill:#1f77b4;stroke:#1f77b4;" x="150.113364" xlink:href="#m94a59d1b26" y="139.155084"/>
     <use style="fill:#1f77b4;stroke:#1f77b4;" x="158.837825" xlink:href="#m94a59d1b26" y="127.591832"/>
     <use style="fill:#1f77b4;stroke:#1f77b4;" x="167.562286" xlink:href="#m94a59d1b26" y="119.466552"/>
     <use style="fill:#1f77b4;stroke:#1f77b4;" x="176.286748" xlink:href="#m94a59d1b26" y="111.245794"/>
     <use style="fill:#1f77b4;stroke:#1f77b4;" x="185.011209" xlink:href="#m94a59d1b26" y="104.366165"/>
     <use style="fill:#1f77b4;stroke:#1f77b4;" x="193.735671" xlink:href="#m94a59d1b26" y="99.916183"/>
     <use style="fill:#1f77b4;stroke:#1f77b4;" x="202.460132" xlink:href="#m94a59d1b26" y="94.458021"/>
     <use style="fill:#1f77b4;stroke:#1f77b4;" x="211.184593" xlink:href="#m94a59d1b26" y="90.909625"/>
     <use style="fill:#1f77b4;stroke:#1f77b4;" x="219.909055" xlink:href="#m94a59d1b26" y="87.995257"/>
     <use style="fill:#1f77b4;stroke:#1f77b4;" x="228.633516" xlink:href="#m94a59d1b26" y="84.147936"/>
     <use style="fill:#1f77b4;stroke:#1f77b4;" x="237.357977" xlink:href="#m94a59d1b26" y="81.778337"/>
     <use style="fill:#1f77b4;stroke:#1f77b4;" x="246.082439" xlink:href="#m94a59d1b26" y="79.189728"/>
     <use style="fill:#1f77b4;stroke:#1f77b4;" x="254.8069" xlink:href="#m94a59d1b26" y="76.578148"/>
     <use style="fill:#1f77b4;stroke:#1f77b4;" x="263.531361" xlink:href="#m94a59d1b26" y="74.403"/>
     <use style="fill:#1f77b4;stroke:#1f77b4;" x="272.255823" xlink:href="#m94a59d1b26" y="72.235291"/>
     <use style="fill:#1f77b4;stroke:#1f77b4;" x="280.980284" xlink:href="#m94a59d1b26" y="70.00912"/>
     <use style="fill:#1f77b4;stroke:#1f77b4;" x="289.704746" xlink:href="#m94a59d1b26" y="67.608708"/>
     <use style="fill:#1f77b4;stroke:#1f77b4;" x="298.429207" xlink:href="#m94a59d1b26" y="66.174829"/>
     <use style="fill:#1f77b4;stroke:#1f77b4;" x="307.153668" xlink:href="#m94a59d1b26" y="64.850728"/>
     <use style="fill:#1f77b4;stroke:#1f77b4;" x="315.87813" xlink:href="#m94a59d1b26" y="63.358039"/>
     <use style="fill:#1f77b4;stroke:#1f77b4;" x="324.602591" xlink:href="#m94a59d1b26" y="61.970474"/>
     <use style="fill:#1f77b4;stroke:#1f77b4;" x="333.327052" xlink:href="#m94a59d1b26" y="60.502498"/>
     <use style="fill:#1f77b4;stroke:#1f77b4;" x="342.051514" xlink:href="#m94a59d1b26" y="59.12328"/>
     <use style="fill:#1f77b4;stroke:#1f77b4;" x="350.775975" xlink:href="#m94a59d1b26" y="57.902034"/>
    </g>
   </g>
   <g id="line2d_89">
    <path clip-path="url(#p163eb95652)" d="M 25.575991 290.904872 
L 27.970905 286.806086 
L 36.695366 271.874564 
L 45.419827 271.874564 
L 54.144289 263.140184 
L 62.86875 250.08303 
L 71.593211 243.401787 
L 80.317673 234.193946 
L 89.042134 229.200561 
L 97.766595 217.466248 
L 106.491057 208.731868 
L 115.215518 202.969927 
L 123.93998 190.356945 
L 132.664441 181.298625 
L 141.388902 171.264597 
L 150.113364 159.565628 
L 158.837825 155.298879 
L 167.562286 146.693106 
L 176.286748 138.948562 
L 185.011209 130.417726 
L 193.735671 124.89571 
L 202.460132 121.007319 
L 211.184593 111.400223 
L 219.909055 106.024476 
L 228.633516 101.037237 
L 237.357977 97.049785 
L 246.082439 92.367504 
L 254.8069 89.852721 
L 263.531361 86.098939 
L 272.255823 83.090974 
L 280.980284 79.741475 
L 289.704746 76.891308 
L 298.429207 74.856198 
L 307.153668 72.889652 
L 315.87813 71.212959 
L 324.602591 69.795461 
L 333.327052 68.223947 
L 342.051514 66.770766 
L 350.775975 65.408711 
" style="fill:none;stroke:#ff7f0e;stroke-linecap:square;stroke-width:1.5;"/>
    <g clip-path="url(#p163eb95652)">
     <use style="fill:#ff7f0e;stroke:#ff7f0e;" x="19.246443" xlink:href="#mde88ab7e6c" y="301.737607"/>
     <use style="fill:#ff7f0e;stroke:#ff7f0e;" x="27.970905" xlink:href="#mde88ab7e6c" y="286.806086"/>
     <use style="fill:#ff7f0e;stroke:#ff7f0e;" x="36.695366" xlink:href="#mde88ab7e6c" y="271.874564"/>
     <use style="fill:#ff7f0e;stroke:#ff7f0e;" x="45.419827" xlink:href="#mde88ab7e6c" y="271.874564"/>
     <use style="fill:#ff7f0e;stroke:#ff7f0e;" x="54.144289" xlink:href="#mde88ab7e6c" y="263.140184"/>
     <use style="fill:#ff7f0e;stroke:#ff7f0e;" x="62.86875" xlink:href="#mde88ab7e6c" y="250.08303"/>
     <use style="fill:#ff7f0e;stroke:#ff7f0e;" x="71.593211" xlink:href="#mde88ab7e6c" y="243.401787"/>
     <use style="fill:#ff7f0e;stroke:#ff7f0e;" x="80.317673" xlink:href="#mde88ab7e6c" y="234.193946"/>
     <use style="fill:#ff7f0e;stroke:#ff7f0e;" x="89.042134" xlink:href="#mde88ab7e6c" y="229.200561"/>
     <use style="fill:#ff7f0e;stroke:#ff7f0e;" x="97.766595" xlink:href="#mde88ab7e6c" y="217.466248"/>
     <use style="fill:#ff7f0e;stroke:#ff7f0e;" x="106.491057" xlink:href="#mde88ab7e6c" y="208.731868"/>
     <use style="fill:#ff7f0e;stroke:#ff7f0e;" x="115.215518" xlink:href="#mde88ab7e6c" y="202.969927"/>
     <use style="fill:#ff7f0e;stroke:#ff7f0e;" x="123.93998" xlink:href="#mde88ab7e6c" y="190.356945"/>
     <use style="fill:#ff7f0e;stroke:#ff7f0e;" x="132.664441" xlink:href="#mde88ab7e6c" y="181.298625"/>
     <use style="fill:#ff7f0e;stroke:#ff7f0e;" x="141.388902" xlink:href="#mde88ab7e6c" y="171.264597"/>
     <use style="fill:#ff7f0e;stroke:#ff7f0e;" x="150.113364" xlink:href="#mde88ab7e6c" y="159.565628"/>
     <use style="fill:#ff7f0e;stroke:#ff7f0e;" x="158.837825" xlink:href="#mde88ab7e6c" y="155.298879"/>
     <use style="fill:#ff7f0e;stroke:#ff7f0e;" x="167.562286" xlink:href="#mde88ab7e6c" y="146.693106"/>
     <use style="fill:#ff7f0e;stroke:#ff7f0e;" x="176.286748" xlink:href="#mde88ab7e6c" y="138.948562"/>
     <use style="fill:#ff7f0e;stroke:#ff7f0e;" x="185.011209" xlink:href="#mde88ab7e6c" y="130.417726"/>
     <use style="fill:#ff7f0e;stroke:#ff7f0e;" x="193.735671" xlink:href="#mde88ab7e6c" y="124.89571"/>
     <use style="fill:#ff7f0e;stroke:#ff7f0e;" x="202.460132" xlink:href="#mde88ab7e6c" y="121.007319"/>
     <use style="fill:#ff7f0e;stroke:#ff7f0e;" x="211.184593" xlink:href="#mde88ab7e6c" y="111.400223"/>
     <use style="fill:#ff7f0e;stroke:#ff7f0e;" x="219.909055" xlink:href="#mde88ab7e6c" y="106.024476"/>
     <use style="fill:#ff7f0e;stroke:#ff7f0e;" x="228.633516" xlink:href="#mde88ab7e6c" y="101.037237"/>
     <use style="fill:#ff7f0e;stroke:#ff7f0e;" x="237.357977" xlink:href="#mde88ab7e6c" y="97.049785"/>
     <use style="fill:#ff7f0e;stroke:#ff7f0e;" x="246.082439" xlink:href="#mde88ab7e6c" y="92.367504"/>
     <use style="fill:#ff7f0e;stroke:#ff7f0e;" x="254.8069" xlink:href="#mde88ab7e6c" y="89.852721"/>
     <use style="fill:#ff7f0e;stroke:#ff7f0e;" x="263.531361" xlink:href="#mde88ab7e6c" y="86.098939"/>
     <use style="fill:#ff7f0e;stroke:#ff7f0e;" x="272.255823" xlink:href="#mde88ab7e6c" y="83.090974"/>
     <use style="fill:#ff7f0e;stroke:#ff7f0e;" x="280.980284" xlink:href="#mde88ab7e6c" y="79.741475"/>
     <use style="fill:#ff7f0e;stroke:#ff7f0e;" x="289.704746" xlink:href="#mde88ab7e6c" y="76.891308"/>
     <use style="fill:#ff7f0e;stroke:#ff7f0e;" x="298.429207" xlink:href="#mde88ab7e6c" y="74.856198"/>
     <use style="fill:#ff7f0e;stroke:#ff7f0e;" x="307.153668" xlink:href="#mde88ab7e6c" y="72.889652"/>
     <use style="fill:#ff7f0e;stroke:#ff7f0e;" x="315.87813" xlink:href="#mde88ab7e6c" y="71.212959"/>
     <use style="fill:#ff7f0e;stroke:#ff7f0e;" x="324.602591" xlink:href="#mde88ab7e6c" y="69.795461"/>
     <use style="fill:#ff7f0e;stroke:#ff7f0e;" x="333.327052" xlink:href="#mde88ab7e6c" y="68.223947"/>
     <use style="fill:#ff7f0e;stroke:#ff7f0e;" x="342.051514" xlink:href="#mde88ab7e6c" y="66.770766"/>
     <use style="fill:#ff7f0e;stroke:#ff7f0e;" x="350.775975" xlink:href="#mde88ab7e6c" y="65.408711"/>
    </g>
   </g>
   <g id="line2d_90">
    <path clip-path="url(#p163eb95652)" d="M 27.970905 277.471447 
L 36.695366 247.608405 
L 45.419827 247.608405 
L 54.144289 247.608405 
L 62.86875 238.874025 
L 71.593211 231.37093 
L 80.317673 216.439409 
L 89.042134 208.566809 
L 97.766595 198.552352 
L 106.491057 192.563344 
L 115.215518 186.576367 
L 123.93998 182.941228 
L 132.664441 180.182137 
L 141.388902 176.610701 
L 150.113364 171.174828 
L 158.837825 165.368653 
L 167.562286 159.635112 
L 176.286748 154.928239 
L 185.011209 150.645265 
L 193.735671 145.582963 
L 202.460132 141.821438 
L 211.184593 135.863651 
L 219.909055 131.729051 
L 228.633516 128.019929 
L 237.357977 125.516395 
L 246.082439 122.784627 
L 254.8069 120.004674 
L 263.531361 117.581408 
L 272.255823 115.252622 
L 280.980284 112.777107 
L 289.704746 110.847009 
L 298.429207 109.145231 
L 307.153668 108.200159 
L 315.87813 107.155487 
L 324.602591 106.276909 
L 333.327052 104.287933 
L 342.051514 103.243861 
L 350.775975 102.012392 
" style="fill:none;stroke:#2ca02c;stroke-linecap:square;stroke-width:1.5;"/>
    <g clip-path="url(#p163eb95652)">
     <use style="fill:#2ca02c;stroke:#2ca02c;" x="27.970905" xlink:href="#m30a6ac5d02" y="277.471447"/>
     <use style="fill:#2ca02c;stroke:#2ca02c;" x="36.695366" xlink:href="#m30a6ac5d02" y="247.608405"/>
     <use style="fill:#2ca02c;stroke:#2ca02c;" x="45.419827" xlink:href="#m30a6ac5d02" y="247.608405"/>
     <use style="fill:#2ca02c;stroke:#2ca02c;" x="54.144289" xlink:href="#m30a6ac5d02" y="247.608405"/>
     <use style="fill:#2ca02c;stroke:#2ca02c;" x="62.86875" xlink:href="#m30a6ac5d02" y="238.874025"/>
     <use style="fill:#2ca02c;stroke:#2ca02c;" x="71.593211" xlink:href="#m30a6ac5d02" y="231.37093"/>
     <use style="fill:#2ca02c;stroke:#2ca02c;" x="80.317673" xlink:href="#m30a6ac5d02" y="216.439409"/>
     <use style="fill:#2ca02c;stroke:#2ca02c;" x="89.042134" xlink:href="#m30a6ac5d02" y="208.566809"/>
     <use style="fill:#2ca02c;stroke:#2ca02c;" x="97.766595" xlink:href="#m30a6ac5d02" y="198.552352"/>
     <use style="fill:#2ca02c;stroke:#2ca02c;" x="106.491057" xlink:href="#m30a6ac5d02" y="192.563344"/>
     <use style="fill:#2ca02c;stroke:#2ca02c;" x="115.215518" xlink:href="#m30a6ac5d02" y="186.576367"/>
     <use style="fill:#2ca02c;stroke:#2ca02c;" x="123.93998" xlink:href="#m30a6ac5d02" y="182.941228"/>
     <use style="fill:#2ca02c;stroke:#2ca02c;" x="132.664441" xlink:href="#m30a6ac5d02" y="180.182137"/>
     <use style="fill:#2ca02c;stroke:#2ca02c;" x="141.388902" xlink:href="#m30a6ac5d02" y="176.610701"/>
     <use style="fill:#2ca02c;stroke:#2ca02c;" x="150.113364" xlink:href="#m30a6ac5d02" y="171.174828"/>
     <use style="fill:#2ca02c;stroke:#2ca02c;" x="158.837825" xlink:href="#m30a6ac5d02" y="165.368653"/>
     <use style="fill:#2ca02c;stroke:#2ca02c;" x="167.562286" xlink:href="#m30a6ac5d02" y="159.635112"/>
     <use style="fill:#2ca02c;stroke:#2ca02c;" x="176.286748" xlink:href="#m30a6ac5d02" y="154.928239"/>
     <use style="fill:#2ca02c;stroke:#2ca02c;" x="185.011209" xlink:href="#m30a6ac5d02" y="150.645265"/>
     <use style="fill:#2ca02c;stroke:#2ca02c;" x="193.735671" xlink:href="#m30a6ac5d02" y="145.582963"/>
     <use style="fill:#2ca02c;stroke:#2ca02c;" x="202.460132" xlink:href="#m30a6ac5d02" y="141.821438"/>
     <use style="fill:#2ca02c;stroke:#2ca02c;" x="211.184593" xlink:href="#m30a6ac5d02" y="135.863651"/>
     <use style="fill:#2ca02c;stroke:#2ca02c;" x="219.909055" xlink:href="#m30a6ac5d02" y="131.729051"/>
     <use style="fill:#2ca02c;stroke:#2ca02c;" x="228.633516" xlink:href="#m30a6ac5d02" y="128.019929"/>
     <use style="fill:#2ca02c;stroke:#2ca02c;" x="237.357977" xlink:href="#m30a6ac5d02" y="125.516395"/>
     <use style="fill:#2ca02c;stroke:#2ca02c;" x="246.082439" xlink:href="#m30a6ac5d02" y="122.784627"/>
     <use style="fill:#2ca02c;stroke:#2ca02c;" x="254.8069" xlink:href="#m30a6ac5d02" y="120.004674"/>
     <use style="fill:#2ca02c;stroke:#2ca02c;" x="263.531361" xlink:href="#m30a6ac5d02" y="117.581408"/>
     <use style="fill:#2ca02c;stroke:#2ca02c;" x="272.255823" xlink:href="#m30a6ac5d02" y="115.252622"/>
     <use style="fill:#2ca02c;stroke:#2ca02c;" x="280.980284" xlink:href="#m30a6ac5d02" y="112.777107"/>
     <use style="fill:#2ca02c;stroke:#2ca02c;" x="289.704746" xlink:href="#m30a6ac5d02" y="110.847009"/>
     <use style="fill:#2ca02c;stroke:#2ca02c;" x="298.429207" xlink:href="#m30a6ac5d02" y="109.145231"/>
     <use style="fill:#2ca02c;stroke:#2ca02c;" x="307.153668" xlink:href="#m30a6ac5d02" y="108.200159"/>
     <use style="fill:#2ca02c;stroke:#2ca02c;" x="315.87813" xlink:href="#m30a6ac5d02" y="107.155487"/>
     <use style="fill:#2ca02c;stroke:#2ca02c;" x="324.602591" xlink:href="#m30a6ac5d02" y="106.276909"/>
     <use style="fill:#2ca02c;stroke:#2ca02c;" x="333.327052" xlink:href="#m30a6ac5d02" y="104.287933"/>
     <use style="fill:#2ca02c;stroke:#2ca02c;" x="342.051514" xlink:href="#m30a6ac5d02" y="103.243861"/>
     <use style="fill:#2ca02c;stroke:#2ca02c;" x="350.775975" xlink:href="#m30a6ac5d02" y="102.012392"/>
    </g>
   </g>
   <g id="line2d_91">
    <path clip-path="url(#p163eb95652)" d="M 27.95722 290.904872 
L 27.970905 290.895152 
L 36.695366 278.840115 
L 45.419827 267.229251 
L 54.144289 265.505 
L 62.86875 263.908594 
L 71.593211 253.214533 
L 80.317673 250.573479 
L 89.042134 238.283012 
L 97.766595 229.238675 
L 106.491057 229.238675 
L 115.215518 219.698907 
L 123.93998 214.153832 
L 132.664441 205.572774 
L 141.388902 196.098983 
L 150.113364 189.934907 
L 158.837825 184.29079 
L 167.562286 177.752613 
L 176.286748 171.953875 
L 185.011209 167.635018 
L 193.735671 163.698702 
L 202.460132 157.40267 
L 211.184593 152.414578 
L 219.909055 146.911177 
L 228.633516 141.887153 
L 237.357977 137.5353 
L 246.082439 134.484082 
L 254.8069 130.847956 
L 263.531361 127.801577 
L 272.255823 124.622073 
L 280.980284 121.79951 
L 289.704746 119.272539 
L 298.429207 117.819581 
L 307.153668 115.695476 
L 315.87813 113.996179 
L 324.602591 112.649256 
L 333.327052 111.152422 
L 342.051514 109.738475 
L 350.775975 108.550813 
" style="fill:none;stroke:#d62728;stroke-linecap:square;stroke-width:1.5;"/>
    <g clip-path="url(#p163eb95652)">
     <use style="fill:#d62728;stroke:#d62728;" x="-1" xlink:href="#mea81deb0d1" y="305.826673"/>
     <use style="fill:#d62728;stroke:#d62728;" x="1.79752" xlink:href="#mea81deb0d1" y="305.826673"/>
     <use style="fill:#d62728;stroke:#d62728;" x="10.521982" xlink:href="#mea81deb0d1" y="297.092293"/>
     <use style="fill:#d62728;stroke:#d62728;" x="19.246443" xlink:href="#mea81deb0d1" y="297.092293"/>
     <use style="fill:#d62728;stroke:#d62728;" x="27.970905" xlink:href="#mea81deb0d1" y="290.895152"/>
     <use style="fill:#d62728;stroke:#d62728;" x="36.695366" xlink:href="#mea81deb0d1" y="278.840115"/>
     <use style="fill:#d62728;stroke:#d62728;" x="45.419827" xlink:href="#mea81deb0d1" y="267.229251"/>
     <use style="fill:#d62728;stroke:#d62728;" x="54.144289" xlink:href="#mea81deb0d1" y="265.505"/>
     <use style="fill:#d62728;stroke:#d62728;" x="62.86875" xlink:href="#mea81deb0d1" y="263.908594"/>
     <use style="fill:#d62728;stroke:#d62728;" x="71.593211" xlink:href="#mea81deb0d1" y="253.214533"/>
     <use style="fill:#d62728;stroke:#d62728;" x="80.317673" xlink:href="#mea81deb0d1" y="250.573479"/>
     <use style="fill:#d62728;stroke:#d62728;" x="89.042134" xlink:href="#mea81deb0d1" y="238.283012"/>
     <use style="fill:#d62728;stroke:#d62728;" x="97.766595" xlink:href="#mea81deb0d1" y="229.238675"/>
     <use style="fill:#d62728;stroke:#d62728;" x="106.491057" xlink:href="#mea81deb0d1" y="229.238675"/>
     <use style="fill:#d62728;stroke:#d62728;" x="115.215518" xlink:href="#mea81deb0d1" y="219.698907"/>
     <use style="fill:#d62728;stroke:#d62728;" x="123.93998" xlink:href="#mea81deb0d1" y="214.153832"/>
     <use style="fill:#d62728;stroke:#d62728;" x="132.664441" xlink:href="#mea81deb0d1" y="205.572774"/>
     <use style="fill:#d62728;stroke:#d62728;" x="141.388902" xlink:href="#mea81deb0d1" y="196.098983"/>
     <use style="fill:#d62728;stroke:#d62728;" x="150.113364" xlink:href="#mea81deb0d1" y="189.934907"/>
     <use style="fill:#d62728;stroke:#d62728;" x="158.837825" xlink:href="#mea81deb0d1" y="184.29079"/>
     <use style="fill:#d62728;stroke:#d62728;" x="167.562286" xlink:href="#mea81deb0d1" y="177.752613"/>
     <use style="fill:#d62728;stroke:#d62728;" x="176.286748" xlink:href="#mea81deb0d1" y="171.953875"/>
     <use style="fill:#d62728;stroke:#d62728;" x="185.011209" xlink:href="#mea81deb0d1" y="167.635018"/>
     <use style="fill:#d62728;stroke:#d62728;" x="193.735671" xlink:href="#mea81deb0d1" y="163.698702"/>
     <use style="fill:#d62728;stroke:#d62728;" x="202.460132" xlink:href="#mea81deb0d1" y="157.40267"/>
     <use style="fill:#d62728;stroke:#d62728;" x="211.184593" xlink:href="#mea81deb0d1" y="152.414578"/>
     <use style="fill:#d62728;stroke:#d62728;" x="219.909055" xlink:href="#mea81deb0d1" y="146.911177"/>
     <use style="fill:#d62728;stroke:#d62728;" x="228.633516" xlink:href="#mea81deb0d1" y="141.887153"/>
     <use style="fill:#d62728;stroke:#d62728;" x="237.357977" xlink:href="#mea81deb0d1" y="137.5353"/>
     <use style="fill:#d62728;stroke:#d62728;" x="246.082439" xlink:href="#mea81deb0d1" y="134.484082"/>
     <use style="fill:#d62728;stroke:#d62728;" x="254.8069" xlink:href="#mea81deb0d1" y="130.847956"/>
     <use style="fill:#d62728;stroke:#d62728;" x="263.531361" xlink:href="#mea81deb0d1" y="127.801577"/>
     <use style="fill:#d62728;stroke:#d62728;" x="272.255823" xlink:href="#mea81deb0d1" y="124.622073"/>
     <use style="fill:#d62728;stroke:#d62728;" x="280.980284" xlink:href="#mea81deb0d1" y="121.79951"/>
     <use style="fill:#d62728;stroke:#d62728;" x="289.704746" xlink:href="#mea81deb0d1" y="119.272539"/>
     <use style="fill:#d62728;stroke:#d62728;" x="298.429207" xlink:href="#mea81deb0d1" y="117.819581"/>
     <use style="fill:#d62728;stroke:#d62728;" x="307.153668" xlink:href="#mea81deb0d1" y="115.695476"/>
     <use style="fill:#d62728;stroke:#d62728;" x="315.87813" xlink:href="#mea81deb0d1" y="113.996179"/>
     <use style="fill:#d62728;stroke:#d62728;" x="324.602591" xlink:href="#mea81deb0d1" y="112.649256"/>
     <use style="fill:#d62728;stroke:#d62728;" x="333.327052" xlink:href="#mea81deb0d1" y="111.152422"/>
     <use style="fill:#d62728;stroke:#d62728;" x="342.051514" xlink:href="#mea81deb0d1" y="109.738475"/>
     <use style="fill:#d62728;stroke:#d62728;" x="350.775975" xlink:href="#mea81deb0d1" y="108.550813"/>
    </g>
   </g>
   <g id="line2d_92">
    <path clip-path="url(#p163eb95652)" d="M 54.144289 255.77531 
L 62.86875 234.646647 
L 71.593211 224.188017 
L 80.317673 222.59161 
L 89.042134 219.715126 
L 97.766595 218.409173 
L 106.491057 217.177887 
L 115.215518 212.855113 
L 123.93998 212.855113 
L 132.664441 206.904165 
L 141.388902 201.08167 
L 150.113364 197.923592 
L 158.837825 197.43949 
L 167.562286 188.546131 
L 176.286748 182.507969 
L 185.011209 179.187312 
L 193.735671 175.604481 
L 202.460132 172.234246 
L 211.184593 167.696457 
L 219.909055 161.832831 
L 228.633516 156.716522 
L 237.357977 154.131146 
L 246.082439 149.120082 
L 254.8069 145.654752 
L 263.531361 143.554478 
L 272.255823 141.144046 
L 280.980284 138.351048 
L 289.704746 135.824084 
L 298.429207 133.686402 
L 307.153668 131.832726 
L 315.87813 129.626943 
L 324.602591 127.720055 
L 333.327052 125.488078 
L 342.051514 123.574169 
L 350.775975 121.759378 
" style="fill:none;stroke:#9467bd;stroke-linecap:square;stroke-width:1.5;"/>
    <g clip-path="url(#p163eb95652)">
     <use style="fill:#9467bd;stroke:#9467bd;" x="54.144289" xlink:href="#m3f4691e4cc" y="255.77531"/>
     <use style="fill:#9467bd;stroke:#9467bd;" x="62.86875" xlink:href="#m3f4691e4cc" y="234.646647"/>
     <use style="fill:#9467bd;stroke:#9467bd;" x="71.593211" xlink:href="#m3f4691e4cc" y="224.188017"/>
     <use style="fill:#9467bd;stroke:#9467bd;" x="80.317673" xlink:href="#m3f4691e4cc" y="222.59161"/>
     <use style="fill:#9467bd;stroke:#9467bd;" x="89.042134" xlink:href="#m3f4691e4cc" y="219.715126"/>
     <use style="fill:#9467bd;stroke:#9467bd;" x="97.766595" xlink:href="#m3f4691e4cc" y="218.409173"/>
     <use style="fill:#9467bd;stroke:#9467bd;" x="106.491057" xlink:href="#m3f4691e4cc" y="217.177887"/>
     <use style="fill:#9467bd;stroke:#9467bd;" x="115.215518" xlink:href="#m3f4691e4cc" y="212.855113"/>
     <use style="fill:#9467bd;stroke:#9467bd;" x="123.93998" xlink:href="#m3f4691e4cc" y="212.855113"/>
     <use style="fill:#9467bd;stroke:#9467bd;" x="132.664441" xlink:href="#m3f4691e4cc" y="206.904165"/>
     <use style="fill:#9467bd;stroke:#9467bd;" x="141.388902" xlink:href="#m3f4691e4cc" y="201.08167"/>
     <use style="fill:#9467bd;stroke:#9467bd;" x="150.113364" xlink:href="#m3f4691e4cc" y="197.923592"/>
     <use style="fill:#9467bd;stroke:#9467bd;" x="158.837825" xlink:href="#m3f4691e4cc" y="197.43949"/>
     <use style="fill:#9467bd;stroke:#9467bd;" x="167.562286" xlink:href="#m3f4691e4cc" y="188.546131"/>
     <use style="fill:#9467bd;stroke:#9467bd;" x="176.286748" xlink:href="#m3f4691e4cc" y="182.507969"/>
     <use style="fill:#9467bd;stroke:#9467bd;" x="185.011209" xlink:href="#m3f4691e4cc" y="179.187312"/>
     <use style="fill:#9467bd;stroke:#9467bd;" x="193.735671" xlink:href="#m3f4691e4cc" y="175.604481"/>
     <use style="fill:#9467bd;stroke:#9467bd;" x="202.460132" xlink:href="#m3f4691e4cc" y="172.234246"/>
     <use style="fill:#9467bd;stroke:#9467bd;" x="211.184593" xlink:href="#m3f4691e4cc" y="167.696457"/>
     <use style="fill:#9467bd;stroke:#9467bd;" x="219.909055" xlink:href="#m3f4691e4cc" y="161.832831"/>
     <use style="fill:#9467bd;stroke:#9467bd;" x="228.633516" xlink:href="#m3f4691e4cc" y="156.716522"/>
     <use style="fill:#9467bd;stroke:#9467bd;" x="237.357977" xlink:href="#m3f4691e4cc" y="154.131146"/>
     <use style="fill:#9467bd;stroke:#9467bd;" x="246.082439" xlink:href="#m3f4691e4cc" y="149.120082"/>
     <use style="fill:#9467bd;stroke:#9467bd;" x="254.8069" xlink:href="#m3f4691e4cc" y="145.654752"/>
     <use style="fill:#9467bd;stroke:#9467bd;" x="263.531361" xlink:href="#m3f4691e4cc" y="143.554478"/>
     <use style="fill:#9467bd;stroke:#9467bd;" x="272.255823" xlink:href="#m3f4691e4cc" y="141.144046"/>
     <use style="fill:#9467bd;stroke:#9467bd;" x="280.980284" xlink:href="#m3f4691e4cc" y="138.351048"/>
     <use style="fill:#9467bd;stroke:#9467bd;" x="289.704746" xlink:href="#m3f4691e4cc" y="135.824084"/>
     <use style="fill:#9467bd;stroke:#9467bd;" x="298.429207" xlink:href="#m3f4691e4cc" y="133.686402"/>
     <use style="fill:#9467bd;stroke:#9467bd;" x="307.153668" xlink:href="#m3f4691e4cc" y="131.832726"/>
     <use style="fill:#9467bd;stroke:#9467bd;" x="315.87813" xlink:href="#m3f4691e4cc" y="129.626943"/>
     <use style="fill:#9467bd;stroke:#9467bd;" x="324.602591" xlink:href="#m3f4691e4cc" y="127.720055"/>
     <use style="fill:#9467bd;stroke:#9467bd;" x="333.327052" xlink:href="#m3f4691e4cc" y="125.488078"/>
     <use style="fill:#9467bd;stroke:#9467bd;" x="342.051514" xlink:href="#m3f4691e4cc" y="123.574169"/>
     <use style="fill:#9467bd;stroke:#9467bd;" x="350.775975" xlink:href="#m3f4691e4cc" y="121.759378"/>
    </g>
   </g>
  </g>
 </g>
 <defs>
  <clipPath id="p163eb95652">
   <rect height="217.44" width="334.8" x="62.86875" y="22.318125"/>
  </clipPath>
 </defs>
</svg>
