<?xml version="1.0" encoding="utf-8" standalone="no"?>
<!DOCTYPE svg PUBLIC "-//W3C//DTD SVG 1.1//EN"
  "http://www.w3.org/Graphics/SVG/1.1/DTD/svg11.dtd">
<!-- Created with matplotlib (https://matplotlib.org/) -->
<svg height="289.409098pt" version="1.1" viewBox="0 0 408.845343 289.409098" width="408.845343pt" xmlns="http://www.w3.org/2000/svg" xmlns:xlink="http://www.w3.org/1999/xlink">
 <defs>
  <style type="text/css">
*{stroke-linecap:butt;stroke-linejoin:round;}
  </style>
 </defs>
 <g id="figure_1">
  <g id="patch_1">
   <path d="M 0 289.409098 
L 408.845343 289.409098 
L 408.845343 0 
L 0 0 
z
" style="fill:#ffffff;"/>
  </g>
  <g id="axes_1">
   <g id="patch_2">
    <path d="M 62.86875 239.758125 
L 397.66875 239.758125 
L 397.66875 22.318125 
L 62.86875 22.318125 
z
" style="fill:#ffffff;"/>
   </g>
   <g id="matplotlib.axis_1">
    <g id="xtick_1">
     <g id="line2d_1">
      <path clip-path="url(#pf5ba974b38)" d="M 62.86875 239.758125 
L 62.86875 22.318125 
" style="fill:none;stroke:#b0b0b0;stroke-linecap:square;stroke-opacity:0.8;stroke-width:0.8;"/>
     </g>
     <g id="line2d_2">
      <defs>
       <path d="M 0 0 
L 0 3.5 
" id="m79bda07518" style="stroke:#000000;stroke-width:0.8;"/>
      </defs>
      <g>
       <use style="stroke:#000000;stroke-width:0.8;" x="62.86875" xlink:href="#m79bda07518" y="239.758125"/>
      </g>
     </g>
     <g id="text_1">
      <!-- Mar. -->
      <defs>
       <path d="M 9.8125 72.90625 
L 24.515625 72.90625 
L 43.109375 23.296875 
L 61.8125 72.90625 
L 76.515625 72.90625 
L 76.515625 0 
L 66.890625 0 
L 66.890625 64.015625 
L 48.09375 14.015625 
L 38.1875 14.015625 
L 19.390625 64.015625 
L 19.390625 0 
L 9.8125 0 
z
" id="DejaVuSans-77"/>
       <path d="M 34.28125 27.484375 
Q 23.390625 27.484375 19.1875 25 
Q 14.984375 22.515625 14.984375 16.5 
Q 14.984375 11.71875 18.140625 8.90625 
Q 21.296875 6.109375 26.703125 6.109375 
Q 34.1875 6.109375 38.703125 11.40625 
Q 43.21875 16.703125 43.21875 25.484375 
L 43.21875 27.484375 
z
M 52.203125 31.203125 
L 52.203125 0 
L 43.21875 0 
L 43.21875 8.296875 
Q 40.140625 3.328125 35.546875 0.953125 
Q 30.953125 -1.421875 24.3125 -1.421875 
Q 15.921875 -1.421875 10.953125 3.296875 
Q 6 8.015625 6 15.921875 
Q 6 25.140625 12.171875 29.828125 
Q 18.359375 34.515625 30.609375 34.515625 
L 43.21875 34.515625 
L 43.21875 35.40625 
Q 43.21875 41.609375 39.140625 45 
Q 35.0625 48.390625 27.6875 48.390625 
Q 23 48.390625 18.546875 47.265625 
Q 14.109375 46.140625 10.015625 43.890625 
L 10.015625 52.203125 
Q 14.9375 54.109375 19.578125 55.046875 
Q 24.21875 56 28.609375 56 
Q 40.484375 56 46.34375 49.84375 
Q 52.203125 43.703125 52.203125 31.203125 
z
" id="DejaVuSans-97"/>
       <path d="M 41.109375 46.296875 
Q 39.59375 47.171875 37.8125 47.578125 
Q 36.03125 48 33.890625 48 
Q 26.265625 48 22.1875 43.046875 
Q 18.109375 38.09375 18.109375 28.8125 
L 18.109375 0 
L 9.078125 0 
L 9.078125 54.6875 
L 18.109375 54.6875 
L 18.109375 46.1875 
Q 20.953125 51.171875 25.484375 53.578125 
Q 30.03125 56 36.53125 56 
Q 37.453125 56 38.578125 55.875 
Q 39.703125 55.765625 41.0625 55.515625 
z
" id="DejaVuSans-114"/>
       <path d="M 10.6875 12.40625 
L 21 12.40625 
L 21 0 
L 10.6875 0 
z
" id="DejaVuSans-46"/>
      </defs>
      <g transform="translate(51.853125 254.356563)scale(0.1 -0.1)">
       <use xlink:href="#DejaVuSans-77"/>
       <use x="86.279297" xlink:href="#DejaVuSans-97"/>
       <use x="147.558594" xlink:href="#DejaVuSans-114"/>
       <use x="188.53125" xlink:href="#DejaVuSans-46"/>
      </g>
      <!-- 09 -->
      <defs>
       <path d="M 31.78125 66.40625 
Q 24.171875 66.40625 20.328125 58.90625 
Q 16.5 51.421875 16.5 36.375 
Q 16.5 21.390625 20.328125 13.890625 
Q 24.171875 6.390625 31.78125 6.390625 
Q 39.453125 6.390625 43.28125 13.890625 
Q 47.125 21.390625 47.125 36.375 
Q 47.125 51.421875 43.28125 58.90625 
Q 39.453125 66.40625 31.78125 66.40625 
z
M 31.78125 74.21875 
Q 44.046875 74.21875 50.515625 64.515625 
Q 56.984375 54.828125 56.984375 36.375 
Q 56.984375 17.96875 50.515625 8.265625 
Q 44.046875 -1.421875 31.78125 -1.421875 
Q 19.53125 -1.421875 13.0625 8.265625 
Q 6.59375 17.96875 6.59375 36.375 
Q 6.59375 54.828125 13.0625 64.515625 
Q 19.53125 74.21875 31.78125 74.21875 
z
" id="DejaVuSans-48"/>
       <path d="M 10.984375 1.515625 
L 10.984375 10.5 
Q 14.703125 8.734375 18.5 7.8125 
Q 22.3125 6.890625 25.984375 6.890625 
Q 35.75 6.890625 40.890625 13.453125 
Q 46.046875 20.015625 46.78125 33.40625 
Q 43.953125 29.203125 39.59375 26.953125 
Q 35.25 24.703125 29.984375 24.703125 
Q 19.046875 24.703125 12.671875 31.3125 
Q 6.296875 37.9375 6.296875 49.421875 
Q 6.296875 60.640625 12.9375 67.421875 
Q 19.578125 74.21875 30.609375 74.21875 
Q 43.265625 74.21875 49.921875 64.515625 
Q 56.59375 54.828125 56.59375 36.375 
Q 56.59375 19.140625 48.40625 8.859375 
Q 40.234375 -1.421875 26.421875 -1.421875 
Q 22.703125 -1.421875 18.890625 -0.6875 
Q 15.09375 0.046875 10.984375 1.515625 
z
M 30.609375 32.421875 
Q 37.25 32.421875 41.125 36.953125 
Q 45.015625 41.5 45.015625 49.421875 
Q 45.015625 57.28125 41.125 61.84375 
Q 37.25 66.40625 30.609375 66.40625 
Q 23.96875 66.40625 20.09375 61.84375 
Q 16.21875 57.28125 16.21875 49.421875 
Q 16.21875 41.5 20.09375 36.953125 
Q 23.96875 32.421875 30.609375 32.421875 
z
" id="DejaVuSans-57"/>
      </defs>
      <g transform="translate(56.50625 265.554375)scale(0.1 -0.1)">
       <use xlink:href="#DejaVuSans-48"/>
       <use x="63.623047" xlink:href="#DejaVuSans-57"/>
      </g>
     </g>
    </g>
    <g id="xtick_2">
     <g id="line2d_3">
      <path clip-path="url(#pf5ba974b38)" d="M 96.565628 239.758125 
L 96.565628 22.318125 
" style="fill:none;stroke:#b0b0b0;stroke-linecap:square;stroke-opacity:0.8;stroke-width:0.8;"/>
     </g>
     <g id="line2d_4">
      <g>
       <use style="stroke:#000000;stroke-width:0.8;" x="96.565628" xlink:href="#m79bda07518" y="239.758125"/>
      </g>
     </g>
     <g id="text_2">
      <!-- Mar. -->
      <g transform="translate(85.550003 254.356563)scale(0.1 -0.1)">
       <use xlink:href="#DejaVuSans-77"/>
       <use x="86.279297" xlink:href="#DejaVuSans-97"/>
       <use x="147.558594" xlink:href="#DejaVuSans-114"/>
       <use x="188.53125" xlink:href="#DejaVuSans-46"/>
      </g>
      <!-- 13 -->
      <defs>
       <path d="M 12.40625 8.296875 
L 28.515625 8.296875 
L 28.515625 63.921875 
L 10.984375 60.40625 
L 10.984375 69.390625 
L 28.421875 72.90625 
L 38.28125 72.90625 
L 38.28125 8.296875 
L 54.390625 8.296875 
L 54.390625 0 
L 12.40625 0 
z
" id="DejaVuSans-49"/>
       <path d="M 40.578125 39.3125 
Q 47.65625 37.796875 51.625 33 
Q 55.609375 28.21875 55.609375 21.1875 
Q 55.609375 10.40625 48.1875 4.484375 
Q 40.765625 -1.421875 27.09375 -1.421875 
Q 22.515625 -1.421875 17.65625 -0.515625 
Q 12.796875 0.390625 7.625 2.203125 
L 7.625 11.71875 
Q 11.71875 9.328125 16.59375 8.109375 
Q 21.484375 6.890625 26.8125 6.890625 
Q 36.078125 6.890625 40.9375 10.546875 
Q 45.796875 14.203125 45.796875 21.1875 
Q 45.796875 27.640625 41.28125 31.265625 
Q 36.765625 34.90625 28.71875 34.90625 
L 20.21875 34.90625 
L 20.21875 43.015625 
L 29.109375 43.015625 
Q 36.375 43.015625 40.234375 45.921875 
Q 44.09375 48.828125 44.09375 54.296875 
Q 44.09375 59.90625 40.109375 62.90625 
Q 36.140625 65.921875 28.71875 65.921875 
Q 24.65625 65.921875 20.015625 65.03125 
Q 15.375 64.15625 9.8125 62.3125 
L 9.8125 71.09375 
Q 15.4375 72.65625 20.34375 73.4375 
Q 25.25 74.21875 29.59375 74.21875 
Q 40.828125 74.21875 47.359375 69.109375 
Q 53.90625 64.015625 53.90625 55.328125 
Q 53.90625 49.265625 50.4375 45.09375 
Q 46.96875 40.921875 40.578125 39.3125 
z
" id="DejaVuSans-51"/>
      </defs>
      <g transform="translate(90.203128 265.554375)scale(0.1 -0.1)">
       <use xlink:href="#DejaVuSans-49"/>
       <use x="63.623047" xlink:href="#DejaVuSans-51"/>
      </g>
     </g>
    </g>
    <g id="xtick_3">
     <g id="line2d_5">
      <path clip-path="url(#pf5ba974b38)" d="M 130.262506 239.758125 
L 130.262506 22.318125 
" style="fill:none;stroke:#b0b0b0;stroke-linecap:square;stroke-opacity:0.8;stroke-width:0.8;"/>
     </g>
     <g id="line2d_6">
      <g>
       <use style="stroke:#000000;stroke-width:0.8;" x="130.262506" xlink:href="#m79bda07518" y="239.758125"/>
      </g>
     </g>
     <g id="text_3">
      <!-- Mar. -->
      <g transform="translate(119.246881 254.356563)scale(0.1 -0.1)">
       <use xlink:href="#DejaVuSans-77"/>
       <use x="86.279297" xlink:href="#DejaVuSans-97"/>
       <use x="147.558594" xlink:href="#DejaVuSans-114"/>
       <use x="188.53125" xlink:href="#DejaVuSans-46"/>
      </g>
      <!-- 17 -->
      <defs>
       <path d="M 8.203125 72.90625 
L 55.078125 72.90625 
L 55.078125 68.703125 
L 28.609375 0 
L 18.3125 0 
L 43.21875 64.59375 
L 8.203125 64.59375 
z
" id="DejaVuSans-55"/>
      </defs>
      <g transform="translate(123.900006 265.554375)scale(0.1 -0.1)">
       <use xlink:href="#DejaVuSans-49"/>
       <use x="63.623047" xlink:href="#DejaVuSans-55"/>
      </g>
     </g>
    </g>
    <g id="xtick_4">
     <g id="line2d_7">
      <path clip-path="url(#pf5ba974b38)" d="M 163.959384 239.758125 
L 163.959384 22.318125 
" style="fill:none;stroke:#b0b0b0;stroke-linecap:square;stroke-opacity:0.8;stroke-width:0.8;"/>
     </g>
     <g id="line2d_8">
      <g>
       <use style="stroke:#000000;stroke-width:0.8;" x="163.959384" xlink:href="#m79bda07518" y="239.758125"/>
      </g>
     </g>
     <g id="text_4">
      <!-- Mar. -->
      <g transform="translate(152.943759 254.356563)scale(0.1 -0.1)">
       <use xlink:href="#DejaVuSans-77"/>
       <use x="86.279297" xlink:href="#DejaVuSans-97"/>
       <use x="147.558594" xlink:href="#DejaVuSans-114"/>
       <use x="188.53125" xlink:href="#DejaVuSans-46"/>
      </g>
      <!-- 21 -->
      <defs>
       <path d="M 19.1875 8.296875 
L 53.609375 8.296875 
L 53.609375 0 
L 7.328125 0 
L 7.328125 8.296875 
Q 12.9375 14.109375 22.625 23.890625 
Q 32.328125 33.6875 34.8125 36.53125 
Q 39.546875 41.84375 41.421875 45.53125 
Q 43.3125 49.21875 43.3125 52.78125 
Q 43.3125 58.59375 39.234375 62.25 
Q 35.15625 65.921875 28.609375 65.921875 
Q 23.96875 65.921875 18.8125 64.3125 
Q 13.671875 62.703125 7.8125 59.421875 
L 7.8125 69.390625 
Q 13.765625 71.78125 18.9375 73 
Q 24.125 74.21875 28.421875 74.21875 
Q 39.75 74.21875 46.484375 68.546875 
Q 53.21875 62.890625 53.21875 53.421875 
Q 53.21875 48.921875 51.53125 44.890625 
Q 49.859375 40.875 45.40625 35.40625 
Q 44.1875 33.984375 37.640625 27.21875 
Q 31.109375 20.453125 19.1875 8.296875 
z
" id="DejaVuSans-50"/>
      </defs>
      <g transform="translate(157.596884 265.554375)scale(0.1 -0.1)">
       <use xlink:href="#DejaVuSans-50"/>
       <use x="63.623047" xlink:href="#DejaVuSans-49"/>
      </g>
     </g>
    </g>
    <g id="xtick_5">
     <g id="line2d_9">
      <path clip-path="url(#pf5ba974b38)" d="M 197.656262 239.758125 
L 197.656262 22.318125 
" style="fill:none;stroke:#b0b0b0;stroke-linecap:square;stroke-opacity:0.8;stroke-width:0.8;"/>
     </g>
     <g id="line2d_10">
      <g>
       <use style="stroke:#000000;stroke-width:0.8;" x="197.656262" xlink:href="#m79bda07518" y="239.758125"/>
      </g>
     </g>
     <g id="text_5">
      <!-- Mar. -->
      <g transform="translate(186.640637 254.356563)scale(0.1 -0.1)">
       <use xlink:href="#DejaVuSans-77"/>
       <use x="86.279297" xlink:href="#DejaVuSans-97"/>
       <use x="147.558594" xlink:href="#DejaVuSans-114"/>
       <use x="188.53125" xlink:href="#DejaVuSans-46"/>
      </g>
      <!-- 25 -->
      <defs>
       <path d="M 10.796875 72.90625 
L 49.515625 72.90625 
L 49.515625 64.59375 
L 19.828125 64.59375 
L 19.828125 46.734375 
Q 21.96875 47.46875 24.109375 47.828125 
Q 26.265625 48.1875 28.421875 48.1875 
Q 40.625 48.1875 47.75 41.5 
Q 54.890625 34.8125 54.890625 23.390625 
Q 54.890625 11.625 47.5625 5.09375 
Q 40.234375 -1.421875 26.90625 -1.421875 
Q 22.3125 -1.421875 17.546875 -0.640625 
Q 12.796875 0.140625 7.71875 1.703125 
L 7.71875 11.625 
Q 12.109375 9.234375 16.796875 8.0625 
Q 21.484375 6.890625 26.703125 6.890625 
Q 35.15625 6.890625 40.078125 11.328125 
Q 45.015625 15.765625 45.015625 23.390625 
Q 45.015625 31 40.078125 35.4375 
Q 35.15625 39.890625 26.703125 39.890625 
Q 22.75 39.890625 18.8125 39.015625 
Q 14.890625 38.140625 10.796875 36.28125 
z
" id="DejaVuSans-53"/>
      </defs>
      <g transform="translate(191.293762 265.554375)scale(0.1 -0.1)">
       <use xlink:href="#DejaVuSans-50"/>
       <use x="63.623047" xlink:href="#DejaVuSans-53"/>
      </g>
     </g>
    </g>
    <g id="xtick_6">
     <g id="line2d_11">
      <path clip-path="url(#pf5ba974b38)" d="M 231.353141 239.758125 
L 231.353141 22.318125 
" style="fill:none;stroke:#b0b0b0;stroke-linecap:square;stroke-opacity:0.8;stroke-width:0.8;"/>
     </g>
     <g id="line2d_12">
      <g>
       <use style="stroke:#000000;stroke-width:0.8;" x="231.353141" xlink:href="#m79bda07518" y="239.758125"/>
      </g>
     </g>
     <g id="text_6">
      <!-- Mar. -->
      <g transform="translate(220.337516 254.356563)scale(0.1 -0.1)">
       <use xlink:href="#DejaVuSans-77"/>
       <use x="86.279297" xlink:href="#DejaVuSans-97"/>
       <use x="147.558594" xlink:href="#DejaVuSans-114"/>
       <use x="188.53125" xlink:href="#DejaVuSans-46"/>
      </g>
      <!-- 29 -->
      <g transform="translate(224.990641 265.554375)scale(0.1 -0.1)">
       <use xlink:href="#DejaVuSans-50"/>
       <use x="63.623047" xlink:href="#DejaVuSans-57"/>
      </g>
     </g>
    </g>
    <g id="xtick_7">
     <g id="line2d_13">
      <path clip-path="url(#pf5ba974b38)" d="M 256.625799 239.758125 
L 256.625799 22.318125 
" style="fill:none;stroke:#b0b0b0;stroke-linecap:square;stroke-opacity:0.8;stroke-width:0.8;"/>
     </g>
     <g id="line2d_14">
      <g>
       <use style="stroke:#000000;stroke-width:0.8;" x="256.625799" xlink:href="#m79bda07518" y="239.758125"/>
      </g>
     </g>
     <g id="text_7">
      <!-- Apr. -->
      <defs>
       <path d="M 34.1875 63.1875 
L 20.796875 26.90625 
L 47.609375 26.90625 
z
M 28.609375 72.90625 
L 39.796875 72.90625 
L 67.578125 0 
L 57.328125 0 
L 50.6875 18.703125 
L 17.828125 18.703125 
L 11.1875 0 
L 0.78125 0 
z
" id="DejaVuSans-65"/>
       <path d="M 18.109375 8.203125 
L 18.109375 -20.796875 
L 9.078125 -20.796875 
L 9.078125 54.6875 
L 18.109375 54.6875 
L 18.109375 46.390625 
Q 20.953125 51.265625 25.265625 53.625 
Q 29.59375 56 35.59375 56 
Q 45.5625 56 51.78125 48.09375 
Q 58.015625 40.1875 58.015625 27.296875 
Q 58.015625 14.40625 51.78125 6.484375 
Q 45.5625 -1.421875 35.59375 -1.421875 
Q 29.59375 -1.421875 25.265625 0.953125 
Q 20.953125 3.328125 18.109375 8.203125 
z
M 48.6875 27.296875 
Q 48.6875 37.203125 44.609375 42.84375 
Q 40.53125 48.484375 33.40625 48.484375 
Q 26.265625 48.484375 22.1875 42.84375 
Q 18.109375 37.203125 18.109375 27.296875 
Q 18.109375 17.390625 22.1875 11.75 
Q 26.265625 6.109375 33.40625 6.109375 
Q 40.53125 6.109375 44.609375 11.75 
Q 48.6875 17.390625 48.6875 27.296875 
z
" id="DejaVuSans-112"/>
      </defs>
      <g transform="translate(246.393768 254.356563)scale(0.1 -0.1)">
       <use xlink:href="#DejaVuSans-65"/>
       <use x="68.408203" xlink:href="#DejaVuSans-112"/>
       <use x="131.884766" xlink:href="#DejaVuSans-114"/>
       <use x="172.857422" xlink:href="#DejaVuSans-46"/>
      </g>
      <!-- 01 -->
      <g transform="translate(250.263299 265.554375)scale(0.1 -0.1)">
       <use xlink:href="#DejaVuSans-48"/>
       <use x="63.623047" xlink:href="#DejaVuSans-49"/>
      </g>
     </g>
    </g>
    <g id="xtick_8">
     <g id="line2d_15">
      <path clip-path="url(#pf5ba974b38)" d="M 290.322677 239.758125 
L 290.322677 22.318125 
" style="fill:none;stroke:#b0b0b0;stroke-linecap:square;stroke-opacity:0.8;stroke-width:0.8;"/>
     </g>
     <g id="line2d_16">
      <g>
       <use style="stroke:#000000;stroke-width:0.8;" x="290.322677" xlink:href="#m79bda07518" y="239.758125"/>
      </g>
     </g>
     <g id="text_8">
      <!-- Apr. -->
      <g transform="translate(280.090646 254.356563)scale(0.1 -0.1)">
       <use xlink:href="#DejaVuSans-65"/>
       <use x="68.408203" xlink:href="#DejaVuSans-112"/>
       <use x="131.884766" xlink:href="#DejaVuSans-114"/>
       <use x="172.857422" xlink:href="#DejaVuSans-46"/>
      </g>
      <!-- 05 -->
      <g transform="translate(283.960177 265.554375)scale(0.1 -0.1)">
       <use xlink:href="#DejaVuSans-48"/>
       <use x="63.623047" xlink:href="#DejaVuSans-53"/>
      </g>
     </g>
    </g>
    <g id="xtick_9">
     <g id="line2d_17">
      <path clip-path="url(#pf5ba974b38)" d="M 324.019555 239.758125 
L 324.019555 22.318125 
" style="fill:none;stroke:#b0b0b0;stroke-linecap:square;stroke-opacity:0.8;stroke-width:0.8;"/>
     </g>
     <g id="line2d_18">
      <g>
       <use style="stroke:#000000;stroke-width:0.8;" x="324.019555" xlink:href="#m79bda07518" y="239.758125"/>
      </g>
     </g>
     <g id="text_9">
      <!-- Apr. -->
      <g transform="translate(313.787524 254.356563)scale(0.1 -0.1)">
       <use xlink:href="#DejaVuSans-65"/>
       <use x="68.408203" xlink:href="#DejaVuSans-112"/>
       <use x="131.884766" xlink:href="#DejaVuSans-114"/>
       <use x="172.857422" xlink:href="#DejaVuSans-46"/>
      </g>
      <!-- 09 -->
      <g transform="translate(317.657055 265.554375)scale(0.1 -0.1)">
       <use xlink:href="#DejaVuSans-48"/>
       <use x="63.623047" xlink:href="#DejaVuSans-57"/>
      </g>
     </g>
    </g>
    <g id="xtick_10">
     <g id="line2d_19">
      <path clip-path="url(#pf5ba974b38)" d="M 357.716434 239.758125 
L 357.716434 22.318125 
" style="fill:none;stroke:#b0b0b0;stroke-linecap:square;stroke-opacity:0.8;stroke-width:0.8;"/>
     </g>
     <g id="line2d_20">
      <g>
       <use style="stroke:#000000;stroke-width:0.8;" x="357.716434" xlink:href="#m79bda07518" y="239.758125"/>
      </g>
     </g>
     <g id="text_10">
      <!-- Apr. -->
      <g transform="translate(347.484402 254.356563)scale(0.1 -0.1)">
       <use xlink:href="#DejaVuSans-65"/>
       <use x="68.408203" xlink:href="#DejaVuSans-112"/>
       <use x="131.884766" xlink:href="#DejaVuSans-114"/>
       <use x="172.857422" xlink:href="#DejaVuSans-46"/>
      </g>
      <!-- 13 -->
      <g transform="translate(351.353934 265.554375)scale(0.1 -0.1)">
       <use xlink:href="#DejaVuSans-49"/>
       <use x="63.623047" xlink:href="#DejaVuSans-51"/>
      </g>
     </g>
    </g>
    <g id="xtick_11">
     <g id="line2d_21">
      <path clip-path="url(#pf5ba974b38)" d="M 391.413312 239.758125 
L 391.413312 22.318125 
" style="fill:none;stroke:#b0b0b0;stroke-linecap:square;stroke-opacity:0.8;stroke-width:0.8;"/>
     </g>
     <g id="line2d_22">
      <g>
       <use style="stroke:#000000;stroke-width:0.8;" x="391.413312" xlink:href="#m79bda07518" y="239.758125"/>
      </g>
     </g>
     <g id="text_11">
      <!-- Apr. -->
      <g transform="translate(381.18128 254.356563)scale(0.1 -0.1)">
       <use xlink:href="#DejaVuSans-65"/>
       <use x="68.408203" xlink:href="#DejaVuSans-112"/>
       <use x="131.884766" xlink:href="#DejaVuSans-114"/>
       <use x="172.857422" xlink:href="#DejaVuSans-46"/>
      </g>
      <!-- 17 -->
      <g transform="translate(385.050812 265.554375)scale(0.1 -0.1)">
       <use xlink:href="#DejaVuSans-49"/>
       <use x="63.623047" xlink:href="#DejaVuSans-55"/>
      </g>
     </g>
    </g>
   </g>
   <g id="matplotlib.axis_2">
    <g id="ytick_1">
     <g id="line2d_23">
      <path clip-path="url(#pf5ba974b38)" d="M 62.86875 239.758125 
L 397.66875 239.758125 
" style="fill:none;stroke:#b0b0b0;stroke-linecap:square;stroke-opacity:0.8;stroke-width:0.8;"/>
     </g>
     <g id="line2d_24">
      <defs>
       <path d="M 0 0 
L -3.5 0 
" id="m4c7d95149f" style="stroke:#000000;stroke-width:0.8;"/>
      </defs>
      <g>
       <use style="stroke:#000000;stroke-width:0.8;" x="62.86875" xlink:href="#m4c7d95149f" y="239.758125"/>
      </g>
     </g>
     <g id="text_12">
      <!-- 2 -->
      <g transform="translate(49.50625 243.557344)scale(0.1 -0.1)">
       <use xlink:href="#DejaVuSans-50"/>
      </g>
     </g>
    </g>
    <g id="ytick_2">
     <g id="line2d_25">
      <path clip-path="url(#pf5ba974b38)" d="M 62.86875 220.259182 
L 397.66875 220.259182 
" style="fill:none;stroke:#b0b0b0;stroke-linecap:square;stroke-opacity:0.8;stroke-width:0.8;"/>
     </g>
     <g id="line2d_26">
      <g>
       <use style="stroke:#000000;stroke-width:0.8;" x="62.86875" xlink:href="#m4c7d95149f" y="220.259182"/>
      </g>
     </g>
     <g id="text_13">
      <!-- 5 -->
      <g transform="translate(49.50625 224.058401)scale(0.1 -0.1)">
       <use xlink:href="#DejaVuSans-53"/>
      </g>
     </g>
    </g>
    <g id="ytick_3">
     <g id="line2d_27">
      <path clip-path="url(#pf5ba974b38)" d="M 62.86875 205.508801 
L 397.66875 205.508801 
" style="fill:none;stroke:#b0b0b0;stroke-linecap:square;stroke-opacity:0.8;stroke-width:0.8;"/>
     </g>
     <g id="line2d_28">
      <g>
       <use style="stroke:#000000;stroke-width:0.8;" x="62.86875" xlink:href="#m4c7d95149f" y="205.508801"/>
      </g>
     </g>
     <g id="text_14">
      <!-- 10 -->
      <g transform="translate(43.14375 209.30802)scale(0.1 -0.1)">
       <use xlink:href="#DejaVuSans-49"/>
       <use x="63.623047" xlink:href="#DejaVuSans-48"/>
      </g>
     </g>
    </g>
    <g id="ytick_4">
     <g id="line2d_29">
      <path clip-path="url(#pf5ba974b38)" d="M 62.86875 190.75842 
L 397.66875 190.75842 
" style="fill:none;stroke:#b0b0b0;stroke-linecap:square;stroke-opacity:0.8;stroke-width:0.8;"/>
     </g>
     <g id="line2d_30">
      <g>
       <use style="stroke:#000000;stroke-width:0.8;" x="62.86875" xlink:href="#m4c7d95149f" y="190.75842"/>
      </g>
     </g>
     <g id="text_15">
      <!-- 20 -->
      <g transform="translate(43.14375 194.557639)scale(0.1 -0.1)">
       <use xlink:href="#DejaVuSans-50"/>
       <use x="63.623047" xlink:href="#DejaVuSans-48"/>
      </g>
     </g>
    </g>
    <g id="ytick_5">
     <g id="line2d_31">
      <path clip-path="url(#pf5ba974b38)" d="M 62.86875 171.259477 
L 397.66875 171.259477 
" style="fill:none;stroke:#b0b0b0;stroke-linecap:square;stroke-opacity:0.8;stroke-width:0.8;"/>
     </g>
     <g id="line2d_32">
      <g>
       <use style="stroke:#000000;stroke-width:0.8;" x="62.86875" xlink:href="#m4c7d95149f" y="171.259477"/>
      </g>
     </g>
     <g id="text_16">
      <!-- 50 -->
      <g transform="translate(43.14375 175.058696)scale(0.1 -0.1)">
       <use xlink:href="#DejaVuSans-53"/>
       <use x="63.623047" xlink:href="#DejaVuSans-48"/>
      </g>
     </g>
    </g>
    <g id="ytick_6">
     <g id="line2d_33">
      <path clip-path="url(#pf5ba974b38)" d="M 62.86875 156.509096 
L 397.66875 156.509096 
" style="fill:none;stroke:#b0b0b0;stroke-linecap:square;stroke-opacity:0.8;stroke-width:0.8;"/>
     </g>
     <g id="line2d_34">
      <g>
       <use style="stroke:#000000;stroke-width:0.8;" x="62.86875" xlink:href="#m4c7d95149f" y="156.509096"/>
      </g>
     </g>
     <g id="text_17">
      <!-- 100 -->
      <g transform="translate(36.78125 160.308315)scale(0.1 -0.1)">
       <use xlink:href="#DejaVuSans-49"/>
       <use x="63.623047" xlink:href="#DejaVuSans-48"/>
       <use x="127.246094" xlink:href="#DejaVuSans-48"/>
      </g>
     </g>
    </g>
    <g id="ytick_7">
     <g id="line2d_35">
      <path clip-path="url(#pf5ba974b38)" d="M 62.86875 141.758715 
L 397.66875 141.758715 
" style="fill:none;stroke:#b0b0b0;stroke-linecap:square;stroke-opacity:0.8;stroke-width:0.8;"/>
     </g>
     <g id="line2d_36">
      <g>
       <use style="stroke:#000000;stroke-width:0.8;" x="62.86875" xlink:href="#m4c7d95149f" y="141.758715"/>
      </g>
     </g>
     <g id="text_18">
      <!-- 200 -->
      <g transform="translate(36.78125 145.557934)scale(0.1 -0.1)">
       <use xlink:href="#DejaVuSans-50"/>
       <use x="63.623047" xlink:href="#DejaVuSans-48"/>
       <use x="127.246094" xlink:href="#DejaVuSans-48"/>
      </g>
     </g>
    </g>
    <g id="ytick_8">
     <g id="line2d_37">
      <path clip-path="url(#pf5ba974b38)" d="M 62.86875 122.259772 
L 397.66875 122.259772 
" style="fill:none;stroke:#b0b0b0;stroke-linecap:square;stroke-opacity:0.8;stroke-width:0.8;"/>
     </g>
     <g id="line2d_38">
      <g>
       <use style="stroke:#000000;stroke-width:0.8;" x="62.86875" xlink:href="#m4c7d95149f" y="122.259772"/>
      </g>
     </g>
     <g id="text_19">
      <!-- 500 -->
      <g transform="translate(36.78125 126.058991)scale(0.1 -0.1)">
       <use xlink:href="#DejaVuSans-53"/>
       <use x="63.623047" xlink:href="#DejaVuSans-48"/>
       <use x="127.246094" xlink:href="#DejaVuSans-48"/>
      </g>
     </g>
    </g>
    <g id="ytick_9">
     <g id="line2d_39">
      <path clip-path="url(#pf5ba974b38)" d="M 62.86875 107.509392 
L 397.66875 107.509392 
" style="fill:none;stroke:#b0b0b0;stroke-linecap:square;stroke-opacity:0.8;stroke-width:0.8;"/>
     </g>
     <g id="line2d_40">
      <g>
       <use style="stroke:#000000;stroke-width:0.8;" x="62.86875" xlink:href="#m4c7d95149f" y="107.509392"/>
      </g>
     </g>
     <g id="text_20">
      <!-- 1,000 -->
      <defs>
       <path d="M 11.71875 12.40625 
L 22.015625 12.40625 
L 22.015625 4 
L 14.015625 -11.625 
L 7.71875 -11.625 
L 11.71875 4 
z
" id="DejaVuSans-44"/>
      </defs>
      <g transform="translate(27.240625 111.30861)scale(0.1 -0.1)">
       <use xlink:href="#DejaVuSans-49"/>
       <use x="63.623047" xlink:href="#DejaVuSans-44"/>
       <use x="95.410156" xlink:href="#DejaVuSans-48"/>
       <use x="159.033203" xlink:href="#DejaVuSans-48"/>
       <use x="222.65625" xlink:href="#DejaVuSans-48"/>
      </g>
     </g>
    </g>
    <g id="ytick_10">
     <g id="line2d_41">
      <path clip-path="url(#pf5ba974b38)" d="M 62.86875 92.759011 
L 397.66875 92.759011 
" style="fill:none;stroke:#b0b0b0;stroke-linecap:square;stroke-opacity:0.8;stroke-width:0.8;"/>
     </g>
     <g id="line2d_42">
      <g>
       <use style="stroke:#000000;stroke-width:0.8;" x="62.86875" xlink:href="#m4c7d95149f" y="92.759011"/>
      </g>
     </g>
     <g id="text_21">
      <!-- 2,000 -->
      <g transform="translate(27.240625 96.558229)scale(0.1 -0.1)">
       <use xlink:href="#DejaVuSans-50"/>
       <use x="63.623047" xlink:href="#DejaVuSans-44"/>
       <use x="95.410156" xlink:href="#DejaVuSans-48"/>
       <use x="159.033203" xlink:href="#DejaVuSans-48"/>
       <use x="222.65625" xlink:href="#DejaVuSans-48"/>
      </g>
     </g>
    </g>
    <g id="ytick_11">
     <g id="line2d_43">
      <path clip-path="url(#pf5ba974b38)" d="M 62.86875 73.260068 
L 397.66875 73.260068 
" style="fill:none;stroke:#b0b0b0;stroke-linecap:square;stroke-opacity:0.8;stroke-width:0.8;"/>
     </g>
     <g id="line2d_44">
      <g>
       <use style="stroke:#000000;stroke-width:0.8;" x="62.86875" xlink:href="#m4c7d95149f" y="73.260068"/>
      </g>
     </g>
     <g id="text_22">
      <!-- 5,000 -->
      <g transform="translate(27.240625 77.059286)scale(0.1 -0.1)">
       <use xlink:href="#DejaVuSans-53"/>
       <use x="63.623047" xlink:href="#DejaVuSans-44"/>
       <use x="95.410156" xlink:href="#DejaVuSans-48"/>
       <use x="159.033203" xlink:href="#DejaVuSans-48"/>
       <use x="222.65625" xlink:href="#DejaVuSans-48"/>
      </g>
     </g>
    </g>
    <g id="ytick_12">
     <g id="line2d_45">
      <path clip-path="url(#pf5ba974b38)" d="M 62.86875 58.509687 
L 397.66875 58.509687 
" style="fill:none;stroke:#b0b0b0;stroke-linecap:square;stroke-opacity:0.8;stroke-width:0.8;"/>
     </g>
     <g id="line2d_46">
      <g>
       <use style="stroke:#000000;stroke-width:0.8;" x="62.86875" xlink:href="#m4c7d95149f" y="58.509687"/>
      </g>
     </g>
     <g id="text_23">
      <!-- 10,000 -->
      <g transform="translate(20.878125 62.308906)scale(0.1 -0.1)">
       <use xlink:href="#DejaVuSans-49"/>
       <use x="63.623047" xlink:href="#DejaVuSans-48"/>
       <use x="127.246094" xlink:href="#DejaVuSans-44"/>
       <use x="159.033203" xlink:href="#DejaVuSans-48"/>
       <use x="222.65625" xlink:href="#DejaVuSans-48"/>
       <use x="286.279297" xlink:href="#DejaVuSans-48"/>
      </g>
     </g>
    </g>
    <g id="ytick_13">
     <g id="line2d_47">
      <path clip-path="url(#pf5ba974b38)" d="M 62.86875 43.759306 
L 397.66875 43.759306 
" style="fill:none;stroke:#b0b0b0;stroke-linecap:square;stroke-opacity:0.8;stroke-width:0.8;"/>
     </g>
     <g id="line2d_48">
      <g>
       <use style="stroke:#000000;stroke-width:0.8;" x="62.86875" xlink:href="#m4c7d95149f" y="43.759306"/>
      </g>
     </g>
     <g id="text_24">
      <!-- 20,000 -->
      <g transform="translate(20.878125 47.558525)scale(0.1 -0.1)">
       <use xlink:href="#DejaVuSans-50"/>
       <use x="63.623047" xlink:href="#DejaVuSans-48"/>
       <use x="127.246094" xlink:href="#DejaVuSans-44"/>
       <use x="159.033203" xlink:href="#DejaVuSans-48"/>
       <use x="222.65625" xlink:href="#DejaVuSans-48"/>
       <use x="286.279297" xlink:href="#DejaVuSans-48"/>
      </g>
     </g>
    </g>
    <g id="ytick_14">
     <g id="line2d_49">
      <path clip-path="url(#pf5ba974b38)" d="M 62.86875 24.260363 
L 397.66875 24.260363 
" style="fill:none;stroke:#b0b0b0;stroke-linecap:square;stroke-opacity:0.8;stroke-width:0.8;"/>
     </g>
     <g id="line2d_50">
      <g>
       <use style="stroke:#000000;stroke-width:0.8;" x="62.86875" xlink:href="#m4c7d95149f" y="24.260363"/>
      </g>
     </g>
     <g id="text_25">
      <!-- 50,000 -->
      <g transform="translate(20.878125 28.059582)scale(0.1 -0.1)">
       <use xlink:href="#DejaVuSans-53"/>
       <use x="63.623047" xlink:href="#DejaVuSans-48"/>
       <use x="127.246094" xlink:href="#DejaVuSans-44"/>
       <use x="159.033203" xlink:href="#DejaVuSans-48"/>
       <use x="222.65625" xlink:href="#DejaVuSans-48"/>
       <use x="286.279297" xlink:href="#DejaVuSans-48"/>
      </g>
     </g>
    </g>
    <g id="ytick_15">
     <g id="line2d_51">
      <defs>
       <path d="M 0 0 
L -2 0 
" id="m9e94bc81b8" style="stroke:#000000;stroke-width:0.6;"/>
      </defs>
      <g>
       <use style="stroke:#000000;stroke-width:0.6;" x="62.86875" xlink:href="#m9e94bc81b8" y="231.129705"/>
      </g>
     </g>
    </g>
    <g id="ytick_16">
     <g id="line2d_52">
      <g>
       <use style="stroke:#000000;stroke-width:0.6;" x="62.86875" xlink:href="#m9e94bc81b8" y="225.007744"/>
      </g>
     </g>
    </g>
    <g id="ytick_17">
     <g id="line2d_53">
      <g>
       <use style="stroke:#000000;stroke-width:0.6;" x="62.86875" xlink:href="#m9e94bc81b8" y="216.379324"/>
      </g>
     </g>
    </g>
    <g id="ytick_18">
     <g id="line2d_54">
      <g>
       <use style="stroke:#000000;stroke-width:0.6;" x="62.86875" xlink:href="#m9e94bc81b8" y="213.098951"/>
      </g>
     </g>
    </g>
    <g id="ytick_19">
     <g id="line2d_55">
      <g>
       <use style="stroke:#000000;stroke-width:0.6;" x="62.86875" xlink:href="#m9e94bc81b8" y="210.257363"/>
      </g>
     </g>
    </g>
    <g id="ytick_20">
     <g id="line2d_56">
      <g>
       <use style="stroke:#000000;stroke-width:0.6;" x="62.86875" xlink:href="#m9e94bc81b8" y="207.750905"/>
      </g>
     </g>
    </g>
    <g id="ytick_21">
     <g id="line2d_57">
      <g>
       <use style="stroke:#000000;stroke-width:0.6;" x="62.86875" xlink:href="#m9e94bc81b8" y="182.130001"/>
      </g>
     </g>
    </g>
    <g id="ytick_22">
     <g id="line2d_58">
      <g>
       <use style="stroke:#000000;stroke-width:0.6;" x="62.86875" xlink:href="#m9e94bc81b8" y="176.008039"/>
      </g>
     </g>
    </g>
    <g id="ytick_23">
     <g id="line2d_59">
      <g>
       <use style="stroke:#000000;stroke-width:0.6;" x="62.86875" xlink:href="#m9e94bc81b8" y="167.37962"/>
      </g>
     </g>
    </g>
    <g id="ytick_24">
     <g id="line2d_60">
      <g>
       <use style="stroke:#000000;stroke-width:0.6;" x="62.86875" xlink:href="#m9e94bc81b8" y="164.099247"/>
      </g>
     </g>
    </g>
    <g id="ytick_25">
     <g id="line2d_61">
      <g>
       <use style="stroke:#000000;stroke-width:0.6;" x="62.86875" xlink:href="#m9e94bc81b8" y="161.257658"/>
      </g>
     </g>
    </g>
    <g id="ytick_26">
     <g id="line2d_62">
      <g>
       <use style="stroke:#000000;stroke-width:0.6;" x="62.86875" xlink:href="#m9e94bc81b8" y="158.7512"/>
      </g>
     </g>
    </g>
    <g id="ytick_27">
     <g id="line2d_63">
      <g>
       <use style="stroke:#000000;stroke-width:0.6;" x="62.86875" xlink:href="#m9e94bc81b8" y="133.130296"/>
      </g>
     </g>
    </g>
    <g id="ytick_28">
     <g id="line2d_64">
      <g>
       <use style="stroke:#000000;stroke-width:0.6;" x="62.86875" xlink:href="#m9e94bc81b8" y="127.008335"/>
      </g>
     </g>
    </g>
    <g id="ytick_29">
     <g id="line2d_65">
      <g>
       <use style="stroke:#000000;stroke-width:0.6;" x="62.86875" xlink:href="#m9e94bc81b8" y="118.379915"/>
      </g>
     </g>
    </g>
    <g id="ytick_30">
     <g id="line2d_66">
      <g>
       <use style="stroke:#000000;stroke-width:0.6;" x="62.86875" xlink:href="#m9e94bc81b8" y="115.099542"/>
      </g>
     </g>
    </g>
    <g id="ytick_31">
     <g id="line2d_67">
      <g>
       <use style="stroke:#000000;stroke-width:0.6;" x="62.86875" xlink:href="#m9e94bc81b8" y="112.257954"/>
      </g>
     </g>
    </g>
    <g id="ytick_32">
     <g id="line2d_68">
      <g>
       <use style="stroke:#000000;stroke-width:0.6;" x="62.86875" xlink:href="#m9e94bc81b8" y="109.751495"/>
      </g>
     </g>
    </g>
    <g id="ytick_33">
     <g id="line2d_69">
      <g>
       <use style="stroke:#000000;stroke-width:0.6;" x="62.86875" xlink:href="#m9e94bc81b8" y="84.130591"/>
      </g>
     </g>
    </g>
    <g id="ytick_34">
     <g id="line2d_70">
      <g>
       <use style="stroke:#000000;stroke-width:0.6;" x="62.86875" xlink:href="#m9e94bc81b8" y="78.00863"/>
      </g>
     </g>
    </g>
    <g id="ytick_35">
     <g id="line2d_71">
      <g>
       <use style="stroke:#000000;stroke-width:0.6;" x="62.86875" xlink:href="#m9e94bc81b8" y="69.38021"/>
      </g>
     </g>
    </g>
    <g id="ytick_36">
     <g id="line2d_72">
      <g>
       <use style="stroke:#000000;stroke-width:0.6;" x="62.86875" xlink:href="#m9e94bc81b8" y="66.099837"/>
      </g>
     </g>
    </g>
    <g id="ytick_37">
     <g id="line2d_73">
      <g>
       <use style="stroke:#000000;stroke-width:0.6;" x="62.86875" xlink:href="#m9e94bc81b8" y="63.258249"/>
      </g>
     </g>
    </g>
    <g id="ytick_38">
     <g id="line2d_74">
      <g>
       <use style="stroke:#000000;stroke-width:0.6;" x="62.86875" xlink:href="#m9e94bc81b8" y="60.75179"/>
      </g>
     </g>
    </g>
    <g id="ytick_39">
     <g id="line2d_75">
      <g>
       <use style="stroke:#000000;stroke-width:0.6;" x="62.86875" xlink:href="#m9e94bc81b8" y="35.130886"/>
      </g>
     </g>
    </g>
    <g id="ytick_40">
     <g id="line2d_76">
      <g>
       <use style="stroke:#000000;stroke-width:0.6;" x="62.86875" xlink:href="#m9e94bc81b8" y="29.008925"/>
      </g>
     </g>
    </g>
    <g id="text_26">
     <!-- Total cases per million -->
     <defs>
      <path d="M -0.296875 72.90625 
L 61.375 72.90625 
L 61.375 64.59375 
L 35.5 64.59375 
L 35.5 0 
L 25.59375 0 
L 25.59375 64.59375 
L -0.296875 64.59375 
z
" id="DejaVuSans-84"/>
      <path d="M 30.609375 48.390625 
Q 23.390625 48.390625 19.1875 42.75 
Q 14.984375 37.109375 14.984375 27.296875 
Q 14.984375 17.484375 19.15625 11.84375 
Q 23.34375 6.203125 30.609375 6.203125 
Q 37.796875 6.203125 41.984375 11.859375 
Q 46.1875 17.53125 46.1875 27.296875 
Q 46.1875 37.015625 41.984375 42.703125 
Q 37.796875 48.390625 30.609375 48.390625 
z
M 30.609375 56 
Q 42.328125 56 49.015625 48.375 
Q 55.71875 40.765625 55.71875 27.296875 
Q 55.71875 13.875 49.015625 6.21875 
Q 42.328125 -1.421875 30.609375 -1.421875 
Q 18.84375 -1.421875 12.171875 6.21875 
Q 5.515625 13.875 5.515625 27.296875 
Q 5.515625 40.765625 12.171875 48.375 
Q 18.84375 56 30.609375 56 
z
" id="DejaVuSans-111"/>
      <path d="M 18.3125 70.21875 
L 18.3125 54.6875 
L 36.8125 54.6875 
L 36.8125 47.703125 
L 18.3125 47.703125 
L 18.3125 18.015625 
Q 18.3125 11.328125 20.140625 9.421875 
Q 21.96875 7.515625 27.59375 7.515625 
L 36.8125 7.515625 
L 36.8125 0 
L 27.59375 0 
Q 17.1875 0 13.234375 3.875 
Q 9.28125 7.765625 9.28125 18.015625 
L 9.28125 47.703125 
L 2.6875 47.703125 
L 2.6875 54.6875 
L 9.28125 54.6875 
L 9.28125 70.21875 
z
" id="DejaVuSans-116"/>
      <path d="M 9.421875 75.984375 
L 18.40625 75.984375 
L 18.40625 0 
L 9.421875 0 
z
" id="DejaVuSans-108"/>
      <path id="DejaVuSans-32"/>
      <path d="M 48.78125 52.59375 
L 48.78125 44.1875 
Q 44.96875 46.296875 41.140625 47.34375 
Q 37.3125 48.390625 33.40625 48.390625 
Q 24.65625 48.390625 19.8125 42.84375 
Q 14.984375 37.3125 14.984375 27.296875 
Q 14.984375 17.28125 19.8125 11.734375 
Q 24.65625 6.203125 33.40625 6.203125 
Q 37.3125 6.203125 41.140625 7.25 
Q 44.96875 8.296875 48.78125 10.40625 
L 48.78125 2.09375 
Q 45.015625 0.34375 40.984375 -0.53125 
Q 36.96875 -1.421875 32.421875 -1.421875 
Q 20.0625 -1.421875 12.78125 6.34375 
Q 5.515625 14.109375 5.515625 27.296875 
Q 5.515625 40.671875 12.859375 48.328125 
Q 20.21875 56 33.015625 56 
Q 37.15625 56 41.109375 55.140625 
Q 45.0625 54.296875 48.78125 52.59375 
z
" id="DejaVuSans-99"/>
      <path d="M 44.28125 53.078125 
L 44.28125 44.578125 
Q 40.484375 46.53125 36.375 47.5 
Q 32.28125 48.484375 27.875 48.484375 
Q 21.1875 48.484375 17.84375 46.4375 
Q 14.5 44.390625 14.5 40.28125 
Q 14.5 37.15625 16.890625 35.375 
Q 19.28125 33.59375 26.515625 31.984375 
L 29.59375 31.296875 
Q 39.15625 29.25 43.1875 25.515625 
Q 47.21875 21.78125 47.21875 15.09375 
Q 47.21875 7.46875 41.1875 3.015625 
Q 35.15625 -1.421875 24.609375 -1.421875 
Q 20.21875 -1.421875 15.453125 -0.5625 
Q 10.6875 0.296875 5.421875 2 
L 5.421875 11.28125 
Q 10.40625 8.6875 15.234375 7.390625 
Q 20.0625 6.109375 24.8125 6.109375 
Q 31.15625 6.109375 34.5625 8.28125 
Q 37.984375 10.453125 37.984375 14.40625 
Q 37.984375 18.0625 35.515625 20.015625 
Q 33.0625 21.96875 24.703125 23.78125 
L 21.578125 24.515625 
Q 13.234375 26.265625 9.515625 29.90625 
Q 5.8125 33.546875 5.8125 39.890625 
Q 5.8125 47.609375 11.28125 51.796875 
Q 16.75 56 26.8125 56 
Q 31.78125 56 36.171875 55.265625 
Q 40.578125 54.546875 44.28125 53.078125 
z
" id="DejaVuSans-115"/>
      <path d="M 56.203125 29.59375 
L 56.203125 25.203125 
L 14.890625 25.203125 
Q 15.484375 15.921875 20.484375 11.0625 
Q 25.484375 6.203125 34.421875 6.203125 
Q 39.59375 6.203125 44.453125 7.46875 
Q 49.3125 8.734375 54.109375 11.28125 
L 54.109375 2.78125 
Q 49.265625 0.734375 44.1875 -0.34375 
Q 39.109375 -1.421875 33.890625 -1.421875 
Q 20.796875 -1.421875 13.15625 6.1875 
Q 5.515625 13.8125 5.515625 26.8125 
Q 5.515625 40.234375 12.765625 48.109375 
Q 20.015625 56 32.328125 56 
Q 43.359375 56 49.78125 48.890625 
Q 56.203125 41.796875 56.203125 29.59375 
z
M 47.21875 32.234375 
Q 47.125 39.59375 43.09375 43.984375 
Q 39.0625 48.390625 32.421875 48.390625 
Q 24.90625 48.390625 20.390625 44.140625 
Q 15.875 39.890625 15.1875 32.171875 
z
" id="DejaVuSans-101"/>
      <path d="M 52 44.1875 
Q 55.375 50.25 60.0625 53.125 
Q 64.75 56 71.09375 56 
Q 79.640625 56 84.28125 50.015625 
Q 88.921875 44.046875 88.921875 33.015625 
L 88.921875 0 
L 79.890625 0 
L 79.890625 32.71875 
Q 79.890625 40.578125 77.09375 44.375 
Q 74.3125 48.1875 68.609375 48.1875 
Q 61.625 48.1875 57.5625 43.546875 
Q 53.515625 38.921875 53.515625 30.90625 
L 53.515625 0 
L 44.484375 0 
L 44.484375 32.71875 
Q 44.484375 40.625 41.703125 44.40625 
Q 38.921875 48.1875 33.109375 48.1875 
Q 26.21875 48.1875 22.15625 43.53125 
Q 18.109375 38.875 18.109375 30.90625 
L 18.109375 0 
L 9.078125 0 
L 9.078125 54.6875 
L 18.109375 54.6875 
L 18.109375 46.1875 
Q 21.1875 51.21875 25.484375 53.609375 
Q 29.78125 56 35.6875 56 
Q 41.65625 56 45.828125 52.96875 
Q 50 49.953125 52 44.1875 
z
" id="DejaVuSans-109"/>
      <path d="M 9.421875 54.6875 
L 18.40625 54.6875 
L 18.40625 0 
L 9.421875 0 
z
M 9.421875 75.984375 
L 18.40625 75.984375 
L 18.40625 64.59375 
L 9.421875 64.59375 
z
" id="DejaVuSans-105"/>
      <path d="M 54.890625 33.015625 
L 54.890625 0 
L 45.90625 0 
L 45.90625 32.71875 
Q 45.90625 40.484375 42.875 44.328125 
Q 39.84375 48.1875 33.796875 48.1875 
Q 26.515625 48.1875 22.3125 43.546875 
Q 18.109375 38.921875 18.109375 30.90625 
L 18.109375 0 
L 9.078125 0 
L 9.078125 54.6875 
L 18.109375 54.6875 
L 18.109375 46.1875 
Q 21.34375 51.125 25.703125 53.5625 
Q 30.078125 56 35.796875 56 
Q 45.21875 56 50.046875 50.171875 
Q 54.890625 44.34375 54.890625 33.015625 
z
" id="DejaVuSans-110"/>
     </defs>
     <g transform="translate(14.798438 187.37875)rotate(-90)scale(0.1 -0.1)">
      <use xlink:href="#DejaVuSans-84"/>
      <use x="60.818359" xlink:href="#DejaVuSans-111"/>
      <use x="122" xlink:href="#DejaVuSans-116"/>
      <use x="161.208984" xlink:href="#DejaVuSans-97"/>
      <use x="222.488281" xlink:href="#DejaVuSans-108"/>
      <use x="250.271484" xlink:href="#DejaVuSans-32"/>
      <use x="282.058594" xlink:href="#DejaVuSans-99"/>
      <use x="337.039062" xlink:href="#DejaVuSans-97"/>
      <use x="398.318359" xlink:href="#DejaVuSans-115"/>
      <use x="450.417969" xlink:href="#DejaVuSans-101"/>
      <use x="511.941406" xlink:href="#DejaVuSans-115"/>
      <use x="564.041016" xlink:href="#DejaVuSans-32"/>
      <use x="595.828125" xlink:href="#DejaVuSans-112"/>
      <use x="659.304688" xlink:href="#DejaVuSans-101"/>
      <use x="720.828125" xlink:href="#DejaVuSans-114"/>
      <use x="761.941406" xlink:href="#DejaVuSans-32"/>
      <use x="793.728516" xlink:href="#DejaVuSans-109"/>
      <use x="891.140625" xlink:href="#DejaVuSans-105"/>
      <use x="918.923828" xlink:href="#DejaVuSans-108"/>
      <use x="946.707031" xlink:href="#DejaVuSans-108"/>
      <use x="974.490234" xlink:href="#DejaVuSans-105"/>
      <use x="1002.273438" xlink:href="#DejaVuSans-111"/>
      <use x="1063.455078" xlink:href="#DejaVuSans-110"/>
     </g>
    </g>
   </g>
   <g id="line2d_77">
    <path clip-path="url(#pf5ba974b38)" d="M 324.019555 62.67712 
L 332.443775 61.621731 
L 340.867994 60.566342 
L 349.292214 59.510954 
L 357.716434 58.455565 
" style="fill:none;stroke:#7f7f7f;stroke-dasharray:7.4,3.2;stroke-dashoffset:0;stroke-width:2;"/>
   </g>
   <g id="line2d_78">
    <path clip-path="url(#pf5ba974b38)" d="M 324.019555 70.304897 
L 332.443775 69.051424 
L 340.867994 67.797952 
L 349.292214 66.544479 
L 357.716434 65.291007 
" style="fill:none;stroke:#7f7f7f;stroke-dasharray:7.4,3.2;stroke-dashoffset:0;stroke-width:2;"/>
   </g>
   <g id="line2d_79">
    <path clip-path="url(#pf5ba974b38)" d="M 324.019555 105.931376 
L 332.443775 104.786608 
L 340.867994 103.641839 
L 349.292214 102.497071 
L 357.716434 101.352302 
" style="fill:none;stroke:#7f7f7f;stroke-dasharray:7.4,3.2;stroke-dashoffset:0;stroke-width:2;"/>
   </g>
   <g id="line2d_80">
    <path clip-path="url(#pf5ba974b38)" d="M 324.019555 112.712589 
L 332.443775 111.528676 
L 340.867994 110.344763 
L 349.292214 109.16085 
L 357.716434 107.976937 
" style="fill:none;stroke:#7f7f7f;stroke-dasharray:7.4,3.2;stroke-dashoffset:0;stroke-width:2;"/>
   </g>
   <g id="line2d_81">
    <path clip-path="url(#pf5ba974b38)" d="M 324.019555 126.874334 
L 332.443775 125.291736 
L 340.867994 123.709139 
L 349.292214 122.126542 
L 357.716434 120.543945 
" style="fill:none;stroke:#7f7f7f;stroke-dasharray:7.4,3.2;stroke-dashoffset:0;stroke-width:2;"/>
   </g>
   <g id="patch_3">
    <path d="M 62.86875 239.758125 
L 62.86875 22.318125 
" style="fill:none;stroke:#000000;stroke-linecap:square;stroke-linejoin:miter;stroke-width:0.8;"/>
   </g>
   <g id="patch_4">
    <path d="M 397.66875 239.758125 
L 397.66875 22.318125 
" style="fill:none;stroke:#000000;stroke-linecap:square;stroke-linejoin:miter;stroke-width:0.8;"/>
   </g>
   <g id="patch_5">
    <path d="M 62.86875 239.758125 
L 397.66875 239.758125 
" style="fill:none;stroke:#000000;stroke-linecap:square;stroke-linejoin:miter;stroke-width:0.8;"/>
   </g>
   <g id="patch_6">
    <path d="M 62.86875 22.318125 
L 397.66875 22.318125 
" style="fill:none;stroke:#000000;stroke-linecap:square;stroke-linejoin:miter;stroke-width:0.8;"/>
   </g>
   <g id="text_27">
    <!-- © Scott Sievert -->
    <defs>
     <path d="M 50 72.515625 
Q 57.421875 72.515625 63.84375 69.828125 
Q 70.265625 67.140625 75.59375 61.8125 
Q 80.90625 56.5 83.546875 50.09375 
Q 86.1875 43.703125 86.1875 36.1875 
Q 86.1875 28.765625 83.546875 22.390625 
Q 80.90625 16.015625 75.59375 10.6875 
Q 70.265625 5.375 63.84375 2.6875 
Q 57.421875 0 50 0 
Q 42.578125 0 36.15625 2.6875 
Q 29.734375 5.375 24.421875 10.6875 
Q 19.09375 16.015625 16.453125 22.390625 
Q 13.8125 28.765625 13.8125 36.1875 
Q 13.8125 43.703125 16.453125 50.09375 
Q 19.09375 56.5 24.421875 61.8125 
Q 29.734375 67.140625 36.15625 69.828125 
Q 42.578125 72.515625 50 72.515625 
z
M 50 67.484375 
Q 43.609375 67.484375 38.078125 65.1875 
Q 32.5625 62.890625 27.984375 58.296875 
Q 23.390625 53.71875 21.046875 48.125 
Q 18.703125 42.53125 18.703125 36.1875 
Q 18.703125 29.890625 21.046875 24.34375 
Q 23.390625 18.796875 27.984375 14.203125 
Q 32.5625 9.625 38.078125 7.296875 
Q 43.609375 4.984375 50 4.984375 
Q 56.453125 4.984375 61.984375 7.296875 
Q 67.53125 9.625 72.125 14.203125 
Q 76.65625 18.75 78.921875 24.265625 
Q 81.203125 29.78125 81.203125 36.1875 
Q 81.203125 42.671875 78.90625 48.21875 
Q 76.609375 53.765625 72.125 58.296875 
Q 67.53125 62.890625 61.984375 65.1875 
Q 56.453125 67.484375 50 67.484375 
z
M 64.59375 55.515625 
L 64.59375 49.21875 
Q 61.375 50.828125 58.203125 51.609375 
Q 55.03125 52.390625 51.8125 52.390625 
Q 44.53125 52.390625 40.453125 48.109375 
Q 36.375 43.84375 36.375 36.1875 
Q 36.375 28.421875 40.546875 24.171875 
Q 44.734375 19.921875 52.296875 19.921875 
Q 55.421875 19.921875 58.390625 20.671875 
Q 61.375 21.4375 64.59375 23.09375 
L 64.59375 16.890625 
Q 61.328125 15.484375 57.984375 14.796875 
Q 54.640625 14.109375 51.21875 14.109375 
Q 40.671875 14.109375 34.546875 20.0625 
Q 28.421875 26.03125 28.421875 36.1875 
Q 28.421875 46.390625 34.546875 52.296875 
Q 40.671875 58.203125 51.21875 58.203125 
Q 54.78125 58.203125 58.09375 57.515625 
Q 61.421875 56.84375 64.59375 55.515625 
z
" id="DejaVuSans-169"/>
     <path d="M 53.515625 70.515625 
L 53.515625 60.890625 
Q 47.90625 63.578125 42.921875 64.890625 
Q 37.9375 66.21875 33.296875 66.21875 
Q 25.25 66.21875 20.875 63.09375 
Q 16.5 59.96875 16.5 54.203125 
Q 16.5 49.359375 19.40625 46.890625 
Q 22.3125 44.4375 30.421875 42.921875 
L 36.375 41.703125 
Q 47.40625 39.59375 52.65625 34.296875 
Q 57.90625 29 57.90625 20.125 
Q 57.90625 9.515625 50.796875 4.046875 
Q 43.703125 -1.421875 29.984375 -1.421875 
Q 24.8125 -1.421875 18.96875 -0.25 
Q 13.140625 0.921875 6.890625 3.21875 
L 6.890625 13.375 
Q 12.890625 10.015625 18.65625 8.296875 
Q 24.421875 6.59375 29.984375 6.59375 
Q 38.421875 6.59375 43.015625 9.90625 
Q 47.609375 13.234375 47.609375 19.390625 
Q 47.609375 24.75 44.3125 27.78125 
Q 41.015625 30.8125 33.5 32.328125 
L 27.484375 33.5 
Q 16.453125 35.6875 11.515625 40.375 
Q 6.59375 45.0625 6.59375 53.421875 
Q 6.59375 63.09375 13.40625 68.65625 
Q 20.21875 74.21875 32.171875 74.21875 
Q 37.3125 74.21875 42.625 73.28125 
Q 47.953125 72.359375 53.515625 70.515625 
z
" id="DejaVuSans-83"/>
     <path d="M 2.984375 54.6875 
L 12.5 54.6875 
L 29.59375 8.796875 
L 46.6875 54.6875 
L 56.203125 54.6875 
L 35.6875 0 
L 23.484375 0 
z
" id="DejaVuSans-118"/>
    </defs>
    <g style="opacity:0.3;" transform="translate(321.850774 280.12941)scale(0.1 -0.1)">
     <use xlink:href="#DejaVuSans-169"/>
     <use x="100" xlink:href="#DejaVuSans-32"/>
     <use x="131.787109" xlink:href="#DejaVuSans-83"/>
     <use x="195.263672" xlink:href="#DejaVuSans-99"/>
     <use x="250.244141" xlink:href="#DejaVuSans-111"/>
     <use x="311.425781" xlink:href="#DejaVuSans-116"/>
     <use x="350.634766" xlink:href="#DejaVuSans-116"/>
     <use x="389.84375" xlink:href="#DejaVuSans-32"/>
     <use x="421.630859" xlink:href="#DejaVuSans-83"/>
     <use x="485.107422" xlink:href="#DejaVuSans-105"/>
     <use x="512.890625" xlink:href="#DejaVuSans-101"/>
     <use x="574.414062" xlink:href="#DejaVuSans-118"/>
     <use x="633.59375" xlink:href="#DejaVuSans-101"/>
     <use x="695.117188" xlink:href="#DejaVuSans-114"/>
     <use x="736.230469" xlink:href="#DejaVuSans-116"/>
    </g>
   </g>
   <g id="text_28">
    <!-- State infection rates -->
    <defs>
     <path d="M 37.109375 75.984375 
L 37.109375 68.5 
L 28.515625 68.5 
Q 23.6875 68.5 21.796875 66.546875 
Q 19.921875 64.59375 19.921875 59.515625 
L 19.921875 54.6875 
L 34.71875 54.6875 
L 34.71875 47.703125 
L 19.921875 47.703125 
L 19.921875 0 
L 10.890625 0 
L 10.890625 47.703125 
L 2.296875 47.703125 
L 2.296875 54.6875 
L 10.890625 54.6875 
L 10.890625 58.5 
Q 10.890625 67.625 15.140625 71.796875 
Q 19.390625 75.984375 28.609375 75.984375 
z
" id="DejaVuSans-102"/>
    </defs>
    <g transform="translate(169.194375 16.318125)scale(0.12 -0.12)">
     <use xlink:href="#DejaVuSans-83"/>
     <use x="63.476562" xlink:href="#DejaVuSans-116"/>
     <use x="102.685547" xlink:href="#DejaVuSans-97"/>
     <use x="163.964844" xlink:href="#DejaVuSans-116"/>
     <use x="203.173828" xlink:href="#DejaVuSans-101"/>
     <use x="264.697266" xlink:href="#DejaVuSans-32"/>
     <use x="296.484375" xlink:href="#DejaVuSans-105"/>
     <use x="324.267578" xlink:href="#DejaVuSans-110"/>
     <use x="387.646484" xlink:href="#DejaVuSans-102"/>
     <use x="422.851562" xlink:href="#DejaVuSans-101"/>
     <use x="484.375" xlink:href="#DejaVuSans-99"/>
     <use x="539.355469" xlink:href="#DejaVuSans-116"/>
     <use x="578.564453" xlink:href="#DejaVuSans-105"/>
     <use x="606.347656" xlink:href="#DejaVuSans-111"/>
     <use x="667.529297" xlink:href="#DejaVuSans-110"/>
     <use x="730.908203" xlink:href="#DejaVuSans-32"/>
     <use x="762.695312" xlink:href="#DejaVuSans-114"/>
     <use x="803.808594" xlink:href="#DejaVuSans-97"/>
     <use x="865.087891" xlink:href="#DejaVuSans-116"/>
     <use x="904.296875" xlink:href="#DejaVuSans-101"/>
     <use x="965.820312" xlink:href="#DejaVuSans-115"/>
    </g>
   </g>
   <g id="legend_1">
    <g id="patch_7">
     <path d="M 272.401563 234.758125 
L 390.66875 234.758125 
Q 392.66875 234.758125 392.66875 232.758125 
L 392.66875 145.6675 
Q 392.66875 143.6675 390.66875 143.6675 
L 272.401563 143.6675 
Q 270.401563 143.6675 270.401563 145.6675 
L 270.401563 232.758125 
Q 270.401563 234.758125 272.401563 234.758125 
z
" style="fill:#ffffff;opacity:0.8;stroke:#cccccc;stroke-linejoin:miter;"/>
    </g>
    <g id="text_29">
     <!-- State (cases in 7 days) -->
     <defs>
      <path d="M 31 75.875 
Q 24.46875 64.65625 21.28125 53.65625 
Q 18.109375 42.671875 18.109375 31.390625 
Q 18.109375 20.125 21.3125 9.0625 
Q 24.515625 -2 31 -13.1875 
L 23.1875 -13.1875 
Q 15.875 -1.703125 12.234375 9.375 
Q 8.59375 20.453125 8.59375 31.390625 
Q 8.59375 42.28125 12.203125 53.3125 
Q 15.828125 64.359375 23.1875 75.875 
z
" id="DejaVuSans-40"/>
      <path d="M 45.40625 46.390625 
L 45.40625 75.984375 
L 54.390625 75.984375 
L 54.390625 0 
L 45.40625 0 
L 45.40625 8.203125 
Q 42.578125 3.328125 38.25 0.953125 
Q 33.9375 -1.421875 27.875 -1.421875 
Q 17.96875 -1.421875 11.734375 6.484375 
Q 5.515625 14.40625 5.515625 27.296875 
Q 5.515625 40.1875 11.734375 48.09375 
Q 17.96875 56 27.875 56 
Q 33.9375 56 38.25 53.625 
Q 42.578125 51.265625 45.40625 46.390625 
z
M 14.796875 27.296875 
Q 14.796875 17.390625 18.875 11.75 
Q 22.953125 6.109375 30.078125 6.109375 
Q 37.203125 6.109375 41.296875 11.75 
Q 45.40625 17.390625 45.40625 27.296875 
Q 45.40625 37.203125 41.296875 42.84375 
Q 37.203125 48.484375 30.078125 48.484375 
Q 22.953125 48.484375 18.875 42.84375 
Q 14.796875 37.203125 14.796875 27.296875 
z
" id="DejaVuSans-100"/>
      <path d="M 32.171875 -5.078125 
Q 28.375 -14.84375 24.75 -17.8125 
Q 21.140625 -20.796875 15.09375 -20.796875 
L 7.90625 -20.796875 
L 7.90625 -13.28125 
L 13.1875 -13.28125 
Q 16.890625 -13.28125 18.9375 -11.515625 
Q 21 -9.765625 23.484375 -3.21875 
L 25.09375 0.875 
L 2.984375 54.6875 
L 12.5 54.6875 
L 29.59375 11.921875 
L 46.6875 54.6875 
L 56.203125 54.6875 
z
" id="DejaVuSans-121"/>
      <path d="M 8.015625 75.875 
L 15.828125 75.875 
Q 23.140625 64.359375 26.78125 53.3125 
Q 30.421875 42.28125 30.421875 31.390625 
Q 30.421875 20.453125 26.78125 9.375 
Q 23.140625 -1.703125 15.828125 -13.1875 
L 8.015625 -13.1875 
Q 14.5 -2 17.703125 9.0625 
Q 20.90625 20.125 20.90625 31.390625 
Q 20.90625 42.671875 17.703125 53.65625 
Q 14.5 64.65625 8.015625 75.875 
z
" id="DejaVuSans-41"/>
     </defs>
     <g transform="translate(274.401563 155.265938)scale(0.1 -0.1)">
      <use xlink:href="#DejaVuSans-83"/>
      <use x="63.476562" xlink:href="#DejaVuSans-116"/>
      <use x="102.685547" xlink:href="#DejaVuSans-97"/>
      <use x="163.964844" xlink:href="#DejaVuSans-116"/>
      <use x="203.173828" xlink:href="#DejaVuSans-101"/>
      <use x="264.697266" xlink:href="#DejaVuSans-32"/>
      <use x="296.484375" xlink:href="#DejaVuSans-40"/>
      <use x="335.498047" xlink:href="#DejaVuSans-99"/>
      <use x="390.478516" xlink:href="#DejaVuSans-97"/>
      <use x="451.757812" xlink:href="#DejaVuSans-115"/>
      <use x="503.857422" xlink:href="#DejaVuSans-101"/>
      <use x="565.380859" xlink:href="#DejaVuSans-115"/>
      <use x="617.480469" xlink:href="#DejaVuSans-32"/>
      <use x="649.267578" xlink:href="#DejaVuSans-105"/>
      <use x="677.050781" xlink:href="#DejaVuSans-110"/>
      <use x="740.429688" xlink:href="#DejaVuSans-32"/>
      <use x="772.216797" xlink:href="#DejaVuSans-55"/>
      <use x="835.839844" xlink:href="#DejaVuSans-32"/>
      <use x="867.626953" xlink:href="#DejaVuSans-100"/>
      <use x="931.103516" xlink:href="#DejaVuSans-97"/>
      <use x="992.382812" xlink:href="#DejaVuSans-121"/>
      <use x="1051.5625" xlink:href="#DejaVuSans-115"/>
      <use x="1103.662109" xlink:href="#DejaVuSans-41"/>
     </g>
    </g>
    <g id="line2d_82">
     <path d="M 292.435156 166.444063 
L 312.435156 166.444063 
" style="fill:none;stroke:#1f77b4;stroke-linecap:square;stroke-width:1.5;"/>
    </g>
    <g id="line2d_83">
     <defs>
      <path d="M 0 3 
C 0.795609 3 1.55874 2.683901 2.12132 2.12132 
C 2.683901 1.55874 3 0.795609 3 0 
C 3 -0.795609 2.683901 -1.55874 2.12132 -2.12132 
C 1.55874 -2.683901 0.795609 -3 0 -3 
C -0.795609 -3 -1.55874 -2.683901 -2.12132 -2.12132 
C -2.683901 -1.55874 -3 -0.795609 -3 0 
C -3 0.795609 -2.683901 1.55874 -2.12132 2.12132 
C -1.55874 2.683901 -0.795609 3 0 3 
z
" id="m252b16a6c1" style="stroke:#1f77b4;"/>
     </defs>
     <g>
      <use style="fill:#1f77b4;stroke:#1f77b4;" x="302.435156" xlink:href="#m252b16a6c1" y="166.444063"/>
     </g>
    </g>
    <g id="text_30">
     <!-- NY (1.4$\times$) -->
     <defs>
      <path d="M 9.8125 72.90625 
L 23.09375 72.90625 
L 55.421875 11.921875 
L 55.421875 72.90625 
L 64.984375 72.90625 
L 64.984375 0 
L 51.703125 0 
L 19.390625 60.984375 
L 19.390625 0 
L 9.8125 0 
z
" id="DejaVuSans-78"/>
      <path d="M -0.203125 72.90625 
L 10.40625 72.90625 
L 30.609375 42.921875 
L 50.6875 72.90625 
L 61.28125 72.90625 
L 35.5 34.71875 
L 35.5 0 
L 25.59375 0 
L 25.59375 34.71875 
z
" id="DejaVuSans-89"/>
      <path d="M 37.796875 64.3125 
L 12.890625 25.390625 
L 37.796875 25.390625 
z
M 35.203125 72.90625 
L 47.609375 72.90625 
L 47.609375 25.390625 
L 58.015625 25.390625 
L 58.015625 17.1875 
L 47.609375 17.1875 
L 47.609375 0 
L 37.796875 0 
L 37.796875 17.1875 
L 4.890625 17.1875 
L 4.890625 26.703125 
z
" id="DejaVuSans-52"/>
      <path d="M 70.125 53.71875 
L 47.796875 31.296875 
L 70.125 8.984375 
L 64.3125 3.078125 
L 41.890625 25.484375 
L 19.484375 3.078125 
L 13.71875 8.984375 
L 35.984375 31.296875 
L 13.71875 53.71875 
L 19.484375 59.625 
L 41.890625 37.203125 
L 64.3125 59.625 
z
" id="DejaVuSans-215"/>
     </defs>
     <g transform="translate(320.435156 169.944063)scale(0.1 -0.1)">
      <use transform="translate(0 0.125)" xlink:href="#DejaVuSans-78"/>
      <use transform="translate(74.804688 0.125)" xlink:href="#DejaVuSans-89"/>
      <use transform="translate(135.888672 0.125)" xlink:href="#DejaVuSans-32"/>
      <use transform="translate(167.675781 0.125)" xlink:href="#DejaVuSans-40"/>
      <use transform="translate(206.689453 0.125)" xlink:href="#DejaVuSans-49"/>
      <use transform="translate(270.3125 0.125)" xlink:href="#DejaVuSans-46"/>
      <use transform="translate(302.099609 0.125)" xlink:href="#DejaVuSans-52"/>
      <use transform="translate(365.722656 0.125)" xlink:href="#DejaVuSans-215"/>
      <use transform="translate(449.511719 0.125)" xlink:href="#DejaVuSans-41"/>
     </g>
    </g>
    <g id="line2d_84">
     <path d="M 292.435156 181.12375 
L 312.435156 181.12375 
" style="fill:none;stroke:#ff7f0e;stroke-linecap:square;stroke-width:1.5;"/>
    </g>
    <g id="line2d_85">
     <defs>
      <path d="M 0 3 
C 0.795609 3 1.55874 2.683901 2.12132 2.12132 
C 2.683901 1.55874 3 0.795609 3 0 
C 3 -0.795609 2.683901 -1.55874 2.12132 -2.12132 
C 1.55874 -2.683901 0.795609 -3 0 -3 
C -0.795609 -3 -1.55874 -2.683901 -2.12132 -2.12132 
C -2.683901 -1.55874 -3 -0.795609 -3 0 
C -3 0.795609 -2.683901 1.55874 -2.12132 2.12132 
C -1.55874 2.683901 -0.795609 3 0 3 
z
" id="m8c384d5a2e" style="stroke:#ff7f0e;"/>
     </defs>
     <g>
      <use style="fill:#ff7f0e;stroke:#ff7f0e;" x="302.435156" xlink:href="#m8c384d5a2e" y="181.12375"/>
     </g>
    </g>
    <g id="text_31">
     <!-- NJ (1.5$\times$) -->
     <defs>
      <path d="M 9.8125 72.90625 
L 19.671875 72.90625 
L 19.671875 5.078125 
Q 19.671875 -8.109375 14.671875 -14.0625 
Q 9.671875 -20.015625 -1.421875 -20.015625 
L -5.171875 -20.015625 
L -5.171875 -11.71875 
L -2.09375 -11.71875 
Q 4.4375 -11.71875 7.125 -8.046875 
Q 9.8125 -4.390625 9.8125 5.078125 
z
" id="DejaVuSans-74"/>
     </defs>
     <g transform="translate(320.435156 184.62375)scale(0.1 -0.1)">
      <use transform="translate(0 0.125)" xlink:href="#DejaVuSans-78"/>
      <use transform="translate(74.804688 0.125)" xlink:href="#DejaVuSans-74"/>
      <use transform="translate(104.296875 0.125)" xlink:href="#DejaVuSans-32"/>
      <use transform="translate(136.083984 0.125)" xlink:href="#DejaVuSans-40"/>
      <use transform="translate(175.097656 0.125)" xlink:href="#DejaVuSans-49"/>
      <use transform="translate(238.720703 0.125)" xlink:href="#DejaVuSans-46"/>
      <use transform="translate(270.507812 0.125)" xlink:href="#DejaVuSans-53"/>
      <use transform="translate(334.130859 0.125)" xlink:href="#DejaVuSans-215"/>
      <use transform="translate(417.919922 0.125)" xlink:href="#DejaVuSans-41"/>
     </g>
    </g>
    <g id="line2d_86">
     <path d="M 292.435156 195.822188 
L 312.435156 195.822188 
" style="fill:none;stroke:#2ca02c;stroke-linecap:square;stroke-width:1.5;"/>
    </g>
    <g id="line2d_87">
     <defs>
      <path d="M 0 3 
C 0.795609 3 1.55874 2.683901 2.12132 2.12132 
C 2.683901 1.55874 3 0.795609 3 0 
C 3 -0.795609 2.683901 -1.55874 2.12132 -2.12132 
C 1.55874 -2.683901 0.795609 -3 0 -3 
C -0.795609 -3 -1.55874 -2.683901 -2.12132 -2.12132 
C -2.683901 -1.55874 -3 -0.795609 -3 0 
C -3 0.795609 -2.683901 1.55874 -2.12132 2.12132 
C -1.55874 2.683901 -0.795609 3 0 3 
z
" id="m8150993a23" style="stroke:#2ca02c;"/>
     </defs>
     <g>
      <use style="fill:#2ca02c;stroke:#2ca02c;" x="302.435156" xlink:href="#m8150993a23" y="195.822188"/>
     </g>
    </g>
    <g id="text_32">
     <!-- CO (1.5$\times$) -->
     <defs>
      <path d="M 64.40625 67.28125 
L 64.40625 56.890625 
Q 59.421875 61.53125 53.78125 63.8125 
Q 48.140625 66.109375 41.796875 66.109375 
Q 29.296875 66.109375 22.65625 58.46875 
Q 16.015625 50.828125 16.015625 36.375 
Q 16.015625 21.96875 22.65625 14.328125 
Q 29.296875 6.6875 41.796875 6.6875 
Q 48.140625 6.6875 53.78125 8.984375 
Q 59.421875 11.28125 64.40625 15.921875 
L 64.40625 5.609375 
Q 59.234375 2.09375 53.4375 0.328125 
Q 47.65625 -1.421875 41.21875 -1.421875 
Q 24.65625 -1.421875 15.125 8.703125 
Q 5.609375 18.84375 5.609375 36.375 
Q 5.609375 53.953125 15.125 64.078125 
Q 24.65625 74.21875 41.21875 74.21875 
Q 47.75 74.21875 53.53125 72.484375 
Q 59.328125 70.75 64.40625 67.28125 
z
" id="DejaVuSans-67"/>
      <path d="M 39.40625 66.21875 
Q 28.65625 66.21875 22.328125 58.203125 
Q 16.015625 50.203125 16.015625 36.375 
Q 16.015625 22.609375 22.328125 14.59375 
Q 28.65625 6.59375 39.40625 6.59375 
Q 50.140625 6.59375 56.421875 14.59375 
Q 62.703125 22.609375 62.703125 36.375 
Q 62.703125 50.203125 56.421875 58.203125 
Q 50.140625 66.21875 39.40625 66.21875 
z
M 39.40625 74.21875 
Q 54.734375 74.21875 63.90625 63.9375 
Q 73.09375 53.65625 73.09375 36.375 
Q 73.09375 19.140625 63.90625 8.859375 
Q 54.734375 -1.421875 39.40625 -1.421875 
Q 24.03125 -1.421875 14.8125 8.828125 
Q 5.609375 19.09375 5.609375 36.375 
Q 5.609375 53.65625 14.8125 63.9375 
Q 24.03125 74.21875 39.40625 74.21875 
z
" id="DejaVuSans-79"/>
     </defs>
     <g transform="translate(320.435156 199.322188)scale(0.1 -0.1)">
      <use transform="translate(0 0.125)" xlink:href="#DejaVuSans-67"/>
      <use transform="translate(69.824219 0.125)" xlink:href="#DejaVuSans-79"/>
      <use transform="translate(148.535156 0.125)" xlink:href="#DejaVuSans-32"/>
      <use transform="translate(180.322266 0.125)" xlink:href="#DejaVuSans-40"/>
      <use transform="translate(219.335938 0.125)" xlink:href="#DejaVuSans-49"/>
      <use transform="translate(282.958984 0.125)" xlink:href="#DejaVuSans-46"/>
      <use transform="translate(314.746094 0.125)" xlink:href="#DejaVuSans-53"/>
      <use transform="translate(378.369141 0.125)" xlink:href="#DejaVuSans-215"/>
      <use transform="translate(462.158203 0.125)" xlink:href="#DejaVuSans-41"/>
     </g>
    </g>
    <g id="line2d_88">
     <path d="M 292.435156 210.500313 
L 312.435156 210.500313 
" style="fill:none;stroke:#d62728;stroke-linecap:square;stroke-width:1.5;"/>
    </g>
    <g id="line2d_89">
     <defs>
      <path d="M 0 3 
C 0.795609 3 1.55874 2.683901 2.12132 2.12132 
C 2.683901 1.55874 3 0.795609 3 0 
C 3 -0.795609 2.683901 -1.55874 2.12132 -2.12132 
C 1.55874 -2.683901 0.795609 -3 0 -3 
C -0.795609 -3 -1.55874 -2.683901 -2.12132 -2.12132 
C -2.683901 -1.55874 -3 -0.795609 -3 0 
C -3 0.795609 -2.683901 1.55874 -2.12132 2.12132 
C -1.55874 2.683901 -0.795609 3 0 3 
z
" id="m8c4236ea1c" style="stroke:#d62728;"/>
     </defs>
     <g>
      <use style="fill:#d62728;stroke:#d62728;" x="302.435156" xlink:href="#m8c4236ea1c" y="210.500313"/>
     </g>
    </g>
    <g id="text_33">
     <!-- FL (1.5$\times$) -->
     <defs>
      <path d="M 9.8125 72.90625 
L 51.703125 72.90625 
L 51.703125 64.59375 
L 19.671875 64.59375 
L 19.671875 43.109375 
L 48.578125 43.109375 
L 48.578125 34.8125 
L 19.671875 34.8125 
L 19.671875 0 
L 9.8125 0 
z
" id="DejaVuSans-70"/>
      <path d="M 9.8125 72.90625 
L 19.671875 72.90625 
L 19.671875 8.296875 
L 55.171875 8.296875 
L 55.171875 0 
L 9.8125 0 
z
" id="DejaVuSans-76"/>
     </defs>
     <g transform="translate(320.435156 214.000313)scale(0.1 -0.1)">
      <use transform="translate(0 0.125)" xlink:href="#DejaVuSans-70"/>
      <use transform="translate(57.519531 0.125)" xlink:href="#DejaVuSans-76"/>
      <use transform="translate(113.232422 0.125)" xlink:href="#DejaVuSans-32"/>
      <use transform="translate(145.019531 0.125)" xlink:href="#DejaVuSans-40"/>
      <use transform="translate(184.033203 0.125)" xlink:href="#DejaVuSans-49"/>
      <use transform="translate(247.65625 0.125)" xlink:href="#DejaVuSans-46"/>
      <use transform="translate(279.443359 0.125)" xlink:href="#DejaVuSans-53"/>
      <use transform="translate(343.066406 0.125)" xlink:href="#DejaVuSans-215"/>
      <use transform="translate(426.855469 0.125)" xlink:href="#DejaVuSans-41"/>
     </g>
    </g>
    <g id="line2d_90">
     <path d="M 292.435156 225.178438 
L 312.435156 225.178438 
" style="fill:none;stroke:#9467bd;stroke-linecap:square;stroke-width:1.5;"/>
    </g>
    <g id="line2d_91">
     <defs>
      <path d="M 0 3 
C 0.795609 3 1.55874 2.683901 2.12132 2.12132 
C 2.683901 1.55874 3 0.795609 3 0 
C 3 -0.795609 2.683901 -1.55874 2.12132 -2.12132 
C 1.55874 -2.683901 0.795609 -3 0 -3 
C -0.795609 -3 -1.55874 -2.683901 -2.12132 -2.12132 
C -2.683901 -1.55874 -3 -0.795609 -3 0 
C -3 0.795609 -2.683901 1.55874 -2.12132 2.12132 
C -1.55874 2.683901 -0.795609 3 0 3 
z
" id="m22101173e6" style="stroke:#9467bd;"/>
     </defs>
     <g>
      <use style="fill:#9467bd;stroke:#9467bd;" x="302.435156" xlink:href="#m22101173e6" y="225.178438"/>
     </g>
    </g>
    <g id="text_34">
     <!-- IA (1.7$\times$) -->
     <defs>
      <path d="M 9.8125 72.90625 
L 19.671875 72.90625 
L 19.671875 0 
L 9.8125 0 
z
" id="DejaVuSans-73"/>
     </defs>
     <g transform="translate(320.435156 228.678438)scale(0.1 -0.1)">
      <use transform="translate(0 0.125)" xlink:href="#DejaVuSans-73"/>
      <use transform="translate(29.492188 0.125)" xlink:href="#DejaVuSans-65"/>
      <use transform="translate(97.900391 0.125)" xlink:href="#DejaVuSans-32"/>
      <use transform="translate(129.6875 0.125)" xlink:href="#DejaVuSans-40"/>
      <use transform="translate(168.701172 0.125)" xlink:href="#DejaVuSans-49"/>
      <use transform="translate(232.324219 0.125)" xlink:href="#DejaVuSans-46"/>
      <use transform="translate(264.001953 0.125)" xlink:href="#DejaVuSans-55"/>
      <use transform="translate(327.625 0.125)" xlink:href="#DejaVuSans-215"/>
      <use transform="translate(411.414062 0.125)" xlink:href="#DejaVuSans-41"/>
     </g>
    </g>
   </g>
   <g id="line2d_92">
    <path clip-path="url(#pf5ba974b38)" d="M 15.22836 290.409098 
L 20.747652 266.641148 
L 29.171872 251.890767 
L 37.596091 237.140386 
L 46.020311 222.149547 
L 54.44453 218.429692 
L 62.86875 212.207588 
L 71.29297 208.005483 
L 79.717189 203.183245 
L 88.141409 194.522161 
L 96.565628 189.080034 
L 104.989848 181.188742 
L 113.414067 177.308885 
L 121.838287 171.761504 
L 130.262506 163.908658 
L 138.686726 152.199933 
L 147.110945 140.37554 
L 155.535165 128.952566 
L 163.959384 120.925857 
L 172.383604 112.804828 
L 180.807823 106.008659 
L 189.232043 101.612661 
L 197.656262 96.220715 
L 206.080482 92.715366 
L 214.504702 89.836353 
L 222.928921 86.035706 
L 231.353141 83.694854 
L 239.77736 81.137648 
L 248.20158 78.557749 
L 256.625799 76.40899 
L 265.050019 74.267578 
L 273.474238 72.068413 
L 281.898458 69.697122 
L 290.322677 68.280638 
L 298.746897 66.9726 
L 307.171116 65.498019 
L 315.595336 64.127288 
L 324.019555 62.67712 
L 332.443775 61.314634 
L 340.867994 60.108203 
L 349.292214 59.158493 
L 357.716434 58.455565 
" style="fill:none;stroke:#1f77b4;stroke-linecap:square;stroke-width:1.5;"/>
    <g clip-path="url(#pf5ba974b38)">
     <use style="fill:#1f77b4;stroke:#1f77b4;" x="-1" xlink:href="#m252b16a6c1" y="317.669082"/>
     <use style="fill:#1f77b4;stroke:#1f77b4;" x="3.899213" xlink:href="#m252b16a6c1" y="317.669082"/>
     <use style="fill:#1f77b4;stroke:#1f77b4;" x="12.323433" xlink:href="#m252b16a6c1" y="302.918701"/>
     <use style="fill:#1f77b4;stroke:#1f77b4;" x="20.747652" xlink:href="#m252b16a6c1" y="266.641148"/>
     <use style="fill:#1f77b4;stroke:#1f77b4;" x="29.171872" xlink:href="#m252b16a6c1" y="251.890767"/>
     <use style="fill:#1f77b4;stroke:#1f77b4;" x="37.596091" xlink:href="#m252b16a6c1" y="237.140386"/>
     <use style="fill:#1f77b4;stroke:#1f77b4;" x="46.020311" xlink:href="#m252b16a6c1" y="222.149547"/>
     <use style="fill:#1f77b4;stroke:#1f77b4;" x="54.44453" xlink:href="#m252b16a6c1" y="218.429692"/>
     <use style="fill:#1f77b4;stroke:#1f77b4;" x="62.86875" xlink:href="#m252b16a6c1" y="212.207588"/>
     <use style="fill:#1f77b4;stroke:#1f77b4;" x="71.29297" xlink:href="#m252b16a6c1" y="208.005483"/>
     <use style="fill:#1f77b4;stroke:#1f77b4;" x="79.717189" xlink:href="#m252b16a6c1" y="203.183245"/>
     <use style="fill:#1f77b4;stroke:#1f77b4;" x="88.141409" xlink:href="#m252b16a6c1" y="194.522161"/>
     <use style="fill:#1f77b4;stroke:#1f77b4;" x="96.565628" xlink:href="#m252b16a6c1" y="189.080034"/>
     <use style="fill:#1f77b4;stroke:#1f77b4;" x="104.989848" xlink:href="#m252b16a6c1" y="181.188742"/>
     <use style="fill:#1f77b4;stroke:#1f77b4;" x="113.414067" xlink:href="#m252b16a6c1" y="177.308885"/>
     <use style="fill:#1f77b4;stroke:#1f77b4;" x="121.838287" xlink:href="#m252b16a6c1" y="171.761504"/>
     <use style="fill:#1f77b4;stroke:#1f77b4;" x="130.262506" xlink:href="#m252b16a6c1" y="163.908658"/>
     <use style="fill:#1f77b4;stroke:#1f77b4;" x="138.686726" xlink:href="#m252b16a6c1" y="152.199933"/>
     <use style="fill:#1f77b4;stroke:#1f77b4;" x="147.110945" xlink:href="#m252b16a6c1" y="140.37554"/>
     <use style="fill:#1f77b4;stroke:#1f77b4;" x="155.535165" xlink:href="#m252b16a6c1" y="128.952566"/>
     <use style="fill:#1f77b4;stroke:#1f77b4;" x="163.959384" xlink:href="#m252b16a6c1" y="120.925857"/>
     <use style="fill:#1f77b4;stroke:#1f77b4;" x="172.383604" xlink:href="#m252b16a6c1" y="112.804828"/>
     <use style="fill:#1f77b4;stroke:#1f77b4;" x="180.807823" xlink:href="#m252b16a6c1" y="106.008659"/>
     <use style="fill:#1f77b4;stroke:#1f77b4;" x="189.232043" xlink:href="#m252b16a6c1" y="101.612661"/>
     <use style="fill:#1f77b4;stroke:#1f77b4;" x="197.656262" xlink:href="#m252b16a6c1" y="96.220715"/>
     <use style="fill:#1f77b4;stroke:#1f77b4;" x="206.080482" xlink:href="#m252b16a6c1" y="92.715366"/>
     <use style="fill:#1f77b4;stroke:#1f77b4;" x="214.504702" xlink:href="#m252b16a6c1" y="89.836353"/>
     <use style="fill:#1f77b4;stroke:#1f77b4;" x="222.928921" xlink:href="#m252b16a6c1" y="86.035706"/>
     <use style="fill:#1f77b4;stroke:#1f77b4;" x="231.353141" xlink:href="#m252b16a6c1" y="83.694854"/>
     <use style="fill:#1f77b4;stroke:#1f77b4;" x="239.77736" xlink:href="#m252b16a6c1" y="81.137648"/>
     <use style="fill:#1f77b4;stroke:#1f77b4;" x="248.20158" xlink:href="#m252b16a6c1" y="78.557749"/>
     <use style="fill:#1f77b4;stroke:#1f77b4;" x="256.625799" xlink:href="#m252b16a6c1" y="76.40899"/>
     <use style="fill:#1f77b4;stroke:#1f77b4;" x="265.050019" xlink:href="#m252b16a6c1" y="74.267578"/>
     <use style="fill:#1f77b4;stroke:#1f77b4;" x="273.474238" xlink:href="#m252b16a6c1" y="72.068413"/>
     <use style="fill:#1f77b4;stroke:#1f77b4;" x="281.898458" xlink:href="#m252b16a6c1" y="69.697122"/>
     <use style="fill:#1f77b4;stroke:#1f77b4;" x="290.322677" xlink:href="#m252b16a6c1" y="68.280638"/>
     <use style="fill:#1f77b4;stroke:#1f77b4;" x="298.746897" xlink:href="#m252b16a6c1" y="66.9726"/>
     <use style="fill:#1f77b4;stroke:#1f77b4;" x="307.171116" xlink:href="#m252b16a6c1" y="65.498019"/>
     <use style="fill:#1f77b4;stroke:#1f77b4;" x="315.595336" xlink:href="#m252b16a6c1" y="64.127288"/>
     <use style="fill:#1f77b4;stroke:#1f77b4;" x="324.019555" xlink:href="#m252b16a6c1" y="62.67712"/>
     <use style="fill:#1f77b4;stroke:#1f77b4;" x="332.443775" xlink:href="#m252b16a6c1" y="61.314634"/>
     <use style="fill:#1f77b4;stroke:#1f77b4;" x="340.867994" xlink:href="#m252b16a6c1" y="60.108203"/>
     <use style="fill:#1f77b4;stroke:#1f77b4;" x="349.292214" xlink:href="#m252b16a6c1" y="59.158493"/>
     <use style="fill:#1f77b4;stroke:#1f77b4;" x="357.716434" xlink:href="#m252b16a6c1" y="58.455565"/>
    </g>
   </g>
   <g id="line2d_93">
    <path clip-path="url(#pf5ba974b38)" d="M 26.788154 290.409098 
L 29.171872 286.235328 
L 37.596091 271.484947 
L 46.020311 271.484947 
L 54.44453 262.856527 
L 62.86875 249.957775 
L 71.29297 243.357584 
L 79.717189 234.261447 
L 88.141409 229.328639 
L 96.565628 217.73668 
L 104.989848 209.10826 
L 113.414067 203.416219 
L 121.838287 190.956251 
L 130.262506 182.007821 
L 138.686726 172.095519 
L 147.110945 160.538475 
L 155.535165 156.323488 
L 163.959384 147.822115 
L 172.383604 140.171523 
L 180.807823 131.744178 
L 189.232043 126.289151 
L 197.656262 122.447933 
L 206.080482 112.957384 
L 214.504702 107.646853 
L 222.928921 102.720115 
L 231.353141 98.781037 
L 239.77736 94.155558 
L 248.20158 91.671284 
L 256.625799 87.96304 
L 265.050019 84.991566 
L 273.474238 81.682701 
L 281.898458 78.86711 
L 290.322677 76.85669 
L 298.746897 74.914 
L 307.171116 73.257648 
L 315.595336 71.857346 
L 324.019555 70.304897 
L 332.443775 68.869345 
L 340.867994 67.523813 
L 349.292214 66.211478 
L 357.716434 65.291007 
" style="fill:none;stroke:#ff7f0e;stroke-linecap:square;stroke-width:1.5;"/>
    <g clip-path="url(#pf5ba974b38)">
     <use style="fill:#ff7f0e;stroke:#ff7f0e;" x="20.747652" xlink:href="#m8c384d5a2e" y="300.985709"/>
     <use style="fill:#ff7f0e;stroke:#ff7f0e;" x="29.171872" xlink:href="#m8c384d5a2e" y="286.235328"/>
     <use style="fill:#ff7f0e;stroke:#ff7f0e;" x="37.596091" xlink:href="#m8c384d5a2e" y="271.484947"/>
     <use style="fill:#ff7f0e;stroke:#ff7f0e;" x="46.020311" xlink:href="#m8c384d5a2e" y="271.484947"/>
     <use style="fill:#ff7f0e;stroke:#ff7f0e;" x="54.44453" xlink:href="#m8c384d5a2e" y="262.856527"/>
     <use style="fill:#ff7f0e;stroke:#ff7f0e;" x="62.86875" xlink:href="#m8c384d5a2e" y="249.957775"/>
     <use style="fill:#ff7f0e;stroke:#ff7f0e;" x="71.29297" xlink:href="#m8c384d5a2e" y="243.357584"/>
     <use style="fill:#ff7f0e;stroke:#ff7f0e;" x="79.717189" xlink:href="#m8c384d5a2e" y="234.261447"/>
     <use style="fill:#ff7f0e;stroke:#ff7f0e;" x="88.141409" xlink:href="#m8c384d5a2e" y="229.328639"/>
     <use style="fill:#ff7f0e;stroke:#ff7f0e;" x="96.565628" xlink:href="#m8c384d5a2e" y="217.73668"/>
     <use style="fill:#ff7f0e;stroke:#ff7f0e;" x="104.989848" xlink:href="#m8c384d5a2e" y="209.10826"/>
     <use style="fill:#ff7f0e;stroke:#ff7f0e;" x="113.414067" xlink:href="#m8c384d5a2e" y="203.416219"/>
     <use style="fill:#ff7f0e;stroke:#ff7f0e;" x="121.838287" xlink:href="#m8c384d5a2e" y="190.956251"/>
     <use style="fill:#ff7f0e;stroke:#ff7f0e;" x="130.262506" xlink:href="#m8c384d5a2e" y="182.007821"/>
     <use style="fill:#ff7f0e;stroke:#ff7f0e;" x="138.686726" xlink:href="#m8c384d5a2e" y="172.095519"/>
     <use style="fill:#ff7f0e;stroke:#ff7f0e;" x="147.110945" xlink:href="#m8c384d5a2e" y="160.538475"/>
     <use style="fill:#ff7f0e;stroke:#ff7f0e;" x="155.535165" xlink:href="#m8c384d5a2e" y="156.323488"/>
     <use style="fill:#ff7f0e;stroke:#ff7f0e;" x="163.959384" xlink:href="#m8c384d5a2e" y="147.822115"/>
     <use style="fill:#ff7f0e;stroke:#ff7f0e;" x="172.383604" xlink:href="#m8c384d5a2e" y="140.171523"/>
     <use style="fill:#ff7f0e;stroke:#ff7f0e;" x="180.807823" xlink:href="#m8c384d5a2e" y="131.744178"/>
     <use style="fill:#ff7f0e;stroke:#ff7f0e;" x="189.232043" xlink:href="#m8c384d5a2e" y="126.289151"/>
     <use style="fill:#ff7f0e;stroke:#ff7f0e;" x="197.656262" xlink:href="#m8c384d5a2e" y="122.447933"/>
     <use style="fill:#ff7f0e;stroke:#ff7f0e;" x="206.080482" xlink:href="#m8c384d5a2e" y="112.957384"/>
     <use style="fill:#ff7f0e;stroke:#ff7f0e;" x="214.504702" xlink:href="#m8c384d5a2e" y="107.646853"/>
     <use style="fill:#ff7f0e;stroke:#ff7f0e;" x="222.928921" xlink:href="#m8c384d5a2e" y="102.720115"/>
     <use style="fill:#ff7f0e;stroke:#ff7f0e;" x="231.353141" xlink:href="#m8c384d5a2e" y="98.781037"/>
     <use style="fill:#ff7f0e;stroke:#ff7f0e;" x="239.77736" xlink:href="#m8c384d5a2e" y="94.155558"/>
     <use style="fill:#ff7f0e;stroke:#ff7f0e;" x="248.20158" xlink:href="#m8c384d5a2e" y="91.671284"/>
     <use style="fill:#ff7f0e;stroke:#ff7f0e;" x="256.625799" xlink:href="#m8c384d5a2e" y="87.96304"/>
     <use style="fill:#ff7f0e;stroke:#ff7f0e;" x="265.050019" xlink:href="#m8c384d5a2e" y="84.991566"/>
     <use style="fill:#ff7f0e;stroke:#ff7f0e;" x="273.474238" xlink:href="#m8c384d5a2e" y="81.682701"/>
     <use style="fill:#ff7f0e;stroke:#ff7f0e;" x="281.898458" xlink:href="#m8c384d5a2e" y="78.86711"/>
     <use style="fill:#ff7f0e;stroke:#ff7f0e;" x="290.322677" xlink:href="#m8c384d5a2e" y="76.85669"/>
     <use style="fill:#ff7f0e;stroke:#ff7f0e;" x="298.746897" xlink:href="#m8c384d5a2e" y="74.914"/>
     <use style="fill:#ff7f0e;stroke:#ff7f0e;" x="307.171116" xlink:href="#m8c384d5a2e" y="73.257648"/>
     <use style="fill:#ff7f0e;stroke:#ff7f0e;" x="315.595336" xlink:href="#m8c384d5a2e" y="71.857346"/>
     <use style="fill:#ff7f0e;stroke:#ff7f0e;" x="324.019555" xlink:href="#m8c384d5a2e" y="70.304897"/>
     <use style="fill:#ff7f0e;stroke:#ff7f0e;" x="332.443775" xlink:href="#m8c384d5a2e" y="68.869345"/>
     <use style="fill:#ff7f0e;stroke:#ff7f0e;" x="340.867994" xlink:href="#m8c384d5a2e" y="67.523813"/>
     <use style="fill:#ff7f0e;stroke:#ff7f0e;" x="349.292214" xlink:href="#m8c384d5a2e" y="66.211478"/>
     <use style="fill:#ff7f0e;stroke:#ff7f0e;" x="357.716434" xlink:href="#m8c384d5a2e" y="65.291007"/>
    </g>
   </g>
   <g id="line2d_94">
    <path clip-path="url(#pf5ba974b38)" d="M 29.171872 277.013932 
L 37.596091 247.51317 
L 46.020311 247.51317 
L 54.44453 247.51317 
L 62.86875 238.88475 
L 71.29297 231.472679 
L 79.717189 216.722298 
L 88.141409 208.945204 
L 96.565628 199.052236 
L 104.989848 193.135883 
L 113.414067 187.221536 
L 121.838287 183.630496 
L 130.262506 180.904877 
L 138.686726 177.376768 
L 147.110945 172.006839 
L 155.535165 166.271101 
L 163.959384 160.607116 
L 172.383604 155.957344 
L 180.807823 151.726328 
L 189.232043 146.72544 
L 197.656262 143.009548 
L 206.080482 137.124037 
L 214.504702 133.039595 
L 222.928921 129.37547 
L 231.353141 126.902307 
L 239.77736 124.20368 
L 248.20158 121.457451 
L 256.625799 119.063582 
L 265.050019 116.763048 
L 273.474238 114.317564 
L 281.898458 112.410881 
L 290.322677 110.729749 
L 298.746897 109.796142 
L 307.171116 108.764143 
L 315.595336 107.896223 
L 324.019555 105.931376 
L 332.443775 104.89997 
L 340.867994 103.68344 
L 349.292214 102.45389 
L 357.716434 101.352302 
" style="fill:none;stroke:#2ca02c;stroke-linecap:square;stroke-width:1.5;"/>
    <g clip-path="url(#pf5ba974b38)">
     <use style="fill:#2ca02c;stroke:#2ca02c;" x="29.171872" xlink:href="#m8150993a23" y="277.013932"/>
     <use style="fill:#2ca02c;stroke:#2ca02c;" x="37.596091" xlink:href="#m8150993a23" y="247.51317"/>
     <use style="fill:#2ca02c;stroke:#2ca02c;" x="46.020311" xlink:href="#m8150993a23" y="247.51317"/>
     <use style="fill:#2ca02c;stroke:#2ca02c;" x="54.44453" xlink:href="#m8150993a23" y="247.51317"/>
     <use style="fill:#2ca02c;stroke:#2ca02c;" x="62.86875" xlink:href="#m8150993a23" y="238.88475"/>
     <use style="fill:#2ca02c;stroke:#2ca02c;" x="71.29297" xlink:href="#m8150993a23" y="231.472679"/>
     <use style="fill:#2ca02c;stroke:#2ca02c;" x="79.717189" xlink:href="#m8150993a23" y="216.722298"/>
     <use style="fill:#2ca02c;stroke:#2ca02c;" x="88.141409" xlink:href="#m8150993a23" y="208.945204"/>
     <use style="fill:#2ca02c;stroke:#2ca02c;" x="96.565628" xlink:href="#m8150993a23" y="199.052236"/>
     <use style="fill:#2ca02c;stroke:#2ca02c;" x="104.989848" xlink:href="#m8150993a23" y="193.135883"/>
     <use style="fill:#2ca02c;stroke:#2ca02c;" x="113.414067" xlink:href="#m8150993a23" y="187.221536"/>
     <use style="fill:#2ca02c;stroke:#2ca02c;" x="121.838287" xlink:href="#m8150993a23" y="183.630496"/>
     <use style="fill:#2ca02c;stroke:#2ca02c;" x="130.262506" xlink:href="#m8150993a23" y="180.904877"/>
     <use style="fill:#2ca02c;stroke:#2ca02c;" x="138.686726" xlink:href="#m8150993a23" y="177.376768"/>
     <use style="fill:#2ca02c;stroke:#2ca02c;" x="147.110945" xlink:href="#m8150993a23" y="172.006839"/>
     <use style="fill:#2ca02c;stroke:#2ca02c;" x="155.535165" xlink:href="#m8150993a23" y="166.271101"/>
     <use style="fill:#2ca02c;stroke:#2ca02c;" x="163.959384" xlink:href="#m8150993a23" y="160.607116"/>
     <use style="fill:#2ca02c;stroke:#2ca02c;" x="172.383604" xlink:href="#m8150993a23" y="155.957344"/>
     <use style="fill:#2ca02c;stroke:#2ca02c;" x="180.807823" xlink:href="#m8150993a23" y="151.726328"/>
     <use style="fill:#2ca02c;stroke:#2ca02c;" x="189.232043" xlink:href="#m8150993a23" y="146.72544"/>
     <use style="fill:#2ca02c;stroke:#2ca02c;" x="197.656262" xlink:href="#m8150993a23" y="143.009548"/>
     <use style="fill:#2ca02c;stroke:#2ca02c;" x="206.080482" xlink:href="#m8150993a23" y="137.124037"/>
     <use style="fill:#2ca02c;stroke:#2ca02c;" x="214.504702" xlink:href="#m8150993a23" y="133.039595"/>
     <use style="fill:#2ca02c;stroke:#2ca02c;" x="222.928921" xlink:href="#m8150993a23" y="129.37547"/>
     <use style="fill:#2ca02c;stroke:#2ca02c;" x="231.353141" xlink:href="#m8150993a23" y="126.902307"/>
     <use style="fill:#2ca02c;stroke:#2ca02c;" x="239.77736" xlink:href="#m8150993a23" y="124.20368"/>
     <use style="fill:#2ca02c;stroke:#2ca02c;" x="248.20158" xlink:href="#m8150993a23" y="121.457451"/>
     <use style="fill:#2ca02c;stroke:#2ca02c;" x="256.625799" xlink:href="#m8150993a23" y="119.063582"/>
     <use style="fill:#2ca02c;stroke:#2ca02c;" x="265.050019" xlink:href="#m8150993a23" y="116.763048"/>
     <use style="fill:#2ca02c;stroke:#2ca02c;" x="273.474238" xlink:href="#m8150993a23" y="114.317564"/>
     <use style="fill:#2ca02c;stroke:#2ca02c;" x="281.898458" xlink:href="#m8150993a23" y="112.410881"/>
     <use style="fill:#2ca02c;stroke:#2ca02c;" x="290.322677" xlink:href="#m8150993a23" y="110.729749"/>
     <use style="fill:#2ca02c;stroke:#2ca02c;" x="298.746897" xlink:href="#m8150993a23" y="109.796142"/>
     <use style="fill:#2ca02c;stroke:#2ca02c;" x="307.171116" xlink:href="#m8150993a23" y="108.764143"/>
     <use style="fill:#2ca02c;stroke:#2ca02c;" x="315.595336" xlink:href="#m8150993a23" y="107.896223"/>
     <use style="fill:#2ca02c;stroke:#2ca02c;" x="324.019555" xlink:href="#m8150993a23" y="105.931376"/>
     <use style="fill:#2ca02c;stroke:#2ca02c;" x="332.443775" xlink:href="#m8150993a23" y="104.89997"/>
     <use style="fill:#2ca02c;stroke:#2ca02c;" x="340.867994" xlink:href="#m8150993a23" y="103.68344"/>
     <use style="fill:#2ca02c;stroke:#2ca02c;" x="349.292214" xlink:href="#m8150993a23" y="102.45389"/>
     <use style="fill:#2ca02c;stroke:#2ca02c;" x="357.716434" xlink:href="#m8150993a23" y="101.352302"/>
    </g>
   </g>
   <g id="line2d_95">
    <path clip-path="url(#pf5ba974b38)" d="M 28.987054 290.409098 
L 29.171872 290.274788 
L 37.596091 278.365996 
L 46.020311 266.895988 
L 54.44453 265.192655 
L 62.86875 263.615615 
L 71.29297 253.051288 
L 79.717189 250.442274 
L 88.141409 238.300907 
L 96.565628 229.366291 
L 104.989848 229.366291 
L 113.414067 219.942253 
L 121.838287 214.464448 
L 130.262506 205.98749 
L 138.686726 196.62863 
L 147.110945 190.539332 
L 155.535165 184.963686 
L 163.959384 178.504827 
L 172.383604 172.776436 
L 180.807823 168.509972 
L 189.232043 164.621409 
L 197.656262 158.401757 
L 206.080482 153.474178 
L 214.504702 148.03754 
L 222.928921 143.074465 
L 231.353141 138.775406 
L 239.77736 135.761203 
L 248.20158 132.169188 
L 256.625799 129.159767 
L 265.050019 126.018835 
L 273.474238 123.230514 
L 281.898458 120.734198 
L 290.322677 119.298866 
L 298.746897 117.20053 
L 307.171116 115.521848 
L 315.595336 114.191265 
L 324.019555 112.712589 
L 332.443775 111.315796 
L 340.867994 110.142542 
L 349.292214 109.181194 
L 357.716434 107.976937 
" style="fill:none;stroke:#d62728;stroke-linecap:square;stroke-width:1.5;"/>
    <g clip-path="url(#pf5ba974b38)">
     <use style="fill:#d62728;stroke:#d62728;" x="-1" xlink:href="#m8c4236ea1c" y="305.025169"/>
     <use style="fill:#d62728;stroke:#d62728;" x="3.899213" xlink:href="#m8c4236ea1c" y="305.025169"/>
     <use style="fill:#d62728;stroke:#d62728;" x="12.323433" xlink:href="#m8c4236ea1c" y="296.39675"/>
     <use style="fill:#d62728;stroke:#d62728;" x="20.747652" xlink:href="#m8c4236ea1c" y="296.39675"/>
     <use style="fill:#d62728;stroke:#d62728;" x="29.171872" xlink:href="#m8c4236ea1c" y="290.274788"/>
     <use style="fill:#d62728;stroke:#d62728;" x="37.596091" xlink:href="#m8c4236ea1c" y="278.365996"/>
     <use style="fill:#d62728;stroke:#d62728;" x="46.020311" xlink:href="#m8c4236ea1c" y="266.895988"/>
     <use style="fill:#d62728;stroke:#d62728;" x="54.44453" xlink:href="#m8c4236ea1c" y="265.192655"/>
     <use style="fill:#d62728;stroke:#d62728;" x="62.86875" xlink:href="#m8c4236ea1c" y="263.615615"/>
     <use style="fill:#d62728;stroke:#d62728;" x="71.29297" xlink:href="#m8c4236ea1c" y="253.051288"/>
     <use style="fill:#d62728;stroke:#d62728;" x="79.717189" xlink:href="#m8c4236ea1c" y="250.442274"/>
     <use style="fill:#d62728;stroke:#d62728;" x="88.141409" xlink:href="#m8c4236ea1c" y="238.300907"/>
     <use style="fill:#d62728;stroke:#d62728;" x="96.565628" xlink:href="#m8c4236ea1c" y="229.366291"/>
     <use style="fill:#d62728;stroke:#d62728;" x="104.989848" xlink:href="#m8c4236ea1c" y="229.366291"/>
     <use style="fill:#d62728;stroke:#d62728;" x="113.414067" xlink:href="#m8c4236ea1c" y="219.942253"/>
     <use style="fill:#d62728;stroke:#d62728;" x="121.838287" xlink:href="#m8c4236ea1c" y="214.464448"/>
     <use style="fill:#d62728;stroke:#d62728;" x="130.262506" xlink:href="#m8c4236ea1c" y="205.98749"/>
     <use style="fill:#d62728;stroke:#d62728;" x="138.686726" xlink:href="#m8c4236ea1c" y="196.62863"/>
     <use style="fill:#d62728;stroke:#d62728;" x="147.110945" xlink:href="#m8c4236ea1c" y="190.539332"/>
     <use style="fill:#d62728;stroke:#d62728;" x="155.535165" xlink:href="#m8c4236ea1c" y="184.963686"/>
     <use style="fill:#d62728;stroke:#d62728;" x="163.959384" xlink:href="#m8c4236ea1c" y="178.504827"/>
     <use style="fill:#d62728;stroke:#d62728;" x="172.383604" xlink:href="#m8c4236ea1c" y="172.776436"/>
     <use style="fill:#d62728;stroke:#d62728;" x="180.807823" xlink:href="#m8c4236ea1c" y="168.509972"/>
     <use style="fill:#d62728;stroke:#d62728;" x="189.232043" xlink:href="#m8c4236ea1c" y="164.621409"/>
     <use style="fill:#d62728;stroke:#d62728;" x="197.656262" xlink:href="#m8c4236ea1c" y="158.401757"/>
     <use style="fill:#d62728;stroke:#d62728;" x="206.080482" xlink:href="#m8c4236ea1c" y="153.474178"/>
     <use style="fill:#d62728;stroke:#d62728;" x="214.504702" xlink:href="#m8c4236ea1c" y="148.03754"/>
     <use style="fill:#d62728;stroke:#d62728;" x="222.928921" xlink:href="#m8c4236ea1c" y="143.074465"/>
     <use style="fill:#d62728;stroke:#d62728;" x="231.353141" xlink:href="#m8c4236ea1c" y="138.775406"/>
     <use style="fill:#d62728;stroke:#d62728;" x="239.77736" xlink:href="#m8c4236ea1c" y="135.761203"/>
     <use style="fill:#d62728;stroke:#d62728;" x="248.20158" xlink:href="#m8c4236ea1c" y="132.169188"/>
     <use style="fill:#d62728;stroke:#d62728;" x="256.625799" xlink:href="#m8c4236ea1c" y="129.159767"/>
     <use style="fill:#d62728;stroke:#d62728;" x="265.050019" xlink:href="#m8c4236ea1c" y="126.018835"/>
     <use style="fill:#d62728;stroke:#d62728;" x="273.474238" xlink:href="#m8c4236ea1c" y="123.230514"/>
     <use style="fill:#d62728;stroke:#d62728;" x="281.898458" xlink:href="#m8c4236ea1c" y="120.734198"/>
     <use style="fill:#d62728;stroke:#d62728;" x="290.322677" xlink:href="#m8c4236ea1c" y="119.298866"/>
     <use style="fill:#d62728;stroke:#d62728;" x="298.746897" xlink:href="#m8c4236ea1c" y="117.20053"/>
     <use style="fill:#d62728;stroke:#d62728;" x="307.171116" xlink:href="#m8c4236ea1c" y="115.521848"/>
     <use style="fill:#d62728;stroke:#d62728;" x="315.595336" xlink:href="#m8c4236ea1c" y="114.191265"/>
     <use style="fill:#d62728;stroke:#d62728;" x="324.019555" xlink:href="#m8c4236ea1c" y="112.712589"/>
     <use style="fill:#d62728;stroke:#d62728;" x="332.443775" xlink:href="#m8c4236ea1c" y="111.315796"/>
     <use style="fill:#d62728;stroke:#d62728;" x="340.867994" xlink:href="#m8c4236ea1c" y="110.142542"/>
     <use style="fill:#d62728;stroke:#d62728;" x="349.292214" xlink:href="#m8c4236ea1c" y="109.181194"/>
     <use style="fill:#d62728;stroke:#d62728;" x="357.716434" xlink:href="#m8c4236ea1c" y="107.976937"/>
    </g>
   </g>
   <g id="line2d_96">
    <path clip-path="url(#pf5ba974b38)" d="M 54.44453 255.580999 
L 62.86875 234.708657 
L 71.29297 224.376904 
L 79.717189 222.799864 
L 88.141409 219.958276 
L 96.565628 218.668166 
L 104.989848 217.451817 
L 113.414067 213.181485 
L 121.838287 213.181485 
L 130.262506 207.302729 
L 138.686726 201.55087 
L 147.110945 198.431104 
L 155.535165 197.952874 
L 163.959384 189.167404 
L 172.383604 183.202494 
L 180.807823 179.922121 
L 189.232043 176.382755 
L 197.656262 173.053406 
L 206.080482 168.570666 
L 214.504702 162.778174 
L 222.928921 157.723933 
L 231.353141 155.169921 
L 239.77736 150.219648 
L 248.20158 146.796358 
L 256.625799 144.721563 
L 265.050019 142.340372 
L 273.474238 139.581258 
L 281.898458 137.08495 
L 290.322677 134.973201 
L 298.746897 133.142012 
L 307.171116 130.962988 
L 315.595336 129.079234 
L 324.019555 126.874334 
L 332.443775 124.983643 
L 340.867994 123.190868 
L 349.292214 122.132475 
L 357.716434 120.543945 
" style="fill:none;stroke:#9467bd;stroke-linecap:square;stroke-width:1.5;"/>
    <g clip-path="url(#pf5ba974b38)">
     <use style="fill:#9467bd;stroke:#9467bd;" x="54.44453" xlink:href="#m22101173e6" y="255.580999"/>
     <use style="fill:#9467bd;stroke:#9467bd;" x="62.86875" xlink:href="#m22101173e6" y="234.708657"/>
     <use style="fill:#9467bd;stroke:#9467bd;" x="71.29297" xlink:href="#m22101173e6" y="224.376904"/>
     <use style="fill:#9467bd;stroke:#9467bd;" x="79.717189" xlink:href="#m22101173e6" y="222.799864"/>
     <use style="fill:#9467bd;stroke:#9467bd;" x="88.141409" xlink:href="#m22101173e6" y="219.958276"/>
     <use style="fill:#9467bd;stroke:#9467bd;" x="96.565628" xlink:href="#m22101173e6" y="218.668166"/>
     <use style="fill:#9467bd;stroke:#9467bd;" x="104.989848" xlink:href="#m22101173e6" y="217.451817"/>
     <use style="fill:#9467bd;stroke:#9467bd;" x="113.414067" xlink:href="#m22101173e6" y="213.181485"/>
     <use style="fill:#9467bd;stroke:#9467bd;" x="121.838287" xlink:href="#m22101173e6" y="213.181485"/>
     <use style="fill:#9467bd;stroke:#9467bd;" x="130.262506" xlink:href="#m22101173e6" y="207.302729"/>
     <use style="fill:#9467bd;stroke:#9467bd;" x="138.686726" xlink:href="#m22101173e6" y="201.55087"/>
     <use style="fill:#9467bd;stroke:#9467bd;" x="147.110945" xlink:href="#m22101173e6" y="198.431104"/>
     <use style="fill:#9467bd;stroke:#9467bd;" x="155.535165" xlink:href="#m22101173e6" y="197.952874"/>
     <use style="fill:#9467bd;stroke:#9467bd;" x="163.959384" xlink:href="#m22101173e6" y="189.167404"/>
     <use style="fill:#9467bd;stroke:#9467bd;" x="172.383604" xlink:href="#m22101173e6" y="183.202494"/>
     <use style="fill:#9467bd;stroke:#9467bd;" x="180.807823" xlink:href="#m22101173e6" y="179.922121"/>
     <use style="fill:#9467bd;stroke:#9467bd;" x="189.232043" xlink:href="#m22101173e6" y="176.382755"/>
     <use style="fill:#9467bd;stroke:#9467bd;" x="197.656262" xlink:href="#m22101173e6" y="173.053406"/>
     <use style="fill:#9467bd;stroke:#9467bd;" x="206.080482" xlink:href="#m22101173e6" y="168.570666"/>
     <use style="fill:#9467bd;stroke:#9467bd;" x="214.504702" xlink:href="#m22101173e6" y="162.778174"/>
     <use style="fill:#9467bd;stroke:#9467bd;" x="222.928921" xlink:href="#m22101173e6" y="157.723933"/>
     <use style="fill:#9467bd;stroke:#9467bd;" x="231.353141" xlink:href="#m22101173e6" y="155.169921"/>
     <use style="fill:#9467bd;stroke:#9467bd;" x="239.77736" xlink:href="#m22101173e6" y="150.219648"/>
     <use style="fill:#9467bd;stroke:#9467bd;" x="248.20158" xlink:href="#m22101173e6" y="146.796358"/>
     <use style="fill:#9467bd;stroke:#9467bd;" x="256.625799" xlink:href="#m22101173e6" y="144.721563"/>
     <use style="fill:#9467bd;stroke:#9467bd;" x="265.050019" xlink:href="#m22101173e6" y="142.340372"/>
     <use style="fill:#9467bd;stroke:#9467bd;" x="273.474238" xlink:href="#m22101173e6" y="139.581258"/>
     <use style="fill:#9467bd;stroke:#9467bd;" x="281.898458" xlink:href="#m22101173e6" y="137.08495"/>
     <use style="fill:#9467bd;stroke:#9467bd;" x="290.322677" xlink:href="#m22101173e6" y="134.973201"/>
     <use style="fill:#9467bd;stroke:#9467bd;" x="298.746897" xlink:href="#m22101173e6" y="133.142012"/>
     <use style="fill:#9467bd;stroke:#9467bd;" x="307.171116" xlink:href="#m22101173e6" y="130.962988"/>
     <use style="fill:#9467bd;stroke:#9467bd;" x="315.595336" xlink:href="#m22101173e6" y="129.079234"/>
     <use style="fill:#9467bd;stroke:#9467bd;" x="324.019555" xlink:href="#m22101173e6" y="126.874334"/>
     <use style="fill:#9467bd;stroke:#9467bd;" x="332.443775" xlink:href="#m22101173e6" y="124.983643"/>
     <use style="fill:#9467bd;stroke:#9467bd;" x="340.867994" xlink:href="#m22101173e6" y="123.190868"/>
     <use style="fill:#9467bd;stroke:#9467bd;" x="349.292214" xlink:href="#m22101173e6" y="122.132475"/>
     <use style="fill:#9467bd;stroke:#9467bd;" x="357.716434" xlink:href="#m22101173e6" y="120.543945"/>
    </g>
   </g>
  </g>
 </g>
 <defs>
  <clipPath id="pf5ba974b38">
   <rect height="217.44" width="334.8" x="62.86875" y="22.318125"/>
  </clipPath>
 </defs>
</svg>
