<?xml version="1.0" encoding="utf-8" standalone="no"?>
<!DOCTYPE svg PUBLIC "-//W3C//DTD SVG 1.1//EN"
  "http://www.w3.org/Graphics/SVG/1.1/DTD/svg11.dtd">
<!-- Created with matplotlib (https://matplotlib.org/) -->
<svg height="288.928422pt" version="1.1" viewBox="0 0 409.813205 288.928422" width="409.813205pt" xmlns="http://www.w3.org/2000/svg" xmlns:xlink="http://www.w3.org/1999/xlink">
 <defs>
  <style type="text/css">
*{stroke-linecap:butt;stroke-linejoin:round;}
  </style>
 </defs>
 <g id="figure_1">
  <g id="patch_1">
   <path d="M 0 288.928422 
L 409.813205 288.928422 
L 409.813205 0 
L 0 0 
z
" style="fill:#ffffff;"/>
  </g>
  <g id="axes_1">
   <g id="patch_2">
    <path d="M 62.86875 239.758125 
L 397.66875 239.758125 
L 397.66875 22.318125 
L 62.86875 22.318125 
z
" style="fill:#ffffff;"/>
   </g>
   <g id="matplotlib.axis_1">
    <g id="xtick_1">
     <g id="line2d_1">
      <path clip-path="url(#p5f673968d3)" d="M 111.269321 239.758125 
L 111.269321 22.318125 
" style="fill:none;stroke:#b0b0b0;stroke-linecap:square;stroke-opacity:0.8;stroke-width:0.8;"/>
     </g>
     <g id="line2d_2">
      <defs>
       <path d="M 0 0 
L 0 3.5 
" id="m8bcffd0dae" style="stroke:#000000;stroke-width:0.8;"/>
      </defs>
      <g>
       <use style="stroke:#000000;stroke-width:0.8;" x="111.269321" xlink:href="#m8bcffd0dae" y="239.758125"/>
      </g>
     </g>
     <g id="text_1">
      <!-- Mar. -->
      <defs>
       <path d="M 9.8125 72.90625 
L 24.515625 72.90625 
L 43.109375 23.296875 
L 61.8125 72.90625 
L 76.515625 72.90625 
L 76.515625 0 
L 66.890625 0 
L 66.890625 64.015625 
L 48.09375 14.015625 
L 38.1875 14.015625 
L 19.390625 64.015625 
L 19.390625 0 
L 9.8125 0 
z
" id="DejaVuSans-77"/>
       <path d="M 34.28125 27.484375 
Q 23.390625 27.484375 19.1875 25 
Q 14.984375 22.515625 14.984375 16.5 
Q 14.984375 11.71875 18.140625 8.90625 
Q 21.296875 6.109375 26.703125 6.109375 
Q 34.1875 6.109375 38.703125 11.40625 
Q 43.21875 16.703125 43.21875 25.484375 
L 43.21875 27.484375 
z
M 52.203125 31.203125 
L 52.203125 0 
L 43.21875 0 
L 43.21875 8.296875 
Q 40.140625 3.328125 35.546875 0.953125 
Q 30.953125 -1.421875 24.3125 -1.421875 
Q 15.921875 -1.421875 10.953125 3.296875 
Q 6 8.015625 6 15.921875 
Q 6 25.140625 12.171875 29.828125 
Q 18.359375 34.515625 30.609375 34.515625 
L 43.21875 34.515625 
L 43.21875 35.40625 
Q 43.21875 41.609375 39.140625 45 
Q 35.0625 48.390625 27.6875 48.390625 
Q 23 48.390625 18.546875 47.265625 
Q 14.109375 46.140625 10.015625 43.890625 
L 10.015625 52.203125 
Q 14.9375 54.109375 19.578125 55.046875 
Q 24.21875 56 28.609375 56 
Q 40.484375 56 46.34375 49.84375 
Q 52.203125 43.703125 52.203125 31.203125 
z
" id="DejaVuSans-97"/>
       <path d="M 41.109375 46.296875 
Q 39.59375 47.171875 37.8125 47.578125 
Q 36.03125 48 33.890625 48 
Q 26.265625 48 22.1875 43.046875 
Q 18.109375 38.09375 18.109375 28.8125 
L 18.109375 0 
L 9.078125 0 
L 9.078125 54.6875 
L 18.109375 54.6875 
L 18.109375 46.1875 
Q 20.953125 51.171875 25.484375 53.578125 
Q 30.03125 56 36.53125 56 
Q 37.453125 56 38.578125 55.875 
Q 39.703125 55.765625 41.0625 55.515625 
z
" id="DejaVuSans-114"/>
       <path d="M 10.6875 12.40625 
L 21 12.40625 
L 21 0 
L 10.6875 0 
z
" id="DejaVuSans-46"/>
      </defs>
      <g transform="translate(100.253696 254.356563)scale(0.1 -0.1)">
       <use xlink:href="#DejaVuSans-77"/>
       <use x="86.279297" xlink:href="#DejaVuSans-97"/>
       <use x="147.558594" xlink:href="#DejaVuSans-114"/>
       <use x="188.53125" xlink:href="#DejaVuSans-46"/>
      </g>
      <!-- 15 -->
      <defs>
       <path d="M 12.40625 8.296875 
L 28.515625 8.296875 
L 28.515625 63.921875 
L 10.984375 60.40625 
L 10.984375 69.390625 
L 28.421875 72.90625 
L 38.28125 72.90625 
L 38.28125 8.296875 
L 54.390625 8.296875 
L 54.390625 0 
L 12.40625 0 
z
" id="DejaVuSans-49"/>
       <path d="M 10.796875 72.90625 
L 49.515625 72.90625 
L 49.515625 64.59375 
L 19.828125 64.59375 
L 19.828125 46.734375 
Q 21.96875 47.46875 24.109375 47.828125 
Q 26.265625 48.1875 28.421875 48.1875 
Q 40.625 48.1875 47.75 41.5 
Q 54.890625 34.8125 54.890625 23.390625 
Q 54.890625 11.625 47.5625 5.09375 
Q 40.234375 -1.421875 26.90625 -1.421875 
Q 22.3125 -1.421875 17.546875 -0.640625 
Q 12.796875 0.140625 7.71875 1.703125 
L 7.71875 11.625 
Q 12.109375 9.234375 16.796875 8.0625 
Q 21.484375 6.890625 26.703125 6.890625 
Q 35.15625 6.890625 40.078125 11.328125 
Q 45.015625 15.765625 45.015625 23.390625 
Q 45.015625 31 40.078125 35.4375 
Q 35.15625 39.890625 26.703125 39.890625 
Q 22.75 39.890625 18.8125 39.015625 
Q 14.890625 38.140625 10.796875 36.28125 
z
" id="DejaVuSans-53"/>
      </defs>
      <g transform="translate(104.906821 265.554375)scale(0.1 -0.1)">
       <use xlink:href="#DejaVuSans-49"/>
       <use x="63.623047" xlink:href="#DejaVuSans-53"/>
      </g>
     </g>
    </g>
    <g id="xtick_2">
     <g id="line2d_3">
      <path clip-path="url(#p5f673968d3)" d="M 167.736655 239.758125 
L 167.736655 22.318125 
" style="fill:none;stroke:#b0b0b0;stroke-linecap:square;stroke-opacity:0.8;stroke-width:0.8;"/>
     </g>
     <g id="line2d_4">
      <g>
       <use style="stroke:#000000;stroke-width:0.8;" x="167.736655" xlink:href="#m8bcffd0dae" y="239.758125"/>
      </g>
     </g>
     <g id="text_2">
      <!-- Mar. -->
      <g transform="translate(156.72103 254.356563)scale(0.1 -0.1)">
       <use xlink:href="#DejaVuSans-77"/>
       <use x="86.279297" xlink:href="#DejaVuSans-97"/>
       <use x="147.558594" xlink:href="#DejaVuSans-114"/>
       <use x="188.53125" xlink:href="#DejaVuSans-46"/>
      </g>
      <!-- 22 -->
      <defs>
       <path d="M 19.1875 8.296875 
L 53.609375 8.296875 
L 53.609375 0 
L 7.328125 0 
L 7.328125 8.296875 
Q 12.9375 14.109375 22.625 23.890625 
Q 32.328125 33.6875 34.8125 36.53125 
Q 39.546875 41.84375 41.421875 45.53125 
Q 43.3125 49.21875 43.3125 52.78125 
Q 43.3125 58.59375 39.234375 62.25 
Q 35.15625 65.921875 28.609375 65.921875 
Q 23.96875 65.921875 18.8125 64.3125 
Q 13.671875 62.703125 7.8125 59.421875 
L 7.8125 69.390625 
Q 13.765625 71.78125 18.9375 73 
Q 24.125 74.21875 28.421875 74.21875 
Q 39.75 74.21875 46.484375 68.546875 
Q 53.21875 62.890625 53.21875 53.421875 
Q 53.21875 48.921875 51.53125 44.890625 
Q 49.859375 40.875 45.40625 35.40625 
Q 44.1875 33.984375 37.640625 27.21875 
Q 31.109375 20.453125 19.1875 8.296875 
z
" id="DejaVuSans-50"/>
      </defs>
      <g transform="translate(161.374155 265.554375)scale(0.1 -0.1)">
       <use xlink:href="#DejaVuSans-50"/>
       <use x="63.623047" xlink:href="#DejaVuSans-50"/>
      </g>
     </g>
    </g>
    <g id="xtick_3">
     <g id="line2d_5">
      <path clip-path="url(#p5f673968d3)" d="M 248.404274 239.758125 
L 248.404274 22.318125 
" style="fill:none;stroke:#b0b0b0;stroke-linecap:square;stroke-opacity:0.8;stroke-width:0.8;"/>
     </g>
     <g id="line2d_6">
      <g>
       <use style="stroke:#000000;stroke-width:0.8;" x="248.404274" xlink:href="#m8bcffd0dae" y="239.758125"/>
      </g>
     </g>
     <g id="text_3">
      <!-- Apr. -->
      <defs>
       <path d="M 34.1875 63.1875 
L 20.796875 26.90625 
L 47.609375 26.90625 
z
M 28.609375 72.90625 
L 39.796875 72.90625 
L 67.578125 0 
L 57.328125 0 
L 50.6875 18.703125 
L 17.828125 18.703125 
L 11.1875 0 
L 0.78125 0 
z
" id="DejaVuSans-65"/>
       <path d="M 18.109375 8.203125 
L 18.109375 -20.796875 
L 9.078125 -20.796875 
L 9.078125 54.6875 
L 18.109375 54.6875 
L 18.109375 46.390625 
Q 20.953125 51.265625 25.265625 53.625 
Q 29.59375 56 35.59375 56 
Q 45.5625 56 51.78125 48.09375 
Q 58.015625 40.1875 58.015625 27.296875 
Q 58.015625 14.40625 51.78125 6.484375 
Q 45.5625 -1.421875 35.59375 -1.421875 
Q 29.59375 -1.421875 25.265625 0.953125 
Q 20.953125 3.328125 18.109375 8.203125 
z
M 48.6875 27.296875 
Q 48.6875 37.203125 44.609375 42.84375 
Q 40.53125 48.484375 33.40625 48.484375 
Q 26.265625 48.484375 22.1875 42.84375 
Q 18.109375 37.203125 18.109375 27.296875 
Q 18.109375 17.390625 22.1875 11.75 
Q 26.265625 6.109375 33.40625 6.109375 
Q 40.53125 6.109375 44.609375 11.75 
Q 48.6875 17.390625 48.6875 27.296875 
z
" id="DejaVuSans-112"/>
      </defs>
      <g transform="translate(238.172243 254.356563)scale(0.1 -0.1)">
       <use xlink:href="#DejaVuSans-65"/>
       <use x="68.408203" xlink:href="#DejaVuSans-112"/>
       <use x="131.884766" xlink:href="#DejaVuSans-114"/>
       <use x="172.857422" xlink:href="#DejaVuSans-46"/>
      </g>
      <!-- 01 -->
      <defs>
       <path d="M 31.78125 66.40625 
Q 24.171875 66.40625 20.328125 58.90625 
Q 16.5 51.421875 16.5 36.375 
Q 16.5 21.390625 20.328125 13.890625 
Q 24.171875 6.390625 31.78125 6.390625 
Q 39.453125 6.390625 43.28125 13.890625 
Q 47.125 21.390625 47.125 36.375 
Q 47.125 51.421875 43.28125 58.90625 
Q 39.453125 66.40625 31.78125 66.40625 
z
M 31.78125 74.21875 
Q 44.046875 74.21875 50.515625 64.515625 
Q 56.984375 54.828125 56.984375 36.375 
Q 56.984375 17.96875 50.515625 8.265625 
Q 44.046875 -1.421875 31.78125 -1.421875 
Q 19.53125 -1.421875 13.0625 8.265625 
Q 6.59375 17.96875 6.59375 36.375 
Q 6.59375 54.828125 13.0625 64.515625 
Q 19.53125 74.21875 31.78125 74.21875 
z
" id="DejaVuSans-48"/>
      </defs>
      <g transform="translate(242.041774 265.554375)scale(0.1 -0.1)">
       <use xlink:href="#DejaVuSans-48"/>
       <use x="63.623047" xlink:href="#DejaVuSans-49"/>
      </g>
     </g>
    </g>
    <g id="xtick_4">
     <g id="line2d_7">
      <path clip-path="url(#p5f673968d3)" d="M 304.871607 239.758125 
L 304.871607 22.318125 
" style="fill:none;stroke:#b0b0b0;stroke-linecap:square;stroke-opacity:0.8;stroke-width:0.8;"/>
     </g>
     <g id="line2d_8">
      <g>
       <use style="stroke:#000000;stroke-width:0.8;" x="304.871607" xlink:href="#m8bcffd0dae" y="239.758125"/>
      </g>
     </g>
     <g id="text_4">
      <!-- Apr. -->
      <g transform="translate(294.639576 254.356563)scale(0.1 -0.1)">
       <use xlink:href="#DejaVuSans-65"/>
       <use x="68.408203" xlink:href="#DejaVuSans-112"/>
       <use x="131.884766" xlink:href="#DejaVuSans-114"/>
       <use x="172.857422" xlink:href="#DejaVuSans-46"/>
      </g>
      <!-- 08 -->
      <defs>
       <path d="M 31.78125 34.625 
Q 24.75 34.625 20.71875 30.859375 
Q 16.703125 27.09375 16.703125 20.515625 
Q 16.703125 13.921875 20.71875 10.15625 
Q 24.75 6.390625 31.78125 6.390625 
Q 38.8125 6.390625 42.859375 10.171875 
Q 46.921875 13.96875 46.921875 20.515625 
Q 46.921875 27.09375 42.890625 30.859375 
Q 38.875 34.625 31.78125 34.625 
z
M 21.921875 38.8125 
Q 15.578125 40.375 12.03125 44.71875 
Q 8.5 49.078125 8.5 55.328125 
Q 8.5 64.0625 14.71875 69.140625 
Q 20.953125 74.21875 31.78125 74.21875 
Q 42.671875 74.21875 48.875 69.140625 
Q 55.078125 64.0625 55.078125 55.328125 
Q 55.078125 49.078125 51.53125 44.71875 
Q 48 40.375 41.703125 38.8125 
Q 48.828125 37.15625 52.796875 32.3125 
Q 56.78125 27.484375 56.78125 20.515625 
Q 56.78125 9.90625 50.3125 4.234375 
Q 43.84375 -1.421875 31.78125 -1.421875 
Q 19.734375 -1.421875 13.25 4.234375 
Q 6.78125 9.90625 6.78125 20.515625 
Q 6.78125 27.484375 10.78125 32.3125 
Q 14.796875 37.15625 21.921875 38.8125 
z
M 18.3125 54.390625 
Q 18.3125 48.734375 21.84375 45.5625 
Q 25.390625 42.390625 31.78125 42.390625 
Q 38.140625 42.390625 41.71875 45.5625 
Q 45.3125 48.734375 45.3125 54.390625 
Q 45.3125 60.0625 41.71875 63.234375 
Q 38.140625 66.40625 31.78125 66.40625 
Q 25.390625 66.40625 21.84375 63.234375 
Q 18.3125 60.0625 18.3125 54.390625 
z
" id="DejaVuSans-56"/>
      </defs>
      <g transform="translate(298.509107 265.554375)scale(0.1 -0.1)">
       <use xlink:href="#DejaVuSans-48"/>
       <use x="63.623047" xlink:href="#DejaVuSans-56"/>
      </g>
     </g>
    </g>
    <g id="xtick_5">
     <g id="line2d_9">
      <path clip-path="url(#p5f673968d3)" d="M 361.338941 239.758125 
L 361.338941 22.318125 
" style="fill:none;stroke:#b0b0b0;stroke-linecap:square;stroke-opacity:0.8;stroke-width:0.8;"/>
     </g>
     <g id="line2d_10">
      <g>
       <use style="stroke:#000000;stroke-width:0.8;" x="361.338941" xlink:href="#m8bcffd0dae" y="239.758125"/>
      </g>
     </g>
     <g id="text_5">
      <!-- Apr. -->
      <g transform="translate(351.10691 254.356563)scale(0.1 -0.1)">
       <use xlink:href="#DejaVuSans-65"/>
       <use x="68.408203" xlink:href="#DejaVuSans-112"/>
       <use x="131.884766" xlink:href="#DejaVuSans-114"/>
       <use x="172.857422" xlink:href="#DejaVuSans-46"/>
      </g>
      <!-- 15 -->
      <g transform="translate(354.976441 265.554375)scale(0.1 -0.1)">
       <use xlink:href="#DejaVuSans-49"/>
       <use x="63.623047" xlink:href="#DejaVuSans-53"/>
      </g>
     </g>
    </g>
   </g>
   <g id="matplotlib.axis_2">
    <g id="ytick_1">
     <g id="line2d_11">
      <path clip-path="url(#p5f673968d3)" d="M 62.86875 239.758125 
L 397.66875 239.758125 
" style="fill:none;stroke:#b0b0b0;stroke-linecap:square;stroke-opacity:0.8;stroke-width:0.8;"/>
     </g>
     <g id="line2d_12">
      <defs>
       <path d="M 0 0 
L -3.5 0 
" id="m4d987c5260" style="stroke:#000000;stroke-width:0.8;"/>
      </defs>
      <g>
       <use style="stroke:#000000;stroke-width:0.8;" x="62.86875" xlink:href="#m4d987c5260" y="239.758125"/>
      </g>
     </g>
     <g id="text_6">
      <!-- 2 -->
      <g transform="translate(49.50625 243.557344)scale(0.1 -0.1)">
       <use xlink:href="#DejaVuSans-50"/>
      </g>
     </g>
    </g>
    <g id="ytick_2">
     <g id="line2d_13">
      <path clip-path="url(#p5f673968d3)" d="M 62.86875 220.491344 
L 397.66875 220.491344 
" style="fill:none;stroke:#b0b0b0;stroke-linecap:square;stroke-opacity:0.8;stroke-width:0.8;"/>
     </g>
     <g id="line2d_14">
      <g>
       <use style="stroke:#000000;stroke-width:0.8;" x="62.86875" xlink:href="#m4d987c5260" y="220.491344"/>
      </g>
     </g>
     <g id="text_7">
      <!-- 5 -->
      <g transform="translate(49.50625 224.290563)scale(0.1 -0.1)">
       <use xlink:href="#DejaVuSans-53"/>
      </g>
     </g>
    </g>
    <g id="ytick_3">
     <g id="line2d_15">
      <path clip-path="url(#p5f673968d3)" d="M 62.86875 205.916587 
L 397.66875 205.916587 
" style="fill:none;stroke:#b0b0b0;stroke-linecap:square;stroke-opacity:0.8;stroke-width:0.8;"/>
     </g>
     <g id="line2d_16">
      <g>
       <use style="stroke:#000000;stroke-width:0.8;" x="62.86875" xlink:href="#m4d987c5260" y="205.916587"/>
      </g>
     </g>
     <g id="text_8">
      <!-- 10 -->
      <g transform="translate(43.14375 209.715805)scale(0.1 -0.1)">
       <use xlink:href="#DejaVuSans-49"/>
       <use x="63.623047" xlink:href="#DejaVuSans-48"/>
      </g>
     </g>
    </g>
    <g id="ytick_4">
     <g id="line2d_17">
      <path clip-path="url(#p5f673968d3)" d="M 62.86875 191.341829 
L 397.66875 191.341829 
" style="fill:none;stroke:#b0b0b0;stroke-linecap:square;stroke-opacity:0.8;stroke-width:0.8;"/>
     </g>
     <g id="line2d_18">
      <g>
       <use style="stroke:#000000;stroke-width:0.8;" x="62.86875" xlink:href="#m4d987c5260" y="191.341829"/>
      </g>
     </g>
     <g id="text_9">
      <!-- 20 -->
      <g transform="translate(43.14375 195.141048)scale(0.1 -0.1)">
       <use xlink:href="#DejaVuSans-50"/>
       <use x="63.623047" xlink:href="#DejaVuSans-48"/>
      </g>
     </g>
    </g>
    <g id="ytick_5">
     <g id="line2d_19">
      <path clip-path="url(#p5f673968d3)" d="M 62.86875 172.075048 
L 397.66875 172.075048 
" style="fill:none;stroke:#b0b0b0;stroke-linecap:square;stroke-opacity:0.8;stroke-width:0.8;"/>
     </g>
     <g id="line2d_20">
      <g>
       <use style="stroke:#000000;stroke-width:0.8;" x="62.86875" xlink:href="#m4d987c5260" y="172.075048"/>
      </g>
     </g>
     <g id="text_10">
      <!-- 50 -->
      <g transform="translate(43.14375 175.874267)scale(0.1 -0.1)">
       <use xlink:href="#DejaVuSans-53"/>
       <use x="63.623047" xlink:href="#DejaVuSans-48"/>
      </g>
     </g>
    </g>
    <g id="ytick_6">
     <g id="line2d_21">
      <path clip-path="url(#p5f673968d3)" d="M 62.86875 157.500291 
L 397.66875 157.500291 
" style="fill:none;stroke:#b0b0b0;stroke-linecap:square;stroke-opacity:0.8;stroke-width:0.8;"/>
     </g>
     <g id="line2d_22">
      <g>
       <use style="stroke:#000000;stroke-width:0.8;" x="62.86875" xlink:href="#m4d987c5260" y="157.500291"/>
      </g>
     </g>
     <g id="text_11">
      <!-- 100 -->
      <g transform="translate(36.78125 161.29951)scale(0.1 -0.1)">
       <use xlink:href="#DejaVuSans-49"/>
       <use x="63.623047" xlink:href="#DejaVuSans-48"/>
       <use x="127.246094" xlink:href="#DejaVuSans-48"/>
      </g>
     </g>
    </g>
    <g id="ytick_7">
     <g id="line2d_23">
      <path clip-path="url(#p5f673968d3)" d="M 62.86875 142.925534 
L 397.66875 142.925534 
" style="fill:none;stroke:#b0b0b0;stroke-linecap:square;stroke-opacity:0.8;stroke-width:0.8;"/>
     </g>
     <g id="line2d_24">
      <g>
       <use style="stroke:#000000;stroke-width:0.8;" x="62.86875" xlink:href="#m4d987c5260" y="142.925534"/>
      </g>
     </g>
     <g id="text_12">
      <!-- 200 -->
      <g transform="translate(36.78125 146.724753)scale(0.1 -0.1)">
       <use xlink:href="#DejaVuSans-50"/>
       <use x="63.623047" xlink:href="#DejaVuSans-48"/>
       <use x="127.246094" xlink:href="#DejaVuSans-48"/>
      </g>
     </g>
    </g>
    <g id="ytick_8">
     <g id="line2d_25">
      <path clip-path="url(#p5f673968d3)" d="M 62.86875 123.658753 
L 397.66875 123.658753 
" style="fill:none;stroke:#b0b0b0;stroke-linecap:square;stroke-opacity:0.8;stroke-width:0.8;"/>
     </g>
     <g id="line2d_26">
      <g>
       <use style="stroke:#000000;stroke-width:0.8;" x="62.86875" xlink:href="#m4d987c5260" y="123.658753"/>
      </g>
     </g>
     <g id="text_13">
      <!-- 500 -->
      <g transform="translate(36.78125 127.457972)scale(0.1 -0.1)">
       <use xlink:href="#DejaVuSans-53"/>
       <use x="63.623047" xlink:href="#DejaVuSans-48"/>
       <use x="127.246094" xlink:href="#DejaVuSans-48"/>
      </g>
     </g>
    </g>
    <g id="ytick_9">
     <g id="line2d_27">
      <path clip-path="url(#p5f673968d3)" d="M 62.86875 109.083996 
L 397.66875 109.083996 
" style="fill:none;stroke:#b0b0b0;stroke-linecap:square;stroke-opacity:0.8;stroke-width:0.8;"/>
     </g>
     <g id="line2d_28">
      <g>
       <use style="stroke:#000000;stroke-width:0.8;" x="62.86875" xlink:href="#m4d987c5260" y="109.083996"/>
      </g>
     </g>
     <g id="text_14">
      <!-- 1,000 -->
      <defs>
       <path d="M 11.71875 12.40625 
L 22.015625 12.40625 
L 22.015625 4 
L 14.015625 -11.625 
L 7.71875 -11.625 
L 11.71875 4 
z
" id="DejaVuSans-44"/>
      </defs>
      <g transform="translate(27.240625 112.883214)scale(0.1 -0.1)">
       <use xlink:href="#DejaVuSans-49"/>
       <use x="63.623047" xlink:href="#DejaVuSans-44"/>
       <use x="95.410156" xlink:href="#DejaVuSans-48"/>
       <use x="159.033203" xlink:href="#DejaVuSans-48"/>
       <use x="222.65625" xlink:href="#DejaVuSans-48"/>
      </g>
     </g>
    </g>
    <g id="ytick_10">
     <g id="line2d_29">
      <path clip-path="url(#p5f673968d3)" d="M 62.86875 94.509238 
L 397.66875 94.509238 
" style="fill:none;stroke:#b0b0b0;stroke-linecap:square;stroke-opacity:0.8;stroke-width:0.8;"/>
     </g>
     <g id="line2d_30">
      <g>
       <use style="stroke:#000000;stroke-width:0.8;" x="62.86875" xlink:href="#m4d987c5260" y="94.509238"/>
      </g>
     </g>
     <g id="text_15">
      <!-- 2,000 -->
      <g transform="translate(27.240625 98.308457)scale(0.1 -0.1)">
       <use xlink:href="#DejaVuSans-50"/>
       <use x="63.623047" xlink:href="#DejaVuSans-44"/>
       <use x="95.410156" xlink:href="#DejaVuSans-48"/>
       <use x="159.033203" xlink:href="#DejaVuSans-48"/>
       <use x="222.65625" xlink:href="#DejaVuSans-48"/>
      </g>
     </g>
    </g>
    <g id="ytick_11">
     <g id="line2d_31">
      <path clip-path="url(#p5f673968d3)" d="M 62.86875 75.242457 
L 397.66875 75.242457 
" style="fill:none;stroke:#b0b0b0;stroke-linecap:square;stroke-opacity:0.8;stroke-width:0.8;"/>
     </g>
     <g id="line2d_32">
      <g>
       <use style="stroke:#000000;stroke-width:0.8;" x="62.86875" xlink:href="#m4d987c5260" y="75.242457"/>
      </g>
     </g>
     <g id="text_16">
      <!-- 5,000 -->
      <g transform="translate(27.240625 79.041676)scale(0.1 -0.1)">
       <use xlink:href="#DejaVuSans-53"/>
       <use x="63.623047" xlink:href="#DejaVuSans-44"/>
       <use x="95.410156" xlink:href="#DejaVuSans-48"/>
       <use x="159.033203" xlink:href="#DejaVuSans-48"/>
       <use x="222.65625" xlink:href="#DejaVuSans-48"/>
      </g>
     </g>
    </g>
    <g id="ytick_12">
     <g id="line2d_33">
      <path clip-path="url(#p5f673968d3)" d="M 62.86875 60.6677 
L 397.66875 60.6677 
" style="fill:none;stroke:#b0b0b0;stroke-linecap:square;stroke-opacity:0.8;stroke-width:0.8;"/>
     </g>
     <g id="line2d_34">
      <g>
       <use style="stroke:#000000;stroke-width:0.8;" x="62.86875" xlink:href="#m4d987c5260" y="60.6677"/>
      </g>
     </g>
     <g id="text_17">
      <!-- 10,000 -->
      <g transform="translate(20.878125 64.466919)scale(0.1 -0.1)">
       <use xlink:href="#DejaVuSans-49"/>
       <use x="63.623047" xlink:href="#DejaVuSans-48"/>
       <use x="127.246094" xlink:href="#DejaVuSans-44"/>
       <use x="159.033203" xlink:href="#DejaVuSans-48"/>
       <use x="222.65625" xlink:href="#DejaVuSans-48"/>
       <use x="286.279297" xlink:href="#DejaVuSans-48"/>
      </g>
     </g>
    </g>
    <g id="ytick_13">
     <g id="line2d_35">
      <path clip-path="url(#p5f673968d3)" d="M 62.86875 46.092943 
L 397.66875 46.092943 
" style="fill:none;stroke:#b0b0b0;stroke-linecap:square;stroke-opacity:0.8;stroke-width:0.8;"/>
     </g>
     <g id="line2d_36">
      <g>
       <use style="stroke:#000000;stroke-width:0.8;" x="62.86875" xlink:href="#m4d987c5260" y="46.092943"/>
      </g>
     </g>
     <g id="text_18">
      <!-- 20,000 -->
      <g transform="translate(20.878125 49.892162)scale(0.1 -0.1)">
       <use xlink:href="#DejaVuSans-50"/>
       <use x="63.623047" xlink:href="#DejaVuSans-48"/>
       <use x="127.246094" xlink:href="#DejaVuSans-44"/>
       <use x="159.033203" xlink:href="#DejaVuSans-48"/>
       <use x="222.65625" xlink:href="#DejaVuSans-48"/>
       <use x="286.279297" xlink:href="#DejaVuSans-48"/>
      </g>
     </g>
    </g>
    <g id="ytick_14">
     <g id="line2d_37">
      <path clip-path="url(#p5f673968d3)" d="M 62.86875 26.826162 
L 397.66875 26.826162 
" style="fill:none;stroke:#b0b0b0;stroke-linecap:square;stroke-opacity:0.8;stroke-width:0.8;"/>
     </g>
     <g id="line2d_38">
      <g>
       <use style="stroke:#000000;stroke-width:0.8;" x="62.86875" xlink:href="#m4d987c5260" y="26.826162"/>
      </g>
     </g>
     <g id="text_19">
      <!-- 50,000 -->
      <g transform="translate(20.878125 30.625381)scale(0.1 -0.1)">
       <use xlink:href="#DejaVuSans-53"/>
       <use x="63.623047" xlink:href="#DejaVuSans-48"/>
       <use x="127.246094" xlink:href="#DejaVuSans-44"/>
       <use x="159.033203" xlink:href="#DejaVuSans-48"/>
       <use x="222.65625" xlink:href="#DejaVuSans-48"/>
       <use x="286.279297" xlink:href="#DejaVuSans-48"/>
      </g>
     </g>
    </g>
    <g id="ytick_15">
     <g id="line2d_39">
      <defs>
       <path d="M 0 0 
L -2 0 
" id="me8524597d7" style="stroke:#000000;stroke-width:0.6;"/>
      </defs>
      <g>
       <use style="stroke:#000000;stroke-width:0.6;" x="62.86875" xlink:href="#me8524597d7" y="231.232439"/>
      </g>
     </g>
    </g>
    <g id="ytick_16">
     <g id="line2d_40">
      <g>
       <use style="stroke:#000000;stroke-width:0.6;" x="62.86875" xlink:href="#me8524597d7" y="225.183368"/>
      </g>
     </g>
    </g>
    <g id="ytick_17">
     <g id="line2d_41">
      <g>
       <use style="stroke:#000000;stroke-width:0.6;" x="62.86875" xlink:href="#me8524597d7" y="216.657681"/>
      </g>
     </g>
    </g>
    <g id="ytick_18">
     <g id="line2d_42">
      <g>
       <use style="stroke:#000000;stroke-width:0.6;" x="62.86875" xlink:href="#me8524597d7" y="213.416366"/>
      </g>
     </g>
    </g>
    <g id="ytick_19">
     <g id="line2d_43">
      <g>
       <use style="stroke:#000000;stroke-width:0.6;" x="62.86875" xlink:href="#me8524597d7" y="210.608611"/>
      </g>
     </g>
    </g>
    <g id="ytick_20">
     <g id="line2d_44">
      <g>
       <use style="stroke:#000000;stroke-width:0.6;" x="62.86875" xlink:href="#me8524597d7" y="208.131995"/>
      </g>
     </g>
    </g>
    <g id="ytick_21">
     <g id="line2d_45">
      <g>
       <use style="stroke:#000000;stroke-width:0.6;" x="62.86875" xlink:href="#me8524597d7" y="182.816143"/>
      </g>
     </g>
    </g>
    <g id="ytick_22">
     <g id="line2d_46">
      <g>
       <use style="stroke:#000000;stroke-width:0.6;" x="62.86875" xlink:href="#me8524597d7" y="176.767072"/>
      </g>
     </g>
    </g>
    <g id="ytick_23">
     <g id="line2d_47">
      <g>
       <use style="stroke:#000000;stroke-width:0.6;" x="62.86875" xlink:href="#me8524597d7" y="168.241386"/>
      </g>
     </g>
    </g>
    <g id="ytick_24">
     <g id="line2d_48">
      <g>
       <use style="stroke:#000000;stroke-width:0.6;" x="62.86875" xlink:href="#me8524597d7" y="165.00007"/>
      </g>
     </g>
    </g>
    <g id="ytick_25">
     <g id="line2d_49">
      <g>
       <use style="stroke:#000000;stroke-width:0.6;" x="62.86875" xlink:href="#me8524597d7" y="162.192315"/>
      </g>
     </g>
    </g>
    <g id="ytick_26">
     <g id="line2d_50">
      <g>
       <use style="stroke:#000000;stroke-width:0.6;" x="62.86875" xlink:href="#me8524597d7" y="159.715699"/>
      </g>
     </g>
    </g>
    <g id="ytick_27">
     <g id="line2d_51">
      <g>
       <use style="stroke:#000000;stroke-width:0.6;" x="62.86875" xlink:href="#me8524597d7" y="134.399847"/>
      </g>
     </g>
    </g>
    <g id="ytick_28">
     <g id="line2d_52">
      <g>
       <use style="stroke:#000000;stroke-width:0.6;" x="62.86875" xlink:href="#me8524597d7" y="128.350777"/>
      </g>
     </g>
    </g>
    <g id="ytick_29">
     <g id="line2d_53">
      <g>
       <use style="stroke:#000000;stroke-width:0.6;" x="62.86875" xlink:href="#me8524597d7" y="119.82509"/>
      </g>
     </g>
    </g>
    <g id="ytick_30">
     <g id="line2d_54">
      <g>
       <use style="stroke:#000000;stroke-width:0.6;" x="62.86875" xlink:href="#me8524597d7" y="116.583775"/>
      </g>
     </g>
    </g>
    <g id="ytick_31">
     <g id="line2d_55">
      <g>
       <use style="stroke:#000000;stroke-width:0.6;" x="62.86875" xlink:href="#me8524597d7" y="113.776019"/>
      </g>
     </g>
    </g>
    <g id="ytick_32">
     <g id="line2d_56">
      <g>
       <use style="stroke:#000000;stroke-width:0.6;" x="62.86875" xlink:href="#me8524597d7" y="111.299404"/>
      </g>
     </g>
    </g>
    <g id="ytick_33">
     <g id="line2d_57">
      <g>
       <use style="stroke:#000000;stroke-width:0.6;" x="62.86875" xlink:href="#me8524597d7" y="85.983552"/>
      </g>
     </g>
    </g>
    <g id="ytick_34">
     <g id="line2d_58">
      <g>
       <use style="stroke:#000000;stroke-width:0.6;" x="62.86875" xlink:href="#me8524597d7" y="79.934481"/>
      </g>
     </g>
    </g>
    <g id="ytick_35">
     <g id="line2d_59">
      <g>
       <use style="stroke:#000000;stroke-width:0.6;" x="62.86875" xlink:href="#me8524597d7" y="71.408795"/>
      </g>
     </g>
    </g>
    <g id="ytick_36">
     <g id="line2d_60">
      <g>
       <use style="stroke:#000000;stroke-width:0.6;" x="62.86875" xlink:href="#me8524597d7" y="68.167479"/>
      </g>
     </g>
    </g>
    <g id="ytick_37">
     <g id="line2d_61">
      <g>
       <use style="stroke:#000000;stroke-width:0.6;" x="62.86875" xlink:href="#me8524597d7" y="65.359724"/>
      </g>
     </g>
    </g>
    <g id="ytick_38">
     <g id="line2d_62">
      <g>
       <use style="stroke:#000000;stroke-width:0.6;" x="62.86875" xlink:href="#me8524597d7" y="62.883108"/>
      </g>
     </g>
    </g>
    <g id="ytick_39">
     <g id="line2d_63">
      <g>
       <use style="stroke:#000000;stroke-width:0.6;" x="62.86875" xlink:href="#me8524597d7" y="37.567256"/>
      </g>
     </g>
    </g>
    <g id="ytick_40">
     <g id="line2d_64">
      <g>
       <use style="stroke:#000000;stroke-width:0.6;" x="62.86875" xlink:href="#me8524597d7" y="31.518186"/>
      </g>
     </g>
    </g>
    <g id="ytick_41">
     <g id="line2d_65">
      <g>
       <use style="stroke:#000000;stroke-width:0.6;" x="62.86875" xlink:href="#me8524597d7" y="22.992499"/>
      </g>
     </g>
    </g>
    <g id="text_20">
     <!-- Total cases per million -->
     <defs>
      <path d="M -0.296875 72.90625 
L 61.375 72.90625 
L 61.375 64.59375 
L 35.5 64.59375 
L 35.5 0 
L 25.59375 0 
L 25.59375 64.59375 
L -0.296875 64.59375 
z
" id="DejaVuSans-84"/>
      <path d="M 30.609375 48.390625 
Q 23.390625 48.390625 19.1875 42.75 
Q 14.984375 37.109375 14.984375 27.296875 
Q 14.984375 17.484375 19.15625 11.84375 
Q 23.34375 6.203125 30.609375 6.203125 
Q 37.796875 6.203125 41.984375 11.859375 
Q 46.1875 17.53125 46.1875 27.296875 
Q 46.1875 37.015625 41.984375 42.703125 
Q 37.796875 48.390625 30.609375 48.390625 
z
M 30.609375 56 
Q 42.328125 56 49.015625 48.375 
Q 55.71875 40.765625 55.71875 27.296875 
Q 55.71875 13.875 49.015625 6.21875 
Q 42.328125 -1.421875 30.609375 -1.421875 
Q 18.84375 -1.421875 12.171875 6.21875 
Q 5.515625 13.875 5.515625 27.296875 
Q 5.515625 40.765625 12.171875 48.375 
Q 18.84375 56 30.609375 56 
z
" id="DejaVuSans-111"/>
      <path d="M 18.3125 70.21875 
L 18.3125 54.6875 
L 36.8125 54.6875 
L 36.8125 47.703125 
L 18.3125 47.703125 
L 18.3125 18.015625 
Q 18.3125 11.328125 20.140625 9.421875 
Q 21.96875 7.515625 27.59375 7.515625 
L 36.8125 7.515625 
L 36.8125 0 
L 27.59375 0 
Q 17.1875 0 13.234375 3.875 
Q 9.28125 7.765625 9.28125 18.015625 
L 9.28125 47.703125 
L 2.6875 47.703125 
L 2.6875 54.6875 
L 9.28125 54.6875 
L 9.28125 70.21875 
z
" id="DejaVuSans-116"/>
      <path d="M 9.421875 75.984375 
L 18.40625 75.984375 
L 18.40625 0 
L 9.421875 0 
z
" id="DejaVuSans-108"/>
      <path id="DejaVuSans-32"/>
      <path d="M 48.78125 52.59375 
L 48.78125 44.1875 
Q 44.96875 46.296875 41.140625 47.34375 
Q 37.3125 48.390625 33.40625 48.390625 
Q 24.65625 48.390625 19.8125 42.84375 
Q 14.984375 37.3125 14.984375 27.296875 
Q 14.984375 17.28125 19.8125 11.734375 
Q 24.65625 6.203125 33.40625 6.203125 
Q 37.3125 6.203125 41.140625 7.25 
Q 44.96875 8.296875 48.78125 10.40625 
L 48.78125 2.09375 
Q 45.015625 0.34375 40.984375 -0.53125 
Q 36.96875 -1.421875 32.421875 -1.421875 
Q 20.0625 -1.421875 12.78125 6.34375 
Q 5.515625 14.109375 5.515625 27.296875 
Q 5.515625 40.671875 12.859375 48.328125 
Q 20.21875 56 33.015625 56 
Q 37.15625 56 41.109375 55.140625 
Q 45.0625 54.296875 48.78125 52.59375 
z
" id="DejaVuSans-99"/>
      <path d="M 44.28125 53.078125 
L 44.28125 44.578125 
Q 40.484375 46.53125 36.375 47.5 
Q 32.28125 48.484375 27.875 48.484375 
Q 21.1875 48.484375 17.84375 46.4375 
Q 14.5 44.390625 14.5 40.28125 
Q 14.5 37.15625 16.890625 35.375 
Q 19.28125 33.59375 26.515625 31.984375 
L 29.59375 31.296875 
Q 39.15625 29.25 43.1875 25.515625 
Q 47.21875 21.78125 47.21875 15.09375 
Q 47.21875 7.46875 41.1875 3.015625 
Q 35.15625 -1.421875 24.609375 -1.421875 
Q 20.21875 -1.421875 15.453125 -0.5625 
Q 10.6875 0.296875 5.421875 2 
L 5.421875 11.28125 
Q 10.40625 8.6875 15.234375 7.390625 
Q 20.0625 6.109375 24.8125 6.109375 
Q 31.15625 6.109375 34.5625 8.28125 
Q 37.984375 10.453125 37.984375 14.40625 
Q 37.984375 18.0625 35.515625 20.015625 
Q 33.0625 21.96875 24.703125 23.78125 
L 21.578125 24.515625 
Q 13.234375 26.265625 9.515625 29.90625 
Q 5.8125 33.546875 5.8125 39.890625 
Q 5.8125 47.609375 11.28125 51.796875 
Q 16.75 56 26.8125 56 
Q 31.78125 56 36.171875 55.265625 
Q 40.578125 54.546875 44.28125 53.078125 
z
" id="DejaVuSans-115"/>
      <path d="M 56.203125 29.59375 
L 56.203125 25.203125 
L 14.890625 25.203125 
Q 15.484375 15.921875 20.484375 11.0625 
Q 25.484375 6.203125 34.421875 6.203125 
Q 39.59375 6.203125 44.453125 7.46875 
Q 49.3125 8.734375 54.109375 11.28125 
L 54.109375 2.78125 
Q 49.265625 0.734375 44.1875 -0.34375 
Q 39.109375 -1.421875 33.890625 -1.421875 
Q 20.796875 -1.421875 13.15625 6.1875 
Q 5.515625 13.8125 5.515625 26.8125 
Q 5.515625 40.234375 12.765625 48.109375 
Q 20.015625 56 32.328125 56 
Q 43.359375 56 49.78125 48.890625 
Q 56.203125 41.796875 56.203125 29.59375 
z
M 47.21875 32.234375 
Q 47.125 39.59375 43.09375 43.984375 
Q 39.0625 48.390625 32.421875 48.390625 
Q 24.90625 48.390625 20.390625 44.140625 
Q 15.875 39.890625 15.1875 32.171875 
z
" id="DejaVuSans-101"/>
      <path d="M 52 44.1875 
Q 55.375 50.25 60.0625 53.125 
Q 64.75 56 71.09375 56 
Q 79.640625 56 84.28125 50.015625 
Q 88.921875 44.046875 88.921875 33.015625 
L 88.921875 0 
L 79.890625 0 
L 79.890625 32.71875 
Q 79.890625 40.578125 77.09375 44.375 
Q 74.3125 48.1875 68.609375 48.1875 
Q 61.625 48.1875 57.5625 43.546875 
Q 53.515625 38.921875 53.515625 30.90625 
L 53.515625 0 
L 44.484375 0 
L 44.484375 32.71875 
Q 44.484375 40.625 41.703125 44.40625 
Q 38.921875 48.1875 33.109375 48.1875 
Q 26.21875 48.1875 22.15625 43.53125 
Q 18.109375 38.875 18.109375 30.90625 
L 18.109375 0 
L 9.078125 0 
L 9.078125 54.6875 
L 18.109375 54.6875 
L 18.109375 46.1875 
Q 21.1875 51.21875 25.484375 53.609375 
Q 29.78125 56 35.6875 56 
Q 41.65625 56 45.828125 52.96875 
Q 50 49.953125 52 44.1875 
z
" id="DejaVuSans-109"/>
      <path d="M 9.421875 54.6875 
L 18.40625 54.6875 
L 18.40625 0 
L 9.421875 0 
z
M 9.421875 75.984375 
L 18.40625 75.984375 
L 18.40625 64.59375 
L 9.421875 64.59375 
z
" id="DejaVuSans-105"/>
      <path d="M 54.890625 33.015625 
L 54.890625 0 
L 45.90625 0 
L 45.90625 32.71875 
Q 45.90625 40.484375 42.875 44.328125 
Q 39.84375 48.1875 33.796875 48.1875 
Q 26.515625 48.1875 22.3125 43.546875 
Q 18.109375 38.921875 18.109375 30.90625 
L 18.109375 0 
L 9.078125 0 
L 9.078125 54.6875 
L 18.109375 54.6875 
L 18.109375 46.1875 
Q 21.34375 51.125 25.703125 53.5625 
Q 30.078125 56 35.796875 56 
Q 45.21875 56 50.046875 50.171875 
Q 54.890625 44.34375 54.890625 33.015625 
z
" id="DejaVuSans-110"/>
     </defs>
     <g transform="translate(14.798438 187.37875)rotate(-90)scale(0.1 -0.1)">
      <use xlink:href="#DejaVuSans-84"/>
      <use x="60.818359" xlink:href="#DejaVuSans-111"/>
      <use x="122" xlink:href="#DejaVuSans-116"/>
      <use x="161.208984" xlink:href="#DejaVuSans-97"/>
      <use x="222.488281" xlink:href="#DejaVuSans-108"/>
      <use x="250.271484" xlink:href="#DejaVuSans-32"/>
      <use x="282.058594" xlink:href="#DejaVuSans-99"/>
      <use x="337.039062" xlink:href="#DejaVuSans-97"/>
      <use x="398.318359" xlink:href="#DejaVuSans-115"/>
      <use x="450.417969" xlink:href="#DejaVuSans-101"/>
      <use x="511.941406" xlink:href="#DejaVuSans-115"/>
      <use x="564.041016" xlink:href="#DejaVuSans-32"/>
      <use x="595.828125" xlink:href="#DejaVuSans-112"/>
      <use x="659.304688" xlink:href="#DejaVuSans-101"/>
      <use x="720.828125" xlink:href="#DejaVuSans-114"/>
      <use x="761.941406" xlink:href="#DejaVuSans-32"/>
      <use x="793.728516" xlink:href="#DejaVuSans-109"/>
      <use x="891.140625" xlink:href="#DejaVuSans-105"/>
      <use x="918.923828" xlink:href="#DejaVuSans-108"/>
      <use x="946.707031" xlink:href="#DejaVuSans-108"/>
      <use x="974.490234" xlink:href="#DejaVuSans-105"/>
      <use x="1002.273438" xlink:href="#DejaVuSans-111"/>
      <use x="1063.455078" xlink:href="#DejaVuSans-110"/>
     </g>
    </g>
   </g>
   <g id="line2d_66">
    <path clip-path="url(#p5f673968d3)" d="M 329.071893 62.247183 
L 337.138655 61.356458 
L 345.205417 60.465732 
L 353.272179 59.575007 
L 361.338941 58.684281 
" style="fill:none;stroke:#7f7f7f;stroke-dasharray:7.4,3.2;stroke-dashoffset:0;stroke-width:2;"/>
   </g>
   <g id="line2d_67">
    <path clip-path="url(#p5f673968d3)" d="M 329.071893 69.574501 
L 337.138655 68.522843 
L 345.205417 67.471185 
L 353.272179 66.419527 
L 361.338941 65.367869 
" style="fill:none;stroke:#7f7f7f;stroke-dasharray:7.4,3.2;stroke-dashoffset:0;stroke-width:2;"/>
   </g>
   <g id="line2d_68">
    <path clip-path="url(#p5f673968d3)" d="M 329.071893 105.303598 
L 337.138655 104.339846 
L 345.205417 103.376095 
L 353.272179 102.412344 
L 361.338941 101.448592 
" style="fill:none;stroke:#7f7f7f;stroke-dasharray:7.4,3.2;stroke-dashoffset:0;stroke-width:2;"/>
   </g>
   <g id="line2d_69">
    <path clip-path="url(#p5f673968d3)" d="M 329.071893 111.685794 
L 337.138655 110.784844 
L 345.205417 109.883894 
L 353.272179 108.982944 
L 361.338941 108.081993 
" style="fill:none;stroke:#7f7f7f;stroke-dasharray:7.4,3.2;stroke-dashoffset:0;stroke-width:2;"/>
   </g>
   <g id="line2d_70">
    <path clip-path="url(#p5f673968d3)" d="M 329.071893 124.578762 
L 337.138655 123.114581 
L 345.205417 121.6504 
L 353.272179 120.18622 
L 361.338941 118.722039 
" style="fill:none;stroke:#7f7f7f;stroke-dasharray:7.4,3.2;stroke-dashoffset:0;stroke-width:2;"/>
   </g>
   <g id="patch_3">
    <path d="M 62.86875 239.758125 
L 62.86875 22.318125 
" style="fill:none;stroke:#000000;stroke-linecap:square;stroke-linejoin:miter;stroke-width:0.8;"/>
   </g>
   <g id="patch_4">
    <path d="M 397.66875 239.758125 
L 397.66875 22.318125 
" style="fill:none;stroke:#000000;stroke-linecap:square;stroke-linejoin:miter;stroke-width:0.8;"/>
   </g>
   <g id="patch_5">
    <path d="M 62.86875 239.758125 
L 397.66875 239.758125 
" style="fill:none;stroke:#000000;stroke-linecap:square;stroke-linejoin:miter;stroke-width:0.8;"/>
   </g>
   <g id="patch_6">
    <path d="M 62.86875 22.318125 
L 397.66875 22.318125 
" style="fill:none;stroke:#000000;stroke-linecap:square;stroke-linejoin:miter;stroke-width:0.8;"/>
   </g>
   <g id="text_21">
    <!-- © Scott Sievert -->
    <defs>
     <path d="M 50 72.515625 
Q 57.421875 72.515625 63.84375 69.828125 
Q 70.265625 67.140625 75.59375 61.8125 
Q 80.90625 56.5 83.546875 50.09375 
Q 86.1875 43.703125 86.1875 36.1875 
Q 86.1875 28.765625 83.546875 22.390625 
Q 80.90625 16.015625 75.59375 10.6875 
Q 70.265625 5.375 63.84375 2.6875 
Q 57.421875 0 50 0 
Q 42.578125 0 36.15625 2.6875 
Q 29.734375 5.375 24.421875 10.6875 
Q 19.09375 16.015625 16.453125 22.390625 
Q 13.8125 28.765625 13.8125 36.1875 
Q 13.8125 43.703125 16.453125 50.09375 
Q 19.09375 56.5 24.421875 61.8125 
Q 29.734375 67.140625 36.15625 69.828125 
Q 42.578125 72.515625 50 72.515625 
z
M 50 67.484375 
Q 43.609375 67.484375 38.078125 65.1875 
Q 32.5625 62.890625 27.984375 58.296875 
Q 23.390625 53.71875 21.046875 48.125 
Q 18.703125 42.53125 18.703125 36.1875 
Q 18.703125 29.890625 21.046875 24.34375 
Q 23.390625 18.796875 27.984375 14.203125 
Q 32.5625 9.625 38.078125 7.296875 
Q 43.609375 4.984375 50 4.984375 
Q 56.453125 4.984375 61.984375 7.296875 
Q 67.53125 9.625 72.125 14.203125 
Q 76.65625 18.75 78.921875 24.265625 
Q 81.203125 29.78125 81.203125 36.1875 
Q 81.203125 42.671875 78.90625 48.21875 
Q 76.609375 53.765625 72.125 58.296875 
Q 67.53125 62.890625 61.984375 65.1875 
Q 56.453125 67.484375 50 67.484375 
z
M 64.59375 55.515625 
L 64.59375 49.21875 
Q 61.375 50.828125 58.203125 51.609375 
Q 55.03125 52.390625 51.8125 52.390625 
Q 44.53125 52.390625 40.453125 48.109375 
Q 36.375 43.84375 36.375 36.1875 
Q 36.375 28.421875 40.546875 24.171875 
Q 44.734375 19.921875 52.296875 19.921875 
Q 55.421875 19.921875 58.390625 20.671875 
Q 61.375 21.4375 64.59375 23.09375 
L 64.59375 16.890625 
Q 61.328125 15.484375 57.984375 14.796875 
Q 54.640625 14.109375 51.21875 14.109375 
Q 40.671875 14.109375 34.546875 20.0625 
Q 28.421875 26.03125 28.421875 36.1875 
Q 28.421875 46.390625 34.546875 52.296875 
Q 40.671875 58.203125 51.21875 58.203125 
Q 54.78125 58.203125 58.09375 57.515625 
Q 61.421875 56.84375 64.59375 55.515625 
z
" id="DejaVuSans-169"/>
     <path d="M 53.515625 70.515625 
L 53.515625 60.890625 
Q 47.90625 63.578125 42.921875 64.890625 
Q 37.9375 66.21875 33.296875 66.21875 
Q 25.25 66.21875 20.875 63.09375 
Q 16.5 59.96875 16.5 54.203125 
Q 16.5 49.359375 19.40625 46.890625 
Q 22.3125 44.4375 30.421875 42.921875 
L 36.375 41.703125 
Q 47.40625 39.59375 52.65625 34.296875 
Q 57.90625 29 57.90625 20.125 
Q 57.90625 9.515625 50.796875 4.046875 
Q 43.703125 -1.421875 29.984375 -1.421875 
Q 24.8125 -1.421875 18.96875 -0.25 
Q 13.140625 0.921875 6.890625 3.21875 
L 6.890625 13.375 
Q 12.890625 10.015625 18.65625 8.296875 
Q 24.421875 6.59375 29.984375 6.59375 
Q 38.421875 6.59375 43.015625 9.90625 
Q 47.609375 13.234375 47.609375 19.390625 
Q 47.609375 24.75 44.3125 27.78125 
Q 41.015625 30.8125 33.5 32.328125 
L 27.484375 33.5 
Q 16.453125 35.6875 11.515625 40.375 
Q 6.59375 45.0625 6.59375 53.421875 
Q 6.59375 63.09375 13.40625 68.65625 
Q 20.21875 74.21875 32.171875 74.21875 
Q 37.3125 74.21875 42.625 73.28125 
Q 47.953125 72.359375 53.515625 70.515625 
z
" id="DejaVuSans-83"/>
     <path d="M 2.984375 54.6875 
L 12.5 54.6875 
L 29.59375 8.796875 
L 46.6875 54.6875 
L 56.203125 54.6875 
L 35.6875 0 
L 23.484375 0 
z
" id="DejaVuSans-118"/>
    </defs>
    <g style="opacity:0.3;" transform="translate(325.067893 279.648734)scale(0.1 -0.1)">
     <use xlink:href="#DejaVuSans-169"/>
     <use x="100" xlink:href="#DejaVuSans-32"/>
     <use x="131.787109" xlink:href="#DejaVuSans-83"/>
     <use x="195.263672" xlink:href="#DejaVuSans-99"/>
     <use x="250.244141" xlink:href="#DejaVuSans-111"/>
     <use x="311.425781" xlink:href="#DejaVuSans-116"/>
     <use x="350.634766" xlink:href="#DejaVuSans-116"/>
     <use x="389.84375" xlink:href="#DejaVuSans-32"/>
     <use x="421.630859" xlink:href="#DejaVuSans-83"/>
     <use x="485.107422" xlink:href="#DejaVuSans-105"/>
     <use x="512.890625" xlink:href="#DejaVuSans-101"/>
     <use x="574.414062" xlink:href="#DejaVuSans-118"/>
     <use x="633.59375" xlink:href="#DejaVuSans-101"/>
     <use x="695.117188" xlink:href="#DejaVuSans-114"/>
     <use x="736.230469" xlink:href="#DejaVuSans-116"/>
    </g>
   </g>
   <g id="text_22">
    <!-- State infection rates -->
    <defs>
     <path d="M 37.109375 75.984375 
L 37.109375 68.5 
L 28.515625 68.5 
Q 23.6875 68.5 21.796875 66.546875 
Q 19.921875 64.59375 19.921875 59.515625 
L 19.921875 54.6875 
L 34.71875 54.6875 
L 34.71875 47.703125 
L 19.921875 47.703125 
L 19.921875 0 
L 10.890625 0 
L 10.890625 47.703125 
L 2.296875 47.703125 
L 2.296875 54.6875 
L 10.890625 54.6875 
L 10.890625 58.5 
Q 10.890625 67.625 15.140625 71.796875 
Q 19.390625 75.984375 28.609375 75.984375 
z
" id="DejaVuSans-102"/>
    </defs>
    <g transform="translate(169.194375 16.318125)scale(0.12 -0.12)">
     <use xlink:href="#DejaVuSans-83"/>
     <use x="63.476562" xlink:href="#DejaVuSans-116"/>
     <use x="102.685547" xlink:href="#DejaVuSans-97"/>
     <use x="163.964844" xlink:href="#DejaVuSans-116"/>
     <use x="203.173828" xlink:href="#DejaVuSans-101"/>
     <use x="264.697266" xlink:href="#DejaVuSans-32"/>
     <use x="296.484375" xlink:href="#DejaVuSans-105"/>
     <use x="324.267578" xlink:href="#DejaVuSans-110"/>
     <use x="387.646484" xlink:href="#DejaVuSans-102"/>
     <use x="422.851562" xlink:href="#DejaVuSans-101"/>
     <use x="484.375" xlink:href="#DejaVuSans-99"/>
     <use x="539.355469" xlink:href="#DejaVuSans-116"/>
     <use x="578.564453" xlink:href="#DejaVuSans-105"/>
     <use x="606.347656" xlink:href="#DejaVuSans-111"/>
     <use x="667.529297" xlink:href="#DejaVuSans-110"/>
     <use x="730.908203" xlink:href="#DejaVuSans-32"/>
     <use x="762.695312" xlink:href="#DejaVuSans-114"/>
     <use x="803.808594" xlink:href="#DejaVuSans-97"/>
     <use x="865.087891" xlink:href="#DejaVuSans-116"/>
     <use x="904.296875" xlink:href="#DejaVuSans-101"/>
     <use x="965.820312" xlink:href="#DejaVuSans-115"/>
    </g>
   </g>
   <g id="legend_1">
    <g id="patch_7">
     <path d="M 272.401563 234.758125 
L 390.66875 234.758125 
Q 392.66875 234.758125 392.66875 232.758125 
L 392.66875 145.6675 
Q 392.66875 143.6675 390.66875 143.6675 
L 272.401563 143.6675 
Q 270.401563 143.6675 270.401563 145.6675 
L 270.401563 232.758125 
Q 270.401563 234.758125 272.401563 234.758125 
z
" style="fill:#ffffff;opacity:0.8;stroke:#cccccc;stroke-linejoin:miter;"/>
    </g>
    <g id="text_23">
     <!-- State (cases in 7 days) -->
     <defs>
      <path d="M 31 75.875 
Q 24.46875 64.65625 21.28125 53.65625 
Q 18.109375 42.671875 18.109375 31.390625 
Q 18.109375 20.125 21.3125 9.0625 
Q 24.515625 -2 31 -13.1875 
L 23.1875 -13.1875 
Q 15.875 -1.703125 12.234375 9.375 
Q 8.59375 20.453125 8.59375 31.390625 
Q 8.59375 42.28125 12.203125 53.3125 
Q 15.828125 64.359375 23.1875 75.875 
z
" id="DejaVuSans-40"/>
      <path d="M 8.203125 72.90625 
L 55.078125 72.90625 
L 55.078125 68.703125 
L 28.609375 0 
L 18.3125 0 
L 43.21875 64.59375 
L 8.203125 64.59375 
z
" id="DejaVuSans-55"/>
      <path d="M 45.40625 46.390625 
L 45.40625 75.984375 
L 54.390625 75.984375 
L 54.390625 0 
L 45.40625 0 
L 45.40625 8.203125 
Q 42.578125 3.328125 38.25 0.953125 
Q 33.9375 -1.421875 27.875 -1.421875 
Q 17.96875 -1.421875 11.734375 6.484375 
Q 5.515625 14.40625 5.515625 27.296875 
Q 5.515625 40.1875 11.734375 48.09375 
Q 17.96875 56 27.875 56 
Q 33.9375 56 38.25 53.625 
Q 42.578125 51.265625 45.40625 46.390625 
z
M 14.796875 27.296875 
Q 14.796875 17.390625 18.875 11.75 
Q 22.953125 6.109375 30.078125 6.109375 
Q 37.203125 6.109375 41.296875 11.75 
Q 45.40625 17.390625 45.40625 27.296875 
Q 45.40625 37.203125 41.296875 42.84375 
Q 37.203125 48.484375 30.078125 48.484375 
Q 22.953125 48.484375 18.875 42.84375 
Q 14.796875 37.203125 14.796875 27.296875 
z
" id="DejaVuSans-100"/>
      <path d="M 32.171875 -5.078125 
Q 28.375 -14.84375 24.75 -17.8125 
Q 21.140625 -20.796875 15.09375 -20.796875 
L 7.90625 -20.796875 
L 7.90625 -13.28125 
L 13.1875 -13.28125 
Q 16.890625 -13.28125 18.9375 -11.515625 
Q 21 -9.765625 23.484375 -3.21875 
L 25.09375 0.875 
L 2.984375 54.6875 
L 12.5 54.6875 
L 29.59375 11.921875 
L 46.6875 54.6875 
L 56.203125 54.6875 
z
" id="DejaVuSans-121"/>
      <path d="M 8.015625 75.875 
L 15.828125 75.875 
Q 23.140625 64.359375 26.78125 53.3125 
Q 30.421875 42.28125 30.421875 31.390625 
Q 30.421875 20.453125 26.78125 9.375 
Q 23.140625 -1.703125 15.828125 -13.1875 
L 8.015625 -13.1875 
Q 14.5 -2 17.703125 9.0625 
Q 20.90625 20.125 20.90625 31.390625 
Q 20.90625 42.671875 17.703125 53.65625 
Q 14.5 64.65625 8.015625 75.875 
z
" id="DejaVuSans-41"/>
     </defs>
     <g transform="translate(274.401563 155.265938)scale(0.1 -0.1)">
      <use xlink:href="#DejaVuSans-83"/>
      <use x="63.476562" xlink:href="#DejaVuSans-116"/>
      <use x="102.685547" xlink:href="#DejaVuSans-97"/>
      <use x="163.964844" xlink:href="#DejaVuSans-116"/>
      <use x="203.173828" xlink:href="#DejaVuSans-101"/>
      <use x="264.697266" xlink:href="#DejaVuSans-32"/>
      <use x="296.484375" xlink:href="#DejaVuSans-40"/>
      <use x="335.498047" xlink:href="#DejaVuSans-99"/>
      <use x="390.478516" xlink:href="#DejaVuSans-97"/>
      <use x="451.757812" xlink:href="#DejaVuSans-115"/>
      <use x="503.857422" xlink:href="#DejaVuSans-101"/>
      <use x="565.380859" xlink:href="#DejaVuSans-115"/>
      <use x="617.480469" xlink:href="#DejaVuSans-32"/>
      <use x="649.267578" xlink:href="#DejaVuSans-105"/>
      <use x="677.050781" xlink:href="#DejaVuSans-110"/>
      <use x="740.429688" xlink:href="#DejaVuSans-32"/>
      <use x="772.216797" xlink:href="#DejaVuSans-55"/>
      <use x="835.839844" xlink:href="#DejaVuSans-32"/>
      <use x="867.626953" xlink:href="#DejaVuSans-100"/>
      <use x="931.103516" xlink:href="#DejaVuSans-97"/>
      <use x="992.382812" xlink:href="#DejaVuSans-121"/>
      <use x="1051.5625" xlink:href="#DejaVuSans-115"/>
      <use x="1103.662109" xlink:href="#DejaVuSans-41"/>
     </g>
    </g>
    <g id="line2d_71">
     <path d="M 292.435156 166.444063 
L 312.435156 166.444063 
" style="fill:none;stroke:#1f77b4;stroke-linecap:square;stroke-width:1.5;"/>
    </g>
    <g id="line2d_72">
     <defs>
      <path d="M 0 3 
C 0.795609 3 1.55874 2.683901 2.12132 2.12132 
C 2.683901 1.55874 3 0.795609 3 0 
C 3 -0.795609 2.683901 -1.55874 2.12132 -2.12132 
C 1.55874 -2.683901 0.795609 -3 0 -3 
C -0.795609 -3 -1.55874 -2.683901 -2.12132 -2.12132 
C -2.683901 -1.55874 -3 -0.795609 -3 0 
C -3 0.795609 -2.683901 1.55874 -2.12132 2.12132 
C -1.55874 2.683901 -0.795609 3 0 3 
z
" id="mca46ba990f" style="stroke:#1f77b4;"/>
     </defs>
     <g>
      <use style="fill:#1f77b4;stroke:#1f77b4;" x="302.435156" xlink:href="#mca46ba990f" y="166.444063"/>
     </g>
    </g>
    <g id="text_24">
     <!-- NY (1.3$\times$) -->
     <defs>
      <path d="M 9.8125 72.90625 
L 23.09375 72.90625 
L 55.421875 11.921875 
L 55.421875 72.90625 
L 64.984375 72.90625 
L 64.984375 0 
L 51.703125 0 
L 19.390625 60.984375 
L 19.390625 0 
L 9.8125 0 
z
" id="DejaVuSans-78"/>
      <path d="M -0.203125 72.90625 
L 10.40625 72.90625 
L 30.609375 42.921875 
L 50.6875 72.90625 
L 61.28125 72.90625 
L 35.5 34.71875 
L 35.5 0 
L 25.59375 0 
L 25.59375 34.71875 
z
" id="DejaVuSans-89"/>
      <path d="M 40.578125 39.3125 
Q 47.65625 37.796875 51.625 33 
Q 55.609375 28.21875 55.609375 21.1875 
Q 55.609375 10.40625 48.1875 4.484375 
Q 40.765625 -1.421875 27.09375 -1.421875 
Q 22.515625 -1.421875 17.65625 -0.515625 
Q 12.796875 0.390625 7.625 2.203125 
L 7.625 11.71875 
Q 11.71875 9.328125 16.59375 8.109375 
Q 21.484375 6.890625 26.8125 6.890625 
Q 36.078125 6.890625 40.9375 10.546875 
Q 45.796875 14.203125 45.796875 21.1875 
Q 45.796875 27.640625 41.28125 31.265625 
Q 36.765625 34.90625 28.71875 34.90625 
L 20.21875 34.90625 
L 20.21875 43.015625 
L 29.109375 43.015625 
Q 36.375 43.015625 40.234375 45.921875 
Q 44.09375 48.828125 44.09375 54.296875 
Q 44.09375 59.90625 40.109375 62.90625 
Q 36.140625 65.921875 28.71875 65.921875 
Q 24.65625 65.921875 20.015625 65.03125 
Q 15.375 64.15625 9.8125 62.3125 
L 9.8125 71.09375 
Q 15.4375 72.65625 20.34375 73.4375 
Q 25.25 74.21875 29.59375 74.21875 
Q 40.828125 74.21875 47.359375 69.109375 
Q 53.90625 64.015625 53.90625 55.328125 
Q 53.90625 49.265625 50.4375 45.09375 
Q 46.96875 40.921875 40.578125 39.3125 
z
" id="DejaVuSans-51"/>
      <path d="M 70.125 53.71875 
L 47.796875 31.296875 
L 70.125 8.984375 
L 64.3125 3.078125 
L 41.890625 25.484375 
L 19.484375 3.078125 
L 13.71875 8.984375 
L 35.984375 31.296875 
L 13.71875 53.71875 
L 19.484375 59.625 
L 41.890625 37.203125 
L 64.3125 59.625 
z
" id="DejaVuSans-215"/>
     </defs>
     <g transform="translate(320.435156 169.944063)scale(0.1 -0.1)">
      <use transform="translate(0 0.125)" xlink:href="#DejaVuSans-78"/>
      <use transform="translate(74.804688 0.125)" xlink:href="#DejaVuSans-89"/>
      <use transform="translate(135.888672 0.125)" xlink:href="#DejaVuSans-32"/>
      <use transform="translate(167.675781 0.125)" xlink:href="#DejaVuSans-40"/>
      <use transform="translate(206.689453 0.125)" xlink:href="#DejaVuSans-49"/>
      <use transform="translate(270.3125 0.125)" xlink:href="#DejaVuSans-46"/>
      <use transform="translate(302.099609 0.125)" xlink:href="#DejaVuSans-51"/>
      <use transform="translate(365.722656 0.125)" xlink:href="#DejaVuSans-215"/>
      <use transform="translate(449.511719 0.125)" xlink:href="#DejaVuSans-41"/>
     </g>
    </g>
    <g id="line2d_73">
     <path d="M 292.435156 181.12375 
L 312.435156 181.12375 
" style="fill:none;stroke:#ff7f0e;stroke-linecap:square;stroke-width:1.5;"/>
    </g>
    <g id="line2d_74">
     <defs>
      <path d="M 0 3 
C 0.795609 3 1.55874 2.683901 2.12132 2.12132 
C 2.683901 1.55874 3 0.795609 3 0 
C 3 -0.795609 2.683901 -1.55874 2.12132 -2.12132 
C 1.55874 -2.683901 0.795609 -3 0 -3 
C -0.795609 -3 -1.55874 -2.683901 -2.12132 -2.12132 
C -2.683901 -1.55874 -3 -0.795609 -3 0 
C -3 0.795609 -2.683901 1.55874 -2.12132 2.12132 
C -1.55874 2.683901 -0.795609 3 0 3 
z
" id="mc18947fc5b" style="stroke:#ff7f0e;"/>
     </defs>
     <g>
      <use style="fill:#ff7f0e;stroke:#ff7f0e;" x="302.435156" xlink:href="#mc18947fc5b" y="181.12375"/>
     </g>
    </g>
    <g id="text_25">
     <!-- NJ (1.4$\times$) -->
     <defs>
      <path d="M 9.8125 72.90625 
L 19.671875 72.90625 
L 19.671875 5.078125 
Q 19.671875 -8.109375 14.671875 -14.0625 
Q 9.671875 -20.015625 -1.421875 -20.015625 
L -5.171875 -20.015625 
L -5.171875 -11.71875 
L -2.09375 -11.71875 
Q 4.4375 -11.71875 7.125 -8.046875 
Q 9.8125 -4.390625 9.8125 5.078125 
z
" id="DejaVuSans-74"/>
      <path d="M 37.796875 64.3125 
L 12.890625 25.390625 
L 37.796875 25.390625 
z
M 35.203125 72.90625 
L 47.609375 72.90625 
L 47.609375 25.390625 
L 58.015625 25.390625 
L 58.015625 17.1875 
L 47.609375 17.1875 
L 47.609375 0 
L 37.796875 0 
L 37.796875 17.1875 
L 4.890625 17.1875 
L 4.890625 26.703125 
z
" id="DejaVuSans-52"/>
     </defs>
     <g transform="translate(320.435156 184.62375)scale(0.1 -0.1)">
      <use transform="translate(0 0.125)" xlink:href="#DejaVuSans-78"/>
      <use transform="translate(74.804688 0.125)" xlink:href="#DejaVuSans-74"/>
      <use transform="translate(104.296875 0.125)" xlink:href="#DejaVuSans-32"/>
      <use transform="translate(136.083984 0.125)" xlink:href="#DejaVuSans-40"/>
      <use transform="translate(175.097656 0.125)" xlink:href="#DejaVuSans-49"/>
      <use transform="translate(238.720703 0.125)" xlink:href="#DejaVuSans-46"/>
      <use transform="translate(270.507812 0.125)" xlink:href="#DejaVuSans-52"/>
      <use transform="translate(334.130859 0.125)" xlink:href="#DejaVuSans-215"/>
      <use transform="translate(417.919922 0.125)" xlink:href="#DejaVuSans-41"/>
     </g>
    </g>
    <g id="line2d_75">
     <path d="M 292.435156 195.822188 
L 312.435156 195.822188 
" style="fill:none;stroke:#2ca02c;stroke-linecap:square;stroke-width:1.5;"/>
    </g>
    <g id="line2d_76">
     <defs>
      <path d="M 0 3 
C 0.795609 3 1.55874 2.683901 2.12132 2.12132 
C 2.683901 1.55874 3 0.795609 3 0 
C 3 -0.795609 2.683901 -1.55874 2.12132 -2.12132 
C 1.55874 -2.683901 0.795609 -3 0 -3 
C -0.795609 -3 -1.55874 -2.683901 -2.12132 -2.12132 
C -2.683901 -1.55874 -3 -0.795609 -3 0 
C -3 0.795609 -2.683901 1.55874 -2.12132 2.12132 
C -1.55874 2.683901 -0.795609 3 0 3 
z
" id="mf8ca4c5d15" style="stroke:#2ca02c;"/>
     </defs>
     <g>
      <use style="fill:#2ca02c;stroke:#2ca02c;" x="302.435156" xlink:href="#mf8ca4c5d15" y="195.822188"/>
     </g>
    </g>
    <g id="text_26">
     <!-- CO (1.4$\times$) -->
     <defs>
      <path d="M 64.40625 67.28125 
L 64.40625 56.890625 
Q 59.421875 61.53125 53.78125 63.8125 
Q 48.140625 66.109375 41.796875 66.109375 
Q 29.296875 66.109375 22.65625 58.46875 
Q 16.015625 50.828125 16.015625 36.375 
Q 16.015625 21.96875 22.65625 14.328125 
Q 29.296875 6.6875 41.796875 6.6875 
Q 48.140625 6.6875 53.78125 8.984375 
Q 59.421875 11.28125 64.40625 15.921875 
L 64.40625 5.609375 
Q 59.234375 2.09375 53.4375 0.328125 
Q 47.65625 -1.421875 41.21875 -1.421875 
Q 24.65625 -1.421875 15.125 8.703125 
Q 5.609375 18.84375 5.609375 36.375 
Q 5.609375 53.953125 15.125 64.078125 
Q 24.65625 74.21875 41.21875 74.21875 
Q 47.75 74.21875 53.53125 72.484375 
Q 59.328125 70.75 64.40625 67.28125 
z
" id="DejaVuSans-67"/>
      <path d="M 39.40625 66.21875 
Q 28.65625 66.21875 22.328125 58.203125 
Q 16.015625 50.203125 16.015625 36.375 
Q 16.015625 22.609375 22.328125 14.59375 
Q 28.65625 6.59375 39.40625 6.59375 
Q 50.140625 6.59375 56.421875 14.59375 
Q 62.703125 22.609375 62.703125 36.375 
Q 62.703125 50.203125 56.421875 58.203125 
Q 50.140625 66.21875 39.40625 66.21875 
z
M 39.40625 74.21875 
Q 54.734375 74.21875 63.90625 63.9375 
Q 73.09375 53.65625 73.09375 36.375 
Q 73.09375 19.140625 63.90625 8.859375 
Q 54.734375 -1.421875 39.40625 -1.421875 
Q 24.03125 -1.421875 14.8125 8.828125 
Q 5.609375 19.09375 5.609375 36.375 
Q 5.609375 53.65625 14.8125 63.9375 
Q 24.03125 74.21875 39.40625 74.21875 
z
" id="DejaVuSans-79"/>
     </defs>
     <g transform="translate(320.435156 199.322188)scale(0.1 -0.1)">
      <use transform="translate(0 0.125)" xlink:href="#DejaVuSans-67"/>
      <use transform="translate(69.824219 0.125)" xlink:href="#DejaVuSans-79"/>
      <use transform="translate(148.535156 0.125)" xlink:href="#DejaVuSans-32"/>
      <use transform="translate(180.322266 0.125)" xlink:href="#DejaVuSans-40"/>
      <use transform="translate(219.335938 0.125)" xlink:href="#DejaVuSans-49"/>
      <use transform="translate(282.958984 0.125)" xlink:href="#DejaVuSans-46"/>
      <use transform="translate(314.746094 0.125)" xlink:href="#DejaVuSans-52"/>
      <use transform="translate(378.369141 0.125)" xlink:href="#DejaVuSans-215"/>
      <use transform="translate(462.158203 0.125)" xlink:href="#DejaVuSans-41"/>
     </g>
    </g>
    <g id="line2d_77">
     <path d="M 292.435156 210.500313 
L 312.435156 210.500313 
" style="fill:none;stroke:#d62728;stroke-linecap:square;stroke-width:1.5;"/>
    </g>
    <g id="line2d_78">
     <defs>
      <path d="M 0 3 
C 0.795609 3 1.55874 2.683901 2.12132 2.12132 
C 2.683901 1.55874 3 0.795609 3 0 
C 3 -0.795609 2.683901 -1.55874 2.12132 -2.12132 
C 1.55874 -2.683901 0.795609 -3 0 -3 
C -0.795609 -3 -1.55874 -2.683901 -2.12132 -2.12132 
C -2.683901 -1.55874 -3 -0.795609 -3 0 
C -3 0.795609 -2.683901 1.55874 -2.12132 2.12132 
C -1.55874 2.683901 -0.795609 3 0 3 
z
" id="m0cffc56bf3" style="stroke:#d62728;"/>
     </defs>
     <g>
      <use style="fill:#d62728;stroke:#d62728;" x="302.435156" xlink:href="#m0cffc56bf3" y="210.500313"/>
     </g>
    </g>
    <g id="text_27">
     <!-- FL (1.3$\times$) -->
     <defs>
      <path d="M 9.8125 72.90625 
L 51.703125 72.90625 
L 51.703125 64.59375 
L 19.671875 64.59375 
L 19.671875 43.109375 
L 48.578125 43.109375 
L 48.578125 34.8125 
L 19.671875 34.8125 
L 19.671875 0 
L 9.8125 0 
z
" id="DejaVuSans-70"/>
      <path d="M 9.8125 72.90625 
L 19.671875 72.90625 
L 19.671875 8.296875 
L 55.171875 8.296875 
L 55.171875 0 
L 9.8125 0 
z
" id="DejaVuSans-76"/>
     </defs>
     <g transform="translate(320.435156 214.000313)scale(0.1 -0.1)">
      <use transform="translate(0 0.125)" xlink:href="#DejaVuSans-70"/>
      <use transform="translate(57.519531 0.125)" xlink:href="#DejaVuSans-76"/>
      <use transform="translate(113.232422 0.125)" xlink:href="#DejaVuSans-32"/>
      <use transform="translate(145.019531 0.125)" xlink:href="#DejaVuSans-40"/>
      <use transform="translate(184.033203 0.125)" xlink:href="#DejaVuSans-49"/>
      <use transform="translate(247.65625 0.125)" xlink:href="#DejaVuSans-46"/>
      <use transform="translate(279.443359 0.125)" xlink:href="#DejaVuSans-51"/>
      <use transform="translate(343.066406 0.125)" xlink:href="#DejaVuSans-215"/>
      <use transform="translate(426.855469 0.125)" xlink:href="#DejaVuSans-41"/>
     </g>
    </g>
    <g id="line2d_79">
     <path d="M 292.435156 225.178438 
L 312.435156 225.178438 
" style="fill:none;stroke:#9467bd;stroke-linecap:square;stroke-width:1.5;"/>
    </g>
    <g id="line2d_80">
     <defs>
      <path d="M 0 3 
C 0.795609 3 1.55874 2.683901 2.12132 2.12132 
C 2.683901 1.55874 3 0.795609 3 0 
C 3 -0.795609 2.683901 -1.55874 2.12132 -2.12132 
C 1.55874 -2.683901 0.795609 -3 0 -3 
C -0.795609 -3 -1.55874 -2.683901 -2.12132 -2.12132 
C -2.683901 -1.55874 -3 -0.795609 -3 0 
C -3 0.795609 -2.683901 1.55874 -2.12132 2.12132 
C -1.55874 2.683901 -0.795609 3 0 3 
z
" id="m76673136a2" style="stroke:#9467bd;"/>
     </defs>
     <g>
      <use style="fill:#9467bd;stroke:#9467bd;" x="302.435156" xlink:href="#m76673136a2" y="225.178438"/>
     </g>
    </g>
    <g id="text_28">
     <!-- IA (1.6$\times$) -->
     <defs>
      <path d="M 9.8125 72.90625 
L 19.671875 72.90625 
L 19.671875 0 
L 9.8125 0 
z
" id="DejaVuSans-73"/>
      <path d="M 33.015625 40.375 
Q 26.375 40.375 22.484375 35.828125 
Q 18.609375 31.296875 18.609375 23.390625 
Q 18.609375 15.53125 22.484375 10.953125 
Q 26.375 6.390625 33.015625 6.390625 
Q 39.65625 6.390625 43.53125 10.953125 
Q 47.40625 15.53125 47.40625 23.390625 
Q 47.40625 31.296875 43.53125 35.828125 
Q 39.65625 40.375 33.015625 40.375 
z
M 52.59375 71.296875 
L 52.59375 62.3125 
Q 48.875 64.0625 45.09375 64.984375 
Q 41.3125 65.921875 37.59375 65.921875 
Q 27.828125 65.921875 22.671875 59.328125 
Q 17.53125 52.734375 16.796875 39.40625 
Q 19.671875 43.65625 24.015625 45.921875 
Q 28.375 48.1875 33.59375 48.1875 
Q 44.578125 48.1875 50.953125 41.515625 
Q 57.328125 34.859375 57.328125 23.390625 
Q 57.328125 12.15625 50.6875 5.359375 
Q 44.046875 -1.421875 33.015625 -1.421875 
Q 20.359375 -1.421875 13.671875 8.265625 
Q 6.984375 17.96875 6.984375 36.375 
Q 6.984375 53.65625 15.1875 63.9375 
Q 23.390625 74.21875 37.203125 74.21875 
Q 40.921875 74.21875 44.703125 73.484375 
Q 48.484375 72.75 52.59375 71.296875 
z
" id="DejaVuSans-54"/>
     </defs>
     <g transform="translate(320.435156 228.678438)scale(0.1 -0.1)">
      <use transform="translate(0 0.125)" xlink:href="#DejaVuSans-73"/>
      <use transform="translate(29.492188 0.125)" xlink:href="#DejaVuSans-65"/>
      <use transform="translate(97.900391 0.125)" xlink:href="#DejaVuSans-32"/>
      <use transform="translate(129.6875 0.125)" xlink:href="#DejaVuSans-40"/>
      <use transform="translate(168.701172 0.125)" xlink:href="#DejaVuSans-49"/>
      <use transform="translate(232.324219 0.125)" xlink:href="#DejaVuSans-46"/>
      <use transform="translate(264.111328 0.125)" xlink:href="#DejaVuSans-54"/>
      <use transform="translate(327.734375 0.125)" xlink:href="#DejaVuSans-215"/>
      <use transform="translate(411.523438 0.125)" xlink:href="#DejaVuSans-41"/>
     </g>
    </g>
   </g>
   <g id="line2d_81">
    <path clip-path="url(#p5f673968d3)" d="M 17.2223 289.928422 
L 22.53494 266.321068 
L 30.601702 251.746311 
L 38.668464 237.171554 
L 46.735226 222.359201 
L 54.801988 218.683637 
L 62.86875 212.535616 
L 70.935512 208.383543 
L 79.002274 203.618719 
L 87.069036 195.060758 
L 95.135798 189.683427 
L 103.20256 181.886092 
L 111.269321 178.052429 
L 119.336083 172.571098 
L 127.402845 164.811751 
L 135.469607 153.242434 
L 143.536369 141.558827 
L 151.603131 130.271859 
L 159.669893 122.34072 
L 167.736655 114.316383 
L 175.803417 107.601132 
L 183.870179 103.257474 
L 191.936941 97.929726 
L 200.003703 94.466113 
L 208.070464 91.621379 
L 216.137226 87.865984 
L 224.203988 85.553003 
L 232.27075 83.026244 
L 240.337512 80.477063 
L 248.404274 78.353887 
L 256.471036 76.237972 
L 264.537798 74.064991 
L 272.60456 71.721933 
L 280.671322 70.322314 
L 288.738084 69.029851 
L 296.804846 67.572826 
L 304.871607 66.218416 
L 312.938369 64.785514 
L 321.005131 63.43925 
L 329.071893 62.247183 
L 337.138655 61.308781 
L 345.205417 60.614223 
L 353.272179 59.854344 
L 361.338941 58.684281 
" style="fill:none;stroke:#1f77b4;stroke-linecap:square;stroke-width:1.5;"/>
    <g clip-path="url(#p5f673968d3)">
     <use style="fill:#1f77b4;stroke:#1f77b4;" x="-1" xlink:href="#mca46ba990f" y="316.741444"/>
     <use style="fill:#1f77b4;stroke:#1f77b4;" x="6.401417" xlink:href="#mca46ba990f" y="316.741444"/>
     <use style="fill:#1f77b4;stroke:#1f77b4;" x="14.468179" xlink:href="#mca46ba990f" y="302.166687"/>
     <use style="fill:#1f77b4;stroke:#1f77b4;" x="22.53494" xlink:href="#mca46ba990f" y="266.321068"/>
     <use style="fill:#1f77b4;stroke:#1f77b4;" x="30.601702" xlink:href="#mca46ba990f" y="251.746311"/>
     <use style="fill:#1f77b4;stroke:#1f77b4;" x="38.668464" xlink:href="#mca46ba990f" y="237.171554"/>
     <use style="fill:#1f77b4;stroke:#1f77b4;" x="46.735226" xlink:href="#mca46ba990f" y="222.359201"/>
     <use style="fill:#1f77b4;stroke:#1f77b4;" x="54.801988" xlink:href="#mca46ba990f" y="218.683637"/>
     <use style="fill:#1f77b4;stroke:#1f77b4;" x="62.86875" xlink:href="#mca46ba990f" y="212.535616"/>
     <use style="fill:#1f77b4;stroke:#1f77b4;" x="70.935512" xlink:href="#mca46ba990f" y="208.383543"/>
     <use style="fill:#1f77b4;stroke:#1f77b4;" x="79.002274" xlink:href="#mca46ba990f" y="203.618719"/>
     <use style="fill:#1f77b4;stroke:#1f77b4;" x="87.069036" xlink:href="#mca46ba990f" y="195.060758"/>
     <use style="fill:#1f77b4;stroke:#1f77b4;" x="95.135798" xlink:href="#mca46ba990f" y="189.683427"/>
     <use style="fill:#1f77b4;stroke:#1f77b4;" x="103.20256" xlink:href="#mca46ba990f" y="181.886092"/>
     <use style="fill:#1f77b4;stroke:#1f77b4;" x="111.269321" xlink:href="#mca46ba990f" y="178.052429"/>
     <use style="fill:#1f77b4;stroke:#1f77b4;" x="119.336083" xlink:href="#mca46ba990f" y="172.571098"/>
     <use style="fill:#1f77b4;stroke:#1f77b4;" x="127.402845" xlink:href="#mca46ba990f" y="164.811751"/>
     <use style="fill:#1f77b4;stroke:#1f77b4;" x="135.469607" xlink:href="#mca46ba990f" y="153.242434"/>
     <use style="fill:#1f77b4;stroke:#1f77b4;" x="143.536369" xlink:href="#mca46ba990f" y="141.558827"/>
     <use style="fill:#1f77b4;stroke:#1f77b4;" x="151.603131" xlink:href="#mca46ba990f" y="130.271859"/>
     <use style="fill:#1f77b4;stroke:#1f77b4;" x="159.669893" xlink:href="#mca46ba990f" y="122.34072"/>
     <use style="fill:#1f77b4;stroke:#1f77b4;" x="167.736655" xlink:href="#mca46ba990f" y="114.316383"/>
     <use style="fill:#1f77b4;stroke:#1f77b4;" x="175.803417" xlink:href="#mca46ba990f" y="107.601132"/>
     <use style="fill:#1f77b4;stroke:#1f77b4;" x="183.870179" xlink:href="#mca46ba990f" y="103.257474"/>
     <use style="fill:#1f77b4;stroke:#1f77b4;" x="191.936941" xlink:href="#mca46ba990f" y="97.929726"/>
     <use style="fill:#1f77b4;stroke:#1f77b4;" x="200.003703" xlink:href="#mca46ba990f" y="94.466113"/>
     <use style="fill:#1f77b4;stroke:#1f77b4;" x="208.070464" xlink:href="#mca46ba990f" y="91.621379"/>
     <use style="fill:#1f77b4;stroke:#1f77b4;" x="216.137226" xlink:href="#mca46ba990f" y="87.865984"/>
     <use style="fill:#1f77b4;stroke:#1f77b4;" x="224.203988" xlink:href="#mca46ba990f" y="85.553003"/>
     <use style="fill:#1f77b4;stroke:#1f77b4;" x="232.27075" xlink:href="#mca46ba990f" y="83.026244"/>
     <use style="fill:#1f77b4;stroke:#1f77b4;" x="240.337512" xlink:href="#mca46ba990f" y="80.477063"/>
     <use style="fill:#1f77b4;stroke:#1f77b4;" x="248.404274" xlink:href="#mca46ba990f" y="78.353887"/>
     <use style="fill:#1f77b4;stroke:#1f77b4;" x="256.471036" xlink:href="#mca46ba990f" y="76.237972"/>
     <use style="fill:#1f77b4;stroke:#1f77b4;" x="264.537798" xlink:href="#mca46ba990f" y="74.064991"/>
     <use style="fill:#1f77b4;stroke:#1f77b4;" x="272.60456" xlink:href="#mca46ba990f" y="71.721933"/>
     <use style="fill:#1f77b4;stroke:#1f77b4;" x="280.671322" xlink:href="#mca46ba990f" y="70.322314"/>
     <use style="fill:#1f77b4;stroke:#1f77b4;" x="288.738084" xlink:href="#mca46ba990f" y="69.029851"/>
     <use style="fill:#1f77b4;stroke:#1f77b4;" x="296.804846" xlink:href="#mca46ba990f" y="67.572826"/>
     <use style="fill:#1f77b4;stroke:#1f77b4;" x="304.871607" xlink:href="#mca46ba990f" y="66.218416"/>
     <use style="fill:#1f77b4;stroke:#1f77b4;" x="312.938369" xlink:href="#mca46ba990f" y="64.785514"/>
     <use style="fill:#1f77b4;stroke:#1f77b4;" x="321.005131" xlink:href="#mca46ba990f" y="63.43925"/>
     <use style="fill:#1f77b4;stroke:#1f77b4;" x="329.071893" xlink:href="#mca46ba990f" y="62.247183"/>
     <use style="fill:#1f77b4;stroke:#1f77b4;" x="337.138655" xlink:href="#mca46ba990f" y="61.308781"/>
     <use style="fill:#1f77b4;stroke:#1f77b4;" x="345.205417" xlink:href="#mca46ba990f" y="60.614223"/>
     <use style="fill:#1f77b4;stroke:#1f77b4;" x="353.272179" xlink:href="#mca46ba990f" y="59.854344"/>
     <use style="fill:#1f77b4;stroke:#1f77b4;" x="361.338941" xlink:href="#mca46ba990f" y="58.684281"/>
    </g>
   </g>
   <g id="line2d_82">
    <path clip-path="url(#p5f673968d3)" d="M 28.251388 289.928422 
L 30.601702 285.681953 
L 38.668464 271.107195 
L 46.735226 271.107195 
L 54.801988 262.581509 
L 62.86875 249.836334 
L 70.935512 243.314728 
L 79.002274 234.326892 
L 87.069036 229.452816 
L 95.135798 217.998876 
L 103.20256 209.473189 
L 111.269321 203.84892 
L 119.336083 191.537305 
L 127.402845 182.695418 
L 135.469607 172.901136 
L 143.536369 161.481695 
L 151.603131 157.316893 
L 159.669893 148.91674 
L 167.736655 141.357239 
L 175.803417 133.030234 
L 183.870179 127.640157 
L 191.936941 123.844673 
L 200.003703 114.467122 
L 208.070464 109.21982 
L 216.137226 104.351742 
L 224.203988 100.459564 
L 232.27075 95.889158 
L 240.337512 93.434462 
L 248.404274 89.77037 
L 256.471036 86.834276 
L 264.537798 83.564807 
L 272.60456 80.78274 
L 280.671322 78.796257 
L 288.738084 76.876697 
L 296.804846 75.240066 
L 304.871607 73.856437 
L 312.938369 72.322472 
L 321.005131 70.904013 
L 329.071893 69.574501 
L 337.138655 68.277791 
L 345.205417 67.368279 
L 353.272179 66.031265 
L 361.338941 65.367869 
" style="fill:none;stroke:#ff7f0e;stroke-linecap:square;stroke-width:1.5;"/>
    <g clip-path="url(#p5f673968d3)">
     <use style="fill:#ff7f0e;stroke:#ff7f0e;" x="22.53494" xlink:href="#mc18947fc5b" y="300.25671"/>
     <use style="fill:#ff7f0e;stroke:#ff7f0e;" x="30.601702" xlink:href="#mc18947fc5b" y="285.681953"/>
     <use style="fill:#ff7f0e;stroke:#ff7f0e;" x="38.668464" xlink:href="#mc18947fc5b" y="271.107195"/>
     <use style="fill:#ff7f0e;stroke:#ff7f0e;" x="46.735226" xlink:href="#mc18947fc5b" y="271.107195"/>
     <use style="fill:#ff7f0e;stroke:#ff7f0e;" x="54.801988" xlink:href="#mc18947fc5b" y="262.581509"/>
     <use style="fill:#ff7f0e;stroke:#ff7f0e;" x="62.86875" xlink:href="#mc18947fc5b" y="249.836334"/>
     <use style="fill:#ff7f0e;stroke:#ff7f0e;" x="70.935512" xlink:href="#mc18947fc5b" y="243.314728"/>
     <use style="fill:#ff7f0e;stroke:#ff7f0e;" x="79.002274" xlink:href="#mc18947fc5b" y="234.326892"/>
     <use style="fill:#ff7f0e;stroke:#ff7f0e;" x="87.069036" xlink:href="#mc18947fc5b" y="229.452816"/>
     <use style="fill:#ff7f0e;stroke:#ff7f0e;" x="95.135798" xlink:href="#mc18947fc5b" y="217.998876"/>
     <use style="fill:#ff7f0e;stroke:#ff7f0e;" x="103.20256" xlink:href="#mc18947fc5b" y="209.473189"/>
     <use style="fill:#ff7f0e;stroke:#ff7f0e;" x="111.269321" xlink:href="#mc18947fc5b" y="203.84892"/>
     <use style="fill:#ff7f0e;stroke:#ff7f0e;" x="119.336083" xlink:href="#mc18947fc5b" y="191.537305"/>
     <use style="fill:#ff7f0e;stroke:#ff7f0e;" x="127.402845" xlink:href="#mc18947fc5b" y="182.695418"/>
     <use style="fill:#ff7f0e;stroke:#ff7f0e;" x="135.469607" xlink:href="#mc18947fc5b" y="172.901136"/>
     <use style="fill:#ff7f0e;stroke:#ff7f0e;" x="143.536369" xlink:href="#mc18947fc5b" y="161.481695"/>
     <use style="fill:#ff7f0e;stroke:#ff7f0e;" x="151.603131" xlink:href="#mc18947fc5b" y="157.316893"/>
     <use style="fill:#ff7f0e;stroke:#ff7f0e;" x="159.669893" xlink:href="#mc18947fc5b" y="148.91674"/>
     <use style="fill:#ff7f0e;stroke:#ff7f0e;" x="167.736655" xlink:href="#mc18947fc5b" y="141.357239"/>
     <use style="fill:#ff7f0e;stroke:#ff7f0e;" x="175.803417" xlink:href="#mc18947fc5b" y="133.030234"/>
     <use style="fill:#ff7f0e;stroke:#ff7f0e;" x="183.870179" xlink:href="#mc18947fc5b" y="127.640157"/>
     <use style="fill:#ff7f0e;stroke:#ff7f0e;" x="191.936941" xlink:href="#mc18947fc5b" y="123.844673"/>
     <use style="fill:#ff7f0e;stroke:#ff7f0e;" x="200.003703" xlink:href="#mc18947fc5b" y="114.467122"/>
     <use style="fill:#ff7f0e;stroke:#ff7f0e;" x="208.070464" xlink:href="#mc18947fc5b" y="109.21982"/>
     <use style="fill:#ff7f0e;stroke:#ff7f0e;" x="216.137226" xlink:href="#mc18947fc5b" y="104.351742"/>
     <use style="fill:#ff7f0e;stroke:#ff7f0e;" x="224.203988" xlink:href="#mc18947fc5b" y="100.459564"/>
     <use style="fill:#ff7f0e;stroke:#ff7f0e;" x="232.27075" xlink:href="#mc18947fc5b" y="95.889158"/>
     <use style="fill:#ff7f0e;stroke:#ff7f0e;" x="240.337512" xlink:href="#mc18947fc5b" y="93.434462"/>
     <use style="fill:#ff7f0e;stroke:#ff7f0e;" x="248.404274" xlink:href="#mc18947fc5b" y="89.77037"/>
     <use style="fill:#ff7f0e;stroke:#ff7f0e;" x="256.471036" xlink:href="#mc18947fc5b" y="86.834276"/>
     <use style="fill:#ff7f0e;stroke:#ff7f0e;" x="264.537798" xlink:href="#mc18947fc5b" y="83.564807"/>
     <use style="fill:#ff7f0e;stroke:#ff7f0e;" x="272.60456" xlink:href="#mc18947fc5b" y="80.78274"/>
     <use style="fill:#ff7f0e;stroke:#ff7f0e;" x="280.671322" xlink:href="#mc18947fc5b" y="78.796257"/>
     <use style="fill:#ff7f0e;stroke:#ff7f0e;" x="288.738084" xlink:href="#mc18947fc5b" y="76.876697"/>
     <use style="fill:#ff7f0e;stroke:#ff7f0e;" x="296.804846" xlink:href="#mc18947fc5b" y="75.240066"/>
     <use style="fill:#ff7f0e;stroke:#ff7f0e;" x="304.871607" xlink:href="#mc18947fc5b" y="73.856437"/>
     <use style="fill:#ff7f0e;stroke:#ff7f0e;" x="312.938369" xlink:href="#mc18947fc5b" y="72.322472"/>
     <use style="fill:#ff7f0e;stroke:#ff7f0e;" x="321.005131" xlink:href="#mc18947fc5b" y="70.904013"/>
     <use style="fill:#ff7f0e;stroke:#ff7f0e;" x="329.071893" xlink:href="#mc18947fc5b" y="69.574501"/>
     <use style="fill:#ff7f0e;stroke:#ff7f0e;" x="337.138655" xlink:href="#mc18947fc5b" y="68.277791"/>
     <use style="fill:#ff7f0e;stroke:#ff7f0e;" x="345.205417" xlink:href="#mc18947fc5b" y="67.368279"/>
     <use style="fill:#ff7f0e;stroke:#ff7f0e;" x="353.272179" xlink:href="#mc18947fc5b" y="66.031265"/>
     <use style="fill:#ff7f0e;stroke:#ff7f0e;" x="361.338941" xlink:href="#mc18947fc5b" y="65.367869"/>
    </g>
   </g>
   <g id="line2d_83">
    <path clip-path="url(#p5f673968d3)" d="M 30.601702 276.57035 
L 38.668464 247.420835 
L 46.735226 247.420835 
L 54.801988 247.420835 
L 62.86875 238.895149 
L 70.935512 231.571329 
L 79.002274 216.996571 
L 87.069036 209.312074 
L 95.135798 199.536896 
L 103.20256 193.690985 
L 111.269321 187.847057 
L 119.336083 184.298773 
L 127.402845 181.605607 
L 135.469607 178.119504 
L 143.536369 172.813512 
L 151.603131 167.146066 
L 159.669893 161.549518 
L 167.736655 156.955109 
L 175.803417 152.774469 
L 183.870179 147.833122 
L 191.936941 144.161473 
L 200.003703 138.346037 
L 208.070464 134.310226 
L 216.137226 130.689728 
L 224.203988 128.246012 
L 232.27075 125.579515 
L 240.337512 122.865984 
L 248.404274 120.500618 
L 256.471036 118.227474 
L 264.537798 115.811108 
L 272.60456 113.927127 
L 280.671322 112.26601 
L 288.738084 111.343519 
L 296.804846 110.323808 
L 304.871607 109.466221 
L 312.938369 107.524769 
L 321.005131 106.505643 
L 329.071893 105.303598 
L 337.138655 104.088686 
L 345.205417 103.000215 
L 353.272179 102.327597 
L 361.338941 101.448592 
" style="fill:none;stroke:#2ca02c;stroke-linecap:square;stroke-width:1.5;"/>
    <g clip-path="url(#p5f673968d3)">
     <use style="fill:#2ca02c;stroke:#2ca02c;" x="30.601702" xlink:href="#mf8ca4c5d15" y="276.57035"/>
     <use style="fill:#2ca02c;stroke:#2ca02c;" x="38.668464" xlink:href="#mf8ca4c5d15" y="247.420835"/>
     <use style="fill:#2ca02c;stroke:#2ca02c;" x="46.735226" xlink:href="#mf8ca4c5d15" y="247.420835"/>
     <use style="fill:#2ca02c;stroke:#2ca02c;" x="54.801988" xlink:href="#mf8ca4c5d15" y="247.420835"/>
     <use style="fill:#2ca02c;stroke:#2ca02c;" x="62.86875" xlink:href="#mf8ca4c5d15" y="238.895149"/>
     <use style="fill:#2ca02c;stroke:#2ca02c;" x="70.935512" xlink:href="#mf8ca4c5d15" y="231.571329"/>
     <use style="fill:#2ca02c;stroke:#2ca02c;" x="79.002274" xlink:href="#mf8ca4c5d15" y="216.996571"/>
     <use style="fill:#2ca02c;stroke:#2ca02c;" x="87.069036" xlink:href="#mf8ca4c5d15" y="209.312074"/>
     <use style="fill:#2ca02c;stroke:#2ca02c;" x="95.135798" xlink:href="#mf8ca4c5d15" y="199.536896"/>
     <use style="fill:#2ca02c;stroke:#2ca02c;" x="103.20256" xlink:href="#mf8ca4c5d15" y="193.690985"/>
     <use style="fill:#2ca02c;stroke:#2ca02c;" x="111.269321" xlink:href="#mf8ca4c5d15" y="187.847057"/>
     <use style="fill:#2ca02c;stroke:#2ca02c;" x="119.336083" xlink:href="#mf8ca4c5d15" y="184.298773"/>
     <use style="fill:#2ca02c;stroke:#2ca02c;" x="127.402845" xlink:href="#mf8ca4c5d15" y="181.605607"/>
     <use style="fill:#2ca02c;stroke:#2ca02c;" x="135.469607" xlink:href="#mf8ca4c5d15" y="178.119504"/>
     <use style="fill:#2ca02c;stroke:#2ca02c;" x="143.536369" xlink:href="#mf8ca4c5d15" y="172.813512"/>
     <use style="fill:#2ca02c;stroke:#2ca02c;" x="151.603131" xlink:href="#mf8ca4c5d15" y="167.146066"/>
     <use style="fill:#2ca02c;stroke:#2ca02c;" x="159.669893" xlink:href="#mf8ca4c5d15" y="161.549518"/>
     <use style="fill:#2ca02c;stroke:#2ca02c;" x="167.736655" xlink:href="#mf8ca4c5d15" y="156.955109"/>
     <use style="fill:#2ca02c;stroke:#2ca02c;" x="175.803417" xlink:href="#mf8ca4c5d15" y="152.774469"/>
     <use style="fill:#2ca02c;stroke:#2ca02c;" x="183.870179" xlink:href="#mf8ca4c5d15" y="147.833122"/>
     <use style="fill:#2ca02c;stroke:#2ca02c;" x="191.936941" xlink:href="#mf8ca4c5d15" y="144.161473"/>
     <use style="fill:#2ca02c;stroke:#2ca02c;" x="200.003703" xlink:href="#mf8ca4c5d15" y="138.346037"/>
     <use style="fill:#2ca02c;stroke:#2ca02c;" x="208.070464" xlink:href="#mf8ca4c5d15" y="134.310226"/>
     <use style="fill:#2ca02c;stroke:#2ca02c;" x="216.137226" xlink:href="#mf8ca4c5d15" y="130.689728"/>
     <use style="fill:#2ca02c;stroke:#2ca02c;" x="224.203988" xlink:href="#mf8ca4c5d15" y="128.246012"/>
     <use style="fill:#2ca02c;stroke:#2ca02c;" x="232.27075" xlink:href="#mf8ca4c5d15" y="125.579515"/>
     <use style="fill:#2ca02c;stroke:#2ca02c;" x="240.337512" xlink:href="#mf8ca4c5d15" y="122.865984"/>
     <use style="fill:#2ca02c;stroke:#2ca02c;" x="248.404274" xlink:href="#mf8ca4c5d15" y="120.500618"/>
     <use style="fill:#2ca02c;stroke:#2ca02c;" x="256.471036" xlink:href="#mf8ca4c5d15" y="118.227474"/>
     <use style="fill:#2ca02c;stroke:#2ca02c;" x="264.537798" xlink:href="#mf8ca4c5d15" y="115.811108"/>
     <use style="fill:#2ca02c;stroke:#2ca02c;" x="272.60456" xlink:href="#mf8ca4c5d15" y="113.927127"/>
     <use style="fill:#2ca02c;stroke:#2ca02c;" x="280.671322" xlink:href="#mf8ca4c5d15" y="112.26601"/>
     <use style="fill:#2ca02c;stroke:#2ca02c;" x="288.738084" xlink:href="#mf8ca4c5d15" y="111.343519"/>
     <use style="fill:#2ca02c;stroke:#2ca02c;" x="296.804846" xlink:href="#mf8ca4c5d15" y="110.323808"/>
     <use style="fill:#2ca02c;stroke:#2ca02c;" x="304.871607" xlink:href="#mf8ca4c5d15" y="109.466221"/>
     <use style="fill:#2ca02c;stroke:#2ca02c;" x="312.938369" xlink:href="#mf8ca4c5d15" y="107.524769"/>
     <use style="fill:#2ca02c;stroke:#2ca02c;" x="321.005131" xlink:href="#mf8ca4c5d15" y="106.505643"/>
     <use style="fill:#2ca02c;stroke:#2ca02c;" x="329.071893" xlink:href="#mf8ca4c5d15" y="105.303598"/>
     <use style="fill:#2ca02c;stroke:#2ca02c;" x="337.138655" xlink:href="#mf8ca4c5d15" y="104.088686"/>
     <use style="fill:#2ca02c;stroke:#2ca02c;" x="345.205417" xlink:href="#mf8ca4c5d15" y="103.000215"/>
     <use style="fill:#2ca02c;stroke:#2ca02c;" x="353.272179" xlink:href="#mf8ca4c5d15" y="102.327597"/>
     <use style="fill:#2ca02c;stroke:#2ca02c;" x="361.338941" xlink:href="#mf8ca4c5d15" y="101.448592"/>
    </g>
   </g>
   <g id="line2d_84">
    <path clip-path="url(#p5f673968d3)" d="M 30.261507 289.928422 
L 30.601702 289.673318 
L 38.668464 277.906316 
L 46.735226 266.572874 
L 54.801988 264.889822 
L 62.86875 263.331558 
L 70.935512 252.893015 
L 79.002274 250.315064 
L 87.069036 238.318257 
L 95.135798 229.49002 
L 103.20256 229.49002 
L 111.269321 220.178189 
L 119.336083 214.765604 
L 127.402845 206.389576 
L 135.469607 197.142146 
L 143.536369 191.12535 
L 151.603131 185.61609 
L 159.669893 179.234132 
L 167.736655 173.573945 
L 175.803417 169.35828 
L 183.870179 165.516016 
L 191.936941 159.370417 
L 200.003703 154.501508 
L 208.070464 149.129601 
L 216.137226 144.225618 
L 224.203988 139.977745 
L 232.27075 136.99943 
L 240.337512 133.450184 
L 248.404274 130.476593 
L 256.471036 127.373058 
L 264.537798 124.617936 
L 272.60456 122.151342 
L 280.671322 120.733101 
L 288.738084 118.659748 
L 296.804846 117.001053 
L 304.871607 115.686312 
L 312.938369 114.225242 
L 321.005131 112.845079 
L 329.071893 111.685794 
L 337.138655 110.735893 
L 345.205417 109.545974 
L 353.272179 108.945178 
L 361.338941 108.081993 
" style="fill:none;stroke:#d62728;stroke-linecap:square;stroke-width:1.5;"/>
    <g clip-path="url(#p5f673968d3)">
     <use style="fill:#d62728;stroke:#d62728;" x="-1" xlink:href="#m0cffc56bf3" y="304.248075"/>
     <use style="fill:#d62728;stroke:#d62728;" x="6.401417" xlink:href="#m0cffc56bf3" y="304.248075"/>
     <use style="fill:#d62728;stroke:#d62728;" x="14.468179" xlink:href="#m0cffc56bf3" y="295.722388"/>
     <use style="fill:#d62728;stroke:#d62728;" x="22.53494" xlink:href="#m0cffc56bf3" y="295.722388"/>
     <use style="fill:#d62728;stroke:#d62728;" x="30.601702" xlink:href="#m0cffc56bf3" y="289.673318"/>
     <use style="fill:#d62728;stroke:#d62728;" x="38.668464" xlink:href="#m0cffc56bf3" y="277.906316"/>
     <use style="fill:#d62728;stroke:#d62728;" x="46.735226" xlink:href="#m0cffc56bf3" y="266.572874"/>
     <use style="fill:#d62728;stroke:#d62728;" x="54.801988" xlink:href="#m0cffc56bf3" y="264.889822"/>
     <use style="fill:#d62728;stroke:#d62728;" x="62.86875" xlink:href="#m0cffc56bf3" y="263.331558"/>
     <use style="fill:#d62728;stroke:#d62728;" x="70.935512" xlink:href="#m0cffc56bf3" y="252.893015"/>
     <use style="fill:#d62728;stroke:#d62728;" x="79.002274" xlink:href="#m0cffc56bf3" y="250.315064"/>
     <use style="fill:#d62728;stroke:#d62728;" x="87.069036" xlink:href="#m0cffc56bf3" y="238.318257"/>
     <use style="fill:#d62728;stroke:#d62728;" x="95.135798" xlink:href="#m0cffc56bf3" y="229.49002"/>
     <use style="fill:#d62728;stroke:#d62728;" x="103.20256" xlink:href="#m0cffc56bf3" y="229.49002"/>
     <use style="fill:#d62728;stroke:#d62728;" x="111.269321" xlink:href="#m0cffc56bf3" y="220.178189"/>
     <use style="fill:#d62728;stroke:#d62728;" x="119.336083" xlink:href="#m0cffc56bf3" y="214.765604"/>
     <use style="fill:#d62728;stroke:#d62728;" x="127.402845" xlink:href="#m0cffc56bf3" y="206.389576"/>
     <use style="fill:#d62728;stroke:#d62728;" x="135.469607" xlink:href="#m0cffc56bf3" y="197.142146"/>
     <use style="fill:#d62728;stroke:#d62728;" x="143.536369" xlink:href="#m0cffc56bf3" y="191.12535"/>
     <use style="fill:#d62728;stroke:#d62728;" x="151.603131" xlink:href="#m0cffc56bf3" y="185.61609"/>
     <use style="fill:#d62728;stroke:#d62728;" x="159.669893" xlink:href="#m0cffc56bf3" y="179.234132"/>
     <use style="fill:#d62728;stroke:#d62728;" x="167.736655" xlink:href="#m0cffc56bf3" y="173.573945"/>
     <use style="fill:#d62728;stroke:#d62728;" x="175.803417" xlink:href="#m0cffc56bf3" y="169.35828"/>
     <use style="fill:#d62728;stroke:#d62728;" x="183.870179" xlink:href="#m0cffc56bf3" y="165.516016"/>
     <use style="fill:#d62728;stroke:#d62728;" x="191.936941" xlink:href="#m0cffc56bf3" y="159.370417"/>
     <use style="fill:#d62728;stroke:#d62728;" x="200.003703" xlink:href="#m0cffc56bf3" y="154.501508"/>
     <use style="fill:#d62728;stroke:#d62728;" x="208.070464" xlink:href="#m0cffc56bf3" y="149.129601"/>
     <use style="fill:#d62728;stroke:#d62728;" x="216.137226" xlink:href="#m0cffc56bf3" y="144.225618"/>
     <use style="fill:#d62728;stroke:#d62728;" x="224.203988" xlink:href="#m0cffc56bf3" y="139.977745"/>
     <use style="fill:#d62728;stroke:#d62728;" x="232.27075" xlink:href="#m0cffc56bf3" y="136.99943"/>
     <use style="fill:#d62728;stroke:#d62728;" x="240.337512" xlink:href="#m0cffc56bf3" y="133.450184"/>
     <use style="fill:#d62728;stroke:#d62728;" x="248.404274" xlink:href="#m0cffc56bf3" y="130.476593"/>
     <use style="fill:#d62728;stroke:#d62728;" x="256.471036" xlink:href="#m0cffc56bf3" y="127.373058"/>
     <use style="fill:#d62728;stroke:#d62728;" x="264.537798" xlink:href="#m0cffc56bf3" y="124.617936"/>
     <use style="fill:#d62728;stroke:#d62728;" x="272.60456" xlink:href="#m0cffc56bf3" y="122.151342"/>
     <use style="fill:#d62728;stroke:#d62728;" x="280.671322" xlink:href="#m0cffc56bf3" y="120.733101"/>
     <use style="fill:#d62728;stroke:#d62728;" x="288.738084" xlink:href="#m0cffc56bf3" y="118.659748"/>
     <use style="fill:#d62728;stroke:#d62728;" x="296.804846" xlink:href="#m0cffc56bf3" y="117.001053"/>
     <use style="fill:#d62728;stroke:#d62728;" x="304.871607" xlink:href="#m0cffc56bf3" y="115.686312"/>
     <use style="fill:#d62728;stroke:#d62728;" x="312.938369" xlink:href="#m0cffc56bf3" y="114.225242"/>
     <use style="fill:#d62728;stroke:#d62728;" x="321.005131" xlink:href="#m0cffc56bf3" y="112.845079"/>
     <use style="fill:#d62728;stroke:#d62728;" x="329.071893" xlink:href="#m0cffc56bf3" y="111.685794"/>
     <use style="fill:#d62728;stroke:#d62728;" x="337.138655" xlink:href="#m0cffc56bf3" y="110.735893"/>
     <use style="fill:#d62728;stroke:#d62728;" x="345.205417" xlink:href="#m0cffc56bf3" y="109.545974"/>
     <use style="fill:#d62728;stroke:#d62728;" x="353.272179" xlink:href="#m0cffc56bf3" y="108.945178"/>
     <use style="fill:#d62728;stroke:#d62728;" x="361.338941" xlink:href="#m0cffc56bf3" y="108.081993"/>
    </g>
   </g>
   <g id="line2d_85">
    <path clip-path="url(#p5f673968d3)" d="M 54.801988 255.392606 
L 62.86875 234.768778 
L 70.935512 224.560039 
L 79.002274 223.001776 
L 87.069036 220.19402 
L 95.135798 218.919271 
L 103.20256 217.717405 
L 111.269321 213.497916 
L 119.336083 213.497916 
L 127.402845 207.689156 
L 135.469607 202.00578 
L 143.536369 198.923159 
L 151.603131 198.450624 
L 159.669893 189.769756 
L 167.736655 183.875867 
L 175.803417 180.634551 
L 183.870179 177.137326 
L 191.936941 173.847617 
L 200.003703 169.418251 
L 208.070464 163.694727 
L 216.137226 158.700664 
L 224.203988 156.17706 
L 232.27075 151.285728 
L 240.337512 147.903196 
L 248.404274 145.853105 
L 256.471036 143.500266 
L 264.537798 140.774002 
L 272.60456 138.307416 
L 280.671322 136.22081 
L 288.738084 134.411425 
L 296.804846 132.258345 
L 304.871607 130.397019 
L 312.938369 128.218371 
L 321.005131 126.350192 
L 329.071893 124.578762 
L 337.138655 123.532971 
L 345.205417 121.963354 
L 353.272179 119.759016 
L 361.338941 118.722039 
" style="fill:none;stroke:#9467bd;stroke-linecap:square;stroke-width:1.5;"/>
    <g clip-path="url(#p5f673968d3)">
     <use style="fill:#9467bd;stroke:#9467bd;" x="54.801988" xlink:href="#m76673136a2" y="255.392606"/>
     <use style="fill:#9467bd;stroke:#9467bd;" x="62.86875" xlink:href="#m76673136a2" y="234.768778"/>
     <use style="fill:#9467bd;stroke:#9467bd;" x="70.935512" xlink:href="#m76673136a2" y="224.560039"/>
     <use style="fill:#9467bd;stroke:#9467bd;" x="79.002274" xlink:href="#m76673136a2" y="223.001776"/>
     <use style="fill:#9467bd;stroke:#9467bd;" x="87.069036" xlink:href="#m76673136a2" y="220.19402"/>
     <use style="fill:#9467bd;stroke:#9467bd;" x="95.135798" xlink:href="#m76673136a2" y="218.919271"/>
     <use style="fill:#9467bd;stroke:#9467bd;" x="103.20256" xlink:href="#m76673136a2" y="217.717405"/>
     <use style="fill:#9467bd;stroke:#9467bd;" x="111.269321" xlink:href="#m76673136a2" y="213.497916"/>
     <use style="fill:#9467bd;stroke:#9467bd;" x="119.336083" xlink:href="#m76673136a2" y="213.497916"/>
     <use style="fill:#9467bd;stroke:#9467bd;" x="127.402845" xlink:href="#m76673136a2" y="207.689156"/>
     <use style="fill:#9467bd;stroke:#9467bd;" x="135.469607" xlink:href="#m76673136a2" y="202.00578"/>
     <use style="fill:#9467bd;stroke:#9467bd;" x="143.536369" xlink:href="#m76673136a2" y="198.923159"/>
     <use style="fill:#9467bd;stroke:#9467bd;" x="151.603131" xlink:href="#m76673136a2" y="198.450624"/>
     <use style="fill:#9467bd;stroke:#9467bd;" x="159.669893" xlink:href="#m76673136a2" y="189.769756"/>
     <use style="fill:#9467bd;stroke:#9467bd;" x="167.736655" xlink:href="#m76673136a2" y="183.875867"/>
     <use style="fill:#9467bd;stroke:#9467bd;" x="175.803417" xlink:href="#m76673136a2" y="180.634551"/>
     <use style="fill:#9467bd;stroke:#9467bd;" x="183.870179" xlink:href="#m76673136a2" y="177.137326"/>
     <use style="fill:#9467bd;stroke:#9467bd;" x="191.936941" xlink:href="#m76673136a2" y="173.847617"/>
     <use style="fill:#9467bd;stroke:#9467bd;" x="200.003703" xlink:href="#m76673136a2" y="169.418251"/>
     <use style="fill:#9467bd;stroke:#9467bd;" x="208.070464" xlink:href="#m76673136a2" y="163.694727"/>
     <use style="fill:#9467bd;stroke:#9467bd;" x="216.137226" xlink:href="#m76673136a2" y="158.700664"/>
     <use style="fill:#9467bd;stroke:#9467bd;" x="224.203988" xlink:href="#m76673136a2" y="156.17706"/>
     <use style="fill:#9467bd;stroke:#9467bd;" x="232.27075" xlink:href="#m76673136a2" y="151.285728"/>
     <use style="fill:#9467bd;stroke:#9467bd;" x="240.337512" xlink:href="#m76673136a2" y="147.903196"/>
     <use style="fill:#9467bd;stroke:#9467bd;" x="248.404274" xlink:href="#m76673136a2" y="145.853105"/>
     <use style="fill:#9467bd;stroke:#9467bd;" x="256.471036" xlink:href="#m76673136a2" y="143.500266"/>
     <use style="fill:#9467bd;stroke:#9467bd;" x="264.537798" xlink:href="#m76673136a2" y="140.774002"/>
     <use style="fill:#9467bd;stroke:#9467bd;" x="272.60456" xlink:href="#m76673136a2" y="138.307416"/>
     <use style="fill:#9467bd;stroke:#9467bd;" x="280.671322" xlink:href="#m76673136a2" y="136.22081"/>
     <use style="fill:#9467bd;stroke:#9467bd;" x="288.738084" xlink:href="#m76673136a2" y="134.411425"/>
     <use style="fill:#9467bd;stroke:#9467bd;" x="296.804846" xlink:href="#m76673136a2" y="132.258345"/>
     <use style="fill:#9467bd;stroke:#9467bd;" x="304.871607" xlink:href="#m76673136a2" y="130.397019"/>
     <use style="fill:#9467bd;stroke:#9467bd;" x="312.938369" xlink:href="#m76673136a2" y="128.218371"/>
     <use style="fill:#9467bd;stroke:#9467bd;" x="321.005131" xlink:href="#m76673136a2" y="126.350192"/>
     <use style="fill:#9467bd;stroke:#9467bd;" x="329.071893" xlink:href="#m76673136a2" y="124.578762"/>
     <use style="fill:#9467bd;stroke:#9467bd;" x="337.138655" xlink:href="#m76673136a2" y="123.532971"/>
     <use style="fill:#9467bd;stroke:#9467bd;" x="345.205417" xlink:href="#m76673136a2" y="121.963354"/>
     <use style="fill:#9467bd;stroke:#9467bd;" x="353.272179" xlink:href="#m76673136a2" y="119.759016"/>
     <use style="fill:#9467bd;stroke:#9467bd;" x="361.338941" xlink:href="#m76673136a2" y="118.722039"/>
    </g>
   </g>
  </g>
 </g>
 <defs>
  <clipPath id="p5f673968d3">
   <rect height="217.44" width="334.8" x="62.86875" y="22.318125"/>
  </clipPath>
 </defs>
</svg>
