<?xml version="1.0" encoding="utf-8" standalone="no"?>
<!DOCTYPE svg PUBLIC "-//W3C//DTD SVG 1.1//EN"
  "http://www.w3.org/Graphics/SVG/1.1/DTD/svg11.dtd">
<!-- Created with matplotlib (https://matplotlib.org/) -->
<svg height="288.705462pt" version="1.1" viewBox="0 0 411.546566 288.705462" width="411.546566pt" xmlns="http://www.w3.org/2000/svg" xmlns:xlink="http://www.w3.org/1999/xlink">
 <defs>
  <style type="text/css">
*{stroke-linecap:butt;stroke-linejoin:round;}
  </style>
 </defs>
 <g id="figure_1">
  <g id="patch_1">
   <path d="M 0 288.705462 
L 411.546566 288.705462 
L 411.546566 0 
L 0 0 
z
" style="fill:#ffffff;"/>
  </g>
  <g id="axes_1">
   <g id="patch_2">
    <path d="M 62.86875 239.758125 
L 397.66875 239.758125 
L 397.66875 22.318125 
L 62.86875 22.318125 
z
" style="fill:#ffffff;"/>
   </g>
   <g id="matplotlib.axis_1">
    <g id="xtick_1">
     <g id="line2d_1">
      <path clip-path="url(#padda230626)" d="M 110.113748 239.758125 
L 110.113748 22.318125 
" style="fill:none;stroke:#b0b0b0;stroke-linecap:square;stroke-opacity:0.8;stroke-width:0.8;"/>
     </g>
     <g id="line2d_2">
      <defs>
       <path d="M 0 0 
L 0 3.5 
" id="mec416fb420" style="stroke:#000000;stroke-width:0.8;"/>
      </defs>
      <g>
       <use style="stroke:#000000;stroke-width:0.8;" x="110.113748" xlink:href="#mec416fb420" y="239.758125"/>
      </g>
     </g>
     <g id="text_1">
      <!-- Mar. -->
      <defs>
       <path d="M 9.8125 72.90625 
L 24.515625 72.90625 
L 43.109375 23.296875 
L 61.8125 72.90625 
L 76.515625 72.90625 
L 76.515625 0 
L 66.890625 0 
L 66.890625 64.015625 
L 48.09375 14.015625 
L 38.1875 14.015625 
L 19.390625 64.015625 
L 19.390625 0 
L 9.8125 0 
z
" id="DejaVuSans-77"/>
       <path d="M 34.28125 27.484375 
Q 23.390625 27.484375 19.1875 25 
Q 14.984375 22.515625 14.984375 16.5 
Q 14.984375 11.71875 18.140625 8.90625 
Q 21.296875 6.109375 26.703125 6.109375 
Q 34.1875 6.109375 38.703125 11.40625 
Q 43.21875 16.703125 43.21875 25.484375 
L 43.21875 27.484375 
z
M 52.203125 31.203125 
L 52.203125 0 
L 43.21875 0 
L 43.21875 8.296875 
Q 40.140625 3.328125 35.546875 0.953125 
Q 30.953125 -1.421875 24.3125 -1.421875 
Q 15.921875 -1.421875 10.953125 3.296875 
Q 6 8.015625 6 15.921875 
Q 6 25.140625 12.171875 29.828125 
Q 18.359375 34.515625 30.609375 34.515625 
L 43.21875 34.515625 
L 43.21875 35.40625 
Q 43.21875 41.609375 39.140625 45 
Q 35.0625 48.390625 27.6875 48.390625 
Q 23 48.390625 18.546875 47.265625 
Q 14.109375 46.140625 10.015625 43.890625 
L 10.015625 52.203125 
Q 14.9375 54.109375 19.578125 55.046875 
Q 24.21875 56 28.609375 56 
Q 40.484375 56 46.34375 49.84375 
Q 52.203125 43.703125 52.203125 31.203125 
z
" id="DejaVuSans-97"/>
       <path d="M 41.109375 46.296875 
Q 39.59375 47.171875 37.8125 47.578125 
Q 36.03125 48 33.890625 48 
Q 26.265625 48 22.1875 43.046875 
Q 18.109375 38.09375 18.109375 28.8125 
L 18.109375 0 
L 9.078125 0 
L 9.078125 54.6875 
L 18.109375 54.6875 
L 18.109375 46.1875 
Q 20.953125 51.171875 25.484375 53.578125 
Q 30.03125 56 36.53125 56 
Q 37.453125 56 38.578125 55.875 
Q 39.703125 55.765625 41.0625 55.515625 
z
" id="DejaVuSans-114"/>
       <path d="M 10.6875 12.40625 
L 21 12.40625 
L 21 0 
L 10.6875 0 
z
" id="DejaVuSans-46"/>
      </defs>
      <g transform="translate(99.098123 254.356562)scale(0.1 -0.1)">
       <use xlink:href="#DejaVuSans-77"/>
       <use x="86.279297" xlink:href="#DejaVuSans-97"/>
       <use x="147.558594" xlink:href="#DejaVuSans-114"/>
       <use x="188.53125" xlink:href="#DejaVuSans-46"/>
      </g>
      <!-- 15 -->
      <defs>
       <path d="M 12.40625 8.296875 
L 28.515625 8.296875 
L 28.515625 63.921875 
L 10.984375 60.40625 
L 10.984375 69.390625 
L 28.421875 72.90625 
L 38.28125 72.90625 
L 38.28125 8.296875 
L 54.390625 8.296875 
L 54.390625 0 
L 12.40625 0 
z
" id="DejaVuSans-49"/>
       <path d="M 10.796875 72.90625 
L 49.515625 72.90625 
L 49.515625 64.59375 
L 19.828125 64.59375 
L 19.828125 46.734375 
Q 21.96875 47.46875 24.109375 47.828125 
Q 26.265625 48.1875 28.421875 48.1875 
Q 40.625 48.1875 47.75 41.5 
Q 54.890625 34.8125 54.890625 23.390625 
Q 54.890625 11.625 47.5625 5.09375 
Q 40.234375 -1.421875 26.90625 -1.421875 
Q 22.3125 -1.421875 17.546875 -0.640625 
Q 12.796875 0.140625 7.71875 1.703125 
L 7.71875 11.625 
Q 12.109375 9.234375 16.796875 8.0625 
Q 21.484375 6.890625 26.703125 6.890625 
Q 35.15625 6.890625 40.078125 11.328125 
Q 45.015625 15.765625 45.015625 23.390625 
Q 45.015625 31 40.078125 35.4375 
Q 35.15625 39.890625 26.703125 39.890625 
Q 22.75 39.890625 18.8125 39.015625 
Q 14.890625 38.140625 10.796875 36.28125 
z
" id="DejaVuSans-53"/>
      </defs>
      <g transform="translate(103.751248 265.554375)scale(0.1 -0.1)">
       <use xlink:href="#DejaVuSans-49"/>
       <use x="63.623047" xlink:href="#DejaVuSans-53"/>
      </g>
     </g>
    </g>
    <g id="xtick_2">
     <g id="line2d_3">
      <path clip-path="url(#padda230626)" d="M 165.232912 239.758125 
L 165.232912 22.318125 
" style="fill:none;stroke:#b0b0b0;stroke-linecap:square;stroke-opacity:0.8;stroke-width:0.8;"/>
     </g>
     <g id="line2d_4">
      <g>
       <use style="stroke:#000000;stroke-width:0.8;" x="165.232912" xlink:href="#mec416fb420" y="239.758125"/>
      </g>
     </g>
     <g id="text_2">
      <!-- Mar. -->
      <g transform="translate(154.217287 254.356562)scale(0.1 -0.1)">
       <use xlink:href="#DejaVuSans-77"/>
       <use x="86.279297" xlink:href="#DejaVuSans-97"/>
       <use x="147.558594" xlink:href="#DejaVuSans-114"/>
       <use x="188.53125" xlink:href="#DejaVuSans-46"/>
      </g>
      <!-- 22 -->
      <defs>
       <path d="M 19.1875 8.296875 
L 53.609375 8.296875 
L 53.609375 0 
L 7.328125 0 
L 7.328125 8.296875 
Q 12.9375 14.109375 22.625 23.890625 
Q 32.328125 33.6875 34.8125 36.53125 
Q 39.546875 41.84375 41.421875 45.53125 
Q 43.3125 49.21875 43.3125 52.78125 
Q 43.3125 58.59375 39.234375 62.25 
Q 35.15625 65.921875 28.609375 65.921875 
Q 23.96875 65.921875 18.8125 64.3125 
Q 13.671875 62.703125 7.8125 59.421875 
L 7.8125 69.390625 
Q 13.765625 71.78125 18.9375 73 
Q 24.125 74.21875 28.421875 74.21875 
Q 39.75 74.21875 46.484375 68.546875 
Q 53.21875 62.890625 53.21875 53.421875 
Q 53.21875 48.921875 51.53125 44.890625 
Q 49.859375 40.875 45.40625 35.40625 
Q 44.1875 33.984375 37.640625 27.21875 
Q 31.109375 20.453125 19.1875 8.296875 
z
" id="DejaVuSans-50"/>
      </defs>
      <g transform="translate(158.870412 265.554375)scale(0.1 -0.1)">
       <use xlink:href="#DejaVuSans-50"/>
       <use x="63.623047" xlink:href="#DejaVuSans-50"/>
      </g>
     </g>
    </g>
    <g id="xtick_3">
     <g id="line2d_5">
      <path clip-path="url(#padda230626)" d="M 243.974574 239.758125 
L 243.974574 22.318125 
" style="fill:none;stroke:#b0b0b0;stroke-linecap:square;stroke-opacity:0.8;stroke-width:0.8;"/>
     </g>
     <g id="line2d_6">
      <g>
       <use style="stroke:#000000;stroke-width:0.8;" x="243.974574" xlink:href="#mec416fb420" y="239.758125"/>
      </g>
     </g>
     <g id="text_3">
      <!-- Apr. -->
      <defs>
       <path d="M 34.1875 63.1875 
L 20.796875 26.90625 
L 47.609375 26.90625 
z
M 28.609375 72.90625 
L 39.796875 72.90625 
L 67.578125 0 
L 57.328125 0 
L 50.6875 18.703125 
L 17.828125 18.703125 
L 11.1875 0 
L 0.78125 0 
z
" id="DejaVuSans-65"/>
       <path d="M 18.109375 8.203125 
L 18.109375 -20.796875 
L 9.078125 -20.796875 
L 9.078125 54.6875 
L 18.109375 54.6875 
L 18.109375 46.390625 
Q 20.953125 51.265625 25.265625 53.625 
Q 29.59375 56 35.59375 56 
Q 45.5625 56 51.78125 48.09375 
Q 58.015625 40.1875 58.015625 27.296875 
Q 58.015625 14.40625 51.78125 6.484375 
Q 45.5625 -1.421875 35.59375 -1.421875 
Q 29.59375 -1.421875 25.265625 0.953125 
Q 20.953125 3.328125 18.109375 8.203125 
z
M 48.6875 27.296875 
Q 48.6875 37.203125 44.609375 42.84375 
Q 40.53125 48.484375 33.40625 48.484375 
Q 26.265625 48.484375 22.1875 42.84375 
Q 18.109375 37.203125 18.109375 27.296875 
Q 18.109375 17.390625 22.1875 11.75 
Q 26.265625 6.109375 33.40625 6.109375 
Q 40.53125 6.109375 44.609375 11.75 
Q 48.6875 17.390625 48.6875 27.296875 
z
" id="DejaVuSans-112"/>
      </defs>
      <g transform="translate(233.742543 254.356562)scale(0.1 -0.1)">
       <use xlink:href="#DejaVuSans-65"/>
       <use x="68.408203" xlink:href="#DejaVuSans-112"/>
       <use x="131.884766" xlink:href="#DejaVuSans-114"/>
       <use x="172.857422" xlink:href="#DejaVuSans-46"/>
      </g>
      <!-- 01 -->
      <defs>
       <path d="M 31.78125 66.40625 
Q 24.171875 66.40625 20.328125 58.90625 
Q 16.5 51.421875 16.5 36.375 
Q 16.5 21.390625 20.328125 13.890625 
Q 24.171875 6.390625 31.78125 6.390625 
Q 39.453125 6.390625 43.28125 13.890625 
Q 47.125 21.390625 47.125 36.375 
Q 47.125 51.421875 43.28125 58.90625 
Q 39.453125 66.40625 31.78125 66.40625 
z
M 31.78125 74.21875 
Q 44.046875 74.21875 50.515625 64.515625 
Q 56.984375 54.828125 56.984375 36.375 
Q 56.984375 17.96875 50.515625 8.265625 
Q 44.046875 -1.421875 31.78125 -1.421875 
Q 19.53125 -1.421875 13.0625 8.265625 
Q 6.59375 17.96875 6.59375 36.375 
Q 6.59375 54.828125 13.0625 64.515625 
Q 19.53125 74.21875 31.78125 74.21875 
z
" id="DejaVuSans-48"/>
      </defs>
      <g transform="translate(237.612074 265.554375)scale(0.1 -0.1)">
       <use xlink:href="#DejaVuSans-48"/>
       <use x="63.623047" xlink:href="#DejaVuSans-49"/>
      </g>
     </g>
    </g>
    <g id="xtick_4">
     <g id="line2d_7">
      <path clip-path="url(#padda230626)" d="M 299.093738 239.758125 
L 299.093738 22.318125 
" style="fill:none;stroke:#b0b0b0;stroke-linecap:square;stroke-opacity:0.8;stroke-width:0.8;"/>
     </g>
     <g id="line2d_8">
      <g>
       <use style="stroke:#000000;stroke-width:0.8;" x="299.093738" xlink:href="#mec416fb420" y="239.758125"/>
      </g>
     </g>
     <g id="text_4">
      <!-- Apr. -->
      <g transform="translate(288.861707 254.356562)scale(0.1 -0.1)">
       <use xlink:href="#DejaVuSans-65"/>
       <use x="68.408203" xlink:href="#DejaVuSans-112"/>
       <use x="131.884766" xlink:href="#DejaVuSans-114"/>
       <use x="172.857422" xlink:href="#DejaVuSans-46"/>
      </g>
      <!-- 08 -->
      <defs>
       <path d="M 31.78125 34.625 
Q 24.75 34.625 20.71875 30.859375 
Q 16.703125 27.09375 16.703125 20.515625 
Q 16.703125 13.921875 20.71875 10.15625 
Q 24.75 6.390625 31.78125 6.390625 
Q 38.8125 6.390625 42.859375 10.171875 
Q 46.921875 13.96875 46.921875 20.515625 
Q 46.921875 27.09375 42.890625 30.859375 
Q 38.875 34.625 31.78125 34.625 
z
M 21.921875 38.8125 
Q 15.578125 40.375 12.03125 44.71875 
Q 8.5 49.078125 8.5 55.328125 
Q 8.5 64.0625 14.71875 69.140625 
Q 20.953125 74.21875 31.78125 74.21875 
Q 42.671875 74.21875 48.875 69.140625 
Q 55.078125 64.0625 55.078125 55.328125 
Q 55.078125 49.078125 51.53125 44.71875 
Q 48 40.375 41.703125 38.8125 
Q 48.828125 37.15625 52.796875 32.3125 
Q 56.78125 27.484375 56.78125 20.515625 
Q 56.78125 9.90625 50.3125 4.234375 
Q 43.84375 -1.421875 31.78125 -1.421875 
Q 19.734375 -1.421875 13.25 4.234375 
Q 6.78125 9.90625 6.78125 20.515625 
Q 6.78125 27.484375 10.78125 32.3125 
Q 14.796875 37.15625 21.921875 38.8125 
z
M 18.3125 54.390625 
Q 18.3125 48.734375 21.84375 45.5625 
Q 25.390625 42.390625 31.78125 42.390625 
Q 38.140625 42.390625 41.71875 45.5625 
Q 45.3125 48.734375 45.3125 54.390625 
Q 45.3125 60.0625 41.71875 63.234375 
Q 38.140625 66.40625 31.78125 66.40625 
Q 25.390625 66.40625 21.84375 63.234375 
Q 18.3125 60.0625 18.3125 54.390625 
z
" id="DejaVuSans-56"/>
      </defs>
      <g transform="translate(292.731238 265.554375)scale(0.1 -0.1)">
       <use xlink:href="#DejaVuSans-48"/>
       <use x="63.623047" xlink:href="#DejaVuSans-56"/>
      </g>
     </g>
    </g>
    <g id="xtick_5">
     <g id="line2d_9">
      <path clip-path="url(#padda230626)" d="M 354.212902 239.758125 
L 354.212902 22.318125 
" style="fill:none;stroke:#b0b0b0;stroke-linecap:square;stroke-opacity:0.8;stroke-width:0.8;"/>
     </g>
     <g id="line2d_10">
      <g>
       <use style="stroke:#000000;stroke-width:0.8;" x="354.212902" xlink:href="#mec416fb420" y="239.758125"/>
      </g>
     </g>
     <g id="text_5">
      <!-- Apr. -->
      <g transform="translate(343.980871 254.356562)scale(0.1 -0.1)">
       <use xlink:href="#DejaVuSans-65"/>
       <use x="68.408203" xlink:href="#DejaVuSans-112"/>
       <use x="131.884766" xlink:href="#DejaVuSans-114"/>
       <use x="172.857422" xlink:href="#DejaVuSans-46"/>
      </g>
      <!-- 15 -->
      <g transform="translate(347.850402 265.554375)scale(0.1 -0.1)">
       <use xlink:href="#DejaVuSans-49"/>
       <use x="63.623047" xlink:href="#DejaVuSans-53"/>
      </g>
     </g>
    </g>
   </g>
   <g id="matplotlib.axis_2">
    <g id="ytick_1">
     <g id="line2d_11">
      <path clip-path="url(#padda230626)" d="M 62.86875 239.758125 
L 397.66875 239.758125 
" style="fill:none;stroke:#b0b0b0;stroke-linecap:square;stroke-opacity:0.8;stroke-width:0.8;"/>
     </g>
     <g id="line2d_12">
      <defs>
       <path d="M 0 0 
L -3.5 0 
" id="m885138c988" style="stroke:#000000;stroke-width:0.8;"/>
      </defs>
      <g>
       <use style="stroke:#000000;stroke-width:0.8;" x="62.86875" xlink:href="#m885138c988" y="239.758125"/>
      </g>
     </g>
     <g id="text_6">
      <!-- 2 -->
      <g transform="translate(49.50625 243.557344)scale(0.1 -0.1)">
       <use xlink:href="#DejaVuSans-50"/>
      </g>
     </g>
    </g>
    <g id="ytick_2">
     <g id="line2d_13">
      <path clip-path="url(#padda230626)" d="M 62.86875 220.599031 
L 397.66875 220.599031 
" style="fill:none;stroke:#b0b0b0;stroke-linecap:square;stroke-opacity:0.8;stroke-width:0.8;"/>
     </g>
     <g id="line2d_14">
      <g>
       <use style="stroke:#000000;stroke-width:0.8;" x="62.86875" xlink:href="#m885138c988" y="220.599031"/>
      </g>
     </g>
     <g id="text_7">
      <!-- 5 -->
      <g transform="translate(49.50625 224.39825)scale(0.1 -0.1)">
       <use xlink:href="#DejaVuSans-53"/>
      </g>
     </g>
    </g>
    <g id="ytick_3">
     <g id="line2d_15">
      <path clip-path="url(#padda230626)" d="M 62.86875 206.105737 
L 397.66875 206.105737 
" style="fill:none;stroke:#b0b0b0;stroke-linecap:square;stroke-opacity:0.8;stroke-width:0.8;"/>
     </g>
     <g id="line2d_16">
      <g>
       <use style="stroke:#000000;stroke-width:0.8;" x="62.86875" xlink:href="#m885138c988" y="206.105737"/>
      </g>
     </g>
     <g id="text_8">
      <!-- 10 -->
      <g transform="translate(43.14375 209.904955)scale(0.1 -0.1)">
       <use xlink:href="#DejaVuSans-49"/>
       <use x="63.623047" xlink:href="#DejaVuSans-48"/>
      </g>
     </g>
    </g>
    <g id="ytick_4">
     <g id="line2d_17">
      <path clip-path="url(#padda230626)" d="M 62.86875 191.612442 
L 397.66875 191.612442 
" style="fill:none;stroke:#b0b0b0;stroke-linecap:square;stroke-opacity:0.8;stroke-width:0.8;"/>
     </g>
     <g id="line2d_18">
      <g>
       <use style="stroke:#000000;stroke-width:0.8;" x="62.86875" xlink:href="#m885138c988" y="191.612442"/>
      </g>
     </g>
     <g id="text_9">
      <!-- 20 -->
      <g transform="translate(43.14375 195.41166)scale(0.1 -0.1)">
       <use xlink:href="#DejaVuSans-50"/>
       <use x="63.623047" xlink:href="#DejaVuSans-48"/>
      </g>
     </g>
    </g>
    <g id="ytick_5">
     <g id="line2d_19">
      <path clip-path="url(#padda230626)" d="M 62.86875 172.453348 
L 397.66875 172.453348 
" style="fill:none;stroke:#b0b0b0;stroke-linecap:square;stroke-opacity:0.8;stroke-width:0.8;"/>
     </g>
     <g id="line2d_20">
      <g>
       <use style="stroke:#000000;stroke-width:0.8;" x="62.86875" xlink:href="#m885138c988" y="172.453348"/>
      </g>
     </g>
     <g id="text_10">
      <!-- 50 -->
      <g transform="translate(43.14375 176.252567)scale(0.1 -0.1)">
       <use xlink:href="#DejaVuSans-53"/>
       <use x="63.623047" xlink:href="#DejaVuSans-48"/>
      </g>
     </g>
    </g>
    <g id="ytick_6">
     <g id="line2d_21">
      <path clip-path="url(#padda230626)" d="M 62.86875 157.960053 
L 397.66875 157.960053 
" style="fill:none;stroke:#b0b0b0;stroke-linecap:square;stroke-opacity:0.8;stroke-width:0.8;"/>
     </g>
     <g id="line2d_22">
      <g>
       <use style="stroke:#000000;stroke-width:0.8;" x="62.86875" xlink:href="#m885138c988" y="157.960053"/>
      </g>
     </g>
     <g id="text_11">
      <!-- 100 -->
      <g transform="translate(36.78125 161.759272)scale(0.1 -0.1)">
       <use xlink:href="#DejaVuSans-49"/>
       <use x="63.623047" xlink:href="#DejaVuSans-48"/>
       <use x="127.246094" xlink:href="#DejaVuSans-48"/>
      </g>
     </g>
    </g>
    <g id="ytick_7">
     <g id="line2d_23">
      <path clip-path="url(#padda230626)" d="M 62.86875 143.466758 
L 397.66875 143.466758 
" style="fill:none;stroke:#b0b0b0;stroke-linecap:square;stroke-opacity:0.8;stroke-width:0.8;"/>
     </g>
     <g id="line2d_24">
      <g>
       <use style="stroke:#000000;stroke-width:0.8;" x="62.86875" xlink:href="#m885138c988" y="143.466758"/>
      </g>
     </g>
     <g id="text_12">
      <!-- 200 -->
      <g transform="translate(36.78125 147.265977)scale(0.1 -0.1)">
       <use xlink:href="#DejaVuSans-50"/>
       <use x="63.623047" xlink:href="#DejaVuSans-48"/>
       <use x="127.246094" xlink:href="#DejaVuSans-48"/>
      </g>
     </g>
    </g>
    <g id="ytick_8">
     <g id="line2d_25">
      <path clip-path="url(#padda230626)" d="M 62.86875 124.307665 
L 397.66875 124.307665 
" style="fill:none;stroke:#b0b0b0;stroke-linecap:square;stroke-opacity:0.8;stroke-width:0.8;"/>
     </g>
     <g id="line2d_26">
      <g>
       <use style="stroke:#000000;stroke-width:0.8;" x="62.86875" xlink:href="#m885138c988" y="124.307665"/>
      </g>
     </g>
     <g id="text_13">
      <!-- 500 -->
      <g transform="translate(36.78125 128.106884)scale(0.1 -0.1)">
       <use xlink:href="#DejaVuSans-53"/>
       <use x="63.623047" xlink:href="#DejaVuSans-48"/>
       <use x="127.246094" xlink:href="#DejaVuSans-48"/>
      </g>
     </g>
    </g>
    <g id="ytick_9">
     <g id="line2d_27">
      <path clip-path="url(#padda230626)" d="M 62.86875 109.81437 
L 397.66875 109.81437 
" style="fill:none;stroke:#b0b0b0;stroke-linecap:square;stroke-opacity:0.8;stroke-width:0.8;"/>
     </g>
     <g id="line2d_28">
      <g>
       <use style="stroke:#000000;stroke-width:0.8;" x="62.86875" xlink:href="#m885138c988" y="109.81437"/>
      </g>
     </g>
     <g id="text_14">
      <!-- 1,000 -->
      <defs>
       <path d="M 11.71875 12.40625 
L 22.015625 12.40625 
L 22.015625 4 
L 14.015625 -11.625 
L 7.71875 -11.625 
L 11.71875 4 
z
" id="DejaVuSans-44"/>
      </defs>
      <g transform="translate(27.240625 113.613589)scale(0.1 -0.1)">
       <use xlink:href="#DejaVuSans-49"/>
       <use x="63.623047" xlink:href="#DejaVuSans-44"/>
       <use x="95.410156" xlink:href="#DejaVuSans-48"/>
       <use x="159.033203" xlink:href="#DejaVuSans-48"/>
       <use x="222.65625" xlink:href="#DejaVuSans-48"/>
      </g>
     </g>
    </g>
    <g id="ytick_10">
     <g id="line2d_29">
      <path clip-path="url(#padda230626)" d="M 62.86875 95.321075 
L 397.66875 95.321075 
" style="fill:none;stroke:#b0b0b0;stroke-linecap:square;stroke-opacity:0.8;stroke-width:0.8;"/>
     </g>
     <g id="line2d_30">
      <g>
       <use style="stroke:#000000;stroke-width:0.8;" x="62.86875" xlink:href="#m885138c988" y="95.321075"/>
      </g>
     </g>
     <g id="text_15">
      <!-- 2,000 -->
      <g transform="translate(27.240625 99.120294)scale(0.1 -0.1)">
       <use xlink:href="#DejaVuSans-50"/>
       <use x="63.623047" xlink:href="#DejaVuSans-44"/>
       <use x="95.410156" xlink:href="#DejaVuSans-48"/>
       <use x="159.033203" xlink:href="#DejaVuSans-48"/>
       <use x="222.65625" xlink:href="#DejaVuSans-48"/>
      </g>
     </g>
    </g>
    <g id="ytick_11">
     <g id="line2d_31">
      <path clip-path="url(#padda230626)" d="M 62.86875 76.161982 
L 397.66875 76.161982 
" style="fill:none;stroke:#b0b0b0;stroke-linecap:square;stroke-opacity:0.8;stroke-width:0.8;"/>
     </g>
     <g id="line2d_32">
      <g>
       <use style="stroke:#000000;stroke-width:0.8;" x="62.86875" xlink:href="#m885138c988" y="76.161982"/>
      </g>
     </g>
     <g id="text_16">
      <!-- 5,000 -->
      <g transform="translate(27.240625 79.9612)scale(0.1 -0.1)">
       <use xlink:href="#DejaVuSans-53"/>
       <use x="63.623047" xlink:href="#DejaVuSans-44"/>
       <use x="95.410156" xlink:href="#DejaVuSans-48"/>
       <use x="159.033203" xlink:href="#DejaVuSans-48"/>
       <use x="222.65625" xlink:href="#DejaVuSans-48"/>
      </g>
     </g>
    </g>
    <g id="ytick_12">
     <g id="line2d_33">
      <path clip-path="url(#padda230626)" d="M 62.86875 61.668687 
L 397.66875 61.668687 
" style="fill:none;stroke:#b0b0b0;stroke-linecap:square;stroke-opacity:0.8;stroke-width:0.8;"/>
     </g>
     <g id="line2d_34">
      <g>
       <use style="stroke:#000000;stroke-width:0.8;" x="62.86875" xlink:href="#m885138c988" y="61.668687"/>
      </g>
     </g>
     <g id="text_17">
      <!-- 10,000 -->
      <g transform="translate(20.878125 65.467905)scale(0.1 -0.1)">
       <use xlink:href="#DejaVuSans-49"/>
       <use x="63.623047" xlink:href="#DejaVuSans-48"/>
       <use x="127.246094" xlink:href="#DejaVuSans-44"/>
       <use x="159.033203" xlink:href="#DejaVuSans-48"/>
       <use x="222.65625" xlink:href="#DejaVuSans-48"/>
       <use x="286.279297" xlink:href="#DejaVuSans-48"/>
      </g>
     </g>
    </g>
    <g id="ytick_13">
     <g id="line2d_35">
      <path clip-path="url(#padda230626)" d="M 62.86875 47.175392 
L 397.66875 47.175392 
" style="fill:none;stroke:#b0b0b0;stroke-linecap:square;stroke-opacity:0.8;stroke-width:0.8;"/>
     </g>
     <g id="line2d_36">
      <g>
       <use style="stroke:#000000;stroke-width:0.8;" x="62.86875" xlink:href="#m885138c988" y="47.175392"/>
      </g>
     </g>
     <g id="text_18">
      <!-- 20,000 -->
      <g transform="translate(20.878125 50.974611)scale(0.1 -0.1)">
       <use xlink:href="#DejaVuSans-50"/>
       <use x="63.623047" xlink:href="#DejaVuSans-48"/>
       <use x="127.246094" xlink:href="#DejaVuSans-44"/>
       <use x="159.033203" xlink:href="#DejaVuSans-48"/>
       <use x="222.65625" xlink:href="#DejaVuSans-48"/>
       <use x="286.279297" xlink:href="#DejaVuSans-48"/>
      </g>
     </g>
    </g>
    <g id="ytick_14">
     <g id="line2d_37">
      <path clip-path="url(#padda230626)" d="M 62.86875 28.016298 
L 397.66875 28.016298 
" style="fill:none;stroke:#b0b0b0;stroke-linecap:square;stroke-opacity:0.8;stroke-width:0.8;"/>
     </g>
     <g id="line2d_38">
      <g>
       <use style="stroke:#000000;stroke-width:0.8;" x="62.86875" xlink:href="#m885138c988" y="28.016298"/>
      </g>
     </g>
     <g id="text_19">
      <!-- 50,000 -->
      <g transform="translate(20.878125 31.815517)scale(0.1 -0.1)">
       <use xlink:href="#DejaVuSans-53"/>
       <use x="63.623047" xlink:href="#DejaVuSans-48"/>
       <use x="127.246094" xlink:href="#DejaVuSans-44"/>
       <use x="159.033203" xlink:href="#DejaVuSans-48"/>
       <use x="222.65625" xlink:href="#DejaVuSans-48"/>
       <use x="286.279297" xlink:href="#DejaVuSans-48"/>
      </g>
     </g>
    </g>
    <g id="ytick_15">
     <g id="line2d_39">
      <defs>
       <path d="M 0 0 
L -2 0 
" id="m2daea7b456" style="stroke:#000000;stroke-width:0.6;"/>
      </defs>
      <g>
       <use style="stroke:#000000;stroke-width:0.6;" x="62.86875" xlink:href="#m2daea7b456" y="231.280091"/>
      </g>
     </g>
    </g>
    <g id="ytick_16">
     <g id="line2d_40">
      <g>
       <use style="stroke:#000000;stroke-width:0.6;" x="62.86875" xlink:href="#m2daea7b456" y="225.26483"/>
      </g>
     </g>
    </g>
    <g id="ytick_17">
     <g id="line2d_41">
      <g>
       <use style="stroke:#000000;stroke-width:0.6;" x="62.86875" xlink:href="#m2daea7b456" y="216.786796"/>
      </g>
     </g>
    </g>
    <g id="ytick_18">
     <g id="line2d_42">
      <g>
       <use style="stroke:#000000;stroke-width:0.6;" x="62.86875" xlink:href="#m2daea7b456" y="213.563597"/>
      </g>
     </g>
    </g>
    <g id="ytick_19">
     <g id="line2d_43">
      <g>
       <use style="stroke:#000000;stroke-width:0.6;" x="62.86875" xlink:href="#m2daea7b456" y="210.771535"/>
      </g>
     </g>
    </g>
    <g id="ytick_20">
     <g id="line2d_44">
      <g>
       <use style="stroke:#000000;stroke-width:0.6;" x="62.86875" xlink:href="#m2daea7b456" y="208.308762"/>
      </g>
     </g>
    </g>
    <g id="ytick_21">
     <g id="line2d_45">
      <g>
       <use style="stroke:#000000;stroke-width:0.6;" x="62.86875" xlink:href="#m2daea7b456" y="183.134408"/>
      </g>
     </g>
    </g>
    <g id="ytick_22">
     <g id="line2d_46">
      <g>
       <use style="stroke:#000000;stroke-width:0.6;" x="62.86875" xlink:href="#m2daea7b456" y="177.119147"/>
      </g>
     </g>
    </g>
    <g id="ytick_23">
     <g id="line2d_47">
      <g>
       <use style="stroke:#000000;stroke-width:0.6;" x="62.86875" xlink:href="#m2daea7b456" y="168.641113"/>
      </g>
     </g>
    </g>
    <g id="ytick_24">
     <g id="line2d_48">
      <g>
       <use style="stroke:#000000;stroke-width:0.6;" x="62.86875" xlink:href="#m2daea7b456" y="165.417914"/>
      </g>
     </g>
    </g>
    <g id="ytick_25">
     <g id="line2d_49">
      <g>
       <use style="stroke:#000000;stroke-width:0.6;" x="62.86875" xlink:href="#m2daea7b456" y="162.625852"/>
      </g>
     </g>
    </g>
    <g id="ytick_26">
     <g id="line2d_50">
      <g>
       <use style="stroke:#000000;stroke-width:0.6;" x="62.86875" xlink:href="#m2daea7b456" y="160.163079"/>
      </g>
     </g>
    </g>
    <g id="ytick_27">
     <g id="line2d_51">
      <g>
       <use style="stroke:#000000;stroke-width:0.6;" x="62.86875" xlink:href="#m2daea7b456" y="134.988724"/>
      </g>
     </g>
    </g>
    <g id="ytick_28">
     <g id="line2d_52">
      <g>
       <use style="stroke:#000000;stroke-width:0.6;" x="62.86875" xlink:href="#m2daea7b456" y="128.973464"/>
      </g>
     </g>
    </g>
    <g id="ytick_29">
     <g id="line2d_53">
      <g>
       <use style="stroke:#000000;stroke-width:0.6;" x="62.86875" xlink:href="#m2daea7b456" y="120.49543"/>
      </g>
     </g>
    </g>
    <g id="ytick_30">
     <g id="line2d_54">
      <g>
       <use style="stroke:#000000;stroke-width:0.6;" x="62.86875" xlink:href="#m2daea7b456" y="117.272231"/>
      </g>
     </g>
    </g>
    <g id="ytick_31">
     <g id="line2d_55">
      <g>
       <use style="stroke:#000000;stroke-width:0.6;" x="62.86875" xlink:href="#m2daea7b456" y="114.480169"/>
      </g>
     </g>
    </g>
    <g id="ytick_32">
     <g id="line2d_56">
      <g>
       <use style="stroke:#000000;stroke-width:0.6;" x="62.86875" xlink:href="#m2daea7b456" y="112.017396"/>
      </g>
     </g>
    </g>
    <g id="ytick_33">
     <g id="line2d_57">
      <g>
       <use style="stroke:#000000;stroke-width:0.6;" x="62.86875" xlink:href="#m2daea7b456" y="86.843041"/>
      </g>
     </g>
    </g>
    <g id="ytick_34">
     <g id="line2d_58">
      <g>
       <use style="stroke:#000000;stroke-width:0.6;" x="62.86875" xlink:href="#m2daea7b456" y="80.82778"/>
      </g>
     </g>
    </g>
    <g id="ytick_35">
     <g id="line2d_59">
      <g>
       <use style="stroke:#000000;stroke-width:0.6;" x="62.86875" xlink:href="#m2daea7b456" y="72.349746"/>
      </g>
     </g>
    </g>
    <g id="ytick_36">
     <g id="line2d_60">
      <g>
       <use style="stroke:#000000;stroke-width:0.6;" x="62.86875" xlink:href="#m2daea7b456" y="69.126547"/>
      </g>
     </g>
    </g>
    <g id="ytick_37">
     <g id="line2d_61">
      <g>
       <use style="stroke:#000000;stroke-width:0.6;" x="62.86875" xlink:href="#m2daea7b456" y="66.334486"/>
      </g>
     </g>
    </g>
    <g id="ytick_38">
     <g id="line2d_62">
      <g>
       <use style="stroke:#000000;stroke-width:0.6;" x="62.86875" xlink:href="#m2daea7b456" y="63.871712"/>
      </g>
     </g>
    </g>
    <g id="ytick_39">
     <g id="line2d_63">
      <g>
       <use style="stroke:#000000;stroke-width:0.6;" x="62.86875" xlink:href="#m2daea7b456" y="38.697358"/>
      </g>
     </g>
    </g>
    <g id="ytick_40">
     <g id="line2d_64">
      <g>
       <use style="stroke:#000000;stroke-width:0.6;" x="62.86875" xlink:href="#m2daea7b456" y="32.682097"/>
      </g>
     </g>
    </g>
    <g id="ytick_41">
     <g id="line2d_65">
      <g>
       <use style="stroke:#000000;stroke-width:0.6;" x="62.86875" xlink:href="#m2daea7b456" y="24.204063"/>
      </g>
     </g>
    </g>
    <g id="text_20">
     <!-- Total cases per million -->
     <defs>
      <path d="M -0.296875 72.90625 
L 61.375 72.90625 
L 61.375 64.59375 
L 35.5 64.59375 
L 35.5 0 
L 25.59375 0 
L 25.59375 64.59375 
L -0.296875 64.59375 
z
" id="DejaVuSans-84"/>
      <path d="M 30.609375 48.390625 
Q 23.390625 48.390625 19.1875 42.75 
Q 14.984375 37.109375 14.984375 27.296875 
Q 14.984375 17.484375 19.15625 11.84375 
Q 23.34375 6.203125 30.609375 6.203125 
Q 37.796875 6.203125 41.984375 11.859375 
Q 46.1875 17.53125 46.1875 27.296875 
Q 46.1875 37.015625 41.984375 42.703125 
Q 37.796875 48.390625 30.609375 48.390625 
z
M 30.609375 56 
Q 42.328125 56 49.015625 48.375 
Q 55.71875 40.765625 55.71875 27.296875 
Q 55.71875 13.875 49.015625 6.21875 
Q 42.328125 -1.421875 30.609375 -1.421875 
Q 18.84375 -1.421875 12.171875 6.21875 
Q 5.515625 13.875 5.515625 27.296875 
Q 5.515625 40.765625 12.171875 48.375 
Q 18.84375 56 30.609375 56 
z
" id="DejaVuSans-111"/>
      <path d="M 18.3125 70.21875 
L 18.3125 54.6875 
L 36.8125 54.6875 
L 36.8125 47.703125 
L 18.3125 47.703125 
L 18.3125 18.015625 
Q 18.3125 11.328125 20.140625 9.421875 
Q 21.96875 7.515625 27.59375 7.515625 
L 36.8125 7.515625 
L 36.8125 0 
L 27.59375 0 
Q 17.1875 0 13.234375 3.875 
Q 9.28125 7.765625 9.28125 18.015625 
L 9.28125 47.703125 
L 2.6875 47.703125 
L 2.6875 54.6875 
L 9.28125 54.6875 
L 9.28125 70.21875 
z
" id="DejaVuSans-116"/>
      <path d="M 9.421875 75.984375 
L 18.40625 75.984375 
L 18.40625 0 
L 9.421875 0 
z
" id="DejaVuSans-108"/>
      <path id="DejaVuSans-32"/>
      <path d="M 48.78125 52.59375 
L 48.78125 44.1875 
Q 44.96875 46.296875 41.140625 47.34375 
Q 37.3125 48.390625 33.40625 48.390625 
Q 24.65625 48.390625 19.8125 42.84375 
Q 14.984375 37.3125 14.984375 27.296875 
Q 14.984375 17.28125 19.8125 11.734375 
Q 24.65625 6.203125 33.40625 6.203125 
Q 37.3125 6.203125 41.140625 7.25 
Q 44.96875 8.296875 48.78125 10.40625 
L 48.78125 2.09375 
Q 45.015625 0.34375 40.984375 -0.53125 
Q 36.96875 -1.421875 32.421875 -1.421875 
Q 20.0625 -1.421875 12.78125 6.34375 
Q 5.515625 14.109375 5.515625 27.296875 
Q 5.515625 40.671875 12.859375 48.328125 
Q 20.21875 56 33.015625 56 
Q 37.15625 56 41.109375 55.140625 
Q 45.0625 54.296875 48.78125 52.59375 
z
" id="DejaVuSans-99"/>
      <path d="M 44.28125 53.078125 
L 44.28125 44.578125 
Q 40.484375 46.53125 36.375 47.5 
Q 32.28125 48.484375 27.875 48.484375 
Q 21.1875 48.484375 17.84375 46.4375 
Q 14.5 44.390625 14.5 40.28125 
Q 14.5 37.15625 16.890625 35.375 
Q 19.28125 33.59375 26.515625 31.984375 
L 29.59375 31.296875 
Q 39.15625 29.25 43.1875 25.515625 
Q 47.21875 21.78125 47.21875 15.09375 
Q 47.21875 7.46875 41.1875 3.015625 
Q 35.15625 -1.421875 24.609375 -1.421875 
Q 20.21875 -1.421875 15.453125 -0.5625 
Q 10.6875 0.296875 5.421875 2 
L 5.421875 11.28125 
Q 10.40625 8.6875 15.234375 7.390625 
Q 20.0625 6.109375 24.8125 6.109375 
Q 31.15625 6.109375 34.5625 8.28125 
Q 37.984375 10.453125 37.984375 14.40625 
Q 37.984375 18.0625 35.515625 20.015625 
Q 33.0625 21.96875 24.703125 23.78125 
L 21.578125 24.515625 
Q 13.234375 26.265625 9.515625 29.90625 
Q 5.8125 33.546875 5.8125 39.890625 
Q 5.8125 47.609375 11.28125 51.796875 
Q 16.75 56 26.8125 56 
Q 31.78125 56 36.171875 55.265625 
Q 40.578125 54.546875 44.28125 53.078125 
z
" id="DejaVuSans-115"/>
      <path d="M 56.203125 29.59375 
L 56.203125 25.203125 
L 14.890625 25.203125 
Q 15.484375 15.921875 20.484375 11.0625 
Q 25.484375 6.203125 34.421875 6.203125 
Q 39.59375 6.203125 44.453125 7.46875 
Q 49.3125 8.734375 54.109375 11.28125 
L 54.109375 2.78125 
Q 49.265625 0.734375 44.1875 -0.34375 
Q 39.109375 -1.421875 33.890625 -1.421875 
Q 20.796875 -1.421875 13.15625 6.1875 
Q 5.515625 13.8125 5.515625 26.8125 
Q 5.515625 40.234375 12.765625 48.109375 
Q 20.015625 56 32.328125 56 
Q 43.359375 56 49.78125 48.890625 
Q 56.203125 41.796875 56.203125 29.59375 
z
M 47.21875 32.234375 
Q 47.125 39.59375 43.09375 43.984375 
Q 39.0625 48.390625 32.421875 48.390625 
Q 24.90625 48.390625 20.390625 44.140625 
Q 15.875 39.890625 15.1875 32.171875 
z
" id="DejaVuSans-101"/>
      <path d="M 52 44.1875 
Q 55.375 50.25 60.0625 53.125 
Q 64.75 56 71.09375 56 
Q 79.640625 56 84.28125 50.015625 
Q 88.921875 44.046875 88.921875 33.015625 
L 88.921875 0 
L 79.890625 0 
L 79.890625 32.71875 
Q 79.890625 40.578125 77.09375 44.375 
Q 74.3125 48.1875 68.609375 48.1875 
Q 61.625 48.1875 57.5625 43.546875 
Q 53.515625 38.921875 53.515625 30.90625 
L 53.515625 0 
L 44.484375 0 
L 44.484375 32.71875 
Q 44.484375 40.625 41.703125 44.40625 
Q 38.921875 48.1875 33.109375 48.1875 
Q 26.21875 48.1875 22.15625 43.53125 
Q 18.109375 38.875 18.109375 30.90625 
L 18.109375 0 
L 9.078125 0 
L 9.078125 54.6875 
L 18.109375 54.6875 
L 18.109375 46.1875 
Q 21.1875 51.21875 25.484375 53.609375 
Q 29.78125 56 35.6875 56 
Q 41.65625 56 45.828125 52.96875 
Q 50 49.953125 52 44.1875 
z
" id="DejaVuSans-109"/>
      <path d="M 9.421875 54.6875 
L 18.40625 54.6875 
L 18.40625 0 
L 9.421875 0 
z
M 9.421875 75.984375 
L 18.40625 75.984375 
L 18.40625 64.59375 
L 9.421875 64.59375 
z
" id="DejaVuSans-105"/>
      <path d="M 54.890625 33.015625 
L 54.890625 0 
L 45.90625 0 
L 45.90625 32.71875 
Q 45.90625 40.484375 42.875 44.328125 
Q 39.84375 48.1875 33.796875 48.1875 
Q 26.515625 48.1875 22.3125 43.546875 
Q 18.109375 38.921875 18.109375 30.90625 
L 18.109375 0 
L 9.078125 0 
L 9.078125 54.6875 
L 18.109375 54.6875 
L 18.109375 46.1875 
Q 21.34375 51.125 25.703125 53.5625 
Q 30.078125 56 35.796875 56 
Q 45.21875 56 50.046875 50.171875 
Q 54.890625 44.34375 54.890625 33.015625 
z
" id="DejaVuSans-110"/>
     </defs>
     <g transform="translate(14.798438 187.37875)rotate(-90)scale(0.1 -0.1)">
      <use xlink:href="#DejaVuSans-84"/>
      <use x="60.818359" xlink:href="#DejaVuSans-111"/>
      <use x="122" xlink:href="#DejaVuSans-116"/>
      <use x="161.208984" xlink:href="#DejaVuSans-97"/>
      <use x="222.488281" xlink:href="#DejaVuSans-108"/>
      <use x="250.271484" xlink:href="#DejaVuSans-32"/>
      <use x="282.058594" xlink:href="#DejaVuSans-99"/>
      <use x="337.039062" xlink:href="#DejaVuSans-97"/>
      <use x="398.318359" xlink:href="#DejaVuSans-115"/>
      <use x="450.417969" xlink:href="#DejaVuSans-101"/>
      <use x="511.941406" xlink:href="#DejaVuSans-115"/>
      <use x="564.041016" xlink:href="#DejaVuSans-32"/>
      <use x="595.828125" xlink:href="#DejaVuSans-112"/>
      <use x="659.304688" xlink:href="#DejaVuSans-101"/>
      <use x="720.828125" xlink:href="#DejaVuSans-114"/>
      <use x="761.941406" xlink:href="#DejaVuSans-32"/>
      <use x="793.728516" xlink:href="#DejaVuSans-109"/>
      <use x="891.140625" xlink:href="#DejaVuSans-105"/>
      <use x="918.923828" xlink:href="#DejaVuSans-108"/>
      <use x="946.707031" xlink:href="#DejaVuSans-108"/>
      <use x="974.490234" xlink:href="#DejaVuSans-105"/>
      <use x="1002.273438" xlink:href="#DejaVuSans-111"/>
      <use x="1063.455078" xlink:href="#DejaVuSans-110"/>
     </g>
    </g>
   </g>
   <g id="line2d_66">
    <path clip-path="url(#padda230626)" d="M 330.590403 62.306185 
L 338.464569 61.449792 
L 346.338736 60.593399 
L 354.212902 59.737007 
L 362.087068 58.880614 
" style="fill:none;stroke:#7f7f7f;stroke-dasharray:7.4,3.2;stroke-dashoffset:0;stroke-width:2;"/>
   </g>
   <g id="line2d_67">
    <path clip-path="url(#padda230626)" d="M 330.590403 91.055325 
L 338.464569 90.151188 
L 346.338736 89.247052 
L 354.212902 88.342915 
L 362.087068 87.438778 
" style="fill:none;stroke:#7f7f7f;stroke-dasharray:7.4,3.2;stroke-dashoffset:0;stroke-width:2;"/>
   </g>
   <g id="line2d_68">
    <path clip-path="url(#padda230626)" d="M 330.590403 103.274807 
L 338.464569 102.915396 
L 346.338736 102.555985 
L 354.212902 102.196573 
L 362.087068 101.837162 
" style="fill:none;stroke:#7f7f7f;stroke-dasharray:7.4,3.2;stroke-dashoffset:0;stroke-width:2;"/>
   </g>
   <g id="line2d_69">
    <path clip-path="url(#padda230626)" d="M 330.590403 121.428462 
L 338.464569 120.653374 
L 346.338736 119.878285 
L 354.212902 119.103197 
L 362.087068 118.328109 
" style="fill:none;stroke:#7f7f7f;stroke-dasharray:7.4,3.2;stroke-dashoffset:0;stroke-width:2;"/>
   </g>
   <g id="line2d_70">
    <path clip-path="url(#padda230626)" d="M 330.590403 135.883705 
L 338.464569 135.020635 
L 346.338736 134.157565 
L 354.212902 133.294495 
L 362.087068 132.431425 
" style="fill:none;stroke:#7f7f7f;stroke-dasharray:7.4,3.2;stroke-dashoffset:0;stroke-width:2;"/>
   </g>
   <g id="line2d_71">
    <path clip-path="url(#padda230626)" d="M 39.246251 263.890004 
L 47.120417 257.851132 
L 54.994584 251.812259 
L 62.86875 245.773386 
L 70.742916 239.734513 
L 78.617083 233.69564 
L 86.491249 227.656767 
L 94.365415 221.617894 
L 102.239581 215.579022 
L 110.113748 209.540149 
L 117.987914 203.501276 
L 125.86208 197.462403 
L 133.736246 191.42353 
L 141.610413 185.384657 
L 149.484579 179.345785 
L 157.358745 173.306912 
L 165.232912 167.268039 
L 173.107078 161.229166 
L 180.981244 155.190293 
L 188.85541 149.15142 
L 196.729577 143.112547 
L 204.603743 137.073675 
L 212.477909 131.034802 
L 220.352075 124.995929 
L 228.226242 118.957056 
L 236.100408 112.918183 
L 243.974574 106.87931 
L 251.84874 100.840438 
L 259.722907 94.801565 
L 267.597073 88.762692 
L 275.471239 82.723819 
L 283.345406 76.684946 
L 291.219572 70.646073 
L 299.093738 64.607201 
L 306.967904 58.568328 
L 314.842071 52.529455 
L 322.716237 46.490582 
L 330.590403 40.451709 
L 338.464569 34.412836 
L 346.338736 28.373963 
L 354.212902 22.335091 
L 362.087068 16.296218 
" style="fill:none;stroke:#d62728;stroke-dasharray:5.55,2.4;stroke-dashoffset:0;stroke-width:1.5;"/>
   </g>
   <g id="patch_3">
    <path d="M 62.86875 239.758125 
L 62.86875 22.318125 
" style="fill:none;stroke:#000000;stroke-linecap:square;stroke-linejoin:miter;stroke-width:0.8;"/>
   </g>
   <g id="patch_4">
    <path d="M 397.66875 239.758125 
L 397.66875 22.318125 
" style="fill:none;stroke:#000000;stroke-linecap:square;stroke-linejoin:miter;stroke-width:0.8;"/>
   </g>
   <g id="patch_5">
    <path d="M 62.86875 239.758125 
L 397.66875 239.758125 
" style="fill:none;stroke:#000000;stroke-linecap:square;stroke-linejoin:miter;stroke-width:0.8;"/>
   </g>
   <g id="patch_6">
    <path d="M 62.86875 22.318125 
L 397.66875 22.318125 
" style="fill:none;stroke:#000000;stroke-linecap:square;stroke-linejoin:miter;stroke-width:0.8;"/>
   </g>
   <g id="text_21">
    <!-- © Scott Sievert -->
    <defs>
     <path d="M 50 72.515625 
Q 57.421875 72.515625 63.84375 69.828125 
Q 70.265625 67.140625 75.59375 61.8125 
Q 80.90625 56.5 83.546875 50.09375 
Q 86.1875 43.703125 86.1875 36.1875 
Q 86.1875 28.765625 83.546875 22.390625 
Q 80.90625 16.015625 75.59375 10.6875 
Q 70.265625 5.375 63.84375 2.6875 
Q 57.421875 0 50 0 
Q 42.578125 0 36.15625 2.6875 
Q 29.734375 5.375 24.421875 10.6875 
Q 19.09375 16.015625 16.453125 22.390625 
Q 13.8125 28.765625 13.8125 36.1875 
Q 13.8125 43.703125 16.453125 50.09375 
Q 19.09375 56.5 24.421875 61.8125 
Q 29.734375 67.140625 36.15625 69.828125 
Q 42.578125 72.515625 50 72.515625 
z
M 50 67.484375 
Q 43.609375 67.484375 38.078125 65.1875 
Q 32.5625 62.890625 27.984375 58.296875 
Q 23.390625 53.71875 21.046875 48.125 
Q 18.703125 42.53125 18.703125 36.1875 
Q 18.703125 29.890625 21.046875 24.34375 
Q 23.390625 18.796875 27.984375 14.203125 
Q 32.5625 9.625 38.078125 7.296875 
Q 43.609375 4.984375 50 4.984375 
Q 56.453125 4.984375 61.984375 7.296875 
Q 67.53125 9.625 72.125 14.203125 
Q 76.65625 18.75 78.921875 24.265625 
Q 81.203125 29.78125 81.203125 36.1875 
Q 81.203125 42.671875 78.90625 48.21875 
Q 76.609375 53.765625 72.125 58.296875 
Q 67.53125 62.890625 61.984375 65.1875 
Q 56.453125 67.484375 50 67.484375 
z
M 64.59375 55.515625 
L 64.59375 49.21875 
Q 61.375 50.828125 58.203125 51.609375 
Q 55.03125 52.390625 51.8125 52.390625 
Q 44.53125 52.390625 40.453125 48.109375 
Q 36.375 43.84375 36.375 36.1875 
Q 36.375 28.421875 40.546875 24.171875 
Q 44.734375 19.921875 52.296875 19.921875 
Q 55.421875 19.921875 58.390625 20.671875 
Q 61.375 21.4375 64.59375 23.09375 
L 64.59375 16.890625 
Q 61.328125 15.484375 57.984375 14.796875 
Q 54.640625 14.109375 51.21875 14.109375 
Q 40.671875 14.109375 34.546875 20.0625 
Q 28.421875 26.03125 28.421875 36.1875 
Q 28.421875 46.390625 34.546875 52.296875 
Q 40.671875 58.203125 51.21875 58.203125 
Q 54.78125 58.203125 58.09375 57.515625 
Q 61.421875 56.84375 64.59375 55.515625 
z
" id="DejaVuSans-169"/>
     <path d="M 53.515625 70.515625 
L 53.515625 60.890625 
Q 47.90625 63.578125 42.921875 64.890625 
Q 37.9375 66.21875 33.296875 66.21875 
Q 25.25 66.21875 20.875 63.09375 
Q 16.5 59.96875 16.5 54.203125 
Q 16.5 49.359375 19.40625 46.890625 
Q 22.3125 44.4375 30.421875 42.921875 
L 36.375 41.703125 
Q 47.40625 39.59375 52.65625 34.296875 
Q 57.90625 29 57.90625 20.125 
Q 57.90625 9.515625 50.796875 4.046875 
Q 43.703125 -1.421875 29.984375 -1.421875 
Q 24.8125 -1.421875 18.96875 -0.25 
Q 13.140625 0.921875 6.890625 3.21875 
L 6.890625 13.375 
Q 12.890625 10.015625 18.65625 8.296875 
Q 24.421875 6.59375 29.984375 6.59375 
Q 38.421875 6.59375 43.015625 9.90625 
Q 47.609375 13.234375 47.609375 19.390625 
Q 47.609375 24.75 44.3125 27.78125 
Q 41.015625 30.8125 33.5 32.328125 
L 27.484375 33.5 
Q 16.453125 35.6875 11.515625 40.375 
Q 6.59375 45.0625 6.59375 53.421875 
Q 6.59375 63.09375 13.40625 68.65625 
Q 20.21875 74.21875 32.171875 74.21875 
Q 37.3125 74.21875 42.625 73.28125 
Q 47.953125 72.359375 53.515625 70.515625 
z
" id="DejaVuSans-83"/>
     <path d="M 2.984375 54.6875 
L 12.5 54.6875 
L 29.59375 8.796875 
L 46.6875 54.6875 
L 56.203125 54.6875 
L 35.6875 0 
L 23.484375 0 
z
" id="DejaVuSans-118"/>
    </defs>
    <g style="opacity:0.3;" transform="translate(326.801254 279.425774)scale(0.1 -0.1)">
     <use xlink:href="#DejaVuSans-169"/>
     <use x="100" xlink:href="#DejaVuSans-32"/>
     <use x="131.787109" xlink:href="#DejaVuSans-83"/>
     <use x="195.263672" xlink:href="#DejaVuSans-99"/>
     <use x="250.244141" xlink:href="#DejaVuSans-111"/>
     <use x="311.425781" xlink:href="#DejaVuSans-116"/>
     <use x="350.634766" xlink:href="#DejaVuSans-116"/>
     <use x="389.84375" xlink:href="#DejaVuSans-32"/>
     <use x="421.630859" xlink:href="#DejaVuSans-83"/>
     <use x="485.107422" xlink:href="#DejaVuSans-105"/>
     <use x="512.890625" xlink:href="#DejaVuSans-101"/>
     <use x="574.414062" xlink:href="#DejaVuSans-118"/>
     <use x="633.59375" xlink:href="#DejaVuSans-101"/>
     <use x="695.117188" xlink:href="#DejaVuSans-114"/>
     <use x="736.230469" xlink:href="#DejaVuSans-116"/>
    </g>
   </g>
   <g id="text_22">
    <!-- State infection rates -->
    <defs>
     <path d="M 37.109375 75.984375 
L 37.109375 68.5 
L 28.515625 68.5 
Q 23.6875 68.5 21.796875 66.546875 
Q 19.921875 64.59375 19.921875 59.515625 
L 19.921875 54.6875 
L 34.71875 54.6875 
L 34.71875 47.703125 
L 19.921875 47.703125 
L 19.921875 0 
L 10.890625 0 
L 10.890625 47.703125 
L 2.296875 47.703125 
L 2.296875 54.6875 
L 10.890625 54.6875 
L 10.890625 58.5 
Q 10.890625 67.625 15.140625 71.796875 
Q 19.390625 75.984375 28.609375 75.984375 
z
" id="DejaVuSans-102"/>
    </defs>
    <g transform="translate(169.194375 16.318125)scale(0.12 -0.12)">
     <use xlink:href="#DejaVuSans-83"/>
     <use x="63.476562" xlink:href="#DejaVuSans-116"/>
     <use x="102.685547" xlink:href="#DejaVuSans-97"/>
     <use x="163.964844" xlink:href="#DejaVuSans-116"/>
     <use x="203.173828" xlink:href="#DejaVuSans-101"/>
     <use x="264.697266" xlink:href="#DejaVuSans-32"/>
     <use x="296.484375" xlink:href="#DejaVuSans-105"/>
     <use x="324.267578" xlink:href="#DejaVuSans-110"/>
     <use x="387.646484" xlink:href="#DejaVuSans-102"/>
     <use x="422.851562" xlink:href="#DejaVuSans-101"/>
     <use x="484.375" xlink:href="#DejaVuSans-99"/>
     <use x="539.355469" xlink:href="#DejaVuSans-116"/>
     <use x="578.564453" xlink:href="#DejaVuSans-105"/>
     <use x="606.347656" xlink:href="#DejaVuSans-111"/>
     <use x="667.529297" xlink:href="#DejaVuSans-110"/>
     <use x="730.908203" xlink:href="#DejaVuSans-32"/>
     <use x="762.695312" xlink:href="#DejaVuSans-114"/>
     <use x="803.808594" xlink:href="#DejaVuSans-97"/>
     <use x="865.087891" xlink:href="#DejaVuSans-116"/>
     <use x="904.296875" xlink:href="#DejaVuSans-101"/>
     <use x="965.820312" xlink:href="#DejaVuSans-115"/>
    </g>
   </g>
   <g id="legend_1">
    <g id="patch_7">
     <path d="M 69.86875 133.065 
L 188.135938 133.065 
Q 190.135938 133.065 190.135938 131.065 
L 190.135938 29.318125 
Q 190.135938 27.318125 188.135938 27.318125 
L 69.86875 27.318125 
Q 67.86875 27.318125 67.86875 29.318125 
L 67.86875 131.065 
Q 67.86875 133.065 69.86875 133.065 
z
" style="fill:#ffffff;opacity:0.8;stroke:#cccccc;stroke-linejoin:miter;"/>
    </g>
    <g id="text_23">
     <!-- State (cases in 7 days) -->
     <defs>
      <path d="M 31 75.875 
Q 24.46875 64.65625 21.28125 53.65625 
Q 18.109375 42.671875 18.109375 31.390625 
Q 18.109375 20.125 21.3125 9.0625 
Q 24.515625 -2 31 -13.1875 
L 23.1875 -13.1875 
Q 15.875 -1.703125 12.234375 9.375 
Q 8.59375 20.453125 8.59375 31.390625 
Q 8.59375 42.28125 12.203125 53.3125 
Q 15.828125 64.359375 23.1875 75.875 
z
" id="DejaVuSans-40"/>
      <path d="M 8.203125 72.90625 
L 55.078125 72.90625 
L 55.078125 68.703125 
L 28.609375 0 
L 18.3125 0 
L 43.21875 64.59375 
L 8.203125 64.59375 
z
" id="DejaVuSans-55"/>
      <path d="M 45.40625 46.390625 
L 45.40625 75.984375 
L 54.390625 75.984375 
L 54.390625 0 
L 45.40625 0 
L 45.40625 8.203125 
Q 42.578125 3.328125 38.25 0.953125 
Q 33.9375 -1.421875 27.875 -1.421875 
Q 17.96875 -1.421875 11.734375 6.484375 
Q 5.515625 14.40625 5.515625 27.296875 
Q 5.515625 40.1875 11.734375 48.09375 
Q 17.96875 56 27.875 56 
Q 33.9375 56 38.25 53.625 
Q 42.578125 51.265625 45.40625 46.390625 
z
M 14.796875 27.296875 
Q 14.796875 17.390625 18.875 11.75 
Q 22.953125 6.109375 30.078125 6.109375 
Q 37.203125 6.109375 41.296875 11.75 
Q 45.40625 17.390625 45.40625 27.296875 
Q 45.40625 37.203125 41.296875 42.84375 
Q 37.203125 48.484375 30.078125 48.484375 
Q 22.953125 48.484375 18.875 42.84375 
Q 14.796875 37.203125 14.796875 27.296875 
z
" id="DejaVuSans-100"/>
      <path d="M 32.171875 -5.078125 
Q 28.375 -14.84375 24.75 -17.8125 
Q 21.140625 -20.796875 15.09375 -20.796875 
L 7.90625 -20.796875 
L 7.90625 -13.28125 
L 13.1875 -13.28125 
Q 16.890625 -13.28125 18.9375 -11.515625 
Q 21 -9.765625 23.484375 -3.21875 
L 25.09375 0.875 
L 2.984375 54.6875 
L 12.5 54.6875 
L 29.59375 11.921875 
L 46.6875 54.6875 
L 56.203125 54.6875 
z
" id="DejaVuSans-121"/>
      <path d="M 8.015625 75.875 
L 15.828125 75.875 
Q 23.140625 64.359375 26.78125 53.3125 
Q 30.421875 42.28125 30.421875 31.390625 
Q 30.421875 20.453125 26.78125 9.375 
Q 23.140625 -1.703125 15.828125 -13.1875 
L 8.015625 -13.1875 
Q 14.5 -2 17.703125 9.0625 
Q 20.90625 20.125 20.90625 31.390625 
Q 20.90625 42.671875 17.703125 53.65625 
Q 14.5 64.65625 8.015625 75.875 
z
" id="DejaVuSans-41"/>
     </defs>
     <g transform="translate(71.86875 38.916562)scale(0.1 -0.1)">
      <use xlink:href="#DejaVuSans-83"/>
      <use x="63.476562" xlink:href="#DejaVuSans-116"/>
      <use x="102.685547" xlink:href="#DejaVuSans-97"/>
      <use x="163.964844" xlink:href="#DejaVuSans-116"/>
      <use x="203.173828" xlink:href="#DejaVuSans-101"/>
      <use x="264.697266" xlink:href="#DejaVuSans-32"/>
      <use x="296.484375" xlink:href="#DejaVuSans-40"/>
      <use x="335.498047" xlink:href="#DejaVuSans-99"/>
      <use x="390.478516" xlink:href="#DejaVuSans-97"/>
      <use x="451.757812" xlink:href="#DejaVuSans-115"/>
      <use x="503.857422" xlink:href="#DejaVuSans-101"/>
      <use x="565.380859" xlink:href="#DejaVuSans-115"/>
      <use x="617.480469" xlink:href="#DejaVuSans-32"/>
      <use x="649.267578" xlink:href="#DejaVuSans-105"/>
      <use x="677.050781" xlink:href="#DejaVuSans-110"/>
      <use x="740.429688" xlink:href="#DejaVuSans-32"/>
      <use x="772.216797" xlink:href="#DejaVuSans-55"/>
      <use x="835.839844" xlink:href="#DejaVuSans-32"/>
      <use x="867.626953" xlink:href="#DejaVuSans-100"/>
      <use x="931.103516" xlink:href="#DejaVuSans-97"/>
      <use x="992.382812" xlink:href="#DejaVuSans-121"/>
      <use x="1051.5625" xlink:href="#DejaVuSans-115"/>
      <use x="1103.662109" xlink:href="#DejaVuSans-41"/>
     </g>
    </g>
    <g id="line2d_72">
     <path d="M 89.002344 50.094688 
L 109.002344 50.094688 
" style="fill:none;stroke:#1f77b4;stroke-linecap:square;stroke-width:1.5;"/>
    </g>
    <g id="line2d_73">
     <defs>
      <path d="M 0 3 
C 0.795609 3 1.55874 2.683901 2.12132 2.12132 
C 2.683901 1.55874 3 0.795609 3 0 
C 3 -0.795609 2.683901 -1.55874 2.12132 -2.12132 
C 1.55874 -2.683901 0.795609 -3 0 -3 
C -0.795609 -3 -1.55874 -2.683901 -2.12132 -2.12132 
C -2.683901 -1.55874 -3 -0.795609 -3 0 
C -3 0.795609 -2.683901 1.55874 -2.12132 2.12132 
C -1.55874 2.683901 -0.795609 3 0 3 
z
" id="m51a6158e6a" style="stroke:#1f77b4;"/>
     </defs>
     <g>
      <use style="fill:#1f77b4;stroke:#1f77b4;" x="99.002344" xlink:href="#m51a6158e6a" y="50.094688"/>
     </g>
    </g>
    <g id="text_24">
     <!-- NY (1.3$\times$) -->
     <defs>
      <path d="M 9.8125 72.90625 
L 23.09375 72.90625 
L 55.421875 11.921875 
L 55.421875 72.90625 
L 64.984375 72.90625 
L 64.984375 0 
L 51.703125 0 
L 19.390625 60.984375 
L 19.390625 0 
L 9.8125 0 
z
" id="DejaVuSans-78"/>
      <path d="M -0.203125 72.90625 
L 10.40625 72.90625 
L 30.609375 42.921875 
L 50.6875 72.90625 
L 61.28125 72.90625 
L 35.5 34.71875 
L 35.5 0 
L 25.59375 0 
L 25.59375 34.71875 
z
" id="DejaVuSans-89"/>
      <path d="M 40.578125 39.3125 
Q 47.65625 37.796875 51.625 33 
Q 55.609375 28.21875 55.609375 21.1875 
Q 55.609375 10.40625 48.1875 4.484375 
Q 40.765625 -1.421875 27.09375 -1.421875 
Q 22.515625 -1.421875 17.65625 -0.515625 
Q 12.796875 0.390625 7.625 2.203125 
L 7.625 11.71875 
Q 11.71875 9.328125 16.59375 8.109375 
Q 21.484375 6.890625 26.8125 6.890625 
Q 36.078125 6.890625 40.9375 10.546875 
Q 45.796875 14.203125 45.796875 21.1875 
Q 45.796875 27.640625 41.28125 31.265625 
Q 36.765625 34.90625 28.71875 34.90625 
L 20.21875 34.90625 
L 20.21875 43.015625 
L 29.109375 43.015625 
Q 36.375 43.015625 40.234375 45.921875 
Q 44.09375 48.828125 44.09375 54.296875 
Q 44.09375 59.90625 40.109375 62.90625 
Q 36.140625 65.921875 28.71875 65.921875 
Q 24.65625 65.921875 20.015625 65.03125 
Q 15.375 64.15625 9.8125 62.3125 
L 9.8125 71.09375 
Q 15.4375 72.65625 20.34375 73.4375 
Q 25.25 74.21875 29.59375 74.21875 
Q 40.828125 74.21875 47.359375 69.109375 
Q 53.90625 64.015625 53.90625 55.328125 
Q 53.90625 49.265625 50.4375 45.09375 
Q 46.96875 40.921875 40.578125 39.3125 
z
" id="DejaVuSans-51"/>
      <path d="M 70.125 53.71875 
L 47.796875 31.296875 
L 70.125 8.984375 
L 64.3125 3.078125 
L 41.890625 25.484375 
L 19.484375 3.078125 
L 13.71875 8.984375 
L 35.984375 31.296875 
L 13.71875 53.71875 
L 19.484375 59.625 
L 41.890625 37.203125 
L 64.3125 59.625 
z
" id="DejaVuSans-215"/>
     </defs>
     <g transform="translate(117.002344 53.594688)scale(0.1 -0.1)">
      <use transform="translate(0 0.125)" xlink:href="#DejaVuSans-78"/>
      <use transform="translate(74.804688 0.125)" xlink:href="#DejaVuSans-89"/>
      <use transform="translate(135.888672 0.125)" xlink:href="#DejaVuSans-32"/>
      <use transform="translate(167.675781 0.125)" xlink:href="#DejaVuSans-40"/>
      <use transform="translate(206.689453 0.125)" xlink:href="#DejaVuSans-49"/>
      <use transform="translate(270.3125 0.125)" xlink:href="#DejaVuSans-46"/>
      <use transform="translate(302.099609 0.125)" xlink:href="#DejaVuSans-51"/>
      <use transform="translate(365.722656 0.125)" xlink:href="#DejaVuSans-215"/>
      <use transform="translate(449.511719 0.125)" xlink:href="#DejaVuSans-41"/>
     </g>
    </g>
    <g id="line2d_74">
     <path d="M 89.002344 64.772813 
L 109.002344 64.772813 
" style="fill:none;stroke:#ff7f0e;stroke-linecap:square;stroke-width:1.5;"/>
    </g>
    <g id="line2d_75">
     <defs>
      <path d="M 0 3 
C 0.795609 3 1.55874 2.683901 2.12132 2.12132 
C 2.683901 1.55874 3 0.795609 3 0 
C 3 -0.795609 2.683901 -1.55874 2.12132 -2.12132 
C 1.55874 -2.683901 0.795609 -3 0 -3 
C -0.795609 -3 -1.55874 -2.683901 -2.12132 -2.12132 
C -2.683901 -1.55874 -3 -0.795609 -3 0 
C -3 0.795609 -2.683901 1.55874 -2.12132 2.12132 
C -1.55874 2.683901 -0.795609 3 0 3 
z
" id="m251ab68b82" style="stroke:#ff7f0e;"/>
     </defs>
     <g>
      <use style="fill:#ff7f0e;stroke:#ff7f0e;" x="99.002344" xlink:href="#m251ab68b82" y="64.772813"/>
     </g>
    </g>
    <g id="text_25">
     <!-- MI (1.4$\times$) -->
     <defs>
      <path d="M 9.8125 72.90625 
L 19.671875 72.90625 
L 19.671875 0 
L 9.8125 0 
z
" id="DejaVuSans-73"/>
      <path d="M 37.796875 64.3125 
L 12.890625 25.390625 
L 37.796875 25.390625 
z
M 35.203125 72.90625 
L 47.609375 72.90625 
L 47.609375 25.390625 
L 58.015625 25.390625 
L 58.015625 17.1875 
L 47.609375 17.1875 
L 47.609375 0 
L 37.796875 0 
L 37.796875 17.1875 
L 4.890625 17.1875 
L 4.890625 26.703125 
z
" id="DejaVuSans-52"/>
     </defs>
     <g transform="translate(117.002344 68.272813)scale(0.1 -0.1)">
      <use transform="translate(0 0.125)" xlink:href="#DejaVuSans-77"/>
      <use transform="translate(86.279297 0.125)" xlink:href="#DejaVuSans-73"/>
      <use transform="translate(115.771484 0.125)" xlink:href="#DejaVuSans-32"/>
      <use transform="translate(147.558594 0.125)" xlink:href="#DejaVuSans-40"/>
      <use transform="translate(186.572266 0.125)" xlink:href="#DejaVuSans-49"/>
      <use transform="translate(250.195312 0.125)" xlink:href="#DejaVuSans-46"/>
      <use transform="translate(281.982422 0.125)" xlink:href="#DejaVuSans-52"/>
      <use transform="translate(345.605469 0.125)" xlink:href="#DejaVuSans-215"/>
      <use transform="translate(429.394531 0.125)" xlink:href="#DejaVuSans-41"/>
     </g>
    </g>
    <g id="line2d_76">
     <path d="M 89.002344 79.450938 
L 109.002344 79.450938 
" style="fill:none;stroke:#2ca02c;stroke-linecap:square;stroke-width:1.5;"/>
    </g>
    <g id="line2d_77">
     <defs>
      <path d="M 0 3 
C 0.795609 3 1.55874 2.683901 2.12132 2.12132 
C 2.683901 1.55874 3 0.795609 3 0 
C 3 -0.795609 2.683901 -1.55874 2.12132 -2.12132 
C 1.55874 -2.683901 0.795609 -3 0 -3 
C -0.795609 -3 -1.55874 -2.683901 -2.12132 -2.12132 
C -2.683901 -1.55874 -3 -0.795609 -3 0 
C -3 0.795609 -2.683901 1.55874 -2.12132 2.12132 
C -1.55874 2.683901 -0.795609 3 0 3 
z
" id="m50bb202be7" style="stroke:#2ca02c;"/>
     </defs>
     <g>
      <use style="fill:#2ca02c;stroke:#2ca02c;" x="99.002344" xlink:href="#m50bb202be7" y="79.450938"/>
     </g>
    </g>
    <g id="text_26">
     <!-- WA (1.1$\times$) -->
     <defs>
      <path d="M 3.328125 72.90625 
L 13.28125 72.90625 
L 28.609375 11.28125 
L 43.890625 72.90625 
L 54.984375 72.90625 
L 70.3125 11.28125 
L 85.59375 72.90625 
L 95.609375 72.90625 
L 77.296875 0 
L 64.890625 0 
L 49.515625 63.28125 
L 33.984375 0 
L 21.578125 0 
z
" id="DejaVuSans-87"/>
     </defs>
     <g transform="translate(117.002344 82.950938)scale(0.1 -0.1)">
      <use transform="translate(0 0.125)" xlink:href="#DejaVuSans-87"/>
      <use transform="translate(98.876953 0.125)" xlink:href="#DejaVuSans-65"/>
      <use transform="translate(167.285156 0.125)" xlink:href="#DejaVuSans-32"/>
      <use transform="translate(199.072266 0.125)" xlink:href="#DejaVuSans-40"/>
      <use transform="translate(238.085938 0.125)" xlink:href="#DejaVuSans-49"/>
      <use transform="translate(301.708984 0.125)" xlink:href="#DejaVuSans-46"/>
      <use transform="translate(333.496094 0.125)" xlink:href="#DejaVuSans-49"/>
      <use transform="translate(397.119141 0.125)" xlink:href="#DejaVuSans-215"/>
      <use transform="translate(480.908203 0.125)" xlink:href="#DejaVuSans-41"/>
     </g>
    </g>
    <g id="line2d_78">
     <path d="M 89.002344 94.129063 
L 109.002344 94.129063 
" style="fill:none;stroke:#d62728;stroke-linecap:square;stroke-width:1.5;"/>
    </g>
    <g id="line2d_79">
     <defs>
      <path d="M 0 3 
C 0.795609 3 1.55874 2.683901 2.12132 2.12132 
C 2.683901 1.55874 3 0.795609 3 0 
C 3 -0.795609 2.683901 -1.55874 2.12132 -2.12132 
C 1.55874 -2.683901 0.795609 -3 0 -3 
C -0.795609 -3 -1.55874 -2.683901 -2.12132 -2.12132 
C -2.683901 -1.55874 -3 -0.795609 -3 0 
C -3 0.795609 -2.683901 1.55874 -2.12132 2.12132 
C -1.55874 2.683901 -0.795609 3 0 3 
z
" id="mc3f747e96c" style="stroke:#d62728;"/>
     </defs>
     <g>
      <use style="fill:#d62728;stroke:#d62728;" x="99.002344" xlink:href="#mc3f747e96c" y="94.129063"/>
     </g>
    </g>
    <g id="text_27">
     <!-- WI (1.3$\times$) -->
     <g transform="translate(117.002344 97.629063)scale(0.1 -0.1)">
      <use transform="translate(0 0.125)" xlink:href="#DejaVuSans-87"/>
      <use transform="translate(98.876953 0.125)" xlink:href="#DejaVuSans-73"/>
      <use transform="translate(128.369141 0.125)" xlink:href="#DejaVuSans-32"/>
      <use transform="translate(160.15625 0.125)" xlink:href="#DejaVuSans-40"/>
      <use transform="translate(199.169922 0.125)" xlink:href="#DejaVuSans-49"/>
      <use transform="translate(262.792969 0.125)" xlink:href="#DejaVuSans-46"/>
      <use transform="translate(294.580078 0.125)" xlink:href="#DejaVuSans-51"/>
      <use transform="translate(358.203125 0.125)" xlink:href="#DejaVuSans-215"/>
      <use transform="translate(441.992188 0.125)" xlink:href="#DejaVuSans-41"/>
     </g>
    </g>
    <g id="line2d_80">
     <path d="M 89.002344 108.807188 
L 109.002344 108.807188 
" style="fill:none;stroke:#9467bd;stroke-linecap:square;stroke-width:1.5;"/>
    </g>
    <g id="line2d_81">
     <defs>
      <path d="M 0 3 
C 0.795609 3 1.55874 2.683901 2.12132 2.12132 
C 2.683901 1.55874 3 0.795609 3 0 
C 3 -0.795609 2.683901 -1.55874 2.12132 -2.12132 
C 1.55874 -2.683901 0.795609 -3 0 -3 
C -0.795609 -3 -1.55874 -2.683901 -2.12132 -2.12132 
C -2.683901 -1.55874 -3 -0.795609 -3 0 
C -3 0.795609 -2.683901 1.55874 -2.12132 2.12132 
C -1.55874 2.683901 -0.795609 3 0 3 
z
" id="md0b686ac2a" style="stroke:#9467bd;"/>
     </defs>
     <g>
      <use style="fill:#9467bd;stroke:#9467bd;" x="99.002344" xlink:href="#md0b686ac2a" y="108.807188"/>
     </g>
    </g>
    <g id="text_28">
     <!-- MN (1.3$\times$) -->
     <g transform="translate(117.002344 112.307188)scale(0.1 -0.1)">
      <use transform="translate(0 0.125)" xlink:href="#DejaVuSans-77"/>
      <use transform="translate(86.279297 0.125)" xlink:href="#DejaVuSans-78"/>
      <use transform="translate(161.083984 0.125)" xlink:href="#DejaVuSans-32"/>
      <use transform="translate(192.871094 0.125)" xlink:href="#DejaVuSans-40"/>
      <use transform="translate(231.884766 0.125)" xlink:href="#DejaVuSans-49"/>
      <use transform="translate(295.507812 0.125)" xlink:href="#DejaVuSans-46"/>
      <use transform="translate(327.294922 0.125)" xlink:href="#DejaVuSans-51"/>
      <use transform="translate(390.917969 0.125)" xlink:href="#DejaVuSans-215"/>
      <use transform="translate(474.707031 0.125)" xlink:href="#DejaVuSans-41"/>
     </g>
    </g>
    <g id="line2d_82">
     <path d="M 89.002344 123.485313 
L 109.002344 123.485313 
" style="fill:none;stroke:#d62728;stroke-dasharray:5.55,2.4;stroke-dashoffset:0;stroke-width:1.5;"/>
    </g>
    <g id="line2d_83"/>
    <g id="text_29">
     <!-- (7.6×) -->
     <defs>
      <path d="M 33.015625 40.375 
Q 26.375 40.375 22.484375 35.828125 
Q 18.609375 31.296875 18.609375 23.390625 
Q 18.609375 15.53125 22.484375 10.953125 
Q 26.375 6.390625 33.015625 6.390625 
Q 39.65625 6.390625 43.53125 10.953125 
Q 47.40625 15.53125 47.40625 23.390625 
Q 47.40625 31.296875 43.53125 35.828125 
Q 39.65625 40.375 33.015625 40.375 
z
M 52.59375 71.296875 
L 52.59375 62.3125 
Q 48.875 64.0625 45.09375 64.984375 
Q 41.3125 65.921875 37.59375 65.921875 
Q 27.828125 65.921875 22.671875 59.328125 
Q 17.53125 52.734375 16.796875 39.40625 
Q 19.671875 43.65625 24.015625 45.921875 
Q 28.375 48.1875 33.59375 48.1875 
Q 44.578125 48.1875 50.953125 41.515625 
Q 57.328125 34.859375 57.328125 23.390625 
Q 57.328125 12.15625 50.6875 5.359375 
Q 44.046875 -1.421875 33.015625 -1.421875 
Q 20.359375 -1.421875 13.671875 8.265625 
Q 6.984375 17.96875 6.984375 36.375 
Q 6.984375 53.65625 15.1875 63.9375 
Q 23.390625 74.21875 37.203125 74.21875 
Q 40.921875 74.21875 44.703125 73.484375 
Q 48.484375 72.75 52.59375 71.296875 
z
" id="DejaVuSans-54"/>
     </defs>
     <g transform="translate(117.002344 126.985313)scale(0.1 -0.1)">
      <use xlink:href="#DejaVuSans-40"/>
      <use x="39.013672" xlink:href="#DejaVuSans-55"/>
      <use x="102.636719" xlink:href="#DejaVuSans-46"/>
      <use x="134.423828" xlink:href="#DejaVuSans-54"/>
      <use x="198.046875" xlink:href="#DejaVuSans-215"/>
      <use x="281.835938" xlink:href="#DejaVuSans-41"/>
     </g>
    </g>
   </g>
   <g id="line2d_84">
    <path clip-path="url(#padda230626)" d="M 18.299426 289.705462 
L 23.497919 266.1726 
L 31.372085 251.679306 
L 39.246251 237.186011 
L 47.120417 222.456449 
L 54.994584 218.801428 
L 62.86875 212.68777 
L 70.742916 208.558904 
L 78.617083 203.820712 
L 86.491249 195.310584 
L 94.365415 189.963308 
L 102.239581 182.209555 
L 110.113748 178.39732 
L 117.987914 172.946625 
L 125.86208 165.230647 
L 133.736246 153.725995 
L 141.610413 142.107691 
L 149.484579 130.883809 
L 157.358745 122.996998 
L 165.232912 115.017512 
L 173.107078 108.339794 
L 180.981244 104.020415 
L 188.85541 98.722445 
L 196.729577 95.278191 
L 204.603743 92.449357 
L 212.477909 88.714952 
L 220.352075 86.414898 
L 228.226242 83.902262 
L 236.100408 81.367329 
L 243.974574 79.25602 
L 251.84874 77.151932 
L 259.722907 74.991097 
L 267.597073 72.661135 
L 275.471239 71.269338 
L 283.345406 69.984099 
L 291.219572 68.535218 
L 299.093738 67.188378 
L 306.967904 65.763485 
L 314.842071 64.424746 
L 322.716237 63.239342 
L 330.590403 62.306185 
L 338.464569 61.615508 
L 346.338736 60.859877 
L 354.212902 59.696354 
L 362.087068 58.880614 
" style="fill:none;stroke:#1f77b4;stroke-linecap:square;stroke-width:1.5;"/>
    <g clip-path="url(#padda230626)">
     <use style="fill:#1f77b4;stroke:#1f77b4;" x="-0.12458" xlink:href="#m51a6158e6a" y="316.311163"/>
     <use style="fill:#1f77b4;stroke:#1f77b4;" x="7.749586" xlink:href="#m51a6158e6a" y="316.311163"/>
     <use style="fill:#1f77b4;stroke:#1f77b4;" x="15.623752" xlink:href="#m51a6158e6a" y="301.817868"/>
     <use style="fill:#1f77b4;stroke:#1f77b4;" x="23.497919" xlink:href="#m51a6158e6a" y="266.1726"/>
     <use style="fill:#1f77b4;stroke:#1f77b4;" x="31.372085" xlink:href="#m51a6158e6a" y="251.679306"/>
     <use style="fill:#1f77b4;stroke:#1f77b4;" x="39.246251" xlink:href="#m51a6158e6a" y="237.186011"/>
     <use style="fill:#1f77b4;stroke:#1f77b4;" x="47.120417" xlink:href="#m51a6158e6a" y="222.456449"/>
     <use style="fill:#1f77b4;stroke:#1f77b4;" x="54.994584" xlink:href="#m51a6158e6a" y="218.801428"/>
     <use style="fill:#1f77b4;stroke:#1f77b4;" x="62.86875" xlink:href="#m51a6158e6a" y="212.68777"/>
     <use style="fill:#1f77b4;stroke:#1f77b4;" x="70.742916" xlink:href="#m51a6158e6a" y="208.558904"/>
     <use style="fill:#1f77b4;stroke:#1f77b4;" x="78.617083" xlink:href="#m51a6158e6a" y="203.820712"/>
     <use style="fill:#1f77b4;stroke:#1f77b4;" x="86.491249" xlink:href="#m51a6158e6a" y="195.310584"/>
     <use style="fill:#1f77b4;stroke:#1f77b4;" x="94.365415" xlink:href="#m51a6158e6a" y="189.963308"/>
     <use style="fill:#1f77b4;stroke:#1f77b4;" x="102.239581" xlink:href="#m51a6158e6a" y="182.209555"/>
     <use style="fill:#1f77b4;stroke:#1f77b4;" x="110.113748" xlink:href="#m51a6158e6a" y="178.39732"/>
     <use style="fill:#1f77b4;stroke:#1f77b4;" x="117.987914" xlink:href="#m51a6158e6a" y="172.946625"/>
     <use style="fill:#1f77b4;stroke:#1f77b4;" x="125.86208" xlink:href="#m51a6158e6a" y="165.230647"/>
     <use style="fill:#1f77b4;stroke:#1f77b4;" x="133.736246" xlink:href="#m51a6158e6a" y="153.725995"/>
     <use style="fill:#1f77b4;stroke:#1f77b4;" x="141.610413" xlink:href="#m51a6158e6a" y="142.107691"/>
     <use style="fill:#1f77b4;stroke:#1f77b4;" x="149.484579" xlink:href="#m51a6158e6a" y="130.883809"/>
     <use style="fill:#1f77b4;stroke:#1f77b4;" x="157.358745" xlink:href="#m51a6158e6a" y="122.996998"/>
     <use style="fill:#1f77b4;stroke:#1f77b4;" x="165.232912" xlink:href="#m51a6158e6a" y="115.017512"/>
     <use style="fill:#1f77b4;stroke:#1f77b4;" x="173.107078" xlink:href="#m51a6158e6a" y="108.339794"/>
     <use style="fill:#1f77b4;stroke:#1f77b4;" x="180.981244" xlink:href="#m51a6158e6a" y="104.020415"/>
     <use style="fill:#1f77b4;stroke:#1f77b4;" x="188.85541" xlink:href="#m51a6158e6a" y="98.722445"/>
     <use style="fill:#1f77b4;stroke:#1f77b4;" x="196.729577" xlink:href="#m51a6158e6a" y="95.278191"/>
     <use style="fill:#1f77b4;stroke:#1f77b4;" x="204.603743" xlink:href="#m51a6158e6a" y="92.449357"/>
     <use style="fill:#1f77b4;stroke:#1f77b4;" x="212.477909" xlink:href="#m51a6158e6a" y="88.714952"/>
     <use style="fill:#1f77b4;stroke:#1f77b4;" x="220.352075" xlink:href="#m51a6158e6a" y="86.414898"/>
     <use style="fill:#1f77b4;stroke:#1f77b4;" x="228.226242" xlink:href="#m51a6158e6a" y="83.902262"/>
     <use style="fill:#1f77b4;stroke:#1f77b4;" x="236.100408" xlink:href="#m51a6158e6a" y="81.367329"/>
     <use style="fill:#1f77b4;stroke:#1f77b4;" x="243.974574" xlink:href="#m51a6158e6a" y="79.25602"/>
     <use style="fill:#1f77b4;stroke:#1f77b4;" x="251.84874" xlink:href="#m51a6158e6a" y="77.151932"/>
     <use style="fill:#1f77b4;stroke:#1f77b4;" x="259.722907" xlink:href="#m51a6158e6a" y="74.991097"/>
     <use style="fill:#1f77b4;stroke:#1f77b4;" x="267.597073" xlink:href="#m51a6158e6a" y="72.661135"/>
     <use style="fill:#1f77b4;stroke:#1f77b4;" x="275.471239" xlink:href="#m51a6158e6a" y="71.269338"/>
     <use style="fill:#1f77b4;stroke:#1f77b4;" x="283.345406" xlink:href="#m51a6158e6a" y="69.984099"/>
     <use style="fill:#1f77b4;stroke:#1f77b4;" x="291.219572" xlink:href="#m51a6158e6a" y="68.535218"/>
     <use style="fill:#1f77b4;stroke:#1f77b4;" x="299.093738" xlink:href="#m51a6158e6a" y="67.188378"/>
     <use style="fill:#1f77b4;stroke:#1f77b4;" x="306.967904" xlink:href="#m51a6158e6a" y="65.763485"/>
     <use style="fill:#1f77b4;stroke:#1f77b4;" x="314.842071" xlink:href="#m51a6158e6a" y="64.424746"/>
     <use style="fill:#1f77b4;stroke:#1f77b4;" x="322.716237" xlink:href="#m51a6158e6a" y="63.239342"/>
     <use style="fill:#1f77b4;stroke:#1f77b4;" x="330.590403" xlink:href="#m51a6158e6a" y="62.306185"/>
     <use style="fill:#1f77b4;stroke:#1f77b4;" x="338.464569" xlink:href="#m51a6158e6a" y="61.615508"/>
     <use style="fill:#1f77b4;stroke:#1f77b4;" x="346.338736" xlink:href="#m51a6158e6a" y="60.859877"/>
     <use style="fill:#1f77b4;stroke:#1f77b4;" x="354.212902" xlink:href="#m51a6158e6a" y="59.696354"/>
     <use style="fill:#1f77b4;stroke:#1f77b4;" x="362.087068" xlink:href="#m51a6158e6a" y="58.880614"/>
    </g>
   </g>
   <g id="line2d_85">
    <path clip-path="url(#padda230626)" d="M 70.742916 287.876309 
L 78.617083 287.876309 
L 86.491249 250.411685 
L 94.365415 235.064827 
L 102.239581 229.259713 
L 110.113748 219.353164 
L 117.987914 218.962323 
L 125.86208 215.085652 
L 133.736246 210.744036 
L 141.610413 180.862106 
L 149.484579 170.509142 
L 157.358745 162.940922 
L 165.232912 157.253684 
L 173.107078 152.064174 
L 180.981244 145.747094 
L 188.85541 140.571538 
L 196.729577 135.829314 
L 204.603743 130.820518 
L 212.477909 125.865134 
L 220.352075 122.340578 
L 228.226242 118.768566 
L 236.100408 115.442807 
L 243.974574 111.320025 
L 251.84874 108.195093 
L 259.722907 104.83862 
L 267.597073 102.418064 
L 275.471239 100.441895 
L 283.345406 98.532463 
L 291.219572 96.529599 
L 299.093738 95.064828 
L 306.967904 93.903315 
L 314.842071 92.695562 
L 322.716237 91.609805 
L 330.590403 91.055325 
L 338.464569 90.224378 
L 346.338736 89.139728 
L 354.212902 88.338199 
L 362.087068 87.438778 
" style="fill:none;stroke:#ff7f0e;stroke-linecap:square;stroke-width:1.5;"/>
    <g clip-path="url(#padda230626)">
     <use style="fill:#ff7f0e;stroke:#ff7f0e;" x="70.742916" xlink:href="#m251ab68b82" y="287.876309"/>
     <use style="fill:#ff7f0e;stroke:#ff7f0e;" x="78.617083" xlink:href="#m251ab68b82" y="287.876309"/>
     <use style="fill:#ff7f0e;stroke:#ff7f0e;" x="86.491249" xlink:href="#m251ab68b82" y="250.411685"/>
     <use style="fill:#ff7f0e;stroke:#ff7f0e;" x="94.365415" xlink:href="#m251ab68b82" y="235.064827"/>
     <use style="fill:#ff7f0e;stroke:#ff7f0e;" x="102.239581" xlink:href="#m251ab68b82" y="229.259713"/>
     <use style="fill:#ff7f0e;stroke:#ff7f0e;" x="110.113748" xlink:href="#m251ab68b82" y="219.353164"/>
     <use style="fill:#ff7f0e;stroke:#ff7f0e;" x="117.987914" xlink:href="#m251ab68b82" y="218.962323"/>
     <use style="fill:#ff7f0e;stroke:#ff7f0e;" x="125.86208" xlink:href="#m251ab68b82" y="215.085652"/>
     <use style="fill:#ff7f0e;stroke:#ff7f0e;" x="133.736246" xlink:href="#m251ab68b82" y="210.744036"/>
     <use style="fill:#ff7f0e;stroke:#ff7f0e;" x="141.610413" xlink:href="#m251ab68b82" y="180.862106"/>
     <use style="fill:#ff7f0e;stroke:#ff7f0e;" x="149.484579" xlink:href="#m251ab68b82" y="170.509142"/>
     <use style="fill:#ff7f0e;stroke:#ff7f0e;" x="157.358745" xlink:href="#m251ab68b82" y="162.940922"/>
     <use style="fill:#ff7f0e;stroke:#ff7f0e;" x="165.232912" xlink:href="#m251ab68b82" y="157.253684"/>
     <use style="fill:#ff7f0e;stroke:#ff7f0e;" x="173.107078" xlink:href="#m251ab68b82" y="152.064174"/>
     <use style="fill:#ff7f0e;stroke:#ff7f0e;" x="180.981244" xlink:href="#m251ab68b82" y="145.747094"/>
     <use style="fill:#ff7f0e;stroke:#ff7f0e;" x="188.85541" xlink:href="#m251ab68b82" y="140.571538"/>
     <use style="fill:#ff7f0e;stroke:#ff7f0e;" x="196.729577" xlink:href="#m251ab68b82" y="135.829314"/>
     <use style="fill:#ff7f0e;stroke:#ff7f0e;" x="204.603743" xlink:href="#m251ab68b82" y="130.820518"/>
     <use style="fill:#ff7f0e;stroke:#ff7f0e;" x="212.477909" xlink:href="#m251ab68b82" y="125.865134"/>
     <use style="fill:#ff7f0e;stroke:#ff7f0e;" x="220.352075" xlink:href="#m251ab68b82" y="122.340578"/>
     <use style="fill:#ff7f0e;stroke:#ff7f0e;" x="228.226242" xlink:href="#m251ab68b82" y="118.768566"/>
     <use style="fill:#ff7f0e;stroke:#ff7f0e;" x="236.100408" xlink:href="#m251ab68b82" y="115.442807"/>
     <use style="fill:#ff7f0e;stroke:#ff7f0e;" x="243.974574" xlink:href="#m251ab68b82" y="111.320025"/>
     <use style="fill:#ff7f0e;stroke:#ff7f0e;" x="251.84874" xlink:href="#m251ab68b82" y="108.195093"/>
     <use style="fill:#ff7f0e;stroke:#ff7f0e;" x="259.722907" xlink:href="#m251ab68b82" y="104.83862"/>
     <use style="fill:#ff7f0e;stroke:#ff7f0e;" x="267.597073" xlink:href="#m251ab68b82" y="102.418064"/>
     <use style="fill:#ff7f0e;stroke:#ff7f0e;" x="275.471239" xlink:href="#m251ab68b82" y="100.441895"/>
     <use style="fill:#ff7f0e;stroke:#ff7f0e;" x="283.345406" xlink:href="#m251ab68b82" y="98.532463"/>
     <use style="fill:#ff7f0e;stroke:#ff7f0e;" x="291.219572" xlink:href="#m251ab68b82" y="96.529599"/>
     <use style="fill:#ff7f0e;stroke:#ff7f0e;" x="299.093738" xlink:href="#m251ab68b82" y="95.064828"/>
     <use style="fill:#ff7f0e;stroke:#ff7f0e;" x="306.967904" xlink:href="#m251ab68b82" y="93.903315"/>
     <use style="fill:#ff7f0e;stroke:#ff7f0e;" x="314.842071" xlink:href="#m251ab68b82" y="92.695562"/>
     <use style="fill:#ff7f0e;stroke:#ff7f0e;" x="322.716237" xlink:href="#m251ab68b82" y="91.609805"/>
     <use style="fill:#ff7f0e;stroke:#ff7f0e;" x="330.590403" xlink:href="#m251ab68b82" y="91.055325"/>
     <use style="fill:#ff7f0e;stroke:#ff7f0e;" x="338.464569" xlink:href="#m251ab68b82" y="90.224378"/>
     <use style="fill:#ff7f0e;stroke:#ff7f0e;" x="346.338736" xlink:href="#m251ab68b82" y="89.139728"/>
     <use style="fill:#ff7f0e;stroke:#ff7f0e;" x="354.212902" xlink:href="#m251ab68b82" y="88.338199"/>
     <use style="fill:#ff7f0e;stroke:#ff7f0e;" x="362.087068" xlink:href="#m251ab68b82" y="87.438778"/>
    </g>
   </g>
   <g id="line2d_86">
    <path clip-path="url(#padda230626)" d="M -1 238.692435 
L -0.12458 237.458922 
L 7.749586 231.138409 
L 15.623752 224.233252 
L 23.497919 216.195432 
L 31.372085 206.42362 
L 39.246251 203.561976 
L 47.120417 198.41548 
L 54.994584 193.224103 
L 62.86875 188.234578 
L 70.742916 178.954441 
L 78.617083 174.943304 
L 86.491249 170.45144 
L 94.365415 166.300951 
L 102.239581 162.632424 
L 110.113748 160.480963 
L 117.987914 157.085887 
L 125.86208 154.280662 
L 133.736246 151.725979 
L 141.610413 147.96816 
L 149.484579 145.167586 
L 157.358745 141.728497 
L 165.232912 139.467435 
L 173.107078 136.739254 
L 180.981244 133.36448 
L 188.85541 132.404481 
L 196.729577 127.889677 
L 204.603743 124.514328 
L 212.477909 121.710484 
L 220.352075 119.04979 
L 228.226242 117.874819 
L 236.100408 117.423505 
L 243.974574 116.285506 
L 251.84874 112.852749 
L 259.722907 111.676661 
L 267.597073 110.13783 
L 275.471239 108.824653 
L 283.345406 107.802484 
L 291.219572 107.072186 
L 299.093738 106.095868 
L 306.967904 104.953139 
L 314.842071 104.354614 
L 322.716237 103.653791 
L 330.590403 103.274807 
L 338.464569 103.021284 
L 346.338736 102.714019 
L 354.212902 102.540722 
L 362.087068 101.837162 
" style="fill:none;stroke:#2ca02c;stroke-linecap:square;stroke-width:1.5;"/>
    <g clip-path="url(#padda230626)">
     <use style="fill:#2ca02c;stroke:#2ca02c;" x="-1" xlink:href="#m50bb202be7" y="238.692435"/>
     <use style="fill:#2ca02c;stroke:#2ca02c;" x="-0.12458" xlink:href="#m50bb202be7" y="237.458922"/>
     <use style="fill:#2ca02c;stroke:#2ca02c;" x="7.749586" xlink:href="#m50bb202be7" y="231.138409"/>
     <use style="fill:#2ca02c;stroke:#2ca02c;" x="15.623752" xlink:href="#m50bb202be7" y="224.233252"/>
     <use style="fill:#2ca02c;stroke:#2ca02c;" x="23.497919" xlink:href="#m50bb202be7" y="216.195432"/>
     <use style="fill:#2ca02c;stroke:#2ca02c;" x="31.372085" xlink:href="#m50bb202be7" y="206.42362"/>
     <use style="fill:#2ca02c;stroke:#2ca02c;" x="39.246251" xlink:href="#m50bb202be7" y="203.561976"/>
     <use style="fill:#2ca02c;stroke:#2ca02c;" x="47.120417" xlink:href="#m50bb202be7" y="198.41548"/>
     <use style="fill:#2ca02c;stroke:#2ca02c;" x="54.994584" xlink:href="#m50bb202be7" y="193.224103"/>
     <use style="fill:#2ca02c;stroke:#2ca02c;" x="62.86875" xlink:href="#m50bb202be7" y="188.234578"/>
     <use style="fill:#2ca02c;stroke:#2ca02c;" x="70.742916" xlink:href="#m50bb202be7" y="178.954441"/>
     <use style="fill:#2ca02c;stroke:#2ca02c;" x="78.617083" xlink:href="#m50bb202be7" y="174.943304"/>
     <use style="fill:#2ca02c;stroke:#2ca02c;" x="86.491249" xlink:href="#m50bb202be7" y="170.45144"/>
     <use style="fill:#2ca02c;stroke:#2ca02c;" x="94.365415" xlink:href="#m50bb202be7" y="166.300951"/>
     <use style="fill:#2ca02c;stroke:#2ca02c;" x="102.239581" xlink:href="#m50bb202be7" y="162.632424"/>
     <use style="fill:#2ca02c;stroke:#2ca02c;" x="110.113748" xlink:href="#m50bb202be7" y="160.480963"/>
     <use style="fill:#2ca02c;stroke:#2ca02c;" x="117.987914" xlink:href="#m50bb202be7" y="157.085887"/>
     <use style="fill:#2ca02c;stroke:#2ca02c;" x="125.86208" xlink:href="#m50bb202be7" y="154.280662"/>
     <use style="fill:#2ca02c;stroke:#2ca02c;" x="133.736246" xlink:href="#m50bb202be7" y="151.725979"/>
     <use style="fill:#2ca02c;stroke:#2ca02c;" x="141.610413" xlink:href="#m50bb202be7" y="147.96816"/>
     <use style="fill:#2ca02c;stroke:#2ca02c;" x="149.484579" xlink:href="#m50bb202be7" y="145.167586"/>
     <use style="fill:#2ca02c;stroke:#2ca02c;" x="157.358745" xlink:href="#m50bb202be7" y="141.728497"/>
     <use style="fill:#2ca02c;stroke:#2ca02c;" x="165.232912" xlink:href="#m50bb202be7" y="139.467435"/>
     <use style="fill:#2ca02c;stroke:#2ca02c;" x="173.107078" xlink:href="#m50bb202be7" y="136.739254"/>
     <use style="fill:#2ca02c;stroke:#2ca02c;" x="180.981244" xlink:href="#m50bb202be7" y="133.36448"/>
     <use style="fill:#2ca02c;stroke:#2ca02c;" x="188.85541" xlink:href="#m50bb202be7" y="132.404481"/>
     <use style="fill:#2ca02c;stroke:#2ca02c;" x="196.729577" xlink:href="#m50bb202be7" y="127.889677"/>
     <use style="fill:#2ca02c;stroke:#2ca02c;" x="204.603743" xlink:href="#m50bb202be7" y="124.514328"/>
     <use style="fill:#2ca02c;stroke:#2ca02c;" x="212.477909" xlink:href="#m50bb202be7" y="121.710484"/>
     <use style="fill:#2ca02c;stroke:#2ca02c;" x="220.352075" xlink:href="#m50bb202be7" y="119.04979"/>
     <use style="fill:#2ca02c;stroke:#2ca02c;" x="228.226242" xlink:href="#m50bb202be7" y="117.874819"/>
     <use style="fill:#2ca02c;stroke:#2ca02c;" x="236.100408" xlink:href="#m50bb202be7" y="117.423505"/>
     <use style="fill:#2ca02c;stroke:#2ca02c;" x="243.974574" xlink:href="#m50bb202be7" y="116.285506"/>
     <use style="fill:#2ca02c;stroke:#2ca02c;" x="251.84874" xlink:href="#m50bb202be7" y="112.852749"/>
     <use style="fill:#2ca02c;stroke:#2ca02c;" x="259.722907" xlink:href="#m50bb202be7" y="111.676661"/>
     <use style="fill:#2ca02c;stroke:#2ca02c;" x="267.597073" xlink:href="#m50bb202be7" y="110.13783"/>
     <use style="fill:#2ca02c;stroke:#2ca02c;" x="275.471239" xlink:href="#m50bb202be7" y="108.824653"/>
     <use style="fill:#2ca02c;stroke:#2ca02c;" x="283.345406" xlink:href="#m50bb202be7" y="107.802484"/>
     <use style="fill:#2ca02c;stroke:#2ca02c;" x="291.219572" xlink:href="#m50bb202be7" y="107.072186"/>
     <use style="fill:#2ca02c;stroke:#2ca02c;" x="299.093738" xlink:href="#m50bb202be7" y="106.095868"/>
     <use style="fill:#2ca02c;stroke:#2ca02c;" x="306.967904" xlink:href="#m50bb202be7" y="104.953139"/>
     <use style="fill:#2ca02c;stroke:#2ca02c;" x="314.842071" xlink:href="#m50bb202be7" y="104.354614"/>
     <use style="fill:#2ca02c;stroke:#2ca02c;" x="322.716237" xlink:href="#m50bb202be7" y="103.653791"/>
     <use style="fill:#2ca02c;stroke:#2ca02c;" x="330.590403" xlink:href="#m50bb202be7" y="103.274807"/>
     <use style="fill:#2ca02c;stroke:#2ca02c;" x="338.464569" xlink:href="#m50bb202be7" y="103.021284"/>
     <use style="fill:#2ca02c;stroke:#2ca02c;" x="346.338736" xlink:href="#m50bb202be7" y="102.714019"/>
     <use style="fill:#2ca02c;stroke:#2ca02c;" x="354.212902" xlink:href="#m50bb202be7" y="102.540722"/>
     <use style="fill:#2ca02c;stroke:#2ca02c;" x="362.087068" xlink:href="#m50bb202be7" y="101.837162"/>
    </g>
   </g>
   <g id="line2d_87">
    <path clip-path="url(#padda230626)" d="M 55.74566 289.705462 
L 62.86875 276.594608 
L 70.742916 268.116574 
L 78.617083 253.623279 
L 86.491249 247.608018 
L 94.365415 229.521436 
L 102.239581 222.173916 
L 110.113748 217.978011 
L 117.987914 210.583608 
L 125.86208 201.66536 
L 133.736246 193.578168 
L 141.610413 185.632886 
L 149.484579 178.694031 
L 157.358745 173.193263 
L 165.232912 166.772697 
L 173.107078 164.889579 
L 180.981244 161.954195 
L 188.85541 156.545366 
L 196.729577 152.554893 
L 204.603743 148.168262 
L 212.477909 145.790599 
L 220.352075 144.281217 
L 228.226242 141.702602 
L 236.100408 140.360361 
L 243.974574 137.487203 
L 251.84874 135.18996 
L 259.722907 133.054728 
L 267.597073 131.018242 
L 275.471239 129.537396 
L 283.345406 127.999705 
L 291.219572 126.849356 
L 299.093738 125.453309 
L 306.967904 124.496818 
L 314.842071 123.210869 
L 322.716237 122.245289 
L 330.590403 121.428462 
L 338.464569 120.890947 
L 346.338736 120.130303 
L 354.212902 119.176053 
L 362.087068 118.328109 
" style="fill:none;stroke:#d62728;stroke-linecap:square;stroke-width:1.5;"/>
    <g clip-path="url(#padda230626)">
     <use style="fill:#d62728;stroke:#d62728;" x="-1" xlink:href="#mc3f747e96c" y="291.087902"/>
     <use style="fill:#d62728;stroke:#d62728;" x="-0.12458" xlink:href="#mc3f747e96c" y="291.087902"/>
     <use style="fill:#d62728;stroke:#d62728;" x="7.749586" xlink:href="#mc3f747e96c" y="291.087902"/>
     <use style="fill:#d62728;stroke:#d62728;" x="15.623752" xlink:href="#mc3f747e96c" y="291.087902"/>
     <use style="fill:#d62728;stroke:#d62728;" x="23.497919" xlink:href="#mc3f747e96c" y="291.087902"/>
     <use style="fill:#d62728;stroke:#d62728;" x="31.372085" xlink:href="#mc3f747e96c" y="291.087902"/>
     <use style="fill:#d62728;stroke:#d62728;" x="39.246251" xlink:href="#mc3f747e96c" y="291.087902"/>
     <use style="fill:#d62728;stroke:#d62728;" x="47.120417" xlink:href="#mc3f747e96c" y="291.087902"/>
     <use style="fill:#d62728;stroke:#d62728;" x="54.994584" xlink:href="#mc3f747e96c" y="291.087902"/>
     <use style="fill:#d62728;stroke:#d62728;" x="62.86875" xlink:href="#mc3f747e96c" y="276.594608"/>
     <use style="fill:#d62728;stroke:#d62728;" x="70.742916" xlink:href="#mc3f747e96c" y="268.116574"/>
     <use style="fill:#d62728;stroke:#d62728;" x="78.617083" xlink:href="#mc3f747e96c" y="253.623279"/>
     <use style="fill:#d62728;stroke:#d62728;" x="86.491249" xlink:href="#mc3f747e96c" y="247.608018"/>
     <use style="fill:#d62728;stroke:#d62728;" x="94.365415" xlink:href="#mc3f747e96c" y="229.521436"/>
     <use style="fill:#d62728;stroke:#d62728;" x="102.239581" xlink:href="#mc3f747e96c" y="222.173916"/>
     <use style="fill:#d62728;stroke:#d62728;" x="110.113748" xlink:href="#mc3f747e96c" y="217.978011"/>
     <use style="fill:#d62728;stroke:#d62728;" x="117.987914" xlink:href="#mc3f747e96c" y="210.583608"/>
     <use style="fill:#d62728;stroke:#d62728;" x="125.86208" xlink:href="#mc3f747e96c" y="201.66536"/>
     <use style="fill:#d62728;stroke:#d62728;" x="133.736246" xlink:href="#mc3f747e96c" y="193.578168"/>
     <use style="fill:#d62728;stroke:#d62728;" x="141.610413" xlink:href="#mc3f747e96c" y="185.632886"/>
     <use style="fill:#d62728;stroke:#d62728;" x="149.484579" xlink:href="#mc3f747e96c" y="178.694031"/>
     <use style="fill:#d62728;stroke:#d62728;" x="157.358745" xlink:href="#mc3f747e96c" y="173.193263"/>
     <use style="fill:#d62728;stroke:#d62728;" x="165.232912" xlink:href="#mc3f747e96c" y="166.772697"/>
     <use style="fill:#d62728;stroke:#d62728;" x="173.107078" xlink:href="#mc3f747e96c" y="164.889579"/>
     <use style="fill:#d62728;stroke:#d62728;" x="180.981244" xlink:href="#mc3f747e96c" y="161.954195"/>
     <use style="fill:#d62728;stroke:#d62728;" x="188.85541" xlink:href="#mc3f747e96c" y="156.545366"/>
     <use style="fill:#d62728;stroke:#d62728;" x="196.729577" xlink:href="#mc3f747e96c" y="152.554893"/>
     <use style="fill:#d62728;stroke:#d62728;" x="204.603743" xlink:href="#mc3f747e96c" y="148.168262"/>
     <use style="fill:#d62728;stroke:#d62728;" x="212.477909" xlink:href="#mc3f747e96c" y="145.790599"/>
     <use style="fill:#d62728;stroke:#d62728;" x="220.352075" xlink:href="#mc3f747e96c" y="144.281217"/>
     <use style="fill:#d62728;stroke:#d62728;" x="228.226242" xlink:href="#mc3f747e96c" y="141.702602"/>
     <use style="fill:#d62728;stroke:#d62728;" x="236.100408" xlink:href="#mc3f747e96c" y="140.360361"/>
     <use style="fill:#d62728;stroke:#d62728;" x="243.974574" xlink:href="#mc3f747e96c" y="137.487203"/>
     <use style="fill:#d62728;stroke:#d62728;" x="251.84874" xlink:href="#mc3f747e96c" y="135.18996"/>
     <use style="fill:#d62728;stroke:#d62728;" x="259.722907" xlink:href="#mc3f747e96c" y="133.054728"/>
     <use style="fill:#d62728;stroke:#d62728;" x="267.597073" xlink:href="#mc3f747e96c" y="131.018242"/>
     <use style="fill:#d62728;stroke:#d62728;" x="275.471239" xlink:href="#mc3f747e96c" y="129.537396"/>
     <use style="fill:#d62728;stroke:#d62728;" x="283.345406" xlink:href="#mc3f747e96c" y="127.999705"/>
     <use style="fill:#d62728;stroke:#d62728;" x="291.219572" xlink:href="#mc3f747e96c" y="126.849356"/>
     <use style="fill:#d62728;stroke:#d62728;" x="299.093738" xlink:href="#mc3f747e96c" y="125.453309"/>
     <use style="fill:#d62728;stroke:#d62728;" x="306.967904" xlink:href="#mc3f747e96c" y="124.496818"/>
     <use style="fill:#d62728;stroke:#d62728;" x="314.842071" xlink:href="#mc3f747e96c" y="123.210869"/>
     <use style="fill:#d62728;stroke:#d62728;" x="322.716237" xlink:href="#mc3f747e96c" y="122.245289"/>
     <use style="fill:#d62728;stroke:#d62728;" x="330.590403" xlink:href="#mc3f747e96c" y="121.428462"/>
     <use style="fill:#d62728;stroke:#d62728;" x="338.464569" xlink:href="#mc3f747e96c" y="120.890947"/>
     <use style="fill:#d62728;stroke:#d62728;" x="346.338736" xlink:href="#mc3f747e96c" y="120.130303"/>
     <use style="fill:#d62728;stroke:#d62728;" x="354.212902" xlink:href="#mc3f747e96c" y="119.176053"/>
     <use style="fill:#d62728;stroke:#d62728;" x="362.087068" xlink:href="#mc3f747e96c" y="118.328109"/>
    </g>
   </g>
   <g id="line2d_88">
    <path clip-path="url(#padda230626)" d="M 47.509114 289.705462 
L 54.994584 275.927606 
L 62.86875 275.927606 
L 70.742916 267.449572 
L 78.617083 256.768513 
L 86.491249 244.478244 
L 94.365415 235.239784 
L 102.239581 226.76175 
L 110.113748 216.08069 
L 117.987914 207.01362 
L 125.86208 204.810594 
L 133.736246 199.594516 
L 141.610413 196.566187 
L 149.484579 191.207196 
L 157.358745 187.394961 
L 165.232912 182.911778 
L 173.107078 176.264219 
L 180.981244 173.990133 
L 188.85541 172.084498 
L 196.729577 168.175348 
L 204.603743 165.247754 
L 212.477909 163.102599 
L 220.352075 160.310537 
L 228.226242 157.518475 
L 236.100408 155.677954 
L 243.974574 153.772898 
L 251.84874 152.223344 
L 259.722907 150.939149 
L 267.597073 149.016254 
L 275.471239 147.389146 
L 283.345406 146.278652 
L 291.219572 144.5887 
L 299.093738 142.98891 
L 306.967904 141.452303 
L 314.842071 139.94247 
L 322.716237 138.549004 
L 330.590403 135.883705 
L 338.464569 135.512938 
L 346.338736 134.95032 
L 354.212902 133.589296 
L 362.087068 132.431425 
" style="fill:none;stroke:#9467bd;stroke-linecap:square;stroke-width:1.5;"/>
    <g clip-path="url(#padda230626)">
     <use style="fill:#9467bd;stroke:#9467bd;" x="39.246251" xlink:href="#md0b686ac2a" y="290.420901"/>
     <use style="fill:#9467bd;stroke:#9467bd;" x="47.120417" xlink:href="#md0b686ac2a" y="290.420901"/>
     <use style="fill:#9467bd;stroke:#9467bd;" x="54.994584" xlink:href="#md0b686ac2a" y="275.927606"/>
     <use style="fill:#9467bd;stroke:#9467bd;" x="62.86875" xlink:href="#md0b686ac2a" y="275.927606"/>
     <use style="fill:#9467bd;stroke:#9467bd;" x="70.742916" xlink:href="#md0b686ac2a" y="267.449572"/>
     <use style="fill:#9467bd;stroke:#9467bd;" x="78.617083" xlink:href="#md0b686ac2a" y="256.768513"/>
     <use style="fill:#9467bd;stroke:#9467bd;" x="86.491249" xlink:href="#md0b686ac2a" y="244.478244"/>
     <use style="fill:#9467bd;stroke:#9467bd;" x="94.365415" xlink:href="#md0b686ac2a" y="235.239784"/>
     <use style="fill:#9467bd;stroke:#9467bd;" x="102.239581" xlink:href="#md0b686ac2a" y="226.76175"/>
     <use style="fill:#9467bd;stroke:#9467bd;" x="110.113748" xlink:href="#md0b686ac2a" y="216.08069"/>
     <use style="fill:#9467bd;stroke:#9467bd;" x="117.987914" xlink:href="#md0b686ac2a" y="207.01362"/>
     <use style="fill:#9467bd;stroke:#9467bd;" x="125.86208" xlink:href="#md0b686ac2a" y="204.810594"/>
     <use style="fill:#9467bd;stroke:#9467bd;" x="133.736246" xlink:href="#md0b686ac2a" y="199.594516"/>
     <use style="fill:#9467bd;stroke:#9467bd;" x="141.610413" xlink:href="#md0b686ac2a" y="196.566187"/>
     <use style="fill:#9467bd;stroke:#9467bd;" x="149.484579" xlink:href="#md0b686ac2a" y="191.207196"/>
     <use style="fill:#9467bd;stroke:#9467bd;" x="157.358745" xlink:href="#md0b686ac2a" y="187.394961"/>
     <use style="fill:#9467bd;stroke:#9467bd;" x="165.232912" xlink:href="#md0b686ac2a" y="182.911778"/>
     <use style="fill:#9467bd;stroke:#9467bd;" x="173.107078" xlink:href="#md0b686ac2a" y="176.264219"/>
     <use style="fill:#9467bd;stroke:#9467bd;" x="180.981244" xlink:href="#md0b686ac2a" y="173.990133"/>
     <use style="fill:#9467bd;stroke:#9467bd;" x="188.85541" xlink:href="#md0b686ac2a" y="172.084498"/>
     <use style="fill:#9467bd;stroke:#9467bd;" x="196.729577" xlink:href="#md0b686ac2a" y="168.175348"/>
     <use style="fill:#9467bd;stroke:#9467bd;" x="204.603743" xlink:href="#md0b686ac2a" y="165.247754"/>
     <use style="fill:#9467bd;stroke:#9467bd;" x="212.477909" xlink:href="#md0b686ac2a" y="163.102599"/>
     <use style="fill:#9467bd;stroke:#9467bd;" x="220.352075" xlink:href="#md0b686ac2a" y="160.310537"/>
     <use style="fill:#9467bd;stroke:#9467bd;" x="228.226242" xlink:href="#md0b686ac2a" y="157.518475"/>
     <use style="fill:#9467bd;stroke:#9467bd;" x="236.100408" xlink:href="#md0b686ac2a" y="155.677954"/>
     <use style="fill:#9467bd;stroke:#9467bd;" x="243.974574" xlink:href="#md0b686ac2a" y="153.772898"/>
     <use style="fill:#9467bd;stroke:#9467bd;" x="251.84874" xlink:href="#md0b686ac2a" y="152.223344"/>
     <use style="fill:#9467bd;stroke:#9467bd;" x="259.722907" xlink:href="#md0b686ac2a" y="150.939149"/>
     <use style="fill:#9467bd;stroke:#9467bd;" x="267.597073" xlink:href="#md0b686ac2a" y="149.016254"/>
     <use style="fill:#9467bd;stroke:#9467bd;" x="275.471239" xlink:href="#md0b686ac2a" y="147.389146"/>
     <use style="fill:#9467bd;stroke:#9467bd;" x="283.345406" xlink:href="#md0b686ac2a" y="146.278652"/>
     <use style="fill:#9467bd;stroke:#9467bd;" x="291.219572" xlink:href="#md0b686ac2a" y="144.5887"/>
     <use style="fill:#9467bd;stroke:#9467bd;" x="299.093738" xlink:href="#md0b686ac2a" y="142.98891"/>
     <use style="fill:#9467bd;stroke:#9467bd;" x="306.967904" xlink:href="#md0b686ac2a" y="141.452303"/>
     <use style="fill:#9467bd;stroke:#9467bd;" x="314.842071" xlink:href="#md0b686ac2a" y="139.94247"/>
     <use style="fill:#9467bd;stroke:#9467bd;" x="322.716237" xlink:href="#md0b686ac2a" y="138.549004"/>
     <use style="fill:#9467bd;stroke:#9467bd;" x="330.590403" xlink:href="#md0b686ac2a" y="135.883705"/>
     <use style="fill:#9467bd;stroke:#9467bd;" x="338.464569" xlink:href="#md0b686ac2a" y="135.512938"/>
     <use style="fill:#9467bd;stroke:#9467bd;" x="346.338736" xlink:href="#md0b686ac2a" y="134.95032"/>
     <use style="fill:#9467bd;stroke:#9467bd;" x="354.212902" xlink:href="#md0b686ac2a" y="133.589296"/>
     <use style="fill:#9467bd;stroke:#9467bd;" x="362.087068" xlink:href="#md0b686ac2a" y="132.431425"/>
    </g>
   </g>
  </g>
 </g>
 <defs>
  <clipPath id="padda230626">
   <rect height="217.44" width="334.8" x="62.86875" y="22.318125"/>
  </clipPath>
 </defs>
</svg>
