<?xml version="1.0" encoding="utf-8" standalone="no"?>
<!DOCTYPE svg PUBLIC "-//W3C//DTD SVG 1.1//EN"
  "http://www.w3.org/Graphics/SVG/1.1/DTD/svg11.dtd">
<!-- Created with matplotlib (https://matplotlib.org/) -->
<svg height="284.120091pt" version="1.1" viewBox="0 0 418.783662 284.120091" width="418.783662pt" xmlns="http://www.w3.org/2000/svg" xmlns:xlink="http://www.w3.org/1999/xlink">
 <defs>
  <style type="text/css">
*{stroke-linecap:butt;stroke-linejoin:round;}
  </style>
 </defs>
 <g id="figure_1">
  <g id="patch_1">
   <path d="M 0 284.120091 
L 418.783662 284.120091 
L 418.783662 0 
L 0 0 
z
" style="fill:#ffffff;"/>
  </g>
  <g id="axes_1">
   <g id="patch_2">
    <path d="M 62.86875 239.758125 
L 397.66875 239.758125 
L 397.66875 22.318125 
L 62.86875 22.318125 
z
" style="fill:#ffffff;"/>
   </g>
   <g id="matplotlib.axis_1">
    <g id="xtick_1">
     <g id="line2d_1">
      <path clip-path="url(#p98112b1597)" d="M 62.86875 239.758125 
L 62.86875 22.318125 
" style="fill:none;stroke:#b0b0b0;stroke-linecap:square;stroke-opacity:0.8;stroke-width:0.8;"/>
     </g>
     <g id="line2d_2">
      <defs>
       <path d="M 0 0 
L 0 3.5 
" id="m7174bc8577" style="stroke:#000000;stroke-width:0.8;"/>
      </defs>
      <g>
       <use style="stroke:#000000;stroke-width:0.8;" x="62.86875" xlink:href="#m7174bc8577" y="239.758125"/>
      </g>
     </g>
     <g id="text_1">
      <!-- Mar. -->
      <defs>
       <path d="M 9.8125 72.90625 
L 24.515625 72.90625 
L 43.109375 23.296875 
L 61.8125 72.90625 
L 76.515625 72.90625 
L 76.515625 0 
L 66.890625 0 
L 66.890625 64.015625 
L 48.09375 14.015625 
L 38.1875 14.015625 
L 19.390625 64.015625 
L 19.390625 0 
L 9.8125 0 
z
" id="DejaVuSans-77"/>
       <path d="M 34.28125 27.484375 
Q 23.390625 27.484375 19.1875 25 
Q 14.984375 22.515625 14.984375 16.5 
Q 14.984375 11.71875 18.140625 8.90625 
Q 21.296875 6.109375 26.703125 6.109375 
Q 34.1875 6.109375 38.703125 11.40625 
Q 43.21875 16.703125 43.21875 25.484375 
L 43.21875 27.484375 
z
M 52.203125 31.203125 
L 52.203125 0 
L 43.21875 0 
L 43.21875 8.296875 
Q 40.140625 3.328125 35.546875 0.953125 
Q 30.953125 -1.421875 24.3125 -1.421875 
Q 15.921875 -1.421875 10.953125 3.296875 
Q 6 8.015625 6 15.921875 
Q 6 25.140625 12.171875 29.828125 
Q 18.359375 34.515625 30.609375 34.515625 
L 43.21875 34.515625 
L 43.21875 35.40625 
Q 43.21875 41.609375 39.140625 45 
Q 35.0625 48.390625 27.6875 48.390625 
Q 23 48.390625 18.546875 47.265625 
Q 14.109375 46.140625 10.015625 43.890625 
L 10.015625 52.203125 
Q 14.9375 54.109375 19.578125 55.046875 
Q 24.21875 56 28.609375 56 
Q 40.484375 56 46.34375 49.84375 
Q 52.203125 43.703125 52.203125 31.203125 
z
" id="DejaVuSans-97"/>
       <path d="M 41.109375 46.296875 
Q 39.59375 47.171875 37.8125 47.578125 
Q 36.03125 48 33.890625 48 
Q 26.265625 48 22.1875 43.046875 
Q 18.109375 38.09375 18.109375 28.8125 
L 18.109375 0 
L 9.078125 0 
L 9.078125 54.6875 
L 18.109375 54.6875 
L 18.109375 46.1875 
Q 20.953125 51.171875 25.484375 53.578125 
Q 30.03125 56 36.53125 56 
Q 37.453125 56 38.578125 55.875 
Q 39.703125 55.765625 41.0625 55.515625 
z
" id="DejaVuSans-114"/>
       <path d="M 10.6875 12.40625 
L 21 12.40625 
L 21 0 
L 10.6875 0 
z
" id="DejaVuSans-46"/>
      </defs>
      <g transform="translate(51.853125 254.356562)scale(0.1 -0.1)">
       <use xlink:href="#DejaVuSans-77"/>
       <use x="86.279297" xlink:href="#DejaVuSans-97"/>
       <use x="147.558594" xlink:href="#DejaVuSans-114"/>
       <use x="188.53125" xlink:href="#DejaVuSans-46"/>
      </g>
      <!-- 09 -->
      <defs>
       <path d="M 31.78125 66.40625 
Q 24.171875 66.40625 20.328125 58.90625 
Q 16.5 51.421875 16.5 36.375 
Q 16.5 21.390625 20.328125 13.890625 
Q 24.171875 6.390625 31.78125 6.390625 
Q 39.453125 6.390625 43.28125 13.890625 
Q 47.125 21.390625 47.125 36.375 
Q 47.125 51.421875 43.28125 58.90625 
Q 39.453125 66.40625 31.78125 66.40625 
z
M 31.78125 74.21875 
Q 44.046875 74.21875 50.515625 64.515625 
Q 56.984375 54.828125 56.984375 36.375 
Q 56.984375 17.96875 50.515625 8.265625 
Q 44.046875 -1.421875 31.78125 -1.421875 
Q 19.53125 -1.421875 13.0625 8.265625 
Q 6.59375 17.96875 6.59375 36.375 
Q 6.59375 54.828125 13.0625 64.515625 
Q 19.53125 74.21875 31.78125 74.21875 
z
" id="DejaVuSans-48"/>
       <path d="M 10.984375 1.515625 
L 10.984375 10.5 
Q 14.703125 8.734375 18.5 7.8125 
Q 22.3125 6.890625 25.984375 6.890625 
Q 35.75 6.890625 40.890625 13.453125 
Q 46.046875 20.015625 46.78125 33.40625 
Q 43.953125 29.203125 39.59375 26.953125 
Q 35.25 24.703125 29.984375 24.703125 
Q 19.046875 24.703125 12.671875 31.3125 
Q 6.296875 37.9375 6.296875 49.421875 
Q 6.296875 60.640625 12.9375 67.421875 
Q 19.578125 74.21875 30.609375 74.21875 
Q 43.265625 74.21875 49.921875 64.515625 
Q 56.59375 54.828125 56.59375 36.375 
Q 56.59375 19.140625 48.40625 8.859375 
Q 40.234375 -1.421875 26.421875 -1.421875 
Q 22.703125 -1.421875 18.890625 -0.6875 
Q 15.09375 0.046875 10.984375 1.515625 
z
M 30.609375 32.421875 
Q 37.25 32.421875 41.125 36.953125 
Q 45.015625 41.5 45.015625 49.421875 
Q 45.015625 57.28125 41.125 61.84375 
Q 37.25 66.40625 30.609375 66.40625 
Q 23.96875 66.40625 20.09375 61.84375 
Q 16.21875 57.28125 16.21875 49.421875 
Q 16.21875 41.5 20.09375 36.953125 
Q 23.96875 32.421875 30.609375 32.421875 
z
" id="DejaVuSans-57"/>
      </defs>
      <g transform="translate(56.50625 265.554375)scale(0.1 -0.1)">
       <use xlink:href="#DejaVuSans-48"/>
       <use x="63.623047" xlink:href="#DejaVuSans-57"/>
      </g>
     </g>
    </g>
    <g id="xtick_2">
     <g id="line2d_3">
      <path clip-path="url(#p98112b1597)" d="M 99.228979 239.758125 
L 99.228979 22.318125 
" style="fill:none;stroke:#b0b0b0;stroke-linecap:square;stroke-opacity:0.8;stroke-width:0.8;"/>
     </g>
     <g id="line2d_4">
      <g>
       <use style="stroke:#000000;stroke-width:0.8;" x="99.228979" xlink:href="#m7174bc8577" y="239.758125"/>
      </g>
     </g>
     <g id="text_2">
      <!-- Mar. -->
      <g transform="translate(88.213354 254.356562)scale(0.1 -0.1)">
       <use xlink:href="#DejaVuSans-77"/>
       <use x="86.279297" xlink:href="#DejaVuSans-97"/>
       <use x="147.558594" xlink:href="#DejaVuSans-114"/>
       <use x="188.53125" xlink:href="#DejaVuSans-46"/>
      </g>
      <!-- 13 -->
      <defs>
       <path d="M 12.40625 8.296875 
L 28.515625 8.296875 
L 28.515625 63.921875 
L 10.984375 60.40625 
L 10.984375 69.390625 
L 28.421875 72.90625 
L 38.28125 72.90625 
L 38.28125 8.296875 
L 54.390625 8.296875 
L 54.390625 0 
L 12.40625 0 
z
" id="DejaVuSans-49"/>
       <path d="M 40.578125 39.3125 
Q 47.65625 37.796875 51.625 33 
Q 55.609375 28.21875 55.609375 21.1875 
Q 55.609375 10.40625 48.1875 4.484375 
Q 40.765625 -1.421875 27.09375 -1.421875 
Q 22.515625 -1.421875 17.65625 -0.515625 
Q 12.796875 0.390625 7.625 2.203125 
L 7.625 11.71875 
Q 11.71875 9.328125 16.59375 8.109375 
Q 21.484375 6.890625 26.8125 6.890625 
Q 36.078125 6.890625 40.9375 10.546875 
Q 45.796875 14.203125 45.796875 21.1875 
Q 45.796875 27.640625 41.28125 31.265625 
Q 36.765625 34.90625 28.71875 34.90625 
L 20.21875 34.90625 
L 20.21875 43.015625 
L 29.109375 43.015625 
Q 36.375 43.015625 40.234375 45.921875 
Q 44.09375 48.828125 44.09375 54.296875 
Q 44.09375 59.90625 40.109375 62.90625 
Q 36.140625 65.921875 28.71875 65.921875 
Q 24.65625 65.921875 20.015625 65.03125 
Q 15.375 64.15625 9.8125 62.3125 
L 9.8125 71.09375 
Q 15.4375 72.65625 20.34375 73.4375 
Q 25.25 74.21875 29.59375 74.21875 
Q 40.828125 74.21875 47.359375 69.109375 
Q 53.90625 64.015625 53.90625 55.328125 
Q 53.90625 49.265625 50.4375 45.09375 
Q 46.96875 40.921875 40.578125 39.3125 
z
" id="DejaVuSans-51"/>
      </defs>
      <g transform="translate(92.866479 265.554375)scale(0.1 -0.1)">
       <use xlink:href="#DejaVuSans-49"/>
       <use x="63.623047" xlink:href="#DejaVuSans-51"/>
      </g>
     </g>
    </g>
    <g id="xtick_3">
     <g id="line2d_5">
      <path clip-path="url(#p98112b1597)" d="M 135.589208 239.758125 
L 135.589208 22.318125 
" style="fill:none;stroke:#b0b0b0;stroke-linecap:square;stroke-opacity:0.8;stroke-width:0.8;"/>
     </g>
     <g id="line2d_6">
      <g>
       <use style="stroke:#000000;stroke-width:0.8;" x="135.589208" xlink:href="#m7174bc8577" y="239.758125"/>
      </g>
     </g>
     <g id="text_3">
      <!-- Mar. -->
      <g transform="translate(124.573583 254.356562)scale(0.1 -0.1)">
       <use xlink:href="#DejaVuSans-77"/>
       <use x="86.279297" xlink:href="#DejaVuSans-97"/>
       <use x="147.558594" xlink:href="#DejaVuSans-114"/>
       <use x="188.53125" xlink:href="#DejaVuSans-46"/>
      </g>
      <!-- 17 -->
      <defs>
       <path d="M 8.203125 72.90625 
L 55.078125 72.90625 
L 55.078125 68.703125 
L 28.609375 0 
L 18.3125 0 
L 43.21875 64.59375 
L 8.203125 64.59375 
z
" id="DejaVuSans-55"/>
      </defs>
      <g transform="translate(129.226708 265.554375)scale(0.1 -0.1)">
       <use xlink:href="#DejaVuSans-49"/>
       <use x="63.623047" xlink:href="#DejaVuSans-55"/>
      </g>
     </g>
    </g>
    <g id="xtick_4">
     <g id="line2d_7">
      <path clip-path="url(#p98112b1597)" d="M 171.949437 239.758125 
L 171.949437 22.318125 
" style="fill:none;stroke:#b0b0b0;stroke-linecap:square;stroke-opacity:0.8;stroke-width:0.8;"/>
     </g>
     <g id="line2d_8">
      <g>
       <use style="stroke:#000000;stroke-width:0.8;" x="171.949437" xlink:href="#m7174bc8577" y="239.758125"/>
      </g>
     </g>
     <g id="text_4">
      <!-- Mar. -->
      <g transform="translate(160.933812 254.356562)scale(0.1 -0.1)">
       <use xlink:href="#DejaVuSans-77"/>
       <use x="86.279297" xlink:href="#DejaVuSans-97"/>
       <use x="147.558594" xlink:href="#DejaVuSans-114"/>
       <use x="188.53125" xlink:href="#DejaVuSans-46"/>
      </g>
      <!-- 21 -->
      <defs>
       <path d="M 19.1875 8.296875 
L 53.609375 8.296875 
L 53.609375 0 
L 7.328125 0 
L 7.328125 8.296875 
Q 12.9375 14.109375 22.625 23.890625 
Q 32.328125 33.6875 34.8125 36.53125 
Q 39.546875 41.84375 41.421875 45.53125 
Q 43.3125 49.21875 43.3125 52.78125 
Q 43.3125 58.59375 39.234375 62.25 
Q 35.15625 65.921875 28.609375 65.921875 
Q 23.96875 65.921875 18.8125 64.3125 
Q 13.671875 62.703125 7.8125 59.421875 
L 7.8125 69.390625 
Q 13.765625 71.78125 18.9375 73 
Q 24.125 74.21875 28.421875 74.21875 
Q 39.75 74.21875 46.484375 68.546875 
Q 53.21875 62.890625 53.21875 53.421875 
Q 53.21875 48.921875 51.53125 44.890625 
Q 49.859375 40.875 45.40625 35.40625 
Q 44.1875 33.984375 37.640625 27.21875 
Q 31.109375 20.453125 19.1875 8.296875 
z
" id="DejaVuSans-50"/>
      </defs>
      <g transform="translate(165.586937 265.554375)scale(0.1 -0.1)">
       <use xlink:href="#DejaVuSans-50"/>
       <use x="63.623047" xlink:href="#DejaVuSans-49"/>
      </g>
     </g>
    </g>
    <g id="xtick_5">
     <g id="line2d_9">
      <path clip-path="url(#p98112b1597)" d="M 208.309666 239.758125 
L 208.309666 22.318125 
" style="fill:none;stroke:#b0b0b0;stroke-linecap:square;stroke-opacity:0.8;stroke-width:0.8;"/>
     </g>
     <g id="line2d_10">
      <g>
       <use style="stroke:#000000;stroke-width:0.8;" x="208.309666" xlink:href="#m7174bc8577" y="239.758125"/>
      </g>
     </g>
     <g id="text_5">
      <!-- Mar. -->
      <g transform="translate(197.294041 254.356562)scale(0.1 -0.1)">
       <use xlink:href="#DejaVuSans-77"/>
       <use x="86.279297" xlink:href="#DejaVuSans-97"/>
       <use x="147.558594" xlink:href="#DejaVuSans-114"/>
       <use x="188.53125" xlink:href="#DejaVuSans-46"/>
      </g>
      <!-- 25 -->
      <defs>
       <path d="M 10.796875 72.90625 
L 49.515625 72.90625 
L 49.515625 64.59375 
L 19.828125 64.59375 
L 19.828125 46.734375 
Q 21.96875 47.46875 24.109375 47.828125 
Q 26.265625 48.1875 28.421875 48.1875 
Q 40.625 48.1875 47.75 41.5 
Q 54.890625 34.8125 54.890625 23.390625 
Q 54.890625 11.625 47.5625 5.09375 
Q 40.234375 -1.421875 26.90625 -1.421875 
Q 22.3125 -1.421875 17.546875 -0.640625 
Q 12.796875 0.140625 7.71875 1.703125 
L 7.71875 11.625 
Q 12.109375 9.234375 16.796875 8.0625 
Q 21.484375 6.890625 26.703125 6.890625 
Q 35.15625 6.890625 40.078125 11.328125 
Q 45.015625 15.765625 45.015625 23.390625 
Q 45.015625 31 40.078125 35.4375 
Q 35.15625 39.890625 26.703125 39.890625 
Q 22.75 39.890625 18.8125 39.015625 
Q 14.890625 38.140625 10.796875 36.28125 
z
" id="DejaVuSans-53"/>
      </defs>
      <g transform="translate(201.947166 265.554375)scale(0.1 -0.1)">
       <use xlink:href="#DejaVuSans-50"/>
       <use x="63.623047" xlink:href="#DejaVuSans-53"/>
      </g>
     </g>
    </g>
    <g id="xtick_6">
     <g id="line2d_11">
      <path clip-path="url(#p98112b1597)" d="M 244.669895 239.758125 
L 244.669895 22.318125 
" style="fill:none;stroke:#b0b0b0;stroke-linecap:square;stroke-opacity:0.8;stroke-width:0.8;"/>
     </g>
     <g id="line2d_12">
      <g>
       <use style="stroke:#000000;stroke-width:0.8;" x="244.669895" xlink:href="#m7174bc8577" y="239.758125"/>
      </g>
     </g>
     <g id="text_6">
      <!-- Mar. -->
      <g transform="translate(233.65427 254.356562)scale(0.1 -0.1)">
       <use xlink:href="#DejaVuSans-77"/>
       <use x="86.279297" xlink:href="#DejaVuSans-97"/>
       <use x="147.558594" xlink:href="#DejaVuSans-114"/>
       <use x="188.53125" xlink:href="#DejaVuSans-46"/>
      </g>
      <!-- 29 -->
      <g transform="translate(238.307395 265.554375)scale(0.1 -0.1)">
       <use xlink:href="#DejaVuSans-50"/>
       <use x="63.623047" xlink:href="#DejaVuSans-57"/>
      </g>
     </g>
    </g>
    <g id="xtick_7">
     <g id="line2d_13">
      <path clip-path="url(#p98112b1597)" d="M 271.940067 239.758125 
L 271.940067 22.318125 
" style="fill:none;stroke:#b0b0b0;stroke-linecap:square;stroke-opacity:0.8;stroke-width:0.8;"/>
     </g>
     <g id="line2d_14">
      <g>
       <use style="stroke:#000000;stroke-width:0.8;" x="271.940067" xlink:href="#m7174bc8577" y="239.758125"/>
      </g>
     </g>
     <g id="text_7">
      <!-- Apr. -->
      <defs>
       <path d="M 34.1875 63.1875 
L 20.796875 26.90625 
L 47.609375 26.90625 
z
M 28.609375 72.90625 
L 39.796875 72.90625 
L 67.578125 0 
L 57.328125 0 
L 50.6875 18.703125 
L 17.828125 18.703125 
L 11.1875 0 
L 0.78125 0 
z
" id="DejaVuSans-65"/>
       <path d="M 18.109375 8.203125 
L 18.109375 -20.796875 
L 9.078125 -20.796875 
L 9.078125 54.6875 
L 18.109375 54.6875 
L 18.109375 46.390625 
Q 20.953125 51.265625 25.265625 53.625 
Q 29.59375 56 35.59375 56 
Q 45.5625 56 51.78125 48.09375 
Q 58.015625 40.1875 58.015625 27.296875 
Q 58.015625 14.40625 51.78125 6.484375 
Q 45.5625 -1.421875 35.59375 -1.421875 
Q 29.59375 -1.421875 25.265625 0.953125 
Q 20.953125 3.328125 18.109375 8.203125 
z
M 48.6875 27.296875 
Q 48.6875 37.203125 44.609375 42.84375 
Q 40.53125 48.484375 33.40625 48.484375 
Q 26.265625 48.484375 22.1875 42.84375 
Q 18.109375 37.203125 18.109375 27.296875 
Q 18.109375 17.390625 22.1875 11.75 
Q 26.265625 6.109375 33.40625 6.109375 
Q 40.53125 6.109375 44.609375 11.75 
Q 48.6875 17.390625 48.6875 27.296875 
z
" id="DejaVuSans-112"/>
      </defs>
      <g transform="translate(261.708035 254.356562)scale(0.1 -0.1)">
       <use xlink:href="#DejaVuSans-65"/>
       <use x="68.408203" xlink:href="#DejaVuSans-112"/>
       <use x="131.884766" xlink:href="#DejaVuSans-114"/>
       <use x="172.857422" xlink:href="#DejaVuSans-46"/>
      </g>
      <!-- 01 -->
      <g transform="translate(265.577567 265.554375)scale(0.1 -0.1)">
       <use xlink:href="#DejaVuSans-48"/>
       <use x="63.623047" xlink:href="#DejaVuSans-49"/>
      </g>
     </g>
    </g>
    <g id="xtick_8">
     <g id="line2d_15">
      <path clip-path="url(#p98112b1597)" d="M 308.300296 239.758125 
L 308.300296 22.318125 
" style="fill:none;stroke:#b0b0b0;stroke-linecap:square;stroke-opacity:0.8;stroke-width:0.8;"/>
     </g>
     <g id="line2d_16">
      <g>
       <use style="stroke:#000000;stroke-width:0.8;" x="308.300296" xlink:href="#m7174bc8577" y="239.758125"/>
      </g>
     </g>
     <g id="text_8">
      <!-- Apr. -->
      <g transform="translate(298.068264 254.356562)scale(0.1 -0.1)">
       <use xlink:href="#DejaVuSans-65"/>
       <use x="68.408203" xlink:href="#DejaVuSans-112"/>
       <use x="131.884766" xlink:href="#DejaVuSans-114"/>
       <use x="172.857422" xlink:href="#DejaVuSans-46"/>
      </g>
      <!-- 05 -->
      <g transform="translate(301.937796 265.554375)scale(0.1 -0.1)">
       <use xlink:href="#DejaVuSans-48"/>
       <use x="63.623047" xlink:href="#DejaVuSans-53"/>
      </g>
     </g>
    </g>
    <g id="xtick_9">
     <g id="line2d_17">
      <path clip-path="url(#p98112b1597)" d="M 344.660525 239.758125 
L 344.660525 22.318125 
" style="fill:none;stroke:#b0b0b0;stroke-linecap:square;stroke-opacity:0.8;stroke-width:0.8;"/>
     </g>
     <g id="line2d_18">
      <g>
       <use style="stroke:#000000;stroke-width:0.8;" x="344.660525" xlink:href="#m7174bc8577" y="239.758125"/>
      </g>
     </g>
     <g id="text_9">
      <!-- Apr. -->
      <g transform="translate(334.428493 254.356562)scale(0.1 -0.1)">
       <use xlink:href="#DejaVuSans-65"/>
       <use x="68.408203" xlink:href="#DejaVuSans-112"/>
       <use x="131.884766" xlink:href="#DejaVuSans-114"/>
       <use x="172.857422" xlink:href="#DejaVuSans-46"/>
      </g>
      <!-- 09 -->
      <g transform="translate(338.298025 265.554375)scale(0.1 -0.1)">
       <use xlink:href="#DejaVuSans-48"/>
       <use x="63.623047" xlink:href="#DejaVuSans-57"/>
      </g>
     </g>
    </g>
    <g id="xtick_10">
     <g id="line2d_19">
      <path clip-path="url(#p98112b1597)" d="M 381.020754 239.758125 
L 381.020754 22.318125 
" style="fill:none;stroke:#b0b0b0;stroke-linecap:square;stroke-opacity:0.8;stroke-width:0.8;"/>
     </g>
     <g id="line2d_20">
      <g>
       <use style="stroke:#000000;stroke-width:0.8;" x="381.020754" xlink:href="#m7174bc8577" y="239.758125"/>
      </g>
     </g>
     <g id="text_10">
      <!-- Apr. -->
      <g transform="translate(370.788722 254.356562)scale(0.1 -0.1)">
       <use xlink:href="#DejaVuSans-65"/>
       <use x="68.408203" xlink:href="#DejaVuSans-112"/>
       <use x="131.884766" xlink:href="#DejaVuSans-114"/>
       <use x="172.857422" xlink:href="#DejaVuSans-46"/>
      </g>
      <!-- 13 -->
      <g transform="translate(374.658254 265.554375)scale(0.1 -0.1)">
       <use xlink:href="#DejaVuSans-49"/>
       <use x="63.623047" xlink:href="#DejaVuSans-51"/>
      </g>
     </g>
    </g>
   </g>
   <g id="matplotlib.axis_2">
    <g id="ytick_1">
     <g id="line2d_21">
      <path clip-path="url(#p98112b1597)" d="M 62.86875 239.758125 
L 397.66875 239.758125 
" style="fill:none;stroke:#b0b0b0;stroke-linecap:square;stroke-opacity:0.8;stroke-width:0.8;"/>
     </g>
     <g id="line2d_22">
      <defs>
       <path d="M 0 0 
L -3.5 0 
" id="m20aa68374e" style="stroke:#000000;stroke-width:0.8;"/>
      </defs>
      <g>
       <use style="stroke:#000000;stroke-width:0.8;" x="62.86875" xlink:href="#m20aa68374e" y="239.758125"/>
      </g>
     </g>
     <g id="text_11">
      <!-- 2 -->
      <g transform="translate(49.50625 243.557344)scale(0.1 -0.1)">
       <use xlink:href="#DejaVuSans-50"/>
      </g>
     </g>
    </g>
    <g id="ytick_2">
     <g id="line2d_23">
      <path clip-path="url(#p98112b1597)" d="M 62.86875 219.784961 
L 397.66875 219.784961 
" style="fill:none;stroke:#b0b0b0;stroke-linecap:square;stroke-opacity:0.8;stroke-width:0.8;"/>
     </g>
     <g id="line2d_24">
      <g>
       <use style="stroke:#000000;stroke-width:0.8;" x="62.86875" xlink:href="#m20aa68374e" y="219.784961"/>
      </g>
     </g>
     <g id="text_12">
      <!-- 5 -->
      <g transform="translate(49.50625 223.58418)scale(0.1 -0.1)">
       <use xlink:href="#DejaVuSans-53"/>
      </g>
     </g>
    </g>
    <g id="ytick_3">
     <g id="line2d_25">
      <path clip-path="url(#p98112b1597)" d="M 62.86875 204.675846 
L 397.66875 204.675846 
" style="fill:none;stroke:#b0b0b0;stroke-linecap:square;stroke-opacity:0.8;stroke-width:0.8;"/>
     </g>
     <g id="line2d_26">
      <g>
       <use style="stroke:#000000;stroke-width:0.8;" x="62.86875" xlink:href="#m20aa68374e" y="204.675846"/>
      </g>
     </g>
     <g id="text_13">
      <!-- 10 -->
      <g transform="translate(43.14375 208.475065)scale(0.1 -0.1)">
       <use xlink:href="#DejaVuSans-49"/>
       <use x="63.623047" xlink:href="#DejaVuSans-48"/>
      </g>
     </g>
    </g>
    <g id="ytick_4">
     <g id="line2d_27">
      <path clip-path="url(#p98112b1597)" d="M 62.86875 189.566731 
L 397.66875 189.566731 
" style="fill:none;stroke:#b0b0b0;stroke-linecap:square;stroke-opacity:0.8;stroke-width:0.8;"/>
     </g>
     <g id="line2d_28">
      <g>
       <use style="stroke:#000000;stroke-width:0.8;" x="62.86875" xlink:href="#m20aa68374e" y="189.566731"/>
      </g>
     </g>
     <g id="text_14">
      <!-- 20 -->
      <g transform="translate(43.14375 193.36595)scale(0.1 -0.1)">
       <use xlink:href="#DejaVuSans-50"/>
       <use x="63.623047" xlink:href="#DejaVuSans-48"/>
      </g>
     </g>
    </g>
    <g id="ytick_5">
     <g id="line2d_29">
      <path clip-path="url(#p98112b1597)" d="M 62.86875 169.593567 
L 397.66875 169.593567 
" style="fill:none;stroke:#b0b0b0;stroke-linecap:square;stroke-opacity:0.8;stroke-width:0.8;"/>
     </g>
     <g id="line2d_30">
      <g>
       <use style="stroke:#000000;stroke-width:0.8;" x="62.86875" xlink:href="#m20aa68374e" y="169.593567"/>
      </g>
     </g>
     <g id="text_15">
      <!-- 50 -->
      <g transform="translate(43.14375 173.392786)scale(0.1 -0.1)">
       <use xlink:href="#DejaVuSans-53"/>
       <use x="63.623047" xlink:href="#DejaVuSans-48"/>
      </g>
     </g>
    </g>
    <g id="ytick_6">
     <g id="line2d_31">
      <path clip-path="url(#p98112b1597)" d="M 62.86875 154.484452 
L 397.66875 154.484452 
" style="fill:none;stroke:#b0b0b0;stroke-linecap:square;stroke-opacity:0.8;stroke-width:0.8;"/>
     </g>
     <g id="line2d_32">
      <g>
       <use style="stroke:#000000;stroke-width:0.8;" x="62.86875" xlink:href="#m20aa68374e" y="154.484452"/>
      </g>
     </g>
     <g id="text_16">
      <!-- 100 -->
      <g transform="translate(36.78125 158.283671)scale(0.1 -0.1)">
       <use xlink:href="#DejaVuSans-49"/>
       <use x="63.623047" xlink:href="#DejaVuSans-48"/>
       <use x="127.246094" xlink:href="#DejaVuSans-48"/>
      </g>
     </g>
    </g>
    <g id="ytick_7">
     <g id="line2d_33">
      <path clip-path="url(#p98112b1597)" d="M 62.86875 139.375337 
L 397.66875 139.375337 
" style="fill:none;stroke:#b0b0b0;stroke-linecap:square;stroke-opacity:0.8;stroke-width:0.8;"/>
     </g>
     <g id="line2d_34">
      <g>
       <use style="stroke:#000000;stroke-width:0.8;" x="62.86875" xlink:href="#m20aa68374e" y="139.375337"/>
      </g>
     </g>
     <g id="text_17">
      <!-- 200 -->
      <g transform="translate(36.78125 143.174556)scale(0.1 -0.1)">
       <use xlink:href="#DejaVuSans-50"/>
       <use x="63.623047" xlink:href="#DejaVuSans-48"/>
       <use x="127.246094" xlink:href="#DejaVuSans-48"/>
      </g>
     </g>
    </g>
    <g id="ytick_8">
     <g id="line2d_35">
      <path clip-path="url(#p98112b1597)" d="M 62.86875 119.402173 
L 397.66875 119.402173 
" style="fill:none;stroke:#b0b0b0;stroke-linecap:square;stroke-opacity:0.8;stroke-width:0.8;"/>
     </g>
     <g id="line2d_36">
      <g>
       <use style="stroke:#000000;stroke-width:0.8;" x="62.86875" xlink:href="#m20aa68374e" y="119.402173"/>
      </g>
     </g>
     <g id="text_18">
      <!-- 500 -->
      <g transform="translate(36.78125 123.201392)scale(0.1 -0.1)">
       <use xlink:href="#DejaVuSans-53"/>
       <use x="63.623047" xlink:href="#DejaVuSans-48"/>
       <use x="127.246094" xlink:href="#DejaVuSans-48"/>
      </g>
     </g>
    </g>
    <g id="ytick_9">
     <g id="line2d_37">
      <path clip-path="url(#p98112b1597)" d="M 62.86875 104.293058 
L 397.66875 104.293058 
" style="fill:none;stroke:#b0b0b0;stroke-linecap:square;stroke-opacity:0.8;stroke-width:0.8;"/>
     </g>
     <g id="line2d_38">
      <g>
       <use style="stroke:#000000;stroke-width:0.8;" x="62.86875" xlink:href="#m20aa68374e" y="104.293058"/>
      </g>
     </g>
     <g id="text_19">
      <!-- 1,000 -->
      <defs>
       <path d="M 11.71875 12.40625 
L 22.015625 12.40625 
L 22.015625 4 
L 14.015625 -11.625 
L 7.71875 -11.625 
L 11.71875 4 
z
" id="DejaVuSans-44"/>
      </defs>
      <g transform="translate(27.240625 108.092277)scale(0.1 -0.1)">
       <use xlink:href="#DejaVuSans-49"/>
       <use x="63.623047" xlink:href="#DejaVuSans-44"/>
       <use x="95.410156" xlink:href="#DejaVuSans-48"/>
       <use x="159.033203" xlink:href="#DejaVuSans-48"/>
       <use x="222.65625" xlink:href="#DejaVuSans-48"/>
      </g>
     </g>
    </g>
    <g id="ytick_10">
     <g id="line2d_39">
      <path clip-path="url(#p98112b1597)" d="M 62.86875 89.183943 
L 397.66875 89.183943 
" style="fill:none;stroke:#b0b0b0;stroke-linecap:square;stroke-opacity:0.8;stroke-width:0.8;"/>
     </g>
     <g id="line2d_40">
      <g>
       <use style="stroke:#000000;stroke-width:0.8;" x="62.86875" xlink:href="#m20aa68374e" y="89.183943"/>
      </g>
     </g>
     <g id="text_20">
      <!-- 2,000 -->
      <g transform="translate(27.240625 92.983162)scale(0.1 -0.1)">
       <use xlink:href="#DejaVuSans-50"/>
       <use x="63.623047" xlink:href="#DejaVuSans-44"/>
       <use x="95.410156" xlink:href="#DejaVuSans-48"/>
       <use x="159.033203" xlink:href="#DejaVuSans-48"/>
       <use x="222.65625" xlink:href="#DejaVuSans-48"/>
      </g>
     </g>
    </g>
    <g id="ytick_11">
     <g id="line2d_41">
      <path clip-path="url(#p98112b1597)" d="M 62.86875 69.210779 
L 397.66875 69.210779 
" style="fill:none;stroke:#b0b0b0;stroke-linecap:square;stroke-opacity:0.8;stroke-width:0.8;"/>
     </g>
     <g id="line2d_42">
      <g>
       <use style="stroke:#000000;stroke-width:0.8;" x="62.86875" xlink:href="#m20aa68374e" y="69.210779"/>
      </g>
     </g>
     <g id="text_21">
      <!-- 5,000 -->
      <g transform="translate(27.240625 73.009998)scale(0.1 -0.1)">
       <use xlink:href="#DejaVuSans-53"/>
       <use x="63.623047" xlink:href="#DejaVuSans-44"/>
       <use x="95.410156" xlink:href="#DejaVuSans-48"/>
       <use x="159.033203" xlink:href="#DejaVuSans-48"/>
       <use x="222.65625" xlink:href="#DejaVuSans-48"/>
      </g>
     </g>
    </g>
    <g id="ytick_12">
     <g id="line2d_43">
      <path clip-path="url(#p98112b1597)" d="M 62.86875 54.101664 
L 397.66875 54.101664 
" style="fill:none;stroke:#b0b0b0;stroke-linecap:square;stroke-opacity:0.8;stroke-width:0.8;"/>
     </g>
     <g id="line2d_44">
      <g>
       <use style="stroke:#000000;stroke-width:0.8;" x="62.86875" xlink:href="#m20aa68374e" y="54.101664"/>
      </g>
     </g>
     <g id="text_22">
      <!-- 10,000 -->
      <g transform="translate(20.878125 57.900883)scale(0.1 -0.1)">
       <use xlink:href="#DejaVuSans-49"/>
       <use x="63.623047" xlink:href="#DejaVuSans-48"/>
       <use x="127.246094" xlink:href="#DejaVuSans-44"/>
       <use x="159.033203" xlink:href="#DejaVuSans-48"/>
       <use x="222.65625" xlink:href="#DejaVuSans-48"/>
       <use x="286.279297" xlink:href="#DejaVuSans-48"/>
      </g>
     </g>
    </g>
    <g id="ytick_13">
     <g id="line2d_45">
      <defs>
       <path d="M 0 0 
L -2 0 
" id="mb779fab8cc" style="stroke:#000000;stroke-width:0.6;"/>
      </defs>
      <g>
       <use style="stroke:#000000;stroke-width:0.6;" x="62.86875" xlink:href="#mb779fab8cc" y="230.919859"/>
      </g>
     </g>
    </g>
    <g id="ytick_14">
     <g id="line2d_46">
      <g>
       <use style="stroke:#000000;stroke-width:0.6;" x="62.86875" xlink:href="#mb779fab8cc" y="224.64901"/>
      </g>
     </g>
    </g>
    <g id="ytick_15">
     <g id="line2d_47">
      <g>
       <use style="stroke:#000000;stroke-width:0.6;" x="62.86875" xlink:href="#mb779fab8cc" y="215.810744"/>
      </g>
     </g>
    </g>
    <g id="ytick_16">
     <g id="line2d_48">
      <g>
       <use style="stroke:#000000;stroke-width:0.6;" x="62.86875" xlink:href="#mb779fab8cc" y="212.450591"/>
      </g>
     </g>
    </g>
    <g id="ytick_17">
     <g id="line2d_49">
      <g>
       <use style="stroke:#000000;stroke-width:0.6;" x="62.86875" xlink:href="#mb779fab8cc" y="209.539895"/>
      </g>
     </g>
    </g>
    <g id="ytick_18">
     <g id="line2d_50">
      <g>
       <use style="stroke:#000000;stroke-width:0.6;" x="62.86875" xlink:href="#mb779fab8cc" y="206.972478"/>
      </g>
     </g>
    </g>
    <g id="ytick_19">
     <g id="line2d_51">
      <g>
       <use style="stroke:#000000;stroke-width:0.6;" x="62.86875" xlink:href="#mb779fab8cc" y="180.728465"/>
      </g>
     </g>
    </g>
    <g id="ytick_20">
     <g id="line2d_52">
      <g>
       <use style="stroke:#000000;stroke-width:0.6;" x="62.86875" xlink:href="#mb779fab8cc" y="174.457616"/>
      </g>
     </g>
    </g>
    <g id="ytick_21">
     <g id="line2d_53">
      <g>
       <use style="stroke:#000000;stroke-width:0.6;" x="62.86875" xlink:href="#mb779fab8cc" y="165.61935"/>
      </g>
     </g>
    </g>
    <g id="ytick_22">
     <g id="line2d_54">
      <g>
       <use style="stroke:#000000;stroke-width:0.6;" x="62.86875" xlink:href="#mb779fab8cc" y="162.259197"/>
      </g>
     </g>
    </g>
    <g id="ytick_23">
     <g id="line2d_55">
      <g>
       <use style="stroke:#000000;stroke-width:0.6;" x="62.86875" xlink:href="#mb779fab8cc" y="159.348501"/>
      </g>
     </g>
    </g>
    <g id="ytick_24">
     <g id="line2d_56">
      <g>
       <use style="stroke:#000000;stroke-width:0.6;" x="62.86875" xlink:href="#mb779fab8cc" y="156.781084"/>
      </g>
     </g>
    </g>
    <g id="ytick_25">
     <g id="line2d_57">
      <g>
       <use style="stroke:#000000;stroke-width:0.6;" x="62.86875" xlink:href="#mb779fab8cc" y="130.537071"/>
      </g>
     </g>
    </g>
    <g id="ytick_26">
     <g id="line2d_58">
      <g>
       <use style="stroke:#000000;stroke-width:0.6;" x="62.86875" xlink:href="#mb779fab8cc" y="124.266222"/>
      </g>
     </g>
    </g>
    <g id="ytick_27">
     <g id="line2d_59">
      <g>
       <use style="stroke:#000000;stroke-width:0.6;" x="62.86875" xlink:href="#mb779fab8cc" y="115.427956"/>
      </g>
     </g>
    </g>
    <g id="ytick_28">
     <g id="line2d_60">
      <g>
       <use style="stroke:#000000;stroke-width:0.6;" x="62.86875" xlink:href="#mb779fab8cc" y="112.067803"/>
      </g>
     </g>
    </g>
    <g id="ytick_29">
     <g id="line2d_61">
      <g>
       <use style="stroke:#000000;stroke-width:0.6;" x="62.86875" xlink:href="#mb779fab8cc" y="109.157107"/>
      </g>
     </g>
    </g>
    <g id="ytick_30">
     <g id="line2d_62">
      <g>
       <use style="stroke:#000000;stroke-width:0.6;" x="62.86875" xlink:href="#mb779fab8cc" y="106.58969"/>
      </g>
     </g>
    </g>
    <g id="ytick_31">
     <g id="line2d_63">
      <g>
       <use style="stroke:#000000;stroke-width:0.6;" x="62.86875" xlink:href="#mb779fab8cc" y="80.345677"/>
      </g>
     </g>
    </g>
    <g id="ytick_32">
     <g id="line2d_64">
      <g>
       <use style="stroke:#000000;stroke-width:0.6;" x="62.86875" xlink:href="#mb779fab8cc" y="74.074828"/>
      </g>
     </g>
    </g>
    <g id="ytick_33">
     <g id="line2d_65">
      <g>
       <use style="stroke:#000000;stroke-width:0.6;" x="62.86875" xlink:href="#mb779fab8cc" y="65.236562"/>
      </g>
     </g>
    </g>
    <g id="ytick_34">
     <g id="line2d_66">
      <g>
       <use style="stroke:#000000;stroke-width:0.6;" x="62.86875" xlink:href="#mb779fab8cc" y="61.876409"/>
      </g>
     </g>
    </g>
    <g id="ytick_35">
     <g id="line2d_67">
      <g>
       <use style="stroke:#000000;stroke-width:0.6;" x="62.86875" xlink:href="#mb779fab8cc" y="58.965713"/>
      </g>
     </g>
    </g>
    <g id="ytick_36">
     <g id="line2d_68">
      <g>
       <use style="stroke:#000000;stroke-width:0.6;" x="62.86875" xlink:href="#mb779fab8cc" y="56.398296"/>
      </g>
     </g>
    </g>
    <g id="ytick_37">
     <g id="line2d_69">
      <g>
       <use style="stroke:#000000;stroke-width:0.6;" x="62.86875" xlink:href="#mb779fab8cc" y="38.992549"/>
      </g>
     </g>
    </g>
    <g id="ytick_38">
     <g id="line2d_70">
      <g>
       <use style="stroke:#000000;stroke-width:0.6;" x="62.86875" xlink:href="#mb779fab8cc" y="30.154283"/>
      </g>
     </g>
    </g>
    <g id="ytick_39">
     <g id="line2d_71">
      <g>
       <use style="stroke:#000000;stroke-width:0.6;" x="62.86875" xlink:href="#mb779fab8cc" y="23.883434"/>
      </g>
     </g>
    </g>
    <g id="text_23">
     <!-- Total cases per million -->
     <defs>
      <path d="M -0.296875 72.90625 
L 61.375 72.90625 
L 61.375 64.59375 
L 35.5 64.59375 
L 35.5 0 
L 25.59375 0 
L 25.59375 64.59375 
L -0.296875 64.59375 
z
" id="DejaVuSans-84"/>
      <path d="M 30.609375 48.390625 
Q 23.390625 48.390625 19.1875 42.75 
Q 14.984375 37.109375 14.984375 27.296875 
Q 14.984375 17.484375 19.15625 11.84375 
Q 23.34375 6.203125 30.609375 6.203125 
Q 37.796875 6.203125 41.984375 11.859375 
Q 46.1875 17.53125 46.1875 27.296875 
Q 46.1875 37.015625 41.984375 42.703125 
Q 37.796875 48.390625 30.609375 48.390625 
z
M 30.609375 56 
Q 42.328125 56 49.015625 48.375 
Q 55.71875 40.765625 55.71875 27.296875 
Q 55.71875 13.875 49.015625 6.21875 
Q 42.328125 -1.421875 30.609375 -1.421875 
Q 18.84375 -1.421875 12.171875 6.21875 
Q 5.515625 13.875 5.515625 27.296875 
Q 5.515625 40.765625 12.171875 48.375 
Q 18.84375 56 30.609375 56 
z
" id="DejaVuSans-111"/>
      <path d="M 18.3125 70.21875 
L 18.3125 54.6875 
L 36.8125 54.6875 
L 36.8125 47.703125 
L 18.3125 47.703125 
L 18.3125 18.015625 
Q 18.3125 11.328125 20.140625 9.421875 
Q 21.96875 7.515625 27.59375 7.515625 
L 36.8125 7.515625 
L 36.8125 0 
L 27.59375 0 
Q 17.1875 0 13.234375 3.875 
Q 9.28125 7.765625 9.28125 18.015625 
L 9.28125 47.703125 
L 2.6875 47.703125 
L 2.6875 54.6875 
L 9.28125 54.6875 
L 9.28125 70.21875 
z
" id="DejaVuSans-116"/>
      <path d="M 9.421875 75.984375 
L 18.40625 75.984375 
L 18.40625 0 
L 9.421875 0 
z
" id="DejaVuSans-108"/>
      <path id="DejaVuSans-32"/>
      <path d="M 48.78125 52.59375 
L 48.78125 44.1875 
Q 44.96875 46.296875 41.140625 47.34375 
Q 37.3125 48.390625 33.40625 48.390625 
Q 24.65625 48.390625 19.8125 42.84375 
Q 14.984375 37.3125 14.984375 27.296875 
Q 14.984375 17.28125 19.8125 11.734375 
Q 24.65625 6.203125 33.40625 6.203125 
Q 37.3125 6.203125 41.140625 7.25 
Q 44.96875 8.296875 48.78125 10.40625 
L 48.78125 2.09375 
Q 45.015625 0.34375 40.984375 -0.53125 
Q 36.96875 -1.421875 32.421875 -1.421875 
Q 20.0625 -1.421875 12.78125 6.34375 
Q 5.515625 14.109375 5.515625 27.296875 
Q 5.515625 40.671875 12.859375 48.328125 
Q 20.21875 56 33.015625 56 
Q 37.15625 56 41.109375 55.140625 
Q 45.0625 54.296875 48.78125 52.59375 
z
" id="DejaVuSans-99"/>
      <path d="M 44.28125 53.078125 
L 44.28125 44.578125 
Q 40.484375 46.53125 36.375 47.5 
Q 32.28125 48.484375 27.875 48.484375 
Q 21.1875 48.484375 17.84375 46.4375 
Q 14.5 44.390625 14.5 40.28125 
Q 14.5 37.15625 16.890625 35.375 
Q 19.28125 33.59375 26.515625 31.984375 
L 29.59375 31.296875 
Q 39.15625 29.25 43.1875 25.515625 
Q 47.21875 21.78125 47.21875 15.09375 
Q 47.21875 7.46875 41.1875 3.015625 
Q 35.15625 -1.421875 24.609375 -1.421875 
Q 20.21875 -1.421875 15.453125 -0.5625 
Q 10.6875 0.296875 5.421875 2 
L 5.421875 11.28125 
Q 10.40625 8.6875 15.234375 7.390625 
Q 20.0625 6.109375 24.8125 6.109375 
Q 31.15625 6.109375 34.5625 8.28125 
Q 37.984375 10.453125 37.984375 14.40625 
Q 37.984375 18.0625 35.515625 20.015625 
Q 33.0625 21.96875 24.703125 23.78125 
L 21.578125 24.515625 
Q 13.234375 26.265625 9.515625 29.90625 
Q 5.8125 33.546875 5.8125 39.890625 
Q 5.8125 47.609375 11.28125 51.796875 
Q 16.75 56 26.8125 56 
Q 31.78125 56 36.171875 55.265625 
Q 40.578125 54.546875 44.28125 53.078125 
z
" id="DejaVuSans-115"/>
      <path d="M 56.203125 29.59375 
L 56.203125 25.203125 
L 14.890625 25.203125 
Q 15.484375 15.921875 20.484375 11.0625 
Q 25.484375 6.203125 34.421875 6.203125 
Q 39.59375 6.203125 44.453125 7.46875 
Q 49.3125 8.734375 54.109375 11.28125 
L 54.109375 2.78125 
Q 49.265625 0.734375 44.1875 -0.34375 
Q 39.109375 -1.421875 33.890625 -1.421875 
Q 20.796875 -1.421875 13.15625 6.1875 
Q 5.515625 13.8125 5.515625 26.8125 
Q 5.515625 40.234375 12.765625 48.109375 
Q 20.015625 56 32.328125 56 
Q 43.359375 56 49.78125 48.890625 
Q 56.203125 41.796875 56.203125 29.59375 
z
M 47.21875 32.234375 
Q 47.125 39.59375 43.09375 43.984375 
Q 39.0625 48.390625 32.421875 48.390625 
Q 24.90625 48.390625 20.390625 44.140625 
Q 15.875 39.890625 15.1875 32.171875 
z
" id="DejaVuSans-101"/>
      <path d="M 52 44.1875 
Q 55.375 50.25 60.0625 53.125 
Q 64.75 56 71.09375 56 
Q 79.640625 56 84.28125 50.015625 
Q 88.921875 44.046875 88.921875 33.015625 
L 88.921875 0 
L 79.890625 0 
L 79.890625 32.71875 
Q 79.890625 40.578125 77.09375 44.375 
Q 74.3125 48.1875 68.609375 48.1875 
Q 61.625 48.1875 57.5625 43.546875 
Q 53.515625 38.921875 53.515625 30.90625 
L 53.515625 0 
L 44.484375 0 
L 44.484375 32.71875 
Q 44.484375 40.625 41.703125 44.40625 
Q 38.921875 48.1875 33.109375 48.1875 
Q 26.21875 48.1875 22.15625 43.53125 
Q 18.109375 38.875 18.109375 30.90625 
L 18.109375 0 
L 9.078125 0 
L 9.078125 54.6875 
L 18.109375 54.6875 
L 18.109375 46.1875 
Q 21.1875 51.21875 25.484375 53.609375 
Q 29.78125 56 35.6875 56 
Q 41.65625 56 45.828125 52.96875 
Q 50 49.953125 52 44.1875 
z
" id="DejaVuSans-109"/>
      <path d="M 9.421875 54.6875 
L 18.40625 54.6875 
L 18.40625 0 
L 9.421875 0 
z
M 9.421875 75.984375 
L 18.40625 75.984375 
L 18.40625 64.59375 
L 9.421875 64.59375 
z
" id="DejaVuSans-105"/>
      <path d="M 54.890625 33.015625 
L 54.890625 0 
L 45.90625 0 
L 45.90625 32.71875 
Q 45.90625 40.484375 42.875 44.328125 
Q 39.84375 48.1875 33.796875 48.1875 
Q 26.515625 48.1875 22.3125 43.546875 
Q 18.109375 38.921875 18.109375 30.90625 
L 18.109375 0 
L 9.078125 0 
L 9.078125 54.6875 
L 18.109375 54.6875 
L 18.109375 46.1875 
Q 21.34375 51.125 25.703125 53.5625 
Q 30.078125 56 35.796875 56 
Q 45.21875 56 50.046875 50.171875 
Q 54.890625 44.34375 54.890625 33.015625 
z
" id="DejaVuSans-110"/>
     </defs>
     <g transform="translate(14.798438 187.37875)rotate(-90)scale(0.1 -0.1)">
      <use xlink:href="#DejaVuSans-84"/>
      <use x="60.818359" xlink:href="#DejaVuSans-111"/>
      <use x="122" xlink:href="#DejaVuSans-116"/>
      <use x="161.208984" xlink:href="#DejaVuSans-97"/>
      <use x="222.488281" xlink:href="#DejaVuSans-108"/>
      <use x="250.271484" xlink:href="#DejaVuSans-32"/>
      <use x="282.058594" xlink:href="#DejaVuSans-99"/>
      <use x="337.039062" xlink:href="#DejaVuSans-97"/>
      <use x="398.318359" xlink:href="#DejaVuSans-115"/>
      <use x="450.417969" xlink:href="#DejaVuSans-101"/>
      <use x="511.941406" xlink:href="#DejaVuSans-115"/>
      <use x="564.041016" xlink:href="#DejaVuSans-32"/>
      <use x="595.828125" xlink:href="#DejaVuSans-112"/>
      <use x="659.304688" xlink:href="#DejaVuSans-101"/>
      <use x="720.828125" xlink:href="#DejaVuSans-114"/>
      <use x="761.941406" xlink:href="#DejaVuSans-32"/>
      <use x="793.728516" xlink:href="#DejaVuSans-109"/>
      <use x="891.140625" xlink:href="#DejaVuSans-105"/>
      <use x="918.923828" xlink:href="#DejaVuSans-108"/>
      <use x="946.707031" xlink:href="#DejaVuSans-108"/>
      <use x="974.490234" xlink:href="#DejaVuSans-105"/>
      <use x="1002.273438" xlink:href="#DejaVuSans-111"/>
      <use x="1063.455078" xlink:href="#DejaVuSans-110"/>
     </g>
    </g>
   </g>
   <g id="line2d_72">
    <path clip-path="url(#p98112b1597)" d="M 317.390353 62.770398 
L 326.48041 61.321506 
L 335.570467 59.872613 
L 344.660525 58.423721 
L 353.750582 56.974828 
" style="fill:none;stroke:#7f7f7f;stroke-dasharray:7.4,3.2;stroke-dashoffset:0;stroke-width:2;"/>
   </g>
   <g id="line2d_73">
    <path clip-path="url(#p98112b1597)" d="M 317.390353 92.531782 
L 326.48041 91.010555 
L 335.570467 89.489327 
L 344.660525 87.9681 
L 353.750582 86.446872 
" style="fill:none;stroke:#7f7f7f;stroke-dasharray:7.4,3.2;stroke-dashoffset:0;stroke-width:2;"/>
   </g>
   <g id="line2d_74">
    <path clip-path="url(#p98112b1597)" d="M 317.390353 102.195687 
L 326.48041 101.297095 
L 335.570467 100.398502 
L 344.660525 99.49991 
L 353.750582 98.601317 
" style="fill:none;stroke:#7f7f7f;stroke-dasharray:7.4,3.2;stroke-dashoffset:0;stroke-width:2;"/>
   </g>
   <g id="line2d_75">
    <path clip-path="url(#p98112b1597)" d="M 317.390353 123.251088 
L 326.48041 122.003009 
L 335.570467 120.754931 
L 344.660525 119.506853 
L 353.750582 118.258774 
" style="fill:none;stroke:#7f7f7f;stroke-dasharray:7.4,3.2;stroke-dashoffset:0;stroke-width:2;"/>
   </g>
   <g id="line2d_76">
    <path clip-path="url(#p98112b1597)" d="M 317.390353 142.306707 
L 326.48041 140.655356 
L 335.570467 139.004005 
L 344.660525 137.352653 
L 353.750582 135.701302 
" style="fill:none;stroke:#7f7f7f;stroke-dasharray:7.4,3.2;stroke-dashoffset:0;stroke-width:2;"/>
   </g>
   <g id="line2d_77">
    <path clip-path="url(#p98112b1597)" d="M 35.598578 264.915368 
L 44.688636 258.619904 
L 53.778693 252.324439 
L 62.86875 246.028974 
L 71.958807 239.73351 
L 81.048864 233.438045 
L 90.138922 227.14258 
L 99.228979 220.847116 
L 108.319036 214.551651 
L 117.409093 208.256187 
L 126.499151 201.960722 
L 135.589208 195.665257 
L 144.679265 189.369793 
L 153.769322 183.074328 
L 162.85938 176.778863 
L 171.949437 170.483399 
L 181.039494 164.187934 
L 190.129551 157.89247 
L 199.219609 151.597005 
L 208.309666 145.30154 
L 217.399723 139.006076 
L 226.48978 132.710611 
L 235.579838 126.415146 
L 244.669895 120.119682 
L 253.759952 113.824217 
L 262.850009 107.528752 
L 271.940067 101.233288 
L 281.030124 94.937823 
L 290.120181 88.642359 
L 299.210238 82.346894 
L 308.300296 76.051429 
L 317.390353 69.755965 
L 326.48041 63.4605 
L 335.570467 57.165035 
L 344.660525 50.869571 
L 353.750582 44.574106 
" style="fill:none;stroke:#d62728;stroke-dasharray:5.55,2.4;stroke-dashoffset:0;stroke-width:1.5;"/>
   </g>
   <g id="patch_3">
    <path d="M 62.86875 239.758125 
L 62.86875 22.318125 
" style="fill:none;stroke:#000000;stroke-linecap:square;stroke-linejoin:miter;stroke-width:0.8;"/>
   </g>
   <g id="patch_4">
    <path d="M 397.66875 239.758125 
L 397.66875 22.318125 
" style="fill:none;stroke:#000000;stroke-linecap:square;stroke-linejoin:miter;stroke-width:0.8;"/>
   </g>
   <g id="patch_5">
    <path d="M 62.86875 239.758125 
L 397.66875 239.758125 
" style="fill:none;stroke:#000000;stroke-linecap:square;stroke-linejoin:miter;stroke-width:0.8;"/>
   </g>
   <g id="patch_6">
    <path d="M 62.86875 22.318125 
L 397.66875 22.318125 
" style="fill:none;stroke:#000000;stroke-linecap:square;stroke-linejoin:miter;stroke-width:0.8;"/>
   </g>
   <g id="text_24">
    <!-- © Scott Sievert -->
    <defs>
     <path d="M 50 72.515625 
Q 57.421875 72.515625 63.84375 69.828125 
Q 70.265625 67.140625 75.59375 61.8125 
Q 80.90625 56.5 83.546875 50.09375 
Q 86.1875 43.703125 86.1875 36.1875 
Q 86.1875 28.765625 83.546875 22.390625 
Q 80.90625 16.015625 75.59375 10.6875 
Q 70.265625 5.375 63.84375 2.6875 
Q 57.421875 0 50 0 
Q 42.578125 0 36.15625 2.6875 
Q 29.734375 5.375 24.421875 10.6875 
Q 19.09375 16.015625 16.453125 22.390625 
Q 13.8125 28.765625 13.8125 36.1875 
Q 13.8125 43.703125 16.453125 50.09375 
Q 19.09375 56.5 24.421875 61.8125 
Q 29.734375 67.140625 36.15625 69.828125 
Q 42.578125 72.515625 50 72.515625 
z
M 50 67.484375 
Q 43.609375 67.484375 38.078125 65.1875 
Q 32.5625 62.890625 27.984375 58.296875 
Q 23.390625 53.71875 21.046875 48.125 
Q 18.703125 42.53125 18.703125 36.1875 
Q 18.703125 29.890625 21.046875 24.34375 
Q 23.390625 18.796875 27.984375 14.203125 
Q 32.5625 9.625 38.078125 7.296875 
Q 43.609375 4.984375 50 4.984375 
Q 56.453125 4.984375 61.984375 7.296875 
Q 67.53125 9.625 72.125 14.203125 
Q 76.65625 18.75 78.921875 24.265625 
Q 81.203125 29.78125 81.203125 36.1875 
Q 81.203125 42.671875 78.90625 48.21875 
Q 76.609375 53.765625 72.125 58.296875 
Q 67.53125 62.890625 61.984375 65.1875 
Q 56.453125 67.484375 50 67.484375 
z
M 64.59375 55.515625 
L 64.59375 49.21875 
Q 61.375 50.828125 58.203125 51.609375 
Q 55.03125 52.390625 51.8125 52.390625 
Q 44.53125 52.390625 40.453125 48.109375 
Q 36.375 43.84375 36.375 36.1875 
Q 36.375 28.421875 40.546875 24.171875 
Q 44.734375 19.921875 52.296875 19.921875 
Q 55.421875 19.921875 58.390625 20.671875 
Q 61.375 21.4375 64.59375 23.09375 
L 64.59375 16.890625 
Q 61.328125 15.484375 57.984375 14.796875 
Q 54.640625 14.109375 51.21875 14.109375 
Q 40.671875 14.109375 34.546875 20.0625 
Q 28.421875 26.03125 28.421875 36.1875 
Q 28.421875 46.390625 34.546875 52.296875 
Q 40.671875 58.203125 51.21875 58.203125 
Q 54.78125 58.203125 58.09375 57.515625 
Q 61.421875 56.84375 64.59375 55.515625 
z
" id="DejaVuSans-169"/>
     <path d="M 53.515625 70.515625 
L 53.515625 60.890625 
Q 47.90625 63.578125 42.921875 64.890625 
Q 37.9375 66.21875 33.296875 66.21875 
Q 25.25 66.21875 20.875 63.09375 
Q 16.5 59.96875 16.5 54.203125 
Q 16.5 49.359375 19.40625 46.890625 
Q 22.3125 44.4375 30.421875 42.921875 
L 36.375 41.703125 
Q 47.40625 39.59375 52.65625 34.296875 
Q 57.90625 29 57.90625 20.125 
Q 57.90625 9.515625 50.796875 4.046875 
Q 43.703125 -1.421875 29.984375 -1.421875 
Q 24.8125 -1.421875 18.96875 -0.25 
Q 13.140625 0.921875 6.890625 3.21875 
L 6.890625 13.375 
Q 12.890625 10.015625 18.65625 8.296875 
Q 24.421875 6.59375 29.984375 6.59375 
Q 38.421875 6.59375 43.015625 9.90625 
Q 47.609375 13.234375 47.609375 19.390625 
Q 47.609375 24.75 44.3125 27.78125 
Q 41.015625 30.8125 33.5 32.328125 
L 27.484375 33.5 
Q 16.453125 35.6875 11.515625 40.375 
Q 6.59375 45.0625 6.59375 53.421875 
Q 6.59375 63.09375 13.40625 68.65625 
Q 20.21875 74.21875 32.171875 74.21875 
Q 37.3125 74.21875 42.625 73.28125 
Q 47.953125 72.359375 53.515625 70.515625 
z
" id="DejaVuSans-83"/>
     <path d="M 2.984375 54.6875 
L 12.5 54.6875 
L 29.59375 8.796875 
L 46.6875 54.6875 
L 56.203125 54.6875 
L 35.6875 0 
L 23.484375 0 
z
" id="DejaVuSans-118"/>
    </defs>
    <g style="opacity:0.3;" transform="translate(334.038349 274.840404)scale(0.1 -0.1)">
     <use xlink:href="#DejaVuSans-169"/>
     <use x="100" xlink:href="#DejaVuSans-32"/>
     <use x="131.787109" xlink:href="#DejaVuSans-83"/>
     <use x="195.263672" xlink:href="#DejaVuSans-99"/>
     <use x="250.244141" xlink:href="#DejaVuSans-111"/>
     <use x="311.425781" xlink:href="#DejaVuSans-116"/>
     <use x="350.634766" xlink:href="#DejaVuSans-116"/>
     <use x="389.84375" xlink:href="#DejaVuSans-32"/>
     <use x="421.630859" xlink:href="#DejaVuSans-83"/>
     <use x="485.107422" xlink:href="#DejaVuSans-105"/>
     <use x="512.890625" xlink:href="#DejaVuSans-101"/>
     <use x="574.414062" xlink:href="#DejaVuSans-118"/>
     <use x="633.59375" xlink:href="#DejaVuSans-101"/>
     <use x="695.117188" xlink:href="#DejaVuSans-114"/>
     <use x="736.230469" xlink:href="#DejaVuSans-116"/>
    </g>
   </g>
   <g id="text_25">
    <!-- State infection rates -->
    <defs>
     <path d="M 37.109375 75.984375 
L 37.109375 68.5 
L 28.515625 68.5 
Q 23.6875 68.5 21.796875 66.546875 
Q 19.921875 64.59375 19.921875 59.515625 
L 19.921875 54.6875 
L 34.71875 54.6875 
L 34.71875 47.703125 
L 19.921875 47.703125 
L 19.921875 0 
L 10.890625 0 
L 10.890625 47.703125 
L 2.296875 47.703125 
L 2.296875 54.6875 
L 10.890625 54.6875 
L 10.890625 58.5 
Q 10.890625 67.625 15.140625 71.796875 
Q 19.390625 75.984375 28.609375 75.984375 
z
" id="DejaVuSans-102"/>
    </defs>
    <g transform="translate(169.194375 16.318125)scale(0.12 -0.12)">
     <use xlink:href="#DejaVuSans-83"/>
     <use x="63.476562" xlink:href="#DejaVuSans-116"/>
     <use x="102.685547" xlink:href="#DejaVuSans-97"/>
     <use x="163.964844" xlink:href="#DejaVuSans-116"/>
     <use x="203.173828" xlink:href="#DejaVuSans-101"/>
     <use x="264.697266" xlink:href="#DejaVuSans-32"/>
     <use x="296.484375" xlink:href="#DejaVuSans-105"/>
     <use x="324.267578" xlink:href="#DejaVuSans-110"/>
     <use x="387.646484" xlink:href="#DejaVuSans-102"/>
     <use x="422.851562" xlink:href="#DejaVuSans-101"/>
     <use x="484.375" xlink:href="#DejaVuSans-99"/>
     <use x="539.355469" xlink:href="#DejaVuSans-116"/>
     <use x="578.564453" xlink:href="#DejaVuSans-105"/>
     <use x="606.347656" xlink:href="#DejaVuSans-111"/>
     <use x="667.529297" xlink:href="#DejaVuSans-110"/>
     <use x="730.908203" xlink:href="#DejaVuSans-32"/>
     <use x="762.695312" xlink:href="#DejaVuSans-114"/>
     <use x="803.808594" xlink:href="#DejaVuSans-97"/>
     <use x="865.087891" xlink:href="#DejaVuSans-116"/>
     <use x="904.296875" xlink:href="#DejaVuSans-101"/>
     <use x="965.820312" xlink:href="#DejaVuSans-115"/>
    </g>
   </g>
   <g id="legend_1">
    <g id="patch_7">
     <path d="M 69.86875 133.065 
L 188.135938 133.065 
Q 190.135938 133.065 190.135938 131.065 
L 190.135938 29.318125 
Q 190.135938 27.318125 188.135938 27.318125 
L 69.86875 27.318125 
Q 67.86875 27.318125 67.86875 29.318125 
L 67.86875 131.065 
Q 67.86875 133.065 69.86875 133.065 
z
" style="fill:#ffffff;opacity:0.8;stroke:#cccccc;stroke-linejoin:miter;"/>
    </g>
    <g id="text_26">
     <!-- State (cases in 7 days) -->
     <defs>
      <path d="M 31 75.875 
Q 24.46875 64.65625 21.28125 53.65625 
Q 18.109375 42.671875 18.109375 31.390625 
Q 18.109375 20.125 21.3125 9.0625 
Q 24.515625 -2 31 -13.1875 
L 23.1875 -13.1875 
Q 15.875 -1.703125 12.234375 9.375 
Q 8.59375 20.453125 8.59375 31.390625 
Q 8.59375 42.28125 12.203125 53.3125 
Q 15.828125 64.359375 23.1875 75.875 
z
" id="DejaVuSans-40"/>
      <path d="M 45.40625 46.390625 
L 45.40625 75.984375 
L 54.390625 75.984375 
L 54.390625 0 
L 45.40625 0 
L 45.40625 8.203125 
Q 42.578125 3.328125 38.25 0.953125 
Q 33.9375 -1.421875 27.875 -1.421875 
Q 17.96875 -1.421875 11.734375 6.484375 
Q 5.515625 14.40625 5.515625 27.296875 
Q 5.515625 40.1875 11.734375 48.09375 
Q 17.96875 56 27.875 56 
Q 33.9375 56 38.25 53.625 
Q 42.578125 51.265625 45.40625 46.390625 
z
M 14.796875 27.296875 
Q 14.796875 17.390625 18.875 11.75 
Q 22.953125 6.109375 30.078125 6.109375 
Q 37.203125 6.109375 41.296875 11.75 
Q 45.40625 17.390625 45.40625 27.296875 
Q 45.40625 37.203125 41.296875 42.84375 
Q 37.203125 48.484375 30.078125 48.484375 
Q 22.953125 48.484375 18.875 42.84375 
Q 14.796875 37.203125 14.796875 27.296875 
z
" id="DejaVuSans-100"/>
      <path d="M 32.171875 -5.078125 
Q 28.375 -14.84375 24.75 -17.8125 
Q 21.140625 -20.796875 15.09375 -20.796875 
L 7.90625 -20.796875 
L 7.90625 -13.28125 
L 13.1875 -13.28125 
Q 16.890625 -13.28125 18.9375 -11.515625 
Q 21 -9.765625 23.484375 -3.21875 
L 25.09375 0.875 
L 2.984375 54.6875 
L 12.5 54.6875 
L 29.59375 11.921875 
L 46.6875 54.6875 
L 56.203125 54.6875 
z
" id="DejaVuSans-121"/>
      <path d="M 8.015625 75.875 
L 15.828125 75.875 
Q 23.140625 64.359375 26.78125 53.3125 
Q 30.421875 42.28125 30.421875 31.390625 
Q 30.421875 20.453125 26.78125 9.375 
Q 23.140625 -1.703125 15.828125 -13.1875 
L 8.015625 -13.1875 
Q 14.5 -2 17.703125 9.0625 
Q 20.90625 20.125 20.90625 31.390625 
Q 20.90625 42.671875 17.703125 53.65625 
Q 14.5 64.65625 8.015625 75.875 
z
" id="DejaVuSans-41"/>
     </defs>
     <g transform="translate(71.86875 38.916562)scale(0.1 -0.1)">
      <use xlink:href="#DejaVuSans-83"/>
      <use x="63.476562" xlink:href="#DejaVuSans-116"/>
      <use x="102.685547" xlink:href="#DejaVuSans-97"/>
      <use x="163.964844" xlink:href="#DejaVuSans-116"/>
      <use x="203.173828" xlink:href="#DejaVuSans-101"/>
      <use x="264.697266" xlink:href="#DejaVuSans-32"/>
      <use x="296.484375" xlink:href="#DejaVuSans-40"/>
      <use x="335.498047" xlink:href="#DejaVuSans-99"/>
      <use x="390.478516" xlink:href="#DejaVuSans-97"/>
      <use x="451.757812" xlink:href="#DejaVuSans-115"/>
      <use x="503.857422" xlink:href="#DejaVuSans-101"/>
      <use x="565.380859" xlink:href="#DejaVuSans-115"/>
      <use x="617.480469" xlink:href="#DejaVuSans-32"/>
      <use x="649.267578" xlink:href="#DejaVuSans-105"/>
      <use x="677.050781" xlink:href="#DejaVuSans-110"/>
      <use x="740.429688" xlink:href="#DejaVuSans-32"/>
      <use x="772.216797" xlink:href="#DejaVuSans-55"/>
      <use x="835.839844" xlink:href="#DejaVuSans-32"/>
      <use x="867.626953" xlink:href="#DejaVuSans-100"/>
      <use x="931.103516" xlink:href="#DejaVuSans-97"/>
      <use x="992.382812" xlink:href="#DejaVuSans-121"/>
      <use x="1051.5625" xlink:href="#DejaVuSans-115"/>
      <use x="1103.662109" xlink:href="#DejaVuSans-41"/>
     </g>
    </g>
    <g id="line2d_78">
     <path d="M 89.002344 50.094688 
L 109.002344 50.094688 
" style="fill:none;stroke:#1f77b4;stroke-linecap:square;stroke-width:1.5;"/>
    </g>
    <g id="line2d_79">
     <defs>
      <path d="M 0 3 
C 0.795609 3 1.55874 2.683901 2.12132 2.12132 
C 2.683901 1.55874 3 0.795609 3 0 
C 3 -0.795609 2.683901 -1.55874 2.12132 -2.12132 
C 1.55874 -2.683901 0.795609 -3 0 -3 
C -0.795609 -3 -1.55874 -2.683901 -2.12132 -2.12132 
C -2.683901 -1.55874 -3 -0.795609 -3 0 
C -3 0.795609 -2.683901 1.55874 -2.12132 2.12132 
C -1.55874 2.683901 -0.795609 3 0 3 
z
" id="mbae91b9182" style="stroke:#1f77b4;"/>
     </defs>
     <g>
      <use style="fill:#1f77b4;stroke:#1f77b4;" x="99.002344" xlink:href="#mbae91b9182" y="50.094688"/>
     </g>
    </g>
    <g id="text_27">
     <!-- NY (1.6$\times$) -->
     <defs>
      <path d="M 9.8125 72.90625 
L 23.09375 72.90625 
L 55.421875 11.921875 
L 55.421875 72.90625 
L 64.984375 72.90625 
L 64.984375 0 
L 51.703125 0 
L 19.390625 60.984375 
L 19.390625 0 
L 9.8125 0 
z
" id="DejaVuSans-78"/>
      <path d="M -0.203125 72.90625 
L 10.40625 72.90625 
L 30.609375 42.921875 
L 50.6875 72.90625 
L 61.28125 72.90625 
L 35.5 34.71875 
L 35.5 0 
L 25.59375 0 
L 25.59375 34.71875 
z
" id="DejaVuSans-89"/>
      <path d="M 33.015625 40.375 
Q 26.375 40.375 22.484375 35.828125 
Q 18.609375 31.296875 18.609375 23.390625 
Q 18.609375 15.53125 22.484375 10.953125 
Q 26.375 6.390625 33.015625 6.390625 
Q 39.65625 6.390625 43.53125 10.953125 
Q 47.40625 15.53125 47.40625 23.390625 
Q 47.40625 31.296875 43.53125 35.828125 
Q 39.65625 40.375 33.015625 40.375 
z
M 52.59375 71.296875 
L 52.59375 62.3125 
Q 48.875 64.0625 45.09375 64.984375 
Q 41.3125 65.921875 37.59375 65.921875 
Q 27.828125 65.921875 22.671875 59.328125 
Q 17.53125 52.734375 16.796875 39.40625 
Q 19.671875 43.65625 24.015625 45.921875 
Q 28.375 48.1875 33.59375 48.1875 
Q 44.578125 48.1875 50.953125 41.515625 
Q 57.328125 34.859375 57.328125 23.390625 
Q 57.328125 12.15625 50.6875 5.359375 
Q 44.046875 -1.421875 33.015625 -1.421875 
Q 20.359375 -1.421875 13.671875 8.265625 
Q 6.984375 17.96875 6.984375 36.375 
Q 6.984375 53.65625 15.1875 63.9375 
Q 23.390625 74.21875 37.203125 74.21875 
Q 40.921875 74.21875 44.703125 73.484375 
Q 48.484375 72.75 52.59375 71.296875 
z
" id="DejaVuSans-54"/>
      <path d="M 70.125 53.71875 
L 47.796875 31.296875 
L 70.125 8.984375 
L 64.3125 3.078125 
L 41.890625 25.484375 
L 19.484375 3.078125 
L 13.71875 8.984375 
L 35.984375 31.296875 
L 13.71875 53.71875 
L 19.484375 59.625 
L 41.890625 37.203125 
L 64.3125 59.625 
z
" id="DejaVuSans-215"/>
     </defs>
     <g transform="translate(117.002344 53.594688)scale(0.1 -0.1)">
      <use transform="translate(0 0.125)" xlink:href="#DejaVuSans-78"/>
      <use transform="translate(74.804688 0.125)" xlink:href="#DejaVuSans-89"/>
      <use transform="translate(135.888672 0.125)" xlink:href="#DejaVuSans-32"/>
      <use transform="translate(167.675781 0.125)" xlink:href="#DejaVuSans-40"/>
      <use transform="translate(206.689453 0.125)" xlink:href="#DejaVuSans-49"/>
      <use transform="translate(270.3125 0.125)" xlink:href="#DejaVuSans-46"/>
      <use transform="translate(302.099609 0.125)" xlink:href="#DejaVuSans-54"/>
      <use transform="translate(365.722656 0.125)" xlink:href="#DejaVuSans-215"/>
      <use transform="translate(449.511719 0.125)" xlink:href="#DejaVuSans-41"/>
     </g>
    </g>
    <g id="line2d_80">
     <path d="M 89.002344 64.772813 
L 109.002344 64.772813 
" style="fill:none;stroke:#ff7f0e;stroke-linecap:square;stroke-width:1.5;"/>
    </g>
    <g id="line2d_81">
     <defs>
      <path d="M 0 3 
C 0.795609 3 1.55874 2.683901 2.12132 2.12132 
C 2.683901 1.55874 3 0.795609 3 0 
C 3 -0.795609 2.683901 -1.55874 2.12132 -2.12132 
C 1.55874 -2.683901 0.795609 -3 0 -3 
C -0.795609 -3 -1.55874 -2.683901 -2.12132 -2.12132 
C -2.683901 -1.55874 -3 -0.795609 -3 0 
C -3 0.795609 -2.683901 1.55874 -2.12132 2.12132 
C -1.55874 2.683901 -0.795609 3 0 3 
z
" id="m5d7c15fa52" style="stroke:#ff7f0e;"/>
     </defs>
     <g>
      <use style="fill:#ff7f0e;stroke:#ff7f0e;" x="99.002344" xlink:href="#m5d7c15fa52" y="64.772813"/>
     </g>
    </g>
    <g id="text_28">
     <!-- MI (1.6$\times$) -->
     <defs>
      <path d="M 9.8125 72.90625 
L 19.671875 72.90625 
L 19.671875 0 
L 9.8125 0 
z
" id="DejaVuSans-73"/>
     </defs>
     <g transform="translate(117.002344 68.272813)scale(0.1 -0.1)">
      <use transform="translate(0 0.125)" xlink:href="#DejaVuSans-77"/>
      <use transform="translate(86.279297 0.125)" xlink:href="#DejaVuSans-73"/>
      <use transform="translate(115.771484 0.125)" xlink:href="#DejaVuSans-32"/>
      <use transform="translate(147.558594 0.125)" xlink:href="#DejaVuSans-40"/>
      <use transform="translate(186.572266 0.125)" xlink:href="#DejaVuSans-49"/>
      <use transform="translate(250.195312 0.125)" xlink:href="#DejaVuSans-46"/>
      <use transform="translate(281.982422 0.125)" xlink:href="#DejaVuSans-54"/>
      <use transform="translate(345.605469 0.125)" xlink:href="#DejaVuSans-215"/>
      <use transform="translate(429.394531 0.125)" xlink:href="#DejaVuSans-41"/>
     </g>
    </g>
    <g id="line2d_82">
     <path d="M 89.002344 79.450938 
L 109.002344 79.450938 
" style="fill:none;stroke:#2ca02c;stroke-linecap:square;stroke-width:1.5;"/>
    </g>
    <g id="line2d_83">
     <defs>
      <path d="M 0 3 
C 0.795609 3 1.55874 2.683901 2.12132 2.12132 
C 2.683901 1.55874 3 0.795609 3 0 
C 3 -0.795609 2.683901 -1.55874 2.12132 -2.12132 
C 1.55874 -2.683901 0.795609 -3 0 -3 
C -0.795609 -3 -1.55874 -2.683901 -2.12132 -2.12132 
C -2.683901 -1.55874 -3 -0.795609 -3 0 
C -3 0.795609 -2.683901 1.55874 -2.12132 2.12132 
C -1.55874 2.683901 -0.795609 3 0 3 
z
" id="m95a89e4c60" style="stroke:#2ca02c;"/>
     </defs>
     <g>
      <use style="fill:#2ca02c;stroke:#2ca02c;" x="99.002344" xlink:href="#m95a89e4c60" y="79.450938"/>
     </g>
    </g>
    <g id="text_29">
     <!-- WA (1.3$\times$) -->
     <defs>
      <path d="M 3.328125 72.90625 
L 13.28125 72.90625 
L 28.609375 11.28125 
L 43.890625 72.90625 
L 54.984375 72.90625 
L 70.3125 11.28125 
L 85.59375 72.90625 
L 95.609375 72.90625 
L 77.296875 0 
L 64.890625 0 
L 49.515625 63.28125 
L 33.984375 0 
L 21.578125 0 
z
" id="DejaVuSans-87"/>
     </defs>
     <g transform="translate(117.002344 82.950938)scale(0.1 -0.1)">
      <use transform="translate(0 0.125)" xlink:href="#DejaVuSans-87"/>
      <use transform="translate(98.876953 0.125)" xlink:href="#DejaVuSans-65"/>
      <use transform="translate(167.285156 0.125)" xlink:href="#DejaVuSans-32"/>
      <use transform="translate(199.072266 0.125)" xlink:href="#DejaVuSans-40"/>
      <use transform="translate(238.085938 0.125)" xlink:href="#DejaVuSans-49"/>
      <use transform="translate(301.708984 0.125)" xlink:href="#DejaVuSans-46"/>
      <use transform="translate(333.496094 0.125)" xlink:href="#DejaVuSans-51"/>
      <use transform="translate(397.119141 0.125)" xlink:href="#DejaVuSans-215"/>
      <use transform="translate(480.908203 0.125)" xlink:href="#DejaVuSans-41"/>
     </g>
    </g>
    <g id="line2d_84">
     <path d="M 89.002344 94.129063 
L 109.002344 94.129063 
" style="fill:none;stroke:#d62728;stroke-linecap:square;stroke-width:1.5;"/>
    </g>
    <g id="line2d_85">
     <defs>
      <path d="M 0 3 
C 0.795609 3 1.55874 2.683901 2.12132 2.12132 
C 2.683901 1.55874 3 0.795609 3 0 
C 3 -0.795609 2.683901 -1.55874 2.12132 -2.12132 
C 1.55874 -2.683901 0.795609 -3 0 -3 
C -0.795609 -3 -1.55874 -2.683901 -2.12132 -2.12132 
C -2.683901 -1.55874 -3 -0.795609 -3 0 
C -3 0.795609 -2.683901 1.55874 -2.12132 2.12132 
C -1.55874 2.683901 -0.795609 3 0 3 
z
" id="m2d6c6881a6" style="stroke:#d62728;"/>
     </defs>
     <g>
      <use style="fill:#d62728;stroke:#d62728;" x="99.002344" xlink:href="#m2d6c6881a6" y="94.129063"/>
     </g>
    </g>
    <g id="text_30">
     <!-- WI (1.5$\times$) -->
     <g transform="translate(117.002344 97.629063)scale(0.1 -0.1)">
      <use transform="translate(0 0.125)" xlink:href="#DejaVuSans-87"/>
      <use transform="translate(98.876953 0.125)" xlink:href="#DejaVuSans-73"/>
      <use transform="translate(128.369141 0.125)" xlink:href="#DejaVuSans-32"/>
      <use transform="translate(160.15625 0.125)" xlink:href="#DejaVuSans-40"/>
      <use transform="translate(199.169922 0.125)" xlink:href="#DejaVuSans-49"/>
      <use transform="translate(262.792969 0.125)" xlink:href="#DejaVuSans-46"/>
      <use transform="translate(294.580078 0.125)" xlink:href="#DejaVuSans-53"/>
      <use transform="translate(358.203125 0.125)" xlink:href="#DejaVuSans-215"/>
      <use transform="translate(441.992188 0.125)" xlink:href="#DejaVuSans-41"/>
     </g>
    </g>
    <g id="line2d_86">
     <path d="M 89.002344 108.807188 
L 109.002344 108.807188 
" style="fill:none;stroke:#9467bd;stroke-linecap:square;stroke-width:1.5;"/>
    </g>
    <g id="line2d_87">
     <defs>
      <path d="M 0 3 
C 0.795609 3 1.55874 2.683901 2.12132 2.12132 
C 2.683901 1.55874 3 0.795609 3 0 
C 3 -0.795609 2.683901 -1.55874 2.12132 -2.12132 
C 1.55874 -2.683901 0.795609 -3 0 -3 
C -0.795609 -3 -1.55874 -2.683901 -2.12132 -2.12132 
C -2.683901 -1.55874 -3 -0.795609 -3 0 
C -3 0.795609 -2.683901 1.55874 -2.12132 2.12132 
C -1.55874 2.683901 -0.795609 3 0 3 
z
" id="mbe2679c04c" style="stroke:#9467bd;"/>
     </defs>
     <g>
      <use style="fill:#9467bd;stroke:#9467bd;" x="99.002344" xlink:href="#mbe2679c04c" y="108.807188"/>
     </g>
    </g>
    <g id="text_31">
     <!-- MN (1.7$\times$) -->
     <g transform="translate(117.002344 112.307188)scale(0.1 -0.1)">
      <use transform="translate(0 0.125)" xlink:href="#DejaVuSans-77"/>
      <use transform="translate(86.279297 0.125)" xlink:href="#DejaVuSans-78"/>
      <use transform="translate(161.083984 0.125)" xlink:href="#DejaVuSans-32"/>
      <use transform="translate(192.871094 0.125)" xlink:href="#DejaVuSans-40"/>
      <use transform="translate(231.884766 0.125)" xlink:href="#DejaVuSans-49"/>
      <use transform="translate(295.507812 0.125)" xlink:href="#DejaVuSans-46"/>
      <use transform="translate(327.185547 0.125)" xlink:href="#DejaVuSans-55"/>
      <use transform="translate(390.808594 0.125)" xlink:href="#DejaVuSans-215"/>
      <use transform="translate(474.597656 0.125)" xlink:href="#DejaVuSans-41"/>
     </g>
    </g>
    <g id="line2d_88">
     <path d="M 89.002344 123.485313 
L 109.002344 123.485313 
" style="fill:none;stroke:#d62728;stroke-dasharray:5.55,2.4;stroke-dashoffset:0;stroke-width:1.5;"/>
    </g>
    <g id="line2d_89"/>
    <g id="text_32">
     <!-- (7.6×) -->
     <g transform="translate(117.002344 126.985313)scale(0.1 -0.1)">
      <use xlink:href="#DejaVuSans-40"/>
      <use x="39.013672" xlink:href="#DejaVuSans-55"/>
      <use x="102.636719" xlink:href="#DejaVuSans-46"/>
      <use x="134.423828" xlink:href="#DejaVuSans-54"/>
      <use x="198.046875" xlink:href="#DejaVuSans-215"/>
      <use x="281.835938" xlink:href="#DejaVuSans-41"/>
     </g>
    </g>
   </g>
   <g id="line2d_90">
    <path clip-path="url(#p98112b1597)" d="M 13.058069 285.120091 
L 17.418464 267.294952 
L 26.508521 252.185837 
L 35.598578 237.076722 
L 44.688636 221.7213 
L 53.778693 217.910978 
L 62.86875 211.53755 
L 71.958807 207.233249 
L 81.048864 202.293731 
L 90.138922 193.422008 
L 99.228979 187.847526 
L 108.319036 179.764315 
L 117.409093 175.790098 
L 126.499151 170.107804 
L 135.589208 162.063974 
L 144.679265 150.070488 
L 153.769322 137.958522 
L 162.85938 126.257738 
L 171.949437 118.035817 
L 181.039494 109.717282 
L 190.129551 102.755828 
L 199.219609 98.252917 
L 208.309666 92.729837 
L 217.399723 89.139237 
L 226.48978 86.190205 
L 235.579838 82.297125 
L 244.669895 79.899343 
L 253.759952 77.279945 
L 262.850009 74.637302 
L 271.940067 72.436284 
L 281.030124 70.242793 
L 290.120181 67.990143 
L 299.210238 65.561181 
L 308.300296 64.110248 
L 317.390353 62.770398 
L 326.48041 61.259955 
L 335.570467 59.855887 
L 344.660525 58.37045 
L 353.750582 56.974828 
" style="fill:none;stroke:#1f77b4;stroke-linecap:square;stroke-width:1.5;"/>
    <g clip-path="url(#p98112b1597)">
     <use style="fill:#1f77b4;stroke:#1f77b4;" x="-1" xlink:href="#mbae91b9182" y="319.563902"/>
     <use style="fill:#1f77b4;stroke:#1f77b4;" x="-0.761651" xlink:href="#mbae91b9182" y="319.563902"/>
     <use style="fill:#1f77b4;stroke:#1f77b4;" x="8.328407" xlink:href="#mbae91b9182" y="304.454787"/>
     <use style="fill:#1f77b4;stroke:#1f77b4;" x="17.418464" xlink:href="#mbae91b9182" y="267.294952"/>
     <use style="fill:#1f77b4;stroke:#1f77b4;" x="26.508521" xlink:href="#mbae91b9182" y="252.185837"/>
     <use style="fill:#1f77b4;stroke:#1f77b4;" x="35.598578" xlink:href="#mbae91b9182" y="237.076722"/>
     <use style="fill:#1f77b4;stroke:#1f77b4;" x="44.688636" xlink:href="#mbae91b9182" y="221.7213"/>
     <use style="fill:#1f77b4;stroke:#1f77b4;" x="53.778693" xlink:href="#mbae91b9182" y="217.910978"/>
     <use style="fill:#1f77b4;stroke:#1f77b4;" x="62.86875" xlink:href="#mbae91b9182" y="211.53755"/>
     <use style="fill:#1f77b4;stroke:#1f77b4;" x="71.958807" xlink:href="#mbae91b9182" y="207.233249"/>
     <use style="fill:#1f77b4;stroke:#1f77b4;" x="81.048864" xlink:href="#mbae91b9182" y="202.293731"/>
     <use style="fill:#1f77b4;stroke:#1f77b4;" x="90.138922" xlink:href="#mbae91b9182" y="193.422008"/>
     <use style="fill:#1f77b4;stroke:#1f77b4;" x="99.228979" xlink:href="#mbae91b9182" y="187.847526"/>
     <use style="fill:#1f77b4;stroke:#1f77b4;" x="108.319036" xlink:href="#mbae91b9182" y="179.764315"/>
     <use style="fill:#1f77b4;stroke:#1f77b4;" x="117.409093" xlink:href="#mbae91b9182" y="175.790098"/>
     <use style="fill:#1f77b4;stroke:#1f77b4;" x="126.499151" xlink:href="#mbae91b9182" y="170.107804"/>
     <use style="fill:#1f77b4;stroke:#1f77b4;" x="135.589208" xlink:href="#mbae91b9182" y="162.063974"/>
     <use style="fill:#1f77b4;stroke:#1f77b4;" x="144.679265" xlink:href="#mbae91b9182" y="150.070488"/>
     <use style="fill:#1f77b4;stroke:#1f77b4;" x="153.769322" xlink:href="#mbae91b9182" y="137.958522"/>
     <use style="fill:#1f77b4;stroke:#1f77b4;" x="162.85938" xlink:href="#mbae91b9182" y="126.257738"/>
     <use style="fill:#1f77b4;stroke:#1f77b4;" x="171.949437" xlink:href="#mbae91b9182" y="118.035817"/>
     <use style="fill:#1f77b4;stroke:#1f77b4;" x="181.039494" xlink:href="#mbae91b9182" y="109.717282"/>
     <use style="fill:#1f77b4;stroke:#1f77b4;" x="190.129551" xlink:href="#mbae91b9182" y="102.755828"/>
     <use style="fill:#1f77b4;stroke:#1f77b4;" x="199.219609" xlink:href="#mbae91b9182" y="98.252917"/>
     <use style="fill:#1f77b4;stroke:#1f77b4;" x="208.309666" xlink:href="#mbae91b9182" y="92.729837"/>
     <use style="fill:#1f77b4;stroke:#1f77b4;" x="217.399723" xlink:href="#mbae91b9182" y="89.139237"/>
     <use style="fill:#1f77b4;stroke:#1f77b4;" x="226.48978" xlink:href="#mbae91b9182" y="86.190205"/>
     <use style="fill:#1f77b4;stroke:#1f77b4;" x="235.579838" xlink:href="#mbae91b9182" y="82.297125"/>
     <use style="fill:#1f77b4;stroke:#1f77b4;" x="244.669895" xlink:href="#mbae91b9182" y="79.899343"/>
     <use style="fill:#1f77b4;stroke:#1f77b4;" x="253.759952" xlink:href="#mbae91b9182" y="77.279945"/>
     <use style="fill:#1f77b4;stroke:#1f77b4;" x="262.850009" xlink:href="#mbae91b9182" y="74.637302"/>
     <use style="fill:#1f77b4;stroke:#1f77b4;" x="271.940067" xlink:href="#mbae91b9182" y="72.436284"/>
     <use style="fill:#1f77b4;stroke:#1f77b4;" x="281.030124" xlink:href="#mbae91b9182" y="70.242793"/>
     <use style="fill:#1f77b4;stroke:#1f77b4;" x="290.120181" xlink:href="#mbae91b9182" y="67.990143"/>
     <use style="fill:#1f77b4;stroke:#1f77b4;" x="299.210238" xlink:href="#mbae91b9182" y="65.561181"/>
     <use style="fill:#1f77b4;stroke:#1f77b4;" x="308.300296" xlink:href="#mbae91b9182" y="64.110248"/>
     <use style="fill:#1f77b4;stroke:#1f77b4;" x="317.390353" xlink:href="#mbae91b9182" y="62.770398"/>
     <use style="fill:#1f77b4;stroke:#1f77b4;" x="326.48041" xlink:href="#mbae91b9182" y="61.259955"/>
     <use style="fill:#1f77b4;stroke:#1f77b4;" x="335.570467" xlink:href="#mbae91b9182" y="59.855887"/>
     <use style="fill:#1f77b4;stroke:#1f77b4;" x="344.660525" xlink:href="#mbae91b9182" y="58.37045"/>
     <use style="fill:#1f77b4;stroke:#1f77b4;" x="353.750582" xlink:href="#mbae91b9182" y="56.974828"/>
    </g>
   </g>
   <g id="line2d_91">
    <path clip-path="url(#p98112b1597)" d="M 82.166199 285.120091 
L 90.138922 250.864355 
L 99.228979 234.865409 
L 108.319036 228.813635 
L 117.409093 218.486157 
L 126.499151 218.078709 
L 135.589208 214.037318 
L 144.679265 209.511227 
L 153.769322 178.359613 
L 162.85938 167.566752 
L 171.949437 159.676958 
L 181.039494 153.74807 
L 190.129551 148.338056 
L 199.219609 141.752564 
L 208.309666 136.357098 
L 217.399723 131.413378 
L 226.48978 126.191758 
L 235.579838 121.02582 
L 244.669895 117.351505 
L 253.759952 113.627718 
L 262.850009 110.160648 
L 271.940067 105.862688 
L 281.030124 102.604978 
L 290.120181 99.105889 
L 299.210238 96.582483 
L 308.300296 94.522347 
L 317.390353 92.531782 
L 326.48041 90.443817 
L 335.570467 88.916808 
L 344.660525 87.705942 
L 353.750582 86.446872 
" style="fill:none;stroke:#ff7f0e;stroke-linecap:square;stroke-width:1.5;"/>
    <g clip-path="url(#p98112b1597)">
     <use style="fill:#ff7f0e;stroke:#ff7f0e;" x="71.958807" xlink:href="#m5d7c15fa52" y="289.920851"/>
     <use style="fill:#ff7f0e;stroke:#ff7f0e;" x="81.048864" xlink:href="#m5d7c15fa52" y="289.920851"/>
     <use style="fill:#ff7f0e;stroke:#ff7f0e;" x="90.138922" xlink:href="#m5d7c15fa52" y="250.864355"/>
     <use style="fill:#ff7f0e;stroke:#ff7f0e;" x="99.228979" xlink:href="#m5d7c15fa52" y="234.865409"/>
     <use style="fill:#ff7f0e;stroke:#ff7f0e;" x="108.319036" xlink:href="#m5d7c15fa52" y="228.813635"/>
     <use style="fill:#ff7f0e;stroke:#ff7f0e;" x="117.409093" xlink:href="#m5d7c15fa52" y="218.486157"/>
     <use style="fill:#ff7f0e;stroke:#ff7f0e;" x="126.499151" xlink:href="#m5d7c15fa52" y="218.078709"/>
     <use style="fill:#ff7f0e;stroke:#ff7f0e;" x="135.589208" xlink:href="#m5d7c15fa52" y="214.037318"/>
     <use style="fill:#ff7f0e;stroke:#ff7f0e;" x="144.679265" xlink:href="#m5d7c15fa52" y="209.511227"/>
     <use style="fill:#ff7f0e;stroke:#ff7f0e;" x="153.769322" xlink:href="#m5d7c15fa52" y="178.359613"/>
     <use style="fill:#ff7f0e;stroke:#ff7f0e;" x="162.85938" xlink:href="#m5d7c15fa52" y="167.566752"/>
     <use style="fill:#ff7f0e;stroke:#ff7f0e;" x="171.949437" xlink:href="#m5d7c15fa52" y="159.676958"/>
     <use style="fill:#ff7f0e;stroke:#ff7f0e;" x="181.039494" xlink:href="#m5d7c15fa52" y="153.74807"/>
     <use style="fill:#ff7f0e;stroke:#ff7f0e;" x="190.129551" xlink:href="#m5d7c15fa52" y="148.338056"/>
     <use style="fill:#ff7f0e;stroke:#ff7f0e;" x="199.219609" xlink:href="#m5d7c15fa52" y="141.752564"/>
     <use style="fill:#ff7f0e;stroke:#ff7f0e;" x="208.309666" xlink:href="#m5d7c15fa52" y="136.357098"/>
     <use style="fill:#ff7f0e;stroke:#ff7f0e;" x="217.399723" xlink:href="#m5d7c15fa52" y="131.413378"/>
     <use style="fill:#ff7f0e;stroke:#ff7f0e;" x="226.48978" xlink:href="#m5d7c15fa52" y="126.191758"/>
     <use style="fill:#ff7f0e;stroke:#ff7f0e;" x="235.579838" xlink:href="#m5d7c15fa52" y="121.02582"/>
     <use style="fill:#ff7f0e;stroke:#ff7f0e;" x="244.669895" xlink:href="#m5d7c15fa52" y="117.351505"/>
     <use style="fill:#ff7f0e;stroke:#ff7f0e;" x="253.759952" xlink:href="#m5d7c15fa52" y="113.627718"/>
     <use style="fill:#ff7f0e;stroke:#ff7f0e;" x="262.850009" xlink:href="#m5d7c15fa52" y="110.160648"/>
     <use style="fill:#ff7f0e;stroke:#ff7f0e;" x="271.940067" xlink:href="#m5d7c15fa52" y="105.862688"/>
     <use style="fill:#ff7f0e;stroke:#ff7f0e;" x="281.030124" xlink:href="#m5d7c15fa52" y="102.604978"/>
     <use style="fill:#ff7f0e;stroke:#ff7f0e;" x="290.120181" xlink:href="#m5d7c15fa52" y="99.105889"/>
     <use style="fill:#ff7f0e;stroke:#ff7f0e;" x="299.210238" xlink:href="#m5d7c15fa52" y="96.582483"/>
     <use style="fill:#ff7f0e;stroke:#ff7f0e;" x="308.300296" xlink:href="#m5d7c15fa52" y="94.522347"/>
     <use style="fill:#ff7f0e;stroke:#ff7f0e;" x="317.390353" xlink:href="#m5d7c15fa52" y="92.531782"/>
     <use style="fill:#ff7f0e;stroke:#ff7f0e;" x="326.48041" xlink:href="#m5d7c15fa52" y="90.443817"/>
     <use style="fill:#ff7f0e;stroke:#ff7f0e;" x="335.570467" xlink:href="#m5d7c15fa52" y="88.916808"/>
     <use style="fill:#ff7f0e;stroke:#ff7f0e;" x="344.660525" xlink:href="#m5d7c15fa52" y="87.705942"/>
     <use style="fill:#ff7f0e;stroke:#ff7f0e;" x="353.750582" xlink:href="#m5d7c15fa52" y="86.446872"/>
    </g>
   </g>
   <g id="line2d_92">
    <path clip-path="url(#p98112b1597)" d="M -1 230.944928 
L -0.761651 230.772157 
L 8.328407 223.5736 
L 17.418464 215.194253 
L 26.508521 205.007237 
L 35.598578 202.024002 
L 44.688636 196.658831 
L 53.778693 191.246872 
L 62.86875 186.045341 
L 71.958807 176.370891 
L 81.048864 172.189321 
L 90.138922 167.506598 
L 99.228979 163.179755 
L 108.319036 159.355352 
L 117.409093 157.112475 
L 126.499151 153.573142 
L 135.589208 150.648723 
L 144.679265 147.985492 
L 153.769322 144.068003 
L 162.85938 141.148433 
L 171.949437 137.563217 
L 181.039494 135.206083 
L 190.129551 132.361981 
L 199.219609 128.843813 
L 208.309666 127.843024 
L 217.399723 123.136385 
L 226.48978 119.617618 
L 235.579838 116.694638 
L 244.669895 113.920892 
L 253.759952 112.695996 
L 262.850009 112.225505 
L 271.940067 111.039153 
L 281.030124 107.460538 
L 290.120181 106.234478 
L 299.210238 104.630262 
L 308.300296 103.261288 
L 317.390353 102.195687 
L 326.48041 101.434358 
L 335.570467 100.416556 
L 344.660525 99.225274 
L 353.750582 98.601317 
" style="fill:none;stroke:#2ca02c;stroke-linecap:square;stroke-width:1.5;"/>
    <g clip-path="url(#p98112b1597)">
     <use style="fill:#2ca02c;stroke:#2ca02c;" x="-1" xlink:href="#m95a89e4c60" y="230.944928"/>
     <use style="fill:#2ca02c;stroke:#2ca02c;" x="-0.761651" xlink:href="#m95a89e4c60" y="230.772157"/>
     <use style="fill:#2ca02c;stroke:#2ca02c;" x="8.328407" xlink:href="#m95a89e4c60" y="223.5736"/>
     <use style="fill:#2ca02c;stroke:#2ca02c;" x="17.418464" xlink:href="#m95a89e4c60" y="215.194253"/>
     <use style="fill:#2ca02c;stroke:#2ca02c;" x="26.508521" xlink:href="#m95a89e4c60" y="205.007237"/>
     <use style="fill:#2ca02c;stroke:#2ca02c;" x="35.598578" xlink:href="#m95a89e4c60" y="202.024002"/>
     <use style="fill:#2ca02c;stroke:#2ca02c;" x="44.688636" xlink:href="#m95a89e4c60" y="196.658831"/>
     <use style="fill:#2ca02c;stroke:#2ca02c;" x="53.778693" xlink:href="#m95a89e4c60" y="191.246872"/>
     <use style="fill:#2ca02c;stroke:#2ca02c;" x="62.86875" xlink:href="#m95a89e4c60" y="186.045341"/>
     <use style="fill:#2ca02c;stroke:#2ca02c;" x="71.958807" xlink:href="#m95a89e4c60" y="176.370891"/>
     <use style="fill:#2ca02c;stroke:#2ca02c;" x="81.048864" xlink:href="#m95a89e4c60" y="172.189321"/>
     <use style="fill:#2ca02c;stroke:#2ca02c;" x="90.138922" xlink:href="#m95a89e4c60" y="167.506598"/>
     <use style="fill:#2ca02c;stroke:#2ca02c;" x="99.228979" xlink:href="#m95a89e4c60" y="163.179755"/>
     <use style="fill:#2ca02c;stroke:#2ca02c;" x="108.319036" xlink:href="#m95a89e4c60" y="159.355352"/>
     <use style="fill:#2ca02c;stroke:#2ca02c;" x="117.409093" xlink:href="#m95a89e4c60" y="157.112475"/>
     <use style="fill:#2ca02c;stroke:#2ca02c;" x="126.499151" xlink:href="#m95a89e4c60" y="153.573142"/>
     <use style="fill:#2ca02c;stroke:#2ca02c;" x="135.589208" xlink:href="#m95a89e4c60" y="150.648723"/>
     <use style="fill:#2ca02c;stroke:#2ca02c;" x="144.679265" xlink:href="#m95a89e4c60" y="147.985492"/>
     <use style="fill:#2ca02c;stroke:#2ca02c;" x="153.769322" xlink:href="#m95a89e4c60" y="144.068003"/>
     <use style="fill:#2ca02c;stroke:#2ca02c;" x="162.85938" xlink:href="#m95a89e4c60" y="141.148433"/>
     <use style="fill:#2ca02c;stroke:#2ca02c;" x="171.949437" xlink:href="#m95a89e4c60" y="137.563217"/>
     <use style="fill:#2ca02c;stroke:#2ca02c;" x="181.039494" xlink:href="#m95a89e4c60" y="135.206083"/>
     <use style="fill:#2ca02c;stroke:#2ca02c;" x="190.129551" xlink:href="#m95a89e4c60" y="132.361981"/>
     <use style="fill:#2ca02c;stroke:#2ca02c;" x="199.219609" xlink:href="#m95a89e4c60" y="128.843813"/>
     <use style="fill:#2ca02c;stroke:#2ca02c;" x="208.309666" xlink:href="#m95a89e4c60" y="127.843024"/>
     <use style="fill:#2ca02c;stroke:#2ca02c;" x="217.399723" xlink:href="#m95a89e4c60" y="123.136385"/>
     <use style="fill:#2ca02c;stroke:#2ca02c;" x="226.48978" xlink:href="#m95a89e4c60" y="119.617618"/>
     <use style="fill:#2ca02c;stroke:#2ca02c;" x="235.579838" xlink:href="#m95a89e4c60" y="116.694638"/>
     <use style="fill:#2ca02c;stroke:#2ca02c;" x="244.669895" xlink:href="#m95a89e4c60" y="113.920892"/>
     <use style="fill:#2ca02c;stroke:#2ca02c;" x="253.759952" xlink:href="#m95a89e4c60" y="112.695996"/>
     <use style="fill:#2ca02c;stroke:#2ca02c;" x="262.850009" xlink:href="#m95a89e4c60" y="112.225505"/>
     <use style="fill:#2ca02c;stroke:#2ca02c;" x="271.940067" xlink:href="#m95a89e4c60" y="111.039153"/>
     <use style="fill:#2ca02c;stroke:#2ca02c;" x="281.030124" xlink:href="#m95a89e4c60" y="107.460538"/>
     <use style="fill:#2ca02c;stroke:#2ca02c;" x="290.120181" xlink:href="#m95a89e4c60" y="106.234478"/>
     <use style="fill:#2ca02c;stroke:#2ca02c;" x="299.210238" xlink:href="#m95a89e4c60" y="104.630262"/>
     <use style="fill:#2ca02c;stroke:#2ca02c;" x="308.300296" xlink:href="#m95a89e4c60" y="103.261288"/>
     <use style="fill:#2ca02c;stroke:#2ca02c;" x="317.390353" xlink:href="#m95a89e4c60" y="102.195687"/>
     <use style="fill:#2ca02c;stroke:#2ca02c;" x="326.48041" xlink:href="#m95a89e4c60" y="101.434358"/>
     <use style="fill:#2ca02c;stroke:#2ca02c;" x="335.570467" xlink:href="#m95a89e4c60" y="100.416556"/>
     <use style="fill:#2ca02c;stroke:#2ca02c;" x="344.660525" xlink:href="#m95a89e4c60" y="99.225274"/>
     <use style="fill:#2ca02c;stroke:#2ca02c;" x="353.750582" xlink:href="#m95a89e4c60" y="98.601317"/>
    </g>
   </g>
   <g id="line2d_93">
    <path clip-path="url(#p98112b1597)" d="M 58.681242 285.120091 
L 62.86875 278.15979 
L 71.958807 269.321524 
L 81.048864 254.212409 
L 90.138922 247.94156 
L 99.228979 229.086479 
L 108.319036 221.426763 
L 117.409093 217.052574 
L 126.499151 209.343983 
L 135.589208 200.046798 
L 144.679265 191.615981 
L 153.769322 183.333104 
L 162.85938 176.099417 
L 171.949437 170.364922 
L 181.039494 163.671546 
L 190.129551 161.708414 
L 199.219609 158.648305 
L 208.309666 153.009655 
L 217.399723 148.849626 
L 226.48978 144.276608 
L 235.579838 141.797918 
L 244.669895 140.224402 
L 253.759952 137.536222 
L 262.850009 136.136949 
L 271.940067 133.14171 
L 281.030124 130.746858 
L 290.120181 128.520899 
L 299.210238 126.397883 
L 308.300296 124.854116 
L 317.390353 123.251088 
L 326.48041 122.051861 
L 335.570467 120.596496 
L 344.660525 119.599363 
L 353.750582 118.258774 
" style="fill:none;stroke:#d62728;stroke-linecap:square;stroke-width:1.5;"/>
    <g clip-path="url(#p98112b1597)">
     <use style="fill:#d62728;stroke:#d62728;" x="-1" xlink:href="#m2d6c6881a6" y="293.268905"/>
     <use style="fill:#d62728;stroke:#d62728;" x="-0.761651" xlink:href="#m2d6c6881a6" y="293.268905"/>
     <use style="fill:#d62728;stroke:#d62728;" x="8.328407" xlink:href="#m2d6c6881a6" y="293.268905"/>
     <use style="fill:#d62728;stroke:#d62728;" x="17.418464" xlink:href="#m2d6c6881a6" y="293.268905"/>
     <use style="fill:#d62728;stroke:#d62728;" x="26.508521" xlink:href="#m2d6c6881a6" y="293.268905"/>
     <use style="fill:#d62728;stroke:#d62728;" x="35.598578" xlink:href="#m2d6c6881a6" y="293.268905"/>
     <use style="fill:#d62728;stroke:#d62728;" x="44.688636" xlink:href="#m2d6c6881a6" y="293.268905"/>
     <use style="fill:#d62728;stroke:#d62728;" x="53.778693" xlink:href="#m2d6c6881a6" y="293.268905"/>
     <use style="fill:#d62728;stroke:#d62728;" x="62.86875" xlink:href="#m2d6c6881a6" y="278.15979"/>
     <use style="fill:#d62728;stroke:#d62728;" x="71.958807" xlink:href="#m2d6c6881a6" y="269.321524"/>
     <use style="fill:#d62728;stroke:#d62728;" x="81.048864" xlink:href="#m2d6c6881a6" y="254.212409"/>
     <use style="fill:#d62728;stroke:#d62728;" x="90.138922" xlink:href="#m2d6c6881a6" y="247.94156"/>
     <use style="fill:#d62728;stroke:#d62728;" x="99.228979" xlink:href="#m2d6c6881a6" y="229.086479"/>
     <use style="fill:#d62728;stroke:#d62728;" x="108.319036" xlink:href="#m2d6c6881a6" y="221.426763"/>
     <use style="fill:#d62728;stroke:#d62728;" x="117.409093" xlink:href="#m2d6c6881a6" y="217.052574"/>
     <use style="fill:#d62728;stroke:#d62728;" x="126.499151" xlink:href="#m2d6c6881a6" y="209.343983"/>
     <use style="fill:#d62728;stroke:#d62728;" x="135.589208" xlink:href="#m2d6c6881a6" y="200.046798"/>
     <use style="fill:#d62728;stroke:#d62728;" x="144.679265" xlink:href="#m2d6c6881a6" y="191.615981"/>
     <use style="fill:#d62728;stroke:#d62728;" x="153.769322" xlink:href="#m2d6c6881a6" y="183.333104"/>
     <use style="fill:#d62728;stroke:#d62728;" x="162.85938" xlink:href="#m2d6c6881a6" y="176.099417"/>
     <use style="fill:#d62728;stroke:#d62728;" x="171.949437" xlink:href="#m2d6c6881a6" y="170.364922"/>
     <use style="fill:#d62728;stroke:#d62728;" x="181.039494" xlink:href="#m2d6c6881a6" y="163.671546"/>
     <use style="fill:#d62728;stroke:#d62728;" x="190.129551" xlink:href="#m2d6c6881a6" y="161.708414"/>
     <use style="fill:#d62728;stroke:#d62728;" x="199.219609" xlink:href="#m2d6c6881a6" y="158.648305"/>
     <use style="fill:#d62728;stroke:#d62728;" x="208.309666" xlink:href="#m2d6c6881a6" y="153.009655"/>
     <use style="fill:#d62728;stroke:#d62728;" x="217.399723" xlink:href="#m2d6c6881a6" y="148.849626"/>
     <use style="fill:#d62728;stroke:#d62728;" x="226.48978" xlink:href="#m2d6c6881a6" y="144.276608"/>
     <use style="fill:#d62728;stroke:#d62728;" x="235.579838" xlink:href="#m2d6c6881a6" y="141.797918"/>
     <use style="fill:#d62728;stroke:#d62728;" x="244.669895" xlink:href="#m2d6c6881a6" y="140.224402"/>
     <use style="fill:#d62728;stroke:#d62728;" x="253.759952" xlink:href="#m2d6c6881a6" y="137.536222"/>
     <use style="fill:#d62728;stroke:#d62728;" x="262.850009" xlink:href="#m2d6c6881a6" y="136.136949"/>
     <use style="fill:#d62728;stroke:#d62728;" x="271.940067" xlink:href="#m2d6c6881a6" y="133.14171"/>
     <use style="fill:#d62728;stroke:#d62728;" x="281.030124" xlink:href="#m2d6c6881a6" y="130.746858"/>
     <use style="fill:#d62728;stroke:#d62728;" x="290.120181" xlink:href="#m2d6c6881a6" y="128.520899"/>
     <use style="fill:#d62728;stroke:#d62728;" x="299.210238" xlink:href="#m2d6c6881a6" y="126.397883"/>
     <use style="fill:#d62728;stroke:#d62728;" x="308.300296" xlink:href="#m2d6c6881a6" y="124.854116"/>
     <use style="fill:#d62728;stroke:#d62728;" x="317.390353" xlink:href="#m2d6c6881a6" y="123.251088"/>
     <use style="fill:#d62728;stroke:#d62728;" x="326.48041" xlink:href="#m2d6c6881a6" y="122.051861"/>
     <use style="fill:#d62728;stroke:#d62728;" x="335.570467" xlink:href="#m2d6c6881a6" y="120.596496"/>
     <use style="fill:#d62728;stroke:#d62728;" x="344.660525" xlink:href="#m2d6c6881a6" y="119.599363"/>
     <use style="fill:#d62728;stroke:#d62728;" x="353.750582" xlink:href="#m2d6c6881a6" y="118.258774"/>
    </g>
   </g>
   <g id="line2d_94">
    <path clip-path="url(#p98112b1597)" d="M 49.172848 285.120091 
L 53.778693 277.464448 
L 62.86875 277.464448 
L 71.958807 268.626182 
L 81.048864 257.491284 
L 90.138922 244.678802 
L 99.228979 235.0478 
L 108.319036 226.209534 
L 117.409093 215.074636 
L 126.499151 205.622306 
L 135.589208 203.325673 
L 144.679265 197.887964 
L 153.769322 194.730961 
L 162.85938 189.144266 
L 171.949437 185.170049 
L 181.039494 180.496376 
L 190.129551 173.566362 
L 199.219609 171.19565 
L 208.309666 169.209045 
L 217.399723 165.133794 
L 226.48978 162.081808 
L 235.579838 159.845504 
L 244.669895 156.934808 
L 253.759952 154.024111 
L 262.850009 152.105386 
L 271.940067 150.119384 
L 281.030124 148.50399 
L 290.120181 147.16523 
L 299.210238 145.160631 
L 308.300296 143.464387 
L 317.390353 142.306707 
L 326.48041 140.54495 
L 335.570467 138.877185 
L 344.660525 137.275287 
L 353.750582 135.701302 
" style="fill:none;stroke:#9467bd;stroke-linecap:square;stroke-width:1.5;"/>
    <g clip-path="url(#p98112b1597)">
     <use style="fill:#9467bd;stroke:#9467bd;" x="35.598578" xlink:href="#mbe2679c04c" y="292.573563"/>
     <use style="fill:#9467bd;stroke:#9467bd;" x="44.688636" xlink:href="#mbe2679c04c" y="292.573563"/>
     <use style="fill:#9467bd;stroke:#9467bd;" x="53.778693" xlink:href="#mbe2679c04c" y="277.464448"/>
     <use style="fill:#9467bd;stroke:#9467bd;" x="62.86875" xlink:href="#mbe2679c04c" y="277.464448"/>
     <use style="fill:#9467bd;stroke:#9467bd;" x="71.958807" xlink:href="#mbe2679c04c" y="268.626182"/>
     <use style="fill:#9467bd;stroke:#9467bd;" x="81.048864" xlink:href="#mbe2679c04c" y="257.491284"/>
     <use style="fill:#9467bd;stroke:#9467bd;" x="90.138922" xlink:href="#mbe2679c04c" y="244.678802"/>
     <use style="fill:#9467bd;stroke:#9467bd;" x="99.228979" xlink:href="#mbe2679c04c" y="235.0478"/>
     <use style="fill:#9467bd;stroke:#9467bd;" x="108.319036" xlink:href="#mbe2679c04c" y="226.209534"/>
     <use style="fill:#9467bd;stroke:#9467bd;" x="117.409093" xlink:href="#mbe2679c04c" y="215.074636"/>
     <use style="fill:#9467bd;stroke:#9467bd;" x="126.499151" xlink:href="#mbe2679c04c" y="205.622306"/>
     <use style="fill:#9467bd;stroke:#9467bd;" x="135.589208" xlink:href="#mbe2679c04c" y="203.325673"/>
     <use style="fill:#9467bd;stroke:#9467bd;" x="144.679265" xlink:href="#mbe2679c04c" y="197.887964"/>
     <use style="fill:#9467bd;stroke:#9467bd;" x="153.769322" xlink:href="#mbe2679c04c" y="194.730961"/>
     <use style="fill:#9467bd;stroke:#9467bd;" x="162.85938" xlink:href="#mbe2679c04c" y="189.144266"/>
     <use style="fill:#9467bd;stroke:#9467bd;" x="171.949437" xlink:href="#mbe2679c04c" y="185.170049"/>
     <use style="fill:#9467bd;stroke:#9467bd;" x="181.039494" xlink:href="#mbe2679c04c" y="180.496376"/>
     <use style="fill:#9467bd;stroke:#9467bd;" x="190.129551" xlink:href="#mbe2679c04c" y="173.566362"/>
     <use style="fill:#9467bd;stroke:#9467bd;" x="199.219609" xlink:href="#mbe2679c04c" y="171.19565"/>
     <use style="fill:#9467bd;stroke:#9467bd;" x="208.309666" xlink:href="#mbe2679c04c" y="169.209045"/>
     <use style="fill:#9467bd;stroke:#9467bd;" x="217.399723" xlink:href="#mbe2679c04c" y="165.133794"/>
     <use style="fill:#9467bd;stroke:#9467bd;" x="226.48978" xlink:href="#mbe2679c04c" y="162.081808"/>
     <use style="fill:#9467bd;stroke:#9467bd;" x="235.579838" xlink:href="#mbe2679c04c" y="159.845504"/>
     <use style="fill:#9467bd;stroke:#9467bd;" x="244.669895" xlink:href="#mbe2679c04c" y="156.934808"/>
     <use style="fill:#9467bd;stroke:#9467bd;" x="253.759952" xlink:href="#mbe2679c04c" y="154.024111"/>
     <use style="fill:#9467bd;stroke:#9467bd;" x="262.850009" xlink:href="#mbe2679c04c" y="152.105386"/>
     <use style="fill:#9467bd;stroke:#9467bd;" x="271.940067" xlink:href="#mbe2679c04c" y="150.119384"/>
     <use style="fill:#9467bd;stroke:#9467bd;" x="281.030124" xlink:href="#mbe2679c04c" y="148.50399"/>
     <use style="fill:#9467bd;stroke:#9467bd;" x="290.120181" xlink:href="#mbe2679c04c" y="147.16523"/>
     <use style="fill:#9467bd;stroke:#9467bd;" x="299.210238" xlink:href="#mbe2679c04c" y="145.160631"/>
     <use style="fill:#9467bd;stroke:#9467bd;" x="308.300296" xlink:href="#mbe2679c04c" y="143.464387"/>
     <use style="fill:#9467bd;stroke:#9467bd;" x="317.390353" xlink:href="#mbe2679c04c" y="142.306707"/>
     <use style="fill:#9467bd;stroke:#9467bd;" x="326.48041" xlink:href="#mbe2679c04c" y="140.54495"/>
     <use style="fill:#9467bd;stroke:#9467bd;" x="335.570467" xlink:href="#mbe2679c04c" y="138.877185"/>
     <use style="fill:#9467bd;stroke:#9467bd;" x="344.660525" xlink:href="#mbe2679c04c" y="137.275287"/>
     <use style="fill:#9467bd;stroke:#9467bd;" x="353.750582" xlink:href="#mbe2679c04c" y="135.701302"/>
    </g>
   </g>
  </g>
 </g>
 <defs>
  <clipPath id="p98112b1597">
   <rect height="217.44" width="334.8" x="62.86875" y="22.318125"/>
  </clipPath>
 </defs>
</svg>
