<?xml version="1.0" encoding="utf-8" standalone="no"?>
<!DOCTYPE svg PUBLIC "-//W3C//DTD SVG 1.1//EN"
  "http://www.w3.org/Graphics/SVG/1.1/DTD/svg11.dtd">
<!-- Created with matplotlib (https://matplotlib.org/) -->
<svg height="285.773535pt" version="1.1" viewBox="0 0 412.014123 285.773535" width="412.014123pt" xmlns="http://www.w3.org/2000/svg" xmlns:xlink="http://www.w3.org/1999/xlink">
 <defs>
  <style type="text/css">
*{stroke-linecap:butt;stroke-linejoin:round;}
  </style>
 </defs>
 <g id="figure_1">
  <g id="patch_1">
   <path d="M 0 285.773535 
L 412.014123 285.773535 
L 412.014123 0 
L 0 0 
z
" style="fill:#ffffff;"/>
  </g>
  <g id="axes_1">
   <g id="patch_2">
    <path d="M 62.86875 239.758125 
L 397.66875 239.758125 
L 397.66875 22.318125 
L 62.86875 22.318125 
z
" style="fill:#ffffff;"/>
   </g>
   <g id="matplotlib.axis_1">
    <g id="xtick_1">
     <g id="line2d_1">
      <path clip-path="url(#p4f9b8bf146)" d="M 62.86875 239.758125 
L 62.86875 22.318125 
" style="fill:none;stroke:#b0b0b0;stroke-linecap:square;stroke-opacity:0.8;stroke-width:0.8;"/>
     </g>
     <g id="line2d_2">
      <defs>
       <path d="M 0 0 
L 0 3.5 
" id="mfcb1209181" style="stroke:#000000;stroke-width:0.8;"/>
      </defs>
      <g>
       <use style="stroke:#000000;stroke-width:0.8;" x="62.86875" xlink:href="#mfcb1209181" y="239.758125"/>
      </g>
     </g>
     <g id="text_1">
      <!-- Mar. -->
      <defs>
       <path d="M 9.8125 72.90625 
L 24.515625 72.90625 
L 43.109375 23.296875 
L 61.8125 72.90625 
L 76.515625 72.90625 
L 76.515625 0 
L 66.890625 0 
L 66.890625 64.015625 
L 48.09375 14.015625 
L 38.1875 14.015625 
L 19.390625 64.015625 
L 19.390625 0 
L 9.8125 0 
z
" id="DejaVuSans-77"/>
       <path d="M 34.28125 27.484375 
Q 23.390625 27.484375 19.1875 25 
Q 14.984375 22.515625 14.984375 16.5 
Q 14.984375 11.71875 18.140625 8.90625 
Q 21.296875 6.109375 26.703125 6.109375 
Q 34.1875 6.109375 38.703125 11.40625 
Q 43.21875 16.703125 43.21875 25.484375 
L 43.21875 27.484375 
z
M 52.203125 31.203125 
L 52.203125 0 
L 43.21875 0 
L 43.21875 8.296875 
Q 40.140625 3.328125 35.546875 0.953125 
Q 30.953125 -1.421875 24.3125 -1.421875 
Q 15.921875 -1.421875 10.953125 3.296875 
Q 6 8.015625 6 15.921875 
Q 6 25.140625 12.171875 29.828125 
Q 18.359375 34.515625 30.609375 34.515625 
L 43.21875 34.515625 
L 43.21875 35.40625 
Q 43.21875 41.609375 39.140625 45 
Q 35.0625 48.390625 27.6875 48.390625 
Q 23 48.390625 18.546875 47.265625 
Q 14.109375 46.140625 10.015625 43.890625 
L 10.015625 52.203125 
Q 14.9375 54.109375 19.578125 55.046875 
Q 24.21875 56 28.609375 56 
Q 40.484375 56 46.34375 49.84375 
Q 52.203125 43.703125 52.203125 31.203125 
z
" id="DejaVuSans-97"/>
       <path d="M 41.109375 46.296875 
Q 39.59375 47.171875 37.8125 47.578125 
Q 36.03125 48 33.890625 48 
Q 26.265625 48 22.1875 43.046875 
Q 18.109375 38.09375 18.109375 28.8125 
L 18.109375 0 
L 9.078125 0 
L 9.078125 54.6875 
L 18.109375 54.6875 
L 18.109375 46.1875 
Q 20.953125 51.171875 25.484375 53.578125 
Q 30.03125 56 36.53125 56 
Q 37.453125 56 38.578125 55.875 
Q 39.703125 55.765625 41.0625 55.515625 
z
" id="DejaVuSans-114"/>
       <path d="M 10.6875 12.40625 
L 21 12.40625 
L 21 0 
L 10.6875 0 
z
" id="DejaVuSans-46"/>
      </defs>
      <g transform="translate(51.853125 254.356563)scale(0.1 -0.1)">
       <use xlink:href="#DejaVuSans-77"/>
       <use x="86.279297" xlink:href="#DejaVuSans-97"/>
       <use x="147.558594" xlink:href="#DejaVuSans-114"/>
       <use x="188.53125" xlink:href="#DejaVuSans-46"/>
      </g>
      <!-- 09 -->
      <defs>
       <path d="M 31.78125 66.40625 
Q 24.171875 66.40625 20.328125 58.90625 
Q 16.5 51.421875 16.5 36.375 
Q 16.5 21.390625 20.328125 13.890625 
Q 24.171875 6.390625 31.78125 6.390625 
Q 39.453125 6.390625 43.28125 13.890625 
Q 47.125 21.390625 47.125 36.375 
Q 47.125 51.421875 43.28125 58.90625 
Q 39.453125 66.40625 31.78125 66.40625 
z
M 31.78125 74.21875 
Q 44.046875 74.21875 50.515625 64.515625 
Q 56.984375 54.828125 56.984375 36.375 
Q 56.984375 17.96875 50.515625 8.265625 
Q 44.046875 -1.421875 31.78125 -1.421875 
Q 19.53125 -1.421875 13.0625 8.265625 
Q 6.59375 17.96875 6.59375 36.375 
Q 6.59375 54.828125 13.0625 64.515625 
Q 19.53125 74.21875 31.78125 74.21875 
z
" id="DejaVuSans-48"/>
       <path d="M 10.984375 1.515625 
L 10.984375 10.5 
Q 14.703125 8.734375 18.5 7.8125 
Q 22.3125 6.890625 25.984375 6.890625 
Q 35.75 6.890625 40.890625 13.453125 
Q 46.046875 20.015625 46.78125 33.40625 
Q 43.953125 29.203125 39.59375 26.953125 
Q 35.25 24.703125 29.984375 24.703125 
Q 19.046875 24.703125 12.671875 31.3125 
Q 6.296875 37.9375 6.296875 49.421875 
Q 6.296875 60.640625 12.9375 67.421875 
Q 19.578125 74.21875 30.609375 74.21875 
Q 43.265625 74.21875 49.921875 64.515625 
Q 56.59375 54.828125 56.59375 36.375 
Q 56.59375 19.140625 48.40625 8.859375 
Q 40.234375 -1.421875 26.421875 -1.421875 
Q 22.703125 -1.421875 18.890625 -0.6875 
Q 15.09375 0.046875 10.984375 1.515625 
z
M 30.609375 32.421875 
Q 37.25 32.421875 41.125 36.953125 
Q 45.015625 41.5 45.015625 49.421875 
Q 45.015625 57.28125 41.125 61.84375 
Q 37.25 66.40625 30.609375 66.40625 
Q 23.96875 66.40625 20.09375 61.84375 
Q 16.21875 57.28125 16.21875 49.421875 
Q 16.21875 41.5 20.09375 36.953125 
Q 23.96875 32.421875 30.609375 32.421875 
z
" id="DejaVuSans-57"/>
      </defs>
      <g transform="translate(56.50625 265.554375)scale(0.1 -0.1)">
       <use xlink:href="#DejaVuSans-48"/>
       <use x="63.623047" xlink:href="#DejaVuSans-57"/>
      </g>
     </g>
    </g>
    <g id="xtick_2">
     <g id="line2d_3">
      <path clip-path="url(#p4f9b8bf146)" d="M 103.097287 239.758125 
L 103.097287 22.318125 
" style="fill:none;stroke:#b0b0b0;stroke-linecap:square;stroke-opacity:0.8;stroke-width:0.8;"/>
     </g>
     <g id="line2d_4">
      <g>
       <use style="stroke:#000000;stroke-width:0.8;" x="103.097287" xlink:href="#mfcb1209181" y="239.758125"/>
      </g>
     </g>
     <g id="text_2">
      <!-- Mar. -->
      <g transform="translate(92.081662 254.356563)scale(0.1 -0.1)">
       <use xlink:href="#DejaVuSans-77"/>
       <use x="86.279297" xlink:href="#DejaVuSans-97"/>
       <use x="147.558594" xlink:href="#DejaVuSans-114"/>
       <use x="188.53125" xlink:href="#DejaVuSans-46"/>
      </g>
      <!-- 13 -->
      <defs>
       <path d="M 12.40625 8.296875 
L 28.515625 8.296875 
L 28.515625 63.921875 
L 10.984375 60.40625 
L 10.984375 69.390625 
L 28.421875 72.90625 
L 38.28125 72.90625 
L 38.28125 8.296875 
L 54.390625 8.296875 
L 54.390625 0 
L 12.40625 0 
z
" id="DejaVuSans-49"/>
       <path d="M 40.578125 39.3125 
Q 47.65625 37.796875 51.625 33 
Q 55.609375 28.21875 55.609375 21.1875 
Q 55.609375 10.40625 48.1875 4.484375 
Q 40.765625 -1.421875 27.09375 -1.421875 
Q 22.515625 -1.421875 17.65625 -0.515625 
Q 12.796875 0.390625 7.625 2.203125 
L 7.625 11.71875 
Q 11.71875 9.328125 16.59375 8.109375 
Q 21.484375 6.890625 26.8125 6.890625 
Q 36.078125 6.890625 40.9375 10.546875 
Q 45.796875 14.203125 45.796875 21.1875 
Q 45.796875 27.640625 41.28125 31.265625 
Q 36.765625 34.90625 28.71875 34.90625 
L 20.21875 34.90625 
L 20.21875 43.015625 
L 29.109375 43.015625 
Q 36.375 43.015625 40.234375 45.921875 
Q 44.09375 48.828125 44.09375 54.296875 
Q 44.09375 59.90625 40.109375 62.90625 
Q 36.140625 65.921875 28.71875 65.921875 
Q 24.65625 65.921875 20.015625 65.03125 
Q 15.375 64.15625 9.8125 62.3125 
L 9.8125 71.09375 
Q 15.4375 72.65625 20.34375 73.4375 
Q 25.25 74.21875 29.59375 74.21875 
Q 40.828125 74.21875 47.359375 69.109375 
Q 53.90625 64.015625 53.90625 55.328125 
Q 53.90625 49.265625 50.4375 45.09375 
Q 46.96875 40.921875 40.578125 39.3125 
z
" id="DejaVuSans-51"/>
      </defs>
      <g transform="translate(96.734787 265.554375)scale(0.1 -0.1)">
       <use xlink:href="#DejaVuSans-49"/>
       <use x="63.623047" xlink:href="#DejaVuSans-51"/>
      </g>
     </g>
    </g>
    <g id="xtick_3">
     <g id="line2d_5">
      <path clip-path="url(#p4f9b8bf146)" d="M 143.325823 239.758125 
L 143.325823 22.318125 
" style="fill:none;stroke:#b0b0b0;stroke-linecap:square;stroke-opacity:0.8;stroke-width:0.8;"/>
     </g>
     <g id="line2d_6">
      <g>
       <use style="stroke:#000000;stroke-width:0.8;" x="143.325823" xlink:href="#mfcb1209181" y="239.758125"/>
      </g>
     </g>
     <g id="text_3">
      <!-- Mar. -->
      <g transform="translate(132.310198 254.356563)scale(0.1 -0.1)">
       <use xlink:href="#DejaVuSans-77"/>
       <use x="86.279297" xlink:href="#DejaVuSans-97"/>
       <use x="147.558594" xlink:href="#DejaVuSans-114"/>
       <use x="188.53125" xlink:href="#DejaVuSans-46"/>
      </g>
      <!-- 17 -->
      <defs>
       <path d="M 8.203125 72.90625 
L 55.078125 72.90625 
L 55.078125 68.703125 
L 28.609375 0 
L 18.3125 0 
L 43.21875 64.59375 
L 8.203125 64.59375 
z
" id="DejaVuSans-55"/>
      </defs>
      <g transform="translate(136.963323 265.554375)scale(0.1 -0.1)">
       <use xlink:href="#DejaVuSans-49"/>
       <use x="63.623047" xlink:href="#DejaVuSans-55"/>
      </g>
     </g>
    </g>
    <g id="xtick_4">
     <g id="line2d_7">
      <path clip-path="url(#p4f9b8bf146)" d="M 183.55436 239.758125 
L 183.55436 22.318125 
" style="fill:none;stroke:#b0b0b0;stroke-linecap:square;stroke-opacity:0.8;stroke-width:0.8;"/>
     </g>
     <g id="line2d_8">
      <g>
       <use style="stroke:#000000;stroke-width:0.8;" x="183.55436" xlink:href="#mfcb1209181" y="239.758125"/>
      </g>
     </g>
     <g id="text_4">
      <!-- Mar. -->
      <g transform="translate(172.538735 254.356563)scale(0.1 -0.1)">
       <use xlink:href="#DejaVuSans-77"/>
       <use x="86.279297" xlink:href="#DejaVuSans-97"/>
       <use x="147.558594" xlink:href="#DejaVuSans-114"/>
       <use x="188.53125" xlink:href="#DejaVuSans-46"/>
      </g>
      <!-- 21 -->
      <defs>
       <path d="M 19.1875 8.296875 
L 53.609375 8.296875 
L 53.609375 0 
L 7.328125 0 
L 7.328125 8.296875 
Q 12.9375 14.109375 22.625 23.890625 
Q 32.328125 33.6875 34.8125 36.53125 
Q 39.546875 41.84375 41.421875 45.53125 
Q 43.3125 49.21875 43.3125 52.78125 
Q 43.3125 58.59375 39.234375 62.25 
Q 35.15625 65.921875 28.609375 65.921875 
Q 23.96875 65.921875 18.8125 64.3125 
Q 13.671875 62.703125 7.8125 59.421875 
L 7.8125 69.390625 
Q 13.765625 71.78125 18.9375 73 
Q 24.125 74.21875 28.421875 74.21875 
Q 39.75 74.21875 46.484375 68.546875 
Q 53.21875 62.890625 53.21875 53.421875 
Q 53.21875 48.921875 51.53125 44.890625 
Q 49.859375 40.875 45.40625 35.40625 
Q 44.1875 33.984375 37.640625 27.21875 
Q 31.109375 20.453125 19.1875 8.296875 
z
" id="DejaVuSans-50"/>
      </defs>
      <g transform="translate(177.19186 265.554375)scale(0.1 -0.1)">
       <use xlink:href="#DejaVuSans-50"/>
       <use x="63.623047" xlink:href="#DejaVuSans-49"/>
      </g>
     </g>
    </g>
    <g id="xtick_5">
     <g id="line2d_9">
      <path clip-path="url(#p4f9b8bf146)" d="M 223.782897 239.758125 
L 223.782897 22.318125 
" style="fill:none;stroke:#b0b0b0;stroke-linecap:square;stroke-opacity:0.8;stroke-width:0.8;"/>
     </g>
     <g id="line2d_10">
      <g>
       <use style="stroke:#000000;stroke-width:0.8;" x="223.782897" xlink:href="#mfcb1209181" y="239.758125"/>
      </g>
     </g>
     <g id="text_5">
      <!-- Mar. -->
      <g transform="translate(212.767272 254.356563)scale(0.1 -0.1)">
       <use xlink:href="#DejaVuSans-77"/>
       <use x="86.279297" xlink:href="#DejaVuSans-97"/>
       <use x="147.558594" xlink:href="#DejaVuSans-114"/>
       <use x="188.53125" xlink:href="#DejaVuSans-46"/>
      </g>
      <!-- 25 -->
      <defs>
       <path d="M 10.796875 72.90625 
L 49.515625 72.90625 
L 49.515625 64.59375 
L 19.828125 64.59375 
L 19.828125 46.734375 
Q 21.96875 47.46875 24.109375 47.828125 
Q 26.265625 48.1875 28.421875 48.1875 
Q 40.625 48.1875 47.75 41.5 
Q 54.890625 34.8125 54.890625 23.390625 
Q 54.890625 11.625 47.5625 5.09375 
Q 40.234375 -1.421875 26.90625 -1.421875 
Q 22.3125 -1.421875 17.546875 -0.640625 
Q 12.796875 0.140625 7.71875 1.703125 
L 7.71875 11.625 
Q 12.109375 9.234375 16.796875 8.0625 
Q 21.484375 6.890625 26.703125 6.890625 
Q 35.15625 6.890625 40.078125 11.328125 
Q 45.015625 15.765625 45.015625 23.390625 
Q 45.015625 31 40.078125 35.4375 
Q 35.15625 39.890625 26.703125 39.890625 
Q 22.75 39.890625 18.8125 39.015625 
Q 14.890625 38.140625 10.796875 36.28125 
z
" id="DejaVuSans-53"/>
      </defs>
      <g transform="translate(217.420397 265.554375)scale(0.1 -0.1)">
       <use xlink:href="#DejaVuSans-50"/>
       <use x="63.623047" xlink:href="#DejaVuSans-53"/>
      </g>
     </g>
    </g>
    <g id="xtick_6">
     <g id="line2d_11">
      <path clip-path="url(#p4f9b8bf146)" d="M 264.011433 239.758125 
L 264.011433 22.318125 
" style="fill:none;stroke:#b0b0b0;stroke-linecap:square;stroke-opacity:0.8;stroke-width:0.8;"/>
     </g>
     <g id="line2d_12">
      <g>
       <use style="stroke:#000000;stroke-width:0.8;" x="264.011433" xlink:href="#mfcb1209181" y="239.758125"/>
      </g>
     </g>
     <g id="text_6">
      <!-- Mar. -->
      <g transform="translate(252.995808 254.356563)scale(0.1 -0.1)">
       <use xlink:href="#DejaVuSans-77"/>
       <use x="86.279297" xlink:href="#DejaVuSans-97"/>
       <use x="147.558594" xlink:href="#DejaVuSans-114"/>
       <use x="188.53125" xlink:href="#DejaVuSans-46"/>
      </g>
      <!-- 29 -->
      <g transform="translate(257.648933 265.554375)scale(0.1 -0.1)">
       <use xlink:href="#DejaVuSans-50"/>
       <use x="63.623047" xlink:href="#DejaVuSans-57"/>
      </g>
     </g>
    </g>
    <g id="xtick_7">
     <g id="line2d_13">
      <path clip-path="url(#p4f9b8bf146)" d="M 294.182836 239.758125 
L 294.182836 22.318125 
" style="fill:none;stroke:#b0b0b0;stroke-linecap:square;stroke-opacity:0.8;stroke-width:0.8;"/>
     </g>
     <g id="line2d_14">
      <g>
       <use style="stroke:#000000;stroke-width:0.8;" x="294.182836" xlink:href="#mfcb1209181" y="239.758125"/>
      </g>
     </g>
     <g id="text_7">
      <!-- Apr. -->
      <defs>
       <path d="M 34.1875 63.1875 
L 20.796875 26.90625 
L 47.609375 26.90625 
z
M 28.609375 72.90625 
L 39.796875 72.90625 
L 67.578125 0 
L 57.328125 0 
L 50.6875 18.703125 
L 17.828125 18.703125 
L 11.1875 0 
L 0.78125 0 
z
" id="DejaVuSans-65"/>
       <path d="M 18.109375 8.203125 
L 18.109375 -20.796875 
L 9.078125 -20.796875 
L 9.078125 54.6875 
L 18.109375 54.6875 
L 18.109375 46.390625 
Q 20.953125 51.265625 25.265625 53.625 
Q 29.59375 56 35.59375 56 
Q 45.5625 56 51.78125 48.09375 
Q 58.015625 40.1875 58.015625 27.296875 
Q 58.015625 14.40625 51.78125 6.484375 
Q 45.5625 -1.421875 35.59375 -1.421875 
Q 29.59375 -1.421875 25.265625 0.953125 
Q 20.953125 3.328125 18.109375 8.203125 
z
M 48.6875 27.296875 
Q 48.6875 37.203125 44.609375 42.84375 
Q 40.53125 48.484375 33.40625 48.484375 
Q 26.265625 48.484375 22.1875 42.84375 
Q 18.109375 37.203125 18.109375 27.296875 
Q 18.109375 17.390625 22.1875 11.75 
Q 26.265625 6.109375 33.40625 6.109375 
Q 40.53125 6.109375 44.609375 11.75 
Q 48.6875 17.390625 48.6875 27.296875 
z
" id="DejaVuSans-112"/>
      </defs>
      <g transform="translate(283.950805 254.356563)scale(0.1 -0.1)">
       <use xlink:href="#DejaVuSans-65"/>
       <use x="68.408203" xlink:href="#DejaVuSans-112"/>
       <use x="131.884766" xlink:href="#DejaVuSans-114"/>
       <use x="172.857422" xlink:href="#DejaVuSans-46"/>
      </g>
      <!-- 01 -->
      <g transform="translate(287.820336 265.554375)scale(0.1 -0.1)">
       <use xlink:href="#DejaVuSans-48"/>
       <use x="63.623047" xlink:href="#DejaVuSans-49"/>
      </g>
     </g>
    </g>
    <g id="xtick_8">
     <g id="line2d_15">
      <path clip-path="url(#p4f9b8bf146)" d="M 334.411373 239.758125 
L 334.411373 22.318125 
" style="fill:none;stroke:#b0b0b0;stroke-linecap:square;stroke-opacity:0.8;stroke-width:0.8;"/>
     </g>
     <g id="line2d_16">
      <g>
       <use style="stroke:#000000;stroke-width:0.8;" x="334.411373" xlink:href="#mfcb1209181" y="239.758125"/>
      </g>
     </g>
     <g id="text_8">
      <!-- Apr. -->
      <g transform="translate(324.179341 254.356563)scale(0.1 -0.1)">
       <use xlink:href="#DejaVuSans-65"/>
       <use x="68.408203" xlink:href="#DejaVuSans-112"/>
       <use x="131.884766" xlink:href="#DejaVuSans-114"/>
       <use x="172.857422" xlink:href="#DejaVuSans-46"/>
      </g>
      <!-- 05 -->
      <g transform="translate(328.048873 265.554375)scale(0.1 -0.1)">
       <use xlink:href="#DejaVuSans-48"/>
       <use x="63.623047" xlink:href="#DejaVuSans-53"/>
      </g>
     </g>
    </g>
    <g id="xtick_9">
     <g id="line2d_17">
      <path clip-path="url(#p4f9b8bf146)" d="M 374.639909 239.758125 
L 374.639909 22.318125 
" style="fill:none;stroke:#b0b0b0;stroke-linecap:square;stroke-opacity:0.8;stroke-width:0.8;"/>
     </g>
     <g id="line2d_18">
      <g>
       <use style="stroke:#000000;stroke-width:0.8;" x="374.639909" xlink:href="#mfcb1209181" y="239.758125"/>
      </g>
     </g>
     <g id="text_9">
      <!-- Apr. -->
      <g transform="translate(364.407878 254.356563)scale(0.1 -0.1)">
       <use xlink:href="#DejaVuSans-65"/>
       <use x="68.408203" xlink:href="#DejaVuSans-112"/>
       <use x="131.884766" xlink:href="#DejaVuSans-114"/>
       <use x="172.857422" xlink:href="#DejaVuSans-46"/>
      </g>
      <!-- 09 -->
      <g transform="translate(368.277409 265.554375)scale(0.1 -0.1)">
       <use xlink:href="#DejaVuSans-48"/>
       <use x="63.623047" xlink:href="#DejaVuSans-57"/>
      </g>
     </g>
    </g>
   </g>
   <g id="matplotlib.axis_2">
    <g id="ytick_1">
     <g id="line2d_19">
      <path clip-path="url(#p4f9b8bf146)" d="M 62.86875 239.758125 
L 397.66875 239.758125 
" style="fill:none;stroke:#b0b0b0;stroke-linecap:square;stroke-opacity:0.8;stroke-width:0.8;"/>
     </g>
     <g id="line2d_20">
      <defs>
       <path d="M 0 0 
L -3.5 0 
" id="m70d7f1512f" style="stroke:#000000;stroke-width:0.8;"/>
      </defs>
      <g>
       <use style="stroke:#000000;stroke-width:0.8;" x="62.86875" xlink:href="#m70d7f1512f" y="239.758125"/>
      </g>
     </g>
     <g id="text_10">
      <!-- 2 -->
      <g transform="translate(49.50625 243.557344)scale(0.1 -0.1)">
       <use xlink:href="#DejaVuSans-50"/>
      </g>
     </g>
    </g>
    <g id="ytick_2">
     <g id="line2d_21">
      <path clip-path="url(#p4f9b8bf146)" d="M 62.86875 218.843617 
L 397.66875 218.843617 
" style="fill:none;stroke:#b0b0b0;stroke-linecap:square;stroke-opacity:0.8;stroke-width:0.8;"/>
     </g>
     <g id="line2d_22">
      <g>
       <use style="stroke:#000000;stroke-width:0.8;" x="62.86875" xlink:href="#m70d7f1512f" y="218.843617"/>
      </g>
     </g>
     <g id="text_11">
      <!-- 5 -->
      <g transform="translate(49.50625 222.642836)scale(0.1 -0.1)">
       <use xlink:href="#DejaVuSans-53"/>
      </g>
     </g>
    </g>
    <g id="ytick_3">
     <g id="line2d_23">
      <path clip-path="url(#p4f9b8bf146)" d="M 62.86875 203.022402 
L 397.66875 203.022402 
" style="fill:none;stroke:#b0b0b0;stroke-linecap:square;stroke-opacity:0.8;stroke-width:0.8;"/>
     </g>
     <g id="line2d_24">
      <g>
       <use style="stroke:#000000;stroke-width:0.8;" x="62.86875" xlink:href="#m70d7f1512f" y="203.022402"/>
      </g>
     </g>
     <g id="text_12">
      <!-- 10 -->
      <g transform="translate(43.14375 206.821621)scale(0.1 -0.1)">
       <use xlink:href="#DejaVuSans-49"/>
       <use x="63.623047" xlink:href="#DejaVuSans-48"/>
      </g>
     </g>
    </g>
    <g id="ytick_4">
     <g id="line2d_25">
      <path clip-path="url(#p4f9b8bf146)" d="M 62.86875 187.201187 
L 397.66875 187.201187 
" style="fill:none;stroke:#b0b0b0;stroke-linecap:square;stroke-opacity:0.8;stroke-width:0.8;"/>
     </g>
     <g id="line2d_26">
      <g>
       <use style="stroke:#000000;stroke-width:0.8;" x="62.86875" xlink:href="#m70d7f1512f" y="187.201187"/>
      </g>
     </g>
     <g id="text_13">
      <!-- 20 -->
      <g transform="translate(43.14375 191.000406)scale(0.1 -0.1)">
       <use xlink:href="#DejaVuSans-50"/>
       <use x="63.623047" xlink:href="#DejaVuSans-48"/>
      </g>
     </g>
    </g>
    <g id="ytick_5">
     <g id="line2d_27">
      <path clip-path="url(#p4f9b8bf146)" d="M 62.86875 166.286679 
L 397.66875 166.286679 
" style="fill:none;stroke:#b0b0b0;stroke-linecap:square;stroke-opacity:0.8;stroke-width:0.8;"/>
     </g>
     <g id="line2d_28">
      <g>
       <use style="stroke:#000000;stroke-width:0.8;" x="62.86875" xlink:href="#m70d7f1512f" y="166.286679"/>
      </g>
     </g>
     <g id="text_14">
      <!-- 50 -->
      <g transform="translate(43.14375 170.085898)scale(0.1 -0.1)">
       <use xlink:href="#DejaVuSans-53"/>
       <use x="63.623047" xlink:href="#DejaVuSans-48"/>
      </g>
     </g>
    </g>
    <g id="ytick_6">
     <g id="line2d_29">
      <path clip-path="url(#p4f9b8bf146)" d="M 62.86875 150.465464 
L 397.66875 150.465464 
" style="fill:none;stroke:#b0b0b0;stroke-linecap:square;stroke-opacity:0.8;stroke-width:0.8;"/>
     </g>
     <g id="line2d_30">
      <g>
       <use style="stroke:#000000;stroke-width:0.8;" x="62.86875" xlink:href="#m70d7f1512f" y="150.465464"/>
      </g>
     </g>
     <g id="text_15">
      <!-- 100 -->
      <g transform="translate(36.78125 154.264683)scale(0.1 -0.1)">
       <use xlink:href="#DejaVuSans-49"/>
       <use x="63.623047" xlink:href="#DejaVuSans-48"/>
       <use x="127.246094" xlink:href="#DejaVuSans-48"/>
      </g>
     </g>
    </g>
    <g id="ytick_7">
     <g id="line2d_31">
      <path clip-path="url(#p4f9b8bf146)" d="M 62.86875 134.64425 
L 397.66875 134.64425 
" style="fill:none;stroke:#b0b0b0;stroke-linecap:square;stroke-opacity:0.8;stroke-width:0.8;"/>
     </g>
     <g id="line2d_32">
      <g>
       <use style="stroke:#000000;stroke-width:0.8;" x="62.86875" xlink:href="#m70d7f1512f" y="134.64425"/>
      </g>
     </g>
     <g id="text_16">
      <!-- 200 -->
      <g transform="translate(36.78125 138.443468)scale(0.1 -0.1)">
       <use xlink:href="#DejaVuSans-50"/>
       <use x="63.623047" xlink:href="#DejaVuSans-48"/>
       <use x="127.246094" xlink:href="#DejaVuSans-48"/>
      </g>
     </g>
    </g>
    <g id="ytick_8">
     <g id="line2d_33">
      <path clip-path="url(#p4f9b8bf146)" d="M 62.86875 113.729741 
L 397.66875 113.729741 
" style="fill:none;stroke:#b0b0b0;stroke-linecap:square;stroke-opacity:0.8;stroke-width:0.8;"/>
     </g>
     <g id="line2d_34">
      <g>
       <use style="stroke:#000000;stroke-width:0.8;" x="62.86875" xlink:href="#m70d7f1512f" y="113.729741"/>
      </g>
     </g>
     <g id="text_17">
      <!-- 500 -->
      <g transform="translate(36.78125 117.52896)scale(0.1 -0.1)">
       <use xlink:href="#DejaVuSans-53"/>
       <use x="63.623047" xlink:href="#DejaVuSans-48"/>
       <use x="127.246094" xlink:href="#DejaVuSans-48"/>
      </g>
     </g>
    </g>
    <g id="ytick_9">
     <g id="line2d_35">
      <path clip-path="url(#p4f9b8bf146)" d="M 62.86875 97.908527 
L 397.66875 97.908527 
" style="fill:none;stroke:#b0b0b0;stroke-linecap:square;stroke-opacity:0.8;stroke-width:0.8;"/>
     </g>
     <g id="line2d_36">
      <g>
       <use style="stroke:#000000;stroke-width:0.8;" x="62.86875" xlink:href="#m70d7f1512f" y="97.908527"/>
      </g>
     </g>
     <g id="text_18">
      <!-- 1,000 -->
      <defs>
       <path d="M 11.71875 12.40625 
L 22.015625 12.40625 
L 22.015625 4 
L 14.015625 -11.625 
L 7.71875 -11.625 
L 11.71875 4 
z
" id="DejaVuSans-44"/>
      </defs>
      <g transform="translate(27.240625 101.707745)scale(0.1 -0.1)">
       <use xlink:href="#DejaVuSans-49"/>
       <use x="63.623047" xlink:href="#DejaVuSans-44"/>
       <use x="95.410156" xlink:href="#DejaVuSans-48"/>
       <use x="159.033203" xlink:href="#DejaVuSans-48"/>
       <use x="222.65625" xlink:href="#DejaVuSans-48"/>
      </g>
     </g>
    </g>
    <g id="ytick_10">
     <g id="line2d_37">
      <path clip-path="url(#p4f9b8bf146)" d="M 62.86875 82.087312 
L 397.66875 82.087312 
" style="fill:none;stroke:#b0b0b0;stroke-linecap:square;stroke-opacity:0.8;stroke-width:0.8;"/>
     </g>
     <g id="line2d_38">
      <g>
       <use style="stroke:#000000;stroke-width:0.8;" x="62.86875" xlink:href="#m70d7f1512f" y="82.087312"/>
      </g>
     </g>
     <g id="text_19">
      <!-- 2,000 -->
      <g transform="translate(27.240625 85.886531)scale(0.1 -0.1)">
       <use xlink:href="#DejaVuSans-50"/>
       <use x="63.623047" xlink:href="#DejaVuSans-44"/>
       <use x="95.410156" xlink:href="#DejaVuSans-48"/>
       <use x="159.033203" xlink:href="#DejaVuSans-48"/>
       <use x="222.65625" xlink:href="#DejaVuSans-48"/>
      </g>
     </g>
    </g>
    <g id="ytick_11">
     <g id="line2d_39">
      <path clip-path="url(#p4f9b8bf146)" d="M 62.86875 61.172804 
L 397.66875 61.172804 
" style="fill:none;stroke:#b0b0b0;stroke-linecap:square;stroke-opacity:0.8;stroke-width:0.8;"/>
     </g>
     <g id="line2d_40">
      <g>
       <use style="stroke:#000000;stroke-width:0.8;" x="62.86875" xlink:href="#m70d7f1512f" y="61.172804"/>
      </g>
     </g>
     <g id="text_20">
      <!-- 5,000 -->
      <g transform="translate(27.240625 64.972022)scale(0.1 -0.1)">
       <use xlink:href="#DejaVuSans-53"/>
       <use x="63.623047" xlink:href="#DejaVuSans-44"/>
       <use x="95.410156" xlink:href="#DejaVuSans-48"/>
       <use x="159.033203" xlink:href="#DejaVuSans-48"/>
       <use x="222.65625" xlink:href="#DejaVuSans-48"/>
      </g>
     </g>
    </g>
    <g id="ytick_12">
     <g id="line2d_41">
      <path clip-path="url(#p4f9b8bf146)" d="M 62.86875 45.351589 
L 397.66875 45.351589 
" style="fill:none;stroke:#b0b0b0;stroke-linecap:square;stroke-opacity:0.8;stroke-width:0.8;"/>
     </g>
     <g id="line2d_42">
      <g>
       <use style="stroke:#000000;stroke-width:0.8;" x="62.86875" xlink:href="#m70d7f1512f" y="45.351589"/>
      </g>
     </g>
     <g id="text_21">
      <!-- 10,000 -->
      <g transform="translate(20.878125 49.150808)scale(0.1 -0.1)">
       <use xlink:href="#DejaVuSans-49"/>
       <use x="63.623047" xlink:href="#DejaVuSans-48"/>
       <use x="127.246094" xlink:href="#DejaVuSans-44"/>
       <use x="159.033203" xlink:href="#DejaVuSans-48"/>
       <use x="222.65625" xlink:href="#DejaVuSans-48"/>
       <use x="286.279297" xlink:href="#DejaVuSans-48"/>
      </g>
     </g>
    </g>
    <g id="ytick_13">
     <g id="line2d_43">
      <defs>
       <path d="M 0 0 
L -2 0 
" id="me12b00112e" style="stroke:#000000;stroke-width:0.6;"/>
      </defs>
      <g>
       <use style="stroke:#000000;stroke-width:0.6;" x="62.86875" xlink:href="#me12b00112e" y="230.503308"/>
      </g>
     </g>
    </g>
    <g id="ytick_14">
     <g id="line2d_44">
      <g>
       <use style="stroke:#000000;stroke-width:0.6;" x="62.86875" xlink:href="#me12b00112e" y="223.93691"/>
      </g>
     </g>
    </g>
    <g id="ytick_15">
     <g id="line2d_45">
      <g>
       <use style="stroke:#000000;stroke-width:0.6;" x="62.86875" xlink:href="#me12b00112e" y="214.682093"/>
      </g>
     </g>
    </g>
    <g id="ytick_16">
     <g id="line2d_46">
      <g>
       <use style="stroke:#000000;stroke-width:0.6;" x="62.86875" xlink:href="#me12b00112e" y="211.163575"/>
      </g>
     </g>
    </g>
    <g id="ytick_17">
     <g id="line2d_47">
      <g>
       <use style="stroke:#000000;stroke-width:0.6;" x="62.86875" xlink:href="#me12b00112e" y="208.115696"/>
      </g>
     </g>
    </g>
    <g id="ytick_18">
     <g id="line2d_48">
      <g>
       <use style="stroke:#000000;stroke-width:0.6;" x="62.86875" xlink:href="#me12b00112e" y="205.427276"/>
      </g>
     </g>
    </g>
    <g id="ytick_19">
     <g id="line2d_49">
      <g>
       <use style="stroke:#000000;stroke-width:0.6;" x="62.86875" xlink:href="#me12b00112e" y="177.94637"/>
      </g>
     </g>
    </g>
    <g id="ytick_20">
     <g id="line2d_50">
      <g>
       <use style="stroke:#000000;stroke-width:0.6;" x="62.86875" xlink:href="#me12b00112e" y="171.379973"/>
      </g>
     </g>
    </g>
    <g id="ytick_21">
     <g id="line2d_51">
      <g>
       <use style="stroke:#000000;stroke-width:0.6;" x="62.86875" xlink:href="#me12b00112e" y="162.125155"/>
      </g>
     </g>
    </g>
    <g id="ytick_22">
     <g id="line2d_52">
      <g>
       <use style="stroke:#000000;stroke-width:0.6;" x="62.86875" xlink:href="#me12b00112e" y="158.606637"/>
      </g>
     </g>
    </g>
    <g id="ytick_23">
     <g id="line2d_53">
      <g>
       <use style="stroke:#000000;stroke-width:0.6;" x="62.86875" xlink:href="#me12b00112e" y="155.558758"/>
      </g>
     </g>
    </g>
    <g id="ytick_24">
     <g id="line2d_54">
      <g>
       <use style="stroke:#000000;stroke-width:0.6;" x="62.86875" xlink:href="#me12b00112e" y="152.870338"/>
      </g>
     </g>
    </g>
    <g id="ytick_25">
     <g id="line2d_55">
      <g>
       <use style="stroke:#000000;stroke-width:0.6;" x="62.86875" xlink:href="#me12b00112e" y="125.389432"/>
      </g>
     </g>
    </g>
    <g id="ytick_26">
     <g id="line2d_56">
      <g>
       <use style="stroke:#000000;stroke-width:0.6;" x="62.86875" xlink:href="#me12b00112e" y="118.823035"/>
      </g>
     </g>
    </g>
    <g id="ytick_27">
     <g id="line2d_57">
      <g>
       <use style="stroke:#000000;stroke-width:0.6;" x="62.86875" xlink:href="#me12b00112e" y="109.568218"/>
      </g>
     </g>
    </g>
    <g id="ytick_28">
     <g id="line2d_58">
      <g>
       <use style="stroke:#000000;stroke-width:0.6;" x="62.86875" xlink:href="#me12b00112e" y="106.049699"/>
      </g>
     </g>
    </g>
    <g id="ytick_29">
     <g id="line2d_59">
      <g>
       <use style="stroke:#000000;stroke-width:0.6;" x="62.86875" xlink:href="#me12b00112e" y="103.00182"/>
      </g>
     </g>
    </g>
    <g id="ytick_30">
     <g id="line2d_60">
      <g>
       <use style="stroke:#000000;stroke-width:0.6;" x="62.86875" xlink:href="#me12b00112e" y="100.3134"/>
      </g>
     </g>
    </g>
    <g id="ytick_31">
     <g id="line2d_61">
      <g>
       <use style="stroke:#000000;stroke-width:0.6;" x="62.86875" xlink:href="#me12b00112e" y="72.832495"/>
      </g>
     </g>
    </g>
    <g id="ytick_32">
     <g id="line2d_62">
      <g>
       <use style="stroke:#000000;stroke-width:0.6;" x="62.86875" xlink:href="#me12b00112e" y="66.266097"/>
      </g>
     </g>
    </g>
    <g id="ytick_33">
     <g id="line2d_63">
      <g>
       <use style="stroke:#000000;stroke-width:0.6;" x="62.86875" xlink:href="#me12b00112e" y="57.01128"/>
      </g>
     </g>
    </g>
    <g id="ytick_34">
     <g id="line2d_64">
      <g>
       <use style="stroke:#000000;stroke-width:0.6;" x="62.86875" xlink:href="#me12b00112e" y="53.492762"/>
      </g>
     </g>
    </g>
    <g id="ytick_35">
     <g id="line2d_65">
      <g>
       <use style="stroke:#000000;stroke-width:0.6;" x="62.86875" xlink:href="#me12b00112e" y="50.444882"/>
      </g>
     </g>
    </g>
    <g id="ytick_36">
     <g id="line2d_66">
      <g>
       <use style="stroke:#000000;stroke-width:0.6;" x="62.86875" xlink:href="#me12b00112e" y="47.756463"/>
      </g>
     </g>
    </g>
    <g id="ytick_37">
     <g id="line2d_67">
      <g>
       <use style="stroke:#000000;stroke-width:0.6;" x="62.86875" xlink:href="#me12b00112e" y="29.530374"/>
      </g>
     </g>
    </g>
    <g id="text_22">
     <!-- Total cases per million -->
     <defs>
      <path d="M -0.296875 72.90625 
L 61.375 72.90625 
L 61.375 64.59375 
L 35.5 64.59375 
L 35.5 0 
L 25.59375 0 
L 25.59375 64.59375 
L -0.296875 64.59375 
z
" id="DejaVuSans-84"/>
      <path d="M 30.609375 48.390625 
Q 23.390625 48.390625 19.1875 42.75 
Q 14.984375 37.109375 14.984375 27.296875 
Q 14.984375 17.484375 19.15625 11.84375 
Q 23.34375 6.203125 30.609375 6.203125 
Q 37.796875 6.203125 41.984375 11.859375 
Q 46.1875 17.53125 46.1875 27.296875 
Q 46.1875 37.015625 41.984375 42.703125 
Q 37.796875 48.390625 30.609375 48.390625 
z
M 30.609375 56 
Q 42.328125 56 49.015625 48.375 
Q 55.71875 40.765625 55.71875 27.296875 
Q 55.71875 13.875 49.015625 6.21875 
Q 42.328125 -1.421875 30.609375 -1.421875 
Q 18.84375 -1.421875 12.171875 6.21875 
Q 5.515625 13.875 5.515625 27.296875 
Q 5.515625 40.765625 12.171875 48.375 
Q 18.84375 56 30.609375 56 
z
" id="DejaVuSans-111"/>
      <path d="M 18.3125 70.21875 
L 18.3125 54.6875 
L 36.8125 54.6875 
L 36.8125 47.703125 
L 18.3125 47.703125 
L 18.3125 18.015625 
Q 18.3125 11.328125 20.140625 9.421875 
Q 21.96875 7.515625 27.59375 7.515625 
L 36.8125 7.515625 
L 36.8125 0 
L 27.59375 0 
Q 17.1875 0 13.234375 3.875 
Q 9.28125 7.765625 9.28125 18.015625 
L 9.28125 47.703125 
L 2.6875 47.703125 
L 2.6875 54.6875 
L 9.28125 54.6875 
L 9.28125 70.21875 
z
" id="DejaVuSans-116"/>
      <path d="M 9.421875 75.984375 
L 18.40625 75.984375 
L 18.40625 0 
L 9.421875 0 
z
" id="DejaVuSans-108"/>
      <path id="DejaVuSans-32"/>
      <path d="M 48.78125 52.59375 
L 48.78125 44.1875 
Q 44.96875 46.296875 41.140625 47.34375 
Q 37.3125 48.390625 33.40625 48.390625 
Q 24.65625 48.390625 19.8125 42.84375 
Q 14.984375 37.3125 14.984375 27.296875 
Q 14.984375 17.28125 19.8125 11.734375 
Q 24.65625 6.203125 33.40625 6.203125 
Q 37.3125 6.203125 41.140625 7.25 
Q 44.96875 8.296875 48.78125 10.40625 
L 48.78125 2.09375 
Q 45.015625 0.34375 40.984375 -0.53125 
Q 36.96875 -1.421875 32.421875 -1.421875 
Q 20.0625 -1.421875 12.78125 6.34375 
Q 5.515625 14.109375 5.515625 27.296875 
Q 5.515625 40.671875 12.859375 48.328125 
Q 20.21875 56 33.015625 56 
Q 37.15625 56 41.109375 55.140625 
Q 45.0625 54.296875 48.78125 52.59375 
z
" id="DejaVuSans-99"/>
      <path d="M 44.28125 53.078125 
L 44.28125 44.578125 
Q 40.484375 46.53125 36.375 47.5 
Q 32.28125 48.484375 27.875 48.484375 
Q 21.1875 48.484375 17.84375 46.4375 
Q 14.5 44.390625 14.5 40.28125 
Q 14.5 37.15625 16.890625 35.375 
Q 19.28125 33.59375 26.515625 31.984375 
L 29.59375 31.296875 
Q 39.15625 29.25 43.1875 25.515625 
Q 47.21875 21.78125 47.21875 15.09375 
Q 47.21875 7.46875 41.1875 3.015625 
Q 35.15625 -1.421875 24.609375 -1.421875 
Q 20.21875 -1.421875 15.453125 -0.5625 
Q 10.6875 0.296875 5.421875 2 
L 5.421875 11.28125 
Q 10.40625 8.6875 15.234375 7.390625 
Q 20.0625 6.109375 24.8125 6.109375 
Q 31.15625 6.109375 34.5625 8.28125 
Q 37.984375 10.453125 37.984375 14.40625 
Q 37.984375 18.0625 35.515625 20.015625 
Q 33.0625 21.96875 24.703125 23.78125 
L 21.578125 24.515625 
Q 13.234375 26.265625 9.515625 29.90625 
Q 5.8125 33.546875 5.8125 39.890625 
Q 5.8125 47.609375 11.28125 51.796875 
Q 16.75 56 26.8125 56 
Q 31.78125 56 36.171875 55.265625 
Q 40.578125 54.546875 44.28125 53.078125 
z
" id="DejaVuSans-115"/>
      <path d="M 56.203125 29.59375 
L 56.203125 25.203125 
L 14.890625 25.203125 
Q 15.484375 15.921875 20.484375 11.0625 
Q 25.484375 6.203125 34.421875 6.203125 
Q 39.59375 6.203125 44.453125 7.46875 
Q 49.3125 8.734375 54.109375 11.28125 
L 54.109375 2.78125 
Q 49.265625 0.734375 44.1875 -0.34375 
Q 39.109375 -1.421875 33.890625 -1.421875 
Q 20.796875 -1.421875 13.15625 6.1875 
Q 5.515625 13.8125 5.515625 26.8125 
Q 5.515625 40.234375 12.765625 48.109375 
Q 20.015625 56 32.328125 56 
Q 43.359375 56 49.78125 48.890625 
Q 56.203125 41.796875 56.203125 29.59375 
z
M 47.21875 32.234375 
Q 47.125 39.59375 43.09375 43.984375 
Q 39.0625 48.390625 32.421875 48.390625 
Q 24.90625 48.390625 20.390625 44.140625 
Q 15.875 39.890625 15.1875 32.171875 
z
" id="DejaVuSans-101"/>
      <path d="M 52 44.1875 
Q 55.375 50.25 60.0625 53.125 
Q 64.75 56 71.09375 56 
Q 79.640625 56 84.28125 50.015625 
Q 88.921875 44.046875 88.921875 33.015625 
L 88.921875 0 
L 79.890625 0 
L 79.890625 32.71875 
Q 79.890625 40.578125 77.09375 44.375 
Q 74.3125 48.1875 68.609375 48.1875 
Q 61.625 48.1875 57.5625 43.546875 
Q 53.515625 38.921875 53.515625 30.90625 
L 53.515625 0 
L 44.484375 0 
L 44.484375 32.71875 
Q 44.484375 40.625 41.703125 44.40625 
Q 38.921875 48.1875 33.109375 48.1875 
Q 26.21875 48.1875 22.15625 43.53125 
Q 18.109375 38.875 18.109375 30.90625 
L 18.109375 0 
L 9.078125 0 
L 9.078125 54.6875 
L 18.109375 54.6875 
L 18.109375 46.1875 
Q 21.1875 51.21875 25.484375 53.609375 
Q 29.78125 56 35.6875 56 
Q 41.65625 56 45.828125 52.96875 
Q 50 49.953125 52 44.1875 
z
" id="DejaVuSans-109"/>
      <path d="M 9.421875 54.6875 
L 18.40625 54.6875 
L 18.40625 0 
L 9.421875 0 
z
M 9.421875 75.984375 
L 18.40625 75.984375 
L 18.40625 64.59375 
L 9.421875 64.59375 
z
" id="DejaVuSans-105"/>
      <path d="M 54.890625 33.015625 
L 54.890625 0 
L 45.90625 0 
L 45.90625 32.71875 
Q 45.90625 40.484375 42.875 44.328125 
Q 39.84375 48.1875 33.796875 48.1875 
Q 26.515625 48.1875 22.3125 43.546875 
Q 18.109375 38.921875 18.109375 30.90625 
L 18.109375 0 
L 9.078125 0 
L 9.078125 54.6875 
L 18.109375 54.6875 
L 18.109375 46.1875 
Q 21.34375 51.125 25.703125 53.5625 
Q 30.078125 56 35.796875 56 
Q 45.21875 56 50.046875 50.171875 
Q 54.890625 44.34375 54.890625 33.015625 
z
" id="DejaVuSans-110"/>
     </defs>
     <g transform="translate(14.798438 187.37875)rotate(-90)scale(0.1 -0.1)">
      <use xlink:href="#DejaVuSans-84"/>
      <use x="60.818359" xlink:href="#DejaVuSans-111"/>
      <use x="122" xlink:href="#DejaVuSans-116"/>
      <use x="161.208984" xlink:href="#DejaVuSans-97"/>
      <use x="222.488281" xlink:href="#DejaVuSans-108"/>
      <use x="250.271484" xlink:href="#DejaVuSans-32"/>
      <use x="282.058594" xlink:href="#DejaVuSans-99"/>
      <use x="337.039062" xlink:href="#DejaVuSans-97"/>
      <use x="398.318359" xlink:href="#DejaVuSans-115"/>
      <use x="450.417969" xlink:href="#DejaVuSans-101"/>
      <use x="511.941406" xlink:href="#DejaVuSans-115"/>
      <use x="564.041016" xlink:href="#DejaVuSans-32"/>
      <use x="595.828125" xlink:href="#DejaVuSans-112"/>
      <use x="659.304688" xlink:href="#DejaVuSans-101"/>
      <use x="720.828125" xlink:href="#DejaVuSans-114"/>
      <use x="761.941406" xlink:href="#DejaVuSans-32"/>
      <use x="793.728516" xlink:href="#DejaVuSans-109"/>
      <use x="891.140625" xlink:href="#DejaVuSans-105"/>
      <use x="918.923828" xlink:href="#DejaVuSans-108"/>
      <use x="946.707031" xlink:href="#DejaVuSans-108"/>
      <use x="974.490234" xlink:href="#DejaVuSans-105"/>
      <use x="1002.273438" xlink:href="#DejaVuSans-111"/>
      <use x="1063.455078" xlink:href="#DejaVuSans-110"/>
     </g>
    </g>
   </g>
   <g id="line2d_68">
    <path clip-path="url(#p4f9b8bf146)" d="M 314.297104 59.894639 
L 324.354238 58.072721 
L 334.411373 56.250803 
L 344.468507 54.428884 
" style="fill:none;stroke:#7f7f7f;stroke-dasharray:7.4,3.2;stroke-dashoffset:0;stroke-width:2;"/>
   </g>
   <g id="line2d_69">
    <path clip-path="url(#p4f9b8bf146)" d="M 314.297104 92.476884 
L 324.354238 90.182235 
L 334.411373 87.887586 
L 344.468507 85.592937 
" style="fill:none;stroke:#7f7f7f;stroke-dasharray:7.4,3.2;stroke-dashoffset:0;stroke-width:2;"/>
   </g>
   <g id="line2d_70">
    <path clip-path="url(#p4f9b8bf146)" d="M 314.297104 99.941447 
L 324.354238 98.531733 
L 334.411373 97.122019 
L 344.468507 95.712305 
" style="fill:none;stroke:#7f7f7f;stroke-dasharray:7.4,3.2;stroke-dashoffset:0;stroke-width:2;"/>
   </g>
   <g id="line2d_71">
    <path clip-path="url(#p4f9b8bf146)" d="M 314.297104 123.278237 
L 324.354238 121.438844 
L 334.411373 119.59945 
L 344.468507 117.760057 
" style="fill:none;stroke:#7f7f7f;stroke-dasharray:7.4,3.2;stroke-dashoffset:0;stroke-width:2;"/>
   </g>
   <g id="line2d_72">
    <path clip-path="url(#p4f9b8bf146)" d="M 314.297104 142.801284 
L 324.354238 141.105448 
L 334.411373 139.409613 
L 344.468507 137.713777 
" style="fill:none;stroke:#7f7f7f;stroke-dasharray:7.4,3.2;stroke-dashoffset:0;stroke-width:2;"/>
   </g>
   <g id="line2d_73">
    <path clip-path="url(#p4f9b8bf146)" d="M 32.697347 266.101041 
L 42.754482 259.508868 
L 52.811616 252.916695 
L 62.86875 246.324522 
L 72.925884 239.73235 
L 82.983018 233.140177 
L 93.040153 226.548004 
L 103.097287 219.955831 
L 113.154421 213.363658 
L 123.211555 206.771486 
L 133.268689 200.179313 
L 143.325823 193.58714 
L 153.382958 186.994967 
L 163.440092 180.402794 
L 173.497226 173.810622 
L 183.55436 167.218449 
L 193.611494 160.626276 
L 203.668628 154.034103 
L 213.725763 147.44193 
L 223.782897 140.849758 
L 233.840031 134.257585 
L 243.897165 127.665412 
L 253.954299 121.073239 
L 264.011433 114.481066 
L 274.068568 107.888894 
L 284.125702 101.296721 
L 294.182836 94.704548 
L 304.23997 88.112375 
L 314.297104 81.520202 
L 324.354238 74.92803 
L 334.411373 68.335857 
L 344.468507 61.743684 
" style="fill:none;stroke:#d62728;stroke-dasharray:5.55,2.4;stroke-dashoffset:0;stroke-width:1.5;"/>
   </g>
   <g id="patch_3">
    <path d="M 62.86875 239.758125 
L 62.86875 22.318125 
" style="fill:none;stroke:#000000;stroke-linecap:square;stroke-linejoin:miter;stroke-width:0.8;"/>
   </g>
   <g id="patch_4">
    <path d="M 397.66875 239.758125 
L 397.66875 22.318125 
" style="fill:none;stroke:#000000;stroke-linecap:square;stroke-linejoin:miter;stroke-width:0.8;"/>
   </g>
   <g id="patch_5">
    <path d="M 62.86875 239.758125 
L 397.66875 239.758125 
" style="fill:none;stroke:#000000;stroke-linecap:square;stroke-linejoin:miter;stroke-width:0.8;"/>
   </g>
   <g id="patch_6">
    <path d="M 62.86875 22.318125 
L 397.66875 22.318125 
" style="fill:none;stroke:#000000;stroke-linecap:square;stroke-linejoin:miter;stroke-width:0.8;"/>
   </g>
   <g id="text_23">
    <!-- © Scott Sievert -->
    <defs>
     <path d="M 50 72.515625 
Q 57.421875 72.515625 63.84375 69.828125 
Q 70.265625 67.140625 75.59375 61.8125 
Q 80.90625 56.5 83.546875 50.09375 
Q 86.1875 43.703125 86.1875 36.1875 
Q 86.1875 28.765625 83.546875 22.390625 
Q 80.90625 16.015625 75.59375 10.6875 
Q 70.265625 5.375 63.84375 2.6875 
Q 57.421875 0 50 0 
Q 42.578125 0 36.15625 2.6875 
Q 29.734375 5.375 24.421875 10.6875 
Q 19.09375 16.015625 16.453125 22.390625 
Q 13.8125 28.765625 13.8125 36.1875 
Q 13.8125 43.703125 16.453125 50.09375 
Q 19.09375 56.5 24.421875 61.8125 
Q 29.734375 67.140625 36.15625 69.828125 
Q 42.578125 72.515625 50 72.515625 
z
M 50 67.484375 
Q 43.609375 67.484375 38.078125 65.1875 
Q 32.5625 62.890625 27.984375 58.296875 
Q 23.390625 53.71875 21.046875 48.125 
Q 18.703125 42.53125 18.703125 36.1875 
Q 18.703125 29.890625 21.046875 24.34375 
Q 23.390625 18.796875 27.984375 14.203125 
Q 32.5625 9.625 38.078125 7.296875 
Q 43.609375 4.984375 50 4.984375 
Q 56.453125 4.984375 61.984375 7.296875 
Q 67.53125 9.625 72.125 14.203125 
Q 76.65625 18.75 78.921875 24.265625 
Q 81.203125 29.78125 81.203125 36.1875 
Q 81.203125 42.671875 78.90625 48.21875 
Q 76.609375 53.765625 72.125 58.296875 
Q 67.53125 62.890625 61.984375 65.1875 
Q 56.453125 67.484375 50 67.484375 
z
M 64.59375 55.515625 
L 64.59375 49.21875 
Q 61.375 50.828125 58.203125 51.609375 
Q 55.03125 52.390625 51.8125 52.390625 
Q 44.53125 52.390625 40.453125 48.109375 
Q 36.375 43.84375 36.375 36.1875 
Q 36.375 28.421875 40.546875 24.171875 
Q 44.734375 19.921875 52.296875 19.921875 
Q 55.421875 19.921875 58.390625 20.671875 
Q 61.375 21.4375 64.59375 23.09375 
L 64.59375 16.890625 
Q 61.328125 15.484375 57.984375 14.796875 
Q 54.640625 14.109375 51.21875 14.109375 
Q 40.671875 14.109375 34.546875 20.0625 
Q 28.421875 26.03125 28.421875 36.1875 
Q 28.421875 46.390625 34.546875 52.296875 
Q 40.671875 58.203125 51.21875 58.203125 
Q 54.78125 58.203125 58.09375 57.515625 
Q 61.421875 56.84375 64.59375 55.515625 
z
" id="DejaVuSans-169"/>
     <path d="M 53.515625 70.515625 
L 53.515625 60.890625 
Q 47.90625 63.578125 42.921875 64.890625 
Q 37.9375 66.21875 33.296875 66.21875 
Q 25.25 66.21875 20.875 63.09375 
Q 16.5 59.96875 16.5 54.203125 
Q 16.5 49.359375 19.40625 46.890625 
Q 22.3125 44.4375 30.421875 42.921875 
L 36.375 41.703125 
Q 47.40625 39.59375 52.65625 34.296875 
Q 57.90625 29 57.90625 20.125 
Q 57.90625 9.515625 50.796875 4.046875 
Q 43.703125 -1.421875 29.984375 -1.421875 
Q 24.8125 -1.421875 18.96875 -0.25 
Q 13.140625 0.921875 6.890625 3.21875 
L 6.890625 13.375 
Q 12.890625 10.015625 18.65625 8.296875 
Q 24.421875 6.59375 29.984375 6.59375 
Q 38.421875 6.59375 43.015625 9.90625 
Q 47.609375 13.234375 47.609375 19.390625 
Q 47.609375 24.75 44.3125 27.78125 
Q 41.015625 30.8125 33.5 32.328125 
L 27.484375 33.5 
Q 16.453125 35.6875 11.515625 40.375 
Q 6.59375 45.0625 6.59375 53.421875 
Q 6.59375 63.09375 13.40625 68.65625 
Q 20.21875 74.21875 32.171875 74.21875 
Q 37.3125 74.21875 42.625 73.28125 
Q 47.953125 72.359375 53.515625 70.515625 
z
" id="DejaVuSans-83"/>
     <path d="M 2.984375 54.6875 
L 12.5 54.6875 
L 29.59375 8.796875 
L 46.6875 54.6875 
L 56.203125 54.6875 
L 35.6875 0 
L 23.484375 0 
z
" id="DejaVuSans-118"/>
    </defs>
    <g style="opacity:0.3;" transform="translate(327.268811 276.493848)scale(0.1 -0.1)">
     <use xlink:href="#DejaVuSans-169"/>
     <use x="100" xlink:href="#DejaVuSans-32"/>
     <use x="131.787109" xlink:href="#DejaVuSans-83"/>
     <use x="195.263672" xlink:href="#DejaVuSans-99"/>
     <use x="250.244141" xlink:href="#DejaVuSans-111"/>
     <use x="311.425781" xlink:href="#DejaVuSans-116"/>
     <use x="350.634766" xlink:href="#DejaVuSans-116"/>
     <use x="389.84375" xlink:href="#DejaVuSans-32"/>
     <use x="421.630859" xlink:href="#DejaVuSans-83"/>
     <use x="485.107422" xlink:href="#DejaVuSans-105"/>
     <use x="512.890625" xlink:href="#DejaVuSans-101"/>
     <use x="574.414062" xlink:href="#DejaVuSans-118"/>
     <use x="633.59375" xlink:href="#DejaVuSans-101"/>
     <use x="695.117188" xlink:href="#DejaVuSans-114"/>
     <use x="736.230469" xlink:href="#DejaVuSans-116"/>
    </g>
   </g>
   <g id="text_24">
    <!-- State infection rates -->
    <defs>
     <path d="M 37.109375 75.984375 
L 37.109375 68.5 
L 28.515625 68.5 
Q 23.6875 68.5 21.796875 66.546875 
Q 19.921875 64.59375 19.921875 59.515625 
L 19.921875 54.6875 
L 34.71875 54.6875 
L 34.71875 47.703125 
L 19.921875 47.703125 
L 19.921875 0 
L 10.890625 0 
L 10.890625 47.703125 
L 2.296875 47.703125 
L 2.296875 54.6875 
L 10.890625 54.6875 
L 10.890625 58.5 
Q 10.890625 67.625 15.140625 71.796875 
Q 19.390625 75.984375 28.609375 75.984375 
z
" id="DejaVuSans-102"/>
    </defs>
    <g transform="translate(169.194375 16.318125)scale(0.12 -0.12)">
     <use xlink:href="#DejaVuSans-83"/>
     <use x="63.476562" xlink:href="#DejaVuSans-116"/>
     <use x="102.685547" xlink:href="#DejaVuSans-97"/>
     <use x="163.964844" xlink:href="#DejaVuSans-116"/>
     <use x="203.173828" xlink:href="#DejaVuSans-101"/>
     <use x="264.697266" xlink:href="#DejaVuSans-32"/>
     <use x="296.484375" xlink:href="#DejaVuSans-105"/>
     <use x="324.267578" xlink:href="#DejaVuSans-110"/>
     <use x="387.646484" xlink:href="#DejaVuSans-102"/>
     <use x="422.851562" xlink:href="#DejaVuSans-101"/>
     <use x="484.375" xlink:href="#DejaVuSans-99"/>
     <use x="539.355469" xlink:href="#DejaVuSans-116"/>
     <use x="578.564453" xlink:href="#DejaVuSans-105"/>
     <use x="606.347656" xlink:href="#DejaVuSans-111"/>
     <use x="667.529297" xlink:href="#DejaVuSans-110"/>
     <use x="730.908203" xlink:href="#DejaVuSans-32"/>
     <use x="762.695312" xlink:href="#DejaVuSans-114"/>
     <use x="803.808594" xlink:href="#DejaVuSans-97"/>
     <use x="865.087891" xlink:href="#DejaVuSans-116"/>
     <use x="904.296875" xlink:href="#DejaVuSans-101"/>
     <use x="965.820312" xlink:href="#DejaVuSans-115"/>
    </g>
   </g>
   <g id="legend_1">
    <g id="patch_7">
     <path d="M 69.86875 133.065 
L 188.135938 133.065 
Q 190.135938 133.065 190.135938 131.065 
L 190.135938 29.318125 
Q 190.135938 27.318125 188.135938 27.318125 
L 69.86875 27.318125 
Q 67.86875 27.318125 67.86875 29.318125 
L 67.86875 131.065 
Q 67.86875 133.065 69.86875 133.065 
z
" style="fill:#ffffff;opacity:0.8;stroke:#cccccc;stroke-linejoin:miter;"/>
    </g>
    <g id="text_25">
     <!-- State (cases in 7 days) -->
     <defs>
      <path d="M 31 75.875 
Q 24.46875 64.65625 21.28125 53.65625 
Q 18.109375 42.671875 18.109375 31.390625 
Q 18.109375 20.125 21.3125 9.0625 
Q 24.515625 -2 31 -13.1875 
L 23.1875 -13.1875 
Q 15.875 -1.703125 12.234375 9.375 
Q 8.59375 20.453125 8.59375 31.390625 
Q 8.59375 42.28125 12.203125 53.3125 
Q 15.828125 64.359375 23.1875 75.875 
z
" id="DejaVuSans-40"/>
      <path d="M 45.40625 46.390625 
L 45.40625 75.984375 
L 54.390625 75.984375 
L 54.390625 0 
L 45.40625 0 
L 45.40625 8.203125 
Q 42.578125 3.328125 38.25 0.953125 
Q 33.9375 -1.421875 27.875 -1.421875 
Q 17.96875 -1.421875 11.734375 6.484375 
Q 5.515625 14.40625 5.515625 27.296875 
Q 5.515625 40.1875 11.734375 48.09375 
Q 17.96875 56 27.875 56 
Q 33.9375 56 38.25 53.625 
Q 42.578125 51.265625 45.40625 46.390625 
z
M 14.796875 27.296875 
Q 14.796875 17.390625 18.875 11.75 
Q 22.953125 6.109375 30.078125 6.109375 
Q 37.203125 6.109375 41.296875 11.75 
Q 45.40625 17.390625 45.40625 27.296875 
Q 45.40625 37.203125 41.296875 42.84375 
Q 37.203125 48.484375 30.078125 48.484375 
Q 22.953125 48.484375 18.875 42.84375 
Q 14.796875 37.203125 14.796875 27.296875 
z
" id="DejaVuSans-100"/>
      <path d="M 32.171875 -5.078125 
Q 28.375 -14.84375 24.75 -17.8125 
Q 21.140625 -20.796875 15.09375 -20.796875 
L 7.90625 -20.796875 
L 7.90625 -13.28125 
L 13.1875 -13.28125 
Q 16.890625 -13.28125 18.9375 -11.515625 
Q 21 -9.765625 23.484375 -3.21875 
L 25.09375 0.875 
L 2.984375 54.6875 
L 12.5 54.6875 
L 29.59375 11.921875 
L 46.6875 54.6875 
L 56.203125 54.6875 
z
" id="DejaVuSans-121"/>
      <path d="M 8.015625 75.875 
L 15.828125 75.875 
Q 23.140625 64.359375 26.78125 53.3125 
Q 30.421875 42.28125 30.421875 31.390625 
Q 30.421875 20.453125 26.78125 9.375 
Q 23.140625 -1.703125 15.828125 -13.1875 
L 8.015625 -13.1875 
Q 14.5 -2 17.703125 9.0625 
Q 20.90625 20.125 20.90625 31.390625 
Q 20.90625 42.671875 17.703125 53.65625 
Q 14.5 64.65625 8.015625 75.875 
z
" id="DejaVuSans-41"/>
     </defs>
     <g transform="translate(71.86875 38.916562)scale(0.1 -0.1)">
      <use xlink:href="#DejaVuSans-83"/>
      <use x="63.476562" xlink:href="#DejaVuSans-116"/>
      <use x="102.685547" xlink:href="#DejaVuSans-97"/>
      <use x="163.964844" xlink:href="#DejaVuSans-116"/>
      <use x="203.173828" xlink:href="#DejaVuSans-101"/>
      <use x="264.697266" xlink:href="#DejaVuSans-32"/>
      <use x="296.484375" xlink:href="#DejaVuSans-40"/>
      <use x="335.498047" xlink:href="#DejaVuSans-99"/>
      <use x="390.478516" xlink:href="#DejaVuSans-97"/>
      <use x="451.757812" xlink:href="#DejaVuSans-115"/>
      <use x="503.857422" xlink:href="#DejaVuSans-101"/>
      <use x="565.380859" xlink:href="#DejaVuSans-115"/>
      <use x="617.480469" xlink:href="#DejaVuSans-32"/>
      <use x="649.267578" xlink:href="#DejaVuSans-105"/>
      <use x="677.050781" xlink:href="#DejaVuSans-110"/>
      <use x="740.429688" xlink:href="#DejaVuSans-32"/>
      <use x="772.216797" xlink:href="#DejaVuSans-55"/>
      <use x="835.839844" xlink:href="#DejaVuSans-32"/>
      <use x="867.626953" xlink:href="#DejaVuSans-100"/>
      <use x="931.103516" xlink:href="#DejaVuSans-97"/>
      <use x="992.382812" xlink:href="#DejaVuSans-121"/>
      <use x="1051.5625" xlink:href="#DejaVuSans-115"/>
      <use x="1103.662109" xlink:href="#DejaVuSans-41"/>
     </g>
    </g>
    <g id="line2d_74">
     <path d="M 89.002344 50.094688 
L 109.002344 50.094688 
" style="fill:none;stroke:#1f77b4;stroke-linecap:square;stroke-width:1.5;"/>
    </g>
    <g id="line2d_75">
     <defs>
      <path d="M 0 3 
C 0.795609 3 1.55874 2.683901 2.12132 2.12132 
C 2.683901 1.55874 3 0.795609 3 0 
C 3 -0.795609 2.683901 -1.55874 2.12132 -2.12132 
C 1.55874 -2.683901 0.795609 -3 0 -3 
C -0.795609 -3 -1.55874 -2.683901 -2.12132 -2.12132 
C -2.683901 -1.55874 -3 -0.795609 -3 0 
C -3 0.795609 -2.683901 1.55874 -2.12132 2.12132 
C -1.55874 2.683901 -0.795609 3 0 3 
z
" id="m16c3dce900" style="stroke:#1f77b4;"/>
     </defs>
     <g>
      <use style="fill:#1f77b4;stroke:#1f77b4;" x="99.002344" xlink:href="#m16c3dce900" y="50.094688"/>
     </g>
    </g>
    <g id="text_26">
     <!-- NY (1.7$\times$) -->
     <defs>
      <path d="M 9.8125 72.90625 
L 23.09375 72.90625 
L 55.421875 11.921875 
L 55.421875 72.90625 
L 64.984375 72.90625 
L 64.984375 0 
L 51.703125 0 
L 19.390625 60.984375 
L 19.390625 0 
L 9.8125 0 
z
" id="DejaVuSans-78"/>
      <path d="M -0.203125 72.90625 
L 10.40625 72.90625 
L 30.609375 42.921875 
L 50.6875 72.90625 
L 61.28125 72.90625 
L 35.5 34.71875 
L 35.5 0 
L 25.59375 0 
L 25.59375 34.71875 
z
" id="DejaVuSans-89"/>
      <path d="M 70.125 53.71875 
L 47.796875 31.296875 
L 70.125 8.984375 
L 64.3125 3.078125 
L 41.890625 25.484375 
L 19.484375 3.078125 
L 13.71875 8.984375 
L 35.984375 31.296875 
L 13.71875 53.71875 
L 19.484375 59.625 
L 41.890625 37.203125 
L 64.3125 59.625 
z
" id="DejaVuSans-215"/>
     </defs>
     <g transform="translate(117.002344 53.594688)scale(0.1 -0.1)">
      <use transform="translate(0 0.125)" xlink:href="#DejaVuSans-78"/>
      <use transform="translate(74.804688 0.125)" xlink:href="#DejaVuSans-89"/>
      <use transform="translate(135.888672 0.125)" xlink:href="#DejaVuSans-32"/>
      <use transform="translate(167.675781 0.125)" xlink:href="#DejaVuSans-40"/>
      <use transform="translate(206.689453 0.125)" xlink:href="#DejaVuSans-49"/>
      <use transform="translate(270.3125 0.125)" xlink:href="#DejaVuSans-46"/>
      <use transform="translate(301.990234 0.125)" xlink:href="#DejaVuSans-55"/>
      <use transform="translate(365.613281 0.125)" xlink:href="#DejaVuSans-215"/>
      <use transform="translate(449.402344 0.125)" xlink:href="#DejaVuSans-41"/>
     </g>
    </g>
    <g id="line2d_76">
     <path d="M 89.002344 64.772813 
L 109.002344 64.772813 
" style="fill:none;stroke:#ff7f0e;stroke-linecap:square;stroke-width:1.5;"/>
    </g>
    <g id="line2d_77">
     <defs>
      <path d="M 0 3 
C 0.795609 3 1.55874 2.683901 2.12132 2.12132 
C 2.683901 1.55874 3 0.795609 3 0 
C 3 -0.795609 2.683901 -1.55874 2.12132 -2.12132 
C 1.55874 -2.683901 0.795609 -3 0 -3 
C -0.795609 -3 -1.55874 -2.683901 -2.12132 -2.12132 
C -2.683901 -1.55874 -3 -0.795609 -3 0 
C -3 0.795609 -2.683901 1.55874 -2.12132 2.12132 
C -1.55874 2.683901 -0.795609 3 0 3 
z
" id="m921da3cc05" style="stroke:#ff7f0e;"/>
     </defs>
     <g>
      <use style="fill:#ff7f0e;stroke:#ff7f0e;" x="99.002344" xlink:href="#m921da3cc05" y="64.772813"/>
     </g>
    </g>
    <g id="text_27">
     <!-- MI (2.0$\times$) -->
     <defs>
      <path d="M 9.8125 72.90625 
L 19.671875 72.90625 
L 19.671875 0 
L 9.8125 0 
z
" id="DejaVuSans-73"/>
     </defs>
     <g transform="translate(117.002344 68.272813)scale(0.1 -0.1)">
      <use transform="translate(0 0.125)" xlink:href="#DejaVuSans-77"/>
      <use transform="translate(86.279297 0.125)" xlink:href="#DejaVuSans-73"/>
      <use transform="translate(115.771484 0.125)" xlink:href="#DejaVuSans-32"/>
      <use transform="translate(147.558594 0.125)" xlink:href="#DejaVuSans-40"/>
      <use transform="translate(186.572266 0.125)" xlink:href="#DejaVuSans-50"/>
      <use transform="translate(250.195312 0.125)" xlink:href="#DejaVuSans-46"/>
      <use transform="translate(281.982422 0.125)" xlink:href="#DejaVuSans-48"/>
      <use transform="translate(345.605469 0.125)" xlink:href="#DejaVuSans-215"/>
      <use transform="translate(429.394531 0.125)" xlink:href="#DejaVuSans-41"/>
     </g>
    </g>
    <g id="line2d_78">
     <path d="M 89.002344 79.450938 
L 109.002344 79.450938 
" style="fill:none;stroke:#2ca02c;stroke-linecap:square;stroke-width:1.5;"/>
    </g>
    <g id="line2d_79">
     <defs>
      <path d="M 0 3 
C 0.795609 3 1.55874 2.683901 2.12132 2.12132 
C 2.683901 1.55874 3 0.795609 3 0 
C 3 -0.795609 2.683901 -1.55874 2.12132 -2.12132 
C 1.55874 -2.683901 0.795609 -3 0 -3 
C -0.795609 -3 -1.55874 -2.683901 -2.12132 -2.12132 
C -2.683901 -1.55874 -3 -0.795609 -3 0 
C -3 0.795609 -2.683901 1.55874 -2.12132 2.12132 
C -1.55874 2.683901 -0.795609 3 0 3 
z
" id="m75760fd197" style="stroke:#2ca02c;"/>
     </defs>
     <g>
      <use style="fill:#2ca02c;stroke:#2ca02c;" x="99.002344" xlink:href="#m75760fd197" y="79.450938"/>
     </g>
    </g>
    <g id="text_28">
     <!-- WA (1.5$\times$) -->
     <defs>
      <path d="M 3.328125 72.90625 
L 13.28125 72.90625 
L 28.609375 11.28125 
L 43.890625 72.90625 
L 54.984375 72.90625 
L 70.3125 11.28125 
L 85.59375 72.90625 
L 95.609375 72.90625 
L 77.296875 0 
L 64.890625 0 
L 49.515625 63.28125 
L 33.984375 0 
L 21.578125 0 
z
" id="DejaVuSans-87"/>
     </defs>
     <g transform="translate(117.002344 82.950938)scale(0.1 -0.1)">
      <use transform="translate(0 0.125)" xlink:href="#DejaVuSans-87"/>
      <use transform="translate(98.876953 0.125)" xlink:href="#DejaVuSans-65"/>
      <use transform="translate(167.285156 0.125)" xlink:href="#DejaVuSans-32"/>
      <use transform="translate(199.072266 0.125)" xlink:href="#DejaVuSans-40"/>
      <use transform="translate(238.085938 0.125)" xlink:href="#DejaVuSans-49"/>
      <use transform="translate(301.708984 0.125)" xlink:href="#DejaVuSans-46"/>
      <use transform="translate(333.496094 0.125)" xlink:href="#DejaVuSans-53"/>
      <use transform="translate(397.119141 0.125)" xlink:href="#DejaVuSans-215"/>
      <use transform="translate(480.908203 0.125)" xlink:href="#DejaVuSans-41"/>
     </g>
    </g>
    <g id="line2d_80">
     <path d="M 89.002344 94.129063 
L 109.002344 94.129063 
" style="fill:none;stroke:#d62728;stroke-linecap:square;stroke-width:1.5;"/>
    </g>
    <g id="line2d_81">
     <defs>
      <path d="M 0 3 
C 0.795609 3 1.55874 2.683901 2.12132 2.12132 
C 2.683901 1.55874 3 0.795609 3 0 
C 3 -0.795609 2.683901 -1.55874 2.12132 -2.12132 
C 1.55874 -2.683901 0.795609 -3 0 -3 
C -0.795609 -3 -1.55874 -2.683901 -2.12132 -2.12132 
C -2.683901 -1.55874 -3 -0.795609 -3 0 
C -3 0.795609 -2.683901 1.55874 -2.12132 2.12132 
C -1.55874 2.683901 -0.795609 3 0 3 
z
" id="m55643d454d" style="stroke:#d62728;"/>
     </defs>
     <g>
      <use style="fill:#d62728;stroke:#d62728;" x="99.002344" xlink:href="#m55643d454d" y="94.129063"/>
     </g>
    </g>
    <g id="text_29">
     <!-- WI (1.8$\times$) -->
     <defs>
      <path d="M 31.78125 34.625 
Q 24.75 34.625 20.71875 30.859375 
Q 16.703125 27.09375 16.703125 20.515625 
Q 16.703125 13.921875 20.71875 10.15625 
Q 24.75 6.390625 31.78125 6.390625 
Q 38.8125 6.390625 42.859375 10.171875 
Q 46.921875 13.96875 46.921875 20.515625 
Q 46.921875 27.09375 42.890625 30.859375 
Q 38.875 34.625 31.78125 34.625 
z
M 21.921875 38.8125 
Q 15.578125 40.375 12.03125 44.71875 
Q 8.5 49.078125 8.5 55.328125 
Q 8.5 64.0625 14.71875 69.140625 
Q 20.953125 74.21875 31.78125 74.21875 
Q 42.671875 74.21875 48.875 69.140625 
Q 55.078125 64.0625 55.078125 55.328125 
Q 55.078125 49.078125 51.53125 44.71875 
Q 48 40.375 41.703125 38.8125 
Q 48.828125 37.15625 52.796875 32.3125 
Q 56.78125 27.484375 56.78125 20.515625 
Q 56.78125 9.90625 50.3125 4.234375 
Q 43.84375 -1.421875 31.78125 -1.421875 
Q 19.734375 -1.421875 13.25 4.234375 
Q 6.78125 9.90625 6.78125 20.515625 
Q 6.78125 27.484375 10.78125 32.3125 
Q 14.796875 37.15625 21.921875 38.8125 
z
M 18.3125 54.390625 
Q 18.3125 48.734375 21.84375 45.5625 
Q 25.390625 42.390625 31.78125 42.390625 
Q 38.140625 42.390625 41.71875 45.5625 
Q 45.3125 48.734375 45.3125 54.390625 
Q 45.3125 60.0625 41.71875 63.234375 
Q 38.140625 66.40625 31.78125 66.40625 
Q 25.390625 66.40625 21.84375 63.234375 
Q 18.3125 60.0625 18.3125 54.390625 
z
" id="DejaVuSans-56"/>
     </defs>
     <g transform="translate(117.002344 97.629063)scale(0.1 -0.1)">
      <use transform="translate(0 0.125)" xlink:href="#DejaVuSans-87"/>
      <use transform="translate(98.876953 0.125)" xlink:href="#DejaVuSans-73"/>
      <use transform="translate(128.369141 0.125)" xlink:href="#DejaVuSans-32"/>
      <use transform="translate(160.15625 0.125)" xlink:href="#DejaVuSans-40"/>
      <use transform="translate(199.169922 0.125)" xlink:href="#DejaVuSans-49"/>
      <use transform="translate(262.792969 0.125)" xlink:href="#DejaVuSans-46"/>
      <use transform="translate(294.548828 0.125)" xlink:href="#DejaVuSans-56"/>
      <use transform="translate(358.171875 0.125)" xlink:href="#DejaVuSans-215"/>
      <use transform="translate(441.960938 0.125)" xlink:href="#DejaVuSans-41"/>
     </g>
    </g>
    <g id="line2d_82">
     <path d="M 89.002344 108.807188 
L 109.002344 108.807188 
" style="fill:none;stroke:#9467bd;stroke-linecap:square;stroke-width:1.5;"/>
    </g>
    <g id="line2d_83">
     <defs>
      <path d="M 0 3 
C 0.795609 3 1.55874 2.683901 2.12132 2.12132 
C 2.683901 1.55874 3 0.795609 3 0 
C 3 -0.795609 2.683901 -1.55874 2.12132 -2.12132 
C 1.55874 -2.683901 0.795609 -3 0 -3 
C -0.795609 -3 -1.55874 -2.683901 -2.12132 -2.12132 
C -2.683901 -1.55874 -3 -0.795609 -3 0 
C -3 0.795609 -2.683901 1.55874 -2.12132 2.12132 
C -1.55874 2.683901 -0.795609 3 0 3 
z
" id="m6337bee8c5" style="stroke:#9467bd;"/>
     </defs>
     <g>
      <use style="fill:#9467bd;stroke:#9467bd;" x="99.002344" xlink:href="#m6337bee8c5" y="108.807188"/>
     </g>
    </g>
    <g id="text_30">
     <!-- MN (1.7$\times$) -->
     <g transform="translate(117.002344 112.307188)scale(0.1 -0.1)">
      <use transform="translate(0 0.125)" xlink:href="#DejaVuSans-77"/>
      <use transform="translate(86.279297 0.125)" xlink:href="#DejaVuSans-78"/>
      <use transform="translate(161.083984 0.125)" xlink:href="#DejaVuSans-32"/>
      <use transform="translate(192.871094 0.125)" xlink:href="#DejaVuSans-40"/>
      <use transform="translate(231.884766 0.125)" xlink:href="#DejaVuSans-49"/>
      <use transform="translate(295.507812 0.125)" xlink:href="#DejaVuSans-46"/>
      <use transform="translate(327.185547 0.125)" xlink:href="#DejaVuSans-55"/>
      <use transform="translate(390.808594 0.125)" xlink:href="#DejaVuSans-215"/>
      <use transform="translate(474.597656 0.125)" xlink:href="#DejaVuSans-41"/>
     </g>
    </g>
    <g id="line2d_84">
     <path d="M 89.002344 123.485313 
L 109.002344 123.485313 
" style="fill:none;stroke:#d62728;stroke-dasharray:5.55,2.4;stroke-dashoffset:0;stroke-width:1.5;"/>
    </g>
    <g id="line2d_85"/>
    <g id="text_31">
     <!-- (7.6×) -->
     <defs>
      <path d="M 33.015625 40.375 
Q 26.375 40.375 22.484375 35.828125 
Q 18.609375 31.296875 18.609375 23.390625 
Q 18.609375 15.53125 22.484375 10.953125 
Q 26.375 6.390625 33.015625 6.390625 
Q 39.65625 6.390625 43.53125 10.953125 
Q 47.40625 15.53125 47.40625 23.390625 
Q 47.40625 31.296875 43.53125 35.828125 
Q 39.65625 40.375 33.015625 40.375 
z
M 52.59375 71.296875 
L 52.59375 62.3125 
Q 48.875 64.0625 45.09375 64.984375 
Q 41.3125 65.921875 37.59375 65.921875 
Q 27.828125 65.921875 22.671875 59.328125 
Q 17.53125 52.734375 16.796875 39.40625 
Q 19.671875 43.65625 24.015625 45.921875 
Q 28.375 48.1875 33.59375 48.1875 
Q 44.578125 48.1875 50.953125 41.515625 
Q 57.328125 34.859375 57.328125 23.390625 
Q 57.328125 12.15625 50.6875 5.359375 
Q 44.046875 -1.421875 33.015625 -1.421875 
Q 20.359375 -1.421875 13.671875 8.265625 
Q 6.984375 17.96875 6.984375 36.375 
Q 6.984375 53.65625 15.1875 63.9375 
Q 23.390625 74.21875 37.203125 74.21875 
Q 40.921875 74.21875 44.703125 73.484375 
Q 48.484375 72.75 52.59375 71.296875 
z
" id="DejaVuSans-54"/>
     </defs>
     <g transform="translate(117.002344 126.985313)scale(0.1 -0.1)">
      <use xlink:href="#DejaVuSans-40"/>
      <use x="39.013672" xlink:href="#DejaVuSans-55"/>
      <use x="102.636719" xlink:href="#DejaVuSans-46"/>
      <use x="134.423828" xlink:href="#DejaVuSans-54"/>
      <use x="198.046875" xlink:href="#DejaVuSans-215"/>
      <use x="281.835938" xlink:href="#DejaVuSans-41"/>
     </g>
    </g>
   </g>
   <g id="line2d_86">
    <path clip-path="url(#p4f9b8bf146)" d="M 7.884011 286.773535 
L 12.583079 268.592775 
L 22.640213 252.771561 
L 32.697347 236.950346 
L 42.754482 220.871217 
L 52.811616 216.881312 
L 62.86875 210.207501 
L 72.925884 205.700336 
L 82.983018 200.528017 
L 93.040153 191.238165 
L 103.097287 185.400955 
L 113.154421 176.936779 
L 123.211555 172.775255 
L 133.268689 166.825152 
L 143.325823 158.402212 
L 153.382958 145.843468 
L 163.440092 133.16066 
L 173.497226 120.908412 
L 183.55436 112.298988 
L 193.611494 103.588396 
L 203.668628 96.298846 
L 213.725763 91.583711 
L 223.782897 85.800325 
L 233.840031 82.040499 
L 243.897165 78.952478 
L 253.954299 74.875915 
L 264.011433 72.365124 
L 274.068568 69.622272 
L 284.125702 66.855081 
L 294.182836 64.550328 
L 304.23997 62.253456 
L 314.297104 59.894639 
L 324.354238 57.351199 
L 334.411373 55.831882 
L 344.468507 54.428884 
" style="fill:none;stroke:#1f77b4;stroke-linecap:square;stroke-width:1.5;"/>
    <g clip-path="url(#p4f9b8bf146)">
     <use style="fill:#1f77b4;stroke:#1f77b4;" x="-1" xlink:href="#m16c3dce900" y="313.050753"/>
     <use style="fill:#1f77b4;stroke:#1f77b4;" x="2.525945" xlink:href="#m16c3dce900" y="307.503971"/>
     <use style="fill:#1f77b4;stroke:#1f77b4;" x="12.583079" xlink:href="#m16c3dce900" y="268.592775"/>
     <use style="fill:#1f77b4;stroke:#1f77b4;" x="22.640213" xlink:href="#m16c3dce900" y="252.771561"/>
     <use style="fill:#1f77b4;stroke:#1f77b4;" x="32.697347" xlink:href="#m16c3dce900" y="236.950346"/>
     <use style="fill:#1f77b4;stroke:#1f77b4;" x="42.754482" xlink:href="#m16c3dce900" y="220.871217"/>
     <use style="fill:#1f77b4;stroke:#1f77b4;" x="52.811616" xlink:href="#m16c3dce900" y="216.881312"/>
     <use style="fill:#1f77b4;stroke:#1f77b4;" x="62.86875" xlink:href="#m16c3dce900" y="210.207501"/>
     <use style="fill:#1f77b4;stroke:#1f77b4;" x="72.925884" xlink:href="#m16c3dce900" y="205.700336"/>
     <use style="fill:#1f77b4;stroke:#1f77b4;" x="82.983018" xlink:href="#m16c3dce900" y="200.528017"/>
     <use style="fill:#1f77b4;stroke:#1f77b4;" x="93.040153" xlink:href="#m16c3dce900" y="191.238165"/>
     <use style="fill:#1f77b4;stroke:#1f77b4;" x="103.097287" xlink:href="#m16c3dce900" y="185.400955"/>
     <use style="fill:#1f77b4;stroke:#1f77b4;" x="113.154421" xlink:href="#m16c3dce900" y="176.936779"/>
     <use style="fill:#1f77b4;stroke:#1f77b4;" x="123.211555" xlink:href="#m16c3dce900" y="172.775255"/>
     <use style="fill:#1f77b4;stroke:#1f77b4;" x="133.268689" xlink:href="#m16c3dce900" y="166.825152"/>
     <use style="fill:#1f77b4;stroke:#1f77b4;" x="143.325823" xlink:href="#m16c3dce900" y="158.402212"/>
     <use style="fill:#1f77b4;stroke:#1f77b4;" x="153.382958" xlink:href="#m16c3dce900" y="145.843468"/>
     <use style="fill:#1f77b4;stroke:#1f77b4;" x="163.440092" xlink:href="#m16c3dce900" y="133.16066"/>
     <use style="fill:#1f77b4;stroke:#1f77b4;" x="173.497226" xlink:href="#m16c3dce900" y="120.908412"/>
     <use style="fill:#1f77b4;stroke:#1f77b4;" x="183.55436" xlink:href="#m16c3dce900" y="112.298988"/>
     <use style="fill:#1f77b4;stroke:#1f77b4;" x="193.611494" xlink:href="#m16c3dce900" y="103.588396"/>
     <use style="fill:#1f77b4;stroke:#1f77b4;" x="203.668628" xlink:href="#m16c3dce900" y="96.298846"/>
     <use style="fill:#1f77b4;stroke:#1f77b4;" x="213.725763" xlink:href="#m16c3dce900" y="91.583711"/>
     <use style="fill:#1f77b4;stroke:#1f77b4;" x="223.782897" xlink:href="#m16c3dce900" y="85.800325"/>
     <use style="fill:#1f77b4;stroke:#1f77b4;" x="233.840031" xlink:href="#m16c3dce900" y="82.040499"/>
     <use style="fill:#1f77b4;stroke:#1f77b4;" x="243.897165" xlink:href="#m16c3dce900" y="78.952478"/>
     <use style="fill:#1f77b4;stroke:#1f77b4;" x="253.954299" xlink:href="#m16c3dce900" y="74.875915"/>
     <use style="fill:#1f77b4;stroke:#1f77b4;" x="264.011433" xlink:href="#m16c3dce900" y="72.365124"/>
     <use style="fill:#1f77b4;stroke:#1f77b4;" x="274.068568" xlink:href="#m16c3dce900" y="69.622272"/>
     <use style="fill:#1f77b4;stroke:#1f77b4;" x="284.125702" xlink:href="#m16c3dce900" y="66.855081"/>
     <use style="fill:#1f77b4;stroke:#1f77b4;" x="294.182836" xlink:href="#m16c3dce900" y="64.550328"/>
     <use style="fill:#1f77b4;stroke:#1f77b4;" x="304.23997" xlink:href="#m16c3dce900" y="62.253456"/>
     <use style="fill:#1f77b4;stroke:#1f77b4;" x="314.297104" xlink:href="#m16c3dce900" y="59.894639"/>
     <use style="fill:#1f77b4;stroke:#1f77b4;" x="324.354238" xlink:href="#m16c3dce900" y="57.351199"/>
     <use style="fill:#1f77b4;stroke:#1f77b4;" x="334.411373" xlink:href="#m16c3dce900" y="55.831882"/>
     <use style="fill:#1f77b4;stroke:#1f77b4;" x="344.468507" xlink:href="#m16c3dce900" y="54.428884"/>
    </g>
   </g>
   <g id="line2d_87">
    <path clip-path="url(#p4f9b8bf146)" d="M 84.338366 286.773535 
L 93.040153 251.387797 
L 103.097287 234.634813 
L 113.154421 228.297816 
L 123.211555 217.483599 
L 133.268689 217.056948 
L 143.325823 212.825084 
L 153.382958 208.085677 
L 163.440092 175.465873 
L 173.497226 164.164339 
L 183.55436 155.902695 
L 193.611494 149.694376 
L 203.668628 144.029386 
L 213.725763 137.133517 
L 223.782897 131.48376 
L 233.840031 126.307039 
L 243.897165 120.839322 
L 253.954299 115.429911 
L 264.011433 111.582424 
L 274.068568 107.683134 
L 284.125702 104.052658 
L 294.182836 99.552134 
L 304.23997 96.140886 
L 314.297104 92.476884 
L 324.354238 89.834549 
L 334.411373 87.677317 
L 344.468507 85.592937 
" style="fill:none;stroke:#ff7f0e;stroke-linecap:square;stroke-width:1.5;"/>
    <g clip-path="url(#p4f9b8bf146)">
     <use style="fill:#ff7f0e;stroke:#ff7f0e;" x="72.925884" xlink:href="#m921da3cc05" y="292.285044"/>
     <use style="fill:#ff7f0e;stroke:#ff7f0e;" x="82.983018" xlink:href="#m921da3cc05" y="292.285044"/>
     <use style="fill:#ff7f0e;stroke:#ff7f0e;" x="93.040153" xlink:href="#m921da3cc05" y="251.387797"/>
     <use style="fill:#ff7f0e;stroke:#ff7f0e;" x="103.097287" xlink:href="#m921da3cc05" y="234.634813"/>
     <use style="fill:#ff7f0e;stroke:#ff7f0e;" x="113.154421" xlink:href="#m921da3cc05" y="228.297816"/>
     <use style="fill:#ff7f0e;stroke:#ff7f0e;" x="123.211555" xlink:href="#m921da3cc05" y="217.483599"/>
     <use style="fill:#ff7f0e;stroke:#ff7f0e;" x="133.268689" xlink:href="#m921da3cc05" y="217.056948"/>
     <use style="fill:#ff7f0e;stroke:#ff7f0e;" x="143.325823" xlink:href="#m921da3cc05" y="212.825084"/>
     <use style="fill:#ff7f0e;stroke:#ff7f0e;" x="153.382958" xlink:href="#m921da3cc05" y="208.085677"/>
     <use style="fill:#ff7f0e;stroke:#ff7f0e;" x="163.440092" xlink:href="#m921da3cc05" y="175.465873"/>
     <use style="fill:#ff7f0e;stroke:#ff7f0e;" x="173.497226" xlink:href="#m921da3cc05" y="164.164339"/>
     <use style="fill:#ff7f0e;stroke:#ff7f0e;" x="183.55436" xlink:href="#m921da3cc05" y="155.902695"/>
     <use style="fill:#ff7f0e;stroke:#ff7f0e;" x="193.611494" xlink:href="#m921da3cc05" y="149.694376"/>
     <use style="fill:#ff7f0e;stroke:#ff7f0e;" x="203.668628" xlink:href="#m921da3cc05" y="144.029386"/>
     <use style="fill:#ff7f0e;stroke:#ff7f0e;" x="213.725763" xlink:href="#m921da3cc05" y="137.133517"/>
     <use style="fill:#ff7f0e;stroke:#ff7f0e;" x="223.782897" xlink:href="#m921da3cc05" y="131.48376"/>
     <use style="fill:#ff7f0e;stroke:#ff7f0e;" x="233.840031" xlink:href="#m921da3cc05" y="126.307039"/>
     <use style="fill:#ff7f0e;stroke:#ff7f0e;" x="243.897165" xlink:href="#m921da3cc05" y="120.839322"/>
     <use style="fill:#ff7f0e;stroke:#ff7f0e;" x="253.954299" xlink:href="#m921da3cc05" y="115.429911"/>
     <use style="fill:#ff7f0e;stroke:#ff7f0e;" x="264.011433" xlink:href="#m921da3cc05" y="111.582424"/>
     <use style="fill:#ff7f0e;stroke:#ff7f0e;" x="274.068568" xlink:href="#m921da3cc05" y="107.683134"/>
     <use style="fill:#ff7f0e;stroke:#ff7f0e;" x="284.125702" xlink:href="#m921da3cc05" y="104.052658"/>
     <use style="fill:#ff7f0e;stroke:#ff7f0e;" x="294.182836" xlink:href="#m921da3cc05" y="99.552134"/>
     <use style="fill:#ff7f0e;stroke:#ff7f0e;" x="304.23997" xlink:href="#m921da3cc05" y="96.140886"/>
     <use style="fill:#ff7f0e;stroke:#ff7f0e;" x="314.297104" xlink:href="#m921da3cc05" y="92.476884"/>
     <use style="fill:#ff7f0e;stroke:#ff7f0e;" x="324.354238" xlink:href="#m921da3cc05" y="89.834549"/>
     <use style="fill:#ff7f0e;stroke:#ff7f0e;" x="334.411373" xlink:href="#m921da3cc05" y="87.677317"/>
     <use style="fill:#ff7f0e;stroke:#ff7f0e;" x="344.468507" xlink:href="#m921da3cc05" y="85.592937"/>
    </g>
   </g>
   <g id="line2d_88">
    <path clip-path="url(#p4f9b8bf146)" d="M -1 225.453514 
L 2.525945 222.810816 
L 12.583079 214.036546 
L 22.640213 203.369411 
L 32.697347 200.245575 
L 42.754482 194.627541 
L 52.811616 188.960514 
L 62.86875 183.513833 
L 72.925884 173.383422 
L 82.983018 169.004772 
L 93.040153 164.10135 
L 103.097287 159.570581 
L 113.154421 155.565932 
L 123.211555 153.217347 
L 133.268689 149.511204 
L 143.325823 146.448956 
L 153.382958 143.660205 
L 163.440092 139.558083 
L 173.497226 136.500912 
L 183.55436 132.746724 
L 193.611494 130.278496 
L 203.668628 127.30035 
L 213.725763 123.61637 
L 223.782897 122.568413 
L 233.840031 117.639949 
L 243.897165 113.95534 
L 253.954299 110.894599 
L 264.011433 107.990124 
L 274.068568 106.707498 
L 284.125702 106.214834 
L 294.182836 104.972568 
L 304.23997 101.225291 
L 314.297104 99.941447 
L 324.354238 98.261624 
L 334.411373 96.828128 
L 344.468507 95.712305 
" style="fill:none;stroke:#2ca02c;stroke-linecap:square;stroke-width:1.5;"/>
    <g clip-path="url(#p4f9b8bf146)">
     <use style="fill:#2ca02c;stroke:#2ca02c;" x="-1" xlink:href="#m75760fd197" y="225.453514"/>
     <use style="fill:#2ca02c;stroke:#2ca02c;" x="2.525945" xlink:href="#m75760fd197" y="222.810816"/>
     <use style="fill:#2ca02c;stroke:#2ca02c;" x="12.583079" xlink:href="#m75760fd197" y="214.036546"/>
     <use style="fill:#2ca02c;stroke:#2ca02c;" x="22.640213" xlink:href="#m75760fd197" y="203.369411"/>
     <use style="fill:#2ca02c;stroke:#2ca02c;" x="32.697347" xlink:href="#m75760fd197" y="200.245575"/>
     <use style="fill:#2ca02c;stroke:#2ca02c;" x="42.754482" xlink:href="#m75760fd197" y="194.627541"/>
     <use style="fill:#2ca02c;stroke:#2ca02c;" x="52.811616" xlink:href="#m75760fd197" y="188.960514"/>
     <use style="fill:#2ca02c;stroke:#2ca02c;" x="62.86875" xlink:href="#m75760fd197" y="183.513833"/>
     <use style="fill:#2ca02c;stroke:#2ca02c;" x="72.925884" xlink:href="#m75760fd197" y="173.383422"/>
     <use style="fill:#2ca02c;stroke:#2ca02c;" x="82.983018" xlink:href="#m75760fd197" y="169.004772"/>
     <use style="fill:#2ca02c;stroke:#2ca02c;" x="93.040153" xlink:href="#m75760fd197" y="164.10135"/>
     <use style="fill:#2ca02c;stroke:#2ca02c;" x="103.097287" xlink:href="#m75760fd197" y="159.570581"/>
     <use style="fill:#2ca02c;stroke:#2ca02c;" x="113.154421" xlink:href="#m75760fd197" y="155.565932"/>
     <use style="fill:#2ca02c;stroke:#2ca02c;" x="123.211555" xlink:href="#m75760fd197" y="153.217347"/>
     <use style="fill:#2ca02c;stroke:#2ca02c;" x="133.268689" xlink:href="#m75760fd197" y="149.511204"/>
     <use style="fill:#2ca02c;stroke:#2ca02c;" x="143.325823" xlink:href="#m75760fd197" y="146.448956"/>
     <use style="fill:#2ca02c;stroke:#2ca02c;" x="153.382958" xlink:href="#m75760fd197" y="143.660205"/>
     <use style="fill:#2ca02c;stroke:#2ca02c;" x="163.440092" xlink:href="#m75760fd197" y="139.558083"/>
     <use style="fill:#2ca02c;stroke:#2ca02c;" x="173.497226" xlink:href="#m75760fd197" y="136.500912"/>
     <use style="fill:#2ca02c;stroke:#2ca02c;" x="183.55436" xlink:href="#m75760fd197" y="132.746724"/>
     <use style="fill:#2ca02c;stroke:#2ca02c;" x="193.611494" xlink:href="#m75760fd197" y="130.278496"/>
     <use style="fill:#2ca02c;stroke:#2ca02c;" x="203.668628" xlink:href="#m75760fd197" y="127.30035"/>
     <use style="fill:#2ca02c;stroke:#2ca02c;" x="213.725763" xlink:href="#m75760fd197" y="123.61637"/>
     <use style="fill:#2ca02c;stroke:#2ca02c;" x="223.782897" xlink:href="#m75760fd197" y="122.568413"/>
     <use style="fill:#2ca02c;stroke:#2ca02c;" x="233.840031" xlink:href="#m75760fd197" y="117.639949"/>
     <use style="fill:#2ca02c;stroke:#2ca02c;" x="243.897165" xlink:href="#m75760fd197" y="113.95534"/>
     <use style="fill:#2ca02c;stroke:#2ca02c;" x="253.954299" xlink:href="#m75760fd197" y="110.894599"/>
     <use style="fill:#2ca02c;stroke:#2ca02c;" x="264.011433" xlink:href="#m75760fd197" y="107.990124"/>
     <use style="fill:#2ca02c;stroke:#2ca02c;" x="274.068568" xlink:href="#m75760fd197" y="106.707498"/>
     <use style="fill:#2ca02c;stroke:#2ca02c;" x="284.125702" xlink:href="#m75760fd197" y="106.214834"/>
     <use style="fill:#2ca02c;stroke:#2ca02c;" x="294.182836" xlink:href="#m75760fd197" y="104.972568"/>
     <use style="fill:#2ca02c;stroke:#2ca02c;" x="304.23997" xlink:href="#m75760fd197" y="101.225291"/>
     <use style="fill:#2ca02c;stroke:#2ca02c;" x="314.297104" xlink:href="#m75760fd197" y="99.941447"/>
     <use style="fill:#2ca02c;stroke:#2ca02c;" x="324.354238" xlink:href="#m75760fd197" y="98.261624"/>
     <use style="fill:#2ca02c;stroke:#2ca02c;" x="334.411373" xlink:href="#m75760fd197" y="96.828128"/>
     <use style="fill:#2ca02c;stroke:#2ca02c;" x="344.468507" xlink:href="#m75760fd197" y="95.712305"/>
    </g>
   </g>
   <g id="line2d_89">
    <path clip-path="url(#p4f9b8bf146)" d="M 58.543715 286.773535 
L 62.86875 279.969678 
L 72.925884 270.714861 
L 82.983018 254.893646 
L 93.040153 248.327249 
L 103.097287 228.58352 
L 113.154421 220.562797 
L 123.211555 215.982451 
L 133.268689 207.91055 
L 143.325823 198.175185 
L 153.382958 189.347019 
L 163.440092 180.673767 
L 173.497226 173.099153 
L 183.55436 167.094388 
L 193.611494 160.08555 
L 203.668628 158.029895 
L 213.725763 154.825561 
L 223.782897 148.921159 
L 233.840031 144.565067 
L 243.897165 139.77652 
L 253.954299 137.181007 
L 264.011433 135.533332 
L 274.068568 132.718456 
L 284.125702 131.253235 
L 294.182836 128.116829 
L 304.23997 125.609106 
L 314.297104 123.278237 
L 324.354238 121.055162 
L 334.411373 119.438637 
L 344.468507 117.760057 
" style="fill:none;stroke:#d62728;stroke-linecap:square;stroke-width:1.5;"/>
    <g clip-path="url(#p4f9b8bf146)">
     <use style="fill:#d62728;stroke:#d62728;" x="-1" xlink:href="#m55643d454d" y="295.790893"/>
     <use style="fill:#d62728;stroke:#d62728;" x="2.525945" xlink:href="#m55643d454d" y="295.790893"/>
     <use style="fill:#d62728;stroke:#d62728;" x="12.583079" xlink:href="#m55643d454d" y="295.790893"/>
     <use style="fill:#d62728;stroke:#d62728;" x="22.640213" xlink:href="#m55643d454d" y="295.790893"/>
     <use style="fill:#d62728;stroke:#d62728;" x="32.697347" xlink:href="#m55643d454d" y="295.790893"/>
     <use style="fill:#d62728;stroke:#d62728;" x="42.754482" xlink:href="#m55643d454d" y="295.790893"/>
     <use style="fill:#d62728;stroke:#d62728;" x="52.811616" xlink:href="#m55643d454d" y="295.790893"/>
     <use style="fill:#d62728;stroke:#d62728;" x="62.86875" xlink:href="#m55643d454d" y="279.969678"/>
     <use style="fill:#d62728;stroke:#d62728;" x="72.925884" xlink:href="#m55643d454d" y="270.714861"/>
     <use style="fill:#d62728;stroke:#d62728;" x="82.983018" xlink:href="#m55643d454d" y="254.893646"/>
     <use style="fill:#d62728;stroke:#d62728;" x="93.040153" xlink:href="#m55643d454d" y="248.327249"/>
     <use style="fill:#d62728;stroke:#d62728;" x="103.097287" xlink:href="#m55643d454d" y="228.58352"/>
     <use style="fill:#d62728;stroke:#d62728;" x="113.154421" xlink:href="#m55643d454d" y="220.562797"/>
     <use style="fill:#d62728;stroke:#d62728;" x="123.211555" xlink:href="#m55643d454d" y="215.982451"/>
     <use style="fill:#d62728;stroke:#d62728;" x="133.268689" xlink:href="#m55643d454d" y="207.91055"/>
     <use style="fill:#d62728;stroke:#d62728;" x="143.325823" xlink:href="#m55643d454d" y="198.175185"/>
     <use style="fill:#d62728;stroke:#d62728;" x="153.382958" xlink:href="#m55643d454d" y="189.347019"/>
     <use style="fill:#d62728;stroke:#d62728;" x="163.440092" xlink:href="#m55643d454d" y="180.673767"/>
     <use style="fill:#d62728;stroke:#d62728;" x="173.497226" xlink:href="#m55643d454d" y="173.099153"/>
     <use style="fill:#d62728;stroke:#d62728;" x="183.55436" xlink:href="#m55643d454d" y="167.094388"/>
     <use style="fill:#d62728;stroke:#d62728;" x="193.611494" xlink:href="#m55643d454d" y="160.08555"/>
     <use style="fill:#d62728;stroke:#d62728;" x="203.668628" xlink:href="#m55643d454d" y="158.029895"/>
     <use style="fill:#d62728;stroke:#d62728;" x="213.725763" xlink:href="#m55643d454d" y="154.825561"/>
     <use style="fill:#d62728;stroke:#d62728;" x="223.782897" xlink:href="#m55643d454d" y="148.921159"/>
     <use style="fill:#d62728;stroke:#d62728;" x="233.840031" xlink:href="#m55643d454d" y="144.565067"/>
     <use style="fill:#d62728;stroke:#d62728;" x="243.897165" xlink:href="#m55643d454d" y="139.77652"/>
     <use style="fill:#d62728;stroke:#d62728;" x="253.954299" xlink:href="#m55643d454d" y="137.181007"/>
     <use style="fill:#d62728;stroke:#d62728;" x="264.011433" xlink:href="#m55643d454d" y="135.533332"/>
     <use style="fill:#d62728;stroke:#d62728;" x="274.068568" xlink:href="#m55643d454d" y="132.718456"/>
     <use style="fill:#d62728;stroke:#d62728;" x="284.125702" xlink:href="#m55643d454d" y="131.253235"/>
     <use style="fill:#d62728;stroke:#d62728;" x="294.182836" xlink:href="#m55643d454d" y="128.116829"/>
     <use style="fill:#d62728;stroke:#d62728;" x="304.23997" xlink:href="#m55643d454d" y="125.609106"/>
     <use style="fill:#d62728;stroke:#d62728;" x="314.297104" xlink:href="#m55643d454d" y="123.278237"/>
     <use style="fill:#d62728;stroke:#d62728;" x="324.354238" xlink:href="#m55643d454d" y="121.055162"/>
     <use style="fill:#d62728;stroke:#d62728;" x="334.411373" xlink:href="#m55643d454d" y="119.438637"/>
     <use style="fill:#d62728;stroke:#d62728;" x="344.468507" xlink:href="#m55643d454d" y="117.760057"/>
    </g>
   </g>
   <g id="line2d_90">
    <path clip-path="url(#p4f9b8bf146)" d="M 48.023738 286.773535 
L 52.811616 279.241565 
L 62.86875 279.241565 
L 72.925884 269.986747 
L 82.983018 258.327056 
L 93.040153 244.910715 
L 103.097287 234.8258 
L 113.154421 225.570982 
L 123.211555 213.911291 
L 133.268689 204.013469 
L 143.325823 201.608595 
L 153.382958 195.914604 
L 163.440092 192.60881 
L 173.497226 186.758811 
L 183.55436 182.597288 
L 193.611494 177.703342 
L 203.668628 170.446714 
L 213.725763 167.964269 
L 223.782897 165.884034 
L 233.840031 161.616715 
L 243.897165 158.420887 
L 253.954299 156.079185 
L 264.011433 153.031306 
L 274.068568 149.983427 
L 284.125702 147.974272 
L 294.182836 145.894669 
L 304.23997 144.20314 
L 314.297104 142.801284 
L 324.354238 140.702207 
L 334.411373 138.926019 
L 344.468507 137.713777 
" style="fill:none;stroke:#9467bd;stroke-linecap:square;stroke-width:1.5;"/>
    <g clip-path="url(#p4f9b8bf146)">
     <use style="fill:#9467bd;stroke:#9467bd;" x="32.697347" xlink:href="#m6337bee8c5" y="295.062779"/>
     <use style="fill:#9467bd;stroke:#9467bd;" x="42.754482" xlink:href="#m6337bee8c5" y="295.062779"/>
     <use style="fill:#9467bd;stroke:#9467bd;" x="52.811616" xlink:href="#m6337bee8c5" y="279.241565"/>
     <use style="fill:#9467bd;stroke:#9467bd;" x="62.86875" xlink:href="#m6337bee8c5" y="279.241565"/>
     <use style="fill:#9467bd;stroke:#9467bd;" x="72.925884" xlink:href="#m6337bee8c5" y="269.986747"/>
     <use style="fill:#9467bd;stroke:#9467bd;" x="82.983018" xlink:href="#m6337bee8c5" y="258.327056"/>
     <use style="fill:#9467bd;stroke:#9467bd;" x="93.040153" xlink:href="#m6337bee8c5" y="244.910715"/>
     <use style="fill:#9467bd;stroke:#9467bd;" x="103.097287" xlink:href="#m6337bee8c5" y="234.8258"/>
     <use style="fill:#9467bd;stroke:#9467bd;" x="113.154421" xlink:href="#m6337bee8c5" y="225.570982"/>
     <use style="fill:#9467bd;stroke:#9467bd;" x="123.211555" xlink:href="#m6337bee8c5" y="213.911291"/>
     <use style="fill:#9467bd;stroke:#9467bd;" x="133.268689" xlink:href="#m6337bee8c5" y="204.013469"/>
     <use style="fill:#9467bd;stroke:#9467bd;" x="143.325823" xlink:href="#m6337bee8c5" y="201.608595"/>
     <use style="fill:#9467bd;stroke:#9467bd;" x="153.382958" xlink:href="#m6337bee8c5" y="195.914604"/>
     <use style="fill:#9467bd;stroke:#9467bd;" x="163.440092" xlink:href="#m6337bee8c5" y="192.60881"/>
     <use style="fill:#9467bd;stroke:#9467bd;" x="173.497226" xlink:href="#m6337bee8c5" y="186.758811"/>
     <use style="fill:#9467bd;stroke:#9467bd;" x="183.55436" xlink:href="#m6337bee8c5" y="182.597288"/>
     <use style="fill:#9467bd;stroke:#9467bd;" x="193.611494" xlink:href="#m6337bee8c5" y="177.703342"/>
     <use style="fill:#9467bd;stroke:#9467bd;" x="203.668628" xlink:href="#m6337bee8c5" y="170.446714"/>
     <use style="fill:#9467bd;stroke:#9467bd;" x="213.725763" xlink:href="#m6337bee8c5" y="167.964269"/>
     <use style="fill:#9467bd;stroke:#9467bd;" x="223.782897" xlink:href="#m6337bee8c5" y="165.884034"/>
     <use style="fill:#9467bd;stroke:#9467bd;" x="233.840031" xlink:href="#m6337bee8c5" y="161.616715"/>
     <use style="fill:#9467bd;stroke:#9467bd;" x="243.897165" xlink:href="#m6337bee8c5" y="158.420887"/>
     <use style="fill:#9467bd;stroke:#9467bd;" x="253.954299" xlink:href="#m6337bee8c5" y="156.079185"/>
     <use style="fill:#9467bd;stroke:#9467bd;" x="264.011433" xlink:href="#m6337bee8c5" y="153.031306"/>
     <use style="fill:#9467bd;stroke:#9467bd;" x="274.068568" xlink:href="#m6337bee8c5" y="149.983427"/>
     <use style="fill:#9467bd;stroke:#9467bd;" x="284.125702" xlink:href="#m6337bee8c5" y="147.974272"/>
     <use style="fill:#9467bd;stroke:#9467bd;" x="294.182836" xlink:href="#m6337bee8c5" y="145.894669"/>
     <use style="fill:#9467bd;stroke:#9467bd;" x="304.23997" xlink:href="#m6337bee8c5" y="144.20314"/>
     <use style="fill:#9467bd;stroke:#9467bd;" x="314.297104" xlink:href="#m6337bee8c5" y="142.801284"/>
     <use style="fill:#9467bd;stroke:#9467bd;" x="324.354238" xlink:href="#m6337bee8c5" y="140.702207"/>
     <use style="fill:#9467bd;stroke:#9467bd;" x="334.411373" xlink:href="#m6337bee8c5" y="138.926019"/>
     <use style="fill:#9467bd;stroke:#9467bd;" x="344.468507" xlink:href="#m6337bee8c5" y="137.713777"/>
    </g>
   </g>
  </g>
 </g>
 <defs>
  <clipPath id="p4f9b8bf146">
   <rect height="217.44" width="334.8" x="62.86875" y="22.318125"/>
  </clipPath>
 </defs>
</svg>
