<?xml version="1.0" encoding="utf-8" standalone="no"?>
<!DOCTYPE svg PUBLIC "-//W3C//DTD SVG 1.1//EN"
  "http://www.w3.org/Graphics/SVG/1.1/DTD/svg11.dtd">
<!-- Created with matplotlib (https://matplotlib.org/) -->
<svg height="284.120091pt" version="1.1" viewBox="0 0 418.78369 284.120091" width="418.78369pt" xmlns="http://www.w3.org/2000/svg" xmlns:xlink="http://www.w3.org/1999/xlink">
 <defs>
  <style type="text/css">
*{stroke-linecap:butt;stroke-linejoin:round;}
  </style>
 </defs>
 <g id="figure_1">
  <g id="patch_1">
   <path d="M 0 284.120091 
L 418.78369 284.120091 
L 418.78369 0 
L 0 0 
z
" style="fill:#ffffff;"/>
  </g>
  <g id="axes_1">
   <g id="patch_2">
    <path d="M 62.86875 239.758125 
L 397.66875 239.758125 
L 397.66875 22.318125 
L 62.86875 22.318125 
z
" style="fill:#ffffff;"/>
   </g>
   <g id="matplotlib.axis_1">
    <g id="xtick_1">
     <g id="line2d_1">
      <path clip-path="url(#p3dc8dc6ac3)" d="M 62.86875 239.758125 
L 62.86875 22.318125 
" style="fill:none;stroke:#b0b0b0;stroke-linecap:square;stroke-opacity:0.8;stroke-width:0.8;"/>
     </g>
     <g id="line2d_2">
      <defs>
       <path d="M 0 0 
L 0 3.5 
" id="mbd9be7796a" style="stroke:#000000;stroke-width:0.8;"/>
      </defs>
      <g>
       <use style="stroke:#000000;stroke-width:0.8;" x="62.86875" xlink:href="#mbd9be7796a" y="239.758125"/>
      </g>
     </g>
     <g id="text_1">
      <!-- Mar. -->
      <defs>
       <path d="M 9.8125 72.90625 
L 24.515625 72.90625 
L 43.109375 23.296875 
L 61.8125 72.90625 
L 76.515625 72.90625 
L 76.515625 0 
L 66.890625 0 
L 66.890625 64.015625 
L 48.09375 14.015625 
L 38.1875 14.015625 
L 19.390625 64.015625 
L 19.390625 0 
L 9.8125 0 
z
" id="DejaVuSans-77"/>
       <path d="M 34.28125 27.484375 
Q 23.390625 27.484375 19.1875 25 
Q 14.984375 22.515625 14.984375 16.5 
Q 14.984375 11.71875 18.140625 8.90625 
Q 21.296875 6.109375 26.703125 6.109375 
Q 34.1875 6.109375 38.703125 11.40625 
Q 43.21875 16.703125 43.21875 25.484375 
L 43.21875 27.484375 
z
M 52.203125 31.203125 
L 52.203125 0 
L 43.21875 0 
L 43.21875 8.296875 
Q 40.140625 3.328125 35.546875 0.953125 
Q 30.953125 -1.421875 24.3125 -1.421875 
Q 15.921875 -1.421875 10.953125 3.296875 
Q 6 8.015625 6 15.921875 
Q 6 25.140625 12.171875 29.828125 
Q 18.359375 34.515625 30.609375 34.515625 
L 43.21875 34.515625 
L 43.21875 35.40625 
Q 43.21875 41.609375 39.140625 45 
Q 35.0625 48.390625 27.6875 48.390625 
Q 23 48.390625 18.546875 47.265625 
Q 14.109375 46.140625 10.015625 43.890625 
L 10.015625 52.203125 
Q 14.9375 54.109375 19.578125 55.046875 
Q 24.21875 56 28.609375 56 
Q 40.484375 56 46.34375 49.84375 
Q 52.203125 43.703125 52.203125 31.203125 
z
" id="DejaVuSans-97"/>
       <path d="M 41.109375 46.296875 
Q 39.59375 47.171875 37.8125 47.578125 
Q 36.03125 48 33.890625 48 
Q 26.265625 48 22.1875 43.046875 
Q 18.109375 38.09375 18.109375 28.8125 
L 18.109375 0 
L 9.078125 0 
L 9.078125 54.6875 
L 18.109375 54.6875 
L 18.109375 46.1875 
Q 20.953125 51.171875 25.484375 53.578125 
Q 30.03125 56 36.53125 56 
Q 37.453125 56 38.578125 55.875 
Q 39.703125 55.765625 41.0625 55.515625 
z
" id="DejaVuSans-114"/>
       <path d="M 10.6875 12.40625 
L 21 12.40625 
L 21 0 
L 10.6875 0 
z
" id="DejaVuSans-46"/>
      </defs>
      <g transform="translate(51.853125 254.356562)scale(0.1 -0.1)">
       <use xlink:href="#DejaVuSans-77"/>
       <use x="86.279297" xlink:href="#DejaVuSans-97"/>
       <use x="147.558594" xlink:href="#DejaVuSans-114"/>
       <use x="188.53125" xlink:href="#DejaVuSans-46"/>
      </g>
      <!-- 09 -->
      <defs>
       <path d="M 31.78125 66.40625 
Q 24.171875 66.40625 20.328125 58.90625 
Q 16.5 51.421875 16.5 36.375 
Q 16.5 21.390625 20.328125 13.890625 
Q 24.171875 6.390625 31.78125 6.390625 
Q 39.453125 6.390625 43.28125 13.890625 
Q 47.125 21.390625 47.125 36.375 
Q 47.125 51.421875 43.28125 58.90625 
Q 39.453125 66.40625 31.78125 66.40625 
z
M 31.78125 74.21875 
Q 44.046875 74.21875 50.515625 64.515625 
Q 56.984375 54.828125 56.984375 36.375 
Q 56.984375 17.96875 50.515625 8.265625 
Q 44.046875 -1.421875 31.78125 -1.421875 
Q 19.53125 -1.421875 13.0625 8.265625 
Q 6.59375 17.96875 6.59375 36.375 
Q 6.59375 54.828125 13.0625 64.515625 
Q 19.53125 74.21875 31.78125 74.21875 
z
" id="DejaVuSans-48"/>
       <path d="M 10.984375 1.515625 
L 10.984375 10.5 
Q 14.703125 8.734375 18.5 7.8125 
Q 22.3125 6.890625 25.984375 6.890625 
Q 35.75 6.890625 40.890625 13.453125 
Q 46.046875 20.015625 46.78125 33.40625 
Q 43.953125 29.203125 39.59375 26.953125 
Q 35.25 24.703125 29.984375 24.703125 
Q 19.046875 24.703125 12.671875 31.3125 
Q 6.296875 37.9375 6.296875 49.421875 
Q 6.296875 60.640625 12.9375 67.421875 
Q 19.578125 74.21875 30.609375 74.21875 
Q 43.265625 74.21875 49.921875 64.515625 
Q 56.59375 54.828125 56.59375 36.375 
Q 56.59375 19.140625 48.40625 8.859375 
Q 40.234375 -1.421875 26.421875 -1.421875 
Q 22.703125 -1.421875 18.890625 -0.6875 
Q 15.09375 0.046875 10.984375 1.515625 
z
M 30.609375 32.421875 
Q 37.25 32.421875 41.125 36.953125 
Q 45.015625 41.5 45.015625 49.421875 
Q 45.015625 57.28125 41.125 61.84375 
Q 37.25 66.40625 30.609375 66.40625 
Q 23.96875 66.40625 20.09375 61.84375 
Q 16.21875 57.28125 16.21875 49.421875 
Q 16.21875 41.5 20.09375 36.953125 
Q 23.96875 32.421875 30.609375 32.421875 
z
" id="DejaVuSans-57"/>
      </defs>
      <g transform="translate(56.50625 265.554375)scale(0.1 -0.1)">
       <use xlink:href="#DejaVuSans-48"/>
       <use x="63.623047" xlink:href="#DejaVuSans-57"/>
      </g>
     </g>
    </g>
    <g id="xtick_2">
     <g id="line2d_3">
      <path clip-path="url(#p3dc8dc6ac3)" d="M 99.228963 239.758125 
L 99.228963 22.318125 
" style="fill:none;stroke:#b0b0b0;stroke-linecap:square;stroke-opacity:0.8;stroke-width:0.8;"/>
     </g>
     <g id="line2d_4">
      <g>
       <use style="stroke:#000000;stroke-width:0.8;" x="99.228963" xlink:href="#mbd9be7796a" y="239.758125"/>
      </g>
     </g>
     <g id="text_2">
      <!-- Mar. -->
      <g transform="translate(88.213338 254.356562)scale(0.1 -0.1)">
       <use xlink:href="#DejaVuSans-77"/>
       <use x="86.279297" xlink:href="#DejaVuSans-97"/>
       <use x="147.558594" xlink:href="#DejaVuSans-114"/>
       <use x="188.53125" xlink:href="#DejaVuSans-46"/>
      </g>
      <!-- 13 -->
      <defs>
       <path d="M 12.40625 8.296875 
L 28.515625 8.296875 
L 28.515625 63.921875 
L 10.984375 60.40625 
L 10.984375 69.390625 
L 28.421875 72.90625 
L 38.28125 72.90625 
L 38.28125 8.296875 
L 54.390625 8.296875 
L 54.390625 0 
L 12.40625 0 
z
" id="DejaVuSans-49"/>
       <path d="M 40.578125 39.3125 
Q 47.65625 37.796875 51.625 33 
Q 55.609375 28.21875 55.609375 21.1875 
Q 55.609375 10.40625 48.1875 4.484375 
Q 40.765625 -1.421875 27.09375 -1.421875 
Q 22.515625 -1.421875 17.65625 -0.515625 
Q 12.796875 0.390625 7.625 2.203125 
L 7.625 11.71875 
Q 11.71875 9.328125 16.59375 8.109375 
Q 21.484375 6.890625 26.8125 6.890625 
Q 36.078125 6.890625 40.9375 10.546875 
Q 45.796875 14.203125 45.796875 21.1875 
Q 45.796875 27.640625 41.28125 31.265625 
Q 36.765625 34.90625 28.71875 34.90625 
L 20.21875 34.90625 
L 20.21875 43.015625 
L 29.109375 43.015625 
Q 36.375 43.015625 40.234375 45.921875 
Q 44.09375 48.828125 44.09375 54.296875 
Q 44.09375 59.90625 40.109375 62.90625 
Q 36.140625 65.921875 28.71875 65.921875 
Q 24.65625 65.921875 20.015625 65.03125 
Q 15.375 64.15625 9.8125 62.3125 
L 9.8125 71.09375 
Q 15.4375 72.65625 20.34375 73.4375 
Q 25.25 74.21875 29.59375 74.21875 
Q 40.828125 74.21875 47.359375 69.109375 
Q 53.90625 64.015625 53.90625 55.328125 
Q 53.90625 49.265625 50.4375 45.09375 
Q 46.96875 40.921875 40.578125 39.3125 
z
" id="DejaVuSans-51"/>
      </defs>
      <g transform="translate(92.866463 265.554375)scale(0.1 -0.1)">
       <use xlink:href="#DejaVuSans-49"/>
       <use x="63.623047" xlink:href="#DejaVuSans-51"/>
      </g>
     </g>
    </g>
    <g id="xtick_3">
     <g id="line2d_5">
      <path clip-path="url(#p3dc8dc6ac3)" d="M 135.589176 239.758125 
L 135.589176 22.318125 
" style="fill:none;stroke:#b0b0b0;stroke-linecap:square;stroke-opacity:0.8;stroke-width:0.8;"/>
     </g>
     <g id="line2d_6">
      <g>
       <use style="stroke:#000000;stroke-width:0.8;" x="135.589176" xlink:href="#mbd9be7796a" y="239.758125"/>
      </g>
     </g>
     <g id="text_3">
      <!-- Mar. -->
      <g transform="translate(124.573551 254.356562)scale(0.1 -0.1)">
       <use xlink:href="#DejaVuSans-77"/>
       <use x="86.279297" xlink:href="#DejaVuSans-97"/>
       <use x="147.558594" xlink:href="#DejaVuSans-114"/>
       <use x="188.53125" xlink:href="#DejaVuSans-46"/>
      </g>
      <!-- 17 -->
      <defs>
       <path d="M 8.203125 72.90625 
L 55.078125 72.90625 
L 55.078125 68.703125 
L 28.609375 0 
L 18.3125 0 
L 43.21875 64.59375 
L 8.203125 64.59375 
z
" id="DejaVuSans-55"/>
      </defs>
      <g transform="translate(129.226676 265.554375)scale(0.1 -0.1)">
       <use xlink:href="#DejaVuSans-49"/>
       <use x="63.623047" xlink:href="#DejaVuSans-55"/>
      </g>
     </g>
    </g>
    <g id="xtick_4">
     <g id="line2d_7">
      <path clip-path="url(#p3dc8dc6ac3)" d="M 171.949388 239.758125 
L 171.949388 22.318125 
" style="fill:none;stroke:#b0b0b0;stroke-linecap:square;stroke-opacity:0.8;stroke-width:0.8;"/>
     </g>
     <g id="line2d_8">
      <g>
       <use style="stroke:#000000;stroke-width:0.8;" x="171.949388" xlink:href="#mbd9be7796a" y="239.758125"/>
      </g>
     </g>
     <g id="text_4">
      <!-- Mar. -->
      <g transform="translate(160.933763 254.356562)scale(0.1 -0.1)">
       <use xlink:href="#DejaVuSans-77"/>
       <use x="86.279297" xlink:href="#DejaVuSans-97"/>
       <use x="147.558594" xlink:href="#DejaVuSans-114"/>
       <use x="188.53125" xlink:href="#DejaVuSans-46"/>
      </g>
      <!-- 21 -->
      <defs>
       <path d="M 19.1875 8.296875 
L 53.609375 8.296875 
L 53.609375 0 
L 7.328125 0 
L 7.328125 8.296875 
Q 12.9375 14.109375 22.625 23.890625 
Q 32.328125 33.6875 34.8125 36.53125 
Q 39.546875 41.84375 41.421875 45.53125 
Q 43.3125 49.21875 43.3125 52.78125 
Q 43.3125 58.59375 39.234375 62.25 
Q 35.15625 65.921875 28.609375 65.921875 
Q 23.96875 65.921875 18.8125 64.3125 
Q 13.671875 62.703125 7.8125 59.421875 
L 7.8125 69.390625 
Q 13.765625 71.78125 18.9375 73 
Q 24.125 74.21875 28.421875 74.21875 
Q 39.75 74.21875 46.484375 68.546875 
Q 53.21875 62.890625 53.21875 53.421875 
Q 53.21875 48.921875 51.53125 44.890625 
Q 49.859375 40.875 45.40625 35.40625 
Q 44.1875 33.984375 37.640625 27.21875 
Q 31.109375 20.453125 19.1875 8.296875 
z
" id="DejaVuSans-50"/>
      </defs>
      <g transform="translate(165.586888 265.554375)scale(0.1 -0.1)">
       <use xlink:href="#DejaVuSans-50"/>
       <use x="63.623047" xlink:href="#DejaVuSans-49"/>
      </g>
     </g>
    </g>
    <g id="xtick_5">
     <g id="line2d_9">
      <path clip-path="url(#p3dc8dc6ac3)" d="M 208.309601 239.758125 
L 208.309601 22.318125 
" style="fill:none;stroke:#b0b0b0;stroke-linecap:square;stroke-opacity:0.8;stroke-width:0.8;"/>
     </g>
     <g id="line2d_10">
      <g>
       <use style="stroke:#000000;stroke-width:0.8;" x="208.309601" xlink:href="#mbd9be7796a" y="239.758125"/>
      </g>
     </g>
     <g id="text_5">
      <!-- Mar. -->
      <g transform="translate(197.293976 254.356562)scale(0.1 -0.1)">
       <use xlink:href="#DejaVuSans-77"/>
       <use x="86.279297" xlink:href="#DejaVuSans-97"/>
       <use x="147.558594" xlink:href="#DejaVuSans-114"/>
       <use x="188.53125" xlink:href="#DejaVuSans-46"/>
      </g>
      <!-- 25 -->
      <defs>
       <path d="M 10.796875 72.90625 
L 49.515625 72.90625 
L 49.515625 64.59375 
L 19.828125 64.59375 
L 19.828125 46.734375 
Q 21.96875 47.46875 24.109375 47.828125 
Q 26.265625 48.1875 28.421875 48.1875 
Q 40.625 48.1875 47.75 41.5 
Q 54.890625 34.8125 54.890625 23.390625 
Q 54.890625 11.625 47.5625 5.09375 
Q 40.234375 -1.421875 26.90625 -1.421875 
Q 22.3125 -1.421875 17.546875 -0.640625 
Q 12.796875 0.140625 7.71875 1.703125 
L 7.71875 11.625 
Q 12.109375 9.234375 16.796875 8.0625 
Q 21.484375 6.890625 26.703125 6.890625 
Q 35.15625 6.890625 40.078125 11.328125 
Q 45.015625 15.765625 45.015625 23.390625 
Q 45.015625 31 40.078125 35.4375 
Q 35.15625 39.890625 26.703125 39.890625 
Q 22.75 39.890625 18.8125 39.015625 
Q 14.890625 38.140625 10.796875 36.28125 
z
" id="DejaVuSans-53"/>
      </defs>
      <g transform="translate(201.947101 265.554375)scale(0.1 -0.1)">
       <use xlink:href="#DejaVuSans-50"/>
       <use x="63.623047" xlink:href="#DejaVuSans-53"/>
      </g>
     </g>
    </g>
    <g id="xtick_6">
     <g id="line2d_11">
      <path clip-path="url(#p3dc8dc6ac3)" d="M 244.669814 239.758125 
L 244.669814 22.318125 
" style="fill:none;stroke:#b0b0b0;stroke-linecap:square;stroke-opacity:0.8;stroke-width:0.8;"/>
     </g>
     <g id="line2d_12">
      <g>
       <use style="stroke:#000000;stroke-width:0.8;" x="244.669814" xlink:href="#mbd9be7796a" y="239.758125"/>
      </g>
     </g>
     <g id="text_6">
      <!-- Mar. -->
      <g transform="translate(233.654189 254.356562)scale(0.1 -0.1)">
       <use xlink:href="#DejaVuSans-77"/>
       <use x="86.279297" xlink:href="#DejaVuSans-97"/>
       <use x="147.558594" xlink:href="#DejaVuSans-114"/>
       <use x="188.53125" xlink:href="#DejaVuSans-46"/>
      </g>
      <!-- 29 -->
      <g transform="translate(238.307314 265.554375)scale(0.1 -0.1)">
       <use xlink:href="#DejaVuSans-50"/>
       <use x="63.623047" xlink:href="#DejaVuSans-57"/>
      </g>
     </g>
    </g>
    <g id="xtick_7">
     <g id="line2d_13">
      <path clip-path="url(#p3dc8dc6ac3)" d="M 271.939973 239.758125 
L 271.939973 22.318125 
" style="fill:none;stroke:#b0b0b0;stroke-linecap:square;stroke-opacity:0.8;stroke-width:0.8;"/>
     </g>
     <g id="line2d_14">
      <g>
       <use style="stroke:#000000;stroke-width:0.8;" x="271.939973" xlink:href="#mbd9be7796a" y="239.758125"/>
      </g>
     </g>
     <g id="text_7">
      <!-- Apr. -->
      <defs>
       <path d="M 34.1875 63.1875 
L 20.796875 26.90625 
L 47.609375 26.90625 
z
M 28.609375 72.90625 
L 39.796875 72.90625 
L 67.578125 0 
L 57.328125 0 
L 50.6875 18.703125 
L 17.828125 18.703125 
L 11.1875 0 
L 0.78125 0 
z
" id="DejaVuSans-65"/>
       <path d="M 18.109375 8.203125 
L 18.109375 -20.796875 
L 9.078125 -20.796875 
L 9.078125 54.6875 
L 18.109375 54.6875 
L 18.109375 46.390625 
Q 20.953125 51.265625 25.265625 53.625 
Q 29.59375 56 35.59375 56 
Q 45.5625 56 51.78125 48.09375 
Q 58.015625 40.1875 58.015625 27.296875 
Q 58.015625 14.40625 51.78125 6.484375 
Q 45.5625 -1.421875 35.59375 -1.421875 
Q 29.59375 -1.421875 25.265625 0.953125 
Q 20.953125 3.328125 18.109375 8.203125 
z
M 48.6875 27.296875 
Q 48.6875 37.203125 44.609375 42.84375 
Q 40.53125 48.484375 33.40625 48.484375 
Q 26.265625 48.484375 22.1875 42.84375 
Q 18.109375 37.203125 18.109375 27.296875 
Q 18.109375 17.390625 22.1875 11.75 
Q 26.265625 6.109375 33.40625 6.109375 
Q 40.53125 6.109375 44.609375 11.75 
Q 48.6875 17.390625 48.6875 27.296875 
z
" id="DejaVuSans-112"/>
      </defs>
      <g transform="translate(261.707942 254.356562)scale(0.1 -0.1)">
       <use xlink:href="#DejaVuSans-65"/>
       <use x="68.408203" xlink:href="#DejaVuSans-112"/>
       <use x="131.884766" xlink:href="#DejaVuSans-114"/>
       <use x="172.857422" xlink:href="#DejaVuSans-46"/>
      </g>
      <!-- 01 -->
      <g transform="translate(265.577473 265.554375)scale(0.1 -0.1)">
       <use xlink:href="#DejaVuSans-48"/>
       <use x="63.623047" xlink:href="#DejaVuSans-49"/>
      </g>
     </g>
    </g>
    <g id="xtick_8">
     <g id="line2d_15">
      <path clip-path="url(#p3dc8dc6ac3)" d="M 308.300186 239.758125 
L 308.300186 22.318125 
" style="fill:none;stroke:#b0b0b0;stroke-linecap:square;stroke-opacity:0.8;stroke-width:0.8;"/>
     </g>
     <g id="line2d_16">
      <g>
       <use style="stroke:#000000;stroke-width:0.8;" x="308.300186" xlink:href="#mbd9be7796a" y="239.758125"/>
      </g>
     </g>
     <g id="text_8">
      <!-- Apr. -->
      <g transform="translate(298.068155 254.356562)scale(0.1 -0.1)">
       <use xlink:href="#DejaVuSans-65"/>
       <use x="68.408203" xlink:href="#DejaVuSans-112"/>
       <use x="131.884766" xlink:href="#DejaVuSans-114"/>
       <use x="172.857422" xlink:href="#DejaVuSans-46"/>
      </g>
      <!-- 05 -->
      <g transform="translate(301.937686 265.554375)scale(0.1 -0.1)">
       <use xlink:href="#DejaVuSans-48"/>
       <use x="63.623047" xlink:href="#DejaVuSans-53"/>
      </g>
     </g>
    </g>
    <g id="xtick_9">
     <g id="line2d_17">
      <path clip-path="url(#p3dc8dc6ac3)" d="M 344.660399 239.758125 
L 344.660399 22.318125 
" style="fill:none;stroke:#b0b0b0;stroke-linecap:square;stroke-opacity:0.8;stroke-width:0.8;"/>
     </g>
     <g id="line2d_18">
      <g>
       <use style="stroke:#000000;stroke-width:0.8;" x="344.660399" xlink:href="#mbd9be7796a" y="239.758125"/>
      </g>
     </g>
     <g id="text_9">
      <!-- Apr. -->
      <g transform="translate(334.428368 254.356562)scale(0.1 -0.1)">
       <use xlink:href="#DejaVuSans-65"/>
       <use x="68.408203" xlink:href="#DejaVuSans-112"/>
       <use x="131.884766" xlink:href="#DejaVuSans-114"/>
       <use x="172.857422" xlink:href="#DejaVuSans-46"/>
      </g>
      <!-- 09 -->
      <g transform="translate(338.297899 265.554375)scale(0.1 -0.1)">
       <use xlink:href="#DejaVuSans-48"/>
       <use x="63.623047" xlink:href="#DejaVuSans-57"/>
      </g>
     </g>
    </g>
    <g id="xtick_10">
     <g id="line2d_19">
      <path clip-path="url(#p3dc8dc6ac3)" d="M 381.020612 239.758125 
L 381.020612 22.318125 
" style="fill:none;stroke:#b0b0b0;stroke-linecap:square;stroke-opacity:0.8;stroke-width:0.8;"/>
     </g>
     <g id="line2d_20">
      <g>
       <use style="stroke:#000000;stroke-width:0.8;" x="381.020612" xlink:href="#mbd9be7796a" y="239.758125"/>
      </g>
     </g>
     <g id="text_10">
      <!-- Apr. -->
      <g transform="translate(370.78858 254.356562)scale(0.1 -0.1)">
       <use xlink:href="#DejaVuSans-65"/>
       <use x="68.408203" xlink:href="#DejaVuSans-112"/>
       <use x="131.884766" xlink:href="#DejaVuSans-114"/>
       <use x="172.857422" xlink:href="#DejaVuSans-46"/>
      </g>
      <!-- 13 -->
      <g transform="translate(374.658112 265.554375)scale(0.1 -0.1)">
       <use xlink:href="#DejaVuSans-49"/>
       <use x="63.623047" xlink:href="#DejaVuSans-51"/>
      </g>
     </g>
    </g>
   </g>
   <g id="matplotlib.axis_2">
    <g id="ytick_1">
     <g id="line2d_21">
      <path clip-path="url(#p3dc8dc6ac3)" d="M 62.86875 239.758125 
L 397.66875 239.758125 
" style="fill:none;stroke:#b0b0b0;stroke-linecap:square;stroke-opacity:0.8;stroke-width:0.8;"/>
     </g>
     <g id="line2d_22">
      <defs>
       <path d="M 0 0 
L -3.5 0 
" id="md002a4bb3a" style="stroke:#000000;stroke-width:0.8;"/>
      </defs>
      <g>
       <use style="stroke:#000000;stroke-width:0.8;" x="62.86875" xlink:href="#md002a4bb3a" y="239.758125"/>
      </g>
     </g>
     <g id="text_11">
      <!-- 2 -->
      <g transform="translate(49.50625 243.557344)scale(0.1 -0.1)">
       <use xlink:href="#DejaVuSans-50"/>
      </g>
     </g>
    </g>
    <g id="ytick_2">
     <g id="line2d_23">
      <path clip-path="url(#p3dc8dc6ac3)" d="M 62.86875 219.784961 
L 397.66875 219.784961 
" style="fill:none;stroke:#b0b0b0;stroke-linecap:square;stroke-opacity:0.8;stroke-width:0.8;"/>
     </g>
     <g id="line2d_24">
      <g>
       <use style="stroke:#000000;stroke-width:0.8;" x="62.86875" xlink:href="#md002a4bb3a" y="219.784961"/>
      </g>
     </g>
     <g id="text_12">
      <!-- 5 -->
      <g transform="translate(49.50625 223.58418)scale(0.1 -0.1)">
       <use xlink:href="#DejaVuSans-53"/>
      </g>
     </g>
    </g>
    <g id="ytick_3">
     <g id="line2d_25">
      <path clip-path="url(#p3dc8dc6ac3)" d="M 62.86875 204.675846 
L 397.66875 204.675846 
" style="fill:none;stroke:#b0b0b0;stroke-linecap:square;stroke-opacity:0.8;stroke-width:0.8;"/>
     </g>
     <g id="line2d_26">
      <g>
       <use style="stroke:#000000;stroke-width:0.8;" x="62.86875" xlink:href="#md002a4bb3a" y="204.675846"/>
      </g>
     </g>
     <g id="text_13">
      <!-- 10 -->
      <g transform="translate(43.14375 208.475065)scale(0.1 -0.1)">
       <use xlink:href="#DejaVuSans-49"/>
       <use x="63.623047" xlink:href="#DejaVuSans-48"/>
      </g>
     </g>
    </g>
    <g id="ytick_4">
     <g id="line2d_27">
      <path clip-path="url(#p3dc8dc6ac3)" d="M 62.86875 189.566731 
L 397.66875 189.566731 
" style="fill:none;stroke:#b0b0b0;stroke-linecap:square;stroke-opacity:0.8;stroke-width:0.8;"/>
     </g>
     <g id="line2d_28">
      <g>
       <use style="stroke:#000000;stroke-width:0.8;" x="62.86875" xlink:href="#md002a4bb3a" y="189.566731"/>
      </g>
     </g>
     <g id="text_14">
      <!-- 20 -->
      <g transform="translate(43.14375 193.36595)scale(0.1 -0.1)">
       <use xlink:href="#DejaVuSans-50"/>
       <use x="63.623047" xlink:href="#DejaVuSans-48"/>
      </g>
     </g>
    </g>
    <g id="ytick_5">
     <g id="line2d_29">
      <path clip-path="url(#p3dc8dc6ac3)" d="M 62.86875 169.593567 
L 397.66875 169.593567 
" style="fill:none;stroke:#b0b0b0;stroke-linecap:square;stroke-opacity:0.8;stroke-width:0.8;"/>
     </g>
     <g id="line2d_30">
      <g>
       <use style="stroke:#000000;stroke-width:0.8;" x="62.86875" xlink:href="#md002a4bb3a" y="169.593567"/>
      </g>
     </g>
     <g id="text_15">
      <!-- 50 -->
      <g transform="translate(43.14375 173.392786)scale(0.1 -0.1)">
       <use xlink:href="#DejaVuSans-53"/>
       <use x="63.623047" xlink:href="#DejaVuSans-48"/>
      </g>
     </g>
    </g>
    <g id="ytick_6">
     <g id="line2d_31">
      <path clip-path="url(#p3dc8dc6ac3)" d="M 62.86875 154.484452 
L 397.66875 154.484452 
" style="fill:none;stroke:#b0b0b0;stroke-linecap:square;stroke-opacity:0.8;stroke-width:0.8;"/>
     </g>
     <g id="line2d_32">
      <g>
       <use style="stroke:#000000;stroke-width:0.8;" x="62.86875" xlink:href="#md002a4bb3a" y="154.484452"/>
      </g>
     </g>
     <g id="text_16">
      <!-- 100 -->
      <g transform="translate(36.78125 158.283671)scale(0.1 -0.1)">
       <use xlink:href="#DejaVuSans-49"/>
       <use x="63.623047" xlink:href="#DejaVuSans-48"/>
       <use x="127.246094" xlink:href="#DejaVuSans-48"/>
      </g>
     </g>
    </g>
    <g id="ytick_7">
     <g id="line2d_33">
      <path clip-path="url(#p3dc8dc6ac3)" d="M 62.86875 139.375337 
L 397.66875 139.375337 
" style="fill:none;stroke:#b0b0b0;stroke-linecap:square;stroke-opacity:0.8;stroke-width:0.8;"/>
     </g>
     <g id="line2d_34">
      <g>
       <use style="stroke:#000000;stroke-width:0.8;" x="62.86875" xlink:href="#md002a4bb3a" y="139.375337"/>
      </g>
     </g>
     <g id="text_17">
      <!-- 200 -->
      <g transform="translate(36.78125 143.174556)scale(0.1 -0.1)">
       <use xlink:href="#DejaVuSans-50"/>
       <use x="63.623047" xlink:href="#DejaVuSans-48"/>
       <use x="127.246094" xlink:href="#DejaVuSans-48"/>
      </g>
     </g>
    </g>
    <g id="ytick_8">
     <g id="line2d_35">
      <path clip-path="url(#p3dc8dc6ac3)" d="M 62.86875 119.402173 
L 397.66875 119.402173 
" style="fill:none;stroke:#b0b0b0;stroke-linecap:square;stroke-opacity:0.8;stroke-width:0.8;"/>
     </g>
     <g id="line2d_36">
      <g>
       <use style="stroke:#000000;stroke-width:0.8;" x="62.86875" xlink:href="#md002a4bb3a" y="119.402173"/>
      </g>
     </g>
     <g id="text_18">
      <!-- 500 -->
      <g transform="translate(36.78125 123.201392)scale(0.1 -0.1)">
       <use xlink:href="#DejaVuSans-53"/>
       <use x="63.623047" xlink:href="#DejaVuSans-48"/>
       <use x="127.246094" xlink:href="#DejaVuSans-48"/>
      </g>
     </g>
    </g>
    <g id="ytick_9">
     <g id="line2d_37">
      <path clip-path="url(#p3dc8dc6ac3)" d="M 62.86875 104.293058 
L 397.66875 104.293058 
" style="fill:none;stroke:#b0b0b0;stroke-linecap:square;stroke-opacity:0.8;stroke-width:0.8;"/>
     </g>
     <g id="line2d_38">
      <g>
       <use style="stroke:#000000;stroke-width:0.8;" x="62.86875" xlink:href="#md002a4bb3a" y="104.293058"/>
      </g>
     </g>
     <g id="text_19">
      <!-- 1,000 -->
      <defs>
       <path d="M 11.71875 12.40625 
L 22.015625 12.40625 
L 22.015625 4 
L 14.015625 -11.625 
L 7.71875 -11.625 
L 11.71875 4 
z
" id="DejaVuSans-44"/>
      </defs>
      <g transform="translate(27.240625 108.092277)scale(0.1 -0.1)">
       <use xlink:href="#DejaVuSans-49"/>
       <use x="63.623047" xlink:href="#DejaVuSans-44"/>
       <use x="95.410156" xlink:href="#DejaVuSans-48"/>
       <use x="159.033203" xlink:href="#DejaVuSans-48"/>
       <use x="222.65625" xlink:href="#DejaVuSans-48"/>
      </g>
     </g>
    </g>
    <g id="ytick_10">
     <g id="line2d_39">
      <path clip-path="url(#p3dc8dc6ac3)" d="M 62.86875 89.183943 
L 397.66875 89.183943 
" style="fill:none;stroke:#b0b0b0;stroke-linecap:square;stroke-opacity:0.8;stroke-width:0.8;"/>
     </g>
     <g id="line2d_40">
      <g>
       <use style="stroke:#000000;stroke-width:0.8;" x="62.86875" xlink:href="#md002a4bb3a" y="89.183943"/>
      </g>
     </g>
     <g id="text_20">
      <!-- 2,000 -->
      <g transform="translate(27.240625 92.983162)scale(0.1 -0.1)">
       <use xlink:href="#DejaVuSans-50"/>
       <use x="63.623047" xlink:href="#DejaVuSans-44"/>
       <use x="95.410156" xlink:href="#DejaVuSans-48"/>
       <use x="159.033203" xlink:href="#DejaVuSans-48"/>
       <use x="222.65625" xlink:href="#DejaVuSans-48"/>
      </g>
     </g>
    </g>
    <g id="ytick_11">
     <g id="line2d_41">
      <path clip-path="url(#p3dc8dc6ac3)" d="M 62.86875 69.210779 
L 397.66875 69.210779 
" style="fill:none;stroke:#b0b0b0;stroke-linecap:square;stroke-opacity:0.8;stroke-width:0.8;"/>
     </g>
     <g id="line2d_42">
      <g>
       <use style="stroke:#000000;stroke-width:0.8;" x="62.86875" xlink:href="#md002a4bb3a" y="69.210779"/>
      </g>
     </g>
     <g id="text_21">
      <!-- 5,000 -->
      <g transform="translate(27.240625 73.009998)scale(0.1 -0.1)">
       <use xlink:href="#DejaVuSans-53"/>
       <use x="63.623047" xlink:href="#DejaVuSans-44"/>
       <use x="95.410156" xlink:href="#DejaVuSans-48"/>
       <use x="159.033203" xlink:href="#DejaVuSans-48"/>
       <use x="222.65625" xlink:href="#DejaVuSans-48"/>
      </g>
     </g>
    </g>
    <g id="ytick_12">
     <g id="line2d_43">
      <path clip-path="url(#p3dc8dc6ac3)" d="M 62.86875 54.101664 
L 397.66875 54.101664 
" style="fill:none;stroke:#b0b0b0;stroke-linecap:square;stroke-opacity:0.8;stroke-width:0.8;"/>
     </g>
     <g id="line2d_44">
      <g>
       <use style="stroke:#000000;stroke-width:0.8;" x="62.86875" xlink:href="#md002a4bb3a" y="54.101664"/>
      </g>
     </g>
     <g id="text_22">
      <!-- 10,000 -->
      <g transform="translate(20.878125 57.900883)scale(0.1 -0.1)">
       <use xlink:href="#DejaVuSans-49"/>
       <use x="63.623047" xlink:href="#DejaVuSans-48"/>
       <use x="127.246094" xlink:href="#DejaVuSans-44"/>
       <use x="159.033203" xlink:href="#DejaVuSans-48"/>
       <use x="222.65625" xlink:href="#DejaVuSans-48"/>
       <use x="286.279297" xlink:href="#DejaVuSans-48"/>
      </g>
     </g>
    </g>
    <g id="ytick_13">
     <g id="line2d_45">
      <defs>
       <path d="M 0 0 
L -2 0 
" id="m223a3b8817" style="stroke:#000000;stroke-width:0.6;"/>
      </defs>
      <g>
       <use style="stroke:#000000;stroke-width:0.6;" x="62.86875" xlink:href="#m223a3b8817" y="230.919859"/>
      </g>
     </g>
    </g>
    <g id="ytick_14">
     <g id="line2d_46">
      <g>
       <use style="stroke:#000000;stroke-width:0.6;" x="62.86875" xlink:href="#m223a3b8817" y="224.64901"/>
      </g>
     </g>
    </g>
    <g id="ytick_15">
     <g id="line2d_47">
      <g>
       <use style="stroke:#000000;stroke-width:0.6;" x="62.86875" xlink:href="#m223a3b8817" y="215.810744"/>
      </g>
     </g>
    </g>
    <g id="ytick_16">
     <g id="line2d_48">
      <g>
       <use style="stroke:#000000;stroke-width:0.6;" x="62.86875" xlink:href="#m223a3b8817" y="212.450591"/>
      </g>
     </g>
    </g>
    <g id="ytick_17">
     <g id="line2d_49">
      <g>
       <use style="stroke:#000000;stroke-width:0.6;" x="62.86875" xlink:href="#m223a3b8817" y="209.539895"/>
      </g>
     </g>
    </g>
    <g id="ytick_18">
     <g id="line2d_50">
      <g>
       <use style="stroke:#000000;stroke-width:0.6;" x="62.86875" xlink:href="#m223a3b8817" y="206.972478"/>
      </g>
     </g>
    </g>
    <g id="ytick_19">
     <g id="line2d_51">
      <g>
       <use style="stroke:#000000;stroke-width:0.6;" x="62.86875" xlink:href="#m223a3b8817" y="180.728465"/>
      </g>
     </g>
    </g>
    <g id="ytick_20">
     <g id="line2d_52">
      <g>
       <use style="stroke:#000000;stroke-width:0.6;" x="62.86875" xlink:href="#m223a3b8817" y="174.457616"/>
      </g>
     </g>
    </g>
    <g id="ytick_21">
     <g id="line2d_53">
      <g>
       <use style="stroke:#000000;stroke-width:0.6;" x="62.86875" xlink:href="#m223a3b8817" y="165.61935"/>
      </g>
     </g>
    </g>
    <g id="ytick_22">
     <g id="line2d_54">
      <g>
       <use style="stroke:#000000;stroke-width:0.6;" x="62.86875" xlink:href="#m223a3b8817" y="162.259197"/>
      </g>
     </g>
    </g>
    <g id="ytick_23">
     <g id="line2d_55">
      <g>
       <use style="stroke:#000000;stroke-width:0.6;" x="62.86875" xlink:href="#m223a3b8817" y="159.348501"/>
      </g>
     </g>
    </g>
    <g id="ytick_24">
     <g id="line2d_56">
      <g>
       <use style="stroke:#000000;stroke-width:0.6;" x="62.86875" xlink:href="#m223a3b8817" y="156.781084"/>
      </g>
     </g>
    </g>
    <g id="ytick_25">
     <g id="line2d_57">
      <g>
       <use style="stroke:#000000;stroke-width:0.6;" x="62.86875" xlink:href="#m223a3b8817" y="130.537071"/>
      </g>
     </g>
    </g>
    <g id="ytick_26">
     <g id="line2d_58">
      <g>
       <use style="stroke:#000000;stroke-width:0.6;" x="62.86875" xlink:href="#m223a3b8817" y="124.266222"/>
      </g>
     </g>
    </g>
    <g id="ytick_27">
     <g id="line2d_59">
      <g>
       <use style="stroke:#000000;stroke-width:0.6;" x="62.86875" xlink:href="#m223a3b8817" y="115.427956"/>
      </g>
     </g>
    </g>
    <g id="ytick_28">
     <g id="line2d_60">
      <g>
       <use style="stroke:#000000;stroke-width:0.6;" x="62.86875" xlink:href="#m223a3b8817" y="112.067803"/>
      </g>
     </g>
    </g>
    <g id="ytick_29">
     <g id="line2d_61">
      <g>
       <use style="stroke:#000000;stroke-width:0.6;" x="62.86875" xlink:href="#m223a3b8817" y="109.157107"/>
      </g>
     </g>
    </g>
    <g id="ytick_30">
     <g id="line2d_62">
      <g>
       <use style="stroke:#000000;stroke-width:0.6;" x="62.86875" xlink:href="#m223a3b8817" y="106.58969"/>
      </g>
     </g>
    </g>
    <g id="ytick_31">
     <g id="line2d_63">
      <g>
       <use style="stroke:#000000;stroke-width:0.6;" x="62.86875" xlink:href="#m223a3b8817" y="80.345677"/>
      </g>
     </g>
    </g>
    <g id="ytick_32">
     <g id="line2d_64">
      <g>
       <use style="stroke:#000000;stroke-width:0.6;" x="62.86875" xlink:href="#m223a3b8817" y="74.074828"/>
      </g>
     </g>
    </g>
    <g id="ytick_33">
     <g id="line2d_65">
      <g>
       <use style="stroke:#000000;stroke-width:0.6;" x="62.86875" xlink:href="#m223a3b8817" y="65.236562"/>
      </g>
     </g>
    </g>
    <g id="ytick_34">
     <g id="line2d_66">
      <g>
       <use style="stroke:#000000;stroke-width:0.6;" x="62.86875" xlink:href="#m223a3b8817" y="61.876409"/>
      </g>
     </g>
    </g>
    <g id="ytick_35">
     <g id="line2d_67">
      <g>
       <use style="stroke:#000000;stroke-width:0.6;" x="62.86875" xlink:href="#m223a3b8817" y="58.965713"/>
      </g>
     </g>
    </g>
    <g id="ytick_36">
     <g id="line2d_68">
      <g>
       <use style="stroke:#000000;stroke-width:0.6;" x="62.86875" xlink:href="#m223a3b8817" y="56.398296"/>
      </g>
     </g>
    </g>
    <g id="ytick_37">
     <g id="line2d_69">
      <g>
       <use style="stroke:#000000;stroke-width:0.6;" x="62.86875" xlink:href="#m223a3b8817" y="38.992549"/>
      </g>
     </g>
    </g>
    <g id="ytick_38">
     <g id="line2d_70">
      <g>
       <use style="stroke:#000000;stroke-width:0.6;" x="62.86875" xlink:href="#m223a3b8817" y="30.154283"/>
      </g>
     </g>
    </g>
    <g id="ytick_39">
     <g id="line2d_71">
      <g>
       <use style="stroke:#000000;stroke-width:0.6;" x="62.86875" xlink:href="#m223a3b8817" y="23.883434"/>
      </g>
     </g>
    </g>
    <g id="text_23">
     <!-- Total cases per million -->
     <defs>
      <path d="M -0.296875 72.90625 
L 61.375 72.90625 
L 61.375 64.59375 
L 35.5 64.59375 
L 35.5 0 
L 25.59375 0 
L 25.59375 64.59375 
L -0.296875 64.59375 
z
" id="DejaVuSans-84"/>
      <path d="M 30.609375 48.390625 
Q 23.390625 48.390625 19.1875 42.75 
Q 14.984375 37.109375 14.984375 27.296875 
Q 14.984375 17.484375 19.15625 11.84375 
Q 23.34375 6.203125 30.609375 6.203125 
Q 37.796875 6.203125 41.984375 11.859375 
Q 46.1875 17.53125 46.1875 27.296875 
Q 46.1875 37.015625 41.984375 42.703125 
Q 37.796875 48.390625 30.609375 48.390625 
z
M 30.609375 56 
Q 42.328125 56 49.015625 48.375 
Q 55.71875 40.765625 55.71875 27.296875 
Q 55.71875 13.875 49.015625 6.21875 
Q 42.328125 -1.421875 30.609375 -1.421875 
Q 18.84375 -1.421875 12.171875 6.21875 
Q 5.515625 13.875 5.515625 27.296875 
Q 5.515625 40.765625 12.171875 48.375 
Q 18.84375 56 30.609375 56 
z
" id="DejaVuSans-111"/>
      <path d="M 18.3125 70.21875 
L 18.3125 54.6875 
L 36.8125 54.6875 
L 36.8125 47.703125 
L 18.3125 47.703125 
L 18.3125 18.015625 
Q 18.3125 11.328125 20.140625 9.421875 
Q 21.96875 7.515625 27.59375 7.515625 
L 36.8125 7.515625 
L 36.8125 0 
L 27.59375 0 
Q 17.1875 0 13.234375 3.875 
Q 9.28125 7.765625 9.28125 18.015625 
L 9.28125 47.703125 
L 2.6875 47.703125 
L 2.6875 54.6875 
L 9.28125 54.6875 
L 9.28125 70.21875 
z
" id="DejaVuSans-116"/>
      <path d="M 9.421875 75.984375 
L 18.40625 75.984375 
L 18.40625 0 
L 9.421875 0 
z
" id="DejaVuSans-108"/>
      <path id="DejaVuSans-32"/>
      <path d="M 48.78125 52.59375 
L 48.78125 44.1875 
Q 44.96875 46.296875 41.140625 47.34375 
Q 37.3125 48.390625 33.40625 48.390625 
Q 24.65625 48.390625 19.8125 42.84375 
Q 14.984375 37.3125 14.984375 27.296875 
Q 14.984375 17.28125 19.8125 11.734375 
Q 24.65625 6.203125 33.40625 6.203125 
Q 37.3125 6.203125 41.140625 7.25 
Q 44.96875 8.296875 48.78125 10.40625 
L 48.78125 2.09375 
Q 45.015625 0.34375 40.984375 -0.53125 
Q 36.96875 -1.421875 32.421875 -1.421875 
Q 20.0625 -1.421875 12.78125 6.34375 
Q 5.515625 14.109375 5.515625 27.296875 
Q 5.515625 40.671875 12.859375 48.328125 
Q 20.21875 56 33.015625 56 
Q 37.15625 56 41.109375 55.140625 
Q 45.0625 54.296875 48.78125 52.59375 
z
" id="DejaVuSans-99"/>
      <path d="M 44.28125 53.078125 
L 44.28125 44.578125 
Q 40.484375 46.53125 36.375 47.5 
Q 32.28125 48.484375 27.875 48.484375 
Q 21.1875 48.484375 17.84375 46.4375 
Q 14.5 44.390625 14.5 40.28125 
Q 14.5 37.15625 16.890625 35.375 
Q 19.28125 33.59375 26.515625 31.984375 
L 29.59375 31.296875 
Q 39.15625 29.25 43.1875 25.515625 
Q 47.21875 21.78125 47.21875 15.09375 
Q 47.21875 7.46875 41.1875 3.015625 
Q 35.15625 -1.421875 24.609375 -1.421875 
Q 20.21875 -1.421875 15.453125 -0.5625 
Q 10.6875 0.296875 5.421875 2 
L 5.421875 11.28125 
Q 10.40625 8.6875 15.234375 7.390625 
Q 20.0625 6.109375 24.8125 6.109375 
Q 31.15625 6.109375 34.5625 8.28125 
Q 37.984375 10.453125 37.984375 14.40625 
Q 37.984375 18.0625 35.515625 20.015625 
Q 33.0625 21.96875 24.703125 23.78125 
L 21.578125 24.515625 
Q 13.234375 26.265625 9.515625 29.90625 
Q 5.8125 33.546875 5.8125 39.890625 
Q 5.8125 47.609375 11.28125 51.796875 
Q 16.75 56 26.8125 56 
Q 31.78125 56 36.171875 55.265625 
Q 40.578125 54.546875 44.28125 53.078125 
z
" id="DejaVuSans-115"/>
      <path d="M 56.203125 29.59375 
L 56.203125 25.203125 
L 14.890625 25.203125 
Q 15.484375 15.921875 20.484375 11.0625 
Q 25.484375 6.203125 34.421875 6.203125 
Q 39.59375 6.203125 44.453125 7.46875 
Q 49.3125 8.734375 54.109375 11.28125 
L 54.109375 2.78125 
Q 49.265625 0.734375 44.1875 -0.34375 
Q 39.109375 -1.421875 33.890625 -1.421875 
Q 20.796875 -1.421875 13.15625 6.1875 
Q 5.515625 13.8125 5.515625 26.8125 
Q 5.515625 40.234375 12.765625 48.109375 
Q 20.015625 56 32.328125 56 
Q 43.359375 56 49.78125 48.890625 
Q 56.203125 41.796875 56.203125 29.59375 
z
M 47.21875 32.234375 
Q 47.125 39.59375 43.09375 43.984375 
Q 39.0625 48.390625 32.421875 48.390625 
Q 24.90625 48.390625 20.390625 44.140625 
Q 15.875 39.890625 15.1875 32.171875 
z
" id="DejaVuSans-101"/>
      <path d="M 52 44.1875 
Q 55.375 50.25 60.0625 53.125 
Q 64.75 56 71.09375 56 
Q 79.640625 56 84.28125 50.015625 
Q 88.921875 44.046875 88.921875 33.015625 
L 88.921875 0 
L 79.890625 0 
L 79.890625 32.71875 
Q 79.890625 40.578125 77.09375 44.375 
Q 74.3125 48.1875 68.609375 48.1875 
Q 61.625 48.1875 57.5625 43.546875 
Q 53.515625 38.921875 53.515625 30.90625 
L 53.515625 0 
L 44.484375 0 
L 44.484375 32.71875 
Q 44.484375 40.625 41.703125 44.40625 
Q 38.921875 48.1875 33.109375 48.1875 
Q 26.21875 48.1875 22.15625 43.53125 
Q 18.109375 38.875 18.109375 30.90625 
L 18.109375 0 
L 9.078125 0 
L 9.078125 54.6875 
L 18.109375 54.6875 
L 18.109375 46.1875 
Q 21.1875 51.21875 25.484375 53.609375 
Q 29.78125 56 35.6875 56 
Q 41.65625 56 45.828125 52.96875 
Q 50 49.953125 52 44.1875 
z
" id="DejaVuSans-109"/>
      <path d="M 9.421875 54.6875 
L 18.40625 54.6875 
L 18.40625 0 
L 9.421875 0 
z
M 9.421875 75.984375 
L 18.40625 75.984375 
L 18.40625 64.59375 
L 9.421875 64.59375 
z
" id="DejaVuSans-105"/>
      <path d="M 54.890625 33.015625 
L 54.890625 0 
L 45.90625 0 
L 45.90625 32.71875 
Q 45.90625 40.484375 42.875 44.328125 
Q 39.84375 48.1875 33.796875 48.1875 
Q 26.515625 48.1875 22.3125 43.546875 
Q 18.109375 38.921875 18.109375 30.90625 
L 18.109375 0 
L 9.078125 0 
L 9.078125 54.6875 
L 18.109375 54.6875 
L 18.109375 46.1875 
Q 21.34375 51.125 25.703125 53.5625 
Q 30.078125 56 35.796875 56 
Q 45.21875 56 50.046875 50.171875 
Q 54.890625 44.34375 54.890625 33.015625 
z
" id="DejaVuSans-110"/>
     </defs>
     <g transform="translate(14.798438 187.37875)rotate(-90)scale(0.1 -0.1)">
      <use xlink:href="#DejaVuSans-84"/>
      <use x="60.818359" xlink:href="#DejaVuSans-111"/>
      <use x="122" xlink:href="#DejaVuSans-116"/>
      <use x="161.208984" xlink:href="#DejaVuSans-97"/>
      <use x="222.488281" xlink:href="#DejaVuSans-108"/>
      <use x="250.271484" xlink:href="#DejaVuSans-32"/>
      <use x="282.058594" xlink:href="#DejaVuSans-99"/>
      <use x="337.039062" xlink:href="#DejaVuSans-97"/>
      <use x="398.318359" xlink:href="#DejaVuSans-115"/>
      <use x="450.417969" xlink:href="#DejaVuSans-101"/>
      <use x="511.941406" xlink:href="#DejaVuSans-115"/>
      <use x="564.041016" xlink:href="#DejaVuSans-32"/>
      <use x="595.828125" xlink:href="#DejaVuSans-112"/>
      <use x="659.304688" xlink:href="#DejaVuSans-101"/>
      <use x="720.828125" xlink:href="#DejaVuSans-114"/>
      <use x="761.941406" xlink:href="#DejaVuSans-32"/>
      <use x="793.728516" xlink:href="#DejaVuSans-109"/>
      <use x="891.140625" xlink:href="#DejaVuSans-105"/>
      <use x="918.923828" xlink:href="#DejaVuSans-108"/>
      <use x="946.707031" xlink:href="#DejaVuSans-108"/>
      <use x="974.490234" xlink:href="#DejaVuSans-105"/>
      <use x="1002.273438" xlink:href="#DejaVuSans-111"/>
      <use x="1063.455078" xlink:href="#DejaVuSans-110"/>
     </g>
    </g>
   </g>
   <g id="line2d_72">
    <path clip-path="url(#p3dc8dc6ac3)" d="M 317.390239 62.770398 
L 326.480293 61.321506 
L 335.570346 59.872613 
L 344.660399 58.423721 
L 353.750452 56.974828 
" style="fill:none;stroke:#7f7f7f;stroke-dasharray:7.4,3.2;stroke-dashoffset:0;stroke-width:2;"/>
   </g>
   <g id="line2d_73">
    <path clip-path="url(#p3dc8dc6ac3)" d="M 317.390239 70.904936 
L 326.480293 69.35702 
L 335.570346 67.809104 
L 344.660399 66.261189 
L 353.750452 64.713273 
" style="fill:none;stroke:#7f7f7f;stroke-dasharray:7.4,3.2;stroke-dashoffset:0;stroke-width:2;"/>
   </g>
   <g id="line2d_74">
    <path clip-path="url(#p3dc8dc6ac3)" d="M 317.390239 106.635423 
L 326.480293 105.381611 
L 335.570346 104.127799 
L 344.660399 102.873987 
L 353.750452 101.620175 
" style="fill:none;stroke:#7f7f7f;stroke-dasharray:7.4,3.2;stroke-dashoffset:0;stroke-width:2;"/>
   </g>
   <g id="line2d_75">
    <path clip-path="url(#p3dc8dc6ac3)" d="M 317.390239 114.219888 
L 326.480293 112.712925 
L 335.570346 111.205962 
L 344.660399 109.698999 
L 353.750452 108.192035 
" style="fill:none;stroke:#7f7f7f;stroke-dasharray:7.4,3.2;stroke-dashoffset:0;stroke-width:2;"/>
   </g>
   <g id="line2d_76">
    <path clip-path="url(#p3dc8dc6ac3)" d="M 317.390239 130.549073 
L 326.480293 128.459877 
L 335.570346 126.370681 
L 344.660399 124.281485 
L 353.750452 122.19229 
" style="fill:none;stroke:#7f7f7f;stroke-dasharray:7.4,3.2;stroke-dashoffset:0;stroke-width:2;"/>
   </g>
   <g id="patch_3">
    <path d="M 62.86875 239.758125 
L 62.86875 22.318125 
" style="fill:none;stroke:#000000;stroke-linecap:square;stroke-linejoin:miter;stroke-width:0.8;"/>
   </g>
   <g id="patch_4">
    <path d="M 397.66875 239.758125 
L 397.66875 22.318125 
" style="fill:none;stroke:#000000;stroke-linecap:square;stroke-linejoin:miter;stroke-width:0.8;"/>
   </g>
   <g id="patch_5">
    <path d="M 62.86875 239.758125 
L 397.66875 239.758125 
" style="fill:none;stroke:#000000;stroke-linecap:square;stroke-linejoin:miter;stroke-width:0.8;"/>
   </g>
   <g id="patch_6">
    <path d="M 62.86875 22.318125 
L 397.66875 22.318125 
" style="fill:none;stroke:#000000;stroke-linecap:square;stroke-linejoin:miter;stroke-width:0.8;"/>
   </g>
   <g id="text_24">
    <!-- © Scott Sievert -->
    <defs>
     <path d="M 50 72.515625 
Q 57.421875 72.515625 63.84375 69.828125 
Q 70.265625 67.140625 75.59375 61.8125 
Q 80.90625 56.5 83.546875 50.09375 
Q 86.1875 43.703125 86.1875 36.1875 
Q 86.1875 28.765625 83.546875 22.390625 
Q 80.90625 16.015625 75.59375 10.6875 
Q 70.265625 5.375 63.84375 2.6875 
Q 57.421875 0 50 0 
Q 42.578125 0 36.15625 2.6875 
Q 29.734375 5.375 24.421875 10.6875 
Q 19.09375 16.015625 16.453125 22.390625 
Q 13.8125 28.765625 13.8125 36.1875 
Q 13.8125 43.703125 16.453125 50.09375 
Q 19.09375 56.5 24.421875 61.8125 
Q 29.734375 67.140625 36.15625 69.828125 
Q 42.578125 72.515625 50 72.515625 
z
M 50 67.484375 
Q 43.609375 67.484375 38.078125 65.1875 
Q 32.5625 62.890625 27.984375 58.296875 
Q 23.390625 53.71875 21.046875 48.125 
Q 18.703125 42.53125 18.703125 36.1875 
Q 18.703125 29.890625 21.046875 24.34375 
Q 23.390625 18.796875 27.984375 14.203125 
Q 32.5625 9.625 38.078125 7.296875 
Q 43.609375 4.984375 50 4.984375 
Q 56.453125 4.984375 61.984375 7.296875 
Q 67.53125 9.625 72.125 14.203125 
Q 76.65625 18.75 78.921875 24.265625 
Q 81.203125 29.78125 81.203125 36.1875 
Q 81.203125 42.671875 78.90625 48.21875 
Q 76.609375 53.765625 72.125 58.296875 
Q 67.53125 62.890625 61.984375 65.1875 
Q 56.453125 67.484375 50 67.484375 
z
M 64.59375 55.515625 
L 64.59375 49.21875 
Q 61.375 50.828125 58.203125 51.609375 
Q 55.03125 52.390625 51.8125 52.390625 
Q 44.53125 52.390625 40.453125 48.109375 
Q 36.375 43.84375 36.375 36.1875 
Q 36.375 28.421875 40.546875 24.171875 
Q 44.734375 19.921875 52.296875 19.921875 
Q 55.421875 19.921875 58.390625 20.671875 
Q 61.375 21.4375 64.59375 23.09375 
L 64.59375 16.890625 
Q 61.328125 15.484375 57.984375 14.796875 
Q 54.640625 14.109375 51.21875 14.109375 
Q 40.671875 14.109375 34.546875 20.0625 
Q 28.421875 26.03125 28.421875 36.1875 
Q 28.421875 46.390625 34.546875 52.296875 
Q 40.671875 58.203125 51.21875 58.203125 
Q 54.78125 58.203125 58.09375 57.515625 
Q 61.421875 56.84375 64.59375 55.515625 
z
" id="DejaVuSans-169"/>
     <path d="M 53.515625 70.515625 
L 53.515625 60.890625 
Q 47.90625 63.578125 42.921875 64.890625 
Q 37.9375 66.21875 33.296875 66.21875 
Q 25.25 66.21875 20.875 63.09375 
Q 16.5 59.96875 16.5 54.203125 
Q 16.5 49.359375 19.40625 46.890625 
Q 22.3125 44.4375 30.421875 42.921875 
L 36.375 41.703125 
Q 47.40625 39.59375 52.65625 34.296875 
Q 57.90625 29 57.90625 20.125 
Q 57.90625 9.515625 50.796875 4.046875 
Q 43.703125 -1.421875 29.984375 -1.421875 
Q 24.8125 -1.421875 18.96875 -0.25 
Q 13.140625 0.921875 6.890625 3.21875 
L 6.890625 13.375 
Q 12.890625 10.015625 18.65625 8.296875 
Q 24.421875 6.59375 29.984375 6.59375 
Q 38.421875 6.59375 43.015625 9.90625 
Q 47.609375 13.234375 47.609375 19.390625 
Q 47.609375 24.75 44.3125 27.78125 
Q 41.015625 30.8125 33.5 32.328125 
L 27.484375 33.5 
Q 16.453125 35.6875 11.515625 40.375 
Q 6.59375 45.0625 6.59375 53.421875 
Q 6.59375 63.09375 13.40625 68.65625 
Q 20.21875 74.21875 32.171875 74.21875 
Q 37.3125 74.21875 42.625 73.28125 
Q 47.953125 72.359375 53.515625 70.515625 
z
" id="DejaVuSans-83"/>
     <path d="M 2.984375 54.6875 
L 12.5 54.6875 
L 29.59375 8.796875 
L 46.6875 54.6875 
L 56.203125 54.6875 
L 35.6875 0 
L 23.484375 0 
z
" id="DejaVuSans-118"/>
    </defs>
    <g style="opacity:0.3;" transform="translate(334.038378 274.840404)scale(0.1 -0.1)">
     <use xlink:href="#DejaVuSans-169"/>
     <use x="100" xlink:href="#DejaVuSans-32"/>
     <use x="131.787109" xlink:href="#DejaVuSans-83"/>
     <use x="195.263672" xlink:href="#DejaVuSans-99"/>
     <use x="250.244141" xlink:href="#DejaVuSans-111"/>
     <use x="311.425781" xlink:href="#DejaVuSans-116"/>
     <use x="350.634766" xlink:href="#DejaVuSans-116"/>
     <use x="389.84375" xlink:href="#DejaVuSans-32"/>
     <use x="421.630859" xlink:href="#DejaVuSans-83"/>
     <use x="485.107422" xlink:href="#DejaVuSans-105"/>
     <use x="512.890625" xlink:href="#DejaVuSans-101"/>
     <use x="574.414062" xlink:href="#DejaVuSans-118"/>
     <use x="633.59375" xlink:href="#DejaVuSans-101"/>
     <use x="695.117188" xlink:href="#DejaVuSans-114"/>
     <use x="736.230469" xlink:href="#DejaVuSans-116"/>
    </g>
   </g>
   <g id="text_25">
    <!-- State infection rates -->
    <defs>
     <path d="M 37.109375 75.984375 
L 37.109375 68.5 
L 28.515625 68.5 
Q 23.6875 68.5 21.796875 66.546875 
Q 19.921875 64.59375 19.921875 59.515625 
L 19.921875 54.6875 
L 34.71875 54.6875 
L 34.71875 47.703125 
L 19.921875 47.703125 
L 19.921875 0 
L 10.890625 0 
L 10.890625 47.703125 
L 2.296875 47.703125 
L 2.296875 54.6875 
L 10.890625 54.6875 
L 10.890625 58.5 
Q 10.890625 67.625 15.140625 71.796875 
Q 19.390625 75.984375 28.609375 75.984375 
z
" id="DejaVuSans-102"/>
    </defs>
    <g transform="translate(169.194375 16.318125)scale(0.12 -0.12)">
     <use xlink:href="#DejaVuSans-83"/>
     <use x="63.476562" xlink:href="#DejaVuSans-116"/>
     <use x="102.685547" xlink:href="#DejaVuSans-97"/>
     <use x="163.964844" xlink:href="#DejaVuSans-116"/>
     <use x="203.173828" xlink:href="#DejaVuSans-101"/>
     <use x="264.697266" xlink:href="#DejaVuSans-32"/>
     <use x="296.484375" xlink:href="#DejaVuSans-105"/>
     <use x="324.267578" xlink:href="#DejaVuSans-110"/>
     <use x="387.646484" xlink:href="#DejaVuSans-102"/>
     <use x="422.851562" xlink:href="#DejaVuSans-101"/>
     <use x="484.375" xlink:href="#DejaVuSans-99"/>
     <use x="539.355469" xlink:href="#DejaVuSans-116"/>
     <use x="578.564453" xlink:href="#DejaVuSans-105"/>
     <use x="606.347656" xlink:href="#DejaVuSans-111"/>
     <use x="667.529297" xlink:href="#DejaVuSans-110"/>
     <use x="730.908203" xlink:href="#DejaVuSans-32"/>
     <use x="762.695312" xlink:href="#DejaVuSans-114"/>
     <use x="803.808594" xlink:href="#DejaVuSans-97"/>
     <use x="865.087891" xlink:href="#DejaVuSans-116"/>
     <use x="904.296875" xlink:href="#DejaVuSans-101"/>
     <use x="965.820312" xlink:href="#DejaVuSans-115"/>
    </g>
   </g>
   <g id="legend_1">
    <g id="patch_7">
     <path d="M 272.401563 234.758125 
L 390.66875 234.758125 
Q 392.66875 234.758125 392.66875 232.758125 
L 392.66875 145.6675 
Q 392.66875 143.6675 390.66875 143.6675 
L 272.401563 143.6675 
Q 270.401563 143.6675 270.401563 145.6675 
L 270.401563 232.758125 
Q 270.401563 234.758125 272.401563 234.758125 
z
" style="fill:#ffffff;opacity:0.8;stroke:#cccccc;stroke-linejoin:miter;"/>
    </g>
    <g id="text_26">
     <!-- State (cases in 7 days) -->
     <defs>
      <path d="M 31 75.875 
Q 24.46875 64.65625 21.28125 53.65625 
Q 18.109375 42.671875 18.109375 31.390625 
Q 18.109375 20.125 21.3125 9.0625 
Q 24.515625 -2 31 -13.1875 
L 23.1875 -13.1875 
Q 15.875 -1.703125 12.234375 9.375 
Q 8.59375 20.453125 8.59375 31.390625 
Q 8.59375 42.28125 12.203125 53.3125 
Q 15.828125 64.359375 23.1875 75.875 
z
" id="DejaVuSans-40"/>
      <path d="M 45.40625 46.390625 
L 45.40625 75.984375 
L 54.390625 75.984375 
L 54.390625 0 
L 45.40625 0 
L 45.40625 8.203125 
Q 42.578125 3.328125 38.25 0.953125 
Q 33.9375 -1.421875 27.875 -1.421875 
Q 17.96875 -1.421875 11.734375 6.484375 
Q 5.515625 14.40625 5.515625 27.296875 
Q 5.515625 40.1875 11.734375 48.09375 
Q 17.96875 56 27.875 56 
Q 33.9375 56 38.25 53.625 
Q 42.578125 51.265625 45.40625 46.390625 
z
M 14.796875 27.296875 
Q 14.796875 17.390625 18.875 11.75 
Q 22.953125 6.109375 30.078125 6.109375 
Q 37.203125 6.109375 41.296875 11.75 
Q 45.40625 17.390625 45.40625 27.296875 
Q 45.40625 37.203125 41.296875 42.84375 
Q 37.203125 48.484375 30.078125 48.484375 
Q 22.953125 48.484375 18.875 42.84375 
Q 14.796875 37.203125 14.796875 27.296875 
z
" id="DejaVuSans-100"/>
      <path d="M 32.171875 -5.078125 
Q 28.375 -14.84375 24.75 -17.8125 
Q 21.140625 -20.796875 15.09375 -20.796875 
L 7.90625 -20.796875 
L 7.90625 -13.28125 
L 13.1875 -13.28125 
Q 16.890625 -13.28125 18.9375 -11.515625 
Q 21 -9.765625 23.484375 -3.21875 
L 25.09375 0.875 
L 2.984375 54.6875 
L 12.5 54.6875 
L 29.59375 11.921875 
L 46.6875 54.6875 
L 56.203125 54.6875 
z
" id="DejaVuSans-121"/>
      <path d="M 8.015625 75.875 
L 15.828125 75.875 
Q 23.140625 64.359375 26.78125 53.3125 
Q 30.421875 42.28125 30.421875 31.390625 
Q 30.421875 20.453125 26.78125 9.375 
Q 23.140625 -1.703125 15.828125 -13.1875 
L 8.015625 -13.1875 
Q 14.5 -2 17.703125 9.0625 
Q 20.90625 20.125 20.90625 31.390625 
Q 20.90625 42.671875 17.703125 53.65625 
Q 14.5 64.65625 8.015625 75.875 
z
" id="DejaVuSans-41"/>
     </defs>
     <g transform="translate(274.401563 155.265938)scale(0.1 -0.1)">
      <use xlink:href="#DejaVuSans-83"/>
      <use x="63.476562" xlink:href="#DejaVuSans-116"/>
      <use x="102.685547" xlink:href="#DejaVuSans-97"/>
      <use x="163.964844" xlink:href="#DejaVuSans-116"/>
      <use x="203.173828" xlink:href="#DejaVuSans-101"/>
      <use x="264.697266" xlink:href="#DejaVuSans-32"/>
      <use x="296.484375" xlink:href="#DejaVuSans-40"/>
      <use x="335.498047" xlink:href="#DejaVuSans-99"/>
      <use x="390.478516" xlink:href="#DejaVuSans-97"/>
      <use x="451.757812" xlink:href="#DejaVuSans-115"/>
      <use x="503.857422" xlink:href="#DejaVuSans-101"/>
      <use x="565.380859" xlink:href="#DejaVuSans-115"/>
      <use x="617.480469" xlink:href="#DejaVuSans-32"/>
      <use x="649.267578" xlink:href="#DejaVuSans-105"/>
      <use x="677.050781" xlink:href="#DejaVuSans-110"/>
      <use x="740.429688" xlink:href="#DejaVuSans-32"/>
      <use x="772.216797" xlink:href="#DejaVuSans-55"/>
      <use x="835.839844" xlink:href="#DejaVuSans-32"/>
      <use x="867.626953" xlink:href="#DejaVuSans-100"/>
      <use x="931.103516" xlink:href="#DejaVuSans-97"/>
      <use x="992.382812" xlink:href="#DejaVuSans-121"/>
      <use x="1051.5625" xlink:href="#DejaVuSans-115"/>
      <use x="1103.662109" xlink:href="#DejaVuSans-41"/>
     </g>
    </g>
    <g id="line2d_77">
     <path d="M 292.435156 166.444063 
L 312.435156 166.444063 
" style="fill:none;stroke:#1f77b4;stroke-linecap:square;stroke-width:1.5;"/>
    </g>
    <g id="line2d_78">
     <defs>
      <path d="M 0 3 
C 0.795609 3 1.55874 2.683901 2.12132 2.12132 
C 2.683901 1.55874 3 0.795609 3 0 
C 3 -0.795609 2.683901 -1.55874 2.12132 -2.12132 
C 1.55874 -2.683901 0.795609 -3 0 -3 
C -0.795609 -3 -1.55874 -2.683901 -2.12132 -2.12132 
C -2.683901 -1.55874 -3 -0.795609 -3 0 
C -3 0.795609 -2.683901 1.55874 -2.12132 2.12132 
C -1.55874 2.683901 -0.795609 3 0 3 
z
" id="mabc4fff28f" style="stroke:#1f77b4;"/>
     </defs>
     <g>
      <use style="fill:#1f77b4;stroke:#1f77b4;" x="302.435156" xlink:href="#mabc4fff28f" y="166.444063"/>
     </g>
    </g>
    <g id="text_27">
     <!-- NY (1.6$\times$) -->
     <defs>
      <path d="M 9.8125 72.90625 
L 23.09375 72.90625 
L 55.421875 11.921875 
L 55.421875 72.90625 
L 64.984375 72.90625 
L 64.984375 0 
L 51.703125 0 
L 19.390625 60.984375 
L 19.390625 0 
L 9.8125 0 
z
" id="DejaVuSans-78"/>
      <path d="M -0.203125 72.90625 
L 10.40625 72.90625 
L 30.609375 42.921875 
L 50.6875 72.90625 
L 61.28125 72.90625 
L 35.5 34.71875 
L 35.5 0 
L 25.59375 0 
L 25.59375 34.71875 
z
" id="DejaVuSans-89"/>
      <path d="M 33.015625 40.375 
Q 26.375 40.375 22.484375 35.828125 
Q 18.609375 31.296875 18.609375 23.390625 
Q 18.609375 15.53125 22.484375 10.953125 
Q 26.375 6.390625 33.015625 6.390625 
Q 39.65625 6.390625 43.53125 10.953125 
Q 47.40625 15.53125 47.40625 23.390625 
Q 47.40625 31.296875 43.53125 35.828125 
Q 39.65625 40.375 33.015625 40.375 
z
M 52.59375 71.296875 
L 52.59375 62.3125 
Q 48.875 64.0625 45.09375 64.984375 
Q 41.3125 65.921875 37.59375 65.921875 
Q 27.828125 65.921875 22.671875 59.328125 
Q 17.53125 52.734375 16.796875 39.40625 
Q 19.671875 43.65625 24.015625 45.921875 
Q 28.375 48.1875 33.59375 48.1875 
Q 44.578125 48.1875 50.953125 41.515625 
Q 57.328125 34.859375 57.328125 23.390625 
Q 57.328125 12.15625 50.6875 5.359375 
Q 44.046875 -1.421875 33.015625 -1.421875 
Q 20.359375 -1.421875 13.671875 8.265625 
Q 6.984375 17.96875 6.984375 36.375 
Q 6.984375 53.65625 15.1875 63.9375 
Q 23.390625 74.21875 37.203125 74.21875 
Q 40.921875 74.21875 44.703125 73.484375 
Q 48.484375 72.75 52.59375 71.296875 
z
" id="DejaVuSans-54"/>
      <path d="M 70.125 53.71875 
L 47.796875 31.296875 
L 70.125 8.984375 
L 64.3125 3.078125 
L 41.890625 25.484375 
L 19.484375 3.078125 
L 13.71875 8.984375 
L 35.984375 31.296875 
L 13.71875 53.71875 
L 19.484375 59.625 
L 41.890625 37.203125 
L 64.3125 59.625 
z
" id="DejaVuSans-215"/>
     </defs>
     <g transform="translate(320.435156 169.944063)scale(0.1 -0.1)">
      <use transform="translate(0 0.125)" xlink:href="#DejaVuSans-78"/>
      <use transform="translate(74.804688 0.125)" xlink:href="#DejaVuSans-89"/>
      <use transform="translate(135.888672 0.125)" xlink:href="#DejaVuSans-32"/>
      <use transform="translate(167.675781 0.125)" xlink:href="#DejaVuSans-40"/>
      <use transform="translate(206.689453 0.125)" xlink:href="#DejaVuSans-49"/>
      <use transform="translate(270.3125 0.125)" xlink:href="#DejaVuSans-46"/>
      <use transform="translate(302.099609 0.125)" xlink:href="#DejaVuSans-54"/>
      <use transform="translate(365.722656 0.125)" xlink:href="#DejaVuSans-215"/>
      <use transform="translate(449.511719 0.125)" xlink:href="#DejaVuSans-41"/>
     </g>
    </g>
    <g id="line2d_79">
     <path d="M 292.435156 181.12375 
L 312.435156 181.12375 
" style="fill:none;stroke:#ff7f0e;stroke-linecap:square;stroke-width:1.5;"/>
    </g>
    <g id="line2d_80">
     <defs>
      <path d="M 0 3 
C 0.795609 3 1.55874 2.683901 2.12132 2.12132 
C 2.683901 1.55874 3 0.795609 3 0 
C 3 -0.795609 2.683901 -1.55874 2.12132 -2.12132 
C 1.55874 -2.683901 0.795609 -3 0 -3 
C -0.795609 -3 -1.55874 -2.683901 -2.12132 -2.12132 
C -2.683901 -1.55874 -3 -0.795609 -3 0 
C -3 0.795609 -2.683901 1.55874 -2.12132 2.12132 
C -1.55874 2.683901 -0.795609 3 0 3 
z
" id="md3f487d2f0" style="stroke:#ff7f0e;"/>
     </defs>
     <g>
      <use style="fill:#ff7f0e;stroke:#ff7f0e;" x="302.435156" xlink:href="#md3f487d2f0" y="181.12375"/>
     </g>
    </g>
    <g id="text_28">
     <!-- NJ (1.6$\times$) -->
     <defs>
      <path d="M 9.8125 72.90625 
L 19.671875 72.90625 
L 19.671875 5.078125 
Q 19.671875 -8.109375 14.671875 -14.0625 
Q 9.671875 -20.015625 -1.421875 -20.015625 
L -5.171875 -20.015625 
L -5.171875 -11.71875 
L -2.09375 -11.71875 
Q 4.4375 -11.71875 7.125 -8.046875 
Q 9.8125 -4.390625 9.8125 5.078125 
z
" id="DejaVuSans-74"/>
     </defs>
     <g transform="translate(320.435156 184.62375)scale(0.1 -0.1)">
      <use transform="translate(0 0.125)" xlink:href="#DejaVuSans-78"/>
      <use transform="translate(74.804688 0.125)" xlink:href="#DejaVuSans-74"/>
      <use transform="translate(104.296875 0.125)" xlink:href="#DejaVuSans-32"/>
      <use transform="translate(136.083984 0.125)" xlink:href="#DejaVuSans-40"/>
      <use transform="translate(175.097656 0.125)" xlink:href="#DejaVuSans-49"/>
      <use transform="translate(238.720703 0.125)" xlink:href="#DejaVuSans-46"/>
      <use transform="translate(270.507812 0.125)" xlink:href="#DejaVuSans-54"/>
      <use transform="translate(334.130859 0.125)" xlink:href="#DejaVuSans-215"/>
      <use transform="translate(417.919922 0.125)" xlink:href="#DejaVuSans-41"/>
     </g>
    </g>
    <g id="line2d_81">
     <path d="M 292.435156 195.822188 
L 312.435156 195.822188 
" style="fill:none;stroke:#2ca02c;stroke-linecap:square;stroke-width:1.5;"/>
    </g>
    <g id="line2d_82">
     <defs>
      <path d="M 0 3 
C 0.795609 3 1.55874 2.683901 2.12132 2.12132 
C 2.683901 1.55874 3 0.795609 3 0 
C 3 -0.795609 2.683901 -1.55874 2.12132 -2.12132 
C 1.55874 -2.683901 0.795609 -3 0 -3 
C -0.795609 -3 -1.55874 -2.683901 -2.12132 -2.12132 
C -2.683901 -1.55874 -3 -0.795609 -3 0 
C -3 0.795609 -2.683901 1.55874 -2.12132 2.12132 
C -1.55874 2.683901 -0.795609 3 0 3 
z
" id="m447360b347" style="stroke:#2ca02c;"/>
     </defs>
     <g>
      <use style="fill:#2ca02c;stroke:#2ca02c;" x="302.435156" xlink:href="#m447360b347" y="195.822188"/>
     </g>
    </g>
    <g id="text_29">
     <!-- CO (1.5$\times$) -->
     <defs>
      <path d="M 64.40625 67.28125 
L 64.40625 56.890625 
Q 59.421875 61.53125 53.78125 63.8125 
Q 48.140625 66.109375 41.796875 66.109375 
Q 29.296875 66.109375 22.65625 58.46875 
Q 16.015625 50.828125 16.015625 36.375 
Q 16.015625 21.96875 22.65625 14.328125 
Q 29.296875 6.6875 41.796875 6.6875 
Q 48.140625 6.6875 53.78125 8.984375 
Q 59.421875 11.28125 64.40625 15.921875 
L 64.40625 5.609375 
Q 59.234375 2.09375 53.4375 0.328125 
Q 47.65625 -1.421875 41.21875 -1.421875 
Q 24.65625 -1.421875 15.125 8.703125 
Q 5.609375 18.84375 5.609375 36.375 
Q 5.609375 53.953125 15.125 64.078125 
Q 24.65625 74.21875 41.21875 74.21875 
Q 47.75 74.21875 53.53125 72.484375 
Q 59.328125 70.75 64.40625 67.28125 
z
" id="DejaVuSans-67"/>
      <path d="M 39.40625 66.21875 
Q 28.65625 66.21875 22.328125 58.203125 
Q 16.015625 50.203125 16.015625 36.375 
Q 16.015625 22.609375 22.328125 14.59375 
Q 28.65625 6.59375 39.40625 6.59375 
Q 50.140625 6.59375 56.421875 14.59375 
Q 62.703125 22.609375 62.703125 36.375 
Q 62.703125 50.203125 56.421875 58.203125 
Q 50.140625 66.21875 39.40625 66.21875 
z
M 39.40625 74.21875 
Q 54.734375 74.21875 63.90625 63.9375 
Q 73.09375 53.65625 73.09375 36.375 
Q 73.09375 19.140625 63.90625 8.859375 
Q 54.734375 -1.421875 39.40625 -1.421875 
Q 24.03125 -1.421875 14.8125 8.828125 
Q 5.609375 19.09375 5.609375 36.375 
Q 5.609375 53.65625 14.8125 63.9375 
Q 24.03125 74.21875 39.40625 74.21875 
z
" id="DejaVuSans-79"/>
     </defs>
     <g transform="translate(320.435156 199.322188)scale(0.1 -0.1)">
      <use transform="translate(0 0.125)" xlink:href="#DejaVuSans-67"/>
      <use transform="translate(69.824219 0.125)" xlink:href="#DejaVuSans-79"/>
      <use transform="translate(148.535156 0.125)" xlink:href="#DejaVuSans-32"/>
      <use transform="translate(180.322266 0.125)" xlink:href="#DejaVuSans-40"/>
      <use transform="translate(219.335938 0.125)" xlink:href="#DejaVuSans-49"/>
      <use transform="translate(282.958984 0.125)" xlink:href="#DejaVuSans-46"/>
      <use transform="translate(314.746094 0.125)" xlink:href="#DejaVuSans-53"/>
      <use transform="translate(378.369141 0.125)" xlink:href="#DejaVuSans-215"/>
      <use transform="translate(462.158203 0.125)" xlink:href="#DejaVuSans-41"/>
     </g>
    </g>
    <g id="line2d_83">
     <path d="M 292.435156 210.500313 
L 312.435156 210.500313 
" style="fill:none;stroke:#d62728;stroke-linecap:square;stroke-width:1.5;"/>
    </g>
    <g id="line2d_84">
     <defs>
      <path d="M 0 3 
C 0.795609 3 1.55874 2.683901 2.12132 2.12132 
C 2.683901 1.55874 3 0.795609 3 0 
C 3 -0.795609 2.683901 -1.55874 2.12132 -2.12132 
C 1.55874 -2.683901 0.795609 -3 0 -3 
C -0.795609 -3 -1.55874 -2.683901 -2.12132 -2.12132 
C -2.683901 -1.55874 -3 -0.795609 -3 0 
C -3 0.795609 -2.683901 1.55874 -2.12132 2.12132 
C -1.55874 2.683901 -0.795609 3 0 3 
z
" id="m41360f04f6" style="stroke:#d62728;"/>
     </defs>
     <g>
      <use style="fill:#d62728;stroke:#d62728;" x="302.435156" xlink:href="#m41360f04f6" y="210.500313"/>
     </g>
    </g>
    <g id="text_30">
     <!-- FL (1.6$\times$) -->
     <defs>
      <path d="M 9.8125 72.90625 
L 51.703125 72.90625 
L 51.703125 64.59375 
L 19.671875 64.59375 
L 19.671875 43.109375 
L 48.578125 43.109375 
L 48.578125 34.8125 
L 19.671875 34.8125 
L 19.671875 0 
L 9.8125 0 
z
" id="DejaVuSans-70"/>
      <path d="M 9.8125 72.90625 
L 19.671875 72.90625 
L 19.671875 8.296875 
L 55.171875 8.296875 
L 55.171875 0 
L 9.8125 0 
z
" id="DejaVuSans-76"/>
     </defs>
     <g transform="translate(320.435156 214.000313)scale(0.1 -0.1)">
      <use transform="translate(0 0.125)" xlink:href="#DejaVuSans-70"/>
      <use transform="translate(57.519531 0.125)" xlink:href="#DejaVuSans-76"/>
      <use transform="translate(113.232422 0.125)" xlink:href="#DejaVuSans-32"/>
      <use transform="translate(145.019531 0.125)" xlink:href="#DejaVuSans-40"/>
      <use transform="translate(184.033203 0.125)" xlink:href="#DejaVuSans-49"/>
      <use transform="translate(247.65625 0.125)" xlink:href="#DejaVuSans-46"/>
      <use transform="translate(279.443359 0.125)" xlink:href="#DejaVuSans-54"/>
      <use transform="translate(343.066406 0.125)" xlink:href="#DejaVuSans-215"/>
      <use transform="translate(426.855469 0.125)" xlink:href="#DejaVuSans-41"/>
     </g>
    </g>
    <g id="line2d_85">
     <path d="M 292.435156 225.178438 
L 312.435156 225.178438 
" style="fill:none;stroke:#9467bd;stroke-linecap:square;stroke-width:1.5;"/>
    </g>
    <g id="line2d_86">
     <defs>
      <path d="M 0 3 
C 0.795609 3 1.55874 2.683901 2.12132 2.12132 
C 2.683901 1.55874 3 0.795609 3 0 
C 3 -0.795609 2.683901 -1.55874 2.12132 -2.12132 
C 1.55874 -2.683901 0.795609 -3 0 -3 
C -0.795609 -3 -1.55874 -2.683901 -2.12132 -2.12132 
C -2.683901 -1.55874 -3 -0.795609 -3 0 
C -3 0.795609 -2.683901 1.55874 -2.12132 2.12132 
C -1.55874 2.683901 -0.795609 3 0 3 
z
" id="m60ebdbc28e" style="stroke:#9467bd;"/>
     </defs>
     <g>
      <use style="fill:#9467bd;stroke:#9467bd;" x="302.435156" xlink:href="#m60ebdbc28e" y="225.178438"/>
     </g>
    </g>
    <g id="text_31">
     <!-- IA (2.0$\times$) -->
     <defs>
      <path d="M 9.8125 72.90625 
L 19.671875 72.90625 
L 19.671875 0 
L 9.8125 0 
z
" id="DejaVuSans-73"/>
     </defs>
     <g transform="translate(320.435156 228.678438)scale(0.1 -0.1)">
      <use transform="translate(0 0.125)" xlink:href="#DejaVuSans-73"/>
      <use transform="translate(29.492188 0.125)" xlink:href="#DejaVuSans-65"/>
      <use transform="translate(97.900391 0.125)" xlink:href="#DejaVuSans-32"/>
      <use transform="translate(129.6875 0.125)" xlink:href="#DejaVuSans-40"/>
      <use transform="translate(168.701172 0.125)" xlink:href="#DejaVuSans-50"/>
      <use transform="translate(232.324219 0.125)" xlink:href="#DejaVuSans-46"/>
      <use transform="translate(264.111328 0.125)" xlink:href="#DejaVuSans-48"/>
      <use transform="translate(327.734375 0.125)" xlink:href="#DejaVuSans-215"/>
      <use transform="translate(411.523438 0.125)" xlink:href="#DejaVuSans-41"/>
     </g>
    </g>
   </g>
   <g id="line2d_87">
    <path clip-path="url(#p3dc8dc6ac3)" d="M 13.058092 285.120091 
L 17.418484 267.294952 
L 26.508537 252.185837 
L 35.59859 237.076722 
L 44.688644 221.7213 
L 53.778697 217.910978 
L 62.86875 211.53755 
L 71.958803 207.233249 
L 81.048856 202.293731 
L 90.13891 193.422008 
L 99.228963 187.847526 
L 108.319016 179.764315 
L 117.409069 175.790098 
L 126.499122 170.107804 
L 135.589176 162.063974 
L 144.679229 150.070488 
L 153.769282 137.958522 
L 162.859335 126.257738 
L 171.949388 118.035817 
L 181.039441 109.717282 
L 190.129495 102.755828 
L 199.219548 98.252917 
L 208.309601 92.729837 
L 217.399654 89.139237 
L 226.489707 86.190205 
L 235.579761 82.297125 
L 244.669814 79.899343 
L 253.759867 77.279945 
L 262.84992 74.637302 
L 271.939973 72.436284 
L 281.030027 70.242793 
L 290.12008 67.990143 
L 299.210133 65.561181 
L 308.300186 64.110248 
L 317.390239 62.770398 
L 326.480293 61.259955 
L 335.570346 59.855887 
L 344.660399 58.37045 
L 353.750452 56.974828 
" style="fill:none;stroke:#1f77b4;stroke-linecap:square;stroke-width:1.5;"/>
    <g clip-path="url(#p3dc8dc6ac3)">
     <use style="fill:#1f77b4;stroke:#1f77b4;" x="-1" xlink:href="#mabc4fff28f" y="319.563902"/>
     <use style="fill:#1f77b4;stroke:#1f77b4;" x="-0.761622" xlink:href="#mabc4fff28f" y="319.563902"/>
     <use style="fill:#1f77b4;stroke:#1f77b4;" x="8.328431" xlink:href="#mabc4fff28f" y="304.454787"/>
     <use style="fill:#1f77b4;stroke:#1f77b4;" x="17.418484" xlink:href="#mabc4fff28f" y="267.294952"/>
     <use style="fill:#1f77b4;stroke:#1f77b4;" x="26.508537" xlink:href="#mabc4fff28f" y="252.185837"/>
     <use style="fill:#1f77b4;stroke:#1f77b4;" x="35.59859" xlink:href="#mabc4fff28f" y="237.076722"/>
     <use style="fill:#1f77b4;stroke:#1f77b4;" x="44.688644" xlink:href="#mabc4fff28f" y="221.7213"/>
     <use style="fill:#1f77b4;stroke:#1f77b4;" x="53.778697" xlink:href="#mabc4fff28f" y="217.910978"/>
     <use style="fill:#1f77b4;stroke:#1f77b4;" x="62.86875" xlink:href="#mabc4fff28f" y="211.53755"/>
     <use style="fill:#1f77b4;stroke:#1f77b4;" x="71.958803" xlink:href="#mabc4fff28f" y="207.233249"/>
     <use style="fill:#1f77b4;stroke:#1f77b4;" x="81.048856" xlink:href="#mabc4fff28f" y="202.293731"/>
     <use style="fill:#1f77b4;stroke:#1f77b4;" x="90.13891" xlink:href="#mabc4fff28f" y="193.422008"/>
     <use style="fill:#1f77b4;stroke:#1f77b4;" x="99.228963" xlink:href="#mabc4fff28f" y="187.847526"/>
     <use style="fill:#1f77b4;stroke:#1f77b4;" x="108.319016" xlink:href="#mabc4fff28f" y="179.764315"/>
     <use style="fill:#1f77b4;stroke:#1f77b4;" x="117.409069" xlink:href="#mabc4fff28f" y="175.790098"/>
     <use style="fill:#1f77b4;stroke:#1f77b4;" x="126.499122" xlink:href="#mabc4fff28f" y="170.107804"/>
     <use style="fill:#1f77b4;stroke:#1f77b4;" x="135.589176" xlink:href="#mabc4fff28f" y="162.063974"/>
     <use style="fill:#1f77b4;stroke:#1f77b4;" x="144.679229" xlink:href="#mabc4fff28f" y="150.070488"/>
     <use style="fill:#1f77b4;stroke:#1f77b4;" x="153.769282" xlink:href="#mabc4fff28f" y="137.958522"/>
     <use style="fill:#1f77b4;stroke:#1f77b4;" x="162.859335" xlink:href="#mabc4fff28f" y="126.257738"/>
     <use style="fill:#1f77b4;stroke:#1f77b4;" x="171.949388" xlink:href="#mabc4fff28f" y="118.035817"/>
     <use style="fill:#1f77b4;stroke:#1f77b4;" x="181.039441" xlink:href="#mabc4fff28f" y="109.717282"/>
     <use style="fill:#1f77b4;stroke:#1f77b4;" x="190.129495" xlink:href="#mabc4fff28f" y="102.755828"/>
     <use style="fill:#1f77b4;stroke:#1f77b4;" x="199.219548" xlink:href="#mabc4fff28f" y="98.252917"/>
     <use style="fill:#1f77b4;stroke:#1f77b4;" x="208.309601" xlink:href="#mabc4fff28f" y="92.729837"/>
     <use style="fill:#1f77b4;stroke:#1f77b4;" x="217.399654" xlink:href="#mabc4fff28f" y="89.139237"/>
     <use style="fill:#1f77b4;stroke:#1f77b4;" x="226.489707" xlink:href="#mabc4fff28f" y="86.190205"/>
     <use style="fill:#1f77b4;stroke:#1f77b4;" x="235.579761" xlink:href="#mabc4fff28f" y="82.297125"/>
     <use style="fill:#1f77b4;stroke:#1f77b4;" x="244.669814" xlink:href="#mabc4fff28f" y="79.899343"/>
     <use style="fill:#1f77b4;stroke:#1f77b4;" x="253.759867" xlink:href="#mabc4fff28f" y="77.279945"/>
     <use style="fill:#1f77b4;stroke:#1f77b4;" x="262.84992" xlink:href="#mabc4fff28f" y="74.637302"/>
     <use style="fill:#1f77b4;stroke:#1f77b4;" x="271.939973" xlink:href="#mabc4fff28f" y="72.436284"/>
     <use style="fill:#1f77b4;stroke:#1f77b4;" x="281.030027" xlink:href="#mabc4fff28f" y="70.242793"/>
     <use style="fill:#1f77b4;stroke:#1f77b4;" x="290.12008" xlink:href="#mabc4fff28f" y="67.990143"/>
     <use style="fill:#1f77b4;stroke:#1f77b4;" x="299.210133" xlink:href="#mabc4fff28f" y="65.561181"/>
     <use style="fill:#1f77b4;stroke:#1f77b4;" x="308.300186" xlink:href="#mabc4fff28f" y="64.110248"/>
     <use style="fill:#1f77b4;stroke:#1f77b4;" x="317.390239" xlink:href="#mabc4fff28f" y="62.770398"/>
     <use style="fill:#1f77b4;stroke:#1f77b4;" x="326.480293" xlink:href="#mabc4fff28f" y="61.259955"/>
     <use style="fill:#1f77b4;stroke:#1f77b4;" x="335.570346" xlink:href="#mabc4fff28f" y="59.855887"/>
     <use style="fill:#1f77b4;stroke:#1f77b4;" x="344.660399" xlink:href="#mabc4fff28f" y="58.37045"/>
     <use style="fill:#1f77b4;stroke:#1f77b4;" x="353.750452" xlink:href="#mabc4fff28f" y="56.974828"/>
    </g>
   </g>
   <g id="line2d_88">
    <path clip-path="url(#p3dc8dc6ac3)" d="M 27.859538 285.120091 
L 35.59859 272.256554 
L 44.688644 272.256554 
L 53.778697 263.418288 
L 62.86875 250.205834 
L 71.958803 243.445124 
L 81.048856 234.127766 
L 90.13891 229.07499 
L 99.228963 217.201111 
L 108.319016 208.362845 
L 117.409069 202.532372 
L 126.499122 189.769373 
L 135.589176 180.603314 
L 144.679229 170.449942 
L 153.769282 158.611827 
L 162.859335 154.29433 
L 171.949388 145.586201 
L 181.039441 137.749543 
L 190.129495 129.117243 
L 199.219548 123.529548 
L 208.309601 119.594909 
L 217.399654 109.873548 
L 226.489707 104.433862 
L 235.579761 99.387305 
L 244.669814 95.352427 
L 253.759867 90.614455 
L 262.84992 88.069762 
L 271.939973 84.271333 
L 281.030027 81.227592 
L 290.12008 77.838254 
L 299.210133 74.954187 
L 308.300186 72.894872 
L 317.390239 70.904936 
L 326.480293 69.208301 
L 335.570346 67.773943 
L 344.660399 66.183738 
L 353.750452 64.713273 
" style="fill:none;stroke:#ff7f0e;stroke-linecap:square;stroke-width:1.5;"/>
    <g clip-path="url(#p3dc8dc6ac3)">
     <use style="fill:#ff7f0e;stroke:#ff7f0e;" x="17.418484" xlink:href="#md3f487d2f0" y="302.474784"/>
     <use style="fill:#ff7f0e;stroke:#ff7f0e;" x="26.508537" xlink:href="#md3f487d2f0" y="287.365669"/>
     <use style="fill:#ff7f0e;stroke:#ff7f0e;" x="35.59859" xlink:href="#md3f487d2f0" y="272.256554"/>
     <use style="fill:#ff7f0e;stroke:#ff7f0e;" x="44.688644" xlink:href="#md3f487d2f0" y="272.256554"/>
     <use style="fill:#ff7f0e;stroke:#ff7f0e;" x="53.778697" xlink:href="#md3f487d2f0" y="263.418288"/>
     <use style="fill:#ff7f0e;stroke:#ff7f0e;" x="62.86875" xlink:href="#md3f487d2f0" y="250.205834"/>
     <use style="fill:#ff7f0e;stroke:#ff7f0e;" x="71.958803" xlink:href="#md3f487d2f0" y="243.445124"/>
     <use style="fill:#ff7f0e;stroke:#ff7f0e;" x="81.048856" xlink:href="#md3f487d2f0" y="234.127766"/>
     <use style="fill:#ff7f0e;stroke:#ff7f0e;" x="90.13891" xlink:href="#md3f487d2f0" y="229.07499"/>
     <use style="fill:#ff7f0e;stroke:#ff7f0e;" x="99.228963" xlink:href="#md3f487d2f0" y="217.201111"/>
     <use style="fill:#ff7f0e;stroke:#ff7f0e;" x="108.319016" xlink:href="#md3f487d2f0" y="208.362845"/>
     <use style="fill:#ff7f0e;stroke:#ff7f0e;" x="117.409069" xlink:href="#md3f487d2f0" y="202.532372"/>
     <use style="fill:#ff7f0e;stroke:#ff7f0e;" x="126.499122" xlink:href="#md3f487d2f0" y="189.769373"/>
     <use style="fill:#ff7f0e;stroke:#ff7f0e;" x="135.589176" xlink:href="#md3f487d2f0" y="180.603314"/>
     <use style="fill:#ff7f0e;stroke:#ff7f0e;" x="144.679229" xlink:href="#md3f487d2f0" y="170.449942"/>
     <use style="fill:#ff7f0e;stroke:#ff7f0e;" x="153.769282" xlink:href="#md3f487d2f0" y="158.611827"/>
     <use style="fill:#ff7f0e;stroke:#ff7f0e;" x="162.859335" xlink:href="#md3f487d2f0" y="154.29433"/>
     <use style="fill:#ff7f0e;stroke:#ff7f0e;" x="171.949388" xlink:href="#md3f487d2f0" y="145.586201"/>
     <use style="fill:#ff7f0e;stroke:#ff7f0e;" x="181.039441" xlink:href="#md3f487d2f0" y="137.749543"/>
     <use style="fill:#ff7f0e;stroke:#ff7f0e;" x="190.129495" xlink:href="#md3f487d2f0" y="129.117243"/>
     <use style="fill:#ff7f0e;stroke:#ff7f0e;" x="199.219548" xlink:href="#md3f487d2f0" y="123.529548"/>
     <use style="fill:#ff7f0e;stroke:#ff7f0e;" x="208.309601" xlink:href="#md3f487d2f0" y="119.594909"/>
     <use style="fill:#ff7f0e;stroke:#ff7f0e;" x="217.399654" xlink:href="#md3f487d2f0" y="109.873548"/>
     <use style="fill:#ff7f0e;stroke:#ff7f0e;" x="226.489707" xlink:href="#md3f487d2f0" y="104.433862"/>
     <use style="fill:#ff7f0e;stroke:#ff7f0e;" x="235.579761" xlink:href="#md3f487d2f0" y="99.387305"/>
     <use style="fill:#ff7f0e;stroke:#ff7f0e;" x="244.669814" xlink:href="#md3f487d2f0" y="95.352427"/>
     <use style="fill:#ff7f0e;stroke:#ff7f0e;" x="253.759867" xlink:href="#md3f487d2f0" y="90.614455"/>
     <use style="fill:#ff7f0e;stroke:#ff7f0e;" x="262.84992" xlink:href="#md3f487d2f0" y="88.069762"/>
     <use style="fill:#ff7f0e;stroke:#ff7f0e;" x="271.939973" xlink:href="#md3f487d2f0" y="84.271333"/>
     <use style="fill:#ff7f0e;stroke:#ff7f0e;" x="281.030027" xlink:href="#md3f487d2f0" y="81.227592"/>
     <use style="fill:#ff7f0e;stroke:#ff7f0e;" x="290.12008" xlink:href="#md3f487d2f0" y="77.838254"/>
     <use style="fill:#ff7f0e;stroke:#ff7f0e;" x="299.210133" xlink:href="#md3f487d2f0" y="74.954187"/>
     <use style="fill:#ff7f0e;stroke:#ff7f0e;" x="308.300186" xlink:href="#md3f487d2f0" y="72.894872"/>
     <use style="fill:#ff7f0e;stroke:#ff7f0e;" x="317.390239" xlink:href="#md3f487d2f0" y="70.904936"/>
     <use style="fill:#ff7f0e;stroke:#ff7f0e;" x="326.480293" xlink:href="#md3f487d2f0" y="69.208301"/>
     <use style="fill:#ff7f0e;stroke:#ff7f0e;" x="335.570346" xlink:href="#md3f487d2f0" y="67.773943"/>
     <use style="fill:#ff7f0e;stroke:#ff7f0e;" x="344.660399" xlink:href="#md3f487d2f0" y="66.183738"/>
     <use style="fill:#ff7f0e;stroke:#ff7f0e;" x="353.750452" xlink:href="#md3f487d2f0" y="64.713273"/>
    </g>
   </g>
   <g id="line2d_89">
    <path clip-path="url(#p3dc8dc6ac3)" d="M 26.508537 277.920006 
L 35.59859 247.701775 
L 44.688644 247.701775 
L 53.778697 247.701775 
L 62.86875 238.86351 
L 71.958803 231.271174 
L 81.048856 216.162059 
L 90.13891 208.195823 
L 99.228963 198.062255 
L 108.319016 192.002014 
L 117.409069 185.943829 
L 126.499122 182.265454 
L 135.589176 179.473547 
L 144.679229 175.859633 
L 153.769282 170.359105 
L 162.859335 164.483872 
L 171.949388 158.682137 
L 181.039441 153.919281 
L 190.129495 149.585366 
L 199.219548 144.462853 
L 208.309601 140.65659 
L 217.399654 134.627941 
L 226.489707 130.444164 
L 235.579761 126.690926 
L 244.669814 124.157616 
L 253.759867 121.393357 
L 262.84992 118.580339 
L 271.939973 116.128251 
L 281.030027 113.771766 
L 290.12008 111.266808 
L 299.210133 109.313754 
L 308.300186 107.591735 
L 317.390239 106.635423 
L 326.480293 105.578326 
L 335.570346 104.689297 
L 344.660399 102.676665 
L 353.750452 101.620175 
" style="fill:none;stroke:#2ca02c;stroke-linecap:square;stroke-width:1.5;"/>
    <g clip-path="url(#p3dc8dc6ac3)">
     <use style="fill:#2ca02c;stroke:#2ca02c;" x="26.508537" xlink:href="#m447360b347" y="277.920006"/>
     <use style="fill:#2ca02c;stroke:#2ca02c;" x="35.59859" xlink:href="#m447360b347" y="247.701775"/>
     <use style="fill:#2ca02c;stroke:#2ca02c;" x="44.688644" xlink:href="#m447360b347" y="247.701775"/>
     <use style="fill:#2ca02c;stroke:#2ca02c;" x="53.778697" xlink:href="#m447360b347" y="247.701775"/>
     <use style="fill:#2ca02c;stroke:#2ca02c;" x="62.86875" xlink:href="#m447360b347" y="238.86351"/>
     <use style="fill:#2ca02c;stroke:#2ca02c;" x="71.958803" xlink:href="#m447360b347" y="231.271174"/>
     <use style="fill:#2ca02c;stroke:#2ca02c;" x="81.048856" xlink:href="#m447360b347" y="216.162059"/>
     <use style="fill:#2ca02c;stroke:#2ca02c;" x="90.13891" xlink:href="#m447360b347" y="208.195823"/>
     <use style="fill:#2ca02c;stroke:#2ca02c;" x="99.228963" xlink:href="#m447360b347" y="198.062255"/>
     <use style="fill:#2ca02c;stroke:#2ca02c;" x="108.319016" xlink:href="#m447360b347" y="192.002014"/>
     <use style="fill:#2ca02c;stroke:#2ca02c;" x="117.409069" xlink:href="#m447360b347" y="185.943829"/>
     <use style="fill:#2ca02c;stroke:#2ca02c;" x="126.499122" xlink:href="#m447360b347" y="182.265454"/>
     <use style="fill:#2ca02c;stroke:#2ca02c;" x="135.589176" xlink:href="#m447360b347" y="179.473547"/>
     <use style="fill:#2ca02c;stroke:#2ca02c;" x="144.679229" xlink:href="#m447360b347" y="175.859633"/>
     <use style="fill:#2ca02c;stroke:#2ca02c;" x="153.769282" xlink:href="#m447360b347" y="170.359105"/>
     <use style="fill:#2ca02c;stroke:#2ca02c;" x="162.859335" xlink:href="#m447360b347" y="164.483872"/>
     <use style="fill:#2ca02c;stroke:#2ca02c;" x="171.949388" xlink:href="#m447360b347" y="158.682137"/>
     <use style="fill:#2ca02c;stroke:#2ca02c;" x="181.039441" xlink:href="#m447360b347" y="153.919281"/>
     <use style="fill:#2ca02c;stroke:#2ca02c;" x="190.129495" xlink:href="#m447360b347" y="149.585366"/>
     <use style="fill:#2ca02c;stroke:#2ca02c;" x="199.219548" xlink:href="#m447360b347" y="144.462853"/>
     <use style="fill:#2ca02c;stroke:#2ca02c;" x="208.309601" xlink:href="#m447360b347" y="140.65659"/>
     <use style="fill:#2ca02c;stroke:#2ca02c;" x="217.399654" xlink:href="#m447360b347" y="134.627941"/>
     <use style="fill:#2ca02c;stroke:#2ca02c;" x="226.489707" xlink:href="#m447360b347" y="130.444164"/>
     <use style="fill:#2ca02c;stroke:#2ca02c;" x="235.579761" xlink:href="#m447360b347" y="126.690926"/>
     <use style="fill:#2ca02c;stroke:#2ca02c;" x="244.669814" xlink:href="#m447360b347" y="124.157616"/>
     <use style="fill:#2ca02c;stroke:#2ca02c;" x="253.759867" xlink:href="#m447360b347" y="121.393357"/>
     <use style="fill:#2ca02c;stroke:#2ca02c;" x="262.84992" xlink:href="#m447360b347" y="118.580339"/>
     <use style="fill:#2ca02c;stroke:#2ca02c;" x="271.939973" xlink:href="#m447360b347" y="116.128251"/>
     <use style="fill:#2ca02c;stroke:#2ca02c;" x="281.030027" xlink:href="#m447360b347" y="113.771766"/>
     <use style="fill:#2ca02c;stroke:#2ca02c;" x="290.12008" xlink:href="#m447360b347" y="111.266808"/>
     <use style="fill:#2ca02c;stroke:#2ca02c;" x="299.210133" xlink:href="#m447360b347" y="109.313754"/>
     <use style="fill:#2ca02c;stroke:#2ca02c;" x="308.300186" xlink:href="#m447360b347" y="107.591735"/>
     <use style="fill:#2ca02c;stroke:#2ca02c;" x="317.390239" xlink:href="#m447360b347" y="106.635423"/>
     <use style="fill:#2ca02c;stroke:#2ca02c;" x="326.480293" xlink:href="#m447360b347" y="105.578326"/>
     <use style="fill:#2ca02c;stroke:#2ca02c;" x="335.570346" xlink:href="#m447360b347" y="104.689297"/>
     <use style="fill:#2ca02c;stroke:#2ca02c;" x="344.660399" xlink:href="#m447360b347" y="102.676665"/>
     <use style="fill:#2ca02c;stroke:#2ca02c;" x="353.750452" xlink:href="#m447360b347" y="101.620175"/>
    </g>
   </g>
   <g id="line2d_90">
    <path clip-path="url(#p3dc8dc6ac3)" d="M 31.265248 285.120091 
L 35.59859 279.304952 
L 44.688644 267.55599 
L 53.778697 265.811231 
L 62.86875 264.195837 
L 71.958803 253.374582 
L 81.048856 250.702116 
L 90.13891 238.265467 
L 99.228963 229.113558 
L 108.319016 229.113558 
L 117.409069 219.460325 
L 126.499122 213.849297 
L 135.589176 205.166177 
L 144.679229 195.579706 
L 153.769282 189.342315 
L 162.859335 183.631067 
L 171.949388 177.015126 
L 181.039441 171.147419 
L 190.129495 166.777194 
L 199.219548 162.794059 
L 208.309601 156.423143 
L 217.399654 151.375723 
L 226.489707 145.806865 
L 235.579761 140.723086 
L 244.669814 136.319473 
L 253.759867 133.231963 
L 262.84992 129.55259 
L 271.939973 126.469978 
L 281.030027 123.252657 
L 290.12008 120.396523 
L 299.210133 117.839496 
L 308.300186 116.369257 
L 317.390239 114.219888 
L 326.480293 112.50038 
L 335.570346 111.137436 
L 344.660399 109.622799 
L 353.750452 108.192035 
" style="fill:none;stroke:#d62728;stroke-linecap:square;stroke-width:1.5;"/>
    <g clip-path="url(#p3dc8dc6ac3)">
     <use style="fill:#d62728;stroke:#d62728;" x="-1" xlink:href="#m41360f04f6" y="306.612486"/>
     <use style="fill:#d62728;stroke:#d62728;" x="-0.761622" xlink:href="#m41360f04f6" y="306.612486"/>
     <use style="fill:#d62728;stroke:#d62728;" x="8.328431" xlink:href="#m41360f04f6" y="297.77422"/>
     <use style="fill:#d62728;stroke:#d62728;" x="17.418484" xlink:href="#m41360f04f6" y="297.77422"/>
     <use style="fill:#d62728;stroke:#d62728;" x="26.508537" xlink:href="#m41360f04f6" y="291.50337"/>
     <use style="fill:#d62728;stroke:#d62728;" x="35.59859" xlink:href="#m41360f04f6" y="279.304952"/>
     <use style="fill:#d62728;stroke:#d62728;" x="44.688644" xlink:href="#m41360f04f6" y="267.55599"/>
     <use style="fill:#d62728;stroke:#d62728;" x="53.778697" xlink:href="#m41360f04f6" y="265.811231"/>
     <use style="fill:#d62728;stroke:#d62728;" x="62.86875" xlink:href="#m41360f04f6" y="264.195837"/>
     <use style="fill:#d62728;stroke:#d62728;" x="71.958803" xlink:href="#m41360f04f6" y="253.374582"/>
     <use style="fill:#d62728;stroke:#d62728;" x="81.048856" xlink:href="#m41360f04f6" y="250.702116"/>
     <use style="fill:#d62728;stroke:#d62728;" x="90.13891" xlink:href="#m41360f04f6" y="238.265467"/>
     <use style="fill:#d62728;stroke:#d62728;" x="99.228963" xlink:href="#m41360f04f6" y="229.113558"/>
     <use style="fill:#d62728;stroke:#d62728;" x="108.319016" xlink:href="#m41360f04f6" y="229.113558"/>
     <use style="fill:#d62728;stroke:#d62728;" x="117.409069" xlink:href="#m41360f04f6" y="219.460325"/>
     <use style="fill:#d62728;stroke:#d62728;" x="126.499122" xlink:href="#m41360f04f6" y="213.849297"/>
     <use style="fill:#d62728;stroke:#d62728;" x="135.589176" xlink:href="#m41360f04f6" y="205.166177"/>
     <use style="fill:#d62728;stroke:#d62728;" x="144.679229" xlink:href="#m41360f04f6" y="195.579706"/>
     <use style="fill:#d62728;stroke:#d62728;" x="153.769282" xlink:href="#m41360f04f6" y="189.342315"/>
     <use style="fill:#d62728;stroke:#d62728;" x="162.859335" xlink:href="#m41360f04f6" y="183.631067"/>
     <use style="fill:#d62728;stroke:#d62728;" x="171.949388" xlink:href="#m41360f04f6" y="177.015126"/>
     <use style="fill:#d62728;stroke:#d62728;" x="181.039441" xlink:href="#m41360f04f6" y="171.147419"/>
     <use style="fill:#d62728;stroke:#d62728;" x="190.129495" xlink:href="#m41360f04f6" y="166.777194"/>
     <use style="fill:#d62728;stroke:#d62728;" x="199.219548" xlink:href="#m41360f04f6" y="162.794059"/>
     <use style="fill:#d62728;stroke:#d62728;" x="208.309601" xlink:href="#m41360f04f6" y="156.423143"/>
     <use style="fill:#d62728;stroke:#d62728;" x="217.399654" xlink:href="#m41360f04f6" y="151.375723"/>
     <use style="fill:#d62728;stroke:#d62728;" x="226.489707" xlink:href="#m41360f04f6" y="145.806865"/>
     <use style="fill:#d62728;stroke:#d62728;" x="235.579761" xlink:href="#m41360f04f6" y="140.723086"/>
     <use style="fill:#d62728;stroke:#d62728;" x="244.669814" xlink:href="#m41360f04f6" y="136.319473"/>
     <use style="fill:#d62728;stroke:#d62728;" x="253.759867" xlink:href="#m41360f04f6" y="133.231963"/>
     <use style="fill:#d62728;stroke:#d62728;" x="262.84992" xlink:href="#m41360f04f6" y="129.55259"/>
     <use style="fill:#d62728;stroke:#d62728;" x="271.939973" xlink:href="#m41360f04f6" y="126.469978"/>
     <use style="fill:#d62728;stroke:#d62728;" x="281.030027" xlink:href="#m41360f04f6" y="123.252657"/>
     <use style="fill:#d62728;stroke:#d62728;" x="290.12008" xlink:href="#m41360f04f6" y="120.396523"/>
     <use style="fill:#d62728;stroke:#d62728;" x="299.210133" xlink:href="#m41360f04f6" y="117.839496"/>
     <use style="fill:#d62728;stroke:#d62728;" x="308.300186" xlink:href="#m41360f04f6" y="116.369257"/>
     <use style="fill:#d62728;stroke:#d62728;" x="317.390239" xlink:href="#m41360f04f6" y="114.219888"/>
     <use style="fill:#d62728;stroke:#d62728;" x="326.480293" xlink:href="#m41360f04f6" y="112.50038"/>
     <use style="fill:#d62728;stroke:#d62728;" x="335.570346" xlink:href="#m41360f04f6" y="111.137436"/>
     <use style="fill:#d62728;stroke:#d62728;" x="344.660399" xlink:href="#m41360f04f6" y="109.622799"/>
     <use style="fill:#d62728;stroke:#d62728;" x="353.750452" xlink:href="#m41360f04f6" y="108.192035"/>
    </g>
   </g>
   <g id="line2d_91">
    <path clip-path="url(#p3dc8dc6ac3)" d="M 53.778697 255.965817 
L 62.86875 234.585852 
L 71.958803 224.002828 
L 81.048856 222.387434 
L 90.13891 219.476737 
L 99.228963 218.155251 
L 108.319016 216.909321 
L 117.409069 212.535132 
L 126.499122 212.535132 
L 135.589176 206.513403 
L 144.679229 200.621656 
L 153.769282 197.426017 
L 162.859335 196.936157 
L 171.949388 187.937021 
L 181.039441 181.827042 
L 190.129495 178.466889 
L 199.219548 174.841445 
L 208.309601 171.431124 
L 217.399654 166.839363 
L 226.489707 160.905996 
L 235.579761 155.728834 
L 244.669814 153.112707 
L 253.759867 148.042043 
L 262.84992 144.535497 
L 271.939973 142.410242 
L 281.030027 139.97114 
L 290.12008 137.144923 
L 299.210133 134.587904 
L 308.300186 132.424796 
L 317.390239 130.549073 
L 326.480293 128.317054 
L 335.570346 126.387486 
L 344.660399 124.128962 
L 353.750452 122.19229 
" style="fill:none;stroke:#9467bd;stroke-linecap:square;stroke-width:1.5;"/>
    <g clip-path="url(#p3dc8dc6ac3)">
     <use style="fill:#9467bd;stroke:#9467bd;" x="53.778697" xlink:href="#m60ebdbc28e" y="255.965817"/>
     <use style="fill:#9467bd;stroke:#9467bd;" x="62.86875" xlink:href="#m60ebdbc28e" y="234.585852"/>
     <use style="fill:#9467bd;stroke:#9467bd;" x="71.958803" xlink:href="#m60ebdbc28e" y="224.002828"/>
     <use style="fill:#9467bd;stroke:#9467bd;" x="81.048856" xlink:href="#m60ebdbc28e" y="222.387434"/>
     <use style="fill:#9467bd;stroke:#9467bd;" x="90.13891" xlink:href="#m60ebdbc28e" y="219.476737"/>
     <use style="fill:#9467bd;stroke:#9467bd;" x="99.228963" xlink:href="#m60ebdbc28e" y="218.155251"/>
     <use style="fill:#9467bd;stroke:#9467bd;" x="108.319016" xlink:href="#m60ebdbc28e" y="216.909321"/>
     <use style="fill:#9467bd;stroke:#9467bd;" x="117.409069" xlink:href="#m60ebdbc28e" y="212.535132"/>
     <use style="fill:#9467bd;stroke:#9467bd;" x="126.499122" xlink:href="#m60ebdbc28e" y="212.535132"/>
     <use style="fill:#9467bd;stroke:#9467bd;" x="135.589176" xlink:href="#m60ebdbc28e" y="206.513403"/>
     <use style="fill:#9467bd;stroke:#9467bd;" x="144.679229" xlink:href="#m60ebdbc28e" y="200.621656"/>
     <use style="fill:#9467bd;stroke:#9467bd;" x="153.769282" xlink:href="#m60ebdbc28e" y="197.426017"/>
     <use style="fill:#9467bd;stroke:#9467bd;" x="162.859335" xlink:href="#m60ebdbc28e" y="196.936157"/>
     <use style="fill:#9467bd;stroke:#9467bd;" x="171.949388" xlink:href="#m60ebdbc28e" y="187.937021"/>
     <use style="fill:#9467bd;stroke:#9467bd;" x="181.039441" xlink:href="#m60ebdbc28e" y="181.827042"/>
     <use style="fill:#9467bd;stroke:#9467bd;" x="190.129495" xlink:href="#m60ebdbc28e" y="178.466889"/>
     <use style="fill:#9467bd;stroke:#9467bd;" x="199.219548" xlink:href="#m60ebdbc28e" y="174.841445"/>
     <use style="fill:#9467bd;stroke:#9467bd;" x="208.309601" xlink:href="#m60ebdbc28e" y="171.431124"/>
     <use style="fill:#9467bd;stroke:#9467bd;" x="217.399654" xlink:href="#m60ebdbc28e" y="166.839363"/>
     <use style="fill:#9467bd;stroke:#9467bd;" x="226.489707" xlink:href="#m60ebdbc28e" y="160.905996"/>
     <use style="fill:#9467bd;stroke:#9467bd;" x="235.579761" xlink:href="#m60ebdbc28e" y="155.728834"/>
     <use style="fill:#9467bd;stroke:#9467bd;" x="244.669814" xlink:href="#m60ebdbc28e" y="153.112707"/>
     <use style="fill:#9467bd;stroke:#9467bd;" x="253.759867" xlink:href="#m60ebdbc28e" y="148.042043"/>
     <use style="fill:#9467bd;stroke:#9467bd;" x="262.84992" xlink:href="#m60ebdbc28e" y="144.535497"/>
     <use style="fill:#9467bd;stroke:#9467bd;" x="271.939973" xlink:href="#m60ebdbc28e" y="142.410242"/>
     <use style="fill:#9467bd;stroke:#9467bd;" x="281.030027" xlink:href="#m60ebdbc28e" y="139.97114"/>
     <use style="fill:#9467bd;stroke:#9467bd;" x="290.12008" xlink:href="#m60ebdbc28e" y="137.144923"/>
     <use style="fill:#9467bd;stroke:#9467bd;" x="299.210133" xlink:href="#m60ebdbc28e" y="134.587904"/>
     <use style="fill:#9467bd;stroke:#9467bd;" x="308.300186" xlink:href="#m60ebdbc28e" y="132.424796"/>
     <use style="fill:#9467bd;stroke:#9467bd;" x="317.390239" xlink:href="#m60ebdbc28e" y="130.549073"/>
     <use style="fill:#9467bd;stroke:#9467bd;" x="326.480293" xlink:href="#m60ebdbc28e" y="128.317054"/>
     <use style="fill:#9467bd;stroke:#9467bd;" x="335.570346" xlink:href="#m60ebdbc28e" y="126.387486"/>
     <use style="fill:#9467bd;stroke:#9467bd;" x="344.660399" xlink:href="#m60ebdbc28e" y="124.128962"/>
     <use style="fill:#9467bd;stroke:#9467bd;" x="353.750452" xlink:href="#m60ebdbc28e" y="122.19229"/>
    </g>
   </g>
  </g>
 </g>
 <defs>
  <clipPath id="p3dc8dc6ac3">
   <rect height="217.44" width="334.8" x="62.86875" y="22.318125"/>
  </clipPath>
 </defs>
</svg>
