<?xml version="1.0" encoding="utf-8" standalone="no"?>
<!DOCTYPE svg PUBLIC "-//W3C//DTD SVG 1.1//EN"
  "http://www.w3.org/Graphics/SVG/1.1/DTD/svg11.dtd">
<!-- Created with matplotlib (https://matplotlib.org/) -->
<svg height="288.38845pt" version="1.1" viewBox="0 0 413.044182 288.38845" width="413.044182pt" xmlns="http://www.w3.org/2000/svg" xmlns:xlink="http://www.w3.org/1999/xlink">
 <defs>
  <style type="text/css">
*{stroke-linecap:butt;stroke-linejoin:round;}
  </style>
 </defs>
 <g id="figure_1">
  <g id="patch_1">
   <path d="M 0 288.38845 
L 413.044182 288.38845 
L 413.044182 0 
L 0 0 
z
" style="fill:#ffffff;"/>
  </g>
  <g id="axes_1">
   <g id="patch_2">
    <path d="M 62.86875 239.758125 
L 397.66875 239.758125 
L 397.66875 22.318125 
L 62.86875 22.318125 
z
" style="fill:#ffffff;"/>
   </g>
   <g id="matplotlib.axis_1">
    <g id="xtick_1">
     <g id="line2d_1">
      <path clip-path="url(#p3c3b498bf7)" d="M 109.115337 239.758125 
L 109.115337 22.318125 
" style="fill:none;stroke:#b0b0b0;stroke-linecap:square;stroke-opacity:0.8;stroke-width:0.8;"/>
     </g>
     <g id="line2d_2">
      <defs>
       <path d="M 0 0 
L 0 3.5 
" id="m6033779ea7" style="stroke:#000000;stroke-width:0.8;"/>
      </defs>
      <g>
       <use style="stroke:#000000;stroke-width:0.8;" x="109.115337" xlink:href="#m6033779ea7" y="239.758125"/>
      </g>
     </g>
     <g id="text_1">
      <!-- Mar. -->
      <defs>
       <path d="M 9.8125 72.90625 
L 24.515625 72.90625 
L 43.109375 23.296875 
L 61.8125 72.90625 
L 76.515625 72.90625 
L 76.515625 0 
L 66.890625 0 
L 66.890625 64.015625 
L 48.09375 14.015625 
L 38.1875 14.015625 
L 19.390625 64.015625 
L 19.390625 0 
L 9.8125 0 
z
" id="DejaVuSans-77"/>
       <path d="M 34.28125 27.484375 
Q 23.390625 27.484375 19.1875 25 
Q 14.984375 22.515625 14.984375 16.5 
Q 14.984375 11.71875 18.140625 8.90625 
Q 21.296875 6.109375 26.703125 6.109375 
Q 34.1875 6.109375 38.703125 11.40625 
Q 43.21875 16.703125 43.21875 25.484375 
L 43.21875 27.484375 
z
M 52.203125 31.203125 
L 52.203125 0 
L 43.21875 0 
L 43.21875 8.296875 
Q 40.140625 3.328125 35.546875 0.953125 
Q 30.953125 -1.421875 24.3125 -1.421875 
Q 15.921875 -1.421875 10.953125 3.296875 
Q 6 8.015625 6 15.921875 
Q 6 25.140625 12.171875 29.828125 
Q 18.359375 34.515625 30.609375 34.515625 
L 43.21875 34.515625 
L 43.21875 35.40625 
Q 43.21875 41.609375 39.140625 45 
Q 35.0625 48.390625 27.6875 48.390625 
Q 23 48.390625 18.546875 47.265625 
Q 14.109375 46.140625 10.015625 43.890625 
L 10.015625 52.203125 
Q 14.9375 54.109375 19.578125 55.046875 
Q 24.21875 56 28.609375 56 
Q 40.484375 56 46.34375 49.84375 
Q 52.203125 43.703125 52.203125 31.203125 
z
" id="DejaVuSans-97"/>
       <path d="M 41.109375 46.296875 
Q 39.59375 47.171875 37.8125 47.578125 
Q 36.03125 48 33.890625 48 
Q 26.265625 48 22.1875 43.046875 
Q 18.109375 38.09375 18.109375 28.8125 
L 18.109375 0 
L 9.078125 0 
L 9.078125 54.6875 
L 18.109375 54.6875 
L 18.109375 46.1875 
Q 20.953125 51.171875 25.484375 53.578125 
Q 30.03125 56 36.53125 56 
Q 37.453125 56 38.578125 55.875 
Q 39.703125 55.765625 41.0625 55.515625 
z
" id="DejaVuSans-114"/>
       <path d="M 10.6875 12.40625 
L 21 12.40625 
L 21 0 
L 10.6875 0 
z
" id="DejaVuSans-46"/>
      </defs>
      <g transform="translate(98.099712 254.356563)scale(0.1 -0.1)">
       <use xlink:href="#DejaVuSans-77"/>
       <use x="86.279297" xlink:href="#DejaVuSans-97"/>
       <use x="147.558594" xlink:href="#DejaVuSans-114"/>
       <use x="188.53125" xlink:href="#DejaVuSans-46"/>
      </g>
      <!-- 15 -->
      <defs>
       <path d="M 12.40625 8.296875 
L 28.515625 8.296875 
L 28.515625 63.921875 
L 10.984375 60.40625 
L 10.984375 69.390625 
L 28.421875 72.90625 
L 38.28125 72.90625 
L 38.28125 8.296875 
L 54.390625 8.296875 
L 54.390625 0 
L 12.40625 0 
z
" id="DejaVuSans-49"/>
       <path d="M 10.796875 72.90625 
L 49.515625 72.90625 
L 49.515625 64.59375 
L 19.828125 64.59375 
L 19.828125 46.734375 
Q 21.96875 47.46875 24.109375 47.828125 
Q 26.265625 48.1875 28.421875 48.1875 
Q 40.625 48.1875 47.75 41.5 
Q 54.890625 34.8125 54.890625 23.390625 
Q 54.890625 11.625 47.5625 5.09375 
Q 40.234375 -1.421875 26.90625 -1.421875 
Q 22.3125 -1.421875 17.546875 -0.640625 
Q 12.796875 0.140625 7.71875 1.703125 
L 7.71875 11.625 
Q 12.109375 9.234375 16.796875 8.0625 
Q 21.484375 6.890625 26.703125 6.890625 
Q 35.15625 6.890625 40.078125 11.328125 
Q 45.015625 15.765625 45.015625 23.390625 
Q 45.015625 31 40.078125 35.4375 
Q 35.15625 39.890625 26.703125 39.890625 
Q 22.75 39.890625 18.8125 39.015625 
Q 14.890625 38.140625 10.796875 36.28125 
z
" id="DejaVuSans-53"/>
      </defs>
      <g transform="translate(102.752837 265.554375)scale(0.1 -0.1)">
       <use xlink:href="#DejaVuSans-49"/>
       <use x="63.623047" xlink:href="#DejaVuSans-53"/>
      </g>
     </g>
    </g>
    <g id="xtick_2">
     <g id="line2d_3">
      <path clip-path="url(#p3c3b498bf7)" d="M 163.069688 239.758125 
L 163.069688 22.318125 
" style="fill:none;stroke:#b0b0b0;stroke-linecap:square;stroke-opacity:0.8;stroke-width:0.8;"/>
     </g>
     <g id="line2d_4">
      <g>
       <use style="stroke:#000000;stroke-width:0.8;" x="163.069688" xlink:href="#m6033779ea7" y="239.758125"/>
      </g>
     </g>
     <g id="text_2">
      <!-- Mar. -->
      <g transform="translate(152.054063 254.356563)scale(0.1 -0.1)">
       <use xlink:href="#DejaVuSans-77"/>
       <use x="86.279297" xlink:href="#DejaVuSans-97"/>
       <use x="147.558594" xlink:href="#DejaVuSans-114"/>
       <use x="188.53125" xlink:href="#DejaVuSans-46"/>
      </g>
      <!-- 22 -->
      <defs>
       <path d="M 19.1875 8.296875 
L 53.609375 8.296875 
L 53.609375 0 
L 7.328125 0 
L 7.328125 8.296875 
Q 12.9375 14.109375 22.625 23.890625 
Q 32.328125 33.6875 34.8125 36.53125 
Q 39.546875 41.84375 41.421875 45.53125 
Q 43.3125 49.21875 43.3125 52.78125 
Q 43.3125 58.59375 39.234375 62.25 
Q 35.15625 65.921875 28.609375 65.921875 
Q 23.96875 65.921875 18.8125 64.3125 
Q 13.671875 62.703125 7.8125 59.421875 
L 7.8125 69.390625 
Q 13.765625 71.78125 18.9375 73 
Q 24.125 74.21875 28.421875 74.21875 
Q 39.75 74.21875 46.484375 68.546875 
Q 53.21875 62.890625 53.21875 53.421875 
Q 53.21875 48.921875 51.53125 44.890625 
Q 49.859375 40.875 45.40625 35.40625 
Q 44.1875 33.984375 37.640625 27.21875 
Q 31.109375 20.453125 19.1875 8.296875 
z
" id="DejaVuSans-50"/>
      </defs>
      <g transform="translate(156.707188 265.554375)scale(0.1 -0.1)">
       <use xlink:href="#DejaVuSans-50"/>
       <use x="63.623047" xlink:href="#DejaVuSans-50"/>
      </g>
     </g>
    </g>
    <g id="xtick_3">
     <g id="line2d_5">
      <path clip-path="url(#p3c3b498bf7)" d="M 240.147333 239.758125 
L 240.147333 22.318125 
" style="fill:none;stroke:#b0b0b0;stroke-linecap:square;stroke-opacity:0.8;stroke-width:0.8;"/>
     </g>
     <g id="line2d_6">
      <g>
       <use style="stroke:#000000;stroke-width:0.8;" x="240.147333" xlink:href="#m6033779ea7" y="239.758125"/>
      </g>
     </g>
     <g id="text_3">
      <!-- Apr. -->
      <defs>
       <path d="M 34.1875 63.1875 
L 20.796875 26.90625 
L 47.609375 26.90625 
z
M 28.609375 72.90625 
L 39.796875 72.90625 
L 67.578125 0 
L 57.328125 0 
L 50.6875 18.703125 
L 17.828125 18.703125 
L 11.1875 0 
L 0.78125 0 
z
" id="DejaVuSans-65"/>
       <path d="M 18.109375 8.203125 
L 18.109375 -20.796875 
L 9.078125 -20.796875 
L 9.078125 54.6875 
L 18.109375 54.6875 
L 18.109375 46.390625 
Q 20.953125 51.265625 25.265625 53.625 
Q 29.59375 56 35.59375 56 
Q 45.5625 56 51.78125 48.09375 
Q 58.015625 40.1875 58.015625 27.296875 
Q 58.015625 14.40625 51.78125 6.484375 
Q 45.5625 -1.421875 35.59375 -1.421875 
Q 29.59375 -1.421875 25.265625 0.953125 
Q 20.953125 3.328125 18.109375 8.203125 
z
M 48.6875 27.296875 
Q 48.6875 37.203125 44.609375 42.84375 
Q 40.53125 48.484375 33.40625 48.484375 
Q 26.265625 48.484375 22.1875 42.84375 
Q 18.109375 37.203125 18.109375 27.296875 
Q 18.109375 17.390625 22.1875 11.75 
Q 26.265625 6.109375 33.40625 6.109375 
Q 40.53125 6.109375 44.609375 11.75 
Q 48.6875 17.390625 48.6875 27.296875 
z
" id="DejaVuSans-112"/>
      </defs>
      <g transform="translate(229.915301 254.356563)scale(0.1 -0.1)">
       <use xlink:href="#DejaVuSans-65"/>
       <use x="68.408203" xlink:href="#DejaVuSans-112"/>
       <use x="131.884766" xlink:href="#DejaVuSans-114"/>
       <use x="172.857422" xlink:href="#DejaVuSans-46"/>
      </g>
      <!-- 01 -->
      <defs>
       <path d="M 31.78125 66.40625 
Q 24.171875 66.40625 20.328125 58.90625 
Q 16.5 51.421875 16.5 36.375 
Q 16.5 21.390625 20.328125 13.890625 
Q 24.171875 6.390625 31.78125 6.390625 
Q 39.453125 6.390625 43.28125 13.890625 
Q 47.125 21.390625 47.125 36.375 
Q 47.125 51.421875 43.28125 58.90625 
Q 39.453125 66.40625 31.78125 66.40625 
z
M 31.78125 74.21875 
Q 44.046875 74.21875 50.515625 64.515625 
Q 56.984375 54.828125 56.984375 36.375 
Q 56.984375 17.96875 50.515625 8.265625 
Q 44.046875 -1.421875 31.78125 -1.421875 
Q 19.53125 -1.421875 13.0625 8.265625 
Q 6.59375 17.96875 6.59375 36.375 
Q 6.59375 54.828125 13.0625 64.515625 
Q 19.53125 74.21875 31.78125 74.21875 
z
" id="DejaVuSans-48"/>
      </defs>
      <g transform="translate(233.784833 265.554375)scale(0.1 -0.1)">
       <use xlink:href="#DejaVuSans-48"/>
       <use x="63.623047" xlink:href="#DejaVuSans-49"/>
      </g>
     </g>
    </g>
    <g id="xtick_4">
     <g id="line2d_7">
      <path clip-path="url(#p3c3b498bf7)" d="M 294.101684 239.758125 
L 294.101684 22.318125 
" style="fill:none;stroke:#b0b0b0;stroke-linecap:square;stroke-opacity:0.8;stroke-width:0.8;"/>
     </g>
     <g id="line2d_8">
      <g>
       <use style="stroke:#000000;stroke-width:0.8;" x="294.101684" xlink:href="#m6033779ea7" y="239.758125"/>
      </g>
     </g>
     <g id="text_4">
      <!-- Apr. -->
      <g transform="translate(283.869653 254.356563)scale(0.1 -0.1)">
       <use xlink:href="#DejaVuSans-65"/>
       <use x="68.408203" xlink:href="#DejaVuSans-112"/>
       <use x="131.884766" xlink:href="#DejaVuSans-114"/>
       <use x="172.857422" xlink:href="#DejaVuSans-46"/>
      </g>
      <!-- 08 -->
      <defs>
       <path d="M 31.78125 34.625 
Q 24.75 34.625 20.71875 30.859375 
Q 16.703125 27.09375 16.703125 20.515625 
Q 16.703125 13.921875 20.71875 10.15625 
Q 24.75 6.390625 31.78125 6.390625 
Q 38.8125 6.390625 42.859375 10.171875 
Q 46.921875 13.96875 46.921875 20.515625 
Q 46.921875 27.09375 42.890625 30.859375 
Q 38.875 34.625 31.78125 34.625 
z
M 21.921875 38.8125 
Q 15.578125 40.375 12.03125 44.71875 
Q 8.5 49.078125 8.5 55.328125 
Q 8.5 64.0625 14.71875 69.140625 
Q 20.953125 74.21875 31.78125 74.21875 
Q 42.671875 74.21875 48.875 69.140625 
Q 55.078125 64.0625 55.078125 55.328125 
Q 55.078125 49.078125 51.53125 44.71875 
Q 48 40.375 41.703125 38.8125 
Q 48.828125 37.15625 52.796875 32.3125 
Q 56.78125 27.484375 56.78125 20.515625 
Q 56.78125 9.90625 50.3125 4.234375 
Q 43.84375 -1.421875 31.78125 -1.421875 
Q 19.734375 -1.421875 13.25 4.234375 
Q 6.78125 9.90625 6.78125 20.515625 
Q 6.78125 27.484375 10.78125 32.3125 
Q 14.796875 37.15625 21.921875 38.8125 
z
M 18.3125 54.390625 
Q 18.3125 48.734375 21.84375 45.5625 
Q 25.390625 42.390625 31.78125 42.390625 
Q 38.140625 42.390625 41.71875 45.5625 
Q 45.3125 48.734375 45.3125 54.390625 
Q 45.3125 60.0625 41.71875 63.234375 
Q 38.140625 66.40625 31.78125 66.40625 
Q 25.390625 66.40625 21.84375 63.234375 
Q 18.3125 60.0625 18.3125 54.390625 
z
" id="DejaVuSans-56"/>
      </defs>
      <g transform="translate(287.739184 265.554375)scale(0.1 -0.1)">
       <use xlink:href="#DejaVuSans-48"/>
       <use x="63.623047" xlink:href="#DejaVuSans-56"/>
      </g>
     </g>
    </g>
    <g id="xtick_5">
     <g id="line2d_9">
      <path clip-path="url(#p3c3b498bf7)" d="M 348.056035 239.758125 
L 348.056035 22.318125 
" style="fill:none;stroke:#b0b0b0;stroke-linecap:square;stroke-opacity:0.8;stroke-width:0.8;"/>
     </g>
     <g id="line2d_10">
      <g>
       <use style="stroke:#000000;stroke-width:0.8;" x="348.056035" xlink:href="#m6033779ea7" y="239.758125"/>
      </g>
     </g>
     <g id="text_5">
      <!-- Apr. -->
      <g transform="translate(337.824004 254.356563)scale(0.1 -0.1)">
       <use xlink:href="#DejaVuSans-65"/>
       <use x="68.408203" xlink:href="#DejaVuSans-112"/>
       <use x="131.884766" xlink:href="#DejaVuSans-114"/>
       <use x="172.857422" xlink:href="#DejaVuSans-46"/>
      </g>
      <!-- 15 -->
      <g transform="translate(341.693535 265.554375)scale(0.1 -0.1)">
       <use xlink:href="#DejaVuSans-49"/>
       <use x="63.623047" xlink:href="#DejaVuSans-53"/>
      </g>
     </g>
    </g>
   </g>
   <g id="matplotlib.axis_2">
    <g id="ytick_1">
     <g id="line2d_11">
      <path clip-path="url(#p3c3b498bf7)" d="M 62.86875 239.758125 
L 397.66875 239.758125 
" style="fill:none;stroke:#b0b0b0;stroke-linecap:square;stroke-opacity:0.8;stroke-width:0.8;"/>
     </g>
     <g id="line2d_12">
      <defs>
       <path d="M 0 0 
L -3.5 0 
" id="m82055708d4" style="stroke:#000000;stroke-width:0.8;"/>
      </defs>
      <g>
       <use style="stroke:#000000;stroke-width:0.8;" x="62.86875" xlink:href="#m82055708d4" y="239.758125"/>
      </g>
     </g>
     <g id="text_6">
      <!-- 2 -->
      <g transform="translate(49.50625 243.557344)scale(0.1 -0.1)">
       <use xlink:href="#DejaVuSans-50"/>
      </g>
     </g>
    </g>
    <g id="ytick_2">
     <g id="line2d_13">
      <path clip-path="url(#p3c3b498bf7)" d="M 62.86875 220.752145 
L 397.66875 220.752145 
" style="fill:none;stroke:#b0b0b0;stroke-linecap:square;stroke-opacity:0.8;stroke-width:0.8;"/>
     </g>
     <g id="line2d_14">
      <g>
       <use style="stroke:#000000;stroke-width:0.8;" x="62.86875" xlink:href="#m82055708d4" y="220.752145"/>
      </g>
     </g>
     <g id="text_7">
      <!-- 5 -->
      <g transform="translate(49.50625 224.551364)scale(0.1 -0.1)">
       <use xlink:href="#DejaVuSans-53"/>
      </g>
     </g>
    </g>
    <g id="ytick_3">
     <g id="line2d_15">
      <path clip-path="url(#p3c3b498bf7)" d="M 62.86875 206.374676 
L 397.66875 206.374676 
" style="fill:none;stroke:#b0b0b0;stroke-linecap:square;stroke-opacity:0.8;stroke-width:0.8;"/>
     </g>
     <g id="line2d_16">
      <g>
       <use style="stroke:#000000;stroke-width:0.8;" x="62.86875" xlink:href="#m82055708d4" y="206.374676"/>
      </g>
     </g>
     <g id="text_8">
      <!-- 10 -->
      <g transform="translate(43.14375 210.173895)scale(0.1 -0.1)">
       <use xlink:href="#DejaVuSans-49"/>
       <use x="63.623047" xlink:href="#DejaVuSans-48"/>
      </g>
     </g>
    </g>
    <g id="ytick_4">
     <g id="line2d_17">
      <path clip-path="url(#p3c3b498bf7)" d="M 62.86875 191.997207 
L 397.66875 191.997207 
" style="fill:none;stroke:#b0b0b0;stroke-linecap:square;stroke-opacity:0.8;stroke-width:0.8;"/>
     </g>
     <g id="line2d_18">
      <g>
       <use style="stroke:#000000;stroke-width:0.8;" x="62.86875" xlink:href="#m82055708d4" y="191.997207"/>
      </g>
     </g>
     <g id="text_9">
      <!-- 20 -->
      <g transform="translate(43.14375 195.796426)scale(0.1 -0.1)">
       <use xlink:href="#DejaVuSans-50"/>
       <use x="63.623047" xlink:href="#DejaVuSans-48"/>
      </g>
     </g>
    </g>
    <g id="ytick_5">
     <g id="line2d_19">
      <path clip-path="url(#p3c3b498bf7)" d="M 62.86875 172.991228 
L 397.66875 172.991228 
" style="fill:none;stroke:#b0b0b0;stroke-linecap:square;stroke-opacity:0.8;stroke-width:0.8;"/>
     </g>
     <g id="line2d_20">
      <g>
       <use style="stroke:#000000;stroke-width:0.8;" x="62.86875" xlink:href="#m82055708d4" y="172.991228"/>
      </g>
     </g>
     <g id="text_10">
      <!-- 50 -->
      <g transform="translate(43.14375 176.790446)scale(0.1 -0.1)">
       <use xlink:href="#DejaVuSans-53"/>
       <use x="63.623047" xlink:href="#DejaVuSans-48"/>
      </g>
     </g>
    </g>
    <g id="ytick_6">
     <g id="line2d_21">
      <path clip-path="url(#p3c3b498bf7)" d="M 62.86875 158.613759 
L 397.66875 158.613759 
" style="fill:none;stroke:#b0b0b0;stroke-linecap:square;stroke-opacity:0.8;stroke-width:0.8;"/>
     </g>
     <g id="line2d_22">
      <g>
       <use style="stroke:#000000;stroke-width:0.8;" x="62.86875" xlink:href="#m82055708d4" y="158.613759"/>
      </g>
     </g>
     <g id="text_11">
      <!-- 100 -->
      <g transform="translate(36.78125 162.412977)scale(0.1 -0.1)">
       <use xlink:href="#DejaVuSans-49"/>
       <use x="63.623047" xlink:href="#DejaVuSans-48"/>
       <use x="127.246094" xlink:href="#DejaVuSans-48"/>
      </g>
     </g>
    </g>
    <g id="ytick_7">
     <g id="line2d_23">
      <path clip-path="url(#p3c3b498bf7)" d="M 62.86875 144.23629 
L 397.66875 144.23629 
" style="fill:none;stroke:#b0b0b0;stroke-linecap:square;stroke-opacity:0.8;stroke-width:0.8;"/>
     </g>
     <g id="line2d_24">
      <g>
       <use style="stroke:#000000;stroke-width:0.8;" x="62.86875" xlink:href="#m82055708d4" y="144.23629"/>
      </g>
     </g>
     <g id="text_12">
      <!-- 200 -->
      <g transform="translate(36.78125 148.035509)scale(0.1 -0.1)">
       <use xlink:href="#DejaVuSans-50"/>
       <use x="63.623047" xlink:href="#DejaVuSans-48"/>
       <use x="127.246094" xlink:href="#DejaVuSans-48"/>
      </g>
     </g>
    </g>
    <g id="ytick_8">
     <g id="line2d_25">
      <path clip-path="url(#p3c3b498bf7)" d="M 62.86875 125.23031 
L 397.66875 125.23031 
" style="fill:none;stroke:#b0b0b0;stroke-linecap:square;stroke-opacity:0.8;stroke-width:0.8;"/>
     </g>
     <g id="line2d_26">
      <g>
       <use style="stroke:#000000;stroke-width:0.8;" x="62.86875" xlink:href="#m82055708d4" y="125.23031"/>
      </g>
     </g>
     <g id="text_13">
      <!-- 500 -->
      <g transform="translate(36.78125 129.029529)scale(0.1 -0.1)">
       <use xlink:href="#DejaVuSans-53"/>
       <use x="63.623047" xlink:href="#DejaVuSans-48"/>
       <use x="127.246094" xlink:href="#DejaVuSans-48"/>
      </g>
     </g>
    </g>
    <g id="ytick_9">
     <g id="line2d_27">
      <path clip-path="url(#p3c3b498bf7)" d="M 62.86875 110.852841 
L 397.66875 110.852841 
" style="fill:none;stroke:#b0b0b0;stroke-linecap:square;stroke-opacity:0.8;stroke-width:0.8;"/>
     </g>
     <g id="line2d_28">
      <g>
       <use style="stroke:#000000;stroke-width:0.8;" x="62.86875" xlink:href="#m82055708d4" y="110.852841"/>
      </g>
     </g>
     <g id="text_14">
      <!-- 1,000 -->
      <defs>
       <path d="M 11.71875 12.40625 
L 22.015625 12.40625 
L 22.015625 4 
L 14.015625 -11.625 
L 7.71875 -11.625 
L 11.71875 4 
z
" id="DejaVuSans-44"/>
      </defs>
      <g transform="translate(27.240625 114.65206)scale(0.1 -0.1)">
       <use xlink:href="#DejaVuSans-49"/>
       <use x="63.623047" xlink:href="#DejaVuSans-44"/>
       <use x="95.410156" xlink:href="#DejaVuSans-48"/>
       <use x="159.033203" xlink:href="#DejaVuSans-48"/>
       <use x="222.65625" xlink:href="#DejaVuSans-48"/>
      </g>
     </g>
    </g>
    <g id="ytick_10">
     <g id="line2d_29">
      <path clip-path="url(#p3c3b498bf7)" d="M 62.86875 96.475372 
L 397.66875 96.475372 
" style="fill:none;stroke:#b0b0b0;stroke-linecap:square;stroke-opacity:0.8;stroke-width:0.8;"/>
     </g>
     <g id="line2d_30">
      <g>
       <use style="stroke:#000000;stroke-width:0.8;" x="62.86875" xlink:href="#m82055708d4" y="96.475372"/>
      </g>
     </g>
     <g id="text_15">
      <!-- 2,000 -->
      <g transform="translate(27.240625 100.274591)scale(0.1 -0.1)">
       <use xlink:href="#DejaVuSans-50"/>
       <use x="63.623047" xlink:href="#DejaVuSans-44"/>
       <use x="95.410156" xlink:href="#DejaVuSans-48"/>
       <use x="159.033203" xlink:href="#DejaVuSans-48"/>
       <use x="222.65625" xlink:href="#DejaVuSans-48"/>
      </g>
     </g>
    </g>
    <g id="ytick_11">
     <g id="line2d_31">
      <path clip-path="url(#p3c3b498bf7)" d="M 62.86875 77.469392 
L 397.66875 77.469392 
" style="fill:none;stroke:#b0b0b0;stroke-linecap:square;stroke-opacity:0.8;stroke-width:0.8;"/>
     </g>
     <g id="line2d_32">
      <g>
       <use style="stroke:#000000;stroke-width:0.8;" x="62.86875" xlink:href="#m82055708d4" y="77.469392"/>
      </g>
     </g>
     <g id="text_16">
      <!-- 5,000 -->
      <g transform="translate(27.240625 81.268611)scale(0.1 -0.1)">
       <use xlink:href="#DejaVuSans-53"/>
       <use x="63.623047" xlink:href="#DejaVuSans-44"/>
       <use x="95.410156" xlink:href="#DejaVuSans-48"/>
       <use x="159.033203" xlink:href="#DejaVuSans-48"/>
       <use x="222.65625" xlink:href="#DejaVuSans-48"/>
      </g>
     </g>
    </g>
    <g id="ytick_12">
     <g id="line2d_33">
      <path clip-path="url(#p3c3b498bf7)" d="M 62.86875 63.091924 
L 397.66875 63.091924 
" style="fill:none;stroke:#b0b0b0;stroke-linecap:square;stroke-opacity:0.8;stroke-width:0.8;"/>
     </g>
     <g id="line2d_34">
      <g>
       <use style="stroke:#000000;stroke-width:0.8;" x="62.86875" xlink:href="#m82055708d4" y="63.091924"/>
      </g>
     </g>
     <g id="text_17">
      <!-- 10,000 -->
      <g transform="translate(20.878125 66.891142)scale(0.1 -0.1)">
       <use xlink:href="#DejaVuSans-49"/>
       <use x="63.623047" xlink:href="#DejaVuSans-48"/>
       <use x="127.246094" xlink:href="#DejaVuSans-44"/>
       <use x="159.033203" xlink:href="#DejaVuSans-48"/>
       <use x="222.65625" xlink:href="#DejaVuSans-48"/>
       <use x="286.279297" xlink:href="#DejaVuSans-48"/>
      </g>
     </g>
    </g>
    <g id="ytick_13">
     <g id="line2d_35">
      <path clip-path="url(#p3c3b498bf7)" d="M 62.86875 48.714455 
L 397.66875 48.714455 
" style="fill:none;stroke:#b0b0b0;stroke-linecap:square;stroke-opacity:0.8;stroke-width:0.8;"/>
     </g>
     <g id="line2d_36">
      <g>
       <use style="stroke:#000000;stroke-width:0.8;" x="62.86875" xlink:href="#m82055708d4" y="48.714455"/>
      </g>
     </g>
     <g id="text_18">
      <!-- 20,000 -->
      <g transform="translate(20.878125 52.513674)scale(0.1 -0.1)">
       <use xlink:href="#DejaVuSans-50"/>
       <use x="63.623047" xlink:href="#DejaVuSans-48"/>
       <use x="127.246094" xlink:href="#DejaVuSans-44"/>
       <use x="159.033203" xlink:href="#DejaVuSans-48"/>
       <use x="222.65625" xlink:href="#DejaVuSans-48"/>
       <use x="286.279297" xlink:href="#DejaVuSans-48"/>
      </g>
     </g>
    </g>
    <g id="ytick_14">
     <g id="line2d_37">
      <path clip-path="url(#p3c3b498bf7)" d="M 62.86875 29.708475 
L 397.66875 29.708475 
" style="fill:none;stroke:#b0b0b0;stroke-linecap:square;stroke-opacity:0.8;stroke-width:0.8;"/>
     </g>
     <g id="line2d_38">
      <g>
       <use style="stroke:#000000;stroke-width:0.8;" x="62.86875" xlink:href="#m82055708d4" y="29.708475"/>
      </g>
     </g>
     <g id="text_19">
      <!-- 50,000 -->
      <g transform="translate(20.878125 33.507694)scale(0.1 -0.1)">
       <use xlink:href="#DejaVuSans-53"/>
       <use x="63.623047" xlink:href="#DejaVuSans-48"/>
       <use x="127.246094" xlink:href="#DejaVuSans-44"/>
       <use x="159.033203" xlink:href="#DejaVuSans-48"/>
       <use x="222.65625" xlink:href="#DejaVuSans-48"/>
       <use x="286.279297" xlink:href="#DejaVuSans-48"/>
      </g>
     </g>
    </g>
    <g id="ytick_15">
     <g id="line2d_39">
      <defs>
       <path d="M 0 0 
L -2 0 
" id="m5c6d24c22b" style="stroke:#000000;stroke-width:0.6;"/>
      </defs>
      <g>
       <use style="stroke:#000000;stroke-width:0.6;" x="62.86875" xlink:href="#m5c6d24c22b" y="231.347845"/>
      </g>
     </g>
    </g>
    <g id="ytick_16">
     <g id="line2d_40">
      <g>
       <use style="stroke:#000000;stroke-width:0.6;" x="62.86875" xlink:href="#m5c6d24c22b" y="225.380656"/>
      </g>
     </g>
    </g>
    <g id="ytick_17">
     <g id="line2d_41">
      <g>
       <use style="stroke:#000000;stroke-width:0.6;" x="62.86875" xlink:href="#m5c6d24c22b" y="216.970376"/>
      </g>
     </g>
    </g>
    <g id="ytick_18">
     <g id="line2d_42">
      <g>
       <use style="stroke:#000000;stroke-width:0.6;" x="62.86875" xlink:href="#m5c6d24c22b" y="213.772936"/>
      </g>
     </g>
    </g>
    <g id="ytick_19">
     <g id="line2d_43">
      <g>
       <use style="stroke:#000000;stroke-width:0.6;" x="62.86875" xlink:href="#m5c6d24c22b" y="211.003187"/>
      </g>
     </g>
    </g>
    <g id="ytick_20">
     <g id="line2d_44">
      <g>
       <use style="stroke:#000000;stroke-width:0.6;" x="62.86875" xlink:href="#m5c6d24c22b" y="208.560096"/>
      </g>
     </g>
    </g>
    <g id="ytick_21">
     <g id="line2d_45">
      <g>
       <use style="stroke:#000000;stroke-width:0.6;" x="62.86875" xlink:href="#m5c6d24c22b" y="183.586927"/>
      </g>
     </g>
    </g>
    <g id="ytick_22">
     <g id="line2d_46">
      <g>
       <use style="stroke:#000000;stroke-width:0.6;" x="62.86875" xlink:href="#m5c6d24c22b" y="177.619739"/>
      </g>
     </g>
    </g>
    <g id="ytick_23">
     <g id="line2d_47">
      <g>
       <use style="stroke:#000000;stroke-width:0.6;" x="62.86875" xlink:href="#m5c6d24c22b" y="169.209459"/>
      </g>
     </g>
    </g>
    <g id="ytick_24">
     <g id="line2d_48">
      <g>
       <use style="stroke:#000000;stroke-width:0.6;" x="62.86875" xlink:href="#m5c6d24c22b" y="166.012018"/>
      </g>
     </g>
    </g>
    <g id="ytick_25">
     <g id="line2d_49">
      <g>
       <use style="stroke:#000000;stroke-width:0.6;" x="62.86875" xlink:href="#m5c6d24c22b" y="163.24227"/>
      </g>
     </g>
    </g>
    <g id="ytick_26">
     <g id="line2d_50">
      <g>
       <use style="stroke:#000000;stroke-width:0.6;" x="62.86875" xlink:href="#m5c6d24c22b" y="160.799178"/>
      </g>
     </g>
    </g>
    <g id="ytick_27">
     <g id="line2d_51">
      <g>
       <use style="stroke:#000000;stroke-width:0.6;" x="62.86875" xlink:href="#m5c6d24c22b" y="135.82601"/>
      </g>
     </g>
    </g>
    <g id="ytick_28">
     <g id="line2d_52">
      <g>
       <use style="stroke:#000000;stroke-width:0.6;" x="62.86875" xlink:href="#m5c6d24c22b" y="129.858821"/>
      </g>
     </g>
    </g>
    <g id="ytick_29">
     <g id="line2d_53">
      <g>
       <use style="stroke:#000000;stroke-width:0.6;" x="62.86875" xlink:href="#m5c6d24c22b" y="121.448541"/>
      </g>
     </g>
    </g>
    <g id="ytick_30">
     <g id="line2d_54">
      <g>
       <use style="stroke:#000000;stroke-width:0.6;" x="62.86875" xlink:href="#m5c6d24c22b" y="118.251101"/>
      </g>
     </g>
    </g>
    <g id="ytick_31">
     <g id="line2d_55">
      <g>
       <use style="stroke:#000000;stroke-width:0.6;" x="62.86875" xlink:href="#m5c6d24c22b" y="115.481352"/>
      </g>
     </g>
    </g>
    <g id="ytick_32">
     <g id="line2d_56">
      <g>
       <use style="stroke:#000000;stroke-width:0.6;" x="62.86875" xlink:href="#m5c6d24c22b" y="113.038261"/>
      </g>
     </g>
    </g>
    <g id="ytick_33">
     <g id="line2d_57">
      <g>
       <use style="stroke:#000000;stroke-width:0.6;" x="62.86875" xlink:href="#m5c6d24c22b" y="88.065092"/>
      </g>
     </g>
    </g>
    <g id="ytick_34">
     <g id="line2d_58">
      <g>
       <use style="stroke:#000000;stroke-width:0.6;" x="62.86875" xlink:href="#m5c6d24c22b" y="82.097904"/>
      </g>
     </g>
    </g>
    <g id="ytick_35">
     <g id="line2d_59">
      <g>
       <use style="stroke:#000000;stroke-width:0.6;" x="62.86875" xlink:href="#m5c6d24c22b" y="73.687623"/>
      </g>
     </g>
    </g>
    <g id="ytick_36">
     <g id="line2d_60">
      <g>
       <use style="stroke:#000000;stroke-width:0.6;" x="62.86875" xlink:href="#m5c6d24c22b" y="70.490183"/>
      </g>
     </g>
    </g>
    <g id="ytick_37">
     <g id="line2d_61">
      <g>
       <use style="stroke:#000000;stroke-width:0.6;" x="62.86875" xlink:href="#m5c6d24c22b" y="67.720435"/>
      </g>
     </g>
    </g>
    <g id="ytick_38">
     <g id="line2d_62">
      <g>
       <use style="stroke:#000000;stroke-width:0.6;" x="62.86875" xlink:href="#m5c6d24c22b" y="65.277343"/>
      </g>
     </g>
    </g>
    <g id="ytick_39">
     <g id="line2d_63">
      <g>
       <use style="stroke:#000000;stroke-width:0.6;" x="62.86875" xlink:href="#m5c6d24c22b" y="40.304175"/>
      </g>
     </g>
    </g>
    <g id="ytick_40">
     <g id="line2d_64">
      <g>
       <use style="stroke:#000000;stroke-width:0.6;" x="62.86875" xlink:href="#m5c6d24c22b" y="34.336986"/>
      </g>
     </g>
    </g>
    <g id="ytick_41">
     <g id="line2d_65">
      <g>
       <use style="stroke:#000000;stroke-width:0.6;" x="62.86875" xlink:href="#m5c6d24c22b" y="25.926706"/>
      </g>
     </g>
    </g>
    <g id="ytick_42">
     <g id="line2d_66">
      <g>
       <use style="stroke:#000000;stroke-width:0.6;" x="62.86875" xlink:href="#m5c6d24c22b" y="22.729266"/>
      </g>
     </g>
    </g>
    <g id="text_20">
     <!-- Total cases per million -->
     <defs>
      <path d="M -0.296875 72.90625 
L 61.375 72.90625 
L 61.375 64.59375 
L 35.5 64.59375 
L 35.5 0 
L 25.59375 0 
L 25.59375 64.59375 
L -0.296875 64.59375 
z
" id="DejaVuSans-84"/>
      <path d="M 30.609375 48.390625 
Q 23.390625 48.390625 19.1875 42.75 
Q 14.984375 37.109375 14.984375 27.296875 
Q 14.984375 17.484375 19.15625 11.84375 
Q 23.34375 6.203125 30.609375 6.203125 
Q 37.796875 6.203125 41.984375 11.859375 
Q 46.1875 17.53125 46.1875 27.296875 
Q 46.1875 37.015625 41.984375 42.703125 
Q 37.796875 48.390625 30.609375 48.390625 
z
M 30.609375 56 
Q 42.328125 56 49.015625 48.375 
Q 55.71875 40.765625 55.71875 27.296875 
Q 55.71875 13.875 49.015625 6.21875 
Q 42.328125 -1.421875 30.609375 -1.421875 
Q 18.84375 -1.421875 12.171875 6.21875 
Q 5.515625 13.875 5.515625 27.296875 
Q 5.515625 40.765625 12.171875 48.375 
Q 18.84375 56 30.609375 56 
z
" id="DejaVuSans-111"/>
      <path d="M 18.3125 70.21875 
L 18.3125 54.6875 
L 36.8125 54.6875 
L 36.8125 47.703125 
L 18.3125 47.703125 
L 18.3125 18.015625 
Q 18.3125 11.328125 20.140625 9.421875 
Q 21.96875 7.515625 27.59375 7.515625 
L 36.8125 7.515625 
L 36.8125 0 
L 27.59375 0 
Q 17.1875 0 13.234375 3.875 
Q 9.28125 7.765625 9.28125 18.015625 
L 9.28125 47.703125 
L 2.6875 47.703125 
L 2.6875 54.6875 
L 9.28125 54.6875 
L 9.28125 70.21875 
z
" id="DejaVuSans-116"/>
      <path d="M 9.421875 75.984375 
L 18.40625 75.984375 
L 18.40625 0 
L 9.421875 0 
z
" id="DejaVuSans-108"/>
      <path id="DejaVuSans-32"/>
      <path d="M 48.78125 52.59375 
L 48.78125 44.1875 
Q 44.96875 46.296875 41.140625 47.34375 
Q 37.3125 48.390625 33.40625 48.390625 
Q 24.65625 48.390625 19.8125 42.84375 
Q 14.984375 37.3125 14.984375 27.296875 
Q 14.984375 17.28125 19.8125 11.734375 
Q 24.65625 6.203125 33.40625 6.203125 
Q 37.3125 6.203125 41.140625 7.25 
Q 44.96875 8.296875 48.78125 10.40625 
L 48.78125 2.09375 
Q 45.015625 0.34375 40.984375 -0.53125 
Q 36.96875 -1.421875 32.421875 -1.421875 
Q 20.0625 -1.421875 12.78125 6.34375 
Q 5.515625 14.109375 5.515625 27.296875 
Q 5.515625 40.671875 12.859375 48.328125 
Q 20.21875 56 33.015625 56 
Q 37.15625 56 41.109375 55.140625 
Q 45.0625 54.296875 48.78125 52.59375 
z
" id="DejaVuSans-99"/>
      <path d="M 44.28125 53.078125 
L 44.28125 44.578125 
Q 40.484375 46.53125 36.375 47.5 
Q 32.28125 48.484375 27.875 48.484375 
Q 21.1875 48.484375 17.84375 46.4375 
Q 14.5 44.390625 14.5 40.28125 
Q 14.5 37.15625 16.890625 35.375 
Q 19.28125 33.59375 26.515625 31.984375 
L 29.59375 31.296875 
Q 39.15625 29.25 43.1875 25.515625 
Q 47.21875 21.78125 47.21875 15.09375 
Q 47.21875 7.46875 41.1875 3.015625 
Q 35.15625 -1.421875 24.609375 -1.421875 
Q 20.21875 -1.421875 15.453125 -0.5625 
Q 10.6875 0.296875 5.421875 2 
L 5.421875 11.28125 
Q 10.40625 8.6875 15.234375 7.390625 
Q 20.0625 6.109375 24.8125 6.109375 
Q 31.15625 6.109375 34.5625 8.28125 
Q 37.984375 10.453125 37.984375 14.40625 
Q 37.984375 18.0625 35.515625 20.015625 
Q 33.0625 21.96875 24.703125 23.78125 
L 21.578125 24.515625 
Q 13.234375 26.265625 9.515625 29.90625 
Q 5.8125 33.546875 5.8125 39.890625 
Q 5.8125 47.609375 11.28125 51.796875 
Q 16.75 56 26.8125 56 
Q 31.78125 56 36.171875 55.265625 
Q 40.578125 54.546875 44.28125 53.078125 
z
" id="DejaVuSans-115"/>
      <path d="M 56.203125 29.59375 
L 56.203125 25.203125 
L 14.890625 25.203125 
Q 15.484375 15.921875 20.484375 11.0625 
Q 25.484375 6.203125 34.421875 6.203125 
Q 39.59375 6.203125 44.453125 7.46875 
Q 49.3125 8.734375 54.109375 11.28125 
L 54.109375 2.78125 
Q 49.265625 0.734375 44.1875 -0.34375 
Q 39.109375 -1.421875 33.890625 -1.421875 
Q 20.796875 -1.421875 13.15625 6.1875 
Q 5.515625 13.8125 5.515625 26.8125 
Q 5.515625 40.234375 12.765625 48.109375 
Q 20.015625 56 32.328125 56 
Q 43.359375 56 49.78125 48.890625 
Q 56.203125 41.796875 56.203125 29.59375 
z
M 47.21875 32.234375 
Q 47.125 39.59375 43.09375 43.984375 
Q 39.0625 48.390625 32.421875 48.390625 
Q 24.90625 48.390625 20.390625 44.140625 
Q 15.875 39.890625 15.1875 32.171875 
z
" id="DejaVuSans-101"/>
      <path d="M 52 44.1875 
Q 55.375 50.25 60.0625 53.125 
Q 64.75 56 71.09375 56 
Q 79.640625 56 84.28125 50.015625 
Q 88.921875 44.046875 88.921875 33.015625 
L 88.921875 0 
L 79.890625 0 
L 79.890625 32.71875 
Q 79.890625 40.578125 77.09375 44.375 
Q 74.3125 48.1875 68.609375 48.1875 
Q 61.625 48.1875 57.5625 43.546875 
Q 53.515625 38.921875 53.515625 30.90625 
L 53.515625 0 
L 44.484375 0 
L 44.484375 32.71875 
Q 44.484375 40.625 41.703125 44.40625 
Q 38.921875 48.1875 33.109375 48.1875 
Q 26.21875 48.1875 22.15625 43.53125 
Q 18.109375 38.875 18.109375 30.90625 
L 18.109375 0 
L 9.078125 0 
L 9.078125 54.6875 
L 18.109375 54.6875 
L 18.109375 46.1875 
Q 21.1875 51.21875 25.484375 53.609375 
Q 29.78125 56 35.6875 56 
Q 41.65625 56 45.828125 52.96875 
Q 50 49.953125 52 44.1875 
z
" id="DejaVuSans-109"/>
      <path d="M 9.421875 54.6875 
L 18.40625 54.6875 
L 18.40625 0 
L 9.421875 0 
z
M 9.421875 75.984375 
L 18.40625 75.984375 
L 18.40625 64.59375 
L 9.421875 64.59375 
z
" id="DejaVuSans-105"/>
      <path d="M 54.890625 33.015625 
L 54.890625 0 
L 45.90625 0 
L 45.90625 32.71875 
Q 45.90625 40.484375 42.875 44.328125 
Q 39.84375 48.1875 33.796875 48.1875 
Q 26.515625 48.1875 22.3125 43.546875 
Q 18.109375 38.921875 18.109375 30.90625 
L 18.109375 0 
L 9.078125 0 
L 9.078125 54.6875 
L 18.109375 54.6875 
L 18.109375 46.1875 
Q 21.34375 51.125 25.703125 53.5625 
Q 30.078125 56 35.796875 56 
Q 45.21875 56 50.046875 50.171875 
Q 54.890625 44.34375 54.890625 33.015625 
z
" id="DejaVuSans-110"/>
     </defs>
     <g transform="translate(14.798438 187.37875)rotate(-90)scale(0.1 -0.1)">
      <use xlink:href="#DejaVuSans-84"/>
      <use x="60.818359" xlink:href="#DejaVuSans-111"/>
      <use x="122" xlink:href="#DejaVuSans-116"/>
      <use x="161.208984" xlink:href="#DejaVuSans-97"/>
      <use x="222.488281" xlink:href="#DejaVuSans-108"/>
      <use x="250.271484" xlink:href="#DejaVuSans-32"/>
      <use x="282.058594" xlink:href="#DejaVuSans-99"/>
      <use x="337.039062" xlink:href="#DejaVuSans-97"/>
      <use x="398.318359" xlink:href="#DejaVuSans-115"/>
      <use x="450.417969" xlink:href="#DejaVuSans-101"/>
      <use x="511.941406" xlink:href="#DejaVuSans-115"/>
      <use x="564.041016" xlink:href="#DejaVuSans-32"/>
      <use x="595.828125" xlink:href="#DejaVuSans-112"/>
      <use x="659.304688" xlink:href="#DejaVuSans-101"/>
      <use x="720.828125" xlink:href="#DejaVuSans-114"/>
      <use x="761.941406" xlink:href="#DejaVuSans-32"/>
      <use x="793.728516" xlink:href="#DejaVuSans-109"/>
      <use x="891.140625" xlink:href="#DejaVuSans-105"/>
      <use x="918.923828" xlink:href="#DejaVuSans-108"/>
      <use x="946.707031" xlink:href="#DejaVuSans-108"/>
      <use x="974.490234" xlink:href="#DejaVuSans-105"/>
      <use x="1002.273438" xlink:href="#DejaVuSans-111"/>
      <use x="1063.455078" xlink:href="#DejaVuSans-110"/>
     </g>
    </g>
   </g>
   <g id="line2d_67">
    <path clip-path="url(#p3c3b498bf7)" d="M 332.640506 63.03917 
L 340.348271 62.192038 
L 348.056035 61.344907 
L 355.7638 60.497776 
L 363.471564 59.650644 
" style="fill:none;stroke:#7f7f7f;stroke-dasharray:7.4,3.2;stroke-dashoffset:0;stroke-width:2;"/>
   </g>
   <g id="line2d_68">
    <path clip-path="url(#p3c3b498bf7)" d="M 332.640506 69.701802 
L 340.348271 68.692111 
L 348.056035 67.68242 
L 355.7638 66.672729 
L 363.471564 65.663038 
" style="fill:none;stroke:#7f7f7f;stroke-dasharray:7.4,3.2;stroke-dashoffset:0;stroke-width:2;"/>
   </g>
   <g id="line2d_69">
    <path clip-path="url(#p3c3b498bf7)" d="M 332.640506 104.851412 
L 340.348271 104.009366 
L 348.056035 103.16732 
L 355.7638 102.325274 
L 363.471564 101.483228 
" style="fill:none;stroke:#7f7f7f;stroke-dasharray:7.4,3.2;stroke-dashoffset:0;stroke-width:2;"/>
   </g>
   <g id="line2d_70">
    <path clip-path="url(#p3c3b498bf7)" d="M 332.640506 111.308566 
L 340.348271 110.460324 
L 348.056035 109.612081 
L 355.7638 108.763838 
L 363.471564 107.915595 
" style="fill:none;stroke:#7f7f7f;stroke-dasharray:7.4,3.2;stroke-dashoffset:0;stroke-width:2;"/>
   </g>
   <g id="line2d_71">
    <path clip-path="url(#p3c3b498bf7)" d="M 332.640506 123.557861 
L 340.348271 121.949125 
L 348.056035 120.340388 
L 355.7638 118.731652 
L 363.471564 117.122916 
" style="fill:none;stroke:#7f7f7f;stroke-dasharray:7.4,3.2;stroke-dashoffset:0;stroke-width:2;"/>
   </g>
   <g id="patch_3">
    <path d="M 62.86875 239.758125 
L 62.86875 22.318125 
" style="fill:none;stroke:#000000;stroke-linecap:square;stroke-linejoin:miter;stroke-width:0.8;"/>
   </g>
   <g id="patch_4">
    <path d="M 397.66875 239.758125 
L 397.66875 22.318125 
" style="fill:none;stroke:#000000;stroke-linecap:square;stroke-linejoin:miter;stroke-width:0.8;"/>
   </g>
   <g id="patch_5">
    <path d="M 62.86875 239.758125 
L 397.66875 239.758125 
" style="fill:none;stroke:#000000;stroke-linecap:square;stroke-linejoin:miter;stroke-width:0.8;"/>
   </g>
   <g id="patch_6">
    <path d="M 62.86875 22.318125 
L 397.66875 22.318125 
" style="fill:none;stroke:#000000;stroke-linecap:square;stroke-linejoin:miter;stroke-width:0.8;"/>
   </g>
   <g id="text_21">
    <!-- © Scott Sievert -->
    <defs>
     <path d="M 50 72.515625 
Q 57.421875 72.515625 63.84375 69.828125 
Q 70.265625 67.140625 75.59375 61.8125 
Q 80.90625 56.5 83.546875 50.09375 
Q 86.1875 43.703125 86.1875 36.1875 
Q 86.1875 28.765625 83.546875 22.390625 
Q 80.90625 16.015625 75.59375 10.6875 
Q 70.265625 5.375 63.84375 2.6875 
Q 57.421875 0 50 0 
Q 42.578125 0 36.15625 2.6875 
Q 29.734375 5.375 24.421875 10.6875 
Q 19.09375 16.015625 16.453125 22.390625 
Q 13.8125 28.765625 13.8125 36.1875 
Q 13.8125 43.703125 16.453125 50.09375 
Q 19.09375 56.5 24.421875 61.8125 
Q 29.734375 67.140625 36.15625 69.828125 
Q 42.578125 72.515625 50 72.515625 
z
M 50 67.484375 
Q 43.609375 67.484375 38.078125 65.1875 
Q 32.5625 62.890625 27.984375 58.296875 
Q 23.390625 53.71875 21.046875 48.125 
Q 18.703125 42.53125 18.703125 36.1875 
Q 18.703125 29.890625 21.046875 24.34375 
Q 23.390625 18.796875 27.984375 14.203125 
Q 32.5625 9.625 38.078125 7.296875 
Q 43.609375 4.984375 50 4.984375 
Q 56.453125 4.984375 61.984375 7.296875 
Q 67.53125 9.625 72.125 14.203125 
Q 76.65625 18.75 78.921875 24.265625 
Q 81.203125 29.78125 81.203125 36.1875 
Q 81.203125 42.671875 78.90625 48.21875 
Q 76.609375 53.765625 72.125 58.296875 
Q 67.53125 62.890625 61.984375 65.1875 
Q 56.453125 67.484375 50 67.484375 
z
M 64.59375 55.515625 
L 64.59375 49.21875 
Q 61.375 50.828125 58.203125 51.609375 
Q 55.03125 52.390625 51.8125 52.390625 
Q 44.53125 52.390625 40.453125 48.109375 
Q 36.375 43.84375 36.375 36.1875 
Q 36.375 28.421875 40.546875 24.171875 
Q 44.734375 19.921875 52.296875 19.921875 
Q 55.421875 19.921875 58.390625 20.671875 
Q 61.375 21.4375 64.59375 23.09375 
L 64.59375 16.890625 
Q 61.328125 15.484375 57.984375 14.796875 
Q 54.640625 14.109375 51.21875 14.109375 
Q 40.671875 14.109375 34.546875 20.0625 
Q 28.421875 26.03125 28.421875 36.1875 
Q 28.421875 46.390625 34.546875 52.296875 
Q 40.671875 58.203125 51.21875 58.203125 
Q 54.78125 58.203125 58.09375 57.515625 
Q 61.421875 56.84375 64.59375 55.515625 
z
" id="DejaVuSans-169"/>
     <path d="M 53.515625 70.515625 
L 53.515625 60.890625 
Q 47.90625 63.578125 42.921875 64.890625 
Q 37.9375 66.21875 33.296875 66.21875 
Q 25.25 66.21875 20.875 63.09375 
Q 16.5 59.96875 16.5 54.203125 
Q 16.5 49.359375 19.40625 46.890625 
Q 22.3125 44.4375 30.421875 42.921875 
L 36.375 41.703125 
Q 47.40625 39.59375 52.65625 34.296875 
Q 57.90625 29 57.90625 20.125 
Q 57.90625 9.515625 50.796875 4.046875 
Q 43.703125 -1.421875 29.984375 -1.421875 
Q 24.8125 -1.421875 18.96875 -0.25 
Q 13.140625 0.921875 6.890625 3.21875 
L 6.890625 13.375 
Q 12.890625 10.015625 18.65625 8.296875 
Q 24.421875 6.59375 29.984375 6.59375 
Q 38.421875 6.59375 43.015625 9.90625 
Q 47.609375 13.234375 47.609375 19.390625 
Q 47.609375 24.75 44.3125 27.78125 
Q 41.015625 30.8125 33.5 32.328125 
L 27.484375 33.5 
Q 16.453125 35.6875 11.515625 40.375 
Q 6.59375 45.0625 6.59375 53.421875 
Q 6.59375 63.09375 13.40625 68.65625 
Q 20.21875 74.21875 32.171875 74.21875 
Q 37.3125 74.21875 42.625 73.28125 
Q 47.953125 72.359375 53.515625 70.515625 
z
" id="DejaVuSans-83"/>
     <path d="M 2.984375 54.6875 
L 12.5 54.6875 
L 29.59375 8.796875 
L 46.6875 54.6875 
L 56.203125 54.6875 
L 35.6875 0 
L 23.484375 0 
z
" id="DejaVuSans-118"/>
    </defs>
    <g style="opacity:0.3;" transform="translate(328.29887 279.108762)scale(0.1 -0.1)">
     <use xlink:href="#DejaVuSans-169"/>
     <use x="100" xlink:href="#DejaVuSans-32"/>
     <use x="131.787109" xlink:href="#DejaVuSans-83"/>
     <use x="195.263672" xlink:href="#DejaVuSans-99"/>
     <use x="250.244141" xlink:href="#DejaVuSans-111"/>
     <use x="311.425781" xlink:href="#DejaVuSans-116"/>
     <use x="350.634766" xlink:href="#DejaVuSans-116"/>
     <use x="389.84375" xlink:href="#DejaVuSans-32"/>
     <use x="421.630859" xlink:href="#DejaVuSans-83"/>
     <use x="485.107422" xlink:href="#DejaVuSans-105"/>
     <use x="512.890625" xlink:href="#DejaVuSans-101"/>
     <use x="574.414062" xlink:href="#DejaVuSans-118"/>
     <use x="633.59375" xlink:href="#DejaVuSans-101"/>
     <use x="695.117188" xlink:href="#DejaVuSans-114"/>
     <use x="736.230469" xlink:href="#DejaVuSans-116"/>
    </g>
   </g>
   <g id="text_22">
    <!-- State infection rates -->
    <defs>
     <path d="M 37.109375 75.984375 
L 37.109375 68.5 
L 28.515625 68.5 
Q 23.6875 68.5 21.796875 66.546875 
Q 19.921875 64.59375 19.921875 59.515625 
L 19.921875 54.6875 
L 34.71875 54.6875 
L 34.71875 47.703125 
L 19.921875 47.703125 
L 19.921875 0 
L 10.890625 0 
L 10.890625 47.703125 
L 2.296875 47.703125 
L 2.296875 54.6875 
L 10.890625 54.6875 
L 10.890625 58.5 
Q 10.890625 67.625 15.140625 71.796875 
Q 19.390625 75.984375 28.609375 75.984375 
z
" id="DejaVuSans-102"/>
    </defs>
    <g transform="translate(169.194375 16.318125)scale(0.12 -0.12)">
     <use xlink:href="#DejaVuSans-83"/>
     <use x="63.476562" xlink:href="#DejaVuSans-116"/>
     <use x="102.685547" xlink:href="#DejaVuSans-97"/>
     <use x="163.964844" xlink:href="#DejaVuSans-116"/>
     <use x="203.173828" xlink:href="#DejaVuSans-101"/>
     <use x="264.697266" xlink:href="#DejaVuSans-32"/>
     <use x="296.484375" xlink:href="#DejaVuSans-105"/>
     <use x="324.267578" xlink:href="#DejaVuSans-110"/>
     <use x="387.646484" xlink:href="#DejaVuSans-102"/>
     <use x="422.851562" xlink:href="#DejaVuSans-101"/>
     <use x="484.375" xlink:href="#DejaVuSans-99"/>
     <use x="539.355469" xlink:href="#DejaVuSans-116"/>
     <use x="578.564453" xlink:href="#DejaVuSans-105"/>
     <use x="606.347656" xlink:href="#DejaVuSans-111"/>
     <use x="667.529297" xlink:href="#DejaVuSans-110"/>
     <use x="730.908203" xlink:href="#DejaVuSans-32"/>
     <use x="762.695312" xlink:href="#DejaVuSans-114"/>
     <use x="803.808594" xlink:href="#DejaVuSans-97"/>
     <use x="865.087891" xlink:href="#DejaVuSans-116"/>
     <use x="904.296875" xlink:href="#DejaVuSans-101"/>
     <use x="965.820312" xlink:href="#DejaVuSans-115"/>
    </g>
   </g>
   <g id="legend_1">
    <g id="patch_7">
     <path d="M 272.401563 234.758125 
L 390.66875 234.758125 
Q 392.66875 234.758125 392.66875 232.758125 
L 392.66875 145.6675 
Q 392.66875 143.6675 390.66875 143.6675 
L 272.401563 143.6675 
Q 270.401563 143.6675 270.401563 145.6675 
L 270.401563 232.758125 
Q 270.401563 234.758125 272.401563 234.758125 
z
" style="fill:#ffffff;opacity:0.8;stroke:#cccccc;stroke-linejoin:miter;"/>
    </g>
    <g id="text_23">
     <!-- State (cases in 7 days) -->
     <defs>
      <path d="M 31 75.875 
Q 24.46875 64.65625 21.28125 53.65625 
Q 18.109375 42.671875 18.109375 31.390625 
Q 18.109375 20.125 21.3125 9.0625 
Q 24.515625 -2 31 -13.1875 
L 23.1875 -13.1875 
Q 15.875 -1.703125 12.234375 9.375 
Q 8.59375 20.453125 8.59375 31.390625 
Q 8.59375 42.28125 12.203125 53.3125 
Q 15.828125 64.359375 23.1875 75.875 
z
" id="DejaVuSans-40"/>
      <path d="M 8.203125 72.90625 
L 55.078125 72.90625 
L 55.078125 68.703125 
L 28.609375 0 
L 18.3125 0 
L 43.21875 64.59375 
L 8.203125 64.59375 
z
" id="DejaVuSans-55"/>
      <path d="M 45.40625 46.390625 
L 45.40625 75.984375 
L 54.390625 75.984375 
L 54.390625 0 
L 45.40625 0 
L 45.40625 8.203125 
Q 42.578125 3.328125 38.25 0.953125 
Q 33.9375 -1.421875 27.875 -1.421875 
Q 17.96875 -1.421875 11.734375 6.484375 
Q 5.515625 14.40625 5.515625 27.296875 
Q 5.515625 40.1875 11.734375 48.09375 
Q 17.96875 56 27.875 56 
Q 33.9375 56 38.25 53.625 
Q 42.578125 51.265625 45.40625 46.390625 
z
M 14.796875 27.296875 
Q 14.796875 17.390625 18.875 11.75 
Q 22.953125 6.109375 30.078125 6.109375 
Q 37.203125 6.109375 41.296875 11.75 
Q 45.40625 17.390625 45.40625 27.296875 
Q 45.40625 37.203125 41.296875 42.84375 
Q 37.203125 48.484375 30.078125 48.484375 
Q 22.953125 48.484375 18.875 42.84375 
Q 14.796875 37.203125 14.796875 27.296875 
z
" id="DejaVuSans-100"/>
      <path d="M 32.171875 -5.078125 
Q 28.375 -14.84375 24.75 -17.8125 
Q 21.140625 -20.796875 15.09375 -20.796875 
L 7.90625 -20.796875 
L 7.90625 -13.28125 
L 13.1875 -13.28125 
Q 16.890625 -13.28125 18.9375 -11.515625 
Q 21 -9.765625 23.484375 -3.21875 
L 25.09375 0.875 
L 2.984375 54.6875 
L 12.5 54.6875 
L 29.59375 11.921875 
L 46.6875 54.6875 
L 56.203125 54.6875 
z
" id="DejaVuSans-121"/>
      <path d="M 8.015625 75.875 
L 15.828125 75.875 
Q 23.140625 64.359375 26.78125 53.3125 
Q 30.421875 42.28125 30.421875 31.390625 
Q 30.421875 20.453125 26.78125 9.375 
Q 23.140625 -1.703125 15.828125 -13.1875 
L 8.015625 -13.1875 
Q 14.5 -2 17.703125 9.0625 
Q 20.90625 20.125 20.90625 31.390625 
Q 20.90625 42.671875 17.703125 53.65625 
Q 14.5 64.65625 8.015625 75.875 
z
" id="DejaVuSans-41"/>
     </defs>
     <g transform="translate(274.401563 155.265938)scale(0.1 -0.1)">
      <use xlink:href="#DejaVuSans-83"/>
      <use x="63.476562" xlink:href="#DejaVuSans-116"/>
      <use x="102.685547" xlink:href="#DejaVuSans-97"/>
      <use x="163.964844" xlink:href="#DejaVuSans-116"/>
      <use x="203.173828" xlink:href="#DejaVuSans-101"/>
      <use x="264.697266" xlink:href="#DejaVuSans-32"/>
      <use x="296.484375" xlink:href="#DejaVuSans-40"/>
      <use x="335.498047" xlink:href="#DejaVuSans-99"/>
      <use x="390.478516" xlink:href="#DejaVuSans-97"/>
      <use x="451.757812" xlink:href="#DejaVuSans-115"/>
      <use x="503.857422" xlink:href="#DejaVuSans-101"/>
      <use x="565.380859" xlink:href="#DejaVuSans-115"/>
      <use x="617.480469" xlink:href="#DejaVuSans-32"/>
      <use x="649.267578" xlink:href="#DejaVuSans-105"/>
      <use x="677.050781" xlink:href="#DejaVuSans-110"/>
      <use x="740.429688" xlink:href="#DejaVuSans-32"/>
      <use x="772.216797" xlink:href="#DejaVuSans-55"/>
      <use x="835.839844" xlink:href="#DejaVuSans-32"/>
      <use x="867.626953" xlink:href="#DejaVuSans-100"/>
      <use x="931.103516" xlink:href="#DejaVuSans-97"/>
      <use x="992.382812" xlink:href="#DejaVuSans-121"/>
      <use x="1051.5625" xlink:href="#DejaVuSans-115"/>
      <use x="1103.662109" xlink:href="#DejaVuSans-41"/>
     </g>
    </g>
    <g id="line2d_72">
     <path d="M 292.435156 166.444063 
L 312.435156 166.444063 
" style="fill:none;stroke:#1f77b4;stroke-linecap:square;stroke-width:1.5;"/>
    </g>
    <g id="line2d_73">
     <defs>
      <path d="M 0 3 
C 0.795609 3 1.55874 2.683901 2.12132 2.12132 
C 2.683901 1.55874 3 0.795609 3 0 
C 3 -0.795609 2.683901 -1.55874 2.12132 -2.12132 
C 1.55874 -2.683901 0.795609 -3 0 -3 
C -0.795609 -3 -1.55874 -2.683901 -2.12132 -2.12132 
C -2.683901 -1.55874 -3 -0.795609 -3 0 
C -3 0.795609 -2.683901 1.55874 -2.12132 2.12132 
C -1.55874 2.683901 -0.795609 3 0 3 
z
" id="mbe223005fc" style="stroke:#1f77b4;"/>
     </defs>
     <g>
      <use style="fill:#1f77b4;stroke:#1f77b4;" x="302.435156" xlink:href="#mbe223005fc" y="166.444063"/>
     </g>
    </g>
    <g id="text_24">
     <!-- NY (1.3$\times$) -->
     <defs>
      <path d="M 9.8125 72.90625 
L 23.09375 72.90625 
L 55.421875 11.921875 
L 55.421875 72.90625 
L 64.984375 72.90625 
L 64.984375 0 
L 51.703125 0 
L 19.390625 60.984375 
L 19.390625 0 
L 9.8125 0 
z
" id="DejaVuSans-78"/>
      <path d="M -0.203125 72.90625 
L 10.40625 72.90625 
L 30.609375 42.921875 
L 50.6875 72.90625 
L 61.28125 72.90625 
L 35.5 34.71875 
L 35.5 0 
L 25.59375 0 
L 25.59375 34.71875 
z
" id="DejaVuSans-89"/>
      <path d="M 40.578125 39.3125 
Q 47.65625 37.796875 51.625 33 
Q 55.609375 28.21875 55.609375 21.1875 
Q 55.609375 10.40625 48.1875 4.484375 
Q 40.765625 -1.421875 27.09375 -1.421875 
Q 22.515625 -1.421875 17.65625 -0.515625 
Q 12.796875 0.390625 7.625 2.203125 
L 7.625 11.71875 
Q 11.71875 9.328125 16.59375 8.109375 
Q 21.484375 6.890625 26.8125 6.890625 
Q 36.078125 6.890625 40.9375 10.546875 
Q 45.796875 14.203125 45.796875 21.1875 
Q 45.796875 27.640625 41.28125 31.265625 
Q 36.765625 34.90625 28.71875 34.90625 
L 20.21875 34.90625 
L 20.21875 43.015625 
L 29.109375 43.015625 
Q 36.375 43.015625 40.234375 45.921875 
Q 44.09375 48.828125 44.09375 54.296875 
Q 44.09375 59.90625 40.109375 62.90625 
Q 36.140625 65.921875 28.71875 65.921875 
Q 24.65625 65.921875 20.015625 65.03125 
Q 15.375 64.15625 9.8125 62.3125 
L 9.8125 71.09375 
Q 15.4375 72.65625 20.34375 73.4375 
Q 25.25 74.21875 29.59375 74.21875 
Q 40.828125 74.21875 47.359375 69.109375 
Q 53.90625 64.015625 53.90625 55.328125 
Q 53.90625 49.265625 50.4375 45.09375 
Q 46.96875 40.921875 40.578125 39.3125 
z
" id="DejaVuSans-51"/>
      <path d="M 70.125 53.71875 
L 47.796875 31.296875 
L 70.125 8.984375 
L 64.3125 3.078125 
L 41.890625 25.484375 
L 19.484375 3.078125 
L 13.71875 8.984375 
L 35.984375 31.296875 
L 13.71875 53.71875 
L 19.484375 59.625 
L 41.890625 37.203125 
L 64.3125 59.625 
z
" id="DejaVuSans-215"/>
     </defs>
     <g transform="translate(320.435156 169.944063)scale(0.1 -0.1)">
      <use transform="translate(0 0.125)" xlink:href="#DejaVuSans-78"/>
      <use transform="translate(74.804688 0.125)" xlink:href="#DejaVuSans-89"/>
      <use transform="translate(135.888672 0.125)" xlink:href="#DejaVuSans-32"/>
      <use transform="translate(167.675781 0.125)" xlink:href="#DejaVuSans-40"/>
      <use transform="translate(206.689453 0.125)" xlink:href="#DejaVuSans-49"/>
      <use transform="translate(270.3125 0.125)" xlink:href="#DejaVuSans-46"/>
      <use transform="translate(302.099609 0.125)" xlink:href="#DejaVuSans-51"/>
      <use transform="translate(365.722656 0.125)" xlink:href="#DejaVuSans-215"/>
      <use transform="translate(449.511719 0.125)" xlink:href="#DejaVuSans-41"/>
     </g>
    </g>
    <g id="line2d_74">
     <path d="M 292.435156 181.12375 
L 312.435156 181.12375 
" style="fill:none;stroke:#ff7f0e;stroke-linecap:square;stroke-width:1.5;"/>
    </g>
    <g id="line2d_75">
     <defs>
      <path d="M 0 3 
C 0.795609 3 1.55874 2.683901 2.12132 2.12132 
C 2.683901 1.55874 3 0.795609 3 0 
C 3 -0.795609 2.683901 -1.55874 2.12132 -2.12132 
C 1.55874 -2.683901 0.795609 -3 0 -3 
C -0.795609 -3 -1.55874 -2.683901 -2.12132 -2.12132 
C -2.683901 -1.55874 -3 -0.795609 -3 0 
C -3 0.795609 -2.683901 1.55874 -2.12132 2.12132 
C -1.55874 2.683901 -0.795609 3 0 3 
z
" id="me8888c062f" style="stroke:#ff7f0e;"/>
     </defs>
     <g>
      <use style="fill:#ff7f0e;stroke:#ff7f0e;" x="302.435156" xlink:href="#me8888c062f" y="181.12375"/>
     </g>
    </g>
    <g id="text_25">
     <!-- NJ (1.4$\times$) -->
     <defs>
      <path d="M 9.8125 72.90625 
L 19.671875 72.90625 
L 19.671875 5.078125 
Q 19.671875 -8.109375 14.671875 -14.0625 
Q 9.671875 -20.015625 -1.421875 -20.015625 
L -5.171875 -20.015625 
L -5.171875 -11.71875 
L -2.09375 -11.71875 
Q 4.4375 -11.71875 7.125 -8.046875 
Q 9.8125 -4.390625 9.8125 5.078125 
z
" id="DejaVuSans-74"/>
      <path d="M 37.796875 64.3125 
L 12.890625 25.390625 
L 37.796875 25.390625 
z
M 35.203125 72.90625 
L 47.609375 72.90625 
L 47.609375 25.390625 
L 58.015625 25.390625 
L 58.015625 17.1875 
L 47.609375 17.1875 
L 47.609375 0 
L 37.796875 0 
L 37.796875 17.1875 
L 4.890625 17.1875 
L 4.890625 26.703125 
z
" id="DejaVuSans-52"/>
     </defs>
     <g transform="translate(320.435156 184.62375)scale(0.1 -0.1)">
      <use transform="translate(0 0.125)" xlink:href="#DejaVuSans-78"/>
      <use transform="translate(74.804688 0.125)" xlink:href="#DejaVuSans-74"/>
      <use transform="translate(104.296875 0.125)" xlink:href="#DejaVuSans-32"/>
      <use transform="translate(136.083984 0.125)" xlink:href="#DejaVuSans-40"/>
      <use transform="translate(175.097656 0.125)" xlink:href="#DejaVuSans-49"/>
      <use transform="translate(238.720703 0.125)" xlink:href="#DejaVuSans-46"/>
      <use transform="translate(270.507812 0.125)" xlink:href="#DejaVuSans-52"/>
      <use transform="translate(334.130859 0.125)" xlink:href="#DejaVuSans-215"/>
      <use transform="translate(417.919922 0.125)" xlink:href="#DejaVuSans-41"/>
     </g>
    </g>
    <g id="line2d_76">
     <path d="M 292.435156 195.822188 
L 312.435156 195.822188 
" style="fill:none;stroke:#2ca02c;stroke-linecap:square;stroke-width:1.5;"/>
    </g>
    <g id="line2d_77">
     <defs>
      <path d="M 0 3 
C 0.795609 3 1.55874 2.683901 2.12132 2.12132 
C 2.683901 1.55874 3 0.795609 3 0 
C 3 -0.795609 2.683901 -1.55874 2.12132 -2.12132 
C 1.55874 -2.683901 0.795609 -3 0 -3 
C -0.795609 -3 -1.55874 -2.683901 -2.12132 -2.12132 
C -2.683901 -1.55874 -3 -0.795609 -3 0 
C -3 0.795609 -2.683901 1.55874 -2.12132 2.12132 
C -1.55874 2.683901 -0.795609 3 0 3 
z
" id="m4473ab2346" style="stroke:#2ca02c;"/>
     </defs>
     <g>
      <use style="fill:#2ca02c;stroke:#2ca02c;" x="302.435156" xlink:href="#m4473ab2346" y="195.822188"/>
     </g>
    </g>
    <g id="text_26">
     <!-- CO (1.3$\times$) -->
     <defs>
      <path d="M 64.40625 67.28125 
L 64.40625 56.890625 
Q 59.421875 61.53125 53.78125 63.8125 
Q 48.140625 66.109375 41.796875 66.109375 
Q 29.296875 66.109375 22.65625 58.46875 
Q 16.015625 50.828125 16.015625 36.375 
Q 16.015625 21.96875 22.65625 14.328125 
Q 29.296875 6.6875 41.796875 6.6875 
Q 48.140625 6.6875 53.78125 8.984375 
Q 59.421875 11.28125 64.40625 15.921875 
L 64.40625 5.609375 
Q 59.234375 2.09375 53.4375 0.328125 
Q 47.65625 -1.421875 41.21875 -1.421875 
Q 24.65625 -1.421875 15.125 8.703125 
Q 5.609375 18.84375 5.609375 36.375 
Q 5.609375 53.953125 15.125 64.078125 
Q 24.65625 74.21875 41.21875 74.21875 
Q 47.75 74.21875 53.53125 72.484375 
Q 59.328125 70.75 64.40625 67.28125 
z
" id="DejaVuSans-67"/>
      <path d="M 39.40625 66.21875 
Q 28.65625 66.21875 22.328125 58.203125 
Q 16.015625 50.203125 16.015625 36.375 
Q 16.015625 22.609375 22.328125 14.59375 
Q 28.65625 6.59375 39.40625 6.59375 
Q 50.140625 6.59375 56.421875 14.59375 
Q 62.703125 22.609375 62.703125 36.375 
Q 62.703125 50.203125 56.421875 58.203125 
Q 50.140625 66.21875 39.40625 66.21875 
z
M 39.40625 74.21875 
Q 54.734375 74.21875 63.90625 63.9375 
Q 73.09375 53.65625 73.09375 36.375 
Q 73.09375 19.140625 63.90625 8.859375 
Q 54.734375 -1.421875 39.40625 -1.421875 
Q 24.03125 -1.421875 14.8125 8.828125 
Q 5.609375 19.09375 5.609375 36.375 
Q 5.609375 53.65625 14.8125 63.9375 
Q 24.03125 74.21875 39.40625 74.21875 
z
" id="DejaVuSans-79"/>
     </defs>
     <g transform="translate(320.435156 199.322188)scale(0.1 -0.1)">
      <use transform="translate(0 0.125)" xlink:href="#DejaVuSans-67"/>
      <use transform="translate(69.824219 0.125)" xlink:href="#DejaVuSans-79"/>
      <use transform="translate(148.535156 0.125)" xlink:href="#DejaVuSans-32"/>
      <use transform="translate(180.322266 0.125)" xlink:href="#DejaVuSans-40"/>
      <use transform="translate(219.335938 0.125)" xlink:href="#DejaVuSans-49"/>
      <use transform="translate(282.958984 0.125)" xlink:href="#DejaVuSans-46"/>
      <use transform="translate(314.746094 0.125)" xlink:href="#DejaVuSans-51"/>
      <use transform="translate(378.369141 0.125)" xlink:href="#DejaVuSans-215"/>
      <use transform="translate(462.158203 0.125)" xlink:href="#DejaVuSans-41"/>
     </g>
    </g>
    <g id="line2d_78">
     <path d="M 292.435156 210.500313 
L 312.435156 210.500313 
" style="fill:none;stroke:#d62728;stroke-linecap:square;stroke-width:1.5;"/>
    </g>
    <g id="line2d_79">
     <defs>
      <path d="M 0 3 
C 0.795609 3 1.55874 2.683901 2.12132 2.12132 
C 2.683901 1.55874 3 0.795609 3 0 
C 3 -0.795609 2.683901 -1.55874 2.12132 -2.12132 
C 1.55874 -2.683901 0.795609 -3 0 -3 
C -0.795609 -3 -1.55874 -2.683901 -2.12132 -2.12132 
C -2.683901 -1.55874 -3 -0.795609 -3 0 
C -3 0.795609 -2.683901 1.55874 -2.12132 2.12132 
C -1.55874 2.683901 -0.795609 3 0 3 
z
" id="m4868d8cef4" style="stroke:#d62728;"/>
     </defs>
     <g>
      <use style="fill:#d62728;stroke:#d62728;" x="302.435156" xlink:href="#m4868d8cef4" y="210.500313"/>
     </g>
    </g>
    <g id="text_27">
     <!-- FL (1.3$\times$) -->
     <defs>
      <path d="M 9.8125 72.90625 
L 51.703125 72.90625 
L 51.703125 64.59375 
L 19.671875 64.59375 
L 19.671875 43.109375 
L 48.578125 43.109375 
L 48.578125 34.8125 
L 19.671875 34.8125 
L 19.671875 0 
L 9.8125 0 
z
" id="DejaVuSans-70"/>
      <path d="M 9.8125 72.90625 
L 19.671875 72.90625 
L 19.671875 8.296875 
L 55.171875 8.296875 
L 55.171875 0 
L 9.8125 0 
z
" id="DejaVuSans-76"/>
     </defs>
     <g transform="translate(320.435156 214.000313)scale(0.1 -0.1)">
      <use transform="translate(0 0.125)" xlink:href="#DejaVuSans-70"/>
      <use transform="translate(57.519531 0.125)" xlink:href="#DejaVuSans-76"/>
      <use transform="translate(113.232422 0.125)" xlink:href="#DejaVuSans-32"/>
      <use transform="translate(145.019531 0.125)" xlink:href="#DejaVuSans-40"/>
      <use transform="translate(184.033203 0.125)" xlink:href="#DejaVuSans-49"/>
      <use transform="translate(247.65625 0.125)" xlink:href="#DejaVuSans-46"/>
      <use transform="translate(279.443359 0.125)" xlink:href="#DejaVuSans-51"/>
      <use transform="translate(343.066406 0.125)" xlink:href="#DejaVuSans-215"/>
      <use transform="translate(426.855469 0.125)" xlink:href="#DejaVuSans-41"/>
     </g>
    </g>
    <g id="line2d_80">
     <path d="M 292.435156 225.178438 
L 312.435156 225.178438 
" style="fill:none;stroke:#9467bd;stroke-linecap:square;stroke-width:1.5;"/>
    </g>
    <g id="line2d_81">
     <defs>
      <path d="M 0 3 
C 0.795609 3 1.55874 2.683901 2.12132 2.12132 
C 2.683901 1.55874 3 0.795609 3 0 
C 3 -0.795609 2.683901 -1.55874 2.12132 -2.12132 
C 1.55874 -2.683901 0.795609 -3 0 -3 
C -0.795609 -3 -1.55874 -2.683901 -2.12132 -2.12132 
C -2.683901 -1.55874 -3 -0.795609 -3 0 
C -3 0.795609 -2.683901 1.55874 -2.12132 2.12132 
C -1.55874 2.683901 -0.795609 3 0 3 
z
" id="m0bcb3d1bc1" style="stroke:#9467bd;"/>
     </defs>
     <g>
      <use style="fill:#9467bd;stroke:#9467bd;" x="302.435156" xlink:href="#m0bcb3d1bc1" y="225.178438"/>
     </g>
    </g>
    <g id="text_28">
     <!-- IA (1.7$\times$) -->
     <defs>
      <path d="M 9.8125 72.90625 
L 19.671875 72.90625 
L 19.671875 0 
L 9.8125 0 
z
" id="DejaVuSans-73"/>
     </defs>
     <g transform="translate(320.435156 228.678438)scale(0.1 -0.1)">
      <use transform="translate(0 0.125)" xlink:href="#DejaVuSans-73"/>
      <use transform="translate(29.492188 0.125)" xlink:href="#DejaVuSans-65"/>
      <use transform="translate(97.900391 0.125)" xlink:href="#DejaVuSans-32"/>
      <use transform="translate(129.6875 0.125)" xlink:href="#DejaVuSans-40"/>
      <use transform="translate(168.701172 0.125)" xlink:href="#DejaVuSans-49"/>
      <use transform="translate(232.324219 0.125)" xlink:href="#DejaVuSans-46"/>
      <use transform="translate(264.001953 0.125)" xlink:href="#DejaVuSans-55"/>
      <use transform="translate(327.625 0.125)" xlink:href="#DejaVuSans-215"/>
      <use transform="translate(411.414062 0.125)" xlink:href="#DejaVuSans-41"/>
     </g>
    </g>
   </g>
   <g id="line2d_82">
    <path clip-path="url(#p3c3b498bf7)" d="M 19.223385 289.38845 
L 24.329928 265.961504 
L 32.037692 251.584035 
L 39.745457 237.206566 
L 47.453221 222.594719 
L 55.160986 218.968908 
L 62.86875 212.904108 
L 70.576514 208.808239 
L 78.284279 204.107913 
L 85.992043 195.665796 
L 93.699808 190.361253 
L 101.407572 182.669465 
L 109.115337 178.887697 
L 116.823101 173.480562 
L 124.530866 165.826248 
L 132.23863 154.413537 
L 139.946395 142.888083 
L 147.654159 131.7539 
L 155.361924 123.930118 
L 163.069688 116.014401 
L 170.777452 109.39005 
L 178.485217 105.105189 
L 186.192981 99.849559 
L 193.900746 96.432831 
L 201.60851 93.626604 
L 209.316275 89.922043 
L 217.024039 87.640371 
L 224.731804 85.147815 
L 232.439568 82.633141 
L 240.147333 80.538705 
L 247.855097 78.451431 
L 255.562862 76.307865 
L 263.270626 73.996523 
L 270.97839 72.61585 
L 278.686155 71.340882 
L 286.393919 69.90358 
L 294.101684 68.567503 
L 301.809448 67.153998 
L 309.517213 65.825957 
L 317.224977 64.650027 
L 324.932742 63.724327 
L 332.640506 63.03917 
L 340.348271 62.289577 
L 348.056035 61.135353 
L 355.7638 60.326132 
L 363.471564 59.650644 
" style="fill:none;stroke:#1f77b4;stroke-linecap:square;stroke-width:1.5;"/>
    <g clip-path="url(#p3c3b498bf7)">
     <use style="fill:#1f77b4;stroke:#1f77b4;" x="1.206634" xlink:href="#mbe223005fc" y="315.699374"/>
     <use style="fill:#1f77b4;stroke:#1f77b4;" x="8.914399" xlink:href="#mbe223005fc" y="315.699374"/>
     <use style="fill:#1f77b4;stroke:#1f77b4;" x="16.622163" xlink:href="#mbe223005fc" y="301.321905"/>
     <use style="fill:#1f77b4;stroke:#1f77b4;" x="24.329928" xlink:href="#mbe223005fc" y="265.961504"/>
     <use style="fill:#1f77b4;stroke:#1f77b4;" x="32.037692" xlink:href="#mbe223005fc" y="251.584035"/>
     <use style="fill:#1f77b4;stroke:#1f77b4;" x="39.745457" xlink:href="#mbe223005fc" y="237.206566"/>
     <use style="fill:#1f77b4;stroke:#1f77b4;" x="47.453221" xlink:href="#mbe223005fc" y="222.594719"/>
     <use style="fill:#1f77b4;stroke:#1f77b4;" x="55.160986" xlink:href="#mbe223005fc" y="218.968908"/>
     <use style="fill:#1f77b4;stroke:#1f77b4;" x="62.86875" xlink:href="#mbe223005fc" y="212.904108"/>
     <use style="fill:#1f77b4;stroke:#1f77b4;" x="70.576514" xlink:href="#mbe223005fc" y="208.808239"/>
     <use style="fill:#1f77b4;stroke:#1f77b4;" x="78.284279" xlink:href="#mbe223005fc" y="204.107913"/>
     <use style="fill:#1f77b4;stroke:#1f77b4;" x="85.992043" xlink:href="#mbe223005fc" y="195.665796"/>
     <use style="fill:#1f77b4;stroke:#1f77b4;" x="93.699808" xlink:href="#mbe223005fc" y="190.361253"/>
     <use style="fill:#1f77b4;stroke:#1f77b4;" x="101.407572" xlink:href="#mbe223005fc" y="182.669465"/>
     <use style="fill:#1f77b4;stroke:#1f77b4;" x="109.115337" xlink:href="#mbe223005fc" y="178.887697"/>
     <use style="fill:#1f77b4;stroke:#1f77b4;" x="116.823101" xlink:href="#mbe223005fc" y="173.480562"/>
     <use style="fill:#1f77b4;stroke:#1f77b4;" x="124.530866" xlink:href="#mbe223005fc" y="165.826248"/>
     <use style="fill:#1f77b4;stroke:#1f77b4;" x="132.23863" xlink:href="#mbe223005fc" y="154.413537"/>
     <use style="fill:#1f77b4;stroke:#1f77b4;" x="139.946395" xlink:href="#mbe223005fc" y="142.888083"/>
     <use style="fill:#1f77b4;stroke:#1f77b4;" x="147.654159" xlink:href="#mbe223005fc" y="131.7539"/>
     <use style="fill:#1f77b4;stroke:#1f77b4;" x="155.361924" xlink:href="#mbe223005fc" y="123.930118"/>
     <use style="fill:#1f77b4;stroke:#1f77b4;" x="163.069688" xlink:href="#mbe223005fc" y="116.014401"/>
     <use style="fill:#1f77b4;stroke:#1f77b4;" x="170.777452" xlink:href="#mbe223005fc" y="109.39005"/>
     <use style="fill:#1f77b4;stroke:#1f77b4;" x="178.485217" xlink:href="#mbe223005fc" y="105.105189"/>
     <use style="fill:#1f77b4;stroke:#1f77b4;" x="186.192981" xlink:href="#mbe223005fc" y="99.849559"/>
     <use style="fill:#1f77b4;stroke:#1f77b4;" x="193.900746" xlink:href="#mbe223005fc" y="96.432831"/>
     <use style="fill:#1f77b4;stroke:#1f77b4;" x="201.60851" xlink:href="#mbe223005fc" y="93.626604"/>
     <use style="fill:#1f77b4;stroke:#1f77b4;" x="209.316275" xlink:href="#mbe223005fc" y="89.922043"/>
     <use style="fill:#1f77b4;stroke:#1f77b4;" x="217.024039" xlink:href="#mbe223005fc" y="87.640371"/>
     <use style="fill:#1f77b4;stroke:#1f77b4;" x="224.731804" xlink:href="#mbe223005fc" y="85.147815"/>
     <use style="fill:#1f77b4;stroke:#1f77b4;" x="232.439568" xlink:href="#mbe223005fc" y="82.633141"/>
     <use style="fill:#1f77b4;stroke:#1f77b4;" x="240.147333" xlink:href="#mbe223005fc" y="80.538705"/>
     <use style="fill:#1f77b4;stroke:#1f77b4;" x="247.855097" xlink:href="#mbe223005fc" y="78.451431"/>
     <use style="fill:#1f77b4;stroke:#1f77b4;" x="255.562862" xlink:href="#mbe223005fc" y="76.307865"/>
     <use style="fill:#1f77b4;stroke:#1f77b4;" x="263.270626" xlink:href="#mbe223005fc" y="73.996523"/>
     <use style="fill:#1f77b4;stroke:#1f77b4;" x="270.97839" xlink:href="#mbe223005fc" y="72.61585"/>
     <use style="fill:#1f77b4;stroke:#1f77b4;" x="278.686155" xlink:href="#mbe223005fc" y="71.340882"/>
     <use style="fill:#1f77b4;stroke:#1f77b4;" x="286.393919" xlink:href="#mbe223005fc" y="69.90358"/>
     <use style="fill:#1f77b4;stroke:#1f77b4;" x="294.101684" xlink:href="#mbe223005fc" y="68.567503"/>
     <use style="fill:#1f77b4;stroke:#1f77b4;" x="301.809448" xlink:href="#mbe223005fc" y="67.153998"/>
     <use style="fill:#1f77b4;stroke:#1f77b4;" x="309.517213" xlink:href="#mbe223005fc" y="65.825957"/>
     <use style="fill:#1f77b4;stroke:#1f77b4;" x="317.224977" xlink:href="#mbe223005fc" y="64.650027"/>
     <use style="fill:#1f77b4;stroke:#1f77b4;" x="324.932742" xlink:href="#mbe223005fc" y="63.724327"/>
     <use style="fill:#1f77b4;stroke:#1f77b4;" x="332.640506" xlink:href="#mbe223005fc" y="63.03917"/>
     <use style="fill:#1f77b4;stroke:#1f77b4;" x="340.348271" xlink:href="#mbe223005fc" y="62.289577"/>
     <use style="fill:#1f77b4;stroke:#1f77b4;" x="348.056035" xlink:href="#mbe223005fc" y="61.135353"/>
     <use style="fill:#1f77b4;stroke:#1f77b4;" x="355.7638" xlink:href="#mbe223005fc" y="60.326132"/>
     <use style="fill:#1f77b4;stroke:#1f77b4;" x="363.471564" xlink:href="#mbe223005fc" y="59.650644"/>
    </g>
   </g>
   <g id="line2d_83">
    <path clip-path="url(#p3c3b498bf7)" d="M 29.717377 289.38845 
L 32.037692 285.060313 
L 39.745457 270.682845 
L 47.453221 270.682845 
L 55.160986 262.272564 
L 62.86875 249.699912 
L 70.576514 243.266584 
L 78.284279 234.400411 
L 85.992043 229.592312 
L 93.699808 218.293416 
L 101.407572 209.883136 
L 109.115337 204.334998 
L 116.823101 192.190037 
L 124.530866 183.467836 
L 132.23863 173.806133 
L 139.946395 162.541269 
L 147.654159 158.432843 
L 155.361924 150.146398 
L 163.069688 142.689224 
L 170.777452 134.474936 
L 178.485217 129.15782 
L 186.192981 125.413713 
L 193.900746 116.1631 
L 201.60851 110.986827 
L 209.316275 106.184645 
L 217.024039 102.345153 
L 224.731804 97.836613 
L 232.439568 95.415145 
L 240.147333 91.800651 
L 247.855097 88.904301 
L 255.562862 85.679088 
L 263.270626 82.93468 
L 270.97839 80.975086 
L 278.686155 79.081511 
L 286.393919 77.467034 
L 294.101684 76.102133 
L 301.809448 74.588933 
L 309.517213 73.189674 
L 317.224977 71.878159 
L 324.932742 70.599002 
L 332.640506 69.701802 
L 340.348271 68.382885 
L 348.056035 67.72847 
L 355.7638 66.512897 
L 363.471564 65.663038 
" style="fill:none;stroke:#ff7f0e;stroke-linecap:square;stroke-width:1.5;"/>
    <g clip-path="url(#p3c3b498bf7)">
     <use style="fill:#ff7f0e;stroke:#ff7f0e;" x="24.329928" xlink:href="#me8888c062f" y="299.437782"/>
     <use style="fill:#ff7f0e;stroke:#ff7f0e;" x="32.037692" xlink:href="#me8888c062f" y="285.060313"/>
     <use style="fill:#ff7f0e;stroke:#ff7f0e;" x="39.745457" xlink:href="#me8888c062f" y="270.682845"/>
     <use style="fill:#ff7f0e;stroke:#ff7f0e;" x="47.453221" xlink:href="#me8888c062f" y="270.682845"/>
     <use style="fill:#ff7f0e;stroke:#ff7f0e;" x="55.160986" xlink:href="#me8888c062f" y="262.272564"/>
     <use style="fill:#ff7f0e;stroke:#ff7f0e;" x="62.86875" xlink:href="#me8888c062f" y="249.699912"/>
     <use style="fill:#ff7f0e;stroke:#ff7f0e;" x="70.576514" xlink:href="#me8888c062f" y="243.266584"/>
     <use style="fill:#ff7f0e;stroke:#ff7f0e;" x="78.284279" xlink:href="#me8888c062f" y="234.400411"/>
     <use style="fill:#ff7f0e;stroke:#ff7f0e;" x="85.992043" xlink:href="#me8888c062f" y="229.592312"/>
     <use style="fill:#ff7f0e;stroke:#ff7f0e;" x="93.699808" xlink:href="#me8888c062f" y="218.293416"/>
     <use style="fill:#ff7f0e;stroke:#ff7f0e;" x="101.407572" xlink:href="#me8888c062f" y="209.883136"/>
     <use style="fill:#ff7f0e;stroke:#ff7f0e;" x="109.115337" xlink:href="#me8888c062f" y="204.334998"/>
     <use style="fill:#ff7f0e;stroke:#ff7f0e;" x="116.823101" xlink:href="#me8888c062f" y="192.190037"/>
     <use style="fill:#ff7f0e;stroke:#ff7f0e;" x="124.530866" xlink:href="#me8888c062f" y="183.467836"/>
     <use style="fill:#ff7f0e;stroke:#ff7f0e;" x="132.23863" xlink:href="#me8888c062f" y="173.806133"/>
     <use style="fill:#ff7f0e;stroke:#ff7f0e;" x="139.946395" xlink:href="#me8888c062f" y="162.541269"/>
     <use style="fill:#ff7f0e;stroke:#ff7f0e;" x="147.654159" xlink:href="#me8888c062f" y="158.432843"/>
     <use style="fill:#ff7f0e;stroke:#ff7f0e;" x="155.361924" xlink:href="#me8888c062f" y="150.146398"/>
     <use style="fill:#ff7f0e;stroke:#ff7f0e;" x="163.069688" xlink:href="#me8888c062f" y="142.689224"/>
     <use style="fill:#ff7f0e;stroke:#ff7f0e;" x="170.777452" xlink:href="#me8888c062f" y="134.474936"/>
     <use style="fill:#ff7f0e;stroke:#ff7f0e;" x="178.485217" xlink:href="#me8888c062f" y="129.15782"/>
     <use style="fill:#ff7f0e;stroke:#ff7f0e;" x="186.192981" xlink:href="#me8888c062f" y="125.413713"/>
     <use style="fill:#ff7f0e;stroke:#ff7f0e;" x="193.900746" xlink:href="#me8888c062f" y="116.1631"/>
     <use style="fill:#ff7f0e;stroke:#ff7f0e;" x="201.60851" xlink:href="#me8888c062f" y="110.986827"/>
     <use style="fill:#ff7f0e;stroke:#ff7f0e;" x="209.316275" xlink:href="#me8888c062f" y="106.184645"/>
     <use style="fill:#ff7f0e;stroke:#ff7f0e;" x="217.024039" xlink:href="#me8888c062f" y="102.345153"/>
     <use style="fill:#ff7f0e;stroke:#ff7f0e;" x="224.731804" xlink:href="#me8888c062f" y="97.836613"/>
     <use style="fill:#ff7f0e;stroke:#ff7f0e;" x="232.439568" xlink:href="#me8888c062f" y="95.415145"/>
     <use style="fill:#ff7f0e;stroke:#ff7f0e;" x="240.147333" xlink:href="#me8888c062f" y="91.800651"/>
     <use style="fill:#ff7f0e;stroke:#ff7f0e;" x="247.855097" xlink:href="#me8888c062f" y="88.904301"/>
     <use style="fill:#ff7f0e;stroke:#ff7f0e;" x="255.562862" xlink:href="#me8888c062f" y="85.679088"/>
     <use style="fill:#ff7f0e;stroke:#ff7f0e;" x="263.270626" xlink:href="#me8888c062f" y="82.93468"/>
     <use style="fill:#ff7f0e;stroke:#ff7f0e;" x="270.97839" xlink:href="#me8888c062f" y="80.975086"/>
     <use style="fill:#ff7f0e;stroke:#ff7f0e;" x="278.686155" xlink:href="#me8888c062f" y="79.081511"/>
     <use style="fill:#ff7f0e;stroke:#ff7f0e;" x="286.393919" xlink:href="#me8888c062f" y="77.467034"/>
     <use style="fill:#ff7f0e;stroke:#ff7f0e;" x="294.101684" xlink:href="#me8888c062f" y="76.102133"/>
     <use style="fill:#ff7f0e;stroke:#ff7f0e;" x="301.809448" xlink:href="#me8888c062f" y="74.588933"/>
     <use style="fill:#ff7f0e;stroke:#ff7f0e;" x="309.517213" xlink:href="#me8888c062f" y="73.189674"/>
     <use style="fill:#ff7f0e;stroke:#ff7f0e;" x="317.224977" xlink:href="#me8888c062f" y="71.878159"/>
     <use style="fill:#ff7f0e;stroke:#ff7f0e;" x="324.932742" xlink:href="#me8888c062f" y="70.599002"/>
     <use style="fill:#ff7f0e;stroke:#ff7f0e;" x="332.640506" xlink:href="#me8888c062f" y="69.701802"/>
     <use style="fill:#ff7f0e;stroke:#ff7f0e;" x="340.348271" xlink:href="#me8888c062f" y="68.382885"/>
     <use style="fill:#ff7f0e;stroke:#ff7f0e;" x="348.056035" xlink:href="#me8888c062f" y="67.72847"/>
     <use style="fill:#ff7f0e;stroke:#ff7f0e;" x="355.7638" xlink:href="#me8888c062f" y="66.512897"/>
     <use style="fill:#ff7f0e;stroke:#ff7f0e;" x="363.471564" xlink:href="#me8888c062f" y="65.663038"/>
    </g>
   </g>
   <g id="line2d_84">
    <path clip-path="url(#p3c3b498bf7)" d="M 32.037692 276.072048 
L 39.745457 247.317111 
L 47.453221 247.317111 
L 55.160986 247.317111 
L 62.86875 238.906831 
L 70.576514 231.682148 
L 78.284279 217.304679 
L 85.992043 209.724201 
L 93.699808 200.081343 
L 101.407572 194.314564 
L 109.115337 188.549741 
L 116.823101 185.049488 
L 124.530866 182.392777 
L 132.23863 178.953864 
L 139.946395 173.719695 
L 147.654159 168.128965 
L 155.361924 162.608174 
L 163.069688 158.075956 
L 170.777452 153.951907 
L 178.485217 149.077448 
L 186.192981 145.455499 
L 193.900746 139.718783 
L 201.60851 135.737602 
L 209.316275 132.166111 
L 217.024039 129.755474 
L 224.731804 127.125072 
L 232.439568 124.448272 
L 240.147333 122.114924 
L 247.855097 119.872551 
L 255.562862 117.488893 
L 263.270626 115.630414 
L 270.97839 113.991783 
L 278.686155 113.081779 
L 286.393919 112.075871 
L 294.101684 111.229893 
L 301.809448 109.31472 
L 309.517213 108.30939 
L 317.224977 107.123616 
L 324.932742 105.92515 
L 332.640506 104.851412 
L 340.348271 104.187899 
L 348.056035 103.320793 
L 355.7638 102.354153 
L 363.471564 101.483228 
" style="fill:none;stroke:#2ca02c;stroke-linecap:square;stroke-width:1.5;"/>
    <g clip-path="url(#p3c3b498bf7)">
     <use style="fill:#2ca02c;stroke:#2ca02c;" x="32.037692" xlink:href="#m4473ab2346" y="276.072048"/>
     <use style="fill:#2ca02c;stroke:#2ca02c;" x="39.745457" xlink:href="#m4473ab2346" y="247.317111"/>
     <use style="fill:#2ca02c;stroke:#2ca02c;" x="47.453221" xlink:href="#m4473ab2346" y="247.317111"/>
     <use style="fill:#2ca02c;stroke:#2ca02c;" x="55.160986" xlink:href="#m4473ab2346" y="247.317111"/>
     <use style="fill:#2ca02c;stroke:#2ca02c;" x="62.86875" xlink:href="#m4473ab2346" y="238.906831"/>
     <use style="fill:#2ca02c;stroke:#2ca02c;" x="70.576514" xlink:href="#m4473ab2346" y="231.682148"/>
     <use style="fill:#2ca02c;stroke:#2ca02c;" x="78.284279" xlink:href="#m4473ab2346" y="217.304679"/>
     <use style="fill:#2ca02c;stroke:#2ca02c;" x="85.992043" xlink:href="#m4473ab2346" y="209.724201"/>
     <use style="fill:#2ca02c;stroke:#2ca02c;" x="93.699808" xlink:href="#m4473ab2346" y="200.081343"/>
     <use style="fill:#2ca02c;stroke:#2ca02c;" x="101.407572" xlink:href="#m4473ab2346" y="194.314564"/>
     <use style="fill:#2ca02c;stroke:#2ca02c;" x="109.115337" xlink:href="#m4473ab2346" y="188.549741"/>
     <use style="fill:#2ca02c;stroke:#2ca02c;" x="116.823101" xlink:href="#m4473ab2346" y="185.049488"/>
     <use style="fill:#2ca02c;stroke:#2ca02c;" x="124.530866" xlink:href="#m4473ab2346" y="182.392777"/>
     <use style="fill:#2ca02c;stroke:#2ca02c;" x="132.23863" xlink:href="#m4473ab2346" y="178.953864"/>
     <use style="fill:#2ca02c;stroke:#2ca02c;" x="139.946395" xlink:href="#m4473ab2346" y="173.719695"/>
     <use style="fill:#2ca02c;stroke:#2ca02c;" x="147.654159" xlink:href="#m4473ab2346" y="168.128965"/>
     <use style="fill:#2ca02c;stroke:#2ca02c;" x="155.361924" xlink:href="#m4473ab2346" y="162.608174"/>
     <use style="fill:#2ca02c;stroke:#2ca02c;" x="163.069688" xlink:href="#m4473ab2346" y="158.075956"/>
     <use style="fill:#2ca02c;stroke:#2ca02c;" x="170.777452" xlink:href="#m4473ab2346" y="153.951907"/>
     <use style="fill:#2ca02c;stroke:#2ca02c;" x="178.485217" xlink:href="#m4473ab2346" y="149.077448"/>
     <use style="fill:#2ca02c;stroke:#2ca02c;" x="186.192981" xlink:href="#m4473ab2346" y="145.455499"/>
     <use style="fill:#2ca02c;stroke:#2ca02c;" x="193.900746" xlink:href="#m4473ab2346" y="139.718783"/>
     <use style="fill:#2ca02c;stroke:#2ca02c;" x="201.60851" xlink:href="#m4473ab2346" y="135.737602"/>
     <use style="fill:#2ca02c;stroke:#2ca02c;" x="209.316275" xlink:href="#m4473ab2346" y="132.166111"/>
     <use style="fill:#2ca02c;stroke:#2ca02c;" x="217.024039" xlink:href="#m4473ab2346" y="129.755474"/>
     <use style="fill:#2ca02c;stroke:#2ca02c;" x="224.731804" xlink:href="#m4473ab2346" y="127.125072"/>
     <use style="fill:#2ca02c;stroke:#2ca02c;" x="232.439568" xlink:href="#m4473ab2346" y="124.448272"/>
     <use style="fill:#2ca02c;stroke:#2ca02c;" x="240.147333" xlink:href="#m4473ab2346" y="122.114924"/>
     <use style="fill:#2ca02c;stroke:#2ca02c;" x="247.855097" xlink:href="#m4473ab2346" y="119.872551"/>
     <use style="fill:#2ca02c;stroke:#2ca02c;" x="255.562862" xlink:href="#m4473ab2346" y="117.488893"/>
     <use style="fill:#2ca02c;stroke:#2ca02c;" x="263.270626" xlink:href="#m4473ab2346" y="115.630414"/>
     <use style="fill:#2ca02c;stroke:#2ca02c;" x="270.97839" xlink:href="#m4473ab2346" y="113.991783"/>
     <use style="fill:#2ca02c;stroke:#2ca02c;" x="278.686155" xlink:href="#m4473ab2346" y="113.081779"/>
     <use style="fill:#2ca02c;stroke:#2ca02c;" x="286.393919" xlink:href="#m4473ab2346" y="112.075871"/>
     <use style="fill:#2ca02c;stroke:#2ca02c;" x="294.101684" xlink:href="#m4473ab2346" y="111.229893"/>
     <use style="fill:#2ca02c;stroke:#2ca02c;" x="301.809448" xlink:href="#m4473ab2346" y="109.31472"/>
     <use style="fill:#2ca02c;stroke:#2ca02c;" x="309.517213" xlink:href="#m4473ab2346" y="108.30939"/>
     <use style="fill:#2ca02c;stroke:#2ca02c;" x="317.224977" xlink:href="#m4473ab2346" y="107.123616"/>
     <use style="fill:#2ca02c;stroke:#2ca02c;" x="324.932742" xlink:href="#m4473ab2346" y="105.92515"/>
     <use style="fill:#2ca02c;stroke:#2ca02c;" x="332.640506" xlink:href="#m4473ab2346" y="104.851412"/>
     <use style="fill:#2ca02c;stroke:#2ca02c;" x="340.348271" xlink:href="#m4473ab2346" y="104.187899"/>
     <use style="fill:#2ca02c;stroke:#2ca02c;" x="348.056035" xlink:href="#m4473ab2346" y="103.320793"/>
     <use style="fill:#2ca02c;stroke:#2ca02c;" x="355.7638" xlink:href="#m4473ab2346" y="102.354153"/>
     <use style="fill:#2ca02c;stroke:#2ca02c;" x="363.471564" xlink:href="#m4473ab2346" y="101.483228"/>
    </g>
   </g>
   <g id="line2d_85">
    <path clip-path="url(#p3c3b498bf7)" d="M 31.532899 289.38845 
L 32.037692 288.99765 
L 39.745457 277.38993 
L 47.453221 266.209901 
L 55.160986 264.549631 
L 62.86875 263.012461 
L 70.576514 252.715217 
L 78.284279 250.172162 
L 85.992043 238.337748 
L 93.699808 229.629012 
L 101.407572 229.629012 
L 109.115337 220.443229 
L 116.823101 215.103911 
L 124.530866 206.841263 
L 132.23863 197.719009 
L 139.946395 191.783658 
L 147.654159 186.348973 
L 155.361924 180.053404 
L 163.069688 174.469835 
L 170.777452 170.311234 
L 178.485217 166.52098 
L 186.192981 160.45857 
L 193.900746 155.655568 
L 201.60851 150.356377 
L 209.316275 145.518776 
L 217.024039 141.328403 
L 224.731804 138.390404 
L 232.439568 134.889201 
L 240.147333 131.955862 
L 247.855097 128.894337 
L 255.562862 126.176509 
L 263.270626 123.743304 
L 270.97839 122.34426 
L 278.686155 120.298973 
L 286.393919 118.66273 
L 294.101684 117.365786 
L 301.809448 115.924494 
L 309.517213 114.563014 
L 317.224977 113.419421 
L 324.932742 112.482378 
L 332.640506 111.308566 
L 340.348271 110.715903 
L 348.056035 109.864402 
L 355.7638 109.135194 
L 363.471564 107.915595 
" style="fill:none;stroke:#d62728;stroke-linecap:square;stroke-width:1.5;"/>
    <g clip-path="url(#p3c3b498bf7)">
     <use style="fill:#d62728;stroke:#d62728;" x="1.206634" xlink:href="#m4868d8cef4" y="303.375119"/>
     <use style="fill:#d62728;stroke:#d62728;" x="8.914399" xlink:href="#m4868d8cef4" y="303.375119"/>
     <use style="fill:#d62728;stroke:#d62728;" x="16.622163" xlink:href="#m4868d8cef4" y="294.964839"/>
     <use style="fill:#d62728;stroke:#d62728;" x="24.329928" xlink:href="#m4868d8cef4" y="294.964839"/>
     <use style="fill:#d62728;stroke:#d62728;" x="32.037692" xlink:href="#m4868d8cef4" y="288.99765"/>
     <use style="fill:#d62728;stroke:#d62728;" x="39.745457" xlink:href="#m4868d8cef4" y="277.38993"/>
     <use style="fill:#d62728;stroke:#d62728;" x="47.453221" xlink:href="#m4868d8cef4" y="266.209901"/>
     <use style="fill:#d62728;stroke:#d62728;" x="55.160986" xlink:href="#m4868d8cef4" y="264.549631"/>
     <use style="fill:#d62728;stroke:#d62728;" x="62.86875" xlink:href="#m4868d8cef4" y="263.012461"/>
     <use style="fill:#d62728;stroke:#d62728;" x="70.576514" xlink:href="#m4868d8cef4" y="252.715217"/>
     <use style="fill:#d62728;stroke:#d62728;" x="78.284279" xlink:href="#m4868d8cef4" y="250.172162"/>
     <use style="fill:#d62728;stroke:#d62728;" x="85.992043" xlink:href="#m4868d8cef4" y="238.337748"/>
     <use style="fill:#d62728;stroke:#d62728;" x="93.699808" xlink:href="#m4868d8cef4" y="229.629012"/>
     <use style="fill:#d62728;stroke:#d62728;" x="101.407572" xlink:href="#m4868d8cef4" y="229.629012"/>
     <use style="fill:#d62728;stroke:#d62728;" x="109.115337" xlink:href="#m4868d8cef4" y="220.443229"/>
     <use style="fill:#d62728;stroke:#d62728;" x="116.823101" xlink:href="#m4868d8cef4" y="215.103911"/>
     <use style="fill:#d62728;stroke:#d62728;" x="124.530866" xlink:href="#m4868d8cef4" y="206.841263"/>
     <use style="fill:#d62728;stroke:#d62728;" x="132.23863" xlink:href="#m4868d8cef4" y="197.719009"/>
     <use style="fill:#d62728;stroke:#d62728;" x="139.946395" xlink:href="#m4868d8cef4" y="191.783658"/>
     <use style="fill:#d62728;stroke:#d62728;" x="147.654159" xlink:href="#m4868d8cef4" y="186.348973"/>
     <use style="fill:#d62728;stroke:#d62728;" x="155.361924" xlink:href="#m4868d8cef4" y="180.053404"/>
     <use style="fill:#d62728;stroke:#d62728;" x="163.069688" xlink:href="#m4868d8cef4" y="174.469835"/>
     <use style="fill:#d62728;stroke:#d62728;" x="170.777452" xlink:href="#m4868d8cef4" y="170.311234"/>
     <use style="fill:#d62728;stroke:#d62728;" x="178.485217" xlink:href="#m4868d8cef4" y="166.52098"/>
     <use style="fill:#d62728;stroke:#d62728;" x="186.192981" xlink:href="#m4868d8cef4" y="160.45857"/>
     <use style="fill:#d62728;stroke:#d62728;" x="193.900746" xlink:href="#m4868d8cef4" y="155.655568"/>
     <use style="fill:#d62728;stroke:#d62728;" x="201.60851" xlink:href="#m4868d8cef4" y="150.356377"/>
     <use style="fill:#d62728;stroke:#d62728;" x="209.316275" xlink:href="#m4868d8cef4" y="145.518776"/>
     <use style="fill:#d62728;stroke:#d62728;" x="217.024039" xlink:href="#m4868d8cef4" y="141.328403"/>
     <use style="fill:#d62728;stroke:#d62728;" x="224.731804" xlink:href="#m4868d8cef4" y="138.390404"/>
     <use style="fill:#d62728;stroke:#d62728;" x="232.439568" xlink:href="#m4868d8cef4" y="134.889201"/>
     <use style="fill:#d62728;stroke:#d62728;" x="240.147333" xlink:href="#m4868d8cef4" y="131.955862"/>
     <use style="fill:#d62728;stroke:#d62728;" x="247.855097" xlink:href="#m4868d8cef4" y="128.894337"/>
     <use style="fill:#d62728;stroke:#d62728;" x="255.562862" xlink:href="#m4868d8cef4" y="126.176509"/>
     <use style="fill:#d62728;stroke:#d62728;" x="263.270626" xlink:href="#m4868d8cef4" y="123.743304"/>
     <use style="fill:#d62728;stroke:#d62728;" x="270.97839" xlink:href="#m4868d8cef4" y="122.34426"/>
     <use style="fill:#d62728;stroke:#d62728;" x="278.686155" xlink:href="#m4868d8cef4" y="120.298973"/>
     <use style="fill:#d62728;stroke:#d62728;" x="286.393919" xlink:href="#m4868d8cef4" y="118.66273"/>
     <use style="fill:#d62728;stroke:#d62728;" x="294.101684" xlink:href="#m4868d8cef4" y="117.365786"/>
     <use style="fill:#d62728;stroke:#d62728;" x="301.809448" xlink:href="#m4868d8cef4" y="115.924494"/>
     <use style="fill:#d62728;stroke:#d62728;" x="309.517213" xlink:href="#m4868d8cef4" y="114.563014"/>
     <use style="fill:#d62728;stroke:#d62728;" x="317.224977" xlink:href="#m4868d8cef4" y="113.419421"/>
     <use style="fill:#d62728;stroke:#d62728;" x="324.932742" xlink:href="#m4868d8cef4" y="112.482378"/>
     <use style="fill:#d62728;stroke:#d62728;" x="332.640506" xlink:href="#m4868d8cef4" y="111.308566"/>
     <use style="fill:#d62728;stroke:#d62728;" x="340.348271" xlink:href="#m4868d8cef4" y="110.715903"/>
     <use style="fill:#d62728;stroke:#d62728;" x="348.056035" xlink:href="#m4868d8cef4" y="109.864402"/>
     <use style="fill:#d62728;stroke:#d62728;" x="355.7638" xlink:href="#m4868d8cef4" y="109.135194"/>
     <use style="fill:#d62728;stroke:#d62728;" x="363.471564" xlink:href="#m4868d8cef4" y="107.915595"/>
    </g>
   </g>
   <g id="line2d_86">
    <path clip-path="url(#p3c3b498bf7)" d="M 55.160986 255.180973 
L 62.86875 234.836315 
L 70.576514 224.765765 
L 78.284279 223.228595 
L 85.992043 220.458846 
L 93.699808 219.201352 
L 101.407572 218.015755 
L 109.115337 213.853383 
L 116.823101 213.853383 
L 124.530866 208.123251 
L 132.23863 202.516807 
L 139.946395 199.475914 
L 147.654159 199.009775 
L 155.361924 190.446414 
L 163.069688 184.632306 
L 170.777452 181.434866 
L 178.485217 177.984981 
L 186.192981 174.739803 
L 193.900746 170.370394 
L 201.60851 164.724345 
L 209.316275 159.797883 
L 217.024039 157.30844 
L 224.731804 152.483317 
L 232.439568 149.146573 
L 240.147333 147.124233 
L 247.855097 144.803242 
L 255.562862 142.113882 
L 263.270626 139.680684 
L 270.97839 137.622323 
L 278.686155 135.83743 
L 286.393919 133.713495 
L 294.101684 131.877365 
L 301.809448 129.728208 
L 309.517213 127.885317 
L 317.224977 126.137866 
L 324.932742 125.106231 
L 332.640506 123.557861 
L 340.348271 121.383361 
L 348.056035 120.360421 
L 355.7638 118.895413 
L 363.471564 117.122916 
" style="fill:none;stroke:#9467bd;stroke-linecap:square;stroke-width:1.5;"/>
    <g clip-path="url(#p3c3b498bf7)">
     <use style="fill:#9467bd;stroke:#9467bd;" x="55.160986" xlink:href="#m0bcb3d1bc1" y="255.180973"/>
     <use style="fill:#9467bd;stroke:#9467bd;" x="62.86875" xlink:href="#m0bcb3d1bc1" y="234.836315"/>
     <use style="fill:#9467bd;stroke:#9467bd;" x="70.576514" xlink:href="#m0bcb3d1bc1" y="224.765765"/>
     <use style="fill:#9467bd;stroke:#9467bd;" x="78.284279" xlink:href="#m0bcb3d1bc1" y="223.228595"/>
     <use style="fill:#9467bd;stroke:#9467bd;" x="85.992043" xlink:href="#m0bcb3d1bc1" y="220.458846"/>
     <use style="fill:#9467bd;stroke:#9467bd;" x="93.699808" xlink:href="#m0bcb3d1bc1" y="219.201352"/>
     <use style="fill:#9467bd;stroke:#9467bd;" x="101.407572" xlink:href="#m0bcb3d1bc1" y="218.015755"/>
     <use style="fill:#9467bd;stroke:#9467bd;" x="109.115337" xlink:href="#m0bcb3d1bc1" y="213.853383"/>
     <use style="fill:#9467bd;stroke:#9467bd;" x="116.823101" xlink:href="#m0bcb3d1bc1" y="213.853383"/>
     <use style="fill:#9467bd;stroke:#9467bd;" x="124.530866" xlink:href="#m0bcb3d1bc1" y="208.123251"/>
     <use style="fill:#9467bd;stroke:#9467bd;" x="132.23863" xlink:href="#m0bcb3d1bc1" y="202.516807"/>
     <use style="fill:#9467bd;stroke:#9467bd;" x="139.946395" xlink:href="#m0bcb3d1bc1" y="199.475914"/>
     <use style="fill:#9467bd;stroke:#9467bd;" x="147.654159" xlink:href="#m0bcb3d1bc1" y="199.009775"/>
     <use style="fill:#9467bd;stroke:#9467bd;" x="155.361924" xlink:href="#m0bcb3d1bc1" y="190.446414"/>
     <use style="fill:#9467bd;stroke:#9467bd;" x="163.069688" xlink:href="#m0bcb3d1bc1" y="184.632306"/>
     <use style="fill:#9467bd;stroke:#9467bd;" x="170.777452" xlink:href="#m0bcb3d1bc1" y="181.434866"/>
     <use style="fill:#9467bd;stroke:#9467bd;" x="178.485217" xlink:href="#m0bcb3d1bc1" y="177.984981"/>
     <use style="fill:#9467bd;stroke:#9467bd;" x="186.192981" xlink:href="#m0bcb3d1bc1" y="174.739803"/>
     <use style="fill:#9467bd;stroke:#9467bd;" x="193.900746" xlink:href="#m0bcb3d1bc1" y="170.370394"/>
     <use style="fill:#9467bd;stroke:#9467bd;" x="201.60851" xlink:href="#m0bcb3d1bc1" y="164.724345"/>
     <use style="fill:#9467bd;stroke:#9467bd;" x="209.316275" xlink:href="#m0bcb3d1bc1" y="159.797883"/>
     <use style="fill:#9467bd;stroke:#9467bd;" x="217.024039" xlink:href="#m0bcb3d1bc1" y="157.30844"/>
     <use style="fill:#9467bd;stroke:#9467bd;" x="224.731804" xlink:href="#m0bcb3d1bc1" y="152.483317"/>
     <use style="fill:#9467bd;stroke:#9467bd;" x="232.439568" xlink:href="#m0bcb3d1bc1" y="149.146573"/>
     <use style="fill:#9467bd;stroke:#9467bd;" x="240.147333" xlink:href="#m0bcb3d1bc1" y="147.124233"/>
     <use style="fill:#9467bd;stroke:#9467bd;" x="247.855097" xlink:href="#m0bcb3d1bc1" y="144.803242"/>
     <use style="fill:#9467bd;stroke:#9467bd;" x="255.562862" xlink:href="#m0bcb3d1bc1" y="142.113882"/>
     <use style="fill:#9467bd;stroke:#9467bd;" x="263.270626" xlink:href="#m0bcb3d1bc1" y="139.680684"/>
     <use style="fill:#9467bd;stroke:#9467bd;" x="270.97839" xlink:href="#m0bcb3d1bc1" y="137.622323"/>
     <use style="fill:#9467bd;stroke:#9467bd;" x="278.686155" xlink:href="#m0bcb3d1bc1" y="135.83743"/>
     <use style="fill:#9467bd;stroke:#9467bd;" x="286.393919" xlink:href="#m0bcb3d1bc1" y="133.713495"/>
     <use style="fill:#9467bd;stroke:#9467bd;" x="294.101684" xlink:href="#m0bcb3d1bc1" y="131.877365"/>
     <use style="fill:#9467bd;stroke:#9467bd;" x="301.809448" xlink:href="#m0bcb3d1bc1" y="129.728208"/>
     <use style="fill:#9467bd;stroke:#9467bd;" x="309.517213" xlink:href="#m0bcb3d1bc1" y="127.885317"/>
     <use style="fill:#9467bd;stroke:#9467bd;" x="317.224977" xlink:href="#m0bcb3d1bc1" y="126.137866"/>
     <use style="fill:#9467bd;stroke:#9467bd;" x="324.932742" xlink:href="#m0bcb3d1bc1" y="125.106231"/>
     <use style="fill:#9467bd;stroke:#9467bd;" x="332.640506" xlink:href="#m0bcb3d1bc1" y="123.557861"/>
     <use style="fill:#9467bd;stroke:#9467bd;" x="340.348271" xlink:href="#m0bcb3d1bc1" y="121.383361"/>
     <use style="fill:#9467bd;stroke:#9467bd;" x="348.056035" xlink:href="#m0bcb3d1bc1" y="120.360421"/>
     <use style="fill:#9467bd;stroke:#9467bd;" x="355.7638" xlink:href="#m0bcb3d1bc1" y="118.895413"/>
     <use style="fill:#9467bd;stroke:#9467bd;" x="363.471564" xlink:href="#m0bcb3d1bc1" y="117.122916"/>
    </g>
   </g>
  </g>
 </g>
 <defs>
  <clipPath id="p3c3b498bf7">
   <rect height="217.44" width="334.8" x="62.86875" y="22.318125"/>
  </clipPath>
 </defs>
</svg>
