<?xml version="1.0" encoding="utf-8" standalone="no"?>
<!DOCTYPE svg PUBLIC "-//W3C//DTD SVG 1.1//EN"
  "http://www.w3.org/Graphics/SVG/1.1/DTD/svg11.dtd">
<!-- Created with matplotlib (https://matplotlib.org/) -->
<svg height="288.38845pt" version="1.1" viewBox="0 0 413.044157 288.38845" width="413.044157pt" xmlns="http://www.w3.org/2000/svg" xmlns:xlink="http://www.w3.org/1999/xlink">
 <defs>
  <style type="text/css">
*{stroke-linecap:butt;stroke-linejoin:round;}
  </style>
 </defs>
 <g id="figure_1">
  <g id="patch_1">
   <path d="M 0 288.38845 
L 413.044157 288.38845 
L 413.044157 0 
L 0 0 
z
" style="fill:#ffffff;"/>
  </g>
  <g id="axes_1">
   <g id="patch_2">
    <path d="M 62.86875 239.758125 
L 397.66875 239.758125 
L 397.66875 22.318125 
L 62.86875 22.318125 
z
" style="fill:#ffffff;"/>
   </g>
   <g id="matplotlib.axis_1">
    <g id="xtick_1">
     <g id="line2d_1">
      <path clip-path="url(#p1f62a56f40)" d="M 109.115354 239.758125 
L 109.115354 22.318125 
" style="fill:none;stroke:#b0b0b0;stroke-linecap:square;stroke-opacity:0.8;stroke-width:0.8;"/>
     </g>
     <g id="line2d_2">
      <defs>
       <path d="M 0 0 
L 0 3.5 
" id="m6d1f413180" style="stroke:#000000;stroke-width:0.8;"/>
      </defs>
      <g>
       <use style="stroke:#000000;stroke-width:0.8;" x="109.115354" xlink:href="#m6d1f413180" y="239.758125"/>
      </g>
     </g>
     <g id="text_1">
      <!-- Mar. -->
      <defs>
       <path d="M 9.8125 72.90625 
L 24.515625 72.90625 
L 43.109375 23.296875 
L 61.8125 72.90625 
L 76.515625 72.90625 
L 76.515625 0 
L 66.890625 0 
L 66.890625 64.015625 
L 48.09375 14.015625 
L 38.1875 14.015625 
L 19.390625 64.015625 
L 19.390625 0 
L 9.8125 0 
z
" id="DejaVuSans-77"/>
       <path d="M 34.28125 27.484375 
Q 23.390625 27.484375 19.1875 25 
Q 14.984375 22.515625 14.984375 16.5 
Q 14.984375 11.71875 18.140625 8.90625 
Q 21.296875 6.109375 26.703125 6.109375 
Q 34.1875 6.109375 38.703125 11.40625 
Q 43.21875 16.703125 43.21875 25.484375 
L 43.21875 27.484375 
z
M 52.203125 31.203125 
L 52.203125 0 
L 43.21875 0 
L 43.21875 8.296875 
Q 40.140625 3.328125 35.546875 0.953125 
Q 30.953125 -1.421875 24.3125 -1.421875 
Q 15.921875 -1.421875 10.953125 3.296875 
Q 6 8.015625 6 15.921875 
Q 6 25.140625 12.171875 29.828125 
Q 18.359375 34.515625 30.609375 34.515625 
L 43.21875 34.515625 
L 43.21875 35.40625 
Q 43.21875 41.609375 39.140625 45 
Q 35.0625 48.390625 27.6875 48.390625 
Q 23 48.390625 18.546875 47.265625 
Q 14.109375 46.140625 10.015625 43.890625 
L 10.015625 52.203125 
Q 14.9375 54.109375 19.578125 55.046875 
Q 24.21875 56 28.609375 56 
Q 40.484375 56 46.34375 49.84375 
Q 52.203125 43.703125 52.203125 31.203125 
z
" id="DejaVuSans-97"/>
       <path d="M 41.109375 46.296875 
Q 39.59375 47.171875 37.8125 47.578125 
Q 36.03125 48 33.890625 48 
Q 26.265625 48 22.1875 43.046875 
Q 18.109375 38.09375 18.109375 28.8125 
L 18.109375 0 
L 9.078125 0 
L 9.078125 54.6875 
L 18.109375 54.6875 
L 18.109375 46.1875 
Q 20.953125 51.171875 25.484375 53.578125 
Q 30.03125 56 36.53125 56 
Q 37.453125 56 38.578125 55.875 
Q 39.703125 55.765625 41.0625 55.515625 
z
" id="DejaVuSans-114"/>
       <path d="M 10.6875 12.40625 
L 21 12.40625 
L 21 0 
L 10.6875 0 
z
" id="DejaVuSans-46"/>
      </defs>
      <g transform="translate(98.099729 254.356563)scale(0.1 -0.1)">
       <use xlink:href="#DejaVuSans-77"/>
       <use x="86.279297" xlink:href="#DejaVuSans-97"/>
       <use x="147.558594" xlink:href="#DejaVuSans-114"/>
       <use x="188.53125" xlink:href="#DejaVuSans-46"/>
      </g>
      <!-- 15 -->
      <defs>
       <path d="M 12.40625 8.296875 
L 28.515625 8.296875 
L 28.515625 63.921875 
L 10.984375 60.40625 
L 10.984375 69.390625 
L 28.421875 72.90625 
L 38.28125 72.90625 
L 38.28125 8.296875 
L 54.390625 8.296875 
L 54.390625 0 
L 12.40625 0 
z
" id="DejaVuSans-49"/>
       <path d="M 10.796875 72.90625 
L 49.515625 72.90625 
L 49.515625 64.59375 
L 19.828125 64.59375 
L 19.828125 46.734375 
Q 21.96875 47.46875 24.109375 47.828125 
Q 26.265625 48.1875 28.421875 48.1875 
Q 40.625 48.1875 47.75 41.5 
Q 54.890625 34.8125 54.890625 23.390625 
Q 54.890625 11.625 47.5625 5.09375 
Q 40.234375 -1.421875 26.90625 -1.421875 
Q 22.3125 -1.421875 17.546875 -0.640625 
Q 12.796875 0.140625 7.71875 1.703125 
L 7.71875 11.625 
Q 12.109375 9.234375 16.796875 8.0625 
Q 21.484375 6.890625 26.703125 6.890625 
Q 35.15625 6.890625 40.078125 11.328125 
Q 45.015625 15.765625 45.015625 23.390625 
Q 45.015625 31 40.078125 35.4375 
Q 35.15625 39.890625 26.703125 39.890625 
Q 22.75 39.890625 18.8125 39.015625 
Q 14.890625 38.140625 10.796875 36.28125 
z
" id="DejaVuSans-53"/>
      </defs>
      <g transform="translate(102.752854 265.554375)scale(0.1 -0.1)">
       <use xlink:href="#DejaVuSans-49"/>
       <use x="63.623047" xlink:href="#DejaVuSans-53"/>
      </g>
     </g>
    </g>
    <g id="xtick_2">
     <g id="line2d_3">
      <path clip-path="url(#p1f62a56f40)" d="M 163.069725 239.758125 
L 163.069725 22.318125 
" style="fill:none;stroke:#b0b0b0;stroke-linecap:square;stroke-opacity:0.8;stroke-width:0.8;"/>
     </g>
     <g id="line2d_4">
      <g>
       <use style="stroke:#000000;stroke-width:0.8;" x="163.069725" xlink:href="#m6d1f413180" y="239.758125"/>
      </g>
     </g>
     <g id="text_2">
      <!-- Mar. -->
      <g transform="translate(152.0541 254.356563)scale(0.1 -0.1)">
       <use xlink:href="#DejaVuSans-77"/>
       <use x="86.279297" xlink:href="#DejaVuSans-97"/>
       <use x="147.558594" xlink:href="#DejaVuSans-114"/>
       <use x="188.53125" xlink:href="#DejaVuSans-46"/>
      </g>
      <!-- 22 -->
      <defs>
       <path d="M 19.1875 8.296875 
L 53.609375 8.296875 
L 53.609375 0 
L 7.328125 0 
L 7.328125 8.296875 
Q 12.9375 14.109375 22.625 23.890625 
Q 32.328125 33.6875 34.8125 36.53125 
Q 39.546875 41.84375 41.421875 45.53125 
Q 43.3125 49.21875 43.3125 52.78125 
Q 43.3125 58.59375 39.234375 62.25 
Q 35.15625 65.921875 28.609375 65.921875 
Q 23.96875 65.921875 18.8125 64.3125 
Q 13.671875 62.703125 7.8125 59.421875 
L 7.8125 69.390625 
Q 13.765625 71.78125 18.9375 73 
Q 24.125 74.21875 28.421875 74.21875 
Q 39.75 74.21875 46.484375 68.546875 
Q 53.21875 62.890625 53.21875 53.421875 
Q 53.21875 48.921875 51.53125 44.890625 
Q 49.859375 40.875 45.40625 35.40625 
Q 44.1875 33.984375 37.640625 27.21875 
Q 31.109375 20.453125 19.1875 8.296875 
z
" id="DejaVuSans-50"/>
      </defs>
      <g transform="translate(156.707225 265.554375)scale(0.1 -0.1)">
       <use xlink:href="#DejaVuSans-50"/>
       <use x="63.623047" xlink:href="#DejaVuSans-50"/>
      </g>
     </g>
    </g>
    <g id="xtick_3">
     <g id="line2d_5">
      <path clip-path="url(#p1f62a56f40)" d="M 240.147398 239.758125 
L 240.147398 22.318125 
" style="fill:none;stroke:#b0b0b0;stroke-linecap:square;stroke-opacity:0.8;stroke-width:0.8;"/>
     </g>
     <g id="line2d_6">
      <g>
       <use style="stroke:#000000;stroke-width:0.8;" x="240.147398" xlink:href="#m6d1f413180" y="239.758125"/>
      </g>
     </g>
     <g id="text_3">
      <!-- Apr. -->
      <defs>
       <path d="M 34.1875 63.1875 
L 20.796875 26.90625 
L 47.609375 26.90625 
z
M 28.609375 72.90625 
L 39.796875 72.90625 
L 67.578125 0 
L 57.328125 0 
L 50.6875 18.703125 
L 17.828125 18.703125 
L 11.1875 0 
L 0.78125 0 
z
" id="DejaVuSans-65"/>
       <path d="M 18.109375 8.203125 
L 18.109375 -20.796875 
L 9.078125 -20.796875 
L 9.078125 54.6875 
L 18.109375 54.6875 
L 18.109375 46.390625 
Q 20.953125 51.265625 25.265625 53.625 
Q 29.59375 56 35.59375 56 
Q 45.5625 56 51.78125 48.09375 
Q 58.015625 40.1875 58.015625 27.296875 
Q 58.015625 14.40625 51.78125 6.484375 
Q 45.5625 -1.421875 35.59375 -1.421875 
Q 29.59375 -1.421875 25.265625 0.953125 
Q 20.953125 3.328125 18.109375 8.203125 
z
M 48.6875 27.296875 
Q 48.6875 37.203125 44.609375 42.84375 
Q 40.53125 48.484375 33.40625 48.484375 
Q 26.265625 48.484375 22.1875 42.84375 
Q 18.109375 37.203125 18.109375 27.296875 
Q 18.109375 17.390625 22.1875 11.75 
Q 26.265625 6.109375 33.40625 6.109375 
Q 40.53125 6.109375 44.609375 11.75 
Q 48.6875 17.390625 48.6875 27.296875 
z
" id="DejaVuSans-112"/>
      </defs>
      <g transform="translate(229.915367 254.356563)scale(0.1 -0.1)">
       <use xlink:href="#DejaVuSans-65"/>
       <use x="68.408203" xlink:href="#DejaVuSans-112"/>
       <use x="131.884766" xlink:href="#DejaVuSans-114"/>
       <use x="172.857422" xlink:href="#DejaVuSans-46"/>
      </g>
      <!-- 01 -->
      <defs>
       <path d="M 31.78125 66.40625 
Q 24.171875 66.40625 20.328125 58.90625 
Q 16.5 51.421875 16.5 36.375 
Q 16.5 21.390625 20.328125 13.890625 
Q 24.171875 6.390625 31.78125 6.390625 
Q 39.453125 6.390625 43.28125 13.890625 
Q 47.125 21.390625 47.125 36.375 
Q 47.125 51.421875 43.28125 58.90625 
Q 39.453125 66.40625 31.78125 66.40625 
z
M 31.78125 74.21875 
Q 44.046875 74.21875 50.515625 64.515625 
Q 56.984375 54.828125 56.984375 36.375 
Q 56.984375 17.96875 50.515625 8.265625 
Q 44.046875 -1.421875 31.78125 -1.421875 
Q 19.53125 -1.421875 13.0625 8.265625 
Q 6.59375 17.96875 6.59375 36.375 
Q 6.59375 54.828125 13.0625 64.515625 
Q 19.53125 74.21875 31.78125 74.21875 
z
" id="DejaVuSans-48"/>
      </defs>
      <g transform="translate(233.784898 265.554375)scale(0.1 -0.1)">
       <use xlink:href="#DejaVuSans-48"/>
       <use x="63.623047" xlink:href="#DejaVuSans-49"/>
      </g>
     </g>
    </g>
    <g id="xtick_4">
     <g id="line2d_7">
      <path clip-path="url(#p1f62a56f40)" d="M 294.101769 239.758125 
L 294.101769 22.318125 
" style="fill:none;stroke:#b0b0b0;stroke-linecap:square;stroke-opacity:0.8;stroke-width:0.8;"/>
     </g>
     <g id="line2d_8">
      <g>
       <use style="stroke:#000000;stroke-width:0.8;" x="294.101769" xlink:href="#m6d1f413180" y="239.758125"/>
      </g>
     </g>
     <g id="text_4">
      <!-- Apr. -->
      <g transform="translate(283.869738 254.356563)scale(0.1 -0.1)">
       <use xlink:href="#DejaVuSans-65"/>
       <use x="68.408203" xlink:href="#DejaVuSans-112"/>
       <use x="131.884766" xlink:href="#DejaVuSans-114"/>
       <use x="172.857422" xlink:href="#DejaVuSans-46"/>
      </g>
      <!-- 08 -->
      <defs>
       <path d="M 31.78125 34.625 
Q 24.75 34.625 20.71875 30.859375 
Q 16.703125 27.09375 16.703125 20.515625 
Q 16.703125 13.921875 20.71875 10.15625 
Q 24.75 6.390625 31.78125 6.390625 
Q 38.8125 6.390625 42.859375 10.171875 
Q 46.921875 13.96875 46.921875 20.515625 
Q 46.921875 27.09375 42.890625 30.859375 
Q 38.875 34.625 31.78125 34.625 
z
M 21.921875 38.8125 
Q 15.578125 40.375 12.03125 44.71875 
Q 8.5 49.078125 8.5 55.328125 
Q 8.5 64.0625 14.71875 69.140625 
Q 20.953125 74.21875 31.78125 74.21875 
Q 42.671875 74.21875 48.875 69.140625 
Q 55.078125 64.0625 55.078125 55.328125 
Q 55.078125 49.078125 51.53125 44.71875 
Q 48 40.375 41.703125 38.8125 
Q 48.828125 37.15625 52.796875 32.3125 
Q 56.78125 27.484375 56.78125 20.515625 
Q 56.78125 9.90625 50.3125 4.234375 
Q 43.84375 -1.421875 31.78125 -1.421875 
Q 19.734375 -1.421875 13.25 4.234375 
Q 6.78125 9.90625 6.78125 20.515625 
Q 6.78125 27.484375 10.78125 32.3125 
Q 14.796875 37.15625 21.921875 38.8125 
z
M 18.3125 54.390625 
Q 18.3125 48.734375 21.84375 45.5625 
Q 25.390625 42.390625 31.78125 42.390625 
Q 38.140625 42.390625 41.71875 45.5625 
Q 45.3125 48.734375 45.3125 54.390625 
Q 45.3125 60.0625 41.71875 63.234375 
Q 38.140625 66.40625 31.78125 66.40625 
Q 25.390625 66.40625 21.84375 63.234375 
Q 18.3125 60.0625 18.3125 54.390625 
z
" id="DejaVuSans-56"/>
      </defs>
      <g transform="translate(287.739269 265.554375)scale(0.1 -0.1)">
       <use xlink:href="#DejaVuSans-48"/>
       <use x="63.623047" xlink:href="#DejaVuSans-56"/>
      </g>
     </g>
    </g>
    <g id="xtick_5">
     <g id="line2d_9">
      <path clip-path="url(#p1f62a56f40)" d="M 348.05614 239.758125 
L 348.05614 22.318125 
" style="fill:none;stroke:#b0b0b0;stroke-linecap:square;stroke-opacity:0.8;stroke-width:0.8;"/>
     </g>
     <g id="line2d_10">
      <g>
       <use style="stroke:#000000;stroke-width:0.8;" x="348.05614" xlink:href="#m6d1f413180" y="239.758125"/>
      </g>
     </g>
     <g id="text_5">
      <!-- Apr. -->
      <g transform="translate(337.824109 254.356563)scale(0.1 -0.1)">
       <use xlink:href="#DejaVuSans-65"/>
       <use x="68.408203" xlink:href="#DejaVuSans-112"/>
       <use x="131.884766" xlink:href="#DejaVuSans-114"/>
       <use x="172.857422" xlink:href="#DejaVuSans-46"/>
      </g>
      <!-- 15 -->
      <g transform="translate(341.69364 265.554375)scale(0.1 -0.1)">
       <use xlink:href="#DejaVuSans-49"/>
       <use x="63.623047" xlink:href="#DejaVuSans-53"/>
      </g>
     </g>
    </g>
   </g>
   <g id="matplotlib.axis_2">
    <g id="ytick_1">
     <g id="line2d_11">
      <path clip-path="url(#p1f62a56f40)" d="M 62.86875 239.758125 
L 397.66875 239.758125 
" style="fill:none;stroke:#b0b0b0;stroke-linecap:square;stroke-opacity:0.8;stroke-width:0.8;"/>
     </g>
     <g id="line2d_12">
      <defs>
       <path d="M 0 0 
L -3.5 0 
" id="me091c6d905" style="stroke:#000000;stroke-width:0.8;"/>
      </defs>
      <g>
       <use style="stroke:#000000;stroke-width:0.8;" x="62.86875" xlink:href="#me091c6d905" y="239.758125"/>
      </g>
     </g>
     <g id="text_6">
      <!-- 2 -->
      <g transform="translate(49.50625 243.557344)scale(0.1 -0.1)">
       <use xlink:href="#DejaVuSans-50"/>
      </g>
     </g>
    </g>
    <g id="ytick_2">
     <g id="line2d_13">
      <path clip-path="url(#p1f62a56f40)" d="M 62.86875 220.752145 
L 397.66875 220.752145 
" style="fill:none;stroke:#b0b0b0;stroke-linecap:square;stroke-opacity:0.8;stroke-width:0.8;"/>
     </g>
     <g id="line2d_14">
      <g>
       <use style="stroke:#000000;stroke-width:0.8;" x="62.86875" xlink:href="#me091c6d905" y="220.752145"/>
      </g>
     </g>
     <g id="text_7">
      <!-- 5 -->
      <g transform="translate(49.50625 224.551364)scale(0.1 -0.1)">
       <use xlink:href="#DejaVuSans-53"/>
      </g>
     </g>
    </g>
    <g id="ytick_3">
     <g id="line2d_15">
      <path clip-path="url(#p1f62a56f40)" d="M 62.86875 206.374676 
L 397.66875 206.374676 
" style="fill:none;stroke:#b0b0b0;stroke-linecap:square;stroke-opacity:0.8;stroke-width:0.8;"/>
     </g>
     <g id="line2d_16">
      <g>
       <use style="stroke:#000000;stroke-width:0.8;" x="62.86875" xlink:href="#me091c6d905" y="206.374676"/>
      </g>
     </g>
     <g id="text_8">
      <!-- 10 -->
      <g transform="translate(43.14375 210.173895)scale(0.1 -0.1)">
       <use xlink:href="#DejaVuSans-49"/>
       <use x="63.623047" xlink:href="#DejaVuSans-48"/>
      </g>
     </g>
    </g>
    <g id="ytick_4">
     <g id="line2d_17">
      <path clip-path="url(#p1f62a56f40)" d="M 62.86875 191.997207 
L 397.66875 191.997207 
" style="fill:none;stroke:#b0b0b0;stroke-linecap:square;stroke-opacity:0.8;stroke-width:0.8;"/>
     </g>
     <g id="line2d_18">
      <g>
       <use style="stroke:#000000;stroke-width:0.8;" x="62.86875" xlink:href="#me091c6d905" y="191.997207"/>
      </g>
     </g>
     <g id="text_9">
      <!-- 20 -->
      <g transform="translate(43.14375 195.796426)scale(0.1 -0.1)">
       <use xlink:href="#DejaVuSans-50"/>
       <use x="63.623047" xlink:href="#DejaVuSans-48"/>
      </g>
     </g>
    </g>
    <g id="ytick_5">
     <g id="line2d_19">
      <path clip-path="url(#p1f62a56f40)" d="M 62.86875 172.991228 
L 397.66875 172.991228 
" style="fill:none;stroke:#b0b0b0;stroke-linecap:square;stroke-opacity:0.8;stroke-width:0.8;"/>
     </g>
     <g id="line2d_20">
      <g>
       <use style="stroke:#000000;stroke-width:0.8;" x="62.86875" xlink:href="#me091c6d905" y="172.991228"/>
      </g>
     </g>
     <g id="text_10">
      <!-- 50 -->
      <g transform="translate(43.14375 176.790446)scale(0.1 -0.1)">
       <use xlink:href="#DejaVuSans-53"/>
       <use x="63.623047" xlink:href="#DejaVuSans-48"/>
      </g>
     </g>
    </g>
    <g id="ytick_6">
     <g id="line2d_21">
      <path clip-path="url(#p1f62a56f40)" d="M 62.86875 158.613759 
L 397.66875 158.613759 
" style="fill:none;stroke:#b0b0b0;stroke-linecap:square;stroke-opacity:0.8;stroke-width:0.8;"/>
     </g>
     <g id="line2d_22">
      <g>
       <use style="stroke:#000000;stroke-width:0.8;" x="62.86875" xlink:href="#me091c6d905" y="158.613759"/>
      </g>
     </g>
     <g id="text_11">
      <!-- 100 -->
      <g transform="translate(36.78125 162.412977)scale(0.1 -0.1)">
       <use xlink:href="#DejaVuSans-49"/>
       <use x="63.623047" xlink:href="#DejaVuSans-48"/>
       <use x="127.246094" xlink:href="#DejaVuSans-48"/>
      </g>
     </g>
    </g>
    <g id="ytick_7">
     <g id="line2d_23">
      <path clip-path="url(#p1f62a56f40)" d="M 62.86875 144.23629 
L 397.66875 144.23629 
" style="fill:none;stroke:#b0b0b0;stroke-linecap:square;stroke-opacity:0.8;stroke-width:0.8;"/>
     </g>
     <g id="line2d_24">
      <g>
       <use style="stroke:#000000;stroke-width:0.8;" x="62.86875" xlink:href="#me091c6d905" y="144.23629"/>
      </g>
     </g>
     <g id="text_12">
      <!-- 200 -->
      <g transform="translate(36.78125 148.035509)scale(0.1 -0.1)">
       <use xlink:href="#DejaVuSans-50"/>
       <use x="63.623047" xlink:href="#DejaVuSans-48"/>
       <use x="127.246094" xlink:href="#DejaVuSans-48"/>
      </g>
     </g>
    </g>
    <g id="ytick_8">
     <g id="line2d_25">
      <path clip-path="url(#p1f62a56f40)" d="M 62.86875 125.23031 
L 397.66875 125.23031 
" style="fill:none;stroke:#b0b0b0;stroke-linecap:square;stroke-opacity:0.8;stroke-width:0.8;"/>
     </g>
     <g id="line2d_26">
      <g>
       <use style="stroke:#000000;stroke-width:0.8;" x="62.86875" xlink:href="#me091c6d905" y="125.23031"/>
      </g>
     </g>
     <g id="text_13">
      <!-- 500 -->
      <g transform="translate(36.78125 129.029529)scale(0.1 -0.1)">
       <use xlink:href="#DejaVuSans-53"/>
       <use x="63.623047" xlink:href="#DejaVuSans-48"/>
       <use x="127.246094" xlink:href="#DejaVuSans-48"/>
      </g>
     </g>
    </g>
    <g id="ytick_9">
     <g id="line2d_27">
      <path clip-path="url(#p1f62a56f40)" d="M 62.86875 110.852841 
L 397.66875 110.852841 
" style="fill:none;stroke:#b0b0b0;stroke-linecap:square;stroke-opacity:0.8;stroke-width:0.8;"/>
     </g>
     <g id="line2d_28">
      <g>
       <use style="stroke:#000000;stroke-width:0.8;" x="62.86875" xlink:href="#me091c6d905" y="110.852841"/>
      </g>
     </g>
     <g id="text_14">
      <!-- 1,000 -->
      <defs>
       <path d="M 11.71875 12.40625 
L 22.015625 12.40625 
L 22.015625 4 
L 14.015625 -11.625 
L 7.71875 -11.625 
L 11.71875 4 
z
" id="DejaVuSans-44"/>
      </defs>
      <g transform="translate(27.240625 114.65206)scale(0.1 -0.1)">
       <use xlink:href="#DejaVuSans-49"/>
       <use x="63.623047" xlink:href="#DejaVuSans-44"/>
       <use x="95.410156" xlink:href="#DejaVuSans-48"/>
       <use x="159.033203" xlink:href="#DejaVuSans-48"/>
       <use x="222.65625" xlink:href="#DejaVuSans-48"/>
      </g>
     </g>
    </g>
    <g id="ytick_10">
     <g id="line2d_29">
      <path clip-path="url(#p1f62a56f40)" d="M 62.86875 96.475372 
L 397.66875 96.475372 
" style="fill:none;stroke:#b0b0b0;stroke-linecap:square;stroke-opacity:0.8;stroke-width:0.8;"/>
     </g>
     <g id="line2d_30">
      <g>
       <use style="stroke:#000000;stroke-width:0.8;" x="62.86875" xlink:href="#me091c6d905" y="96.475372"/>
      </g>
     </g>
     <g id="text_15">
      <!-- 2,000 -->
      <g transform="translate(27.240625 100.274591)scale(0.1 -0.1)">
       <use xlink:href="#DejaVuSans-50"/>
       <use x="63.623047" xlink:href="#DejaVuSans-44"/>
       <use x="95.410156" xlink:href="#DejaVuSans-48"/>
       <use x="159.033203" xlink:href="#DejaVuSans-48"/>
       <use x="222.65625" xlink:href="#DejaVuSans-48"/>
      </g>
     </g>
    </g>
    <g id="ytick_11">
     <g id="line2d_31">
      <path clip-path="url(#p1f62a56f40)" d="M 62.86875 77.469392 
L 397.66875 77.469392 
" style="fill:none;stroke:#b0b0b0;stroke-linecap:square;stroke-opacity:0.8;stroke-width:0.8;"/>
     </g>
     <g id="line2d_32">
      <g>
       <use style="stroke:#000000;stroke-width:0.8;" x="62.86875" xlink:href="#me091c6d905" y="77.469392"/>
      </g>
     </g>
     <g id="text_16">
      <!-- 5,000 -->
      <g transform="translate(27.240625 81.268611)scale(0.1 -0.1)">
       <use xlink:href="#DejaVuSans-53"/>
       <use x="63.623047" xlink:href="#DejaVuSans-44"/>
       <use x="95.410156" xlink:href="#DejaVuSans-48"/>
       <use x="159.033203" xlink:href="#DejaVuSans-48"/>
       <use x="222.65625" xlink:href="#DejaVuSans-48"/>
      </g>
     </g>
    </g>
    <g id="ytick_12">
     <g id="line2d_33">
      <path clip-path="url(#p1f62a56f40)" d="M 62.86875 63.091924 
L 397.66875 63.091924 
" style="fill:none;stroke:#b0b0b0;stroke-linecap:square;stroke-opacity:0.8;stroke-width:0.8;"/>
     </g>
     <g id="line2d_34">
      <g>
       <use style="stroke:#000000;stroke-width:0.8;" x="62.86875" xlink:href="#me091c6d905" y="63.091924"/>
      </g>
     </g>
     <g id="text_17">
      <!-- 10,000 -->
      <g transform="translate(20.878125 66.891142)scale(0.1 -0.1)">
       <use xlink:href="#DejaVuSans-49"/>
       <use x="63.623047" xlink:href="#DejaVuSans-48"/>
       <use x="127.246094" xlink:href="#DejaVuSans-44"/>
       <use x="159.033203" xlink:href="#DejaVuSans-48"/>
       <use x="222.65625" xlink:href="#DejaVuSans-48"/>
       <use x="286.279297" xlink:href="#DejaVuSans-48"/>
      </g>
     </g>
    </g>
    <g id="ytick_13">
     <g id="line2d_35">
      <path clip-path="url(#p1f62a56f40)" d="M 62.86875 48.714455 
L 397.66875 48.714455 
" style="fill:none;stroke:#b0b0b0;stroke-linecap:square;stroke-opacity:0.8;stroke-width:0.8;"/>
     </g>
     <g id="line2d_36">
      <g>
       <use style="stroke:#000000;stroke-width:0.8;" x="62.86875" xlink:href="#me091c6d905" y="48.714455"/>
      </g>
     </g>
     <g id="text_18">
      <!-- 20,000 -->
      <g transform="translate(20.878125 52.513674)scale(0.1 -0.1)">
       <use xlink:href="#DejaVuSans-50"/>
       <use x="63.623047" xlink:href="#DejaVuSans-48"/>
       <use x="127.246094" xlink:href="#DejaVuSans-44"/>
       <use x="159.033203" xlink:href="#DejaVuSans-48"/>
       <use x="222.65625" xlink:href="#DejaVuSans-48"/>
       <use x="286.279297" xlink:href="#DejaVuSans-48"/>
      </g>
     </g>
    </g>
    <g id="ytick_14">
     <g id="line2d_37">
      <path clip-path="url(#p1f62a56f40)" d="M 62.86875 29.708475 
L 397.66875 29.708475 
" style="fill:none;stroke:#b0b0b0;stroke-linecap:square;stroke-opacity:0.8;stroke-width:0.8;"/>
     </g>
     <g id="line2d_38">
      <g>
       <use style="stroke:#000000;stroke-width:0.8;" x="62.86875" xlink:href="#me091c6d905" y="29.708475"/>
      </g>
     </g>
     <g id="text_19">
      <!-- 50,000 -->
      <g transform="translate(20.878125 33.507694)scale(0.1 -0.1)">
       <use xlink:href="#DejaVuSans-53"/>
       <use x="63.623047" xlink:href="#DejaVuSans-48"/>
       <use x="127.246094" xlink:href="#DejaVuSans-44"/>
       <use x="159.033203" xlink:href="#DejaVuSans-48"/>
       <use x="222.65625" xlink:href="#DejaVuSans-48"/>
       <use x="286.279297" xlink:href="#DejaVuSans-48"/>
      </g>
     </g>
    </g>
    <g id="ytick_15">
     <g id="line2d_39">
      <defs>
       <path d="M 0 0 
L -2 0 
" id="me0e869803b" style="stroke:#000000;stroke-width:0.6;"/>
      </defs>
      <g>
       <use style="stroke:#000000;stroke-width:0.6;" x="62.86875" xlink:href="#me0e869803b" y="231.347845"/>
      </g>
     </g>
    </g>
    <g id="ytick_16">
     <g id="line2d_40">
      <g>
       <use style="stroke:#000000;stroke-width:0.6;" x="62.86875" xlink:href="#me0e869803b" y="225.380656"/>
      </g>
     </g>
    </g>
    <g id="ytick_17">
     <g id="line2d_41">
      <g>
       <use style="stroke:#000000;stroke-width:0.6;" x="62.86875" xlink:href="#me0e869803b" y="216.970376"/>
      </g>
     </g>
    </g>
    <g id="ytick_18">
     <g id="line2d_42">
      <g>
       <use style="stroke:#000000;stroke-width:0.6;" x="62.86875" xlink:href="#me0e869803b" y="213.772936"/>
      </g>
     </g>
    </g>
    <g id="ytick_19">
     <g id="line2d_43">
      <g>
       <use style="stroke:#000000;stroke-width:0.6;" x="62.86875" xlink:href="#me0e869803b" y="211.003187"/>
      </g>
     </g>
    </g>
    <g id="ytick_20">
     <g id="line2d_44">
      <g>
       <use style="stroke:#000000;stroke-width:0.6;" x="62.86875" xlink:href="#me0e869803b" y="208.560096"/>
      </g>
     </g>
    </g>
    <g id="ytick_21">
     <g id="line2d_45">
      <g>
       <use style="stroke:#000000;stroke-width:0.6;" x="62.86875" xlink:href="#me0e869803b" y="183.586927"/>
      </g>
     </g>
    </g>
    <g id="ytick_22">
     <g id="line2d_46">
      <g>
       <use style="stroke:#000000;stroke-width:0.6;" x="62.86875" xlink:href="#me0e869803b" y="177.619739"/>
      </g>
     </g>
    </g>
    <g id="ytick_23">
     <g id="line2d_47">
      <g>
       <use style="stroke:#000000;stroke-width:0.6;" x="62.86875" xlink:href="#me0e869803b" y="169.209459"/>
      </g>
     </g>
    </g>
    <g id="ytick_24">
     <g id="line2d_48">
      <g>
       <use style="stroke:#000000;stroke-width:0.6;" x="62.86875" xlink:href="#me0e869803b" y="166.012018"/>
      </g>
     </g>
    </g>
    <g id="ytick_25">
     <g id="line2d_49">
      <g>
       <use style="stroke:#000000;stroke-width:0.6;" x="62.86875" xlink:href="#me0e869803b" y="163.24227"/>
      </g>
     </g>
    </g>
    <g id="ytick_26">
     <g id="line2d_50">
      <g>
       <use style="stroke:#000000;stroke-width:0.6;" x="62.86875" xlink:href="#me0e869803b" y="160.799178"/>
      </g>
     </g>
    </g>
    <g id="ytick_27">
     <g id="line2d_51">
      <g>
       <use style="stroke:#000000;stroke-width:0.6;" x="62.86875" xlink:href="#me0e869803b" y="135.82601"/>
      </g>
     </g>
    </g>
    <g id="ytick_28">
     <g id="line2d_52">
      <g>
       <use style="stroke:#000000;stroke-width:0.6;" x="62.86875" xlink:href="#me0e869803b" y="129.858821"/>
      </g>
     </g>
    </g>
    <g id="ytick_29">
     <g id="line2d_53">
      <g>
       <use style="stroke:#000000;stroke-width:0.6;" x="62.86875" xlink:href="#me0e869803b" y="121.448541"/>
      </g>
     </g>
    </g>
    <g id="ytick_30">
     <g id="line2d_54">
      <g>
       <use style="stroke:#000000;stroke-width:0.6;" x="62.86875" xlink:href="#me0e869803b" y="118.251101"/>
      </g>
     </g>
    </g>
    <g id="ytick_31">
     <g id="line2d_55">
      <g>
       <use style="stroke:#000000;stroke-width:0.6;" x="62.86875" xlink:href="#me0e869803b" y="115.481352"/>
      </g>
     </g>
    </g>
    <g id="ytick_32">
     <g id="line2d_56">
      <g>
       <use style="stroke:#000000;stroke-width:0.6;" x="62.86875" xlink:href="#me0e869803b" y="113.038261"/>
      </g>
     </g>
    </g>
    <g id="ytick_33">
     <g id="line2d_57">
      <g>
       <use style="stroke:#000000;stroke-width:0.6;" x="62.86875" xlink:href="#me0e869803b" y="88.065092"/>
      </g>
     </g>
    </g>
    <g id="ytick_34">
     <g id="line2d_58">
      <g>
       <use style="stroke:#000000;stroke-width:0.6;" x="62.86875" xlink:href="#me0e869803b" y="82.097904"/>
      </g>
     </g>
    </g>
    <g id="ytick_35">
     <g id="line2d_59">
      <g>
       <use style="stroke:#000000;stroke-width:0.6;" x="62.86875" xlink:href="#me0e869803b" y="73.687623"/>
      </g>
     </g>
    </g>
    <g id="ytick_36">
     <g id="line2d_60">
      <g>
       <use style="stroke:#000000;stroke-width:0.6;" x="62.86875" xlink:href="#me0e869803b" y="70.490183"/>
      </g>
     </g>
    </g>
    <g id="ytick_37">
     <g id="line2d_61">
      <g>
       <use style="stroke:#000000;stroke-width:0.6;" x="62.86875" xlink:href="#me0e869803b" y="67.720435"/>
      </g>
     </g>
    </g>
    <g id="ytick_38">
     <g id="line2d_62">
      <g>
       <use style="stroke:#000000;stroke-width:0.6;" x="62.86875" xlink:href="#me0e869803b" y="65.277343"/>
      </g>
     </g>
    </g>
    <g id="ytick_39">
     <g id="line2d_63">
      <g>
       <use style="stroke:#000000;stroke-width:0.6;" x="62.86875" xlink:href="#me0e869803b" y="40.304175"/>
      </g>
     </g>
    </g>
    <g id="ytick_40">
     <g id="line2d_64">
      <g>
       <use style="stroke:#000000;stroke-width:0.6;" x="62.86875" xlink:href="#me0e869803b" y="34.336986"/>
      </g>
     </g>
    </g>
    <g id="ytick_41">
     <g id="line2d_65">
      <g>
       <use style="stroke:#000000;stroke-width:0.6;" x="62.86875" xlink:href="#me0e869803b" y="25.926706"/>
      </g>
     </g>
    </g>
    <g id="ytick_42">
     <g id="line2d_66">
      <g>
       <use style="stroke:#000000;stroke-width:0.6;" x="62.86875" xlink:href="#me0e869803b" y="22.729266"/>
      </g>
     </g>
    </g>
    <g id="text_20">
     <!-- Total cases per million -->
     <defs>
      <path d="M -0.296875 72.90625 
L 61.375 72.90625 
L 61.375 64.59375 
L 35.5 64.59375 
L 35.5 0 
L 25.59375 0 
L 25.59375 64.59375 
L -0.296875 64.59375 
z
" id="DejaVuSans-84"/>
      <path d="M 30.609375 48.390625 
Q 23.390625 48.390625 19.1875 42.75 
Q 14.984375 37.109375 14.984375 27.296875 
Q 14.984375 17.484375 19.15625 11.84375 
Q 23.34375 6.203125 30.609375 6.203125 
Q 37.796875 6.203125 41.984375 11.859375 
Q 46.1875 17.53125 46.1875 27.296875 
Q 46.1875 37.015625 41.984375 42.703125 
Q 37.796875 48.390625 30.609375 48.390625 
z
M 30.609375 56 
Q 42.328125 56 49.015625 48.375 
Q 55.71875 40.765625 55.71875 27.296875 
Q 55.71875 13.875 49.015625 6.21875 
Q 42.328125 -1.421875 30.609375 -1.421875 
Q 18.84375 -1.421875 12.171875 6.21875 
Q 5.515625 13.875 5.515625 27.296875 
Q 5.515625 40.765625 12.171875 48.375 
Q 18.84375 56 30.609375 56 
z
" id="DejaVuSans-111"/>
      <path d="M 18.3125 70.21875 
L 18.3125 54.6875 
L 36.8125 54.6875 
L 36.8125 47.703125 
L 18.3125 47.703125 
L 18.3125 18.015625 
Q 18.3125 11.328125 20.140625 9.421875 
Q 21.96875 7.515625 27.59375 7.515625 
L 36.8125 7.515625 
L 36.8125 0 
L 27.59375 0 
Q 17.1875 0 13.234375 3.875 
Q 9.28125 7.765625 9.28125 18.015625 
L 9.28125 47.703125 
L 2.6875 47.703125 
L 2.6875 54.6875 
L 9.28125 54.6875 
L 9.28125 70.21875 
z
" id="DejaVuSans-116"/>
      <path d="M 9.421875 75.984375 
L 18.40625 75.984375 
L 18.40625 0 
L 9.421875 0 
z
" id="DejaVuSans-108"/>
      <path id="DejaVuSans-32"/>
      <path d="M 48.78125 52.59375 
L 48.78125 44.1875 
Q 44.96875 46.296875 41.140625 47.34375 
Q 37.3125 48.390625 33.40625 48.390625 
Q 24.65625 48.390625 19.8125 42.84375 
Q 14.984375 37.3125 14.984375 27.296875 
Q 14.984375 17.28125 19.8125 11.734375 
Q 24.65625 6.203125 33.40625 6.203125 
Q 37.3125 6.203125 41.140625 7.25 
Q 44.96875 8.296875 48.78125 10.40625 
L 48.78125 2.09375 
Q 45.015625 0.34375 40.984375 -0.53125 
Q 36.96875 -1.421875 32.421875 -1.421875 
Q 20.0625 -1.421875 12.78125 6.34375 
Q 5.515625 14.109375 5.515625 27.296875 
Q 5.515625 40.671875 12.859375 48.328125 
Q 20.21875 56 33.015625 56 
Q 37.15625 56 41.109375 55.140625 
Q 45.0625 54.296875 48.78125 52.59375 
z
" id="DejaVuSans-99"/>
      <path d="M 44.28125 53.078125 
L 44.28125 44.578125 
Q 40.484375 46.53125 36.375 47.5 
Q 32.28125 48.484375 27.875 48.484375 
Q 21.1875 48.484375 17.84375 46.4375 
Q 14.5 44.390625 14.5 40.28125 
Q 14.5 37.15625 16.890625 35.375 
Q 19.28125 33.59375 26.515625 31.984375 
L 29.59375 31.296875 
Q 39.15625 29.25 43.1875 25.515625 
Q 47.21875 21.78125 47.21875 15.09375 
Q 47.21875 7.46875 41.1875 3.015625 
Q 35.15625 -1.421875 24.609375 -1.421875 
Q 20.21875 -1.421875 15.453125 -0.5625 
Q 10.6875 0.296875 5.421875 2 
L 5.421875 11.28125 
Q 10.40625 8.6875 15.234375 7.390625 
Q 20.0625 6.109375 24.8125 6.109375 
Q 31.15625 6.109375 34.5625 8.28125 
Q 37.984375 10.453125 37.984375 14.40625 
Q 37.984375 18.0625 35.515625 20.015625 
Q 33.0625 21.96875 24.703125 23.78125 
L 21.578125 24.515625 
Q 13.234375 26.265625 9.515625 29.90625 
Q 5.8125 33.546875 5.8125 39.890625 
Q 5.8125 47.609375 11.28125 51.796875 
Q 16.75 56 26.8125 56 
Q 31.78125 56 36.171875 55.265625 
Q 40.578125 54.546875 44.28125 53.078125 
z
" id="DejaVuSans-115"/>
      <path d="M 56.203125 29.59375 
L 56.203125 25.203125 
L 14.890625 25.203125 
Q 15.484375 15.921875 20.484375 11.0625 
Q 25.484375 6.203125 34.421875 6.203125 
Q 39.59375 6.203125 44.453125 7.46875 
Q 49.3125 8.734375 54.109375 11.28125 
L 54.109375 2.78125 
Q 49.265625 0.734375 44.1875 -0.34375 
Q 39.109375 -1.421875 33.890625 -1.421875 
Q 20.796875 -1.421875 13.15625 6.1875 
Q 5.515625 13.8125 5.515625 26.8125 
Q 5.515625 40.234375 12.765625 48.109375 
Q 20.015625 56 32.328125 56 
Q 43.359375 56 49.78125 48.890625 
Q 56.203125 41.796875 56.203125 29.59375 
z
M 47.21875 32.234375 
Q 47.125 39.59375 43.09375 43.984375 
Q 39.0625 48.390625 32.421875 48.390625 
Q 24.90625 48.390625 20.390625 44.140625 
Q 15.875 39.890625 15.1875 32.171875 
z
" id="DejaVuSans-101"/>
      <path d="M 52 44.1875 
Q 55.375 50.25 60.0625 53.125 
Q 64.75 56 71.09375 56 
Q 79.640625 56 84.28125 50.015625 
Q 88.921875 44.046875 88.921875 33.015625 
L 88.921875 0 
L 79.890625 0 
L 79.890625 32.71875 
Q 79.890625 40.578125 77.09375 44.375 
Q 74.3125 48.1875 68.609375 48.1875 
Q 61.625 48.1875 57.5625 43.546875 
Q 53.515625 38.921875 53.515625 30.90625 
L 53.515625 0 
L 44.484375 0 
L 44.484375 32.71875 
Q 44.484375 40.625 41.703125 44.40625 
Q 38.921875 48.1875 33.109375 48.1875 
Q 26.21875 48.1875 22.15625 43.53125 
Q 18.109375 38.875 18.109375 30.90625 
L 18.109375 0 
L 9.078125 0 
L 9.078125 54.6875 
L 18.109375 54.6875 
L 18.109375 46.1875 
Q 21.1875 51.21875 25.484375 53.609375 
Q 29.78125 56 35.6875 56 
Q 41.65625 56 45.828125 52.96875 
Q 50 49.953125 52 44.1875 
z
" id="DejaVuSans-109"/>
      <path d="M 9.421875 54.6875 
L 18.40625 54.6875 
L 18.40625 0 
L 9.421875 0 
z
M 9.421875 75.984375 
L 18.40625 75.984375 
L 18.40625 64.59375 
L 9.421875 64.59375 
z
" id="DejaVuSans-105"/>
      <path d="M 54.890625 33.015625 
L 54.890625 0 
L 45.90625 0 
L 45.90625 32.71875 
Q 45.90625 40.484375 42.875 44.328125 
Q 39.84375 48.1875 33.796875 48.1875 
Q 26.515625 48.1875 22.3125 43.546875 
Q 18.109375 38.921875 18.109375 30.90625 
L 18.109375 0 
L 9.078125 0 
L 9.078125 54.6875 
L 18.109375 54.6875 
L 18.109375 46.1875 
Q 21.34375 51.125 25.703125 53.5625 
Q 30.078125 56 35.796875 56 
Q 45.21875 56 50.046875 50.171875 
Q 54.890625 44.34375 54.890625 33.015625 
z
" id="DejaVuSans-110"/>
     </defs>
     <g transform="translate(14.798438 187.37875)rotate(-90)scale(0.1 -0.1)">
      <use xlink:href="#DejaVuSans-84"/>
      <use x="60.818359" xlink:href="#DejaVuSans-111"/>
      <use x="122" xlink:href="#DejaVuSans-116"/>
      <use x="161.208984" xlink:href="#DejaVuSans-97"/>
      <use x="222.488281" xlink:href="#DejaVuSans-108"/>
      <use x="250.271484" xlink:href="#DejaVuSans-32"/>
      <use x="282.058594" xlink:href="#DejaVuSans-99"/>
      <use x="337.039062" xlink:href="#DejaVuSans-97"/>
      <use x="398.318359" xlink:href="#DejaVuSans-115"/>
      <use x="450.417969" xlink:href="#DejaVuSans-101"/>
      <use x="511.941406" xlink:href="#DejaVuSans-115"/>
      <use x="564.041016" xlink:href="#DejaVuSans-32"/>
      <use x="595.828125" xlink:href="#DejaVuSans-112"/>
      <use x="659.304688" xlink:href="#DejaVuSans-101"/>
      <use x="720.828125" xlink:href="#DejaVuSans-114"/>
      <use x="761.941406" xlink:href="#DejaVuSans-32"/>
      <use x="793.728516" xlink:href="#DejaVuSans-109"/>
      <use x="891.140625" xlink:href="#DejaVuSans-105"/>
      <use x="918.923828" xlink:href="#DejaVuSans-108"/>
      <use x="946.707031" xlink:href="#DejaVuSans-108"/>
      <use x="974.490234" xlink:href="#DejaVuSans-105"/>
      <use x="1002.273438" xlink:href="#DejaVuSans-111"/>
      <use x="1063.455078" xlink:href="#DejaVuSans-110"/>
     </g>
    </g>
   </g>
   <g id="line2d_67">
    <path clip-path="url(#p1f62a56f40)" d="M 332.640605 63.03917 
L 340.348373 62.192038 
L 348.05614 61.344907 
L 355.763907 60.497776 
L 363.471675 59.650644 
" style="fill:none;stroke:#7f7f7f;stroke-dasharray:7.4,3.2;stroke-dashoffset:0;stroke-width:2;"/>
   </g>
   <g id="line2d_68">
    <path clip-path="url(#p1f62a56f40)" d="M 332.640605 91.419407 
L 340.348373 90.582312 
L 348.05614 89.745217 
L 355.763907 88.908122 
L 363.471675 88.071027 
" style="fill:none;stroke:#7f7f7f;stroke-dasharray:7.4,3.2;stroke-dashoffset:0;stroke-width:2;"/>
   </g>
   <g id="line2d_69">
    <path clip-path="url(#p1f62a56f40)" d="M 332.640605 104.114044 
L 340.348373 103.685896 
L 348.05614 103.257748 
L 355.763907 102.8296 
L 363.471675 102.401452 
" style="fill:none;stroke:#7f7f7f;stroke-dasharray:7.4,3.2;stroke-dashoffset:0;stroke-width:2;"/>
   </g>
   <g id="line2d_70">
    <path clip-path="url(#p1f62a56f40)" d="M 332.640605 121.840898 
L 340.348373 120.982661 
L 348.05614 120.124425 
L 355.763907 119.266188 
L 363.471675 118.407952 
" style="fill:none;stroke:#7f7f7f;stroke-dasharray:7.4,3.2;stroke-dashoffset:0;stroke-width:2;"/>
   </g>
   <g id="line2d_71">
    <path clip-path="url(#p1f62a56f40)" d="M 332.640605 136.346034 
L 340.348373 135.16758 
L 348.05614 133.989125 
L 355.763907 132.81067 
L 363.471675 131.632215 
" style="fill:none;stroke:#7f7f7f;stroke-dasharray:7.4,3.2;stroke-dashoffset:0;stroke-width:2;"/>
   </g>
   <g id="line2d_72">
    <path clip-path="url(#p1f62a56f40)" d="M 39.745448 263.69715 
L 47.453215 257.706538 
L 55.160983 251.715926 
L 62.86875 245.725314 
L 70.576517 239.734702 
L 78.284285 233.74409 
L 85.992052 227.753478 
L 93.699819 221.762866 
L 101.407586 215.772254 
L 109.115354 209.781642 
L 116.823121 203.79103 
L 124.530888 197.800418 
L 132.238656 191.809806 
L 139.946423 185.819194 
L 147.65419 179.828582 
L 155.361958 173.83797 
L 163.069725 167.847358 
L 170.777492 161.856746 
L 178.485259 155.866134 
L 186.193027 149.875522 
L 193.900794 143.88491 
L 201.608561 137.894298 
L 209.316329 131.903686 
L 217.024096 125.913074 
L 224.731863 119.922462 
L 232.439631 113.93185 
L 240.147398 107.941238 
L 247.855165 101.950626 
L 255.562932 95.960014 
L 263.2707 89.969402 
L 270.978467 83.97879 
L 278.686234 77.988178 
L 286.394002 71.997566 
L 294.101769 66.006954 
L 301.809536 60.016342 
L 309.517304 54.02573 
L 317.225071 48.035118 
L 324.932838 42.044506 
L 332.640605 36.053894 
L 340.348373 30.063282 
L 348.05614 24.07267 
L 355.763907 18.082058 
L 363.471675 12.091446 
" style="fill:none;stroke:#d62728;stroke-dasharray:5.55,2.4;stroke-dashoffset:0;stroke-width:1.5;"/>
   </g>
   <g id="patch_3">
    <path d="M 62.86875 239.758125 
L 62.86875 22.318125 
" style="fill:none;stroke:#000000;stroke-linecap:square;stroke-linejoin:miter;stroke-width:0.8;"/>
   </g>
   <g id="patch_4">
    <path d="M 397.66875 239.758125 
L 397.66875 22.318125 
" style="fill:none;stroke:#000000;stroke-linecap:square;stroke-linejoin:miter;stroke-width:0.8;"/>
   </g>
   <g id="patch_5">
    <path d="M 62.86875 239.758125 
L 397.66875 239.758125 
" style="fill:none;stroke:#000000;stroke-linecap:square;stroke-linejoin:miter;stroke-width:0.8;"/>
   </g>
   <g id="patch_6">
    <path d="M 62.86875 22.318125 
L 397.66875 22.318125 
" style="fill:none;stroke:#000000;stroke-linecap:square;stroke-linejoin:miter;stroke-width:0.8;"/>
   </g>
   <g id="text_21">
    <!-- © Scott Sievert -->
    <defs>
     <path d="M 50 72.515625 
Q 57.421875 72.515625 63.84375 69.828125 
Q 70.265625 67.140625 75.59375 61.8125 
Q 80.90625 56.5 83.546875 50.09375 
Q 86.1875 43.703125 86.1875 36.1875 
Q 86.1875 28.765625 83.546875 22.390625 
Q 80.90625 16.015625 75.59375 10.6875 
Q 70.265625 5.375 63.84375 2.6875 
Q 57.421875 0 50 0 
Q 42.578125 0 36.15625 2.6875 
Q 29.734375 5.375 24.421875 10.6875 
Q 19.09375 16.015625 16.453125 22.390625 
Q 13.8125 28.765625 13.8125 36.1875 
Q 13.8125 43.703125 16.453125 50.09375 
Q 19.09375 56.5 24.421875 61.8125 
Q 29.734375 67.140625 36.15625 69.828125 
Q 42.578125 72.515625 50 72.515625 
z
M 50 67.484375 
Q 43.609375 67.484375 38.078125 65.1875 
Q 32.5625 62.890625 27.984375 58.296875 
Q 23.390625 53.71875 21.046875 48.125 
Q 18.703125 42.53125 18.703125 36.1875 
Q 18.703125 29.890625 21.046875 24.34375 
Q 23.390625 18.796875 27.984375 14.203125 
Q 32.5625 9.625 38.078125 7.296875 
Q 43.609375 4.984375 50 4.984375 
Q 56.453125 4.984375 61.984375 7.296875 
Q 67.53125 9.625 72.125 14.203125 
Q 76.65625 18.75 78.921875 24.265625 
Q 81.203125 29.78125 81.203125 36.1875 
Q 81.203125 42.671875 78.90625 48.21875 
Q 76.609375 53.765625 72.125 58.296875 
Q 67.53125 62.890625 61.984375 65.1875 
Q 56.453125 67.484375 50 67.484375 
z
M 64.59375 55.515625 
L 64.59375 49.21875 
Q 61.375 50.828125 58.203125 51.609375 
Q 55.03125 52.390625 51.8125 52.390625 
Q 44.53125 52.390625 40.453125 48.109375 
Q 36.375 43.84375 36.375 36.1875 
Q 36.375 28.421875 40.546875 24.171875 
Q 44.734375 19.921875 52.296875 19.921875 
Q 55.421875 19.921875 58.390625 20.671875 
Q 61.375 21.4375 64.59375 23.09375 
L 64.59375 16.890625 
Q 61.328125 15.484375 57.984375 14.796875 
Q 54.640625 14.109375 51.21875 14.109375 
Q 40.671875 14.109375 34.546875 20.0625 
Q 28.421875 26.03125 28.421875 36.1875 
Q 28.421875 46.390625 34.546875 52.296875 
Q 40.671875 58.203125 51.21875 58.203125 
Q 54.78125 58.203125 58.09375 57.515625 
Q 61.421875 56.84375 64.59375 55.515625 
z
" id="DejaVuSans-169"/>
     <path d="M 53.515625 70.515625 
L 53.515625 60.890625 
Q 47.90625 63.578125 42.921875 64.890625 
Q 37.9375 66.21875 33.296875 66.21875 
Q 25.25 66.21875 20.875 63.09375 
Q 16.5 59.96875 16.5 54.203125 
Q 16.5 49.359375 19.40625 46.890625 
Q 22.3125 44.4375 30.421875 42.921875 
L 36.375 41.703125 
Q 47.40625 39.59375 52.65625 34.296875 
Q 57.90625 29 57.90625 20.125 
Q 57.90625 9.515625 50.796875 4.046875 
Q 43.703125 -1.421875 29.984375 -1.421875 
Q 24.8125 -1.421875 18.96875 -0.25 
Q 13.140625 0.921875 6.890625 3.21875 
L 6.890625 13.375 
Q 12.890625 10.015625 18.65625 8.296875 
Q 24.421875 6.59375 29.984375 6.59375 
Q 38.421875 6.59375 43.015625 9.90625 
Q 47.609375 13.234375 47.609375 19.390625 
Q 47.609375 24.75 44.3125 27.78125 
Q 41.015625 30.8125 33.5 32.328125 
L 27.484375 33.5 
Q 16.453125 35.6875 11.515625 40.375 
Q 6.59375 45.0625 6.59375 53.421875 
Q 6.59375 63.09375 13.40625 68.65625 
Q 20.21875 74.21875 32.171875 74.21875 
Q 37.3125 74.21875 42.625 73.28125 
Q 47.953125 72.359375 53.515625 70.515625 
z
" id="DejaVuSans-83"/>
     <path d="M 2.984375 54.6875 
L 12.5 54.6875 
L 29.59375 8.796875 
L 46.6875 54.6875 
L 56.203125 54.6875 
L 35.6875 0 
L 23.484375 0 
z
" id="DejaVuSans-118"/>
    </defs>
    <g style="opacity:0.3;" transform="translate(328.298844 279.108762)scale(0.1 -0.1)">
     <use xlink:href="#DejaVuSans-169"/>
     <use x="100" xlink:href="#DejaVuSans-32"/>
     <use x="131.787109" xlink:href="#DejaVuSans-83"/>
     <use x="195.263672" xlink:href="#DejaVuSans-99"/>
     <use x="250.244141" xlink:href="#DejaVuSans-111"/>
     <use x="311.425781" xlink:href="#DejaVuSans-116"/>
     <use x="350.634766" xlink:href="#DejaVuSans-116"/>
     <use x="389.84375" xlink:href="#DejaVuSans-32"/>
     <use x="421.630859" xlink:href="#DejaVuSans-83"/>
     <use x="485.107422" xlink:href="#DejaVuSans-105"/>
     <use x="512.890625" xlink:href="#DejaVuSans-101"/>
     <use x="574.414062" xlink:href="#DejaVuSans-118"/>
     <use x="633.59375" xlink:href="#DejaVuSans-101"/>
     <use x="695.117188" xlink:href="#DejaVuSans-114"/>
     <use x="736.230469" xlink:href="#DejaVuSans-116"/>
    </g>
   </g>
   <g id="text_22">
    <!-- State infection rates -->
    <defs>
     <path d="M 37.109375 75.984375 
L 37.109375 68.5 
L 28.515625 68.5 
Q 23.6875 68.5 21.796875 66.546875 
Q 19.921875 64.59375 19.921875 59.515625 
L 19.921875 54.6875 
L 34.71875 54.6875 
L 34.71875 47.703125 
L 19.921875 47.703125 
L 19.921875 0 
L 10.890625 0 
L 10.890625 47.703125 
L 2.296875 47.703125 
L 2.296875 54.6875 
L 10.890625 54.6875 
L 10.890625 58.5 
Q 10.890625 67.625 15.140625 71.796875 
Q 19.390625 75.984375 28.609375 75.984375 
z
" id="DejaVuSans-102"/>
    </defs>
    <g transform="translate(169.194375 16.318125)scale(0.12 -0.12)">
     <use xlink:href="#DejaVuSans-83"/>
     <use x="63.476562" xlink:href="#DejaVuSans-116"/>
     <use x="102.685547" xlink:href="#DejaVuSans-97"/>
     <use x="163.964844" xlink:href="#DejaVuSans-116"/>
     <use x="203.173828" xlink:href="#DejaVuSans-101"/>
     <use x="264.697266" xlink:href="#DejaVuSans-32"/>
     <use x="296.484375" xlink:href="#DejaVuSans-105"/>
     <use x="324.267578" xlink:href="#DejaVuSans-110"/>
     <use x="387.646484" xlink:href="#DejaVuSans-102"/>
     <use x="422.851562" xlink:href="#DejaVuSans-101"/>
     <use x="484.375" xlink:href="#DejaVuSans-99"/>
     <use x="539.355469" xlink:href="#DejaVuSans-116"/>
     <use x="578.564453" xlink:href="#DejaVuSans-105"/>
     <use x="606.347656" xlink:href="#DejaVuSans-111"/>
     <use x="667.529297" xlink:href="#DejaVuSans-110"/>
     <use x="730.908203" xlink:href="#DejaVuSans-32"/>
     <use x="762.695312" xlink:href="#DejaVuSans-114"/>
     <use x="803.808594" xlink:href="#DejaVuSans-97"/>
     <use x="865.087891" xlink:href="#DejaVuSans-116"/>
     <use x="904.296875" xlink:href="#DejaVuSans-101"/>
     <use x="965.820312" xlink:href="#DejaVuSans-115"/>
    </g>
   </g>
   <g id="legend_1">
    <g id="patch_7">
     <path d="M 69.86875 133.065 
L 188.135938 133.065 
Q 190.135938 133.065 190.135938 131.065 
L 190.135938 29.318125 
Q 190.135938 27.318125 188.135938 27.318125 
L 69.86875 27.318125 
Q 67.86875 27.318125 67.86875 29.318125 
L 67.86875 131.065 
Q 67.86875 133.065 69.86875 133.065 
z
" style="fill:#ffffff;opacity:0.8;stroke:#cccccc;stroke-linejoin:miter;"/>
    </g>
    <g id="text_23">
     <!-- State (cases in 7 days) -->
     <defs>
      <path d="M 31 75.875 
Q 24.46875 64.65625 21.28125 53.65625 
Q 18.109375 42.671875 18.109375 31.390625 
Q 18.109375 20.125 21.3125 9.0625 
Q 24.515625 -2 31 -13.1875 
L 23.1875 -13.1875 
Q 15.875 -1.703125 12.234375 9.375 
Q 8.59375 20.453125 8.59375 31.390625 
Q 8.59375 42.28125 12.203125 53.3125 
Q 15.828125 64.359375 23.1875 75.875 
z
" id="DejaVuSans-40"/>
      <path d="M 8.203125 72.90625 
L 55.078125 72.90625 
L 55.078125 68.703125 
L 28.609375 0 
L 18.3125 0 
L 43.21875 64.59375 
L 8.203125 64.59375 
z
" id="DejaVuSans-55"/>
      <path d="M 45.40625 46.390625 
L 45.40625 75.984375 
L 54.390625 75.984375 
L 54.390625 0 
L 45.40625 0 
L 45.40625 8.203125 
Q 42.578125 3.328125 38.25 0.953125 
Q 33.9375 -1.421875 27.875 -1.421875 
Q 17.96875 -1.421875 11.734375 6.484375 
Q 5.515625 14.40625 5.515625 27.296875 
Q 5.515625 40.1875 11.734375 48.09375 
Q 17.96875 56 27.875 56 
Q 33.9375 56 38.25 53.625 
Q 42.578125 51.265625 45.40625 46.390625 
z
M 14.796875 27.296875 
Q 14.796875 17.390625 18.875 11.75 
Q 22.953125 6.109375 30.078125 6.109375 
Q 37.203125 6.109375 41.296875 11.75 
Q 45.40625 17.390625 45.40625 27.296875 
Q 45.40625 37.203125 41.296875 42.84375 
Q 37.203125 48.484375 30.078125 48.484375 
Q 22.953125 48.484375 18.875 42.84375 
Q 14.796875 37.203125 14.796875 27.296875 
z
" id="DejaVuSans-100"/>
      <path d="M 32.171875 -5.078125 
Q 28.375 -14.84375 24.75 -17.8125 
Q 21.140625 -20.796875 15.09375 -20.796875 
L 7.90625 -20.796875 
L 7.90625 -13.28125 
L 13.1875 -13.28125 
Q 16.890625 -13.28125 18.9375 -11.515625 
Q 21 -9.765625 23.484375 -3.21875 
L 25.09375 0.875 
L 2.984375 54.6875 
L 12.5 54.6875 
L 29.59375 11.921875 
L 46.6875 54.6875 
L 56.203125 54.6875 
z
" id="DejaVuSans-121"/>
      <path d="M 8.015625 75.875 
L 15.828125 75.875 
Q 23.140625 64.359375 26.78125 53.3125 
Q 30.421875 42.28125 30.421875 31.390625 
Q 30.421875 20.453125 26.78125 9.375 
Q 23.140625 -1.703125 15.828125 -13.1875 
L 8.015625 -13.1875 
Q 14.5 -2 17.703125 9.0625 
Q 20.90625 20.125 20.90625 31.390625 
Q 20.90625 42.671875 17.703125 53.65625 
Q 14.5 64.65625 8.015625 75.875 
z
" id="DejaVuSans-41"/>
     </defs>
     <g transform="translate(71.86875 38.916562)scale(0.1 -0.1)">
      <use xlink:href="#DejaVuSans-83"/>
      <use x="63.476562" xlink:href="#DejaVuSans-116"/>
      <use x="102.685547" xlink:href="#DejaVuSans-97"/>
      <use x="163.964844" xlink:href="#DejaVuSans-116"/>
      <use x="203.173828" xlink:href="#DejaVuSans-101"/>
      <use x="264.697266" xlink:href="#DejaVuSans-32"/>
      <use x="296.484375" xlink:href="#DejaVuSans-40"/>
      <use x="335.498047" xlink:href="#DejaVuSans-99"/>
      <use x="390.478516" xlink:href="#DejaVuSans-97"/>
      <use x="451.757812" xlink:href="#DejaVuSans-115"/>
      <use x="503.857422" xlink:href="#DejaVuSans-101"/>
      <use x="565.380859" xlink:href="#DejaVuSans-115"/>
      <use x="617.480469" xlink:href="#DejaVuSans-32"/>
      <use x="649.267578" xlink:href="#DejaVuSans-105"/>
      <use x="677.050781" xlink:href="#DejaVuSans-110"/>
      <use x="740.429688" xlink:href="#DejaVuSans-32"/>
      <use x="772.216797" xlink:href="#DejaVuSans-55"/>
      <use x="835.839844" xlink:href="#DejaVuSans-32"/>
      <use x="867.626953" xlink:href="#DejaVuSans-100"/>
      <use x="931.103516" xlink:href="#DejaVuSans-97"/>
      <use x="992.382812" xlink:href="#DejaVuSans-121"/>
      <use x="1051.5625" xlink:href="#DejaVuSans-115"/>
      <use x="1103.662109" xlink:href="#DejaVuSans-41"/>
     </g>
    </g>
    <g id="line2d_73">
     <path d="M 89.002344 50.094688 
L 109.002344 50.094688 
" style="fill:none;stroke:#1f77b4;stroke-linecap:square;stroke-width:1.5;"/>
    </g>
    <g id="line2d_74">
     <defs>
      <path d="M 0 3 
C 0.795609 3 1.55874 2.683901 2.12132 2.12132 
C 2.683901 1.55874 3 0.795609 3 0 
C 3 -0.795609 2.683901 -1.55874 2.12132 -2.12132 
C 1.55874 -2.683901 0.795609 -3 0 -3 
C -0.795609 -3 -1.55874 -2.683901 -2.12132 -2.12132 
C -2.683901 -1.55874 -3 -0.795609 -3 0 
C -3 0.795609 -2.683901 1.55874 -2.12132 2.12132 
C -1.55874 2.683901 -0.795609 3 0 3 
z
" id="mfc698cddd5" style="stroke:#1f77b4;"/>
     </defs>
     <g>
      <use style="fill:#1f77b4;stroke:#1f77b4;" x="99.002344" xlink:href="#mfc698cddd5" y="50.094688"/>
     </g>
    </g>
    <g id="text_24">
     <!-- NY (1.3$\times$) -->
     <defs>
      <path d="M 9.8125 72.90625 
L 23.09375 72.90625 
L 55.421875 11.921875 
L 55.421875 72.90625 
L 64.984375 72.90625 
L 64.984375 0 
L 51.703125 0 
L 19.390625 60.984375 
L 19.390625 0 
L 9.8125 0 
z
" id="DejaVuSans-78"/>
      <path d="M -0.203125 72.90625 
L 10.40625 72.90625 
L 30.609375 42.921875 
L 50.6875 72.90625 
L 61.28125 72.90625 
L 35.5 34.71875 
L 35.5 0 
L 25.59375 0 
L 25.59375 34.71875 
z
" id="DejaVuSans-89"/>
      <path d="M 40.578125 39.3125 
Q 47.65625 37.796875 51.625 33 
Q 55.609375 28.21875 55.609375 21.1875 
Q 55.609375 10.40625 48.1875 4.484375 
Q 40.765625 -1.421875 27.09375 -1.421875 
Q 22.515625 -1.421875 17.65625 -0.515625 
Q 12.796875 0.390625 7.625 2.203125 
L 7.625 11.71875 
Q 11.71875 9.328125 16.59375 8.109375 
Q 21.484375 6.890625 26.8125 6.890625 
Q 36.078125 6.890625 40.9375 10.546875 
Q 45.796875 14.203125 45.796875 21.1875 
Q 45.796875 27.640625 41.28125 31.265625 
Q 36.765625 34.90625 28.71875 34.90625 
L 20.21875 34.90625 
L 20.21875 43.015625 
L 29.109375 43.015625 
Q 36.375 43.015625 40.234375 45.921875 
Q 44.09375 48.828125 44.09375 54.296875 
Q 44.09375 59.90625 40.109375 62.90625 
Q 36.140625 65.921875 28.71875 65.921875 
Q 24.65625 65.921875 20.015625 65.03125 
Q 15.375 64.15625 9.8125 62.3125 
L 9.8125 71.09375 
Q 15.4375 72.65625 20.34375 73.4375 
Q 25.25 74.21875 29.59375 74.21875 
Q 40.828125 74.21875 47.359375 69.109375 
Q 53.90625 64.015625 53.90625 55.328125 
Q 53.90625 49.265625 50.4375 45.09375 
Q 46.96875 40.921875 40.578125 39.3125 
z
" id="DejaVuSans-51"/>
      <path d="M 70.125 53.71875 
L 47.796875 31.296875 
L 70.125 8.984375 
L 64.3125 3.078125 
L 41.890625 25.484375 
L 19.484375 3.078125 
L 13.71875 8.984375 
L 35.984375 31.296875 
L 13.71875 53.71875 
L 19.484375 59.625 
L 41.890625 37.203125 
L 64.3125 59.625 
z
" id="DejaVuSans-215"/>
     </defs>
     <g transform="translate(117.002344 53.594688)scale(0.1 -0.1)">
      <use transform="translate(0 0.125)" xlink:href="#DejaVuSans-78"/>
      <use transform="translate(74.804688 0.125)" xlink:href="#DejaVuSans-89"/>
      <use transform="translate(135.888672 0.125)" xlink:href="#DejaVuSans-32"/>
      <use transform="translate(167.675781 0.125)" xlink:href="#DejaVuSans-40"/>
      <use transform="translate(206.689453 0.125)" xlink:href="#DejaVuSans-49"/>
      <use transform="translate(270.3125 0.125)" xlink:href="#DejaVuSans-46"/>
      <use transform="translate(302.099609 0.125)" xlink:href="#DejaVuSans-51"/>
      <use transform="translate(365.722656 0.125)" xlink:href="#DejaVuSans-215"/>
      <use transform="translate(449.511719 0.125)" xlink:href="#DejaVuSans-41"/>
     </g>
    </g>
    <g id="line2d_75">
     <path d="M 89.002344 64.772813 
L 109.002344 64.772813 
" style="fill:none;stroke:#ff7f0e;stroke-linecap:square;stroke-width:1.5;"/>
    </g>
    <g id="line2d_76">
     <defs>
      <path d="M 0 3 
C 0.795609 3 1.55874 2.683901 2.12132 2.12132 
C 2.683901 1.55874 3 0.795609 3 0 
C 3 -0.795609 2.683901 -1.55874 2.12132 -2.12132 
C 1.55874 -2.683901 0.795609 -3 0 -3 
C -0.795609 -3 -1.55874 -2.683901 -2.12132 -2.12132 
C -2.683901 -1.55874 -3 -0.795609 -3 0 
C -3 0.795609 -2.683901 1.55874 -2.12132 2.12132 
C -1.55874 2.683901 -0.795609 3 0 3 
z
" id="m174f095c31" style="stroke:#ff7f0e;"/>
     </defs>
     <g>
      <use style="fill:#ff7f0e;stroke:#ff7f0e;" x="99.002344" xlink:href="#m174f095c31" y="64.772813"/>
     </g>
    </g>
    <g id="text_25">
     <!-- MI (1.3$\times$) -->
     <defs>
      <path d="M 9.8125 72.90625 
L 19.671875 72.90625 
L 19.671875 0 
L 9.8125 0 
z
" id="DejaVuSans-73"/>
     </defs>
     <g transform="translate(117.002344 68.272813)scale(0.1 -0.1)">
      <use transform="translate(0 0.125)" xlink:href="#DejaVuSans-77"/>
      <use transform="translate(86.279297 0.125)" xlink:href="#DejaVuSans-73"/>
      <use transform="translate(115.771484 0.125)" xlink:href="#DejaVuSans-32"/>
      <use transform="translate(147.558594 0.125)" xlink:href="#DejaVuSans-40"/>
      <use transform="translate(186.572266 0.125)" xlink:href="#DejaVuSans-49"/>
      <use transform="translate(250.195312 0.125)" xlink:href="#DejaVuSans-46"/>
      <use transform="translate(281.982422 0.125)" xlink:href="#DejaVuSans-51"/>
      <use transform="translate(345.605469 0.125)" xlink:href="#DejaVuSans-215"/>
      <use transform="translate(429.394531 0.125)" xlink:href="#DejaVuSans-41"/>
     </g>
    </g>
    <g id="line2d_77">
     <path d="M 89.002344 79.450938 
L 109.002344 79.450938 
" style="fill:none;stroke:#2ca02c;stroke-linecap:square;stroke-width:1.5;"/>
    </g>
    <g id="line2d_78">
     <defs>
      <path d="M 0 3 
C 0.795609 3 1.55874 2.683901 2.12132 2.12132 
C 2.683901 1.55874 3 0.795609 3 0 
C 3 -0.795609 2.683901 -1.55874 2.12132 -2.12132 
C 1.55874 -2.683901 0.795609 -3 0 -3 
C -0.795609 -3 -1.55874 -2.683901 -2.12132 -2.12132 
C -2.683901 -1.55874 -3 -0.795609 -3 0 
C -3 0.795609 -2.683901 1.55874 -2.12132 2.12132 
C -1.55874 2.683901 -0.795609 3 0 3 
z
" id="mb7132b9b08" style="stroke:#2ca02c;"/>
     </defs>
     <g>
      <use style="fill:#2ca02c;stroke:#2ca02c;" x="99.002344" xlink:href="#mb7132b9b08" y="79.450938"/>
     </g>
    </g>
    <g id="text_26">
     <!-- WA (1.2$\times$) -->
     <defs>
      <path d="M 3.328125 72.90625 
L 13.28125 72.90625 
L 28.609375 11.28125 
L 43.890625 72.90625 
L 54.984375 72.90625 
L 70.3125 11.28125 
L 85.59375 72.90625 
L 95.609375 72.90625 
L 77.296875 0 
L 64.890625 0 
L 49.515625 63.28125 
L 33.984375 0 
L 21.578125 0 
z
" id="DejaVuSans-87"/>
     </defs>
     <g transform="translate(117.002344 82.950938)scale(0.1 -0.1)">
      <use transform="translate(0 0.125)" xlink:href="#DejaVuSans-87"/>
      <use transform="translate(98.876953 0.125)" xlink:href="#DejaVuSans-65"/>
      <use transform="translate(167.285156 0.125)" xlink:href="#DejaVuSans-32"/>
      <use transform="translate(199.072266 0.125)" xlink:href="#DejaVuSans-40"/>
      <use transform="translate(238.085938 0.125)" xlink:href="#DejaVuSans-49"/>
      <use transform="translate(301.708984 0.125)" xlink:href="#DejaVuSans-46"/>
      <use transform="translate(333.417969 0.125)" xlink:href="#DejaVuSans-50"/>
      <use transform="translate(397.041016 0.125)" xlink:href="#DejaVuSans-215"/>
      <use transform="translate(480.830078 0.125)" xlink:href="#DejaVuSans-41"/>
     </g>
    </g>
    <g id="line2d_79">
     <path d="M 89.002344 94.129063 
L 109.002344 94.129063 
" style="fill:none;stroke:#d62728;stroke-linecap:square;stroke-width:1.5;"/>
    </g>
    <g id="line2d_80">
     <defs>
      <path d="M 0 3 
C 0.795609 3 1.55874 2.683901 2.12132 2.12132 
C 2.683901 1.55874 3 0.795609 3 0 
C 3 -0.795609 2.683901 -1.55874 2.12132 -2.12132 
C 1.55874 -2.683901 0.795609 -3 0 -3 
C -0.795609 -3 -1.55874 -2.683901 -2.12132 -2.12132 
C -2.683901 -1.55874 -3 -0.795609 -3 0 
C -3 0.795609 -2.683901 1.55874 -2.12132 2.12132 
C -1.55874 2.683901 -0.795609 3 0 3 
z
" id="m9e7865672e" style="stroke:#d62728;"/>
     </defs>
     <g>
      <use style="fill:#d62728;stroke:#d62728;" x="99.002344" xlink:href="#m9e7865672e" y="94.129063"/>
     </g>
    </g>
    <g id="text_27">
     <!-- WI (1.3$\times$) -->
     <g transform="translate(117.002344 97.629063)scale(0.1 -0.1)">
      <use transform="translate(0 0.125)" xlink:href="#DejaVuSans-87"/>
      <use transform="translate(98.876953 0.125)" xlink:href="#DejaVuSans-73"/>
      <use transform="translate(128.369141 0.125)" xlink:href="#DejaVuSans-32"/>
      <use transform="translate(160.15625 0.125)" xlink:href="#DejaVuSans-40"/>
      <use transform="translate(199.169922 0.125)" xlink:href="#DejaVuSans-49"/>
      <use transform="translate(262.792969 0.125)" xlink:href="#DejaVuSans-46"/>
      <use transform="translate(294.580078 0.125)" xlink:href="#DejaVuSans-51"/>
      <use transform="translate(358.203125 0.125)" xlink:href="#DejaVuSans-215"/>
      <use transform="translate(441.992188 0.125)" xlink:href="#DejaVuSans-41"/>
     </g>
    </g>
    <g id="line2d_81">
     <path d="M 89.002344 108.807188 
L 109.002344 108.807188 
" style="fill:none;stroke:#9467bd;stroke-linecap:square;stroke-width:1.5;"/>
    </g>
    <g id="line2d_82">
     <defs>
      <path d="M 0 3 
C 0.795609 3 1.55874 2.683901 2.12132 2.12132 
C 2.683901 1.55874 3 0.795609 3 0 
C 3 -0.795609 2.683901 -1.55874 2.12132 -2.12132 
C 1.55874 -2.683901 0.795609 -3 0 -3 
C -0.795609 -3 -1.55874 -2.683901 -2.12132 -2.12132 
C -2.683901 -1.55874 -3 -0.795609 -3 0 
C -3 0.795609 -2.683901 1.55874 -2.12132 2.12132 
C -1.55874 2.683901 -0.795609 3 0 3 
z
" id="m74311b1d29" style="stroke:#9467bd;"/>
     </defs>
     <g>
      <use style="fill:#9467bd;stroke:#9467bd;" x="99.002344" xlink:href="#m74311b1d29" y="108.807188"/>
     </g>
    </g>
    <g id="text_28">
     <!-- MN (1.5$\times$) -->
     <g transform="translate(117.002344 112.307188)scale(0.1 -0.1)">
      <use transform="translate(0 0.125)" xlink:href="#DejaVuSans-77"/>
      <use transform="translate(86.279297 0.125)" xlink:href="#DejaVuSans-78"/>
      <use transform="translate(161.083984 0.125)" xlink:href="#DejaVuSans-32"/>
      <use transform="translate(192.871094 0.125)" xlink:href="#DejaVuSans-40"/>
      <use transform="translate(231.884766 0.125)" xlink:href="#DejaVuSans-49"/>
      <use transform="translate(295.507812 0.125)" xlink:href="#DejaVuSans-46"/>
      <use transform="translate(327.294922 0.125)" xlink:href="#DejaVuSans-53"/>
      <use transform="translate(390.917969 0.125)" xlink:href="#DejaVuSans-215"/>
      <use transform="translate(474.707031 0.125)" xlink:href="#DejaVuSans-41"/>
     </g>
    </g>
    <g id="line2d_83">
     <path d="M 89.002344 123.485313 
L 109.002344 123.485313 
" style="fill:none;stroke:#d62728;stroke-dasharray:5.55,2.4;stroke-dashoffset:0;stroke-width:1.5;"/>
    </g>
    <g id="line2d_84"/>
    <g id="text_29">
     <!-- (7.6×) -->
     <defs>
      <path d="M 33.015625 40.375 
Q 26.375 40.375 22.484375 35.828125 
Q 18.609375 31.296875 18.609375 23.390625 
Q 18.609375 15.53125 22.484375 10.953125 
Q 26.375 6.390625 33.015625 6.390625 
Q 39.65625 6.390625 43.53125 10.953125 
Q 47.40625 15.53125 47.40625 23.390625 
Q 47.40625 31.296875 43.53125 35.828125 
Q 39.65625 40.375 33.015625 40.375 
z
M 52.59375 71.296875 
L 52.59375 62.3125 
Q 48.875 64.0625 45.09375 64.984375 
Q 41.3125 65.921875 37.59375 65.921875 
Q 27.828125 65.921875 22.671875 59.328125 
Q 17.53125 52.734375 16.796875 39.40625 
Q 19.671875 43.65625 24.015625 45.921875 
Q 28.375 48.1875 33.59375 48.1875 
Q 44.578125 48.1875 50.953125 41.515625 
Q 57.328125 34.859375 57.328125 23.390625 
Q 57.328125 12.15625 50.6875 5.359375 
Q 44.046875 -1.421875 33.015625 -1.421875 
Q 20.359375 -1.421875 13.671875 8.265625 
Q 6.984375 17.96875 6.984375 36.375 
Q 6.984375 53.65625 15.1875 63.9375 
Q 23.390625 74.21875 37.203125 74.21875 
Q 40.921875 74.21875 44.703125 73.484375 
Q 48.484375 72.75 52.59375 71.296875 
z
" id="DejaVuSans-54"/>
     </defs>
     <g transform="translate(117.002344 126.985313)scale(0.1 -0.1)">
      <use xlink:href="#DejaVuSans-40"/>
      <use x="39.013672" xlink:href="#DejaVuSans-55"/>
      <use x="102.636719" xlink:href="#DejaVuSans-46"/>
      <use x="134.423828" xlink:href="#DejaVuSans-54"/>
      <use x="198.046875" xlink:href="#DejaVuSans-215"/>
      <use x="281.835938" xlink:href="#DejaVuSans-41"/>
     </g>
    </g>
   </g>
   <g id="line2d_85">
    <path clip-path="url(#p1f62a56f40)" d="M 19.223369 289.38845 
L 24.329914 265.961504 
L 32.037681 251.584035 
L 39.745448 237.206566 
L 47.453215 222.594719 
L 55.160983 218.968908 
L 62.86875 212.904108 
L 70.576517 208.808239 
L 78.284285 204.107913 
L 85.992052 195.665796 
L 93.699819 190.361253 
L 101.407586 182.669465 
L 109.115354 178.887697 
L 116.823121 173.480562 
L 124.530888 165.826248 
L 132.238656 154.413537 
L 139.946423 142.888083 
L 147.65419 131.7539 
L 155.361958 123.930118 
L 163.069725 116.014401 
L 170.777492 109.39005 
L 178.485259 105.105189 
L 186.193027 99.849559 
L 193.900794 96.432831 
L 201.608561 93.626604 
L 209.316329 89.922043 
L 217.024096 87.640371 
L 224.731863 85.147815 
L 232.439631 82.633141 
L 240.147398 80.538705 
L 247.855165 78.451431 
L 255.562932 76.307865 
L 263.2707 73.996523 
L 270.978467 72.61585 
L 278.686234 71.340882 
L 286.394002 69.90358 
L 294.101769 68.567503 
L 301.809536 67.153998 
L 309.517304 65.825957 
L 317.225071 64.650027 
L 324.932838 63.724327 
L 332.640605 63.03917 
L 340.348373 62.289577 
L 348.05614 61.135353 
L 355.763907 60.326132 
L 363.471675 59.650644 
" style="fill:none;stroke:#1f77b4;stroke-linecap:square;stroke-width:1.5;"/>
    <g clip-path="url(#p1f62a56f40)">
     <use style="fill:#1f77b4;stroke:#1f77b4;" x="1.206612" xlink:href="#mfc698cddd5" y="315.699374"/>
     <use style="fill:#1f77b4;stroke:#1f77b4;" x="8.914379" xlink:href="#mfc698cddd5" y="315.699374"/>
     <use style="fill:#1f77b4;stroke:#1f77b4;" x="16.622146" xlink:href="#mfc698cddd5" y="301.321905"/>
     <use style="fill:#1f77b4;stroke:#1f77b4;" x="24.329914" xlink:href="#mfc698cddd5" y="265.961504"/>
     <use style="fill:#1f77b4;stroke:#1f77b4;" x="32.037681" xlink:href="#mfc698cddd5" y="251.584035"/>
     <use style="fill:#1f77b4;stroke:#1f77b4;" x="39.745448" xlink:href="#mfc698cddd5" y="237.206566"/>
     <use style="fill:#1f77b4;stroke:#1f77b4;" x="47.453215" xlink:href="#mfc698cddd5" y="222.594719"/>
     <use style="fill:#1f77b4;stroke:#1f77b4;" x="55.160983" xlink:href="#mfc698cddd5" y="218.968908"/>
     <use style="fill:#1f77b4;stroke:#1f77b4;" x="62.86875" xlink:href="#mfc698cddd5" y="212.904108"/>
     <use style="fill:#1f77b4;stroke:#1f77b4;" x="70.576517" xlink:href="#mfc698cddd5" y="208.808239"/>
     <use style="fill:#1f77b4;stroke:#1f77b4;" x="78.284285" xlink:href="#mfc698cddd5" y="204.107913"/>
     <use style="fill:#1f77b4;stroke:#1f77b4;" x="85.992052" xlink:href="#mfc698cddd5" y="195.665796"/>
     <use style="fill:#1f77b4;stroke:#1f77b4;" x="93.699819" xlink:href="#mfc698cddd5" y="190.361253"/>
     <use style="fill:#1f77b4;stroke:#1f77b4;" x="101.407586" xlink:href="#mfc698cddd5" y="182.669465"/>
     <use style="fill:#1f77b4;stroke:#1f77b4;" x="109.115354" xlink:href="#mfc698cddd5" y="178.887697"/>
     <use style="fill:#1f77b4;stroke:#1f77b4;" x="116.823121" xlink:href="#mfc698cddd5" y="173.480562"/>
     <use style="fill:#1f77b4;stroke:#1f77b4;" x="124.530888" xlink:href="#mfc698cddd5" y="165.826248"/>
     <use style="fill:#1f77b4;stroke:#1f77b4;" x="132.238656" xlink:href="#mfc698cddd5" y="154.413537"/>
     <use style="fill:#1f77b4;stroke:#1f77b4;" x="139.946423" xlink:href="#mfc698cddd5" y="142.888083"/>
     <use style="fill:#1f77b4;stroke:#1f77b4;" x="147.65419" xlink:href="#mfc698cddd5" y="131.7539"/>
     <use style="fill:#1f77b4;stroke:#1f77b4;" x="155.361958" xlink:href="#mfc698cddd5" y="123.930118"/>
     <use style="fill:#1f77b4;stroke:#1f77b4;" x="163.069725" xlink:href="#mfc698cddd5" y="116.014401"/>
     <use style="fill:#1f77b4;stroke:#1f77b4;" x="170.777492" xlink:href="#mfc698cddd5" y="109.39005"/>
     <use style="fill:#1f77b4;stroke:#1f77b4;" x="178.485259" xlink:href="#mfc698cddd5" y="105.105189"/>
     <use style="fill:#1f77b4;stroke:#1f77b4;" x="186.193027" xlink:href="#mfc698cddd5" y="99.849559"/>
     <use style="fill:#1f77b4;stroke:#1f77b4;" x="193.900794" xlink:href="#mfc698cddd5" y="96.432831"/>
     <use style="fill:#1f77b4;stroke:#1f77b4;" x="201.608561" xlink:href="#mfc698cddd5" y="93.626604"/>
     <use style="fill:#1f77b4;stroke:#1f77b4;" x="209.316329" xlink:href="#mfc698cddd5" y="89.922043"/>
     <use style="fill:#1f77b4;stroke:#1f77b4;" x="217.024096" xlink:href="#mfc698cddd5" y="87.640371"/>
     <use style="fill:#1f77b4;stroke:#1f77b4;" x="224.731863" xlink:href="#mfc698cddd5" y="85.147815"/>
     <use style="fill:#1f77b4;stroke:#1f77b4;" x="232.439631" xlink:href="#mfc698cddd5" y="82.633141"/>
     <use style="fill:#1f77b4;stroke:#1f77b4;" x="240.147398" xlink:href="#mfc698cddd5" y="80.538705"/>
     <use style="fill:#1f77b4;stroke:#1f77b4;" x="247.855165" xlink:href="#mfc698cddd5" y="78.451431"/>
     <use style="fill:#1f77b4;stroke:#1f77b4;" x="255.562932" xlink:href="#mfc698cddd5" y="76.307865"/>
     <use style="fill:#1f77b4;stroke:#1f77b4;" x="263.2707" xlink:href="#mfc698cddd5" y="73.996523"/>
     <use style="fill:#1f77b4;stroke:#1f77b4;" x="270.978467" xlink:href="#mfc698cddd5" y="72.61585"/>
     <use style="fill:#1f77b4;stroke:#1f77b4;" x="278.686234" xlink:href="#mfc698cddd5" y="71.340882"/>
     <use style="fill:#1f77b4;stroke:#1f77b4;" x="286.394002" xlink:href="#mfc698cddd5" y="69.90358"/>
     <use style="fill:#1f77b4;stroke:#1f77b4;" x="294.101769" xlink:href="#mfc698cddd5" y="68.567503"/>
     <use style="fill:#1f77b4;stroke:#1f77b4;" x="301.809536" xlink:href="#mfc698cddd5" y="67.153998"/>
     <use style="fill:#1f77b4;stroke:#1f77b4;" x="309.517304" xlink:href="#mfc698cddd5" y="65.825957"/>
     <use style="fill:#1f77b4;stroke:#1f77b4;" x="317.225071" xlink:href="#mfc698cddd5" y="64.650027"/>
     <use style="fill:#1f77b4;stroke:#1f77b4;" x="324.932838" xlink:href="#mfc698cddd5" y="63.724327"/>
     <use style="fill:#1f77b4;stroke:#1f77b4;" x="332.640605" xlink:href="#mfc698cddd5" y="63.03917"/>
     <use style="fill:#1f77b4;stroke:#1f77b4;" x="340.348373" xlink:href="#mfc698cddd5" y="62.289577"/>
     <use style="fill:#1f77b4;stroke:#1f77b4;" x="348.05614" xlink:href="#mfc698cddd5" y="61.135353"/>
     <use style="fill:#1f77b4;stroke:#1f77b4;" x="355.763907" xlink:href="#mfc698cddd5" y="60.326132"/>
     <use style="fill:#1f77b4;stroke:#1f77b4;" x="363.471675" xlink:href="#mfc698cddd5" y="59.650644"/>
    </g>
   </g>
   <g id="line2d_86">
    <path clip-path="url(#p1f62a56f40)" d="M 70.576517 287.491763 
L 78.284285 287.491763 
L 85.992052 250.326545 
L 93.699819 235.102334 
L 101.407586 229.343613 
L 109.115354 219.516234 
L 116.823121 219.128516 
L 124.530888 215.282826 
L 132.238656 210.975908 
L 139.946423 181.332785 
L 147.65419 171.062559 
L 155.361958 163.554821 
L 163.069725 157.913035 
L 170.777492 152.764997 
L 178.485259 146.498402 
L 186.193027 141.364207 
L 193.900794 136.659882 
L 201.608561 131.691114 
L 209.316329 126.775333 
L 217.024096 123.278944 
L 224.731863 119.735478 
L 232.439631 116.436298 
L 240.147398 112.346463 
L 247.855165 109.246505 
L 255.562932 105.916856 
L 263.2707 103.515645 
L 270.978467 101.555269 
L 278.686234 99.661096 
L 286.394002 97.674238 
L 294.101769 96.221173 
L 301.809536 95.068943 
L 309.517304 93.870842 
L 317.225071 92.793761 
L 324.932838 92.243713 
L 332.640605 91.419407 
L 340.348373 90.343424 
L 348.05614 89.548301 
L 355.763907 88.656068 
L 363.471675 88.071027 
" style="fill:none;stroke:#ff7f0e;stroke-linecap:square;stroke-width:1.5;"/>
    <g clip-path="url(#p1f62a56f40)">
     <use style="fill:#ff7f0e;stroke:#ff7f0e;" x="70.576517" xlink:href="#m174f095c31" y="287.491763"/>
     <use style="fill:#ff7f0e;stroke:#ff7f0e;" x="78.284285" xlink:href="#m174f095c31" y="287.491763"/>
     <use style="fill:#ff7f0e;stroke:#ff7f0e;" x="85.992052" xlink:href="#m174f095c31" y="250.326545"/>
     <use style="fill:#ff7f0e;stroke:#ff7f0e;" x="93.699819" xlink:href="#m174f095c31" y="235.102334"/>
     <use style="fill:#ff7f0e;stroke:#ff7f0e;" x="101.407586" xlink:href="#m174f095c31" y="229.343613"/>
     <use style="fill:#ff7f0e;stroke:#ff7f0e;" x="109.115354" xlink:href="#m174f095c31" y="219.516234"/>
     <use style="fill:#ff7f0e;stroke:#ff7f0e;" x="116.823121" xlink:href="#m174f095c31" y="219.128516"/>
     <use style="fill:#ff7f0e;stroke:#ff7f0e;" x="124.530888" xlink:href="#m174f095c31" y="215.282826"/>
     <use style="fill:#ff7f0e;stroke:#ff7f0e;" x="132.238656" xlink:href="#m174f095c31" y="210.975908"/>
     <use style="fill:#ff7f0e;stroke:#ff7f0e;" x="139.946423" xlink:href="#m174f095c31" y="181.332785"/>
     <use style="fill:#ff7f0e;stroke:#ff7f0e;" x="147.65419" xlink:href="#m174f095c31" y="171.062559"/>
     <use style="fill:#ff7f0e;stroke:#ff7f0e;" x="155.361958" xlink:href="#m174f095c31" y="163.554821"/>
     <use style="fill:#ff7f0e;stroke:#ff7f0e;" x="163.069725" xlink:href="#m174f095c31" y="157.913035"/>
     <use style="fill:#ff7f0e;stroke:#ff7f0e;" x="170.777492" xlink:href="#m174f095c31" y="152.764997"/>
     <use style="fill:#ff7f0e;stroke:#ff7f0e;" x="178.485259" xlink:href="#m174f095c31" y="146.498402"/>
     <use style="fill:#ff7f0e;stroke:#ff7f0e;" x="186.193027" xlink:href="#m174f095c31" y="141.364207"/>
     <use style="fill:#ff7f0e;stroke:#ff7f0e;" x="193.900794" xlink:href="#m174f095c31" y="136.659882"/>
     <use style="fill:#ff7f0e;stroke:#ff7f0e;" x="201.608561" xlink:href="#m174f095c31" y="131.691114"/>
     <use style="fill:#ff7f0e;stroke:#ff7f0e;" x="209.316329" xlink:href="#m174f095c31" y="126.775333"/>
     <use style="fill:#ff7f0e;stroke:#ff7f0e;" x="217.024096" xlink:href="#m174f095c31" y="123.278944"/>
     <use style="fill:#ff7f0e;stroke:#ff7f0e;" x="224.731863" xlink:href="#m174f095c31" y="119.735478"/>
     <use style="fill:#ff7f0e;stroke:#ff7f0e;" x="232.439631" xlink:href="#m174f095c31" y="116.436298"/>
     <use style="fill:#ff7f0e;stroke:#ff7f0e;" x="240.147398" xlink:href="#m174f095c31" y="112.346463"/>
     <use style="fill:#ff7f0e;stroke:#ff7f0e;" x="247.855165" xlink:href="#m174f095c31" y="109.246505"/>
     <use style="fill:#ff7f0e;stroke:#ff7f0e;" x="255.562932" xlink:href="#m174f095c31" y="105.916856"/>
     <use style="fill:#ff7f0e;stroke:#ff7f0e;" x="263.2707" xlink:href="#m174f095c31" y="103.515645"/>
     <use style="fill:#ff7f0e;stroke:#ff7f0e;" x="270.978467" xlink:href="#m174f095c31" y="101.555269"/>
     <use style="fill:#ff7f0e;stroke:#ff7f0e;" x="278.686234" xlink:href="#m174f095c31" y="99.661096"/>
     <use style="fill:#ff7f0e;stroke:#ff7f0e;" x="286.394002" xlink:href="#m174f095c31" y="97.674238"/>
     <use style="fill:#ff7f0e;stroke:#ff7f0e;" x="294.101769" xlink:href="#m174f095c31" y="96.221173"/>
     <use style="fill:#ff7f0e;stroke:#ff7f0e;" x="301.809536" xlink:href="#m174f095c31" y="95.068943"/>
     <use style="fill:#ff7f0e;stroke:#ff7f0e;" x="309.517304" xlink:href="#m174f095c31" y="93.870842"/>
     <use style="fill:#ff7f0e;stroke:#ff7f0e;" x="317.225071" xlink:href="#m174f095c31" y="92.793761"/>
     <use style="fill:#ff7f0e;stroke:#ff7f0e;" x="324.932838" xlink:href="#m174f095c31" y="92.243713"/>
     <use style="fill:#ff7f0e;stroke:#ff7f0e;" x="332.640605" xlink:href="#m174f095c31" y="91.419407"/>
     <use style="fill:#ff7f0e;stroke:#ff7f0e;" x="340.348373" xlink:href="#m174f095c31" y="90.343424"/>
     <use style="fill:#ff7f0e;stroke:#ff7f0e;" x="348.05614" xlink:href="#m174f095c31" y="89.548301"/>
     <use style="fill:#ff7f0e;stroke:#ff7f0e;" x="355.763907" xlink:href="#m174f095c31" y="88.656068"/>
     <use style="fill:#ff7f0e;stroke:#ff7f0e;" x="363.471675" xlink:href="#m174f095c31" y="88.071027"/>
    </g>
   </g>
   <g id="line2d_87">
    <path clip-path="url(#p1f62a56f40)" d="M -1 240.628269 
L 1.206612 237.477297 
L 8.914379 231.207295 
L 16.622146 224.357322 
L 24.329914 216.383738 
L 32.037681 206.69002 
L 39.745448 203.851245 
L 47.453215 198.745878 
L 55.160983 193.595989 
L 62.86875 188.646338 
L 70.576517 179.440365 
L 78.284285 175.461284 
L 85.992052 171.005318 
L 93.699819 166.887999 
L 101.407586 163.248789 
L 109.115354 161.114522 
L 116.823121 157.746578 
L 124.530888 154.963772 
L 132.238656 152.429505 
L 139.946423 148.701718 
L 147.65419 145.923525 
L 155.361958 142.51192 
L 163.069725 140.268928 
L 170.777492 137.562549 
L 178.485259 134.214746 
L 186.193027 133.262419 
L 193.900794 128.783696 
L 201.608561 125.435322 
L 209.316329 122.653885 
L 217.024096 120.014455 
L 224.731863 118.848873 
L 232.439631 118.401166 
L 240.147398 117.272262 
L 247.855165 113.866938 
L 255.562932 112.700249 
L 263.2707 111.173717 
L 270.978467 109.871033 
L 278.686234 108.857034 
L 286.394002 108.132572 
L 294.101769 107.164056 
L 301.809536 106.03046 
L 309.517304 105.436718 
L 317.225071 104.741496 
L 324.932838 104.365541 
L 332.640605 104.114044 
L 340.348373 103.809234 
L 348.05614 103.637322 
L 355.763907 102.939385 
L 363.471675 102.401452 
" style="fill:none;stroke:#2ca02c;stroke-linecap:square;stroke-width:1.5;"/>
    <g clip-path="url(#p1f62a56f40)">
     <use style="fill:#2ca02c;stroke:#2ca02c;" x="-1" xlink:href="#mb7132b9b08" y="240.628269"/>
     <use style="fill:#2ca02c;stroke:#2ca02c;" x="1.206612" xlink:href="#mb7132b9b08" y="237.477297"/>
     <use style="fill:#2ca02c;stroke:#2ca02c;" x="8.914379" xlink:href="#mb7132b9b08" y="231.207295"/>
     <use style="fill:#2ca02c;stroke:#2ca02c;" x="16.622146" xlink:href="#mb7132b9b08" y="224.357322"/>
     <use style="fill:#2ca02c;stroke:#2ca02c;" x="24.329914" xlink:href="#mb7132b9b08" y="216.383738"/>
     <use style="fill:#2ca02c;stroke:#2ca02c;" x="32.037681" xlink:href="#mb7132b9b08" y="206.69002"/>
     <use style="fill:#2ca02c;stroke:#2ca02c;" x="39.745448" xlink:href="#mb7132b9b08" y="203.851245"/>
     <use style="fill:#2ca02c;stroke:#2ca02c;" x="47.453215" xlink:href="#mb7132b9b08" y="198.745878"/>
     <use style="fill:#2ca02c;stroke:#2ca02c;" x="55.160983" xlink:href="#mb7132b9b08" y="193.595989"/>
     <use style="fill:#2ca02c;stroke:#2ca02c;" x="62.86875" xlink:href="#mb7132b9b08" y="188.646338"/>
     <use style="fill:#2ca02c;stroke:#2ca02c;" x="70.576517" xlink:href="#mb7132b9b08" y="179.440365"/>
     <use style="fill:#2ca02c;stroke:#2ca02c;" x="78.284285" xlink:href="#mb7132b9b08" y="175.461284"/>
     <use style="fill:#2ca02c;stroke:#2ca02c;" x="85.992052" xlink:href="#mb7132b9b08" y="171.005318"/>
     <use style="fill:#2ca02c;stroke:#2ca02c;" x="93.699819" xlink:href="#mb7132b9b08" y="166.887999"/>
     <use style="fill:#2ca02c;stroke:#2ca02c;" x="101.407586" xlink:href="#mb7132b9b08" y="163.248789"/>
     <use style="fill:#2ca02c;stroke:#2ca02c;" x="109.115354" xlink:href="#mb7132b9b08" y="161.114522"/>
     <use style="fill:#2ca02c;stroke:#2ca02c;" x="116.823121" xlink:href="#mb7132b9b08" y="157.746578"/>
     <use style="fill:#2ca02c;stroke:#2ca02c;" x="124.530888" xlink:href="#mb7132b9b08" y="154.963772"/>
     <use style="fill:#2ca02c;stroke:#2ca02c;" x="132.238656" xlink:href="#mb7132b9b08" y="152.429505"/>
     <use style="fill:#2ca02c;stroke:#2ca02c;" x="139.946423" xlink:href="#mb7132b9b08" y="148.701718"/>
     <use style="fill:#2ca02c;stroke:#2ca02c;" x="147.65419" xlink:href="#mb7132b9b08" y="145.923525"/>
     <use style="fill:#2ca02c;stroke:#2ca02c;" x="155.361958" xlink:href="#mb7132b9b08" y="142.51192"/>
     <use style="fill:#2ca02c;stroke:#2ca02c;" x="163.069725" xlink:href="#mb7132b9b08" y="140.268928"/>
     <use style="fill:#2ca02c;stroke:#2ca02c;" x="170.777492" xlink:href="#mb7132b9b08" y="137.562549"/>
     <use style="fill:#2ca02c;stroke:#2ca02c;" x="178.485259" xlink:href="#mb7132b9b08" y="134.214746"/>
     <use style="fill:#2ca02c;stroke:#2ca02c;" x="186.193027" xlink:href="#mb7132b9b08" y="133.262419"/>
     <use style="fill:#2ca02c;stroke:#2ca02c;" x="193.900794" xlink:href="#mb7132b9b08" y="128.783696"/>
     <use style="fill:#2ca02c;stroke:#2ca02c;" x="201.608561" xlink:href="#mb7132b9b08" y="125.435322"/>
     <use style="fill:#2ca02c;stroke:#2ca02c;" x="209.316329" xlink:href="#mb7132b9b08" y="122.653885"/>
     <use style="fill:#2ca02c;stroke:#2ca02c;" x="217.024096" xlink:href="#mb7132b9b08" y="120.014455"/>
     <use style="fill:#2ca02c;stroke:#2ca02c;" x="224.731863" xlink:href="#mb7132b9b08" y="118.848873"/>
     <use style="fill:#2ca02c;stroke:#2ca02c;" x="232.439631" xlink:href="#mb7132b9b08" y="118.401166"/>
     <use style="fill:#2ca02c;stroke:#2ca02c;" x="240.147398" xlink:href="#mb7132b9b08" y="117.272262"/>
     <use style="fill:#2ca02c;stroke:#2ca02c;" x="247.855165" xlink:href="#mb7132b9b08" y="113.866938"/>
     <use style="fill:#2ca02c;stroke:#2ca02c;" x="255.562932" xlink:href="#mb7132b9b08" y="112.700249"/>
     <use style="fill:#2ca02c;stroke:#2ca02c;" x="263.2707" xlink:href="#mb7132b9b08" y="111.173717"/>
     <use style="fill:#2ca02c;stroke:#2ca02c;" x="270.978467" xlink:href="#mb7132b9b08" y="109.871033"/>
     <use style="fill:#2ca02c;stroke:#2ca02c;" x="278.686234" xlink:href="#mb7132b9b08" y="108.857034"/>
     <use style="fill:#2ca02c;stroke:#2ca02c;" x="286.394002" xlink:href="#mb7132b9b08" y="108.132572"/>
     <use style="fill:#2ca02c;stroke:#2ca02c;" x="294.101769" xlink:href="#mb7132b9b08" y="107.164056"/>
     <use style="fill:#2ca02c;stroke:#2ca02c;" x="301.809536" xlink:href="#mb7132b9b08" y="106.03046"/>
     <use style="fill:#2ca02c;stroke:#2ca02c;" x="309.517304" xlink:href="#mb7132b9b08" y="105.436718"/>
     <use style="fill:#2ca02c;stroke:#2ca02c;" x="317.225071" xlink:href="#mb7132b9b08" y="104.741496"/>
     <use style="fill:#2ca02c;stroke:#2ca02c;" x="324.932838" xlink:href="#mb7132b9b08" y="104.365541"/>
     <use style="fill:#2ca02c;stroke:#2ca02c;" x="332.640605" xlink:href="#mb7132b9b08" y="104.114044"/>
     <use style="fill:#2ca02c;stroke:#2ca02c;" x="340.348373" xlink:href="#mb7132b9b08" y="103.809234"/>
     <use style="fill:#2ca02c;stroke:#2ca02c;" x="348.05614" xlink:href="#mb7132b9b08" y="103.637322"/>
     <use style="fill:#2ca02c;stroke:#2ca02c;" x="355.763907" xlink:href="#mb7132b9b08" y="102.939385"/>
     <use style="fill:#2ca02c;stroke:#2ca02c;" x="363.471675" xlink:href="#mb7132b9b08" y="102.401452"/>
    </g>
   </g>
   <g id="line2d_88">
    <path clip-path="url(#p1f62a56f40)" d="M 55.852145 289.38845 
L 62.86875 276.300221 
L 70.576517 267.889941 
L 78.284285 253.512473 
L 85.992052 247.545284 
L 93.699819 229.603245 
L 101.407586 222.314444 
L 109.115354 218.152071 
L 116.823121 210.816762 
L 124.530888 201.969786 
L 132.238656 193.947224 
L 139.946423 186.065439 
L 147.65419 179.182037 
L 155.361958 173.72523 
L 163.069725 167.355975 
L 170.777492 165.487906 
L 178.485259 162.57598 
L 186.193027 157.210377 
L 193.900794 153.251795 
L 201.608561 148.900221 
L 209.316329 146.541559 
L 217.024096 145.04424 
L 224.731863 142.486232 
L 232.439631 141.154718 
L 240.147398 138.304521 
L 247.855165 136.025637 
L 255.562932 133.907469 
L 263.2707 131.887258 
L 270.978467 130.418247 
L 278.686234 128.892844 
L 286.394002 127.751688 
L 294.101769 126.366798 
L 301.809536 125.417951 
L 309.517304 124.142279 
L 317.225071 123.184416 
L 324.932838 122.374117 
L 332.640605 121.840898 
L 340.348373 121.086333 
L 348.05614 120.139708 
L 355.763907 119.298541 
L 363.471675 118.407952 
" style="fill:none;stroke:#d62728;stroke-linecap:square;stroke-width:1.5;"/>
    <g clip-path="url(#p1f62a56f40)">
     <use style="fill:#d62728;stroke:#d62728;" x="-1" xlink:href="#m9e7865672e" y="290.67769"/>
     <use style="fill:#d62728;stroke:#d62728;" x="1.206612" xlink:href="#m9e7865672e" y="290.67769"/>
     <use style="fill:#d62728;stroke:#d62728;" x="8.914379" xlink:href="#m9e7865672e" y="290.67769"/>
     <use style="fill:#d62728;stroke:#d62728;" x="16.622146" xlink:href="#m9e7865672e" y="290.67769"/>
     <use style="fill:#d62728;stroke:#d62728;" x="24.329914" xlink:href="#m9e7865672e" y="290.67769"/>
     <use style="fill:#d62728;stroke:#d62728;" x="32.037681" xlink:href="#m9e7865672e" y="290.67769"/>
     <use style="fill:#d62728;stroke:#d62728;" x="39.745448" xlink:href="#m9e7865672e" y="290.67769"/>
     <use style="fill:#d62728;stroke:#d62728;" x="47.453215" xlink:href="#m9e7865672e" y="290.67769"/>
     <use style="fill:#d62728;stroke:#d62728;" x="55.160983" xlink:href="#m9e7865672e" y="290.67769"/>
     <use style="fill:#d62728;stroke:#d62728;" x="62.86875" xlink:href="#m9e7865672e" y="276.300221"/>
     <use style="fill:#d62728;stroke:#d62728;" x="70.576517" xlink:href="#m9e7865672e" y="267.889941"/>
     <use style="fill:#d62728;stroke:#d62728;" x="78.284285" xlink:href="#m9e7865672e" y="253.512473"/>
     <use style="fill:#d62728;stroke:#d62728;" x="85.992052" xlink:href="#m9e7865672e" y="247.545284"/>
     <use style="fill:#d62728;stroke:#d62728;" x="93.699819" xlink:href="#m9e7865672e" y="229.603245"/>
     <use style="fill:#d62728;stroke:#d62728;" x="101.407586" xlink:href="#m9e7865672e" y="222.314444"/>
     <use style="fill:#d62728;stroke:#d62728;" x="109.115354" xlink:href="#m9e7865672e" y="218.152071"/>
     <use style="fill:#d62728;stroke:#d62728;" x="116.823121" xlink:href="#m9e7865672e" y="210.816762"/>
     <use style="fill:#d62728;stroke:#d62728;" x="124.530888" xlink:href="#m9e7865672e" y="201.969786"/>
     <use style="fill:#d62728;stroke:#d62728;" x="132.238656" xlink:href="#m9e7865672e" y="193.947224"/>
     <use style="fill:#d62728;stroke:#d62728;" x="139.946423" xlink:href="#m9e7865672e" y="186.065439"/>
     <use style="fill:#d62728;stroke:#d62728;" x="147.65419" xlink:href="#m9e7865672e" y="179.182037"/>
     <use style="fill:#d62728;stroke:#d62728;" x="155.361958" xlink:href="#m9e7865672e" y="173.72523"/>
     <use style="fill:#d62728;stroke:#d62728;" x="163.069725" xlink:href="#m9e7865672e" y="167.355975"/>
     <use style="fill:#d62728;stroke:#d62728;" x="170.777492" xlink:href="#m9e7865672e" y="165.487906"/>
     <use style="fill:#d62728;stroke:#d62728;" x="178.485259" xlink:href="#m9e7865672e" y="162.57598"/>
     <use style="fill:#d62728;stroke:#d62728;" x="186.193027" xlink:href="#m9e7865672e" y="157.210377"/>
     <use style="fill:#d62728;stroke:#d62728;" x="193.900794" xlink:href="#m9e7865672e" y="153.251795"/>
     <use style="fill:#d62728;stroke:#d62728;" x="201.608561" xlink:href="#m9e7865672e" y="148.900221"/>
     <use style="fill:#d62728;stroke:#d62728;" x="209.316329" xlink:href="#m9e7865672e" y="146.541559"/>
     <use style="fill:#d62728;stroke:#d62728;" x="217.024096" xlink:href="#m9e7865672e" y="145.04424"/>
     <use style="fill:#d62728;stroke:#d62728;" x="224.731863" xlink:href="#m9e7865672e" y="142.486232"/>
     <use style="fill:#d62728;stroke:#d62728;" x="232.439631" xlink:href="#m9e7865672e" y="141.154718"/>
     <use style="fill:#d62728;stroke:#d62728;" x="240.147398" xlink:href="#m9e7865672e" y="138.304521"/>
     <use style="fill:#d62728;stroke:#d62728;" x="247.855165" xlink:href="#m9e7865672e" y="136.025637"/>
     <use style="fill:#d62728;stroke:#d62728;" x="255.562932" xlink:href="#m9e7865672e" y="133.907469"/>
     <use style="fill:#d62728;stroke:#d62728;" x="263.2707" xlink:href="#m9e7865672e" y="131.887258"/>
     <use style="fill:#d62728;stroke:#d62728;" x="270.978467" xlink:href="#m9e7865672e" y="130.418247"/>
     <use style="fill:#d62728;stroke:#d62728;" x="278.686234" xlink:href="#m9e7865672e" y="128.892844"/>
     <use style="fill:#d62728;stroke:#d62728;" x="286.394002" xlink:href="#m9e7865672e" y="127.751688"/>
     <use style="fill:#d62728;stroke:#d62728;" x="294.101769" xlink:href="#m9e7865672e" y="126.366798"/>
     <use style="fill:#d62728;stroke:#d62728;" x="301.809536" xlink:href="#m9e7865672e" y="125.417951"/>
     <use style="fill:#d62728;stroke:#d62728;" x="309.517304" xlink:href="#m9e7865672e" y="124.142279"/>
     <use style="fill:#d62728;stroke:#d62728;" x="317.225071" xlink:href="#m9e7865672e" y="123.184416"/>
     <use style="fill:#d62728;stroke:#d62728;" x="324.932838" xlink:href="#m9e7865672e" y="122.374117"/>
     <use style="fill:#d62728;stroke:#d62728;" x="332.640605" xlink:href="#m9e7865672e" y="121.840898"/>
     <use style="fill:#d62728;stroke:#d62728;" x="340.348373" xlink:href="#m9e7865672e" y="121.086333"/>
     <use style="fill:#d62728;stroke:#d62728;" x="348.05614" xlink:href="#m9e7865672e" y="120.139708"/>
     <use style="fill:#d62728;stroke:#d62728;" x="355.763907" xlink:href="#m9e7865672e" y="119.298541"/>
     <use style="fill:#d62728;stroke:#d62728;" x="363.471675" xlink:href="#m9e7865672e" y="118.407952"/>
    </g>
   </g>
   <g id="line2d_89">
    <path clip-path="url(#p1f62a56f40)" d="M 47.789656 289.38845 
L 55.160983 275.638551 
L 62.86875 275.638551 
L 70.576517 267.228271 
L 78.284285 256.632571 
L 85.992052 244.440522 
L 93.699819 235.275893 
L 101.407586 226.865613 
L 109.115354 216.269913 
L 116.823121 207.275304 
L 124.530888 205.089884 
L 132.238656 199.915492 
L 139.946423 196.911364 
L 147.65419 191.5952 
L 155.361958 187.813431 
L 163.069725 183.366077 
L 170.777492 176.771643 
L 178.485259 174.515731 
L 186.193027 172.625325 
L 193.900794 168.747416 
L 201.608561 165.843219 
L 209.316329 163.715206 
L 217.024096 160.945458 
L 224.731863 158.175709 
L 232.439631 156.349897 
L 240.147398 154.460065 
L 247.855165 152.922895 
L 255.562932 151.648964 
L 263.2707 149.741436 
L 270.978467 148.127331 
L 278.686234 147.025711 
L 286.394002 145.349265 
L 294.101769 143.762261 
L 301.809536 142.237933 
L 309.517304 140.740167 
L 317.225071 139.357836 
L 324.932838 136.713838 
L 332.640605 136.346034 
L 340.348373 135.787912 
L 348.05614 134.437765 
L 355.763907 133.289147 
L 363.471675 131.632215 
" style="fill:none;stroke:#9467bd;stroke-linecap:square;stroke-width:1.5;"/>
    <g clip-path="url(#p1f62a56f40)">
     <use style="fill:#9467bd;stroke:#9467bd;" x="39.745448" xlink:href="#m74311b1d29" y="290.01602"/>
     <use style="fill:#9467bd;stroke:#9467bd;" x="47.453215" xlink:href="#m74311b1d29" y="290.01602"/>
     <use style="fill:#9467bd;stroke:#9467bd;" x="55.160983" xlink:href="#m74311b1d29" y="275.638551"/>
     <use style="fill:#9467bd;stroke:#9467bd;" x="62.86875" xlink:href="#m74311b1d29" y="275.638551"/>
     <use style="fill:#9467bd;stroke:#9467bd;" x="70.576517" xlink:href="#m74311b1d29" y="267.228271"/>
     <use style="fill:#9467bd;stroke:#9467bd;" x="78.284285" xlink:href="#m74311b1d29" y="256.632571"/>
     <use style="fill:#9467bd;stroke:#9467bd;" x="85.992052" xlink:href="#m74311b1d29" y="244.440522"/>
     <use style="fill:#9467bd;stroke:#9467bd;" x="93.699819" xlink:href="#m74311b1d29" y="235.275893"/>
     <use style="fill:#9467bd;stroke:#9467bd;" x="101.407586" xlink:href="#m74311b1d29" y="226.865613"/>
     <use style="fill:#9467bd;stroke:#9467bd;" x="109.115354" xlink:href="#m74311b1d29" y="216.269913"/>
     <use style="fill:#9467bd;stroke:#9467bd;" x="116.823121" xlink:href="#m74311b1d29" y="207.275304"/>
     <use style="fill:#9467bd;stroke:#9467bd;" x="124.530888" xlink:href="#m74311b1d29" y="205.089884"/>
     <use style="fill:#9467bd;stroke:#9467bd;" x="132.238656" xlink:href="#m74311b1d29" y="199.915492"/>
     <use style="fill:#9467bd;stroke:#9467bd;" x="139.946423" xlink:href="#m74311b1d29" y="196.911364"/>
     <use style="fill:#9467bd;stroke:#9467bd;" x="147.65419" xlink:href="#m74311b1d29" y="191.5952"/>
     <use style="fill:#9467bd;stroke:#9467bd;" x="155.361958" xlink:href="#m74311b1d29" y="187.813431"/>
     <use style="fill:#9467bd;stroke:#9467bd;" x="163.069725" xlink:href="#m74311b1d29" y="183.366077"/>
     <use style="fill:#9467bd;stroke:#9467bd;" x="170.777492" xlink:href="#m74311b1d29" y="176.771643"/>
     <use style="fill:#9467bd;stroke:#9467bd;" x="178.485259" xlink:href="#m74311b1d29" y="174.515731"/>
     <use style="fill:#9467bd;stroke:#9467bd;" x="186.193027" xlink:href="#m74311b1d29" y="172.625325"/>
     <use style="fill:#9467bd;stroke:#9467bd;" x="193.900794" xlink:href="#m74311b1d29" y="168.747416"/>
     <use style="fill:#9467bd;stroke:#9467bd;" x="201.608561" xlink:href="#m74311b1d29" y="165.843219"/>
     <use style="fill:#9467bd;stroke:#9467bd;" x="209.316329" xlink:href="#m74311b1d29" y="163.715206"/>
     <use style="fill:#9467bd;stroke:#9467bd;" x="217.024096" xlink:href="#m74311b1d29" y="160.945458"/>
     <use style="fill:#9467bd;stroke:#9467bd;" x="224.731863" xlink:href="#m74311b1d29" y="158.175709"/>
     <use style="fill:#9467bd;stroke:#9467bd;" x="232.439631" xlink:href="#m74311b1d29" y="156.349897"/>
     <use style="fill:#9467bd;stroke:#9467bd;" x="240.147398" xlink:href="#m74311b1d29" y="154.460065"/>
     <use style="fill:#9467bd;stroke:#9467bd;" x="247.855165" xlink:href="#m74311b1d29" y="152.922895"/>
     <use style="fill:#9467bd;stroke:#9467bd;" x="255.562932" xlink:href="#m74311b1d29" y="151.648964"/>
     <use style="fill:#9467bd;stroke:#9467bd;" x="263.2707" xlink:href="#m74311b1d29" y="149.741436"/>
     <use style="fill:#9467bd;stroke:#9467bd;" x="270.978467" xlink:href="#m74311b1d29" y="148.127331"/>
     <use style="fill:#9467bd;stroke:#9467bd;" x="278.686234" xlink:href="#m74311b1d29" y="147.025711"/>
     <use style="fill:#9467bd;stroke:#9467bd;" x="286.394002" xlink:href="#m74311b1d29" y="145.349265"/>
     <use style="fill:#9467bd;stroke:#9467bd;" x="294.101769" xlink:href="#m74311b1d29" y="143.762261"/>
     <use style="fill:#9467bd;stroke:#9467bd;" x="301.809536" xlink:href="#m74311b1d29" y="142.237933"/>
     <use style="fill:#9467bd;stroke:#9467bd;" x="309.517304" xlink:href="#m74311b1d29" y="140.740167"/>
     <use style="fill:#9467bd;stroke:#9467bd;" x="317.225071" xlink:href="#m74311b1d29" y="139.357836"/>
     <use style="fill:#9467bd;stroke:#9467bd;" x="324.932838" xlink:href="#m74311b1d29" y="136.713838"/>
     <use style="fill:#9467bd;stroke:#9467bd;" x="332.640605" xlink:href="#m74311b1d29" y="136.346034"/>
     <use style="fill:#9467bd;stroke:#9467bd;" x="340.348373" xlink:href="#m74311b1d29" y="135.787912"/>
     <use style="fill:#9467bd;stroke:#9467bd;" x="348.05614" xlink:href="#m74311b1d29" y="134.437765"/>
     <use style="fill:#9467bd;stroke:#9467bd;" x="355.763907" xlink:href="#m74311b1d29" y="133.289147"/>
     <use style="fill:#9467bd;stroke:#9467bd;" x="363.471675" xlink:href="#m74311b1d29" y="131.632215"/>
    </g>
   </g>
  </g>
 </g>
 <defs>
  <clipPath id="p1f62a56f40">
   <rect height="217.44" width="334.8" x="62.86875" y="22.318125"/>
  </clipPath>
 </defs>
</svg>
