<?xml version="1.0" encoding="utf-8" standalone="no"?>
<!DOCTYPE svg PUBLIC "-//W3C//DTD SVG 1.1//EN"
  "http://www.w3.org/Graphics/SVG/1.1/DTD/svg11.dtd">
<!-- Created with matplotlib (https://matplotlib.org/) -->
<svg height="272.089709pt" version="1.1" viewBox="0 0 401.690625 272.089709" width="401.690625pt" xmlns="http://www.w3.org/2000/svg" xmlns:xlink="http://www.w3.org/1999/xlink">
 <defs>
  <style type="text/css">
*{stroke-linecap:butt;stroke-linejoin:round;}
  </style>
 </defs>
 <g id="figure_1">
  <g id="patch_1">
   <path d="M 0 272.089709 
L 401.690625 272.089709 
L 401.690625 0 
L 0 0 
z
" style="fill:#ffffff;"/>
  </g>
  <g id="axes_1">
   <g id="patch_2">
    <path d="M 59.690625 224.64 
L 394.490625 224.64 
L 394.490625 7.2 
L 59.690625 7.2 
z
" style="fill:#ffffff;"/>
   </g>
   <g id="matplotlib.axis_1">
    <g id="xtick_1">
     <g id="line2d_1">
      <path clip-path="url(#p1fba975ded)" d="M 59.690625 224.64 
L 59.690625 7.2 
" style="fill:none;stroke:#b0b0b0;stroke-linecap:square;stroke-opacity:0.8;stroke-width:0.8;"/>
     </g>
     <g id="line2d_2">
      <defs>
       <path d="M 0 0 
L 0 3.5 
" id="mf31fbc2cd0" style="stroke:#000000;stroke-width:0.8;"/>
      </defs>
      <g>
       <use style="stroke:#000000;stroke-width:0.8;" x="59.690625" xlink:href="#mf31fbc2cd0" y="224.64"/>
      </g>
     </g>
     <g id="text_1">
      <!-- Mar. -->
      <defs>
       <path d="M 9.8125 72.90625 
L 24.515625 72.90625 
L 43.109375 23.296875 
L 61.8125 72.90625 
L 76.515625 72.90625 
L 76.515625 0 
L 66.890625 0 
L 66.890625 64.015625 
L 48.09375 14.015625 
L 38.1875 14.015625 
L 19.390625 64.015625 
L 19.390625 0 
L 9.8125 0 
z
" id="DejaVuSans-77"/>
       <path d="M 34.28125 27.484375 
Q 23.390625 27.484375 19.1875 25 
Q 14.984375 22.515625 14.984375 16.5 
Q 14.984375 11.71875 18.140625 8.90625 
Q 21.296875 6.109375 26.703125 6.109375 
Q 34.1875 6.109375 38.703125 11.40625 
Q 43.21875 16.703125 43.21875 25.484375 
L 43.21875 27.484375 
z
M 52.203125 31.203125 
L 52.203125 0 
L 43.21875 0 
L 43.21875 8.296875 
Q 40.140625 3.328125 35.546875 0.953125 
Q 30.953125 -1.421875 24.3125 -1.421875 
Q 15.921875 -1.421875 10.953125 3.296875 
Q 6 8.015625 6 15.921875 
Q 6 25.140625 12.171875 29.828125 
Q 18.359375 34.515625 30.609375 34.515625 
L 43.21875 34.515625 
L 43.21875 35.40625 
Q 43.21875 41.609375 39.140625 45 
Q 35.0625 48.390625 27.6875 48.390625 
Q 23 48.390625 18.546875 47.265625 
Q 14.109375 46.140625 10.015625 43.890625 
L 10.015625 52.203125 
Q 14.9375 54.109375 19.578125 55.046875 
Q 24.21875 56 28.609375 56 
Q 40.484375 56 46.34375 49.84375 
Q 52.203125 43.703125 52.203125 31.203125 
z
" id="DejaVuSans-97"/>
       <path d="M 41.109375 46.296875 
Q 39.59375 47.171875 37.8125 47.578125 
Q 36.03125 48 33.890625 48 
Q 26.265625 48 22.1875 43.046875 
Q 18.109375 38.09375 18.109375 28.8125 
L 18.109375 0 
L 9.078125 0 
L 9.078125 54.6875 
L 18.109375 54.6875 
L 18.109375 46.1875 
Q 20.953125 51.171875 25.484375 53.578125 
Q 30.03125 56 36.53125 56 
Q 37.453125 56 38.578125 55.875 
Q 39.703125 55.765625 41.0625 55.515625 
z
" id="DejaVuSans-114"/>
       <path d="M 10.6875 12.40625 
L 21 12.40625 
L 21 0 
L 10.6875 0 
z
" id="DejaVuSans-46"/>
      </defs>
      <g transform="translate(48.675 239.238437)scale(0.1 -0.1)">
       <use xlink:href="#DejaVuSans-77"/>
       <use x="86.279297" xlink:href="#DejaVuSans-97"/>
       <use x="147.558594" xlink:href="#DejaVuSans-114"/>
       <use x="188.53125" xlink:href="#DejaVuSans-46"/>
      </g>
      <!-- 09 -->
      <defs>
       <path d="M 31.78125 66.40625 
Q 24.171875 66.40625 20.328125 58.90625 
Q 16.5 51.421875 16.5 36.375 
Q 16.5 21.390625 20.328125 13.890625 
Q 24.171875 6.390625 31.78125 6.390625 
Q 39.453125 6.390625 43.28125 13.890625 
Q 47.125 21.390625 47.125 36.375 
Q 47.125 51.421875 43.28125 58.90625 
Q 39.453125 66.40625 31.78125 66.40625 
z
M 31.78125 74.21875 
Q 44.046875 74.21875 50.515625 64.515625 
Q 56.984375 54.828125 56.984375 36.375 
Q 56.984375 17.96875 50.515625 8.265625 
Q 44.046875 -1.421875 31.78125 -1.421875 
Q 19.53125 -1.421875 13.0625 8.265625 
Q 6.59375 17.96875 6.59375 36.375 
Q 6.59375 54.828125 13.0625 64.515625 
Q 19.53125 74.21875 31.78125 74.21875 
z
" id="DejaVuSans-48"/>
       <path d="M 10.984375 1.515625 
L 10.984375 10.5 
Q 14.703125 8.734375 18.5 7.8125 
Q 22.3125 6.890625 25.984375 6.890625 
Q 35.75 6.890625 40.890625 13.453125 
Q 46.046875 20.015625 46.78125 33.40625 
Q 43.953125 29.203125 39.59375 26.953125 
Q 35.25 24.703125 29.984375 24.703125 
Q 19.046875 24.703125 12.671875 31.3125 
Q 6.296875 37.9375 6.296875 49.421875 
Q 6.296875 60.640625 12.9375 67.421875 
Q 19.578125 74.21875 30.609375 74.21875 
Q 43.265625 74.21875 49.921875 64.515625 
Q 56.59375 54.828125 56.59375 36.375 
Q 56.59375 19.140625 48.40625 8.859375 
Q 40.234375 -1.421875 26.421875 -1.421875 
Q 22.703125 -1.421875 18.890625 -0.6875 
Q 15.09375 0.046875 10.984375 1.515625 
z
M 30.609375 32.421875 
Q 37.25 32.421875 41.125 36.953125 
Q 45.015625 41.5 45.015625 49.421875 
Q 45.015625 57.28125 41.125 61.84375 
Q 37.25 66.40625 30.609375 66.40625 
Q 23.96875 66.40625 20.09375 61.84375 
Q 16.21875 57.28125 16.21875 49.421875 
Q 16.21875 41.5 20.09375 36.953125 
Q 23.96875 32.421875 30.609375 32.421875 
z
" id="DejaVuSans-57"/>
      </defs>
      <g transform="translate(53.328125 250.43625)scale(0.1 -0.1)">
       <use xlink:href="#DejaVuSans-48"/>
       <use x="63.623047" xlink:href="#DejaVuSans-57"/>
      </g>
     </g>
    </g>
    <g id="xtick_2">
     <g id="line2d_3">
      <path clip-path="url(#p1fba975ded)" d="M 105.010848 224.64 
L 105.010848 7.2 
" style="fill:none;stroke:#b0b0b0;stroke-linecap:square;stroke-opacity:0.8;stroke-width:0.8;"/>
     </g>
     <g id="line2d_4">
      <g>
       <use style="stroke:#000000;stroke-width:0.8;" x="105.010848" xlink:href="#mf31fbc2cd0" y="224.64"/>
      </g>
     </g>
     <g id="text_2">
      <!-- Mar. -->
      <g transform="translate(93.995223 239.238437)scale(0.1 -0.1)">
       <use xlink:href="#DejaVuSans-77"/>
       <use x="86.279297" xlink:href="#DejaVuSans-97"/>
       <use x="147.558594" xlink:href="#DejaVuSans-114"/>
       <use x="188.53125" xlink:href="#DejaVuSans-46"/>
      </g>
      <!-- 13 -->
      <defs>
       <path d="M 12.40625 8.296875 
L 28.515625 8.296875 
L 28.515625 63.921875 
L 10.984375 60.40625 
L 10.984375 69.390625 
L 28.421875 72.90625 
L 38.28125 72.90625 
L 38.28125 8.296875 
L 54.390625 8.296875 
L 54.390625 0 
L 12.40625 0 
z
" id="DejaVuSans-49"/>
       <path d="M 40.578125 39.3125 
Q 47.65625 37.796875 51.625 33 
Q 55.609375 28.21875 55.609375 21.1875 
Q 55.609375 10.40625 48.1875 4.484375 
Q 40.765625 -1.421875 27.09375 -1.421875 
Q 22.515625 -1.421875 17.65625 -0.515625 
Q 12.796875 0.390625 7.625 2.203125 
L 7.625 11.71875 
Q 11.71875 9.328125 16.59375 8.109375 
Q 21.484375 6.890625 26.8125 6.890625 
Q 36.078125 6.890625 40.9375 10.546875 
Q 45.796875 14.203125 45.796875 21.1875 
Q 45.796875 27.640625 41.28125 31.265625 
Q 36.765625 34.90625 28.71875 34.90625 
L 20.21875 34.90625 
L 20.21875 43.015625 
L 29.109375 43.015625 
Q 36.375 43.015625 40.234375 45.921875 
Q 44.09375 48.828125 44.09375 54.296875 
Q 44.09375 59.90625 40.109375 62.90625 
Q 36.140625 65.921875 28.71875 65.921875 
Q 24.65625 65.921875 20.015625 65.03125 
Q 15.375 64.15625 9.8125 62.3125 
L 9.8125 71.09375 
Q 15.4375 72.65625 20.34375 73.4375 
Q 25.25 74.21875 29.59375 74.21875 
Q 40.828125 74.21875 47.359375 69.109375 
Q 53.90625 64.015625 53.90625 55.328125 
Q 53.90625 49.265625 50.4375 45.09375 
Q 46.96875 40.921875 40.578125 39.3125 
z
" id="DejaVuSans-51"/>
      </defs>
      <g transform="translate(98.648348 250.43625)scale(0.1 -0.1)">
       <use xlink:href="#DejaVuSans-49"/>
       <use x="63.623047" xlink:href="#DejaVuSans-51"/>
      </g>
     </g>
    </g>
    <g id="xtick_3">
     <g id="line2d_5">
      <path clip-path="url(#p1fba975ded)" d="M 150.331072 224.64 
L 150.331072 7.2 
" style="fill:none;stroke:#b0b0b0;stroke-linecap:square;stroke-opacity:0.8;stroke-width:0.8;"/>
     </g>
     <g id="line2d_6">
      <g>
       <use style="stroke:#000000;stroke-width:0.8;" x="150.331072" xlink:href="#mf31fbc2cd0" y="224.64"/>
      </g>
     </g>
     <g id="text_3">
      <!-- Mar. -->
      <g transform="translate(139.315447 239.238437)scale(0.1 -0.1)">
       <use xlink:href="#DejaVuSans-77"/>
       <use x="86.279297" xlink:href="#DejaVuSans-97"/>
       <use x="147.558594" xlink:href="#DejaVuSans-114"/>
       <use x="188.53125" xlink:href="#DejaVuSans-46"/>
      </g>
      <!-- 17 -->
      <defs>
       <path d="M 8.203125 72.90625 
L 55.078125 72.90625 
L 55.078125 68.703125 
L 28.609375 0 
L 18.3125 0 
L 43.21875 64.59375 
L 8.203125 64.59375 
z
" id="DejaVuSans-55"/>
      </defs>
      <g transform="translate(143.968572 250.43625)scale(0.1 -0.1)">
       <use xlink:href="#DejaVuSans-49"/>
       <use x="63.623047" xlink:href="#DejaVuSans-55"/>
      </g>
     </g>
    </g>
    <g id="xtick_4">
     <g id="line2d_7">
      <path clip-path="url(#p1fba975ded)" d="M 195.651295 224.64 
L 195.651295 7.2 
" style="fill:none;stroke:#b0b0b0;stroke-linecap:square;stroke-opacity:0.8;stroke-width:0.8;"/>
     </g>
     <g id="line2d_8">
      <g>
       <use style="stroke:#000000;stroke-width:0.8;" x="195.651295" xlink:href="#mf31fbc2cd0" y="224.64"/>
      </g>
     </g>
     <g id="text_4">
      <!-- Mar. -->
      <g transform="translate(184.63567 239.238437)scale(0.1 -0.1)">
       <use xlink:href="#DejaVuSans-77"/>
       <use x="86.279297" xlink:href="#DejaVuSans-97"/>
       <use x="147.558594" xlink:href="#DejaVuSans-114"/>
       <use x="188.53125" xlink:href="#DejaVuSans-46"/>
      </g>
      <!-- 21 -->
      <defs>
       <path d="M 19.1875 8.296875 
L 53.609375 8.296875 
L 53.609375 0 
L 7.328125 0 
L 7.328125 8.296875 
Q 12.9375 14.109375 22.625 23.890625 
Q 32.328125 33.6875 34.8125 36.53125 
Q 39.546875 41.84375 41.421875 45.53125 
Q 43.3125 49.21875 43.3125 52.78125 
Q 43.3125 58.59375 39.234375 62.25 
Q 35.15625 65.921875 28.609375 65.921875 
Q 23.96875 65.921875 18.8125 64.3125 
Q 13.671875 62.703125 7.8125 59.421875 
L 7.8125 69.390625 
Q 13.765625 71.78125 18.9375 73 
Q 24.125 74.21875 28.421875 74.21875 
Q 39.75 74.21875 46.484375 68.546875 
Q 53.21875 62.890625 53.21875 53.421875 
Q 53.21875 48.921875 51.53125 44.890625 
Q 49.859375 40.875 45.40625 35.40625 
Q 44.1875 33.984375 37.640625 27.21875 
Q 31.109375 20.453125 19.1875 8.296875 
z
" id="DejaVuSans-50"/>
      </defs>
      <g transform="translate(189.288795 250.43625)scale(0.1 -0.1)">
       <use xlink:href="#DejaVuSans-50"/>
       <use x="63.623047" xlink:href="#DejaVuSans-49"/>
      </g>
     </g>
    </g>
    <g id="xtick_5">
     <g id="line2d_9">
      <path clip-path="url(#p1fba975ded)" d="M 240.971519 224.64 
L 240.971519 7.2 
" style="fill:none;stroke:#b0b0b0;stroke-linecap:square;stroke-opacity:0.8;stroke-width:0.8;"/>
     </g>
     <g id="line2d_10">
      <g>
       <use style="stroke:#000000;stroke-width:0.8;" x="240.971519" xlink:href="#mf31fbc2cd0" y="224.64"/>
      </g>
     </g>
     <g id="text_5">
      <!-- Mar. -->
      <g transform="translate(229.955894 239.238437)scale(0.1 -0.1)">
       <use xlink:href="#DejaVuSans-77"/>
       <use x="86.279297" xlink:href="#DejaVuSans-97"/>
       <use x="147.558594" xlink:href="#DejaVuSans-114"/>
       <use x="188.53125" xlink:href="#DejaVuSans-46"/>
      </g>
      <!-- 25 -->
      <defs>
       <path d="M 10.796875 72.90625 
L 49.515625 72.90625 
L 49.515625 64.59375 
L 19.828125 64.59375 
L 19.828125 46.734375 
Q 21.96875 47.46875 24.109375 47.828125 
Q 26.265625 48.1875 28.421875 48.1875 
Q 40.625 48.1875 47.75 41.5 
Q 54.890625 34.8125 54.890625 23.390625 
Q 54.890625 11.625 47.5625 5.09375 
Q 40.234375 -1.421875 26.90625 -1.421875 
Q 22.3125 -1.421875 17.546875 -0.640625 
Q 12.796875 0.140625 7.71875 1.703125 
L 7.71875 11.625 
Q 12.109375 9.234375 16.796875 8.0625 
Q 21.484375 6.890625 26.703125 6.890625 
Q 35.15625 6.890625 40.078125 11.328125 
Q 45.015625 15.765625 45.015625 23.390625 
Q 45.015625 31 40.078125 35.4375 
Q 35.15625 39.890625 26.703125 39.890625 
Q 22.75 39.890625 18.8125 39.015625 
Q 14.890625 38.140625 10.796875 36.28125 
z
" id="DejaVuSans-53"/>
      </defs>
      <g transform="translate(234.609019 250.43625)scale(0.1 -0.1)">
       <use xlink:href="#DejaVuSans-50"/>
       <use x="63.623047" xlink:href="#DejaVuSans-53"/>
      </g>
     </g>
    </g>
    <g id="xtick_6">
     <g id="line2d_11">
      <path clip-path="url(#p1fba975ded)" d="M 286.291742 224.64 
L 286.291742 7.2 
" style="fill:none;stroke:#b0b0b0;stroke-linecap:square;stroke-opacity:0.8;stroke-width:0.8;"/>
     </g>
     <g id="line2d_12">
      <g>
       <use style="stroke:#000000;stroke-width:0.8;" x="286.291742" xlink:href="#mf31fbc2cd0" y="224.64"/>
      </g>
     </g>
     <g id="text_6">
      <!-- Mar. -->
      <g transform="translate(275.276117 239.238437)scale(0.1 -0.1)">
       <use xlink:href="#DejaVuSans-77"/>
       <use x="86.279297" xlink:href="#DejaVuSans-97"/>
       <use x="147.558594" xlink:href="#DejaVuSans-114"/>
       <use x="188.53125" xlink:href="#DejaVuSans-46"/>
      </g>
      <!-- 29 -->
      <g transform="translate(279.929242 250.43625)scale(0.1 -0.1)">
       <use xlink:href="#DejaVuSans-50"/>
       <use x="63.623047" xlink:href="#DejaVuSans-57"/>
      </g>
     </g>
    </g>
    <g id="xtick_7">
     <g id="line2d_13">
      <path clip-path="url(#p1fba975ded)" d="M 320.28191 224.64 
L 320.28191 7.2 
" style="fill:none;stroke:#b0b0b0;stroke-linecap:square;stroke-opacity:0.8;stroke-width:0.8;"/>
     </g>
     <g id="line2d_14">
      <g>
       <use style="stroke:#000000;stroke-width:0.8;" x="320.28191" xlink:href="#mf31fbc2cd0" y="224.64"/>
      </g>
     </g>
     <g id="text_7">
      <!-- Apr. -->
      <defs>
       <path d="M 34.1875 63.1875 
L 20.796875 26.90625 
L 47.609375 26.90625 
z
M 28.609375 72.90625 
L 39.796875 72.90625 
L 67.578125 0 
L 57.328125 0 
L 50.6875 18.703125 
L 17.828125 18.703125 
L 11.1875 0 
L 0.78125 0 
z
" id="DejaVuSans-65"/>
       <path d="M 18.109375 8.203125 
L 18.109375 -20.796875 
L 9.078125 -20.796875 
L 9.078125 54.6875 
L 18.109375 54.6875 
L 18.109375 46.390625 
Q 20.953125 51.265625 25.265625 53.625 
Q 29.59375 56 35.59375 56 
Q 45.5625 56 51.78125 48.09375 
Q 58.015625 40.1875 58.015625 27.296875 
Q 58.015625 14.40625 51.78125 6.484375 
Q 45.5625 -1.421875 35.59375 -1.421875 
Q 29.59375 -1.421875 25.265625 0.953125 
Q 20.953125 3.328125 18.109375 8.203125 
z
M 48.6875 27.296875 
Q 48.6875 37.203125 44.609375 42.84375 
Q 40.53125 48.484375 33.40625 48.484375 
Q 26.265625 48.484375 22.1875 42.84375 
Q 18.109375 37.203125 18.109375 27.296875 
Q 18.109375 17.390625 22.1875 11.75 
Q 26.265625 6.109375 33.40625 6.109375 
Q 40.53125 6.109375 44.609375 11.75 
Q 48.6875 17.390625 48.6875 27.296875 
z
" id="DejaVuSans-112"/>
      </defs>
      <g transform="translate(310.049879 239.238437)scale(0.1 -0.1)">
       <use xlink:href="#DejaVuSans-65"/>
       <use x="68.408203" xlink:href="#DejaVuSans-112"/>
       <use x="131.884766" xlink:href="#DejaVuSans-114"/>
       <use x="172.857422" xlink:href="#DejaVuSans-46"/>
      </g>
      <!-- 01 -->
      <g transform="translate(313.91941 250.43625)scale(0.1 -0.1)">
       <use xlink:href="#DejaVuSans-48"/>
       <use x="63.623047" xlink:href="#DejaVuSans-49"/>
      </g>
     </g>
    </g>
    <g id="xtick_8">
     <g id="line2d_15">
      <path clip-path="url(#p1fba975ded)" d="M 365.602133 224.64 
L 365.602133 7.2 
" style="fill:none;stroke:#b0b0b0;stroke-linecap:square;stroke-opacity:0.8;stroke-width:0.8;"/>
     </g>
     <g id="line2d_16">
      <g>
       <use style="stroke:#000000;stroke-width:0.8;" x="365.602133" xlink:href="#mf31fbc2cd0" y="224.64"/>
      </g>
     </g>
     <g id="text_8">
      <!-- Apr. -->
      <g transform="translate(355.370102 239.238437)scale(0.1 -0.1)">
       <use xlink:href="#DejaVuSans-65"/>
       <use x="68.408203" xlink:href="#DejaVuSans-112"/>
       <use x="131.884766" xlink:href="#DejaVuSans-114"/>
       <use x="172.857422" xlink:href="#DejaVuSans-46"/>
      </g>
      <!-- 05 -->
      <g transform="translate(359.239633 250.43625)scale(0.1 -0.1)">
       <use xlink:href="#DejaVuSans-48"/>
       <use x="63.623047" xlink:href="#DejaVuSans-53"/>
      </g>
     </g>
    </g>
   </g>
   <g id="matplotlib.axis_2">
    <g id="ytick_1">
     <g id="line2d_17">
      <path clip-path="url(#p1fba975ded)" d="M 59.690625 224.64 
L 394.490625 224.64 
" style="fill:none;stroke:#b0b0b0;stroke-linecap:square;stroke-opacity:0.8;stroke-width:0.8;"/>
     </g>
     <g id="line2d_18">
      <defs>
       <path d="M 0 0 
L -3.5 0 
" id="m6055d48758" style="stroke:#000000;stroke-width:0.8;"/>
      </defs>
      <g>
       <use style="stroke:#000000;stroke-width:0.8;" x="59.690625" xlink:href="#m6055d48758" y="224.64"/>
      </g>
     </g>
     <g id="text_9">
      <!-- 2 -->
      <g transform="translate(46.328125 228.439219)scale(0.1 -0.1)">
       <use xlink:href="#DejaVuSans-50"/>
      </g>
     </g>
    </g>
    <g id="ytick_2">
     <g id="line2d_19">
      <path clip-path="url(#p1fba975ded)" d="M 59.690625 202.908912 
L 394.490625 202.908912 
" style="fill:none;stroke:#b0b0b0;stroke-linecap:square;stroke-opacity:0.8;stroke-width:0.8;"/>
     </g>
     <g id="line2d_20">
      <g>
       <use style="stroke:#000000;stroke-width:0.8;" x="59.690625" xlink:href="#m6055d48758" y="202.908912"/>
      </g>
     </g>
     <g id="text_10">
      <!-- 5 -->
      <g transform="translate(46.328125 206.708131)scale(0.1 -0.1)">
       <use xlink:href="#DejaVuSans-53"/>
      </g>
     </g>
    </g>
    <g id="ytick_3">
     <g id="line2d_21">
      <path clip-path="url(#p1fba975ded)" d="M 59.690625 186.469979 
L 394.490625 186.469979 
" style="fill:none;stroke:#b0b0b0;stroke-linecap:square;stroke-opacity:0.8;stroke-width:0.8;"/>
     </g>
     <g id="line2d_22">
      <g>
       <use style="stroke:#000000;stroke-width:0.8;" x="59.690625" xlink:href="#m6055d48758" y="186.469979"/>
      </g>
     </g>
     <g id="text_11">
      <!-- 10 -->
      <g transform="translate(39.965625 190.269197)scale(0.1 -0.1)">
       <use xlink:href="#DejaVuSans-49"/>
       <use x="63.623047" xlink:href="#DejaVuSans-48"/>
      </g>
     </g>
    </g>
    <g id="ytick_4">
     <g id="line2d_23">
      <path clip-path="url(#p1fba975ded)" d="M 59.690625 170.031045 
L 394.490625 170.031045 
" style="fill:none;stroke:#b0b0b0;stroke-linecap:square;stroke-opacity:0.8;stroke-width:0.8;"/>
     </g>
     <g id="line2d_24">
      <g>
       <use style="stroke:#000000;stroke-width:0.8;" x="59.690625" xlink:href="#m6055d48758" y="170.031045"/>
      </g>
     </g>
     <g id="text_12">
      <!-- 20 -->
      <g transform="translate(39.965625 173.830264)scale(0.1 -0.1)">
       <use xlink:href="#DejaVuSans-50"/>
       <use x="63.623047" xlink:href="#DejaVuSans-48"/>
      </g>
     </g>
    </g>
    <g id="ytick_5">
     <g id="line2d_25">
      <path clip-path="url(#p1fba975ded)" d="M 59.690625 148.299957 
L 394.490625 148.299957 
" style="fill:none;stroke:#b0b0b0;stroke-linecap:square;stroke-opacity:0.8;stroke-width:0.8;"/>
     </g>
     <g id="line2d_26">
      <g>
       <use style="stroke:#000000;stroke-width:0.8;" x="59.690625" xlink:href="#m6055d48758" y="148.299957"/>
      </g>
     </g>
     <g id="text_13">
      <!-- 50 -->
      <g transform="translate(39.965625 152.099176)scale(0.1 -0.1)">
       <use xlink:href="#DejaVuSans-53"/>
       <use x="63.623047" xlink:href="#DejaVuSans-48"/>
      </g>
     </g>
    </g>
    <g id="ytick_6">
     <g id="line2d_27">
      <path clip-path="url(#p1fba975ded)" d="M 59.690625 131.861024 
L 394.490625 131.861024 
" style="fill:none;stroke:#b0b0b0;stroke-linecap:square;stroke-opacity:0.8;stroke-width:0.8;"/>
     </g>
     <g id="line2d_28">
      <g>
       <use style="stroke:#000000;stroke-width:0.8;" x="59.690625" xlink:href="#m6055d48758" y="131.861024"/>
      </g>
     </g>
     <g id="text_14">
      <!-- 100 -->
      <g transform="translate(33.603125 135.660242)scale(0.1 -0.1)">
       <use xlink:href="#DejaVuSans-49"/>
       <use x="63.623047" xlink:href="#DejaVuSans-48"/>
       <use x="127.246094" xlink:href="#DejaVuSans-48"/>
      </g>
     </g>
    </g>
    <g id="ytick_7">
     <g id="line2d_29">
      <path clip-path="url(#p1fba975ded)" d="M 59.690625 115.42209 
L 394.490625 115.42209 
" style="fill:none;stroke:#b0b0b0;stroke-linecap:square;stroke-opacity:0.8;stroke-width:0.8;"/>
     </g>
     <g id="line2d_30">
      <g>
       <use style="stroke:#000000;stroke-width:0.8;" x="59.690625" xlink:href="#m6055d48758" y="115.42209"/>
      </g>
     </g>
     <g id="text_15">
      <!-- 200 -->
      <g transform="translate(33.603125 119.221309)scale(0.1 -0.1)">
       <use xlink:href="#DejaVuSans-50"/>
       <use x="63.623047" xlink:href="#DejaVuSans-48"/>
       <use x="127.246094" xlink:href="#DejaVuSans-48"/>
      </g>
     </g>
    </g>
    <g id="ytick_8">
     <g id="line2d_31">
      <path clip-path="url(#p1fba975ded)" d="M 59.690625 93.691002 
L 394.490625 93.691002 
" style="fill:none;stroke:#b0b0b0;stroke-linecap:square;stroke-opacity:0.8;stroke-width:0.8;"/>
     </g>
     <g id="line2d_32">
      <g>
       <use style="stroke:#000000;stroke-width:0.8;" x="59.690625" xlink:href="#m6055d48758" y="93.691002"/>
      </g>
     </g>
     <g id="text_16">
      <!-- 500 -->
      <g transform="translate(33.603125 97.490221)scale(0.1 -0.1)">
       <use xlink:href="#DejaVuSans-53"/>
       <use x="63.623047" xlink:href="#DejaVuSans-48"/>
       <use x="127.246094" xlink:href="#DejaVuSans-48"/>
      </g>
     </g>
    </g>
    <g id="ytick_9">
     <g id="line2d_33">
      <path clip-path="url(#p1fba975ded)" d="M 59.690625 77.252069 
L 394.490625 77.252069 
" style="fill:none;stroke:#b0b0b0;stroke-linecap:square;stroke-opacity:0.8;stroke-width:0.8;"/>
     </g>
     <g id="line2d_34">
      <g>
       <use style="stroke:#000000;stroke-width:0.8;" x="59.690625" xlink:href="#m6055d48758" y="77.252069"/>
      </g>
     </g>
     <g id="text_17">
      <!-- 1000 -->
      <g transform="translate(27.240625 81.051287)scale(0.1 -0.1)">
       <use xlink:href="#DejaVuSans-49"/>
       <use x="63.623047" xlink:href="#DejaVuSans-48"/>
       <use x="127.246094" xlink:href="#DejaVuSans-48"/>
       <use x="190.869141" xlink:href="#DejaVuSans-48"/>
      </g>
     </g>
    </g>
    <g id="ytick_10">
     <g id="line2d_35">
      <path clip-path="url(#p1fba975ded)" d="M 59.690625 60.813135 
L 394.490625 60.813135 
" style="fill:none;stroke:#b0b0b0;stroke-linecap:square;stroke-opacity:0.8;stroke-width:0.8;"/>
     </g>
     <g id="line2d_36">
      <g>
       <use style="stroke:#000000;stroke-width:0.8;" x="59.690625" xlink:href="#m6055d48758" y="60.813135"/>
      </g>
     </g>
     <g id="text_18">
      <!-- 2000 -->
      <g transform="translate(27.240625 64.612354)scale(0.1 -0.1)">
       <use xlink:href="#DejaVuSans-50"/>
       <use x="63.623047" xlink:href="#DejaVuSans-48"/>
       <use x="127.246094" xlink:href="#DejaVuSans-48"/>
       <use x="190.869141" xlink:href="#DejaVuSans-48"/>
      </g>
     </g>
    </g>
    <g id="ytick_11">
     <g id="line2d_37">
      <path clip-path="url(#p1fba975ded)" d="M 59.690625 39.082047 
L 394.490625 39.082047 
" style="fill:none;stroke:#b0b0b0;stroke-linecap:square;stroke-opacity:0.8;stroke-width:0.8;"/>
     </g>
     <g id="line2d_38">
      <g>
       <use style="stroke:#000000;stroke-width:0.8;" x="59.690625" xlink:href="#m6055d48758" y="39.082047"/>
      </g>
     </g>
     <g id="text_19">
      <!-- 5000 -->
      <g transform="translate(27.240625 42.881266)scale(0.1 -0.1)">
       <use xlink:href="#DejaVuSans-53"/>
       <use x="63.623047" xlink:href="#DejaVuSans-48"/>
       <use x="127.246094" xlink:href="#DejaVuSans-48"/>
       <use x="190.869141" xlink:href="#DejaVuSans-48"/>
      </g>
     </g>
    </g>
    <g id="ytick_12">
     <g id="line2d_39">
      <path clip-path="url(#p1fba975ded)" d="M 59.690625 22.643114 
L 394.490625 22.643114 
" style="fill:none;stroke:#b0b0b0;stroke-linecap:square;stroke-opacity:0.8;stroke-width:0.8;"/>
     </g>
     <g id="line2d_40">
      <g>
       <use style="stroke:#000000;stroke-width:0.8;" x="59.690625" xlink:href="#m6055d48758" y="22.643114"/>
      </g>
     </g>
     <g id="text_20">
      <!-- 10000 -->
      <g transform="translate(20.878125 26.442333)scale(0.1 -0.1)">
       <use xlink:href="#DejaVuSans-49"/>
       <use x="63.623047" xlink:href="#DejaVuSans-48"/>
       <use x="127.246094" xlink:href="#DejaVuSans-48"/>
       <use x="190.869141" xlink:href="#DejaVuSans-48"/>
       <use x="254.492188" xlink:href="#DejaVuSans-48"/>
      </g>
     </g>
    </g>
    <g id="ytick_13">
     <g id="line2d_41">
      <defs>
       <path d="M 0 0 
L -2 0 
" id="ma1d0f6ae8d" style="stroke:#000000;stroke-width:0.6;"/>
      </defs>
      <g>
       <use style="stroke:#000000;stroke-width:0.6;" x="59.690625" xlink:href="#ma1d0f6ae8d" y="215.02384"/>
      </g>
     </g>
    </g>
    <g id="ytick_14">
     <g id="line2d_42">
      <g>
       <use style="stroke:#000000;stroke-width:0.6;" x="59.690625" xlink:href="#ma1d0f6ae8d" y="208.201067"/>
      </g>
     </g>
    </g>
    <g id="ytick_15">
     <g id="line2d_43">
      <g>
       <use style="stroke:#000000;stroke-width:0.6;" x="59.690625" xlink:href="#ma1d0f6ae8d" y="198.584907"/>
      </g>
     </g>
    </g>
    <g id="ytick_16">
     <g id="line2d_44">
      <g>
       <use style="stroke:#000000;stroke-width:0.6;" x="59.690625" xlink:href="#ma1d0f6ae8d" y="194.929013"/>
      </g>
     </g>
    </g>
    <g id="ytick_17">
     <g id="line2d_45">
      <g>
       <use style="stroke:#000000;stroke-width:0.6;" x="59.690625" xlink:href="#ma1d0f6ae8d" y="191.762133"/>
      </g>
     </g>
    </g>
    <g id="ytick_18">
     <g id="line2d_46">
      <g>
       <use style="stroke:#000000;stroke-width:0.6;" x="59.690625" xlink:href="#ma1d0f6ae8d" y="188.968747"/>
      </g>
     </g>
    </g>
    <g id="ytick_19">
     <g id="line2d_47">
      <g>
       <use style="stroke:#000000;stroke-width:0.6;" x="59.690625" xlink:href="#ma1d0f6ae8d" y="160.414885"/>
      </g>
     </g>
    </g>
    <g id="ytick_20">
     <g id="line2d_48">
      <g>
       <use style="stroke:#000000;stroke-width:0.6;" x="59.690625" xlink:href="#ma1d0f6ae8d" y="153.592112"/>
      </g>
     </g>
    </g>
    <g id="ytick_21">
     <g id="line2d_49">
      <g>
       <use style="stroke:#000000;stroke-width:0.6;" x="59.690625" xlink:href="#ma1d0f6ae8d" y="143.975952"/>
      </g>
     </g>
    </g>
    <g id="ytick_22">
     <g id="line2d_50">
      <g>
       <use style="stroke:#000000;stroke-width:0.6;" x="59.690625" xlink:href="#ma1d0f6ae8d" y="140.320058"/>
      </g>
     </g>
    </g>
    <g id="ytick_23">
     <g id="line2d_51">
      <g>
       <use style="stroke:#000000;stroke-width:0.6;" x="59.690625" xlink:href="#ma1d0f6ae8d" y="137.153178"/>
      </g>
     </g>
    </g>
    <g id="ytick_24">
     <g id="line2d_52">
      <g>
       <use style="stroke:#000000;stroke-width:0.6;" x="59.690625" xlink:href="#ma1d0f6ae8d" y="134.359792"/>
      </g>
     </g>
    </g>
    <g id="ytick_25">
     <g id="line2d_53">
      <g>
       <use style="stroke:#000000;stroke-width:0.6;" x="59.690625" xlink:href="#ma1d0f6ae8d" y="105.805931"/>
      </g>
     </g>
    </g>
    <g id="ytick_26">
     <g id="line2d_54">
      <g>
       <use style="stroke:#000000;stroke-width:0.6;" x="59.690625" xlink:href="#ma1d0f6ae8d" y="98.983157"/>
      </g>
     </g>
    </g>
    <g id="ytick_27">
     <g id="line2d_55">
      <g>
       <use style="stroke:#000000;stroke-width:0.6;" x="59.690625" xlink:href="#ma1d0f6ae8d" y="89.366997"/>
      </g>
     </g>
    </g>
    <g id="ytick_28">
     <g id="line2d_56">
      <g>
       <use style="stroke:#000000;stroke-width:0.6;" x="59.690625" xlink:href="#ma1d0f6ae8d" y="85.711103"/>
      </g>
     </g>
    </g>
    <g id="ytick_29">
     <g id="line2d_57">
      <g>
       <use style="stroke:#000000;stroke-width:0.6;" x="59.690625" xlink:href="#ma1d0f6ae8d" y="82.544223"/>
      </g>
     </g>
    </g>
    <g id="ytick_30">
     <g id="line2d_58">
      <g>
       <use style="stroke:#000000;stroke-width:0.6;" x="59.690625" xlink:href="#ma1d0f6ae8d" y="79.750837"/>
      </g>
     </g>
    </g>
    <g id="ytick_31">
     <g id="line2d_59">
      <g>
       <use style="stroke:#000000;stroke-width:0.6;" x="59.690625" xlink:href="#ma1d0f6ae8d" y="51.196976"/>
      </g>
     </g>
    </g>
    <g id="ytick_32">
     <g id="line2d_60">
      <g>
       <use style="stroke:#000000;stroke-width:0.6;" x="59.690625" xlink:href="#ma1d0f6ae8d" y="44.374202"/>
      </g>
     </g>
    </g>
    <g id="ytick_33">
     <g id="line2d_61">
      <g>
       <use style="stroke:#000000;stroke-width:0.6;" x="59.690625" xlink:href="#ma1d0f6ae8d" y="34.758042"/>
      </g>
     </g>
    </g>
    <g id="ytick_34">
     <g id="line2d_62">
      <g>
       <use style="stroke:#000000;stroke-width:0.6;" x="59.690625" xlink:href="#ma1d0f6ae8d" y="31.102148"/>
      </g>
     </g>
    </g>
    <g id="ytick_35">
     <g id="line2d_63">
      <g>
       <use style="stroke:#000000;stroke-width:0.6;" x="59.690625" xlink:href="#ma1d0f6ae8d" y="27.935268"/>
      </g>
     </g>
    </g>
    <g id="ytick_36">
     <g id="line2d_64">
      <g>
       <use style="stroke:#000000;stroke-width:0.6;" x="59.690625" xlink:href="#ma1d0f6ae8d" y="25.141883"/>
      </g>
     </g>
    </g>
    <g id="text_21">
     <!-- Total cases per million -->
     <defs>
      <path d="M -0.296875 72.90625 
L 61.375 72.90625 
L 61.375 64.59375 
L 35.5 64.59375 
L 35.5 0 
L 25.59375 0 
L 25.59375 64.59375 
L -0.296875 64.59375 
z
" id="DejaVuSans-84"/>
      <path d="M 30.609375 48.390625 
Q 23.390625 48.390625 19.1875 42.75 
Q 14.984375 37.109375 14.984375 27.296875 
Q 14.984375 17.484375 19.15625 11.84375 
Q 23.34375 6.203125 30.609375 6.203125 
Q 37.796875 6.203125 41.984375 11.859375 
Q 46.1875 17.53125 46.1875 27.296875 
Q 46.1875 37.015625 41.984375 42.703125 
Q 37.796875 48.390625 30.609375 48.390625 
z
M 30.609375 56 
Q 42.328125 56 49.015625 48.375 
Q 55.71875 40.765625 55.71875 27.296875 
Q 55.71875 13.875 49.015625 6.21875 
Q 42.328125 -1.421875 30.609375 -1.421875 
Q 18.84375 -1.421875 12.171875 6.21875 
Q 5.515625 13.875 5.515625 27.296875 
Q 5.515625 40.765625 12.171875 48.375 
Q 18.84375 56 30.609375 56 
z
" id="DejaVuSans-111"/>
      <path d="M 18.3125 70.21875 
L 18.3125 54.6875 
L 36.8125 54.6875 
L 36.8125 47.703125 
L 18.3125 47.703125 
L 18.3125 18.015625 
Q 18.3125 11.328125 20.140625 9.421875 
Q 21.96875 7.515625 27.59375 7.515625 
L 36.8125 7.515625 
L 36.8125 0 
L 27.59375 0 
Q 17.1875 0 13.234375 3.875 
Q 9.28125 7.765625 9.28125 18.015625 
L 9.28125 47.703125 
L 2.6875 47.703125 
L 2.6875 54.6875 
L 9.28125 54.6875 
L 9.28125 70.21875 
z
" id="DejaVuSans-116"/>
      <path d="M 9.421875 75.984375 
L 18.40625 75.984375 
L 18.40625 0 
L 9.421875 0 
z
" id="DejaVuSans-108"/>
      <path id="DejaVuSans-32"/>
      <path d="M 48.78125 52.59375 
L 48.78125 44.1875 
Q 44.96875 46.296875 41.140625 47.34375 
Q 37.3125 48.390625 33.40625 48.390625 
Q 24.65625 48.390625 19.8125 42.84375 
Q 14.984375 37.3125 14.984375 27.296875 
Q 14.984375 17.28125 19.8125 11.734375 
Q 24.65625 6.203125 33.40625 6.203125 
Q 37.3125 6.203125 41.140625 7.25 
Q 44.96875 8.296875 48.78125 10.40625 
L 48.78125 2.09375 
Q 45.015625 0.34375 40.984375 -0.53125 
Q 36.96875 -1.421875 32.421875 -1.421875 
Q 20.0625 -1.421875 12.78125 6.34375 
Q 5.515625 14.109375 5.515625 27.296875 
Q 5.515625 40.671875 12.859375 48.328125 
Q 20.21875 56 33.015625 56 
Q 37.15625 56 41.109375 55.140625 
Q 45.0625 54.296875 48.78125 52.59375 
z
" id="DejaVuSans-99"/>
      <path d="M 44.28125 53.078125 
L 44.28125 44.578125 
Q 40.484375 46.53125 36.375 47.5 
Q 32.28125 48.484375 27.875 48.484375 
Q 21.1875 48.484375 17.84375 46.4375 
Q 14.5 44.390625 14.5 40.28125 
Q 14.5 37.15625 16.890625 35.375 
Q 19.28125 33.59375 26.515625 31.984375 
L 29.59375 31.296875 
Q 39.15625 29.25 43.1875 25.515625 
Q 47.21875 21.78125 47.21875 15.09375 
Q 47.21875 7.46875 41.1875 3.015625 
Q 35.15625 -1.421875 24.609375 -1.421875 
Q 20.21875 -1.421875 15.453125 -0.5625 
Q 10.6875 0.296875 5.421875 2 
L 5.421875 11.28125 
Q 10.40625 8.6875 15.234375 7.390625 
Q 20.0625 6.109375 24.8125 6.109375 
Q 31.15625 6.109375 34.5625 8.28125 
Q 37.984375 10.453125 37.984375 14.40625 
Q 37.984375 18.0625 35.515625 20.015625 
Q 33.0625 21.96875 24.703125 23.78125 
L 21.578125 24.515625 
Q 13.234375 26.265625 9.515625 29.90625 
Q 5.8125 33.546875 5.8125 39.890625 
Q 5.8125 47.609375 11.28125 51.796875 
Q 16.75 56 26.8125 56 
Q 31.78125 56 36.171875 55.265625 
Q 40.578125 54.546875 44.28125 53.078125 
z
" id="DejaVuSans-115"/>
      <path d="M 56.203125 29.59375 
L 56.203125 25.203125 
L 14.890625 25.203125 
Q 15.484375 15.921875 20.484375 11.0625 
Q 25.484375 6.203125 34.421875 6.203125 
Q 39.59375 6.203125 44.453125 7.46875 
Q 49.3125 8.734375 54.109375 11.28125 
L 54.109375 2.78125 
Q 49.265625 0.734375 44.1875 -0.34375 
Q 39.109375 -1.421875 33.890625 -1.421875 
Q 20.796875 -1.421875 13.15625 6.1875 
Q 5.515625 13.8125 5.515625 26.8125 
Q 5.515625 40.234375 12.765625 48.109375 
Q 20.015625 56 32.328125 56 
Q 43.359375 56 49.78125 48.890625 
Q 56.203125 41.796875 56.203125 29.59375 
z
M 47.21875 32.234375 
Q 47.125 39.59375 43.09375 43.984375 
Q 39.0625 48.390625 32.421875 48.390625 
Q 24.90625 48.390625 20.390625 44.140625 
Q 15.875 39.890625 15.1875 32.171875 
z
" id="DejaVuSans-101"/>
      <path d="M 52 44.1875 
Q 55.375 50.25 60.0625 53.125 
Q 64.75 56 71.09375 56 
Q 79.640625 56 84.28125 50.015625 
Q 88.921875 44.046875 88.921875 33.015625 
L 88.921875 0 
L 79.890625 0 
L 79.890625 32.71875 
Q 79.890625 40.578125 77.09375 44.375 
Q 74.3125 48.1875 68.609375 48.1875 
Q 61.625 48.1875 57.5625 43.546875 
Q 53.515625 38.921875 53.515625 30.90625 
L 53.515625 0 
L 44.484375 0 
L 44.484375 32.71875 
Q 44.484375 40.625 41.703125 44.40625 
Q 38.921875 48.1875 33.109375 48.1875 
Q 26.21875 48.1875 22.15625 43.53125 
Q 18.109375 38.875 18.109375 30.90625 
L 18.109375 0 
L 9.078125 0 
L 9.078125 54.6875 
L 18.109375 54.6875 
L 18.109375 46.1875 
Q 21.1875 51.21875 25.484375 53.609375 
Q 29.78125 56 35.6875 56 
Q 41.65625 56 45.828125 52.96875 
Q 50 49.953125 52 44.1875 
z
" id="DejaVuSans-109"/>
      <path d="M 9.421875 54.6875 
L 18.40625 54.6875 
L 18.40625 0 
L 9.421875 0 
z
M 9.421875 75.984375 
L 18.40625 75.984375 
L 18.40625 64.59375 
L 9.421875 64.59375 
z
" id="DejaVuSans-105"/>
      <path d="M 54.890625 33.015625 
L 54.890625 0 
L 45.90625 0 
L 45.90625 32.71875 
Q 45.90625 40.484375 42.875 44.328125 
Q 39.84375 48.1875 33.796875 48.1875 
Q 26.515625 48.1875 22.3125 43.546875 
Q 18.109375 38.921875 18.109375 30.90625 
L 18.109375 0 
L 9.078125 0 
L 9.078125 54.6875 
L 18.109375 54.6875 
L 18.109375 46.1875 
Q 21.34375 51.125 25.703125 53.5625 
Q 30.078125 56 35.796875 56 
Q 45.21875 56 50.046875 50.171875 
Q 54.890625 44.34375 54.890625 33.015625 
z
" id="DejaVuSans-110"/>
     </defs>
     <g transform="translate(14.798438 172.260625)rotate(-90)scale(0.1 -0.1)">
      <use xlink:href="#DejaVuSans-84"/>
      <use x="60.818359" xlink:href="#DejaVuSans-111"/>
      <use x="122" xlink:href="#DejaVuSans-116"/>
      <use x="161.208984" xlink:href="#DejaVuSans-97"/>
      <use x="222.488281" xlink:href="#DejaVuSans-108"/>
      <use x="250.271484" xlink:href="#DejaVuSans-32"/>
      <use x="282.058594" xlink:href="#DejaVuSans-99"/>
      <use x="337.039062" xlink:href="#DejaVuSans-97"/>
      <use x="398.318359" xlink:href="#DejaVuSans-115"/>
      <use x="450.417969" xlink:href="#DejaVuSans-101"/>
      <use x="511.941406" xlink:href="#DejaVuSans-115"/>
      <use x="564.041016" xlink:href="#DejaVuSans-32"/>
      <use x="595.828125" xlink:href="#DejaVuSans-112"/>
      <use x="659.304688" xlink:href="#DejaVuSans-101"/>
      <use x="720.828125" xlink:href="#DejaVuSans-114"/>
      <use x="761.941406" xlink:href="#DejaVuSans-32"/>
      <use x="793.728516" xlink:href="#DejaVuSans-109"/>
      <use x="891.140625" xlink:href="#DejaVuSans-105"/>
      <use x="918.923828" xlink:href="#DejaVuSans-108"/>
      <use x="946.707031" xlink:href="#DejaVuSans-108"/>
      <use x="974.490234" xlink:href="#DejaVuSans-105"/>
      <use x="1002.273438" xlink:href="#DejaVuSans-111"/>
      <use x="1063.455078" xlink:href="#DejaVuSans-110"/>
     </g>
    </g>
   </g>
   <g id="line2d_65">
    <path clip-path="url(#p1fba975ded)" d="M 297.621798 86.394585 
L 308.951854 84.637029 
L 320.28191 82.879473 
L 331.611966 81.121917 
L 342.942022 79.364361 
" style="fill:none;stroke:#7f7f7f;stroke-dasharray:7.4,3.2;stroke-dashoffset:0;stroke-width:2;"/>
   </g>
   <g id="line2d_66">
    <path clip-path="url(#p1fba975ded)" d="M 297.621798 131.360166 
L 308.951854 129.494526 
L 320.28191 127.628885 
L 331.611966 125.763245 
L 342.942022 123.897605 
" style="fill:none;stroke:#7f7f7f;stroke-dasharray:7.4,3.2;stroke-dashoffset:0;stroke-width:2;"/>
   </g>
   <g id="line2d_67">
    <path clip-path="url(#p1fba975ded)" d="M 297.621798 113.421106 
L 308.951854 110.968906 
L 320.28191 108.516706 
L 331.611966 106.064506 
L 342.942022 103.612307 
" style="fill:none;stroke:#7f7f7f;stroke-dasharray:7.4,3.2;stroke-dashoffset:0;stroke-width:2;"/>
   </g>
   <g id="line2d_68">
    <path clip-path="url(#p1fba975ded)" d="M 297.621798 47.861415 
L 308.951854 45.334555 
L 320.28191 42.807696 
L 331.611966 40.280837 
L 342.942022 37.753978 
" style="fill:none;stroke:#7f7f7f;stroke-dasharray:7.4,3.2;stroke-dashoffset:0;stroke-width:2;"/>
   </g>
   <g id="line2d_69">
    <path clip-path="url(#p1fba975ded)" d="M 297.621798 124.85159 
L 308.951854 121.887534 
L 320.28191 118.923479 
L 331.611966 115.959423 
L 342.942022 112.995368 
" style="fill:none;stroke:#7f7f7f;stroke-dasharray:7.4,3.2;stroke-dashoffset:0;stroke-width:2;"/>
   </g>
   <g id="line2d_70">
    <path clip-path="url(#p1fba975ded)" d="M 48.360569 238.312329 
L 59.690625 231.462774 
L 71.020681 224.613218 
L 82.350737 217.763663 
L 93.680793 210.914107 
L 105.010848 204.064551 
L 116.340904 197.214996 
L 127.67096 190.36544 
L 139.001016 183.515885 
L 150.331072 176.666329 
L 161.661128 169.816773 
L 172.991184 162.967218 
L 184.32124 156.117662 
L 195.651295 149.268107 
L 206.981351 142.418551 
L 218.311407 135.568995 
L 229.641463 128.71944 
L 240.971519 121.869884 
L 252.301575 115.020328 
L 263.631631 108.170773 
L 274.961687 101.321217 
L 286.291742 94.471662 
L 297.621798 87.622106 
L 308.951854 80.77255 
L 320.28191 73.922995 
L 331.611966 67.073439 
L 342.942022 60.223884 
" style="fill:none;stroke:#2ca02c;stroke-dasharray:5.55,2.4;stroke-dashoffset:0;stroke-width:1.5;"/>
   </g>
   <g id="patch_3">
    <path d="M 59.690625 224.64 
L 59.690625 7.2 
" style="fill:none;stroke:#000000;stroke-linecap:square;stroke-linejoin:miter;stroke-width:0.8;"/>
   </g>
   <g id="patch_4">
    <path d="M 394.490625 224.64 
L 394.490625 7.2 
" style="fill:none;stroke:#000000;stroke-linecap:square;stroke-linejoin:miter;stroke-width:0.8;"/>
   </g>
   <g id="patch_5">
    <path d="M 59.690625 224.64 
L 394.490625 224.64 
" style="fill:none;stroke:#000000;stroke-linecap:square;stroke-linejoin:miter;stroke-width:0.8;"/>
   </g>
   <g id="patch_6">
    <path d="M 59.690625 7.2 
L 394.490625 7.2 
" style="fill:none;stroke:#000000;stroke-linecap:square;stroke-linejoin:miter;stroke-width:0.8;"/>
   </g>
   <g id="text_22">
    <!-- © Scott Sievert -->
    <defs>
     <path d="M 50 72.515625 
Q 57.421875 72.515625 63.84375 69.828125 
Q 70.265625 67.140625 75.59375 61.8125 
Q 80.90625 56.5 83.546875 50.09375 
Q 86.1875 43.703125 86.1875 36.1875 
Q 86.1875 28.765625 83.546875 22.390625 
Q 80.90625 16.015625 75.59375 10.6875 
Q 70.265625 5.375 63.84375 2.6875 
Q 57.421875 0 50 0 
Q 42.578125 0 36.15625 2.6875 
Q 29.734375 5.375 24.421875 10.6875 
Q 19.09375 16.015625 16.453125 22.390625 
Q 13.8125 28.765625 13.8125 36.1875 
Q 13.8125 43.703125 16.453125 50.09375 
Q 19.09375 56.5 24.421875 61.8125 
Q 29.734375 67.140625 36.15625 69.828125 
Q 42.578125 72.515625 50 72.515625 
z
M 50 67.484375 
Q 43.609375 67.484375 38.078125 65.1875 
Q 32.5625 62.890625 27.984375 58.296875 
Q 23.390625 53.71875 21.046875 48.125 
Q 18.703125 42.53125 18.703125 36.1875 
Q 18.703125 29.890625 21.046875 24.34375 
Q 23.390625 18.796875 27.984375 14.203125 
Q 32.5625 9.625 38.078125 7.296875 
Q 43.609375 4.984375 50 4.984375 
Q 56.453125 4.984375 61.984375 7.296875 
Q 67.53125 9.625 72.125 14.203125 
Q 76.65625 18.75 78.921875 24.265625 
Q 81.203125 29.78125 81.203125 36.1875 
Q 81.203125 42.671875 78.90625 48.21875 
Q 76.609375 53.765625 72.125 58.296875 
Q 67.53125 62.890625 61.984375 65.1875 
Q 56.453125 67.484375 50 67.484375 
z
M 64.59375 55.515625 
L 64.59375 49.21875 
Q 61.375 50.828125 58.203125 51.609375 
Q 55.03125 52.390625 51.8125 52.390625 
Q 44.53125 52.390625 40.453125 48.109375 
Q 36.375 43.84375 36.375 36.1875 
Q 36.375 28.421875 40.546875 24.171875 
Q 44.734375 19.921875 52.296875 19.921875 
Q 55.421875 19.921875 58.390625 20.671875 
Q 61.375 21.4375 64.59375 23.09375 
L 64.59375 16.890625 
Q 61.328125 15.484375 57.984375 14.796875 
Q 54.640625 14.109375 51.21875 14.109375 
Q 40.671875 14.109375 34.546875 20.0625 
Q 28.421875 26.03125 28.421875 36.1875 
Q 28.421875 46.390625 34.546875 52.296875 
Q 40.671875 58.203125 51.21875 58.203125 
Q 54.78125 58.203125 58.09375 57.515625 
Q 61.421875 56.84375 64.59375 55.515625 
z
" id="DejaVuSans-169"/>
     <path d="M 53.515625 70.515625 
L 53.515625 60.890625 
Q 47.90625 63.578125 42.921875 64.890625 
Q 37.9375 66.21875 33.296875 66.21875 
Q 25.25 66.21875 20.875 63.09375 
Q 16.5 59.96875 16.5 54.203125 
Q 16.5 49.359375 19.40625 46.890625 
Q 22.3125 44.4375 30.421875 42.921875 
L 36.375 41.703125 
Q 47.40625 39.59375 52.65625 34.296875 
Q 57.90625 29 57.90625 20.125 
Q 57.90625 9.515625 50.796875 4.046875 
Q 43.703125 -1.421875 29.984375 -1.421875 
Q 24.8125 -1.421875 18.96875 -0.25 
Q 13.140625 0.921875 6.890625 3.21875 
L 6.890625 13.375 
Q 12.890625 10.015625 18.65625 8.296875 
Q 24.421875 6.59375 29.984375 6.59375 
Q 38.421875 6.59375 43.015625 9.90625 
Q 47.609375 13.234375 47.609375 19.390625 
Q 47.609375 24.75 44.3125 27.78125 
Q 41.015625 30.8125 33.5 32.328125 
L 27.484375 33.5 
Q 16.453125 35.6875 11.515625 40.375 
Q 6.59375 45.0625 6.59375 53.421875 
Q 6.59375 63.09375 13.40625 68.65625 
Q 20.21875 74.21875 32.171875 74.21875 
Q 37.3125 74.21875 42.625 73.28125 
Q 47.953125 72.359375 53.515625 70.515625 
z
" id="DejaVuSans-83"/>
     <path d="M 2.984375 54.6875 
L 12.5 54.6875 
L 29.59375 8.796875 
L 46.6875 54.6875 
L 56.203125 54.6875 
L 35.6875 0 
L 23.484375 0 
z
" id="DejaVuSans-118"/>
    </defs>
    <g style="opacity:0.3;" transform="translate(315.180234 262.810021)scale(0.1 -0.1)">
     <use xlink:href="#DejaVuSans-169"/>
     <use x="100" xlink:href="#DejaVuSans-32"/>
     <use x="131.787109" xlink:href="#DejaVuSans-83"/>
     <use x="195.263672" xlink:href="#DejaVuSans-99"/>
     <use x="250.244141" xlink:href="#DejaVuSans-111"/>
     <use x="311.425781" xlink:href="#DejaVuSans-116"/>
     <use x="350.634766" xlink:href="#DejaVuSans-116"/>
     <use x="389.84375" xlink:href="#DejaVuSans-32"/>
     <use x="421.630859" xlink:href="#DejaVuSans-83"/>
     <use x="485.107422" xlink:href="#DejaVuSans-105"/>
     <use x="512.890625" xlink:href="#DejaVuSans-101"/>
     <use x="574.414062" xlink:href="#DejaVuSans-118"/>
     <use x="633.59375" xlink:href="#DejaVuSans-101"/>
     <use x="695.117188" xlink:href="#DejaVuSans-114"/>
     <use x="736.230469" xlink:href="#DejaVuSans-116"/>
    </g>
   </g>
   <g id="legend_1">
    <g id="patch_7">
     <path d="M 66.690625 117.946875 
L 184.957813 117.946875 
Q 186.957813 117.946875 186.957813 115.946875 
L 186.957813 14.2 
Q 186.957813 12.2 184.957813 12.2 
L 66.690625 12.2 
Q 64.690625 12.2 64.690625 14.2 
L 64.690625 115.946875 
Q 64.690625 117.946875 66.690625 117.946875 
z
" style="fill:#ffffff;opacity:0.8;stroke:#cccccc;stroke-linejoin:miter;"/>
    </g>
    <g id="text_23">
     <!-- State (cases in 7 days) -->
     <defs>
      <path d="M 31 75.875 
Q 24.46875 64.65625 21.28125 53.65625 
Q 18.109375 42.671875 18.109375 31.390625 
Q 18.109375 20.125 21.3125 9.0625 
Q 24.515625 -2 31 -13.1875 
L 23.1875 -13.1875 
Q 15.875 -1.703125 12.234375 9.375 
Q 8.59375 20.453125 8.59375 31.390625 
Q 8.59375 42.28125 12.203125 53.3125 
Q 15.828125 64.359375 23.1875 75.875 
z
" id="DejaVuSans-40"/>
      <path d="M 45.40625 46.390625 
L 45.40625 75.984375 
L 54.390625 75.984375 
L 54.390625 0 
L 45.40625 0 
L 45.40625 8.203125 
Q 42.578125 3.328125 38.25 0.953125 
Q 33.9375 -1.421875 27.875 -1.421875 
Q 17.96875 -1.421875 11.734375 6.484375 
Q 5.515625 14.40625 5.515625 27.296875 
Q 5.515625 40.1875 11.734375 48.09375 
Q 17.96875 56 27.875 56 
Q 33.9375 56 38.25 53.625 
Q 42.578125 51.265625 45.40625 46.390625 
z
M 14.796875 27.296875 
Q 14.796875 17.390625 18.875 11.75 
Q 22.953125 6.109375 30.078125 6.109375 
Q 37.203125 6.109375 41.296875 11.75 
Q 45.40625 17.390625 45.40625 27.296875 
Q 45.40625 37.203125 41.296875 42.84375 
Q 37.203125 48.484375 30.078125 48.484375 
Q 22.953125 48.484375 18.875 42.84375 
Q 14.796875 37.203125 14.796875 27.296875 
z
" id="DejaVuSans-100"/>
      <path d="M 32.171875 -5.078125 
Q 28.375 -14.84375 24.75 -17.8125 
Q 21.140625 -20.796875 15.09375 -20.796875 
L 7.90625 -20.796875 
L 7.90625 -13.28125 
L 13.1875 -13.28125 
Q 16.890625 -13.28125 18.9375 -11.515625 
Q 21 -9.765625 23.484375 -3.21875 
L 25.09375 0.875 
L 2.984375 54.6875 
L 12.5 54.6875 
L 29.59375 11.921875 
L 46.6875 54.6875 
L 56.203125 54.6875 
z
" id="DejaVuSans-121"/>
      <path d="M 8.015625 75.875 
L 15.828125 75.875 
Q 23.140625 64.359375 26.78125 53.3125 
Q 30.421875 42.28125 30.421875 31.390625 
Q 30.421875 20.453125 26.78125 9.375 
Q 23.140625 -1.703125 15.828125 -13.1875 
L 8.015625 -13.1875 
Q 14.5 -2 17.703125 9.0625 
Q 20.90625 20.125 20.90625 31.390625 
Q 20.90625 42.671875 17.703125 53.65625 
Q 14.5 64.65625 8.015625 75.875 
z
" id="DejaVuSans-41"/>
     </defs>
     <g transform="translate(68.690625 23.798437)scale(0.1 -0.1)">
      <use xlink:href="#DejaVuSans-83"/>
      <use x="63.476562" xlink:href="#DejaVuSans-116"/>
      <use x="102.685547" xlink:href="#DejaVuSans-97"/>
      <use x="163.964844" xlink:href="#DejaVuSans-116"/>
      <use x="203.173828" xlink:href="#DejaVuSans-101"/>
      <use x="264.697266" xlink:href="#DejaVuSans-32"/>
      <use x="296.484375" xlink:href="#DejaVuSans-40"/>
      <use x="335.498047" xlink:href="#DejaVuSans-99"/>
      <use x="390.478516" xlink:href="#DejaVuSans-97"/>
      <use x="451.757812" xlink:href="#DejaVuSans-115"/>
      <use x="503.857422" xlink:href="#DejaVuSans-101"/>
      <use x="565.380859" xlink:href="#DejaVuSans-115"/>
      <use x="617.480469" xlink:href="#DejaVuSans-32"/>
      <use x="649.267578" xlink:href="#DejaVuSans-105"/>
      <use x="677.050781" xlink:href="#DejaVuSans-110"/>
      <use x="740.429688" xlink:href="#DejaVuSans-32"/>
      <use x="772.216797" xlink:href="#DejaVuSans-55"/>
      <use x="835.839844" xlink:href="#DejaVuSans-32"/>
      <use x="867.626953" xlink:href="#DejaVuSans-100"/>
      <use x="931.103516" xlink:href="#DejaVuSans-97"/>
      <use x="992.382812" xlink:href="#DejaVuSans-121"/>
      <use x="1051.5625" xlink:href="#DejaVuSans-115"/>
      <use x="1103.662109" xlink:href="#DejaVuSans-41"/>
     </g>
    </g>
    <g id="line2d_71">
     <path d="M 85.824219 34.976562 
L 105.824219 34.976562 
" style="fill:none;stroke:#1f77b4;stroke-linecap:square;stroke-width:1.5;"/>
    </g>
    <g id="line2d_72">
     <defs>
      <path d="M 0 3 
C 0.795609 3 1.55874 2.683901 2.12132 2.12132 
C 2.683901 1.55874 3 0.795609 3 0 
C 3 -0.795609 2.683901 -1.55874 2.12132 -2.12132 
C 1.55874 -2.683901 0.795609 -3 0 -3 
C -0.795609 -3 -1.55874 -2.683901 -2.12132 -2.12132 
C -2.683901 -1.55874 -3 -0.795609 -3 0 
C -3 0.795609 -2.683901 1.55874 -2.12132 2.12132 
C -1.55874 2.683901 -0.795609 3 0 3 
z
" id="m545587de7e" style="stroke:#1f77b4;"/>
     </defs>
     <g>
      <use style="fill:#1f77b4;stroke:#1f77b4;" x="95.824219" xlink:href="#m545587de7e" y="34.976562"/>
     </g>
    </g>
    <g id="text_24">
     <!-- WA (1.7$\times$) -->
     <defs>
      <path d="M 3.328125 72.90625 
L 13.28125 72.90625 
L 28.609375 11.28125 
L 43.890625 72.90625 
L 54.984375 72.90625 
L 70.3125 11.28125 
L 85.59375 72.90625 
L 95.609375 72.90625 
L 77.296875 0 
L 64.890625 0 
L 49.515625 63.28125 
L 33.984375 0 
L 21.578125 0 
z
" id="DejaVuSans-87"/>
      <path d="M 70.125 53.71875 
L 47.796875 31.296875 
L 70.125 8.984375 
L 64.3125 3.078125 
L 41.890625 25.484375 
L 19.484375 3.078125 
L 13.71875 8.984375 
L 35.984375 31.296875 
L 13.71875 53.71875 
L 19.484375 59.625 
L 41.890625 37.203125 
L 64.3125 59.625 
z
" id="DejaVuSans-215"/>
     </defs>
     <g transform="translate(113.824219 38.476562)scale(0.1 -0.1)">
      <use transform="translate(0 0.125)" xlink:href="#DejaVuSans-87"/>
      <use transform="translate(98.876953 0.125)" xlink:href="#DejaVuSans-65"/>
      <use transform="translate(167.285156 0.125)" xlink:href="#DejaVuSans-32"/>
      <use transform="translate(199.072266 0.125)" xlink:href="#DejaVuSans-40"/>
      <use transform="translate(238.085938 0.125)" xlink:href="#DejaVuSans-49"/>
      <use transform="translate(301.708984 0.125)" xlink:href="#DejaVuSans-46"/>
      <use transform="translate(333.386719 0.125)" xlink:href="#DejaVuSans-55"/>
      <use transform="translate(397.009766 0.125)" xlink:href="#DejaVuSans-215"/>
      <use transform="translate(480.798828 0.125)" xlink:href="#DejaVuSans-41"/>
     </g>
    </g>
    <g id="line2d_73">
     <path d="M 85.824219 49.654687 
L 105.824219 49.654687 
" style="fill:none;stroke:#ff7f0e;stroke-linecap:square;stroke-width:1.5;"/>
    </g>
    <g id="line2d_74">
     <defs>
      <path d="M 0 3 
C 0.795609 3 1.55874 2.683901 2.12132 2.12132 
C 2.683901 1.55874 3 0.795609 3 0 
C 3 -0.795609 2.683901 -1.55874 2.12132 -2.12132 
C 1.55874 -2.683901 0.795609 -3 0 -3 
C -0.795609 -3 -1.55874 -2.683901 -2.12132 -2.12132 
C -2.683901 -1.55874 -3 -0.795609 -3 0 
C -3 0.795609 -2.683901 1.55874 -2.12132 2.12132 
C -1.55874 2.683901 -0.795609 3 0 3 
z
" id="m74003eb442" style="stroke:#ff7f0e;"/>
     </defs>
     <g>
      <use style="fill:#ff7f0e;stroke:#ff7f0e;" x="95.824219" xlink:href="#m74003eb442" y="49.654687"/>
     </g>
    </g>
    <g id="text_25">
     <!-- MN (1.7$\times$) -->
     <defs>
      <path d="M 9.8125 72.90625 
L 23.09375 72.90625 
L 55.421875 11.921875 
L 55.421875 72.90625 
L 64.984375 72.90625 
L 64.984375 0 
L 51.703125 0 
L 19.390625 60.984375 
L 19.390625 0 
L 9.8125 0 
z
" id="DejaVuSans-78"/>
     </defs>
     <g transform="translate(113.824219 53.154687)scale(0.1 -0.1)">
      <use transform="translate(0 0.125)" xlink:href="#DejaVuSans-77"/>
      <use transform="translate(86.279297 0.125)" xlink:href="#DejaVuSans-78"/>
      <use transform="translate(161.083984 0.125)" xlink:href="#DejaVuSans-32"/>
      <use transform="translate(192.871094 0.125)" xlink:href="#DejaVuSans-40"/>
      <use transform="translate(231.884766 0.125)" xlink:href="#DejaVuSans-49"/>
      <use transform="translate(295.507812 0.125)" xlink:href="#DejaVuSans-46"/>
      <use transform="translate(327.185547 0.125)" xlink:href="#DejaVuSans-55"/>
      <use transform="translate(390.808594 0.125)" xlink:href="#DejaVuSans-215"/>
      <use transform="translate(474.597656 0.125)" xlink:href="#DejaVuSans-41"/>
     </g>
    </g>
    <g id="line2d_75">
     <path d="M 85.824219 64.332812 
L 105.824219 64.332812 
" style="fill:none;stroke:#2ca02c;stroke-linecap:square;stroke-width:1.5;"/>
    </g>
    <g id="line2d_76">
     <defs>
      <path d="M 0 3 
C 0.795609 3 1.55874 2.683901 2.12132 2.12132 
C 2.683901 1.55874 3 0.795609 3 0 
C 3 -0.795609 2.683901 -1.55874 2.12132 -2.12132 
C 1.55874 -2.683901 0.795609 -3 0 -3 
C -0.795609 -3 -1.55874 -2.683901 -2.12132 -2.12132 
C -2.683901 -1.55874 -3 -0.795609 -3 0 
C -3 0.795609 -2.683901 1.55874 -2.12132 2.12132 
C -1.55874 2.683901 -0.795609 3 0 3 
z
" id="m3e1496abd4" style="stroke:#2ca02c;"/>
     </defs>
     <g>
      <use style="fill:#2ca02c;stroke:#2ca02c;" x="95.824219" xlink:href="#m3e1496abd4" y="64.332812"/>
     </g>
    </g>
    <g id="text_26">
     <!-- WI (2.1$\times$) -->
     <defs>
      <path d="M 9.8125 72.90625 
L 19.671875 72.90625 
L 19.671875 0 
L 9.8125 0 
z
" id="DejaVuSans-73"/>
     </defs>
     <g transform="translate(113.824219 67.832812)scale(0.1 -0.1)">
      <use transform="translate(0 0.125)" xlink:href="#DejaVuSans-87"/>
      <use transform="translate(98.876953 0.125)" xlink:href="#DejaVuSans-73"/>
      <use transform="translate(128.369141 0.125)" xlink:href="#DejaVuSans-32"/>
      <use transform="translate(160.15625 0.125)" xlink:href="#DejaVuSans-40"/>
      <use transform="translate(199.169922 0.125)" xlink:href="#DejaVuSans-50"/>
      <use transform="translate(262.792969 0.125)" xlink:href="#DejaVuSans-46"/>
      <use transform="translate(294.580078 0.125)" xlink:href="#DejaVuSans-49"/>
      <use transform="translate(358.203125 0.125)" xlink:href="#DejaVuSans-215"/>
      <use transform="translate(441.992188 0.125)" xlink:href="#DejaVuSans-41"/>
     </g>
    </g>
    <g id="line2d_77">
     <path d="M 85.824219 79.010938 
L 105.824219 79.010938 
" style="fill:none;stroke:#d62728;stroke-linecap:square;stroke-width:1.5;"/>
    </g>
    <g id="line2d_78">
     <defs>
      <path d="M 0 3 
C 0.795609 3 1.55874 2.683901 2.12132 2.12132 
C 2.683901 1.55874 3 0.795609 3 0 
C 3 -0.795609 2.683901 -1.55874 2.12132 -2.12132 
C 1.55874 -2.683901 0.795609 -3 0 -3 
C -0.795609 -3 -1.55874 -2.683901 -2.12132 -2.12132 
C -2.683901 -1.55874 -3 -0.795609 -3 0 
C -3 0.795609 -2.683901 1.55874 -2.12132 2.12132 
C -1.55874 2.683901 -0.795609 3 0 3 
z
" id="m777476106d" style="stroke:#d62728;"/>
     </defs>
     <g>
      <use style="fill:#d62728;stroke:#d62728;" x="95.824219" xlink:href="#m777476106d" y="79.010938"/>
     </g>
    </g>
    <g id="text_27">
     <!-- NY (2.1$\times$) -->
     <defs>
      <path d="M -0.203125 72.90625 
L 10.40625 72.90625 
L 30.609375 42.921875 
L 50.6875 72.90625 
L 61.28125 72.90625 
L 35.5 34.71875 
L 35.5 0 
L 25.59375 0 
L 25.59375 34.71875 
z
" id="DejaVuSans-89"/>
     </defs>
     <g transform="translate(113.824219 82.510938)scale(0.1 -0.1)">
      <use transform="translate(0 0.125)" xlink:href="#DejaVuSans-78"/>
      <use transform="translate(74.804688 0.125)" xlink:href="#DejaVuSans-89"/>
      <use transform="translate(135.888672 0.125)" xlink:href="#DejaVuSans-32"/>
      <use transform="translate(167.675781 0.125)" xlink:href="#DejaVuSans-40"/>
      <use transform="translate(206.689453 0.125)" xlink:href="#DejaVuSans-50"/>
      <use transform="translate(270.3125 0.125)" xlink:href="#DejaVuSans-46"/>
      <use transform="translate(302.099609 0.125)" xlink:href="#DejaVuSans-49"/>
      <use transform="translate(365.722656 0.125)" xlink:href="#DejaVuSans-215"/>
      <use transform="translate(449.511719 0.125)" xlink:href="#DejaVuSans-41"/>
     </g>
    </g>
    <g id="line2d_79">
     <path d="M 85.824219 93.689063 
L 105.824219 93.689063 
" style="fill:none;stroke:#9467bd;stroke-linecap:square;stroke-width:1.5;"/>
    </g>
    <g id="line2d_80">
     <defs>
      <path d="M 0 3 
C 0.795609 3 1.55874 2.683901 2.12132 2.12132 
C 2.683901 1.55874 3 0.795609 3 0 
C 3 -0.795609 2.683901 -1.55874 2.12132 -2.12132 
C 1.55874 -2.683901 0.795609 -3 0 -3 
C -0.795609 -3 -1.55874 -2.683901 -2.12132 -2.12132 
C -2.683901 -1.55874 -3 -0.795609 -3 0 
C -3 0.795609 -2.683901 1.55874 -2.12132 2.12132 
C -1.55874 2.683901 -0.795609 3 0 3 
z
" id="mc183b9648d" style="stroke:#9467bd;"/>
     </defs>
     <g>
      <use style="fill:#9467bd;stroke:#9467bd;" x="95.824219" xlink:href="#mc183b9648d" y="93.689063"/>
     </g>
    </g>
    <g id="text_28">
     <!-- IA (2.4$\times$) -->
     <defs>
      <path d="M 37.796875 64.3125 
L 12.890625 25.390625 
L 37.796875 25.390625 
z
M 35.203125 72.90625 
L 47.609375 72.90625 
L 47.609375 25.390625 
L 58.015625 25.390625 
L 58.015625 17.1875 
L 47.609375 17.1875 
L 47.609375 0 
L 37.796875 0 
L 37.796875 17.1875 
L 4.890625 17.1875 
L 4.890625 26.703125 
z
" id="DejaVuSans-52"/>
     </defs>
     <g transform="translate(113.824219 97.189063)scale(0.1 -0.1)">
      <use transform="translate(0 0.125)" xlink:href="#DejaVuSans-73"/>
      <use transform="translate(29.492188 0.125)" xlink:href="#DejaVuSans-65"/>
      <use transform="translate(97.900391 0.125)" xlink:href="#DejaVuSans-32"/>
      <use transform="translate(129.6875 0.125)" xlink:href="#DejaVuSans-40"/>
      <use transform="translate(168.701172 0.125)" xlink:href="#DejaVuSans-50"/>
      <use transform="translate(232.324219 0.125)" xlink:href="#DejaVuSans-46"/>
      <use transform="translate(264.111328 0.125)" xlink:href="#DejaVuSans-52"/>
      <use transform="translate(327.734375 0.125)" xlink:href="#DejaVuSans-215"/>
      <use transform="translate(411.523438 0.125)" xlink:href="#DejaVuSans-41"/>
     </g>
    </g>
    <g id="line2d_81">
     <path d="M 85.824219 108.367188 
L 105.824219 108.367188 
" style="fill:none;stroke:#2ca02c;stroke-dasharray:5.55,2.4;stroke-dashoffset:0;stroke-width:1.5;"/>
    </g>
    <g id="line2d_82"/>
    <g id="text_29">
     <!-- (7.6×) -->
     <defs>
      <path d="M 33.015625 40.375 
Q 26.375 40.375 22.484375 35.828125 
Q 18.609375 31.296875 18.609375 23.390625 
Q 18.609375 15.53125 22.484375 10.953125 
Q 26.375 6.390625 33.015625 6.390625 
Q 39.65625 6.390625 43.53125 10.953125 
Q 47.40625 15.53125 47.40625 23.390625 
Q 47.40625 31.296875 43.53125 35.828125 
Q 39.65625 40.375 33.015625 40.375 
z
M 52.59375 71.296875 
L 52.59375 62.3125 
Q 48.875 64.0625 45.09375 64.984375 
Q 41.3125 65.921875 37.59375 65.921875 
Q 27.828125 65.921875 22.671875 59.328125 
Q 17.53125 52.734375 16.796875 39.40625 
Q 19.671875 43.65625 24.015625 45.921875 
Q 28.375 48.1875 33.59375 48.1875 
Q 44.578125 48.1875 50.953125 41.515625 
Q 57.328125 34.859375 57.328125 23.390625 
Q 57.328125 12.15625 50.6875 5.359375 
Q 44.046875 -1.421875 33.015625 -1.421875 
Q 20.359375 -1.421875 13.671875 8.265625 
Q 6.984375 17.96875 6.984375 36.375 
Q 6.984375 53.65625 15.1875 63.9375 
Q 23.390625 74.21875 37.203125 74.21875 
Q 40.921875 74.21875 44.703125 73.484375 
Q 48.484375 72.75 52.59375 71.296875 
z
" id="DejaVuSans-54"/>
     </defs>
     <g transform="translate(113.824219 111.867188)scale(0.1 -0.1)">
      <use xlink:href="#DejaVuSans-40"/>
      <use x="39.013672" xlink:href="#DejaVuSans-55"/>
      <use x="102.636719" xlink:href="#DejaVuSans-46"/>
      <use x="134.423828" xlink:href="#DejaVuSans-54"/>
      <use x="198.046875" xlink:href="#DejaVuSans-215"/>
      <use x="281.835938" xlink:href="#DejaVuSans-41"/>
     </g>
    </g>
   </g>
   <g id="line2d_83">
    <path clip-path="url(#p1fba975ded)" d="M -1 201.165263 
L 3.040346 197.914156 
L 14.370402 186.830536 
L 25.700457 183.584734 
L 37.030513 177.747351 
L 48.360569 171.859063 
L 59.690625 166.199723 
L 71.020681 155.673783 
L 82.350737 151.124174 
L 93.680793 146.029305 
L 105.010848 141.321638 
L 116.340904 137.160632 
L 127.67096 134.72035 
L 139.001016 130.869505 
L 150.331072 127.687696 
L 161.661128 124.790062 
L 172.991184 120.527778 
L 184.32124 117.351244 
L 195.651295 113.450478 
L 206.981351 110.885882 
L 218.311407 107.791458 
L 229.641463 103.963641 
L 240.971519 102.874768 
L 252.301575 97.753878 
L 263.631631 93.925409 
L 274.961687 90.745165 
L 286.291742 87.727289 
L 297.621798 86.394585 
L 308.951854 85.882685 
L 320.28191 84.591917 
L 331.611966 80.698332 
L 342.942022 79.364361 
" style="fill:none;stroke:#1f77b4;stroke-linecap:square;stroke-width:1.5;"/>
    <g clip-path="url(#p1fba975ded)">
     <use style="fill:#1f77b4;stroke:#1f77b4;" x="-1" xlink:href="#m545587de7e" y="201.165263"/>
     <use style="fill:#1f77b4;stroke:#1f77b4;" x="3.040346" xlink:href="#m545587de7e" y="197.914156"/>
     <use style="fill:#1f77b4;stroke:#1f77b4;" x="14.370402" xlink:href="#m545587de7e" y="186.830536"/>
     <use style="fill:#1f77b4;stroke:#1f77b4;" x="25.700457" xlink:href="#m545587de7e" y="183.584734"/>
     <use style="fill:#1f77b4;stroke:#1f77b4;" x="37.030513" xlink:href="#m545587de7e" y="177.747351"/>
     <use style="fill:#1f77b4;stroke:#1f77b4;" x="48.360569" xlink:href="#m545587de7e" y="171.859063"/>
     <use style="fill:#1f77b4;stroke:#1f77b4;" x="59.690625" xlink:href="#m545587de7e" y="166.199723"/>
     <use style="fill:#1f77b4;stroke:#1f77b4;" x="71.020681" xlink:href="#m545587de7e" y="155.673783"/>
     <use style="fill:#1f77b4;stroke:#1f77b4;" x="82.350737" xlink:href="#m545587de7e" y="151.124174"/>
     <use style="fill:#1f77b4;stroke:#1f77b4;" x="93.680793" xlink:href="#m545587de7e" y="146.029305"/>
     <use style="fill:#1f77b4;stroke:#1f77b4;" x="105.010848" xlink:href="#m545587de7e" y="141.321638"/>
     <use style="fill:#1f77b4;stroke:#1f77b4;" x="116.340904" xlink:href="#m545587de7e" y="137.160632"/>
     <use style="fill:#1f77b4;stroke:#1f77b4;" x="127.67096" xlink:href="#m545587de7e" y="134.72035"/>
     <use style="fill:#1f77b4;stroke:#1f77b4;" x="139.001016" xlink:href="#m545587de7e" y="130.869505"/>
     <use style="fill:#1f77b4;stroke:#1f77b4;" x="150.331072" xlink:href="#m545587de7e" y="127.687696"/>
     <use style="fill:#1f77b4;stroke:#1f77b4;" x="161.661128" xlink:href="#m545587de7e" y="124.790062"/>
     <use style="fill:#1f77b4;stroke:#1f77b4;" x="172.991184" xlink:href="#m545587de7e" y="120.527778"/>
     <use style="fill:#1f77b4;stroke:#1f77b4;" x="184.32124" xlink:href="#m545587de7e" y="117.351244"/>
     <use style="fill:#1f77b4;stroke:#1f77b4;" x="195.651295" xlink:href="#m545587de7e" y="113.450478"/>
     <use style="fill:#1f77b4;stroke:#1f77b4;" x="206.981351" xlink:href="#m545587de7e" y="110.885882"/>
     <use style="fill:#1f77b4;stroke:#1f77b4;" x="218.311407" xlink:href="#m545587de7e" y="107.791458"/>
     <use style="fill:#1f77b4;stroke:#1f77b4;" x="229.641463" xlink:href="#m545587de7e" y="103.963641"/>
     <use style="fill:#1f77b4;stroke:#1f77b4;" x="240.971519" xlink:href="#m545587de7e" y="102.874768"/>
     <use style="fill:#1f77b4;stroke:#1f77b4;" x="252.301575" xlink:href="#m545587de7e" y="97.753878"/>
     <use style="fill:#1f77b4;stroke:#1f77b4;" x="263.631631" xlink:href="#m545587de7e" y="93.925409"/>
     <use style="fill:#1f77b4;stroke:#1f77b4;" x="274.961687" xlink:href="#m545587de7e" y="90.745165"/>
     <use style="fill:#1f77b4;stroke:#1f77b4;" x="286.291742" xlink:href="#m545587de7e" y="87.727289"/>
     <use style="fill:#1f77b4;stroke:#1f77b4;" x="297.621798" xlink:href="#m545587de7e" y="86.394585"/>
     <use style="fill:#1f77b4;stroke:#1f77b4;" x="308.951854" xlink:href="#m545587de7e" y="85.882685"/>
     <use style="fill:#1f77b4;stroke:#1f77b4;" x="320.28191" xlink:href="#m545587de7e" y="84.591917"/>
     <use style="fill:#1f77b4;stroke:#1f77b4;" x="331.611966" xlink:href="#m545587de7e" y="80.698332"/>
     <use style="fill:#1f77b4;stroke:#1f77b4;" x="342.942022" xlink:href="#m545587de7e" y="79.364361"/>
    </g>
   </g>
   <g id="line2d_84">
    <path clip-path="url(#p1fba975ded)" d="M 43.243318 273.089709 
L 48.360569 265.665019 
L 59.690625 265.665019 
L 71.020681 256.04886 
L 82.350737 243.933931 
L 93.680793 229.993767 
L 105.010848 219.515098 
L 116.340904 209.898939 
L 127.67096 197.78401 
L 139.001016 187.49974 
L 150.331072 185.000971 
L 161.661128 179.084666 
L 172.991184 175.649802 
L 184.32124 169.571397 
L 195.651295 165.247392 
L 206.981351 160.162369 
L 218.311407 152.622415 
L 229.641463 150.043046 
L 240.971519 147.881591 
L 252.301575 143.44766 
L 263.631631 140.127055 
L 274.961687 137.693925 
L 286.291742 134.527045 
L 297.621798 131.360166 
L 308.951854 129.272566 
L 320.28191 127.111767 
L 331.611966 125.354195 
L 342.942022 123.897605 
" style="fill:none;stroke:#ff7f0e;stroke-linecap:square;stroke-width:1.5;"/>
    <g clip-path="url(#p1fba975ded)">
     <use style="fill:#ff7f0e;stroke:#ff7f0e;" x="25.700457" xlink:href="#m74003eb442" y="282.103953"/>
     <use style="fill:#ff7f0e;stroke:#ff7f0e;" x="37.030513" xlink:href="#m74003eb442" y="282.103953"/>
     <use style="fill:#ff7f0e;stroke:#ff7f0e;" x="48.360569" xlink:href="#m74003eb442" y="265.665019"/>
     <use style="fill:#ff7f0e;stroke:#ff7f0e;" x="59.690625" xlink:href="#m74003eb442" y="265.665019"/>
     <use style="fill:#ff7f0e;stroke:#ff7f0e;" x="71.020681" xlink:href="#m74003eb442" y="256.04886"/>
     <use style="fill:#ff7f0e;stroke:#ff7f0e;" x="82.350737" xlink:href="#m74003eb442" y="243.933931"/>
     <use style="fill:#ff7f0e;stroke:#ff7f0e;" x="93.680793" xlink:href="#m74003eb442" y="229.993767"/>
     <use style="fill:#ff7f0e;stroke:#ff7f0e;" x="105.010848" xlink:href="#m74003eb442" y="219.515098"/>
     <use style="fill:#ff7f0e;stroke:#ff7f0e;" x="116.340904" xlink:href="#m74003eb442" y="209.898939"/>
     <use style="fill:#ff7f0e;stroke:#ff7f0e;" x="127.67096" xlink:href="#m74003eb442" y="197.78401"/>
     <use style="fill:#ff7f0e;stroke:#ff7f0e;" x="139.001016" xlink:href="#m74003eb442" y="187.49974"/>
     <use style="fill:#ff7f0e;stroke:#ff7f0e;" x="150.331072" xlink:href="#m74003eb442" y="185.000971"/>
     <use style="fill:#ff7f0e;stroke:#ff7f0e;" x="161.661128" xlink:href="#m74003eb442" y="179.084666"/>
     <use style="fill:#ff7f0e;stroke:#ff7f0e;" x="172.991184" xlink:href="#m74003eb442" y="175.649802"/>
     <use style="fill:#ff7f0e;stroke:#ff7f0e;" x="184.32124" xlink:href="#m74003eb442" y="169.571397"/>
     <use style="fill:#ff7f0e;stroke:#ff7f0e;" x="195.651295" xlink:href="#m74003eb442" y="165.247392"/>
     <use style="fill:#ff7f0e;stroke:#ff7f0e;" x="206.981351" xlink:href="#m74003eb442" y="160.162369"/>
     <use style="fill:#ff7f0e;stroke:#ff7f0e;" x="218.311407" xlink:href="#m74003eb442" y="152.622415"/>
     <use style="fill:#ff7f0e;stroke:#ff7f0e;" x="229.641463" xlink:href="#m74003eb442" y="150.043046"/>
     <use style="fill:#ff7f0e;stroke:#ff7f0e;" x="240.971519" xlink:href="#m74003eb442" y="147.881591"/>
     <use style="fill:#ff7f0e;stroke:#ff7f0e;" x="252.301575" xlink:href="#m74003eb442" y="143.44766"/>
     <use style="fill:#ff7f0e;stroke:#ff7f0e;" x="263.631631" xlink:href="#m74003eb442" y="140.127055"/>
     <use style="fill:#ff7f0e;stroke:#ff7f0e;" x="274.961687" xlink:href="#m74003eb442" y="137.693925"/>
     <use style="fill:#ff7f0e;stroke:#ff7f0e;" x="286.291742" xlink:href="#m74003eb442" y="134.527045"/>
     <use style="fill:#ff7f0e;stroke:#ff7f0e;" x="297.621798" xlink:href="#m74003eb442" y="131.360166"/>
     <use style="fill:#ff7f0e;stroke:#ff7f0e;" x="308.951854" xlink:href="#m74003eb442" y="129.272566"/>
     <use style="fill:#ff7f0e;stroke:#ff7f0e;" x="320.28191" xlink:href="#m74003eb442" y="127.111767"/>
     <use style="fill:#ff7f0e;stroke:#ff7f0e;" x="331.611966" xlink:href="#m74003eb442" y="125.354195"/>
     <use style="fill:#ff7f0e;stroke:#ff7f0e;" x="342.942022" xlink:href="#m74003eb442" y="123.897605"/>
    </g>
   </g>
   <g id="line2d_85">
    <path clip-path="url(#p1fba975ded)" d="M 55.094798 273.089709 
L 59.690625 266.421561 
L 71.020681 256.805402 
L 82.350737 240.366468 
L 93.680793 233.543694 
L 105.010848 213.029097 
L 116.340904 204.695215 
L 127.67096 199.936035 
L 139.001016 191.548978 
L 150.331072 181.433508 
L 161.661128 172.260658 
L 172.991184 163.24877 
L 184.32124 155.378415 
L 195.651295 149.139202 
L 206.981351 141.856713 
L 218.311407 139.720797 
L 229.641463 136.391355 
L 240.971519 130.256423 
L 252.301575 125.730253 
L 263.631631 120.754743 
L 274.961687 118.057892 
L 286.291742 116.345885 
L 297.621798 113.421106 
L 308.951854 111.898678 
L 320.28191 108.639815 
L 331.611966 106.034181 
L 342.942022 103.612307 
" style="fill:none;stroke:#2ca02c;stroke-linecap:square;stroke-width:1.5;"/>
    <g clip-path="url(#p1fba975ded)">
     <use style="fill:#2ca02c;stroke:#2ca02c;" x="-1" xlink:href="#m3e1496abd4" y="282.860495"/>
     <use style="fill:#2ca02c;stroke:#2ca02c;" x="3.040346" xlink:href="#m3e1496abd4" y="282.860495"/>
     <use style="fill:#2ca02c;stroke:#2ca02c;" x="14.370402" xlink:href="#m3e1496abd4" y="282.860495"/>
     <use style="fill:#2ca02c;stroke:#2ca02c;" x="25.700457" xlink:href="#m3e1496abd4" y="282.860495"/>
     <use style="fill:#2ca02c;stroke:#2ca02c;" x="37.030513" xlink:href="#m3e1496abd4" y="282.860495"/>
     <use style="fill:#2ca02c;stroke:#2ca02c;" x="48.360569" xlink:href="#m3e1496abd4" y="282.860495"/>
     <use style="fill:#2ca02c;stroke:#2ca02c;" x="59.690625" xlink:href="#m3e1496abd4" y="266.421561"/>
     <use style="fill:#2ca02c;stroke:#2ca02c;" x="71.020681" xlink:href="#m3e1496abd4" y="256.805402"/>
     <use style="fill:#2ca02c;stroke:#2ca02c;" x="82.350737" xlink:href="#m3e1496abd4" y="240.366468"/>
     <use style="fill:#2ca02c;stroke:#2ca02c;" x="93.680793" xlink:href="#m3e1496abd4" y="233.543694"/>
     <use style="fill:#2ca02c;stroke:#2ca02c;" x="105.010848" xlink:href="#m3e1496abd4" y="213.029097"/>
     <use style="fill:#2ca02c;stroke:#2ca02c;" x="116.340904" xlink:href="#m3e1496abd4" y="204.695215"/>
     <use style="fill:#2ca02c;stroke:#2ca02c;" x="127.67096" xlink:href="#m3e1496abd4" y="199.936035"/>
     <use style="fill:#2ca02c;stroke:#2ca02c;" x="139.001016" xlink:href="#m3e1496abd4" y="191.548978"/>
     <use style="fill:#2ca02c;stroke:#2ca02c;" x="150.331072" xlink:href="#m3e1496abd4" y="181.433508"/>
     <use style="fill:#2ca02c;stroke:#2ca02c;" x="161.661128" xlink:href="#m3e1496abd4" y="172.260658"/>
     <use style="fill:#2ca02c;stroke:#2ca02c;" x="172.991184" xlink:href="#m3e1496abd4" y="163.24877"/>
     <use style="fill:#2ca02c;stroke:#2ca02c;" x="184.32124" xlink:href="#m3e1496abd4" y="155.378415"/>
     <use style="fill:#2ca02c;stroke:#2ca02c;" x="195.651295" xlink:href="#m3e1496abd4" y="149.139202"/>
     <use style="fill:#2ca02c;stroke:#2ca02c;" x="206.981351" xlink:href="#m3e1496abd4" y="141.856713"/>
     <use style="fill:#2ca02c;stroke:#2ca02c;" x="218.311407" xlink:href="#m3e1496abd4" y="139.720797"/>
     <use style="fill:#2ca02c;stroke:#2ca02c;" x="229.641463" xlink:href="#m3e1496abd4" y="136.391355"/>
     <use style="fill:#2ca02c;stroke:#2ca02c;" x="240.971519" xlink:href="#m3e1496abd4" y="130.256423"/>
     <use style="fill:#2ca02c;stroke:#2ca02c;" x="252.301575" xlink:href="#m3e1496abd4" y="125.730253"/>
     <use style="fill:#2ca02c;stroke:#2ca02c;" x="263.631631" xlink:href="#m3e1496abd4" y="120.754743"/>
     <use style="fill:#2ca02c;stroke:#2ca02c;" x="274.961687" xlink:href="#m3e1496abd4" y="118.057892"/>
     <use style="fill:#2ca02c;stroke:#2ca02c;" x="286.291742" xlink:href="#m3e1496abd4" y="116.345885"/>
     <use style="fill:#2ca02c;stroke:#2ca02c;" x="297.621798" xlink:href="#m3e1496abd4" y="113.421106"/>
     <use style="fill:#2ca02c;stroke:#2ca02c;" x="308.951854" xlink:href="#m3e1496abd4" y="111.898678"/>
     <use style="fill:#2ca02c;stroke:#2ca02c;" x="320.28191" xlink:href="#m3e1496abd4" y="108.639815"/>
     <use style="fill:#2ca02c;stroke:#2ca02c;" x="331.611966" xlink:href="#m3e1496abd4" y="106.034181"/>
     <use style="fill:#2ca02c;stroke:#2ca02c;" x="342.942022" xlink:href="#m3e1496abd4" y="103.612307"/>
    </g>
   </g>
   <g id="line2d_86">
    <path clip-path="url(#p1fba975ded)" d="M -1 269.018124 
L 3.040346 254.600462 
L 14.370402 238.161528 
L 25.700457 221.722595 
L 37.030513 205.015677 
L 48.360569 200.869991 
L 59.690625 193.935611 
L 71.020681 189.252469 
L 82.350737 183.878204 
L 93.680793 174.225641 
L 105.010848 168.160525 
L 116.340904 159.365876 
L 127.67096 155.041871 
L 139.001016 148.859454 
L 150.331072 140.107652 
L 161.661128 127.058568 
L 172.991184 113.880576 
L 184.32124 101.149955 
L 195.651295 92.204387 
L 206.981351 83.153702 
L 218.311407 75.57954 
L 229.641463 70.680309 
L 240.971519 64.671118 
L 252.301575 60.764494 
L 263.631631 57.555906 
L 274.961687 53.320179 
L 286.291742 50.711357 
L 297.621798 47.861415 
L 308.951854 44.986182 
L 320.28191 42.591442 
L 331.611966 40.204892 
L 342.942022 37.753978 
" style="fill:none;stroke:#d62728;stroke-linecap:square;stroke-width:1.5;"/>
    <g clip-path="url(#p1fba975ded)">
     <use style="fill:#d62728;stroke:#d62728;" x="-1" xlink:href="#m777476106d" y="269.018124"/>
     <use style="fill:#d62728;stroke:#d62728;" x="3.040346" xlink:href="#m777476106d" y="254.600462"/>
     <use style="fill:#d62728;stroke:#d62728;" x="14.370402" xlink:href="#m777476106d" y="238.161528"/>
     <use style="fill:#d62728;stroke:#d62728;" x="25.700457" xlink:href="#m777476106d" y="221.722595"/>
     <use style="fill:#d62728;stroke:#d62728;" x="37.030513" xlink:href="#m777476106d" y="205.015677"/>
     <use style="fill:#d62728;stroke:#d62728;" x="48.360569" xlink:href="#m777476106d" y="200.869991"/>
     <use style="fill:#d62728;stroke:#d62728;" x="59.690625" xlink:href="#m777476106d" y="193.935611"/>
     <use style="fill:#d62728;stroke:#d62728;" x="71.020681" xlink:href="#m777476106d" y="189.252469"/>
     <use style="fill:#d62728;stroke:#d62728;" x="82.350737" xlink:href="#m777476106d" y="183.878204"/>
     <use style="fill:#d62728;stroke:#d62728;" x="93.680793" xlink:href="#m777476106d" y="174.225641"/>
     <use style="fill:#d62728;stroke:#d62728;" x="105.010848" xlink:href="#m777476106d" y="168.160525"/>
     <use style="fill:#d62728;stroke:#d62728;" x="116.340904" xlink:href="#m777476106d" y="159.365876"/>
     <use style="fill:#d62728;stroke:#d62728;" x="127.67096" xlink:href="#m777476106d" y="155.041871"/>
     <use style="fill:#d62728;stroke:#d62728;" x="139.001016" xlink:href="#m777476106d" y="148.859454"/>
     <use style="fill:#d62728;stroke:#d62728;" x="150.331072" xlink:href="#m777476106d" y="140.107652"/>
     <use style="fill:#d62728;stroke:#d62728;" x="161.661128" xlink:href="#m777476106d" y="127.058568"/>
     <use style="fill:#d62728;stroke:#d62728;" x="172.991184" xlink:href="#m777476106d" y="113.880576"/>
     <use style="fill:#d62728;stroke:#d62728;" x="184.32124" xlink:href="#m777476106d" y="101.149955"/>
     <use style="fill:#d62728;stroke:#d62728;" x="195.651295" xlink:href="#m777476106d" y="92.204387"/>
     <use style="fill:#d62728;stroke:#d62728;" x="206.981351" xlink:href="#m777476106d" y="83.153702"/>
     <use style="fill:#d62728;stroke:#d62728;" x="218.311407" xlink:href="#m777476106d" y="75.57954"/>
     <use style="fill:#d62728;stroke:#d62728;" x="229.641463" xlink:href="#m777476106d" y="70.680309"/>
     <use style="fill:#d62728;stroke:#d62728;" x="240.971519" xlink:href="#m777476106d" y="64.671118"/>
     <use style="fill:#d62728;stroke:#d62728;" x="252.301575" xlink:href="#m777476106d" y="60.764494"/>
     <use style="fill:#d62728;stroke:#d62728;" x="263.631631" xlink:href="#m777476106d" y="57.555906"/>
     <use style="fill:#d62728;stroke:#d62728;" x="274.961687" xlink:href="#m777476106d" y="53.320179"/>
     <use style="fill:#d62728;stroke:#d62728;" x="286.291742" xlink:href="#m777476106d" y="50.711357"/>
     <use style="fill:#d62728;stroke:#d62728;" x="297.621798" xlink:href="#m777476106d" y="47.861415"/>
     <use style="fill:#d62728;stroke:#d62728;" x="308.951854" xlink:href="#m777476106d" y="44.986182"/>
     <use style="fill:#d62728;stroke:#d62728;" x="320.28191" xlink:href="#m777476106d" y="42.591442"/>
     <use style="fill:#d62728;stroke:#d62728;" x="331.611966" xlink:href="#m777476106d" y="40.204892"/>
     <use style="fill:#d62728;stroke:#d62728;" x="342.942022" xlink:href="#m777476106d" y="37.753978"/>
    </g>
   </g>
   <g id="line2d_87">
    <path clip-path="url(#p1fba975ded)" d="M 48.360569 242.2742 
L 59.690625 219.012493 
L 71.020681 207.498011 
L 82.350737 205.740439 
L 93.680793 202.57356 
L 105.010848 201.135764 
L 116.340904 199.780174 
L 127.67096 195.020994 
L 139.001016 195.020994 
L 150.331072 188.469267 
L 161.661128 182.058962 
L 172.991184 178.58206 
L 184.32124 178.049086 
L 195.651295 168.257897 
L 206.981351 161.610152 
L 218.311407 157.954258 
L 229.641463 154.009723 
L 240.971519 150.299246 
L 252.301575 145.303344 
L 263.631631 138.847755 
L 274.961687 133.214929 
L 286.291742 130.368546 
L 297.621798 124.85159 
L 308.951854 121.036418 
L 320.28191 118.724111 
L 331.611966 116.070333 
L 342.942022 112.995368 
" style="fill:none;stroke:#9467bd;stroke-linecap:square;stroke-width:1.5;"/>
    <g clip-path="url(#p1fba975ded)">
     <use style="fill:#9467bd;stroke:#9467bd;" x="48.360569" xlink:href="#mc183b9648d" y="242.2742"/>
     <use style="fill:#9467bd;stroke:#9467bd;" x="59.690625" xlink:href="#mc183b9648d" y="219.012493"/>
     <use style="fill:#9467bd;stroke:#9467bd;" x="71.020681" xlink:href="#mc183b9648d" y="207.498011"/>
     <use style="fill:#9467bd;stroke:#9467bd;" x="82.350737" xlink:href="#mc183b9648d" y="205.740439"/>
     <use style="fill:#9467bd;stroke:#9467bd;" x="93.680793" xlink:href="#mc183b9648d" y="202.57356"/>
     <use style="fill:#9467bd;stroke:#9467bd;" x="105.010848" xlink:href="#mc183b9648d" y="201.135764"/>
     <use style="fill:#9467bd;stroke:#9467bd;" x="116.340904" xlink:href="#mc183b9648d" y="199.780174"/>
     <use style="fill:#9467bd;stroke:#9467bd;" x="127.67096" xlink:href="#mc183b9648d" y="195.020994"/>
     <use style="fill:#9467bd;stroke:#9467bd;" x="139.001016" xlink:href="#mc183b9648d" y="195.020994"/>
     <use style="fill:#9467bd;stroke:#9467bd;" x="150.331072" xlink:href="#mc183b9648d" y="188.469267"/>
     <use style="fill:#9467bd;stroke:#9467bd;" x="161.661128" xlink:href="#mc183b9648d" y="182.058962"/>
     <use style="fill:#9467bd;stroke:#9467bd;" x="172.991184" xlink:href="#mc183b9648d" y="178.58206"/>
     <use style="fill:#9467bd;stroke:#9467bd;" x="184.32124" xlink:href="#mc183b9648d" y="178.049086"/>
     <use style="fill:#9467bd;stroke:#9467bd;" x="195.651295" xlink:href="#mc183b9648d" y="168.257897"/>
     <use style="fill:#9467bd;stroke:#9467bd;" x="206.981351" xlink:href="#mc183b9648d" y="161.610152"/>
     <use style="fill:#9467bd;stroke:#9467bd;" x="218.311407" xlink:href="#mc183b9648d" y="157.954258"/>
     <use style="fill:#9467bd;stroke:#9467bd;" x="229.641463" xlink:href="#mc183b9648d" y="154.009723"/>
     <use style="fill:#9467bd;stroke:#9467bd;" x="240.971519" xlink:href="#mc183b9648d" y="150.299246"/>
     <use style="fill:#9467bd;stroke:#9467bd;" x="252.301575" xlink:href="#mc183b9648d" y="145.303344"/>
     <use style="fill:#9467bd;stroke:#9467bd;" x="263.631631" xlink:href="#mc183b9648d" y="138.847755"/>
     <use style="fill:#9467bd;stroke:#9467bd;" x="274.961687" xlink:href="#mc183b9648d" y="133.214929"/>
     <use style="fill:#9467bd;stroke:#9467bd;" x="286.291742" xlink:href="#mc183b9648d" y="130.368546"/>
     <use style="fill:#9467bd;stroke:#9467bd;" x="297.621798" xlink:href="#mc183b9648d" y="124.85159"/>
     <use style="fill:#9467bd;stroke:#9467bd;" x="308.951854" xlink:href="#mc183b9648d" y="121.036418"/>
     <use style="fill:#9467bd;stroke:#9467bd;" x="320.28191" xlink:href="#mc183b9648d" y="118.724111"/>
     <use style="fill:#9467bd;stroke:#9467bd;" x="331.611966" xlink:href="#mc183b9648d" y="116.070333"/>
     <use style="fill:#9467bd;stroke:#9467bd;" x="342.942022" xlink:href="#mc183b9648d" y="112.995368"/>
    </g>
   </g>
  </g>
 </g>
 <defs>
  <clipPath id="p1fba975ded">
   <rect height="217.44" width="334.8" x="59.690625" y="7.2"/>
  </clipPath>
 </defs>
</svg>
