<?xml version="1.0" encoding="utf-8" standalone="no"?>
<!DOCTYPE svg PUBLIC "-//W3C//DTD SVG 1.1//EN"
  "http://www.w3.org/Graphics/SVG/1.1/DTD/svg11.dtd">
<!-- Created with matplotlib (https://matplotlib.org/) -->
<svg height="259.715937pt" version="1.1" viewBox="0 0 390.274638 259.715937" width="390.274638pt" xmlns="http://www.w3.org/2000/svg" xmlns:xlink="http://www.w3.org/1999/xlink">
 <defs>
  <style type="text/css">
*{stroke-linecap:butt;stroke-linejoin:round;}
  </style>
 </defs>
 <g id="figure_1">
  <g id="patch_1">
   <path d="M -0 259.715937 
L 390.274638 259.715937 
L 390.274638 0 
L -0 0 
z
" style="fill:#ffffff;"/>
  </g>
  <g id="axes_1">
   <g id="patch_2">
    <path d="M 46.965625 224.64 
L 381.765625 224.64 
L 381.765625 7.2 
L 46.965625 7.2 
z
" style="fill:#ffffff;"/>
   </g>
   <g id="matplotlib.axis_1">
    <g id="xtick_1">
     <g id="line2d_1">
      <path clip-path="url(#pd60491f592)" d="M 48.349096 224.64 
L 48.349096 7.2 
" style="fill:none;stroke:#b0b0b0;stroke-linecap:square;stroke-opacity:0.6;stroke-width:0.8;"/>
     </g>
     <g id="line2d_2">
      <defs>
       <path d="M 0 0 
L 0 3.5 
" id="m41337241b0" style="stroke:#000000;stroke-width:0.8;"/>
      </defs>
      <g>
       <use style="stroke:#000000;stroke-width:0.8;" x="48.349096" xlink:href="#m41337241b0" y="224.64"/>
      </g>
     </g>
     <g id="text_1">
      <!-- Mar. -->
      <defs>
       <path d="M 9.8125 72.90625 
L 24.515625 72.90625 
L 43.109375 23.296875 
L 61.8125 72.90625 
L 76.515625 72.90625 
L 76.515625 0 
L 66.890625 0 
L 66.890625 64.015625 
L 48.09375 14.015625 
L 38.1875 14.015625 
L 19.390625 64.015625 
L 19.390625 0 
L 9.8125 0 
z
" id="DejaVuSans-77"/>
       <path d="M 34.28125 27.484375 
Q 23.390625 27.484375 19.1875 25 
Q 14.984375 22.515625 14.984375 16.5 
Q 14.984375 11.71875 18.140625 8.90625 
Q 21.296875 6.109375 26.703125 6.109375 
Q 34.1875 6.109375 38.703125 11.40625 
Q 43.21875 16.703125 43.21875 25.484375 
L 43.21875 27.484375 
z
M 52.203125 31.203125 
L 52.203125 0 
L 43.21875 0 
L 43.21875 8.296875 
Q 40.140625 3.328125 35.546875 0.953125 
Q 30.953125 -1.421875 24.3125 -1.421875 
Q 15.921875 -1.421875 10.953125 3.296875 
Q 6 8.015625 6 15.921875 
Q 6 25.140625 12.171875 29.828125 
Q 18.359375 34.515625 30.609375 34.515625 
L 43.21875 34.515625 
L 43.21875 35.40625 
Q 43.21875 41.609375 39.140625 45 
Q 35.0625 48.390625 27.6875 48.390625 
Q 23 48.390625 18.546875 47.265625 
Q 14.109375 46.140625 10.015625 43.890625 
L 10.015625 52.203125 
Q 14.9375 54.109375 19.578125 55.046875 
Q 24.21875 56 28.609375 56 
Q 40.484375 56 46.34375 49.84375 
Q 52.203125 43.703125 52.203125 31.203125 
z
" id="DejaVuSans-97"/>
       <path d="M 41.109375 46.296875 
Q 39.59375 47.171875 37.8125 47.578125 
Q 36.03125 48 33.890625 48 
Q 26.265625 48 22.1875 43.046875 
Q 18.109375 38.09375 18.109375 28.8125 
L 18.109375 0 
L 9.078125 0 
L 9.078125 54.6875 
L 18.109375 54.6875 
L 18.109375 46.1875 
Q 20.953125 51.171875 25.484375 53.578125 
Q 30.03125 56 36.53125 56 
Q 37.453125 56 38.578125 55.875 
Q 39.703125 55.765625 41.0625 55.515625 
z
" id="DejaVuSans-114"/>
       <path d="M 10.6875 12.40625 
L 21 12.40625 
L 21 0 
L 10.6875 0 
z
" id="DejaVuSans-46"/>
      </defs>
      <g transform="translate(37.333471 239.238438)scale(0.1 -0.1)">
       <use xlink:href="#DejaVuSans-77"/>
       <use x="86.279297" xlink:href="#DejaVuSans-97"/>
       <use x="147.558594" xlink:href="#DejaVuSans-114"/>
       <use x="188.53125" xlink:href="#DejaVuSans-46"/>
      </g>
      <!-- 10 -->
      <defs>
       <path d="M 12.40625 8.296875 
L 28.515625 8.296875 
L 28.515625 63.921875 
L 10.984375 60.40625 
L 10.984375 69.390625 
L 28.421875 72.90625 
L 38.28125 72.90625 
L 38.28125 8.296875 
L 54.390625 8.296875 
L 54.390625 0 
L 12.40625 0 
z
" id="DejaVuSans-49"/>
       <path d="M 31.78125 66.40625 
Q 24.171875 66.40625 20.328125 58.90625 
Q 16.5 51.421875 16.5 36.375 
Q 16.5 21.390625 20.328125 13.890625 
Q 24.171875 6.390625 31.78125 6.390625 
Q 39.453125 6.390625 43.28125 13.890625 
Q 47.125 21.390625 47.125 36.375 
Q 47.125 51.421875 43.28125 58.90625 
Q 39.453125 66.40625 31.78125 66.40625 
z
M 31.78125 74.21875 
Q 44.046875 74.21875 50.515625 64.515625 
Q 56.984375 54.828125 56.984375 36.375 
Q 56.984375 17.96875 50.515625 8.265625 
Q 44.046875 -1.421875 31.78125 -1.421875 
Q 19.53125 -1.421875 13.0625 8.265625 
Q 6.59375 17.96875 6.59375 36.375 
Q 6.59375 54.828125 13.0625 64.515625 
Q 19.53125 74.21875 31.78125 74.21875 
z
" id="DejaVuSans-48"/>
      </defs>
      <g transform="translate(41.986596 250.43625)scale(0.1 -0.1)">
       <use xlink:href="#DejaVuSans-49"/>
       <use x="63.623047" xlink:href="#DejaVuSans-48"/>
      </g>
     </g>
    </g>
    <g id="xtick_2">
     <g id="line2d_3">
      <path clip-path="url(#pd60491f592)" d="M 80.630088 224.64 
L 80.630088 7.2 
" style="fill:none;stroke:#b0b0b0;stroke-linecap:square;stroke-opacity:0.6;stroke-width:0.8;"/>
     </g>
     <g id="line2d_4">
      <g>
       <use style="stroke:#000000;stroke-width:0.8;" x="80.630088" xlink:href="#m41337241b0" y="224.64"/>
      </g>
     </g>
     <g id="text_2">
      <!-- Mar. -->
      <g transform="translate(69.614463 239.238438)scale(0.1 -0.1)">
       <use xlink:href="#DejaVuSans-77"/>
       <use x="86.279297" xlink:href="#DejaVuSans-97"/>
       <use x="147.558594" xlink:href="#DejaVuSans-114"/>
       <use x="188.53125" xlink:href="#DejaVuSans-46"/>
      </g>
      <!-- 17 -->
      <defs>
       <path d="M 8.203125 72.90625 
L 55.078125 72.90625 
L 55.078125 68.703125 
L 28.609375 0 
L 18.3125 0 
L 43.21875 64.59375 
L 8.203125 64.59375 
z
" id="DejaVuSans-55"/>
      </defs>
      <g transform="translate(74.267588 250.43625)scale(0.1 -0.1)">
       <use xlink:href="#DejaVuSans-49"/>
       <use x="63.623047" xlink:href="#DejaVuSans-55"/>
      </g>
     </g>
    </g>
    <g id="xtick_3">
     <g id="line2d_5">
      <path clip-path="url(#pd60491f592)" d="M 112.91108 224.64 
L 112.91108 7.2 
" style="fill:none;stroke:#b0b0b0;stroke-linecap:square;stroke-opacity:0.6;stroke-width:0.8;"/>
     </g>
     <g id="line2d_6">
      <g>
       <use style="stroke:#000000;stroke-width:0.8;" x="112.91108" xlink:href="#m41337241b0" y="224.64"/>
      </g>
     </g>
     <g id="text_3">
      <!-- Mar. -->
      <g transform="translate(101.895455 239.238438)scale(0.1 -0.1)">
       <use xlink:href="#DejaVuSans-77"/>
       <use x="86.279297" xlink:href="#DejaVuSans-97"/>
       <use x="147.558594" xlink:href="#DejaVuSans-114"/>
       <use x="188.53125" xlink:href="#DejaVuSans-46"/>
      </g>
      <!-- 24 -->
      <defs>
       <path d="M 19.1875 8.296875 
L 53.609375 8.296875 
L 53.609375 0 
L 7.328125 0 
L 7.328125 8.296875 
Q 12.9375 14.109375 22.625 23.890625 
Q 32.328125 33.6875 34.8125 36.53125 
Q 39.546875 41.84375 41.421875 45.53125 
Q 43.3125 49.21875 43.3125 52.78125 
Q 43.3125 58.59375 39.234375 62.25 
Q 35.15625 65.921875 28.609375 65.921875 
Q 23.96875 65.921875 18.8125 64.3125 
Q 13.671875 62.703125 7.8125 59.421875 
L 7.8125 69.390625 
Q 13.765625 71.78125 18.9375 73 
Q 24.125 74.21875 28.421875 74.21875 
Q 39.75 74.21875 46.484375 68.546875 
Q 53.21875 62.890625 53.21875 53.421875 
Q 53.21875 48.921875 51.53125 44.890625 
Q 49.859375 40.875 45.40625 35.40625 
Q 44.1875 33.984375 37.640625 27.21875 
Q 31.109375 20.453125 19.1875 8.296875 
z
" id="DejaVuSans-50"/>
       <path d="M 37.796875 64.3125 
L 12.890625 25.390625 
L 37.796875 25.390625 
z
M 35.203125 72.90625 
L 47.609375 72.90625 
L 47.609375 25.390625 
L 58.015625 25.390625 
L 58.015625 17.1875 
L 47.609375 17.1875 
L 47.609375 0 
L 37.796875 0 
L 37.796875 17.1875 
L 4.890625 17.1875 
L 4.890625 26.703125 
z
" id="DejaVuSans-52"/>
      </defs>
      <g transform="translate(106.54858 250.43625)scale(0.1 -0.1)">
       <use xlink:href="#DejaVuSans-50"/>
       <use x="63.623047" xlink:href="#DejaVuSans-52"/>
      </g>
     </g>
    </g>
    <g id="xtick_4">
     <g id="line2d_7">
      <path clip-path="url(#pd60491f592)" d="M 145.192071 224.64 
L 145.192071 7.2 
" style="fill:none;stroke:#b0b0b0;stroke-linecap:square;stroke-opacity:0.6;stroke-width:0.8;"/>
     </g>
     <g id="line2d_8">
      <g>
       <use style="stroke:#000000;stroke-width:0.8;" x="145.192071" xlink:href="#m41337241b0" y="224.64"/>
      </g>
     </g>
     <g id="text_4">
      <!-- Mar. -->
      <g transform="translate(134.176446 239.238438)scale(0.1 -0.1)">
       <use xlink:href="#DejaVuSans-77"/>
       <use x="86.279297" xlink:href="#DejaVuSans-97"/>
       <use x="147.558594" xlink:href="#DejaVuSans-114"/>
       <use x="188.53125" xlink:href="#DejaVuSans-46"/>
      </g>
      <!-- 31 -->
      <defs>
       <path d="M 40.578125 39.3125 
Q 47.65625 37.796875 51.625 33 
Q 55.609375 28.21875 55.609375 21.1875 
Q 55.609375 10.40625 48.1875 4.484375 
Q 40.765625 -1.421875 27.09375 -1.421875 
Q 22.515625 -1.421875 17.65625 -0.515625 
Q 12.796875 0.390625 7.625 2.203125 
L 7.625 11.71875 
Q 11.71875 9.328125 16.59375 8.109375 
Q 21.484375 6.890625 26.8125 6.890625 
Q 36.078125 6.890625 40.9375 10.546875 
Q 45.796875 14.203125 45.796875 21.1875 
Q 45.796875 27.640625 41.28125 31.265625 
Q 36.765625 34.90625 28.71875 34.90625 
L 20.21875 34.90625 
L 20.21875 43.015625 
L 29.109375 43.015625 
Q 36.375 43.015625 40.234375 45.921875 
Q 44.09375 48.828125 44.09375 54.296875 
Q 44.09375 59.90625 40.109375 62.90625 
Q 36.140625 65.921875 28.71875 65.921875 
Q 24.65625 65.921875 20.015625 65.03125 
Q 15.375 64.15625 9.8125 62.3125 
L 9.8125 71.09375 
Q 15.4375 72.65625 20.34375 73.4375 
Q 25.25 74.21875 29.59375 74.21875 
Q 40.828125 74.21875 47.359375 69.109375 
Q 53.90625 64.015625 53.90625 55.328125 
Q 53.90625 49.265625 50.4375 45.09375 
Q 46.96875 40.921875 40.578125 39.3125 
z
" id="DejaVuSans-51"/>
      </defs>
      <g transform="translate(138.829571 250.43625)scale(0.1 -0.1)">
       <use xlink:href="#DejaVuSans-51"/>
       <use x="63.623047" xlink:href="#DejaVuSans-49"/>
      </g>
     </g>
    </g>
    <g id="xtick_5">
     <g id="line2d_9">
      <path clip-path="url(#pd60491f592)" d="M 177.473063 224.64 
L 177.473063 7.2 
" style="fill:none;stroke:#b0b0b0;stroke-linecap:square;stroke-opacity:0.6;stroke-width:0.8;"/>
     </g>
     <g id="line2d_10">
      <g>
       <use style="stroke:#000000;stroke-width:0.8;" x="177.473063" xlink:href="#m41337241b0" y="224.64"/>
      </g>
     </g>
     <g id="text_5">
      <!-- Apr. -->
      <defs>
       <path d="M 34.1875 63.1875 
L 20.796875 26.90625 
L 47.609375 26.90625 
z
M 28.609375 72.90625 
L 39.796875 72.90625 
L 67.578125 0 
L 57.328125 0 
L 50.6875 18.703125 
L 17.828125 18.703125 
L 11.1875 0 
L 0.78125 0 
z
" id="DejaVuSans-65"/>
       <path d="M 18.109375 8.203125 
L 18.109375 -20.796875 
L 9.078125 -20.796875 
L 9.078125 54.6875 
L 18.109375 54.6875 
L 18.109375 46.390625 
Q 20.953125 51.265625 25.265625 53.625 
Q 29.59375 56 35.59375 56 
Q 45.5625 56 51.78125 48.09375 
Q 58.015625 40.1875 58.015625 27.296875 
Q 58.015625 14.40625 51.78125 6.484375 
Q 45.5625 -1.421875 35.59375 -1.421875 
Q 29.59375 -1.421875 25.265625 0.953125 
Q 20.953125 3.328125 18.109375 8.203125 
z
M 48.6875 27.296875 
Q 48.6875 37.203125 44.609375 42.84375 
Q 40.53125 48.484375 33.40625 48.484375 
Q 26.265625 48.484375 22.1875 42.84375 
Q 18.109375 37.203125 18.109375 27.296875 
Q 18.109375 17.390625 22.1875 11.75 
Q 26.265625 6.109375 33.40625 6.109375 
Q 40.53125 6.109375 44.609375 11.75 
Q 48.6875 17.390625 48.6875 27.296875 
z
" id="DejaVuSans-112"/>
      </defs>
      <g transform="translate(167.241032 239.238438)scale(0.1 -0.1)">
       <use xlink:href="#DejaVuSans-65"/>
       <use x="68.408203" xlink:href="#DejaVuSans-112"/>
       <use x="131.884766" xlink:href="#DejaVuSans-114"/>
       <use x="172.857422" xlink:href="#DejaVuSans-46"/>
      </g>
      <!-- 07 -->
      <g transform="translate(171.110563 250.43625)scale(0.1 -0.1)">
       <use xlink:href="#DejaVuSans-48"/>
       <use x="63.623047" xlink:href="#DejaVuSans-55"/>
      </g>
     </g>
    </g>
    <g id="xtick_6">
     <g id="line2d_11">
      <path clip-path="url(#pd60491f592)" d="M 209.754055 224.64 
L 209.754055 7.2 
" style="fill:none;stroke:#b0b0b0;stroke-linecap:square;stroke-opacity:0.6;stroke-width:0.8;"/>
     </g>
     <g id="line2d_12">
      <g>
       <use style="stroke:#000000;stroke-width:0.8;" x="209.754055" xlink:href="#m41337241b0" y="224.64"/>
      </g>
     </g>
     <g id="text_6">
      <!-- Apr. -->
      <g transform="translate(199.522024 239.238438)scale(0.1 -0.1)">
       <use xlink:href="#DejaVuSans-65"/>
       <use x="68.408203" xlink:href="#DejaVuSans-112"/>
       <use x="131.884766" xlink:href="#DejaVuSans-114"/>
       <use x="172.857422" xlink:href="#DejaVuSans-46"/>
      </g>
      <!-- 14 -->
      <g transform="translate(203.391555 250.43625)scale(0.1 -0.1)">
       <use xlink:href="#DejaVuSans-49"/>
       <use x="63.623047" xlink:href="#DejaVuSans-52"/>
      </g>
     </g>
    </g>
    <g id="xtick_7">
     <g id="line2d_13">
      <path clip-path="url(#pd60491f592)" d="M 242.035046 224.64 
L 242.035046 7.2 
" style="fill:none;stroke:#b0b0b0;stroke-linecap:square;stroke-opacity:0.6;stroke-width:0.8;"/>
     </g>
     <g id="line2d_14">
      <g>
       <use style="stroke:#000000;stroke-width:0.8;" x="242.035046" xlink:href="#m41337241b0" y="224.64"/>
      </g>
     </g>
     <g id="text_7">
      <!-- Apr. -->
      <g transform="translate(231.803015 239.238438)scale(0.1 -0.1)">
       <use xlink:href="#DejaVuSans-65"/>
       <use x="68.408203" xlink:href="#DejaVuSans-112"/>
       <use x="131.884766" xlink:href="#DejaVuSans-114"/>
       <use x="172.857422" xlink:href="#DejaVuSans-46"/>
      </g>
      <!-- 21 -->
      <g transform="translate(235.672546 250.43625)scale(0.1 -0.1)">
       <use xlink:href="#DejaVuSans-50"/>
       <use x="63.623047" xlink:href="#DejaVuSans-49"/>
      </g>
     </g>
    </g>
    <g id="xtick_8">
     <g id="line2d_15">
      <path clip-path="url(#pd60491f592)" d="M 274.316038 224.64 
L 274.316038 7.2 
" style="fill:none;stroke:#b0b0b0;stroke-linecap:square;stroke-opacity:0.6;stroke-width:0.8;"/>
     </g>
     <g id="line2d_16">
      <g>
       <use style="stroke:#000000;stroke-width:0.8;" x="274.316038" xlink:href="#m41337241b0" y="224.64"/>
      </g>
     </g>
     <g id="text_8">
      <!-- Apr. -->
      <g transform="translate(264.084007 239.238438)scale(0.1 -0.1)">
       <use xlink:href="#DejaVuSans-65"/>
       <use x="68.408203" xlink:href="#DejaVuSans-112"/>
       <use x="131.884766" xlink:href="#DejaVuSans-114"/>
       <use x="172.857422" xlink:href="#DejaVuSans-46"/>
      </g>
      <!-- 28 -->
      <defs>
       <path d="M 31.78125 34.625 
Q 24.75 34.625 20.71875 30.859375 
Q 16.703125 27.09375 16.703125 20.515625 
Q 16.703125 13.921875 20.71875 10.15625 
Q 24.75 6.390625 31.78125 6.390625 
Q 38.8125 6.390625 42.859375 10.171875 
Q 46.921875 13.96875 46.921875 20.515625 
Q 46.921875 27.09375 42.890625 30.859375 
Q 38.875 34.625 31.78125 34.625 
z
M 21.921875 38.8125 
Q 15.578125 40.375 12.03125 44.71875 
Q 8.5 49.078125 8.5 55.328125 
Q 8.5 64.0625 14.71875 69.140625 
Q 20.953125 74.21875 31.78125 74.21875 
Q 42.671875 74.21875 48.875 69.140625 
Q 55.078125 64.0625 55.078125 55.328125 
Q 55.078125 49.078125 51.53125 44.71875 
Q 48 40.375 41.703125 38.8125 
Q 48.828125 37.15625 52.796875 32.3125 
Q 56.78125 27.484375 56.78125 20.515625 
Q 56.78125 9.90625 50.3125 4.234375 
Q 43.84375 -1.421875 31.78125 -1.421875 
Q 19.734375 -1.421875 13.25 4.234375 
Q 6.78125 9.90625 6.78125 20.515625 
Q 6.78125 27.484375 10.78125 32.3125 
Q 14.796875 37.15625 21.921875 38.8125 
z
M 18.3125 54.390625 
Q 18.3125 48.734375 21.84375 45.5625 
Q 25.390625 42.390625 31.78125 42.390625 
Q 38.140625 42.390625 41.71875 45.5625 
Q 45.3125 48.734375 45.3125 54.390625 
Q 45.3125 60.0625 41.71875 63.234375 
Q 38.140625 66.40625 31.78125 66.40625 
Q 25.390625 66.40625 21.84375 63.234375 
Q 18.3125 60.0625 18.3125 54.390625 
z
" id="DejaVuSans-56"/>
      </defs>
      <g transform="translate(267.953538 250.43625)scale(0.1 -0.1)">
       <use xlink:href="#DejaVuSans-50"/>
       <use x="63.623047" xlink:href="#DejaVuSans-56"/>
      </g>
     </g>
    </g>
    <g id="xtick_9">
     <g id="line2d_17">
      <path clip-path="url(#pd60491f592)" d="M 306.59703 224.64 
L 306.59703 7.2 
" style="fill:none;stroke:#b0b0b0;stroke-linecap:square;stroke-opacity:0.6;stroke-width:0.8;"/>
     </g>
     <g id="line2d_18">
      <g>
       <use style="stroke:#000000;stroke-width:0.8;" x="306.59703" xlink:href="#m41337241b0" y="224.64"/>
      </g>
     </g>
     <g id="text_9">
      <!-- May. -->
      <defs>
       <path d="M 32.171875 -5.078125 
Q 28.375 -14.84375 24.75 -17.8125 
Q 21.140625 -20.796875 15.09375 -20.796875 
L 7.90625 -20.796875 
L 7.90625 -13.28125 
L 13.1875 -13.28125 
Q 16.890625 -13.28125 18.9375 -11.515625 
Q 21 -9.765625 23.484375 -3.21875 
L 25.09375 0.875 
L 2.984375 54.6875 
L 12.5 54.6875 
L 29.59375 11.921875 
L 46.6875 54.6875 
L 56.203125 54.6875 
z
" id="DejaVuSans-121"/>
      </defs>
      <g transform="translate(294.681405 239.238438)scale(0.1 -0.1)">
       <use xlink:href="#DejaVuSans-77"/>
       <use x="86.279297" xlink:href="#DejaVuSans-97"/>
       <use x="147.558594" xlink:href="#DejaVuSans-121"/>
       <use x="206.519531" xlink:href="#DejaVuSans-46"/>
      </g>
      <!-- 05 -->
      <defs>
       <path d="M 10.796875 72.90625 
L 49.515625 72.90625 
L 49.515625 64.59375 
L 19.828125 64.59375 
L 19.828125 46.734375 
Q 21.96875 47.46875 24.109375 47.828125 
Q 26.265625 48.1875 28.421875 48.1875 
Q 40.625 48.1875 47.75 41.5 
Q 54.890625 34.8125 54.890625 23.390625 
Q 54.890625 11.625 47.5625 5.09375 
Q 40.234375 -1.421875 26.90625 -1.421875 
Q 22.3125 -1.421875 17.546875 -0.640625 
Q 12.796875 0.140625 7.71875 1.703125 
L 7.71875 11.625 
Q 12.109375 9.234375 16.796875 8.0625 
Q 21.484375 6.890625 26.703125 6.890625 
Q 35.15625 6.890625 40.078125 11.328125 
Q 45.015625 15.765625 45.015625 23.390625 
Q 45.015625 31 40.078125 35.4375 
Q 35.15625 39.890625 26.703125 39.890625 
Q 22.75 39.890625 18.8125 39.015625 
Q 14.890625 38.140625 10.796875 36.28125 
z
" id="DejaVuSans-53"/>
      </defs>
      <g transform="translate(300.23453 250.43625)scale(0.1 -0.1)">
       <use xlink:href="#DejaVuSans-48"/>
       <use x="63.623047" xlink:href="#DejaVuSans-53"/>
      </g>
     </g>
    </g>
    <g id="xtick_10">
     <g id="line2d_19">
      <path clip-path="url(#pd60491f592)" d="M 338.878022 224.64 
L 338.878022 7.2 
" style="fill:none;stroke:#b0b0b0;stroke-linecap:square;stroke-opacity:0.6;stroke-width:0.8;"/>
     </g>
     <g id="line2d_20">
      <g>
       <use style="stroke:#000000;stroke-width:0.8;" x="338.878022" xlink:href="#m41337241b0" y="224.64"/>
      </g>
     </g>
     <g id="text_10">
      <!-- May. -->
      <g transform="translate(326.962397 239.238438)scale(0.1 -0.1)">
       <use xlink:href="#DejaVuSans-77"/>
       <use x="86.279297" xlink:href="#DejaVuSans-97"/>
       <use x="147.558594" xlink:href="#DejaVuSans-121"/>
       <use x="206.519531" xlink:href="#DejaVuSans-46"/>
      </g>
      <!-- 12 -->
      <g transform="translate(332.515522 250.43625)scale(0.1 -0.1)">
       <use xlink:href="#DejaVuSans-49"/>
       <use x="63.623047" xlink:href="#DejaVuSans-50"/>
      </g>
     </g>
    </g>
    <g id="xtick_11">
     <g id="line2d_21">
      <path clip-path="url(#pd60491f592)" d="M 371.159013 224.64 
L 371.159013 7.2 
" style="fill:none;stroke:#b0b0b0;stroke-linecap:square;stroke-opacity:0.6;stroke-width:0.8;"/>
     </g>
     <g id="line2d_22">
      <g>
       <use style="stroke:#000000;stroke-width:0.8;" x="371.159013" xlink:href="#m41337241b0" y="224.64"/>
      </g>
     </g>
     <g id="text_11">
      <!-- May. -->
      <g transform="translate(359.243388 239.238438)scale(0.1 -0.1)">
       <use xlink:href="#DejaVuSans-77"/>
       <use x="86.279297" xlink:href="#DejaVuSans-97"/>
       <use x="147.558594" xlink:href="#DejaVuSans-121"/>
       <use x="206.519531" xlink:href="#DejaVuSans-46"/>
      </g>
      <!-- 19 -->
      <defs>
       <path d="M 10.984375 1.515625 
L 10.984375 10.5 
Q 14.703125 8.734375 18.5 7.8125 
Q 22.3125 6.890625 25.984375 6.890625 
Q 35.75 6.890625 40.890625 13.453125 
Q 46.046875 20.015625 46.78125 33.40625 
Q 43.953125 29.203125 39.59375 26.953125 
Q 35.25 24.703125 29.984375 24.703125 
Q 19.046875 24.703125 12.671875 31.3125 
Q 6.296875 37.9375 6.296875 49.421875 
Q 6.296875 60.640625 12.9375 67.421875 
Q 19.578125 74.21875 30.609375 74.21875 
Q 43.265625 74.21875 49.921875 64.515625 
Q 56.59375 54.828125 56.59375 36.375 
Q 56.59375 19.140625 48.40625 8.859375 
Q 40.234375 -1.421875 26.421875 -1.421875 
Q 22.703125 -1.421875 18.890625 -0.6875 
Q 15.09375 0.046875 10.984375 1.515625 
z
M 30.609375 32.421875 
Q 37.25 32.421875 41.125 36.953125 
Q 45.015625 41.5 45.015625 49.421875 
Q 45.015625 57.28125 41.125 61.84375 
Q 37.25 66.40625 30.609375 66.40625 
Q 23.96875 66.40625 20.09375 61.84375 
Q 16.21875 57.28125 16.21875 49.421875 
Q 16.21875 41.5 20.09375 36.953125 
Q 23.96875 32.421875 30.609375 32.421875 
z
" id="DejaVuSans-57"/>
      </defs>
      <g transform="translate(364.796513 250.43625)scale(0.1 -0.1)">
       <use xlink:href="#DejaVuSans-49"/>
       <use x="63.623047" xlink:href="#DejaVuSans-57"/>
      </g>
     </g>
    </g>
   </g>
   <g id="matplotlib.axis_2">
    <g id="ytick_1">
     <g id="line2d_23">
      <path clip-path="url(#pd60491f592)" d="M 46.965625 202.291241 
L 381.765625 202.291241 
" style="fill:none;stroke:#b0b0b0;stroke-linecap:square;stroke-opacity:0.6;stroke-width:0.8;"/>
     </g>
     <g id="line2d_24">
      <defs>
       <path d="M 0 0 
L -3.5 0 
" id="ma82c104d9b" style="stroke:#000000;stroke-width:0.8;"/>
      </defs>
      <g>
       <use style="stroke:#000000;stroke-width:0.8;" x="46.965625" xlink:href="#ma82c104d9b" y="202.291241"/>
      </g>
     </g>
     <g id="text_12">
      <!-- 1 -->
      <g transform="translate(33.603125 206.09046)scale(0.1 -0.1)">
       <use xlink:href="#DejaVuSans-49"/>
      </g>
     </g>
    </g>
    <g id="ytick_2">
     <g id="line2d_25">
      <path clip-path="url(#pd60491f592)" d="M 46.965625 182.222844 
L 381.765625 182.222844 
" style="fill:none;stroke:#b0b0b0;stroke-linecap:square;stroke-opacity:0.6;stroke-width:0.8;"/>
     </g>
     <g id="line2d_26">
      <g>
       <use style="stroke:#000000;stroke-width:0.8;" x="46.965625" xlink:href="#ma82c104d9b" y="182.222844"/>
      </g>
     </g>
     <g id="text_13">
      <!-- 2 -->
      <g transform="translate(33.603125 186.022062)scale(0.1 -0.1)">
       <use xlink:href="#DejaVuSans-50"/>
      </g>
     </g>
    </g>
    <g id="ytick_3">
     <g id="line2d_27">
      <path clip-path="url(#pd60491f592)" d="M 46.965625 155.693865 
L 381.765625 155.693865 
" style="fill:none;stroke:#b0b0b0;stroke-linecap:square;stroke-opacity:0.6;stroke-width:0.8;"/>
     </g>
     <g id="line2d_28">
      <g>
       <use style="stroke:#000000;stroke-width:0.8;" x="46.965625" xlink:href="#ma82c104d9b" y="155.693865"/>
      </g>
     </g>
     <g id="text_14">
      <!-- 5 -->
      <g transform="translate(33.603125 159.493083)scale(0.1 -0.1)">
       <use xlink:href="#DejaVuSans-53"/>
      </g>
     </g>
    </g>
    <g id="ytick_4">
     <g id="line2d_29">
      <path clip-path="url(#pd60491f592)" d="M 46.965625 135.625467 
L 381.765625 135.625467 
" style="fill:none;stroke:#b0b0b0;stroke-linecap:square;stroke-opacity:0.6;stroke-width:0.8;"/>
     </g>
     <g id="line2d_30">
      <g>
       <use style="stroke:#000000;stroke-width:0.8;" x="46.965625" xlink:href="#ma82c104d9b" y="135.625467"/>
      </g>
     </g>
     <g id="text_15">
      <!-- 10 -->
      <g transform="translate(27.240625 139.424686)scale(0.1 -0.1)">
       <use xlink:href="#DejaVuSans-49"/>
       <use x="63.623047" xlink:href="#DejaVuSans-48"/>
      </g>
     </g>
    </g>
    <g id="ytick_5">
     <g id="line2d_31">
      <path clip-path="url(#pd60491f592)" d="M 46.965625 115.557069 
L 381.765625 115.557069 
" style="fill:none;stroke:#b0b0b0;stroke-linecap:square;stroke-opacity:0.6;stroke-width:0.8;"/>
     </g>
     <g id="line2d_32">
      <g>
       <use style="stroke:#000000;stroke-width:0.8;" x="46.965625" xlink:href="#ma82c104d9b" y="115.557069"/>
      </g>
     </g>
     <g id="text_16">
      <!-- 20 -->
      <g transform="translate(27.240625 119.356288)scale(0.1 -0.1)">
       <use xlink:href="#DejaVuSans-50"/>
       <use x="63.623047" xlink:href="#DejaVuSans-48"/>
      </g>
     </g>
    </g>
    <g id="ytick_6">
     <g id="line2d_33">
      <path clip-path="url(#pd60491f592)" d="M 46.965625 89.02809 
L 381.765625 89.02809 
" style="fill:none;stroke:#b0b0b0;stroke-linecap:square;stroke-opacity:0.6;stroke-width:0.8;"/>
     </g>
     <g id="line2d_34">
      <g>
       <use style="stroke:#000000;stroke-width:0.8;" x="46.965625" xlink:href="#ma82c104d9b" y="89.02809"/>
      </g>
     </g>
     <g id="text_17">
      <!-- 50 -->
      <g transform="translate(27.240625 92.827309)scale(0.1 -0.1)">
       <use xlink:href="#DejaVuSans-53"/>
       <use x="63.623047" xlink:href="#DejaVuSans-48"/>
      </g>
     </g>
    </g>
    <g id="ytick_7">
     <g id="line2d_35">
      <path clip-path="url(#pd60491f592)" d="M 46.965625 68.959692 
L 381.765625 68.959692 
" style="fill:none;stroke:#b0b0b0;stroke-linecap:square;stroke-opacity:0.6;stroke-width:0.8;"/>
     </g>
     <g id="line2d_36">
      <g>
       <use style="stroke:#000000;stroke-width:0.8;" x="46.965625" xlink:href="#ma82c104d9b" y="68.959692"/>
      </g>
     </g>
     <g id="text_18">
      <!-- 100 -->
      <g transform="translate(20.878125 72.758911)scale(0.1 -0.1)">
       <use xlink:href="#DejaVuSans-49"/>
       <use x="63.623047" xlink:href="#DejaVuSans-48"/>
       <use x="127.246094" xlink:href="#DejaVuSans-48"/>
      </g>
     </g>
    </g>
    <g id="ytick_8">
     <g id="line2d_37">
      <path clip-path="url(#pd60491f592)" d="M 46.965625 48.891294 
L 381.765625 48.891294 
" style="fill:none;stroke:#b0b0b0;stroke-linecap:square;stroke-opacity:0.6;stroke-width:0.8;"/>
     </g>
     <g id="line2d_38">
      <g>
       <use style="stroke:#000000;stroke-width:0.8;" x="46.965625" xlink:href="#ma82c104d9b" y="48.891294"/>
      </g>
     </g>
     <g id="text_19">
      <!-- 200 -->
      <g transform="translate(20.878125 52.690513)scale(0.1 -0.1)">
       <use xlink:href="#DejaVuSans-50"/>
       <use x="63.623047" xlink:href="#DejaVuSans-48"/>
       <use x="127.246094" xlink:href="#DejaVuSans-48"/>
      </g>
     </g>
    </g>
    <g id="ytick_9">
     <g id="line2d_39">
      <path clip-path="url(#pd60491f592)" d="M 46.965625 22.362315 
L 381.765625 22.362315 
" style="fill:none;stroke:#b0b0b0;stroke-linecap:square;stroke-opacity:0.6;stroke-width:0.8;"/>
     </g>
     <g id="line2d_40">
      <g>
       <use style="stroke:#000000;stroke-width:0.8;" x="46.965625" xlink:href="#ma82c104d9b" y="22.362315"/>
      </g>
     </g>
     <g id="text_20">
      <!-- 500 -->
      <g transform="translate(20.878125 26.161534)scale(0.1 -0.1)">
       <use xlink:href="#DejaVuSans-53"/>
       <use x="63.623047" xlink:href="#DejaVuSans-48"/>
       <use x="127.246094" xlink:href="#DejaVuSans-48"/>
      </g>
     </g>
    </g>
    <g id="ytick_10">
     <g id="line2d_41">
      <defs>
       <path d="M 0 0 
L -2 0 
" id="m3100a4effa" style="stroke:#000000;stroke-width:0.6;"/>
      </defs>
      <g>
       <use style="stroke:#000000;stroke-width:0.6;" x="46.965625" xlink:href="#m3100a4effa" y="222.359639"/>
      </g>
     </g>
    </g>
    <g id="ytick_11">
     <g id="line2d_42">
      <g>
       <use style="stroke:#000000;stroke-width:0.6;" x="46.965625" xlink:href="#m3100a4effa" y="217.08096"/>
      </g>
     </g>
    </g>
    <g id="ytick_12">
     <g id="line2d_43">
      <g>
       <use style="stroke:#000000;stroke-width:0.6;" x="46.965625" xlink:href="#m3100a4effa" y="212.617901"/>
      </g>
     </g>
    </g>
    <g id="ytick_13">
     <g id="line2d_44">
      <g>
       <use style="stroke:#000000;stroke-width:0.6;" x="46.965625" xlink:href="#m3100a4effa" y="208.751822"/>
      </g>
     </g>
    </g>
    <g id="ytick_14">
     <g id="line2d_45">
      <g>
       <use style="stroke:#000000;stroke-width:0.6;" x="46.965625" xlink:href="#m3100a4effa" y="205.3417"/>
      </g>
     </g>
    </g>
    <g id="ytick_15">
     <g id="line2d_46">
      <g>
       <use style="stroke:#000000;stroke-width:0.6;" x="46.965625" xlink:href="#m3100a4effa" y="170.483583"/>
      </g>
     </g>
    </g>
    <g id="ytick_16">
     <g id="line2d_47">
      <g>
       <use style="stroke:#000000;stroke-width:0.6;" x="46.965625" xlink:href="#m3100a4effa" y="162.154446"/>
      </g>
     </g>
    </g>
    <g id="ytick_17">
     <g id="line2d_48">
      <g>
       <use style="stroke:#000000;stroke-width:0.6;" x="46.965625" xlink:href="#m3100a4effa" y="150.415186"/>
      </g>
     </g>
    </g>
    <g id="ytick_18">
     <g id="line2d_49">
      <g>
       <use style="stroke:#000000;stroke-width:0.6;" x="46.965625" xlink:href="#m3100a4effa" y="145.952126"/>
      </g>
     </g>
    </g>
    <g id="ytick_19">
     <g id="line2d_50">
      <g>
       <use style="stroke:#000000;stroke-width:0.6;" x="46.965625" xlink:href="#m3100a4effa" y="142.086048"/>
      </g>
     </g>
    </g>
    <g id="ytick_20">
     <g id="line2d_51">
      <g>
       <use style="stroke:#000000;stroke-width:0.6;" x="46.965625" xlink:href="#m3100a4effa" y="138.675925"/>
      </g>
     </g>
    </g>
    <g id="ytick_21">
     <g id="line2d_52">
      <g>
       <use style="stroke:#000000;stroke-width:0.6;" x="46.965625" xlink:href="#m3100a4effa" y="103.817809"/>
      </g>
     </g>
    </g>
    <g id="ytick_22">
     <g id="line2d_53">
      <g>
       <use style="stroke:#000000;stroke-width:0.6;" x="46.965625" xlink:href="#m3100a4effa" y="95.488671"/>
      </g>
     </g>
    </g>
    <g id="ytick_23">
     <g id="line2d_54">
      <g>
       <use style="stroke:#000000;stroke-width:0.6;" x="46.965625" xlink:href="#m3100a4effa" y="83.749411"/>
      </g>
     </g>
    </g>
    <g id="ytick_24">
     <g id="line2d_55">
      <g>
       <use style="stroke:#000000;stroke-width:0.6;" x="46.965625" xlink:href="#m3100a4effa" y="79.286351"/>
      </g>
     </g>
    </g>
    <g id="ytick_25">
     <g id="line2d_56">
      <g>
       <use style="stroke:#000000;stroke-width:0.6;" x="46.965625" xlink:href="#m3100a4effa" y="75.420273"/>
      </g>
     </g>
    </g>
    <g id="ytick_26">
     <g id="line2d_57">
      <g>
       <use style="stroke:#000000;stroke-width:0.6;" x="46.965625" xlink:href="#m3100a4effa" y="72.010151"/>
      </g>
     </g>
    </g>
    <g id="ytick_27">
     <g id="line2d_58">
      <g>
       <use style="stroke:#000000;stroke-width:0.6;" x="46.965625" xlink:href="#m3100a4effa" y="37.152034"/>
      </g>
     </g>
    </g>
    <g id="ytick_28">
     <g id="line2d_59">
      <g>
       <use style="stroke:#000000;stroke-width:0.6;" x="46.965625" xlink:href="#m3100a4effa" y="28.822897"/>
      </g>
     </g>
    </g>
    <g id="ytick_29">
     <g id="line2d_60">
      <g>
       <use style="stroke:#000000;stroke-width:0.6;" x="46.965625" xlink:href="#m3100a4effa" y="17.083636"/>
      </g>
     </g>
    </g>
    <g id="ytick_30">
     <g id="line2d_61">
      <g>
       <use style="stroke:#000000;stroke-width:0.6;" x="46.965625" xlink:href="#m3100a4effa" y="12.620577"/>
      </g>
     </g>
    </g>
    <g id="ytick_31">
     <g id="line2d_62">
      <g>
       <use style="stroke:#000000;stroke-width:0.6;" x="46.965625" xlink:href="#m3100a4effa" y="8.754499"/>
      </g>
     </g>
    </g>
    <g id="text_21">
     <!-- New cases per day (per capita) -->
     <defs>
      <path d="M 9.8125 72.90625 
L 23.09375 72.90625 
L 55.421875 11.921875 
L 55.421875 72.90625 
L 64.984375 72.90625 
L 64.984375 0 
L 51.703125 0 
L 19.390625 60.984375 
L 19.390625 0 
L 9.8125 0 
z
" id="DejaVuSans-78"/>
      <path d="M 56.203125 29.59375 
L 56.203125 25.203125 
L 14.890625 25.203125 
Q 15.484375 15.921875 20.484375 11.0625 
Q 25.484375 6.203125 34.421875 6.203125 
Q 39.59375 6.203125 44.453125 7.46875 
Q 49.3125 8.734375 54.109375 11.28125 
L 54.109375 2.78125 
Q 49.265625 0.734375 44.1875 -0.34375 
Q 39.109375 -1.421875 33.890625 -1.421875 
Q 20.796875 -1.421875 13.15625 6.1875 
Q 5.515625 13.8125 5.515625 26.8125 
Q 5.515625 40.234375 12.765625 48.109375 
Q 20.015625 56 32.328125 56 
Q 43.359375 56 49.78125 48.890625 
Q 56.203125 41.796875 56.203125 29.59375 
z
M 47.21875 32.234375 
Q 47.125 39.59375 43.09375 43.984375 
Q 39.0625 48.390625 32.421875 48.390625 
Q 24.90625 48.390625 20.390625 44.140625 
Q 15.875 39.890625 15.1875 32.171875 
z
" id="DejaVuSans-101"/>
      <path d="M 4.203125 54.6875 
L 13.1875 54.6875 
L 24.421875 12.015625 
L 35.59375 54.6875 
L 46.1875 54.6875 
L 57.421875 12.015625 
L 68.609375 54.6875 
L 77.59375 54.6875 
L 63.28125 0 
L 52.6875 0 
L 40.921875 44.828125 
L 29.109375 0 
L 18.5 0 
z
" id="DejaVuSans-119"/>
      <path id="DejaVuSans-32"/>
      <path d="M 48.78125 52.59375 
L 48.78125 44.1875 
Q 44.96875 46.296875 41.140625 47.34375 
Q 37.3125 48.390625 33.40625 48.390625 
Q 24.65625 48.390625 19.8125 42.84375 
Q 14.984375 37.3125 14.984375 27.296875 
Q 14.984375 17.28125 19.8125 11.734375 
Q 24.65625 6.203125 33.40625 6.203125 
Q 37.3125 6.203125 41.140625 7.25 
Q 44.96875 8.296875 48.78125 10.40625 
L 48.78125 2.09375 
Q 45.015625 0.34375 40.984375 -0.53125 
Q 36.96875 -1.421875 32.421875 -1.421875 
Q 20.0625 -1.421875 12.78125 6.34375 
Q 5.515625 14.109375 5.515625 27.296875 
Q 5.515625 40.671875 12.859375 48.328125 
Q 20.21875 56 33.015625 56 
Q 37.15625 56 41.109375 55.140625 
Q 45.0625 54.296875 48.78125 52.59375 
z
" id="DejaVuSans-99"/>
      <path d="M 44.28125 53.078125 
L 44.28125 44.578125 
Q 40.484375 46.53125 36.375 47.5 
Q 32.28125 48.484375 27.875 48.484375 
Q 21.1875 48.484375 17.84375 46.4375 
Q 14.5 44.390625 14.5 40.28125 
Q 14.5 37.15625 16.890625 35.375 
Q 19.28125 33.59375 26.515625 31.984375 
L 29.59375 31.296875 
Q 39.15625 29.25 43.1875 25.515625 
Q 47.21875 21.78125 47.21875 15.09375 
Q 47.21875 7.46875 41.1875 3.015625 
Q 35.15625 -1.421875 24.609375 -1.421875 
Q 20.21875 -1.421875 15.453125 -0.5625 
Q 10.6875 0.296875 5.421875 2 
L 5.421875 11.28125 
Q 10.40625 8.6875 15.234375 7.390625 
Q 20.0625 6.109375 24.8125 6.109375 
Q 31.15625 6.109375 34.5625 8.28125 
Q 37.984375 10.453125 37.984375 14.40625 
Q 37.984375 18.0625 35.515625 20.015625 
Q 33.0625 21.96875 24.703125 23.78125 
L 21.578125 24.515625 
Q 13.234375 26.265625 9.515625 29.90625 
Q 5.8125 33.546875 5.8125 39.890625 
Q 5.8125 47.609375 11.28125 51.796875 
Q 16.75 56 26.8125 56 
Q 31.78125 56 36.171875 55.265625 
Q 40.578125 54.546875 44.28125 53.078125 
z
" id="DejaVuSans-115"/>
      <path d="M 45.40625 46.390625 
L 45.40625 75.984375 
L 54.390625 75.984375 
L 54.390625 0 
L 45.40625 0 
L 45.40625 8.203125 
Q 42.578125 3.328125 38.25 0.953125 
Q 33.9375 -1.421875 27.875 -1.421875 
Q 17.96875 -1.421875 11.734375 6.484375 
Q 5.515625 14.40625 5.515625 27.296875 
Q 5.515625 40.1875 11.734375 48.09375 
Q 17.96875 56 27.875 56 
Q 33.9375 56 38.25 53.625 
Q 42.578125 51.265625 45.40625 46.390625 
z
M 14.796875 27.296875 
Q 14.796875 17.390625 18.875 11.75 
Q 22.953125 6.109375 30.078125 6.109375 
Q 37.203125 6.109375 41.296875 11.75 
Q 45.40625 17.390625 45.40625 27.296875 
Q 45.40625 37.203125 41.296875 42.84375 
Q 37.203125 48.484375 30.078125 48.484375 
Q 22.953125 48.484375 18.875 42.84375 
Q 14.796875 37.203125 14.796875 27.296875 
z
" id="DejaVuSans-100"/>
      <path d="M 31 75.875 
Q 24.46875 64.65625 21.28125 53.65625 
Q 18.109375 42.671875 18.109375 31.390625 
Q 18.109375 20.125 21.3125 9.0625 
Q 24.515625 -2 31 -13.1875 
L 23.1875 -13.1875 
Q 15.875 -1.703125 12.234375 9.375 
Q 8.59375 20.453125 8.59375 31.390625 
Q 8.59375 42.28125 12.203125 53.3125 
Q 15.828125 64.359375 23.1875 75.875 
z
" id="DejaVuSans-40"/>
      <path d="M 9.421875 54.6875 
L 18.40625 54.6875 
L 18.40625 0 
L 9.421875 0 
z
M 9.421875 75.984375 
L 18.40625 75.984375 
L 18.40625 64.59375 
L 9.421875 64.59375 
z
" id="DejaVuSans-105"/>
      <path d="M 18.3125 70.21875 
L 18.3125 54.6875 
L 36.8125 54.6875 
L 36.8125 47.703125 
L 18.3125 47.703125 
L 18.3125 18.015625 
Q 18.3125 11.328125 20.140625 9.421875 
Q 21.96875 7.515625 27.59375 7.515625 
L 36.8125 7.515625 
L 36.8125 0 
L 27.59375 0 
Q 17.1875 0 13.234375 3.875 
Q 9.28125 7.765625 9.28125 18.015625 
L 9.28125 47.703125 
L 2.6875 47.703125 
L 2.6875 54.6875 
L 9.28125 54.6875 
L 9.28125 70.21875 
z
" id="DejaVuSans-116"/>
      <path d="M 8.015625 75.875 
L 15.828125 75.875 
Q 23.140625 64.359375 26.78125 53.3125 
Q 30.421875 42.28125 30.421875 31.390625 
Q 30.421875 20.453125 26.78125 9.375 
Q 23.140625 -1.703125 15.828125 -13.1875 
L 8.015625 -13.1875 
Q 14.5 -2 17.703125 9.0625 
Q 20.90625 20.125 20.90625 31.390625 
Q 20.90625 42.671875 17.703125 53.65625 
Q 14.5 64.65625 8.015625 75.875 
z
" id="DejaVuSans-41"/>
     </defs>
     <g transform="translate(14.798438 193.983281)rotate(-90)scale(0.1 -0.1)">
      <use xlink:href="#DejaVuSans-78"/>
      <use x="74.804688" xlink:href="#DejaVuSans-101"/>
      <use x="136.328125" xlink:href="#DejaVuSans-119"/>
      <use x="218.115234" xlink:href="#DejaVuSans-32"/>
      <use x="249.902344" xlink:href="#DejaVuSans-99"/>
      <use x="304.882812" xlink:href="#DejaVuSans-97"/>
      <use x="366.162109" xlink:href="#DejaVuSans-115"/>
      <use x="418.261719" xlink:href="#DejaVuSans-101"/>
      <use x="479.785156" xlink:href="#DejaVuSans-115"/>
      <use x="531.884766" xlink:href="#DejaVuSans-32"/>
      <use x="563.671875" xlink:href="#DejaVuSans-112"/>
      <use x="627.148438" xlink:href="#DejaVuSans-101"/>
      <use x="688.671875" xlink:href="#DejaVuSans-114"/>
      <use x="729.785156" xlink:href="#DejaVuSans-32"/>
      <use x="761.572266" xlink:href="#DejaVuSans-100"/>
      <use x="825.048828" xlink:href="#DejaVuSans-97"/>
      <use x="886.328125" xlink:href="#DejaVuSans-121"/>
      <use x="945.507812" xlink:href="#DejaVuSans-32"/>
      <use x="977.294922" xlink:href="#DejaVuSans-40"/>
      <use x="1016.308594" xlink:href="#DejaVuSans-112"/>
      <use x="1079.785156" xlink:href="#DejaVuSans-101"/>
      <use x="1141.308594" xlink:href="#DejaVuSans-114"/>
      <use x="1182.421875" xlink:href="#DejaVuSans-32"/>
      <use x="1214.208984" xlink:href="#DejaVuSans-99"/>
      <use x="1269.189453" xlink:href="#DejaVuSans-97"/>
      <use x="1330.46875" xlink:href="#DejaVuSans-112"/>
      <use x="1393.945312" xlink:href="#DejaVuSans-105"/>
      <use x="1421.728516" xlink:href="#DejaVuSans-116"/>
      <use x="1460.9375" xlink:href="#DejaVuSans-97"/>
      <use x="1522.216797" xlink:href="#DejaVuSans-41"/>
     </g>
    </g>
   </g>
   <g id="line2d_63">
    <path clip-path="url(#pd60491f592)" d="M 62.183807 160.403048 
L 66.795377 147.073835 
L 71.406947 146.131615 
L 76.018518 138.469742 
L 80.630088 127.7895 
L 85.241658 105.447362 
L 89.853228 86.258131 
L 94.464799 69.45034 
L 99.076369 59.886469 
L 103.687939 50.537471 
L 108.299509 44.072165 
L 112.91108 40.994837 
L 117.52265 36.466029 
L 122.13422 36.096956 
L 126.74579 34.720671 
L 131.357361 32.72619 
L 135.968931 32.267175 
L 140.580501 29.611511 
L 145.192071 29.639564 
L 149.803642 27.329482 
L 154.415212 26.255392 
L 159.026782 24.142709 
L 163.638352 20.055899 
L 168.249923 20.504642 
L 172.861493 23.136914 
L 177.473063 25.994389 
L 182.084633 24.411959 
L 186.696204 21.584404 
L 191.307774 20.492547 
L 195.919344 19.947073 
L 200.530914 22.156022 
L 205.142485 26.673809 
L 209.754055 30.037764 
L 214.365625 26.033784 
L 218.977195 23.777835 
L 223.588765 23.642703 
L 228.200336 28.73902 
L 232.811906 31.914513 
L 237.423476 35.847698 
L 242.035046 40.885518 
L 246.646617 41.919648 
L 251.258187 39.179676 
L 255.869757 32.888438 
L 260.481327 26.482142 
L 265.092898 26.8598 
L 269.704468 32.201594 
L 274.316038 44.948452 
L 278.927608 47.89687 
L 283.539179 46.436373 
L 288.150749 45.113437 
L 292.762319 45.461673 
L 297.373889 47.760577 
L 301.98546 51.187999 
L 306.59703 57.988238 
L 311.2086 61.420444 
L 315.82017 57.8223 
L 320.431741 55.955643 
L 325.043311 56.053954 
L 329.654881 60.837512 
L 334.266451 66.005479 
L 338.878022 72.378837 
L 343.489592 72.462701 
L 348.101162 68.521832 
L 352.712732 62.694578 
L 357.324303 62.447901 
L 361.935873 64.342882 
L 366.547443 71.602168 
" style="fill:none;stroke:#1f77b4;stroke-linecap:square;stroke-width:1.5;"/>
    <defs>
     <path d="M 0 1.5 
C 0.397805 1.5 0.77937 1.341951 1.06066 1.06066 
C 1.341951 0.77937 1.5 0.397805 1.5 0 
C 1.5 -0.397805 1.341951 -0.77937 1.06066 -1.06066 
C 0.77937 -1.341951 0.397805 -1.5 0 -1.5 
C -0.397805 -1.5 -0.77937 -1.341951 -1.06066 -1.06066 
C -1.341951 -0.77937 -1.5 -0.397805 -1.5 0 
C -1.5 0.397805 -1.341951 0.77937 -1.06066 1.06066 
C -0.77937 1.341951 -0.397805 1.5 0 1.5 
z
" id="mac12d1a14f" style="stroke:#1f77b4;"/>
    </defs>
    <g clip-path="url(#pd60491f592)">
     <use style="fill:#1f77b4;stroke:#1f77b4;" x="62.183807" xlink:href="#mac12d1a14f" y="160.403048"/>
     <use style="fill:#1f77b4;stroke:#1f77b4;" x="66.795377" xlink:href="#mac12d1a14f" y="147.073835"/>
     <use style="fill:#1f77b4;stroke:#1f77b4;" x="71.406947" xlink:href="#mac12d1a14f" y="146.131615"/>
     <use style="fill:#1f77b4;stroke:#1f77b4;" x="76.018518" xlink:href="#mac12d1a14f" y="138.469742"/>
     <use style="fill:#1f77b4;stroke:#1f77b4;" x="80.630088" xlink:href="#mac12d1a14f" y="127.7895"/>
     <use style="fill:#1f77b4;stroke:#1f77b4;" x="85.241658" xlink:href="#mac12d1a14f" y="105.447362"/>
     <use style="fill:#1f77b4;stroke:#1f77b4;" x="89.853228" xlink:href="#mac12d1a14f" y="86.258131"/>
     <use style="fill:#1f77b4;stroke:#1f77b4;" x="94.464799" xlink:href="#mac12d1a14f" y="69.45034"/>
     <use style="fill:#1f77b4;stroke:#1f77b4;" x="99.076369" xlink:href="#mac12d1a14f" y="59.886469"/>
     <use style="fill:#1f77b4;stroke:#1f77b4;" x="103.687939" xlink:href="#mac12d1a14f" y="50.537471"/>
     <use style="fill:#1f77b4;stroke:#1f77b4;" x="108.299509" xlink:href="#mac12d1a14f" y="44.072165"/>
     <use style="fill:#1f77b4;stroke:#1f77b4;" x="112.91108" xlink:href="#mac12d1a14f" y="40.994837"/>
     <use style="fill:#1f77b4;stroke:#1f77b4;" x="117.52265" xlink:href="#mac12d1a14f" y="36.466029"/>
     <use style="fill:#1f77b4;stroke:#1f77b4;" x="122.13422" xlink:href="#mac12d1a14f" y="36.096956"/>
     <use style="fill:#1f77b4;stroke:#1f77b4;" x="126.74579" xlink:href="#mac12d1a14f" y="34.720671"/>
     <use style="fill:#1f77b4;stroke:#1f77b4;" x="131.357361" xlink:href="#mac12d1a14f" y="32.72619"/>
     <use style="fill:#1f77b4;stroke:#1f77b4;" x="135.968931" xlink:href="#mac12d1a14f" y="32.267175"/>
     <use style="fill:#1f77b4;stroke:#1f77b4;" x="140.580501" xlink:href="#mac12d1a14f" y="29.611511"/>
     <use style="fill:#1f77b4;stroke:#1f77b4;" x="145.192071" xlink:href="#mac12d1a14f" y="29.639564"/>
     <use style="fill:#1f77b4;stroke:#1f77b4;" x="149.803642" xlink:href="#mac12d1a14f" y="27.329482"/>
     <use style="fill:#1f77b4;stroke:#1f77b4;" x="154.415212" xlink:href="#mac12d1a14f" y="26.255392"/>
     <use style="fill:#1f77b4;stroke:#1f77b4;" x="159.026782" xlink:href="#mac12d1a14f" y="24.142709"/>
     <use style="fill:#1f77b4;stroke:#1f77b4;" x="163.638352" xlink:href="#mac12d1a14f" y="20.055899"/>
     <use style="fill:#1f77b4;stroke:#1f77b4;" x="168.249923" xlink:href="#mac12d1a14f" y="20.504642"/>
     <use style="fill:#1f77b4;stroke:#1f77b4;" x="172.861493" xlink:href="#mac12d1a14f" y="23.136914"/>
     <use style="fill:#1f77b4;stroke:#1f77b4;" x="177.473063" xlink:href="#mac12d1a14f" y="25.994389"/>
     <use style="fill:#1f77b4;stroke:#1f77b4;" x="182.084633" xlink:href="#mac12d1a14f" y="24.411959"/>
     <use style="fill:#1f77b4;stroke:#1f77b4;" x="186.696204" xlink:href="#mac12d1a14f" y="21.584404"/>
     <use style="fill:#1f77b4;stroke:#1f77b4;" x="191.307774" xlink:href="#mac12d1a14f" y="20.492547"/>
     <use style="fill:#1f77b4;stroke:#1f77b4;" x="195.919344" xlink:href="#mac12d1a14f" y="19.947073"/>
     <use style="fill:#1f77b4;stroke:#1f77b4;" x="200.530914" xlink:href="#mac12d1a14f" y="22.156022"/>
     <use style="fill:#1f77b4;stroke:#1f77b4;" x="205.142485" xlink:href="#mac12d1a14f" y="26.673809"/>
     <use style="fill:#1f77b4;stroke:#1f77b4;" x="209.754055" xlink:href="#mac12d1a14f" y="30.037764"/>
     <use style="fill:#1f77b4;stroke:#1f77b4;" x="214.365625" xlink:href="#mac12d1a14f" y="26.033784"/>
     <use style="fill:#1f77b4;stroke:#1f77b4;" x="218.977195" xlink:href="#mac12d1a14f" y="23.777835"/>
     <use style="fill:#1f77b4;stroke:#1f77b4;" x="223.588765" xlink:href="#mac12d1a14f" y="23.642703"/>
     <use style="fill:#1f77b4;stroke:#1f77b4;" x="228.200336" xlink:href="#mac12d1a14f" y="28.73902"/>
     <use style="fill:#1f77b4;stroke:#1f77b4;" x="232.811906" xlink:href="#mac12d1a14f" y="31.914513"/>
     <use style="fill:#1f77b4;stroke:#1f77b4;" x="237.423476" xlink:href="#mac12d1a14f" y="35.847698"/>
     <use style="fill:#1f77b4;stroke:#1f77b4;" x="242.035046" xlink:href="#mac12d1a14f" y="40.885518"/>
     <use style="fill:#1f77b4;stroke:#1f77b4;" x="246.646617" xlink:href="#mac12d1a14f" y="41.919648"/>
     <use style="fill:#1f77b4;stroke:#1f77b4;" x="251.258187" xlink:href="#mac12d1a14f" y="39.179676"/>
     <use style="fill:#1f77b4;stroke:#1f77b4;" x="255.869757" xlink:href="#mac12d1a14f" y="32.888438"/>
     <use style="fill:#1f77b4;stroke:#1f77b4;" x="260.481327" xlink:href="#mac12d1a14f" y="26.482142"/>
     <use style="fill:#1f77b4;stroke:#1f77b4;" x="265.092898" xlink:href="#mac12d1a14f" y="26.8598"/>
     <use style="fill:#1f77b4;stroke:#1f77b4;" x="269.704468" xlink:href="#mac12d1a14f" y="32.201594"/>
     <use style="fill:#1f77b4;stroke:#1f77b4;" x="274.316038" xlink:href="#mac12d1a14f" y="44.948452"/>
     <use style="fill:#1f77b4;stroke:#1f77b4;" x="278.927608" xlink:href="#mac12d1a14f" y="47.89687"/>
     <use style="fill:#1f77b4;stroke:#1f77b4;" x="283.539179" xlink:href="#mac12d1a14f" y="46.436373"/>
     <use style="fill:#1f77b4;stroke:#1f77b4;" x="288.150749" xlink:href="#mac12d1a14f" y="45.113437"/>
     <use style="fill:#1f77b4;stroke:#1f77b4;" x="292.762319" xlink:href="#mac12d1a14f" y="45.461673"/>
     <use style="fill:#1f77b4;stroke:#1f77b4;" x="297.373889" xlink:href="#mac12d1a14f" y="47.760577"/>
     <use style="fill:#1f77b4;stroke:#1f77b4;" x="301.98546" xlink:href="#mac12d1a14f" y="51.187999"/>
     <use style="fill:#1f77b4;stroke:#1f77b4;" x="306.59703" xlink:href="#mac12d1a14f" y="57.988238"/>
     <use style="fill:#1f77b4;stroke:#1f77b4;" x="311.2086" xlink:href="#mac12d1a14f" y="61.420444"/>
     <use style="fill:#1f77b4;stroke:#1f77b4;" x="315.82017" xlink:href="#mac12d1a14f" y="57.8223"/>
     <use style="fill:#1f77b4;stroke:#1f77b4;" x="320.431741" xlink:href="#mac12d1a14f" y="55.955643"/>
     <use style="fill:#1f77b4;stroke:#1f77b4;" x="325.043311" xlink:href="#mac12d1a14f" y="56.053954"/>
     <use style="fill:#1f77b4;stroke:#1f77b4;" x="329.654881" xlink:href="#mac12d1a14f" y="60.837512"/>
     <use style="fill:#1f77b4;stroke:#1f77b4;" x="334.266451" xlink:href="#mac12d1a14f" y="66.005479"/>
     <use style="fill:#1f77b4;stroke:#1f77b4;" x="338.878022" xlink:href="#mac12d1a14f" y="72.378837"/>
     <use style="fill:#1f77b4;stroke:#1f77b4;" x="343.489592" xlink:href="#mac12d1a14f" y="72.462701"/>
     <use style="fill:#1f77b4;stroke:#1f77b4;" x="348.101162" xlink:href="#mac12d1a14f" y="68.521832"/>
     <use style="fill:#1f77b4;stroke:#1f77b4;" x="352.712732" xlink:href="#mac12d1a14f" y="62.694578"/>
     <use style="fill:#1f77b4;stroke:#1f77b4;" x="357.324303" xlink:href="#mac12d1a14f" y="62.447901"/>
     <use style="fill:#1f77b4;stroke:#1f77b4;" x="361.935873" xlink:href="#mac12d1a14f" y="64.342882"/>
     <use style="fill:#1f77b4;stroke:#1f77b4;" x="366.547443" xlink:href="#mac12d1a14f" y="71.602168"/>
    </g>
   </g>
   <g id="line2d_64">
    <path clip-path="url(#pd60491f592)" d="M 62.183807 209.945956 
L 66.795377 201.303814 
L 71.406947 193.209112 
L 76.018518 203.234701 
L 80.630088 200.384607 
L 85.241658 205.303623 
L 89.853228 137.584911 
L 94.464799 121.799182 
L 99.076369 110.767844 
L 103.687939 111.097322 
L 108.299509 108.071726 
L 112.91108 100.613694 
L 117.52265 94.037993 
L 122.13422 87.98468 
L 126.74579 82.699787 
L 131.357361 76.102841 
L 135.968931 72.964706 
L 140.580501 70.376228 
L 145.192071 68.969909 
L 149.803642 62.031872 
L 154.415212 58.613298 
L 159.026782 53.901197 
L 163.638352 54.522483 
L 168.249923 55.061565 
L 172.861493 57.440862 
L 177.473063 56.382824 
L 182.084633 56.627947 
L 186.696204 58.8645 
L 191.307774 62.115671 
L 195.919344 63.378746 
L 200.530914 67.795355 
L 205.142485 70.498262 
L 209.754055 69.008603 
L 214.365625 65.306336 
L 218.977195 63.386717 
L 223.588765 67.897645 
L 228.200336 70.672029 
L 232.811906 77.522245 
L 237.423476 81.025063 
L 242.035046 77.665479 
L 246.646617 73.277107 
L 251.258187 65.943628 
L 255.869757 62.912333 
L 260.481327 66.559664 
L 265.092898 74.211877 
L 269.704468 87.798847 
L 274.316038 79.94596 
L 278.927608 72.964706 
L 283.539179 67.444746 
L 288.150749 67.841806 
L 292.762319 70.600351 
L 297.373889 75.5152 
L 301.98546 87.485644 
L 306.59703 96.884917 
L 311.2086 92.867122 
L 315.82017 85.111874 
L 320.431741 80.864256 
L 325.043311 85.58847 
L 329.654881 89.515906 
L 334.266451 95.282194 
L 338.878022 95.186404 
L 343.489592 95.668556 
L 348.101162 81.201514 
L 352.712732 80.144363 
L 357.324303 79.124457 
L 361.935873 87.761824 
L 366.547443 82.591263 
" style="fill:none;stroke:#ff7f0e;stroke-linecap:square;stroke-width:1.5;"/>
    <defs>
     <path d="M 0 1.5 
C 0.397805 1.5 0.77937 1.341951 1.06066 1.06066 
C 1.341951 0.77937 1.5 0.397805 1.5 0 
C 1.5 -0.397805 1.341951 -0.77937 1.06066 -1.06066 
C 0.77937 -1.341951 0.397805 -1.5 0 -1.5 
C -0.397805 -1.5 -0.77937 -1.341951 -1.06066 -1.06066 
C -1.341951 -0.77937 -1.5 -0.397805 -1.5 0 
C -1.5 0.397805 -1.341951 0.77937 -1.06066 1.06066 
C -0.77937 1.341951 -0.397805 1.5 0 1.5 
z
" id="m3f7fe3442b" style="stroke:#ff7f0e;"/>
    </defs>
    <g clip-path="url(#pd60491f592)">
     <use style="fill:#ff7f0e;stroke:#ff7f0e;" x="62.183807" xlink:href="#m3f7fe3442b" y="209.945956"/>
     <use style="fill:#ff7f0e;stroke:#ff7f0e;" x="66.795377" xlink:href="#m3f7fe3442b" y="201.303814"/>
     <use style="fill:#ff7f0e;stroke:#ff7f0e;" x="71.406947" xlink:href="#m3f7fe3442b" y="193.209112"/>
     <use style="fill:#ff7f0e;stroke:#ff7f0e;" x="76.018518" xlink:href="#m3f7fe3442b" y="203.234701"/>
     <use style="fill:#ff7f0e;stroke:#ff7f0e;" x="80.630088" xlink:href="#m3f7fe3442b" y="200.384607"/>
     <use style="fill:#ff7f0e;stroke:#ff7f0e;" x="85.241658" xlink:href="#m3f7fe3442b" y="205.303623"/>
     <use style="fill:#ff7f0e;stroke:#ff7f0e;" x="89.853228" xlink:href="#m3f7fe3442b" y="137.584911"/>
     <use style="fill:#ff7f0e;stroke:#ff7f0e;" x="94.464799" xlink:href="#m3f7fe3442b" y="121.799182"/>
     <use style="fill:#ff7f0e;stroke:#ff7f0e;" x="99.076369" xlink:href="#m3f7fe3442b" y="110.767844"/>
     <use style="fill:#ff7f0e;stroke:#ff7f0e;" x="103.687939" xlink:href="#m3f7fe3442b" y="111.097322"/>
     <use style="fill:#ff7f0e;stroke:#ff7f0e;" x="108.299509" xlink:href="#m3f7fe3442b" y="108.071726"/>
     <use style="fill:#ff7f0e;stroke:#ff7f0e;" x="112.91108" xlink:href="#m3f7fe3442b" y="100.613694"/>
     <use style="fill:#ff7f0e;stroke:#ff7f0e;" x="117.52265" xlink:href="#m3f7fe3442b" y="94.037993"/>
     <use style="fill:#ff7f0e;stroke:#ff7f0e;" x="122.13422" xlink:href="#m3f7fe3442b" y="87.98468"/>
     <use style="fill:#ff7f0e;stroke:#ff7f0e;" x="126.74579" xlink:href="#m3f7fe3442b" y="82.699787"/>
     <use style="fill:#ff7f0e;stroke:#ff7f0e;" x="131.357361" xlink:href="#m3f7fe3442b" y="76.102841"/>
     <use style="fill:#ff7f0e;stroke:#ff7f0e;" x="135.968931" xlink:href="#m3f7fe3442b" y="72.964706"/>
     <use style="fill:#ff7f0e;stroke:#ff7f0e;" x="140.580501" xlink:href="#m3f7fe3442b" y="70.376228"/>
     <use style="fill:#ff7f0e;stroke:#ff7f0e;" x="145.192071" xlink:href="#m3f7fe3442b" y="68.969909"/>
     <use style="fill:#ff7f0e;stroke:#ff7f0e;" x="149.803642" xlink:href="#m3f7fe3442b" y="62.031872"/>
     <use style="fill:#ff7f0e;stroke:#ff7f0e;" x="154.415212" xlink:href="#m3f7fe3442b" y="58.613298"/>
     <use style="fill:#ff7f0e;stroke:#ff7f0e;" x="159.026782" xlink:href="#m3f7fe3442b" y="53.901197"/>
     <use style="fill:#ff7f0e;stroke:#ff7f0e;" x="163.638352" xlink:href="#m3f7fe3442b" y="54.522483"/>
     <use style="fill:#ff7f0e;stroke:#ff7f0e;" x="168.249923" xlink:href="#m3f7fe3442b" y="55.061565"/>
     <use style="fill:#ff7f0e;stroke:#ff7f0e;" x="172.861493" xlink:href="#m3f7fe3442b" y="57.440862"/>
     <use style="fill:#ff7f0e;stroke:#ff7f0e;" x="177.473063" xlink:href="#m3f7fe3442b" y="56.382824"/>
     <use style="fill:#ff7f0e;stroke:#ff7f0e;" x="182.084633" xlink:href="#m3f7fe3442b" y="56.627947"/>
     <use style="fill:#ff7f0e;stroke:#ff7f0e;" x="186.696204" xlink:href="#m3f7fe3442b" y="58.8645"/>
     <use style="fill:#ff7f0e;stroke:#ff7f0e;" x="191.307774" xlink:href="#m3f7fe3442b" y="62.115671"/>
     <use style="fill:#ff7f0e;stroke:#ff7f0e;" x="195.919344" xlink:href="#m3f7fe3442b" y="63.378746"/>
     <use style="fill:#ff7f0e;stroke:#ff7f0e;" x="200.530914" xlink:href="#m3f7fe3442b" y="67.795355"/>
     <use style="fill:#ff7f0e;stroke:#ff7f0e;" x="205.142485" xlink:href="#m3f7fe3442b" y="70.498262"/>
     <use style="fill:#ff7f0e;stroke:#ff7f0e;" x="209.754055" xlink:href="#m3f7fe3442b" y="69.008603"/>
     <use style="fill:#ff7f0e;stroke:#ff7f0e;" x="214.365625" xlink:href="#m3f7fe3442b" y="65.306336"/>
     <use style="fill:#ff7f0e;stroke:#ff7f0e;" x="218.977195" xlink:href="#m3f7fe3442b" y="63.386717"/>
     <use style="fill:#ff7f0e;stroke:#ff7f0e;" x="223.588765" xlink:href="#m3f7fe3442b" y="67.897645"/>
     <use style="fill:#ff7f0e;stroke:#ff7f0e;" x="228.200336" xlink:href="#m3f7fe3442b" y="70.672029"/>
     <use style="fill:#ff7f0e;stroke:#ff7f0e;" x="232.811906" xlink:href="#m3f7fe3442b" y="77.522245"/>
     <use style="fill:#ff7f0e;stroke:#ff7f0e;" x="237.423476" xlink:href="#m3f7fe3442b" y="81.025063"/>
     <use style="fill:#ff7f0e;stroke:#ff7f0e;" x="242.035046" xlink:href="#m3f7fe3442b" y="77.665479"/>
     <use style="fill:#ff7f0e;stroke:#ff7f0e;" x="246.646617" xlink:href="#m3f7fe3442b" y="73.277107"/>
     <use style="fill:#ff7f0e;stroke:#ff7f0e;" x="251.258187" xlink:href="#m3f7fe3442b" y="65.943628"/>
     <use style="fill:#ff7f0e;stroke:#ff7f0e;" x="255.869757" xlink:href="#m3f7fe3442b" y="62.912333"/>
     <use style="fill:#ff7f0e;stroke:#ff7f0e;" x="260.481327" xlink:href="#m3f7fe3442b" y="66.559664"/>
     <use style="fill:#ff7f0e;stroke:#ff7f0e;" x="265.092898" xlink:href="#m3f7fe3442b" y="74.211877"/>
     <use style="fill:#ff7f0e;stroke:#ff7f0e;" x="269.704468" xlink:href="#m3f7fe3442b" y="87.798847"/>
     <use style="fill:#ff7f0e;stroke:#ff7f0e;" x="274.316038" xlink:href="#m3f7fe3442b" y="79.94596"/>
     <use style="fill:#ff7f0e;stroke:#ff7f0e;" x="278.927608" xlink:href="#m3f7fe3442b" y="72.964706"/>
     <use style="fill:#ff7f0e;stroke:#ff7f0e;" x="283.539179" xlink:href="#m3f7fe3442b" y="67.444746"/>
     <use style="fill:#ff7f0e;stroke:#ff7f0e;" x="288.150749" xlink:href="#m3f7fe3442b" y="67.841806"/>
     <use style="fill:#ff7f0e;stroke:#ff7f0e;" x="292.762319" xlink:href="#m3f7fe3442b" y="70.600351"/>
     <use style="fill:#ff7f0e;stroke:#ff7f0e;" x="297.373889" xlink:href="#m3f7fe3442b" y="75.5152"/>
     <use style="fill:#ff7f0e;stroke:#ff7f0e;" x="301.98546" xlink:href="#m3f7fe3442b" y="87.485644"/>
     <use style="fill:#ff7f0e;stroke:#ff7f0e;" x="306.59703" xlink:href="#m3f7fe3442b" y="96.884917"/>
     <use style="fill:#ff7f0e;stroke:#ff7f0e;" x="311.2086" xlink:href="#m3f7fe3442b" y="92.867122"/>
     <use style="fill:#ff7f0e;stroke:#ff7f0e;" x="315.82017" xlink:href="#m3f7fe3442b" y="85.111874"/>
     <use style="fill:#ff7f0e;stroke:#ff7f0e;" x="320.431741" xlink:href="#m3f7fe3442b" y="80.864256"/>
     <use style="fill:#ff7f0e;stroke:#ff7f0e;" x="325.043311" xlink:href="#m3f7fe3442b" y="85.58847"/>
     <use style="fill:#ff7f0e;stroke:#ff7f0e;" x="329.654881" xlink:href="#m3f7fe3442b" y="89.515906"/>
     <use style="fill:#ff7f0e;stroke:#ff7f0e;" x="334.266451" xlink:href="#m3f7fe3442b" y="95.282194"/>
     <use style="fill:#ff7f0e;stroke:#ff7f0e;" x="338.878022" xlink:href="#m3f7fe3442b" y="95.186404"/>
     <use style="fill:#ff7f0e;stroke:#ff7f0e;" x="343.489592" xlink:href="#m3f7fe3442b" y="95.668556"/>
     <use style="fill:#ff7f0e;stroke:#ff7f0e;" x="348.101162" xlink:href="#m3f7fe3442b" y="81.201514"/>
     <use style="fill:#ff7f0e;stroke:#ff7f0e;" x="352.712732" xlink:href="#m3f7fe3442b" y="80.144363"/>
     <use style="fill:#ff7f0e;stroke:#ff7f0e;" x="357.324303" xlink:href="#m3f7fe3442b" y="79.124457"/>
     <use style="fill:#ff7f0e;stroke:#ff7f0e;" x="361.935873" xlink:href="#m3f7fe3442b" y="87.761824"/>
     <use style="fill:#ff7f0e;stroke:#ff7f0e;" x="366.547443" xlink:href="#m3f7fe3442b" y="82.591263"/>
    </g>
   </g>
   <g id="line2d_65">
    <path clip-path="url(#pd60491f592)" d="M 62.183807 204.831597 
L 66.795377 196.958415 
L 71.406947 191.910435 
L 76.018518 188.629277 
L 80.630088 174.892496 
L 85.241658 160.885327 
L 89.853228 149.545419 
L 94.464799 141.216281 
L 99.076369 135.57132 
L 103.687939 128.0389 
L 108.299509 131.417154 
L 112.91108 131.705241 
L 117.52265 126.306177 
L 122.13422 116.684824 
L 126.74579 108.291132 
L 131.357361 110.29326 
L 135.968931 114.208736 
L 140.580501 116.598783 
L 145.192071 119.110178 
L 149.803642 109.542974 
L 154.415212 107.402167 
L 159.026782 101.637747 
L 163.638352 101.791887 
L 168.249923 103.109338 
L 172.861493 103.818862 
L 177.473063 107.215174 
L 182.084633 105.82033 
L 186.696204 108.550217 
L 191.307774 105.761183 
L 195.919344 107.779815 
L 200.530914 107.843238 
L 205.142485 114.687302 
L 209.754055 116.172375 
L 214.365625 113.121917 
L 218.977195 108.420385 
L 223.588765 105.761183 
L 228.200336 106.479052 
L 232.811906 106.906179 
L 237.423476 107.970502 
L 242.035046 110.15539 
L 246.646617 105.234226 
L 251.258187 102.259293 
L 255.869757 93.982558 
L 260.481327 90.086992 
L 265.092898 89.508262 
L 269.704468 94.41854 
L 274.316038 99.801235 
L 278.927608 99.46652 
L 283.539179 92.562465 
L 288.150749 84.39295 
L 292.762319 81.314259 
L 297.373889 82.086373 
L 301.98546 87.459105 
L 306.59703 87.965947 
L 311.2086 86.991867 
L 315.82017 85.722344 
L 320.431741 84.42121 
L 325.043311 84.028056 
L 329.654881 84.992285 
L 334.266451 90.572436 
L 338.878022 96.359068 
L 343.489592 96.103977 
L 348.101162 89.407323 
L 352.712732 78.949967 
L 357.324303 74.052171 
L 361.935873 77.712881 
L 366.547443 89.206495 
" style="fill:none;stroke:#2ca02c;stroke-linecap:square;stroke-width:1.5;"/>
    <defs>
     <path d="M 0 1.5 
C 0.397805 1.5 0.77937 1.341951 1.06066 1.06066 
C 1.341951 0.77937 1.5 0.397805 1.5 0 
C 1.5 -0.397805 1.341951 -0.77937 1.06066 -1.06066 
C 0.77937 -1.341951 0.397805 -1.5 0 -1.5 
C -0.397805 -1.5 -0.77937 -1.341951 -1.06066 -1.06066 
C -1.341951 -0.77937 -1.5 -0.397805 -1.5 0 
C -1.5 0.397805 -1.341951 0.77937 -1.06066 1.06066 
C -0.77937 1.341951 -0.397805 1.5 0 1.5 
z
" id="mcc003c291f" style="stroke:#2ca02c;"/>
    </defs>
    <g clip-path="url(#pd60491f592)">
     <use style="fill:#2ca02c;stroke:#2ca02c;" x="62.183807" xlink:href="#mcc003c291f" y="204.831597"/>
     <use style="fill:#2ca02c;stroke:#2ca02c;" x="66.795377" xlink:href="#mcc003c291f" y="196.958415"/>
     <use style="fill:#2ca02c;stroke:#2ca02c;" x="71.406947" xlink:href="#mcc003c291f" y="191.910435"/>
     <use style="fill:#2ca02c;stroke:#2ca02c;" x="76.018518" xlink:href="#mcc003c291f" y="188.629277"/>
     <use style="fill:#2ca02c;stroke:#2ca02c;" x="80.630088" xlink:href="#mcc003c291f" y="174.892496"/>
     <use style="fill:#2ca02c;stroke:#2ca02c;" x="85.241658" xlink:href="#mcc003c291f" y="160.885327"/>
     <use style="fill:#2ca02c;stroke:#2ca02c;" x="89.853228" xlink:href="#mcc003c291f" y="149.545419"/>
     <use style="fill:#2ca02c;stroke:#2ca02c;" x="94.464799" xlink:href="#mcc003c291f" y="141.216281"/>
     <use style="fill:#2ca02c;stroke:#2ca02c;" x="99.076369" xlink:href="#mcc003c291f" y="135.57132"/>
     <use style="fill:#2ca02c;stroke:#2ca02c;" x="103.687939" xlink:href="#mcc003c291f" y="128.0389"/>
     <use style="fill:#2ca02c;stroke:#2ca02c;" x="108.299509" xlink:href="#mcc003c291f" y="131.417154"/>
     <use style="fill:#2ca02c;stroke:#2ca02c;" x="112.91108" xlink:href="#mcc003c291f" y="131.705241"/>
     <use style="fill:#2ca02c;stroke:#2ca02c;" x="117.52265" xlink:href="#mcc003c291f" y="126.306177"/>
     <use style="fill:#2ca02c;stroke:#2ca02c;" x="122.13422" xlink:href="#mcc003c291f" y="116.684824"/>
     <use style="fill:#2ca02c;stroke:#2ca02c;" x="126.74579" xlink:href="#mcc003c291f" y="108.291132"/>
     <use style="fill:#2ca02c;stroke:#2ca02c;" x="131.357361" xlink:href="#mcc003c291f" y="110.29326"/>
     <use style="fill:#2ca02c;stroke:#2ca02c;" x="135.968931" xlink:href="#mcc003c291f" y="114.208736"/>
     <use style="fill:#2ca02c;stroke:#2ca02c;" x="140.580501" xlink:href="#mcc003c291f" y="116.598783"/>
     <use style="fill:#2ca02c;stroke:#2ca02c;" x="145.192071" xlink:href="#mcc003c291f" y="119.110178"/>
     <use style="fill:#2ca02c;stroke:#2ca02c;" x="149.803642" xlink:href="#mcc003c291f" y="109.542974"/>
     <use style="fill:#2ca02c;stroke:#2ca02c;" x="154.415212" xlink:href="#mcc003c291f" y="107.402167"/>
     <use style="fill:#2ca02c;stroke:#2ca02c;" x="159.026782" xlink:href="#mcc003c291f" y="101.637747"/>
     <use style="fill:#2ca02c;stroke:#2ca02c;" x="163.638352" xlink:href="#mcc003c291f" y="101.791887"/>
     <use style="fill:#2ca02c;stroke:#2ca02c;" x="168.249923" xlink:href="#mcc003c291f" y="103.109338"/>
     <use style="fill:#2ca02c;stroke:#2ca02c;" x="172.861493" xlink:href="#mcc003c291f" y="103.818862"/>
     <use style="fill:#2ca02c;stroke:#2ca02c;" x="177.473063" xlink:href="#mcc003c291f" y="107.215174"/>
     <use style="fill:#2ca02c;stroke:#2ca02c;" x="182.084633" xlink:href="#mcc003c291f" y="105.82033"/>
     <use style="fill:#2ca02c;stroke:#2ca02c;" x="186.696204" xlink:href="#mcc003c291f" y="108.550217"/>
     <use style="fill:#2ca02c;stroke:#2ca02c;" x="191.307774" xlink:href="#mcc003c291f" y="105.761183"/>
     <use style="fill:#2ca02c;stroke:#2ca02c;" x="195.919344" xlink:href="#mcc003c291f" y="107.779815"/>
     <use style="fill:#2ca02c;stroke:#2ca02c;" x="200.530914" xlink:href="#mcc003c291f" y="107.843238"/>
     <use style="fill:#2ca02c;stroke:#2ca02c;" x="205.142485" xlink:href="#mcc003c291f" y="114.687302"/>
     <use style="fill:#2ca02c;stroke:#2ca02c;" x="209.754055" xlink:href="#mcc003c291f" y="116.172375"/>
     <use style="fill:#2ca02c;stroke:#2ca02c;" x="214.365625" xlink:href="#mcc003c291f" y="113.121917"/>
     <use style="fill:#2ca02c;stroke:#2ca02c;" x="218.977195" xlink:href="#mcc003c291f" y="108.420385"/>
     <use style="fill:#2ca02c;stroke:#2ca02c;" x="223.588765" xlink:href="#mcc003c291f" y="105.761183"/>
     <use style="fill:#2ca02c;stroke:#2ca02c;" x="228.200336" xlink:href="#mcc003c291f" y="106.479052"/>
     <use style="fill:#2ca02c;stroke:#2ca02c;" x="232.811906" xlink:href="#mcc003c291f" y="106.906179"/>
     <use style="fill:#2ca02c;stroke:#2ca02c;" x="237.423476" xlink:href="#mcc003c291f" y="107.970502"/>
     <use style="fill:#2ca02c;stroke:#2ca02c;" x="242.035046" xlink:href="#mcc003c291f" y="110.15539"/>
     <use style="fill:#2ca02c;stroke:#2ca02c;" x="246.646617" xlink:href="#mcc003c291f" y="105.234226"/>
     <use style="fill:#2ca02c;stroke:#2ca02c;" x="251.258187" xlink:href="#mcc003c291f" y="102.259293"/>
     <use style="fill:#2ca02c;stroke:#2ca02c;" x="255.869757" xlink:href="#mcc003c291f" y="93.982558"/>
     <use style="fill:#2ca02c;stroke:#2ca02c;" x="260.481327" xlink:href="#mcc003c291f" y="90.086992"/>
     <use style="fill:#2ca02c;stroke:#2ca02c;" x="265.092898" xlink:href="#mcc003c291f" y="89.508262"/>
     <use style="fill:#2ca02c;stroke:#2ca02c;" x="269.704468" xlink:href="#mcc003c291f" y="94.41854"/>
     <use style="fill:#2ca02c;stroke:#2ca02c;" x="274.316038" xlink:href="#mcc003c291f" y="99.801235"/>
     <use style="fill:#2ca02c;stroke:#2ca02c;" x="278.927608" xlink:href="#mcc003c291f" y="99.46652"/>
     <use style="fill:#2ca02c;stroke:#2ca02c;" x="283.539179" xlink:href="#mcc003c291f" y="92.562465"/>
     <use style="fill:#2ca02c;stroke:#2ca02c;" x="288.150749" xlink:href="#mcc003c291f" y="84.39295"/>
     <use style="fill:#2ca02c;stroke:#2ca02c;" x="292.762319" xlink:href="#mcc003c291f" y="81.314259"/>
     <use style="fill:#2ca02c;stroke:#2ca02c;" x="297.373889" xlink:href="#mcc003c291f" y="82.086373"/>
     <use style="fill:#2ca02c;stroke:#2ca02c;" x="301.98546" xlink:href="#mcc003c291f" y="87.459105"/>
     <use style="fill:#2ca02c;stroke:#2ca02c;" x="306.59703" xlink:href="#mcc003c291f" y="87.965947"/>
     <use style="fill:#2ca02c;stroke:#2ca02c;" x="311.2086" xlink:href="#mcc003c291f" y="86.991867"/>
     <use style="fill:#2ca02c;stroke:#2ca02c;" x="315.82017" xlink:href="#mcc003c291f" y="85.722344"/>
     <use style="fill:#2ca02c;stroke:#2ca02c;" x="320.431741" xlink:href="#mcc003c291f" y="84.42121"/>
     <use style="fill:#2ca02c;stroke:#2ca02c;" x="325.043311" xlink:href="#mcc003c291f" y="84.028056"/>
     <use style="fill:#2ca02c;stroke:#2ca02c;" x="329.654881" xlink:href="#mcc003c291f" y="84.992285"/>
     <use style="fill:#2ca02c;stroke:#2ca02c;" x="334.266451" xlink:href="#mcc003c291f" y="90.572436"/>
     <use style="fill:#2ca02c;stroke:#2ca02c;" x="338.878022" xlink:href="#mcc003c291f" y="96.359068"/>
     <use style="fill:#2ca02c;stroke:#2ca02c;" x="343.489592" xlink:href="#mcc003c291f" y="96.103977"/>
     <use style="fill:#2ca02c;stroke:#2ca02c;" x="348.101162" xlink:href="#mcc003c291f" y="89.407323"/>
     <use style="fill:#2ca02c;stroke:#2ca02c;" x="352.712732" xlink:href="#mcc003c291f" y="78.949967"/>
     <use style="fill:#2ca02c;stroke:#2ca02c;" x="357.324303" xlink:href="#mcc003c291f" y="74.052171"/>
     <use style="fill:#2ca02c;stroke:#2ca02c;" x="361.935873" xlink:href="#mcc003c291f" y="77.712881"/>
     <use style="fill:#2ca02c;stroke:#2ca02c;" x="366.547443" xlink:href="#mcc003c291f" y="89.206495"/>
    </g>
   </g>
   <g id="line2d_66">
    <path clip-path="url(#pd60491f592)" d="M 62.183807 214.756364 
L 66.795377 203.908022 
L 71.406947 189.851319 
L 76.018518 177.379043 
L 80.630088 178.112059 
L 85.241658 175.966442 
L 89.853228 181.245121 
L 94.464799 168.158987 
L 99.076369 165.161217 
L 103.687939 156.595731 
L 108.299509 145.571385 
L 112.91108 144.622035 
L 117.52265 146.552923 
L 122.13422 147.828573 
L 126.74579 141.94759 
L 131.357361 138.537467 
L 135.968931 137.606436 
L 140.580501 134.155621 
L 145.192071 132.419524 
L 149.803642 133.038854 
L 154.415212 136.176388 
L 159.026782 137.242248 
L 163.638352 134.482772 
L 168.249923 131.813165 
L 172.861493 131.219245 
L 177.473063 130.20833 
L 182.084633 128.154094 
L 186.696204 123.634431 
L 191.307774 122.525001 
L 195.919344 121.772944 
L 200.530914 112.274633 
L 205.142485 117.629805 
L 209.754055 122.308127 
L 214.365625 132.573119 
L 218.977195 122.963685 
L 223.588765 112.504721 
L 228.200336 110.425181 
L 232.811906 107.691777 
L 237.423476 110.785741 
L 242.035046 114.250337 
L 246.646617 113.364375 
L 251.258187 105.921199 
L 255.869757 98.118205 
L 260.481327 93.494965 
L 265.092898 96.214533 
L 269.704468 97.515488 
L 274.316038 93.098348 
L 278.927608 82.993125 
L 283.539179 76.146135 
L 288.150749 71.514365 
L 292.762319 70.867456 
L 297.373889 71.928518 
L 301.98546 72.367926 
L 306.59703 70.163243 
L 311.2086 65.358175 
L 315.82017 62.292609 
L 320.431741 60.886482 
L 325.043311 61.225112 
L 329.654881 65.50968 
L 334.266451 68.634497 
L 338.878022 68.75319 
L 343.489592 69.755828 
L 348.101162 69.773423 
L 352.712732 67.882874 
L 357.324303 63.231993 
L 361.935873 60.91239 
L 366.547443 62.265436 
" style="fill:none;stroke:#d62728;stroke-linecap:square;stroke-width:1.5;"/>
    <defs>
     <path d="M 0 1.5 
C 0.397805 1.5 0.77937 1.341951 1.06066 1.06066 
C 1.341951 0.77937 1.5 0.397805 1.5 0 
C 1.5 -0.397805 1.341951 -0.77937 1.06066 -1.06066 
C 0.77937 -1.341951 0.397805 -1.5 0 -1.5 
C -0.397805 -1.5 -0.77937 -1.341951 -1.06066 -1.06066 
C -1.341951 -0.77937 -1.5 -0.397805 -1.5 0 
C -1.5 0.397805 -1.341951 0.77937 -1.06066 1.06066 
C -0.77937 1.341951 -0.397805 1.5 0 1.5 
z
" id="m8641689b98" style="stroke:#d62728;"/>
    </defs>
    <g clip-path="url(#pd60491f592)">
     <use style="fill:#d62728;stroke:#d62728;" x="62.183807" xlink:href="#m8641689b98" y="214.756364"/>
     <use style="fill:#d62728;stroke:#d62728;" x="66.795377" xlink:href="#m8641689b98" y="203.908022"/>
     <use style="fill:#d62728;stroke:#d62728;" x="71.406947" xlink:href="#m8641689b98" y="189.851319"/>
     <use style="fill:#d62728;stroke:#d62728;" x="76.018518" xlink:href="#m8641689b98" y="177.379043"/>
     <use style="fill:#d62728;stroke:#d62728;" x="80.630088" xlink:href="#m8641689b98" y="178.112059"/>
     <use style="fill:#d62728;stroke:#d62728;" x="85.241658" xlink:href="#m8641689b98" y="175.966442"/>
     <use style="fill:#d62728;stroke:#d62728;" x="89.853228" xlink:href="#m8641689b98" y="181.245121"/>
     <use style="fill:#d62728;stroke:#d62728;" x="94.464799" xlink:href="#m8641689b98" y="168.158987"/>
     <use style="fill:#d62728;stroke:#d62728;" x="99.076369" xlink:href="#m8641689b98" y="165.161217"/>
     <use style="fill:#d62728;stroke:#d62728;" x="103.687939" xlink:href="#m8641689b98" y="156.595731"/>
     <use style="fill:#d62728;stroke:#d62728;" x="108.299509" xlink:href="#m8641689b98" y="145.571385"/>
     <use style="fill:#d62728;stroke:#d62728;" x="112.91108" xlink:href="#m8641689b98" y="144.622035"/>
     <use style="fill:#d62728;stroke:#d62728;" x="117.52265" xlink:href="#m8641689b98" y="146.552923"/>
     <use style="fill:#d62728;stroke:#d62728;" x="122.13422" xlink:href="#m8641689b98" y="147.828573"/>
     <use style="fill:#d62728;stroke:#d62728;" x="126.74579" xlink:href="#m8641689b98" y="141.94759"/>
     <use style="fill:#d62728;stroke:#d62728;" x="131.357361" xlink:href="#m8641689b98" y="138.537467"/>
     <use style="fill:#d62728;stroke:#d62728;" x="135.968931" xlink:href="#m8641689b98" y="137.606436"/>
     <use style="fill:#d62728;stroke:#d62728;" x="140.580501" xlink:href="#m8641689b98" y="134.155621"/>
     <use style="fill:#d62728;stroke:#d62728;" x="145.192071" xlink:href="#m8641689b98" y="132.419524"/>
     <use style="fill:#d62728;stroke:#d62728;" x="149.803642" xlink:href="#m8641689b98" y="133.038854"/>
     <use style="fill:#d62728;stroke:#d62728;" x="154.415212" xlink:href="#m8641689b98" y="136.176388"/>
     <use style="fill:#d62728;stroke:#d62728;" x="159.026782" xlink:href="#m8641689b98" y="137.242248"/>
     <use style="fill:#d62728;stroke:#d62728;" x="163.638352" xlink:href="#m8641689b98" y="134.482772"/>
     <use style="fill:#d62728;stroke:#d62728;" x="168.249923" xlink:href="#m8641689b98" y="131.813165"/>
     <use style="fill:#d62728;stroke:#d62728;" x="172.861493" xlink:href="#m8641689b98" y="131.219245"/>
     <use style="fill:#d62728;stroke:#d62728;" x="177.473063" xlink:href="#m8641689b98" y="130.20833"/>
     <use style="fill:#d62728;stroke:#d62728;" x="182.084633" xlink:href="#m8641689b98" y="128.154094"/>
     <use style="fill:#d62728;stroke:#d62728;" x="186.696204" xlink:href="#m8641689b98" y="123.634431"/>
     <use style="fill:#d62728;stroke:#d62728;" x="191.307774" xlink:href="#m8641689b98" y="122.525001"/>
     <use style="fill:#d62728;stroke:#d62728;" x="195.919344" xlink:href="#m8641689b98" y="121.772944"/>
     <use style="fill:#d62728;stroke:#d62728;" x="200.530914" xlink:href="#m8641689b98" y="112.274633"/>
     <use style="fill:#d62728;stroke:#d62728;" x="205.142485" xlink:href="#m8641689b98" y="117.629805"/>
     <use style="fill:#d62728;stroke:#d62728;" x="209.754055" xlink:href="#m8641689b98" y="122.308127"/>
     <use style="fill:#d62728;stroke:#d62728;" x="214.365625" xlink:href="#m8641689b98" y="132.573119"/>
     <use style="fill:#d62728;stroke:#d62728;" x="218.977195" xlink:href="#m8641689b98" y="122.963685"/>
     <use style="fill:#d62728;stroke:#d62728;" x="223.588765" xlink:href="#m8641689b98" y="112.504721"/>
     <use style="fill:#d62728;stroke:#d62728;" x="228.200336" xlink:href="#m8641689b98" y="110.425181"/>
     <use style="fill:#d62728;stroke:#d62728;" x="232.811906" xlink:href="#m8641689b98" y="107.691777"/>
     <use style="fill:#d62728;stroke:#d62728;" x="237.423476" xlink:href="#m8641689b98" y="110.785741"/>
     <use style="fill:#d62728;stroke:#d62728;" x="242.035046" xlink:href="#m8641689b98" y="114.250337"/>
     <use style="fill:#d62728;stroke:#d62728;" x="246.646617" xlink:href="#m8641689b98" y="113.364375"/>
     <use style="fill:#d62728;stroke:#d62728;" x="251.258187" xlink:href="#m8641689b98" y="105.921199"/>
     <use style="fill:#d62728;stroke:#d62728;" x="255.869757" xlink:href="#m8641689b98" y="98.118205"/>
     <use style="fill:#d62728;stroke:#d62728;" x="260.481327" xlink:href="#m8641689b98" y="93.494965"/>
     <use style="fill:#d62728;stroke:#d62728;" x="265.092898" xlink:href="#m8641689b98" y="96.214533"/>
     <use style="fill:#d62728;stroke:#d62728;" x="269.704468" xlink:href="#m8641689b98" y="97.515488"/>
     <use style="fill:#d62728;stroke:#d62728;" x="274.316038" xlink:href="#m8641689b98" y="93.098348"/>
     <use style="fill:#d62728;stroke:#d62728;" x="278.927608" xlink:href="#m8641689b98" y="82.993125"/>
     <use style="fill:#d62728;stroke:#d62728;" x="283.539179" xlink:href="#m8641689b98" y="76.146135"/>
     <use style="fill:#d62728;stroke:#d62728;" x="288.150749" xlink:href="#m8641689b98" y="71.514365"/>
     <use style="fill:#d62728;stroke:#d62728;" x="292.762319" xlink:href="#m8641689b98" y="70.867456"/>
     <use style="fill:#d62728;stroke:#d62728;" x="297.373889" xlink:href="#m8641689b98" y="71.928518"/>
     <use style="fill:#d62728;stroke:#d62728;" x="301.98546" xlink:href="#m8641689b98" y="72.367926"/>
     <use style="fill:#d62728;stroke:#d62728;" x="306.59703" xlink:href="#m8641689b98" y="70.163243"/>
     <use style="fill:#d62728;stroke:#d62728;" x="311.2086" xlink:href="#m8641689b98" y="65.358175"/>
     <use style="fill:#d62728;stroke:#d62728;" x="315.82017" xlink:href="#m8641689b98" y="62.292609"/>
     <use style="fill:#d62728;stroke:#d62728;" x="320.431741" xlink:href="#m8641689b98" y="60.886482"/>
     <use style="fill:#d62728;stroke:#d62728;" x="325.043311" xlink:href="#m8641689b98" y="61.225112"/>
     <use style="fill:#d62728;stroke:#d62728;" x="329.654881" xlink:href="#m8641689b98" y="65.50968"/>
     <use style="fill:#d62728;stroke:#d62728;" x="334.266451" xlink:href="#m8641689b98" y="68.634497"/>
     <use style="fill:#d62728;stroke:#d62728;" x="338.878022" xlink:href="#m8641689b98" y="68.75319"/>
     <use style="fill:#d62728;stroke:#d62728;" x="343.489592" xlink:href="#m8641689b98" y="69.755828"/>
     <use style="fill:#d62728;stroke:#d62728;" x="348.101162" xlink:href="#m8641689b98" y="69.773423"/>
     <use style="fill:#d62728;stroke:#d62728;" x="352.712732" xlink:href="#m8641689b98" y="67.882874"/>
     <use style="fill:#d62728;stroke:#d62728;" x="357.324303" xlink:href="#m8641689b98" y="63.231993"/>
     <use style="fill:#d62728;stroke:#d62728;" x="361.935873" xlink:href="#m8641689b98" y="60.91239"/>
     <use style="fill:#d62728;stroke:#d62728;" x="366.547443" xlink:href="#m8641689b98" y="62.265436"/>
    </g>
   </g>
   <g id="line2d_67">
    <path clip-path="url(#pd60491f592)" d="M 62.183807 211.425247 
L 66.795377 213.3349 
L 71.406947 202.942514 
L 76.018518 199.481374 
L 80.630088 179.823658 
L 85.241658 167.135048 
L 89.853228 158.441305 
L 94.464799 152.965669 
L 99.076369 146.801028 
L 103.687939 139.378306 
L 108.299509 135.017734 
L 112.91108 133.102464 
L 117.52265 123.931121 
L 122.13422 116.323462 
L 126.74579 107.013363 
L 131.357361 101.793284 
L 135.968931 96.778843 
L 140.580501 96.417004 
L 145.192071 94.110271 
L 149.803642 92.852632 
L 154.415212 88.279895 
L 159.026782 86.472158 
L 163.638352 84.462024 
L 168.249923 87.966326 
L 172.861493 87.802191 
L 177.473063 89.205318 
L 182.084633 87.914394 
L 186.696204 89.241509 
L 191.307774 89.034027 
L 195.919344 88.437963 
L 200.530914 90.746601 
L 205.142485 90.603907 
L 209.754055 94.771144 
L 214.365625 94.455077 
L 218.977195 98.521606 
L 223.588765 89.910062 
L 228.200336 91.500164 
L 232.811906 91.34398 
L 237.423476 98.721884 
L 242.035046 97.831345 
L 246.646617 102.903696 
L 251.258187 95.346673 
L 255.869757 94.531054 
L 260.481327 96.02528 
L 265.092898 104.622677 
L 269.704468 109.20147 
L 274.316038 102.730067 
L 278.927608 108.13887 
L 283.539179 110.155029 
L 288.150749 104.591892 
L 292.762319 99.164883 
L 297.373889 97.709798 
L 301.98546 100.482619 
L 306.59703 103.180757 
L 311.2086 103.952871 
L 315.82017 103.847725 
L 320.431741 106.53233 
L 325.043311 102.845704 
L 329.654881 106.401025 
L 334.266451 106.156423 
L 338.878022 103.982983 
L 343.489592 105.785335 
L 348.101162 99.705587 
L 352.712732 99.875015 
L 357.324303 97.444176 
L 361.935873 97.819168 
L 366.547443 98.734447 
" style="fill:none;stroke:#9467bd;stroke-linecap:square;stroke-width:1.5;"/>
    <defs>
     <path d="M 0 1.5 
C 0.397805 1.5 0.77937 1.341951 1.06066 1.06066 
C 1.341951 0.77937 1.5 0.397805 1.5 0 
C 1.5 -0.397805 1.341951 -0.77937 1.06066 -1.06066 
C 0.77937 -1.341951 0.397805 -1.5 0 -1.5 
C -0.397805 -1.5 -0.77937 -1.341951 -1.06066 -1.06066 
C -1.341951 -0.77937 -1.5 -0.397805 -1.5 0 
C -1.5 0.397805 -1.341951 0.77937 -1.06066 1.06066 
C -0.77937 1.341951 -0.397805 1.5 0 1.5 
z
" id="m30e4e673cd" style="stroke:#9467bd;"/>
    </defs>
    <g clip-path="url(#pd60491f592)">
     <use style="fill:#9467bd;stroke:#9467bd;" x="62.183807" xlink:href="#m30e4e673cd" y="211.425247"/>
     <use style="fill:#9467bd;stroke:#9467bd;" x="66.795377" xlink:href="#m30e4e673cd" y="213.3349"/>
     <use style="fill:#9467bd;stroke:#9467bd;" x="71.406947" xlink:href="#m30e4e673cd" y="202.942514"/>
     <use style="fill:#9467bd;stroke:#9467bd;" x="76.018518" xlink:href="#m30e4e673cd" y="199.481374"/>
     <use style="fill:#9467bd;stroke:#9467bd;" x="80.630088" xlink:href="#m30e4e673cd" y="179.823658"/>
     <use style="fill:#9467bd;stroke:#9467bd;" x="85.241658" xlink:href="#m30e4e673cd" y="167.135048"/>
     <use style="fill:#9467bd;stroke:#9467bd;" x="89.853228" xlink:href="#m30e4e673cd" y="158.441305"/>
     <use style="fill:#9467bd;stroke:#9467bd;" x="94.464799" xlink:href="#m30e4e673cd" y="152.965669"/>
     <use style="fill:#9467bd;stroke:#9467bd;" x="99.076369" xlink:href="#m30e4e673cd" y="146.801028"/>
     <use style="fill:#9467bd;stroke:#9467bd;" x="103.687939" xlink:href="#m30e4e673cd" y="139.378306"/>
     <use style="fill:#9467bd;stroke:#9467bd;" x="108.299509" xlink:href="#m30e4e673cd" y="135.017734"/>
     <use style="fill:#9467bd;stroke:#9467bd;" x="112.91108" xlink:href="#m30e4e673cd" y="133.102464"/>
     <use style="fill:#9467bd;stroke:#9467bd;" x="117.52265" xlink:href="#m30e4e673cd" y="123.931121"/>
     <use style="fill:#9467bd;stroke:#9467bd;" x="122.13422" xlink:href="#m30e4e673cd" y="116.323462"/>
     <use style="fill:#9467bd;stroke:#9467bd;" x="126.74579" xlink:href="#m30e4e673cd" y="107.013363"/>
     <use style="fill:#9467bd;stroke:#9467bd;" x="131.357361" xlink:href="#m30e4e673cd" y="101.793284"/>
     <use style="fill:#9467bd;stroke:#9467bd;" x="135.968931" xlink:href="#m30e4e673cd" y="96.778843"/>
     <use style="fill:#9467bd;stroke:#9467bd;" x="140.580501" xlink:href="#m30e4e673cd" y="96.417004"/>
     <use style="fill:#9467bd;stroke:#9467bd;" x="145.192071" xlink:href="#m30e4e673cd" y="94.110271"/>
     <use style="fill:#9467bd;stroke:#9467bd;" x="149.803642" xlink:href="#m30e4e673cd" y="92.852632"/>
     <use style="fill:#9467bd;stroke:#9467bd;" x="154.415212" xlink:href="#m30e4e673cd" y="88.279895"/>
     <use style="fill:#9467bd;stroke:#9467bd;" x="159.026782" xlink:href="#m30e4e673cd" y="86.472158"/>
     <use style="fill:#9467bd;stroke:#9467bd;" x="163.638352" xlink:href="#m30e4e673cd" y="84.462024"/>
     <use style="fill:#9467bd;stroke:#9467bd;" x="168.249923" xlink:href="#m30e4e673cd" y="87.966326"/>
     <use style="fill:#9467bd;stroke:#9467bd;" x="172.861493" xlink:href="#m30e4e673cd" y="87.802191"/>
     <use style="fill:#9467bd;stroke:#9467bd;" x="177.473063" xlink:href="#m30e4e673cd" y="89.205318"/>
     <use style="fill:#9467bd;stroke:#9467bd;" x="182.084633" xlink:href="#m30e4e673cd" y="87.914394"/>
     <use style="fill:#9467bd;stroke:#9467bd;" x="186.696204" xlink:href="#m30e4e673cd" y="89.241509"/>
     <use style="fill:#9467bd;stroke:#9467bd;" x="191.307774" xlink:href="#m30e4e673cd" y="89.034027"/>
     <use style="fill:#9467bd;stroke:#9467bd;" x="195.919344" xlink:href="#m30e4e673cd" y="88.437963"/>
     <use style="fill:#9467bd;stroke:#9467bd;" x="200.530914" xlink:href="#m30e4e673cd" y="90.746601"/>
     <use style="fill:#9467bd;stroke:#9467bd;" x="205.142485" xlink:href="#m30e4e673cd" y="90.603907"/>
     <use style="fill:#9467bd;stroke:#9467bd;" x="209.754055" xlink:href="#m30e4e673cd" y="94.771144"/>
     <use style="fill:#9467bd;stroke:#9467bd;" x="214.365625" xlink:href="#m30e4e673cd" y="94.455077"/>
     <use style="fill:#9467bd;stroke:#9467bd;" x="218.977195" xlink:href="#m30e4e673cd" y="98.521606"/>
     <use style="fill:#9467bd;stroke:#9467bd;" x="223.588765" xlink:href="#m30e4e673cd" y="89.910062"/>
     <use style="fill:#9467bd;stroke:#9467bd;" x="228.200336" xlink:href="#m30e4e673cd" y="91.500164"/>
     <use style="fill:#9467bd;stroke:#9467bd;" x="232.811906" xlink:href="#m30e4e673cd" y="91.34398"/>
     <use style="fill:#9467bd;stroke:#9467bd;" x="237.423476" xlink:href="#m30e4e673cd" y="98.721884"/>
     <use style="fill:#9467bd;stroke:#9467bd;" x="242.035046" xlink:href="#m30e4e673cd" y="97.831345"/>
     <use style="fill:#9467bd;stroke:#9467bd;" x="246.646617" xlink:href="#m30e4e673cd" y="102.903696"/>
     <use style="fill:#9467bd;stroke:#9467bd;" x="251.258187" xlink:href="#m30e4e673cd" y="95.346673"/>
     <use style="fill:#9467bd;stroke:#9467bd;" x="255.869757" xlink:href="#m30e4e673cd" y="94.531054"/>
     <use style="fill:#9467bd;stroke:#9467bd;" x="260.481327" xlink:href="#m30e4e673cd" y="96.02528"/>
     <use style="fill:#9467bd;stroke:#9467bd;" x="265.092898" xlink:href="#m30e4e673cd" y="104.622677"/>
     <use style="fill:#9467bd;stroke:#9467bd;" x="269.704468" xlink:href="#m30e4e673cd" y="109.20147"/>
     <use style="fill:#9467bd;stroke:#9467bd;" x="274.316038" xlink:href="#m30e4e673cd" y="102.730067"/>
     <use style="fill:#9467bd;stroke:#9467bd;" x="278.927608" xlink:href="#m30e4e673cd" y="108.13887"/>
     <use style="fill:#9467bd;stroke:#9467bd;" x="283.539179" xlink:href="#m30e4e673cd" y="110.155029"/>
     <use style="fill:#9467bd;stroke:#9467bd;" x="288.150749" xlink:href="#m30e4e673cd" y="104.591892"/>
     <use style="fill:#9467bd;stroke:#9467bd;" x="292.762319" xlink:href="#m30e4e673cd" y="99.164883"/>
     <use style="fill:#9467bd;stroke:#9467bd;" x="297.373889" xlink:href="#m30e4e673cd" y="97.709798"/>
     <use style="fill:#9467bd;stroke:#9467bd;" x="301.98546" xlink:href="#m30e4e673cd" y="100.482619"/>
     <use style="fill:#9467bd;stroke:#9467bd;" x="306.59703" xlink:href="#m30e4e673cd" y="103.180757"/>
     <use style="fill:#9467bd;stroke:#9467bd;" x="311.2086" xlink:href="#m30e4e673cd" y="103.952871"/>
     <use style="fill:#9467bd;stroke:#9467bd;" x="315.82017" xlink:href="#m30e4e673cd" y="103.847725"/>
     <use style="fill:#9467bd;stroke:#9467bd;" x="320.431741" xlink:href="#m30e4e673cd" y="106.53233"/>
     <use style="fill:#9467bd;stroke:#9467bd;" x="325.043311" xlink:href="#m30e4e673cd" y="102.845704"/>
     <use style="fill:#9467bd;stroke:#9467bd;" x="329.654881" xlink:href="#m30e4e673cd" y="106.401025"/>
     <use style="fill:#9467bd;stroke:#9467bd;" x="334.266451" xlink:href="#m30e4e673cd" y="106.156423"/>
     <use style="fill:#9467bd;stroke:#9467bd;" x="338.878022" xlink:href="#m30e4e673cd" y="103.982983"/>
     <use style="fill:#9467bd;stroke:#9467bd;" x="343.489592" xlink:href="#m30e4e673cd" y="105.785335"/>
     <use style="fill:#9467bd;stroke:#9467bd;" x="348.101162" xlink:href="#m30e4e673cd" y="99.705587"/>
     <use style="fill:#9467bd;stroke:#9467bd;" x="352.712732" xlink:href="#m30e4e673cd" y="99.875015"/>
     <use style="fill:#9467bd;stroke:#9467bd;" x="357.324303" xlink:href="#m30e4e673cd" y="97.444176"/>
     <use style="fill:#9467bd;stroke:#9467bd;" x="361.935873" xlink:href="#m30e4e673cd" y="97.819168"/>
     <use style="fill:#9467bd;stroke:#9467bd;" x="366.547443" xlink:href="#m30e4e673cd" y="98.734447"/>
    </g>
   </g>
   <g id="line2d_68">
    <path clip-path="url(#pd60491f592)" d="M 348.101162 202.291241 
L 348.101162 17.083636 
" style="fill:none;stroke:#2ca02c;stroke-dasharray:5.55,2.4;stroke-dashoffset:0;stroke-width:1.5;"/>
   </g>
   <g id="patch_3">
    <path d="M 46.965625 224.64 
L 46.965625 7.2 
" style="fill:none;stroke:#000000;stroke-linecap:square;stroke-linejoin:miter;stroke-width:0.8;"/>
   </g>
   <g id="patch_4">
    <path d="M 381.765625 224.64 
L 381.765625 7.2 
" style="fill:none;stroke:#000000;stroke-linecap:square;stroke-linejoin:miter;stroke-width:0.8;"/>
   </g>
   <g id="patch_5">
    <path d="M 46.965625 224.64 
L 381.765625 224.64 
" style="fill:none;stroke:#000000;stroke-linecap:square;stroke-linejoin:miter;stroke-width:0.8;"/>
   </g>
   <g id="patch_6">
    <path d="M 46.965625 7.2 
L 381.765625 7.2 
" style="fill:none;stroke:#000000;stroke-linecap:square;stroke-linejoin:miter;stroke-width:0.8;"/>
   </g>
   <g id="legend_1">
    <g id="patch_7">
     <path d="M 275.695312 219.64 
L 374.765625 219.64 
Q 376.765625 219.64 376.765625 217.64 
L 376.765625 119.373438 
Q 376.765625 117.373438 374.765625 117.373438 
L 275.695312 117.373438 
Q 273.695312 117.373438 273.695312 119.373438 
L 273.695312 217.64 
Q 273.695312 219.64 275.695312 219.64 
z
" style="fill:#ffffff;opacity:0.8;stroke:#cccccc;stroke-linejoin:miter;"/>
    </g>
    <g id="line2d_69">
     <path d="M 277.695312 125.471875 
L 297.695312 125.471875 
" style="fill:none;stroke:#1f77b4;stroke-linecap:square;stroke-width:1.5;"/>
    </g>
    <g id="line2d_70">
     <g>
      <use style="fill:#1f77b4;stroke:#1f77b4;" x="287.695312" xlink:href="#mac12d1a14f" y="125.471875"/>
     </g>
    </g>
    <g id="text_22">
     <!-- New York -->
     <defs>
      <path d="M -0.203125 72.90625 
L 10.40625 72.90625 
L 30.609375 42.921875 
L 50.6875 72.90625 
L 61.28125 72.90625 
L 35.5 34.71875 
L 35.5 0 
L 25.59375 0 
L 25.59375 34.71875 
z
" id="DejaVuSans-89"/>
      <path d="M 30.609375 48.390625 
Q 23.390625 48.390625 19.1875 42.75 
Q 14.984375 37.109375 14.984375 27.296875 
Q 14.984375 17.484375 19.15625 11.84375 
Q 23.34375 6.203125 30.609375 6.203125 
Q 37.796875 6.203125 41.984375 11.859375 
Q 46.1875 17.53125 46.1875 27.296875 
Q 46.1875 37.015625 41.984375 42.703125 
Q 37.796875 48.390625 30.609375 48.390625 
z
M 30.609375 56 
Q 42.328125 56 49.015625 48.375 
Q 55.71875 40.765625 55.71875 27.296875 
Q 55.71875 13.875 49.015625 6.21875 
Q 42.328125 -1.421875 30.609375 -1.421875 
Q 18.84375 -1.421875 12.171875 6.21875 
Q 5.515625 13.875 5.515625 27.296875 
Q 5.515625 40.765625 12.171875 48.375 
Q 18.84375 56 30.609375 56 
z
" id="DejaVuSans-111"/>
      <path d="M 9.078125 75.984375 
L 18.109375 75.984375 
L 18.109375 31.109375 
L 44.921875 54.6875 
L 56.390625 54.6875 
L 27.390625 29.109375 
L 57.625 0 
L 45.90625 0 
L 18.109375 26.703125 
L 18.109375 0 
L 9.078125 0 
z
" id="DejaVuSans-107"/>
     </defs>
     <g transform="translate(305.695312 128.971875)scale(0.1 -0.1)">
      <use xlink:href="#DejaVuSans-78"/>
      <use x="74.804688" xlink:href="#DejaVuSans-101"/>
      <use x="136.328125" xlink:href="#DejaVuSans-119"/>
      <use x="218.115234" xlink:href="#DejaVuSans-32"/>
      <use x="249.902344" xlink:href="#DejaVuSans-89"/>
      <use x="310.783203" xlink:href="#DejaVuSans-111"/>
      <use x="371.964844" xlink:href="#DejaVuSans-114"/>
      <use x="413.078125" xlink:href="#DejaVuSans-107"/>
     </g>
    </g>
    <g id="line2d_71">
     <path d="M 277.695312 140.15 
L 297.695312 140.15 
" style="fill:none;stroke:#ff7f0e;stroke-linecap:square;stroke-width:1.5;"/>
    </g>
    <g id="line2d_72">
     <g>
      <use style="fill:#ff7f0e;stroke:#ff7f0e;" x="287.695312" xlink:href="#m3f7fe3442b" y="140.15"/>
     </g>
    </g>
    <g id="text_23">
     <!-- Michigan -->
     <defs>
      <path d="M 54.890625 33.015625 
L 54.890625 0 
L 45.90625 0 
L 45.90625 32.71875 
Q 45.90625 40.484375 42.875 44.328125 
Q 39.84375 48.1875 33.796875 48.1875 
Q 26.515625 48.1875 22.3125 43.546875 
Q 18.109375 38.921875 18.109375 30.90625 
L 18.109375 0 
L 9.078125 0 
L 9.078125 75.984375 
L 18.109375 75.984375 
L 18.109375 46.1875 
Q 21.34375 51.125 25.703125 53.5625 
Q 30.078125 56 35.796875 56 
Q 45.21875 56 50.046875 50.171875 
Q 54.890625 44.34375 54.890625 33.015625 
z
" id="DejaVuSans-104"/>
      <path d="M 45.40625 27.984375 
Q 45.40625 37.75 41.375 43.109375 
Q 37.359375 48.484375 30.078125 48.484375 
Q 22.859375 48.484375 18.828125 43.109375 
Q 14.796875 37.75 14.796875 27.984375 
Q 14.796875 18.265625 18.828125 12.890625 
Q 22.859375 7.515625 30.078125 7.515625 
Q 37.359375 7.515625 41.375 12.890625 
Q 45.40625 18.265625 45.40625 27.984375 
z
M 54.390625 6.78125 
Q 54.390625 -7.171875 48.1875 -13.984375 
Q 42 -20.796875 29.203125 -20.796875 
Q 24.46875 -20.796875 20.265625 -20.09375 
Q 16.0625 -19.390625 12.109375 -17.921875 
L 12.109375 -9.1875 
Q 16.0625 -11.328125 19.921875 -12.34375 
Q 23.78125 -13.375 27.78125 -13.375 
Q 36.625 -13.375 41.015625 -8.765625 
Q 45.40625 -4.15625 45.40625 5.171875 
L 45.40625 9.625 
Q 42.625 4.78125 38.28125 2.390625 
Q 33.9375 0 27.875 0 
Q 17.828125 0 11.671875 7.65625 
Q 5.515625 15.328125 5.515625 27.984375 
Q 5.515625 40.671875 11.671875 48.328125 
Q 17.828125 56 27.875 56 
Q 33.9375 56 38.28125 53.609375 
Q 42.625 51.21875 45.40625 46.390625 
L 45.40625 54.6875 
L 54.390625 54.6875 
z
" id="DejaVuSans-103"/>
      <path d="M 54.890625 33.015625 
L 54.890625 0 
L 45.90625 0 
L 45.90625 32.71875 
Q 45.90625 40.484375 42.875 44.328125 
Q 39.84375 48.1875 33.796875 48.1875 
Q 26.515625 48.1875 22.3125 43.546875 
Q 18.109375 38.921875 18.109375 30.90625 
L 18.109375 0 
L 9.078125 0 
L 9.078125 54.6875 
L 18.109375 54.6875 
L 18.109375 46.1875 
Q 21.34375 51.125 25.703125 53.5625 
Q 30.078125 56 35.796875 56 
Q 45.21875 56 50.046875 50.171875 
Q 54.890625 44.34375 54.890625 33.015625 
z
" id="DejaVuSans-110"/>
     </defs>
     <g transform="translate(305.695312 143.65)scale(0.1 -0.1)">
      <use xlink:href="#DejaVuSans-77"/>
      <use x="86.279297" xlink:href="#DejaVuSans-105"/>
      <use x="114.0625" xlink:href="#DejaVuSans-99"/>
      <use x="169.042969" xlink:href="#DejaVuSans-104"/>
      <use x="232.421875" xlink:href="#DejaVuSans-105"/>
      <use x="260.205078" xlink:href="#DejaVuSans-103"/>
      <use x="323.681641" xlink:href="#DejaVuSans-97"/>
      <use x="384.960938" xlink:href="#DejaVuSans-110"/>
     </g>
    </g>
    <g id="line2d_73">
     <path d="M 277.695312 154.828125 
L 297.695312 154.828125 
" style="fill:none;stroke:#2ca02c;stroke-linecap:square;stroke-width:1.5;"/>
    </g>
    <g id="line2d_74">
     <g>
      <use style="fill:#2ca02c;stroke:#2ca02c;" x="287.695312" xlink:href="#mcc003c291f" y="154.828125"/>
     </g>
    </g>
    <g id="text_24">
     <!-- Wisconsin -->
     <defs>
      <path d="M 3.328125 72.90625 
L 13.28125 72.90625 
L 28.609375 11.28125 
L 43.890625 72.90625 
L 54.984375 72.90625 
L 70.3125 11.28125 
L 85.59375 72.90625 
L 95.609375 72.90625 
L 77.296875 0 
L 64.890625 0 
L 49.515625 63.28125 
L 33.984375 0 
L 21.578125 0 
z
" id="DejaVuSans-87"/>
     </defs>
     <g transform="translate(305.695312 158.328125)scale(0.1 -0.1)">
      <use xlink:href="#DejaVuSans-87"/>
      <use x="98.845703" xlink:href="#DejaVuSans-105"/>
      <use x="126.628906" xlink:href="#DejaVuSans-115"/>
      <use x="178.728516" xlink:href="#DejaVuSans-99"/>
      <use x="233.708984" xlink:href="#DejaVuSans-111"/>
      <use x="294.890625" xlink:href="#DejaVuSans-110"/>
      <use x="358.269531" xlink:href="#DejaVuSans-115"/>
      <use x="410.369141" xlink:href="#DejaVuSans-105"/>
      <use x="438.152344" xlink:href="#DejaVuSans-110"/>
     </g>
    </g>
    <g id="line2d_75">
     <path d="M 277.695312 169.50625 
L 297.695312 169.50625 
" style="fill:none;stroke:#d62728;stroke-linecap:square;stroke-width:1.5;"/>
    </g>
    <g id="line2d_76">
     <g>
      <use style="fill:#d62728;stroke:#d62728;" x="287.695312" xlink:href="#m8641689b98" y="169.50625"/>
     </g>
    </g>
    <g id="text_25">
     <!-- Minnesota -->
     <g transform="translate(305.695312 173.00625)scale(0.1 -0.1)">
      <use xlink:href="#DejaVuSans-77"/>
      <use x="86.279297" xlink:href="#DejaVuSans-105"/>
      <use x="114.0625" xlink:href="#DejaVuSans-110"/>
      <use x="177.441406" xlink:href="#DejaVuSans-110"/>
      <use x="240.820312" xlink:href="#DejaVuSans-101"/>
      <use x="302.34375" xlink:href="#DejaVuSans-115"/>
      <use x="354.443359" xlink:href="#DejaVuSans-111"/>
      <use x="415.625" xlink:href="#DejaVuSans-116"/>
      <use x="454.833984" xlink:href="#DejaVuSans-97"/>
     </g>
    </g>
    <g id="line2d_77">
     <path d="M 277.695312 184.184375 
L 297.695312 184.184375 
" style="fill:none;stroke:#9467bd;stroke-linecap:square;stroke-width:1.5;"/>
    </g>
    <g id="line2d_78">
     <g>
      <use style="fill:#9467bd;stroke:#9467bd;" x="287.695312" xlink:href="#m30e4e673cd" y="184.184375"/>
     </g>
    </g>
    <g id="text_26">
     <!-- Florida -->
     <defs>
      <path d="M 9.8125 72.90625 
L 51.703125 72.90625 
L 51.703125 64.59375 
L 19.671875 64.59375 
L 19.671875 43.109375 
L 48.578125 43.109375 
L 48.578125 34.8125 
L 19.671875 34.8125 
L 19.671875 0 
L 9.8125 0 
z
" id="DejaVuSans-70"/>
      <path d="M 9.421875 75.984375 
L 18.40625 75.984375 
L 18.40625 0 
L 9.421875 0 
z
" id="DejaVuSans-108"/>
     </defs>
     <g transform="translate(305.695312 187.684375)scale(0.1 -0.1)">
      <use xlink:href="#DejaVuSans-70"/>
      <use x="57.519531" xlink:href="#DejaVuSans-108"/>
      <use x="85.302734" xlink:href="#DejaVuSans-111"/>
      <use x="146.484375" xlink:href="#DejaVuSans-114"/>
      <use x="187.597656" xlink:href="#DejaVuSans-105"/>
      <use x="215.380859" xlink:href="#DejaVuSans-100"/>
      <use x="278.857422" xlink:href="#DejaVuSans-97"/>
     </g>
    </g>
    <g id="line2d_79">
     <path d="M 277.695312 205.50125 
L 297.695312 205.50125 
" style="fill:none;stroke:#2ca02c;stroke-dasharray:5.55,2.4;stroke-dashoffset:0;stroke-width:1.5;"/>
    </g>
    <g id="line2d_80"/>
    <g id="text_27">
     <!-- Stay at home -->
     <defs>
      <path d="M 53.515625 70.515625 
L 53.515625 60.890625 
Q 47.90625 63.578125 42.921875 64.890625 
Q 37.9375 66.21875 33.296875 66.21875 
Q 25.25 66.21875 20.875 63.09375 
Q 16.5 59.96875 16.5 54.203125 
Q 16.5 49.359375 19.40625 46.890625 
Q 22.3125 44.4375 30.421875 42.921875 
L 36.375 41.703125 
Q 47.40625 39.59375 52.65625 34.296875 
Q 57.90625 29 57.90625 20.125 
Q 57.90625 9.515625 50.796875 4.046875 
Q 43.703125 -1.421875 29.984375 -1.421875 
Q 24.8125 -1.421875 18.96875 -0.25 
Q 13.140625 0.921875 6.890625 3.21875 
L 6.890625 13.375 
Q 12.890625 10.015625 18.65625 8.296875 
Q 24.421875 6.59375 29.984375 6.59375 
Q 38.421875 6.59375 43.015625 9.90625 
Q 47.609375 13.234375 47.609375 19.390625 
Q 47.609375 24.75 44.3125 27.78125 
Q 41.015625 30.8125 33.5 32.328125 
L 27.484375 33.5 
Q 16.453125 35.6875 11.515625 40.375 
Q 6.59375 45.0625 6.59375 53.421875 
Q 6.59375 63.09375 13.40625 68.65625 
Q 20.21875 74.21875 32.171875 74.21875 
Q 37.3125 74.21875 42.625 73.28125 
Q 47.953125 72.359375 53.515625 70.515625 
z
" id="DejaVuSans-83"/>
      <path d="M 52 44.1875 
Q 55.375 50.25 60.0625 53.125 
Q 64.75 56 71.09375 56 
Q 79.640625 56 84.28125 50.015625 
Q 88.921875 44.046875 88.921875 33.015625 
L 88.921875 0 
L 79.890625 0 
L 79.890625 32.71875 
Q 79.890625 40.578125 77.09375 44.375 
Q 74.3125 48.1875 68.609375 48.1875 
Q 61.625 48.1875 57.5625 43.546875 
Q 53.515625 38.921875 53.515625 30.90625 
L 53.515625 0 
L 44.484375 0 
L 44.484375 32.71875 
Q 44.484375 40.625 41.703125 44.40625 
Q 38.921875 48.1875 33.109375 48.1875 
Q 26.21875 48.1875 22.15625 43.53125 
Q 18.109375 38.875 18.109375 30.90625 
L 18.109375 0 
L 9.078125 0 
L 9.078125 54.6875 
L 18.109375 54.6875 
L 18.109375 46.1875 
Q 21.1875 51.21875 25.484375 53.609375 
Q 29.78125 56 35.6875 56 
Q 41.65625 56 45.828125 52.96875 
Q 50 49.953125 52 44.1875 
z
" id="DejaVuSans-109"/>
     </defs>
     <g transform="translate(305.695312 202.3625)scale(0.1 -0.1)">
      <use xlink:href="#DejaVuSans-83"/>
      <use x="63.476562" xlink:href="#DejaVuSans-116"/>
      <use x="102.685547" xlink:href="#DejaVuSans-97"/>
      <use x="163.964844" xlink:href="#DejaVuSans-121"/>
      <use x="223.144531" xlink:href="#DejaVuSans-32"/>
      <use x="254.931641" xlink:href="#DejaVuSans-97"/>
      <use x="316.210938" xlink:href="#DejaVuSans-116"/>
      <use x="355.419922" xlink:href="#DejaVuSans-32"/>
      <use x="387.207031" xlink:href="#DejaVuSans-104"/>
      <use x="450.585938" xlink:href="#DejaVuSans-111"/>
      <use x="511.767578" xlink:href="#DejaVuSans-109"/>
      <use x="609.179688" xlink:href="#DejaVuSans-101"/>
     </g>
     <!-- in WI ends -->
     <defs>
      <path d="M 9.8125 72.90625 
L 19.671875 72.90625 
L 19.671875 0 
L 9.8125 0 
z
" id="DejaVuSans-73"/>
     </defs>
     <g transform="translate(305.695312 213.560313)scale(0.1 -0.1)">
      <use xlink:href="#DejaVuSans-105"/>
      <use x="27.783203" xlink:href="#DejaVuSans-110"/>
      <use x="91.162109" xlink:href="#DejaVuSans-32"/>
      <use x="122.949219" xlink:href="#DejaVuSans-87"/>
      <use x="221.826172" xlink:href="#DejaVuSans-73"/>
      <use x="251.318359" xlink:href="#DejaVuSans-32"/>
      <use x="283.105469" xlink:href="#DejaVuSans-101"/>
      <use x="344.628906" xlink:href="#DejaVuSans-110"/>
      <use x="408.007812" xlink:href="#DejaVuSans-100"/>
      <use x="471.484375" xlink:href="#DejaVuSans-115"/>
     </g>
    </g>
   </g>
  </g>
 </g>
 <defs>
  <clipPath id="pd60491f592">
   <rect height="217.44" width="334.8" x="46.965625" y="7.2"/>
  </clipPath>
 </defs>
</svg>
