<?xml version="1.0" encoding="utf-8" standalone="no"?>
<!DOCTYPE svg PUBLIC "-//W3C//DTD SVG 1.1//EN"
  "http://www.w3.org/Graphics/SVG/1.1/DTD/svg11.dtd">
<!-- Created with matplotlib (https://matplotlib.org/) -->
<svg height="289.409098pt" version="1.1" viewBox="0 0 408.845478 289.409098" width="408.845478pt" xmlns="http://www.w3.org/2000/svg" xmlns:xlink="http://www.w3.org/1999/xlink">
 <defs>
  <style type="text/css">
*{stroke-linecap:butt;stroke-linejoin:round;}
  </style>
 </defs>
 <g id="figure_1">
  <g id="patch_1">
   <path d="M 0 289.409098 
L 408.845478 289.409098 
L 408.845478 0 
L 0 0 
z
" style="fill:#ffffff;"/>
  </g>
  <g id="axes_1">
   <g id="patch_2">
    <path d="M 62.86875 239.758125 
L 397.66875 239.758125 
L 397.66875 22.318125 
L 62.86875 22.318125 
z
" style="fill:#ffffff;"/>
   </g>
   <g id="matplotlib.axis_1">
    <g id="xtick_1">
     <g id="line2d_1">
      <path clip-path="url(#p63d59094bd)" d="M 62.86875 239.758125 
L 62.86875 22.318125 
" style="fill:none;stroke:#b0b0b0;stroke-linecap:square;stroke-opacity:0.8;stroke-width:0.8;"/>
     </g>
     <g id="line2d_2">
      <defs>
       <path d="M 0 0 
L 0 3.5 
" id="mc33dfe75f9" style="stroke:#000000;stroke-width:0.8;"/>
      </defs>
      <g>
       <use style="stroke:#000000;stroke-width:0.8;" x="62.86875" xlink:href="#mc33dfe75f9" y="239.758125"/>
      </g>
     </g>
     <g id="text_1">
      <!-- Mar. -->
      <defs>
       <path d="M 9.8125 72.90625 
L 24.515625 72.90625 
L 43.109375 23.296875 
L 61.8125 72.90625 
L 76.515625 72.90625 
L 76.515625 0 
L 66.890625 0 
L 66.890625 64.015625 
L 48.09375 14.015625 
L 38.1875 14.015625 
L 19.390625 64.015625 
L 19.390625 0 
L 9.8125 0 
z
" id="DejaVuSans-77"/>
       <path d="M 34.28125 27.484375 
Q 23.390625 27.484375 19.1875 25 
Q 14.984375 22.515625 14.984375 16.5 
Q 14.984375 11.71875 18.140625 8.90625 
Q 21.296875 6.109375 26.703125 6.109375 
Q 34.1875 6.109375 38.703125 11.40625 
Q 43.21875 16.703125 43.21875 25.484375 
L 43.21875 27.484375 
z
M 52.203125 31.203125 
L 52.203125 0 
L 43.21875 0 
L 43.21875 8.296875 
Q 40.140625 3.328125 35.546875 0.953125 
Q 30.953125 -1.421875 24.3125 -1.421875 
Q 15.921875 -1.421875 10.953125 3.296875 
Q 6 8.015625 6 15.921875 
Q 6 25.140625 12.171875 29.828125 
Q 18.359375 34.515625 30.609375 34.515625 
L 43.21875 34.515625 
L 43.21875 35.40625 
Q 43.21875 41.609375 39.140625 45 
Q 35.0625 48.390625 27.6875 48.390625 
Q 23 48.390625 18.546875 47.265625 
Q 14.109375 46.140625 10.015625 43.890625 
L 10.015625 52.203125 
Q 14.9375 54.109375 19.578125 55.046875 
Q 24.21875 56 28.609375 56 
Q 40.484375 56 46.34375 49.84375 
Q 52.203125 43.703125 52.203125 31.203125 
z
" id="DejaVuSans-97"/>
       <path d="M 41.109375 46.296875 
Q 39.59375 47.171875 37.8125 47.578125 
Q 36.03125 48 33.890625 48 
Q 26.265625 48 22.1875 43.046875 
Q 18.109375 38.09375 18.109375 28.8125 
L 18.109375 0 
L 9.078125 0 
L 9.078125 54.6875 
L 18.109375 54.6875 
L 18.109375 46.1875 
Q 20.953125 51.171875 25.484375 53.578125 
Q 30.03125 56 36.53125 56 
Q 37.453125 56 38.578125 55.875 
Q 39.703125 55.765625 41.0625 55.515625 
z
" id="DejaVuSans-114"/>
       <path d="M 10.6875 12.40625 
L 21 12.40625 
L 21 0 
L 10.6875 0 
z
" id="DejaVuSans-46"/>
      </defs>
      <g transform="translate(51.853125 254.356563)scale(0.1 -0.1)">
       <use xlink:href="#DejaVuSans-77"/>
       <use x="86.279297" xlink:href="#DejaVuSans-97"/>
       <use x="147.558594" xlink:href="#DejaVuSans-114"/>
       <use x="188.53125" xlink:href="#DejaVuSans-46"/>
      </g>
      <!-- 09 -->
      <defs>
       <path d="M 31.78125 66.40625 
Q 24.171875 66.40625 20.328125 58.90625 
Q 16.5 51.421875 16.5 36.375 
Q 16.5 21.390625 20.328125 13.890625 
Q 24.171875 6.390625 31.78125 6.390625 
Q 39.453125 6.390625 43.28125 13.890625 
Q 47.125 21.390625 47.125 36.375 
Q 47.125 51.421875 43.28125 58.90625 
Q 39.453125 66.40625 31.78125 66.40625 
z
M 31.78125 74.21875 
Q 44.046875 74.21875 50.515625 64.515625 
Q 56.984375 54.828125 56.984375 36.375 
Q 56.984375 17.96875 50.515625 8.265625 
Q 44.046875 -1.421875 31.78125 -1.421875 
Q 19.53125 -1.421875 13.0625 8.265625 
Q 6.59375 17.96875 6.59375 36.375 
Q 6.59375 54.828125 13.0625 64.515625 
Q 19.53125 74.21875 31.78125 74.21875 
z
" id="DejaVuSans-48"/>
       <path d="M 10.984375 1.515625 
L 10.984375 10.5 
Q 14.703125 8.734375 18.5 7.8125 
Q 22.3125 6.890625 25.984375 6.890625 
Q 35.75 6.890625 40.890625 13.453125 
Q 46.046875 20.015625 46.78125 33.40625 
Q 43.953125 29.203125 39.59375 26.953125 
Q 35.25 24.703125 29.984375 24.703125 
Q 19.046875 24.703125 12.671875 31.3125 
Q 6.296875 37.9375 6.296875 49.421875 
Q 6.296875 60.640625 12.9375 67.421875 
Q 19.578125 74.21875 30.609375 74.21875 
Q 43.265625 74.21875 49.921875 64.515625 
Q 56.59375 54.828125 56.59375 36.375 
Q 56.59375 19.140625 48.40625 8.859375 
Q 40.234375 -1.421875 26.421875 -1.421875 
Q 22.703125 -1.421875 18.890625 -0.6875 
Q 15.09375 0.046875 10.984375 1.515625 
z
M 30.609375 32.421875 
Q 37.25 32.421875 41.125 36.953125 
Q 45.015625 41.5 45.015625 49.421875 
Q 45.015625 57.28125 41.125 61.84375 
Q 37.25 66.40625 30.609375 66.40625 
Q 23.96875 66.40625 20.09375 61.84375 
Q 16.21875 57.28125 16.21875 49.421875 
Q 16.21875 41.5 20.09375 36.953125 
Q 23.96875 32.421875 30.609375 32.421875 
z
" id="DejaVuSans-57"/>
      </defs>
      <g transform="translate(56.50625 265.554375)scale(0.1 -0.1)">
       <use xlink:href="#DejaVuSans-48"/>
       <use x="63.623047" xlink:href="#DejaVuSans-57"/>
      </g>
     </g>
    </g>
    <g id="xtick_2">
     <g id="line2d_3">
      <path clip-path="url(#p63d59094bd)" d="M 96.565642 239.758125 
L 96.565642 22.318125 
" style="fill:none;stroke:#b0b0b0;stroke-linecap:square;stroke-opacity:0.8;stroke-width:0.8;"/>
     </g>
     <g id="line2d_4">
      <g>
       <use style="stroke:#000000;stroke-width:0.8;" x="96.565642" xlink:href="#mc33dfe75f9" y="239.758125"/>
      </g>
     </g>
     <g id="text_2">
      <!-- Mar. -->
      <g transform="translate(85.550017 254.356563)scale(0.1 -0.1)">
       <use xlink:href="#DejaVuSans-77"/>
       <use x="86.279297" xlink:href="#DejaVuSans-97"/>
       <use x="147.558594" xlink:href="#DejaVuSans-114"/>
       <use x="188.53125" xlink:href="#DejaVuSans-46"/>
      </g>
      <!-- 13 -->
      <defs>
       <path d="M 12.40625 8.296875 
L 28.515625 8.296875 
L 28.515625 63.921875 
L 10.984375 60.40625 
L 10.984375 69.390625 
L 28.421875 72.90625 
L 38.28125 72.90625 
L 38.28125 8.296875 
L 54.390625 8.296875 
L 54.390625 0 
L 12.40625 0 
z
" id="DejaVuSans-49"/>
       <path d="M 40.578125 39.3125 
Q 47.65625 37.796875 51.625 33 
Q 55.609375 28.21875 55.609375 21.1875 
Q 55.609375 10.40625 48.1875 4.484375 
Q 40.765625 -1.421875 27.09375 -1.421875 
Q 22.515625 -1.421875 17.65625 -0.515625 
Q 12.796875 0.390625 7.625 2.203125 
L 7.625 11.71875 
Q 11.71875 9.328125 16.59375 8.109375 
Q 21.484375 6.890625 26.8125 6.890625 
Q 36.078125 6.890625 40.9375 10.546875 
Q 45.796875 14.203125 45.796875 21.1875 
Q 45.796875 27.640625 41.28125 31.265625 
Q 36.765625 34.90625 28.71875 34.90625 
L 20.21875 34.90625 
L 20.21875 43.015625 
L 29.109375 43.015625 
Q 36.375 43.015625 40.234375 45.921875 
Q 44.09375 48.828125 44.09375 54.296875 
Q 44.09375 59.90625 40.109375 62.90625 
Q 36.140625 65.921875 28.71875 65.921875 
Q 24.65625 65.921875 20.015625 65.03125 
Q 15.375 64.15625 9.8125 62.3125 
L 9.8125 71.09375 
Q 15.4375 72.65625 20.34375 73.4375 
Q 25.25 74.21875 29.59375 74.21875 
Q 40.828125 74.21875 47.359375 69.109375 
Q 53.90625 64.015625 53.90625 55.328125 
Q 53.90625 49.265625 50.4375 45.09375 
Q 46.96875 40.921875 40.578125 39.3125 
z
" id="DejaVuSans-51"/>
      </defs>
      <g transform="translate(90.203142 265.554375)scale(0.1 -0.1)">
       <use xlink:href="#DejaVuSans-49"/>
       <use x="63.623047" xlink:href="#DejaVuSans-51"/>
      </g>
     </g>
    </g>
    <g id="xtick_3">
     <g id="line2d_5">
      <path clip-path="url(#p63d59094bd)" d="M 130.262534 239.758125 
L 130.262534 22.318125 
" style="fill:none;stroke:#b0b0b0;stroke-linecap:square;stroke-opacity:0.8;stroke-width:0.8;"/>
     </g>
     <g id="line2d_6">
      <g>
       <use style="stroke:#000000;stroke-width:0.8;" x="130.262534" xlink:href="#mc33dfe75f9" y="239.758125"/>
      </g>
     </g>
     <g id="text_3">
      <!-- Mar. -->
      <g transform="translate(119.246909 254.356563)scale(0.1 -0.1)">
       <use xlink:href="#DejaVuSans-77"/>
       <use x="86.279297" xlink:href="#DejaVuSans-97"/>
       <use x="147.558594" xlink:href="#DejaVuSans-114"/>
       <use x="188.53125" xlink:href="#DejaVuSans-46"/>
      </g>
      <!-- 17 -->
      <defs>
       <path d="M 8.203125 72.90625 
L 55.078125 72.90625 
L 55.078125 68.703125 
L 28.609375 0 
L 18.3125 0 
L 43.21875 64.59375 
L 8.203125 64.59375 
z
" id="DejaVuSans-55"/>
      </defs>
      <g transform="translate(123.900034 265.554375)scale(0.1 -0.1)">
       <use xlink:href="#DejaVuSans-49"/>
       <use x="63.623047" xlink:href="#DejaVuSans-55"/>
      </g>
     </g>
    </g>
    <g id="xtick_4">
     <g id="line2d_7">
      <path clip-path="url(#p63d59094bd)" d="M 163.959426 239.758125 
L 163.959426 22.318125 
" style="fill:none;stroke:#b0b0b0;stroke-linecap:square;stroke-opacity:0.8;stroke-width:0.8;"/>
     </g>
     <g id="line2d_8">
      <g>
       <use style="stroke:#000000;stroke-width:0.8;" x="163.959426" xlink:href="#mc33dfe75f9" y="239.758125"/>
      </g>
     </g>
     <g id="text_4">
      <!-- Mar. -->
      <g transform="translate(152.943801 254.356563)scale(0.1 -0.1)">
       <use xlink:href="#DejaVuSans-77"/>
       <use x="86.279297" xlink:href="#DejaVuSans-97"/>
       <use x="147.558594" xlink:href="#DejaVuSans-114"/>
       <use x="188.53125" xlink:href="#DejaVuSans-46"/>
      </g>
      <!-- 21 -->
      <defs>
       <path d="M 19.1875 8.296875 
L 53.609375 8.296875 
L 53.609375 0 
L 7.328125 0 
L 7.328125 8.296875 
Q 12.9375 14.109375 22.625 23.890625 
Q 32.328125 33.6875 34.8125 36.53125 
Q 39.546875 41.84375 41.421875 45.53125 
Q 43.3125 49.21875 43.3125 52.78125 
Q 43.3125 58.59375 39.234375 62.25 
Q 35.15625 65.921875 28.609375 65.921875 
Q 23.96875 65.921875 18.8125 64.3125 
Q 13.671875 62.703125 7.8125 59.421875 
L 7.8125 69.390625 
Q 13.765625 71.78125 18.9375 73 
Q 24.125 74.21875 28.421875 74.21875 
Q 39.75 74.21875 46.484375 68.546875 
Q 53.21875 62.890625 53.21875 53.421875 
Q 53.21875 48.921875 51.53125 44.890625 
Q 49.859375 40.875 45.40625 35.40625 
Q 44.1875 33.984375 37.640625 27.21875 
Q 31.109375 20.453125 19.1875 8.296875 
z
" id="DejaVuSans-50"/>
      </defs>
      <g transform="translate(157.596926 265.554375)scale(0.1 -0.1)">
       <use xlink:href="#DejaVuSans-50"/>
       <use x="63.623047" xlink:href="#DejaVuSans-49"/>
      </g>
     </g>
    </g>
    <g id="xtick_5">
     <g id="line2d_9">
      <path clip-path="url(#p63d59094bd)" d="M 197.656318 239.758125 
L 197.656318 22.318125 
" style="fill:none;stroke:#b0b0b0;stroke-linecap:square;stroke-opacity:0.8;stroke-width:0.8;"/>
     </g>
     <g id="line2d_10">
      <g>
       <use style="stroke:#000000;stroke-width:0.8;" x="197.656318" xlink:href="#mc33dfe75f9" y="239.758125"/>
      </g>
     </g>
     <g id="text_5">
      <!-- Mar. -->
      <g transform="translate(186.640693 254.356563)scale(0.1 -0.1)">
       <use xlink:href="#DejaVuSans-77"/>
       <use x="86.279297" xlink:href="#DejaVuSans-97"/>
       <use x="147.558594" xlink:href="#DejaVuSans-114"/>
       <use x="188.53125" xlink:href="#DejaVuSans-46"/>
      </g>
      <!-- 25 -->
      <defs>
       <path d="M 10.796875 72.90625 
L 49.515625 72.90625 
L 49.515625 64.59375 
L 19.828125 64.59375 
L 19.828125 46.734375 
Q 21.96875 47.46875 24.109375 47.828125 
Q 26.265625 48.1875 28.421875 48.1875 
Q 40.625 48.1875 47.75 41.5 
Q 54.890625 34.8125 54.890625 23.390625 
Q 54.890625 11.625 47.5625 5.09375 
Q 40.234375 -1.421875 26.90625 -1.421875 
Q 22.3125 -1.421875 17.546875 -0.640625 
Q 12.796875 0.140625 7.71875 1.703125 
L 7.71875 11.625 
Q 12.109375 9.234375 16.796875 8.0625 
Q 21.484375 6.890625 26.703125 6.890625 
Q 35.15625 6.890625 40.078125 11.328125 
Q 45.015625 15.765625 45.015625 23.390625 
Q 45.015625 31 40.078125 35.4375 
Q 35.15625 39.890625 26.703125 39.890625 
Q 22.75 39.890625 18.8125 39.015625 
Q 14.890625 38.140625 10.796875 36.28125 
z
" id="DejaVuSans-53"/>
      </defs>
      <g transform="translate(191.293818 265.554375)scale(0.1 -0.1)">
       <use xlink:href="#DejaVuSans-50"/>
       <use x="63.623047" xlink:href="#DejaVuSans-53"/>
      </g>
     </g>
    </g>
    <g id="xtick_6">
     <g id="line2d_11">
      <path clip-path="url(#p63d59094bd)" d="M 231.35321 239.758125 
L 231.35321 22.318125 
" style="fill:none;stroke:#b0b0b0;stroke-linecap:square;stroke-opacity:0.8;stroke-width:0.8;"/>
     </g>
     <g id="line2d_12">
      <g>
       <use style="stroke:#000000;stroke-width:0.8;" x="231.35321" xlink:href="#mc33dfe75f9" y="239.758125"/>
      </g>
     </g>
     <g id="text_6">
      <!-- Mar. -->
      <g transform="translate(220.337585 254.356563)scale(0.1 -0.1)">
       <use xlink:href="#DejaVuSans-77"/>
       <use x="86.279297" xlink:href="#DejaVuSans-97"/>
       <use x="147.558594" xlink:href="#DejaVuSans-114"/>
       <use x="188.53125" xlink:href="#DejaVuSans-46"/>
      </g>
      <!-- 29 -->
      <g transform="translate(224.99071 265.554375)scale(0.1 -0.1)">
       <use xlink:href="#DejaVuSans-50"/>
       <use x="63.623047" xlink:href="#DejaVuSans-57"/>
      </g>
     </g>
    </g>
    <g id="xtick_7">
     <g id="line2d_13">
      <path clip-path="url(#p63d59094bd)" d="M 256.625879 239.758125 
L 256.625879 22.318125 
" style="fill:none;stroke:#b0b0b0;stroke-linecap:square;stroke-opacity:0.8;stroke-width:0.8;"/>
     </g>
     <g id="line2d_14">
      <g>
       <use style="stroke:#000000;stroke-width:0.8;" x="256.625879" xlink:href="#mc33dfe75f9" y="239.758125"/>
      </g>
     </g>
     <g id="text_7">
      <!-- Apr. -->
      <defs>
       <path d="M 34.1875 63.1875 
L 20.796875 26.90625 
L 47.609375 26.90625 
z
M 28.609375 72.90625 
L 39.796875 72.90625 
L 67.578125 0 
L 57.328125 0 
L 50.6875 18.703125 
L 17.828125 18.703125 
L 11.1875 0 
L 0.78125 0 
z
" id="DejaVuSans-65"/>
       <path d="M 18.109375 8.203125 
L 18.109375 -20.796875 
L 9.078125 -20.796875 
L 9.078125 54.6875 
L 18.109375 54.6875 
L 18.109375 46.390625 
Q 20.953125 51.265625 25.265625 53.625 
Q 29.59375 56 35.59375 56 
Q 45.5625 56 51.78125 48.09375 
Q 58.015625 40.1875 58.015625 27.296875 
Q 58.015625 14.40625 51.78125 6.484375 
Q 45.5625 -1.421875 35.59375 -1.421875 
Q 29.59375 -1.421875 25.265625 0.953125 
Q 20.953125 3.328125 18.109375 8.203125 
z
M 48.6875 27.296875 
Q 48.6875 37.203125 44.609375 42.84375 
Q 40.53125 48.484375 33.40625 48.484375 
Q 26.265625 48.484375 22.1875 42.84375 
Q 18.109375 37.203125 18.109375 27.296875 
Q 18.109375 17.390625 22.1875 11.75 
Q 26.265625 6.109375 33.40625 6.109375 
Q 40.53125 6.109375 44.609375 11.75 
Q 48.6875 17.390625 48.6875 27.296875 
z
" id="DejaVuSans-112"/>
      </defs>
      <g transform="translate(246.393847 254.356563)scale(0.1 -0.1)">
       <use xlink:href="#DejaVuSans-65"/>
       <use x="68.408203" xlink:href="#DejaVuSans-112"/>
       <use x="131.884766" xlink:href="#DejaVuSans-114"/>
       <use x="172.857422" xlink:href="#DejaVuSans-46"/>
      </g>
      <!-- 01 -->
      <g transform="translate(250.263379 265.554375)scale(0.1 -0.1)">
       <use xlink:href="#DejaVuSans-48"/>
       <use x="63.623047" xlink:href="#DejaVuSans-49"/>
      </g>
     </g>
    </g>
    <g id="xtick_8">
     <g id="line2d_15">
      <path clip-path="url(#p63d59094bd)" d="M 290.322771 239.758125 
L 290.322771 22.318125 
" style="fill:none;stroke:#b0b0b0;stroke-linecap:square;stroke-opacity:0.8;stroke-width:0.8;"/>
     </g>
     <g id="line2d_16">
      <g>
       <use style="stroke:#000000;stroke-width:0.8;" x="290.322771" xlink:href="#mc33dfe75f9" y="239.758125"/>
      </g>
     </g>
     <g id="text_8">
      <!-- Apr. -->
      <g transform="translate(280.090739 254.356563)scale(0.1 -0.1)">
       <use xlink:href="#DejaVuSans-65"/>
       <use x="68.408203" xlink:href="#DejaVuSans-112"/>
       <use x="131.884766" xlink:href="#DejaVuSans-114"/>
       <use x="172.857422" xlink:href="#DejaVuSans-46"/>
      </g>
      <!-- 05 -->
      <g transform="translate(283.960271 265.554375)scale(0.1 -0.1)">
       <use xlink:href="#DejaVuSans-48"/>
       <use x="63.623047" xlink:href="#DejaVuSans-53"/>
      </g>
     </g>
    </g>
    <g id="xtick_9">
     <g id="line2d_17">
      <path clip-path="url(#p63d59094bd)" d="M 324.019663 239.758125 
L 324.019663 22.318125 
" style="fill:none;stroke:#b0b0b0;stroke-linecap:square;stroke-opacity:0.8;stroke-width:0.8;"/>
     </g>
     <g id="line2d_18">
      <g>
       <use style="stroke:#000000;stroke-width:0.8;" x="324.019663" xlink:href="#mc33dfe75f9" y="239.758125"/>
      </g>
     </g>
     <g id="text_9">
      <!-- Apr. -->
      <g transform="translate(313.787631 254.356563)scale(0.1 -0.1)">
       <use xlink:href="#DejaVuSans-65"/>
       <use x="68.408203" xlink:href="#DejaVuSans-112"/>
       <use x="131.884766" xlink:href="#DejaVuSans-114"/>
       <use x="172.857422" xlink:href="#DejaVuSans-46"/>
      </g>
      <!-- 09 -->
      <g transform="translate(317.657163 265.554375)scale(0.1 -0.1)">
       <use xlink:href="#DejaVuSans-48"/>
       <use x="63.623047" xlink:href="#DejaVuSans-57"/>
      </g>
     </g>
    </g>
    <g id="xtick_10">
     <g id="line2d_19">
      <path clip-path="url(#p63d59094bd)" d="M 357.716555 239.758125 
L 357.716555 22.318125 
" style="fill:none;stroke:#b0b0b0;stroke-linecap:square;stroke-opacity:0.8;stroke-width:0.8;"/>
     </g>
     <g id="line2d_20">
      <g>
       <use style="stroke:#000000;stroke-width:0.8;" x="357.716555" xlink:href="#mc33dfe75f9" y="239.758125"/>
      </g>
     </g>
     <g id="text_10">
      <!-- Apr. -->
      <g transform="translate(347.484523 254.356563)scale(0.1 -0.1)">
       <use xlink:href="#DejaVuSans-65"/>
       <use x="68.408203" xlink:href="#DejaVuSans-112"/>
       <use x="131.884766" xlink:href="#DejaVuSans-114"/>
       <use x="172.857422" xlink:href="#DejaVuSans-46"/>
      </g>
      <!-- 13 -->
      <g transform="translate(351.354055 265.554375)scale(0.1 -0.1)">
       <use xlink:href="#DejaVuSans-49"/>
       <use x="63.623047" xlink:href="#DejaVuSans-51"/>
      </g>
     </g>
    </g>
    <g id="xtick_11">
     <g id="line2d_21">
      <path clip-path="url(#p63d59094bd)" d="M 391.413447 239.758125 
L 391.413447 22.318125 
" style="fill:none;stroke:#b0b0b0;stroke-linecap:square;stroke-opacity:0.8;stroke-width:0.8;"/>
     </g>
     <g id="line2d_22">
      <g>
       <use style="stroke:#000000;stroke-width:0.8;" x="391.413447" xlink:href="#mc33dfe75f9" y="239.758125"/>
      </g>
     </g>
     <g id="text_11">
      <!-- Apr. -->
      <g transform="translate(381.181415 254.356563)scale(0.1 -0.1)">
       <use xlink:href="#DejaVuSans-65"/>
       <use x="68.408203" xlink:href="#DejaVuSans-112"/>
       <use x="131.884766" xlink:href="#DejaVuSans-114"/>
       <use x="172.857422" xlink:href="#DejaVuSans-46"/>
      </g>
      <!-- 17 -->
      <g transform="translate(385.050947 265.554375)scale(0.1 -0.1)">
       <use xlink:href="#DejaVuSans-49"/>
       <use x="63.623047" xlink:href="#DejaVuSans-55"/>
      </g>
     </g>
    </g>
   </g>
   <g id="matplotlib.axis_2">
    <g id="ytick_1">
     <g id="line2d_23">
      <path clip-path="url(#p63d59094bd)" d="M 62.86875 239.758125 
L 397.66875 239.758125 
" style="fill:none;stroke:#b0b0b0;stroke-linecap:square;stroke-opacity:0.8;stroke-width:0.8;"/>
     </g>
     <g id="line2d_24">
      <defs>
       <path d="M 0 0 
L -3.5 0 
" id="m61bfa1eb9c" style="stroke:#000000;stroke-width:0.8;"/>
      </defs>
      <g>
       <use style="stroke:#000000;stroke-width:0.8;" x="62.86875" xlink:href="#m61bfa1eb9c" y="239.758125"/>
      </g>
     </g>
     <g id="text_12">
      <!-- 2 -->
      <g transform="translate(49.50625 243.557344)scale(0.1 -0.1)">
       <use xlink:href="#DejaVuSans-50"/>
      </g>
     </g>
    </g>
    <g id="ytick_2">
     <g id="line2d_25">
      <path clip-path="url(#p63d59094bd)" d="M 62.86875 220.259182 
L 397.66875 220.259182 
" style="fill:none;stroke:#b0b0b0;stroke-linecap:square;stroke-opacity:0.8;stroke-width:0.8;"/>
     </g>
     <g id="line2d_26">
      <g>
       <use style="stroke:#000000;stroke-width:0.8;" x="62.86875" xlink:href="#m61bfa1eb9c" y="220.259182"/>
      </g>
     </g>
     <g id="text_13">
      <!-- 5 -->
      <g transform="translate(49.50625 224.058401)scale(0.1 -0.1)">
       <use xlink:href="#DejaVuSans-53"/>
      </g>
     </g>
    </g>
    <g id="ytick_3">
     <g id="line2d_27">
      <path clip-path="url(#p63d59094bd)" d="M 62.86875 205.508801 
L 397.66875 205.508801 
" style="fill:none;stroke:#b0b0b0;stroke-linecap:square;stroke-opacity:0.8;stroke-width:0.8;"/>
     </g>
     <g id="line2d_28">
      <g>
       <use style="stroke:#000000;stroke-width:0.8;" x="62.86875" xlink:href="#m61bfa1eb9c" y="205.508801"/>
      </g>
     </g>
     <g id="text_14">
      <!-- 10 -->
      <g transform="translate(43.14375 209.30802)scale(0.1 -0.1)">
       <use xlink:href="#DejaVuSans-49"/>
       <use x="63.623047" xlink:href="#DejaVuSans-48"/>
      </g>
     </g>
    </g>
    <g id="ytick_4">
     <g id="line2d_29">
      <path clip-path="url(#p63d59094bd)" d="M 62.86875 190.75842 
L 397.66875 190.75842 
" style="fill:none;stroke:#b0b0b0;stroke-linecap:square;stroke-opacity:0.8;stroke-width:0.8;"/>
     </g>
     <g id="line2d_30">
      <g>
       <use style="stroke:#000000;stroke-width:0.8;" x="62.86875" xlink:href="#m61bfa1eb9c" y="190.75842"/>
      </g>
     </g>
     <g id="text_15">
      <!-- 20 -->
      <g transform="translate(43.14375 194.557639)scale(0.1 -0.1)">
       <use xlink:href="#DejaVuSans-50"/>
       <use x="63.623047" xlink:href="#DejaVuSans-48"/>
      </g>
     </g>
    </g>
    <g id="ytick_5">
     <g id="line2d_31">
      <path clip-path="url(#p63d59094bd)" d="M 62.86875 171.259477 
L 397.66875 171.259477 
" style="fill:none;stroke:#b0b0b0;stroke-linecap:square;stroke-opacity:0.8;stroke-width:0.8;"/>
     </g>
     <g id="line2d_32">
      <g>
       <use style="stroke:#000000;stroke-width:0.8;" x="62.86875" xlink:href="#m61bfa1eb9c" y="171.259477"/>
      </g>
     </g>
     <g id="text_16">
      <!-- 50 -->
      <g transform="translate(43.14375 175.058696)scale(0.1 -0.1)">
       <use xlink:href="#DejaVuSans-53"/>
       <use x="63.623047" xlink:href="#DejaVuSans-48"/>
      </g>
     </g>
    </g>
    <g id="ytick_6">
     <g id="line2d_33">
      <path clip-path="url(#p63d59094bd)" d="M 62.86875 156.509096 
L 397.66875 156.509096 
" style="fill:none;stroke:#b0b0b0;stroke-linecap:square;stroke-opacity:0.8;stroke-width:0.8;"/>
     </g>
     <g id="line2d_34">
      <g>
       <use style="stroke:#000000;stroke-width:0.8;" x="62.86875" xlink:href="#m61bfa1eb9c" y="156.509096"/>
      </g>
     </g>
     <g id="text_17">
      <!-- 100 -->
      <g transform="translate(36.78125 160.308315)scale(0.1 -0.1)">
       <use xlink:href="#DejaVuSans-49"/>
       <use x="63.623047" xlink:href="#DejaVuSans-48"/>
       <use x="127.246094" xlink:href="#DejaVuSans-48"/>
      </g>
     </g>
    </g>
    <g id="ytick_7">
     <g id="line2d_35">
      <path clip-path="url(#p63d59094bd)" d="M 62.86875 141.758715 
L 397.66875 141.758715 
" style="fill:none;stroke:#b0b0b0;stroke-linecap:square;stroke-opacity:0.8;stroke-width:0.8;"/>
     </g>
     <g id="line2d_36">
      <g>
       <use style="stroke:#000000;stroke-width:0.8;" x="62.86875" xlink:href="#m61bfa1eb9c" y="141.758715"/>
      </g>
     </g>
     <g id="text_18">
      <!-- 200 -->
      <g transform="translate(36.78125 145.557934)scale(0.1 -0.1)">
       <use xlink:href="#DejaVuSans-50"/>
       <use x="63.623047" xlink:href="#DejaVuSans-48"/>
       <use x="127.246094" xlink:href="#DejaVuSans-48"/>
      </g>
     </g>
    </g>
    <g id="ytick_8">
     <g id="line2d_37">
      <path clip-path="url(#p63d59094bd)" d="M 62.86875 122.259772 
L 397.66875 122.259772 
" style="fill:none;stroke:#b0b0b0;stroke-linecap:square;stroke-opacity:0.8;stroke-width:0.8;"/>
     </g>
     <g id="line2d_38">
      <g>
       <use style="stroke:#000000;stroke-width:0.8;" x="62.86875" xlink:href="#m61bfa1eb9c" y="122.259772"/>
      </g>
     </g>
     <g id="text_19">
      <!-- 500 -->
      <g transform="translate(36.78125 126.058991)scale(0.1 -0.1)">
       <use xlink:href="#DejaVuSans-53"/>
       <use x="63.623047" xlink:href="#DejaVuSans-48"/>
       <use x="127.246094" xlink:href="#DejaVuSans-48"/>
      </g>
     </g>
    </g>
    <g id="ytick_9">
     <g id="line2d_39">
      <path clip-path="url(#p63d59094bd)" d="M 62.86875 107.509392 
L 397.66875 107.509392 
" style="fill:none;stroke:#b0b0b0;stroke-linecap:square;stroke-opacity:0.8;stroke-width:0.8;"/>
     </g>
     <g id="line2d_40">
      <g>
       <use style="stroke:#000000;stroke-width:0.8;" x="62.86875" xlink:href="#m61bfa1eb9c" y="107.509392"/>
      </g>
     </g>
     <g id="text_20">
      <!-- 1,000 -->
      <defs>
       <path d="M 11.71875 12.40625 
L 22.015625 12.40625 
L 22.015625 4 
L 14.015625 -11.625 
L 7.71875 -11.625 
L 11.71875 4 
z
" id="DejaVuSans-44"/>
      </defs>
      <g transform="translate(27.240625 111.30861)scale(0.1 -0.1)">
       <use xlink:href="#DejaVuSans-49"/>
       <use x="63.623047" xlink:href="#DejaVuSans-44"/>
       <use x="95.410156" xlink:href="#DejaVuSans-48"/>
       <use x="159.033203" xlink:href="#DejaVuSans-48"/>
       <use x="222.65625" xlink:href="#DejaVuSans-48"/>
      </g>
     </g>
    </g>
    <g id="ytick_10">
     <g id="line2d_41">
      <path clip-path="url(#p63d59094bd)" d="M 62.86875 92.759011 
L 397.66875 92.759011 
" style="fill:none;stroke:#b0b0b0;stroke-linecap:square;stroke-opacity:0.8;stroke-width:0.8;"/>
     </g>
     <g id="line2d_42">
      <g>
       <use style="stroke:#000000;stroke-width:0.8;" x="62.86875" xlink:href="#m61bfa1eb9c" y="92.759011"/>
      </g>
     </g>
     <g id="text_21">
      <!-- 2,000 -->
      <g transform="translate(27.240625 96.558229)scale(0.1 -0.1)">
       <use xlink:href="#DejaVuSans-50"/>
       <use x="63.623047" xlink:href="#DejaVuSans-44"/>
       <use x="95.410156" xlink:href="#DejaVuSans-48"/>
       <use x="159.033203" xlink:href="#DejaVuSans-48"/>
       <use x="222.65625" xlink:href="#DejaVuSans-48"/>
      </g>
     </g>
    </g>
    <g id="ytick_11">
     <g id="line2d_43">
      <path clip-path="url(#p63d59094bd)" d="M 62.86875 73.260068 
L 397.66875 73.260068 
" style="fill:none;stroke:#b0b0b0;stroke-linecap:square;stroke-opacity:0.8;stroke-width:0.8;"/>
     </g>
     <g id="line2d_44">
      <g>
       <use style="stroke:#000000;stroke-width:0.8;" x="62.86875" xlink:href="#m61bfa1eb9c" y="73.260068"/>
      </g>
     </g>
     <g id="text_22">
      <!-- 5,000 -->
      <g transform="translate(27.240625 77.059286)scale(0.1 -0.1)">
       <use xlink:href="#DejaVuSans-53"/>
       <use x="63.623047" xlink:href="#DejaVuSans-44"/>
       <use x="95.410156" xlink:href="#DejaVuSans-48"/>
       <use x="159.033203" xlink:href="#DejaVuSans-48"/>
       <use x="222.65625" xlink:href="#DejaVuSans-48"/>
      </g>
     </g>
    </g>
    <g id="ytick_12">
     <g id="line2d_45">
      <path clip-path="url(#p63d59094bd)" d="M 62.86875 58.509687 
L 397.66875 58.509687 
" style="fill:none;stroke:#b0b0b0;stroke-linecap:square;stroke-opacity:0.8;stroke-width:0.8;"/>
     </g>
     <g id="line2d_46">
      <g>
       <use style="stroke:#000000;stroke-width:0.8;" x="62.86875" xlink:href="#m61bfa1eb9c" y="58.509687"/>
      </g>
     </g>
     <g id="text_23">
      <!-- 10,000 -->
      <g transform="translate(20.878125 62.308906)scale(0.1 -0.1)">
       <use xlink:href="#DejaVuSans-49"/>
       <use x="63.623047" xlink:href="#DejaVuSans-48"/>
       <use x="127.246094" xlink:href="#DejaVuSans-44"/>
       <use x="159.033203" xlink:href="#DejaVuSans-48"/>
       <use x="222.65625" xlink:href="#DejaVuSans-48"/>
       <use x="286.279297" xlink:href="#DejaVuSans-48"/>
      </g>
     </g>
    </g>
    <g id="ytick_13">
     <g id="line2d_47">
      <path clip-path="url(#p63d59094bd)" d="M 62.86875 43.759306 
L 397.66875 43.759306 
" style="fill:none;stroke:#b0b0b0;stroke-linecap:square;stroke-opacity:0.8;stroke-width:0.8;"/>
     </g>
     <g id="line2d_48">
      <g>
       <use style="stroke:#000000;stroke-width:0.8;" x="62.86875" xlink:href="#m61bfa1eb9c" y="43.759306"/>
      </g>
     </g>
     <g id="text_24">
      <!-- 20,000 -->
      <g transform="translate(20.878125 47.558525)scale(0.1 -0.1)">
       <use xlink:href="#DejaVuSans-50"/>
       <use x="63.623047" xlink:href="#DejaVuSans-48"/>
       <use x="127.246094" xlink:href="#DejaVuSans-44"/>
       <use x="159.033203" xlink:href="#DejaVuSans-48"/>
       <use x="222.65625" xlink:href="#DejaVuSans-48"/>
       <use x="286.279297" xlink:href="#DejaVuSans-48"/>
      </g>
     </g>
    </g>
    <g id="ytick_14">
     <g id="line2d_49">
      <path clip-path="url(#p63d59094bd)" d="M 62.86875 24.260363 
L 397.66875 24.260363 
" style="fill:none;stroke:#b0b0b0;stroke-linecap:square;stroke-opacity:0.8;stroke-width:0.8;"/>
     </g>
     <g id="line2d_50">
      <g>
       <use style="stroke:#000000;stroke-width:0.8;" x="62.86875" xlink:href="#m61bfa1eb9c" y="24.260363"/>
      </g>
     </g>
     <g id="text_25">
      <!-- 50,000 -->
      <g transform="translate(20.878125 28.059582)scale(0.1 -0.1)">
       <use xlink:href="#DejaVuSans-53"/>
       <use x="63.623047" xlink:href="#DejaVuSans-48"/>
       <use x="127.246094" xlink:href="#DejaVuSans-44"/>
       <use x="159.033203" xlink:href="#DejaVuSans-48"/>
       <use x="222.65625" xlink:href="#DejaVuSans-48"/>
       <use x="286.279297" xlink:href="#DejaVuSans-48"/>
      </g>
     </g>
    </g>
    <g id="ytick_15">
     <g id="line2d_51">
      <defs>
       <path d="M 0 0 
L -2 0 
" id="mbb10b796f9" style="stroke:#000000;stroke-width:0.6;"/>
      </defs>
      <g>
       <use style="stroke:#000000;stroke-width:0.6;" x="62.86875" xlink:href="#mbb10b796f9" y="231.129705"/>
      </g>
     </g>
    </g>
    <g id="ytick_16">
     <g id="line2d_52">
      <g>
       <use style="stroke:#000000;stroke-width:0.6;" x="62.86875" xlink:href="#mbb10b796f9" y="225.007744"/>
      </g>
     </g>
    </g>
    <g id="ytick_17">
     <g id="line2d_53">
      <g>
       <use style="stroke:#000000;stroke-width:0.6;" x="62.86875" xlink:href="#mbb10b796f9" y="216.379324"/>
      </g>
     </g>
    </g>
    <g id="ytick_18">
     <g id="line2d_54">
      <g>
       <use style="stroke:#000000;stroke-width:0.6;" x="62.86875" xlink:href="#mbb10b796f9" y="213.098951"/>
      </g>
     </g>
    </g>
    <g id="ytick_19">
     <g id="line2d_55">
      <g>
       <use style="stroke:#000000;stroke-width:0.6;" x="62.86875" xlink:href="#mbb10b796f9" y="210.257363"/>
      </g>
     </g>
    </g>
    <g id="ytick_20">
     <g id="line2d_56">
      <g>
       <use style="stroke:#000000;stroke-width:0.6;" x="62.86875" xlink:href="#mbb10b796f9" y="207.750905"/>
      </g>
     </g>
    </g>
    <g id="ytick_21">
     <g id="line2d_57">
      <g>
       <use style="stroke:#000000;stroke-width:0.6;" x="62.86875" xlink:href="#mbb10b796f9" y="182.130001"/>
      </g>
     </g>
    </g>
    <g id="ytick_22">
     <g id="line2d_58">
      <g>
       <use style="stroke:#000000;stroke-width:0.6;" x="62.86875" xlink:href="#mbb10b796f9" y="176.008039"/>
      </g>
     </g>
    </g>
    <g id="ytick_23">
     <g id="line2d_59">
      <g>
       <use style="stroke:#000000;stroke-width:0.6;" x="62.86875" xlink:href="#mbb10b796f9" y="167.37962"/>
      </g>
     </g>
    </g>
    <g id="ytick_24">
     <g id="line2d_60">
      <g>
       <use style="stroke:#000000;stroke-width:0.6;" x="62.86875" xlink:href="#mbb10b796f9" y="164.099247"/>
      </g>
     </g>
    </g>
    <g id="ytick_25">
     <g id="line2d_61">
      <g>
       <use style="stroke:#000000;stroke-width:0.6;" x="62.86875" xlink:href="#mbb10b796f9" y="161.257658"/>
      </g>
     </g>
    </g>
    <g id="ytick_26">
     <g id="line2d_62">
      <g>
       <use style="stroke:#000000;stroke-width:0.6;" x="62.86875" xlink:href="#mbb10b796f9" y="158.7512"/>
      </g>
     </g>
    </g>
    <g id="ytick_27">
     <g id="line2d_63">
      <g>
       <use style="stroke:#000000;stroke-width:0.6;" x="62.86875" xlink:href="#mbb10b796f9" y="133.130296"/>
      </g>
     </g>
    </g>
    <g id="ytick_28">
     <g id="line2d_64">
      <g>
       <use style="stroke:#000000;stroke-width:0.6;" x="62.86875" xlink:href="#mbb10b796f9" y="127.008335"/>
      </g>
     </g>
    </g>
    <g id="ytick_29">
     <g id="line2d_65">
      <g>
       <use style="stroke:#000000;stroke-width:0.6;" x="62.86875" xlink:href="#mbb10b796f9" y="118.379915"/>
      </g>
     </g>
    </g>
    <g id="ytick_30">
     <g id="line2d_66">
      <g>
       <use style="stroke:#000000;stroke-width:0.6;" x="62.86875" xlink:href="#mbb10b796f9" y="115.099542"/>
      </g>
     </g>
    </g>
    <g id="ytick_31">
     <g id="line2d_67">
      <g>
       <use style="stroke:#000000;stroke-width:0.6;" x="62.86875" xlink:href="#mbb10b796f9" y="112.257954"/>
      </g>
     </g>
    </g>
    <g id="ytick_32">
     <g id="line2d_68">
      <g>
       <use style="stroke:#000000;stroke-width:0.6;" x="62.86875" xlink:href="#mbb10b796f9" y="109.751495"/>
      </g>
     </g>
    </g>
    <g id="ytick_33">
     <g id="line2d_69">
      <g>
       <use style="stroke:#000000;stroke-width:0.6;" x="62.86875" xlink:href="#mbb10b796f9" y="84.130591"/>
      </g>
     </g>
    </g>
    <g id="ytick_34">
     <g id="line2d_70">
      <g>
       <use style="stroke:#000000;stroke-width:0.6;" x="62.86875" xlink:href="#mbb10b796f9" y="78.00863"/>
      </g>
     </g>
    </g>
    <g id="ytick_35">
     <g id="line2d_71">
      <g>
       <use style="stroke:#000000;stroke-width:0.6;" x="62.86875" xlink:href="#mbb10b796f9" y="69.38021"/>
      </g>
     </g>
    </g>
    <g id="ytick_36">
     <g id="line2d_72">
      <g>
       <use style="stroke:#000000;stroke-width:0.6;" x="62.86875" xlink:href="#mbb10b796f9" y="66.099837"/>
      </g>
     </g>
    </g>
    <g id="ytick_37">
     <g id="line2d_73">
      <g>
       <use style="stroke:#000000;stroke-width:0.6;" x="62.86875" xlink:href="#mbb10b796f9" y="63.258249"/>
      </g>
     </g>
    </g>
    <g id="ytick_38">
     <g id="line2d_74">
      <g>
       <use style="stroke:#000000;stroke-width:0.6;" x="62.86875" xlink:href="#mbb10b796f9" y="60.75179"/>
      </g>
     </g>
    </g>
    <g id="ytick_39">
     <g id="line2d_75">
      <g>
       <use style="stroke:#000000;stroke-width:0.6;" x="62.86875" xlink:href="#mbb10b796f9" y="35.130886"/>
      </g>
     </g>
    </g>
    <g id="ytick_40">
     <g id="line2d_76">
      <g>
       <use style="stroke:#000000;stroke-width:0.6;" x="62.86875" xlink:href="#mbb10b796f9" y="29.008925"/>
      </g>
     </g>
    </g>
    <g id="text_26">
     <!-- Total cases per million -->
     <defs>
      <path d="M -0.296875 72.90625 
L 61.375 72.90625 
L 61.375 64.59375 
L 35.5 64.59375 
L 35.5 0 
L 25.59375 0 
L 25.59375 64.59375 
L -0.296875 64.59375 
z
" id="DejaVuSans-84"/>
      <path d="M 30.609375 48.390625 
Q 23.390625 48.390625 19.1875 42.75 
Q 14.984375 37.109375 14.984375 27.296875 
Q 14.984375 17.484375 19.15625 11.84375 
Q 23.34375 6.203125 30.609375 6.203125 
Q 37.796875 6.203125 41.984375 11.859375 
Q 46.1875 17.53125 46.1875 27.296875 
Q 46.1875 37.015625 41.984375 42.703125 
Q 37.796875 48.390625 30.609375 48.390625 
z
M 30.609375 56 
Q 42.328125 56 49.015625 48.375 
Q 55.71875 40.765625 55.71875 27.296875 
Q 55.71875 13.875 49.015625 6.21875 
Q 42.328125 -1.421875 30.609375 -1.421875 
Q 18.84375 -1.421875 12.171875 6.21875 
Q 5.515625 13.875 5.515625 27.296875 
Q 5.515625 40.765625 12.171875 48.375 
Q 18.84375 56 30.609375 56 
z
" id="DejaVuSans-111"/>
      <path d="M 18.3125 70.21875 
L 18.3125 54.6875 
L 36.8125 54.6875 
L 36.8125 47.703125 
L 18.3125 47.703125 
L 18.3125 18.015625 
Q 18.3125 11.328125 20.140625 9.421875 
Q 21.96875 7.515625 27.59375 7.515625 
L 36.8125 7.515625 
L 36.8125 0 
L 27.59375 0 
Q 17.1875 0 13.234375 3.875 
Q 9.28125 7.765625 9.28125 18.015625 
L 9.28125 47.703125 
L 2.6875 47.703125 
L 2.6875 54.6875 
L 9.28125 54.6875 
L 9.28125 70.21875 
z
" id="DejaVuSans-116"/>
      <path d="M 9.421875 75.984375 
L 18.40625 75.984375 
L 18.40625 0 
L 9.421875 0 
z
" id="DejaVuSans-108"/>
      <path id="DejaVuSans-32"/>
      <path d="M 48.78125 52.59375 
L 48.78125 44.1875 
Q 44.96875 46.296875 41.140625 47.34375 
Q 37.3125 48.390625 33.40625 48.390625 
Q 24.65625 48.390625 19.8125 42.84375 
Q 14.984375 37.3125 14.984375 27.296875 
Q 14.984375 17.28125 19.8125 11.734375 
Q 24.65625 6.203125 33.40625 6.203125 
Q 37.3125 6.203125 41.140625 7.25 
Q 44.96875 8.296875 48.78125 10.40625 
L 48.78125 2.09375 
Q 45.015625 0.34375 40.984375 -0.53125 
Q 36.96875 -1.421875 32.421875 -1.421875 
Q 20.0625 -1.421875 12.78125 6.34375 
Q 5.515625 14.109375 5.515625 27.296875 
Q 5.515625 40.671875 12.859375 48.328125 
Q 20.21875 56 33.015625 56 
Q 37.15625 56 41.109375 55.140625 
Q 45.0625 54.296875 48.78125 52.59375 
z
" id="DejaVuSans-99"/>
      <path d="M 44.28125 53.078125 
L 44.28125 44.578125 
Q 40.484375 46.53125 36.375 47.5 
Q 32.28125 48.484375 27.875 48.484375 
Q 21.1875 48.484375 17.84375 46.4375 
Q 14.5 44.390625 14.5 40.28125 
Q 14.5 37.15625 16.890625 35.375 
Q 19.28125 33.59375 26.515625 31.984375 
L 29.59375 31.296875 
Q 39.15625 29.25 43.1875 25.515625 
Q 47.21875 21.78125 47.21875 15.09375 
Q 47.21875 7.46875 41.1875 3.015625 
Q 35.15625 -1.421875 24.609375 -1.421875 
Q 20.21875 -1.421875 15.453125 -0.5625 
Q 10.6875 0.296875 5.421875 2 
L 5.421875 11.28125 
Q 10.40625 8.6875 15.234375 7.390625 
Q 20.0625 6.109375 24.8125 6.109375 
Q 31.15625 6.109375 34.5625 8.28125 
Q 37.984375 10.453125 37.984375 14.40625 
Q 37.984375 18.0625 35.515625 20.015625 
Q 33.0625 21.96875 24.703125 23.78125 
L 21.578125 24.515625 
Q 13.234375 26.265625 9.515625 29.90625 
Q 5.8125 33.546875 5.8125 39.890625 
Q 5.8125 47.609375 11.28125 51.796875 
Q 16.75 56 26.8125 56 
Q 31.78125 56 36.171875 55.265625 
Q 40.578125 54.546875 44.28125 53.078125 
z
" id="DejaVuSans-115"/>
      <path d="M 56.203125 29.59375 
L 56.203125 25.203125 
L 14.890625 25.203125 
Q 15.484375 15.921875 20.484375 11.0625 
Q 25.484375 6.203125 34.421875 6.203125 
Q 39.59375 6.203125 44.453125 7.46875 
Q 49.3125 8.734375 54.109375 11.28125 
L 54.109375 2.78125 
Q 49.265625 0.734375 44.1875 -0.34375 
Q 39.109375 -1.421875 33.890625 -1.421875 
Q 20.796875 -1.421875 13.15625 6.1875 
Q 5.515625 13.8125 5.515625 26.8125 
Q 5.515625 40.234375 12.765625 48.109375 
Q 20.015625 56 32.328125 56 
Q 43.359375 56 49.78125 48.890625 
Q 56.203125 41.796875 56.203125 29.59375 
z
M 47.21875 32.234375 
Q 47.125 39.59375 43.09375 43.984375 
Q 39.0625 48.390625 32.421875 48.390625 
Q 24.90625 48.390625 20.390625 44.140625 
Q 15.875 39.890625 15.1875 32.171875 
z
" id="DejaVuSans-101"/>
      <path d="M 52 44.1875 
Q 55.375 50.25 60.0625 53.125 
Q 64.75 56 71.09375 56 
Q 79.640625 56 84.28125 50.015625 
Q 88.921875 44.046875 88.921875 33.015625 
L 88.921875 0 
L 79.890625 0 
L 79.890625 32.71875 
Q 79.890625 40.578125 77.09375 44.375 
Q 74.3125 48.1875 68.609375 48.1875 
Q 61.625 48.1875 57.5625 43.546875 
Q 53.515625 38.921875 53.515625 30.90625 
L 53.515625 0 
L 44.484375 0 
L 44.484375 32.71875 
Q 44.484375 40.625 41.703125 44.40625 
Q 38.921875 48.1875 33.109375 48.1875 
Q 26.21875 48.1875 22.15625 43.53125 
Q 18.109375 38.875 18.109375 30.90625 
L 18.109375 0 
L 9.078125 0 
L 9.078125 54.6875 
L 18.109375 54.6875 
L 18.109375 46.1875 
Q 21.1875 51.21875 25.484375 53.609375 
Q 29.78125 56 35.6875 56 
Q 41.65625 56 45.828125 52.96875 
Q 50 49.953125 52 44.1875 
z
" id="DejaVuSans-109"/>
      <path d="M 9.421875 54.6875 
L 18.40625 54.6875 
L 18.40625 0 
L 9.421875 0 
z
M 9.421875 75.984375 
L 18.40625 75.984375 
L 18.40625 64.59375 
L 9.421875 64.59375 
z
" id="DejaVuSans-105"/>
      <path d="M 54.890625 33.015625 
L 54.890625 0 
L 45.90625 0 
L 45.90625 32.71875 
Q 45.90625 40.484375 42.875 44.328125 
Q 39.84375 48.1875 33.796875 48.1875 
Q 26.515625 48.1875 22.3125 43.546875 
Q 18.109375 38.921875 18.109375 30.90625 
L 18.109375 0 
L 9.078125 0 
L 9.078125 54.6875 
L 18.109375 54.6875 
L 18.109375 46.1875 
Q 21.34375 51.125 25.703125 53.5625 
Q 30.078125 56 35.796875 56 
Q 45.21875 56 50.046875 50.171875 
Q 54.890625 44.34375 54.890625 33.015625 
z
" id="DejaVuSans-110"/>
     </defs>
     <g transform="translate(14.798438 187.37875)rotate(-90)scale(0.1 -0.1)">
      <use xlink:href="#DejaVuSans-84"/>
      <use x="60.818359" xlink:href="#DejaVuSans-111"/>
      <use x="122" xlink:href="#DejaVuSans-116"/>
      <use x="161.208984" xlink:href="#DejaVuSans-97"/>
      <use x="222.488281" xlink:href="#DejaVuSans-108"/>
      <use x="250.271484" xlink:href="#DejaVuSans-32"/>
      <use x="282.058594" xlink:href="#DejaVuSans-99"/>
      <use x="337.039062" xlink:href="#DejaVuSans-97"/>
      <use x="398.318359" xlink:href="#DejaVuSans-115"/>
      <use x="450.417969" xlink:href="#DejaVuSans-101"/>
      <use x="511.941406" xlink:href="#DejaVuSans-115"/>
      <use x="564.041016" xlink:href="#DejaVuSans-32"/>
      <use x="595.828125" xlink:href="#DejaVuSans-112"/>
      <use x="659.304688" xlink:href="#DejaVuSans-101"/>
      <use x="720.828125" xlink:href="#DejaVuSans-114"/>
      <use x="761.941406" xlink:href="#DejaVuSans-32"/>
      <use x="793.728516" xlink:href="#DejaVuSans-109"/>
      <use x="891.140625" xlink:href="#DejaVuSans-105"/>
      <use x="918.923828" xlink:href="#DejaVuSans-108"/>
      <use x="946.707031" xlink:href="#DejaVuSans-108"/>
      <use x="974.490234" xlink:href="#DejaVuSans-105"/>
      <use x="1002.273438" xlink:href="#DejaVuSans-111"/>
      <use x="1063.455078" xlink:href="#DejaVuSans-110"/>
     </g>
    </g>
   </g>
   <g id="line2d_77">
    <path clip-path="url(#p63d59094bd)" d="M 324.019663 62.67712 
L 332.443886 61.621731 
L 340.868109 60.566342 
L 349.292332 59.510954 
L 357.716555 58.455565 
" style="fill:none;stroke:#7f7f7f;stroke-dasharray:7.4,3.2;stroke-dashoffset:0;stroke-width:2;"/>
   </g>
   <g id="line2d_78">
    <path clip-path="url(#p63d59094bd)" d="M 324.019663 91.316102 
L 332.443886 90.380053 
L 340.868109 89.444005 
L 349.292332 88.507956 
L 357.716555 87.571907 
" style="fill:none;stroke:#7f7f7f;stroke-dasharray:7.4,3.2;stroke-dashoffset:0;stroke-width:2;"/>
   </g>
   <g id="line2d_79">
    <path clip-path="url(#p63d59094bd)" d="M 324.019663 102.561931 
L 332.443886 102.0704 
L 340.868109 101.57887 
L 349.292332 101.087339 
L 357.716555 100.595808 
" style="fill:none;stroke:#7f7f7f;stroke-dasharray:7.4,3.2;stroke-dashoffset:0;stroke-width:2;"/>
   </g>
   <g id="line2d_80">
    <path clip-path="url(#p63d59094bd)" d="M 324.019663 122.452281 
L 332.443886 121.534822 
L 340.868109 120.617364 
L 349.292332 119.699906 
L 357.716555 118.782448 
" style="fill:none;stroke:#7f7f7f;stroke-dasharray:7.4,3.2;stroke-dashoffset:0;stroke-width:2;"/>
   </g>
   <g id="line2d_81">
    <path clip-path="url(#p63d59094bd)" d="M 324.019663 139.708527 
L 332.443886 138.197347 
L 340.868109 136.686168 
L 349.292332 135.174988 
L 357.716555 133.663808 
" style="fill:none;stroke:#7f7f7f;stroke-dasharray:7.4,3.2;stroke-dashoffset:0;stroke-width:2;"/>
   </g>
   <g id="line2d_82">
    <path clip-path="url(#p63d59094bd)" d="M 37.596081 264.318062 
L 46.020304 258.17207 
L 54.444527 252.026078 
L 62.86875 245.880086 
L 71.292973 239.734094 
L 79.717196 233.588102 
L 88.141419 227.44211 
L 96.565642 221.296118 
L 104.989865 215.150126 
L 113.414088 209.004134 
L 121.838311 202.858142 
L 130.262534 196.71215 
L 138.686757 190.566158 
L 147.11098 184.420166 
L 155.535203 178.274174 
L 163.959426 172.128182 
L 172.383649 165.98219 
L 180.807872 159.836198 
L 189.232095 153.690205 
L 197.656318 147.544213 
L 206.080541 141.398221 
L 214.504764 135.252229 
L 222.928987 129.106237 
L 231.35321 122.960245 
L 239.777433 116.814253 
L 248.201656 110.668261 
L 256.625879 104.522269 
L 265.050102 98.376277 
L 273.474325 92.230285 
L 281.898548 86.084293 
L 290.322771 79.938301 
L 298.746994 73.792309 
L 307.171217 67.646317 
L 315.59544 61.500325 
L 324.019663 55.354333 
L 332.443886 49.208341 
L 340.868109 43.062349 
L 349.292332 36.916357 
L 357.716555 30.770364 
" style="fill:none;stroke:#d62728;stroke-dasharray:5.55,2.4;stroke-dashoffset:0;stroke-width:1.5;"/>
   </g>
   <g id="patch_3">
    <path d="M 62.86875 239.758125 
L 62.86875 22.318125 
" style="fill:none;stroke:#000000;stroke-linecap:square;stroke-linejoin:miter;stroke-width:0.8;"/>
   </g>
   <g id="patch_4">
    <path d="M 397.66875 239.758125 
L 397.66875 22.318125 
" style="fill:none;stroke:#000000;stroke-linecap:square;stroke-linejoin:miter;stroke-width:0.8;"/>
   </g>
   <g id="patch_5">
    <path d="M 62.86875 239.758125 
L 397.66875 239.758125 
" style="fill:none;stroke:#000000;stroke-linecap:square;stroke-linejoin:miter;stroke-width:0.8;"/>
   </g>
   <g id="patch_6">
    <path d="M 62.86875 22.318125 
L 397.66875 22.318125 
" style="fill:none;stroke:#000000;stroke-linecap:square;stroke-linejoin:miter;stroke-width:0.8;"/>
   </g>
   <g id="text_27">
    <!-- © Scott Sievert -->
    <defs>
     <path d="M 50 72.515625 
Q 57.421875 72.515625 63.84375 69.828125 
Q 70.265625 67.140625 75.59375 61.8125 
Q 80.90625 56.5 83.546875 50.09375 
Q 86.1875 43.703125 86.1875 36.1875 
Q 86.1875 28.765625 83.546875 22.390625 
Q 80.90625 16.015625 75.59375 10.6875 
Q 70.265625 5.375 63.84375 2.6875 
Q 57.421875 0 50 0 
Q 42.578125 0 36.15625 2.6875 
Q 29.734375 5.375 24.421875 10.6875 
Q 19.09375 16.015625 16.453125 22.390625 
Q 13.8125 28.765625 13.8125 36.1875 
Q 13.8125 43.703125 16.453125 50.09375 
Q 19.09375 56.5 24.421875 61.8125 
Q 29.734375 67.140625 36.15625 69.828125 
Q 42.578125 72.515625 50 72.515625 
z
M 50 67.484375 
Q 43.609375 67.484375 38.078125 65.1875 
Q 32.5625 62.890625 27.984375 58.296875 
Q 23.390625 53.71875 21.046875 48.125 
Q 18.703125 42.53125 18.703125 36.1875 
Q 18.703125 29.890625 21.046875 24.34375 
Q 23.390625 18.796875 27.984375 14.203125 
Q 32.5625 9.625 38.078125 7.296875 
Q 43.609375 4.984375 50 4.984375 
Q 56.453125 4.984375 61.984375 7.296875 
Q 67.53125 9.625 72.125 14.203125 
Q 76.65625 18.75 78.921875 24.265625 
Q 81.203125 29.78125 81.203125 36.1875 
Q 81.203125 42.671875 78.90625 48.21875 
Q 76.609375 53.765625 72.125 58.296875 
Q 67.53125 62.890625 61.984375 65.1875 
Q 56.453125 67.484375 50 67.484375 
z
M 64.59375 55.515625 
L 64.59375 49.21875 
Q 61.375 50.828125 58.203125 51.609375 
Q 55.03125 52.390625 51.8125 52.390625 
Q 44.53125 52.390625 40.453125 48.109375 
Q 36.375 43.84375 36.375 36.1875 
Q 36.375 28.421875 40.546875 24.171875 
Q 44.734375 19.921875 52.296875 19.921875 
Q 55.421875 19.921875 58.390625 20.671875 
Q 61.375 21.4375 64.59375 23.09375 
L 64.59375 16.890625 
Q 61.328125 15.484375 57.984375 14.796875 
Q 54.640625 14.109375 51.21875 14.109375 
Q 40.671875 14.109375 34.546875 20.0625 
Q 28.421875 26.03125 28.421875 36.1875 
Q 28.421875 46.390625 34.546875 52.296875 
Q 40.671875 58.203125 51.21875 58.203125 
Q 54.78125 58.203125 58.09375 57.515625 
Q 61.421875 56.84375 64.59375 55.515625 
z
" id="DejaVuSans-169"/>
     <path d="M 53.515625 70.515625 
L 53.515625 60.890625 
Q 47.90625 63.578125 42.921875 64.890625 
Q 37.9375 66.21875 33.296875 66.21875 
Q 25.25 66.21875 20.875 63.09375 
Q 16.5 59.96875 16.5 54.203125 
Q 16.5 49.359375 19.40625 46.890625 
Q 22.3125 44.4375 30.421875 42.921875 
L 36.375 41.703125 
Q 47.40625 39.59375 52.65625 34.296875 
Q 57.90625 29 57.90625 20.125 
Q 57.90625 9.515625 50.796875 4.046875 
Q 43.703125 -1.421875 29.984375 -1.421875 
Q 24.8125 -1.421875 18.96875 -0.25 
Q 13.140625 0.921875 6.890625 3.21875 
L 6.890625 13.375 
Q 12.890625 10.015625 18.65625 8.296875 
Q 24.421875 6.59375 29.984375 6.59375 
Q 38.421875 6.59375 43.015625 9.90625 
Q 47.609375 13.234375 47.609375 19.390625 
Q 47.609375 24.75 44.3125 27.78125 
Q 41.015625 30.8125 33.5 32.328125 
L 27.484375 33.5 
Q 16.453125 35.6875 11.515625 40.375 
Q 6.59375 45.0625 6.59375 53.421875 
Q 6.59375 63.09375 13.40625 68.65625 
Q 20.21875 74.21875 32.171875 74.21875 
Q 37.3125 74.21875 42.625 73.28125 
Q 47.953125 72.359375 53.515625 70.515625 
z
" id="DejaVuSans-83"/>
     <path d="M 2.984375 54.6875 
L 12.5 54.6875 
L 29.59375 8.796875 
L 46.6875 54.6875 
L 56.203125 54.6875 
L 35.6875 0 
L 23.484375 0 
z
" id="DejaVuSans-118"/>
    </defs>
    <g style="opacity:0.3;" transform="translate(321.850743 280.12941)scale(0.1 -0.1)">
     <use xlink:href="#DejaVuSans-169"/>
     <use x="100" xlink:href="#DejaVuSans-32"/>
     <use x="131.787109" xlink:href="#DejaVuSans-83"/>
     <use x="195.263672" xlink:href="#DejaVuSans-99"/>
     <use x="250.244141" xlink:href="#DejaVuSans-111"/>
     <use x="311.425781" xlink:href="#DejaVuSans-116"/>
     <use x="350.634766" xlink:href="#DejaVuSans-116"/>
     <use x="389.84375" xlink:href="#DejaVuSans-32"/>
     <use x="421.630859" xlink:href="#DejaVuSans-83"/>
     <use x="485.107422" xlink:href="#DejaVuSans-105"/>
     <use x="512.890625" xlink:href="#DejaVuSans-101"/>
     <use x="574.414062" xlink:href="#DejaVuSans-118"/>
     <use x="633.59375" xlink:href="#DejaVuSans-101"/>
     <use x="695.117188" xlink:href="#DejaVuSans-114"/>
     <use x="736.230469" xlink:href="#DejaVuSans-116"/>
    </g>
   </g>
   <g id="text_28">
    <!-- State infection rates -->
    <defs>
     <path d="M 37.109375 75.984375 
L 37.109375 68.5 
L 28.515625 68.5 
Q 23.6875 68.5 21.796875 66.546875 
Q 19.921875 64.59375 19.921875 59.515625 
L 19.921875 54.6875 
L 34.71875 54.6875 
L 34.71875 47.703125 
L 19.921875 47.703125 
L 19.921875 0 
L 10.890625 0 
L 10.890625 47.703125 
L 2.296875 47.703125 
L 2.296875 54.6875 
L 10.890625 54.6875 
L 10.890625 58.5 
Q 10.890625 67.625 15.140625 71.796875 
Q 19.390625 75.984375 28.609375 75.984375 
z
" id="DejaVuSans-102"/>
    </defs>
    <g transform="translate(169.194375 16.318125)scale(0.12 -0.12)">
     <use xlink:href="#DejaVuSans-83"/>
     <use x="63.476562" xlink:href="#DejaVuSans-116"/>
     <use x="102.685547" xlink:href="#DejaVuSans-97"/>
     <use x="163.964844" xlink:href="#DejaVuSans-116"/>
     <use x="203.173828" xlink:href="#DejaVuSans-101"/>
     <use x="264.697266" xlink:href="#DejaVuSans-32"/>
     <use x="296.484375" xlink:href="#DejaVuSans-105"/>
     <use x="324.267578" xlink:href="#DejaVuSans-110"/>
     <use x="387.646484" xlink:href="#DejaVuSans-102"/>
     <use x="422.851562" xlink:href="#DejaVuSans-101"/>
     <use x="484.375" xlink:href="#DejaVuSans-99"/>
     <use x="539.355469" xlink:href="#DejaVuSans-116"/>
     <use x="578.564453" xlink:href="#DejaVuSans-105"/>
     <use x="606.347656" xlink:href="#DejaVuSans-111"/>
     <use x="667.529297" xlink:href="#DejaVuSans-110"/>
     <use x="730.908203" xlink:href="#DejaVuSans-32"/>
     <use x="762.695312" xlink:href="#DejaVuSans-114"/>
     <use x="803.808594" xlink:href="#DejaVuSans-97"/>
     <use x="865.087891" xlink:href="#DejaVuSans-116"/>
     <use x="904.296875" xlink:href="#DejaVuSans-101"/>
     <use x="965.820312" xlink:href="#DejaVuSans-115"/>
    </g>
   </g>
   <g id="legend_1">
    <g id="patch_7">
     <path d="M 69.86875 133.065 
L 188.135938 133.065 
Q 190.135938 133.065 190.135938 131.065 
L 190.135938 29.318125 
Q 190.135938 27.318125 188.135938 27.318125 
L 69.86875 27.318125 
Q 67.86875 27.318125 67.86875 29.318125 
L 67.86875 131.065 
Q 67.86875 133.065 69.86875 133.065 
z
" style="fill:#ffffff;opacity:0.8;stroke:#cccccc;stroke-linejoin:miter;"/>
    </g>
    <g id="text_29">
     <!-- State (cases in 7 days) -->
     <defs>
      <path d="M 31 75.875 
Q 24.46875 64.65625 21.28125 53.65625 
Q 18.109375 42.671875 18.109375 31.390625 
Q 18.109375 20.125 21.3125 9.0625 
Q 24.515625 -2 31 -13.1875 
L 23.1875 -13.1875 
Q 15.875 -1.703125 12.234375 9.375 
Q 8.59375 20.453125 8.59375 31.390625 
Q 8.59375 42.28125 12.203125 53.3125 
Q 15.828125 64.359375 23.1875 75.875 
z
" id="DejaVuSans-40"/>
      <path d="M 45.40625 46.390625 
L 45.40625 75.984375 
L 54.390625 75.984375 
L 54.390625 0 
L 45.40625 0 
L 45.40625 8.203125 
Q 42.578125 3.328125 38.25 0.953125 
Q 33.9375 -1.421875 27.875 -1.421875 
Q 17.96875 -1.421875 11.734375 6.484375 
Q 5.515625 14.40625 5.515625 27.296875 
Q 5.515625 40.1875 11.734375 48.09375 
Q 17.96875 56 27.875 56 
Q 33.9375 56 38.25 53.625 
Q 42.578125 51.265625 45.40625 46.390625 
z
M 14.796875 27.296875 
Q 14.796875 17.390625 18.875 11.75 
Q 22.953125 6.109375 30.078125 6.109375 
Q 37.203125 6.109375 41.296875 11.75 
Q 45.40625 17.390625 45.40625 27.296875 
Q 45.40625 37.203125 41.296875 42.84375 
Q 37.203125 48.484375 30.078125 48.484375 
Q 22.953125 48.484375 18.875 42.84375 
Q 14.796875 37.203125 14.796875 27.296875 
z
" id="DejaVuSans-100"/>
      <path d="M 32.171875 -5.078125 
Q 28.375 -14.84375 24.75 -17.8125 
Q 21.140625 -20.796875 15.09375 -20.796875 
L 7.90625 -20.796875 
L 7.90625 -13.28125 
L 13.1875 -13.28125 
Q 16.890625 -13.28125 18.9375 -11.515625 
Q 21 -9.765625 23.484375 -3.21875 
L 25.09375 0.875 
L 2.984375 54.6875 
L 12.5 54.6875 
L 29.59375 11.921875 
L 46.6875 54.6875 
L 56.203125 54.6875 
z
" id="DejaVuSans-121"/>
      <path d="M 8.015625 75.875 
L 15.828125 75.875 
Q 23.140625 64.359375 26.78125 53.3125 
Q 30.421875 42.28125 30.421875 31.390625 
Q 30.421875 20.453125 26.78125 9.375 
Q 23.140625 -1.703125 15.828125 -13.1875 
L 8.015625 -13.1875 
Q 14.5 -2 17.703125 9.0625 
Q 20.90625 20.125 20.90625 31.390625 
Q 20.90625 42.671875 17.703125 53.65625 
Q 14.5 64.65625 8.015625 75.875 
z
" id="DejaVuSans-41"/>
     </defs>
     <g transform="translate(71.86875 38.916562)scale(0.1 -0.1)">
      <use xlink:href="#DejaVuSans-83"/>
      <use x="63.476562" xlink:href="#DejaVuSans-116"/>
      <use x="102.685547" xlink:href="#DejaVuSans-97"/>
      <use x="163.964844" xlink:href="#DejaVuSans-116"/>
      <use x="203.173828" xlink:href="#DejaVuSans-101"/>
      <use x="264.697266" xlink:href="#DejaVuSans-32"/>
      <use x="296.484375" xlink:href="#DejaVuSans-40"/>
      <use x="335.498047" xlink:href="#DejaVuSans-99"/>
      <use x="390.478516" xlink:href="#DejaVuSans-97"/>
      <use x="451.757812" xlink:href="#DejaVuSans-115"/>
      <use x="503.857422" xlink:href="#DejaVuSans-101"/>
      <use x="565.380859" xlink:href="#DejaVuSans-115"/>
      <use x="617.480469" xlink:href="#DejaVuSans-32"/>
      <use x="649.267578" xlink:href="#DejaVuSans-105"/>
      <use x="677.050781" xlink:href="#DejaVuSans-110"/>
      <use x="740.429688" xlink:href="#DejaVuSans-32"/>
      <use x="772.216797" xlink:href="#DejaVuSans-55"/>
      <use x="835.839844" xlink:href="#DejaVuSans-32"/>
      <use x="867.626953" xlink:href="#DejaVuSans-100"/>
      <use x="931.103516" xlink:href="#DejaVuSans-97"/>
      <use x="992.382812" xlink:href="#DejaVuSans-121"/>
      <use x="1051.5625" xlink:href="#DejaVuSans-115"/>
      <use x="1103.662109" xlink:href="#DejaVuSans-41"/>
     </g>
    </g>
    <g id="line2d_83">
     <path d="M 89.002344 50.094688 
L 109.002344 50.094688 
" style="fill:none;stroke:#1f77b4;stroke-linecap:square;stroke-width:1.5;"/>
    </g>
    <g id="line2d_84">
     <defs>
      <path d="M 0 3 
C 0.795609 3 1.55874 2.683901 2.12132 2.12132 
C 2.683901 1.55874 3 0.795609 3 0 
C 3 -0.795609 2.683901 -1.55874 2.12132 -2.12132 
C 1.55874 -2.683901 0.795609 -3 0 -3 
C -0.795609 -3 -1.55874 -2.683901 -2.12132 -2.12132 
C -2.683901 -1.55874 -3 -0.795609 -3 0 
C -3 0.795609 -2.683901 1.55874 -2.12132 2.12132 
C -1.55874 2.683901 -0.795609 3 0 3 
z
" id="m8b09d5fffc" style="stroke:#1f77b4;"/>
     </defs>
     <g>
      <use style="fill:#1f77b4;stroke:#1f77b4;" x="99.002344" xlink:href="#m8b09d5fffc" y="50.094688"/>
     </g>
    </g>
    <g id="text_30">
     <!-- NY (1.4$\times$) -->
     <defs>
      <path d="M 9.8125 72.90625 
L 23.09375 72.90625 
L 55.421875 11.921875 
L 55.421875 72.90625 
L 64.984375 72.90625 
L 64.984375 0 
L 51.703125 0 
L 19.390625 60.984375 
L 19.390625 0 
L 9.8125 0 
z
" id="DejaVuSans-78"/>
      <path d="M -0.203125 72.90625 
L 10.40625 72.90625 
L 30.609375 42.921875 
L 50.6875 72.90625 
L 61.28125 72.90625 
L 35.5 34.71875 
L 35.5 0 
L 25.59375 0 
L 25.59375 34.71875 
z
" id="DejaVuSans-89"/>
      <path d="M 37.796875 64.3125 
L 12.890625 25.390625 
L 37.796875 25.390625 
z
M 35.203125 72.90625 
L 47.609375 72.90625 
L 47.609375 25.390625 
L 58.015625 25.390625 
L 58.015625 17.1875 
L 47.609375 17.1875 
L 47.609375 0 
L 37.796875 0 
L 37.796875 17.1875 
L 4.890625 17.1875 
L 4.890625 26.703125 
z
" id="DejaVuSans-52"/>
      <path d="M 70.125 53.71875 
L 47.796875 31.296875 
L 70.125 8.984375 
L 64.3125 3.078125 
L 41.890625 25.484375 
L 19.484375 3.078125 
L 13.71875 8.984375 
L 35.984375 31.296875 
L 13.71875 53.71875 
L 19.484375 59.625 
L 41.890625 37.203125 
L 64.3125 59.625 
z
" id="DejaVuSans-215"/>
     </defs>
     <g transform="translate(117.002344 53.594688)scale(0.1 -0.1)">
      <use transform="translate(0 0.125)" xlink:href="#DejaVuSans-78"/>
      <use transform="translate(74.804688 0.125)" xlink:href="#DejaVuSans-89"/>
      <use transform="translate(135.888672 0.125)" xlink:href="#DejaVuSans-32"/>
      <use transform="translate(167.675781 0.125)" xlink:href="#DejaVuSans-40"/>
      <use transform="translate(206.689453 0.125)" xlink:href="#DejaVuSans-49"/>
      <use transform="translate(270.3125 0.125)" xlink:href="#DejaVuSans-46"/>
      <use transform="translate(302.099609 0.125)" xlink:href="#DejaVuSans-52"/>
      <use transform="translate(365.722656 0.125)" xlink:href="#DejaVuSans-215"/>
      <use transform="translate(449.511719 0.125)" xlink:href="#DejaVuSans-41"/>
     </g>
    </g>
    <g id="line2d_85">
     <path d="M 89.002344 64.772813 
L 109.002344 64.772813 
" style="fill:none;stroke:#ff7f0e;stroke-linecap:square;stroke-width:1.5;"/>
    </g>
    <g id="line2d_86">
     <defs>
      <path d="M 0 3 
C 0.795609 3 1.55874 2.683901 2.12132 2.12132 
C 2.683901 1.55874 3 0.795609 3 0 
C 3 -0.795609 2.683901 -1.55874 2.12132 -2.12132 
C 1.55874 -2.683901 0.795609 -3 0 -3 
C -0.795609 -3 -1.55874 -2.683901 -2.12132 -2.12132 
C -2.683901 -1.55874 -3 -0.795609 -3 0 
C -3 0.795609 -2.683901 1.55874 -2.12132 2.12132 
C -1.55874 2.683901 -0.795609 3 0 3 
z
" id="mfe304ce15b" style="stroke:#ff7f0e;"/>
     </defs>
     <g>
      <use style="fill:#ff7f0e;stroke:#ff7f0e;" x="99.002344" xlink:href="#mfe304ce15b" y="64.772813"/>
     </g>
    </g>
    <g id="text_31">
     <!-- MI (1.4$\times$) -->
     <defs>
      <path d="M 9.8125 72.90625 
L 19.671875 72.90625 
L 19.671875 0 
L 9.8125 0 
z
" id="DejaVuSans-73"/>
     </defs>
     <g transform="translate(117.002344 68.272813)scale(0.1 -0.1)">
      <use transform="translate(0 0.125)" xlink:href="#DejaVuSans-77"/>
      <use transform="translate(86.279297 0.125)" xlink:href="#DejaVuSans-73"/>
      <use transform="translate(115.771484 0.125)" xlink:href="#DejaVuSans-32"/>
      <use transform="translate(147.558594 0.125)" xlink:href="#DejaVuSans-40"/>
      <use transform="translate(186.572266 0.125)" xlink:href="#DejaVuSans-49"/>
      <use transform="translate(250.195312 0.125)" xlink:href="#DejaVuSans-46"/>
      <use transform="translate(281.982422 0.125)" xlink:href="#DejaVuSans-52"/>
      <use transform="translate(345.605469 0.125)" xlink:href="#DejaVuSans-215"/>
      <use transform="translate(429.394531 0.125)" xlink:href="#DejaVuSans-41"/>
     </g>
    </g>
    <g id="line2d_87">
     <path d="M 89.002344 79.450938 
L 109.002344 79.450938 
" style="fill:none;stroke:#2ca02c;stroke-linecap:square;stroke-width:1.5;"/>
    </g>
    <g id="line2d_88">
     <defs>
      <path d="M 0 3 
C 0.795609 3 1.55874 2.683901 2.12132 2.12132 
C 2.683901 1.55874 3 0.795609 3 0 
C 3 -0.795609 2.683901 -1.55874 2.12132 -2.12132 
C 1.55874 -2.683901 0.795609 -3 0 -3 
C -0.795609 -3 -1.55874 -2.683901 -2.12132 -2.12132 
C -2.683901 -1.55874 -3 -0.795609 -3 0 
C -3 0.795609 -2.683901 1.55874 -2.12132 2.12132 
C -1.55874 2.683901 -0.795609 3 0 3 
z
" id="mb2bf081cfe" style="stroke:#2ca02c;"/>
     </defs>
     <g>
      <use style="fill:#2ca02c;stroke:#2ca02c;" x="99.002344" xlink:href="#mb2bf081cfe" y="79.450938"/>
     </g>
    </g>
    <g id="text_32">
     <!-- WA (1.2$\times$) -->
     <defs>
      <path d="M 3.328125 72.90625 
L 13.28125 72.90625 
L 28.609375 11.28125 
L 43.890625 72.90625 
L 54.984375 72.90625 
L 70.3125 11.28125 
L 85.59375 72.90625 
L 95.609375 72.90625 
L 77.296875 0 
L 64.890625 0 
L 49.515625 63.28125 
L 33.984375 0 
L 21.578125 0 
z
" id="DejaVuSans-87"/>
     </defs>
     <g transform="translate(117.002344 82.950938)scale(0.1 -0.1)">
      <use transform="translate(0 0.125)" xlink:href="#DejaVuSans-87"/>
      <use transform="translate(98.876953 0.125)" xlink:href="#DejaVuSans-65"/>
      <use transform="translate(167.285156 0.125)" xlink:href="#DejaVuSans-32"/>
      <use transform="translate(199.072266 0.125)" xlink:href="#DejaVuSans-40"/>
      <use transform="translate(238.085938 0.125)" xlink:href="#DejaVuSans-49"/>
      <use transform="translate(301.708984 0.125)" xlink:href="#DejaVuSans-46"/>
      <use transform="translate(333.417969 0.125)" xlink:href="#DejaVuSans-50"/>
      <use transform="translate(397.041016 0.125)" xlink:href="#DejaVuSans-215"/>
      <use transform="translate(480.830078 0.125)" xlink:href="#DejaVuSans-41"/>
     </g>
    </g>
    <g id="line2d_89">
     <path d="M 89.002344 94.129063 
L 109.002344 94.129063 
" style="fill:none;stroke:#d62728;stroke-linecap:square;stroke-width:1.5;"/>
    </g>
    <g id="line2d_90">
     <defs>
      <path d="M 0 3 
C 0.795609 3 1.55874 2.683901 2.12132 2.12132 
C 2.683901 1.55874 3 0.795609 3 0 
C 3 -0.795609 2.683901 -1.55874 2.12132 -2.12132 
C 1.55874 -2.683901 0.795609 -3 0 -3 
C -0.795609 -3 -1.55874 -2.683901 -2.12132 -2.12132 
C -2.683901 -1.55874 -3 -0.795609 -3 0 
C -3 0.795609 -2.683901 1.55874 -2.12132 2.12132 
C -1.55874 2.683901 -0.795609 3 0 3 
z
" id="m48416269a6" style="stroke:#d62728;"/>
     </defs>
     <g>
      <use style="fill:#d62728;stroke:#d62728;" x="99.002344" xlink:href="#m48416269a6" y="94.129063"/>
     </g>
    </g>
    <g id="text_33">
     <!-- WI (1.4$\times$) -->
     <g transform="translate(117.002344 97.629063)scale(0.1 -0.1)">
      <use transform="translate(0 0.125)" xlink:href="#DejaVuSans-87"/>
      <use transform="translate(98.876953 0.125)" xlink:href="#DejaVuSans-73"/>
      <use transform="translate(128.369141 0.125)" xlink:href="#DejaVuSans-32"/>
      <use transform="translate(160.15625 0.125)" xlink:href="#DejaVuSans-40"/>
      <use transform="translate(199.169922 0.125)" xlink:href="#DejaVuSans-49"/>
      <use transform="translate(262.792969 0.125)" xlink:href="#DejaVuSans-46"/>
      <use transform="translate(294.580078 0.125)" xlink:href="#DejaVuSans-52"/>
      <use transform="translate(358.203125 0.125)" xlink:href="#DejaVuSans-215"/>
      <use transform="translate(441.992188 0.125)" xlink:href="#DejaVuSans-41"/>
     </g>
    </g>
    <g id="line2d_91">
     <path d="M 89.002344 108.807188 
L 109.002344 108.807188 
" style="fill:none;stroke:#9467bd;stroke-linecap:square;stroke-width:1.5;"/>
    </g>
    <g id="line2d_92">
     <defs>
      <path d="M 0 3 
C 0.795609 3 1.55874 2.683901 2.12132 2.12132 
C 2.683901 1.55874 3 0.795609 3 0 
C 3 -0.795609 2.683901 -1.55874 2.12132 -2.12132 
C 1.55874 -2.683901 0.795609 -3 0 -3 
C -0.795609 -3 -1.55874 -2.683901 -2.12132 -2.12132 
C -2.683901 -1.55874 -3 -0.795609 -3 0 
C -3 0.795609 -2.683901 1.55874 -2.12132 2.12132 
C -1.55874 2.683901 -0.795609 3 0 3 
z
" id="ma8e742a29d" style="stroke:#9467bd;"/>
     </defs>
     <g>
      <use style="fill:#9467bd;stroke:#9467bd;" x="99.002344" xlink:href="#ma8e742a29d" y="108.807188"/>
     </g>
    </g>
    <g id="text_34">
     <!-- MN (1.6$\times$) -->
     <defs>
      <path d="M 33.015625 40.375 
Q 26.375 40.375 22.484375 35.828125 
Q 18.609375 31.296875 18.609375 23.390625 
Q 18.609375 15.53125 22.484375 10.953125 
Q 26.375 6.390625 33.015625 6.390625 
Q 39.65625 6.390625 43.53125 10.953125 
Q 47.40625 15.53125 47.40625 23.390625 
Q 47.40625 31.296875 43.53125 35.828125 
Q 39.65625 40.375 33.015625 40.375 
z
M 52.59375 71.296875 
L 52.59375 62.3125 
Q 48.875 64.0625 45.09375 64.984375 
Q 41.3125 65.921875 37.59375 65.921875 
Q 27.828125 65.921875 22.671875 59.328125 
Q 17.53125 52.734375 16.796875 39.40625 
Q 19.671875 43.65625 24.015625 45.921875 
Q 28.375 48.1875 33.59375 48.1875 
Q 44.578125 48.1875 50.953125 41.515625 
Q 57.328125 34.859375 57.328125 23.390625 
Q 57.328125 12.15625 50.6875 5.359375 
Q 44.046875 -1.421875 33.015625 -1.421875 
Q 20.359375 -1.421875 13.671875 8.265625 
Q 6.984375 17.96875 6.984375 36.375 
Q 6.984375 53.65625 15.1875 63.9375 
Q 23.390625 74.21875 37.203125 74.21875 
Q 40.921875 74.21875 44.703125 73.484375 
Q 48.484375 72.75 52.59375 71.296875 
z
" id="DejaVuSans-54"/>
     </defs>
     <g transform="translate(117.002344 112.307188)scale(0.1 -0.1)">
      <use transform="translate(0 0.125)" xlink:href="#DejaVuSans-77"/>
      <use transform="translate(86.279297 0.125)" xlink:href="#DejaVuSans-78"/>
      <use transform="translate(161.083984 0.125)" xlink:href="#DejaVuSans-32"/>
      <use transform="translate(192.871094 0.125)" xlink:href="#DejaVuSans-40"/>
      <use transform="translate(231.884766 0.125)" xlink:href="#DejaVuSans-49"/>
      <use transform="translate(295.507812 0.125)" xlink:href="#DejaVuSans-46"/>
      <use transform="translate(327.294922 0.125)" xlink:href="#DejaVuSans-54"/>
      <use transform="translate(390.917969 0.125)" xlink:href="#DejaVuSans-215"/>
      <use transform="translate(474.707031 0.125)" xlink:href="#DejaVuSans-41"/>
     </g>
    </g>
    <g id="line2d_93">
     <path d="M 89.002344 123.485313 
L 109.002344 123.485313 
" style="fill:none;stroke:#d62728;stroke-dasharray:5.55,2.4;stroke-dashoffset:0;stroke-width:1.5;"/>
    </g>
    <g id="line2d_94"/>
    <g id="text_35">
     <!-- (7.6×) -->
     <g transform="translate(117.002344 126.985313)scale(0.1 -0.1)">
      <use xlink:href="#DejaVuSans-40"/>
      <use x="39.013672" xlink:href="#DejaVuSans-55"/>
      <use x="102.636719" xlink:href="#DejaVuSans-46"/>
      <use x="134.423828" xlink:href="#DejaVuSans-54"/>
      <use x="198.046875" xlink:href="#DejaVuSans-215"/>
      <use x="281.835938" xlink:href="#DejaVuSans-41"/>
     </g>
    </g>
   </g>
   <g id="line2d_95">
    <path clip-path="url(#p63d59094bd)" d="M 15.22834 290.409098 
L 20.747635 266.641148 
L 29.171858 251.890767 
L 37.596081 237.140386 
L 46.020304 222.149547 
L 54.444527 218.429692 
L 62.86875 212.207588 
L 71.292973 208.005483 
L 79.717196 203.183245 
L 88.141419 194.522161 
L 96.565642 189.080034 
L 104.989865 181.188742 
L 113.414088 177.308885 
L 121.838311 171.761504 
L 130.262534 163.908658 
L 138.686757 152.199933 
L 147.11098 140.37554 
L 155.535203 128.952566 
L 163.959426 120.925857 
L 172.383649 112.804828 
L 180.807872 106.008659 
L 189.232095 101.612661 
L 197.656318 96.220715 
L 206.080541 92.715366 
L 214.504764 89.836353 
L 222.928987 86.035706 
L 231.35321 83.694854 
L 239.777433 81.137648 
L 248.201656 78.557749 
L 256.625879 76.40899 
L 265.050102 74.267578 
L 273.474325 72.068413 
L 281.898548 69.697122 
L 290.322771 68.280638 
L 298.746994 66.9726 
L 307.171217 65.498019 
L 315.59544 64.127288 
L 324.019663 62.67712 
L 332.443886 61.314634 
L 340.868109 60.108203 
L 349.292332 59.158493 
L 357.716555 58.455565 
" style="fill:none;stroke:#1f77b4;stroke-linecap:square;stroke-width:1.5;"/>
    <g clip-path="url(#p63d59094bd)">
     <use style="fill:#1f77b4;stroke:#1f77b4;" x="-1" xlink:href="#m8b09d5fffc" y="317.669082"/>
     <use style="fill:#1f77b4;stroke:#1f77b4;" x="3.899189" xlink:href="#m8b09d5fffc" y="317.669082"/>
     <use style="fill:#1f77b4;stroke:#1f77b4;" x="12.323412" xlink:href="#m8b09d5fffc" y="302.918701"/>
     <use style="fill:#1f77b4;stroke:#1f77b4;" x="20.747635" xlink:href="#m8b09d5fffc" y="266.641148"/>
     <use style="fill:#1f77b4;stroke:#1f77b4;" x="29.171858" xlink:href="#m8b09d5fffc" y="251.890767"/>
     <use style="fill:#1f77b4;stroke:#1f77b4;" x="37.596081" xlink:href="#m8b09d5fffc" y="237.140386"/>
     <use style="fill:#1f77b4;stroke:#1f77b4;" x="46.020304" xlink:href="#m8b09d5fffc" y="222.149547"/>
     <use style="fill:#1f77b4;stroke:#1f77b4;" x="54.444527" xlink:href="#m8b09d5fffc" y="218.429692"/>
     <use style="fill:#1f77b4;stroke:#1f77b4;" x="62.86875" xlink:href="#m8b09d5fffc" y="212.207588"/>
     <use style="fill:#1f77b4;stroke:#1f77b4;" x="71.292973" xlink:href="#m8b09d5fffc" y="208.005483"/>
     <use style="fill:#1f77b4;stroke:#1f77b4;" x="79.717196" xlink:href="#m8b09d5fffc" y="203.183245"/>
     <use style="fill:#1f77b4;stroke:#1f77b4;" x="88.141419" xlink:href="#m8b09d5fffc" y="194.522161"/>
     <use style="fill:#1f77b4;stroke:#1f77b4;" x="96.565642" xlink:href="#m8b09d5fffc" y="189.080034"/>
     <use style="fill:#1f77b4;stroke:#1f77b4;" x="104.989865" xlink:href="#m8b09d5fffc" y="181.188742"/>
     <use style="fill:#1f77b4;stroke:#1f77b4;" x="113.414088" xlink:href="#m8b09d5fffc" y="177.308885"/>
     <use style="fill:#1f77b4;stroke:#1f77b4;" x="121.838311" xlink:href="#m8b09d5fffc" y="171.761504"/>
     <use style="fill:#1f77b4;stroke:#1f77b4;" x="130.262534" xlink:href="#m8b09d5fffc" y="163.908658"/>
     <use style="fill:#1f77b4;stroke:#1f77b4;" x="138.686757" xlink:href="#m8b09d5fffc" y="152.199933"/>
     <use style="fill:#1f77b4;stroke:#1f77b4;" x="147.11098" xlink:href="#m8b09d5fffc" y="140.37554"/>
     <use style="fill:#1f77b4;stroke:#1f77b4;" x="155.535203" xlink:href="#m8b09d5fffc" y="128.952566"/>
     <use style="fill:#1f77b4;stroke:#1f77b4;" x="163.959426" xlink:href="#m8b09d5fffc" y="120.925857"/>
     <use style="fill:#1f77b4;stroke:#1f77b4;" x="172.383649" xlink:href="#m8b09d5fffc" y="112.804828"/>
     <use style="fill:#1f77b4;stroke:#1f77b4;" x="180.807872" xlink:href="#m8b09d5fffc" y="106.008659"/>
     <use style="fill:#1f77b4;stroke:#1f77b4;" x="189.232095" xlink:href="#m8b09d5fffc" y="101.612661"/>
     <use style="fill:#1f77b4;stroke:#1f77b4;" x="197.656318" xlink:href="#m8b09d5fffc" y="96.220715"/>
     <use style="fill:#1f77b4;stroke:#1f77b4;" x="206.080541" xlink:href="#m8b09d5fffc" y="92.715366"/>
     <use style="fill:#1f77b4;stroke:#1f77b4;" x="214.504764" xlink:href="#m8b09d5fffc" y="89.836353"/>
     <use style="fill:#1f77b4;stroke:#1f77b4;" x="222.928987" xlink:href="#m8b09d5fffc" y="86.035706"/>
     <use style="fill:#1f77b4;stroke:#1f77b4;" x="231.35321" xlink:href="#m8b09d5fffc" y="83.694854"/>
     <use style="fill:#1f77b4;stroke:#1f77b4;" x="239.777433" xlink:href="#m8b09d5fffc" y="81.137648"/>
     <use style="fill:#1f77b4;stroke:#1f77b4;" x="248.201656" xlink:href="#m8b09d5fffc" y="78.557749"/>
     <use style="fill:#1f77b4;stroke:#1f77b4;" x="256.625879" xlink:href="#m8b09d5fffc" y="76.40899"/>
     <use style="fill:#1f77b4;stroke:#1f77b4;" x="265.050102" xlink:href="#m8b09d5fffc" y="74.267578"/>
     <use style="fill:#1f77b4;stroke:#1f77b4;" x="273.474325" xlink:href="#m8b09d5fffc" y="72.068413"/>
     <use style="fill:#1f77b4;stroke:#1f77b4;" x="281.898548" xlink:href="#m8b09d5fffc" y="69.697122"/>
     <use style="fill:#1f77b4;stroke:#1f77b4;" x="290.322771" xlink:href="#m8b09d5fffc" y="68.280638"/>
     <use style="fill:#1f77b4;stroke:#1f77b4;" x="298.746994" xlink:href="#m8b09d5fffc" y="66.9726"/>
     <use style="fill:#1f77b4;stroke:#1f77b4;" x="307.171217" xlink:href="#m8b09d5fffc" y="65.498019"/>
     <use style="fill:#1f77b4;stroke:#1f77b4;" x="315.59544" xlink:href="#m8b09d5fffc" y="64.127288"/>
     <use style="fill:#1f77b4;stroke:#1f77b4;" x="324.019663" xlink:href="#m8b09d5fffc" y="62.67712"/>
     <use style="fill:#1f77b4;stroke:#1f77b4;" x="332.443886" xlink:href="#m8b09d5fffc" y="61.314634"/>
     <use style="fill:#1f77b4;stroke:#1f77b4;" x="340.868109" xlink:href="#m8b09d5fffc" y="60.108203"/>
     <use style="fill:#1f77b4;stroke:#1f77b4;" x="349.292332" xlink:href="#m8b09d5fffc" y="59.158493"/>
     <use style="fill:#1f77b4;stroke:#1f77b4;" x="357.716555" xlink:href="#m8b09d5fffc" y="58.455565"/>
    </g>
   </g>
   <g id="line2d_96">
    <path clip-path="url(#p63d59094bd)" d="M 71.292973 288.729843 
L 79.717196 288.729843 
L 88.141419 250.600661 
L 96.565642 234.981576 
L 104.989865 229.073489 
L 113.414088 218.991215 
L 121.838311 218.593441 
L 130.262534 214.648004 
L 138.686757 210.229376 
L 147.11098 179.817392 
L 155.535203 169.280785 
L 163.959426 161.578317 
L 172.383649 155.790198 
L 180.807872 150.508634 
L 189.232095 144.0795 
L 197.656318 138.812138 
L 206.080541 133.985796 
L 214.504764 128.888152 
L 222.928987 123.844869 
L 231.35321 120.257793 
L 239.777433 116.62242 
L 248.201656 113.237667 
L 256.625879 109.041754 
L 265.050102 105.861391 
L 273.474325 102.445381 
L 281.898548 99.981888 
L 290.322771 97.970665 
L 298.746994 96.027363 
L 307.171217 93.988972 
L 315.59544 92.498218 
L 324.019663 91.316102 
L 332.443886 90.086926 
L 340.868109 88.981909 
L 349.292332 88.417593 
L 357.716555 87.571907 
" style="fill:none;stroke:#ff7f0e;stroke-linecap:square;stroke-width:1.5;"/>
    <g clip-path="url(#p63d59094bd)">
     <use style="fill:#ff7f0e;stroke:#ff7f0e;" x="71.292973" xlink:href="#mfe304ce15b" y="288.729843"/>
     <use style="fill:#ff7f0e;stroke:#ff7f0e;" x="79.717196" xlink:href="#mfe304ce15b" y="288.729843"/>
     <use style="fill:#ff7f0e;stroke:#ff7f0e;" x="88.141419" xlink:href="#mfe304ce15b" y="250.600661"/>
     <use style="fill:#ff7f0e;stroke:#ff7f0e;" x="96.565642" xlink:href="#mfe304ce15b" y="234.981576"/>
     <use style="fill:#ff7f0e;stroke:#ff7f0e;" x="104.989865" xlink:href="#mfe304ce15b" y="229.073489"/>
     <use style="fill:#ff7f0e;stroke:#ff7f0e;" x="113.414088" xlink:href="#mfe304ce15b" y="218.991215"/>
     <use style="fill:#ff7f0e;stroke:#ff7f0e;" x="121.838311" xlink:href="#mfe304ce15b" y="218.593441"/>
     <use style="fill:#ff7f0e;stroke:#ff7f0e;" x="130.262534" xlink:href="#mfe304ce15b" y="214.648004"/>
     <use style="fill:#ff7f0e;stroke:#ff7f0e;" x="138.686757" xlink:href="#mfe304ce15b" y="210.229376"/>
     <use style="fill:#ff7f0e;stroke:#ff7f0e;" x="147.11098" xlink:href="#mfe304ce15b" y="179.817392"/>
     <use style="fill:#ff7f0e;stroke:#ff7f0e;" x="155.535203" xlink:href="#mfe304ce15b" y="169.280785"/>
     <use style="fill:#ff7f0e;stroke:#ff7f0e;" x="163.959426" xlink:href="#mfe304ce15b" y="161.578317"/>
     <use style="fill:#ff7f0e;stroke:#ff7f0e;" x="172.383649" xlink:href="#mfe304ce15b" y="155.790198"/>
     <use style="fill:#ff7f0e;stroke:#ff7f0e;" x="180.807872" xlink:href="#mfe304ce15b" y="150.508634"/>
     <use style="fill:#ff7f0e;stroke:#ff7f0e;" x="189.232095" xlink:href="#mfe304ce15b" y="144.0795"/>
     <use style="fill:#ff7f0e;stroke:#ff7f0e;" x="197.656318" xlink:href="#mfe304ce15b" y="138.812138"/>
     <use style="fill:#ff7f0e;stroke:#ff7f0e;" x="206.080541" xlink:href="#mfe304ce15b" y="133.985796"/>
     <use style="fill:#ff7f0e;stroke:#ff7f0e;" x="214.504764" xlink:href="#mfe304ce15b" y="128.888152"/>
     <use style="fill:#ff7f0e;stroke:#ff7f0e;" x="222.928987" xlink:href="#mfe304ce15b" y="123.844869"/>
     <use style="fill:#ff7f0e;stroke:#ff7f0e;" x="231.35321" xlink:href="#mfe304ce15b" y="120.257793"/>
     <use style="fill:#ff7f0e;stroke:#ff7f0e;" x="239.777433" xlink:href="#mfe304ce15b" y="116.62242"/>
     <use style="fill:#ff7f0e;stroke:#ff7f0e;" x="248.201656" xlink:href="#mfe304ce15b" y="113.237667"/>
     <use style="fill:#ff7f0e;stroke:#ff7f0e;" x="256.625879" xlink:href="#mfe304ce15b" y="109.041754"/>
     <use style="fill:#ff7f0e;stroke:#ff7f0e;" x="265.050102" xlink:href="#mfe304ce15b" y="105.861391"/>
     <use style="fill:#ff7f0e;stroke:#ff7f0e;" x="273.474325" xlink:href="#mfe304ce15b" y="102.445381"/>
     <use style="fill:#ff7f0e;stroke:#ff7f0e;" x="281.898548" xlink:href="#mfe304ce15b" y="99.981888"/>
     <use style="fill:#ff7f0e;stroke:#ff7f0e;" x="290.322771" xlink:href="#mfe304ce15b" y="97.970665"/>
     <use style="fill:#ff7f0e;stroke:#ff7f0e;" x="298.746994" xlink:href="#mfe304ce15b" y="96.027363"/>
     <use style="fill:#ff7f0e;stroke:#ff7f0e;" x="307.171217" xlink:href="#mfe304ce15b" y="93.988972"/>
     <use style="fill:#ff7f0e;stroke:#ff7f0e;" x="315.59544" xlink:href="#mfe304ce15b" y="92.498218"/>
     <use style="fill:#ff7f0e;stroke:#ff7f0e;" x="324.019663" xlink:href="#mfe304ce15b" y="91.316102"/>
     <use style="fill:#ff7f0e;stroke:#ff7f0e;" x="332.443886" xlink:href="#mfe304ce15b" y="90.086926"/>
     <use style="fill:#ff7f0e;stroke:#ff7f0e;" x="340.868109" xlink:href="#mfe304ce15b" y="88.981909"/>
     <use style="fill:#ff7f0e;stroke:#ff7f0e;" x="349.292332" xlink:href="#mfe304ce15b" y="88.417593"/>
     <use style="fill:#ff7f0e;stroke:#ff7f0e;" x="357.716555" xlink:href="#mfe304ce15b" y="87.571907"/>
    </g>
   </g>
   <g id="line2d_97">
    <path clip-path="url(#p63d59094bd)" d="M -1 234.726468 
L 3.899189 230.98551 
L 12.323412 223.957868 
L 20.747635 215.777471 
L 29.171858 205.832324 
L 37.596081 202.919919 
L 46.020304 197.682133 
L 54.444527 192.39867 
L 62.86875 187.320639 
L 71.292973 177.875888 
L 79.717196 173.7936 
L 88.141419 169.222059 
L 96.565642 164.997948 
L 104.989865 161.264347 
L 113.414088 159.074722 
L 121.838311 155.619424 
L 130.262534 152.764439 
L 138.686757 150.16444 
L 147.11098 146.339964 
L 155.535203 143.489713 
L 163.959426 139.98962 
L 172.383649 137.688451 
L 180.807872 134.911876 
L 189.232095 131.47724 
L 197.656318 130.500213 
L 206.080541 125.905324 
L 214.504764 122.470102 
L 222.928987 119.616522 
L 231.35321 116.908632 
L 239.777433 115.712819 
L 248.201656 115.253499 
L 256.625879 114.095315 
L 265.050102 110.601666 
L 273.474325 109.404717 
L 281.898548 107.83859 
L 290.322771 106.502118 
L 298.746994 105.461818 
L 307.171217 104.718566 
L 315.59544 103.724929 
L 324.019663 102.561931 
L 332.443886 101.952789 
L 340.868109 101.239535 
L 349.292332 100.853828 
L 357.716555 100.595808 
" style="fill:none;stroke:#2ca02c;stroke-linecap:square;stroke-width:1.5;"/>
    <g clip-path="url(#p63d59094bd)">
     <use style="fill:#2ca02c;stroke:#2ca02c;" x="-1" xlink:href="#mb2bf081cfe" y="234.726468"/>
     <use style="fill:#2ca02c;stroke:#2ca02c;" x="3.899189" xlink:href="#mb2bf081cfe" y="230.98551"/>
     <use style="fill:#2ca02c;stroke:#2ca02c;" x="12.323412" xlink:href="#mb2bf081cfe" y="223.957868"/>
     <use style="fill:#2ca02c;stroke:#2ca02c;" x="20.747635" xlink:href="#mb2bf081cfe" y="215.777471"/>
     <use style="fill:#2ca02c;stroke:#2ca02c;" x="29.171858" xlink:href="#mb2bf081cfe" y="205.832324"/>
     <use style="fill:#2ca02c;stroke:#2ca02c;" x="37.596081" xlink:href="#mb2bf081cfe" y="202.919919"/>
     <use style="fill:#2ca02c;stroke:#2ca02c;" x="46.020304" xlink:href="#mb2bf081cfe" y="197.682133"/>
     <use style="fill:#2ca02c;stroke:#2ca02c;" x="54.444527" xlink:href="#mb2bf081cfe" y="192.39867"/>
     <use style="fill:#2ca02c;stroke:#2ca02c;" x="62.86875" xlink:href="#mb2bf081cfe" y="187.320639"/>
     <use style="fill:#2ca02c;stroke:#2ca02c;" x="71.292973" xlink:href="#mb2bf081cfe" y="177.875888"/>
     <use style="fill:#2ca02c;stroke:#2ca02c;" x="79.717196" xlink:href="#mb2bf081cfe" y="173.7936"/>
     <use style="fill:#2ca02c;stroke:#2ca02c;" x="88.141419" xlink:href="#mb2bf081cfe" y="169.222059"/>
     <use style="fill:#2ca02c;stroke:#2ca02c;" x="96.565642" xlink:href="#mb2bf081cfe" y="164.997948"/>
     <use style="fill:#2ca02c;stroke:#2ca02c;" x="104.989865" xlink:href="#mb2bf081cfe" y="161.264347"/>
     <use style="fill:#2ca02c;stroke:#2ca02c;" x="113.414088" xlink:href="#mb2bf081cfe" y="159.074722"/>
     <use style="fill:#2ca02c;stroke:#2ca02c;" x="121.838311" xlink:href="#mb2bf081cfe" y="155.619424"/>
     <use style="fill:#2ca02c;stroke:#2ca02c;" x="130.262534" xlink:href="#mb2bf081cfe" y="152.764439"/>
     <use style="fill:#2ca02c;stroke:#2ca02c;" x="138.686757" xlink:href="#mb2bf081cfe" y="150.16444"/>
     <use style="fill:#2ca02c;stroke:#2ca02c;" x="147.11098" xlink:href="#mb2bf081cfe" y="146.339964"/>
     <use style="fill:#2ca02c;stroke:#2ca02c;" x="155.535203" xlink:href="#mb2bf081cfe" y="143.489713"/>
     <use style="fill:#2ca02c;stroke:#2ca02c;" x="163.959426" xlink:href="#mb2bf081cfe" y="139.98962"/>
     <use style="fill:#2ca02c;stroke:#2ca02c;" x="172.383649" xlink:href="#mb2bf081cfe" y="137.688451"/>
     <use style="fill:#2ca02c;stroke:#2ca02c;" x="180.807872" xlink:href="#mb2bf081cfe" y="134.911876"/>
     <use style="fill:#2ca02c;stroke:#2ca02c;" x="189.232095" xlink:href="#mb2bf081cfe" y="131.47724"/>
     <use style="fill:#2ca02c;stroke:#2ca02c;" x="197.656318" xlink:href="#mb2bf081cfe" y="130.500213"/>
     <use style="fill:#2ca02c;stroke:#2ca02c;" x="206.080541" xlink:href="#mb2bf081cfe" y="125.905324"/>
     <use style="fill:#2ca02c;stroke:#2ca02c;" x="214.504764" xlink:href="#mb2bf081cfe" y="122.470102"/>
     <use style="fill:#2ca02c;stroke:#2ca02c;" x="222.928987" xlink:href="#mb2bf081cfe" y="119.616522"/>
     <use style="fill:#2ca02c;stroke:#2ca02c;" x="231.35321" xlink:href="#mb2bf081cfe" y="116.908632"/>
     <use style="fill:#2ca02c;stroke:#2ca02c;" x="239.777433" xlink:href="#mb2bf081cfe" y="115.712819"/>
     <use style="fill:#2ca02c;stroke:#2ca02c;" x="248.201656" xlink:href="#mb2bf081cfe" y="115.253499"/>
     <use style="fill:#2ca02c;stroke:#2ca02c;" x="256.625879" xlink:href="#mb2bf081cfe" y="114.095315"/>
     <use style="fill:#2ca02c;stroke:#2ca02c;" x="265.050102" xlink:href="#mb2bf081cfe" y="110.601666"/>
     <use style="fill:#2ca02c;stroke:#2ca02c;" x="273.474325" xlink:href="#mb2bf081cfe" y="109.404717"/>
     <use style="fill:#2ca02c;stroke:#2ca02c;" x="281.898548" xlink:href="#mb2bf081cfe" y="107.83859"/>
     <use style="fill:#2ca02c;stroke:#2ca02c;" x="290.322771" xlink:href="#mb2bf081cfe" y="106.502118"/>
     <use style="fill:#2ca02c;stroke:#2ca02c;" x="298.746994" xlink:href="#mb2bf081cfe" y="105.461818"/>
     <use style="fill:#2ca02c;stroke:#2ca02c;" x="307.171217" xlink:href="#mb2bf081cfe" y="104.718566"/>
     <use style="fill:#2ca02c;stroke:#2ca02c;" x="315.59544" xlink:href="#mb2bf081cfe" y="103.724929"/>
     <use style="fill:#2ca02c;stroke:#2ca02c;" x="324.019663" xlink:href="#mb2bf081cfe" y="102.561931"/>
     <use style="fill:#2ca02c;stroke:#2ca02c;" x="332.443886" xlink:href="#mb2bf081cfe" y="101.952789"/>
     <use style="fill:#2ca02c;stroke:#2ca02c;" x="340.868109" xlink:href="#mb2bf081cfe" y="101.239535"/>
     <use style="fill:#2ca02c;stroke:#2ca02c;" x="349.292332" xlink:href="#mb2bf081cfe" y="100.853828"/>
     <use style="fill:#2ca02c;stroke:#2ca02c;" x="357.716555" xlink:href="#mb2bf081cfe" y="100.595808"/>
    </g>
   </g>
   <g id="line2d_98">
    <path clip-path="url(#p63d59094bd)" d="M 55.35221 290.409098 
L 62.86875 277.248023 
L 71.292973 268.619604 
L 79.717196 253.869223 
L 88.141419 247.747261 
L 96.565642 229.339855 
L 104.989865 221.862002 
L 113.414088 217.591669 
L 121.838311 210.066103 
L 130.262534 200.98966 
L 138.686757 192.759015 
L 147.11098 184.672798 
L 155.535203 177.61086 
L 163.959426 172.012517 
L 172.383649 165.478062 
L 180.807872 163.56154 
L 189.232095 160.574087 
L 197.656318 155.069315 
L 206.080541 151.008058 
L 214.504764 146.543616 
L 222.928987 144.123777 
L 231.35321 142.587621 
L 239.777433 139.963266 
L 248.201656 138.597216 
L 256.625879 135.673093 
L 265.050102 133.335101 
L 273.474325 131.161993 
L 281.898548 129.089384 
L 290.322771 127.58227 
L 298.746994 126.017303 
L 307.171217 124.846549 
L 315.59544 123.425738 
L 324.019663 122.452281 
L 332.443886 121.143521 
L 340.868109 120.160814 
L 349.292332 119.329497 
L 357.716555 118.782448 
" style="fill:none;stroke:#d62728;stroke-linecap:square;stroke-width:1.5;"/>
    <g clip-path="url(#p63d59094bd)">
     <use style="fill:#d62728;stroke:#d62728;" x="-1" xlink:href="#m48416269a6" y="291.998404"/>
     <use style="fill:#d62728;stroke:#d62728;" x="3.899189" xlink:href="#m48416269a6" y="291.998404"/>
     <use style="fill:#d62728;stroke:#d62728;" x="12.323412" xlink:href="#m48416269a6" y="291.998404"/>
     <use style="fill:#d62728;stroke:#d62728;" x="20.747635" xlink:href="#m48416269a6" y="291.998404"/>
     <use style="fill:#d62728;stroke:#d62728;" x="29.171858" xlink:href="#m48416269a6" y="291.998404"/>
     <use style="fill:#d62728;stroke:#d62728;" x="37.596081" xlink:href="#m48416269a6" y="291.998404"/>
     <use style="fill:#d62728;stroke:#d62728;" x="46.020304" xlink:href="#m48416269a6" y="291.998404"/>
     <use style="fill:#d62728;stroke:#d62728;" x="54.444527" xlink:href="#m48416269a6" y="291.998404"/>
     <use style="fill:#d62728;stroke:#d62728;" x="62.86875" xlink:href="#m48416269a6" y="277.248023"/>
     <use style="fill:#d62728;stroke:#d62728;" x="71.292973" xlink:href="#m48416269a6" y="268.619604"/>
     <use style="fill:#d62728;stroke:#d62728;" x="79.717196" xlink:href="#m48416269a6" y="253.869223"/>
     <use style="fill:#d62728;stroke:#d62728;" x="88.141419" xlink:href="#m48416269a6" y="247.747261"/>
     <use style="fill:#d62728;stroke:#d62728;" x="96.565642" xlink:href="#m48416269a6" y="229.339855"/>
     <use style="fill:#d62728;stroke:#d62728;" x="104.989865" xlink:href="#m48416269a6" y="221.862002"/>
     <use style="fill:#d62728;stroke:#d62728;" x="113.414088" xlink:href="#m48416269a6" y="217.591669"/>
     <use style="fill:#d62728;stroke:#d62728;" x="121.838311" xlink:href="#m48416269a6" y="210.066103"/>
     <use style="fill:#d62728;stroke:#d62728;" x="130.262534" xlink:href="#m48416269a6" y="200.98966"/>
     <use style="fill:#d62728;stroke:#d62728;" x="138.686757" xlink:href="#m48416269a6" y="192.759015"/>
     <use style="fill:#d62728;stroke:#d62728;" x="147.11098" xlink:href="#m48416269a6" y="184.672798"/>
     <use style="fill:#d62728;stroke:#d62728;" x="155.535203" xlink:href="#m48416269a6" y="177.61086"/>
     <use style="fill:#d62728;stroke:#d62728;" x="163.959426" xlink:href="#m48416269a6" y="172.012517"/>
     <use style="fill:#d62728;stroke:#d62728;" x="172.383649" xlink:href="#m48416269a6" y="165.478062"/>
     <use style="fill:#d62728;stroke:#d62728;" x="180.807872" xlink:href="#m48416269a6" y="163.56154"/>
     <use style="fill:#d62728;stroke:#d62728;" x="189.232095" xlink:href="#m48416269a6" y="160.574087"/>
     <use style="fill:#d62728;stroke:#d62728;" x="197.656318" xlink:href="#m48416269a6" y="155.069315"/>
     <use style="fill:#d62728;stroke:#d62728;" x="206.080541" xlink:href="#m48416269a6" y="151.008058"/>
     <use style="fill:#d62728;stroke:#d62728;" x="214.504764" xlink:href="#m48416269a6" y="146.543616"/>
     <use style="fill:#d62728;stroke:#d62728;" x="222.928987" xlink:href="#m48416269a6" y="144.123777"/>
     <use style="fill:#d62728;stroke:#d62728;" x="231.35321" xlink:href="#m48416269a6" y="142.587621"/>
     <use style="fill:#d62728;stroke:#d62728;" x="239.777433" xlink:href="#m48416269a6" y="139.963266"/>
     <use style="fill:#d62728;stroke:#d62728;" x="248.201656" xlink:href="#m48416269a6" y="138.597216"/>
     <use style="fill:#d62728;stroke:#d62728;" x="256.625879" xlink:href="#m48416269a6" y="135.673093"/>
     <use style="fill:#d62728;stroke:#d62728;" x="265.050102" xlink:href="#m48416269a6" y="133.335101"/>
     <use style="fill:#d62728;stroke:#d62728;" x="273.474325" xlink:href="#m48416269a6" y="131.161993"/>
     <use style="fill:#d62728;stroke:#d62728;" x="281.898548" xlink:href="#m48416269a6" y="129.089384"/>
     <use style="fill:#d62728;stroke:#d62728;" x="290.322771" xlink:href="#m48416269a6" y="127.58227"/>
     <use style="fill:#d62728;stroke:#d62728;" x="298.746994" xlink:href="#m48416269a6" y="126.017303"/>
     <use style="fill:#d62728;stroke:#d62728;" x="307.171217" xlink:href="#m48416269a6" y="124.846549"/>
     <use style="fill:#d62728;stroke:#d62728;" x="315.59544" xlink:href="#m48416269a6" y="123.425738"/>
     <use style="fill:#d62728;stroke:#d62728;" x="324.019663" xlink:href="#m48416269a6" y="122.452281"/>
     <use style="fill:#d62728;stroke:#d62728;" x="332.443886" xlink:href="#m48416269a6" y="121.143521"/>
     <use style="fill:#d62728;stroke:#d62728;" x="340.868109" xlink:href="#m48416269a6" y="120.160814"/>
     <use style="fill:#d62728;stroke:#d62728;" x="349.292332" xlink:href="#m48416269a6" y="119.329497"/>
     <use style="fill:#d62728;stroke:#d62728;" x="357.716555" xlink:href="#m48416269a6" y="118.782448"/>
    </g>
   </g>
   <g id="line2d_99">
    <path clip-path="url(#p63d59094bd)" d="M 46.540293 290.409098 
L 54.444527 276.569191 
L 62.86875 276.569191 
L 71.292973 267.940771 
L 79.717196 257.070248 
L 88.141419 244.56197 
L 96.565642 235.159636 
L 104.989865 226.531217 
L 113.414088 215.660693 
L 121.838311 206.432789 
L 130.262534 204.190685 
L 138.686757 198.882083 
L 147.11098 195.800037 
L 155.535203 190.345986 
L 163.959426 186.466128 
L 172.383649 181.903421 
L 180.807872 175.137946 
L 189.232095 172.823522 
L 197.656318 170.884084 
L 206.080541 166.905592 
L 214.504764 163.926069 
L 222.928987 161.742861 
L 231.35321 158.901273 
L 239.777433 156.059685 
L 248.201656 154.186516 
L 256.625879 152.247668 
L 265.050102 150.670628 
L 273.474325 149.363654 
L 281.898548 147.406649 
L 290.322771 145.75068 
L 298.746994 144.620487 
L 307.171217 142.900558 
L 315.59544 141.272391 
L 324.019663 139.708527 
L 332.443886 138.171912 
L 340.868109 136.753728 
L 349.292332 134.041152 
L 357.716555 133.663808 
" style="fill:none;stroke:#9467bd;stroke-linecap:square;stroke-width:1.5;"/>
    <g clip-path="url(#p63d59094bd)">
     <use style="fill:#9467bd;stroke:#9467bd;" x="37.596081" xlink:href="#ma8e742a29d" y="291.319572"/>
     <use style="fill:#9467bd;stroke:#9467bd;" x="46.020304" xlink:href="#ma8e742a29d" y="291.319572"/>
     <use style="fill:#9467bd;stroke:#9467bd;" x="54.444527" xlink:href="#ma8e742a29d" y="276.569191"/>
     <use style="fill:#9467bd;stroke:#9467bd;" x="62.86875" xlink:href="#ma8e742a29d" y="276.569191"/>
     <use style="fill:#9467bd;stroke:#9467bd;" x="71.292973" xlink:href="#ma8e742a29d" y="267.940771"/>
     <use style="fill:#9467bd;stroke:#9467bd;" x="79.717196" xlink:href="#ma8e742a29d" y="257.070248"/>
     <use style="fill:#9467bd;stroke:#9467bd;" x="88.141419" xlink:href="#ma8e742a29d" y="244.56197"/>
     <use style="fill:#9467bd;stroke:#9467bd;" x="96.565642" xlink:href="#ma8e742a29d" y="235.159636"/>
     <use style="fill:#9467bd;stroke:#9467bd;" x="104.989865" xlink:href="#ma8e742a29d" y="226.531217"/>
     <use style="fill:#9467bd;stroke:#9467bd;" x="113.414088" xlink:href="#ma8e742a29d" y="215.660693"/>
     <use style="fill:#9467bd;stroke:#9467bd;" x="121.838311" xlink:href="#ma8e742a29d" y="206.432789"/>
     <use style="fill:#9467bd;stroke:#9467bd;" x="130.262534" xlink:href="#ma8e742a29d" y="204.190685"/>
     <use style="fill:#9467bd;stroke:#9467bd;" x="138.686757" xlink:href="#ma8e742a29d" y="198.882083"/>
     <use style="fill:#9467bd;stroke:#9467bd;" x="147.11098" xlink:href="#ma8e742a29d" y="195.800037"/>
     <use style="fill:#9467bd;stroke:#9467bd;" x="155.535203" xlink:href="#ma8e742a29d" y="190.345986"/>
     <use style="fill:#9467bd;stroke:#9467bd;" x="163.959426" xlink:href="#ma8e742a29d" y="186.466128"/>
     <use style="fill:#9467bd;stroke:#9467bd;" x="172.383649" xlink:href="#ma8e742a29d" y="181.903421"/>
     <use style="fill:#9467bd;stroke:#9467bd;" x="180.807872" xlink:href="#ma8e742a29d" y="175.137946"/>
     <use style="fill:#9467bd;stroke:#9467bd;" x="189.232095" xlink:href="#ma8e742a29d" y="172.823522"/>
     <use style="fill:#9467bd;stroke:#9467bd;" x="197.656318" xlink:href="#ma8e742a29d" y="170.884084"/>
     <use style="fill:#9467bd;stroke:#9467bd;" x="206.080541" xlink:href="#ma8e742a29d" y="166.905592"/>
     <use style="fill:#9467bd;stroke:#9467bd;" x="214.504764" xlink:href="#ma8e742a29d" y="163.926069"/>
     <use style="fill:#9467bd;stroke:#9467bd;" x="222.928987" xlink:href="#ma8e742a29d" y="161.742861"/>
     <use style="fill:#9467bd;stroke:#9467bd;" x="231.35321" xlink:href="#ma8e742a29d" y="158.901273"/>
     <use style="fill:#9467bd;stroke:#9467bd;" x="239.777433" xlink:href="#ma8e742a29d" y="156.059685"/>
     <use style="fill:#9467bd;stroke:#9467bd;" x="248.201656" xlink:href="#ma8e742a29d" y="154.186516"/>
     <use style="fill:#9467bd;stroke:#9467bd;" x="256.625879" xlink:href="#ma8e742a29d" y="152.247668"/>
     <use style="fill:#9467bd;stroke:#9467bd;" x="265.050102" xlink:href="#ma8e742a29d" y="150.670628"/>
     <use style="fill:#9467bd;stroke:#9467bd;" x="273.474325" xlink:href="#ma8e742a29d" y="149.363654"/>
     <use style="fill:#9467bd;stroke:#9467bd;" x="281.898548" xlink:href="#ma8e742a29d" y="147.406649"/>
     <use style="fill:#9467bd;stroke:#9467bd;" x="290.322771" xlink:href="#ma8e742a29d" y="145.75068"/>
     <use style="fill:#9467bd;stroke:#9467bd;" x="298.746994" xlink:href="#ma8e742a29d" y="144.620487"/>
     <use style="fill:#9467bd;stroke:#9467bd;" x="307.171217" xlink:href="#ma8e742a29d" y="142.900558"/>
     <use style="fill:#9467bd;stroke:#9467bd;" x="315.59544" xlink:href="#ma8e742a29d" y="141.272391"/>
     <use style="fill:#9467bd;stroke:#9467bd;" x="324.019663" xlink:href="#ma8e742a29d" y="139.708527"/>
     <use style="fill:#9467bd;stroke:#9467bd;" x="332.443886" xlink:href="#ma8e742a29d" y="138.171912"/>
     <use style="fill:#9467bd;stroke:#9467bd;" x="340.868109" xlink:href="#ma8e742a29d" y="136.753728"/>
     <use style="fill:#9467bd;stroke:#9467bd;" x="349.292332" xlink:href="#ma8e742a29d" y="134.041152"/>
     <use style="fill:#9467bd;stroke:#9467bd;" x="357.716555" xlink:href="#ma8e742a29d" y="133.663808"/>
    </g>
   </g>
  </g>
 </g>
 <defs>
  <clipPath id="p63d59094bd">
   <rect height="217.44" width="334.8" x="62.86875" y="22.318125"/>
  </clipPath>
 </defs>
</svg>
