<?xml version="1.0" encoding="utf-8" standalone="no"?>
<!DOCTYPE svg PUBLIC "-//W3C//DTD SVG 1.1//EN"
  "http://www.w3.org/Graphics/SVG/1.1/DTD/svg11.dtd">
<!-- Created with matplotlib (https://matplotlib.org/) -->
<svg height="279.43462pt" version="1.1" viewBox="0 0 417.490553 279.43462" width="417.490553pt" xmlns="http://www.w3.org/2000/svg" xmlns:xlink="http://www.w3.org/1999/xlink">
 <defs>
  <style type="text/css">
*{stroke-linecap:butt;stroke-linejoin:round;}
  </style>
 </defs>
 <g id="figure_1">
  <g id="patch_1">
   <path d="M 0 279.43462 
L 417.490553 279.43462 
L 417.490553 0 
L 0 0 
z
" style="fill:#ffffff;"/>
  </g>
  <g id="axes_1">
   <g id="patch_2">
    <path d="M 45.478125 239.758125 
L 380.278125 239.758125 
L 380.278125 22.318125 
L 45.478125 22.318125 
z
" style="fill:#ffffff;"/>
   </g>
   <g id="line2d_1">
    <path clip-path="url(#p0793823397)" d="M 3.117098 280.43462 
L 7.451818 275.460288 
L 12.205106 270.005624 
L 16.958394 264.550961 
L 21.711683 259.096297 
L 26.464971 253.641634 
L 31.21826 248.18697 
L 35.971548 242.732307 
L 40.724837 237.277643 
L 45.478125 231.82298 
L 50.231413 226.368316 
L 54.984702 220.913653 
L 59.73799 215.458989 
L 64.491279 210.004326 
L 69.244567 204.549662 
L 73.997856 199.094999 
L 78.751144 193.640335 
L 83.504432 188.185672 
L 88.257721 182.731008 
L 93.011009 177.276345 
L 97.764298 171.821681 
L 102.517586 166.367017 
L 107.270874 160.912354 
L 112.024163 155.45769 
L 116.777451 150.003027 
L 121.53074 144.548363 
L 126.284028 139.0937 
L 131.037317 133.639036 
L 135.790605 128.184373 
L 140.543893 122.729709 
L 145.297182 117.275046 
L 150.05047 111.820382 
L 154.803759 106.365719 
L 159.557047 100.911055 
L 164.310335 95.456392 
L 169.063624 90.001728 
L 173.816912 84.547065 
L 178.570201 79.092401 
L 183.323489 73.637738 
L 188.076778 68.183074 
L 192.830066 62.728411 
L 197.583354 57.273747 
L 202.336643 51.819084 
L 207.089931 46.36442 
L 211.84322 40.909756 
L 216.596508 35.455093 
L 221.349796 30.000429 
L 226.103085 24.545766 
L 230.856373 19.091102 
L 235.609662 13.636439 
L 240.36295 8.181775 
L 245.116239 2.727112 
L 248.364108 -1 
" style="fill:none;stroke:#2ca02c;stroke-linecap:square;"/>
   </g>
   <g id="line2d_2">
    <path clip-path="url(#p0793823397)" d="M 74.591474 280.43462 
L 78.751144 275.661167 
L 83.504432 270.206503 
L 88.257721 264.75184 
L 93.011009 259.297176 
L 97.764298 253.842512 
L 102.517586 248.387849 
L 107.270874 242.933185 
L 112.024163 237.478522 
L 116.777451 232.023858 
L 121.53074 226.569195 
L 126.284028 221.114531 
L 131.037317 215.659868 
L 135.790605 210.205204 
L 140.543893 204.750541 
L 145.297182 199.295877 
L 150.05047 193.841214 
L 154.803759 188.38655 
L 159.557047 182.931887 
L 164.310335 177.477223 
L 169.063624 172.02256 
L 173.816912 166.567896 
L 178.570201 161.113233 
L 183.323489 155.658569 
L 188.076778 150.203906 
L 192.830066 144.749242 
L 197.583354 139.294579 
L 202.336643 133.839915 
L 207.089931 128.385251 
L 211.84322 122.930588 
L 216.596508 117.475924 
L 221.349796 112.021261 
L 226.103085 106.566597 
L 230.856373 101.111934 
L 235.609662 95.65727 
L 240.36295 90.202607 
L 245.116239 84.747943 
L 249.869527 79.29328 
L 254.622815 73.838616 
L 259.376104 68.383953 
L 264.129392 62.929289 
L 268.882681 57.474626 
L 273.635969 52.019962 
L 278.389257 46.565299 
L 283.142546 41.110635 
L 287.895834 35.655972 
L 292.649123 30.201308 
L 297.402411 24.746645 
L 302.1557 19.291981 
L 306.908988 13.837318 
L 311.662276 8.382654 
L 316.415565 2.927991 
L 319.838484 -1 
" style="fill:none;stroke:#2ca02c;stroke-linecap:square;"/>
   </g>
   <g id="matplotlib.axis_1">
    <g id="xtick_1">
     <g id="line2d_3">
      <path clip-path="url(#p0793823397)" d="M 45.478125 239.758125 
L 45.478125 22.318125 
" style="fill:none;stroke:#b0b0b0;stroke-linecap:square;stroke-opacity:0.8;stroke-width:0.8;"/>
     </g>
     <g id="line2d_4">
      <defs>
       <path d="M 0 0 
L 0 3.5 
" id="me9d8d39829" style="stroke:#000000;stroke-width:0.8;"/>
      </defs>
      <g>
       <use style="stroke:#000000;stroke-width:0.8;" x="45.478125" xlink:href="#me9d8d39829" y="239.758125"/>
      </g>
     </g>
     <g id="text_1">
      <!-- Mar. 01 -->
      <defs>
       <path d="M 9.8125 72.90625 
L 24.515625 72.90625 
L 43.109375 23.296875 
L 61.8125 72.90625 
L 76.515625 72.90625 
L 76.515625 0 
L 66.890625 0 
L 66.890625 64.015625 
L 48.09375 14.015625 
L 38.1875 14.015625 
L 19.390625 64.015625 
L 19.390625 0 
L 9.8125 0 
z
" id="DejaVuSans-77"/>
       <path d="M 34.28125 27.484375 
Q 23.390625 27.484375 19.1875 25 
Q 14.984375 22.515625 14.984375 16.5 
Q 14.984375 11.71875 18.140625 8.90625 
Q 21.296875 6.109375 26.703125 6.109375 
Q 34.1875 6.109375 38.703125 11.40625 
Q 43.21875 16.703125 43.21875 25.484375 
L 43.21875 27.484375 
z
M 52.203125 31.203125 
L 52.203125 0 
L 43.21875 0 
L 43.21875 8.296875 
Q 40.140625 3.328125 35.546875 0.953125 
Q 30.953125 -1.421875 24.3125 -1.421875 
Q 15.921875 -1.421875 10.953125 3.296875 
Q 6 8.015625 6 15.921875 
Q 6 25.140625 12.171875 29.828125 
Q 18.359375 34.515625 30.609375 34.515625 
L 43.21875 34.515625 
L 43.21875 35.40625 
Q 43.21875 41.609375 39.140625 45 
Q 35.0625 48.390625 27.6875 48.390625 
Q 23 48.390625 18.546875 47.265625 
Q 14.109375 46.140625 10.015625 43.890625 
L 10.015625 52.203125 
Q 14.9375 54.109375 19.578125 55.046875 
Q 24.21875 56 28.609375 56 
Q 40.484375 56 46.34375 49.84375 
Q 52.203125 43.703125 52.203125 31.203125 
z
" id="DejaVuSans-97"/>
       <path d="M 41.109375 46.296875 
Q 39.59375 47.171875 37.8125 47.578125 
Q 36.03125 48 33.890625 48 
Q 26.265625 48 22.1875 43.046875 
Q 18.109375 38.09375 18.109375 28.8125 
L 18.109375 0 
L 9.078125 0 
L 9.078125 54.6875 
L 18.109375 54.6875 
L 18.109375 46.1875 
Q 20.953125 51.171875 25.484375 53.578125 
Q 30.03125 56 36.53125 56 
Q 37.453125 56 38.578125 55.875 
Q 39.703125 55.765625 41.0625 55.515625 
z
" id="DejaVuSans-114"/>
       <path d="M 10.6875 12.40625 
L 21 12.40625 
L 21 0 
L 10.6875 0 
z
" id="DejaVuSans-46"/>
       <path id="DejaVuSans-32"/>
       <path d="M 31.78125 66.40625 
Q 24.171875 66.40625 20.328125 58.90625 
Q 16.5 51.421875 16.5 36.375 
Q 16.5 21.390625 20.328125 13.890625 
Q 24.171875 6.390625 31.78125 6.390625 
Q 39.453125 6.390625 43.28125 13.890625 
Q 47.125 21.390625 47.125 36.375 
Q 47.125 51.421875 43.28125 58.90625 
Q 39.453125 66.40625 31.78125 66.40625 
z
M 31.78125 74.21875 
Q 44.046875 74.21875 50.515625 64.515625 
Q 56.984375 54.828125 56.984375 36.375 
Q 56.984375 17.96875 50.515625 8.265625 
Q 44.046875 -1.421875 31.78125 -1.421875 
Q 19.53125 -1.421875 13.0625 8.265625 
Q 6.59375 17.96875 6.59375 36.375 
Q 6.59375 54.828125 13.0625 64.515625 
Q 19.53125 74.21875 31.78125 74.21875 
z
" id="DejaVuSans-48"/>
       <path d="M 12.40625 8.296875 
L 28.515625 8.296875 
L 28.515625 63.921875 
L 10.984375 60.40625 
L 10.984375 69.390625 
L 28.421875 72.90625 
L 38.28125 72.90625 
L 38.28125 8.296875 
L 54.390625 8.296875 
L 54.390625 0 
L 12.40625 0 
z
" id="DejaVuSans-49"/>
      </defs>
      <g transform="translate(26.510937 254.356562)scale(0.1 -0.1)">
       <use xlink:href="#DejaVuSans-77"/>
       <use x="86.279297" xlink:href="#DejaVuSans-97"/>
       <use x="147.558594" xlink:href="#DejaVuSans-114"/>
       <use x="188.53125" xlink:href="#DejaVuSans-46"/>
       <use x="220.318359" xlink:href="#DejaVuSans-32"/>
       <use x="252.105469" xlink:href="#DejaVuSans-48"/>
       <use x="315.728516" xlink:href="#DejaVuSans-49"/>
      </g>
     </g>
    </g>
    <g id="xtick_2">
     <g id="line2d_5">
      <path clip-path="url(#p0793823397)" d="M 78.751144 239.758125 
L 78.751144 22.318125 
" style="fill:none;stroke:#b0b0b0;stroke-linecap:square;stroke-opacity:0.8;stroke-width:0.8;"/>
     </g>
     <g id="line2d_6">
      <g>
       <use style="stroke:#000000;stroke-width:0.8;" x="78.751144" xlink:href="#me9d8d39829" y="239.758125"/>
      </g>
     </g>
     <g id="text_2">
      <!-- Mar. 08 -->
      <defs>
       <path d="M 31.78125 34.625 
Q 24.75 34.625 20.71875 30.859375 
Q 16.703125 27.09375 16.703125 20.515625 
Q 16.703125 13.921875 20.71875 10.15625 
Q 24.75 6.390625 31.78125 6.390625 
Q 38.8125 6.390625 42.859375 10.171875 
Q 46.921875 13.96875 46.921875 20.515625 
Q 46.921875 27.09375 42.890625 30.859375 
Q 38.875 34.625 31.78125 34.625 
z
M 21.921875 38.8125 
Q 15.578125 40.375 12.03125 44.71875 
Q 8.5 49.078125 8.5 55.328125 
Q 8.5 64.0625 14.71875 69.140625 
Q 20.953125 74.21875 31.78125 74.21875 
Q 42.671875 74.21875 48.875 69.140625 
Q 55.078125 64.0625 55.078125 55.328125 
Q 55.078125 49.078125 51.53125 44.71875 
Q 48 40.375 41.703125 38.8125 
Q 48.828125 37.15625 52.796875 32.3125 
Q 56.78125 27.484375 56.78125 20.515625 
Q 56.78125 9.90625 50.3125 4.234375 
Q 43.84375 -1.421875 31.78125 -1.421875 
Q 19.734375 -1.421875 13.25 4.234375 
Q 6.78125 9.90625 6.78125 20.515625 
Q 6.78125 27.484375 10.78125 32.3125 
Q 14.796875 37.15625 21.921875 38.8125 
z
M 18.3125 54.390625 
Q 18.3125 48.734375 21.84375 45.5625 
Q 25.390625 42.390625 31.78125 42.390625 
Q 38.140625 42.390625 41.71875 45.5625 
Q 45.3125 48.734375 45.3125 54.390625 
Q 45.3125 60.0625 41.71875 63.234375 
Q 38.140625 66.40625 31.78125 66.40625 
Q 25.390625 66.40625 21.84375 63.234375 
Q 18.3125 60.0625 18.3125 54.390625 
z
" id="DejaVuSans-56"/>
      </defs>
      <g transform="translate(59.783956 254.356562)scale(0.1 -0.1)">
       <use xlink:href="#DejaVuSans-77"/>
       <use x="86.279297" xlink:href="#DejaVuSans-97"/>
       <use x="147.558594" xlink:href="#DejaVuSans-114"/>
       <use x="188.53125" xlink:href="#DejaVuSans-46"/>
       <use x="220.318359" xlink:href="#DejaVuSans-32"/>
       <use x="252.105469" xlink:href="#DejaVuSans-48"/>
       <use x="315.728516" xlink:href="#DejaVuSans-56"/>
      </g>
     </g>
    </g>
    <g id="xtick_3">
     <g id="line2d_7">
      <path clip-path="url(#p0793823397)" d="M 112.024163 239.758125 
L 112.024163 22.318125 
" style="fill:none;stroke:#b0b0b0;stroke-linecap:square;stroke-opacity:0.8;stroke-width:0.8;"/>
     </g>
     <g id="line2d_8">
      <g>
       <use style="stroke:#000000;stroke-width:0.8;" x="112.024163" xlink:href="#me9d8d39829" y="239.758125"/>
      </g>
     </g>
     <g id="text_3">
      <!-- Mar. 15 -->
      <defs>
       <path d="M 10.796875 72.90625 
L 49.515625 72.90625 
L 49.515625 64.59375 
L 19.828125 64.59375 
L 19.828125 46.734375 
Q 21.96875 47.46875 24.109375 47.828125 
Q 26.265625 48.1875 28.421875 48.1875 
Q 40.625 48.1875 47.75 41.5 
Q 54.890625 34.8125 54.890625 23.390625 
Q 54.890625 11.625 47.5625 5.09375 
Q 40.234375 -1.421875 26.90625 -1.421875 
Q 22.3125 -1.421875 17.546875 -0.640625 
Q 12.796875 0.140625 7.71875 1.703125 
L 7.71875 11.625 
Q 12.109375 9.234375 16.796875 8.0625 
Q 21.484375 6.890625 26.703125 6.890625 
Q 35.15625 6.890625 40.078125 11.328125 
Q 45.015625 15.765625 45.015625 23.390625 
Q 45.015625 31 40.078125 35.4375 
Q 35.15625 39.890625 26.703125 39.890625 
Q 22.75 39.890625 18.8125 39.015625 
Q 14.890625 38.140625 10.796875 36.28125 
z
" id="DejaVuSans-53"/>
      </defs>
      <g transform="translate(93.056975 254.356562)scale(0.1 -0.1)">
       <use xlink:href="#DejaVuSans-77"/>
       <use x="86.279297" xlink:href="#DejaVuSans-97"/>
       <use x="147.558594" xlink:href="#DejaVuSans-114"/>
       <use x="188.53125" xlink:href="#DejaVuSans-46"/>
       <use x="220.318359" xlink:href="#DejaVuSans-32"/>
       <use x="252.105469" xlink:href="#DejaVuSans-49"/>
       <use x="315.728516" xlink:href="#DejaVuSans-53"/>
      </g>
     </g>
    </g>
    <g id="xtick_4">
     <g id="line2d_9">
      <path clip-path="url(#p0793823397)" d="M 145.297182 239.758125 
L 145.297182 22.318125 
" style="fill:none;stroke:#b0b0b0;stroke-linecap:square;stroke-opacity:0.8;stroke-width:0.8;"/>
     </g>
     <g id="line2d_10">
      <g>
       <use style="stroke:#000000;stroke-width:0.8;" x="145.297182" xlink:href="#me9d8d39829" y="239.758125"/>
      </g>
     </g>
     <g id="text_4">
      <!-- Mar. 22 -->
      <defs>
       <path d="M 19.1875 8.296875 
L 53.609375 8.296875 
L 53.609375 0 
L 7.328125 0 
L 7.328125 8.296875 
Q 12.9375 14.109375 22.625 23.890625 
Q 32.328125 33.6875 34.8125 36.53125 
Q 39.546875 41.84375 41.421875 45.53125 
Q 43.3125 49.21875 43.3125 52.78125 
Q 43.3125 58.59375 39.234375 62.25 
Q 35.15625 65.921875 28.609375 65.921875 
Q 23.96875 65.921875 18.8125 64.3125 
Q 13.671875 62.703125 7.8125 59.421875 
L 7.8125 69.390625 
Q 13.765625 71.78125 18.9375 73 
Q 24.125 74.21875 28.421875 74.21875 
Q 39.75 74.21875 46.484375 68.546875 
Q 53.21875 62.890625 53.21875 53.421875 
Q 53.21875 48.921875 51.53125 44.890625 
Q 49.859375 40.875 45.40625 35.40625 
Q 44.1875 33.984375 37.640625 27.21875 
Q 31.109375 20.453125 19.1875 8.296875 
z
" id="DejaVuSans-50"/>
      </defs>
      <g transform="translate(126.329994 254.356562)scale(0.1 -0.1)">
       <use xlink:href="#DejaVuSans-77"/>
       <use x="86.279297" xlink:href="#DejaVuSans-97"/>
       <use x="147.558594" xlink:href="#DejaVuSans-114"/>
       <use x="188.53125" xlink:href="#DejaVuSans-46"/>
       <use x="220.318359" xlink:href="#DejaVuSans-32"/>
       <use x="252.105469" xlink:href="#DejaVuSans-50"/>
       <use x="315.728516" xlink:href="#DejaVuSans-50"/>
      </g>
     </g>
    </g>
    <g id="xtick_5">
     <g id="line2d_11">
      <path clip-path="url(#p0793823397)" d="M 178.570201 239.758125 
L 178.570201 22.318125 
" style="fill:none;stroke:#b0b0b0;stroke-linecap:square;stroke-opacity:0.8;stroke-width:0.8;"/>
     </g>
     <g id="line2d_12">
      <g>
       <use style="stroke:#000000;stroke-width:0.8;" x="178.570201" xlink:href="#me9d8d39829" y="239.758125"/>
      </g>
     </g>
     <g id="text_5">
      <!-- Mar. 29 -->
      <defs>
       <path d="M 10.984375 1.515625 
L 10.984375 10.5 
Q 14.703125 8.734375 18.5 7.8125 
Q 22.3125 6.890625 25.984375 6.890625 
Q 35.75 6.890625 40.890625 13.453125 
Q 46.046875 20.015625 46.78125 33.40625 
Q 43.953125 29.203125 39.59375 26.953125 
Q 35.25 24.703125 29.984375 24.703125 
Q 19.046875 24.703125 12.671875 31.3125 
Q 6.296875 37.9375 6.296875 49.421875 
Q 6.296875 60.640625 12.9375 67.421875 
Q 19.578125 74.21875 30.609375 74.21875 
Q 43.265625 74.21875 49.921875 64.515625 
Q 56.59375 54.828125 56.59375 36.375 
Q 56.59375 19.140625 48.40625 8.859375 
Q 40.234375 -1.421875 26.421875 -1.421875 
Q 22.703125 -1.421875 18.890625 -0.6875 
Q 15.09375 0.046875 10.984375 1.515625 
z
M 30.609375 32.421875 
Q 37.25 32.421875 41.125 36.953125 
Q 45.015625 41.5 45.015625 49.421875 
Q 45.015625 57.28125 41.125 61.84375 
Q 37.25 66.40625 30.609375 66.40625 
Q 23.96875 66.40625 20.09375 61.84375 
Q 16.21875 57.28125 16.21875 49.421875 
Q 16.21875 41.5 20.09375 36.953125 
Q 23.96875 32.421875 30.609375 32.421875 
z
" id="DejaVuSans-57"/>
      </defs>
      <g transform="translate(159.603013 254.356562)scale(0.1 -0.1)">
       <use xlink:href="#DejaVuSans-77"/>
       <use x="86.279297" xlink:href="#DejaVuSans-97"/>
       <use x="147.558594" xlink:href="#DejaVuSans-114"/>
       <use x="188.53125" xlink:href="#DejaVuSans-46"/>
       <use x="220.318359" xlink:href="#DejaVuSans-32"/>
       <use x="252.105469" xlink:href="#DejaVuSans-50"/>
       <use x="315.728516" xlink:href="#DejaVuSans-57"/>
      </g>
     </g>
    </g>
    <g id="xtick_6">
     <g id="line2d_13">
      <path clip-path="url(#p0793823397)" d="M 211.84322 239.758125 
L 211.84322 22.318125 
" style="fill:none;stroke:#b0b0b0;stroke-linecap:square;stroke-opacity:0.8;stroke-width:0.8;"/>
     </g>
     <g id="line2d_14">
      <g>
       <use style="stroke:#000000;stroke-width:0.8;" x="211.84322" xlink:href="#me9d8d39829" y="239.758125"/>
      </g>
     </g>
     <g id="text_6">
      <!-- Apr. 05 -->
      <defs>
       <path d="M 34.1875 63.1875 
L 20.796875 26.90625 
L 47.609375 26.90625 
z
M 28.609375 72.90625 
L 39.796875 72.90625 
L 67.578125 0 
L 57.328125 0 
L 50.6875 18.703125 
L 17.828125 18.703125 
L 11.1875 0 
L 0.78125 0 
z
" id="DejaVuSans-65"/>
       <path d="M 18.109375 8.203125 
L 18.109375 -20.796875 
L 9.078125 -20.796875 
L 9.078125 54.6875 
L 18.109375 54.6875 
L 18.109375 46.390625 
Q 20.953125 51.265625 25.265625 53.625 
Q 29.59375 56 35.59375 56 
Q 45.5625 56 51.78125 48.09375 
Q 58.015625 40.1875 58.015625 27.296875 
Q 58.015625 14.40625 51.78125 6.484375 
Q 45.5625 -1.421875 35.59375 -1.421875 
Q 29.59375 -1.421875 25.265625 0.953125 
Q 20.953125 3.328125 18.109375 8.203125 
z
M 48.6875 27.296875 
Q 48.6875 37.203125 44.609375 42.84375 
Q 40.53125 48.484375 33.40625 48.484375 
Q 26.265625 48.484375 22.1875 42.84375 
Q 18.109375 37.203125 18.109375 27.296875 
Q 18.109375 17.390625 22.1875 11.75 
Q 26.265625 6.109375 33.40625 6.109375 
Q 40.53125 6.109375 44.609375 11.75 
Q 48.6875 17.390625 48.6875 27.296875 
z
" id="DejaVuSans-112"/>
      </defs>
      <g transform="translate(193.659626 254.356562)scale(0.1 -0.1)">
       <use xlink:href="#DejaVuSans-65"/>
       <use x="68.408203" xlink:href="#DejaVuSans-112"/>
       <use x="131.884766" xlink:href="#DejaVuSans-114"/>
       <use x="172.857422" xlink:href="#DejaVuSans-46"/>
       <use x="204.644531" xlink:href="#DejaVuSans-32"/>
       <use x="236.431641" xlink:href="#DejaVuSans-48"/>
       <use x="300.054688" xlink:href="#DejaVuSans-53"/>
      </g>
     </g>
    </g>
    <g id="xtick_7">
     <g id="line2d_15">
      <path clip-path="url(#p0793823397)" d="M 245.116239 239.758125 
L 245.116239 22.318125 
" style="fill:none;stroke:#b0b0b0;stroke-linecap:square;stroke-opacity:0.8;stroke-width:0.8;"/>
     </g>
     <g id="line2d_16">
      <g>
       <use style="stroke:#000000;stroke-width:0.8;" x="245.116239" xlink:href="#me9d8d39829" y="239.758125"/>
      </g>
     </g>
     <g id="text_7">
      <!-- Apr. 12 -->
      <g transform="translate(226.932645 254.356562)scale(0.1 -0.1)">
       <use xlink:href="#DejaVuSans-65"/>
       <use x="68.408203" xlink:href="#DejaVuSans-112"/>
       <use x="131.884766" xlink:href="#DejaVuSans-114"/>
       <use x="172.857422" xlink:href="#DejaVuSans-46"/>
       <use x="204.644531" xlink:href="#DejaVuSans-32"/>
       <use x="236.431641" xlink:href="#DejaVuSans-49"/>
       <use x="300.054688" xlink:href="#DejaVuSans-50"/>
      </g>
     </g>
    </g>
    <g id="xtick_8">
     <g id="line2d_17">
      <path clip-path="url(#p0793823397)" d="M 278.389257 239.758125 
L 278.389257 22.318125 
" style="fill:none;stroke:#b0b0b0;stroke-linecap:square;stroke-opacity:0.8;stroke-width:0.8;"/>
     </g>
     <g id="line2d_18">
      <g>
       <use style="stroke:#000000;stroke-width:0.8;" x="278.389257" xlink:href="#me9d8d39829" y="239.758125"/>
      </g>
     </g>
     <g id="text_8">
      <!-- Apr. 19 -->
      <g transform="translate(260.205664 254.356562)scale(0.1 -0.1)">
       <use xlink:href="#DejaVuSans-65"/>
       <use x="68.408203" xlink:href="#DejaVuSans-112"/>
       <use x="131.884766" xlink:href="#DejaVuSans-114"/>
       <use x="172.857422" xlink:href="#DejaVuSans-46"/>
       <use x="204.644531" xlink:href="#DejaVuSans-32"/>
       <use x="236.431641" xlink:href="#DejaVuSans-49"/>
       <use x="300.054688" xlink:href="#DejaVuSans-57"/>
      </g>
     </g>
    </g>
    <g id="xtick_9">
     <g id="line2d_19">
      <path clip-path="url(#p0793823397)" d="M 311.662276 239.758125 
L 311.662276 22.318125 
" style="fill:none;stroke:#b0b0b0;stroke-linecap:square;stroke-opacity:0.8;stroke-width:0.8;"/>
     </g>
     <g id="line2d_20">
      <g>
       <use style="stroke:#000000;stroke-width:0.8;" x="311.662276" xlink:href="#me9d8d39829" y="239.758125"/>
      </g>
     </g>
     <g id="text_9">
      <!-- Apr. 26 -->
      <defs>
       <path d="M 33.015625 40.375 
Q 26.375 40.375 22.484375 35.828125 
Q 18.609375 31.296875 18.609375 23.390625 
Q 18.609375 15.53125 22.484375 10.953125 
Q 26.375 6.390625 33.015625 6.390625 
Q 39.65625 6.390625 43.53125 10.953125 
Q 47.40625 15.53125 47.40625 23.390625 
Q 47.40625 31.296875 43.53125 35.828125 
Q 39.65625 40.375 33.015625 40.375 
z
M 52.59375 71.296875 
L 52.59375 62.3125 
Q 48.875 64.0625 45.09375 64.984375 
Q 41.3125 65.921875 37.59375 65.921875 
Q 27.828125 65.921875 22.671875 59.328125 
Q 17.53125 52.734375 16.796875 39.40625 
Q 19.671875 43.65625 24.015625 45.921875 
Q 28.375 48.1875 33.59375 48.1875 
Q 44.578125 48.1875 50.953125 41.515625 
Q 57.328125 34.859375 57.328125 23.390625 
Q 57.328125 12.15625 50.6875 5.359375 
Q 44.046875 -1.421875 33.015625 -1.421875 
Q 20.359375 -1.421875 13.671875 8.265625 
Q 6.984375 17.96875 6.984375 36.375 
Q 6.984375 53.65625 15.1875 63.9375 
Q 23.390625 74.21875 37.203125 74.21875 
Q 40.921875 74.21875 44.703125 73.484375 
Q 48.484375 72.75 52.59375 71.296875 
z
" id="DejaVuSans-54"/>
      </defs>
      <g transform="translate(293.478683 254.356562)scale(0.1 -0.1)">
       <use xlink:href="#DejaVuSans-65"/>
       <use x="68.408203" xlink:href="#DejaVuSans-112"/>
       <use x="131.884766" xlink:href="#DejaVuSans-114"/>
       <use x="172.857422" xlink:href="#DejaVuSans-46"/>
       <use x="204.644531" xlink:href="#DejaVuSans-32"/>
       <use x="236.431641" xlink:href="#DejaVuSans-50"/>
       <use x="300.054688" xlink:href="#DejaVuSans-54"/>
      </g>
     </g>
    </g>
    <g id="xtick_10">
     <g id="line2d_21">
      <path clip-path="url(#p0793823397)" d="M 344.935295 239.758125 
L 344.935295 22.318125 
" style="fill:none;stroke:#b0b0b0;stroke-linecap:square;stroke-opacity:0.8;stroke-width:0.8;"/>
     </g>
     <g id="line2d_22">
      <g>
       <use style="stroke:#000000;stroke-width:0.8;" x="344.935295" xlink:href="#me9d8d39829" y="239.758125"/>
      </g>
     </g>
     <g id="text_10">
      <!-- May. 03 -->
      <defs>
       <path d="M 32.171875 -5.078125 
Q 28.375 -14.84375 24.75 -17.8125 
Q 21.140625 -20.796875 15.09375 -20.796875 
L 7.90625 -20.796875 
L 7.90625 -13.28125 
L 13.1875 -13.28125 
Q 16.890625 -13.28125 18.9375 -11.515625 
Q 21 -9.765625 23.484375 -3.21875 
L 25.09375 0.875 
L 2.984375 54.6875 
L 12.5 54.6875 
L 29.59375 11.921875 
L 46.6875 54.6875 
L 56.203125 54.6875 
z
" id="DejaVuSans-121"/>
       <path d="M 40.578125 39.3125 
Q 47.65625 37.796875 51.625 33 
Q 55.609375 28.21875 55.609375 21.1875 
Q 55.609375 10.40625 48.1875 4.484375 
Q 40.765625 -1.421875 27.09375 -1.421875 
Q 22.515625 -1.421875 17.65625 -0.515625 
Q 12.796875 0.390625 7.625 2.203125 
L 7.625 11.71875 
Q 11.71875 9.328125 16.59375 8.109375 
Q 21.484375 6.890625 26.8125 6.890625 
Q 36.078125 6.890625 40.9375 10.546875 
Q 45.796875 14.203125 45.796875 21.1875 
Q 45.796875 27.640625 41.28125 31.265625 
Q 36.765625 34.90625 28.71875 34.90625 
L 20.21875 34.90625 
L 20.21875 43.015625 
L 29.109375 43.015625 
Q 36.375 43.015625 40.234375 45.921875 
Q 44.09375 48.828125 44.09375 54.296875 
Q 44.09375 59.90625 40.109375 62.90625 
Q 36.140625 65.921875 28.71875 65.921875 
Q 24.65625 65.921875 20.015625 65.03125 
Q 15.375 64.15625 9.8125 62.3125 
L 9.8125 71.09375 
Q 15.4375 72.65625 20.34375 73.4375 
Q 25.25 74.21875 29.59375 74.21875 
Q 40.828125 74.21875 47.359375 69.109375 
Q 53.90625 64.015625 53.90625 55.328125 
Q 53.90625 49.265625 50.4375 45.09375 
Q 46.96875 40.921875 40.578125 39.3125 
z
" id="DejaVuSans-51"/>
      </defs>
      <g transform="translate(325.068108 254.356562)scale(0.1 -0.1)">
       <use xlink:href="#DejaVuSans-77"/>
       <use x="86.279297" xlink:href="#DejaVuSans-97"/>
       <use x="147.558594" xlink:href="#DejaVuSans-121"/>
       <use x="206.519531" xlink:href="#DejaVuSans-46"/>
       <use x="238.306641" xlink:href="#DejaVuSans-32"/>
       <use x="270.09375" xlink:href="#DejaVuSans-48"/>
       <use x="333.716797" xlink:href="#DejaVuSans-51"/>
      </g>
     </g>
    </g>
    <g id="xtick_11">
     <g id="line2d_23">
      <path clip-path="url(#p0793823397)" d="M 378.208314 239.758125 
L 378.208314 22.318125 
" style="fill:none;stroke:#b0b0b0;stroke-linecap:square;stroke-opacity:0.8;stroke-width:0.8;"/>
     </g>
     <g id="line2d_24">
      <g>
       <use style="stroke:#000000;stroke-width:0.8;" x="378.208314" xlink:href="#me9d8d39829" y="239.758125"/>
      </g>
     </g>
     <g id="text_11">
      <!-- May. 10 -->
      <g transform="translate(358.341127 254.356562)scale(0.1 -0.1)">
       <use xlink:href="#DejaVuSans-77"/>
       <use x="86.279297" xlink:href="#DejaVuSans-97"/>
       <use x="147.558594" xlink:href="#DejaVuSans-121"/>
       <use x="206.519531" xlink:href="#DejaVuSans-46"/>
       <use x="238.306641" xlink:href="#DejaVuSans-32"/>
       <use x="270.09375" xlink:href="#DejaVuSans-49"/>
       <use x="333.716797" xlink:href="#DejaVuSans-48"/>
      </g>
     </g>
    </g>
    <g id="text_12">
     <!-- Date -->
     <defs>
      <path d="M 19.671875 64.796875 
L 19.671875 8.109375 
L 31.59375 8.109375 
Q 46.6875 8.109375 53.6875 14.9375 
Q 60.6875 21.78125 60.6875 36.53125 
Q 60.6875 51.171875 53.6875 57.984375 
Q 46.6875 64.796875 31.59375 64.796875 
z
M 9.8125 72.90625 
L 30.078125 72.90625 
Q 51.265625 72.90625 61.171875 64.09375 
Q 71.09375 55.28125 71.09375 36.53125 
Q 71.09375 17.671875 61.125 8.828125 
Q 51.171875 0 30.078125 0 
L 9.8125 0 
z
" id="DejaVuSans-68"/>
      <path d="M 18.3125 70.21875 
L 18.3125 54.6875 
L 36.8125 54.6875 
L 36.8125 47.703125 
L 18.3125 47.703125 
L 18.3125 18.015625 
Q 18.3125 11.328125 20.140625 9.421875 
Q 21.96875 7.515625 27.59375 7.515625 
L 36.8125 7.515625 
L 36.8125 0 
L 27.59375 0 
Q 17.1875 0 13.234375 3.875 
Q 9.28125 7.765625 9.28125 18.015625 
L 9.28125 47.703125 
L 2.6875 47.703125 
L 2.6875 54.6875 
L 9.28125 54.6875 
L 9.28125 70.21875 
z
" id="DejaVuSans-116"/>
      <path d="M 56.203125 29.59375 
L 56.203125 25.203125 
L 14.890625 25.203125 
Q 15.484375 15.921875 20.484375 11.0625 
Q 25.484375 6.203125 34.421875 6.203125 
Q 39.59375 6.203125 44.453125 7.46875 
Q 49.3125 8.734375 54.109375 11.28125 
L 54.109375 2.78125 
Q 49.265625 0.734375 44.1875 -0.34375 
Q 39.109375 -1.421875 33.890625 -1.421875 
Q 20.796875 -1.421875 13.15625 6.1875 
Q 5.515625 13.8125 5.515625 26.8125 
Q 5.515625 40.234375 12.765625 48.109375 
Q 20.015625 56 32.328125 56 
Q 43.359375 56 49.78125 48.890625 
Q 56.203125 41.796875 56.203125 29.59375 
z
M 47.21875 32.234375 
Q 47.125 39.59375 43.09375 43.984375 
Q 39.0625 48.390625 32.421875 48.390625 
Q 24.90625 48.390625 20.390625 44.140625 
Q 15.875 39.890625 15.1875 32.171875 
z
" id="DejaVuSans-101"/>
     </defs>
     <g transform="translate(200.927344 268.034688)scale(0.1 -0.1)">
      <use xlink:href="#DejaVuSans-68"/>
      <use x="77.001953" xlink:href="#DejaVuSans-97"/>
      <use x="138.28125" xlink:href="#DejaVuSans-116"/>
      <use x="177.490234" xlink:href="#DejaVuSans-101"/>
     </g>
    </g>
   </g>
   <g id="matplotlib.axis_2">
    <g id="ytick_1">
     <g id="line2d_25">
      <path clip-path="url(#p0793823397)" d="M 45.478125 226.666933 
L 380.278125 226.666933 
" style="fill:none;stroke:#b0b0b0;stroke-linecap:square;stroke-opacity:0.8;stroke-width:0.8;"/>
     </g>
     <g id="line2d_26">
      <defs>
       <path d="M 0 0 
L -3.5 0 
" id="m35fb4efc8d" style="stroke:#000000;stroke-width:0.8;"/>
      </defs>
      <g>
       <use style="stroke:#000000;stroke-width:0.8;" x="45.478125" xlink:href="#m35fb4efc8d" y="226.666933"/>
      </g>
     </g>
     <g id="text_13">
      <!-- $\mathdefault{10^{2}}$ -->
      <g transform="translate(20.878125 230.466151)scale(0.1 -0.1)">
       <use transform="translate(0 0.765625)" xlink:href="#DejaVuSans-49"/>
       <use transform="translate(63.623047 0.765625)" xlink:href="#DejaVuSans-48"/>
       <use transform="translate(128.203125 39.046875)scale(0.7)" xlink:href="#DejaVuSans-50"/>
      </g>
     </g>
    </g>
    <g id="ytick_2">
     <g id="line2d_27">
      <path clip-path="url(#p0793823397)" d="M 45.478125 183.178933 
L 380.278125 183.178933 
" style="fill:none;stroke:#b0b0b0;stroke-linecap:square;stroke-opacity:0.8;stroke-width:0.8;"/>
     </g>
     <g id="line2d_28">
      <g>
       <use style="stroke:#000000;stroke-width:0.8;" x="45.478125" xlink:href="#m35fb4efc8d" y="183.178933"/>
      </g>
     </g>
     <g id="text_14">
      <!-- $\mathdefault{10^{3}}$ -->
      <g transform="translate(20.878125 186.978151)scale(0.1 -0.1)">
       <use transform="translate(0 0.765625)" xlink:href="#DejaVuSans-49"/>
       <use transform="translate(63.623047 0.765625)" xlink:href="#DejaVuSans-48"/>
       <use transform="translate(128.203125 39.046875)scale(0.7)" xlink:href="#DejaVuSans-51"/>
      </g>
     </g>
    </g>
    <g id="ytick_3">
     <g id="line2d_29">
      <path clip-path="url(#p0793823397)" d="M 45.478125 139.690933 
L 380.278125 139.690933 
" style="fill:none;stroke:#b0b0b0;stroke-linecap:square;stroke-opacity:0.8;stroke-width:0.8;"/>
     </g>
     <g id="line2d_30">
      <g>
       <use style="stroke:#000000;stroke-width:0.8;" x="45.478125" xlink:href="#m35fb4efc8d" y="139.690933"/>
      </g>
     </g>
     <g id="text_15">
      <!-- $\mathdefault{10^{4}}$ -->
      <defs>
       <path d="M 37.796875 64.3125 
L 12.890625 25.390625 
L 37.796875 25.390625 
z
M 35.203125 72.90625 
L 47.609375 72.90625 
L 47.609375 25.390625 
L 58.015625 25.390625 
L 58.015625 17.1875 
L 47.609375 17.1875 
L 47.609375 0 
L 37.796875 0 
L 37.796875 17.1875 
L 4.890625 17.1875 
L 4.890625 26.703125 
z
" id="DejaVuSans-52"/>
      </defs>
      <g transform="translate(20.878125 143.490151)scale(0.1 -0.1)">
       <use transform="translate(0 0.684375)" xlink:href="#DejaVuSans-49"/>
       <use transform="translate(63.623047 0.684375)" xlink:href="#DejaVuSans-48"/>
       <use transform="translate(128.203125 38.965625)scale(0.7)" xlink:href="#DejaVuSans-52"/>
      </g>
     </g>
    </g>
    <g id="ytick_4">
     <g id="line2d_31">
      <path clip-path="url(#p0793823397)" d="M 45.478125 96.202933 
L 380.278125 96.202933 
" style="fill:none;stroke:#b0b0b0;stroke-linecap:square;stroke-opacity:0.8;stroke-width:0.8;"/>
     </g>
     <g id="line2d_32">
      <g>
       <use style="stroke:#000000;stroke-width:0.8;" x="45.478125" xlink:href="#m35fb4efc8d" y="96.202933"/>
      </g>
     </g>
     <g id="text_16">
      <!-- $\mathdefault{10^{5}}$ -->
      <g transform="translate(20.878125 100.002151)scale(0.1 -0.1)">
       <use transform="translate(0 0.684375)" xlink:href="#DejaVuSans-49"/>
       <use transform="translate(63.623047 0.684375)" xlink:href="#DejaVuSans-48"/>
       <use transform="translate(128.203125 38.965625)scale(0.7)" xlink:href="#DejaVuSans-53"/>
      </g>
     </g>
    </g>
    <g id="ytick_5">
     <g id="line2d_33">
      <path clip-path="url(#p0793823397)" d="M 45.478125 52.714933 
L 380.278125 52.714933 
" style="fill:none;stroke:#b0b0b0;stroke-linecap:square;stroke-opacity:0.8;stroke-width:0.8;"/>
     </g>
     <g id="line2d_34">
      <g>
       <use style="stroke:#000000;stroke-width:0.8;" x="45.478125" xlink:href="#m35fb4efc8d" y="52.714933"/>
      </g>
     </g>
     <g id="text_17">
      <!-- $\mathdefault{10^{6}}$ -->
      <g transform="translate(20.878125 56.514151)scale(0.1 -0.1)">
       <use transform="translate(0 0.765625)" xlink:href="#DejaVuSans-49"/>
       <use transform="translate(63.623047 0.765625)" xlink:href="#DejaVuSans-48"/>
       <use transform="translate(128.203125 39.046875)scale(0.7)" xlink:href="#DejaVuSans-54"/>
      </g>
     </g>
    </g>
    <g id="ytick_6">
     <g id="line2d_35">
      <defs>
       <path d="M 0 0 
L -2 0 
" id="m556f1fb8c5" style="stroke:#000000;stroke-width:0.6;"/>
      </defs>
      <g>
       <use style="stroke:#000000;stroke-width:0.6;" x="45.478125" xlink:href="#m556f1fb8c5" y="239.758125"/>
      </g>
     </g>
    </g>
    <g id="ytick_7">
     <g id="line2d_36">
      <g>
       <use style="stroke:#000000;stroke-width:0.6;" x="45.478125" xlink:href="#m556f1fb8c5" y="236.314691"/>
      </g>
     </g>
    </g>
    <g id="ytick_8">
     <g id="line2d_37">
      <g>
       <use style="stroke:#000000;stroke-width:0.6;" x="45.478125" xlink:href="#m556f1fb8c5" y="233.403309"/>
      </g>
     </g>
    </g>
    <g id="ytick_9">
     <g id="line2d_38">
      <g>
       <use style="stroke:#000000;stroke-width:0.6;" x="45.478125" xlink:href="#m556f1fb8c5" y="230.881355"/>
      </g>
     </g>
    </g>
    <g id="ytick_10">
     <g id="line2d_39">
      <g>
       <use style="stroke:#000000;stroke-width:0.6;" x="45.478125" xlink:href="#m556f1fb8c5" y="228.656834"/>
      </g>
     </g>
    </g>
    <g id="ytick_11">
     <g id="line2d_40">
      <g>
       <use style="stroke:#000000;stroke-width:0.6;" x="45.478125" xlink:href="#m556f1fb8c5" y="213.57574"/>
      </g>
     </g>
    </g>
    <g id="ytick_12">
     <g id="line2d_41">
      <g>
       <use style="stroke:#000000;stroke-width:0.6;" x="45.478125" xlink:href="#m556f1fb8c5" y="205.917883"/>
      </g>
     </g>
    </g>
    <g id="ytick_13">
     <g id="line2d_42">
      <g>
       <use style="stroke:#000000;stroke-width:0.6;" x="45.478125" xlink:href="#m556f1fb8c5" y="200.484548"/>
      </g>
     </g>
    </g>
    <g id="ytick_14">
     <g id="line2d_43">
      <g>
       <use style="stroke:#000000;stroke-width:0.6;" x="45.478125" xlink:href="#m556f1fb8c5" y="196.270125"/>
      </g>
     </g>
    </g>
    <g id="ytick_15">
     <g id="line2d_44">
      <g>
       <use style="stroke:#000000;stroke-width:0.6;" x="45.478125" xlink:href="#m556f1fb8c5" y="192.826691"/>
      </g>
     </g>
    </g>
    <g id="ytick_16">
     <g id="line2d_45">
      <g>
       <use style="stroke:#000000;stroke-width:0.6;" x="45.478125" xlink:href="#m556f1fb8c5" y="189.915309"/>
      </g>
     </g>
    </g>
    <g id="ytick_17">
     <g id="line2d_46">
      <g>
       <use style="stroke:#000000;stroke-width:0.6;" x="45.478125" xlink:href="#m556f1fb8c5" y="187.393355"/>
      </g>
     </g>
    </g>
    <g id="ytick_18">
     <g id="line2d_47">
      <g>
       <use style="stroke:#000000;stroke-width:0.6;" x="45.478125" xlink:href="#m556f1fb8c5" y="185.168834"/>
      </g>
     </g>
    </g>
    <g id="ytick_19">
     <g id="line2d_48">
      <g>
       <use style="stroke:#000000;stroke-width:0.6;" x="45.478125" xlink:href="#m556f1fb8c5" y="170.08774"/>
      </g>
     </g>
    </g>
    <g id="ytick_20">
     <g id="line2d_49">
      <g>
       <use style="stroke:#000000;stroke-width:0.6;" x="45.478125" xlink:href="#m556f1fb8c5" y="162.429883"/>
      </g>
     </g>
    </g>
    <g id="ytick_21">
     <g id="line2d_50">
      <g>
       <use style="stroke:#000000;stroke-width:0.6;" x="45.478125" xlink:href="#m556f1fb8c5" y="156.996548"/>
      </g>
     </g>
    </g>
    <g id="ytick_22">
     <g id="line2d_51">
      <g>
       <use style="stroke:#000000;stroke-width:0.6;" x="45.478125" xlink:href="#m556f1fb8c5" y="152.782125"/>
      </g>
     </g>
    </g>
    <g id="ytick_23">
     <g id="line2d_52">
      <g>
       <use style="stroke:#000000;stroke-width:0.6;" x="45.478125" xlink:href="#m556f1fb8c5" y="149.338691"/>
      </g>
     </g>
    </g>
    <g id="ytick_24">
     <g id="line2d_53">
      <g>
       <use style="stroke:#000000;stroke-width:0.6;" x="45.478125" xlink:href="#m556f1fb8c5" y="146.427309"/>
      </g>
     </g>
    </g>
    <g id="ytick_25">
     <g id="line2d_54">
      <g>
       <use style="stroke:#000000;stroke-width:0.6;" x="45.478125" xlink:href="#m556f1fb8c5" y="143.905355"/>
      </g>
     </g>
    </g>
    <g id="ytick_26">
     <g id="line2d_55">
      <g>
       <use style="stroke:#000000;stroke-width:0.6;" x="45.478125" xlink:href="#m556f1fb8c5" y="141.680834"/>
      </g>
     </g>
    </g>
    <g id="ytick_27">
     <g id="line2d_56">
      <g>
       <use style="stroke:#000000;stroke-width:0.6;" x="45.478125" xlink:href="#m556f1fb8c5" y="126.59974"/>
      </g>
     </g>
    </g>
    <g id="ytick_28">
     <g id="line2d_57">
      <g>
       <use style="stroke:#000000;stroke-width:0.6;" x="45.478125" xlink:href="#m556f1fb8c5" y="118.941883"/>
      </g>
     </g>
    </g>
    <g id="ytick_29">
     <g id="line2d_58">
      <g>
       <use style="stroke:#000000;stroke-width:0.6;" x="45.478125" xlink:href="#m556f1fb8c5" y="113.508548"/>
      </g>
     </g>
    </g>
    <g id="ytick_30">
     <g id="line2d_59">
      <g>
       <use style="stroke:#000000;stroke-width:0.6;" x="45.478125" xlink:href="#m556f1fb8c5" y="109.294125"/>
      </g>
     </g>
    </g>
    <g id="ytick_31">
     <g id="line2d_60">
      <g>
       <use style="stroke:#000000;stroke-width:0.6;" x="45.478125" xlink:href="#m556f1fb8c5" y="105.850691"/>
      </g>
     </g>
    </g>
    <g id="ytick_32">
     <g id="line2d_61">
      <g>
       <use style="stroke:#000000;stroke-width:0.6;" x="45.478125" xlink:href="#m556f1fb8c5" y="102.939309"/>
      </g>
     </g>
    </g>
    <g id="ytick_33">
     <g id="line2d_62">
      <g>
       <use style="stroke:#000000;stroke-width:0.6;" x="45.478125" xlink:href="#m556f1fb8c5" y="100.417355"/>
      </g>
     </g>
    </g>
    <g id="ytick_34">
     <g id="line2d_63">
      <g>
       <use style="stroke:#000000;stroke-width:0.6;" x="45.478125" xlink:href="#m556f1fb8c5" y="98.192834"/>
      </g>
     </g>
    </g>
    <g id="ytick_35">
     <g id="line2d_64">
      <g>
       <use style="stroke:#000000;stroke-width:0.6;" x="45.478125" xlink:href="#m556f1fb8c5" y="83.11174"/>
      </g>
     </g>
    </g>
    <g id="ytick_36">
     <g id="line2d_65">
      <g>
       <use style="stroke:#000000;stroke-width:0.6;" x="45.478125" xlink:href="#m556f1fb8c5" y="75.453883"/>
      </g>
     </g>
    </g>
    <g id="ytick_37">
     <g id="line2d_66">
      <g>
       <use style="stroke:#000000;stroke-width:0.6;" x="45.478125" xlink:href="#m556f1fb8c5" y="70.020548"/>
      </g>
     </g>
    </g>
    <g id="ytick_38">
     <g id="line2d_67">
      <g>
       <use style="stroke:#000000;stroke-width:0.6;" x="45.478125" xlink:href="#m556f1fb8c5" y="65.806125"/>
      </g>
     </g>
    </g>
    <g id="ytick_39">
     <g id="line2d_68">
      <g>
       <use style="stroke:#000000;stroke-width:0.6;" x="45.478125" xlink:href="#m556f1fb8c5" y="62.362691"/>
      </g>
     </g>
    </g>
    <g id="ytick_40">
     <g id="line2d_69">
      <g>
       <use style="stroke:#000000;stroke-width:0.6;" x="45.478125" xlink:href="#m556f1fb8c5" y="59.451309"/>
      </g>
     </g>
    </g>
    <g id="ytick_41">
     <g id="line2d_70">
      <g>
       <use style="stroke:#000000;stroke-width:0.6;" x="45.478125" xlink:href="#m556f1fb8c5" y="56.929355"/>
      </g>
     </g>
    </g>
    <g id="ytick_42">
     <g id="line2d_71">
      <g>
       <use style="stroke:#000000;stroke-width:0.6;" x="45.478125" xlink:href="#m556f1fb8c5" y="54.704834"/>
      </g>
     </g>
    </g>
    <g id="ytick_43">
     <g id="line2d_72">
      <g>
       <use style="stroke:#000000;stroke-width:0.6;" x="45.478125" xlink:href="#m556f1fb8c5" y="39.62374"/>
      </g>
     </g>
    </g>
    <g id="ytick_44">
     <g id="line2d_73">
      <g>
       <use style="stroke:#000000;stroke-width:0.6;" x="45.478125" xlink:href="#m556f1fb8c5" y="31.965883"/>
      </g>
     </g>
    </g>
    <g id="ytick_45">
     <g id="line2d_74">
      <g>
       <use style="stroke:#000000;stroke-width:0.6;" x="45.478125" xlink:href="#m556f1fb8c5" y="26.532548"/>
      </g>
     </g>
    </g>
    <g id="ytick_46">
     <g id="line2d_75">
      <g>
       <use style="stroke:#000000;stroke-width:0.6;" x="45.478125" xlink:href="#m556f1fb8c5" y="22.318125"/>
      </g>
     </g>
    </g>
    <g id="text_18">
     <!-- Number of... -->
     <defs>
      <path d="M 9.8125 72.90625 
L 23.09375 72.90625 
L 55.421875 11.921875 
L 55.421875 72.90625 
L 64.984375 72.90625 
L 64.984375 0 
L 51.703125 0 
L 19.390625 60.984375 
L 19.390625 0 
L 9.8125 0 
z
" id="DejaVuSans-78"/>
      <path d="M 8.5 21.578125 
L 8.5 54.6875 
L 17.484375 54.6875 
L 17.484375 21.921875 
Q 17.484375 14.15625 20.5 10.265625 
Q 23.53125 6.390625 29.59375 6.390625 
Q 36.859375 6.390625 41.078125 11.03125 
Q 45.3125 15.671875 45.3125 23.6875 
L 45.3125 54.6875 
L 54.296875 54.6875 
L 54.296875 0 
L 45.3125 0 
L 45.3125 8.40625 
Q 42.046875 3.421875 37.71875 1 
Q 33.40625 -1.421875 27.6875 -1.421875 
Q 18.265625 -1.421875 13.375 4.4375 
Q 8.5 10.296875 8.5 21.578125 
z
M 31.109375 56 
z
" id="DejaVuSans-117"/>
      <path d="M 52 44.1875 
Q 55.375 50.25 60.0625 53.125 
Q 64.75 56 71.09375 56 
Q 79.640625 56 84.28125 50.015625 
Q 88.921875 44.046875 88.921875 33.015625 
L 88.921875 0 
L 79.890625 0 
L 79.890625 32.71875 
Q 79.890625 40.578125 77.09375 44.375 
Q 74.3125 48.1875 68.609375 48.1875 
Q 61.625 48.1875 57.5625 43.546875 
Q 53.515625 38.921875 53.515625 30.90625 
L 53.515625 0 
L 44.484375 0 
L 44.484375 32.71875 
Q 44.484375 40.625 41.703125 44.40625 
Q 38.921875 48.1875 33.109375 48.1875 
Q 26.21875 48.1875 22.15625 43.53125 
Q 18.109375 38.875 18.109375 30.90625 
L 18.109375 0 
L 9.078125 0 
L 9.078125 54.6875 
L 18.109375 54.6875 
L 18.109375 46.1875 
Q 21.1875 51.21875 25.484375 53.609375 
Q 29.78125 56 35.6875 56 
Q 41.65625 56 45.828125 52.96875 
Q 50 49.953125 52 44.1875 
z
" id="DejaVuSans-109"/>
      <path d="M 48.6875 27.296875 
Q 48.6875 37.203125 44.609375 42.84375 
Q 40.53125 48.484375 33.40625 48.484375 
Q 26.265625 48.484375 22.1875 42.84375 
Q 18.109375 37.203125 18.109375 27.296875 
Q 18.109375 17.390625 22.1875 11.75 
Q 26.265625 6.109375 33.40625 6.109375 
Q 40.53125 6.109375 44.609375 11.75 
Q 48.6875 17.390625 48.6875 27.296875 
z
M 18.109375 46.390625 
Q 20.953125 51.265625 25.265625 53.625 
Q 29.59375 56 35.59375 56 
Q 45.5625 56 51.78125 48.09375 
Q 58.015625 40.1875 58.015625 27.296875 
Q 58.015625 14.40625 51.78125 6.484375 
Q 45.5625 -1.421875 35.59375 -1.421875 
Q 29.59375 -1.421875 25.265625 0.953125 
Q 20.953125 3.328125 18.109375 8.203125 
L 18.109375 0 
L 9.078125 0 
L 9.078125 75.984375 
L 18.109375 75.984375 
z
" id="DejaVuSans-98"/>
      <path d="M 30.609375 48.390625 
Q 23.390625 48.390625 19.1875 42.75 
Q 14.984375 37.109375 14.984375 27.296875 
Q 14.984375 17.484375 19.15625 11.84375 
Q 23.34375 6.203125 30.609375 6.203125 
Q 37.796875 6.203125 41.984375 11.859375 
Q 46.1875 17.53125 46.1875 27.296875 
Q 46.1875 37.015625 41.984375 42.703125 
Q 37.796875 48.390625 30.609375 48.390625 
z
M 30.609375 56 
Q 42.328125 56 49.015625 48.375 
Q 55.71875 40.765625 55.71875 27.296875 
Q 55.71875 13.875 49.015625 6.21875 
Q 42.328125 -1.421875 30.609375 -1.421875 
Q 18.84375 -1.421875 12.171875 6.21875 
Q 5.515625 13.875 5.515625 27.296875 
Q 5.515625 40.765625 12.171875 48.375 
Q 18.84375 56 30.609375 56 
z
" id="DejaVuSans-111"/>
      <path d="M 37.109375 75.984375 
L 37.109375 68.5 
L 28.515625 68.5 
Q 23.6875 68.5 21.796875 66.546875 
Q 19.921875 64.59375 19.921875 59.515625 
L 19.921875 54.6875 
L 34.71875 54.6875 
L 34.71875 47.703125 
L 19.921875 47.703125 
L 19.921875 0 
L 10.890625 0 
L 10.890625 47.703125 
L 2.296875 47.703125 
L 2.296875 54.6875 
L 10.890625 54.6875 
L 10.890625 58.5 
Q 10.890625 67.625 15.140625 71.796875 
Q 19.390625 75.984375 28.609375 75.984375 
z
" id="DejaVuSans-102"/>
     </defs>
     <g transform="translate(14.798438 162.294375)rotate(-90)scale(0.1 -0.1)">
      <use xlink:href="#DejaVuSans-78"/>
      <use x="74.804688" xlink:href="#DejaVuSans-117"/>
      <use x="138.183594" xlink:href="#DejaVuSans-109"/>
      <use x="235.595703" xlink:href="#DejaVuSans-98"/>
      <use x="299.072266" xlink:href="#DejaVuSans-101"/>
      <use x="360.595703" xlink:href="#DejaVuSans-114"/>
      <use x="401.708984" xlink:href="#DejaVuSans-32"/>
      <use x="433.496094" xlink:href="#DejaVuSans-111"/>
      <use x="494.677734" xlink:href="#DejaVuSans-102"/>
      <use x="529.773438" xlink:href="#DejaVuSans-46"/>
      <use x="561.560547" xlink:href="#DejaVuSans-46"/>
      <use x="593.347656" xlink:href="#DejaVuSans-46"/>
     </g>
    </g>
   </g>
   <g id="line2d_76">
    <path clip-path="url(#p0793823397)" d="M -1 258.94609 
L 2.698529 246.494501 
L 7.451818 246.494501 
L 12.205106 246.494501 
L 16.958394 238.657624 
L 21.711683 237.283447 
L 26.464971 236.314691 
L 31.21826 236.314691 
L 35.971548 235.393211 
L 40.724837 233.950785 
L 45.478125 232.100268 
L 50.231413 226.666933 
L 54.984702 222.60421 
L 59.73799 218.027733 
L 64.491279 211.690001 
L 69.244567 204.758083 
L 73.997856 198.900312 
L 78.751144 194.78165 
L 83.504432 189.807693 
L 88.257721 183.292593 
L 93.011009 178.209241 
L 97.764298 173.951318 
L 102.517586 168.434164 
L 107.270874 163.929555 
L 112.024163 158.897473 
L 116.777451 154.340504 
L 121.53074 148.2471 
L 126.284028 141.027054 
L 131.037317 133.474223 
L 135.790605 127.028576 
L 140.543893 122.830196 
L 145.297182 116.667065 
L 150.05047 111.62751 
L 154.803759 107.357862 
L 159.557047 103.237084 
L 164.310335 98.968414 
L 169.063624 95.24246 
L 173.816912 92.020569 
L 178.570201 89.187966 
L 183.323489 86.384795 
L 188.076778 83.750104 
L 192.830066 81.286347 
L 197.583354 78.843906 
L 202.336643 76.523837 
L 207.089931 74.353738 
L 211.84322 72.882975 
L 216.596508 71.221942 
L 221.349796 69.589922 
L 226.103085 68.153234 
L 230.856373 66.754415 
L 235.609662 65.446791 
L 240.36295 64.354621 
L 245.116239 63.407544 
L 249.869527 62.530486 
L 254.622815 61.684003 
L 259.376104 60.779208 
L 264.129392 59.930749 
L 268.882681 59.055574 
L 273.635969 58.302482 
L 278.389257 57.650881 
L 283.142546 56.973199 
L 287.895834 56.365842 
L 292.649123 55.68718 
L 297.402411 54.995095 
L 302.1557 54.182625 
L 306.908988 53.473118 
L 311.662276 52.959007 
L 316.415565 52.520349 
L 321.168853 52.051252 
L 325.922142 51.539852 
L 330.67543 51.000495 
L 335.428718 50.38945 
L 340.182007 49.899186 
" style="fill:none;stroke:#1f77b4;stroke-linecap:square;stroke-width:1.5;"/>
    <defs>
     <path d="M 0 3 
C 0.795609 3 1.55874 2.683901 2.12132 2.12132 
C 2.683901 1.55874 3 0.795609 3 0 
C 3 -0.795609 2.683901 -1.55874 2.12132 -2.12132 
C 1.55874 -2.683901 0.795609 -3 0 -3 
C -0.795609 -3 -1.55874 -2.683901 -2.12132 -2.12132 
C -2.683901 -1.55874 -3 -0.795609 -3 0 
C -3 0.795609 -2.683901 1.55874 -2.12132 2.12132 
C -1.55874 2.683901 -0.795609 3 0 3 
z
" id="m3b254eef55" style="stroke:#1f77b4;"/>
    </defs>
    <g clip-path="url(#p0793823397)">
     <use style="fill:#1f77b4;stroke:#1f77b4;" x="-1" xlink:href="#m3b254eef55" y="258.94609"/>
     <use style="fill:#1f77b4;stroke:#1f77b4;" x="2.698529" xlink:href="#m3b254eef55" y="246.494501"/>
     <use style="fill:#1f77b4;stroke:#1f77b4;" x="7.451818" xlink:href="#m3b254eef55" y="246.494501"/>
     <use style="fill:#1f77b4;stroke:#1f77b4;" x="12.205106" xlink:href="#m3b254eef55" y="246.494501"/>
     <use style="fill:#1f77b4;stroke:#1f77b4;" x="16.958394" xlink:href="#m3b254eef55" y="238.657624"/>
     <use style="fill:#1f77b4;stroke:#1f77b4;" x="21.711683" xlink:href="#m3b254eef55" y="237.283447"/>
     <use style="fill:#1f77b4;stroke:#1f77b4;" x="26.464971" xlink:href="#m3b254eef55" y="236.314691"/>
     <use style="fill:#1f77b4;stroke:#1f77b4;" x="31.21826" xlink:href="#m3b254eef55" y="236.314691"/>
     <use style="fill:#1f77b4;stroke:#1f77b4;" x="35.971548" xlink:href="#m3b254eef55" y="235.393211"/>
     <use style="fill:#1f77b4;stroke:#1f77b4;" x="40.724837" xlink:href="#m3b254eef55" y="233.950785"/>
     <use style="fill:#1f77b4;stroke:#1f77b4;" x="45.478125" xlink:href="#m3b254eef55" y="232.100268"/>
     <use style="fill:#1f77b4;stroke:#1f77b4;" x="50.231413" xlink:href="#m3b254eef55" y="226.666933"/>
     <use style="fill:#1f77b4;stroke:#1f77b4;" x="54.984702" xlink:href="#m3b254eef55" y="222.60421"/>
     <use style="fill:#1f77b4;stroke:#1f77b4;" x="59.73799" xlink:href="#m3b254eef55" y="218.027733"/>
     <use style="fill:#1f77b4;stroke:#1f77b4;" x="64.491279" xlink:href="#m3b254eef55" y="211.690001"/>
     <use style="fill:#1f77b4;stroke:#1f77b4;" x="69.244567" xlink:href="#m3b254eef55" y="204.758083"/>
     <use style="fill:#1f77b4;stroke:#1f77b4;" x="73.997856" xlink:href="#m3b254eef55" y="198.900312"/>
     <use style="fill:#1f77b4;stroke:#1f77b4;" x="78.751144" xlink:href="#m3b254eef55" y="194.78165"/>
     <use style="fill:#1f77b4;stroke:#1f77b4;" x="83.504432" xlink:href="#m3b254eef55" y="189.807693"/>
     <use style="fill:#1f77b4;stroke:#1f77b4;" x="88.257721" xlink:href="#m3b254eef55" y="183.292593"/>
     <use style="fill:#1f77b4;stroke:#1f77b4;" x="93.011009" xlink:href="#m3b254eef55" y="178.209241"/>
     <use style="fill:#1f77b4;stroke:#1f77b4;" x="97.764298" xlink:href="#m3b254eef55" y="173.951318"/>
     <use style="fill:#1f77b4;stroke:#1f77b4;" x="102.517586" xlink:href="#m3b254eef55" y="168.434164"/>
     <use style="fill:#1f77b4;stroke:#1f77b4;" x="107.270874" xlink:href="#m3b254eef55" y="163.929555"/>
     <use style="fill:#1f77b4;stroke:#1f77b4;" x="112.024163" xlink:href="#m3b254eef55" y="158.897473"/>
     <use style="fill:#1f77b4;stroke:#1f77b4;" x="116.777451" xlink:href="#m3b254eef55" y="154.340504"/>
     <use style="fill:#1f77b4;stroke:#1f77b4;" x="121.53074" xlink:href="#m3b254eef55" y="148.2471"/>
     <use style="fill:#1f77b4;stroke:#1f77b4;" x="126.284028" xlink:href="#m3b254eef55" y="141.027054"/>
     <use style="fill:#1f77b4;stroke:#1f77b4;" x="131.037317" xlink:href="#m3b254eef55" y="133.474223"/>
     <use style="fill:#1f77b4;stroke:#1f77b4;" x="135.790605" xlink:href="#m3b254eef55" y="127.028576"/>
     <use style="fill:#1f77b4;stroke:#1f77b4;" x="140.543893" xlink:href="#m3b254eef55" y="122.830196"/>
     <use style="fill:#1f77b4;stroke:#1f77b4;" x="145.297182" xlink:href="#m3b254eef55" y="116.667065"/>
     <use style="fill:#1f77b4;stroke:#1f77b4;" x="150.05047" xlink:href="#m3b254eef55" y="111.62751"/>
     <use style="fill:#1f77b4;stroke:#1f77b4;" x="154.803759" xlink:href="#m3b254eef55" y="107.357862"/>
     <use style="fill:#1f77b4;stroke:#1f77b4;" x="159.557047" xlink:href="#m3b254eef55" y="103.237084"/>
     <use style="fill:#1f77b4;stroke:#1f77b4;" x="164.310335" xlink:href="#m3b254eef55" y="98.968414"/>
     <use style="fill:#1f77b4;stroke:#1f77b4;" x="169.063624" xlink:href="#m3b254eef55" y="95.24246"/>
     <use style="fill:#1f77b4;stroke:#1f77b4;" x="173.816912" xlink:href="#m3b254eef55" y="92.020569"/>
     <use style="fill:#1f77b4;stroke:#1f77b4;" x="178.570201" xlink:href="#m3b254eef55" y="89.187966"/>
     <use style="fill:#1f77b4;stroke:#1f77b4;" x="183.323489" xlink:href="#m3b254eef55" y="86.384795"/>
     <use style="fill:#1f77b4;stroke:#1f77b4;" x="188.076778" xlink:href="#m3b254eef55" y="83.750104"/>
     <use style="fill:#1f77b4;stroke:#1f77b4;" x="192.830066" xlink:href="#m3b254eef55" y="81.286347"/>
     <use style="fill:#1f77b4;stroke:#1f77b4;" x="197.583354" xlink:href="#m3b254eef55" y="78.843906"/>
     <use style="fill:#1f77b4;stroke:#1f77b4;" x="202.336643" xlink:href="#m3b254eef55" y="76.523837"/>
     <use style="fill:#1f77b4;stroke:#1f77b4;" x="207.089931" xlink:href="#m3b254eef55" y="74.353738"/>
     <use style="fill:#1f77b4;stroke:#1f77b4;" x="211.84322" xlink:href="#m3b254eef55" y="72.882975"/>
     <use style="fill:#1f77b4;stroke:#1f77b4;" x="216.596508" xlink:href="#m3b254eef55" y="71.221942"/>
     <use style="fill:#1f77b4;stroke:#1f77b4;" x="221.349796" xlink:href="#m3b254eef55" y="69.589922"/>
     <use style="fill:#1f77b4;stroke:#1f77b4;" x="226.103085" xlink:href="#m3b254eef55" y="68.153234"/>
     <use style="fill:#1f77b4;stroke:#1f77b4;" x="230.856373" xlink:href="#m3b254eef55" y="66.754415"/>
     <use style="fill:#1f77b4;stroke:#1f77b4;" x="235.609662" xlink:href="#m3b254eef55" y="65.446791"/>
     <use style="fill:#1f77b4;stroke:#1f77b4;" x="240.36295" xlink:href="#m3b254eef55" y="64.354621"/>
     <use style="fill:#1f77b4;stroke:#1f77b4;" x="245.116239" xlink:href="#m3b254eef55" y="63.407544"/>
     <use style="fill:#1f77b4;stroke:#1f77b4;" x="249.869527" xlink:href="#m3b254eef55" y="62.530486"/>
     <use style="fill:#1f77b4;stroke:#1f77b4;" x="254.622815" xlink:href="#m3b254eef55" y="61.684003"/>
     <use style="fill:#1f77b4;stroke:#1f77b4;" x="259.376104" xlink:href="#m3b254eef55" y="60.779208"/>
     <use style="fill:#1f77b4;stroke:#1f77b4;" x="264.129392" xlink:href="#m3b254eef55" y="59.930749"/>
     <use style="fill:#1f77b4;stroke:#1f77b4;" x="268.882681" xlink:href="#m3b254eef55" y="59.055574"/>
     <use style="fill:#1f77b4;stroke:#1f77b4;" x="273.635969" xlink:href="#m3b254eef55" y="58.302482"/>
     <use style="fill:#1f77b4;stroke:#1f77b4;" x="278.389257" xlink:href="#m3b254eef55" y="57.650881"/>
     <use style="fill:#1f77b4;stroke:#1f77b4;" x="283.142546" xlink:href="#m3b254eef55" y="56.973199"/>
     <use style="fill:#1f77b4;stroke:#1f77b4;" x="287.895834" xlink:href="#m3b254eef55" y="56.365842"/>
     <use style="fill:#1f77b4;stroke:#1f77b4;" x="292.649123" xlink:href="#m3b254eef55" y="55.68718"/>
     <use style="fill:#1f77b4;stroke:#1f77b4;" x="297.402411" xlink:href="#m3b254eef55" y="54.995095"/>
     <use style="fill:#1f77b4;stroke:#1f77b4;" x="302.1557" xlink:href="#m3b254eef55" y="54.182625"/>
     <use style="fill:#1f77b4;stroke:#1f77b4;" x="306.908988" xlink:href="#m3b254eef55" y="53.473118"/>
     <use style="fill:#1f77b4;stroke:#1f77b4;" x="311.662276" xlink:href="#m3b254eef55" y="52.959007"/>
     <use style="fill:#1f77b4;stroke:#1f77b4;" x="316.415565" xlink:href="#m3b254eef55" y="52.520349"/>
     <use style="fill:#1f77b4;stroke:#1f77b4;" x="321.168853" xlink:href="#m3b254eef55" y="52.051252"/>
     <use style="fill:#1f77b4;stroke:#1f77b4;" x="325.922142" xlink:href="#m3b254eef55" y="51.539852"/>
     <use style="fill:#1f77b4;stroke:#1f77b4;" x="330.67543" xlink:href="#m3b254eef55" y="51.000495"/>
     <use style="fill:#1f77b4;stroke:#1f77b4;" x="335.428718" xlink:href="#m3b254eef55" y="50.38945"/>
     <use style="fill:#1f77b4;stroke:#1f77b4;" x="340.182007" xlink:href="#m3b254eef55" y="49.899186"/>
    </g>
   </g>
   <g id="line2d_77">
    <path clip-path="url(#p0793823397)" d="M 50.142651 280.43462 
L 50.231413 279.802691 
L 54.984702 272.144834 
L 59.73799 268.354847 
L 64.491279 266.711499 
L 69.244567 262.497076 
L 73.997856 258.032496 
L 78.751144 255.263655 
L 83.504432 252.108572 
L 88.257721 249.405883 
L 93.011009 244.941303 
L 97.764298 243.506188 
L 102.517586 240.529114 
L 107.270874 236.954976 
L 112.024163 232.610748 
L 116.777451 227.635688 
L 121.53074 223.066762 
L 126.284028 216.534398 
L 131.037317 210.211165 
L 135.790605 205.359618 
L 140.543893 201.753892 
L 145.297182 195.93319 
L 150.05047 190.214455 
L 154.803759 184.009034 
L 159.557047 178.814018 
L 164.310335 174.137624 
L 169.063624 169.076537 
L 173.816912 164.045781 
L 178.570201 160.912339 
L 183.323489 156.687462 
L 188.076778 152.220193 
L 192.830066 148.137492 
L 197.583354 144.933847 
L 202.336643 142.021753 
L 207.089931 138.979265 
L 211.84322 136.576135 
L 216.596508 134.307713 
L 221.349796 131.382133 
L 226.103085 128.916677 
L 230.856373 126.787649 
L 235.609662 124.767061 
L 240.36295 123.107579 
L 245.116239 121.798469 
L 249.869527 120.574933 
L 254.622815 118.890958 
L 259.376104 117.30735 
L 264.129392 116.081835 
L 268.882681 114.753668 
L 273.635969 113.827097 
L 278.389257 113.087848 
L 283.142546 112.207333 
L 287.895834 111.060396 
L 292.649123 110.106868 
L 297.402411 109.205942 
L 302.1557 108.484134 
L 306.908988 107.751268 
L 311.662276 107.353089 
L 316.415565 106.887495 
L 321.168853 106.083481 
L 325.922142 105.336791 
L 330.67543 104.674321 
L 335.428718 104.12142 
L 340.182007 103.641845 
" style="fill:none;stroke:#ff7f0e;stroke-linecap:square;stroke-width:1.5;"/>
    <defs>
     <path d="M 0 3 
C 0.795609 3 1.55874 2.683901 2.12132 2.12132 
C 2.683901 1.55874 3 0.795609 3 0 
C 3 -0.795609 2.683901 -1.55874 2.12132 -2.12132 
C 1.55874 -2.683901 0.795609 -3 0 -3 
C -0.795609 -3 -1.55874 -2.683901 -2.12132 -2.12132 
C -2.683901 -1.55874 -3 -0.795609 -3 0 
C -3 0.795609 -2.683901 1.55874 -2.12132 2.12132 
C -1.55874 2.683901 -0.795609 3 0 3 
z
" id="m59d73826f7" style="stroke:#ff7f0e;"/>
    </defs>
    <g clip-path="url(#p0793823397)">
     <use style="fill:#ff7f0e;stroke:#ff7f0e;" x="38.559947" xlink:href="#m59d73826f7" y="20120.292643"/>
     <use style="fill:#ff7f0e;stroke:#ff7f0e;" x="40.724837" xlink:href="#m59d73826f7" y="313.642933"/>
     <use style="fill:#ff7f0e;stroke:#ff7f0e;" x="45.478125" xlink:href="#m59d73826f7" y="313.642933"/>
     <use style="fill:#ff7f0e;stroke:#ff7f0e;" x="50.231413" xlink:href="#m59d73826f7" y="279.802691"/>
     <use style="fill:#ff7f0e;stroke:#ff7f0e;" x="54.984702" xlink:href="#m59d73826f7" y="272.144834"/>
     <use style="fill:#ff7f0e;stroke:#ff7f0e;" x="59.73799" xlink:href="#m59d73826f7" y="268.354847"/>
     <use style="fill:#ff7f0e;stroke:#ff7f0e;" x="64.491279" xlink:href="#m59d73826f7" y="266.711499"/>
     <use style="fill:#ff7f0e;stroke:#ff7f0e;" x="69.244567" xlink:href="#m59d73826f7" y="262.497076"/>
     <use style="fill:#ff7f0e;stroke:#ff7f0e;" x="73.997856" xlink:href="#m59d73826f7" y="258.032496"/>
     <use style="fill:#ff7f0e;stroke:#ff7f0e;" x="78.751144" xlink:href="#m59d73826f7" y="255.263655"/>
     <use style="fill:#ff7f0e;stroke:#ff7f0e;" x="83.504432" xlink:href="#m59d73826f7" y="252.108572"/>
     <use style="fill:#ff7f0e;stroke:#ff7f0e;" x="88.257721" xlink:href="#m59d73826f7" y="249.405883"/>
     <use style="fill:#ff7f0e;stroke:#ff7f0e;" x="93.011009" xlink:href="#m59d73826f7" y="244.941303"/>
     <use style="fill:#ff7f0e;stroke:#ff7f0e;" x="97.764298" xlink:href="#m59d73826f7" y="243.506188"/>
     <use style="fill:#ff7f0e;stroke:#ff7f0e;" x="102.517586" xlink:href="#m59d73826f7" y="240.529114"/>
     <use style="fill:#ff7f0e;stroke:#ff7f0e;" x="107.270874" xlink:href="#m59d73826f7" y="236.954976"/>
     <use style="fill:#ff7f0e;stroke:#ff7f0e;" x="112.024163" xlink:href="#m59d73826f7" y="232.610748"/>
     <use style="fill:#ff7f0e;stroke:#ff7f0e;" x="116.777451" xlink:href="#m59d73826f7" y="227.635688"/>
     <use style="fill:#ff7f0e;stroke:#ff7f0e;" x="121.53074" xlink:href="#m59d73826f7" y="223.066762"/>
     <use style="fill:#ff7f0e;stroke:#ff7f0e;" x="126.284028" xlink:href="#m59d73826f7" y="216.534398"/>
     <use style="fill:#ff7f0e;stroke:#ff7f0e;" x="131.037317" xlink:href="#m59d73826f7" y="210.211165"/>
     <use style="fill:#ff7f0e;stroke:#ff7f0e;" x="135.790605" xlink:href="#m59d73826f7" y="205.359618"/>
     <use style="fill:#ff7f0e;stroke:#ff7f0e;" x="140.543893" xlink:href="#m59d73826f7" y="201.753892"/>
     <use style="fill:#ff7f0e;stroke:#ff7f0e;" x="145.297182" xlink:href="#m59d73826f7" y="195.93319"/>
     <use style="fill:#ff7f0e;stroke:#ff7f0e;" x="150.05047" xlink:href="#m59d73826f7" y="190.214455"/>
     <use style="fill:#ff7f0e;stroke:#ff7f0e;" x="154.803759" xlink:href="#m59d73826f7" y="184.009034"/>
     <use style="fill:#ff7f0e;stroke:#ff7f0e;" x="159.557047" xlink:href="#m59d73826f7" y="178.814018"/>
     <use style="fill:#ff7f0e;stroke:#ff7f0e;" x="164.310335" xlink:href="#m59d73826f7" y="174.137624"/>
     <use style="fill:#ff7f0e;stroke:#ff7f0e;" x="169.063624" xlink:href="#m59d73826f7" y="169.076537"/>
     <use style="fill:#ff7f0e;stroke:#ff7f0e;" x="173.816912" xlink:href="#m59d73826f7" y="164.045781"/>
     <use style="fill:#ff7f0e;stroke:#ff7f0e;" x="178.570201" xlink:href="#m59d73826f7" y="160.912339"/>
     <use style="fill:#ff7f0e;stroke:#ff7f0e;" x="183.323489" xlink:href="#m59d73826f7" y="156.687462"/>
     <use style="fill:#ff7f0e;stroke:#ff7f0e;" x="188.076778" xlink:href="#m59d73826f7" y="152.220193"/>
     <use style="fill:#ff7f0e;stroke:#ff7f0e;" x="192.830066" xlink:href="#m59d73826f7" y="148.137492"/>
     <use style="fill:#ff7f0e;stroke:#ff7f0e;" x="197.583354" xlink:href="#m59d73826f7" y="144.933847"/>
     <use style="fill:#ff7f0e;stroke:#ff7f0e;" x="202.336643" xlink:href="#m59d73826f7" y="142.021753"/>
     <use style="fill:#ff7f0e;stroke:#ff7f0e;" x="207.089931" xlink:href="#m59d73826f7" y="138.979265"/>
     <use style="fill:#ff7f0e;stroke:#ff7f0e;" x="211.84322" xlink:href="#m59d73826f7" y="136.576135"/>
     <use style="fill:#ff7f0e;stroke:#ff7f0e;" x="216.596508" xlink:href="#m59d73826f7" y="134.307713"/>
     <use style="fill:#ff7f0e;stroke:#ff7f0e;" x="221.349796" xlink:href="#m59d73826f7" y="131.382133"/>
     <use style="fill:#ff7f0e;stroke:#ff7f0e;" x="226.103085" xlink:href="#m59d73826f7" y="128.916677"/>
     <use style="fill:#ff7f0e;stroke:#ff7f0e;" x="230.856373" xlink:href="#m59d73826f7" y="126.787649"/>
     <use style="fill:#ff7f0e;stroke:#ff7f0e;" x="235.609662" xlink:href="#m59d73826f7" y="124.767061"/>
     <use style="fill:#ff7f0e;stroke:#ff7f0e;" x="240.36295" xlink:href="#m59d73826f7" y="123.107579"/>
     <use style="fill:#ff7f0e;stroke:#ff7f0e;" x="245.116239" xlink:href="#m59d73826f7" y="121.798469"/>
     <use style="fill:#ff7f0e;stroke:#ff7f0e;" x="249.869527" xlink:href="#m59d73826f7" y="120.574933"/>
     <use style="fill:#ff7f0e;stroke:#ff7f0e;" x="254.622815" xlink:href="#m59d73826f7" y="118.890958"/>
     <use style="fill:#ff7f0e;stroke:#ff7f0e;" x="259.376104" xlink:href="#m59d73826f7" y="117.30735"/>
     <use style="fill:#ff7f0e;stroke:#ff7f0e;" x="264.129392" xlink:href="#m59d73826f7" y="116.081835"/>
     <use style="fill:#ff7f0e;stroke:#ff7f0e;" x="268.882681" xlink:href="#m59d73826f7" y="114.753668"/>
     <use style="fill:#ff7f0e;stroke:#ff7f0e;" x="273.635969" xlink:href="#m59d73826f7" y="113.827097"/>
     <use style="fill:#ff7f0e;stroke:#ff7f0e;" x="278.389257" xlink:href="#m59d73826f7" y="113.087848"/>
     <use style="fill:#ff7f0e;stroke:#ff7f0e;" x="283.142546" xlink:href="#m59d73826f7" y="112.207333"/>
     <use style="fill:#ff7f0e;stroke:#ff7f0e;" x="287.895834" xlink:href="#m59d73826f7" y="111.060396"/>
     <use style="fill:#ff7f0e;stroke:#ff7f0e;" x="292.649123" xlink:href="#m59d73826f7" y="110.106868"/>
     <use style="fill:#ff7f0e;stroke:#ff7f0e;" x="297.402411" xlink:href="#m59d73826f7" y="109.205942"/>
     <use style="fill:#ff7f0e;stroke:#ff7f0e;" x="302.1557" xlink:href="#m59d73826f7" y="108.484134"/>
     <use style="fill:#ff7f0e;stroke:#ff7f0e;" x="306.908988" xlink:href="#m59d73826f7" y="107.751268"/>
     <use style="fill:#ff7f0e;stroke:#ff7f0e;" x="311.662276" xlink:href="#m59d73826f7" y="107.353089"/>
     <use style="fill:#ff7f0e;stroke:#ff7f0e;" x="316.415565" xlink:href="#m59d73826f7" y="106.887495"/>
     <use style="fill:#ff7f0e;stroke:#ff7f0e;" x="321.168853" xlink:href="#m59d73826f7" y="106.083481"/>
     <use style="fill:#ff7f0e;stroke:#ff7f0e;" x="325.922142" xlink:href="#m59d73826f7" y="105.336791"/>
     <use style="fill:#ff7f0e;stroke:#ff7f0e;" x="330.67543" xlink:href="#m59d73826f7" y="104.674321"/>
     <use style="fill:#ff7f0e;stroke:#ff7f0e;" x="335.428718" xlink:href="#m59d73826f7" y="104.12142"/>
     <use style="fill:#ff7f0e;stroke:#ff7f0e;" x="340.182007" xlink:href="#m59d73826f7" y="103.641845"/>
    </g>
   </g>
   <g id="line2d_78">
    <path clip-path="url(#p0793823397)" d="M 45.478125 54.205746 
L 380.278125 54.205746 
" style="fill:none;stroke:#1f77b4;stroke-dasharray:5.55,2.4;stroke-dashoffset:0;stroke-width:1.5;"/>
   </g>
   <g id="line2d_79">
    <path clip-path="url(#p0793823397)" d="M 45.478125 64.529554 
L 380.278125 64.529554 
" style="fill:none;stroke:#ff7f0e;stroke-dasharray:5.55,2.4;stroke-dashoffset:0;stroke-width:1.5;"/>
   </g>
   <g id="line2d_80">
    <path clip-path="url(#p0793823397)" d="M 45.478125 86.303774 
L 380.278125 86.303774 
" style="fill:none;stroke:#2ca02c;stroke-dasharray:5.55,2.4;stroke-dashoffset:0;stroke-width:1.5;"/>
   </g>
   <g id="line2d_81">
    <path clip-path="url(#p0793823397)" d="M 45.478125 96.857029 
L 380.278125 96.857029 
" style="fill:none;stroke:#d62728;stroke-dasharray:5.55,2.4;stroke-dashoffset:0;stroke-width:1.5;"/>
   </g>
   <g id="patch_3">
    <path d="M 45.478125 239.758125 
L 45.478125 22.318125 
" style="fill:none;stroke:#000000;stroke-linecap:square;stroke-linejoin:miter;stroke-width:0.8;"/>
   </g>
   <g id="patch_4">
    <path d="M 380.278125 239.758125 
L 380.278125 22.318125 
" style="fill:none;stroke:#000000;stroke-linecap:square;stroke-linejoin:miter;stroke-width:0.8;"/>
   </g>
   <g id="patch_5">
    <path d="M 45.478125 239.758125 
L 380.278125 239.758125 
" style="fill:none;stroke:#000000;stroke-linecap:square;stroke-linejoin:miter;stroke-width:0.8;"/>
   </g>
   <g id="patch_6">
    <path d="M 45.478125 22.318125 
L 380.278125 22.318125 
" style="fill:none;stroke:#000000;stroke-linecap:square;stroke-linejoin:miter;stroke-width:0.8;"/>
   </g>
   <g id="text_19">
    <!--  Scott Sievert -->
    <defs>
     <path d="M 50 72.515625 
Q 57.421875 72.515625 63.84375 69.828125 
Q 70.265625 67.140625 75.59375 61.8125 
Q 80.90625 56.5 83.546875 50.09375 
Q 86.1875 43.703125 86.1875 36.1875 
Q 86.1875 28.765625 83.546875 22.390625 
Q 80.90625 16.015625 75.59375 10.6875 
Q 70.265625 5.375 63.84375 2.6875 
Q 57.421875 0 50 0 
Q 42.578125 0 36.15625 2.6875 
Q 29.734375 5.375 24.421875 10.6875 
Q 19.09375 16.015625 16.453125 22.390625 
Q 13.8125 28.765625 13.8125 36.1875 
Q 13.8125 43.703125 16.453125 50.09375 
Q 19.09375 56.5 24.421875 61.8125 
Q 29.734375 67.140625 36.15625 69.828125 
Q 42.578125 72.515625 50 72.515625 
z
M 50 67.484375 
Q 43.609375 67.484375 38.078125 65.1875 
Q 32.5625 62.890625 27.984375 58.296875 
Q 23.390625 53.71875 21.046875 48.125 
Q 18.703125 42.53125 18.703125 36.1875 
Q 18.703125 29.890625 21.046875 24.34375 
Q 23.390625 18.796875 27.984375 14.203125 
Q 32.5625 9.625 38.078125 7.296875 
Q 43.609375 4.984375 50 4.984375 
Q 56.453125 4.984375 61.984375 7.296875 
Q 67.53125 9.625 72.125 14.203125 
Q 76.65625 18.75 78.921875 24.265625 
Q 81.203125 29.78125 81.203125 36.1875 
Q 81.203125 42.671875 78.90625 48.21875 
Q 76.609375 53.765625 72.125 58.296875 
Q 67.53125 62.890625 61.984375 65.1875 
Q 56.453125 67.484375 50 67.484375 
z
M 64.59375 55.515625 
L 64.59375 49.21875 
Q 61.375 50.828125 58.203125 51.609375 
Q 55.03125 52.390625 51.8125 52.390625 
Q 44.53125 52.390625 40.453125 48.109375 
Q 36.375 43.84375 36.375 36.1875 
Q 36.375 28.421875 40.546875 24.171875 
Q 44.734375 19.921875 52.296875 19.921875 
Q 55.421875 19.921875 58.390625 20.671875 
Q 61.375 21.4375 64.59375 23.09375 
L 64.59375 16.890625 
Q 61.328125 15.484375 57.984375 14.796875 
Q 54.640625 14.109375 51.21875 14.109375 
Q 40.671875 14.109375 34.546875 20.0625 
Q 28.421875 26.03125 28.421875 36.1875 
Q 28.421875 46.390625 34.546875 52.296875 
Q 40.671875 58.203125 51.21875 58.203125 
Q 54.78125 58.203125 58.09375 57.515625 
Q 61.421875 56.84375 64.59375 55.515625 
z
" id="DejaVuSans-169"/>
     <path d="M 53.515625 70.515625 
L 53.515625 60.890625 
Q 47.90625 63.578125 42.921875 64.890625 
Q 37.9375 66.21875 33.296875 66.21875 
Q 25.25 66.21875 20.875 63.09375 
Q 16.5 59.96875 16.5 54.203125 
Q 16.5 49.359375 19.40625 46.890625 
Q 22.3125 44.4375 30.421875 42.921875 
L 36.375 41.703125 
Q 47.40625 39.59375 52.65625 34.296875 
Q 57.90625 29 57.90625 20.125 
Q 57.90625 9.515625 50.796875 4.046875 
Q 43.703125 -1.421875 29.984375 -1.421875 
Q 24.8125 -1.421875 18.96875 -0.25 
Q 13.140625 0.921875 6.890625 3.21875 
L 6.890625 13.375 
Q 12.890625 10.015625 18.65625 8.296875 
Q 24.421875 6.59375 29.984375 6.59375 
Q 38.421875 6.59375 43.015625 9.90625 
Q 47.609375 13.234375 47.609375 19.390625 
Q 47.609375 24.75 44.3125 27.78125 
Q 41.015625 30.8125 33.5 32.328125 
L 27.484375 33.5 
Q 16.453125 35.6875 11.515625 40.375 
Q 6.59375 45.0625 6.59375 53.421875 
Q 6.59375 63.09375 13.40625 68.65625 
Q 20.21875 74.21875 32.171875 74.21875 
Q 37.3125 74.21875 42.625 73.28125 
Q 47.953125 72.359375 53.515625 70.515625 
z
" id="DejaVuSans-83"/>
     <path d="M 48.78125 52.59375 
L 48.78125 44.1875 
Q 44.96875 46.296875 41.140625 47.34375 
Q 37.3125 48.390625 33.40625 48.390625 
Q 24.65625 48.390625 19.8125 42.84375 
Q 14.984375 37.3125 14.984375 27.296875 
Q 14.984375 17.28125 19.8125 11.734375 
Q 24.65625 6.203125 33.40625 6.203125 
Q 37.3125 6.203125 41.140625 7.25 
Q 44.96875 8.296875 48.78125 10.40625 
L 48.78125 2.09375 
Q 45.015625 0.34375 40.984375 -0.53125 
Q 36.96875 -1.421875 32.421875 -1.421875 
Q 20.0625 -1.421875 12.78125 6.34375 
Q 5.515625 14.109375 5.515625 27.296875 
Q 5.515625 40.671875 12.859375 48.328125 
Q 20.21875 56 33.015625 56 
Q 37.15625 56 41.109375 55.140625 
Q 45.0625 54.296875 48.78125 52.59375 
z
" id="DejaVuSans-99"/>
     <path d="M 9.421875 54.6875 
L 18.40625 54.6875 
L 18.40625 0 
L 9.421875 0 
z
M 9.421875 75.984375 
L 18.40625 75.984375 
L 18.40625 64.59375 
L 9.421875 64.59375 
z
" id="DejaVuSans-105"/>
     <path d="M 2.984375 54.6875 
L 12.5 54.6875 
L 29.59375 8.796875 
L 46.6875 54.6875 
L 56.203125 54.6875 
L 35.6875 0 
L 23.484375 0 
z
" id="DejaVuSans-118"/>
    </defs>
    <g style="fill:#888888;" transform="translate(332.745241 270.154933)scale(0.1 -0.1)">
     <use xlink:href="#DejaVuSans-169"/>
     <use x="100" xlink:href="#DejaVuSans-32"/>
     <use x="131.787109" xlink:href="#DejaVuSans-83"/>
     <use x="195.263672" xlink:href="#DejaVuSans-99"/>
     <use x="250.244141" xlink:href="#DejaVuSans-111"/>
     <use x="311.425781" xlink:href="#DejaVuSans-116"/>
     <use x="350.634766" xlink:href="#DejaVuSans-116"/>
     <use x="389.84375" xlink:href="#DejaVuSans-32"/>
     <use x="421.630859" xlink:href="#DejaVuSans-83"/>
     <use x="485.107422" xlink:href="#DejaVuSans-105"/>
     <use x="512.890625" xlink:href="#DejaVuSans-101"/>
     <use x="574.414062" xlink:href="#DejaVuSans-118"/>
     <use x="633.59375" xlink:href="#DejaVuSans-101"/>
     <use x="695.117188" xlink:href="#DejaVuSans-114"/>
     <use x="736.230469" xlink:href="#DejaVuSans-116"/>
    </g>
   </g>
   <g id="text_20">
    <!-- US Cases -->
    <defs>
     <path d="M 8.6875 72.90625 
L 18.609375 72.90625 
L 18.609375 28.609375 
Q 18.609375 16.890625 22.84375 11.734375 
Q 27.09375 6.59375 36.625 6.59375 
Q 46.09375 6.59375 50.34375 11.734375 
Q 54.59375 16.890625 54.59375 28.609375 
L 54.59375 72.90625 
L 64.5 72.90625 
L 64.5 27.390625 
Q 64.5 13.140625 57.4375 5.859375 
Q 50.390625 -1.421875 36.625 -1.421875 
Q 22.796875 -1.421875 15.734375 5.859375 
Q 8.6875 13.140625 8.6875 27.390625 
z
" id="DejaVuSans-85"/>
     <path d="M 64.40625 67.28125 
L 64.40625 56.890625 
Q 59.421875 61.53125 53.78125 63.8125 
Q 48.140625 66.109375 41.796875 66.109375 
Q 29.296875 66.109375 22.65625 58.46875 
Q 16.015625 50.828125 16.015625 36.375 
Q 16.015625 21.96875 22.65625 14.328125 
Q 29.296875 6.6875 41.796875 6.6875 
Q 48.140625 6.6875 53.78125 8.984375 
Q 59.421875 11.28125 64.40625 15.921875 
L 64.40625 5.609375 
Q 59.234375 2.09375 53.4375 0.328125 
Q 47.65625 -1.421875 41.21875 -1.421875 
Q 24.65625 -1.421875 15.125 8.703125 
Q 5.609375 18.84375 5.609375 36.375 
Q 5.609375 53.953125 15.125 64.078125 
Q 24.65625 74.21875 41.21875 74.21875 
Q 47.75 74.21875 53.53125 72.484375 
Q 59.328125 70.75 64.40625 67.28125 
z
" id="DejaVuSans-67"/>
     <path d="M 44.28125 53.078125 
L 44.28125 44.578125 
Q 40.484375 46.53125 36.375 47.5 
Q 32.28125 48.484375 27.875 48.484375 
Q 21.1875 48.484375 17.84375 46.4375 
Q 14.5 44.390625 14.5 40.28125 
Q 14.5 37.15625 16.890625 35.375 
Q 19.28125 33.59375 26.515625 31.984375 
L 29.59375 31.296875 
Q 39.15625 29.25 43.1875 25.515625 
Q 47.21875 21.78125 47.21875 15.09375 
Q 47.21875 7.46875 41.1875 3.015625 
Q 35.15625 -1.421875 24.609375 -1.421875 
Q 20.21875 -1.421875 15.453125 -0.5625 
Q 10.6875 0.296875 5.421875 2 
L 5.421875 11.28125 
Q 10.40625 8.6875 15.234375 7.390625 
Q 20.0625 6.109375 24.8125 6.109375 
Q 31.15625 6.109375 34.5625 8.28125 
Q 37.984375 10.453125 37.984375 14.40625 
Q 37.984375 18.0625 35.515625 20.015625 
Q 33.0625 21.96875 24.703125 23.78125 
L 21.578125 24.515625 
Q 13.234375 26.265625 9.515625 29.90625 
Q 5.8125 33.546875 5.8125 39.890625 
Q 5.8125 47.609375 11.28125 51.796875 
Q 16.75 56 26.8125 56 
Q 31.78125 56 36.171875 55.265625 
Q 40.578125 54.546875 44.28125 53.078125 
z
" id="DejaVuSans-115"/>
    </defs>
    <g transform="translate(184.96125 16.318125)scale(0.12 -0.12)">
     <use xlink:href="#DejaVuSans-85"/>
     <use x="73.193359" xlink:href="#DejaVuSans-83"/>
     <use x="136.669922" xlink:href="#DejaVuSans-32"/>
     <use x="168.457031" xlink:href="#DejaVuSans-67"/>
     <use x="238.28125" xlink:href="#DejaVuSans-97"/>
     <use x="299.560547" xlink:href="#DejaVuSans-115"/>
     <use x="351.660156" xlink:href="#DejaVuSans-101"/>
     <use x="413.183594" xlink:href="#DejaVuSans-115"/>
    </g>
   </g>
   <g id="legend_1">
    <g id="patch_7">
     <path d="M 270.478125 234.758125 
L 373.278125 234.758125 
Q 375.278125 234.758125 375.278125 232.758125 
L 375.278125 175.045625 
Q 375.278125 173.045625 373.278125 173.045625 
L 270.478125 173.045625 
Q 268.478125 173.045625 268.478125 175.045625 
L 268.478125 232.758125 
Q 268.478125 234.758125 270.478125 234.758125 
z
" style="fill:#ffffff;opacity:0.8;stroke:#cccccc;stroke-linejoin:miter;"/>
    </g>
    <g id="text_21">
     <!-- Name (# in 7 days) -->
     <defs>
      <path d="M 31 75.875 
Q 24.46875 64.65625 21.28125 53.65625 
Q 18.109375 42.671875 18.109375 31.390625 
Q 18.109375 20.125 21.3125 9.0625 
Q 24.515625 -2 31 -13.1875 
L 23.1875 -13.1875 
Q 15.875 -1.703125 12.234375 9.375 
Q 8.59375 20.453125 8.59375 31.390625 
Q 8.59375 42.28125 12.203125 53.3125 
Q 15.828125 64.359375 23.1875 75.875 
z
" id="DejaVuSans-40"/>
      <path d="M 51.125 44 
L 36.921875 44 
L 32.8125 27.6875 
L 47.125 27.6875 
z
M 43.796875 71.78125 
L 38.71875 51.515625 
L 52.984375 51.515625 
L 58.109375 71.78125 
L 65.921875 71.78125 
L 60.890625 51.515625 
L 76.125 51.515625 
L 76.125 44 
L 58.984375 44 
L 54.984375 27.6875 
L 70.515625 27.6875 
L 70.515625 20.21875 
L 53.078125 20.21875 
L 48 0 
L 40.1875 0 
L 45.21875 20.21875 
L 30.90625 20.21875 
L 25.875 0 
L 18.015625 0 
L 23.09375 20.21875 
L 7.71875 20.21875 
L 7.71875 27.6875 
L 24.90625 27.6875 
L 29 44 
L 13.28125 44 
L 13.28125 51.515625 
L 30.90625 51.515625 
L 35.890625 71.78125 
z
" id="DejaVuSans-35"/>
      <path d="M 54.890625 33.015625 
L 54.890625 0 
L 45.90625 0 
L 45.90625 32.71875 
Q 45.90625 40.484375 42.875 44.328125 
Q 39.84375 48.1875 33.796875 48.1875 
Q 26.515625 48.1875 22.3125 43.546875 
Q 18.109375 38.921875 18.109375 30.90625 
L 18.109375 0 
L 9.078125 0 
L 9.078125 54.6875 
L 18.109375 54.6875 
L 18.109375 46.1875 
Q 21.34375 51.125 25.703125 53.5625 
Q 30.078125 56 35.796875 56 
Q 45.21875 56 50.046875 50.171875 
Q 54.890625 44.34375 54.890625 33.015625 
z
" id="DejaVuSans-110"/>
      <path d="M 8.203125 72.90625 
L 55.078125 72.90625 
L 55.078125 68.703125 
L 28.609375 0 
L 18.3125 0 
L 43.21875 64.59375 
L 8.203125 64.59375 
z
" id="DejaVuSans-55"/>
      <path d="M 45.40625 46.390625 
L 45.40625 75.984375 
L 54.390625 75.984375 
L 54.390625 0 
L 45.40625 0 
L 45.40625 8.203125 
Q 42.578125 3.328125 38.25 0.953125 
Q 33.9375 -1.421875 27.875 -1.421875 
Q 17.96875 -1.421875 11.734375 6.484375 
Q 5.515625 14.40625 5.515625 27.296875 
Q 5.515625 40.1875 11.734375 48.09375 
Q 17.96875 56 27.875 56 
Q 33.9375 56 38.25 53.625 
Q 42.578125 51.265625 45.40625 46.390625 
z
M 14.796875 27.296875 
Q 14.796875 17.390625 18.875 11.75 
Q 22.953125 6.109375 30.078125 6.109375 
Q 37.203125 6.109375 41.296875 11.75 
Q 45.40625 17.390625 45.40625 27.296875 
Q 45.40625 37.203125 41.296875 42.84375 
Q 37.203125 48.484375 30.078125 48.484375 
Q 22.953125 48.484375 18.875 42.84375 
Q 14.796875 37.203125 14.796875 27.296875 
z
" id="DejaVuSans-100"/>
      <path d="M 8.015625 75.875 
L 15.828125 75.875 
Q 23.140625 64.359375 26.78125 53.3125 
Q 30.421875 42.28125 30.421875 31.390625 
Q 30.421875 20.453125 26.78125 9.375 
Q 23.140625 -1.703125 15.828125 -13.1875 
L 8.015625 -13.1875 
Q 14.5 -2 17.703125 9.0625 
Q 20.90625 20.125 20.90625 31.390625 
Q 20.90625 42.671875 17.703125 53.65625 
Q 14.5 64.65625 8.015625 75.875 
z
" id="DejaVuSans-41"/>
     </defs>
     <g transform="translate(273.1375 184.644062)scale(0.1 -0.1)">
      <use xlink:href="#DejaVuSans-78"/>
      <use x="74.804688" xlink:href="#DejaVuSans-97"/>
      <use x="136.083984" xlink:href="#DejaVuSans-109"/>
      <use x="233.496094" xlink:href="#DejaVuSans-101"/>
      <use x="295.019531" xlink:href="#DejaVuSans-32"/>
      <use x="326.806641" xlink:href="#DejaVuSans-40"/>
      <use x="365.820312" xlink:href="#DejaVuSans-35"/>
      <use x="449.609375" xlink:href="#DejaVuSans-32"/>
      <use x="481.396484" xlink:href="#DejaVuSans-105"/>
      <use x="509.179688" xlink:href="#DejaVuSans-110"/>
      <use x="572.558594" xlink:href="#DejaVuSans-32"/>
      <use x="604.345703" xlink:href="#DejaVuSans-55"/>
      <use x="667.96875" xlink:href="#DejaVuSans-32"/>
      <use x="699.755859" xlink:href="#DejaVuSans-100"/>
      <use x="763.232422" xlink:href="#DejaVuSans-97"/>
      <use x="824.511719" xlink:href="#DejaVuSans-121"/>
      <use x="883.691406" xlink:href="#DejaVuSans-115"/>
      <use x="935.791016" xlink:href="#DejaVuSans-41"/>
     </g>
    </g>
    <g id="line2d_82">
     <path d="M 272.478125 195.822187 
L 292.478125 195.822187 
" style="fill:none;stroke:#1f77b4;stroke-linecap:square;stroke-width:1.5;"/>
    </g>
    <g id="line2d_83">
     <g>
      <use style="fill:#1f77b4;stroke:#1f77b4;" x="282.478125" xlink:href="#m3b254eef55" y="195.822187"/>
     </g>
    </g>
    <g id="text_22">
     <!-- Cases (1.2$\times$) -->
     <defs>
      <path d="M 70.125 53.71875 
L 47.796875 31.296875 
L 70.125 8.984375 
L 64.3125 3.078125 
L 41.890625 25.484375 
L 19.484375 3.078125 
L 13.71875 8.984375 
L 35.984375 31.296875 
L 13.71875 53.71875 
L 19.484375 59.625 
L 41.890625 37.203125 
L 64.3125 59.625 
z
" id="DejaVuSans-215"/>
     </defs>
     <g transform="translate(300.478125 199.322187)scale(0.1 -0.1)">
      <use transform="translate(0 0.125)" xlink:href="#DejaVuSans-67"/>
      <use transform="translate(69.824219 0.125)" xlink:href="#DejaVuSans-97"/>
      <use transform="translate(131.103516 0.125)" xlink:href="#DejaVuSans-115"/>
      <use transform="translate(183.203125 0.125)" xlink:href="#DejaVuSans-101"/>
      <use transform="translate(244.726562 0.125)" xlink:href="#DejaVuSans-115"/>
      <use transform="translate(296.826172 0.125)" xlink:href="#DejaVuSans-32"/>
      <use transform="translate(328.613281 0.125)" xlink:href="#DejaVuSans-40"/>
      <use transform="translate(367.626953 0.125)" xlink:href="#DejaVuSans-49"/>
      <use transform="translate(431.25 0.125)" xlink:href="#DejaVuSans-46"/>
      <use transform="translate(462.958984 0.125)" xlink:href="#DejaVuSans-50"/>
      <use transform="translate(526.582031 0.125)" xlink:href="#DejaVuSans-215"/>
      <use transform="translate(610.371094 0.125)" xlink:href="#DejaVuSans-41"/>
     </g>
    </g>
    <g id="line2d_84">
     <path d="M 272.478125 210.500312 
L 292.478125 210.500312 
" style="fill:none;stroke:#ff7f0e;stroke-linecap:square;stroke-width:1.5;"/>
    </g>
    <g id="line2d_85">
     <g>
      <use style="fill:#ff7f0e;stroke:#ff7f0e;" x="282.478125" xlink:href="#m59d73826f7" y="210.500312"/>
     </g>
    </g>
    <g id="text_23">
     <!-- Deaths (1.3$\times$) -->
     <defs>
      <path d="M 54.890625 33.015625 
L 54.890625 0 
L 45.90625 0 
L 45.90625 32.71875 
Q 45.90625 40.484375 42.875 44.328125 
Q 39.84375 48.1875 33.796875 48.1875 
Q 26.515625 48.1875 22.3125 43.546875 
Q 18.109375 38.921875 18.109375 30.90625 
L 18.109375 0 
L 9.078125 0 
L 9.078125 75.984375 
L 18.109375 75.984375 
L 18.109375 46.1875 
Q 21.34375 51.125 25.703125 53.5625 
Q 30.078125 56 35.796875 56 
Q 45.21875 56 50.046875 50.171875 
Q 54.890625 44.34375 54.890625 33.015625 
z
" id="DejaVuSans-104"/>
     </defs>
     <g transform="translate(300.478125 214.000312)scale(0.1 -0.1)">
      <use transform="translate(0 0.015625)" xlink:href="#DejaVuSans-68"/>
      <use transform="translate(77.001953 0.015625)" xlink:href="#DejaVuSans-101"/>
      <use transform="translate(138.525391 0.015625)" xlink:href="#DejaVuSans-97"/>
      <use transform="translate(199.804688 0.015625)" xlink:href="#DejaVuSans-116"/>
      <use transform="translate(239.013672 0.015625)" xlink:href="#DejaVuSans-104"/>
      <use transform="translate(302.392578 0.015625)" xlink:href="#DejaVuSans-115"/>
      <use transform="translate(354.492188 0.015625)" xlink:href="#DejaVuSans-32"/>
      <use transform="translate(386.279297 0.015625)" xlink:href="#DejaVuSans-40"/>
      <use transform="translate(425.292969 0.015625)" xlink:href="#DejaVuSans-49"/>
      <use transform="translate(488.916016 0.015625)" xlink:href="#DejaVuSans-46"/>
      <use transform="translate(520.703125 0.015625)" xlink:href="#DejaVuSans-51"/>
      <use transform="translate(584.326172 0.015625)" xlink:href="#DejaVuSans-215"/>
      <use transform="translate(668.115234 0.015625)" xlink:href="#DejaVuSans-41"/>
     </g>
    </g>
    <g id="line2d_86">
     <path d="M 272.478125 225.178437 
L 292.478125 225.178437 
" style="fill:none;stroke:#2ca02c;stroke-linecap:square;"/>
    </g>
    <g id="line2d_87"/>
    <g id="text_24">
     <!-- (7.6$\times$) -->
     <g transform="translate(300.478125 228.678437)scale(0.1 -0.1)">
      <use transform="translate(0 0.125)" xlink:href="#DejaVuSans-40"/>
      <use transform="translate(39.013672 0.125)" xlink:href="#DejaVuSans-55"/>
      <use transform="translate(102.636719 0.125)" xlink:href="#DejaVuSans-46"/>
      <use transform="translate(134.423828 0.125)" xlink:href="#DejaVuSans-54"/>
      <use transform="translate(198.046875 0.125)" xlink:href="#DejaVuSans-215"/>
      <use transform="translate(281.835938 0.125)" xlink:href="#DejaVuSans-41"/>
     </g>
    </g>
   </g>
   <g id="legend_2">
    <g id="patch_8">
     <path d="M 52.478125 89.030625 
L 165.529687 89.030625 
Q 167.529687 89.030625 167.529687 87.030625 
L 167.529687 29.318125 
Q 167.529687 27.318125 165.529687 27.318125 
L 52.478125 27.318125 
Q 50.478125 27.318125 50.478125 29.318125 
L 50.478125 87.030625 
Q 50.478125 89.030625 52.478125 89.030625 
z
" style="fill:#ffffff;opacity:0.8;stroke:#cccccc;stroke-linejoin:miter;"/>
    </g>
    <g id="line2d_88">
     <path d="M 54.478125 35.416562 
L 74.478125 35.416562 
" style="fill:none;stroke:#1f77b4;stroke-dasharray:5.55,2.4;stroke-dashoffset:0;stroke-width:1.5;"/>
    </g>
    <g id="line2d_89"/>
    <g id="text_25">
     <!-- Hospital beds -->
     <defs>
      <path d="M 9.8125 72.90625 
L 19.671875 72.90625 
L 19.671875 43.015625 
L 55.515625 43.015625 
L 55.515625 72.90625 
L 65.375 72.90625 
L 65.375 0 
L 55.515625 0 
L 55.515625 34.71875 
L 19.671875 34.71875 
L 19.671875 0 
L 9.8125 0 
z
" id="DejaVuSans-72"/>
      <path d="M 9.421875 75.984375 
L 18.40625 75.984375 
L 18.40625 0 
L 9.421875 0 
z
" id="DejaVuSans-108"/>
     </defs>
     <g transform="translate(82.478125 38.916562)scale(0.1 -0.1)">
      <use xlink:href="#DejaVuSans-72"/>
      <use x="75.195312" xlink:href="#DejaVuSans-111"/>
      <use x="136.376953" xlink:href="#DejaVuSans-115"/>
      <use x="188.476562" xlink:href="#DejaVuSans-112"/>
      <use x="251.953125" xlink:href="#DejaVuSans-105"/>
      <use x="279.736328" xlink:href="#DejaVuSans-116"/>
      <use x="318.945312" xlink:href="#DejaVuSans-97"/>
      <use x="380.224609" xlink:href="#DejaVuSans-108"/>
      <use x="408.007812" xlink:href="#DejaVuSans-32"/>
      <use x="439.794922" xlink:href="#DejaVuSans-98"/>
      <use x="503.271484" xlink:href="#DejaVuSans-101"/>
      <use x="564.794922" xlink:href="#DejaVuSans-100"/>
      <use x="628.271484" xlink:href="#DejaVuSans-115"/>
     </g>
    </g>
    <g id="line2d_90">
     <path d="M 54.478125 50.094687 
L 74.478125 50.094687 
" style="fill:none;stroke:#ff7f0e;stroke-dasharray:5.55,2.4;stroke-dashoffset:0;stroke-width:1.5;"/>
    </g>
    <g id="line2d_91"/>
    <g id="text_26">
     <!-- Acute care beds -->
     <g transform="translate(82.478125 53.594687)scale(0.1 -0.1)">
      <use xlink:href="#DejaVuSans-65"/>
      <use x="68.392578" xlink:href="#DejaVuSans-99"/>
      <use x="123.373047" xlink:href="#DejaVuSans-117"/>
      <use x="186.751953" xlink:href="#DejaVuSans-116"/>
      <use x="225.960938" xlink:href="#DejaVuSans-101"/>
      <use x="287.484375" xlink:href="#DejaVuSans-32"/>
      <use x="319.271484" xlink:href="#DejaVuSans-99"/>
      <use x="374.251953" xlink:href="#DejaVuSans-97"/>
      <use x="435.53125" xlink:href="#DejaVuSans-114"/>
      <use x="476.613281" xlink:href="#DejaVuSans-101"/>
      <use x="538.136719" xlink:href="#DejaVuSans-32"/>
      <use x="569.923828" xlink:href="#DejaVuSans-98"/>
      <use x="633.400391" xlink:href="#DejaVuSans-101"/>
      <use x="694.923828" xlink:href="#DejaVuSans-100"/>
      <use x="758.400391" xlink:href="#DejaVuSans-115"/>
     </g>
    </g>
    <g id="line2d_92">
     <path d="M 54.478125 64.772812 
L 74.478125 64.772812 
" style="fill:none;stroke:#2ca02c;stroke-dasharray:5.55,2.4;stroke-dashoffset:0;stroke-width:1.5;"/>
    </g>
    <g id="line2d_93"/>
    <g id="text_27">
     <!-- Ventilators -->
     <defs>
      <path d="M 28.609375 0 
L 0.78125 72.90625 
L 11.078125 72.90625 
L 34.1875 11.53125 
L 57.328125 72.90625 
L 67.578125 72.90625 
L 39.796875 0 
z
" id="DejaVuSans-86"/>
     </defs>
     <g transform="translate(82.478125 68.272812)scale(0.1 -0.1)">
      <use xlink:href="#DejaVuSans-86"/>
      <use x="68.298828" xlink:href="#DejaVuSans-101"/>
      <use x="129.822266" xlink:href="#DejaVuSans-110"/>
      <use x="193.201172" xlink:href="#DejaVuSans-116"/>
      <use x="232.410156" xlink:href="#DejaVuSans-105"/>
      <use x="260.193359" xlink:href="#DejaVuSans-108"/>
      <use x="287.976562" xlink:href="#DejaVuSans-97"/>
      <use x="349.255859" xlink:href="#DejaVuSans-116"/>
      <use x="388.464844" xlink:href="#DejaVuSans-111"/>
      <use x="449.646484" xlink:href="#DejaVuSans-114"/>
      <use x="490.759766" xlink:href="#DejaVuSans-115"/>
     </g>
    </g>
    <g id="line2d_94">
     <path d="M 54.478125 79.450938 
L 74.478125 79.450938 
" style="fill:none;stroke:#d62728;stroke-dasharray:5.55,2.4;stroke-dashoffset:0;stroke-width:1.5;"/>
    </g>
    <g id="line2d_95"/>
    <g id="text_28">
     <!-- ICU beds -->
     <defs>
      <path d="M 9.8125 72.90625 
L 19.671875 72.90625 
L 19.671875 0 
L 9.8125 0 
z
" id="DejaVuSans-73"/>
     </defs>
     <g transform="translate(82.478125 82.950938)scale(0.1 -0.1)">
      <use xlink:href="#DejaVuSans-73"/>
      <use x="29.492188" xlink:href="#DejaVuSans-67"/>
      <use x="99.316406" xlink:href="#DejaVuSans-85"/>
      <use x="172.509766" xlink:href="#DejaVuSans-32"/>
      <use x="204.296875" xlink:href="#DejaVuSans-98"/>
      <use x="267.773438" xlink:href="#DejaVuSans-101"/>
      <use x="329.296875" xlink:href="#DejaVuSans-100"/>
      <use x="392.773438" xlink:href="#DejaVuSans-115"/>
     </g>
    </g>
   </g>
  </g>
 </g>
 <defs>
  <clipPath id="p0793823397">
   <rect height="217.44" width="334.8" x="45.478125" y="22.318125"/>
  </clipPath>
 </defs>
</svg>
